<?xml version="1.0" encoding="utf-8" standalone="no"?>
<!DOCTYPE svg PUBLIC "-//W3C//DTD SVG 1.1//EN"
  "http://www.w3.org/Graphics/SVG/1.1/DTD/svg11.dtd">
<svg xmlns:xlink="http://www.w3.org/1999/xlink" width="417.805313pt" height="313.269891pt" viewBox="0 0 417.805313 313.269891" xmlns="http://www.w3.org/2000/svg" version="1.1">
 <metadata>
  <rdf:RDF xmlns:dc="http://purl.org/dc/elements/1.1/" xmlns:cc="http://creativecommons.org/ns#" xmlns:rdf="http://www.w3.org/1999/02/22-rdf-syntax-ns#">
   <cc:Work>
    <dc:type rdf:resource="http://purl.org/dc/dcmitype/StillImage"/>
    <dc:date>2024-11-18T15:51:43.841795</dc:date>
    <dc:format>image/svg+xml</dc:format>
    <dc:creator>
     <cc:Agent>
      <dc:title>Matplotlib v3.7.1, https://matplotlib.org/</dc:title>
     </cc:Agent>
    </dc:creator>
   </cc:Work>
  </rdf:RDF>
 </metadata>
 <defs>
  <style type="text/css">*{stroke-linejoin: round; stroke-linecap: butt}</style>
 </defs>
 <g id="figure_1">
  <g id="patch_1">
   <path d="M 0 313.269891 
L 417.805313 313.269891 
L 417.805313 0 
L 0 0 
z
" style="fill: #ffffff"/>
  </g>
  <g id="axes_1">
   <g id="patch_2">
    <path d="M 41.25125 277.248797 
L 398.37125 277.248797 
L 398.37125 11.136797 
L 41.25125 11.136797 
z
" style="fill: #ffffff"/>
   </g>
   <g id="matplotlib.axis_1">
    <g id="xtick_1">
     <g id="line2d_1">
      <defs>
       <path id="mf5f6b02d8c" d="M 0 0 
L 0 -6 
" style="stroke: #262626; stroke-width: 1.25"/>
      </defs>
      <g>
       <use xlink:href="#mf5f6b02d8c" x="73.716705" y="277.248797" style="fill: #262626; stroke: #262626; stroke-width: 1.25"/>
      </g>
     </g>
     <g id="text_1">
      <!-- 400 -->
      <g style="fill: #262626" transform="translate(64.541158 288.622391) scale(0.11 -0.11)">
       <defs>
        <path id="ArialMT-34" d="M 2069 0 
L 2069 1097 
L 81 1097 
L 81 1613 
L 2172 4581 
L 2631 4581 
L 2631 1613 
L 3250 1613 
L 3250 1097 
L 2631 1097 
L 2631 0 
L 2069 0 
z
M 2069 1613 
L 2069 3678 
L 634 1613 
L 2069 1613 
z
" transform="scale(0.015625)"/>
        <path id="ArialMT-30" d="M 266 2259 
Q 266 3072 433 3567 
Q 600 4063 929 4331 
Q 1259 4600 1759 4600 
Q 2128 4600 2406 4451 
Q 2684 4303 2865 4023 
Q 3047 3744 3150 3342 
Q 3253 2941 3253 2259 
Q 3253 1453 3087 958 
Q 2922 463 2592 192 
Q 2263 -78 1759 -78 
Q 1097 -78 719 397 
Q 266 969 266 2259 
z
M 844 2259 
Q 844 1131 1108 757 
Q 1372 384 1759 384 
Q 2147 384 2411 759 
Q 2675 1134 2675 2259 
Q 2675 3391 2411 3762 
Q 2147 4134 1753 4134 
Q 1366 4134 1134 3806 
Q 844 3388 844 2259 
z
" transform="scale(0.015625)"/>
       </defs>
       <use xlink:href="#ArialMT-34"/>
       <use xlink:href="#ArialMT-30" x="55.615234"/>
       <use xlink:href="#ArialMT-30" x="111.230469"/>
      </g>
     </g>
    </g>
    <g id="xtick_2">
     <g id="line2d_2">
      <g>
       <use xlink:href="#mf5f6b02d8c" x="138.647614" y="277.248797" style="fill: #262626; stroke: #262626; stroke-width: 1.25"/>
      </g>
     </g>
     <g id="text_2">
      <!-- 600 -->
      <g style="fill: #262626" transform="translate(129.472067 288.622391) scale(0.11 -0.11)">
       <defs>
        <path id="ArialMT-36" d="M 3184 3459 
L 2625 3416 
Q 2550 3747 2413 3897 
Q 2184 4138 1850 4138 
Q 1581 4138 1378 3988 
Q 1113 3794 959 3422 
Q 806 3050 800 2363 
Q 1003 2672 1297 2822 
Q 1591 2972 1913 2972 
Q 2475 2972 2870 2558 
Q 3266 2144 3266 1488 
Q 3266 1056 3080 686 
Q 2894 316 2569 119 
Q 2244 -78 1831 -78 
Q 1128 -78 684 439 
Q 241 956 241 2144 
Q 241 3472 731 4075 
Q 1159 4600 1884 4600 
Q 2425 4600 2770 4297 
Q 3116 3994 3184 3459 
z
M 888 1484 
Q 888 1194 1011 928 
Q 1134 663 1356 523 
Q 1578 384 1822 384 
Q 2178 384 2434 671 
Q 2691 959 2691 1453 
Q 2691 1928 2437 2201 
Q 2184 2475 1800 2475 
Q 1419 2475 1153 2201 
Q 888 1928 888 1484 
z
" transform="scale(0.015625)"/>
       </defs>
       <use xlink:href="#ArialMT-36"/>
       <use xlink:href="#ArialMT-30" x="55.615234"/>
       <use xlink:href="#ArialMT-30" x="111.230469"/>
      </g>
     </g>
    </g>
    <g id="xtick_3">
     <g id="line2d_3">
      <g>
       <use xlink:href="#mf5f6b02d8c" x="203.578523" y="277.248797" style="fill: #262626; stroke: #262626; stroke-width: 1.25"/>
      </g>
     </g>
     <g id="text_3">
      <!-- 800 -->
      <g style="fill: #262626" transform="translate(194.402976 288.622391) scale(0.11 -0.11)">
       <defs>
        <path id="ArialMT-38" d="M 1131 2484 
Q 781 2613 612 2850 
Q 444 3088 444 3419 
Q 444 3919 803 4259 
Q 1163 4600 1759 4600 
Q 2359 4600 2725 4251 
Q 3091 3903 3091 3403 
Q 3091 3084 2923 2848 
Q 2756 2613 2416 2484 
Q 2838 2347 3058 2040 
Q 3278 1734 3278 1309 
Q 3278 722 2862 322 
Q 2447 -78 1769 -78 
Q 1091 -78 675 323 
Q 259 725 259 1325 
Q 259 1772 486 2073 
Q 713 2375 1131 2484 
z
M 1019 3438 
Q 1019 3113 1228 2906 
Q 1438 2700 1772 2700 
Q 2097 2700 2305 2904 
Q 2513 3109 2513 3406 
Q 2513 3716 2298 3927 
Q 2084 4138 1766 4138 
Q 1444 4138 1231 3931 
Q 1019 3725 1019 3438 
z
M 838 1322 
Q 838 1081 952 856 
Q 1066 631 1291 507 
Q 1516 384 1775 384 
Q 2178 384 2440 643 
Q 2703 903 2703 1303 
Q 2703 1709 2433 1975 
Q 2163 2241 1756 2241 
Q 1359 2241 1098 1978 
Q 838 1716 838 1322 
z
" transform="scale(0.015625)"/>
       </defs>
       <use xlink:href="#ArialMT-38"/>
       <use xlink:href="#ArialMT-30" x="55.615234"/>
       <use xlink:href="#ArialMT-30" x="111.230469"/>
      </g>
     </g>
    </g>
    <g id="xtick_4">
     <g id="line2d_4">
      <g>
       <use xlink:href="#mf5f6b02d8c" x="268.509432" y="277.248797" style="fill: #262626; stroke: #262626; stroke-width: 1.25"/>
      </g>
     </g>
     <g id="text_4">
      <!-- 1000 -->
      <g style="fill: #262626" transform="translate(256.275369 288.622391) scale(0.11 -0.11)">
       <defs>
        <path id="ArialMT-31" d="M 2384 0 
L 1822 0 
L 1822 3584 
Q 1619 3391 1289 3197 
Q 959 3003 697 2906 
L 697 3450 
Q 1169 3672 1522 3987 
Q 1875 4303 2022 4600 
L 2384 4600 
L 2384 0 
z
" transform="scale(0.015625)"/>
       </defs>
       <use xlink:href="#ArialMT-31"/>
       <use xlink:href="#ArialMT-30" x="55.615234"/>
       <use xlink:href="#ArialMT-30" x="111.230469"/>
       <use xlink:href="#ArialMT-30" x="166.845703"/>
      </g>
     </g>
    </g>
    <g id="xtick_5">
     <g id="line2d_5">
      <g>
       <use xlink:href="#mf5f6b02d8c" x="333.440341" y="277.248797" style="fill: #262626; stroke: #262626; stroke-width: 1.25"/>
      </g>
     </g>
     <g id="text_5">
      <!-- 1200 -->
      <g style="fill: #262626" transform="translate(321.206278 288.622391) scale(0.11 -0.11)">
       <defs>
        <path id="ArialMT-32" d="M 3222 541 
L 3222 0 
L 194 0 
Q 188 203 259 391 
Q 375 700 629 1000 
Q 884 1300 1366 1694 
Q 2113 2306 2375 2664 
Q 2638 3022 2638 3341 
Q 2638 3675 2398 3904 
Q 2159 4134 1775 4134 
Q 1369 4134 1125 3890 
Q 881 3647 878 3216 
L 300 3275 
Q 359 3922 746 4261 
Q 1134 4600 1788 4600 
Q 2447 4600 2831 4234 
Q 3216 3869 3216 3328 
Q 3216 3053 3103 2787 
Q 2991 2522 2730 2228 
Q 2469 1934 1863 1422 
Q 1356 997 1212 845 
Q 1069 694 975 541 
L 3222 541 
z
" transform="scale(0.015625)"/>
       </defs>
       <use xlink:href="#ArialMT-31"/>
       <use xlink:href="#ArialMT-32" x="55.615234"/>
       <use xlink:href="#ArialMT-30" x="111.230469"/>
       <use xlink:href="#ArialMT-30" x="166.845703"/>
      </g>
     </g>
    </g>
    <g id="xtick_6">
     <g id="line2d_6">
      <g>
       <use xlink:href="#mf5f6b02d8c" x="398.37125" y="277.248797" style="fill: #262626; stroke: #262626; stroke-width: 1.25"/>
      </g>
     </g>
     <g id="text_6">
      <!-- 1400 -->
      <g style="fill: #262626" transform="translate(386.137188 288.622391) scale(0.11 -0.11)">
       <use xlink:href="#ArialMT-31"/>
       <use xlink:href="#ArialMT-34" x="55.615234"/>
       <use xlink:href="#ArialMT-30" x="111.230469"/>
       <use xlink:href="#ArialMT-30" x="166.845703"/>
      </g>
     </g>
    </g>
    <g id="xtick_7">
     <g id="line2d_7">
      <defs>
       <path id="m02ca4d18ef" d="M 0 0 
L 0 -4 
" style="stroke: #262626"/>
      </defs>
      <g>
       <use xlink:href="#m02ca4d18ef" x="106.182159" y="277.248797" style="fill: #262626; stroke: #262626"/>
      </g>
     </g>
    </g>
    <g id="xtick_8">
     <g id="line2d_8">
      <g>
       <use xlink:href="#m02ca4d18ef" x="171.113068" y="277.248797" style="fill: #262626; stroke: #262626"/>
      </g>
     </g>
    </g>
    <g id="xtick_9">
     <g id="line2d_9">
      <g>
       <use xlink:href="#m02ca4d18ef" x="236.043977" y="277.248797" style="fill: #262626; stroke: #262626"/>
      </g>
     </g>
    </g>
    <g id="xtick_10">
     <g id="line2d_10">
      <g>
       <use xlink:href="#m02ca4d18ef" x="300.974886" y="277.248797" style="fill: #262626; stroke: #262626"/>
      </g>
     </g>
    </g>
    <g id="xtick_11">
     <g id="line2d_11">
      <g>
       <use xlink:href="#m02ca4d18ef" x="365.905795" y="277.248797" style="fill: #262626; stroke: #262626"/>
      </g>
     </g>
    </g>
    <g id="text_7">
     <!-- Wavelength (nm) -->
     <g style="fill: #262626" transform="translate(174.356562 303.544266) scale(0.12 -0.12)">
      <defs>
       <path id="ArialMT-57" d="M 1294 0 
L 78 4581 
L 700 4581 
L 1397 1578 
Q 1509 1106 1591 641 
Q 1766 1375 1797 1488 
L 2669 4581 
L 3400 4581 
L 4056 2263 
Q 4303 1400 4413 641 
Q 4500 1075 4641 1638 
L 5359 4581 
L 5969 4581 
L 4713 0 
L 4128 0 
L 3163 3491 
Q 3041 3928 3019 4028 
Q 2947 3713 2884 3491 
L 1913 0 
L 1294 0 
z
" transform="scale(0.015625)"/>
       <path id="ArialMT-61" d="M 2588 409 
Q 2275 144 1986 34 
Q 1697 -75 1366 -75 
Q 819 -75 525 192 
Q 231 459 231 875 
Q 231 1119 342 1320 
Q 453 1522 633 1644 
Q 813 1766 1038 1828 
Q 1203 1872 1538 1913 
Q 2219 1994 2541 2106 
Q 2544 2222 2544 2253 
Q 2544 2597 2384 2738 
Q 2169 2928 1744 2928 
Q 1347 2928 1158 2789 
Q 969 2650 878 2297 
L 328 2372 
Q 403 2725 575 2942 
Q 747 3159 1072 3276 
Q 1397 3394 1825 3394 
Q 2250 3394 2515 3294 
Q 2781 3194 2906 3042 
Q 3031 2891 3081 2659 
Q 3109 2516 3109 2141 
L 3109 1391 
Q 3109 606 3145 398 
Q 3181 191 3288 0 
L 2700 0 
Q 2613 175 2588 409 
z
M 2541 1666 
Q 2234 1541 1622 1453 
Q 1275 1403 1131 1340 
Q 988 1278 909 1158 
Q 831 1038 831 891 
Q 831 666 1001 516 
Q 1172 366 1500 366 
Q 1825 366 2078 508 
Q 2331 650 2450 897 
Q 2541 1088 2541 1459 
L 2541 1666 
z
" transform="scale(0.015625)"/>
       <path id="ArialMT-76" d="M 1344 0 
L 81 3319 
L 675 3319 
L 1388 1331 
Q 1503 1009 1600 663 
Q 1675 925 1809 1294 
L 2547 3319 
L 3125 3319 
L 1869 0 
L 1344 0 
z
" transform="scale(0.015625)"/>
       <path id="ArialMT-65" d="M 2694 1069 
L 3275 997 
Q 3138 488 2766 206 
Q 2394 -75 1816 -75 
Q 1088 -75 661 373 
Q 234 822 234 1631 
Q 234 2469 665 2931 
Q 1097 3394 1784 3394 
Q 2450 3394 2872 2941 
Q 3294 2488 3294 1666 
Q 3294 1616 3291 1516 
L 816 1516 
Q 847 969 1125 678 
Q 1403 388 1819 388 
Q 2128 388 2347 550 
Q 2566 713 2694 1069 
z
M 847 1978 
L 2700 1978 
Q 2663 2397 2488 2606 
Q 2219 2931 1791 2931 
Q 1403 2931 1139 2672 
Q 875 2413 847 1978 
z
" transform="scale(0.015625)"/>
       <path id="ArialMT-6c" d="M 409 0 
L 409 4581 
L 972 4581 
L 972 0 
L 409 0 
z
" transform="scale(0.015625)"/>
       <path id="ArialMT-6e" d="M 422 0 
L 422 3319 
L 928 3319 
L 928 2847 
Q 1294 3394 1984 3394 
Q 2284 3394 2536 3286 
Q 2788 3178 2913 3003 
Q 3038 2828 3088 2588 
Q 3119 2431 3119 2041 
L 3119 0 
L 2556 0 
L 2556 2019 
Q 2556 2363 2490 2533 
Q 2425 2703 2258 2804 
Q 2091 2906 1866 2906 
Q 1506 2906 1245 2678 
Q 984 2450 984 1813 
L 984 0 
L 422 0 
z
" transform="scale(0.015625)"/>
       <path id="ArialMT-67" d="M 319 -275 
L 866 -356 
Q 900 -609 1056 -725 
Q 1266 -881 1628 -881 
Q 2019 -881 2231 -725 
Q 2444 -569 2519 -288 
Q 2563 -116 2559 434 
Q 2191 0 1641 0 
Q 956 0 581 494 
Q 206 988 206 1678 
Q 206 2153 378 2554 
Q 550 2956 876 3175 
Q 1203 3394 1644 3394 
Q 2231 3394 2613 2919 
L 2613 3319 
L 3131 3319 
L 3131 450 
Q 3131 -325 2973 -648 
Q 2816 -972 2473 -1159 
Q 2131 -1347 1631 -1347 
Q 1038 -1347 672 -1080 
Q 306 -813 319 -275 
z
M 784 1719 
Q 784 1066 1043 766 
Q 1303 466 1694 466 
Q 2081 466 2343 764 
Q 2606 1063 2606 1700 
Q 2606 2309 2336 2618 
Q 2066 2928 1684 2928 
Q 1309 2928 1046 2623 
Q 784 2319 784 1719 
z
" transform="scale(0.015625)"/>
       <path id="ArialMT-74" d="M 1650 503 
L 1731 6 
Q 1494 -44 1306 -44 
Q 1000 -44 831 53 
Q 663 150 594 308 
Q 525 466 525 972 
L 525 2881 
L 113 2881 
L 113 3319 
L 525 3319 
L 525 4141 
L 1084 4478 
L 1084 3319 
L 1650 3319 
L 1650 2881 
L 1084 2881 
L 1084 941 
Q 1084 700 1114 631 
Q 1144 563 1211 522 
Q 1278 481 1403 481 
Q 1497 481 1650 503 
z
" transform="scale(0.015625)"/>
       <path id="ArialMT-68" d="M 422 0 
L 422 4581 
L 984 4581 
L 984 2938 
Q 1378 3394 1978 3394 
Q 2347 3394 2619 3248 
Q 2891 3103 3008 2847 
Q 3125 2591 3125 2103 
L 3125 0 
L 2563 0 
L 2563 2103 
Q 2563 2525 2380 2717 
Q 2197 2909 1863 2909 
Q 1613 2909 1392 2779 
Q 1172 2650 1078 2428 
Q 984 2206 984 1816 
L 984 0 
L 422 0 
z
" transform="scale(0.015625)"/>
       <path id="ArialMT-20" transform="scale(0.015625)"/>
       <path id="ArialMT-28" d="M 1497 -1347 
Q 1031 -759 709 28 
Q 388 816 388 1659 
Q 388 2403 628 3084 
Q 909 3875 1497 4659 
L 1900 4659 
Q 1522 4009 1400 3731 
Q 1209 3300 1100 2831 
Q 966 2247 966 1656 
Q 966 153 1900 -1347 
L 1497 -1347 
z
" transform="scale(0.015625)"/>
       <path id="ArialMT-6d" d="M 422 0 
L 422 3319 
L 925 3319 
L 925 2853 
Q 1081 3097 1340 3245 
Q 1600 3394 1931 3394 
Q 2300 3394 2536 3241 
Q 2772 3088 2869 2813 
Q 3263 3394 3894 3394 
Q 4388 3394 4653 3120 
Q 4919 2847 4919 2278 
L 4919 0 
L 4359 0 
L 4359 2091 
Q 4359 2428 4304 2576 
Q 4250 2725 4106 2815 
Q 3963 2906 3769 2906 
Q 3419 2906 3187 2673 
Q 2956 2441 2956 1928 
L 2956 0 
L 2394 0 
L 2394 2156 
Q 2394 2531 2256 2718 
Q 2119 2906 1806 2906 
Q 1569 2906 1367 2781 
Q 1166 2656 1075 2415 
Q 984 2175 984 1722 
L 984 0 
L 422 0 
z
" transform="scale(0.015625)"/>
       <path id="ArialMT-29" d="M 791 -1347 
L 388 -1347 
Q 1322 153 1322 1656 
Q 1322 2244 1188 2822 
Q 1081 3291 891 3722 
Q 769 4003 388 4659 
L 791 4659 
Q 1378 3875 1659 3084 
Q 1900 2403 1900 1659 
Q 1900 816 1576 28 
Q 1253 -759 791 -1347 
z
" transform="scale(0.015625)"/>
      </defs>
      <use xlink:href="#ArialMT-57"/>
      <use xlink:href="#ArialMT-61" x="90.634766"/>
      <use xlink:href="#ArialMT-76" x="146.25"/>
      <use xlink:href="#ArialMT-65" x="196.25"/>
      <use xlink:href="#ArialMT-6c" x="251.865234"/>
      <use xlink:href="#ArialMT-65" x="274.082031"/>
      <use xlink:href="#ArialMT-6e" x="329.697266"/>
      <use xlink:href="#ArialMT-67" x="385.3125"/>
      <use xlink:href="#ArialMT-74" x="440.927734"/>
      <use xlink:href="#ArialMT-68" x="468.710938"/>
      <use xlink:href="#ArialMT-20" x="524.326172"/>
      <use xlink:href="#ArialMT-28" x="552.109375"/>
      <use xlink:href="#ArialMT-6e" x="585.410156"/>
      <use xlink:href="#ArialMT-6d" x="641.025391"/>
      <use xlink:href="#ArialMT-29" x="724.326172"/>
     </g>
    </g>
   </g>
   <g id="matplotlib.axis_2">
    <g id="ytick_1">
     <g id="line2d_12">
      <defs>
       <path id="mce71cfd06b" d="M 0 0 
L 6 0 
" style="stroke: #262626; stroke-width: 1.25"/>
      </defs>
      <g>
       <use xlink:href="#mce71cfd06b" x="41.25125" y="277.248797" style="fill: #262626; stroke: #262626; stroke-width: 1.25"/>
      </g>
     </g>
     <g id="text_8">
      <!-- 0.0 -->
      <g style="fill: #262626" transform="translate(22.46125 281.185594) scale(0.11 -0.11)">
       <defs>
        <path id="ArialMT-2e" d="M 581 0 
L 581 641 
L 1222 641 
L 1222 0 
L 581 0 
z
" transform="scale(0.015625)"/>
       </defs>
       <use xlink:href="#ArialMT-30"/>
       <use xlink:href="#ArialMT-2e" x="55.615234"/>
       <use xlink:href="#ArialMT-30" x="83.398438"/>
      </g>
     </g>
    </g>
    <g id="ytick_2">
     <g id="line2d_13">
      <g>
       <use xlink:href="#mce71cfd06b" x="41.25125" y="232.896797" style="fill: #262626; stroke: #262626; stroke-width: 1.25"/>
      </g>
     </g>
     <g id="text_9">
      <!-- 0.2 -->
      <g style="fill: #262626" transform="translate(22.46125 236.833594) scale(0.11 -0.11)">
       <use xlink:href="#ArialMT-30"/>
       <use xlink:href="#ArialMT-2e" x="55.615234"/>
       <use xlink:href="#ArialMT-32" x="83.398438"/>
      </g>
     </g>
    </g>
    <g id="ytick_3">
     <g id="line2d_14">
      <g>
       <use xlink:href="#mce71cfd06b" x="41.25125" y="188.544797" style="fill: #262626; stroke: #262626; stroke-width: 1.25"/>
      </g>
     </g>
     <g id="text_10">
      <!-- 0.4 -->
      <g style="fill: #262626" transform="translate(22.46125 192.481594) scale(0.11 -0.11)">
       <use xlink:href="#ArialMT-30"/>
       <use xlink:href="#ArialMT-2e" x="55.615234"/>
       <use xlink:href="#ArialMT-34" x="83.398438"/>
      </g>
     </g>
    </g>
    <g id="ytick_4">
     <g id="line2d_15">
      <g>
       <use xlink:href="#mce71cfd06b" x="41.25125" y="144.192797" style="fill: #262626; stroke: #262626; stroke-width: 1.25"/>
      </g>
     </g>
     <g id="text_11">
      <!-- 0.6 -->
      <g style="fill: #262626" transform="translate(22.46125 148.129594) scale(0.11 -0.11)">
       <use xlink:href="#ArialMT-30"/>
       <use xlink:href="#ArialMT-2e" x="55.615234"/>
       <use xlink:href="#ArialMT-36" x="83.398438"/>
      </g>
     </g>
    </g>
    <g id="ytick_5">
     <g id="line2d_16">
      <g>
       <use xlink:href="#mce71cfd06b" x="41.25125" y="99.840797" style="fill: #262626; stroke: #262626; stroke-width: 1.25"/>
      </g>
     </g>
     <g id="text_12">
      <!-- 0.8 -->
      <g style="fill: #262626" transform="translate(22.46125 103.777594) scale(0.11 -0.11)">
       <use xlink:href="#ArialMT-30"/>
       <use xlink:href="#ArialMT-2e" x="55.615234"/>
       <use xlink:href="#ArialMT-38" x="83.398438"/>
      </g>
     </g>
    </g>
    <g id="ytick_6">
     <g id="line2d_17">
      <g>
       <use xlink:href="#mce71cfd06b" x="41.25125" y="55.488797" style="fill: #262626; stroke: #262626; stroke-width: 1.25"/>
      </g>
     </g>
     <g id="text_13">
      <!-- 1.0 -->
      <g style="fill: #262626" transform="translate(22.46125 59.425594) scale(0.11 -0.11)">
       <use xlink:href="#ArialMT-31"/>
       <use xlink:href="#ArialMT-2e" x="55.615234"/>
       <use xlink:href="#ArialMT-30" x="83.398438"/>
      </g>
     </g>
    </g>
    <g id="ytick_7">
     <g id="line2d_18">
      <g>
       <use xlink:href="#mce71cfd06b" x="41.25125" y="11.136797" style="fill: #262626; stroke: #262626; stroke-width: 1.25"/>
      </g>
     </g>
     <g id="text_14">
      <!-- 1.2 -->
      <g style="fill: #262626" transform="translate(22.46125 15.073594) scale(0.11 -0.11)">
       <use xlink:href="#ArialMT-31"/>
       <use xlink:href="#ArialMT-2e" x="55.615234"/>
       <use xlink:href="#ArialMT-32" x="83.398438"/>
      </g>
     </g>
    </g>
    <g id="ytick_8">
     <g id="line2d_19">
      <defs>
       <path id="mb0bc5a06ea" d="M 0 0 
L 4 0 
" style="stroke: #262626"/>
      </defs>
      <g>
       <use xlink:href="#mb0bc5a06ea" x="41.25125" y="255.072797" style="fill: #262626; stroke: #262626"/>
      </g>
     </g>
    </g>
    <g id="ytick_9">
     <g id="line2d_20">
      <g>
       <use xlink:href="#mb0bc5a06ea" x="41.25125" y="210.720797" style="fill: #262626; stroke: #262626"/>
      </g>
     </g>
    </g>
    <g id="ytick_10">
     <g id="line2d_21">
      <g>
       <use xlink:href="#mb0bc5a06ea" x="41.25125" y="166.368797" style="fill: #262626; stroke: #262626"/>
      </g>
     </g>
    </g>
    <g id="ytick_11">
     <g id="line2d_22">
      <g>
       <use xlink:href="#mb0bc5a06ea" x="41.25125" y="122.016797" style="fill: #262626; stroke: #262626"/>
      </g>
     </g>
    </g>
    <g id="ytick_12">
     <g id="line2d_23">
      <g>
       <use xlink:href="#mb0bc5a06ea" x="41.25125" y="77.664797" style="fill: #262626; stroke: #262626"/>
      </g>
     </g>
    </g>
    <g id="ytick_13">
     <g id="line2d_24">
      <g>
       <use xlink:href="#mb0bc5a06ea" x="41.25125" y="33.312797" style="fill: #262626; stroke: #262626"/>
      </g>
     </g>
    </g>
    <g id="text_15">
     <!-- Absorbance (a.u.) -->
     <g style="fill: #262626" transform="translate(15.935625 191.881547) rotate(-90) scale(0.12 -0.12)">
      <defs>
       <path id="ArialMT-41" d="M -9 0 
L 1750 4581 
L 2403 4581 
L 4278 0 
L 3588 0 
L 3053 1388 
L 1138 1388 
L 634 0 
L -9 0 
z
M 1313 1881 
L 2866 1881 
L 2388 3150 
Q 2169 3728 2063 4100 
Q 1975 3659 1816 3225 
L 1313 1881 
z
" transform="scale(0.015625)"/>
       <path id="ArialMT-62" d="M 941 0 
L 419 0 
L 419 4581 
L 981 4581 
L 981 2947 
Q 1338 3394 1891 3394 
Q 2197 3394 2470 3270 
Q 2744 3147 2920 2923 
Q 3097 2700 3197 2384 
Q 3297 2069 3297 1709 
Q 3297 856 2875 390 
Q 2453 -75 1863 -75 
Q 1275 -75 941 416 
L 941 0 
z
M 934 1684 
Q 934 1088 1097 822 
Q 1363 388 1816 388 
Q 2184 388 2453 708 
Q 2722 1028 2722 1663 
Q 2722 2313 2464 2622 
Q 2206 2931 1841 2931 
Q 1472 2931 1203 2611 
Q 934 2291 934 1684 
z
" transform="scale(0.015625)"/>
       <path id="ArialMT-73" d="M 197 991 
L 753 1078 
Q 800 744 1014 566 
Q 1228 388 1613 388 
Q 2000 388 2187 545 
Q 2375 703 2375 916 
Q 2375 1106 2209 1216 
Q 2094 1291 1634 1406 
Q 1016 1563 777 1677 
Q 538 1791 414 1992 
Q 291 2194 291 2438 
Q 291 2659 392 2848 
Q 494 3038 669 3163 
Q 800 3259 1026 3326 
Q 1253 3394 1513 3394 
Q 1903 3394 2198 3281 
Q 2494 3169 2634 2976 
Q 2775 2784 2828 2463 
L 2278 2388 
Q 2241 2644 2061 2787 
Q 1881 2931 1553 2931 
Q 1166 2931 1000 2803 
Q 834 2675 834 2503 
Q 834 2394 903 2306 
Q 972 2216 1119 2156 
Q 1203 2125 1616 2013 
Q 2213 1853 2448 1751 
Q 2684 1650 2818 1456 
Q 2953 1263 2953 975 
Q 2953 694 2789 445 
Q 2625 197 2315 61 
Q 2006 -75 1616 -75 
Q 969 -75 630 194 
Q 291 463 197 991 
z
" transform="scale(0.015625)"/>
       <path id="ArialMT-6f" d="M 213 1659 
Q 213 2581 725 3025 
Q 1153 3394 1769 3394 
Q 2453 3394 2887 2945 
Q 3322 2497 3322 1706 
Q 3322 1066 3130 698 
Q 2938 331 2570 128 
Q 2203 -75 1769 -75 
Q 1072 -75 642 372 
Q 213 819 213 1659 
z
M 791 1659 
Q 791 1022 1069 705 
Q 1347 388 1769 388 
Q 2188 388 2466 706 
Q 2744 1025 2744 1678 
Q 2744 2294 2464 2611 
Q 2184 2928 1769 2928 
Q 1347 2928 1069 2612 
Q 791 2297 791 1659 
z
" transform="scale(0.015625)"/>
       <path id="ArialMT-72" d="M 416 0 
L 416 3319 
L 922 3319 
L 922 2816 
Q 1116 3169 1280 3281 
Q 1444 3394 1641 3394 
Q 1925 3394 2219 3213 
L 2025 2691 
Q 1819 2813 1613 2813 
Q 1428 2813 1281 2702 
Q 1134 2591 1072 2394 
Q 978 2094 978 1738 
L 978 0 
L 416 0 
z
" transform="scale(0.015625)"/>
       <path id="ArialMT-63" d="M 2588 1216 
L 3141 1144 
Q 3050 572 2676 248 
Q 2303 -75 1759 -75 
Q 1078 -75 664 370 
Q 250 816 250 1647 
Q 250 2184 428 2587 
Q 606 2991 970 3192 
Q 1334 3394 1763 3394 
Q 2303 3394 2647 3120 
Q 2991 2847 3088 2344 
L 2541 2259 
Q 2463 2594 2264 2762 
Q 2066 2931 1784 2931 
Q 1359 2931 1093 2626 
Q 828 2322 828 1663 
Q 828 994 1084 691 
Q 1341 388 1753 388 
Q 2084 388 2306 591 
Q 2528 794 2588 1216 
z
" transform="scale(0.015625)"/>
       <path id="ArialMT-75" d="M 2597 0 
L 2597 488 
Q 2209 -75 1544 -75 
Q 1250 -75 995 37 
Q 741 150 617 320 
Q 494 491 444 738 
Q 409 903 409 1263 
L 409 3319 
L 972 3319 
L 972 1478 
Q 972 1038 1006 884 
Q 1059 663 1231 536 
Q 1403 409 1656 409 
Q 1909 409 2131 539 
Q 2353 669 2445 892 
Q 2538 1116 2538 1541 
L 2538 3319 
L 3100 3319 
L 3100 0 
L 2597 0 
z
" transform="scale(0.015625)"/>
      </defs>
      <use xlink:href="#ArialMT-41"/>
      <use xlink:href="#ArialMT-62" x="66.699219"/>
      <use xlink:href="#ArialMT-73" x="122.314453"/>
      <use xlink:href="#ArialMT-6f" x="172.314453"/>
      <use xlink:href="#ArialMT-72" x="227.929688"/>
      <use xlink:href="#ArialMT-62" x="261.230469"/>
      <use xlink:href="#ArialMT-61" x="316.845703"/>
      <use xlink:href="#ArialMT-6e" x="372.460938"/>
      <use xlink:href="#ArialMT-63" x="428.076172"/>
      <use xlink:href="#ArialMT-65" x="478.076172"/>
      <use xlink:href="#ArialMT-20" x="533.691406"/>
      <use xlink:href="#ArialMT-28" x="561.474609"/>
      <use xlink:href="#ArialMT-61" x="594.775391"/>
      <use xlink:href="#ArialMT-2e" x="650.390625"/>
      <use xlink:href="#ArialMT-75" x="678.173828"/>
      <use xlink:href="#ArialMT-2e" x="733.789062"/>
      <use xlink:href="#ArialMT-29" x="761.572266"/>
     </g>
    </g>
   </g>
   <g id="PolyCollection_1"/>
   <g id="PolyCollection_2"/>
   <g id="PolyCollection_3"/>
   <g id="PolyCollection_4"/>
   <g id="line2d_25">
    <path d="M 41.289256 210.323648 
L 41.938892 210.096571 
L 44.97052 208.092535 
L 46.919418 206.328352 
L 49.517953 204.175674 
L 50.384131 203.460346 
L 52.549581 201.436728 
L 54.065385 199.691783 
L 56.014293 196.896331 
L 57.530097 194.456295 
L 63.593354 183.003861 
L 64.676074 180.320318 
L 65.975336 176.401771 
L 67.707693 170.154028 
L 69.223507 163.84523 
L 70.955863 155.607026 
L 78.534924 116.27985 
L 81.35001 100.448092 
L 83.948544 86.564419 
L 90.444875 54.242769 
L 91.744147 48.920915 
L 92.826867 45.218548 
L 94.126139 41.711805 
L 95.208859 39.412812 
L 96.075037 37.917864 
L 96.941215 36.711781 
L 97.590851 35.970917 
L 98.45703 35.279037 
L 99.106666 34.967967 
L 99.756292 34.843718 
L 100.189386 34.894739 
L 100.839022 35.161742 
L 101.488648 35.682158 
L 102.354826 36.777712 
L 103.221004 38.371028 
L 104.087182 40.420731 
L 105.169912 43.715987 
L 106.252632 47.82499 
L 107.551904 53.861406 
L 108.851167 60.997764 
L 110.366981 70.6434 
L 112.315879 84.776853 
L 114.481319 101.944705 
L 118.379136 135.183387 
L 121.627306 164.938353 
L 124.658914 192.346674 
L 126.39127 205.887085 
L 127.907085 215.607124 
L 128.989815 221.276352 
L 130.072545 225.857814 
L 131.155255 229.517303 
L 132.237985 232.390639 
L 133.320695 234.722215 
L 134.836509 237.421884 
L 137.435053 241.349062 
L 140.899766 246.002492 
L 142.848664 248.168656 
L 144.147936 249.392732 
L 146.313376 250.970058 
L 148.045733 251.882245 
L 149.994631 252.612615 
L 152.809717 253.235756 
L 154.325531 253.458285 
L 158.223328 253.770155 
L 160.388768 253.824684 
L 170.566363 253.488557 
L 176.846162 252.789813 
L 180.96052 252.396133 
L 184.858316 251.703907 
L 190.271927 250.464876 
L 202.39842 247.109117 
L 207.595489 245.493926 
L 208.461677 245.22473 
L 215.607643 242.947093 
L 216.690373 242.609189 
L 218.206188 242.093112 
L 218.639272 241.993472 
L 219.50544 241.798924 
L 219.938544 241.606709 
L 220.155086 241.603741 
L 220.58817 241.421853 
L 220.804712 241.463582 
L 221.887442 241.081399 
L 222.537068 240.969169 
L 223.83634 240.629313 
L 224.485966 240.535459 
L 224.702508 240.397906 
L 224.91907 240.450973 
L 225.135612 240.23338 
L 225.568696 240.398809 
L 226.218323 239.999971 
L 226.434865 240.035121 
L 227.301053 239.616869 
L 227.734137 239.7557 
L 227.950679 239.65686 
L 228.167241 239.747694 
L 228.383783 239.516254 
L 229.249951 239.417311 
L 229.683035 239.008719 
L 229.899597 239.189781 
L 230.116139 238.855391 
L 230.549223 239.217945 
L 230.765765 238.928671 
L 231.198849 238.921748 
L 231.415391 238.566371 
L 232.065037 238.55202 
L 232.498121 238.306375 
L 232.714663 238.566302 
L 232.931205 238.275587 
L 233.364309 238.021413 
L 233.797393 238.3554 
L 234.013935 237.895505 
L 234.230477 237.774056 
L 234.447019 237.79564 
L 234.880103 238.044917 
L 235.096665 238.178451 
L 235.313207 237.623216 
L 235.529749 238.040727 
L 235.746291 237.915646 
L 235.962814 238.098728 
L 243.325322 236.252107 
L 247.872765 234.978335 
L 251.554019 233.893025 
L 256.101462 232.522884 
L 268.877581 228.838242 
L 275.590464 227.404887 
L 278.40557 226.888766 
L 294.646382 223.786199 
L 295.945674 223.460816 
L 296.5953 223.334179 
L 302.875098 221.843653 
L 311.536859 220.217821 
L 314.135404 219.84041 
L 316.95049 219.351036 
L 321.28137 219.080835 
L 324.529541 219.273612 
L 332.108591 220.490692 
L 337.738764 222.10665 
L 342.502729 223.823182 
L 348.999069 226.477778 
L 360.692498 231.475373 
L 363.940668 232.795686 
L 366.755755 233.919061 
L 376.067142 237.383162 
L 382.130398 239.354434 
L 385.162027 240.29438 
L 389.492907 241.574764 
L 393.174162 242.537125 
L 395.989248 243.354707 
L 398.37125 244.200962 
L 398.37125 244.200962 
" clip-path="url(#pc6f8e59172)" style="fill: none; stroke: #f69c73; stroke-linecap: round"/>
   </g>
   <g id="line2d_26">
    <path d="M 41.289256 212.608307 
L 41.938892 212.226435 
L 42.588528 211.718292 
L 43.238164 211.193348 
L 44.537426 210.130799 
L 46.269782 208.440167 
L 47.352502 207.311805 
L 51.899945 202.763041 
L 54.715021 198.829955 
L 56.880471 194.911474 
L 57.097013 194.545291 
L 57.530097 193.484275 
L 61.644446 184.283303 
L 63.593354 179.272731 
L 64.892616 175.025765 
L 66.841514 167.400397 
L 68.573871 159.805039 
L 70.522779 150.136483 
L 75.936389 121.922278 
L 80.483832 100.741332 
L 82.216188 93.335394 
L 83.51545 88.666703 
L 85.247806 83.426721 
L 90.444875 69.318938 
L 91.527605 67.546638 
L 92.177231 66.975717 
L 92.610325 66.73979 
L 93.259961 66.707472 
L 93.693045 66.850662 
L 94.559223 67.472882 
L 95.641943 68.682944 
L 97.590851 71.409022 
L 98.890114 73.543836 
L 100.189386 76.093548 
L 101.488648 79.258342 
L 102.78792 83.170319 
L 103.87064 87.000042 
L 105.169912 92.281476 
L 106.902268 100.484084 
L 108.634625 109.817645 
L 110.583523 121.45283 
L 113.182067 138.481921 
L 124.009288 211.334628 
L 125.525102 219.661591 
L 127.040916 226.721451 
L 128.340188 231.705111 
L 129.422899 235.080477 
L 130.505629 237.803958 
L 131.371797 239.563538 
L 132.671069 241.725951 
L 134.836509 244.594261 
L 138.517784 248.99047 
L 142.199038 252.977727 
L 143.931394 254.461935 
L 145.447208 255.525775 
L 147.396106 256.550303 
L 150.427735 257.542057 
L 152.593175 257.931746 
L 156.924056 258.309159 
L 164.070042 258.296986 
L 166.235482 258.179032 
L 168.617465 258.111447 
L 174.680721 257.81432 
L 175.330347 257.748939 
L 177.495807 257.697905 
L 182.909418 257.510384 
L 186.590672 257.121749 
L 187.240299 257.044589 
L 193.736639 256.064653 
L 194.819369 255.895814 
L 196.551725 255.578528 
L 197.634436 255.389012 
L 198.717166 255.170328 
L 199.366812 255.067395 
L 200.449522 254.876646 
L 203.048066 254.374237 
L 203.264608 254.397375 
L 203.697692 254.222866 
L 209.111303 253.142679 
L 209.977491 252.930838 
L 211.060201 252.718218 
L 214.308371 252.015304 
L 214.524913 252.048451 
L 214.958017 251.913729 
L 223.83634 250.324055 
L 224.269424 250.305444 
L 224.91907 250.126115 
L 226.00178 250.054538 
L 226.434865 249.915532 
L 226.651426 249.92834 
L 226.867968 249.699758 
L 227.084511 249.816326 
L 227.301053 249.56473 
L 227.517595 249.811854 
L 227.734137 249.670647 
L 227.950679 249.759517 
L 228.167241 249.690754 
L 228.383783 249.47957 
L 228.816867 249.633835 
L 229.033409 249.570569 
L 229.249951 249.366772 
L 229.466493 249.549661 
L 230.332681 249.091274 
L 230.765765 249.330088 
L 230.982307 249.138181 
L 231.631953 249.041571 
L 231.848495 248.752624 
L 232.065037 249.063017 
L 232.281579 249.107376 
L 232.714663 248.939733 
L 232.931205 249.166361 
L 233.147747 248.663746 
L 233.364309 248.634158 
L 233.580851 248.784955 
L 234.230477 248.331801 
L 234.447019 248.913843 
L 234.663561 248.552081 
L 234.880103 248.422304 
L 235.096665 248.079478 
L 235.313207 248.948907 
L 235.529749 248.631746 
L 236.829002 248.510957 
L 239.210984 248.125503 
L 244.841137 247.179102 
L 252.203665 245.925088 
L 258.699986 244.771788 
L 260.432362 244.485844 
L 262.38126 244.192654 
L 270.393395 243.127418 
L 307.855605 240.178142 
L 310.021065 240.183912 
L 313.269235 240.321893 
L 318.899408 240.082639 
L 321.930996 240.245097 
L 326.478459 240.819096 
L 330.809339 241.583092 
L 340.770392 243.75441 
L 346.184023 245.170513 
L 361.775208 249.234767 
L 364.157211 249.80977 
L 367.188839 250.509707 
L 370.437009 251.212154 
L 379.09877 252.941507 
L 381.480772 253.355077 
L 388.843281 254.637995 
L 398.37125 256.219409 
L 398.37125 256.219409 
" clip-path="url(#pc6f8e59172)" style="fill: none; stroke: #e83f3f; stroke-linecap: round"/>
   </g>
   <g id="line2d_27">
    <path d="M 41.289256 212.881046 
L 42.588528 211.913943 
L 45.836698 208.947933 
L 50.600673 204.250038 
L 51.250309 203.572454 
L 52.333029 202.263562 
L 53.848843 200.135668 
L 57.097013 194.313601 
L 57.963191 192.334322 
L 62.727176 180.862709 
L 64.24298 176.181547 
L 65.975336 169.538085 
L 67.707693 162.112347 
L 69.873143 151.819852 
L 72.038593 140.189042 
L 74.420575 127.671481 
L 76.152931 119.830184 
L 81.566552 97.436414 
L 82.865814 93.276534 
L 83.948544 90.552544 
L 85.031264 88.325892 
L 88.712519 81.395879 
L 89.795249 79.64034 
L 90.444875 78.863443 
L 91.094511 78.348909 
L 91.744147 78.197908 
L 92.177231 78.326611 
L 92.826867 78.786845 
L 93.693045 79.968634 
L 94.559223 81.600559 
L 98.673572 91.506006 
L 100.839022 97.50709 
L 102.354826 102.554408 
L 103.87064 108.437561 
L 105.386454 115.106811 
L 107.768446 126.957251 
L 110.583523 142.730241 
L 114.697861 167.950976 
L 118.595678 191.740593 
L 122.06039 211.586568 
L 124.009288 221.567167 
L 125.525102 228.298501 
L 127.040916 233.938422 
L 128.340188 237.885364 
L 129.422899 240.539593 
L 130.505629 242.69651 
L 131.588339 244.428885 
L 133.320695 246.608633 
L 140.466682 254.068 
L 142.41558 255.833857 
L 144.364478 257.26987 
L 146.313376 258.372318 
L 148.695379 259.27441 
L 150.211173 259.673041 
L 152.160091 260.027259 
L 157.357159 260.427859 
L 163.203854 260.415375 
L 170.999467 260.210284 
L 173.814533 260.037027 
L 178.145434 259.916218 
L 180.310874 259.964903 
L 187.673402 259.483711 
L 189.838843 259.239363 
L 198.500624 258.157575 
L 200.666064 257.84586 
L 209.977491 256.394282 
L 212.142931 256.012746 
L 212.576015 255.981129 
L 213.009119 255.846311 
L 214.091829 255.730425 
L 214.524913 255.62099 
L 214.741475 255.633205 
L 215.174559 255.501077 
L 216.040727 255.394422 
L 217.34 255.21513 
L 217.773084 255.140153 
L 220.155086 254.781888 
L 220.371628 254.710062 
L 220.804712 254.737203 
L 222.103984 254.541657 
L 222.537068 254.524163 
L 223.83634 254.28001 
L 224.702508 254.288949 
L 224.91907 254.145172 
L 225.352154 254.277284 
L 226.00178 254.149681 
L 226.434865 254.021413 
L 227.301053 253.895511 
L 227.517595 254.04538 
L 227.734137 253.806752 
L 227.950679 253.950743 
L 228.600325 253.760375 
L 229.033409 253.631762 
L 229.249951 253.71171 
L 229.466493 253.527039 
L 229.899597 253.725548 
L 230.332681 253.455808 
L 230.549223 253.685899 
L 230.765765 253.499429 
L 230.982307 253.586556 
L 231.198849 253.318986 
L 231.631953 253.526628 
L 231.848495 253.342555 
L 232.065037 253.593286 
L 232.281579 253.514018 
L 232.714663 253.09784 
L 233.147747 253.373814 
L 233.364309 253.174813 
L 233.580851 253.408769 
L 234.013935 252.928119 
L 234.230477 252.786712 
L 234.447019 253.222003 
L 234.663561 252.633742 
L 234.880103 253.156908 
L 235.096665 252.857404 
L 235.313207 252.799536 
L 235.529749 253.134082 
L 235.746291 252.964689 
L 235.962814 253.198957 
L 240.726798 252.598513 
L 258.05036 250.446096 
L 263.247428 249.896179 
L 267.578329 249.488552 
L 271.476125 249.182527 
L 281.870282 248.615931 
L 287.067331 248.360864 
L 306.556353 247.652397 
L 310.237607 247.814624 
L 314.351946 247.991539 
L 317.816658 247.932891 
L 321.064828 248.056667 
L 329.077003 248.959008 
L 337.955306 250.421382 
L 347.699817 252.320535 
L 357.011244 254.113068 
L 360.042872 254.688008 
L 366.755755 255.96686 
L 381.697314 258.393663 
L 388.410197 259.348954 
L 397.505082 260.412168 
L 398.37125 260.556896 
L 398.37125 260.556896 
" clip-path="url(#pc6f8e59172)" style="fill: none; stroke: #a11a5b; stroke-linecap: round"/>
   </g>
   <g id="line2d_28">
    <path d="M 41.289256 207.44181 
L 43.021612 205.411636 
L 44.104342 204.345194 
L 47.569054 200.81577 
L 48.002138 200.485923 
L 49.084859 199.583647 
L 49.517953 199.239558 
L 51.683403 196.926197 
L 53.199207 194.983981 
L 54.498479 193.049233 
L 57.313555 187.332665 
L 62.07754 174.146819 
L 63.376802 169.851007 
L 64.892616 163.930949 
L 68.790423 147.174637 
L 71.605499 133.885202 
L 73.337855 125.587398 
L 74.853669 119.541597 
L 75.936389 116.037539 
L 77.452203 111.873839 
L 80.050738 105.630708 
L 80.916916 103.960214 
L 81.999636 102.657336 
L 82.649272 102.329716 
L 83.082366 102.339683 
L 83.51545 102.456199 
L 84.381628 103.149016 
L 85.6809 104.762661 
L 89.362155 109.809053 
L 90.228333 111.480302 
L 91.094511 113.727442 
L 91.960689 116.672395 
L 92.826867 120.352967 
L 94.126139 126.996177 
L 98.890114 152.169942 
L 105.602996 183.077399 
L 111.233149 207.926862 
L 114.481319 221.218676 
L 116.646779 229.27941 
L 118.81222 236.368719 
L 120.328034 240.790393 
L 122.276932 245.814038 
L 123.792746 249.171645 
L 125.525102 252.406364 
L 127.040916 254.68734 
L 127.907085 255.806722 
L 128.989815 256.932441 
L 129.855983 257.687502 
L 131.155255 258.629878 
L 134.403425 260.35708 
L 137.868138 262.399182 
L 140.466682 264.144088 
L 142.848664 265.548005 
L 143.931394 266.065524 
L 146.313376 266.98595 
L 147.396106 267.346776 
L 148.911921 267.698054 
L 152.593175 268.192909 
L 155.191699 268.432451 
L 156.924056 268.505183 
L 158.43987 268.580723 
L 163.8535 268.635511 
L 165.152752 268.624411 
L 170.782925 268.660748 
L 172.082177 268.672659 
L 173.381449 268.601222 
L 176.846162 268.562883 
L 180.527416 268.751336 
L 181.393604 268.763562 
L 182.692876 268.789795 
L 182.909418 268.721041 
L 183.342502 268.805657 
L 183.775586 268.74652 
L 185.507942 268.754972 
L 186.590672 268.707888 
L 195.035911 268.486549 
L 196.118641 268.427512 
L 199.799896 268.233507 
L 202.181878 268.106762 
L 204.56388 267.981102 
L 206.72932 267.874773 
L 208.245135 267.780057 
L 212.576015 267.551126 
L 213.009119 267.55138 
L 214.091829 267.493806 
L 214.741475 267.471247 
L 215.607643 267.415183 
L 217.123458 267.371833 
L 219.072356 267.308641 
L 219.722002 267.257296 
L 220.155086 267.234936 
L 220.58817 267.237573 
L 221.237796 267.195908 
L 223.403256 267.110778 
L 223.619798 266.962447 
L 224.052882 267.035441 
L 224.485966 266.978612 
L 224.702508 267.034668 
L 225.135612 266.996518 
L 225.352154 267.057465 
L 225.568696 266.887914 
L 225.785238 267.090017 
L 226.00178 266.785145 
L 226.218323 266.971255 
L 226.434865 266.730934 
L 226.651426 267.008969 
L 227.301053 266.792107 
L 227.517595 266.924107 
L 227.734137 266.908591 
L 227.950679 266.739219 
L 228.167241 266.965276 
L 228.383783 266.737362 
L 228.600325 266.789592 
L 228.816867 266.635842 
L 229.033409 266.805582 
L 229.466493 266.735608 
L 229.683035 266.428942 
L 229.899597 266.687999 
L 230.116139 266.407467 
L 230.549223 266.777548 
L 230.765765 266.43444 
L 230.982307 266.607625 
L 231.198849 266.507271 
L 231.415391 266.722142 
L 231.631953 266.594808 
L 231.848495 266.002429 
L 232.065037 266.3997 
L 232.281579 266.474701 
L 232.498121 266.382293 
L 232.714663 266.650524 
L 233.364309 266.509196 
L 233.580851 266.502117 
L 234.013935 266.273328 
L 234.230477 266.594987 
L 234.447019 266.654133 
L 234.663561 266.524302 
L 235.096665 266.67675 
L 235.313207 266.23127 
L 236.179356 266.550934 
L 258.483444 265.638995 
L 263.680513 265.499358 
L 267.578329 265.390077 
L 271.909209 265.256781 
L 275.590464 265.079441 
L 285.334994 264.81866 
L 295.945674 264.61237 
L 296.811842 264.593125 
L 305.473642 264.691523 
L 310.021065 265.005353 
L 313.052693 265.366973 
L 314.351946 265.361401 
L 316.300864 265.288965 
L 317.816658 265.310054 
L 322.797204 265.638263 
L 325.179167 265.869986 
L 335.14022 266.815069 
L 338.604932 267.167747 
L 342.069644 267.520565 
L 347.699817 268.014916 
L 350.298361 268.236047 
L 359.393206 269.047037 
L 367.188839 269.689344 
L 370.003925 269.892716 
L 374.76789 270.269242 
L 391.441825 271.353584 
L 395.339622 271.530349 
L 398.37125 271.617992 
L 398.37125 271.617992 
" clip-path="url(#pc6f8e59172)" style="fill: none; stroke: #4c1d4b; stroke-linecap: round"/>
   </g>
   <g id="line2d_29"/>
   <g id="line2d_30"/>
   <g id="line2d_31"/>
   <g id="line2d_32"/>
   <g id="patch_3">
    <path d="M 41.25125 277.248797 
L 41.25125 11.136797 
" style="fill: none; stroke: #262626; stroke-width: 1.25; stroke-linejoin: miter; stroke-linecap: square"/>
   </g>
   <g id="patch_4">
    <path d="M 41.25125 277.248797 
L 398.37125 277.248797 
" style="fill: none; stroke: #262626; stroke-width: 1.25; stroke-linejoin: miter; stroke-linecap: square"/>
   </g>
   <g id="legend_1">
    <g id="line2d_33">
     <path d="M 323.784875 45.342684 
L 329.784875 45.342684 
L 335.784875 45.342684 
" style="fill: none; stroke: #f69c73; stroke-width: 1.5; stroke-linecap: round"/>
    </g>
    <g id="text_16">
     <!-- 0 hrs -->
     <g style="fill: #262626" transform="translate(340.584875 47.442684) scale(0.06 -0.06)">
      <use xlink:href="#ArialMT-30"/>
      <use xlink:href="#ArialMT-20" x="55.615234"/>
      <use xlink:href="#ArialMT-68" x="83.398438"/>
      <use xlink:href="#ArialMT-72" x="139.013672"/>
      <use xlink:href="#ArialMT-73" x="172.314453"/>
     </g>
    </g>
    <g id="line2d_34">
     <path d="M 323.784875 53.829872 
L 329.784875 53.829872 
L 335.784875 53.829872 
" style="fill: none; stroke: #e83f3f; stroke-width: 1.5; stroke-linecap: round"/>
    </g>
    <g id="text_17">
     <!-- 1 hrs -->
     <g style="fill: #262626" transform="translate(340.584875 55.929872) scale(0.06 -0.06)">
      <use xlink:href="#ArialMT-31"/>
      <use xlink:href="#ArialMT-20" x="55.615234"/>
      <use xlink:href="#ArialMT-68" x="83.398438"/>
      <use xlink:href="#ArialMT-72" x="139.013672"/>
      <use xlink:href="#ArialMT-73" x="172.314453"/>
     </g>
    </g>
    <g id="line2d_35">
     <path d="M 323.784875 62.317059 
L 329.784875 62.317059 
L 335.784875 62.317059 
" style="fill: none; stroke: #a11a5b; stroke-width: 1.5; stroke-linecap: round"/>
    </g>
    <g id="text_18">
     <!-- 2 hrs -->
     <g style="fill: #262626" transform="translate(340.584875 64.417059) scale(0.06 -0.06)">
      <use xlink:href="#ArialMT-32"/>
      <use xlink:href="#ArialMT-20" x="55.615234"/>
      <use xlink:href="#ArialMT-68" x="83.398438"/>
      <use xlink:href="#ArialMT-72" x="139.013672"/>
      <use xlink:href="#ArialMT-73" x="172.314453"/>
     </g>
    </g>
    <g id="line2d_36">
     <path d="M 323.784875 70.804247 
L 329.784875 70.804247 
L 335.784875 70.804247 
" style="fill: none; stroke: #4c1d4b; stroke-width: 1.5; stroke-linecap: round"/>
    </g>
    <g id="text_19">
     <!-- 18 hrs -->
     <g style="fill: #262626" transform="translate(340.584875 72.904247) scale(0.06 -0.06)">
      <use xlink:href="#ArialMT-31"/>
      <use xlink:href="#ArialMT-38" x="55.615234"/>
      <use xlink:href="#ArialMT-20" x="111.230469"/>
      <use xlink:href="#ArialMT-68" x="139.013672"/>
      <use xlink:href="#ArialMT-72" x="194.628906"/>
      <use xlink:href="#ArialMT-73" x="227.929688"/>
     </g>
    </g>
   </g>
  </g>
 </g>
 <defs>
  <clipPath id="pc6f8e59172">
   <rect x="41.25125" y="11.136797" width="357.12" height="266.112"/>
  </clipPath>
 </defs>
</svg>
