<?xml version="1.0" encoding="utf-8" standalone="no"?>
<!DOCTYPE svg PUBLIC "-//W3C//DTD SVG 1.1//EN"
  "http://www.w3.org/Graphics/SVG/1.1/DTD/svg11.dtd">
<svg xmlns:xlink="http://www.w3.org/1999/xlink" width="417.805313pt" height="313.269891pt" viewBox="0 0 417.805313 313.269891" xmlns="http://www.w3.org/2000/svg" version="1.1">
 <metadata>
  <rdf:RDF xmlns:dc="http://purl.org/dc/elements/1.1/" xmlns:cc="http://creativecommons.org/ns#" xmlns:rdf="http://www.w3.org/1999/02/22-rdf-syntax-ns#">
   <cc:Work>
    <dc:type rdf:resource="http://purl.org/dc/dcmitype/StillImage"/>
    <dc:date>2024-11-18T15:54:08.168017</dc:date>
    <dc:format>image/svg+xml</dc:format>
    <dc:creator>
     <cc:Agent>
      <dc:title>Matplotlib v3.7.1, https://matplotlib.org/</dc:title>
     </cc:Agent>
    </dc:creator>
   </cc:Work>
  </rdf:RDF>
 </metadata>
 <defs>
  <style type="text/css">*{stroke-linejoin: round; stroke-linecap: butt}</style>
 </defs>
 <g id="figure_1">
  <g id="patch_1">
   <path d="M 0 313.269891 
L 417.805313 313.269891 
L 417.805313 0 
L 0 0 
z
" style="fill: #ffffff"/>
  </g>
  <g id="axes_1">
   <g id="patch_2">
    <path d="M 41.25125 277.248797 
L 398.37125 277.248797 
L 398.37125 11.136797 
L 41.25125 11.136797 
z
" style="fill: #ffffff"/>
   </g>
   <g id="matplotlib.axis_1">
    <g id="xtick_1">
     <g id="line2d_1">
      <defs>
       <path id="mace95cda05" d="M 0 0 
L 0 -6 
" style="stroke: #262626; stroke-width: 1.25"/>
      </defs>
      <g>
       <use xlink:href="#mace95cda05" x="73.716705" y="277.248797" style="fill: #262626; stroke: #262626; stroke-width: 1.25"/>
      </g>
     </g>
     <g id="text_1">
      <!-- 400 -->
      <g style="fill: #262626" transform="translate(64.541158 288.622391) scale(0.11 -0.11)">
       <defs>
        <path id="ArialMT-34" d="M 2069 0 
L 2069 1097 
L 81 1097 
L 81 1613 
L 2172 4581 
L 2631 4581 
L 2631 1613 
L 3250 1613 
L 3250 1097 
L 2631 1097 
L 2631 0 
L 2069 0 
z
M 2069 1613 
L 2069 3678 
L 634 1613 
L 2069 1613 
z
" transform="scale(0.015625)"/>
        <path id="ArialMT-30" d="M 266 2259 
Q 266 3072 433 3567 
Q 600 4063 929 4331 
Q 1259 4600 1759 4600 
Q 2128 4600 2406 4451 
Q 2684 4303 2865 4023 
Q 3047 3744 3150 3342 
Q 3253 2941 3253 2259 
Q 3253 1453 3087 958 
Q 2922 463 2592 192 
Q 2263 -78 1759 -78 
Q 1097 -78 719 397 
Q 266 969 266 2259 
z
M 844 2259 
Q 844 1131 1108 757 
Q 1372 384 1759 384 
Q 2147 384 2411 759 
Q 2675 1134 2675 2259 
Q 2675 3391 2411 3762 
Q 2147 4134 1753 4134 
Q 1366 4134 1134 3806 
Q 844 3388 844 2259 
z
" transform="scale(0.015625)"/>
       </defs>
       <use xlink:href="#ArialMT-34"/>
       <use xlink:href="#ArialMT-30" x="55.615234"/>
       <use xlink:href="#ArialMT-30" x="111.230469"/>
      </g>
     </g>
    </g>
    <g id="xtick_2">
     <g id="line2d_2">
      <g>
       <use xlink:href="#mace95cda05" x="138.647614" y="277.248797" style="fill: #262626; stroke: #262626; stroke-width: 1.25"/>
      </g>
     </g>
     <g id="text_2">
      <!-- 600 -->
      <g style="fill: #262626" transform="translate(129.472067 288.622391) scale(0.11 -0.11)">
       <defs>
        <path id="ArialMT-36" d="M 3184 3459 
L 2625 3416 
Q 2550 3747 2413 3897 
Q 2184 4138 1850 4138 
Q 1581 4138 1378 3988 
Q 1113 3794 959 3422 
Q 806 3050 800 2363 
Q 1003 2672 1297 2822 
Q 1591 2972 1913 2972 
Q 2475 2972 2870 2558 
Q 3266 2144 3266 1488 
Q 3266 1056 3080 686 
Q 2894 316 2569 119 
Q 2244 -78 1831 -78 
Q 1128 -78 684 439 
Q 241 956 241 2144 
Q 241 3472 731 4075 
Q 1159 4600 1884 4600 
Q 2425 4600 2770 4297 
Q 3116 3994 3184 3459 
z
M 888 1484 
Q 888 1194 1011 928 
Q 1134 663 1356 523 
Q 1578 384 1822 384 
Q 2178 384 2434 671 
Q 2691 959 2691 1453 
Q 2691 1928 2437 2201 
Q 2184 2475 1800 2475 
Q 1419 2475 1153 2201 
Q 888 1928 888 1484 
z
" transform="scale(0.015625)"/>
       </defs>
       <use xlink:href="#ArialMT-36"/>
       <use xlink:href="#ArialMT-30" x="55.615234"/>
       <use xlink:href="#ArialMT-30" x="111.230469"/>
      </g>
     </g>
    </g>
    <g id="xtick_3">
     <g id="line2d_3">
      <g>
       <use xlink:href="#mace95cda05" x="203.578523" y="277.248797" style="fill: #262626; stroke: #262626; stroke-width: 1.25"/>
      </g>
     </g>
     <g id="text_3">
      <!-- 800 -->
      <g style="fill: #262626" transform="translate(194.402976 288.622391) scale(0.11 -0.11)">
       <defs>
        <path id="ArialMT-38" d="M 1131 2484 
Q 781 2613 612 2850 
Q 444 3088 444 3419 
Q 444 3919 803 4259 
Q 1163 4600 1759 4600 
Q 2359 4600 2725 4251 
Q 3091 3903 3091 3403 
Q 3091 3084 2923 2848 
Q 2756 2613 2416 2484 
Q 2838 2347 3058 2040 
Q 3278 1734 3278 1309 
Q 3278 722 2862 322 
Q 2447 -78 1769 -78 
Q 1091 -78 675 323 
Q 259 725 259 1325 
Q 259 1772 486 2073 
Q 713 2375 1131 2484 
z
M 1019 3438 
Q 1019 3113 1228 2906 
Q 1438 2700 1772 2700 
Q 2097 2700 2305 2904 
Q 2513 3109 2513 3406 
Q 2513 3716 2298 3927 
Q 2084 4138 1766 4138 
Q 1444 4138 1231 3931 
Q 1019 3725 1019 3438 
z
M 838 1322 
Q 838 1081 952 856 
Q 1066 631 1291 507 
Q 1516 384 1775 384 
Q 2178 384 2440 643 
Q 2703 903 2703 1303 
Q 2703 1709 2433 1975 
Q 2163 2241 1756 2241 
Q 1359 2241 1098 1978 
Q 838 1716 838 1322 
z
" transform="scale(0.015625)"/>
       </defs>
       <use xlink:href="#ArialMT-38"/>
       <use xlink:href="#ArialMT-30" x="55.615234"/>
       <use xlink:href="#ArialMT-30" x="111.230469"/>
      </g>
     </g>
    </g>
    <g id="xtick_4">
     <g id="line2d_4">
      <g>
       <use xlink:href="#mace95cda05" x="268.509432" y="277.248797" style="fill: #262626; stroke: #262626; stroke-width: 1.25"/>
      </g>
     </g>
     <g id="text_4">
      <!-- 1000 -->
      <g style="fill: #262626" transform="translate(256.275369 288.622391) scale(0.11 -0.11)">
       <defs>
        <path id="ArialMT-31" d="M 2384 0 
L 1822 0 
L 1822 3584 
Q 1619 3391 1289 3197 
Q 959 3003 697 2906 
L 697 3450 
Q 1169 3672 1522 3987 
Q 1875 4303 2022 4600 
L 2384 4600 
L 2384 0 
z
" transform="scale(0.015625)"/>
       </defs>
       <use xlink:href="#ArialMT-31"/>
       <use xlink:href="#ArialMT-30" x="55.615234"/>
       <use xlink:href="#ArialMT-30" x="111.230469"/>
       <use xlink:href="#ArialMT-30" x="166.845703"/>
      </g>
     </g>
    </g>
    <g id="xtick_5">
     <g id="line2d_5">
      <g>
       <use xlink:href="#mace95cda05" x="333.440341" y="277.248797" style="fill: #262626; stroke: #262626; stroke-width: 1.25"/>
      </g>
     </g>
     <g id="text_5">
      <!-- 1200 -->
      <g style="fill: #262626" transform="translate(321.206278 288.622391) scale(0.11 -0.11)">
       <defs>
        <path id="ArialMT-32" d="M 3222 541 
L 3222 0 
L 194 0 
Q 188 203 259 391 
Q 375 700 629 1000 
Q 884 1300 1366 1694 
Q 2113 2306 2375 2664 
Q 2638 3022 2638 3341 
Q 2638 3675 2398 3904 
Q 2159 4134 1775 4134 
Q 1369 4134 1125 3890 
Q 881 3647 878 3216 
L 300 3275 
Q 359 3922 746 4261 
Q 1134 4600 1788 4600 
Q 2447 4600 2831 4234 
Q 3216 3869 3216 3328 
Q 3216 3053 3103 2787 
Q 2991 2522 2730 2228 
Q 2469 1934 1863 1422 
Q 1356 997 1212 845 
Q 1069 694 975 541 
L 3222 541 
z
" transform="scale(0.015625)"/>
       </defs>
       <use xlink:href="#ArialMT-31"/>
       <use xlink:href="#ArialMT-32" x="55.615234"/>
       <use xlink:href="#ArialMT-30" x="111.230469"/>
       <use xlink:href="#ArialMT-30" x="166.845703"/>
      </g>
     </g>
    </g>
    <g id="xtick_6">
     <g id="line2d_6">
      <g>
       <use xlink:href="#mace95cda05" x="398.37125" y="277.248797" style="fill: #262626; stroke: #262626; stroke-width: 1.25"/>
      </g>
     </g>
     <g id="text_6">
      <!-- 1400 -->
      <g style="fill: #262626" transform="translate(386.137188 288.622391) scale(0.11 -0.11)">
       <use xlink:href="#ArialMT-31"/>
       <use xlink:href="#ArialMT-34" x="55.615234"/>
       <use xlink:href="#ArialMT-30" x="111.230469"/>
       <use xlink:href="#ArialMT-30" x="166.845703"/>
      </g>
     </g>
    </g>
    <g id="xtick_7">
     <g id="line2d_7">
      <defs>
       <path id="m33ded23ab7" d="M 0 0 
L 0 -4 
" style="stroke: #262626"/>
      </defs>
      <g>
       <use xlink:href="#m33ded23ab7" x="106.182159" y="277.248797" style="fill: #262626; stroke: #262626"/>
      </g>
     </g>
    </g>
    <g id="xtick_8">
     <g id="line2d_8">
      <g>
       <use xlink:href="#m33ded23ab7" x="171.113068" y="277.248797" style="fill: #262626; stroke: #262626"/>
      </g>
     </g>
    </g>
    <g id="xtick_9">
     <g id="line2d_9">
      <g>
       <use xlink:href="#m33ded23ab7" x="236.043977" y="277.248797" style="fill: #262626; stroke: #262626"/>
      </g>
     </g>
    </g>
    <g id="xtick_10">
     <g id="line2d_10">
      <g>
       <use xlink:href="#m33ded23ab7" x="300.974886" y="277.248797" style="fill: #262626; stroke: #262626"/>
      </g>
     </g>
    </g>
    <g id="xtick_11">
     <g id="line2d_11">
      <g>
       <use xlink:href="#m33ded23ab7" x="365.905795" y="277.248797" style="fill: #262626; stroke: #262626"/>
      </g>
     </g>
    </g>
    <g id="text_7">
     <!-- Wavelength (nm) -->
     <g style="fill: #262626" transform="translate(174.356562 303.544266) scale(0.12 -0.12)">
      <defs>
       <path id="ArialMT-57" d="M 1294 0 
L 78 4581 
L 700 4581 
L 1397 1578 
Q 1509 1106 1591 641 
Q 1766 1375 1797 1488 
L 2669 4581 
L 3400 4581 
L 4056 2263 
Q 4303 1400 4413 641 
Q 4500 1075 4641 1638 
L 5359 4581 
L 5969 4581 
L 4713 0 
L 4128 0 
L 3163 3491 
Q 3041 3928 3019 4028 
Q 2947 3713 2884 3491 
L 1913 0 
L 1294 0 
z
" transform="scale(0.015625)"/>
       <path id="ArialMT-61" d="M 2588 409 
Q 2275 144 1986 34 
Q 1697 -75 1366 -75 
Q 819 -75 525 192 
Q 231 459 231 875 
Q 231 1119 342 1320 
Q 453 1522 633 1644 
Q 813 1766 1038 1828 
Q 1203 1872 1538 1913 
Q 2219 1994 2541 2106 
Q 2544 2222 2544 2253 
Q 2544 2597 2384 2738 
Q 2169 2928 1744 2928 
Q 1347 2928 1158 2789 
Q 969 2650 878 2297 
L 328 2372 
Q 403 2725 575 2942 
Q 747 3159 1072 3276 
Q 1397 3394 1825 3394 
Q 2250 3394 2515 3294 
Q 2781 3194 2906 3042 
Q 3031 2891 3081 2659 
Q 3109 2516 3109 2141 
L 3109 1391 
Q 3109 606 3145 398 
Q 3181 191 3288 0 
L 2700 0 
Q 2613 175 2588 409 
z
M 2541 1666 
Q 2234 1541 1622 1453 
Q 1275 1403 1131 1340 
Q 988 1278 909 1158 
Q 831 1038 831 891 
Q 831 666 1001 516 
Q 1172 366 1500 366 
Q 1825 366 2078 508 
Q 2331 650 2450 897 
Q 2541 1088 2541 1459 
L 2541 1666 
z
" transform="scale(0.015625)"/>
       <path id="ArialMT-76" d="M 1344 0 
L 81 3319 
L 675 3319 
L 1388 1331 
Q 1503 1009 1600 663 
Q 1675 925 1809 1294 
L 2547 3319 
L 3125 3319 
L 1869 0 
L 1344 0 
z
" transform="scale(0.015625)"/>
       <path id="ArialMT-65" d="M 2694 1069 
L 3275 997 
Q 3138 488 2766 206 
Q 2394 -75 1816 -75 
Q 1088 -75 661 373 
Q 234 822 234 1631 
Q 234 2469 665 2931 
Q 1097 3394 1784 3394 
Q 2450 3394 2872 2941 
Q 3294 2488 3294 1666 
Q 3294 1616 3291 1516 
L 816 1516 
Q 847 969 1125 678 
Q 1403 388 1819 388 
Q 2128 388 2347 550 
Q 2566 713 2694 1069 
z
M 847 1978 
L 2700 1978 
Q 2663 2397 2488 2606 
Q 2219 2931 1791 2931 
Q 1403 2931 1139 2672 
Q 875 2413 847 1978 
z
" transform="scale(0.015625)"/>
       <path id="ArialMT-6c" d="M 409 0 
L 409 4581 
L 972 4581 
L 972 0 
L 409 0 
z
" transform="scale(0.015625)"/>
       <path id="ArialMT-6e" d="M 422 0 
L 422 3319 
L 928 3319 
L 928 2847 
Q 1294 3394 1984 3394 
Q 2284 3394 2536 3286 
Q 2788 3178 2913 3003 
Q 3038 2828 3088 2588 
Q 3119 2431 3119 2041 
L 3119 0 
L 2556 0 
L 2556 2019 
Q 2556 2363 2490 2533 
Q 2425 2703 2258 2804 
Q 2091 2906 1866 2906 
Q 1506 2906 1245 2678 
Q 984 2450 984 1813 
L 984 0 
L 422 0 
z
" transform="scale(0.015625)"/>
       <path id="ArialMT-67" d="M 319 -275 
L 866 -356 
Q 900 -609 1056 -725 
Q 1266 -881 1628 -881 
Q 2019 -881 2231 -725 
Q 2444 -569 2519 -288 
Q 2563 -116 2559 434 
Q 2191 0 1641 0 
Q 956 0 581 494 
Q 206 988 206 1678 
Q 206 2153 378 2554 
Q 550 2956 876 3175 
Q 1203 3394 1644 3394 
Q 2231 3394 2613 2919 
L 2613 3319 
L 3131 3319 
L 3131 450 
Q 3131 -325 2973 -648 
Q 2816 -972 2473 -1159 
Q 2131 -1347 1631 -1347 
Q 1038 -1347 672 -1080 
Q 306 -813 319 -275 
z
M 784 1719 
Q 784 1066 1043 766 
Q 1303 466 1694 466 
Q 2081 466 2343 764 
Q 2606 1063 2606 1700 
Q 2606 2309 2336 2618 
Q 2066 2928 1684 2928 
Q 1309 2928 1046 2623 
Q 784 2319 784 1719 
z
" transform="scale(0.015625)"/>
       <path id="ArialMT-74" d="M 1650 503 
L 1731 6 
Q 1494 -44 1306 -44 
Q 1000 -44 831 53 
Q 663 150 594 308 
Q 525 466 525 972 
L 525 2881 
L 113 2881 
L 113 3319 
L 525 3319 
L 525 4141 
L 1084 4478 
L 1084 3319 
L 1650 3319 
L 1650 2881 
L 1084 2881 
L 1084 941 
Q 1084 700 1114 631 
Q 1144 563 1211 522 
Q 1278 481 1403 481 
Q 1497 481 1650 503 
z
" transform="scale(0.015625)"/>
       <path id="ArialMT-68" d="M 422 0 
L 422 4581 
L 984 4581 
L 984 2938 
Q 1378 3394 1978 3394 
Q 2347 3394 2619 3248 
Q 2891 3103 3008 2847 
Q 3125 2591 3125 2103 
L 3125 0 
L 2563 0 
L 2563 2103 
Q 2563 2525 2380 2717 
Q 2197 2909 1863 2909 
Q 1613 2909 1392 2779 
Q 1172 2650 1078 2428 
Q 984 2206 984 1816 
L 984 0 
L 422 0 
z
" transform="scale(0.015625)"/>
       <path id="ArialMT-20" transform="scale(0.015625)"/>
       <path id="ArialMT-28" d="M 1497 -1347 
Q 1031 -759 709 28 
Q 388 816 388 1659 
Q 388 2403 628 3084 
Q 909 3875 1497 4659 
L 1900 4659 
Q 1522 4009 1400 3731 
Q 1209 3300 1100 2831 
Q 966 2247 966 1656 
Q 966 153 1900 -1347 
L 1497 -1347 
z
" transform="scale(0.015625)"/>
       <path id="ArialMT-6d" d="M 422 0 
L 422 3319 
L 925 3319 
L 925 2853 
Q 1081 3097 1340 3245 
Q 1600 3394 1931 3394 
Q 2300 3394 2536 3241 
Q 2772 3088 2869 2813 
Q 3263 3394 3894 3394 
Q 4388 3394 4653 3120 
Q 4919 2847 4919 2278 
L 4919 0 
L 4359 0 
L 4359 2091 
Q 4359 2428 4304 2576 
Q 4250 2725 4106 2815 
Q 3963 2906 3769 2906 
Q 3419 2906 3187 2673 
Q 2956 2441 2956 1928 
L 2956 0 
L 2394 0 
L 2394 2156 
Q 2394 2531 2256 2718 
Q 2119 2906 1806 2906 
Q 1569 2906 1367 2781 
Q 1166 2656 1075 2415 
Q 984 2175 984 1722 
L 984 0 
L 422 0 
z
" transform="scale(0.015625)"/>
       <path id="ArialMT-29" d="M 791 -1347 
L 388 -1347 
Q 1322 153 1322 1656 
Q 1322 2244 1188 2822 
Q 1081 3291 891 3722 
Q 769 4003 388 4659 
L 791 4659 
Q 1378 3875 1659 3084 
Q 1900 2403 1900 1659 
Q 1900 816 1576 28 
Q 1253 -759 791 -1347 
z
" transform="scale(0.015625)"/>
      </defs>
      <use xlink:href="#ArialMT-57"/>
      <use xlink:href="#ArialMT-61" x="90.634766"/>
      <use xlink:href="#ArialMT-76" x="146.25"/>
      <use xlink:href="#ArialMT-65" x="196.25"/>
      <use xlink:href="#ArialMT-6c" x="251.865234"/>
      <use xlink:href="#ArialMT-65" x="274.082031"/>
      <use xlink:href="#ArialMT-6e" x="329.697266"/>
      <use xlink:href="#ArialMT-67" x="385.3125"/>
      <use xlink:href="#ArialMT-74" x="440.927734"/>
      <use xlink:href="#ArialMT-68" x="468.710938"/>
      <use xlink:href="#ArialMT-20" x="524.326172"/>
      <use xlink:href="#ArialMT-28" x="552.109375"/>
      <use xlink:href="#ArialMT-6e" x="585.410156"/>
      <use xlink:href="#ArialMT-6d" x="641.025391"/>
      <use xlink:href="#ArialMT-29" x="724.326172"/>
     </g>
    </g>
   </g>
   <g id="matplotlib.axis_2">
    <g id="ytick_1">
     <g id="line2d_12">
      <defs>
       <path id="m3d695fc369" d="M 0 0 
L 6 0 
" style="stroke: #262626; stroke-width: 1.25"/>
      </defs>
      <g>
       <use xlink:href="#m3d695fc369" x="41.25125" y="277.248797" style="fill: #262626; stroke: #262626; stroke-width: 1.25"/>
      </g>
     </g>
     <g id="text_8">
      <!-- 0.0 -->
      <g style="fill: #262626" transform="translate(22.46125 281.185594) scale(0.11 -0.11)">
       <defs>
        <path id="ArialMT-2e" d="M 581 0 
L 581 641 
L 1222 641 
L 1222 0 
L 581 0 
z
" transform="scale(0.015625)"/>
       </defs>
       <use xlink:href="#ArialMT-30"/>
       <use xlink:href="#ArialMT-2e" x="55.615234"/>
       <use xlink:href="#ArialMT-30" x="83.398438"/>
      </g>
     </g>
    </g>
    <g id="ytick_2">
     <g id="line2d_13">
      <g>
       <use xlink:href="#m3d695fc369" x="41.25125" y="224.026397" style="fill: #262626; stroke: #262626; stroke-width: 1.25"/>
      </g>
     </g>
     <g id="text_9">
      <!-- 0.2 -->
      <g style="fill: #262626" transform="translate(22.46125 227.963194) scale(0.11 -0.11)">
       <use xlink:href="#ArialMT-30"/>
       <use xlink:href="#ArialMT-2e" x="55.615234"/>
       <use xlink:href="#ArialMT-32" x="83.398438"/>
      </g>
     </g>
    </g>
    <g id="ytick_3">
     <g id="line2d_14">
      <g>
       <use xlink:href="#m3d695fc369" x="41.25125" y="170.803997" style="fill: #262626; stroke: #262626; stroke-width: 1.25"/>
      </g>
     </g>
     <g id="text_10">
      <!-- 0.4 -->
      <g style="fill: #262626" transform="translate(22.46125 174.740794) scale(0.11 -0.11)">
       <use xlink:href="#ArialMT-30"/>
       <use xlink:href="#ArialMT-2e" x="55.615234"/>
       <use xlink:href="#ArialMT-34" x="83.398438"/>
      </g>
     </g>
    </g>
    <g id="ytick_4">
     <g id="line2d_15">
      <g>
       <use xlink:href="#m3d695fc369" x="41.25125" y="117.581597" style="fill: #262626; stroke: #262626; stroke-width: 1.25"/>
      </g>
     </g>
     <g id="text_11">
      <!-- 0.6 -->
      <g style="fill: #262626" transform="translate(22.46125 121.518394) scale(0.11 -0.11)">
       <use xlink:href="#ArialMT-30"/>
       <use xlink:href="#ArialMT-2e" x="55.615234"/>
       <use xlink:href="#ArialMT-36" x="83.398438"/>
      </g>
     </g>
    </g>
    <g id="ytick_5">
     <g id="line2d_16">
      <g>
       <use xlink:href="#m3d695fc369" x="41.25125" y="64.359197" style="fill: #262626; stroke: #262626; stroke-width: 1.25"/>
      </g>
     </g>
     <g id="text_12">
      <!-- 0.8 -->
      <g style="fill: #262626" transform="translate(22.46125 68.295994) scale(0.11 -0.11)">
       <use xlink:href="#ArialMT-30"/>
       <use xlink:href="#ArialMT-2e" x="55.615234"/>
       <use xlink:href="#ArialMT-38" x="83.398438"/>
      </g>
     </g>
    </g>
    <g id="ytick_6">
     <g id="line2d_17">
      <g>
       <use xlink:href="#m3d695fc369" x="41.25125" y="11.136797" style="fill: #262626; stroke: #262626; stroke-width: 1.25"/>
      </g>
     </g>
     <g id="text_13">
      <!-- 1.0 -->
      <g style="fill: #262626" transform="translate(22.46125 15.073594) scale(0.11 -0.11)">
       <use xlink:href="#ArialMT-31"/>
       <use xlink:href="#ArialMT-2e" x="55.615234"/>
       <use xlink:href="#ArialMT-30" x="83.398438"/>
      </g>
     </g>
    </g>
    <g id="ytick_7">
     <g id="line2d_18">
      <defs>
       <path id="m17ffb5ef7b" d="M 0 0 
L 4 0 
" style="stroke: #262626"/>
      </defs>
      <g>
       <use xlink:href="#m17ffb5ef7b" x="41.25125" y="250.637597" style="fill: #262626; stroke: #262626"/>
      </g>
     </g>
    </g>
    <g id="ytick_8">
     <g id="line2d_19">
      <g>
       <use xlink:href="#m17ffb5ef7b" x="41.25125" y="197.415197" style="fill: #262626; stroke: #262626"/>
      </g>
     </g>
    </g>
    <g id="ytick_9">
     <g id="line2d_20">
      <g>
       <use xlink:href="#m17ffb5ef7b" x="41.25125" y="144.192797" style="fill: #262626; stroke: #262626"/>
      </g>
     </g>
    </g>
    <g id="ytick_10">
     <g id="line2d_21">
      <g>
       <use xlink:href="#m17ffb5ef7b" x="41.25125" y="90.970397" style="fill: #262626; stroke: #262626"/>
      </g>
     </g>
    </g>
    <g id="ytick_11">
     <g id="line2d_22">
      <g>
       <use xlink:href="#m17ffb5ef7b" x="41.25125" y="37.747997" style="fill: #262626; stroke: #262626"/>
      </g>
     </g>
    </g>
    <g id="text_14">
     <!-- Absorbance (a.u.) -->
     <g style="fill: #262626" transform="translate(15.935625 191.881547) rotate(-90) scale(0.12 -0.12)">
      <defs>
       <path id="ArialMT-41" d="M -9 0 
L 1750 4581 
L 2403 4581 
L 4278 0 
L 3588 0 
L 3053 1388 
L 1138 1388 
L 634 0 
L -9 0 
z
M 1313 1881 
L 2866 1881 
L 2388 3150 
Q 2169 3728 2063 4100 
Q 1975 3659 1816 3225 
L 1313 1881 
z
" transform="scale(0.015625)"/>
       <path id="ArialMT-62" d="M 941 0 
L 419 0 
L 419 4581 
L 981 4581 
L 981 2947 
Q 1338 3394 1891 3394 
Q 2197 3394 2470 3270 
Q 2744 3147 2920 2923 
Q 3097 2700 3197 2384 
Q 3297 2069 3297 1709 
Q 3297 856 2875 390 
Q 2453 -75 1863 -75 
Q 1275 -75 941 416 
L 941 0 
z
M 934 1684 
Q 934 1088 1097 822 
Q 1363 388 1816 388 
Q 2184 388 2453 708 
Q 2722 1028 2722 1663 
Q 2722 2313 2464 2622 
Q 2206 2931 1841 2931 
Q 1472 2931 1203 2611 
Q 934 2291 934 1684 
z
" transform="scale(0.015625)"/>
       <path id="ArialMT-73" d="M 197 991 
L 753 1078 
Q 800 744 1014 566 
Q 1228 388 1613 388 
Q 2000 388 2187 545 
Q 2375 703 2375 916 
Q 2375 1106 2209 1216 
Q 2094 1291 1634 1406 
Q 1016 1563 777 1677 
Q 538 1791 414 1992 
Q 291 2194 291 2438 
Q 291 2659 392 2848 
Q 494 3038 669 3163 
Q 800 3259 1026 3326 
Q 1253 3394 1513 3394 
Q 1903 3394 2198 3281 
Q 2494 3169 2634 2976 
Q 2775 2784 2828 2463 
L 2278 2388 
Q 2241 2644 2061 2787 
Q 1881 2931 1553 2931 
Q 1166 2931 1000 2803 
Q 834 2675 834 2503 
Q 834 2394 903 2306 
Q 972 2216 1119 2156 
Q 1203 2125 1616 2013 
Q 2213 1853 2448 1751 
Q 2684 1650 2818 1456 
Q 2953 1263 2953 975 
Q 2953 694 2789 445 
Q 2625 197 2315 61 
Q 2006 -75 1616 -75 
Q 969 -75 630 194 
Q 291 463 197 991 
z
" transform="scale(0.015625)"/>
       <path id="ArialMT-6f" d="M 213 1659 
Q 213 2581 725 3025 
Q 1153 3394 1769 3394 
Q 2453 3394 2887 2945 
Q 3322 2497 3322 1706 
Q 3322 1066 3130 698 
Q 2938 331 2570 128 
Q 2203 -75 1769 -75 
Q 1072 -75 642 372 
Q 213 819 213 1659 
z
M 791 1659 
Q 791 1022 1069 705 
Q 1347 388 1769 388 
Q 2188 388 2466 706 
Q 2744 1025 2744 1678 
Q 2744 2294 2464 2611 
Q 2184 2928 1769 2928 
Q 1347 2928 1069 2612 
Q 791 2297 791 1659 
z
" transform="scale(0.015625)"/>
       <path id="ArialMT-72" d="M 416 0 
L 416 3319 
L 922 3319 
L 922 2816 
Q 1116 3169 1280 3281 
Q 1444 3394 1641 3394 
Q 1925 3394 2219 3213 
L 2025 2691 
Q 1819 2813 1613 2813 
Q 1428 2813 1281 2702 
Q 1134 2591 1072 2394 
Q 978 2094 978 1738 
L 978 0 
L 416 0 
z
" transform="scale(0.015625)"/>
       <path id="ArialMT-63" d="M 2588 1216 
L 3141 1144 
Q 3050 572 2676 248 
Q 2303 -75 1759 -75 
Q 1078 -75 664 370 
Q 250 816 250 1647 
Q 250 2184 428 2587 
Q 606 2991 970 3192 
Q 1334 3394 1763 3394 
Q 2303 3394 2647 3120 
Q 2991 2847 3088 2344 
L 2541 2259 
Q 2463 2594 2264 2762 
Q 2066 2931 1784 2931 
Q 1359 2931 1093 2626 
Q 828 2322 828 1663 
Q 828 994 1084 691 
Q 1341 388 1753 388 
Q 2084 388 2306 591 
Q 2528 794 2588 1216 
z
" transform="scale(0.015625)"/>
       <path id="ArialMT-75" d="M 2597 0 
L 2597 488 
Q 2209 -75 1544 -75 
Q 1250 -75 995 37 
Q 741 150 617 320 
Q 494 491 444 738 
Q 409 903 409 1263 
L 409 3319 
L 972 3319 
L 972 1478 
Q 972 1038 1006 884 
Q 1059 663 1231 536 
Q 1403 409 1656 409 
Q 1909 409 2131 539 
Q 2353 669 2445 892 
Q 2538 1116 2538 1541 
L 2538 3319 
L 3100 3319 
L 3100 0 
L 2597 0 
z
" transform="scale(0.015625)"/>
      </defs>
      <use xlink:href="#ArialMT-41"/>
      <use xlink:href="#ArialMT-62" x="66.699219"/>
      <use xlink:href="#ArialMT-73" x="122.314453"/>
      <use xlink:href="#ArialMT-6f" x="172.314453"/>
      <use xlink:href="#ArialMT-72" x="227.929688"/>
      <use xlink:href="#ArialMT-62" x="261.230469"/>
      <use xlink:href="#ArialMT-61" x="316.845703"/>
      <use xlink:href="#ArialMT-6e" x="372.460938"/>
      <use xlink:href="#ArialMT-63" x="428.076172"/>
      <use xlink:href="#ArialMT-65" x="478.076172"/>
      <use xlink:href="#ArialMT-20" x="533.691406"/>
      <use xlink:href="#ArialMT-28" x="561.474609"/>
      <use xlink:href="#ArialMT-61" x="594.775391"/>
      <use xlink:href="#ArialMT-2e" x="650.390625"/>
      <use xlink:href="#ArialMT-75" x="678.173828"/>
      <use xlink:href="#ArialMT-2e" x="733.789062"/>
      <use xlink:href="#ArialMT-29" x="761.572266"/>
     </g>
    </g>
   </g>
   <g id="PolyCollection_1"/>
   <g id="PolyCollection_2"/>
   <g id="PolyCollection_3"/>
   <g id="PolyCollection_4"/>
   <g id="line2d_23">
    <path d="M 41.289256 204.407773 
L 41.72235 204.157407 
L 42.80507 203.450174 
L 46.269782 200.672292 
L 47.352502 199.643744 
L 48.435232 198.657451 
L 48.868317 198.257305 
L 49.734495 197.468354 
L 53.848843 192.706411 
L 56.663919 187.967292 
L 59.045912 183.130293 
L 62.510624 175.297918 
L 64.24298 170.430338 
L 65.32571 166.917069 
L 67.924244 157.479501 
L 70.089685 148.613416 
L 73.770949 131.584894 
L 81.133458 98.207849 
L 82.43273 92.953057 
L 83.948544 87.630172 
L 87.196704 77.868459 
L 89.145613 72.611097 
L 90.444875 69.81484 
L 91.311053 68.433413 
L 92.177231 67.540854 
L 92.826867 67.183843 
L 93.693045 67.116654 
L 94.559223 67.429157 
L 96.075037 68.66561 
L 97.590851 70.472125 
L 98.673572 72.075327 
L 99.756292 73.994792 
L 101.272106 77.387633 
L 102.571378 80.984532 
L 104.087182 86.032521 
L 105.386454 91.018984 
L 107.551904 100.642258 
L 109.284261 109.240117 
L 112.315879 125.751823 
L 115.347507 143.450335 
L 121.194202 176.818649 
L 123.1431 186.917268 
L 124.875476 194.937578 
L 126.607832 201.800806 
L 128.123627 206.749566 
L 129.422899 210.237576 
L 130.722171 213.112352 
L 132.454527 216.096882 
L 133.537257 217.632704 
L 138.517784 223.376221 
L 141.982496 226.730673 
L 143.714852 228.057563 
L 145.447208 229.087721 
L 147.179564 229.838427 
L 148.262275 230.168358 
L 149.345005 230.434403 
L 150.860819 230.690098 
L 153.026259 230.85396 
L 158.656412 230.69517 
L 164.070042 230.116471 
L 173.381449 228.613938 
L 177.495807 227.422619 
L 181.826688 226.099785 
L 188.106487 223.167031 
L 190.488469 221.860689 
L 193.303555 220.232307 
L 195.252453 219.049883 
L 204.996964 212.8283 
L 205.64659 212.328076 
L 208.678219 210.264818 
L 211.276763 208.479105 
L 220.371628 202.479029 
L 220.58817 202.48412 
L 221.454358 201.933083 
L 222.103984 201.547625 
L 222.320526 201.518583 
L 223.186714 200.886755 
L 224.91907 200.053114 
L 225.135612 199.88886 
L 225.352154 199.937404 
L 225.785238 199.792898 
L 226.00178 199.497088 
L 226.218323 199.440471 
L 226.651426 199.010449 
L 226.867968 199.080867 
L 227.301053 198.696526 
L 227.517595 198.845505 
L 227.950679 198.382508 
L 228.167241 198.5199 
L 228.383783 197.866327 
L 228.600325 198.142404 
L 229.249951 197.55721 
L 229.466493 197.74179 
L 229.899597 197.109082 
L 230.116139 197.117188 
L 230.332681 196.730349 
L 230.549223 197.001763 
L 230.765765 196.916928 
L 230.982307 196.985164 
L 231.415391 196.446936 
L 231.631953 196.208085 
L 231.848495 196.267899 
L 232.065037 196.047757 
L 232.281579 196.209433 
L 232.498121 195.696948 
L 232.714663 195.943166 
L 232.931205 195.844301 
L 233.147747 195.553631 
L 233.364309 195.586227 
L 233.580851 194.999795 
L 233.797393 194.838745 
L 234.013935 195.069887 
L 234.230477 194.675165 
L 234.447019 195.165968 
L 234.663561 194.315157 
L 235.096665 194.727492 
L 235.313207 194.051943 
L 235.529749 194.53744 
L 235.746291 194.580171 
L 235.962814 195.769681 
L 240.726798 193.144751 
L 246.790035 189.641134 
L 248.522391 188.609628 
L 263.247428 180.25077 
L 268.877581 177.532187 
L 271.909209 176.297876 
L 273.858108 175.564352 
L 276.023568 174.788899 
L 277.32282 174.325917 
L 279.48828 173.594725 
L 283.386076 172.251763 
L 289.665875 169.923745 
L 305.690185 163.520556 
L 308.505231 163.053926 
L 309.587981 163.094746 
L 310.237607 163.28257 
L 312.836151 164.280354 
L 313.269235 164.27466 
L 313.918862 163.958802 
L 315.001572 163.132678 
L 315.86778 162.611112 
L 317.167032 162.256536 
L 318.899408 161.920986 
L 320.415202 161.945429 
L 321.497912 162.079157 
L 322.580662 162.269099 
L 323.879914 162.587685 
L 326.911543 163.605819 
L 330.159713 165.102115 
L 333.191341 166.795284 
L 333.624425 167.174731 
L 338.171848 170.257582 
L 343.80202 174.568963 
L 347.050191 177.183519 
L 350.947987 180.274325 
L 354.4127 183.018969 
L 358.960122 186.558949 
L 360.692498 187.848958 
L 369.354259 193.867759 
L 372.60243 195.907621 
L 373.468637 196.457492 
L 382.563483 201.286061 
L 384.295859 202.100367 
L 389.492907 204.584851 
L 391.658367 205.507491 
L 393.607285 206.219205 
L 395.989248 207.355579 
L 398.37125 208.74818 
L 398.37125 208.74818 
" clip-path="url(#p643fce2fd8)" style="fill: none; stroke: #f69c73; stroke-linecap: round"/>
   </g>
   <g id="line2d_24">
    <path d="M 41.289256 201.250499 
L 41.938892 200.456757 
L 43.021612 199.175171 
L 47.13596 195.464252 
L 50.384131 193.215081 
L 51.466851 192.246641 
L 53.415759 189.949712 
L 54.065385 188.980994 
L 55.797741 185.810968 
L 57.313555 182.150036 
L 58.612828 178.621167 
L 60.561726 172.954483 
L 63.376802 163.970254 
L 72.038593 131.794218 
L 73.770949 125.58358 
L 74.853669 122.603091 
L 76.152931 119.761486 
L 79.834196 113.033794 
L 80.916916 111.48939 
L 81.783094 110.760601 
L 82.43273 110.603604 
L 82.865814 110.679644 
L 83.51545 111.081004 
L 84.381628 112.014375 
L 86.113984 114.601593 
L 89.795249 120.470178 
L 90.661427 122.468871 
L 91.527605 125.029284 
L 92.610325 129.111656 
L 93.909587 135.114905 
L 97.157757 150.801297 
L 98.673572 156.935332 
L 100.839022 164.70043 
L 104.520276 176.796784 
L 107.984989 187.400418 
L 111.233149 196.663707 
L 114.697861 205.805021 
L 117.296405 211.900441 
L 120.328034 217.997959 
L 122.926558 222.443568 
L 124.875476 225.277869 
L 126.607832 227.423892 
L 128.556731 229.38447 
L 132.021443 231.736613 
L 134.403425 232.82892 
L 138.734326 234.358604 
L 141.33285 235.107458 
L 144.364478 235.557913 
L 146.096834 235.590516 
L 149.128463 235.279381 
L 150.427735 235.031906 
L 152.160091 234.627659 
L 154.542073 233.951201 
L 156.924056 233.200405 
L 159.5226 232.330789 
L 162.337686 231.397133 
L 165.152752 230.480802 
L 170.566363 229.290146 
L 176.196535 228.50853 
L 179.444706 228.3942 
L 181.177062 228.23319 
L 182.04323 228.132271 
L 183.775586 227.815457 
L 186.37413 227.190054 
L 190.271927 225.873049 
L 196.118641 223.272915 
L 197.850998 222.371005 
L 199.15025 221.73689 
L 199.799896 221.338211 
L 200.882606 220.788939 
L 201.965336 220.167259 
L 203.264608 219.504577 
L 203.914234 219.088105 
L 204.996964 218.492485 
L 206.296236 217.740277 
L 209.760949 215.876573 
L 210.627117 215.379822 
L 220.58817 210.356981 
L 221.021254 210.233714 
L 221.887442 209.666617 
L 222.103984 209.697737 
L 222.970152 209.314071 
L 223.186714 209.254543 
L 223.403256 208.9195 
L 224.269424 208.859425 
L 224.485966 208.419339 
L 224.702508 208.520528 
L 225.135612 208.379408 
L 225.352154 208.370145 
L 225.568696 208.125029 
L 225.785238 208.223695 
L 226.867968 207.611354 
L 227.517595 207.409056 
L 227.734137 207.340891 
L 227.950679 207.03064 
L 228.600325 206.927152 
L 228.816867 206.586764 
L 229.033409 206.533342 
L 229.249951 206.333146 
L 229.466493 206.524912 
L 230.332681 205.645661 
L 230.549223 205.928646 
L 230.982307 205.595419 
L 231.198849 205.242738 
L 231.415391 205.662934 
L 231.631953 205.607046 
L 231.848495 204.897013 
L 232.065037 205.13465 
L 232.498121 204.980349 
L 232.714663 205.409007 
L 232.931205 204.525187 
L 233.147747 204.249395 
L 233.364309 204.186433 
L 233.580851 204.465001 
L 233.797393 204.366842 
L 234.013935 203.900228 
L 234.880103 203.820492 
L 235.096665 204.0152 
L 235.746291 203.331339 
L 235.962814 203.974301 
L 249.388579 198.526364 
L 251.987123 197.607332 
L 259.13309 195.365966 
L 264.763243 193.980209 
L 268.011413 193.320568 
L 280.787532 191.665412 
L 283.169534 191.4107 
L 287.933499 190.944712 
L 297.244926 190.427207 
L 301.142722 190.58146 
L 305.690185 191.118309 
L 309.154897 192.12515 
L 310.237607 192.728545 
L 311.969943 193.970787 
L 313.052693 194.674848 
L 313.702319 194.836263 
L 314.78503 194.722805 
L 315.651238 194.612711 
L 316.517406 194.742418 
L 319.982118 195.695052 
L 322.36412 196.750382 
L 326.911543 198.978639 
L 329.077003 200.098041 
L 332.758257 202.108218 
L 348.349443 210.654567 
L 360.90904 216.477074 
L 368.488091 219.300435 
L 372.60243 220.529028 
L 374.118263 220.970708 
L 375.8506 221.448429 
L 377.366434 221.830092 
L 379.964978 222.478836 
L 381.697314 222.840015 
L 384.728943 223.449703 
L 386.894403 223.889698 
L 392.091451 224.622396 
L 394.906538 224.909716 
L 397.28854 225.423997 
L 398.37125 225.725755 
L 398.37125 225.725755 
" clip-path="url(#p643fce2fd8)" style="fill: none; stroke: #e83f3f; stroke-linecap: round"/>
   </g>
   <g id="line2d_25">
    <path d="M 41.289256 201.72337 
L 42.588528 200.243269 
L 43.454706 199.351805 
L 44.753968 198.25744 
L 47.785596 196.130348 
L 48.218681 195.998317 
L 48.435232 195.757674 
L 48.868317 195.669833 
L 50.384131 194.900462 
L 52.333029 193.411764 
L 52.982665 192.810367 
L 54.931563 190.2722 
L 56.447377 187.416985 
L 58.612828 182.020748 
L 63.809896 167.155396 
L 65.109158 162.702395 
L 67.924244 153.856113 
L 70.089685 147.342933 
L 73.770949 135.474549 
L 74.853669 133.160688 
L 75.719847 131.819977 
L 78.534924 128.586307 
L 80.483832 126.636023 
L 81.133458 126.327374 
L 81.783094 126.242769 
L 82.216188 126.422464 
L 82.865814 126.938629 
L 83.731992 128.122961 
L 85.031264 130.685705 
L 90.228333 142.39269 
L 91.094511 145.115643 
L 91.960689 148.393472 
L 93.043409 153.319661 
L 94.559223 161.091032 
L 96.291579 169.96282 
L 97.807394 176.62567 
L 99.323208 182.329136 
L 101.488648 189.337354 
L 104.303734 197.349868 
L 106.685726 203.474711 
L 109.500803 210.047008 
L 113.182067 217.841573 
L 115.780591 222.683291 
L 117.512948 225.571969 
L 119.678388 228.808959 
L 122.06039 231.934731 
L 124.009288 234.190885 
L 126.824374 236.836553 
L 128.556731 238.128069 
L 130.072545 238.992394 
L 131.155255 239.513889 
L 134.403425 240.638926 
L 135.702697 240.965134 
L 138.517784 241.621832 
L 142.41558 242.230339 
L 146.746461 242.161302 
L 149.345005 241.75608 
L 157.357159 239.505201 
L 164.503126 237.046004 
L 165.802398 236.65957 
L 166.885109 236.329409 
L 172.298739 235.504404 
L 176.846162 235.247999 
L 177.928892 235.320161 
L 178.79506 235.391042 
L 182.692876 235.478986 
L 186.37413 235.11301 
L 187.889945 234.873866 
L 194.169723 233.248929 
L 194.819369 233.009801 
L 198.06754 231.784535 
L 203.264608 229.782186 
L 203.697692 229.49945 
L 204.347318 229.235043 
L 206.512778 228.355938 
L 210.410575 226.84145 
L 210.843659 226.666418 
L 211.926389 226.246988 
L 212.792557 225.892388 
L 213.658745 225.633314 
L 215.607643 224.934135 
L 217.123458 224.381519 
L 217.34 224.396941 
L 217.989646 224.074853 
L 219.288898 223.674021 
L 219.722002 223.50395 
L 220.155086 223.324564 
L 220.371628 223.19854 
L 220.804712 223.202553 
L 221.454358 222.93014 
L 221.6709 222.901018 
L 222.103984 222.629366 
L 222.320526 222.711782 
L 222.537068 222.570571 
L 222.75361 222.583784 
L 223.403256 222.222435 
L 223.83634 222.245965 
L 224.052882 222.248515 
L 224.269424 222.018099 
L 224.702508 221.916974 
L 224.91907 221.784554 
L 225.352154 221.954296 
L 225.568696 221.574678 
L 225.785238 221.638469 
L 226.00178 221.436838 
L 226.434865 221.333805 
L 226.651426 221.185496 
L 227.084511 221.236555 
L 227.301053 221.065932 
L 227.517595 221.148924 
L 227.734137 220.935919 
L 227.950679 221.040895 
L 228.167241 220.929448 
L 228.383783 220.539437 
L 229.033409 220.585515 
L 229.249951 220.329439 
L 229.683035 220.342707 
L 229.899597 220.256583 
L 230.332681 219.715091 
L 230.549223 220.148498 
L 231.198849 219.793688 
L 231.415391 219.887386 
L 231.848495 219.103566 
L 232.065037 219.168428 
L 232.281579 219.541788 
L 232.498121 219.058567 
L 232.714663 219.17346 
L 232.931205 218.840265 
L 233.147747 218.992627 
L 233.364309 218.797585 
L 233.580851 218.919243 
L 234.013935 218.366834 
L 234.230477 218.803672 
L 234.447019 218.710728 
L 234.663561 218.42982 
L 234.880103 218.629866 
L 235.096665 218.54302 
L 235.313207 218.890383 
L 235.529749 217.817178 
L 235.962814 218.657683 
L 245.707325 215.70762 
L 258.483444 212.752978 
L 267.145225 211.374541 
L 271.476125 210.909501 
L 274.724296 210.65214 
L 279.055196 210.385841 
L 285.768079 210.17348 
L 287.500415 210.157348 
L 290.748585 210.142304 
L 297.028384 210.405732 
L 301.575806 210.905441 
L 305.906727 211.723748 
L 308.288689 212.442374 
L 310.237607 213.411623 
L 312.836151 215.113432 
L 313.702319 215.348813 
L 316.517406 215.274339 
L 317.816658 215.50031 
L 319.11595 215.757568 
L 320.415202 216.14568 
L 322.797204 216.981954 
L 327.561169 218.893405 
L 349.215611 228.001735 
L 362.208292 232.644451 
L 367.621923 234.38403 
L 369.354259 234.869603 
L 377.149892 236.90814 
L 379.531854 237.417247 
L 381.26423 237.76022 
L 384.295859 238.275172 
L 385.595111 238.524416 
L 386.894403 238.768648 
L 389.059823 239.088463 
L 391.874909 239.409576 
L 395.556164 239.815063 
L 398.37125 240.464568 
L 398.37125 240.464568 
" clip-path="url(#p643fce2fd8)" style="fill: none; stroke: #a11a5b; stroke-linecap: round"/>
   </g>
   <g id="line2d_26">
    <path d="M 41.289256 194.96321 
L 43.454706 193.125083 
L 47.352502 191.430852 
L 48.218681 191.358206 
L 49.734495 191.392308 
L 50.384131 191.340378 
L 53.848843 190.784836 
L 56.230835 189.51586 
L 56.663919 189.025525 
L 56.880471 188.973808 
L 57.530097 188.186475 
L 61.860998 183.064483 
L 65.975336 178.446452 
L 66.624972 177.905646 
L 67.274608 177.460992 
L 70.306237 175.636871 
L 71.172415 174.853217 
L 72.471677 173.673755 
L 73.337855 173.156678 
L 73.987491 172.982598 
L 74.853669 173.09278 
L 75.719847 173.521952 
L 77.019109 174.44656 
L 78.101839 175.274015 
L 79.401102 176.176329 
L 80.700374 177.222316 
L 81.35001 177.968418 
L 81.999636 178.844632 
L 83.082366 180.770481 
L 84.165086 183.13172 
L 89.145613 196.025138 
L 90.877969 201.153903 
L 92.393783 206.448031 
L 96.941215 223.803891 
L 98.890114 229.455668 
L 100.62247 233.538247 
L 102.138284 236.599384 
L 104.520276 240.643181 
L 106.03609 242.872552 
L 108.851167 246.392467 
L 111.016607 248.671041 
L 113.615151 250.940282 
L 117.296405 253.37819 
L 120.328034 254.820955 
L 124.658914 256.069442 
L 126.824374 256.391984 
L 132.454527 256.445182 
L 136.785427 255.944329 
L 140.683224 255.236388 
L 142.41558 254.866121 
L 153.892447 252.145049 
L 158.656412 250.900911 
L 160.172226 250.488179 
L 162.337686 249.889665 
L 163.636938 249.563501 
L 168.400923 248.525975 
L 170.349821 248.322589 
L 177.279246 248.108887 
L 179.87779 248.441838 
L 180.527416 248.483141 
L 185.941046 248.695348 
L 190.705011 248.401094 
L 205.430048 245.985598 
L 206.079675 245.977615 
L 207.812031 245.911514 
L 208.678219 245.895784 
L 209.327845 245.920674 
L 210.194033 245.925463 
L 213.658745 246.059941 
L 213.875287 246.113523 
L 214.308371 246.098587 
L 215.391101 246.146281 
L 216.690373 246.141917 
L 217.34 246.248187 
L 217.773084 246.20067 
L 220.155086 246.213413 
L 220.371628 246.126507 
L 220.804712 246.359301 
L 221.237796 246.187701 
L 221.454358 246.130078 
L 221.6709 246.227026 
L 221.887442 246.18434 
L 222.320526 246.274561 
L 222.537068 246.308903 
L 222.970152 246.097594 
L 223.403256 246.32049 
L 223.83634 246.137743 
L 224.485966 246.143541 
L 224.702508 246.151844 
L 224.91907 246.307057 
L 226.434865 246.111015 
L 226.651426 246.32527 
L 226.867968 246.17384 
L 227.084511 246.276028 
L 227.301053 246.011912 
L 227.517595 246.1816 
L 227.950679 246.20067 
L 228.167241 246.392864 
L 228.383783 246.058136 
L 228.816867 246.180609 
L 229.033409 246.128772 
L 229.249951 245.912236 
L 229.466493 246.137347 
L 229.899597 245.891511 
L 230.116139 245.586867 
L 230.549223 246.253429 
L 230.765765 245.818469 
L 231.415391 245.982348 
L 231.848495 245.707839 
L 232.065037 246.002145 
L 232.281579 245.771426 
L 232.714663 246.035785 
L 232.931205 246.004528 
L 233.147747 245.757226 
L 233.364309 245.805169 
L 233.580851 245.713053 
L 233.797393 245.339838 
L 234.013935 245.82242 
L 234.230477 245.968929 
L 234.447019 245.777269 
L 234.663561 245.308938 
L 235.096665 245.936978 
L 235.313207 245.722346 
L 235.529749 246.323109 
L 235.746291 245.957154 
L 249.388579 245.711025 
L 250.904393 245.725992 
L 253.719479 245.767934 
L 271.476125 246.266517 
L 285.334994 247.193349 
L 300.709638 248.787454 
L 306.339811 249.699682 
L 310.021065 250.835939 
L 313.052693 252.399416 
L 313.702319 252.416538 
L 314.568488 252.243103 
L 315.434695 251.994162 
L 316.300864 251.938754 
L 317.816658 251.974686 
L 319.765576 252.092557 
L 323.44683 252.672642 
L 338.171848 255.364559 
L 340.55385 255.838796 
L 361.775208 259.608873 
L 363.291042 259.851136 
L 373.468637 261.409018 
L 378.882228 262.06247 
L 381.913856 262.386699 
L 388.843281 263.168839 
L 395.989248 263.773136 
L 398.37125 264.167699 
L 398.37125 264.167699 
" clip-path="url(#p643fce2fd8)" style="fill: none; stroke: #4c1d4b; stroke-linecap: round"/>
   </g>
   <g id="line2d_27"/>
   <g id="line2d_28"/>
   <g id="line2d_29"/>
   <g id="line2d_30"/>
   <g id="patch_3">
    <path d="M 41.25125 277.248797 
L 41.25125 11.136797 
" style="fill: none; stroke: #262626; stroke-width: 1.25; stroke-linejoin: miter; stroke-linecap: square"/>
   </g>
   <g id="patch_4">
    <path d="M 41.25125 277.248797 
L 398.37125 277.248797 
" style="fill: none; stroke: #262626; stroke-width: 1.25; stroke-linejoin: miter; stroke-linecap: square"/>
   </g>
   <g id="legend_1">
    <g id="line2d_31">
     <path d="M 323.784875 45.342684 
L 329.784875 45.342684 
L 335.784875 45.342684 
" style="fill: none; stroke: #f69c73; stroke-width: 1.5; stroke-linecap: round"/>
    </g>
    <g id="text_15">
     <!-- 0 hrs -->
     <g style="fill: #262626" transform="translate(340.584875 47.442684) scale(0.06 -0.06)">
      <use xlink:href="#ArialMT-30"/>
      <use xlink:href="#ArialMT-20" x="55.615234"/>
      <use xlink:href="#ArialMT-68" x="83.398438"/>
      <use xlink:href="#ArialMT-72" x="139.013672"/>
      <use xlink:href="#ArialMT-73" x="172.314453"/>
     </g>
    </g>
    <g id="line2d_32">
     <path d="M 323.784875 53.829872 
L 329.784875 53.829872 
L 335.784875 53.829872 
" style="fill: none; stroke: #e83f3f; stroke-width: 1.5; stroke-linecap: round"/>
    </g>
    <g id="text_16">
     <!-- 1 hrs -->
     <g style="fill: #262626" transform="translate(340.584875 55.929872) scale(0.06 -0.06)">
      <use xlink:href="#ArialMT-31"/>
      <use xlink:href="#ArialMT-20" x="55.615234"/>
      <use xlink:href="#ArialMT-68" x="83.398438"/>
      <use xlink:href="#ArialMT-72" x="139.013672"/>
      <use xlink:href="#ArialMT-73" x="172.314453"/>
     </g>
    </g>
    <g id="line2d_33">
     <path d="M 323.784875 62.317059 
L 329.784875 62.317059 
L 335.784875 62.317059 
" style="fill: none; stroke: #a11a5b; stroke-width: 1.5; stroke-linecap: round"/>
    </g>
    <g id="text_17">
     <!-- 2 hrs -->
     <g style="fill: #262626" transform="translate(340.584875 64.417059) scale(0.06 -0.06)">
      <use xlink:href="#ArialMT-32"/>
      <use xlink:href="#ArialMT-20" x="55.615234"/>
      <use xlink:href="#ArialMT-68" x="83.398438"/>
      <use xlink:href="#ArialMT-72" x="139.013672"/>
      <use xlink:href="#ArialMT-73" x="172.314453"/>
     </g>
    </g>
    <g id="line2d_34">
     <path d="M 323.784875 70.804247 
L 329.784875 70.804247 
L 335.784875 70.804247 
" style="fill: none; stroke: #4c1d4b; stroke-width: 1.5; stroke-linecap: round"/>
    </g>
    <g id="text_18">
     <!-- 18 hrs -->
     <g style="fill: #262626" transform="translate(340.584875 72.904247) scale(0.06 -0.06)">
      <use xlink:href="#ArialMT-31"/>
      <use xlink:href="#ArialMT-38" x="55.615234"/>
      <use xlink:href="#ArialMT-20" x="111.230469"/>
      <use xlink:href="#ArialMT-68" x="139.013672"/>
      <use xlink:href="#ArialMT-72" x="194.628906"/>
      <use xlink:href="#ArialMT-73" x="227.929688"/>
     </g>
    </g>
   </g>
  </g>
 </g>
 <defs>
  <clipPath id="p643fce2fd8">
   <rect x="41.25125" y="11.136797" width="357.12" height="266.112"/>
  </clipPath>
 </defs>
</svg>
