<?xml version="1.0" encoding="utf-8" standalone="no"?>
<!DOCTYPE svg PUBLIC "-//W3C//DTD SVG 1.1//EN"
  "http://www.w3.org/Graphics/SVG/1.1/DTD/svg11.dtd">
<svg xmlns:xlink="http://www.w3.org/1999/xlink" width="414.746797pt" height="310.635118pt" viewBox="0 0 414.746797 310.635118" xmlns="http://www.w3.org/2000/svg" version="1.1">
 <metadata>
  <rdf:RDF xmlns:dc="http://purl.org/dc/elements/1.1/" xmlns:cc="http://creativecommons.org/ns#" xmlns:rdf="http://www.w3.org/1999/02/22-rdf-syntax-ns#">
   <cc:Work>
    <dc:type rdf:resource="http://purl.org/dc/dcmitype/StillImage"/>
    <dc:date>2024-11-08T15:44:58.551893</dc:date>
    <dc:format>image/svg+xml</dc:format>
    <dc:creator>
     <cc:Agent>
      <dc:title>Matplotlib v3.7.1, https://matplotlib.org/</dc:title>
     </cc:Agent>
    </dc:creator>
   </cc:Work>
  </rdf:RDF>
 </metadata>
 <defs>
  <style type="text/css">*{stroke-linejoin: round; stroke-linecap: butt}</style>
 </defs>
 <g id="figure_1">
  <g id="patch_1">
   <path d="M 0 310.635118 
L 414.746797 310.635118 
L 414.746797 0 
L 0 0 
z
" style="fill: #ffffff"/>
  </g>
  <g id="axes_1">
   <g id="patch_2">
    <path d="M 41.25125 274.614025 
L 398.37125 274.614025 
L 398.37125 8.502025 
L 41.25125 8.502025 
z
" style="fill: #ffffff"/>
   </g>
   <g id="matplotlib.axis_1">
    <g id="xtick_1">
     <g id="line2d_1">
      <defs>
       <path id="mdd01e938f3" d="M 0 0 
L 0 -6 
" style="stroke: #262626; stroke-width: 1.25"/>
      </defs>
      <g>
       <use xlink:href="#mdd01e938f3" x="41.25125" y="274.614025" style="fill: #262626; stroke: #262626; stroke-width: 1.25"/>
      </g>
     </g>
     <g id="text_1">
      <!-- 300 -->
      <g style="fill: #262626" transform="translate(32.075703 285.987618) scale(0.11 -0.11)">
       <defs>
        <path id="ArialMT-33" d="M 269 1209 
L 831 1284 
Q 928 806 1161 595 
Q 1394 384 1728 384 
Q 2125 384 2398 659 
Q 2672 934 2672 1341 
Q 2672 1728 2419 1979 
Q 2166 2231 1775 2231 
Q 1616 2231 1378 2169 
L 1441 2663 
Q 1497 2656 1531 2656 
Q 1891 2656 2178 2843 
Q 2466 3031 2466 3422 
Q 2466 3731 2256 3934 
Q 2047 4138 1716 4138 
Q 1388 4138 1169 3931 
Q 950 3725 888 3313 
L 325 3413 
Q 428 3978 793 4289 
Q 1159 4600 1703 4600 
Q 2078 4600 2393 4439 
Q 2709 4278 2876 4000 
Q 3044 3722 3044 3409 
Q 3044 3113 2884 2869 
Q 2725 2625 2413 2481 
Q 2819 2388 3044 2092 
Q 3269 1797 3269 1353 
Q 3269 753 2831 336 
Q 2394 -81 1725 -81 
Q 1122 -81 723 278 
Q 325 638 269 1209 
z
" transform="scale(0.015625)"/>
        <path id="ArialMT-30" d="M 266 2259 
Q 266 3072 433 3567 
Q 600 4063 929 4331 
Q 1259 4600 1759 4600 
Q 2128 4600 2406 4451 
Q 2684 4303 2865 4023 
Q 3047 3744 3150 3342 
Q 3253 2941 3253 2259 
Q 3253 1453 3087 958 
Q 2922 463 2592 192 
Q 2263 -78 1759 -78 
Q 1097 -78 719 397 
Q 266 969 266 2259 
z
M 844 2259 
Q 844 1131 1108 757 
Q 1372 384 1759 384 
Q 2147 384 2411 759 
Q 2675 1134 2675 2259 
Q 2675 3391 2411 3762 
Q 2147 4134 1753 4134 
Q 1366 4134 1134 3806 
Q 844 3388 844 2259 
z
" transform="scale(0.015625)"/>
       </defs>
       <use xlink:href="#ArialMT-33"/>
       <use xlink:href="#ArialMT-30" x="55.615234"/>
       <use xlink:href="#ArialMT-30" x="111.230469"/>
      </g>
     </g>
    </g>
    <g id="xtick_2">
     <g id="line2d_2">
      <g>
       <use xlink:href="#mdd01e938f3" x="92.268393" y="274.614025" style="fill: #262626; stroke: #262626; stroke-width: 1.25"/>
      </g>
     </g>
     <g id="text_2">
      <!-- 350 -->
      <g style="fill: #262626" transform="translate(83.092846 285.987618) scale(0.11 -0.11)">
       <defs>
        <path id="ArialMT-35" d="M 266 1200 
L 856 1250 
Q 922 819 1161 601 
Q 1400 384 1738 384 
Q 2144 384 2425 690 
Q 2706 997 2706 1503 
Q 2706 1984 2436 2262 
Q 2166 2541 1728 2541 
Q 1456 2541 1237 2417 
Q 1019 2294 894 2097 
L 366 2166 
L 809 4519 
L 3088 4519 
L 3088 3981 
L 1259 3981 
L 1013 2750 
Q 1425 3038 1878 3038 
Q 2478 3038 2890 2622 
Q 3303 2206 3303 1553 
Q 3303 931 2941 478 
Q 2500 -78 1738 -78 
Q 1113 -78 717 272 
Q 322 622 266 1200 
z
" transform="scale(0.015625)"/>
       </defs>
       <use xlink:href="#ArialMT-33"/>
       <use xlink:href="#ArialMT-35" x="55.615234"/>
       <use xlink:href="#ArialMT-30" x="111.230469"/>
      </g>
     </g>
    </g>
    <g id="xtick_3">
     <g id="line2d_3">
      <g>
       <use xlink:href="#mdd01e938f3" x="143.285536" y="274.614025" style="fill: #262626; stroke: #262626; stroke-width: 1.25"/>
      </g>
     </g>
     <g id="text_3">
      <!-- 400 -->
      <g style="fill: #262626" transform="translate(134.109989 285.987618) scale(0.11 -0.11)">
       <defs>
        <path id="ArialMT-34" d="M 2069 0 
L 2069 1097 
L 81 1097 
L 81 1613 
L 2172 4581 
L 2631 4581 
L 2631 1613 
L 3250 1613 
L 3250 1097 
L 2631 1097 
L 2631 0 
L 2069 0 
z
M 2069 1613 
L 2069 3678 
L 634 1613 
L 2069 1613 
z
" transform="scale(0.015625)"/>
       </defs>
       <use xlink:href="#ArialMT-34"/>
       <use xlink:href="#ArialMT-30" x="55.615234"/>
       <use xlink:href="#ArialMT-30" x="111.230469"/>
      </g>
     </g>
    </g>
    <g id="xtick_4">
     <g id="line2d_4">
      <g>
       <use xlink:href="#mdd01e938f3" x="194.302679" y="274.614025" style="fill: #262626; stroke: #262626; stroke-width: 1.25"/>
      </g>
     </g>
     <g id="text_4">
      <!-- 450 -->
      <g style="fill: #262626" transform="translate(185.127132 285.987618) scale(0.11 -0.11)">
       <use xlink:href="#ArialMT-34"/>
       <use xlink:href="#ArialMT-35" x="55.615234"/>
       <use xlink:href="#ArialMT-30" x="111.230469"/>
      </g>
     </g>
    </g>
    <g id="xtick_5">
     <g id="line2d_5">
      <g>
       <use xlink:href="#mdd01e938f3" x="245.319821" y="274.614025" style="fill: #262626; stroke: #262626; stroke-width: 1.25"/>
      </g>
     </g>
     <g id="text_5">
      <!-- 500 -->
      <g style="fill: #262626" transform="translate(236.144275 285.987618) scale(0.11 -0.11)">
       <use xlink:href="#ArialMT-35"/>
       <use xlink:href="#ArialMT-30" x="55.615234"/>
       <use xlink:href="#ArialMT-30" x="111.230469"/>
      </g>
     </g>
    </g>
    <g id="xtick_6">
     <g id="line2d_6">
      <g>
       <use xlink:href="#mdd01e938f3" x="296.336964" y="274.614025" style="fill: #262626; stroke: #262626; stroke-width: 1.25"/>
      </g>
     </g>
     <g id="text_6">
      <!-- 550 -->
      <g style="fill: #262626" transform="translate(287.161417 285.987618) scale(0.11 -0.11)">
       <use xlink:href="#ArialMT-35"/>
       <use xlink:href="#ArialMT-35" x="55.615234"/>
       <use xlink:href="#ArialMT-30" x="111.230469"/>
      </g>
     </g>
    </g>
    <g id="xtick_7">
     <g id="line2d_7">
      <g>
       <use xlink:href="#mdd01e938f3" x="347.354107" y="274.614025" style="fill: #262626; stroke: #262626; stroke-width: 1.25"/>
      </g>
     </g>
     <g id="text_7">
      <!-- 600 -->
      <g style="fill: #262626" transform="translate(338.17856 285.987618) scale(0.11 -0.11)">
       <defs>
        <path id="ArialMT-36" d="M 3184 3459 
L 2625 3416 
Q 2550 3747 2413 3897 
Q 2184 4138 1850 4138 
Q 1581 4138 1378 3988 
Q 1113 3794 959 3422 
Q 806 3050 800 2363 
Q 1003 2672 1297 2822 
Q 1591 2972 1913 2972 
Q 2475 2972 2870 2558 
Q 3266 2144 3266 1488 
Q 3266 1056 3080 686 
Q 2894 316 2569 119 
Q 2244 -78 1831 -78 
Q 1128 -78 684 439 
Q 241 956 241 2144 
Q 241 3472 731 4075 
Q 1159 4600 1884 4600 
Q 2425 4600 2770 4297 
Q 3116 3994 3184 3459 
z
M 888 1484 
Q 888 1194 1011 928 
Q 1134 663 1356 523 
Q 1578 384 1822 384 
Q 2178 384 2434 671 
Q 2691 959 2691 1453 
Q 2691 1928 2437 2201 
Q 2184 2475 1800 2475 
Q 1419 2475 1153 2201 
Q 888 1928 888 1484 
z
" transform="scale(0.015625)"/>
       </defs>
       <use xlink:href="#ArialMT-36"/>
       <use xlink:href="#ArialMT-30" x="55.615234"/>
       <use xlink:href="#ArialMT-30" x="111.230469"/>
      </g>
     </g>
    </g>
    <g id="xtick_8">
     <g id="line2d_8">
      <g>
       <use xlink:href="#mdd01e938f3" x="398.37125" y="274.614025" style="fill: #262626; stroke: #262626; stroke-width: 1.25"/>
      </g>
     </g>
     <g id="text_8">
      <!-- 650 -->
      <g style="fill: #262626" transform="translate(389.195703 285.987618) scale(0.11 -0.11)">
       <use xlink:href="#ArialMT-36"/>
       <use xlink:href="#ArialMT-35" x="55.615234"/>
       <use xlink:href="#ArialMT-30" x="111.230469"/>
      </g>
     </g>
    </g>
    <g id="xtick_9">
     <g id="line2d_9">
      <defs>
       <path id="m435f05dc96" d="M 0 0 
L 0 -4 
" style="stroke: #262626"/>
      </defs>
      <g>
       <use xlink:href="#m435f05dc96" x="66.759821" y="274.614025" style="fill: #262626; stroke: #262626"/>
      </g>
     </g>
    </g>
    <g id="xtick_10">
     <g id="line2d_10">
      <g>
       <use xlink:href="#m435f05dc96" x="117.776964" y="274.614025" style="fill: #262626; stroke: #262626"/>
      </g>
     </g>
    </g>
    <g id="xtick_11">
     <g id="line2d_11">
      <g>
       <use xlink:href="#m435f05dc96" x="168.794107" y="274.614025" style="fill: #262626; stroke: #262626"/>
      </g>
     </g>
    </g>
    <g id="xtick_12">
     <g id="line2d_12">
      <g>
       <use xlink:href="#m435f05dc96" x="219.81125" y="274.614025" style="fill: #262626; stroke: #262626"/>
      </g>
     </g>
    </g>
    <g id="xtick_13">
     <g id="line2d_13">
      <g>
       <use xlink:href="#m435f05dc96" x="270.828393" y="274.614025" style="fill: #262626; stroke: #262626"/>
      </g>
     </g>
    </g>
    <g id="xtick_14">
     <g id="line2d_14">
      <g>
       <use xlink:href="#m435f05dc96" x="321.845536" y="274.614025" style="fill: #262626; stroke: #262626"/>
      </g>
     </g>
    </g>
    <g id="xtick_15">
     <g id="line2d_15">
      <g>
       <use xlink:href="#m435f05dc96" x="372.862679" y="274.614025" style="fill: #262626; stroke: #262626"/>
      </g>
     </g>
    </g>
    <g id="text_9">
     <!-- Wavelength (nm) -->
     <g style="fill: #262626" transform="translate(174.356562 300.909493) scale(0.12 -0.12)">
      <defs>
       <path id="ArialMT-57" d="M 1294 0 
L 78 4581 
L 700 4581 
L 1397 1578 
Q 1509 1106 1591 641 
Q 1766 1375 1797 1488 
L 2669 4581 
L 3400 4581 
L 4056 2263 
Q 4303 1400 4413 641 
Q 4500 1075 4641 1638 
L 5359 4581 
L 5969 4581 
L 4713 0 
L 4128 0 
L 3163 3491 
Q 3041 3928 3019 4028 
Q 2947 3713 2884 3491 
L 1913 0 
L 1294 0 
z
" transform="scale(0.015625)"/>
       <path id="ArialMT-61" d="M 2588 409 
Q 2275 144 1986 34 
Q 1697 -75 1366 -75 
Q 819 -75 525 192 
Q 231 459 231 875 
Q 231 1119 342 1320 
Q 453 1522 633 1644 
Q 813 1766 1038 1828 
Q 1203 1872 1538 1913 
Q 2219 1994 2541 2106 
Q 2544 2222 2544 2253 
Q 2544 2597 2384 2738 
Q 2169 2928 1744 2928 
Q 1347 2928 1158 2789 
Q 969 2650 878 2297 
L 328 2372 
Q 403 2725 575 2942 
Q 747 3159 1072 3276 
Q 1397 3394 1825 3394 
Q 2250 3394 2515 3294 
Q 2781 3194 2906 3042 
Q 3031 2891 3081 2659 
Q 3109 2516 3109 2141 
L 3109 1391 
Q 3109 606 3145 398 
Q 3181 191 3288 0 
L 2700 0 
Q 2613 175 2588 409 
z
M 2541 1666 
Q 2234 1541 1622 1453 
Q 1275 1403 1131 1340 
Q 988 1278 909 1158 
Q 831 1038 831 891 
Q 831 666 1001 516 
Q 1172 366 1500 366 
Q 1825 366 2078 508 
Q 2331 650 2450 897 
Q 2541 1088 2541 1459 
L 2541 1666 
z
" transform="scale(0.015625)"/>
       <path id="ArialMT-76" d="M 1344 0 
L 81 3319 
L 675 3319 
L 1388 1331 
Q 1503 1009 1600 663 
Q 1675 925 1809 1294 
L 2547 3319 
L 3125 3319 
L 1869 0 
L 1344 0 
z
" transform="scale(0.015625)"/>
       <path id="ArialMT-65" d="M 2694 1069 
L 3275 997 
Q 3138 488 2766 206 
Q 2394 -75 1816 -75 
Q 1088 -75 661 373 
Q 234 822 234 1631 
Q 234 2469 665 2931 
Q 1097 3394 1784 3394 
Q 2450 3394 2872 2941 
Q 3294 2488 3294 1666 
Q 3294 1616 3291 1516 
L 816 1516 
Q 847 969 1125 678 
Q 1403 388 1819 388 
Q 2128 388 2347 550 
Q 2566 713 2694 1069 
z
M 847 1978 
L 2700 1978 
Q 2663 2397 2488 2606 
Q 2219 2931 1791 2931 
Q 1403 2931 1139 2672 
Q 875 2413 847 1978 
z
" transform="scale(0.015625)"/>
       <path id="ArialMT-6c" d="M 409 0 
L 409 4581 
L 972 4581 
L 972 0 
L 409 0 
z
" transform="scale(0.015625)"/>
       <path id="ArialMT-6e" d="M 422 0 
L 422 3319 
L 928 3319 
L 928 2847 
Q 1294 3394 1984 3394 
Q 2284 3394 2536 3286 
Q 2788 3178 2913 3003 
Q 3038 2828 3088 2588 
Q 3119 2431 3119 2041 
L 3119 0 
L 2556 0 
L 2556 2019 
Q 2556 2363 2490 2533 
Q 2425 2703 2258 2804 
Q 2091 2906 1866 2906 
Q 1506 2906 1245 2678 
Q 984 2450 984 1813 
L 984 0 
L 422 0 
z
" transform="scale(0.015625)"/>
       <path id="ArialMT-67" d="M 319 -275 
L 866 -356 
Q 900 -609 1056 -725 
Q 1266 -881 1628 -881 
Q 2019 -881 2231 -725 
Q 2444 -569 2519 -288 
Q 2563 -116 2559 434 
Q 2191 0 1641 0 
Q 956 0 581 494 
Q 206 988 206 1678 
Q 206 2153 378 2554 
Q 550 2956 876 3175 
Q 1203 3394 1644 3394 
Q 2231 3394 2613 2919 
L 2613 3319 
L 3131 3319 
L 3131 450 
Q 3131 -325 2973 -648 
Q 2816 -972 2473 -1159 
Q 2131 -1347 1631 -1347 
Q 1038 -1347 672 -1080 
Q 306 -813 319 -275 
z
M 784 1719 
Q 784 1066 1043 766 
Q 1303 466 1694 466 
Q 2081 466 2343 764 
Q 2606 1063 2606 1700 
Q 2606 2309 2336 2618 
Q 2066 2928 1684 2928 
Q 1309 2928 1046 2623 
Q 784 2319 784 1719 
z
" transform="scale(0.015625)"/>
       <path id="ArialMT-74" d="M 1650 503 
L 1731 6 
Q 1494 -44 1306 -44 
Q 1000 -44 831 53 
Q 663 150 594 308 
Q 525 466 525 972 
L 525 2881 
L 113 2881 
L 113 3319 
L 525 3319 
L 525 4141 
L 1084 4478 
L 1084 3319 
L 1650 3319 
L 1650 2881 
L 1084 2881 
L 1084 941 
Q 1084 700 1114 631 
Q 1144 563 1211 522 
Q 1278 481 1403 481 
Q 1497 481 1650 503 
z
" transform="scale(0.015625)"/>
       <path id="ArialMT-68" d="M 422 0 
L 422 4581 
L 984 4581 
L 984 2938 
Q 1378 3394 1978 3394 
Q 2347 3394 2619 3248 
Q 2891 3103 3008 2847 
Q 3125 2591 3125 2103 
L 3125 0 
L 2563 0 
L 2563 2103 
Q 2563 2525 2380 2717 
Q 2197 2909 1863 2909 
Q 1613 2909 1392 2779 
Q 1172 2650 1078 2428 
Q 984 2206 984 1816 
L 984 0 
L 422 0 
z
" transform="scale(0.015625)"/>
       <path id="ArialMT-20" transform="scale(0.015625)"/>
       <path id="ArialMT-28" d="M 1497 -1347 
Q 1031 -759 709 28 
Q 388 816 388 1659 
Q 388 2403 628 3084 
Q 909 3875 1497 4659 
L 1900 4659 
Q 1522 4009 1400 3731 
Q 1209 3300 1100 2831 
Q 966 2247 966 1656 
Q 966 153 1900 -1347 
L 1497 -1347 
z
" transform="scale(0.015625)"/>
       <path id="ArialMT-6d" d="M 422 0 
L 422 3319 
L 925 3319 
L 925 2853 
Q 1081 3097 1340 3245 
Q 1600 3394 1931 3394 
Q 2300 3394 2536 3241 
Q 2772 3088 2869 2813 
Q 3263 3394 3894 3394 
Q 4388 3394 4653 3120 
Q 4919 2847 4919 2278 
L 4919 0 
L 4359 0 
L 4359 2091 
Q 4359 2428 4304 2576 
Q 4250 2725 4106 2815 
Q 3963 2906 3769 2906 
Q 3419 2906 3187 2673 
Q 2956 2441 2956 1928 
L 2956 0 
L 2394 0 
L 2394 2156 
Q 2394 2531 2256 2718 
Q 2119 2906 1806 2906 
Q 1569 2906 1367 2781 
Q 1166 2656 1075 2415 
Q 984 2175 984 1722 
L 984 0 
L 422 0 
z
" transform="scale(0.015625)"/>
       <path id="ArialMT-29" d="M 791 -1347 
L 388 -1347 
Q 1322 153 1322 1656 
Q 1322 2244 1188 2822 
Q 1081 3291 891 3722 
Q 769 4003 388 4659 
L 791 4659 
Q 1378 3875 1659 3084 
Q 1900 2403 1900 1659 
Q 1900 816 1576 28 
Q 1253 -759 791 -1347 
z
" transform="scale(0.015625)"/>
      </defs>
      <use xlink:href="#ArialMT-57"/>
      <use xlink:href="#ArialMT-61" x="90.634766"/>
      <use xlink:href="#ArialMT-76" x="146.25"/>
      <use xlink:href="#ArialMT-65" x="196.25"/>
      <use xlink:href="#ArialMT-6c" x="251.865234"/>
      <use xlink:href="#ArialMT-65" x="274.082031"/>
      <use xlink:href="#ArialMT-6e" x="329.697266"/>
      <use xlink:href="#ArialMT-67" x="385.3125"/>
      <use xlink:href="#ArialMT-74" x="440.927734"/>
      <use xlink:href="#ArialMT-68" x="468.710938"/>
      <use xlink:href="#ArialMT-20" x="524.326172"/>
      <use xlink:href="#ArialMT-28" x="552.109375"/>
      <use xlink:href="#ArialMT-6e" x="585.410156"/>
      <use xlink:href="#ArialMT-6d" x="641.025391"/>
      <use xlink:href="#ArialMT-29" x="724.326172"/>
     </g>
    </g>
   </g>
   <g id="matplotlib.axis_2">
    <g id="ytick_1">
     <g id="line2d_16">
      <defs>
       <path id="m3f0111cf67" d="M 0 0 
L 6 0 
" style="stroke: #262626; stroke-width: 1.25"/>
      </defs>
      <g>
       <use xlink:href="#m3f0111cf67" x="41.25125" y="274.614025" style="fill: #262626; stroke: #262626; stroke-width: 1.25"/>
      </g>
     </g>
     <g id="text_10">
      <!-- 0.0 -->
      <g style="fill: #262626" transform="translate(22.46125 278.550821) scale(0.11 -0.11)">
       <defs>
        <path id="ArialMT-2e" d="M 581 0 
L 581 641 
L 1222 641 
L 1222 0 
L 581 0 
z
" transform="scale(0.015625)"/>
       </defs>
       <use xlink:href="#ArialMT-30"/>
       <use xlink:href="#ArialMT-2e" x="55.615234"/>
       <use xlink:href="#ArialMT-30" x="83.398438"/>
      </g>
     </g>
    </g>
    <g id="ytick_2">
     <g id="line2d_17">
      <g>
       <use xlink:href="#m3f0111cf67" x="41.25125" y="221.918579" style="fill: #262626; stroke: #262626; stroke-width: 1.25"/>
      </g>
     </g>
     <g id="text_11">
      <!-- 0.2 -->
      <g style="fill: #262626" transform="translate(22.46125 225.855376) scale(0.11 -0.11)">
       <defs>
        <path id="ArialMT-32" d="M 3222 541 
L 3222 0 
L 194 0 
Q 188 203 259 391 
Q 375 700 629 1000 
Q 884 1300 1366 1694 
Q 2113 2306 2375 2664 
Q 2638 3022 2638 3341 
Q 2638 3675 2398 3904 
Q 2159 4134 1775 4134 
Q 1369 4134 1125 3890 
Q 881 3647 878 3216 
L 300 3275 
Q 359 3922 746 4261 
Q 1134 4600 1788 4600 
Q 2447 4600 2831 4234 
Q 3216 3869 3216 3328 
Q 3216 3053 3103 2787 
Q 2991 2522 2730 2228 
Q 2469 1934 1863 1422 
Q 1356 997 1212 845 
Q 1069 694 975 541 
L 3222 541 
z
" transform="scale(0.015625)"/>
       </defs>
       <use xlink:href="#ArialMT-30"/>
       <use xlink:href="#ArialMT-2e" x="55.615234"/>
       <use xlink:href="#ArialMT-32" x="83.398438"/>
      </g>
     </g>
    </g>
    <g id="ytick_3">
     <g id="line2d_18">
      <g>
       <use xlink:href="#m3f0111cf67" x="41.25125" y="169.223134" style="fill: #262626; stroke: #262626; stroke-width: 1.25"/>
      </g>
     </g>
     <g id="text_12">
      <!-- 0.4 -->
      <g style="fill: #262626" transform="translate(22.46125 173.15993) scale(0.11 -0.11)">
       <use xlink:href="#ArialMT-30"/>
       <use xlink:href="#ArialMT-2e" x="55.615234"/>
       <use xlink:href="#ArialMT-34" x="83.398438"/>
      </g>
     </g>
    </g>
    <g id="ytick_4">
     <g id="line2d_19">
      <g>
       <use xlink:href="#m3f0111cf67" x="41.25125" y="116.527688" style="fill: #262626; stroke: #262626; stroke-width: 1.25"/>
      </g>
     </g>
     <g id="text_13">
      <!-- 0.6 -->
      <g style="fill: #262626" transform="translate(22.46125 120.464485) scale(0.11 -0.11)">
       <use xlink:href="#ArialMT-30"/>
       <use xlink:href="#ArialMT-2e" x="55.615234"/>
       <use xlink:href="#ArialMT-36" x="83.398438"/>
      </g>
     </g>
    </g>
    <g id="ytick_5">
     <g id="line2d_20">
      <g>
       <use xlink:href="#m3f0111cf67" x="41.25125" y="63.832242" style="fill: #262626; stroke: #262626; stroke-width: 1.25"/>
      </g>
     </g>
     <g id="text_14">
      <!-- 0.8 -->
      <g style="fill: #262626" transform="translate(22.46125 67.769039) scale(0.11 -0.11)">
       <defs>
        <path id="ArialMT-38" d="M 1131 2484 
Q 781 2613 612 2850 
Q 444 3088 444 3419 
Q 444 3919 803 4259 
Q 1163 4600 1759 4600 
Q 2359 4600 2725 4251 
Q 3091 3903 3091 3403 
Q 3091 3084 2923 2848 
Q 2756 2613 2416 2484 
Q 2838 2347 3058 2040 
Q 3278 1734 3278 1309 
Q 3278 722 2862 322 
Q 2447 -78 1769 -78 
Q 1091 -78 675 323 
Q 259 725 259 1325 
Q 259 1772 486 2073 
Q 713 2375 1131 2484 
z
M 1019 3438 
Q 1019 3113 1228 2906 
Q 1438 2700 1772 2700 
Q 2097 2700 2305 2904 
Q 2513 3109 2513 3406 
Q 2513 3716 2298 3927 
Q 2084 4138 1766 4138 
Q 1444 4138 1231 3931 
Q 1019 3725 1019 3438 
z
M 838 1322 
Q 838 1081 952 856 
Q 1066 631 1291 507 
Q 1516 384 1775 384 
Q 2178 384 2440 643 
Q 2703 903 2703 1303 
Q 2703 1709 2433 1975 
Q 2163 2241 1756 2241 
Q 1359 2241 1098 1978 
Q 838 1716 838 1322 
z
" transform="scale(0.015625)"/>
       </defs>
       <use xlink:href="#ArialMT-30"/>
       <use xlink:href="#ArialMT-2e" x="55.615234"/>
       <use xlink:href="#ArialMT-38" x="83.398438"/>
      </g>
     </g>
    </g>
    <g id="ytick_6">
     <g id="line2d_21">
      <g>
       <use xlink:href="#m3f0111cf67" x="41.25125" y="11.136797" style="fill: #262626; stroke: #262626; stroke-width: 1.25"/>
      </g>
     </g>
     <g id="text_15">
      <!-- 1.0 -->
      <g style="fill: #262626" transform="translate(22.46125 15.073594) scale(0.11 -0.11)">
       <defs>
        <path id="ArialMT-31" d="M 2384 0 
L 1822 0 
L 1822 3584 
Q 1619 3391 1289 3197 
Q 959 3003 697 2906 
L 697 3450 
Q 1169 3672 1522 3987 
Q 1875 4303 2022 4600 
L 2384 4600 
L 2384 0 
z
" transform="scale(0.015625)"/>
       </defs>
       <use xlink:href="#ArialMT-31"/>
       <use xlink:href="#ArialMT-2e" x="55.615234"/>
       <use xlink:href="#ArialMT-30" x="83.398438"/>
      </g>
     </g>
    </g>
    <g id="ytick_7">
     <g id="line2d_22">
      <defs>
       <path id="m993bb667d5" d="M 0 0 
L 4 0 
" style="stroke: #262626"/>
      </defs>
      <g>
       <use xlink:href="#m993bb667d5" x="41.25125" y="248.266302" style="fill: #262626; stroke: #262626"/>
      </g>
     </g>
    </g>
    <g id="ytick_8">
     <g id="line2d_23">
      <g>
       <use xlink:href="#m993bb667d5" x="41.25125" y="195.570856" style="fill: #262626; stroke: #262626"/>
      </g>
     </g>
    </g>
    <g id="ytick_9">
     <g id="line2d_24">
      <g>
       <use xlink:href="#m993bb667d5" x="41.25125" y="142.875411" style="fill: #262626; stroke: #262626"/>
      </g>
     </g>
    </g>
    <g id="ytick_10">
     <g id="line2d_25">
      <g>
       <use xlink:href="#m993bb667d5" x="41.25125" y="90.179965" style="fill: #262626; stroke: #262626"/>
      </g>
     </g>
    </g>
    <g id="ytick_11">
     <g id="line2d_26">
      <g>
       <use xlink:href="#m993bb667d5" x="41.25125" y="37.48452" style="fill: #262626; stroke: #262626"/>
      </g>
     </g>
    </g>
    <g id="text_16">
     <!-- Absorbance (a.u.) -->
     <g style="fill: #262626" transform="translate(15.935625 189.246775) rotate(-90) scale(0.12 -0.12)">
      <defs>
       <path id="ArialMT-41" d="M -9 0 
L 1750 4581 
L 2403 4581 
L 4278 0 
L 3588 0 
L 3053 1388 
L 1138 1388 
L 634 0 
L -9 0 
z
M 1313 1881 
L 2866 1881 
L 2388 3150 
Q 2169 3728 2063 4100 
Q 1975 3659 1816 3225 
L 1313 1881 
z
" transform="scale(0.015625)"/>
       <path id="ArialMT-62" d="M 941 0 
L 419 0 
L 419 4581 
L 981 4581 
L 981 2947 
Q 1338 3394 1891 3394 
Q 2197 3394 2470 3270 
Q 2744 3147 2920 2923 
Q 3097 2700 3197 2384 
Q 3297 2069 3297 1709 
Q 3297 856 2875 390 
Q 2453 -75 1863 -75 
Q 1275 -75 941 416 
L 941 0 
z
M 934 1684 
Q 934 1088 1097 822 
Q 1363 388 1816 388 
Q 2184 388 2453 708 
Q 2722 1028 2722 1663 
Q 2722 2313 2464 2622 
Q 2206 2931 1841 2931 
Q 1472 2931 1203 2611 
Q 934 2291 934 1684 
z
" transform="scale(0.015625)"/>
       <path id="ArialMT-73" d="M 197 991 
L 753 1078 
Q 800 744 1014 566 
Q 1228 388 1613 388 
Q 2000 388 2187 545 
Q 2375 703 2375 916 
Q 2375 1106 2209 1216 
Q 2094 1291 1634 1406 
Q 1016 1563 777 1677 
Q 538 1791 414 1992 
Q 291 2194 291 2438 
Q 291 2659 392 2848 
Q 494 3038 669 3163 
Q 800 3259 1026 3326 
Q 1253 3394 1513 3394 
Q 1903 3394 2198 3281 
Q 2494 3169 2634 2976 
Q 2775 2784 2828 2463 
L 2278 2388 
Q 2241 2644 2061 2787 
Q 1881 2931 1553 2931 
Q 1166 2931 1000 2803 
Q 834 2675 834 2503 
Q 834 2394 903 2306 
Q 972 2216 1119 2156 
Q 1203 2125 1616 2013 
Q 2213 1853 2448 1751 
Q 2684 1650 2818 1456 
Q 2953 1263 2953 975 
Q 2953 694 2789 445 
Q 2625 197 2315 61 
Q 2006 -75 1616 -75 
Q 969 -75 630 194 
Q 291 463 197 991 
z
" transform="scale(0.015625)"/>
       <path id="ArialMT-6f" d="M 213 1659 
Q 213 2581 725 3025 
Q 1153 3394 1769 3394 
Q 2453 3394 2887 2945 
Q 3322 2497 3322 1706 
Q 3322 1066 3130 698 
Q 2938 331 2570 128 
Q 2203 -75 1769 -75 
Q 1072 -75 642 372 
Q 213 819 213 1659 
z
M 791 1659 
Q 791 1022 1069 705 
Q 1347 388 1769 388 
Q 2188 388 2466 706 
Q 2744 1025 2744 1678 
Q 2744 2294 2464 2611 
Q 2184 2928 1769 2928 
Q 1347 2928 1069 2612 
Q 791 2297 791 1659 
z
" transform="scale(0.015625)"/>
       <path id="ArialMT-72" d="M 416 0 
L 416 3319 
L 922 3319 
L 922 2816 
Q 1116 3169 1280 3281 
Q 1444 3394 1641 3394 
Q 1925 3394 2219 3213 
L 2025 2691 
Q 1819 2813 1613 2813 
Q 1428 2813 1281 2702 
Q 1134 2591 1072 2394 
Q 978 2094 978 1738 
L 978 0 
L 416 0 
z
" transform="scale(0.015625)"/>
       <path id="ArialMT-63" d="M 2588 1216 
L 3141 1144 
Q 3050 572 2676 248 
Q 2303 -75 1759 -75 
Q 1078 -75 664 370 
Q 250 816 250 1647 
Q 250 2184 428 2587 
Q 606 2991 970 3192 
Q 1334 3394 1763 3394 
Q 2303 3394 2647 3120 
Q 2991 2847 3088 2344 
L 2541 2259 
Q 2463 2594 2264 2762 
Q 2066 2931 1784 2931 
Q 1359 2931 1093 2626 
Q 828 2322 828 1663 
Q 828 994 1084 691 
Q 1341 388 1753 388 
Q 2084 388 2306 591 
Q 2528 794 2588 1216 
z
" transform="scale(0.015625)"/>
       <path id="ArialMT-75" d="M 2597 0 
L 2597 488 
Q 2209 -75 1544 -75 
Q 1250 -75 995 37 
Q 741 150 617 320 
Q 494 491 444 738 
Q 409 903 409 1263 
L 409 3319 
L 972 3319 
L 972 1478 
Q 972 1038 1006 884 
Q 1059 663 1231 536 
Q 1403 409 1656 409 
Q 1909 409 2131 539 
Q 2353 669 2445 892 
Q 2538 1116 2538 1541 
L 2538 3319 
L 3100 3319 
L 3100 0 
L 2597 0 
z
" transform="scale(0.015625)"/>
      </defs>
      <use xlink:href="#ArialMT-41"/>
      <use xlink:href="#ArialMT-62" x="66.699219"/>
      <use xlink:href="#ArialMT-73" x="122.314453"/>
      <use xlink:href="#ArialMT-6f" x="172.314453"/>
      <use xlink:href="#ArialMT-72" x="227.929688"/>
      <use xlink:href="#ArialMT-62" x="261.230469"/>
      <use xlink:href="#ArialMT-61" x="316.845703"/>
      <use xlink:href="#ArialMT-6e" x="372.460938"/>
      <use xlink:href="#ArialMT-63" x="428.076172"/>
      <use xlink:href="#ArialMT-65" x="478.076172"/>
      <use xlink:href="#ArialMT-20" x="533.691406"/>
      <use xlink:href="#ArialMT-28" x="561.474609"/>
      <use xlink:href="#ArialMT-61" x="594.775391"/>
      <use xlink:href="#ArialMT-2e" x="650.390625"/>
      <use xlink:href="#ArialMT-75" x="678.173828"/>
      <use xlink:href="#ArialMT-2e" x="733.789062"/>
      <use xlink:href="#ArialMT-29" x="761.572266"/>
     </g>
    </g>
   </g>
   <g id="PolyCollection_1"/>
   <g id="PolyCollection_2"/>
   <g id="PolyCollection_3"/>
   <g id="PolyCollection_4"/>
   <g id="line2d_27">
    <path d="M 41.25125 227.269118 
L 43.972154 227.857611 
L 48.053525 228.157676 
L 51.454679 228.005567 
L 57.576736 227.20352 
L 67.099946 225.2025 
L 72.541754 223.853867 
L 76.623125 222.896731 
L 87.506803 219.710436 
L 91.588175 218.300964 
L 94.989297 216.886247 
L 101.111354 213.999648 
L 104.512507 212.45096 
L 109.274097 210.630168 
L 111.995032 209.592806 
L 116.756621 207.206771 
L 118.797307 205.89365 
L 120.837993 204.37305 
L 123.558897 201.999555 
L 125.599582 199.988268 
L 129.000736 196.140038 
L 132.401889 191.787278 
L 135.803042 186.972171 
L 152.808746 161.476841 
L 156.209899 156.395064 
L 160.291271 149.771485 
L 164.372642 142.519814 
L 168.454014 134.712527 
L 173.895821 123.895134 
L 182.058564 106.933635 
L 186.820185 96.443773 
L 205.866575 52.867852 
L 210.628164 43.080734 
L 214.029318 36.686912 
L 216.750221 31.963793 
L 219.471156 27.664146 
L 222.872279 22.880267 
L 225.593214 19.574603 
L 227.633899 17.432011 
L 229.674585 15.57959 
L 231.715271 14.024707 
L 233.755956 12.826189 
L 235.116393 12.141003 
L 237.157079 11.472119 
L 238.517546 11.220455 
L 239.878014 11.136797 
L 241.23845 11.21254 
L 242.598918 11.485907 
L 243.959385 11.951466 
L 245.319821 12.622926 
L 246.680289 13.497555 
L 248.040756 14.634825 
L 250.081442 16.751426 
L 252.122128 19.375282 
L 254.162814 22.582542 
L 256.203499 26.354865 
L 258.924372 32.184535 
L 260.965058 37.05003 
L 263.685993 44.216214 
L 267.087115 53.940765 
L 272.528985 70.876195 
L 275.930107 81.992131 
L 280.011479 95.788018 
L 284.09285 110.487791 
L 288.174221 126.384276 
L 290.895156 137.799602 
L 294.296279 152.952142 
L 300.418336 181.784271 
L 304.499707 200.95162 
L 307.900892 215.876234 
L 310.621764 226.721719 
L 313.342699 236.436333 
L 315.383385 242.867589 
L 318.10432 250.032536 
L 320.145006 254.502944 
L 321.505442 257.106927 
L 323.546128 260.44666 
L 324.906564 262.316243 
L 326.94725 264.661526 
L 328.987936 266.550344 
L 331.028621 268.065778 
L 332.38912 268.873431 
L 334.429806 269.905825 
L 336.470492 270.703719 
L 339.191364 271.500031 
L 341.23205 271.976856 
L 345.993671 272.73027 
L 354.156414 273.433996 
L 360.278471 273.749577 
L 369.80165 273.992916 
L 390.888756 274.283638 
L 399.051499 274.33338 
L 399.051499 274.33338 
" clip-path="url(#pcbe4db4818)" style="fill: none; stroke: #f69c73; stroke-linecap: round"/>
   </g>
   <g id="line2d_28">
    <path d="M 41.25125 217.695321 
L 43.291936 215.486492 
L 45.332621 212.835657 
L 47.373307 209.910095 
L 50.094211 205.314603 
L 53.495364 198.959877 
L 55.53605 194.727775 
L 58.937203 186.910185 
L 63.018575 176.474481 
L 75.262689 143.625817 
L 80.024279 131.584182 
L 82.064964 126.96699 
L 84.785868 121.630832 
L 86.826554 118.394833 
L 88.86724 115.722875 
L 90.227707 114.252042 
L 91.588175 113.001919 
L 92.948611 111.91963 
L 94.989297 110.69688 
L 96.349764 110.131912 
L 98.39045 109.60286 
L 100.431136 109.590846 
L 102.471821 110.193882 
L 103.832289 110.911215 
L 105.192725 111.902261 
L 106.553193 113.143746 
L 107.91366 114.612019 
L 109.274097 116.282252 
L 111.314782 119.080757 
L 118.797307 130.316455 
L 120.837993 132.95537 
L 122.878679 135.263974 
L 124.919364 137.117886 
L 126.96005 138.499314 
L 128.320518 139.136586 
L 129.680985 139.552675 
L 131.721671 139.831571 
L 133.082107 139.750316 
L 135.122793 139.2729 
L 137.163479 138.402575 
L 139.204164 137.17114 
L 140.564632 136.165536 
L 142.605318 134.430617 
L 144.646003 132.399856 
L 146.686689 130.117196 
L 150.087842 125.765614 
L 152.808746 121.862866 
L 156.209899 116.430895 
L 159.611021 110.551049 
L 163.692393 102.915788 
L 167.773764 94.857135 
L 173.215603 83.607398 
L 190.901556 45.596558 
L 195.663146 36.259499 
L 199.744518 29.130315 
L 202.465421 24.958094 
L 204.506107 22.104514 
L 207.227042 18.875565 
L 209.267728 16.79163 
L 211.308414 15.01357 
L 214.029318 13.209912 
L 216.070003 12.194037 
L 218.110689 11.517096 
L 219.471156 11.243886 
L 221.511842 11.145796 
L 223.552528 11.470313 
L 224.912964 11.912629 
L 226.273432 12.566139 
L 227.633899 13.441192 
L 228.994336 14.57551 
L 230.354803 15.906463 
L 231.715271 17.497247 
L 233.075707 19.359043 
L 234.436175 21.445696 
L 236.47686 25.116143 
L 237.837328 27.839204 
L 239.878014 32.377905 
L 241.918699 37.510014 
L 244.639603 44.943284 
L 248.040756 55.15962 
L 253.482564 72.743582 
L 260.965058 98.23892 
L 266.406928 117.762021 
L 269.80805 130.73201 
L 273.889421 147.03905 
L 280.691728 175.719646 
L 285.453286 195.689288 
L 288.854471 209.168503 
L 291.575344 219.145754 
L 293.616029 226.041016 
L 295.656715 232.411121 
L 297.697401 238.113593 
L 299.738086 243.201411 
L 301.778772 247.712644 
L 303.81952 251.634723 
L 305.860206 255.019522 
L 308.581079 258.832876 
L 310.621764 261.189022 
L 312.66245 263.141975 
L 315.383385 265.359918 
L 318.784507 267.457275 
L 322.185692 269.01476 
L 324.906564 269.961697 
L 328.987936 270.977262 
L 331.028621 271.40451 
L 335.790242 272.09658 
L 340.551863 272.561059 
L 346.67392 272.959255 
L 352.795977 273.189835 
L 384.08645 273.691857 
L 399.051499 273.77792 
L 399.051499 273.77792 
" clip-path="url(#pcbe4db4818)" style="fill: none; stroke: #e83f3f; stroke-linecap: round"/>
   </g>
   <g id="line2d_29">
    <path d="M 41.25125 231.133064 
L 43.291936 230.792905 
L 43.972154 230.496558 
L 44.652403 230.424746 
L 46.01284 229.778024 
L 46.693089 229.337396 
L 48.733775 228.645119 
L 49.413993 228.649642 
L 50.77446 228.951506 
L 51.454679 229.468257 
L 52.134897 229.836013 
L 53.495364 231.131529 
L 54.175582 232.159649 
L 54.855832 232.985512 
L 56.896518 236.352012 
L 57.576736 237.540746 
L 58.256954 238.363385 
L 59.617421 240.297319 
L 61.658107 242.294556 
L 63.018575 242.53147 
L 65.05926 242.539344 
L 65.739479 242.271416 
L 67.099946 242.060581 
L 67.780164 241.453537 
L 71.181318 240.451298 
L 71.861536 240.317613 
L 72.541754 239.95484 
L 74.58244 239.393068 
L 75.942907 238.691176 
L 76.623125 238.53357 
L 79.34406 235.91123 
L 82.064964 231.920294 
L 88.187021 221.59571 
L 90.227707 218.911039 
L 90.907925 217.954626 
L 91.588175 217.395295 
L 92.948611 215.42678 
L 94.309079 213.471173 
L 95.669546 211.159762 
L 97.029982 208.277596 
L 98.39045 204.901686 
L 101.111354 196.383928 
L 107.233411 175.959115 
L 108.593879 172.497474 
L 109.954346 169.372026 
L 111.314782 166.52618 
L 112.67525 163.762956 
L 114.715936 158.925705 
L 116.076403 154.717568 
L 117.43684 149.653254 
L 118.797307 143.326804 
L 120.157775 135.783918 
L 122.19846 122.995205 
L 124.919364 105.567833 
L 126.279832 98.179557 
L 127.640268 92.337102 
L 128.320518 90.147052 
L 129.000736 88.492099 
L 129.680985 87.334931 
L 130.361203 86.491052 
L 131.041421 86.199027 
L 131.721671 86.18381 
L 132.401889 86.368981 
L 133.762356 87.473194 
L 135.122793 88.687981 
L 135.803042 89.063035 
L 136.48326 89.216955 
L 137.163479 89.23434 
L 137.843728 88.714475 
L 138.523946 87.759894 
L 139.204164 86.314031 
L 139.884414 84.384628 
L 141.24485 78.600013 
L 142.605318 70.674063 
L 143.965785 60.886615 
L 146.006471 44.050579 
L 148.047156 27.350418 
L 148.727375 22.482928 
L 149.407593 18.467972 
L 150.087842 15.205008 
L 150.76806 12.852981 
L 151.448279 11.464612 
L 152.128528 11.136797 
L 152.808746 11.935762 
L 153.488964 13.756019 
L 154.169214 16.640474 
L 154.849432 20.482305 
L 156.209899 30.296105 
L 157.570336 42.194217 
L 160.971489 73.181202 
L 162.331956 83.406695 
L 163.012175 87.577094 
L 163.692393 91.050985 
L 164.372642 93.876124 
L 165.05286 95.922055 
L 165.733079 97.14179 
L 166.413328 97.529078 
L 167.093546 97.216684 
L 167.773764 96.15445 
L 168.454014 94.40191 
L 169.134232 92.068054 
L 170.494699 85.818383 
L 172.535385 74.104829 
L 174.576071 62.71895 
L 175.256289 59.644266 
L 175.936507 57.136828 
L 176.616756 55.517965 
L 177.296975 54.743468 
L 177.977193 54.974182 
L 178.657442 56.365771 
L 179.33766 58.904931 
L 180.017879 62.748678 
L 180.698128 67.731077 
L 181.378346 74.010163 
L 182.738814 89.68567 
L 184.09925 108.217129 
L 188.180621 169.052228 
L 189.541089 186.966187 
L 190.901556 202.228872 
L 192.261993 214.911512 
L 193.62246 225.024337 
L 194.982928 232.976266 
L 196.343364 239.060706 
L 197.703832 243.692872 
L 199.064299 247.228507 
L 200.424736 249.812328 
L 201.785203 251.874028 
L 203.145671 253.452609 
L 204.506107 254.690435 
L 205.866575 255.735958 
L 207.227042 256.562361 
L 211.308414 258.481156 
L 216.070003 259.835505 
L 217.430471 260.113104 
L 219.471156 260.534495 
L 226.273432 261.549421 
L 227.633899 261.753437 
L 230.354803 262.116464 
L 233.075707 262.475618 
L 237.837328 263.094578 
L 245.319821 264.173317 
L 246.680289 264.391127 
L 248.720975 264.643046 
L 252.122128 265.150695 
L 254.843032 265.570555 
L 264.366242 266.942698 
L 267.767364 267.426957 
L 280.011479 269.054639 
L 292.935842 270.260656 
L 303.81952 270.761063 
L 305.179956 270.813529 
L 331.028621 271.12903 
L 336.470492 271.133367 
L 337.830928 271.14726 
L 356.197099 271.419484 
L 358.237785 271.49298 
L 360.95872 271.514328 
L 366.400528 271.66749 
L 368.441214 271.710523 
L 372.522585 271.816813 
L 382.726014 272.060232 
L 394.289879 272.390466 
L 397.010814 272.442834 
L 399.051499 272.478017 
L 399.051499 272.478017 
" clip-path="url(#pcbe4db4818)" style="fill: none; stroke: #a11a5b; stroke-linecap: round"/>
   </g>
   <g id="line2d_30">
    <path d="M 41.25125 260.664277 
L 41.931468 259.335235 
L 43.291936 257.166441 
L 43.972154 255.766462 
L 44.652403 254.912526 
L 46.01284 252.207624 
L 46.693089 250.642483 
L 48.053525 248.091014 
L 52.134897 239.162412 
L 53.495364 235.59135 
L 54.175582 234.068292 
L 56.216268 228.537092 
L 57.576736 225.301784 
L 58.256954 222.90432 
L 61.658107 214.014183 
L 63.698793 207.625256 
L 66.419697 199.588126 
L 67.099946 197.668852 
L 68.460382 192.863332 
L 69.140632 191.078504 
L 77.303375 162.647695 
L 78.663811 157.298008 
L 86.146336 128.501961 
L 86.826554 126.38916 
L 88.187021 120.656983 
L 90.907925 109.941354 
L 91.588175 107.647937 
L 92.268393 102.896786 
L 93.62886 97.642071 
L 94.989297 92.31408 
L 96.349764 87.039452 
L 97.029982 84.737538 
L 97.710232 81.764149 
L 98.39045 79.467418 
L 99.750918 74.195695 
L 102.471821 64.493256 
L 108.593879 44.734069 
L 110.634564 38.800419 
L 112.67525 33.420603 
L 115.396154 26.861067 
L 116.756621 23.995347 
L 119.477525 19.073976 
L 122.19846 15.045529 
L 122.878679 14.258122 
L 124.919364 12.564427 
L 125.599582 12.002616 
L 128.320518 11.172886 
L 129.000736 11.136797 
L 129.680985 11.338317 
L 130.361203 11.323947 
L 131.041421 11.57971 
L 131.721671 12.072877 
L 132.401889 12.371121 
L 133.762356 13.536125 
L 134.442575 14.058016 
L 135.803042 15.561012 
L 137.163479 17.429922 
L 139.204164 20.780706 
L 139.884414 21.950657 
L 141.925099 26.456881 
L 143.965785 31.612139 
L 146.006471 37.696238 
L 147.366907 42.29727 
L 150.087842 52.466587 
L 152.808746 64.026519 
L 160.291271 99.659514 
L 163.012175 112.541464 
L 173.895821 162.343029 
L 180.017879 189.108418 
L 183.419032 202.470422 
L 186.139936 211.961888 
L 187.500403 216.229046 
L 188.860871 220.193831 
L 190.901556 225.530256 
L 192.942242 230.144597 
L 194.982928 234.080317 
L 197.023614 237.394667 
L 198.38405 239.339131 
L 200.424736 241.926952 
L 202.465421 244.036745 
L 205.186356 246.321908 
L 207.227042 247.802629 
L 211.308414 250.023568 
L 212.66885 250.504115 
L 213.349099 250.825594 
L 214.029318 250.980157 
L 214.709536 251.297686 
L 215.389785 251.402338 
L 216.070003 251.718206 
L 216.750221 251.734336 
L 218.110689 252.179429 
L 222.872279 253.313048 
L 226.273432 254.039746 
L 226.95365 254.246024 
L 228.994336 254.466409 
L 229.674585 254.707261 
L 230.354803 254.783068 
L 231.035021 254.987269 
L 231.715271 255.0124 
L 232.395489 255.239471 
L 234.436175 255.579728 
L 239.197764 256.623139 
L 241.23845 257.016177 
L 253.482564 260.055856 
L 254.843032 260.468024 
L 258.244185 261.283751 
L 258.924372 261.627126 
L 260.965058 262.16148 
L 280.011479 267.552908 
L 280.691728 267.617585 
L 282.732414 268.215137 
L 284.09285 268.495145 
L 287.493972 269.297521 
L 289.534658 269.752301 
L 290.895156 270.001764 
L 292.255593 270.208615 
L 294.976528 270.797905 
L 299.738086 271.590424 
L 300.418336 271.61949 
L 302.459021 272.03536 
L 303.139271 272.052386 
L 303.81952 272.196638 
L 304.499707 272.20356 
L 307.220642 272.680873 
L 308.581079 272.762473 
L 317.424071 273.679138 
L 318.10432 273.817467 
L 318.784507 273.767063 
L 319.464756 273.837858 
L 320.145006 273.795947 
L 321.505442 273.948718 
L 323.546128 274.016967 
L 326.94725 274.238844 
L 333.069307 274.387654 
L 335.790242 274.425798 
L 337.150679 274.645584 
L 337.830928 274.554802 
L 338.511177 274.609921 
L 340.551863 274.500255 
L 341.912299 274.620687 
L 343.272736 274.570776 
L 354.836663 274.749613 
L 355.51685 274.67078 
L 356.877349 274.756107 
L 358.237785 274.806628 
L 358.918034 274.828447 
L 359.598221 274.730132 
L 360.278471 274.829616 
L 362.319156 274.710521 
L 363.679593 274.840525 
L 364.359842 274.755198 
L 366.400528 274.847019 
L 368.441214 274.841824 
L 377.284206 274.90741 
L 379.324892 274.855591 
L 381.365577 274.841304 
L 399.051499 274.754289 
L 399.051499 274.754289 
" clip-path="url(#pcbe4db4818)" style="fill: none; stroke: #4c1d4b; stroke-linecap: round"/>
   </g>
   <g id="line2d_31"/>
   <g id="line2d_32"/>
   <g id="line2d_33"/>
   <g id="line2d_34"/>
   <g id="patch_3">
    <path d="M 41.25125 274.614025 
L 41.25125 8.502025 
" style="fill: none; stroke: #262626; stroke-width: 1.25; stroke-linejoin: miter; stroke-linecap: square"/>
   </g>
   <g id="patch_4">
    <path d="M 41.25125 274.614025 
L 398.37125 274.614025 
" style="fill: none; stroke: #262626; stroke-width: 1.25; stroke-linejoin: miter; stroke-linecap: square"/>
   </g>
   <g id="legend_1">
    <g id="line2d_35">
     <path d="M 296.63525 95.930312 
L 302.63525 95.930312 
L 308.63525 95.930312 
" style="fill: none; stroke: #f69c73; stroke-width: 1.5; stroke-linecap: round"/>
    </g>
    <g id="text_17">
     <!-- caro-PPV_Abs -->
     <g style="fill: #262626" transform="translate(313.43525 98.030312) scale(0.06 -0.06)">
      <defs>
       <path id="ArialMT-2d" d="M 203 1375 
L 203 1941 
L 1931 1941 
L 1931 1375 
L 203 1375 
z
" transform="scale(0.015625)"/>
       <path id="ArialMT-50" d="M 494 0 
L 494 4581 
L 2222 4581 
Q 2678 4581 2919 4538 
Q 3256 4481 3484 4323 
Q 3713 4166 3852 3881 
Q 3991 3597 3991 3256 
Q 3991 2672 3619 2267 
Q 3247 1863 2275 1863 
L 1100 1863 
L 1100 0 
L 494 0 
z
M 1100 2403 
L 2284 2403 
Q 2872 2403 3119 2622 
Q 3366 2841 3366 3238 
Q 3366 3525 3220 3729 
Q 3075 3934 2838 4000 
Q 2684 4041 2272 4041 
L 1100 4041 
L 1100 2403 
z
" transform="scale(0.015625)"/>
       <path id="ArialMT-56" d="M 1803 0 
L 28 4581 
L 684 4581 
L 1875 1253 
Q 2019 853 2116 503 
Q 2222 878 2363 1253 
L 3600 4581 
L 4219 4581 
L 2425 0 
L 1803 0 
z
" transform="scale(0.015625)"/>
       <path id="ArialMT-5f" d="M -97 -1272 
L -97 -866 
L 3631 -866 
L 3631 -1272 
L -97 -1272 
z
" transform="scale(0.015625)"/>
      </defs>
      <use xlink:href="#ArialMT-63"/>
      <use xlink:href="#ArialMT-61" x="50"/>
      <use xlink:href="#ArialMT-72" x="105.615234"/>
      <use xlink:href="#ArialMT-6f" x="138.916016"/>
      <use xlink:href="#ArialMT-2d" x="194.53125"/>
      <use xlink:href="#ArialMT-50" x="227.832031"/>
      <use xlink:href="#ArialMT-50" x="294.53125"/>
      <use xlink:href="#ArialMT-56" x="361.230469"/>
      <use xlink:href="#ArialMT-5f" x="427.929688"/>
      <use xlink:href="#ArialMT-41" x="483.544922"/>
      <use xlink:href="#ArialMT-62" x="550.244141"/>
      <use xlink:href="#ArialMT-73" x="605.859375"/>
     </g>
    </g>
    <g id="line2d_36">
     <path d="M 296.63525 104.490625 
L 302.63525 104.490625 
L 308.63525 104.490625 
" style="fill: none; stroke: #e83f3f; stroke-width: 1.5; stroke-linecap: round"/>
    </g>
    <g id="text_18">
     <!-- p(CP-hexyl)_Abs -->
     <g style="fill: #262626" transform="translate(313.43525 106.590625) scale(0.06 -0.06)">
      <defs>
       <path id="ArialMT-70" d="M 422 -1272 
L 422 3319 
L 934 3319 
L 934 2888 
Q 1116 3141 1344 3267 
Q 1572 3394 1897 3394 
Q 2322 3394 2647 3175 
Q 2972 2956 3137 2557 
Q 3303 2159 3303 1684 
Q 3303 1175 3120 767 
Q 2938 359 2589 142 
Q 2241 -75 1856 -75 
Q 1575 -75 1351 44 
Q 1128 163 984 344 
L 984 -1272 
L 422 -1272 
z
M 931 1641 
Q 931 1000 1190 694 
Q 1450 388 1819 388 
Q 2194 388 2461 705 
Q 2728 1022 2728 1688 
Q 2728 2322 2467 2637 
Q 2206 2953 1844 2953 
Q 1484 2953 1207 2617 
Q 931 2281 931 1641 
z
" transform="scale(0.015625)"/>
       <path id="ArialMT-43" d="M 3763 1606 
L 4369 1453 
Q 4178 706 3683 314 
Q 3188 -78 2472 -78 
Q 1731 -78 1267 223 
Q 803 525 561 1097 
Q 319 1669 319 2325 
Q 319 3041 592 3573 
Q 866 4106 1370 4382 
Q 1875 4659 2481 4659 
Q 3169 4659 3637 4309 
Q 4106 3959 4291 3325 
L 3694 3184 
Q 3534 3684 3231 3912 
Q 2928 4141 2469 4141 
Q 1941 4141 1586 3887 
Q 1231 3634 1087 3207 
Q 944 2781 944 2328 
Q 944 1744 1114 1308 
Q 1284 872 1643 656 
Q 2003 441 2422 441 
Q 2931 441 3284 734 
Q 3638 1028 3763 1606 
z
" transform="scale(0.015625)"/>
       <path id="ArialMT-78" d="M 47 0 
L 1259 1725 
L 138 3319 
L 841 3319 
L 1350 2541 
Q 1494 2319 1581 2169 
Q 1719 2375 1834 2534 
L 2394 3319 
L 3066 3319 
L 1919 1756 
L 3153 0 
L 2463 0 
L 1781 1031 
L 1600 1309 
L 728 0 
L 47 0 
z
" transform="scale(0.015625)"/>
       <path id="ArialMT-79" d="M 397 -1278 
L 334 -750 
Q 519 -800 656 -800 
Q 844 -800 956 -737 
Q 1069 -675 1141 -563 
Q 1194 -478 1313 -144 
Q 1328 -97 1363 -6 
L 103 3319 
L 709 3319 
L 1400 1397 
Q 1534 1031 1641 628 
Q 1738 1016 1872 1384 
L 2581 3319 
L 3144 3319 
L 1881 -56 
Q 1678 -603 1566 -809 
Q 1416 -1088 1222 -1217 
Q 1028 -1347 759 -1347 
Q 597 -1347 397 -1278 
z
" transform="scale(0.015625)"/>
      </defs>
      <use xlink:href="#ArialMT-70"/>
      <use xlink:href="#ArialMT-28" x="55.615234"/>
      <use xlink:href="#ArialMT-43" x="88.916016"/>
      <use xlink:href="#ArialMT-50" x="161.132812"/>
      <use xlink:href="#ArialMT-2d" x="227.832031"/>
      <use xlink:href="#ArialMT-68" x="261.132812"/>
      <use xlink:href="#ArialMT-65" x="316.748047"/>
      <use xlink:href="#ArialMT-78" x="372.363281"/>
      <use xlink:href="#ArialMT-79" x="422.363281"/>
      <use xlink:href="#ArialMT-6c" x="472.363281"/>
      <use xlink:href="#ArialMT-29" x="494.580078"/>
      <use xlink:href="#ArialMT-5f" x="527.880859"/>
      <use xlink:href="#ArialMT-41" x="583.496094"/>
      <use xlink:href="#ArialMT-62" x="650.195312"/>
      <use xlink:href="#ArialMT-73" x="705.810547"/>
     </g>
    </g>
    <g id="line2d_37">
     <path d="M 296.63525 113.048125 
L 302.63525 113.048125 
L 308.63525 113.048125 
" style="fill: none; stroke: #a11a5b; stroke-width: 1.5; stroke-linecap: round"/>
    </g>
    <g id="text_19">
     <!-- non-imine_Abs -->
     <g style="fill: #262626" transform="translate(313.43525 115.148125) scale(0.06 -0.06)">
      <defs>
       <path id="ArialMT-69" d="M 425 3934 
L 425 4581 
L 988 4581 
L 988 3934 
L 425 3934 
z
M 425 0 
L 425 3319 
L 988 3319 
L 988 0 
L 425 0 
z
" transform="scale(0.015625)"/>
      </defs>
      <use xlink:href="#ArialMT-6e"/>
      <use xlink:href="#ArialMT-6f" x="55.615234"/>
      <use xlink:href="#ArialMT-6e" x="111.230469"/>
      <use xlink:href="#ArialMT-2d" x="166.845703"/>
      <use xlink:href="#ArialMT-69" x="200.146484"/>
      <use xlink:href="#ArialMT-6d" x="222.363281"/>
      <use xlink:href="#ArialMT-69" x="305.664062"/>
      <use xlink:href="#ArialMT-6e" x="327.880859"/>
      <use xlink:href="#ArialMT-65" x="383.496094"/>
      <use xlink:href="#ArialMT-5f" x="439.111328"/>
      <use xlink:href="#ArialMT-41" x="494.726562"/>
      <use xlink:href="#ArialMT-62" x="561.425781"/>
      <use xlink:href="#ArialMT-73" x="617.041016"/>
     </g>
    </g>
    <g id="line2d_38">
     <path d="M 296.63525 121.535312 
L 302.63525 121.535312 
L 308.63525 121.535312 
" style="fill: none; stroke: #4c1d4b; stroke-width: 1.5; stroke-linecap: round"/>
    </g>
    <g id="text_20">
     <!-- imine_Abs -->
     <g style="fill: #262626" transform="translate(313.43525 123.635312) scale(0.06 -0.06)">
      <use xlink:href="#ArialMT-69"/>
      <use xlink:href="#ArialMT-6d" x="22.216797"/>
      <use xlink:href="#ArialMT-69" x="105.517578"/>
      <use xlink:href="#ArialMT-6e" x="127.734375"/>
      <use xlink:href="#ArialMT-65" x="183.349609"/>
      <use xlink:href="#ArialMT-5f" x="238.964844"/>
      <use xlink:href="#ArialMT-41" x="294.580078"/>
      <use xlink:href="#ArialMT-62" x="361.279297"/>
      <use xlink:href="#ArialMT-73" x="416.894531"/>
     </g>
    </g>
   </g>
  </g>
 </g>
 <defs>
  <clipPath id="pcbe4db4818">
   <rect x="41.25125" y="8.502025" width="357.12" height="266.112"/>
  </clipPath>
 </defs>
</svg>
