<?xml version="1.0" encoding="utf-8" standalone="no"?>
<!DOCTYPE svg PUBLIC "-//W3C//DTD SVG 1.1//EN"
  "http://www.w3.org/Graphics/SVG/1.1/DTD/svg11.dtd">
<svg xmlns:xlink="http://www.w3.org/1999/xlink" width="420.863828pt" height="313.269891pt" viewBox="0 0 420.863828 313.269891" xmlns="http://www.w3.org/2000/svg" version="1.1">
 <metadata>
  <rdf:RDF xmlns:dc="http://purl.org/dc/elements/1.1/" xmlns:cc="http://creativecommons.org/ns#" xmlns:rdf="http://www.w3.org/1999/02/22-rdf-syntax-ns#">
   <cc:Work>
    <dc:type rdf:resource="http://purl.org/dc/dcmitype/StillImage"/>
    <dc:date>2024-02-09T05:48:30.387773</dc:date>
    <dc:format>image/svg+xml</dc:format>
    <dc:creator>
     <cc:Agent>
      <dc:title>Matplotlib v3.7.1, https://matplotlib.org/</dc:title>
     </cc:Agent>
    </dc:creator>
   </cc:Work>
  </rdf:RDF>
 </metadata>
 <defs>
  <style type="text/css">*{stroke-linejoin: round; stroke-linecap: butt}</style>
 </defs>
 <g id="figure_1">
  <g id="patch_1">
   <path d="M 0 313.269891 
L 420.863828 313.269891 
L 420.863828 0 
L 0 0 
z
" style="fill: #ffffff"/>
  </g>
  <g id="axes_1">
   <g id="patch_2">
    <path d="M 47.368281 277.248797 
L 404.488281 277.248797 
L 404.488281 11.136797 
L 47.368281 11.136797 
z
" style="fill: #ffffff"/>
   </g>
   <g id="matplotlib.axis_1">
    <g id="xtick_1">
     <g id="line2d_1">
      <defs>
       <path id="mb49b78180a" d="M 0 0 
L 0 -6 
" style="stroke: #262626; stroke-width: 1.25"/>
      </defs>
      <g>
       <use xlink:href="#mb49b78180a" x="47.368281" y="277.248797" style="fill: #262626; stroke: #262626; stroke-width: 1.25"/>
      </g>
     </g>
     <g id="text_1">
      <!-- 250 -->
      <g style="fill: #262626" transform="translate(38.192734 288.622391) scale(0.11 -0.11)">
       <defs>
        <path id="ArialMT-32" d="M 3222 541 
L 3222 0 
L 194 0 
Q 188 203 259 391 
Q 375 700 629 1000 
Q 884 1300 1366 1694 
Q 2113 2306 2375 2664 
Q 2638 3022 2638 3341 
Q 2638 3675 2398 3904 
Q 2159 4134 1775 4134 
Q 1369 4134 1125 3890 
Q 881 3647 878 3216 
L 300 3275 
Q 359 3922 746 4261 
Q 1134 4600 1788 4600 
Q 2447 4600 2831 4234 
Q 3216 3869 3216 3328 
Q 3216 3053 3103 2787 
Q 2991 2522 2730 2228 
Q 2469 1934 1863 1422 
Q 1356 997 1212 845 
Q 1069 694 975 541 
L 3222 541 
z
" transform="scale(0.015625)"/>
        <path id="ArialMT-35" d="M 266 1200 
L 856 1250 
Q 922 819 1161 601 
Q 1400 384 1738 384 
Q 2144 384 2425 690 
Q 2706 997 2706 1503 
Q 2706 1984 2436 2262 
Q 2166 2541 1728 2541 
Q 1456 2541 1237 2417 
Q 1019 2294 894 2097 
L 366 2166 
L 809 4519 
L 3088 4519 
L 3088 3981 
L 1259 3981 
L 1013 2750 
Q 1425 3038 1878 3038 
Q 2478 3038 2890 2622 
Q 3303 2206 3303 1553 
Q 3303 931 2941 478 
Q 2500 -78 1738 -78 
Q 1113 -78 717 272 
Q 322 622 266 1200 
z
" transform="scale(0.015625)"/>
        <path id="ArialMT-30" d="M 266 2259 
Q 266 3072 433 3567 
Q 600 4063 929 4331 
Q 1259 4600 1759 4600 
Q 2128 4600 2406 4451 
Q 2684 4303 2865 4023 
Q 3047 3744 3150 3342 
Q 3253 2941 3253 2259 
Q 3253 1453 3087 958 
Q 2922 463 2592 192 
Q 2263 -78 1759 -78 
Q 1097 -78 719 397 
Q 266 969 266 2259 
z
M 844 2259 
Q 844 1131 1108 757 
Q 1372 384 1759 384 
Q 2147 384 2411 759 
Q 2675 1134 2675 2259 
Q 2675 3391 2411 3762 
Q 2147 4134 1753 4134 
Q 1366 4134 1134 3806 
Q 844 3388 844 2259 
z
" transform="scale(0.015625)"/>
       </defs>
       <use xlink:href="#ArialMT-32"/>
       <use xlink:href="#ArialMT-35" x="55.615234"/>
       <use xlink:href="#ArialMT-30" x="111.230469"/>
      </g>
     </g>
    </g>
    <g id="xtick_2">
     <g id="line2d_2">
      <g>
       <use xlink:href="#mb49b78180a" x="87.048281" y="277.248797" style="fill: #262626; stroke: #262626; stroke-width: 1.25"/>
      </g>
     </g>
     <g id="text_2">
      <!-- 300 -->
      <g style="fill: #262626" transform="translate(77.872734 288.622391) scale(0.11 -0.11)">
       <defs>
        <path id="ArialMT-33" d="M 269 1209 
L 831 1284 
Q 928 806 1161 595 
Q 1394 384 1728 384 
Q 2125 384 2398 659 
Q 2672 934 2672 1341 
Q 2672 1728 2419 1979 
Q 2166 2231 1775 2231 
Q 1616 2231 1378 2169 
L 1441 2663 
Q 1497 2656 1531 2656 
Q 1891 2656 2178 2843 
Q 2466 3031 2466 3422 
Q 2466 3731 2256 3934 
Q 2047 4138 1716 4138 
Q 1388 4138 1169 3931 
Q 950 3725 888 3313 
L 325 3413 
Q 428 3978 793 4289 
Q 1159 4600 1703 4600 
Q 2078 4600 2393 4439 
Q 2709 4278 2876 4000 
Q 3044 3722 3044 3409 
Q 3044 3113 2884 2869 
Q 2725 2625 2413 2481 
Q 2819 2388 3044 2092 
Q 3269 1797 3269 1353 
Q 3269 753 2831 336 
Q 2394 -81 1725 -81 
Q 1122 -81 723 278 
Q 325 638 269 1209 
z
" transform="scale(0.015625)"/>
       </defs>
       <use xlink:href="#ArialMT-33"/>
       <use xlink:href="#ArialMT-30" x="55.615234"/>
       <use xlink:href="#ArialMT-30" x="111.230469"/>
      </g>
     </g>
    </g>
    <g id="xtick_3">
     <g id="line2d_3">
      <g>
       <use xlink:href="#mb49b78180a" x="126.728281" y="277.248797" style="fill: #262626; stroke: #262626; stroke-width: 1.25"/>
      </g>
     </g>
     <g id="text_3">
      <!-- 350 -->
      <g style="fill: #262626" transform="translate(117.552734 288.622391) scale(0.11 -0.11)">
       <use xlink:href="#ArialMT-33"/>
       <use xlink:href="#ArialMT-35" x="55.615234"/>
       <use xlink:href="#ArialMT-30" x="111.230469"/>
      </g>
     </g>
    </g>
    <g id="xtick_4">
     <g id="line2d_4">
      <g>
       <use xlink:href="#mb49b78180a" x="166.408281" y="277.248797" style="fill: #262626; stroke: #262626; stroke-width: 1.25"/>
      </g>
     </g>
     <g id="text_4">
      <!-- 400 -->
      <g style="fill: #262626" transform="translate(157.232734 288.622391) scale(0.11 -0.11)">
       <defs>
        <path id="ArialMT-34" d="M 2069 0 
L 2069 1097 
L 81 1097 
L 81 1613 
L 2172 4581 
L 2631 4581 
L 2631 1613 
L 3250 1613 
L 3250 1097 
L 2631 1097 
L 2631 0 
L 2069 0 
z
M 2069 1613 
L 2069 3678 
L 634 1613 
L 2069 1613 
z
" transform="scale(0.015625)"/>
       </defs>
       <use xlink:href="#ArialMT-34"/>
       <use xlink:href="#ArialMT-30" x="55.615234"/>
       <use xlink:href="#ArialMT-30" x="111.230469"/>
      </g>
     </g>
    </g>
    <g id="xtick_5">
     <g id="line2d_5">
      <g>
       <use xlink:href="#mb49b78180a" x="206.088281" y="277.248797" style="fill: #262626; stroke: #262626; stroke-width: 1.25"/>
      </g>
     </g>
     <g id="text_5">
      <!-- 450 -->
      <g style="fill: #262626" transform="translate(196.912734 288.622391) scale(0.11 -0.11)">
       <use xlink:href="#ArialMT-34"/>
       <use xlink:href="#ArialMT-35" x="55.615234"/>
       <use xlink:href="#ArialMT-30" x="111.230469"/>
      </g>
     </g>
    </g>
    <g id="xtick_6">
     <g id="line2d_6">
      <g>
       <use xlink:href="#mb49b78180a" x="245.768281" y="277.248797" style="fill: #262626; stroke: #262626; stroke-width: 1.25"/>
      </g>
     </g>
     <g id="text_6">
      <!-- 500 -->
      <g style="fill: #262626" transform="translate(236.592734 288.622391) scale(0.11 -0.11)">
       <use xlink:href="#ArialMT-35"/>
       <use xlink:href="#ArialMT-30" x="55.615234"/>
       <use xlink:href="#ArialMT-30" x="111.230469"/>
      </g>
     </g>
    </g>
    <g id="xtick_7">
     <g id="line2d_7">
      <g>
       <use xlink:href="#mb49b78180a" x="285.448281" y="277.248797" style="fill: #262626; stroke: #262626; stroke-width: 1.25"/>
      </g>
     </g>
     <g id="text_7">
      <!-- 550 -->
      <g style="fill: #262626" transform="translate(276.272734 288.622391) scale(0.11 -0.11)">
       <use xlink:href="#ArialMT-35"/>
       <use xlink:href="#ArialMT-35" x="55.615234"/>
       <use xlink:href="#ArialMT-30" x="111.230469"/>
      </g>
     </g>
    </g>
    <g id="xtick_8">
     <g id="line2d_8">
      <g>
       <use xlink:href="#mb49b78180a" x="325.128281" y="277.248797" style="fill: #262626; stroke: #262626; stroke-width: 1.25"/>
      </g>
     </g>
     <g id="text_8">
      <!-- 600 -->
      <g style="fill: #262626" transform="translate(315.952734 288.622391) scale(0.11 -0.11)">
       <defs>
        <path id="ArialMT-36" d="M 3184 3459 
L 2625 3416 
Q 2550 3747 2413 3897 
Q 2184 4138 1850 4138 
Q 1581 4138 1378 3988 
Q 1113 3794 959 3422 
Q 806 3050 800 2363 
Q 1003 2672 1297 2822 
Q 1591 2972 1913 2972 
Q 2475 2972 2870 2558 
Q 3266 2144 3266 1488 
Q 3266 1056 3080 686 
Q 2894 316 2569 119 
Q 2244 -78 1831 -78 
Q 1128 -78 684 439 
Q 241 956 241 2144 
Q 241 3472 731 4075 
Q 1159 4600 1884 4600 
Q 2425 4600 2770 4297 
Q 3116 3994 3184 3459 
z
M 888 1484 
Q 888 1194 1011 928 
Q 1134 663 1356 523 
Q 1578 384 1822 384 
Q 2178 384 2434 671 
Q 2691 959 2691 1453 
Q 2691 1928 2437 2201 
Q 2184 2475 1800 2475 
Q 1419 2475 1153 2201 
Q 888 1928 888 1484 
z
" transform="scale(0.015625)"/>
       </defs>
       <use xlink:href="#ArialMT-36"/>
       <use xlink:href="#ArialMT-30" x="55.615234"/>
       <use xlink:href="#ArialMT-30" x="111.230469"/>
      </g>
     </g>
    </g>
    <g id="xtick_9">
     <g id="line2d_9">
      <g>
       <use xlink:href="#mb49b78180a" x="364.808281" y="277.248797" style="fill: #262626; stroke: #262626; stroke-width: 1.25"/>
      </g>
     </g>
     <g id="text_9">
      <!-- 650 -->
      <g style="fill: #262626" transform="translate(355.632734 288.622391) scale(0.11 -0.11)">
       <use xlink:href="#ArialMT-36"/>
       <use xlink:href="#ArialMT-35" x="55.615234"/>
       <use xlink:href="#ArialMT-30" x="111.230469"/>
      </g>
     </g>
    </g>
    <g id="xtick_10">
     <g id="line2d_10">
      <g>
       <use xlink:href="#mb49b78180a" x="404.488281" y="277.248797" style="fill: #262626; stroke: #262626; stroke-width: 1.25"/>
      </g>
     </g>
     <g id="text_10">
      <!-- 700 -->
      <g style="fill: #262626" transform="translate(395.312734 288.622391) scale(0.11 -0.11)">
       <defs>
        <path id="ArialMT-37" d="M 303 3981 
L 303 4522 
L 3269 4522 
L 3269 4084 
Q 2831 3619 2401 2847 
Q 1972 2075 1738 1259 
Q 1569 684 1522 0 
L 944 0 
Q 953 541 1156 1306 
Q 1359 2072 1739 2783 
Q 2119 3494 2547 3981 
L 303 3981 
z
" transform="scale(0.015625)"/>
       </defs>
       <use xlink:href="#ArialMT-37"/>
       <use xlink:href="#ArialMT-30" x="55.615234"/>
       <use xlink:href="#ArialMT-30" x="111.230469"/>
      </g>
     </g>
    </g>
    <g id="xtick_11">
     <g id="line2d_11">
      <defs>
       <path id="m51b2b1387d" d="M 0 0 
L 0 -4 
" style="stroke: #262626"/>
      </defs>
      <g>
       <use xlink:href="#m51b2b1387d" x="67.208281" y="277.248797" style="fill: #262626; stroke: #262626"/>
      </g>
     </g>
    </g>
    <g id="xtick_12">
     <g id="line2d_12">
      <g>
       <use xlink:href="#m51b2b1387d" x="106.888281" y="277.248797" style="fill: #262626; stroke: #262626"/>
      </g>
     </g>
    </g>
    <g id="xtick_13">
     <g id="line2d_13">
      <g>
       <use xlink:href="#m51b2b1387d" x="146.568281" y="277.248797" style="fill: #262626; stroke: #262626"/>
      </g>
     </g>
    </g>
    <g id="xtick_14">
     <g id="line2d_14">
      <g>
       <use xlink:href="#m51b2b1387d" x="186.248281" y="277.248797" style="fill: #262626; stroke: #262626"/>
      </g>
     </g>
    </g>
    <g id="xtick_15">
     <g id="line2d_15">
      <g>
       <use xlink:href="#m51b2b1387d" x="225.928281" y="277.248797" style="fill: #262626; stroke: #262626"/>
      </g>
     </g>
    </g>
    <g id="xtick_16">
     <g id="line2d_16">
      <g>
       <use xlink:href="#m51b2b1387d" x="265.608281" y="277.248797" style="fill: #262626; stroke: #262626"/>
      </g>
     </g>
    </g>
    <g id="xtick_17">
     <g id="line2d_17">
      <g>
       <use xlink:href="#m51b2b1387d" x="305.288281" y="277.248797" style="fill: #262626; stroke: #262626"/>
      </g>
     </g>
    </g>
    <g id="xtick_18">
     <g id="line2d_18">
      <g>
       <use xlink:href="#m51b2b1387d" x="344.968281" y="277.248797" style="fill: #262626; stroke: #262626"/>
      </g>
     </g>
    </g>
    <g id="xtick_19">
     <g id="line2d_19">
      <g>
       <use xlink:href="#m51b2b1387d" x="384.648281" y="277.248797" style="fill: #262626; stroke: #262626"/>
      </g>
     </g>
    </g>
    <g id="text_11">
     <!-- Wavelength (nm) -->
     <g style="fill: #262626" transform="translate(180.473594 303.544266) scale(0.12 -0.12)">
      <defs>
       <path id="ArialMT-57" d="M 1294 0 
L 78 4581 
L 700 4581 
L 1397 1578 
Q 1509 1106 1591 641 
Q 1766 1375 1797 1488 
L 2669 4581 
L 3400 4581 
L 4056 2263 
Q 4303 1400 4413 641 
Q 4500 1075 4641 1638 
L 5359 4581 
L 5969 4581 
L 4713 0 
L 4128 0 
L 3163 3491 
Q 3041 3928 3019 4028 
Q 2947 3713 2884 3491 
L 1913 0 
L 1294 0 
z
" transform="scale(0.015625)"/>
       <path id="ArialMT-61" d="M 2588 409 
Q 2275 144 1986 34 
Q 1697 -75 1366 -75 
Q 819 -75 525 192 
Q 231 459 231 875 
Q 231 1119 342 1320 
Q 453 1522 633 1644 
Q 813 1766 1038 1828 
Q 1203 1872 1538 1913 
Q 2219 1994 2541 2106 
Q 2544 2222 2544 2253 
Q 2544 2597 2384 2738 
Q 2169 2928 1744 2928 
Q 1347 2928 1158 2789 
Q 969 2650 878 2297 
L 328 2372 
Q 403 2725 575 2942 
Q 747 3159 1072 3276 
Q 1397 3394 1825 3394 
Q 2250 3394 2515 3294 
Q 2781 3194 2906 3042 
Q 3031 2891 3081 2659 
Q 3109 2516 3109 2141 
L 3109 1391 
Q 3109 606 3145 398 
Q 3181 191 3288 0 
L 2700 0 
Q 2613 175 2588 409 
z
M 2541 1666 
Q 2234 1541 1622 1453 
Q 1275 1403 1131 1340 
Q 988 1278 909 1158 
Q 831 1038 831 891 
Q 831 666 1001 516 
Q 1172 366 1500 366 
Q 1825 366 2078 508 
Q 2331 650 2450 897 
Q 2541 1088 2541 1459 
L 2541 1666 
z
" transform="scale(0.015625)"/>
       <path id="ArialMT-76" d="M 1344 0 
L 81 3319 
L 675 3319 
L 1388 1331 
Q 1503 1009 1600 663 
Q 1675 925 1809 1294 
L 2547 3319 
L 3125 3319 
L 1869 0 
L 1344 0 
z
" transform="scale(0.015625)"/>
       <path id="ArialMT-65" d="M 2694 1069 
L 3275 997 
Q 3138 488 2766 206 
Q 2394 -75 1816 -75 
Q 1088 -75 661 373 
Q 234 822 234 1631 
Q 234 2469 665 2931 
Q 1097 3394 1784 3394 
Q 2450 3394 2872 2941 
Q 3294 2488 3294 1666 
Q 3294 1616 3291 1516 
L 816 1516 
Q 847 969 1125 678 
Q 1403 388 1819 388 
Q 2128 388 2347 550 
Q 2566 713 2694 1069 
z
M 847 1978 
L 2700 1978 
Q 2663 2397 2488 2606 
Q 2219 2931 1791 2931 
Q 1403 2931 1139 2672 
Q 875 2413 847 1978 
z
" transform="scale(0.015625)"/>
       <path id="ArialMT-6c" d="M 409 0 
L 409 4581 
L 972 4581 
L 972 0 
L 409 0 
z
" transform="scale(0.015625)"/>
       <path id="ArialMT-6e" d="M 422 0 
L 422 3319 
L 928 3319 
L 928 2847 
Q 1294 3394 1984 3394 
Q 2284 3394 2536 3286 
Q 2788 3178 2913 3003 
Q 3038 2828 3088 2588 
Q 3119 2431 3119 2041 
L 3119 0 
L 2556 0 
L 2556 2019 
Q 2556 2363 2490 2533 
Q 2425 2703 2258 2804 
Q 2091 2906 1866 2906 
Q 1506 2906 1245 2678 
Q 984 2450 984 1813 
L 984 0 
L 422 0 
z
" transform="scale(0.015625)"/>
       <path id="ArialMT-67" d="M 319 -275 
L 866 -356 
Q 900 -609 1056 -725 
Q 1266 -881 1628 -881 
Q 2019 -881 2231 -725 
Q 2444 -569 2519 -288 
Q 2563 -116 2559 434 
Q 2191 0 1641 0 
Q 956 0 581 494 
Q 206 988 206 1678 
Q 206 2153 378 2554 
Q 550 2956 876 3175 
Q 1203 3394 1644 3394 
Q 2231 3394 2613 2919 
L 2613 3319 
L 3131 3319 
L 3131 450 
Q 3131 -325 2973 -648 
Q 2816 -972 2473 -1159 
Q 2131 -1347 1631 -1347 
Q 1038 -1347 672 -1080 
Q 306 -813 319 -275 
z
M 784 1719 
Q 784 1066 1043 766 
Q 1303 466 1694 466 
Q 2081 466 2343 764 
Q 2606 1063 2606 1700 
Q 2606 2309 2336 2618 
Q 2066 2928 1684 2928 
Q 1309 2928 1046 2623 
Q 784 2319 784 1719 
z
" transform="scale(0.015625)"/>
       <path id="ArialMT-74" d="M 1650 503 
L 1731 6 
Q 1494 -44 1306 -44 
Q 1000 -44 831 53 
Q 663 150 594 308 
Q 525 466 525 972 
L 525 2881 
L 113 2881 
L 113 3319 
L 525 3319 
L 525 4141 
L 1084 4478 
L 1084 3319 
L 1650 3319 
L 1650 2881 
L 1084 2881 
L 1084 941 
Q 1084 700 1114 631 
Q 1144 563 1211 522 
Q 1278 481 1403 481 
Q 1497 481 1650 503 
z
" transform="scale(0.015625)"/>
       <path id="ArialMT-68" d="M 422 0 
L 422 4581 
L 984 4581 
L 984 2938 
Q 1378 3394 1978 3394 
Q 2347 3394 2619 3248 
Q 2891 3103 3008 2847 
Q 3125 2591 3125 2103 
L 3125 0 
L 2563 0 
L 2563 2103 
Q 2563 2525 2380 2717 
Q 2197 2909 1863 2909 
Q 1613 2909 1392 2779 
Q 1172 2650 1078 2428 
Q 984 2206 984 1816 
L 984 0 
L 422 0 
z
" transform="scale(0.015625)"/>
       <path id="ArialMT-20" transform="scale(0.015625)"/>
       <path id="ArialMT-28" d="M 1497 -1347 
Q 1031 -759 709 28 
Q 388 816 388 1659 
Q 388 2403 628 3084 
Q 909 3875 1497 4659 
L 1900 4659 
Q 1522 4009 1400 3731 
Q 1209 3300 1100 2831 
Q 966 2247 966 1656 
Q 966 153 1900 -1347 
L 1497 -1347 
z
" transform="scale(0.015625)"/>
       <path id="ArialMT-6d" d="M 422 0 
L 422 3319 
L 925 3319 
L 925 2853 
Q 1081 3097 1340 3245 
Q 1600 3394 1931 3394 
Q 2300 3394 2536 3241 
Q 2772 3088 2869 2813 
Q 3263 3394 3894 3394 
Q 4388 3394 4653 3120 
Q 4919 2847 4919 2278 
L 4919 0 
L 4359 0 
L 4359 2091 
Q 4359 2428 4304 2576 
Q 4250 2725 4106 2815 
Q 3963 2906 3769 2906 
Q 3419 2906 3187 2673 
Q 2956 2441 2956 1928 
L 2956 0 
L 2394 0 
L 2394 2156 
Q 2394 2531 2256 2718 
Q 2119 2906 1806 2906 
Q 1569 2906 1367 2781 
Q 1166 2656 1075 2415 
Q 984 2175 984 1722 
L 984 0 
L 422 0 
z
" transform="scale(0.015625)"/>
       <path id="ArialMT-29" d="M 791 -1347 
L 388 -1347 
Q 1322 153 1322 1656 
Q 1322 2244 1188 2822 
Q 1081 3291 891 3722 
Q 769 4003 388 4659 
L 791 4659 
Q 1378 3875 1659 3084 
Q 1900 2403 1900 1659 
Q 1900 816 1576 28 
Q 1253 -759 791 -1347 
z
" transform="scale(0.015625)"/>
      </defs>
      <use xlink:href="#ArialMT-57"/>
      <use xlink:href="#ArialMT-61" x="90.634766"/>
      <use xlink:href="#ArialMT-76" x="146.25"/>
      <use xlink:href="#ArialMT-65" x="196.25"/>
      <use xlink:href="#ArialMT-6c" x="251.865234"/>
      <use xlink:href="#ArialMT-65" x="274.082031"/>
      <use xlink:href="#ArialMT-6e" x="329.697266"/>
      <use xlink:href="#ArialMT-67" x="385.3125"/>
      <use xlink:href="#ArialMT-74" x="440.927734"/>
      <use xlink:href="#ArialMT-68" x="468.710938"/>
      <use xlink:href="#ArialMT-20" x="524.326172"/>
      <use xlink:href="#ArialMT-28" x="552.109375"/>
      <use xlink:href="#ArialMT-6e" x="585.410156"/>
      <use xlink:href="#ArialMT-6d" x="641.025391"/>
      <use xlink:href="#ArialMT-29" x="724.326172"/>
     </g>
    </g>
   </g>
   <g id="matplotlib.axis_2">
    <g id="ytick_1">
     <g id="line2d_20">
      <defs>
       <path id="m7ae345f6ff" d="M 0 0 
L 6 0 
" style="stroke: #262626; stroke-width: 1.25"/>
      </defs>
      <g>
       <use xlink:href="#m7ae345f6ff" x="47.368281" y="269.856797" style="fill: #262626; stroke: #262626; stroke-width: 1.25"/>
      </g>
     </g>
     <g id="text_12">
      <!-- 0.00 -->
      <g style="fill: #262626" transform="translate(22.46125 273.793594) scale(0.11 -0.11)">
       <defs>
        <path id="ArialMT-2e" d="M 581 0 
L 581 641 
L 1222 641 
L 1222 0 
L 581 0 
z
" transform="scale(0.015625)"/>
       </defs>
       <use xlink:href="#ArialMT-30"/>
       <use xlink:href="#ArialMT-2e" x="55.615234"/>
       <use xlink:href="#ArialMT-30" x="83.398438"/>
       <use xlink:href="#ArialMT-30" x="139.013672"/>
      </g>
     </g>
    </g>
    <g id="ytick_2">
     <g id="line2d_21">
      <g>
       <use xlink:href="#m7ae345f6ff" x="47.368281" y="232.896797" style="fill: #262626; stroke: #262626; stroke-width: 1.25"/>
      </g>
     </g>
     <g id="text_13">
      <!-- 0.05 -->
      <g style="fill: #262626" transform="translate(22.46125 236.833594) scale(0.11 -0.11)">
       <use xlink:href="#ArialMT-30"/>
       <use xlink:href="#ArialMT-2e" x="55.615234"/>
       <use xlink:href="#ArialMT-30" x="83.398438"/>
       <use xlink:href="#ArialMT-35" x="139.013672"/>
      </g>
     </g>
    </g>
    <g id="ytick_3">
     <g id="line2d_22">
      <g>
       <use xlink:href="#m7ae345f6ff" x="47.368281" y="195.936797" style="fill: #262626; stroke: #262626; stroke-width: 1.25"/>
      </g>
     </g>
     <g id="text_14">
      <!-- 0.10 -->
      <g style="fill: #262626" transform="translate(22.46125 199.873594) scale(0.11 -0.11)">
       <defs>
        <path id="ArialMT-31" d="M 2384 0 
L 1822 0 
L 1822 3584 
Q 1619 3391 1289 3197 
Q 959 3003 697 2906 
L 697 3450 
Q 1169 3672 1522 3987 
Q 1875 4303 2022 4600 
L 2384 4600 
L 2384 0 
z
" transform="scale(0.015625)"/>
       </defs>
       <use xlink:href="#ArialMT-30"/>
       <use xlink:href="#ArialMT-2e" x="55.615234"/>
       <use xlink:href="#ArialMT-31" x="83.398438"/>
       <use xlink:href="#ArialMT-30" x="139.013672"/>
      </g>
     </g>
    </g>
    <g id="ytick_4">
     <g id="line2d_23">
      <g>
       <use xlink:href="#m7ae345f6ff" x="47.368281" y="158.976797" style="fill: #262626; stroke: #262626; stroke-width: 1.25"/>
      </g>
     </g>
     <g id="text_15">
      <!-- 0.15 -->
      <g style="fill: #262626" transform="translate(22.46125 162.913594) scale(0.11 -0.11)">
       <use xlink:href="#ArialMT-30"/>
       <use xlink:href="#ArialMT-2e" x="55.615234"/>
       <use xlink:href="#ArialMT-31" x="83.398438"/>
       <use xlink:href="#ArialMT-35" x="139.013672"/>
      </g>
     </g>
    </g>
    <g id="ytick_5">
     <g id="line2d_24">
      <g>
       <use xlink:href="#m7ae345f6ff" x="47.368281" y="122.016797" style="fill: #262626; stroke: #262626; stroke-width: 1.25"/>
      </g>
     </g>
     <g id="text_16">
      <!-- 0.20 -->
      <g style="fill: #262626" transform="translate(22.46125 125.953594) scale(0.11 -0.11)">
       <use xlink:href="#ArialMT-30"/>
       <use xlink:href="#ArialMT-2e" x="55.615234"/>
       <use xlink:href="#ArialMT-32" x="83.398438"/>
       <use xlink:href="#ArialMT-30" x="139.013672"/>
      </g>
     </g>
    </g>
    <g id="ytick_6">
     <g id="line2d_25">
      <g>
       <use xlink:href="#m7ae345f6ff" x="47.368281" y="85.056797" style="fill: #262626; stroke: #262626; stroke-width: 1.25"/>
      </g>
     </g>
     <g id="text_17">
      <!-- 0.25 -->
      <g style="fill: #262626" transform="translate(22.46125 88.993594) scale(0.11 -0.11)">
       <use xlink:href="#ArialMT-30"/>
       <use xlink:href="#ArialMT-2e" x="55.615234"/>
       <use xlink:href="#ArialMT-32" x="83.398438"/>
       <use xlink:href="#ArialMT-35" x="139.013672"/>
      </g>
     </g>
    </g>
    <g id="ytick_7">
     <g id="line2d_26">
      <g>
       <use xlink:href="#m7ae345f6ff" x="47.368281" y="48.096797" style="fill: #262626; stroke: #262626; stroke-width: 1.25"/>
      </g>
     </g>
     <g id="text_18">
      <!-- 0.30 -->
      <g style="fill: #262626" transform="translate(22.46125 52.033594) scale(0.11 -0.11)">
       <use xlink:href="#ArialMT-30"/>
       <use xlink:href="#ArialMT-2e" x="55.615234"/>
       <use xlink:href="#ArialMT-33" x="83.398438"/>
       <use xlink:href="#ArialMT-30" x="139.013672"/>
      </g>
     </g>
    </g>
    <g id="ytick_8">
     <g id="line2d_27">
      <g>
       <use xlink:href="#m7ae345f6ff" x="47.368281" y="11.136797" style="fill: #262626; stroke: #262626; stroke-width: 1.25"/>
      </g>
     </g>
     <g id="text_19">
      <!-- 0.35 -->
      <g style="fill: #262626" transform="translate(22.46125 15.073594) scale(0.11 -0.11)">
       <use xlink:href="#ArialMT-30"/>
       <use xlink:href="#ArialMT-2e" x="55.615234"/>
       <use xlink:href="#ArialMT-33" x="83.398438"/>
       <use xlink:href="#ArialMT-35" x="139.013672"/>
      </g>
     </g>
    </g>
    <g id="ytick_9">
     <g id="line2d_28">
      <defs>
       <path id="m001f35f809" d="M 0 0 
L 4 0 
" style="stroke: #262626"/>
      </defs>
      <g>
       <use xlink:href="#m001f35f809" x="47.368281" y="251.376797" style="fill: #262626; stroke: #262626"/>
      </g>
     </g>
    </g>
    <g id="ytick_10">
     <g id="line2d_29">
      <g>
       <use xlink:href="#m001f35f809" x="47.368281" y="214.416797" style="fill: #262626; stroke: #262626"/>
      </g>
     </g>
    </g>
    <g id="ytick_11">
     <g id="line2d_30">
      <g>
       <use xlink:href="#m001f35f809" x="47.368281" y="177.456797" style="fill: #262626; stroke: #262626"/>
      </g>
     </g>
    </g>
    <g id="ytick_12">
     <g id="line2d_31">
      <g>
       <use xlink:href="#m001f35f809" x="47.368281" y="140.496797" style="fill: #262626; stroke: #262626"/>
      </g>
     </g>
    </g>
    <g id="ytick_13">
     <g id="line2d_32">
      <g>
       <use xlink:href="#m001f35f809" x="47.368281" y="103.536797" style="fill: #262626; stroke: #262626"/>
      </g>
     </g>
    </g>
    <g id="ytick_14">
     <g id="line2d_33">
      <g>
       <use xlink:href="#m001f35f809" x="47.368281" y="66.576797" style="fill: #262626; stroke: #262626"/>
      </g>
     </g>
    </g>
    <g id="ytick_15">
     <g id="line2d_34">
      <g>
       <use xlink:href="#m001f35f809" x="47.368281" y="29.616797" style="fill: #262626; stroke: #262626"/>
      </g>
     </g>
    </g>
    <g id="text_20">
     <!-- Absorbance (a.u.) -->
     <g style="fill: #262626" transform="translate(15.935625 191.881547) rotate(-90) scale(0.12 -0.12)">
      <defs>
       <path id="ArialMT-41" d="M -9 0 
L 1750 4581 
L 2403 4581 
L 4278 0 
L 3588 0 
L 3053 1388 
L 1138 1388 
L 634 0 
L -9 0 
z
M 1313 1881 
L 2866 1881 
L 2388 3150 
Q 2169 3728 2063 4100 
Q 1975 3659 1816 3225 
L 1313 1881 
z
" transform="scale(0.015625)"/>
       <path id="ArialMT-62" d="M 941 0 
L 419 0 
L 419 4581 
L 981 4581 
L 981 2947 
Q 1338 3394 1891 3394 
Q 2197 3394 2470 3270 
Q 2744 3147 2920 2923 
Q 3097 2700 3197 2384 
Q 3297 2069 3297 1709 
Q 3297 856 2875 390 
Q 2453 -75 1863 -75 
Q 1275 -75 941 416 
L 941 0 
z
M 934 1684 
Q 934 1088 1097 822 
Q 1363 388 1816 388 
Q 2184 388 2453 708 
Q 2722 1028 2722 1663 
Q 2722 2313 2464 2622 
Q 2206 2931 1841 2931 
Q 1472 2931 1203 2611 
Q 934 2291 934 1684 
z
" transform="scale(0.015625)"/>
       <path id="ArialMT-73" d="M 197 991 
L 753 1078 
Q 800 744 1014 566 
Q 1228 388 1613 388 
Q 2000 388 2187 545 
Q 2375 703 2375 916 
Q 2375 1106 2209 1216 
Q 2094 1291 1634 1406 
Q 1016 1563 777 1677 
Q 538 1791 414 1992 
Q 291 2194 291 2438 
Q 291 2659 392 2848 
Q 494 3038 669 3163 
Q 800 3259 1026 3326 
Q 1253 3394 1513 3394 
Q 1903 3394 2198 3281 
Q 2494 3169 2634 2976 
Q 2775 2784 2828 2463 
L 2278 2388 
Q 2241 2644 2061 2787 
Q 1881 2931 1553 2931 
Q 1166 2931 1000 2803 
Q 834 2675 834 2503 
Q 834 2394 903 2306 
Q 972 2216 1119 2156 
Q 1203 2125 1616 2013 
Q 2213 1853 2448 1751 
Q 2684 1650 2818 1456 
Q 2953 1263 2953 975 
Q 2953 694 2789 445 
Q 2625 197 2315 61 
Q 2006 -75 1616 -75 
Q 969 -75 630 194 
Q 291 463 197 991 
z
" transform="scale(0.015625)"/>
       <path id="ArialMT-6f" d="M 213 1659 
Q 213 2581 725 3025 
Q 1153 3394 1769 3394 
Q 2453 3394 2887 2945 
Q 3322 2497 3322 1706 
Q 3322 1066 3130 698 
Q 2938 331 2570 128 
Q 2203 -75 1769 -75 
Q 1072 -75 642 372 
Q 213 819 213 1659 
z
M 791 1659 
Q 791 1022 1069 705 
Q 1347 388 1769 388 
Q 2188 388 2466 706 
Q 2744 1025 2744 1678 
Q 2744 2294 2464 2611 
Q 2184 2928 1769 2928 
Q 1347 2928 1069 2612 
Q 791 2297 791 1659 
z
" transform="scale(0.015625)"/>
       <path id="ArialMT-72" d="M 416 0 
L 416 3319 
L 922 3319 
L 922 2816 
Q 1116 3169 1280 3281 
Q 1444 3394 1641 3394 
Q 1925 3394 2219 3213 
L 2025 2691 
Q 1819 2813 1613 2813 
Q 1428 2813 1281 2702 
Q 1134 2591 1072 2394 
Q 978 2094 978 1738 
L 978 0 
L 416 0 
z
" transform="scale(0.015625)"/>
       <path id="ArialMT-63" d="M 2588 1216 
L 3141 1144 
Q 3050 572 2676 248 
Q 2303 -75 1759 -75 
Q 1078 -75 664 370 
Q 250 816 250 1647 
Q 250 2184 428 2587 
Q 606 2991 970 3192 
Q 1334 3394 1763 3394 
Q 2303 3394 2647 3120 
Q 2991 2847 3088 2344 
L 2541 2259 
Q 2463 2594 2264 2762 
Q 2066 2931 1784 2931 
Q 1359 2931 1093 2626 
Q 828 2322 828 1663 
Q 828 994 1084 691 
Q 1341 388 1753 388 
Q 2084 388 2306 591 
Q 2528 794 2588 1216 
z
" transform="scale(0.015625)"/>
       <path id="ArialMT-75" d="M 2597 0 
L 2597 488 
Q 2209 -75 1544 -75 
Q 1250 -75 995 37 
Q 741 150 617 320 
Q 494 491 444 738 
Q 409 903 409 1263 
L 409 3319 
L 972 3319 
L 972 1478 
Q 972 1038 1006 884 
Q 1059 663 1231 536 
Q 1403 409 1656 409 
Q 1909 409 2131 539 
Q 2353 669 2445 892 
Q 2538 1116 2538 1541 
L 2538 3319 
L 3100 3319 
L 3100 0 
L 2597 0 
z
" transform="scale(0.015625)"/>
      </defs>
      <use xlink:href="#ArialMT-41"/>
      <use xlink:href="#ArialMT-62" x="66.699219"/>
      <use xlink:href="#ArialMT-73" x="122.314453"/>
      <use xlink:href="#ArialMT-6f" x="172.314453"/>
      <use xlink:href="#ArialMT-72" x="227.929688"/>
      <use xlink:href="#ArialMT-62" x="261.230469"/>
      <use xlink:href="#ArialMT-61" x="316.845703"/>
      <use xlink:href="#ArialMT-6e" x="372.460938"/>
      <use xlink:href="#ArialMT-63" x="428.076172"/>
      <use xlink:href="#ArialMT-65" x="478.076172"/>
      <use xlink:href="#ArialMT-20" x="533.691406"/>
      <use xlink:href="#ArialMT-28" x="561.474609"/>
      <use xlink:href="#ArialMT-61" x="594.775391"/>
      <use xlink:href="#ArialMT-2e" x="650.390625"/>
      <use xlink:href="#ArialMT-75" x="678.173828"/>
      <use xlink:href="#ArialMT-2e" x="733.789062"/>
      <use xlink:href="#ArialMT-29" x="761.572266"/>
     </g>
    </g>
   </g>
   <g id="PolyCollection_1"/>
   <g id="PolyCollection_2"/>
   <g id="PolyCollection_3"/>
   <g id="PolyCollection_4"/>
   <g id="line2d_35">
    <path d="M 47.368269 158.853756 
L 49.48454 160.078374 
L 52.65894 160.602047 
L 56.891457 160.238928 
L 57.42054 160.398292 
L 58.478657 160.341543 
L 59.00774 160.425202 
L 59.536798 160.337259 
L 61.123998 160.343989 
L 63.240257 160.157748 
L 64.298398 159.789188 
L 64.827457 159.785256 
L 65.35654 159.60742 
L 66.414657 159.45592 
L 67.472798 158.913313 
L 68.001857 158.888309 
L 70.11814 157.813395 
L 72.234398 156.43742 
L 74.350657 154.976828 
L 75.937857 153.952438 
L 76.995998 153.277807 
L 78.05414 152.626141 
L 79.64134 151.886058 
L 82.286681 150.925555 
L 84.40294 150.751321 
L 84.931998 150.850742 
L 85.461081 150.711634 
L 85.99014 150.767678 
L 86.519198 151.107368 
L 87.048281 150.681068 
L 87.57734 150.5221 
L 89.16454 150.684648 
L 90.222681 150.806308 
L 90.75174 150.674558 
L 91.280798 150.752621 
L 91.809881 150.947123 
L 94.455198 151.115629 
L 94.984281 151.275742 
L 97.10054 151.36308 
L 97.629598 151.151824 
L 101.333081 150.562371 
L 105.03654 150.817422 
L 106.094681 151.281415 
L 107.681881 151.561569 
L 109.269081 151.91397 
L 111.914398 152.027479 
L 112.443481 152.156078 
L 114.030681 152.223159 
L 116.675998 152.930715 
L 117.205081 153.246689 
L 118.792281 153.907894 
L 122.49574 155.406344 
L 124.611998 155.784168 
L 125.141081 155.745373 
L 125.67014 155.822896 
L 128.84454 155.193558 
L 130.960798 154.471297 
L 135.19334 152.114332 
L 138.36774 149.856269 
L 139.425881 148.835085 
L 141.013081 147.445331 
L 142.600281 145.888975 
L 144.187481 144.264161 
L 146.832798 141.378534 
L 147.361881 140.838912 
L 148.419998 139.588695 
L 150.536281 137.041358 
L 151.594398 135.741397 
L 159.530398 124.581072 
L 170.640798 107.845416 
L 173.28614 104.06879 
L 177.518681 97.714878 
L 179.63494 94.564187 
L 182.80934 89.960791 
L 184.39654 87.768003 
L 187.041881 84.272335 
L 189.15814 81.783708 
L 192.861598 77.809893 
L 195.50694 75.290732 
L 197.09414 73.990595 
L 198.68134 72.626858 
L 201.326681 70.75141 
L 203.971998 69.285256 
L 206.088281 68.428646 
L 208.20454 67.846154 
L 210.320798 67.693861 
L 211.37894 67.791189 
L 212.437081 67.907794 
L 215.082398 68.850055 
L 216.669598 69.70574 
L 218.256798 70.815473 
L 221.431198 73.715288 
L 222.48934 74.862493 
L 225.134681 78.187397 
L 227.25094 81.279224 
L 229.367198 84.757124 
L 230.954398 87.642058 
L 233.070681 91.737225 
L 235.715998 97.47299 
L 237.303198 101.160879 
L 241.006681 110.606012 
L 245.239198 122.633367 
L 250.000798 137.360648 
L 269.576281 200.061433 
L 273.808798 213.008948 
L 278.041364 225.409758 
L 282.273881 236.59412 
L 285.448281 243.877173 
L 287.564564 248.07713 
L 289.151764 250.855666 
L 290.738964 253.341093 
L 292.326164 255.539035 
L 294.971481 258.605478 
L 296.029598 259.610846 
L 298.145881 261.330881 
L 299.733081 262.403681 
L 302.907481 263.799942 
L 303.965598 264.212673 
L 305.023764 264.517087 
L 307.139998 265.159459 
L 310.843481 265.869915 
L 316.663198 266.617482 
L 329.360798 267.349273 
L 336.238681 267.593444 
L 337.296798 267.679763 
L 338.354964 267.669726 
L 345.232798 267.85264 
L 348.407198 267.917926 
L 349.465364 267.92784 
L 353.168798 267.946416 
L 369.040798 268.089867 
L 370.098964 268.096389 
L 388.616281 268.028734 
L 390.732564 268.108126 
L 394.435998 268.074109 
L 394.965081 268.139042 
L 396.552281 268.091175 
L 399.726681 268.107029 
L 408.720798 268.001868 
L 409.778964 268.033141 
L 414.011481 267.954327 
L 416.127764 267.973152 
L 418.773081 267.889472 
L 419.831198 267.904373 
L 421.863828 267.864194 
L 421.863828 267.864194 
" clip-path="url(#pb8e4d83540)" style="fill: none; stroke: #f69c73; stroke-linecap: round"/>
   </g>
   <g id="line2d_36">
    <path d="M 47.368269 54.794862 
L 48.955469 61.853168 
L 50.013598 65.605077 
L 51.07174 68.395513 
L 51.600798 69.561554 
L 53.187998 71.950805 
L 56.891457 75.676057 
L 61.123998 81.022642 
L 64.298398 84.502944 
L 66.414657 86.590341 
L 69.589057 87.96864 
L 72.763457 88.339447 
L 73.29254 88.49457 
L 74.350657 88.424008 
L 75.408798 88.609985 
L 77.525081 90.141733 
L 78.583198 91.167444 
L 79.64134 92.265523 
L 80.170398 92.611855 
L 81.22854 93.912455 
L 82.286681 95.306671 
L 83.344798 97.008093 
L 84.931998 100.101044 
L 85.99014 102.429073 
L 86.519198 103.771684 
L 87.048281 104.215355 
L 88.106398 106.161551 
L 88.635481 107.332868 
L 94.455198 116.474849 
L 97.629598 123.484205 
L 100.27494 129.761651 
L 101.333081 131.893846 
L 102.920281 135.038016 
L 105.565598 139.201894 
L 107.152798 141.520351 
L 108.739998 143.741503 
L 112.443481 150.451087 
L 115.088798 156.143244 
L 119.32134 164.350882 
L 123.024798 170.729831 
L 124.611998 173.712544 
L 126.199198 176.581825 
L 127.786398 179.848481 
L 133.077081 189.98673 
L 139.425881 199.88157 
L 143.658398 205.544912 
L 145.245598 207.235903 
L 146.30374 208.123487 
L 147.361881 208.826482 
L 148.419998 209.320976 
L 149.47814 209.734559 
L 151.06534 210.140416 
L 153.710681 211.256295 
L 155.297881 212.323532 
L 156.355998 213.378361 
L 159.00134 216.44855 
L 160.58854 218.408234 
L 162.704798 220.410783 
L 163.76294 221.101843 
L 164.291998 221.327633 
L 165.879198 221.480372 
L 166.93734 221.161506 
L 167.995481 220.694583 
L 171.169881 218.971527 
L 172.227998 218.801082 
L 173.28614 219.118224 
L 174.344281 219.853609 
L 175.402398 221.192326 
L 176.989598 223.793867 
L 181.22214 231.742197 
L 182.80934 233.901177 
L 183.338398 234.412229 
L 183.867481 234.697097 
L 184.39654 235.170602 
L 185.454681 235.499246 
L 186.512798 235.485786 
L 187.57094 235.110457 
L 188.099998 234.761438 
L 188.629081 234.555602 
L 191.803481 232.646609 
L 192.33254 232.46964 
L 192.861598 232.411095 
L 193.390681 232.494729 
L 194.448798 233.069378 
L 195.50694 234.198109 
L 196.565081 235.995216 
L 198.152281 239.491814 
L 202.384798 250.123546 
L 203.971998 253.289214 
L 205.559198 255.660439 
L 206.61734 256.856353 
L 207.675481 257.873499 
L 208.733598 258.624542 
L 209.79174 259.31938 
L 212.96614 260.736551 
L 214.024281 260.989558 
L 217.198681 261.832132 
L 220.90214 262.624165 
L 227.779998 263.810588 
L 232.01254 264.33269 
L 236.77414 264.90659 
L 241.006681 265.261091 
L 244.71014 265.549716 
L 256.349598 266.248609 
L 258.994964 266.322561 
L 262.169364 266.434365 
L 263.227481 266.477665 
L 265.343764 266.564497 
L 267.989081 266.662496 
L 269.576281 266.780519 
L 271.163481 266.752544 
L 274.866964 266.85234 
L 291.797081 267.154533 
L 293.384281 267.145096 
L 300.791198 267.182068 
L 301.320281 267.249979 
L 302.378398 267.217549 
L 309.785364 267.298839 
L 311.372564 267.242918 
L 314.017881 267.292185 
L 314.546964 267.234565 
L 316.134164 267.310797 
L 318.779481 267.28636 
L 319.308564 267.33155 
L 320.366681 267.254242 
L 321.424798 267.282926 
L 323.011998 267.284682 
L 326.186398 267.322273 
L 326.715481 267.26383 
L 327.773598 267.29583 
L 331.477081 267.28065 
L 333.593364 267.352397 
L 358.459481 267.220308 
L 358.988564 267.181933 
L 360.046681 267.226983 
L 363.221081 267.233967 
L 364.808281 267.142433 
L 367.453598 267.224225 
L 374.331481 267.160572 
L 375.918681 267.224514 
L 376.976798 267.207401 
L 379.093081 267.209794 
L 384.383764 267.244905 
L 385.970964 267.19432 
L 389.674398 267.231999 
L 392.848798 267.196134 
L 393.906964 267.205414 
L 402.371998 267.24697 
L 406.075481 267.255188 
L 407.662681 267.258235 
L 417.185881 267.262421 
L 418.243998 267.191715 
L 421.863828 267.135175 
L 421.863828 267.135175 
" clip-path="url(#pb8e4d83540)" style="fill: none; stroke: #e83f3f; stroke-linecap: round"/>
   </g>
   <g id="line2d_37">
    <path d="M 47.368269 158.106932 
L 49.48454 163.045215 
L 51.07174 165.541872 
L 52.65894 167.235397 
L 53.187998 167.657467 
L 53.717057 167.842915 
L 54.775198 168.479479 
L 56.891457 169.287006 
L 57.949598 169.639594 
L 59.536798 170.1022 
L 61.123998 170.775686 
L 62.18214 171.140721 
L 63.240257 171.848508 
L 64.827457 172.333925 
L 66.414657 172.959717 
L 67.472798 172.993874 
L 68.001857 173.188079 
L 69.589057 173.419293 
L 72.763457 174.372614 
L 73.29254 174.623623 
L 74.350657 174.729619 
L 75.408798 175.120462 
L 78.583198 177.15349 
L 80.170398 178.226862 
L 81.757598 179.340318 
L 83.873881 181.174471 
L 85.99014 183.302854 
L 86.519198 184.133799 
L 87.048281 183.895166 
L 88.635481 185.39377 
L 90.222681 186.602126 
L 91.280798 187.28682 
L 91.809881 187.785956 
L 92.867998 188.485372 
L 94.455198 189.954159 
L 94.984281 190.723189 
L 96.042398 191.847423 
L 100.27494 197.30739 
L 100.803998 197.780036 
L 101.86214 199.083989 
L 103.44934 200.718072 
L 106.62374 203.708264 
L 107.152798 204.053583 
L 108.21094 205.049614 
L 108.739998 205.41878 
L 109.269081 206.026463 
L 109.79814 206.404694 
L 116.675998 213.49192 
L 118.263198 214.978347 
L 120.379481 216.854995 
L 125.67014 221.039559 
L 126.199198 221.294423 
L 127.25734 222.201432 
L 128.315481 222.881119 
L 129.373598 223.578976 
L 131.489881 224.995566 
L 132.547998 225.620199 
L 133.077081 226.006649 
L 133.60614 226.242284 
L 134.135198 226.631073 
L 134.664281 226.823561 
L 136.251481 227.713403 
L 139.95494 229.860675 
L 142.071198 231.059375 
L 145.774681 232.982696 
L 146.30374 233.154898 
L 146.832798 233.470008 
L 153.181598 235.402205 
L 156.885081 237.102961 
L 161.646681 239.857246 
L 165.35014 241.193443 
L 167.466398 241.495162 
L 171.169881 241.509691 
L 172.757081 241.768489 
L 174.344281 242.394394 
L 176.46054 243.727857 
L 181.751198 247.694965 
L 182.80934 248.251514 
L 183.338398 248.483159 
L 183.867481 248.587284 
L 184.39654 248.884488 
L 187.041881 249.249285 
L 188.099998 249.04937 
L 189.15814 249.12782 
L 190.216281 249.019112 
L 191.803481 248.989076 
L 192.861598 249.03759 
L 194.448798 249.550788 
L 196.035998 250.405893 
L 198.152281 252.197679 
L 200.26854 254.328094 
L 202.913881 256.741838 
L 204.501081 257.919995 
L 207.146398 259.320645 
L 209.79174 260.296142 
L 216.14054 261.830131 
L 226.192798 263.73469 
L 230.42534 264.38949 
L 231.483481 264.585097 
L 234.128798 264.952388 
L 237.832281 265.466547 
L 253.704281 267.069674 
L 254.762398 267.118002 
L 261.111198 267.503632 
L 264.285598 267.645835 
L 270.105364 267.937966 
L 271.692564 267.939563 
L 274.866964 268.071954 
L 277.512281 268.125095 
L 278.041364 268.199423 
L 279.099481 268.151835 
L 283.861081 268.273657 
L 285.448281 268.352719 
L 288.093598 268.374097 
L 303.965598 268.500332 
L 305.552798 268.493414 
L 307.139998 268.548541 
L 307.669081 268.473448 
L 309.256281 268.516204 
L 310.314398 268.518087 
L 314.017881 268.568099 
L 314.546964 268.51067 
L 315.605081 268.564353 
L 333.593364 268.598414 
L 334.651481 268.66376 
L 338.883998 268.660399 
L 342.058398 268.69324 
L 343.645598 268.670425 
L 345.761881 268.676397 
L 353.168798 268.714633 
L 363.221081 268.75152 
L 365.866398 268.764365 
L 376.976798 268.781203 
L 378.034964 268.747872 
L 394.965081 268.874651 
L 396.023198 268.861926 
L 400.255764 268.915128 
L 400.784798 268.81242 
L 401.842964 268.882923 
L 403.959198 268.848931 
L 405.546398 268.884171 
L 406.075481 268.833171 
L 407.133598 268.888509 
L 408.191764 268.850486 
L 409.778964 268.903536 
L 411.366164 268.856628 
L 415.598681 268.948288 
L 417.714964 268.9063 
L 421.863828 268.930283 
L 421.863828 268.930283 
" clip-path="url(#pb8e4d83540)" style="fill: none; stroke: #a11a5b; stroke-linecap: round"/>
   </g>
   <g id="line2d_38">
    <path d="M 47.368269 129.398555 
L 48.955469 133.056506 
L 49.48454 134.125902 
L 50.542669 135.61858 
L 51.600798 136.716087 
L 53.187998 137.479334 
L 54.775198 137.424468 
L 57.949598 136.916658 
L 59.536798 136.779434 
L 63.76934 136.822348 
L 64.827457 136.660516 
L 65.885598 136.769729 
L 67.472798 136.924423 
L 69.059998 137.529529 
L 70.11814 138.290881 
L 71.176257 139.406441 
L 71.70534 139.964855 
L 72.763457 141.509215 
L 73.821598 142.98069 
L 75.408798 144.947616 
L 76.46694 146.308699 
L 77.525081 147.493455 
L 79.112281 149.130363 
L 81.22854 150.656582 
L 84.40294 152.981934 
L 85.461081 154.003361 
L 85.99014 154.426698 
L 86.519198 155.104006 
L 87.048281 155.215246 
L 89.16454 157.079778 
L 89.693598 157.883185 
L 90.222681 158.163571 
L 91.280798 159.267972 
L 93.92614 163.219923 
L 96.042398 167.50035 
L 99.216798 175.345211 
L 100.803998 179.431373 
L 101.86214 181.987434 
L 103.978398 186.78765 
L 106.094681 190.733152 
L 108.21094 193.838819 
L 108.739998 194.458128 
L 110.327198 196.644742 
L 111.38534 198.082115 
L 115.088798 203.017545 
L 118.263198 206.783855 
L 123.553881 211.485604 
L 125.141081 212.789156 
L 127.25734 214.821346 
L 128.315481 215.802149 
L 132.01894 219.478236 
L 134.135198 221.406974 
L 135.722398 222.511111 
L 144.187481 228.715889 
L 145.774681 229.660674 
L 147.361881 230.322145 
L 148.419998 230.566572 
L 148.949081 230.749583 
L 154.23974 231.461228 
L 156.355998 232.335527 
L 159.00134 234.054554 
L 160.059481 234.894455 
L 162.17574 236.211819 
L 163.233881 236.722328 
L 164.291998 237.15125 
L 166.93734 236.976069 
L 168.52454 236.451124 
L 170.640798 235.509576 
L 172.227998 235.227389 
L 173.28614 235.387783 
L 173.815198 235.549439 
L 174.87334 236.187253 
L 176.46054 237.697558 
L 178.576798 240.28068 
L 180.693081 242.886745 
L 182.280281 244.484198 
L 183.338398 245.275885 
L 183.867481 245.424689 
L 184.39654 245.791764 
L 185.98374 246.039061 
L 187.041881 245.9353 
L 191.274398 244.180301 
L 192.861598 243.844783 
L 193.390681 243.880659 
L 194.448798 244.228758 
L 195.50694 244.930798 
L 196.565081 246.123523 
L 198.152281 248.45344 
L 202.384798 255.642618 
L 203.971998 257.742499 
L 205.03014 258.894564 
L 206.61734 260.231535 
L 207.675481 260.948306 
L 210.320798 262.141712 
L 212.96614 262.99738 
L 214.024281 263.215951 
L 216.669598 263.803393 
L 217.72774 263.993863 
L 220.373081 264.461341 
L 223.547481 264.934066 
L 224.605598 265.118584 
L 226.721881 265.371461 
L 228.309081 265.652601 
L 229.896281 265.784988 
L 231.483481 265.995938 
L 232.541598 266.085708 
L 234.128798 266.272991 
L 239.94854 266.853287 
L 242.064798 266.995701 
L 243.651998 267.140909 
L 258.994964 268.060851 
L 265.343764 268.277407 
L 267.989081 268.393147 
L 301.320281 269.055902 
L 301.849364 268.947195 
L 303.436564 269.004776 
L 309.785364 269.078403 
L 310.314398 269.013486 
L 310.843481 269.082757 
L 311.372564 269.000939 
L 312.959764 269.087782 
L 315.605081 269.053619 
L 318.250398 269.068946 
L 320.895764 269.055595 
L 322.482964 269.097526 
L 335.709598 269.123744 
L 339.413081 269.182138 
L 341.000281 269.140966 
L 342.058398 269.174295 
L 343.645598 269.160105 
L 344.703764 269.192262 
L 346.290964 269.172627 
L 364.279198 269.213507 
L 366.924564 269.23569 
L 369.040798 269.242841 
L 370.627998 269.226909 
L 373.273364 269.240406 
L 378.563998 269.205301 
L 380.680281 269.231395 
L 382.796564 269.214849 
L 385.441881 269.250164 
L 390.203481 269.277328 
L 393.377881 269.284689 
L 394.435998 269.275526 
L 395.494164 269.303685 
L 398.139481 269.330366 
L 399.197598 269.312637 
L 402.371998 269.309206 
L 404.488281 269.329139 
L 408.720798 269.344568 
L 410.837081 269.358597 
L 421.863828 269.377757 
L 421.863828 269.377757 
" clip-path="url(#pb8e4d83540)" style="fill: none; stroke: #4c1d4b; stroke-linecap: round"/>
   </g>
   <g id="line2d_39"/>
   <g id="line2d_40"/>
   <g id="line2d_41"/>
   <g id="line2d_42"/>
   <g id="patch_3">
    <path d="M 47.368281 277.248797 
L 47.368281 11.136797 
" style="fill: none; stroke: #262626; stroke-width: 1.25; stroke-linejoin: miter; stroke-linecap: square"/>
   </g>
   <g id="patch_4">
    <path d="M 47.368281 277.248797 
L 404.488281 277.248797 
" style="fill: none; stroke: #262626; stroke-width: 1.25; stroke-linejoin: miter; stroke-linecap: square"/>
   </g>
   <g id="legend_1">
    <g id="line2d_43">
     <path d="M 302.752281 98.565084 
L 308.752281 98.565084 
L 314.752281 98.565084 
" style="fill: none; stroke: #f69c73; stroke-width: 1.5; stroke-linecap: round"/>
    </g>
    <g id="text_21">
     <!-- polymer -->
     <g style="fill: #262626" transform="translate(319.552281 100.665084) scale(0.06 -0.06)">
      <defs>
       <path id="ArialMT-70" d="M 422 -1272 
L 422 3319 
L 934 3319 
L 934 2888 
Q 1116 3141 1344 3267 
Q 1572 3394 1897 3394 
Q 2322 3394 2647 3175 
Q 2972 2956 3137 2557 
Q 3303 2159 3303 1684 
Q 3303 1175 3120 767 
Q 2938 359 2589 142 
Q 2241 -75 1856 -75 
Q 1575 -75 1351 44 
Q 1128 163 984 344 
L 984 -1272 
L 422 -1272 
z
M 931 1641 
Q 931 1000 1190 694 
Q 1450 388 1819 388 
Q 2194 388 2461 705 
Q 2728 1022 2728 1688 
Q 2728 2322 2467 2637 
Q 2206 2953 1844 2953 
Q 1484 2953 1207 2617 
Q 931 2281 931 1641 
z
" transform="scale(0.015625)"/>
       <path id="ArialMT-79" d="M 397 -1278 
L 334 -750 
Q 519 -800 656 -800 
Q 844 -800 956 -737 
Q 1069 -675 1141 -563 
Q 1194 -478 1313 -144 
Q 1328 -97 1363 -6 
L 103 3319 
L 709 3319 
L 1400 1397 
Q 1534 1031 1641 628 
Q 1738 1016 1872 1384 
L 2581 3319 
L 3144 3319 
L 1881 -56 
Q 1678 -603 1566 -809 
Q 1416 -1088 1222 -1217 
Q 1028 -1347 759 -1347 
Q 597 -1347 397 -1278 
z
" transform="scale(0.015625)"/>
      </defs>
      <use xlink:href="#ArialMT-70"/>
      <use xlink:href="#ArialMT-6f" x="55.615234"/>
      <use xlink:href="#ArialMT-6c" x="111.230469"/>
      <use xlink:href="#ArialMT-79" x="133.447266"/>
      <use xlink:href="#ArialMT-6d" x="183.447266"/>
      <use xlink:href="#ArialMT-65" x="266.748047"/>
      <use xlink:href="#ArialMT-72" x="322.363281"/>
     </g>
    </g>
    <g id="line2d_44">
     <path d="M 302.752281 107.122584 
L 308.752281 107.122584 
L 314.752281 107.122584 
" style="fill: none; stroke: #e83f3f; stroke-width: 1.5; stroke-linecap: round"/>
    </g>
    <g id="text_22">
     <!-- Condition C -->
     <g style="fill: #262626" transform="translate(319.552281 109.222584) scale(0.06 -0.06)">
      <defs>
       <path id="ArialMT-43" d="M 3763 1606 
L 4369 1453 
Q 4178 706 3683 314 
Q 3188 -78 2472 -78 
Q 1731 -78 1267 223 
Q 803 525 561 1097 
Q 319 1669 319 2325 
Q 319 3041 592 3573 
Q 866 4106 1370 4382 
Q 1875 4659 2481 4659 
Q 3169 4659 3637 4309 
Q 4106 3959 4291 3325 
L 3694 3184 
Q 3534 3684 3231 3912 
Q 2928 4141 2469 4141 
Q 1941 4141 1586 3887 
Q 1231 3634 1087 3207 
Q 944 2781 944 2328 
Q 944 1744 1114 1308 
Q 1284 872 1643 656 
Q 2003 441 2422 441 
Q 2931 441 3284 734 
Q 3638 1028 3763 1606 
z
" transform="scale(0.015625)"/>
       <path id="ArialMT-64" d="M 2575 0 
L 2575 419 
Q 2259 -75 1647 -75 
Q 1250 -75 917 144 
Q 584 363 401 755 
Q 219 1147 219 1656 
Q 219 2153 384 2558 
Q 550 2963 881 3178 
Q 1213 3394 1622 3394 
Q 1922 3394 2156 3267 
Q 2391 3141 2538 2938 
L 2538 4581 
L 3097 4581 
L 3097 0 
L 2575 0 
z
M 797 1656 
Q 797 1019 1065 703 
Q 1334 388 1700 388 
Q 2069 388 2326 689 
Q 2584 991 2584 1609 
Q 2584 2291 2321 2609 
Q 2059 2928 1675 2928 
Q 1300 2928 1048 2622 
Q 797 2316 797 1656 
z
" transform="scale(0.015625)"/>
       <path id="ArialMT-69" d="M 425 3934 
L 425 4581 
L 988 4581 
L 988 3934 
L 425 3934 
z
M 425 0 
L 425 3319 
L 988 3319 
L 988 0 
L 425 0 
z
" transform="scale(0.015625)"/>
      </defs>
      <use xlink:href="#ArialMT-43"/>
      <use xlink:href="#ArialMT-6f" x="72.216797"/>
      <use xlink:href="#ArialMT-6e" x="127.832031"/>
      <use xlink:href="#ArialMT-64" x="183.447266"/>
      <use xlink:href="#ArialMT-69" x="239.0625"/>
      <use xlink:href="#ArialMT-74" x="261.279297"/>
      <use xlink:href="#ArialMT-69" x="289.0625"/>
      <use xlink:href="#ArialMT-6f" x="311.279297"/>
      <use xlink:href="#ArialMT-6e" x="366.894531"/>
      <use xlink:href="#ArialMT-20" x="422.509766"/>
      <use xlink:href="#ArialMT-43" x="450.292969"/>
     </g>
    </g>
    <g id="line2d_45">
     <path d="M 302.752281 115.609772 
L 308.752281 115.609772 
L 314.752281 115.609772 
" style="fill: none; stroke: #a11a5b; stroke-width: 1.5; stroke-linecap: round"/>
    </g>
    <g id="text_23">
     <!-- Condition E -->
     <g style="fill: #262626" transform="translate(319.552281 117.709772) scale(0.06 -0.06)">
      <defs>
       <path id="ArialMT-45" d="M 506 0 
L 506 4581 
L 3819 4581 
L 3819 4041 
L 1113 4041 
L 1113 2638 
L 3647 2638 
L 3647 2100 
L 1113 2100 
L 1113 541 
L 3925 541 
L 3925 0 
L 506 0 
z
" transform="scale(0.015625)"/>
      </defs>
      <use xlink:href="#ArialMT-43"/>
      <use xlink:href="#ArialMT-6f" x="72.216797"/>
      <use xlink:href="#ArialMT-6e" x="127.832031"/>
      <use xlink:href="#ArialMT-64" x="183.447266"/>
      <use xlink:href="#ArialMT-69" x="239.0625"/>
      <use xlink:href="#ArialMT-74" x="261.279297"/>
      <use xlink:href="#ArialMT-69" x="289.0625"/>
      <use xlink:href="#ArialMT-6f" x="311.279297"/>
      <use xlink:href="#ArialMT-6e" x="366.894531"/>
      <use xlink:href="#ArialMT-20" x="422.509766"/>
      <use xlink:href="#ArialMT-45" x="450.292969"/>
     </g>
    </g>
    <g id="line2d_46">
     <path d="M 302.752281 124.096959 
L 308.752281 124.096959 
L 314.752281 124.096959 
" style="fill: none; stroke: #4c1d4b; stroke-width: 1.5; stroke-linecap: round"/>
    </g>
    <g id="text_24">
     <!-- Condition D -->
     <g style="fill: #262626" transform="translate(319.552281 126.196959) scale(0.06 -0.06)">
      <defs>
       <path id="ArialMT-44" d="M 494 0 
L 494 4581 
L 2072 4581 
Q 2606 4581 2888 4516 
Q 3281 4425 3559 4188 
Q 3922 3881 4101 3404 
Q 4281 2928 4281 2316 
Q 4281 1794 4159 1391 
Q 4038 988 3847 723 
Q 3656 459 3429 307 
Q 3203 156 2883 78 
Q 2563 0 2147 0 
L 494 0 
z
M 1100 541 
L 2078 541 
Q 2531 541 2789 625 
Q 3047 709 3200 863 
Q 3416 1078 3536 1442 
Q 3656 1806 3656 2325 
Q 3656 3044 3420 3430 
Q 3184 3816 2847 3947 
Q 2603 4041 2063 4041 
L 1100 4041 
L 1100 541 
z
" transform="scale(0.015625)"/>
      </defs>
      <use xlink:href="#ArialMT-43"/>
      <use xlink:href="#ArialMT-6f" x="72.216797"/>
      <use xlink:href="#ArialMT-6e" x="127.832031"/>
      <use xlink:href="#ArialMT-64" x="183.447266"/>
      <use xlink:href="#ArialMT-69" x="239.0625"/>
      <use xlink:href="#ArialMT-74" x="261.279297"/>
      <use xlink:href="#ArialMT-69" x="289.0625"/>
      <use xlink:href="#ArialMT-6f" x="311.279297"/>
      <use xlink:href="#ArialMT-6e" x="366.894531"/>
      <use xlink:href="#ArialMT-20" x="422.509766"/>
      <use xlink:href="#ArialMT-44" x="450.292969"/>
     </g>
    </g>
   </g>
  </g>
 </g>
 <defs>
  <clipPath id="pb8e4d83540">
   <rect x="47.368281" y="11.136797" width="357.12" height="266.112"/>
  </clipPath>
 </defs>
</svg>
