<?xml version="1.0" encoding="utf-8" standalone="no"?>
<!DOCTYPE svg PUBLIC "-//W3C//DTD SVG 1.1//EN"
  "http://www.w3.org/Graphics/SVG/1.1/DTD/svg11.dtd">
<svg xmlns:xlink="http://www.w3.org/1999/xlink" width="495.769625pt" height="313.269891pt" viewBox="0 0 495.769625 313.269891" xmlns="http://www.w3.org/2000/svg" version="1.1">
 <metadata>
  <rdf:RDF xmlns:dc="http://purl.org/dc/elements/1.1/" xmlns:cc="http://creativecommons.org/ns#" xmlns:rdf="http://www.w3.org/1999/02/22-rdf-syntax-ns#">
   <cc:Work>
    <dc:type rdf:resource="http://purl.org/dc/dcmitype/StillImage"/>
    <dc:date>2023-10-27T11:20:39.216250</dc:date>
    <dc:format>image/svg+xml</dc:format>
    <dc:creator>
     <cc:Agent>
      <dc:title>Matplotlib v3.7.1, https://matplotlib.org/</dc:title>
     </cc:Agent>
    </dc:creator>
   </cc:Work>
  </rdf:RDF>
 </metadata>
 <defs>
  <style type="text/css">*{stroke-linejoin: round; stroke-linecap: butt}</style>
 </defs>
 <g id="figure_1">
  <g id="patch_1">
   <path d="M 0 313.269891 
L 495.769625 313.269891 
L 495.769625 0 
L 0 0 
z
" style="fill: #ffffff"/>
  </g>
  <g id="axes_1">
   <g id="patch_2">
    <path d="M 41.25125 277.248797 
L 398.37125 277.248797 
L 398.37125 11.136797 
L 41.25125 11.136797 
z
" style="fill: #ffffff"/>
   </g>
   <g id="matplotlib.axis_1">
    <g id="xtick_1">
     <g id="line2d_1">
      <defs>
       <path id="mdc42ceea89" d="M 0 0 
L 0 -6 
" style="stroke: #262626; stroke-width: 1.25"/>
      </defs>
      <g>
       <use xlink:href="#mdc42ceea89" x="66.166599" y="277.248797" style="fill: #262626; stroke: #262626; stroke-width: 1.25"/>
      </g>
     </g>
     <g id="text_1">
      <!-- 250 -->
      <g style="fill: #262626" transform="translate(56.991052 288.622391) scale(0.11 -0.11)">
       <defs>
        <path id="ArialMT-32" d="M 3222 541 
L 3222 0 
L 194 0 
Q 188 203 259 391 
Q 375 700 629 1000 
Q 884 1300 1366 1694 
Q 2113 2306 2375 2664 
Q 2638 3022 2638 3341 
Q 2638 3675 2398 3904 
Q 2159 4134 1775 4134 
Q 1369 4134 1125 3890 
Q 881 3647 878 3216 
L 300 3275 
Q 359 3922 746 4261 
Q 1134 4600 1788 4600 
Q 2447 4600 2831 4234 
Q 3216 3869 3216 3328 
Q 3216 3053 3103 2787 
Q 2991 2522 2730 2228 
Q 2469 1934 1863 1422 
Q 1356 997 1212 845 
Q 1069 694 975 541 
L 3222 541 
z
" transform="scale(0.015625)"/>
        <path id="ArialMT-35" d="M 266 1200 
L 856 1250 
Q 922 819 1161 601 
Q 1400 384 1738 384 
Q 2144 384 2425 690 
Q 2706 997 2706 1503 
Q 2706 1984 2436 2262 
Q 2166 2541 1728 2541 
Q 1456 2541 1237 2417 
Q 1019 2294 894 2097 
L 366 2166 
L 809 4519 
L 3088 4519 
L 3088 3981 
L 1259 3981 
L 1013 2750 
Q 1425 3038 1878 3038 
Q 2478 3038 2890 2622 
Q 3303 2206 3303 1553 
Q 3303 931 2941 478 
Q 2500 -78 1738 -78 
Q 1113 -78 717 272 
Q 322 622 266 1200 
z
" transform="scale(0.015625)"/>
        <path id="ArialMT-30" d="M 266 2259 
Q 266 3072 433 3567 
Q 600 4063 929 4331 
Q 1259 4600 1759 4600 
Q 2128 4600 2406 4451 
Q 2684 4303 2865 4023 
Q 3047 3744 3150 3342 
Q 3253 2941 3253 2259 
Q 3253 1453 3087 958 
Q 2922 463 2592 192 
Q 2263 -78 1759 -78 
Q 1097 -78 719 397 
Q 266 969 266 2259 
z
M 844 2259 
Q 844 1131 1108 757 
Q 1372 384 1759 384 
Q 2147 384 2411 759 
Q 2675 1134 2675 2259 
Q 2675 3391 2411 3762 
Q 2147 4134 1753 4134 
Q 1366 4134 1134 3806 
Q 844 3388 844 2259 
z
" transform="scale(0.015625)"/>
       </defs>
       <use xlink:href="#ArialMT-32"/>
       <use xlink:href="#ArialMT-35" x="55.615234"/>
       <use xlink:href="#ArialMT-30" x="111.230469"/>
      </g>
     </g>
    </g>
    <g id="xtick_2">
     <g id="line2d_2">
      <g>
       <use xlink:href="#mdc42ceea89" x="107.69218" y="277.248797" style="fill: #262626; stroke: #262626; stroke-width: 1.25"/>
      </g>
     </g>
     <g id="text_2">
      <!-- 300 -->
      <g style="fill: #262626" transform="translate(98.516633 288.622391) scale(0.11 -0.11)">
       <defs>
        <path id="ArialMT-33" d="M 269 1209 
L 831 1284 
Q 928 806 1161 595 
Q 1394 384 1728 384 
Q 2125 384 2398 659 
Q 2672 934 2672 1341 
Q 2672 1728 2419 1979 
Q 2166 2231 1775 2231 
Q 1616 2231 1378 2169 
L 1441 2663 
Q 1497 2656 1531 2656 
Q 1891 2656 2178 2843 
Q 2466 3031 2466 3422 
Q 2466 3731 2256 3934 
Q 2047 4138 1716 4138 
Q 1388 4138 1169 3931 
Q 950 3725 888 3313 
L 325 3413 
Q 428 3978 793 4289 
Q 1159 4600 1703 4600 
Q 2078 4600 2393 4439 
Q 2709 4278 2876 4000 
Q 3044 3722 3044 3409 
Q 3044 3113 2884 2869 
Q 2725 2625 2413 2481 
Q 2819 2388 3044 2092 
Q 3269 1797 3269 1353 
Q 3269 753 2831 336 
Q 2394 -81 1725 -81 
Q 1122 -81 723 278 
Q 325 638 269 1209 
z
" transform="scale(0.015625)"/>
       </defs>
       <use xlink:href="#ArialMT-33"/>
       <use xlink:href="#ArialMT-30" x="55.615234"/>
       <use xlink:href="#ArialMT-30" x="111.230469"/>
      </g>
     </g>
    </g>
    <g id="xtick_3">
     <g id="line2d_3">
      <g>
       <use xlink:href="#mdc42ceea89" x="149.217762" y="277.248797" style="fill: #262626; stroke: #262626; stroke-width: 1.25"/>
      </g>
     </g>
     <g id="text_3">
      <!-- 350 -->
      <g style="fill: #262626" transform="translate(140.042215 288.622391) scale(0.11 -0.11)">
       <use xlink:href="#ArialMT-33"/>
       <use xlink:href="#ArialMT-35" x="55.615234"/>
       <use xlink:href="#ArialMT-30" x="111.230469"/>
      </g>
     </g>
    </g>
    <g id="xtick_4">
     <g id="line2d_4">
      <g>
       <use xlink:href="#mdc42ceea89" x="190.743343" y="277.248797" style="fill: #262626; stroke: #262626; stroke-width: 1.25"/>
      </g>
     </g>
     <g id="text_4">
      <!-- 400 -->
      <g style="fill: #262626" transform="translate(181.567796 288.622391) scale(0.11 -0.11)">
       <defs>
        <path id="ArialMT-34" d="M 2069 0 
L 2069 1097 
L 81 1097 
L 81 1613 
L 2172 4581 
L 2631 4581 
L 2631 1613 
L 3250 1613 
L 3250 1097 
L 2631 1097 
L 2631 0 
L 2069 0 
z
M 2069 1613 
L 2069 3678 
L 634 1613 
L 2069 1613 
z
" transform="scale(0.015625)"/>
       </defs>
       <use xlink:href="#ArialMT-34"/>
       <use xlink:href="#ArialMT-30" x="55.615234"/>
       <use xlink:href="#ArialMT-30" x="111.230469"/>
      </g>
     </g>
    </g>
    <g id="xtick_5">
     <g id="line2d_5">
      <g>
       <use xlink:href="#mdc42ceea89" x="232.268924" y="277.248797" style="fill: #262626; stroke: #262626; stroke-width: 1.25"/>
      </g>
     </g>
     <g id="text_5">
      <!-- 450 -->
      <g style="fill: #262626" transform="translate(223.093378 288.622391) scale(0.11 -0.11)">
       <use xlink:href="#ArialMT-34"/>
       <use xlink:href="#ArialMT-35" x="55.615234"/>
       <use xlink:href="#ArialMT-30" x="111.230469"/>
      </g>
     </g>
    </g>
    <g id="xtick_6">
     <g id="line2d_6">
      <g>
       <use xlink:href="#mdc42ceea89" x="273.794506" y="277.248797" style="fill: #262626; stroke: #262626; stroke-width: 1.25"/>
      </g>
     </g>
     <g id="text_6">
      <!-- 500 -->
      <g style="fill: #262626" transform="translate(264.618959 288.622391) scale(0.11 -0.11)">
       <use xlink:href="#ArialMT-35"/>
       <use xlink:href="#ArialMT-30" x="55.615234"/>
       <use xlink:href="#ArialMT-30" x="111.230469"/>
      </g>
     </g>
    </g>
    <g id="xtick_7">
     <g id="line2d_7">
      <g>
       <use xlink:href="#mdc42ceea89" x="315.320087" y="277.248797" style="fill: #262626; stroke: #262626; stroke-width: 1.25"/>
      </g>
     </g>
     <g id="text_7">
      <!-- 550 -->
      <g style="fill: #262626" transform="translate(306.14454 288.622391) scale(0.11 -0.11)">
       <use xlink:href="#ArialMT-35"/>
       <use xlink:href="#ArialMT-35" x="55.615234"/>
       <use xlink:href="#ArialMT-30" x="111.230469"/>
      </g>
     </g>
    </g>
    <g id="xtick_8">
     <g id="line2d_8">
      <g>
       <use xlink:href="#mdc42ceea89" x="356.845669" y="277.248797" style="fill: #262626; stroke: #262626; stroke-width: 1.25"/>
      </g>
     </g>
     <g id="text_8">
      <!-- 600 -->
      <g style="fill: #262626" transform="translate(347.670122 288.622391) scale(0.11 -0.11)">
       <defs>
        <path id="ArialMT-36" d="M 3184 3459 
L 2625 3416 
Q 2550 3747 2413 3897 
Q 2184 4138 1850 4138 
Q 1581 4138 1378 3988 
Q 1113 3794 959 3422 
Q 806 3050 800 2363 
Q 1003 2672 1297 2822 
Q 1591 2972 1913 2972 
Q 2475 2972 2870 2558 
Q 3266 2144 3266 1488 
Q 3266 1056 3080 686 
Q 2894 316 2569 119 
Q 2244 -78 1831 -78 
Q 1128 -78 684 439 
Q 241 956 241 2144 
Q 241 3472 731 4075 
Q 1159 4600 1884 4600 
Q 2425 4600 2770 4297 
Q 3116 3994 3184 3459 
z
M 888 1484 
Q 888 1194 1011 928 
Q 1134 663 1356 523 
Q 1578 384 1822 384 
Q 2178 384 2434 671 
Q 2691 959 2691 1453 
Q 2691 1928 2437 2201 
Q 2184 2475 1800 2475 
Q 1419 2475 1153 2201 
Q 888 1928 888 1484 
z
" transform="scale(0.015625)"/>
       </defs>
       <use xlink:href="#ArialMT-36"/>
       <use xlink:href="#ArialMT-30" x="55.615234"/>
       <use xlink:href="#ArialMT-30" x="111.230469"/>
      </g>
     </g>
    </g>
    <g id="xtick_9">
     <g id="line2d_9">
      <g>
       <use xlink:href="#mdc42ceea89" x="398.37125" y="277.248797" style="fill: #262626; stroke: #262626; stroke-width: 1.25"/>
      </g>
     </g>
     <g id="text_9">
      <!-- 650 -->
      <g style="fill: #262626" transform="translate(389.195703 288.622391) scale(0.11 -0.11)">
       <use xlink:href="#ArialMT-36"/>
       <use xlink:href="#ArialMT-35" x="55.615234"/>
       <use xlink:href="#ArialMT-30" x="111.230469"/>
      </g>
     </g>
    </g>
    <g id="xtick_10">
     <g id="line2d_10">
      <defs>
       <path id="m968eddd0a7" d="M 0 0 
L 0 -4 
" style="stroke: #262626"/>
      </defs>
      <g>
       <use xlink:href="#m968eddd0a7" x="45.403808" y="277.248797" style="fill: #262626; stroke: #262626"/>
      </g>
     </g>
    </g>
    <g id="xtick_11">
     <g id="line2d_11">
      <g>
       <use xlink:href="#m968eddd0a7" x="86.92939" y="277.248797" style="fill: #262626; stroke: #262626"/>
      </g>
     </g>
    </g>
    <g id="xtick_12">
     <g id="line2d_12">
      <g>
       <use xlink:href="#m968eddd0a7" x="128.454971" y="277.248797" style="fill: #262626; stroke: #262626"/>
      </g>
     </g>
    </g>
    <g id="xtick_13">
     <g id="line2d_13">
      <g>
       <use xlink:href="#m968eddd0a7" x="169.980552" y="277.248797" style="fill: #262626; stroke: #262626"/>
      </g>
     </g>
    </g>
    <g id="xtick_14">
     <g id="line2d_14">
      <g>
       <use xlink:href="#m968eddd0a7" x="211.506134" y="277.248797" style="fill: #262626; stroke: #262626"/>
      </g>
     </g>
    </g>
    <g id="xtick_15">
     <g id="line2d_15">
      <g>
       <use xlink:href="#m968eddd0a7" x="253.031715" y="277.248797" style="fill: #262626; stroke: #262626"/>
      </g>
     </g>
    </g>
    <g id="xtick_16">
     <g id="line2d_16">
      <g>
       <use xlink:href="#m968eddd0a7" x="294.557297" y="277.248797" style="fill: #262626; stroke: #262626"/>
      </g>
     </g>
    </g>
    <g id="xtick_17">
     <g id="line2d_17">
      <g>
       <use xlink:href="#m968eddd0a7" x="336.082878" y="277.248797" style="fill: #262626; stroke: #262626"/>
      </g>
     </g>
    </g>
    <g id="xtick_18">
     <g id="line2d_18">
      <g>
       <use xlink:href="#m968eddd0a7" x="377.608459" y="277.248797" style="fill: #262626; stroke: #262626"/>
      </g>
     </g>
    </g>
    <g id="text_10">
     <!-- Wavelength (nm) -->
     <g style="fill: #262626" transform="translate(174.356562 303.544266) scale(0.12 -0.12)">
      <defs>
       <path id="ArialMT-57" d="M 1294 0 
L 78 4581 
L 700 4581 
L 1397 1578 
Q 1509 1106 1591 641 
Q 1766 1375 1797 1488 
L 2669 4581 
L 3400 4581 
L 4056 2263 
Q 4303 1400 4413 641 
Q 4500 1075 4641 1638 
L 5359 4581 
L 5969 4581 
L 4713 0 
L 4128 0 
L 3163 3491 
Q 3041 3928 3019 4028 
Q 2947 3713 2884 3491 
L 1913 0 
L 1294 0 
z
" transform="scale(0.015625)"/>
       <path id="ArialMT-61" d="M 2588 409 
Q 2275 144 1986 34 
Q 1697 -75 1366 -75 
Q 819 -75 525 192 
Q 231 459 231 875 
Q 231 1119 342 1320 
Q 453 1522 633 1644 
Q 813 1766 1038 1828 
Q 1203 1872 1538 1913 
Q 2219 1994 2541 2106 
Q 2544 2222 2544 2253 
Q 2544 2597 2384 2738 
Q 2169 2928 1744 2928 
Q 1347 2928 1158 2789 
Q 969 2650 878 2297 
L 328 2372 
Q 403 2725 575 2942 
Q 747 3159 1072 3276 
Q 1397 3394 1825 3394 
Q 2250 3394 2515 3294 
Q 2781 3194 2906 3042 
Q 3031 2891 3081 2659 
Q 3109 2516 3109 2141 
L 3109 1391 
Q 3109 606 3145 398 
Q 3181 191 3288 0 
L 2700 0 
Q 2613 175 2588 409 
z
M 2541 1666 
Q 2234 1541 1622 1453 
Q 1275 1403 1131 1340 
Q 988 1278 909 1158 
Q 831 1038 831 891 
Q 831 666 1001 516 
Q 1172 366 1500 366 
Q 1825 366 2078 508 
Q 2331 650 2450 897 
Q 2541 1088 2541 1459 
L 2541 1666 
z
" transform="scale(0.015625)"/>
       <path id="ArialMT-76" d="M 1344 0 
L 81 3319 
L 675 3319 
L 1388 1331 
Q 1503 1009 1600 663 
Q 1675 925 1809 1294 
L 2547 3319 
L 3125 3319 
L 1869 0 
L 1344 0 
z
" transform="scale(0.015625)"/>
       <path id="ArialMT-65" d="M 2694 1069 
L 3275 997 
Q 3138 488 2766 206 
Q 2394 -75 1816 -75 
Q 1088 -75 661 373 
Q 234 822 234 1631 
Q 234 2469 665 2931 
Q 1097 3394 1784 3394 
Q 2450 3394 2872 2941 
Q 3294 2488 3294 1666 
Q 3294 1616 3291 1516 
L 816 1516 
Q 847 969 1125 678 
Q 1403 388 1819 388 
Q 2128 388 2347 550 
Q 2566 713 2694 1069 
z
M 847 1978 
L 2700 1978 
Q 2663 2397 2488 2606 
Q 2219 2931 1791 2931 
Q 1403 2931 1139 2672 
Q 875 2413 847 1978 
z
" transform="scale(0.015625)"/>
       <path id="ArialMT-6c" d="M 409 0 
L 409 4581 
L 972 4581 
L 972 0 
L 409 0 
z
" transform="scale(0.015625)"/>
       <path id="ArialMT-6e" d="M 422 0 
L 422 3319 
L 928 3319 
L 928 2847 
Q 1294 3394 1984 3394 
Q 2284 3394 2536 3286 
Q 2788 3178 2913 3003 
Q 3038 2828 3088 2588 
Q 3119 2431 3119 2041 
L 3119 0 
L 2556 0 
L 2556 2019 
Q 2556 2363 2490 2533 
Q 2425 2703 2258 2804 
Q 2091 2906 1866 2906 
Q 1506 2906 1245 2678 
Q 984 2450 984 1813 
L 984 0 
L 422 0 
z
" transform="scale(0.015625)"/>
       <path id="ArialMT-67" d="M 319 -275 
L 866 -356 
Q 900 -609 1056 -725 
Q 1266 -881 1628 -881 
Q 2019 -881 2231 -725 
Q 2444 -569 2519 -288 
Q 2563 -116 2559 434 
Q 2191 0 1641 0 
Q 956 0 581 494 
Q 206 988 206 1678 
Q 206 2153 378 2554 
Q 550 2956 876 3175 
Q 1203 3394 1644 3394 
Q 2231 3394 2613 2919 
L 2613 3319 
L 3131 3319 
L 3131 450 
Q 3131 -325 2973 -648 
Q 2816 -972 2473 -1159 
Q 2131 -1347 1631 -1347 
Q 1038 -1347 672 -1080 
Q 306 -813 319 -275 
z
M 784 1719 
Q 784 1066 1043 766 
Q 1303 466 1694 466 
Q 2081 466 2343 764 
Q 2606 1063 2606 1700 
Q 2606 2309 2336 2618 
Q 2066 2928 1684 2928 
Q 1309 2928 1046 2623 
Q 784 2319 784 1719 
z
" transform="scale(0.015625)"/>
       <path id="ArialMT-74" d="M 1650 503 
L 1731 6 
Q 1494 -44 1306 -44 
Q 1000 -44 831 53 
Q 663 150 594 308 
Q 525 466 525 972 
L 525 2881 
L 113 2881 
L 113 3319 
L 525 3319 
L 525 4141 
L 1084 4478 
L 1084 3319 
L 1650 3319 
L 1650 2881 
L 1084 2881 
L 1084 941 
Q 1084 700 1114 631 
Q 1144 563 1211 522 
Q 1278 481 1403 481 
Q 1497 481 1650 503 
z
" transform="scale(0.015625)"/>
       <path id="ArialMT-68" d="M 422 0 
L 422 4581 
L 984 4581 
L 984 2938 
Q 1378 3394 1978 3394 
Q 2347 3394 2619 3248 
Q 2891 3103 3008 2847 
Q 3125 2591 3125 2103 
L 3125 0 
L 2563 0 
L 2563 2103 
Q 2563 2525 2380 2717 
Q 2197 2909 1863 2909 
Q 1613 2909 1392 2779 
Q 1172 2650 1078 2428 
Q 984 2206 984 1816 
L 984 0 
L 422 0 
z
" transform="scale(0.015625)"/>
       <path id="ArialMT-20" transform="scale(0.015625)"/>
       <path id="ArialMT-28" d="M 1497 -1347 
Q 1031 -759 709 28 
Q 388 816 388 1659 
Q 388 2403 628 3084 
Q 909 3875 1497 4659 
L 1900 4659 
Q 1522 4009 1400 3731 
Q 1209 3300 1100 2831 
Q 966 2247 966 1656 
Q 966 153 1900 -1347 
L 1497 -1347 
z
" transform="scale(0.015625)"/>
       <path id="ArialMT-6d" d="M 422 0 
L 422 3319 
L 925 3319 
L 925 2853 
Q 1081 3097 1340 3245 
Q 1600 3394 1931 3394 
Q 2300 3394 2536 3241 
Q 2772 3088 2869 2813 
Q 3263 3394 3894 3394 
Q 4388 3394 4653 3120 
Q 4919 2847 4919 2278 
L 4919 0 
L 4359 0 
L 4359 2091 
Q 4359 2428 4304 2576 
Q 4250 2725 4106 2815 
Q 3963 2906 3769 2906 
Q 3419 2906 3187 2673 
Q 2956 2441 2956 1928 
L 2956 0 
L 2394 0 
L 2394 2156 
Q 2394 2531 2256 2718 
Q 2119 2906 1806 2906 
Q 1569 2906 1367 2781 
Q 1166 2656 1075 2415 
Q 984 2175 984 1722 
L 984 0 
L 422 0 
z
" transform="scale(0.015625)"/>
       <path id="ArialMT-29" d="M 791 -1347 
L 388 -1347 
Q 1322 153 1322 1656 
Q 1322 2244 1188 2822 
Q 1081 3291 891 3722 
Q 769 4003 388 4659 
L 791 4659 
Q 1378 3875 1659 3084 
Q 1900 2403 1900 1659 
Q 1900 816 1576 28 
Q 1253 -759 791 -1347 
z
" transform="scale(0.015625)"/>
      </defs>
      <use xlink:href="#ArialMT-57"/>
      <use xlink:href="#ArialMT-61" x="90.634766"/>
      <use xlink:href="#ArialMT-76" x="146.25"/>
      <use xlink:href="#ArialMT-65" x="196.25"/>
      <use xlink:href="#ArialMT-6c" x="251.865234"/>
      <use xlink:href="#ArialMT-65" x="274.082031"/>
      <use xlink:href="#ArialMT-6e" x="329.697266"/>
      <use xlink:href="#ArialMT-67" x="385.3125"/>
      <use xlink:href="#ArialMT-74" x="440.927734"/>
      <use xlink:href="#ArialMT-68" x="468.710938"/>
      <use xlink:href="#ArialMT-20" x="524.326172"/>
      <use xlink:href="#ArialMT-28" x="552.109375"/>
      <use xlink:href="#ArialMT-6e" x="585.410156"/>
      <use xlink:href="#ArialMT-6d" x="641.025391"/>
      <use xlink:href="#ArialMT-29" x="724.326172"/>
     </g>
    </g>
   </g>
   <g id="matplotlib.axis_2">
    <g id="ytick_1">
     <g id="line2d_19">
      <defs>
       <path id="m07659e1adc" d="M 0 0 
L 6 0 
" style="stroke: #262626; stroke-width: 1.25"/>
      </defs>
      <g>
       <use xlink:href="#m07659e1adc" x="41.25125" y="259.507997" style="fill: #262626; stroke: #262626; stroke-width: 1.25"/>
      </g>
     </g>
     <g id="text_11">
      <!-- 0.0 -->
      <g style="fill: #262626" transform="translate(22.46125 263.444794) scale(0.11 -0.11)">
       <defs>
        <path id="ArialMT-2e" d="M 581 0 
L 581 641 
L 1222 641 
L 1222 0 
L 581 0 
z
" transform="scale(0.015625)"/>
       </defs>
       <use xlink:href="#ArialMT-30"/>
       <use xlink:href="#ArialMT-2e" x="55.615234"/>
       <use xlink:href="#ArialMT-30" x="83.398438"/>
      </g>
     </g>
    </g>
    <g id="ytick_2">
     <g id="line2d_20">
      <g>
       <use xlink:href="#m07659e1adc" x="41.25125" y="224.026397" style="fill: #262626; stroke: #262626; stroke-width: 1.25"/>
      </g>
     </g>
     <g id="text_12">
      <!-- 0.1 -->
      <g style="fill: #262626" transform="translate(22.46125 227.963194) scale(0.11 -0.11)">
       <defs>
        <path id="ArialMT-31" d="M 2384 0 
L 1822 0 
L 1822 3584 
Q 1619 3391 1289 3197 
Q 959 3003 697 2906 
L 697 3450 
Q 1169 3672 1522 3987 
Q 1875 4303 2022 4600 
L 2384 4600 
L 2384 0 
z
" transform="scale(0.015625)"/>
       </defs>
       <use xlink:href="#ArialMT-30"/>
       <use xlink:href="#ArialMT-2e" x="55.615234"/>
       <use xlink:href="#ArialMT-31" x="83.398438"/>
      </g>
     </g>
    </g>
    <g id="ytick_3">
     <g id="line2d_21">
      <g>
       <use xlink:href="#m07659e1adc" x="41.25125" y="188.544797" style="fill: #262626; stroke: #262626; stroke-width: 1.25"/>
      </g>
     </g>
     <g id="text_13">
      <!-- 0.2 -->
      <g style="fill: #262626" transform="translate(22.46125 192.481594) scale(0.11 -0.11)">
       <use xlink:href="#ArialMT-30"/>
       <use xlink:href="#ArialMT-2e" x="55.615234"/>
       <use xlink:href="#ArialMT-32" x="83.398438"/>
      </g>
     </g>
    </g>
    <g id="ytick_4">
     <g id="line2d_22">
      <g>
       <use xlink:href="#m07659e1adc" x="41.25125" y="153.063197" style="fill: #262626; stroke: #262626; stroke-width: 1.25"/>
      </g>
     </g>
     <g id="text_14">
      <!-- 0.3 -->
      <g style="fill: #262626" transform="translate(22.46125 156.999994) scale(0.11 -0.11)">
       <use xlink:href="#ArialMT-30"/>
       <use xlink:href="#ArialMT-2e" x="55.615234"/>
       <use xlink:href="#ArialMT-33" x="83.398438"/>
      </g>
     </g>
    </g>
    <g id="ytick_5">
     <g id="line2d_23">
      <g>
       <use xlink:href="#m07659e1adc" x="41.25125" y="117.581597" style="fill: #262626; stroke: #262626; stroke-width: 1.25"/>
      </g>
     </g>
     <g id="text_15">
      <!-- 0.4 -->
      <g style="fill: #262626" transform="translate(22.46125 121.518394) scale(0.11 -0.11)">
       <use xlink:href="#ArialMT-30"/>
       <use xlink:href="#ArialMT-2e" x="55.615234"/>
       <use xlink:href="#ArialMT-34" x="83.398438"/>
      </g>
     </g>
    </g>
    <g id="ytick_6">
     <g id="line2d_24">
      <g>
       <use xlink:href="#m07659e1adc" x="41.25125" y="82.099997" style="fill: #262626; stroke: #262626; stroke-width: 1.25"/>
      </g>
     </g>
     <g id="text_16">
      <!-- 0.5 -->
      <g style="fill: #262626" transform="translate(22.46125 86.036794) scale(0.11 -0.11)">
       <use xlink:href="#ArialMT-30"/>
       <use xlink:href="#ArialMT-2e" x="55.615234"/>
       <use xlink:href="#ArialMT-35" x="83.398438"/>
      </g>
     </g>
    </g>
    <g id="ytick_7">
     <g id="line2d_25">
      <g>
       <use xlink:href="#m07659e1adc" x="41.25125" y="46.618397" style="fill: #262626; stroke: #262626; stroke-width: 1.25"/>
      </g>
     </g>
     <g id="text_17">
      <!-- 0.6 -->
      <g style="fill: #262626" transform="translate(22.46125 50.555194) scale(0.11 -0.11)">
       <use xlink:href="#ArialMT-30"/>
       <use xlink:href="#ArialMT-2e" x="55.615234"/>
       <use xlink:href="#ArialMT-36" x="83.398438"/>
      </g>
     </g>
    </g>
    <g id="ytick_8">
     <g id="line2d_26">
      <g>
       <use xlink:href="#m07659e1adc" x="41.25125" y="11.136797" style="fill: #262626; stroke: #262626; stroke-width: 1.25"/>
      </g>
     </g>
     <g id="text_18">
      <!-- 0.7 -->
      <g style="fill: #262626" transform="translate(22.46125 15.073594) scale(0.11 -0.11)">
       <defs>
        <path id="ArialMT-37" d="M 303 3981 
L 303 4522 
L 3269 4522 
L 3269 4084 
Q 2831 3619 2401 2847 
Q 1972 2075 1738 1259 
Q 1569 684 1522 0 
L 944 0 
Q 953 541 1156 1306 
Q 1359 2072 1739 2783 
Q 2119 3494 2547 3981 
L 303 3981 
z
" transform="scale(0.015625)"/>
       </defs>
       <use xlink:href="#ArialMT-30"/>
       <use xlink:href="#ArialMT-2e" x="55.615234"/>
       <use xlink:href="#ArialMT-37" x="83.398438"/>
      </g>
     </g>
    </g>
    <g id="ytick_9">
     <g id="line2d_27">
      <defs>
       <path id="mad49b87f06" d="M 0 0 
L 4 0 
" style="stroke: #262626"/>
      </defs>
      <g>
       <use xlink:href="#mad49b87f06" x="41.25125" y="241.767197" style="fill: #262626; stroke: #262626"/>
      </g>
     </g>
    </g>
    <g id="ytick_10">
     <g id="line2d_28">
      <g>
       <use xlink:href="#mad49b87f06" x="41.25125" y="206.285597" style="fill: #262626; stroke: #262626"/>
      </g>
     </g>
    </g>
    <g id="ytick_11">
     <g id="line2d_29">
      <g>
       <use xlink:href="#mad49b87f06" x="41.25125" y="170.803997" style="fill: #262626; stroke: #262626"/>
      </g>
     </g>
    </g>
    <g id="ytick_12">
     <g id="line2d_30">
      <g>
       <use xlink:href="#mad49b87f06" x="41.25125" y="135.322397" style="fill: #262626; stroke: #262626"/>
      </g>
     </g>
    </g>
    <g id="ytick_13">
     <g id="line2d_31">
      <g>
       <use xlink:href="#mad49b87f06" x="41.25125" y="99.840797" style="fill: #262626; stroke: #262626"/>
      </g>
     </g>
    </g>
    <g id="ytick_14">
     <g id="line2d_32">
      <g>
       <use xlink:href="#mad49b87f06" x="41.25125" y="64.359197" style="fill: #262626; stroke: #262626"/>
      </g>
     </g>
    </g>
    <g id="ytick_15">
     <g id="line2d_33">
      <g>
       <use xlink:href="#mad49b87f06" x="41.25125" y="28.877597" style="fill: #262626; stroke: #262626"/>
      </g>
     </g>
    </g>
    <g id="text_19">
     <!-- Absorbance (a.u.) -->
     <g style="fill: #262626" transform="translate(15.935625 191.881547) rotate(-90) scale(0.12 -0.12)">
      <defs>
       <path id="ArialMT-41" d="M -9 0 
L 1750 4581 
L 2403 4581 
L 4278 0 
L 3588 0 
L 3053 1388 
L 1138 1388 
L 634 0 
L -9 0 
z
M 1313 1881 
L 2866 1881 
L 2388 3150 
Q 2169 3728 2063 4100 
Q 1975 3659 1816 3225 
L 1313 1881 
z
" transform="scale(0.015625)"/>
       <path id="ArialMT-62" d="M 941 0 
L 419 0 
L 419 4581 
L 981 4581 
L 981 2947 
Q 1338 3394 1891 3394 
Q 2197 3394 2470 3270 
Q 2744 3147 2920 2923 
Q 3097 2700 3197 2384 
Q 3297 2069 3297 1709 
Q 3297 856 2875 390 
Q 2453 -75 1863 -75 
Q 1275 -75 941 416 
L 941 0 
z
M 934 1684 
Q 934 1088 1097 822 
Q 1363 388 1816 388 
Q 2184 388 2453 708 
Q 2722 1028 2722 1663 
Q 2722 2313 2464 2622 
Q 2206 2931 1841 2931 
Q 1472 2931 1203 2611 
Q 934 2291 934 1684 
z
" transform="scale(0.015625)"/>
       <path id="ArialMT-73" d="M 197 991 
L 753 1078 
Q 800 744 1014 566 
Q 1228 388 1613 388 
Q 2000 388 2187 545 
Q 2375 703 2375 916 
Q 2375 1106 2209 1216 
Q 2094 1291 1634 1406 
Q 1016 1563 777 1677 
Q 538 1791 414 1992 
Q 291 2194 291 2438 
Q 291 2659 392 2848 
Q 494 3038 669 3163 
Q 800 3259 1026 3326 
Q 1253 3394 1513 3394 
Q 1903 3394 2198 3281 
Q 2494 3169 2634 2976 
Q 2775 2784 2828 2463 
L 2278 2388 
Q 2241 2644 2061 2787 
Q 1881 2931 1553 2931 
Q 1166 2931 1000 2803 
Q 834 2675 834 2503 
Q 834 2394 903 2306 
Q 972 2216 1119 2156 
Q 1203 2125 1616 2013 
Q 2213 1853 2448 1751 
Q 2684 1650 2818 1456 
Q 2953 1263 2953 975 
Q 2953 694 2789 445 
Q 2625 197 2315 61 
Q 2006 -75 1616 -75 
Q 969 -75 630 194 
Q 291 463 197 991 
z
" transform="scale(0.015625)"/>
       <path id="ArialMT-6f" d="M 213 1659 
Q 213 2581 725 3025 
Q 1153 3394 1769 3394 
Q 2453 3394 2887 2945 
Q 3322 2497 3322 1706 
Q 3322 1066 3130 698 
Q 2938 331 2570 128 
Q 2203 -75 1769 -75 
Q 1072 -75 642 372 
Q 213 819 213 1659 
z
M 791 1659 
Q 791 1022 1069 705 
Q 1347 388 1769 388 
Q 2188 388 2466 706 
Q 2744 1025 2744 1678 
Q 2744 2294 2464 2611 
Q 2184 2928 1769 2928 
Q 1347 2928 1069 2612 
Q 791 2297 791 1659 
z
" transform="scale(0.015625)"/>
       <path id="ArialMT-72" d="M 416 0 
L 416 3319 
L 922 3319 
L 922 2816 
Q 1116 3169 1280 3281 
Q 1444 3394 1641 3394 
Q 1925 3394 2219 3213 
L 2025 2691 
Q 1819 2813 1613 2813 
Q 1428 2813 1281 2702 
Q 1134 2591 1072 2394 
Q 978 2094 978 1738 
L 978 0 
L 416 0 
z
" transform="scale(0.015625)"/>
       <path id="ArialMT-63" d="M 2588 1216 
L 3141 1144 
Q 3050 572 2676 248 
Q 2303 -75 1759 -75 
Q 1078 -75 664 370 
Q 250 816 250 1647 
Q 250 2184 428 2587 
Q 606 2991 970 3192 
Q 1334 3394 1763 3394 
Q 2303 3394 2647 3120 
Q 2991 2847 3088 2344 
L 2541 2259 
Q 2463 2594 2264 2762 
Q 2066 2931 1784 2931 
Q 1359 2931 1093 2626 
Q 828 2322 828 1663 
Q 828 994 1084 691 
Q 1341 388 1753 388 
Q 2084 388 2306 591 
Q 2528 794 2588 1216 
z
" transform="scale(0.015625)"/>
       <path id="ArialMT-75" d="M 2597 0 
L 2597 488 
Q 2209 -75 1544 -75 
Q 1250 -75 995 37 
Q 741 150 617 320 
Q 494 491 444 738 
Q 409 903 409 1263 
L 409 3319 
L 972 3319 
L 972 1478 
Q 972 1038 1006 884 
Q 1059 663 1231 536 
Q 1403 409 1656 409 
Q 1909 409 2131 539 
Q 2353 669 2445 892 
Q 2538 1116 2538 1541 
L 2538 3319 
L 3100 3319 
L 3100 0 
L 2597 0 
z
" transform="scale(0.015625)"/>
      </defs>
      <use xlink:href="#ArialMT-41"/>
      <use xlink:href="#ArialMT-62" x="66.699219"/>
      <use xlink:href="#ArialMT-73" x="122.314453"/>
      <use xlink:href="#ArialMT-6f" x="172.314453"/>
      <use xlink:href="#ArialMT-72" x="227.929688"/>
      <use xlink:href="#ArialMT-62" x="261.230469"/>
      <use xlink:href="#ArialMT-61" x="316.845703"/>
      <use xlink:href="#ArialMT-6e" x="372.460938"/>
      <use xlink:href="#ArialMT-63" x="428.076172"/>
      <use xlink:href="#ArialMT-65" x="478.076172"/>
      <use xlink:href="#ArialMT-20" x="533.691406"/>
      <use xlink:href="#ArialMT-28" x="561.474609"/>
      <use xlink:href="#ArialMT-61" x="594.775391"/>
      <use xlink:href="#ArialMT-2e" x="650.390625"/>
      <use xlink:href="#ArialMT-75" x="678.173828"/>
      <use xlink:href="#ArialMT-2e" x="733.789062"/>
      <use xlink:href="#ArialMT-29" x="761.572266"/>
     </g>
    </g>
   </g>
   <g id="PolyCollection_1"/>
   <g id="PolyCollection_2"/>
   <g id="PolyCollection_3"/>
   <g id="PolyCollection_4"/>
   <g id="line2d_34">
    <path d="M 25.194683 222.536324 
L 25.748349 267.641804 
L 26.302028 253.430616 
L 26.855707 258.473682 
L 27.409373 249.744674 
L 27.963051 255.324625 
L 28.51673 247.682374 
L 29.070396 245.736541 
L 29.624075 254.258356 
L 30.177753 255.504918 
L 30.731419 250.693964 
L 31.285098 249.220856 
L 31.838776 253.625705 
L 32.392442 262.829376 
L 32.946121 255.023936 
L 33.4998 260.263023 
L 34.053466 251.792841 
L 35.160823 243.636564 
L 35.714489 266.971996 
L 36.821846 251.487022 
L 37.375512 263.462385 
L 37.929191 251.818757 
L 38.482869 253.751724 
L 39.036535 261.820727 
L 39.590214 246.230716 
L 40.143893 252.249844 
L 40.697559 252.397626 
L 41.251237 252.307166 
L 41.804916 258.951269 
L 42.358582 253.470137 
L 42.912261 251.495342 
L 43.465939 253.566961 
L 44.019605 256.81309 
L 44.573284 252.642021 
L 45.126962 255.023246 
L 45.680641 262.642347 
L 46.234307 251.617508 
L 46.787986 257.352195 
L 47.341664 254.725672 
L 47.89533 257.093109 
L 48.449009 258.805002 
L 49.002688 256.972717 
L 49.556354 253.124787 
L 50.110032 253.34123 
L 50.663711 254.793208 
L 51.217377 254.336394 
L 51.771056 254.579983 
L 52.324734 253.955196 
L 52.8784 252.892692 
L 53.432079 252.330397 
L 53.985757 252.085266 
L 54.539423 252.267519 
L 55.093102 252.003745 
L 55.646781 251.978961 
L 56.754125 251.639471 
L 57.307804 251.668089 
L 58.968827 251.332369 
L 60.62985 251.041004 
L 61.183516 251.119815 
L 61.737195 250.80179 
L 62.290874 250.828184 
L 62.84454 250.689023 
L 63.398218 250.838561 
L 65.059242 250.605252 
L 66.166586 250.528144 
L 69.488633 250.655057 
L 71.149656 250.88222 
L 71.703335 250.846743 
L 73.918024 251.238083 
L 74.471715 251.312425 
L 75.025381 251.510551 
L 77.24007 251.666427 
L 78.347428 251.858326 
L 81.669474 252.026608 
L 82.22314 251.889287 
L 84.991521 251.844147 
L 85.545187 251.72075 
L 86.652544 251.62357 
L 89.420924 251.145815 
L 90.528256 251.071014 
L 91.635614 250.828087 
L 92.742971 250.629334 
L 93.296637 250.347066 
L 94.95766 250.26817 
L 96.065017 250.044689 
L 96.618683 249.940084 
L 97.172349 250.055921 
L 98.279707 249.7978 
L 100.494396 249.623775 
L 101.601753 249.653299 
L 102.155419 249.548222 
L 103.816442 249.647375 
L 104.370134 249.526547 
L 109.906869 250.233809 
L 110.460535 250.467584 
L 112.121559 250.703805 
L 112.67525 250.947375 
L 113.782582 251.120417 
L 118.765652 252.331379 
L 119.319343 252.251028 
L 120.426675 252.602239 
L 123.748721 253.122232 
L 124.302413 253.11912 
L 124.856079 253.307527 
L 126.517102 253.469564 
L 127.070768 253.563219 
L 127.624459 253.537243 
L 129.285483 253.841578 
L 130.392814 253.858872 
L 130.946506 253.970296 
L 132.607529 254.023147 
L 137.590599 254.169515 
L 138.697931 254.145513 
L 139.805288 254.263269 
L 140.912645 254.288734 
L 141.466311 254.207592 
L 142.019977 254.303869 
L 142.573669 254.248824 
L 143.127335 254.405915 
L 144.788358 254.478546 
L 145.342024 254.279356 
L 146.449381 254.42363 
L 148.110404 254.527285 
L 148.66407 254.307213 
L 150.878785 254.308847 
L 155.861855 254.480538 
L 156.415521 254.570443 
L 157.522878 254.564695 
L 158.076544 254.625373 
L 158.63021 254.566422 
L 159.737567 254.652333 
L 164.166971 254.824097 
L 165.827994 254.850189 
L 167.489017 254.906732 
L 181.884535 254.918542 
L 184.652916 254.89602 
L 189.635986 254.875558 
L 191.850675 254.845257 
L 212.336645 254.621391 
L 218.980738 254.53311 
L 221.749094 254.483698 
L 222.856451 254.468676 
L 229.500544 254.360242 
L 231.161567 254.386689 
L 304.800256 253.910075 
L 308.122303 253.887881 
L 313.105373 253.875907 
L 321.410489 253.893158 
L 344.664814 253.8089 
L 349.647884 253.806899 
L 352.969931 253.835174 
L 357.39936 253.802371 
L 360.167715 253.821785 
L 362.93607 253.811169 
L 369.580163 253.802963 
L 379.546303 253.823701 
L 383.975732 253.777922 
L 385.083064 253.810034 
L 398.37125 253.852964 
L 398.37125 253.852964 
" clip-path="url(#p8d579327b3)" style="fill: none; stroke: #f69c73; stroke-linecap: round"/>
   </g>
   <g id="line2d_35">
    <path d="M 25.194683 197.204927 
L 25.748349 220.73715 
L 26.302028 220.88057 
L 26.855707 226.001017 
L 27.409373 228.690466 
L 27.963051 229.531359 
L 28.51673 229.867192 
L 29.070396 223.960783 
L 29.624075 231.1854 
L 30.177753 233.195783 
L 30.731419 239.77573 
L 31.285098 230.450803 
L 31.838776 231.924604 
L 32.392442 232.865311 
L 32.946121 216.571486 
L 33.4998 236.7684 
L 34.053466 229.681482 
L 34.607144 234.350881 
L 35.160823 236.479483 
L 35.714489 232.849053 
L 36.268168 219.836036 
L 36.821846 225.884453 
L 37.375512 243.515972 
L 37.929191 225.339177 
L 38.482869 220.472564 
L 39.036535 226.940219 
L 39.590214 226.712898 
L 40.143893 225.892622 
L 40.697559 224.328825 
L 41.251237 224.96167 
L 41.804916 231.424583 
L 42.358582 230.987868 
L 42.912261 228.817403 
L 43.465939 230.648559 
L 44.019605 227.607265 
L 44.573284 232.044385 
L 45.126962 230.03921 
L 45.680641 236.93243 
L 46.234307 230.870461 
L 46.787986 230.154174 
L 47.341664 228.148155 
L 47.89533 238.160601 
L 48.449009 237.682844 
L 49.002688 232.097907 
L 49.556354 232.043166 
L 50.663711 214.185066 
L 51.217377 199.820591 
L 52.324734 182.125674 
L 52.8784 175.059164 
L 53.985757 167.739141 
L 54.539423 166.605772 
L 55.093102 164.969329 
L 56.200447 162.894633 
L 57.307804 161.366525 
L 58.415149 160.112693 
L 60.076172 158.639254 
L 62.290874 156.82475 
L 63.951897 156.02331 
L 65.61292 155.633646 
L 67.273943 155.88026 
L 67.827609 156.016712 
L 68.934967 156.534685 
L 70.042311 157.303694 
L 72.257001 159.811494 
L 77.24007 166.682098 
L 78.901094 168.289937 
L 80.562117 169.279251 
L 81.669474 169.464513 
L 82.22314 169.528911 
L 83.884163 169.0281 
L 85.545187 167.932217 
L 86.652544 167.068854 
L 96.065017 157.276623 
L 98.279707 155.934528 
L 99.94073 155.455722 
L 101.048087 155.52437 
L 102.155419 155.670328 
L 103.262776 156.160502 
L 105.477466 157.660186 
L 107.138489 159.078396 
L 108.245846 160.321896 
L 108.799512 160.93728 
L 112.121559 165.735155 
L 115.443605 171.976036 
L 118.765652 178.756879 
L 122.64139 185.355146 
L 123.748721 186.98138 
L 125.409745 188.914871 
L 126.517102 190.234063 
L 127.624459 191.256274 
L 129.839149 193.101771 
L 130.946506 193.775499 
L 132.053838 194.291405 
L 133.714861 195.166802 
L 136.483242 196.302032 
L 137.036908 196.570504 
L 138.144265 196.873511 
L 140.912645 197.935418 
L 141.466311 197.990151 
L 142.019977 198.353327 
L 143.127335 198.605118 
L 143.681001 198.987169 
L 144.234692 199.222025 
L 145.342024 199.48199 
L 146.449381 199.733353 
L 147.003047 199.988564 
L 147.556738 200.027959 
L 148.66407 200.496619 
L 149.217762 199.607079 
L 150.325094 199.927222 
L 153.093474 200.971756 
L 163.059614 206.085058 
L 164.166971 206.516819 
L 168.042683 207.676422 
L 171.36473 208.174976 
L 176.901466 208.402261 
L 181.330869 208.423118 
L 182.438227 208.382592 
L 184.652916 208.403091 
L 187.421297 208.304733 
L 189.635986 208.175076 
L 191.297009 208.079764 
L 194.06539 207.898393 
L 200.155791 207.600043 
L 201.816814 207.583986 
L 204.031529 207.54199 
L 207.353576 207.554664 
L 213.997669 207.336436 
L 216.212358 207.176763 
L 228.393187 206.208857 
L 231.161567 206.197553 
L 235.03728 206.332265 
L 236.144637 206.364363 
L 238.913017 206.468594 
L 242.235064 206.299696 
L 248.879157 205.505478 
L 253.308535 205.062471 
L 258.291631 204.615383 
L 266.596747 204.047324 
L 272.687149 203.797632 
L 274.901863 203.745622 
L 322.517872 202.75717 
L 331.93032 202.668219 
L 333.037652 202.691234 
L 334.698675 202.633498 
L 348.540552 202.412462 
L 355.738337 202.253863 
L 369.580163 201.933381 
L 370.687546 201.988399 
L 379.546303 201.887589 
L 380.653686 201.880367 
L 381.761017 201.852033 
L 388.958802 201.766396 
L 398.37125 201.508346 
L 398.37125 201.508346 
" clip-path="url(#p8d579327b3)" style="fill: none; stroke: #e83f3f; stroke-linecap: round"/>
   </g>
   <g id="line2d_36">
    <path d="M 25.194683 214.717812 
L 25.748349 207.920927 
L 26.302028 231.101862 
L 26.855707 212.290012 
L 27.409373 206.312887 
L 27.963051 214.110253 
L 28.51673 227.208892 
L 29.624075 213.705446 
L 30.177753 218.15879 
L 30.731419 207.276067 
L 31.285098 211.628122 
L 31.838776 207.302968 
L 32.392442 220.703518 
L 32.946121 211.362912 
L 33.4998 204.663819 
L 34.053466 214.26569 
L 34.607144 218.197497 
L 35.160823 212.805194 
L 35.714489 213.50807 
L 36.268168 206.181496 
L 36.821846 214.715623 
L 37.375512 213.367469 
L 37.929191 209.319553 
L 38.482869 202.438946 
L 39.036535 203.348889 
L 39.590214 209.68496 
L 40.143893 210.134681 
L 40.697559 211.207009 
L 41.251237 205.3295 
L 41.804916 208.810731 
L 42.358582 215.948499 
L 42.912261 210.597636 
L 44.019605 210.683775 
L 44.573284 209.238818 
L 45.126962 209.962711 
L 45.680641 207.646951 
L 46.234307 207.013347 
L 46.787986 210.121791 
L 47.341664 208.828269 
L 47.89533 208.105539 
L 48.449009 208.090841 
L 49.556354 201.042926 
L 50.110032 191.239492 
L 51.771056 134.535425 
L 52.324734 117.565194 
L 53.432079 100.652033 
L 55.093102 91.120808 
L 57.307804 86.28678 
L 60.62985 80.851358 
L 62.84454 78.285261 
L 63.398218 77.788415 
L 64.505563 77.152538 
L 66.166586 77.047831 
L 67.273943 77.534018 
L 67.827609 77.919283 
L 68.934967 79.143052 
L 70.042311 80.810329 
L 71.149656 83.05192 
L 72.810692 87.071862 
L 76.686404 97.32101 
L 77.793762 99.546464 
L 78.901094 101.301382 
L 80.008451 102.555964 
L 81.115808 103.299192 
L 82.22314 103.304331 
L 82.776831 103.240801 
L 83.330497 102.82875 
L 83.884163 102.600249 
L 86.098878 99.943467 
L 87.20621 98.195603 
L 93.296637 87.996757 
L 94.403994 86.434958 
L 96.618683 84.010082 
L 97.172349 83.557786 
L 98.279707 83.227327 
L 98.833373 83.028287 
L 99.387064 83.040986 
L 99.94073 83.226016 
L 100.494396 83.280083 
L 101.048087 83.549443 
L 103.262776 85.687955 
L 104.9238 87.985633 
L 105.477466 89.042601 
L 106.584823 90.838273 
L 109.353203 96.670434 
L 111.014227 100.817289 
L 114.336273 110.922869 
L 118.211986 124.263817 
L 120.426675 131.292634 
L 121.534032 134.566069 
L 124.302413 141.24367 
L 127.070768 146.615055 
L 128.731791 149.009413 
L 132.053838 152.738698 
L 133.714861 154.159117 
L 142.019977 160.237248 
L 142.573669 160.492608 
L 143.127335 161.094161 
L 144.788358 162.00991 
L 145.342024 162.397322 
L 145.895715 162.612023 
L 146.449381 163.077633 
L 147.556738 163.574087 
L 148.110404 164.105808 
L 148.66407 164.262932 
L 149.217762 164.294443 
L 151.432451 165.835717 
L 154.200831 168.058401 
L 155.308163 169.083044 
L 162.505948 175.62413 
L 163.61328 176.523557 
L 167.489017 178.756023 
L 169.150041 179.424332 
L 170.811064 179.832374 
L 176.3478 180.492774 
L 180.777203 180.756492 
L 181.884535 180.850033 
L 185.760273 181.034317 
L 188.528628 180.94526 
L 199.048459 180.602599 
L 204.585195 180.761039 
L 207.907242 180.913416 
L 209.568265 180.899405 
L 211.782954 180.844328 
L 215.105001 180.654408 
L 217.319715 180.478049 
L 218.980738 180.365311 
L 222.856451 180.032473 
L 223.963808 179.882814 
L 225.624831 179.810496 
L 228.946878 179.639091 
L 232.82259 179.777467 
L 237.80566 180.298549 
L 240.020349 180.28419 
L 246.110776 179.613179 
L 256.076916 178.309141 
L 264.382032 177.565452 
L 273.794506 177.325394 
L 285.97536 177.226243 
L 293.173094 177.097427 
L 298.156163 177.029064 
L 301.47821 177.022761 
L 315.873779 176.877555 
L 321.96418 176.799638 
L 328.608273 176.654346 
L 331.93032 176.652083 
L 333.037652 176.674802 
L 334.698675 176.643296 
L 337.467081 176.57396 
L 343.003791 176.457145 
L 346.325838 176.442235 
L 348.540552 176.375897 
L 352.969931 176.322455 
L 357.39936 176.205227 
L 366.258117 176.055558 
L 367.91914 176.088328 
L 378.438971 175.826825 
L 382.868349 175.775877 
L 384.529373 175.696977 
L 388.40511 175.63747 
L 398.37125 175.419517 
L 398.37125 175.419517 
" clip-path="url(#p8d579327b3)" style="fill: none; stroke: #a11a5b; stroke-linecap: round"/>
   </g>
   <g id="line2d_37">
    <path d="M 25.194683 217.818508 
L 25.748349 199.613096 
L 26.302028 203.182089 
L 26.855707 212.662768 
L 27.409373 207.395335 
L 27.963051 211.775438 
L 28.51673 218.286805 
L 29.070396 223.176677 
L 29.624075 199.63167 
L 30.177753 202.514959 
L 30.731419 203.399286 
L 31.285098 207.323805 
L 31.838776 212.731264 
L 32.392442 210.275658 
L 32.946121 226.973756 
L 33.4998 201.785298 
L 34.053466 202.647858 
L 34.607144 212.493907 
L 35.160823 199.971656 
L 35.714489 214.638504 
L 36.821846 203.182317 
L 37.375512 216.178544 
L 37.929191 201.715349 
L 38.482869 203.600072 
L 39.036535 210.416678 
L 39.590214 210.232531 
L 40.143893 208.515073 
L 40.697559 210.149464 
L 41.251237 204.666758 
L 41.804916 205.685908 
L 42.358582 204.769552 
L 42.912261 208.521275 
L 43.465939 203.698582 
L 44.019605 205.152702 
L 44.573284 210.472056 
L 45.126962 208.881294 
L 45.680641 203.466296 
L 46.234307 209.114368 
L 46.787986 208.773383 
L 47.341664 206.399602 
L 47.89533 205.379474 
L 48.449009 205.31349 
L 49.002688 200.831736 
L 49.556354 198.027579 
L 50.663711 160.795626 
L 51.771056 108.226592 
L 52.324734 88.663247 
L 52.8784 73.14279 
L 53.432079 63.218031 
L 53.985757 56.660967 
L 55.646781 47.232356 
L 56.200447 45.726422 
L 56.754125 43.590785 
L 60.076172 35.715101 
L 62.290874 31.421559 
L 63.398218 30.14697 
L 64.505563 29.136804 
L 65.059242 28.887947 
L 66.166586 28.905797 
L 66.720265 29.152623 
L 67.273943 29.536218 
L 68.381288 30.983168 
L 69.488633 33.02078 
L 70.59599 35.868725 
L 71.703335 39.219924 
L 73.364358 45.423551 
L 75.579047 54.045869 
L 77.24007 59.526296 
L 78.347428 62.486858 
L 78.901094 63.791372 
L 80.008451 65.605336 
L 81.115808 66.69627 
L 81.669474 66.93377 
L 82.776831 67.058124 
L 83.884163 66.228461 
L 84.991521 64.931603 
L 86.652544 61.865784 
L 87.759901 59.491993 
L 92.18928 50.169844 
L 93.296637 48.163807 
L 94.403994 46.382052 
L 95.511326 44.860552 
L 96.065017 44.387266 
L 96.618683 43.706871 
L 97.726041 43.106502 
L 98.279707 42.855911 
L 99.94073 43.156476 
L 100.494396 43.46438 
L 101.601753 44.546833 
L 102.70911 46.198376 
L 104.370134 49.371841 
L 107.138489 56.256456 
L 108.245846 59.505422 
L 109.906869 64.871012 
L 111.567893 70.756648 
L 113.782582 79.608365 
L 120.980366 110.247655 
L 122.087698 114.253268 
L 123.748721 119.473704 
L 126.517102 126.867336 
L 129.285483 132.47475 
L 130.392814 134.236319 
L 130.946506 134.858259 
L 131.500172 135.831712 
L 133.714861 138.499618 
L 134.268552 139.210933 
L 135.375884 140.240419 
L 135.929576 140.949196 
L 137.036908 141.932081 
L 138.697931 143.615262 
L 139.251622 144.080724 
L 140.358954 145.21626 
L 140.912645 145.593383 
L 142.019977 146.725292 
L 142.573669 147.115581 
L 144.234692 148.657478 
L 145.895715 149.949959 
L 147.003047 150.840202 
L 148.66407 152.153398 
L 149.217762 152.107219 
L 152.539808 155.065687 
L 160.291233 163.440311 
L 162.505948 165.618435 
L 165.827994 168.24434 
L 168.042683 169.514202 
L 169.150041 170.003086 
L 170.811064 170.580254 
L 171.918396 170.908038 
L 174.686776 171.338519 
L 184.652916 172.19218 
L 188.528628 172.231829 
L 190.743343 172.175764 
L 193.511698 172.051827 
L 196.280079 172.044341 
L 201.816814 172.056364 
L 206.246218 172.244952 
L 207.907242 172.312268 
L 215.105001 172.162472 
L 229.500544 171.112794 
L 232.82259 171.241415 
L 237.80566 171.713528 
L 242.235064 171.484498 
L 245.55711 170.955416 
L 247.218134 170.705053 
L 258.845297 169.077693 
L 269.918793 168.20586 
L 275.455529 168.105711 
L 279.331242 168.053378 
L 293.726785 167.722042 
L 298.156163 167.661937 
L 299.817187 167.628237 
L 302.585592 167.561692 
L 307.568662 167.479287 
L 313.105373 167.3385 
L 336.91339 166.601067 
L 339.128104 166.507399 
L 371.794878 164.630316 
L 375.670616 164.365915 
L 398.37125 163.57856 
L 398.37125 163.57856 
" clip-path="url(#p8d579327b3)" style="fill: none; stroke: #4c1d4b; stroke-linecap: round"/>
   </g>
   <g id="line2d_38"/>
   <g id="line2d_39"/>
   <g id="line2d_40"/>
   <g id="line2d_41"/>
   <g id="patch_3">
    <path d="M 41.25125 277.248797 
L 41.25125 11.136797 
" style="fill: none; stroke: #262626; stroke-width: 1.25; stroke-linejoin: miter; stroke-linecap: square"/>
   </g>
   <g id="patch_4">
    <path d="M 41.25125 277.248797 
L 398.37125 277.248797 
" style="fill: none; stroke: #262626; stroke-width: 1.25; stroke-linejoin: miter; stroke-linecap: square"/>
   </g>
   <g id="legend_1">
    <g id="line2d_42">
     <path d="M 296.63525 98.638209 
L 302.63525 98.638209 
L 308.63525 98.638209 
" style="fill: none; stroke: #f69c73; stroke-width: 1.5; stroke-linecap: round"/>
    </g>
    <g id="text_20">
     <!-- laccase enzyme _ model compound (0.34 mg_ml) time 0hrs_Abs -->
     <g style="fill: #262626" transform="translate(313.43525 100.738209) scale(0.06 -0.06)">
      <defs>
       <path id="ArialMT-7a" d="M 125 0 
L 125 456 
L 2238 2881 
Q 1878 2863 1603 2863 
L 250 2863 
L 250 3319 
L 2963 3319 
L 2963 2947 
L 1166 841 
L 819 456 
Q 1197 484 1528 484 
L 3063 484 
L 3063 0 
L 125 0 
z
" transform="scale(0.015625)"/>
       <path id="ArialMT-79" d="M 397 -1278 
L 334 -750 
Q 519 -800 656 -800 
Q 844 -800 956 -737 
Q 1069 -675 1141 -563 
Q 1194 -478 1313 -144 
Q 1328 -97 1363 -6 
L 103 3319 
L 709 3319 
L 1400 1397 
Q 1534 1031 1641 628 
Q 1738 1016 1872 1384 
L 2581 3319 
L 3144 3319 
L 1881 -56 
Q 1678 -603 1566 -809 
Q 1416 -1088 1222 -1217 
Q 1028 -1347 759 -1347 
Q 597 -1347 397 -1278 
z
" transform="scale(0.015625)"/>
       <path id="ArialMT-5f" d="M -97 -1272 
L -97 -866 
L 3631 -866 
L 3631 -1272 
L -97 -1272 
z
" transform="scale(0.015625)"/>
       <path id="ArialMT-64" d="M 2575 0 
L 2575 419 
Q 2259 -75 1647 -75 
Q 1250 -75 917 144 
Q 584 363 401 755 
Q 219 1147 219 1656 
Q 219 2153 384 2558 
Q 550 2963 881 3178 
Q 1213 3394 1622 3394 
Q 1922 3394 2156 3267 
Q 2391 3141 2538 2938 
L 2538 4581 
L 3097 4581 
L 3097 0 
L 2575 0 
z
M 797 1656 
Q 797 1019 1065 703 
Q 1334 388 1700 388 
Q 2069 388 2326 689 
Q 2584 991 2584 1609 
Q 2584 2291 2321 2609 
Q 2059 2928 1675 2928 
Q 1300 2928 1048 2622 
Q 797 2316 797 1656 
z
" transform="scale(0.015625)"/>
       <path id="ArialMT-70" d="M 422 -1272 
L 422 3319 
L 934 3319 
L 934 2888 
Q 1116 3141 1344 3267 
Q 1572 3394 1897 3394 
Q 2322 3394 2647 3175 
Q 2972 2956 3137 2557 
Q 3303 2159 3303 1684 
Q 3303 1175 3120 767 
Q 2938 359 2589 142 
Q 2241 -75 1856 -75 
Q 1575 -75 1351 44 
Q 1128 163 984 344 
L 984 -1272 
L 422 -1272 
z
M 931 1641 
Q 931 1000 1190 694 
Q 1450 388 1819 388 
Q 2194 388 2461 705 
Q 2728 1022 2728 1688 
Q 2728 2322 2467 2637 
Q 2206 2953 1844 2953 
Q 1484 2953 1207 2617 
Q 931 2281 931 1641 
z
" transform="scale(0.015625)"/>
       <path id="ArialMT-69" d="M 425 3934 
L 425 4581 
L 988 4581 
L 988 3934 
L 425 3934 
z
M 425 0 
L 425 3319 
L 988 3319 
L 988 0 
L 425 0 
z
" transform="scale(0.015625)"/>
      </defs>
      <use xlink:href="#ArialMT-6c"/>
      <use xlink:href="#ArialMT-61" x="22.216797"/>
      <use xlink:href="#ArialMT-63" x="77.832031"/>
      <use xlink:href="#ArialMT-63" x="127.832031"/>
      <use xlink:href="#ArialMT-61" x="177.832031"/>
      <use xlink:href="#ArialMT-73" x="233.447266"/>
      <use xlink:href="#ArialMT-65" x="283.447266"/>
      <use xlink:href="#ArialMT-20" x="339.0625"/>
      <use xlink:href="#ArialMT-65" x="366.845703"/>
      <use xlink:href="#ArialMT-6e" x="422.460938"/>
      <use xlink:href="#ArialMT-7a" x="478.076172"/>
      <use xlink:href="#ArialMT-79" x="528.076172"/>
      <use xlink:href="#ArialMT-6d" x="578.076172"/>
      <use xlink:href="#ArialMT-65" x="661.376953"/>
      <use xlink:href="#ArialMT-20" x="716.992188"/>
      <use xlink:href="#ArialMT-5f" x="744.775391"/>
      <use xlink:href="#ArialMT-20" x="800.390625"/>
      <use xlink:href="#ArialMT-6d" x="828.173828"/>
      <use xlink:href="#ArialMT-6f" x="911.474609"/>
      <use xlink:href="#ArialMT-64" x="967.089844"/>
      <use xlink:href="#ArialMT-65" x="1022.705078"/>
      <use xlink:href="#ArialMT-6c" x="1078.320312"/>
      <use xlink:href="#ArialMT-20" x="1100.537109"/>
      <use xlink:href="#ArialMT-63" x="1128.320312"/>
      <use xlink:href="#ArialMT-6f" x="1178.320312"/>
      <use xlink:href="#ArialMT-6d" x="1233.935547"/>
      <use xlink:href="#ArialMT-70" x="1317.236328"/>
      <use xlink:href="#ArialMT-6f" x="1372.851562"/>
      <use xlink:href="#ArialMT-75" x="1428.466797"/>
      <use xlink:href="#ArialMT-6e" x="1484.082031"/>
      <use xlink:href="#ArialMT-64" x="1539.697266"/>
      <use xlink:href="#ArialMT-20" x="1595.3125"/>
      <use xlink:href="#ArialMT-28" x="1623.095703"/>
      <use xlink:href="#ArialMT-30" x="1656.396484"/>
      <use xlink:href="#ArialMT-2e" x="1712.011719"/>
      <use xlink:href="#ArialMT-33" x="1739.794922"/>
      <use xlink:href="#ArialMT-34" x="1795.410156"/>
      <use xlink:href="#ArialMT-20" x="1851.025391"/>
      <use xlink:href="#ArialMT-6d" x="1878.808594"/>
      <use xlink:href="#ArialMT-67" x="1962.109375"/>
      <use xlink:href="#ArialMT-5f" x="2017.724609"/>
      <use xlink:href="#ArialMT-6d" x="2073.339844"/>
      <use xlink:href="#ArialMT-6c" x="2156.640625"/>
      <use xlink:href="#ArialMT-29" x="2178.857422"/>
      <use xlink:href="#ArialMT-20" x="2212.158203"/>
      <use xlink:href="#ArialMT-74" x="2239.941406"/>
      <use xlink:href="#ArialMT-69" x="2267.724609"/>
      <use xlink:href="#ArialMT-6d" x="2289.941406"/>
      <use xlink:href="#ArialMT-65" x="2373.242188"/>
      <use xlink:href="#ArialMT-20" x="2428.857422"/>
      <use xlink:href="#ArialMT-30" x="2456.640625"/>
      <use xlink:href="#ArialMT-68" x="2512.255859"/>
      <use xlink:href="#ArialMT-72" x="2567.871094"/>
      <use xlink:href="#ArialMT-73" x="2601.171875"/>
      <use xlink:href="#ArialMT-5f" x="2651.171875"/>
      <use xlink:href="#ArialMT-41" x="2706.787109"/>
      <use xlink:href="#ArialMT-62" x="2773.486328"/>
      <use xlink:href="#ArialMT-73" x="2829.101562"/>
     </g>
    </g>
    <g id="line2d_43">
     <path d="M 296.63525 107.213522 
L 302.63525 107.213522 
L 308.63525 107.213522 
" style="fill: none; stroke: #e83f3f; stroke-width: 1.5; stroke-linecap: round"/>
    </g>
    <g id="text_21">
     <!-- AU-030-A1 + enzyme time 4hrs_Abs -->
     <g style="fill: #262626" transform="translate(313.43525 109.313522) scale(0.06 -0.06)">
      <defs>
       <path id="ArialMT-55" d="M 3500 4581 
L 4106 4581 
L 4106 1934 
Q 4106 1244 3950 837 
Q 3794 431 3386 176 
Q 2978 -78 2316 -78 
Q 1672 -78 1262 144 
Q 853 366 678 786 
Q 503 1206 503 1934 
L 503 4581 
L 1109 4581 
L 1109 1938 
Q 1109 1341 1220 1058 
Q 1331 775 1601 622 
Q 1872 469 2263 469 
Q 2931 469 3215 772 
Q 3500 1075 3500 1938 
L 3500 4581 
z
" transform="scale(0.015625)"/>
       <path id="ArialMT-2d" d="M 203 1375 
L 203 1941 
L 1931 1941 
L 1931 1375 
L 203 1375 
z
" transform="scale(0.015625)"/>
       <path id="ArialMT-2b" d="M 1603 741 
L 1603 1997 
L 356 1997 
L 356 2522 
L 1603 2522 
L 1603 3769 
L 2134 3769 
L 2134 2522 
L 3381 2522 
L 3381 1997 
L 2134 1997 
L 2134 741 
L 1603 741 
z
" transform="scale(0.015625)"/>
      </defs>
      <use xlink:href="#ArialMT-41"/>
      <use xlink:href="#ArialMT-55" x="66.699219"/>
      <use xlink:href="#ArialMT-2d" x="138.916016"/>
      <use xlink:href="#ArialMT-30" x="172.216797"/>
      <use xlink:href="#ArialMT-33" x="227.832031"/>
      <use xlink:href="#ArialMT-30" x="283.447266"/>
      <use xlink:href="#ArialMT-2d" x="339.0625"/>
      <use xlink:href="#ArialMT-41" x="372.363281"/>
      <use xlink:href="#ArialMT-31" x="439.0625"/>
      <use xlink:href="#ArialMT-20" x="494.677734"/>
      <use xlink:href="#ArialMT-2b" x="522.460938"/>
      <use xlink:href="#ArialMT-20" x="580.859375"/>
      <use xlink:href="#ArialMT-65" x="608.642578"/>
      <use xlink:href="#ArialMT-6e" x="664.257812"/>
      <use xlink:href="#ArialMT-7a" x="719.873047"/>
      <use xlink:href="#ArialMT-79" x="769.873047"/>
      <use xlink:href="#ArialMT-6d" x="819.873047"/>
      <use xlink:href="#ArialMT-65" x="903.173828"/>
      <use xlink:href="#ArialMT-20" x="958.789062"/>
      <use xlink:href="#ArialMT-74" x="986.572266"/>
      <use xlink:href="#ArialMT-69" x="1014.355469"/>
      <use xlink:href="#ArialMT-6d" x="1036.572266"/>
      <use xlink:href="#ArialMT-65" x="1119.873047"/>
      <use xlink:href="#ArialMT-20" x="1175.488281"/>
      <use xlink:href="#ArialMT-34" x="1203.271484"/>
      <use xlink:href="#ArialMT-68" x="1258.886719"/>
      <use xlink:href="#ArialMT-72" x="1314.501953"/>
      <use xlink:href="#ArialMT-73" x="1347.802734"/>
      <use xlink:href="#ArialMT-5f" x="1397.802734"/>
      <use xlink:href="#ArialMT-41" x="1453.417969"/>
      <use xlink:href="#ArialMT-62" x="1520.117188"/>
      <use xlink:href="#ArialMT-73" x="1575.732422"/>
     </g>
    </g>
    <g id="line2d_44">
     <path d="M 296.63525 115.788834 
L 302.63525 115.788834 
L 308.63525 115.788834 
" style="fill: none; stroke: #a11a5b; stroke-width: 1.5; stroke-linecap: round"/>
    </g>
    <g id="text_22">
     <!-- 2023_10_26_AU-030-A1 + enzyme 23 hrs_Abs -->
     <g style="fill: #262626" transform="translate(313.43525 117.888834) scale(0.06 -0.06)">
      <use xlink:href="#ArialMT-32"/>
      <use xlink:href="#ArialMT-30" x="55.615234"/>
      <use xlink:href="#ArialMT-32" x="111.230469"/>
      <use xlink:href="#ArialMT-33" x="166.845703"/>
      <use xlink:href="#ArialMT-5f" x="222.460938"/>
      <use xlink:href="#ArialMT-31" x="278.076172"/>
      <use xlink:href="#ArialMT-30" x="333.691406"/>
      <use xlink:href="#ArialMT-5f" x="389.306641"/>
      <use xlink:href="#ArialMT-32" x="444.921875"/>
      <use xlink:href="#ArialMT-36" x="500.537109"/>
      <use xlink:href="#ArialMT-5f" x="556.152344"/>
      <use xlink:href="#ArialMT-41" x="611.767578"/>
      <use xlink:href="#ArialMT-55" x="678.466797"/>
      <use xlink:href="#ArialMT-2d" x="750.683594"/>
      <use xlink:href="#ArialMT-30" x="783.984375"/>
      <use xlink:href="#ArialMT-33" x="839.599609"/>
      <use xlink:href="#ArialMT-30" x="895.214844"/>
      <use xlink:href="#ArialMT-2d" x="950.830078"/>
      <use xlink:href="#ArialMT-41" x="984.130859"/>
      <use xlink:href="#ArialMT-31" x="1050.830078"/>
      <use xlink:href="#ArialMT-20" x="1106.445312"/>
      <use xlink:href="#ArialMT-2b" x="1134.228516"/>
      <use xlink:href="#ArialMT-20" x="1192.626953"/>
      <use xlink:href="#ArialMT-65" x="1220.410156"/>
      <use xlink:href="#ArialMT-6e" x="1276.025391"/>
      <use xlink:href="#ArialMT-7a" x="1331.640625"/>
      <use xlink:href="#ArialMT-79" x="1381.640625"/>
      <use xlink:href="#ArialMT-6d" x="1431.640625"/>
      <use xlink:href="#ArialMT-65" x="1514.941406"/>
      <use xlink:href="#ArialMT-20" x="1570.556641"/>
      <use xlink:href="#ArialMT-32" x="1598.339844"/>
      <use xlink:href="#ArialMT-33" x="1653.955078"/>
      <use xlink:href="#ArialMT-20" x="1709.570312"/>
      <use xlink:href="#ArialMT-68" x="1737.353516"/>
      <use xlink:href="#ArialMT-72" x="1792.96875"/>
      <use xlink:href="#ArialMT-73" x="1826.269531"/>
      <use xlink:href="#ArialMT-5f" x="1876.269531"/>
      <use xlink:href="#ArialMT-41" x="1931.884766"/>
      <use xlink:href="#ArialMT-62" x="1998.583984"/>
      <use xlink:href="#ArialMT-73" x="2054.199219"/>
     </g>
    </g>
    <g id="line2d_45">
     <path d="M 296.63525 124.364147 
L 302.63525 124.364147 
L 308.63525 124.364147 
" style="fill: none; stroke: #4c1d4b; stroke-width: 1.5; stroke-linecap: round"/>
    </g>
    <g id="text_23">
     <!-- AU-030-A1 + enzyme 48 hrs_Abs -->
     <g style="fill: #262626" transform="translate(313.43525 126.464147) scale(0.06 -0.06)">
      <defs>
       <path id="ArialMT-38" d="M 1131 2484 
Q 781 2613 612 2850 
Q 444 3088 444 3419 
Q 444 3919 803 4259 
Q 1163 4600 1759 4600 
Q 2359 4600 2725 4251 
Q 3091 3903 3091 3403 
Q 3091 3084 2923 2848 
Q 2756 2613 2416 2484 
Q 2838 2347 3058 2040 
Q 3278 1734 3278 1309 
Q 3278 722 2862 322 
Q 2447 -78 1769 -78 
Q 1091 -78 675 323 
Q 259 725 259 1325 
Q 259 1772 486 2073 
Q 713 2375 1131 2484 
z
M 1019 3438 
Q 1019 3113 1228 2906 
Q 1438 2700 1772 2700 
Q 2097 2700 2305 2904 
Q 2513 3109 2513 3406 
Q 2513 3716 2298 3927 
Q 2084 4138 1766 4138 
Q 1444 4138 1231 3931 
Q 1019 3725 1019 3438 
z
M 838 1322 
Q 838 1081 952 856 
Q 1066 631 1291 507 
Q 1516 384 1775 384 
Q 2178 384 2440 643 
Q 2703 903 2703 1303 
Q 2703 1709 2433 1975 
Q 2163 2241 1756 2241 
Q 1359 2241 1098 1978 
Q 838 1716 838 1322 
z
" transform="scale(0.015625)"/>
      </defs>
      <use xlink:href="#ArialMT-41"/>
      <use xlink:href="#ArialMT-55" x="66.699219"/>
      <use xlink:href="#ArialMT-2d" x="138.916016"/>
      <use xlink:href="#ArialMT-30" x="172.216797"/>
      <use xlink:href="#ArialMT-33" x="227.832031"/>
      <use xlink:href="#ArialMT-30" x="283.447266"/>
      <use xlink:href="#ArialMT-2d" x="339.0625"/>
      <use xlink:href="#ArialMT-41" x="372.363281"/>
      <use xlink:href="#ArialMT-31" x="439.0625"/>
      <use xlink:href="#ArialMT-20" x="494.677734"/>
      <use xlink:href="#ArialMT-2b" x="522.460938"/>
      <use xlink:href="#ArialMT-20" x="580.859375"/>
      <use xlink:href="#ArialMT-65" x="608.642578"/>
      <use xlink:href="#ArialMT-6e" x="664.257812"/>
      <use xlink:href="#ArialMT-7a" x="719.873047"/>
      <use xlink:href="#ArialMT-79" x="769.873047"/>
      <use xlink:href="#ArialMT-6d" x="819.873047"/>
      <use xlink:href="#ArialMT-65" x="903.173828"/>
      <use xlink:href="#ArialMT-20" x="958.789062"/>
      <use xlink:href="#ArialMT-34" x="986.572266"/>
      <use xlink:href="#ArialMT-38" x="1042.1875"/>
      <use xlink:href="#ArialMT-20" x="1097.802734"/>
      <use xlink:href="#ArialMT-68" x="1125.585938"/>
      <use xlink:href="#ArialMT-72" x="1181.201172"/>
      <use xlink:href="#ArialMT-73" x="1214.501953"/>
      <use xlink:href="#ArialMT-5f" x="1264.501953"/>
      <use xlink:href="#ArialMT-41" x="1320.117188"/>
      <use xlink:href="#ArialMT-62" x="1386.816406"/>
      <use xlink:href="#ArialMT-73" x="1442.431641"/>
     </g>
    </g>
   </g>
  </g>
 </g>
 <defs>
  <clipPath id="p8d579327b3">
   <rect x="41.25125" y="11.136797" width="357.12" height="266.112"/>
  </clipPath>
 </defs>
</svg>
