<?xml version="1.0" encoding="utf-8" standalone="no"?>
<!DOCTYPE svg PUBLIC "-//W3C//DTD SVG 1.1//EN"
  "http://www.w3.org/Graphics/SVG/1.1/DTD/svg11.dtd">
<svg xmlns:xlink="http://www.w3.org/1999/xlink" width="426.980859pt" height="313.269891pt" viewBox="0 0 426.980859 313.269891" xmlns="http://www.w3.org/2000/svg" version="1.1">
 <metadata>
  <rdf:RDF xmlns:dc="http://purl.org/dc/elements/1.1/" xmlns:cc="http://creativecommons.org/ns#" xmlns:rdf="http://www.w3.org/1999/02/22-rdf-syntax-ns#">
   <cc:Work>
    <dc:type rdf:resource="http://purl.org/dc/dcmitype/StillImage"/>
    <dc:date>2024-02-09T05:47:28.315096</dc:date>
    <dc:format>image/svg+xml</dc:format>
    <dc:creator>
     <cc:Agent>
      <dc:title>Matplotlib v3.7.1, https://matplotlib.org/</dc:title>
     </cc:Agent>
    </dc:creator>
   </cc:Work>
  </rdf:RDF>
 </metadata>
 <defs>
  <style type="text/css">*{stroke-linejoin: round; stroke-linecap: butt}</style>
 </defs>
 <g id="figure_1">
  <g id="patch_1">
   <path d="M 0 313.269891 
L 426.980859 313.269891 
L 426.980859 0 
L 0 0 
z
" style="fill: #ffffff"/>
  </g>
  <g id="axes_1">
   <g id="patch_2">
    <path d="M 53.485313 277.248797 
L 410.605313 277.248797 
L 410.605313 11.136797 
L 53.485313 11.136797 
z
" style="fill: #ffffff"/>
   </g>
   <g id="matplotlib.axis_1">
    <g id="xtick_1">
     <g id="line2d_1">
      <defs>
       <path id="mfcef239cfe" d="M 0 0 
L 0 -6 
" style="stroke: #262626; stroke-width: 1.25"/>
      </defs>
      <g>
       <use xlink:href="#mfcef239cfe" x="78.400661" y="277.248797" style="fill: #262626; stroke: #262626; stroke-width: 1.25"/>
      </g>
     </g>
     <g id="text_1">
      <!-- 250 -->
      <g style="fill: #262626" transform="translate(69.225114 288.622391) scale(0.11 -0.11)">
       <defs>
        <path id="ArialMT-32" d="M 3222 541 
L 3222 0 
L 194 0 
Q 188 203 259 391 
Q 375 700 629 1000 
Q 884 1300 1366 1694 
Q 2113 2306 2375 2664 
Q 2638 3022 2638 3341 
Q 2638 3675 2398 3904 
Q 2159 4134 1775 4134 
Q 1369 4134 1125 3890 
Q 881 3647 878 3216 
L 300 3275 
Q 359 3922 746 4261 
Q 1134 4600 1788 4600 
Q 2447 4600 2831 4234 
Q 3216 3869 3216 3328 
Q 3216 3053 3103 2787 
Q 2991 2522 2730 2228 
Q 2469 1934 1863 1422 
Q 1356 997 1212 845 
Q 1069 694 975 541 
L 3222 541 
z
" transform="scale(0.015625)"/>
        <path id="ArialMT-35" d="M 266 1200 
L 856 1250 
Q 922 819 1161 601 
Q 1400 384 1738 384 
Q 2144 384 2425 690 
Q 2706 997 2706 1503 
Q 2706 1984 2436 2262 
Q 2166 2541 1728 2541 
Q 1456 2541 1237 2417 
Q 1019 2294 894 2097 
L 366 2166 
L 809 4519 
L 3088 4519 
L 3088 3981 
L 1259 3981 
L 1013 2750 
Q 1425 3038 1878 3038 
Q 2478 3038 2890 2622 
Q 3303 2206 3303 1553 
Q 3303 931 2941 478 
Q 2500 -78 1738 -78 
Q 1113 -78 717 272 
Q 322 622 266 1200 
z
" transform="scale(0.015625)"/>
        <path id="ArialMT-30" d="M 266 2259 
Q 266 3072 433 3567 
Q 600 4063 929 4331 
Q 1259 4600 1759 4600 
Q 2128 4600 2406 4451 
Q 2684 4303 2865 4023 
Q 3047 3744 3150 3342 
Q 3253 2941 3253 2259 
Q 3253 1453 3087 958 
Q 2922 463 2592 192 
Q 2263 -78 1759 -78 
Q 1097 -78 719 397 
Q 266 969 266 2259 
z
M 844 2259 
Q 844 1131 1108 757 
Q 1372 384 1759 384 
Q 2147 384 2411 759 
Q 2675 1134 2675 2259 
Q 2675 3391 2411 3762 
Q 2147 4134 1753 4134 
Q 1366 4134 1134 3806 
Q 844 3388 844 2259 
z
" transform="scale(0.015625)"/>
       </defs>
       <use xlink:href="#ArialMT-32"/>
       <use xlink:href="#ArialMT-35" x="55.615234"/>
       <use xlink:href="#ArialMT-30" x="111.230469"/>
      </g>
     </g>
    </g>
    <g id="xtick_2">
     <g id="line2d_2">
      <g>
       <use xlink:href="#mfcef239cfe" x="119.926243" y="277.248797" style="fill: #262626; stroke: #262626; stroke-width: 1.25"/>
      </g>
     </g>
     <g id="text_2">
      <!-- 300 -->
      <g style="fill: #262626" transform="translate(110.750696 288.622391) scale(0.11 -0.11)">
       <defs>
        <path id="ArialMT-33" d="M 269 1209 
L 831 1284 
Q 928 806 1161 595 
Q 1394 384 1728 384 
Q 2125 384 2398 659 
Q 2672 934 2672 1341 
Q 2672 1728 2419 1979 
Q 2166 2231 1775 2231 
Q 1616 2231 1378 2169 
L 1441 2663 
Q 1497 2656 1531 2656 
Q 1891 2656 2178 2843 
Q 2466 3031 2466 3422 
Q 2466 3731 2256 3934 
Q 2047 4138 1716 4138 
Q 1388 4138 1169 3931 
Q 950 3725 888 3313 
L 325 3413 
Q 428 3978 793 4289 
Q 1159 4600 1703 4600 
Q 2078 4600 2393 4439 
Q 2709 4278 2876 4000 
Q 3044 3722 3044 3409 
Q 3044 3113 2884 2869 
Q 2725 2625 2413 2481 
Q 2819 2388 3044 2092 
Q 3269 1797 3269 1353 
Q 3269 753 2831 336 
Q 2394 -81 1725 -81 
Q 1122 -81 723 278 
Q 325 638 269 1209 
z
" transform="scale(0.015625)"/>
       </defs>
       <use xlink:href="#ArialMT-33"/>
       <use xlink:href="#ArialMT-30" x="55.615234"/>
       <use xlink:href="#ArialMT-30" x="111.230469"/>
      </g>
     </g>
    </g>
    <g id="xtick_3">
     <g id="line2d_3">
      <g>
       <use xlink:href="#mfcef239cfe" x="161.451824" y="277.248797" style="fill: #262626; stroke: #262626; stroke-width: 1.25"/>
      </g>
     </g>
     <g id="text_3">
      <!-- 350 -->
      <g style="fill: #262626" transform="translate(152.276277 288.622391) scale(0.11 -0.11)">
       <use xlink:href="#ArialMT-33"/>
       <use xlink:href="#ArialMT-35" x="55.615234"/>
       <use xlink:href="#ArialMT-30" x="111.230469"/>
      </g>
     </g>
    </g>
    <g id="xtick_4">
     <g id="line2d_4">
      <g>
       <use xlink:href="#mfcef239cfe" x="202.977406" y="277.248797" style="fill: #262626; stroke: #262626; stroke-width: 1.25"/>
      </g>
     </g>
     <g id="text_4">
      <!-- 400 -->
      <g style="fill: #262626" transform="translate(193.801859 288.622391) scale(0.11 -0.11)">
       <defs>
        <path id="ArialMT-34" d="M 2069 0 
L 2069 1097 
L 81 1097 
L 81 1613 
L 2172 4581 
L 2631 4581 
L 2631 1613 
L 3250 1613 
L 3250 1097 
L 2631 1097 
L 2631 0 
L 2069 0 
z
M 2069 1613 
L 2069 3678 
L 634 1613 
L 2069 1613 
z
" transform="scale(0.015625)"/>
       </defs>
       <use xlink:href="#ArialMT-34"/>
       <use xlink:href="#ArialMT-30" x="55.615234"/>
       <use xlink:href="#ArialMT-30" x="111.230469"/>
      </g>
     </g>
    </g>
    <g id="xtick_5">
     <g id="line2d_5">
      <g>
       <use xlink:href="#mfcef239cfe" x="244.502987" y="277.248797" style="fill: #262626; stroke: #262626; stroke-width: 1.25"/>
      </g>
     </g>
     <g id="text_5">
      <!-- 450 -->
      <g style="fill: #262626" transform="translate(235.32744 288.622391) scale(0.11 -0.11)">
       <use xlink:href="#ArialMT-34"/>
       <use xlink:href="#ArialMT-35" x="55.615234"/>
       <use xlink:href="#ArialMT-30" x="111.230469"/>
      </g>
     </g>
    </g>
    <g id="xtick_6">
     <g id="line2d_6">
      <g>
       <use xlink:href="#mfcef239cfe" x="286.028568" y="277.248797" style="fill: #262626; stroke: #262626; stroke-width: 1.25"/>
      </g>
     </g>
     <g id="text_6">
      <!-- 500 -->
      <g style="fill: #262626" transform="translate(276.853021 288.622391) scale(0.11 -0.11)">
       <use xlink:href="#ArialMT-35"/>
       <use xlink:href="#ArialMT-30" x="55.615234"/>
       <use xlink:href="#ArialMT-30" x="111.230469"/>
      </g>
     </g>
    </g>
    <g id="xtick_7">
     <g id="line2d_7">
      <g>
       <use xlink:href="#mfcef239cfe" x="327.55415" y="277.248797" style="fill: #262626; stroke: #262626; stroke-width: 1.25"/>
      </g>
     </g>
     <g id="text_7">
      <!-- 550 -->
      <g style="fill: #262626" transform="translate(318.378603 288.622391) scale(0.11 -0.11)">
       <use xlink:href="#ArialMT-35"/>
       <use xlink:href="#ArialMT-35" x="55.615234"/>
       <use xlink:href="#ArialMT-30" x="111.230469"/>
      </g>
     </g>
    </g>
    <g id="xtick_8">
     <g id="line2d_8">
      <g>
       <use xlink:href="#mfcef239cfe" x="369.079731" y="277.248797" style="fill: #262626; stroke: #262626; stroke-width: 1.25"/>
      </g>
     </g>
     <g id="text_8">
      <!-- 600 -->
      <g style="fill: #262626" transform="translate(359.904184 288.622391) scale(0.11 -0.11)">
       <defs>
        <path id="ArialMT-36" d="M 3184 3459 
L 2625 3416 
Q 2550 3747 2413 3897 
Q 2184 4138 1850 4138 
Q 1581 4138 1378 3988 
Q 1113 3794 959 3422 
Q 806 3050 800 2363 
Q 1003 2672 1297 2822 
Q 1591 2972 1913 2972 
Q 2475 2972 2870 2558 
Q 3266 2144 3266 1488 
Q 3266 1056 3080 686 
Q 2894 316 2569 119 
Q 2244 -78 1831 -78 
Q 1128 -78 684 439 
Q 241 956 241 2144 
Q 241 3472 731 4075 
Q 1159 4600 1884 4600 
Q 2425 4600 2770 4297 
Q 3116 3994 3184 3459 
z
M 888 1484 
Q 888 1194 1011 928 
Q 1134 663 1356 523 
Q 1578 384 1822 384 
Q 2178 384 2434 671 
Q 2691 959 2691 1453 
Q 2691 1928 2437 2201 
Q 2184 2475 1800 2475 
Q 1419 2475 1153 2201 
Q 888 1928 888 1484 
z
" transform="scale(0.015625)"/>
       </defs>
       <use xlink:href="#ArialMT-36"/>
       <use xlink:href="#ArialMT-30" x="55.615234"/>
       <use xlink:href="#ArialMT-30" x="111.230469"/>
      </g>
     </g>
    </g>
    <g id="xtick_9">
     <g id="line2d_9">
      <g>
       <use xlink:href="#mfcef239cfe" x="410.605312" y="277.248797" style="fill: #262626; stroke: #262626; stroke-width: 1.25"/>
      </g>
     </g>
     <g id="text_9">
      <!-- 650 -->
      <g style="fill: #262626" transform="translate(401.429766 288.622391) scale(0.11 -0.11)">
       <use xlink:href="#ArialMT-36"/>
       <use xlink:href="#ArialMT-35" x="55.615234"/>
       <use xlink:href="#ArialMT-30" x="111.230469"/>
      </g>
     </g>
    </g>
    <g id="xtick_10">
     <g id="line2d_10">
      <defs>
       <path id="m98c0edbf57" d="M 0 0 
L 0 -4 
" style="stroke: #262626"/>
      </defs>
      <g>
       <use xlink:href="#m98c0edbf57" x="57.637871" y="277.248797" style="fill: #262626; stroke: #262626"/>
      </g>
     </g>
    </g>
    <g id="xtick_11">
     <g id="line2d_11">
      <g>
       <use xlink:href="#m98c0edbf57" x="99.163452" y="277.248797" style="fill: #262626; stroke: #262626"/>
      </g>
     </g>
    </g>
    <g id="xtick_12">
     <g id="line2d_12">
      <g>
       <use xlink:href="#m98c0edbf57" x="140.689033" y="277.248797" style="fill: #262626; stroke: #262626"/>
      </g>
     </g>
    </g>
    <g id="xtick_13">
     <g id="line2d_13">
      <g>
       <use xlink:href="#m98c0edbf57" x="182.214615" y="277.248797" style="fill: #262626; stroke: #262626"/>
      </g>
     </g>
    </g>
    <g id="xtick_14">
     <g id="line2d_14">
      <g>
       <use xlink:href="#m98c0edbf57" x="223.740196" y="277.248797" style="fill: #262626; stroke: #262626"/>
      </g>
     </g>
    </g>
    <g id="xtick_15">
     <g id="line2d_15">
      <g>
       <use xlink:href="#m98c0edbf57" x="265.265778" y="277.248797" style="fill: #262626; stroke: #262626"/>
      </g>
     </g>
    </g>
    <g id="xtick_16">
     <g id="line2d_16">
      <g>
       <use xlink:href="#m98c0edbf57" x="306.791359" y="277.248797" style="fill: #262626; stroke: #262626"/>
      </g>
     </g>
    </g>
    <g id="xtick_17">
     <g id="line2d_17">
      <g>
       <use xlink:href="#m98c0edbf57" x="348.31694" y="277.248797" style="fill: #262626; stroke: #262626"/>
      </g>
     </g>
    </g>
    <g id="xtick_18">
     <g id="line2d_18">
      <g>
       <use xlink:href="#m98c0edbf57" x="389.842522" y="277.248797" style="fill: #262626; stroke: #262626"/>
      </g>
     </g>
    </g>
    <g id="text_10">
     <!-- Wavelength (nm) -->
     <g style="fill: #262626" transform="translate(186.590625 303.544266) scale(0.12 -0.12)">
      <defs>
       <path id="ArialMT-57" d="M 1294 0 
L 78 4581 
L 700 4581 
L 1397 1578 
Q 1509 1106 1591 641 
Q 1766 1375 1797 1488 
L 2669 4581 
L 3400 4581 
L 4056 2263 
Q 4303 1400 4413 641 
Q 4500 1075 4641 1638 
L 5359 4581 
L 5969 4581 
L 4713 0 
L 4128 0 
L 3163 3491 
Q 3041 3928 3019 4028 
Q 2947 3713 2884 3491 
L 1913 0 
L 1294 0 
z
" transform="scale(0.015625)"/>
       <path id="ArialMT-61" d="M 2588 409 
Q 2275 144 1986 34 
Q 1697 -75 1366 -75 
Q 819 -75 525 192 
Q 231 459 231 875 
Q 231 1119 342 1320 
Q 453 1522 633 1644 
Q 813 1766 1038 1828 
Q 1203 1872 1538 1913 
Q 2219 1994 2541 2106 
Q 2544 2222 2544 2253 
Q 2544 2597 2384 2738 
Q 2169 2928 1744 2928 
Q 1347 2928 1158 2789 
Q 969 2650 878 2297 
L 328 2372 
Q 403 2725 575 2942 
Q 747 3159 1072 3276 
Q 1397 3394 1825 3394 
Q 2250 3394 2515 3294 
Q 2781 3194 2906 3042 
Q 3031 2891 3081 2659 
Q 3109 2516 3109 2141 
L 3109 1391 
Q 3109 606 3145 398 
Q 3181 191 3288 0 
L 2700 0 
Q 2613 175 2588 409 
z
M 2541 1666 
Q 2234 1541 1622 1453 
Q 1275 1403 1131 1340 
Q 988 1278 909 1158 
Q 831 1038 831 891 
Q 831 666 1001 516 
Q 1172 366 1500 366 
Q 1825 366 2078 508 
Q 2331 650 2450 897 
Q 2541 1088 2541 1459 
L 2541 1666 
z
" transform="scale(0.015625)"/>
       <path id="ArialMT-76" d="M 1344 0 
L 81 3319 
L 675 3319 
L 1388 1331 
Q 1503 1009 1600 663 
Q 1675 925 1809 1294 
L 2547 3319 
L 3125 3319 
L 1869 0 
L 1344 0 
z
" transform="scale(0.015625)"/>
       <path id="ArialMT-65" d="M 2694 1069 
L 3275 997 
Q 3138 488 2766 206 
Q 2394 -75 1816 -75 
Q 1088 -75 661 373 
Q 234 822 234 1631 
Q 234 2469 665 2931 
Q 1097 3394 1784 3394 
Q 2450 3394 2872 2941 
Q 3294 2488 3294 1666 
Q 3294 1616 3291 1516 
L 816 1516 
Q 847 969 1125 678 
Q 1403 388 1819 388 
Q 2128 388 2347 550 
Q 2566 713 2694 1069 
z
M 847 1978 
L 2700 1978 
Q 2663 2397 2488 2606 
Q 2219 2931 1791 2931 
Q 1403 2931 1139 2672 
Q 875 2413 847 1978 
z
" transform="scale(0.015625)"/>
       <path id="ArialMT-6c" d="M 409 0 
L 409 4581 
L 972 4581 
L 972 0 
L 409 0 
z
" transform="scale(0.015625)"/>
       <path id="ArialMT-6e" d="M 422 0 
L 422 3319 
L 928 3319 
L 928 2847 
Q 1294 3394 1984 3394 
Q 2284 3394 2536 3286 
Q 2788 3178 2913 3003 
Q 3038 2828 3088 2588 
Q 3119 2431 3119 2041 
L 3119 0 
L 2556 0 
L 2556 2019 
Q 2556 2363 2490 2533 
Q 2425 2703 2258 2804 
Q 2091 2906 1866 2906 
Q 1506 2906 1245 2678 
Q 984 2450 984 1813 
L 984 0 
L 422 0 
z
" transform="scale(0.015625)"/>
       <path id="ArialMT-67" d="M 319 -275 
L 866 -356 
Q 900 -609 1056 -725 
Q 1266 -881 1628 -881 
Q 2019 -881 2231 -725 
Q 2444 -569 2519 -288 
Q 2563 -116 2559 434 
Q 2191 0 1641 0 
Q 956 0 581 494 
Q 206 988 206 1678 
Q 206 2153 378 2554 
Q 550 2956 876 3175 
Q 1203 3394 1644 3394 
Q 2231 3394 2613 2919 
L 2613 3319 
L 3131 3319 
L 3131 450 
Q 3131 -325 2973 -648 
Q 2816 -972 2473 -1159 
Q 2131 -1347 1631 -1347 
Q 1038 -1347 672 -1080 
Q 306 -813 319 -275 
z
M 784 1719 
Q 784 1066 1043 766 
Q 1303 466 1694 466 
Q 2081 466 2343 764 
Q 2606 1063 2606 1700 
Q 2606 2309 2336 2618 
Q 2066 2928 1684 2928 
Q 1309 2928 1046 2623 
Q 784 2319 784 1719 
z
" transform="scale(0.015625)"/>
       <path id="ArialMT-74" d="M 1650 503 
L 1731 6 
Q 1494 -44 1306 -44 
Q 1000 -44 831 53 
Q 663 150 594 308 
Q 525 466 525 972 
L 525 2881 
L 113 2881 
L 113 3319 
L 525 3319 
L 525 4141 
L 1084 4478 
L 1084 3319 
L 1650 3319 
L 1650 2881 
L 1084 2881 
L 1084 941 
Q 1084 700 1114 631 
Q 1144 563 1211 522 
Q 1278 481 1403 481 
Q 1497 481 1650 503 
z
" transform="scale(0.015625)"/>
       <path id="ArialMT-68" d="M 422 0 
L 422 4581 
L 984 4581 
L 984 2938 
Q 1378 3394 1978 3394 
Q 2347 3394 2619 3248 
Q 2891 3103 3008 2847 
Q 3125 2591 3125 2103 
L 3125 0 
L 2563 0 
L 2563 2103 
Q 2563 2525 2380 2717 
Q 2197 2909 1863 2909 
Q 1613 2909 1392 2779 
Q 1172 2650 1078 2428 
Q 984 2206 984 1816 
L 984 0 
L 422 0 
z
" transform="scale(0.015625)"/>
       <path id="ArialMT-20" transform="scale(0.015625)"/>
       <path id="ArialMT-28" d="M 1497 -1347 
Q 1031 -759 709 28 
Q 388 816 388 1659 
Q 388 2403 628 3084 
Q 909 3875 1497 4659 
L 1900 4659 
Q 1522 4009 1400 3731 
Q 1209 3300 1100 2831 
Q 966 2247 966 1656 
Q 966 153 1900 -1347 
L 1497 -1347 
z
" transform="scale(0.015625)"/>
       <path id="ArialMT-6d" d="M 422 0 
L 422 3319 
L 925 3319 
L 925 2853 
Q 1081 3097 1340 3245 
Q 1600 3394 1931 3394 
Q 2300 3394 2536 3241 
Q 2772 3088 2869 2813 
Q 3263 3394 3894 3394 
Q 4388 3394 4653 3120 
Q 4919 2847 4919 2278 
L 4919 0 
L 4359 0 
L 4359 2091 
Q 4359 2428 4304 2576 
Q 4250 2725 4106 2815 
Q 3963 2906 3769 2906 
Q 3419 2906 3187 2673 
Q 2956 2441 2956 1928 
L 2956 0 
L 2394 0 
L 2394 2156 
Q 2394 2531 2256 2718 
Q 2119 2906 1806 2906 
Q 1569 2906 1367 2781 
Q 1166 2656 1075 2415 
Q 984 2175 984 1722 
L 984 0 
L 422 0 
z
" transform="scale(0.015625)"/>
       <path id="ArialMT-29" d="M 791 -1347 
L 388 -1347 
Q 1322 153 1322 1656 
Q 1322 2244 1188 2822 
Q 1081 3291 891 3722 
Q 769 4003 388 4659 
L 791 4659 
Q 1378 3875 1659 3084 
Q 1900 2403 1900 1659 
Q 1900 816 1576 28 
Q 1253 -759 791 -1347 
z
" transform="scale(0.015625)"/>
      </defs>
      <use xlink:href="#ArialMT-57"/>
      <use xlink:href="#ArialMT-61" x="90.634766"/>
      <use xlink:href="#ArialMT-76" x="146.25"/>
      <use xlink:href="#ArialMT-65" x="196.25"/>
      <use xlink:href="#ArialMT-6c" x="251.865234"/>
      <use xlink:href="#ArialMT-65" x="274.082031"/>
      <use xlink:href="#ArialMT-6e" x="329.697266"/>
      <use xlink:href="#ArialMT-67" x="385.3125"/>
      <use xlink:href="#ArialMT-74" x="440.927734"/>
      <use xlink:href="#ArialMT-68" x="468.710938"/>
      <use xlink:href="#ArialMT-20" x="524.326172"/>
      <use xlink:href="#ArialMT-28" x="552.109375"/>
      <use xlink:href="#ArialMT-6e" x="585.410156"/>
      <use xlink:href="#ArialMT-6d" x="641.025391"/>
      <use xlink:href="#ArialMT-29" x="724.326172"/>
     </g>
    </g>
   </g>
   <g id="matplotlib.axis_2">
    <g id="ytick_1">
     <g id="line2d_19">
      <defs>
       <path id="mb5bef1602a" d="M 0 0 
L 6 0 
" style="stroke: #262626; stroke-width: 1.25"/>
      </defs>
      <g>
       <use xlink:href="#mb5bef1602a" x="53.485313" y="264.576797" style="fill: #262626; stroke: #262626; stroke-width: 1.25"/>
      </g>
     </g>
     <g id="text_11">
      <!-- 0.000 -->
      <g style="fill: #262626" transform="translate(22.46125 268.513594) scale(0.11 -0.11)">
       <defs>
        <path id="ArialMT-2e" d="M 581 0 
L 581 641 
L 1222 641 
L 1222 0 
L 581 0 
z
" transform="scale(0.015625)"/>
       </defs>
       <use xlink:href="#ArialMT-30"/>
       <use xlink:href="#ArialMT-2e" x="55.615234"/>
       <use xlink:href="#ArialMT-30" x="83.398438"/>
       <use xlink:href="#ArialMT-30" x="139.013672"/>
       <use xlink:href="#ArialMT-30" x="194.628906"/>
      </g>
     </g>
    </g>
    <g id="ytick_2">
     <g id="line2d_20">
      <g>
       <use xlink:href="#mb5bef1602a" x="53.485313" y="232.896797" style="fill: #262626; stroke: #262626; stroke-width: 1.25"/>
      </g>
     </g>
     <g id="text_12">
      <!-- 0.025 -->
      <g style="fill: #262626" transform="translate(22.46125 236.833594) scale(0.11 -0.11)">
       <use xlink:href="#ArialMT-30"/>
       <use xlink:href="#ArialMT-2e" x="55.615234"/>
       <use xlink:href="#ArialMT-30" x="83.398438"/>
       <use xlink:href="#ArialMT-32" x="139.013672"/>
       <use xlink:href="#ArialMT-35" x="194.628906"/>
      </g>
     </g>
    </g>
    <g id="ytick_3">
     <g id="line2d_21">
      <g>
       <use xlink:href="#mb5bef1602a" x="53.485313" y="201.216797" style="fill: #262626; stroke: #262626; stroke-width: 1.25"/>
      </g>
     </g>
     <g id="text_13">
      <!-- 0.050 -->
      <g style="fill: #262626" transform="translate(22.46125 205.153594) scale(0.11 -0.11)">
       <use xlink:href="#ArialMT-30"/>
       <use xlink:href="#ArialMT-2e" x="55.615234"/>
       <use xlink:href="#ArialMT-30" x="83.398438"/>
       <use xlink:href="#ArialMT-35" x="139.013672"/>
       <use xlink:href="#ArialMT-30" x="194.628906"/>
      </g>
     </g>
    </g>
    <g id="ytick_4">
     <g id="line2d_22">
      <g>
       <use xlink:href="#mb5bef1602a" x="53.485313" y="169.536797" style="fill: #262626; stroke: #262626; stroke-width: 1.25"/>
      </g>
     </g>
     <g id="text_14">
      <!-- 0.075 -->
      <g style="fill: #262626" transform="translate(22.46125 173.473594) scale(0.11 -0.11)">
       <defs>
        <path id="ArialMT-37" d="M 303 3981 
L 303 4522 
L 3269 4522 
L 3269 4084 
Q 2831 3619 2401 2847 
Q 1972 2075 1738 1259 
Q 1569 684 1522 0 
L 944 0 
Q 953 541 1156 1306 
Q 1359 2072 1739 2783 
Q 2119 3494 2547 3981 
L 303 3981 
z
" transform="scale(0.015625)"/>
       </defs>
       <use xlink:href="#ArialMT-30"/>
       <use xlink:href="#ArialMT-2e" x="55.615234"/>
       <use xlink:href="#ArialMT-30" x="83.398438"/>
       <use xlink:href="#ArialMT-37" x="139.013672"/>
       <use xlink:href="#ArialMT-35" x="194.628906"/>
      </g>
     </g>
    </g>
    <g id="ytick_5">
     <g id="line2d_23">
      <g>
       <use xlink:href="#mb5bef1602a" x="53.485313" y="137.856797" style="fill: #262626; stroke: #262626; stroke-width: 1.25"/>
      </g>
     </g>
     <g id="text_15">
      <!-- 0.100 -->
      <g style="fill: #262626" transform="translate(22.46125 141.793594) scale(0.11 -0.11)">
       <defs>
        <path id="ArialMT-31" d="M 2384 0 
L 1822 0 
L 1822 3584 
Q 1619 3391 1289 3197 
Q 959 3003 697 2906 
L 697 3450 
Q 1169 3672 1522 3987 
Q 1875 4303 2022 4600 
L 2384 4600 
L 2384 0 
z
" transform="scale(0.015625)"/>
       </defs>
       <use xlink:href="#ArialMT-30"/>
       <use xlink:href="#ArialMT-2e" x="55.615234"/>
       <use xlink:href="#ArialMT-31" x="83.398438"/>
       <use xlink:href="#ArialMT-30" x="139.013672"/>
       <use xlink:href="#ArialMT-30" x="194.628906"/>
      </g>
     </g>
    </g>
    <g id="ytick_6">
     <g id="line2d_24">
      <g>
       <use xlink:href="#mb5bef1602a" x="53.485313" y="106.176797" style="fill: #262626; stroke: #262626; stroke-width: 1.25"/>
      </g>
     </g>
     <g id="text_16">
      <!-- 0.125 -->
      <g style="fill: #262626" transform="translate(22.46125 110.113594) scale(0.11 -0.11)">
       <use xlink:href="#ArialMT-30"/>
       <use xlink:href="#ArialMT-2e" x="55.615234"/>
       <use xlink:href="#ArialMT-31" x="83.398438"/>
       <use xlink:href="#ArialMT-32" x="139.013672"/>
       <use xlink:href="#ArialMT-35" x="194.628906"/>
      </g>
     </g>
    </g>
    <g id="ytick_7">
     <g id="line2d_25">
      <g>
       <use xlink:href="#mb5bef1602a" x="53.485313" y="74.496797" style="fill: #262626; stroke: #262626; stroke-width: 1.25"/>
      </g>
     </g>
     <g id="text_17">
      <!-- 0.150 -->
      <g style="fill: #262626" transform="translate(22.46125 78.433594) scale(0.11 -0.11)">
       <use xlink:href="#ArialMT-30"/>
       <use xlink:href="#ArialMT-2e" x="55.615234"/>
       <use xlink:href="#ArialMT-31" x="83.398438"/>
       <use xlink:href="#ArialMT-35" x="139.013672"/>
       <use xlink:href="#ArialMT-30" x="194.628906"/>
      </g>
     </g>
    </g>
    <g id="ytick_8">
     <g id="line2d_26">
      <g>
       <use xlink:href="#mb5bef1602a" x="53.485313" y="42.816797" style="fill: #262626; stroke: #262626; stroke-width: 1.25"/>
      </g>
     </g>
     <g id="text_18">
      <!-- 0.175 -->
      <g style="fill: #262626" transform="translate(22.46125 46.753594) scale(0.11 -0.11)">
       <use xlink:href="#ArialMT-30"/>
       <use xlink:href="#ArialMT-2e" x="55.615234"/>
       <use xlink:href="#ArialMT-31" x="83.398438"/>
       <use xlink:href="#ArialMT-37" x="139.013672"/>
       <use xlink:href="#ArialMT-35" x="194.628906"/>
      </g>
     </g>
    </g>
    <g id="ytick_9">
     <g id="line2d_27">
      <g>
       <use xlink:href="#mb5bef1602a" x="53.485313" y="11.136797" style="fill: #262626; stroke: #262626; stroke-width: 1.25"/>
      </g>
     </g>
     <g id="text_19">
      <!-- 0.200 -->
      <g style="fill: #262626" transform="translate(22.46125 15.073594) scale(0.11 -0.11)">
       <use xlink:href="#ArialMT-30"/>
       <use xlink:href="#ArialMT-2e" x="55.615234"/>
       <use xlink:href="#ArialMT-32" x="83.398438"/>
       <use xlink:href="#ArialMT-30" x="139.013672"/>
       <use xlink:href="#ArialMT-30" x="194.628906"/>
      </g>
     </g>
    </g>
    <g id="ytick_10">
     <g id="line2d_28">
      <defs>
       <path id="mcd69f00904" d="M 0 0 
L 4 0 
" style="stroke: #262626"/>
      </defs>
      <g>
       <use xlink:href="#mcd69f00904" x="53.485313" y="248.736797" style="fill: #262626; stroke: #262626"/>
      </g>
     </g>
    </g>
    <g id="ytick_11">
     <g id="line2d_29">
      <g>
       <use xlink:href="#mcd69f00904" x="53.485313" y="217.056797" style="fill: #262626; stroke: #262626"/>
      </g>
     </g>
    </g>
    <g id="ytick_12">
     <g id="line2d_30">
      <g>
       <use xlink:href="#mcd69f00904" x="53.485313" y="185.376797" style="fill: #262626; stroke: #262626"/>
      </g>
     </g>
    </g>
    <g id="ytick_13">
     <g id="line2d_31">
      <g>
       <use xlink:href="#mcd69f00904" x="53.485313" y="153.696797" style="fill: #262626; stroke: #262626"/>
      </g>
     </g>
    </g>
    <g id="ytick_14">
     <g id="line2d_32">
      <g>
       <use xlink:href="#mcd69f00904" x="53.485313" y="122.016797" style="fill: #262626; stroke: #262626"/>
      </g>
     </g>
    </g>
    <g id="ytick_15">
     <g id="line2d_33">
      <g>
       <use xlink:href="#mcd69f00904" x="53.485313" y="90.336797" style="fill: #262626; stroke: #262626"/>
      </g>
     </g>
    </g>
    <g id="ytick_16">
     <g id="line2d_34">
      <g>
       <use xlink:href="#mcd69f00904" x="53.485313" y="58.656797" style="fill: #262626; stroke: #262626"/>
      </g>
     </g>
    </g>
    <g id="ytick_17">
     <g id="line2d_35">
      <g>
       <use xlink:href="#mcd69f00904" x="53.485313" y="26.976797" style="fill: #262626; stroke: #262626"/>
      </g>
     </g>
    </g>
    <g id="text_20">
     <!-- Absorbance (a.u.) -->
     <g style="fill: #262626" transform="translate(15.935625 191.881547) rotate(-90) scale(0.12 -0.12)">
      <defs>
       <path id="ArialMT-41" d="M -9 0 
L 1750 4581 
L 2403 4581 
L 4278 0 
L 3588 0 
L 3053 1388 
L 1138 1388 
L 634 0 
L -9 0 
z
M 1313 1881 
L 2866 1881 
L 2388 3150 
Q 2169 3728 2063 4100 
Q 1975 3659 1816 3225 
L 1313 1881 
z
" transform="scale(0.015625)"/>
       <path id="ArialMT-62" d="M 941 0 
L 419 0 
L 419 4581 
L 981 4581 
L 981 2947 
Q 1338 3394 1891 3394 
Q 2197 3394 2470 3270 
Q 2744 3147 2920 2923 
Q 3097 2700 3197 2384 
Q 3297 2069 3297 1709 
Q 3297 856 2875 390 
Q 2453 -75 1863 -75 
Q 1275 -75 941 416 
L 941 0 
z
M 934 1684 
Q 934 1088 1097 822 
Q 1363 388 1816 388 
Q 2184 388 2453 708 
Q 2722 1028 2722 1663 
Q 2722 2313 2464 2622 
Q 2206 2931 1841 2931 
Q 1472 2931 1203 2611 
Q 934 2291 934 1684 
z
" transform="scale(0.015625)"/>
       <path id="ArialMT-73" d="M 197 991 
L 753 1078 
Q 800 744 1014 566 
Q 1228 388 1613 388 
Q 2000 388 2187 545 
Q 2375 703 2375 916 
Q 2375 1106 2209 1216 
Q 2094 1291 1634 1406 
Q 1016 1563 777 1677 
Q 538 1791 414 1992 
Q 291 2194 291 2438 
Q 291 2659 392 2848 
Q 494 3038 669 3163 
Q 800 3259 1026 3326 
Q 1253 3394 1513 3394 
Q 1903 3394 2198 3281 
Q 2494 3169 2634 2976 
Q 2775 2784 2828 2463 
L 2278 2388 
Q 2241 2644 2061 2787 
Q 1881 2931 1553 2931 
Q 1166 2931 1000 2803 
Q 834 2675 834 2503 
Q 834 2394 903 2306 
Q 972 2216 1119 2156 
Q 1203 2125 1616 2013 
Q 2213 1853 2448 1751 
Q 2684 1650 2818 1456 
Q 2953 1263 2953 975 
Q 2953 694 2789 445 
Q 2625 197 2315 61 
Q 2006 -75 1616 -75 
Q 969 -75 630 194 
Q 291 463 197 991 
z
" transform="scale(0.015625)"/>
       <path id="ArialMT-6f" d="M 213 1659 
Q 213 2581 725 3025 
Q 1153 3394 1769 3394 
Q 2453 3394 2887 2945 
Q 3322 2497 3322 1706 
Q 3322 1066 3130 698 
Q 2938 331 2570 128 
Q 2203 -75 1769 -75 
Q 1072 -75 642 372 
Q 213 819 213 1659 
z
M 791 1659 
Q 791 1022 1069 705 
Q 1347 388 1769 388 
Q 2188 388 2466 706 
Q 2744 1025 2744 1678 
Q 2744 2294 2464 2611 
Q 2184 2928 1769 2928 
Q 1347 2928 1069 2612 
Q 791 2297 791 1659 
z
" transform="scale(0.015625)"/>
       <path id="ArialMT-72" d="M 416 0 
L 416 3319 
L 922 3319 
L 922 2816 
Q 1116 3169 1280 3281 
Q 1444 3394 1641 3394 
Q 1925 3394 2219 3213 
L 2025 2691 
Q 1819 2813 1613 2813 
Q 1428 2813 1281 2702 
Q 1134 2591 1072 2394 
Q 978 2094 978 1738 
L 978 0 
L 416 0 
z
" transform="scale(0.015625)"/>
       <path id="ArialMT-63" d="M 2588 1216 
L 3141 1144 
Q 3050 572 2676 248 
Q 2303 -75 1759 -75 
Q 1078 -75 664 370 
Q 250 816 250 1647 
Q 250 2184 428 2587 
Q 606 2991 970 3192 
Q 1334 3394 1763 3394 
Q 2303 3394 2647 3120 
Q 2991 2847 3088 2344 
L 2541 2259 
Q 2463 2594 2264 2762 
Q 2066 2931 1784 2931 
Q 1359 2931 1093 2626 
Q 828 2322 828 1663 
Q 828 994 1084 691 
Q 1341 388 1753 388 
Q 2084 388 2306 591 
Q 2528 794 2588 1216 
z
" transform="scale(0.015625)"/>
       <path id="ArialMT-75" d="M 2597 0 
L 2597 488 
Q 2209 -75 1544 -75 
Q 1250 -75 995 37 
Q 741 150 617 320 
Q 494 491 444 738 
Q 409 903 409 1263 
L 409 3319 
L 972 3319 
L 972 1478 
Q 972 1038 1006 884 
Q 1059 663 1231 536 
Q 1403 409 1656 409 
Q 1909 409 2131 539 
Q 2353 669 2445 892 
Q 2538 1116 2538 1541 
L 2538 3319 
L 3100 3319 
L 3100 0 
L 2597 0 
z
" transform="scale(0.015625)"/>
      </defs>
      <use xlink:href="#ArialMT-41"/>
      <use xlink:href="#ArialMT-62" x="66.699219"/>
      <use xlink:href="#ArialMT-73" x="122.314453"/>
      <use xlink:href="#ArialMT-6f" x="172.314453"/>
      <use xlink:href="#ArialMT-72" x="227.929688"/>
      <use xlink:href="#ArialMT-62" x="261.230469"/>
      <use xlink:href="#ArialMT-61" x="316.845703"/>
      <use xlink:href="#ArialMT-6e" x="372.460938"/>
      <use xlink:href="#ArialMT-63" x="428.076172"/>
      <use xlink:href="#ArialMT-65" x="478.076172"/>
      <use xlink:href="#ArialMT-20" x="533.691406"/>
      <use xlink:href="#ArialMT-28" x="561.474609"/>
      <use xlink:href="#ArialMT-61" x="594.775391"/>
      <use xlink:href="#ArialMT-2e" x="650.390625"/>
      <use xlink:href="#ArialMT-75" x="678.173828"/>
      <use xlink:href="#ArialMT-2e" x="733.789062"/>
      <use xlink:href="#ArialMT-29" x="761.572266"/>
     </g>
    </g>
   </g>
   <g id="PolyCollection_1"/>
   <g id="PolyCollection_2"/>
   <g id="PolyCollection_3"/>
   <g id="PolyCollection_4"/>
   <g id="line2d_36">
    <path d="M 78.400649 74.285869 
L 80.615351 76.385216 
L 81.169017 76.556595 
L 81.722695 76.86412 
L 82.83004 77.094678 
L 83.383718 77.05663 
L 83.937397 77.282939 
L 86.152086 77.018335 
L 88.366776 76.660451 
L 88.920467 76.933646 
L 90.027799 76.836362 
L 90.58149 76.979777 
L 91.135156 76.829017 
L 92.242513 76.926867 
L 95.010869 76.521285 
L 96.118226 75.889468 
L 96.671892 75.882727 
L 97.225583 75.577865 
L 98.332915 75.318151 
L 99.440272 74.387968 
L 99.993938 74.345104 
L 102.208653 72.502393 
L 103.869676 70.62118 
L 105.530699 69.204332 
L 107.745389 66.396844 
L 109.406412 64.727099 
L 110.513769 63.609958 
L 111.621126 62.73427 
L 113.835816 61.20979 
L 114.389482 61.062996 
L 114.943173 60.694669 
L 115.496839 60.622442 
L 116.050505 60.70209 
L 116.604196 60.450685 
L 117.157862 60.395981 
L 117.711528 60.566417 
L 118.265219 60.327947 
L 118.818885 60.424022 
L 119.372551 61.006347 
L 119.926243 60.275547 
L 120.479909 60.003031 
L 121.033575 60.041703 
L 122.694598 60.43639 
L 123.248289 60.490244 
L 123.801955 60.264387 
L 124.355621 60.39821 
L 124.909312 60.731641 
L 126.016644 60.91148 
L 127.677668 61.020509 
L 128.231359 61.294989 
L 129.338691 61.32945 
L 129.892382 61.319197 
L 130.446048 61.444711 
L 130.999714 61.082558 
L 134.875452 60.072067 
L 135.429118 60.1151 
L 135.982784 59.986717 
L 136.536475 60.130981 
L 137.090141 60.065628 
L 138.197499 60.391752 
L 138.751165 60.509297 
L 139.858522 61.304714 
L 140.412188 61.422164 
L 140.965854 61.711203 
L 141.519545 61.784978 
L 142.073211 62.010173 
L 142.626877 62.093257 
L 143.180568 62.389094 
L 144.841592 62.52369 
L 145.395258 62.637458 
L 145.948924 62.58368 
L 146.502615 62.804136 
L 147.056281 62.791258 
L 147.609947 62.930028 
L 148.163638 62.919132 
L 149.27097 63.481008 
L 149.824661 63.51528 
L 150.378327 63.994807 
L 150.931993 64.132085 
L 151.485685 64.673755 
L 152.593017 65.410863 
L 156.468754 68.109264 
L 158.129778 68.826469 
L 160.344467 69.09011 
L 160.898133 68.941899 
L 161.451824 68.939369 
L 163.112847 68.285875 
L 164.773871 67.500994 
L 165.327537 67.029964 
L 165.881203 66.773083 
L 168.095917 64.919231 
L 168.649583 64.510155 
L 172.525296 60.115195 
L 173.078987 59.342815 
L 173.632653 58.861607 
L 174.74001 57.111006 
L 176.401033 54.728569 
L 177.508365 52.976382 
L 180.830412 47.363333 
L 186.920839 35.85643 
L 191.350243 26.093273 
L 195.779621 15.532698 
L 202.410384 -1 
M 282.679892 -1 
L 286.028568 14.932037 
L 291.565304 43.239944 
L 297.10204 72.589764 
L 305.407156 116.099031 
L 308.175562 130.497384 
L 313.712272 158.871022 
L 316.480678 172.568995 
L 319.802725 188.381873 
L 324.232103 207.555065 
L 327.55415 220.040298 
L 329.768864 227.240225 
L 331.429888 232.00343 
L 333.090911 236.264162 
L 334.751934 240.032062 
L 337.520289 245.288822 
L 338.627621 247.012309 
L 340.288644 249.297273 
L 342.503359 251.800027 
L 344.718074 253.423511 
L 346.932737 254.901155 
L 347.486429 255.101893 
L 349.701143 256.29333 
L 351.915807 257.204866 
L 352.469499 257.243395 
L 353.02319 257.546154 
L 357.452568 258.567223 
L 358.00626 258.570374 
L 359.113592 258.818639 
L 360.220924 259.023686 
L 368.52604 259.825276 
L 381.814226 260.844739 
L 382.367917 260.747997 
L 384.02894 260.886251 
L 386.243655 261.045632 
L 388.458319 261.035331 
L 390.119342 261.141099 
L 392.887748 261.192557 
L 394.548771 261.270014 
L 395.656103 261.257771 
L 396.209795 261.217805 
L 397.317126 261.360032 
L 398.424458 261.301859 
L 398.97815 261.314629 
L 399.531841 261.444459 
L 400.085482 261.328851 
L 401.192864 261.407773 
L 402.853888 261.42902 
L 405.068551 261.513503 
L 406.729575 261.485333 
L 408.944289 261.536494 
L 413.373668 261.517461 
L 414.48105 261.573666 
L 417.803097 261.4789 
L 418.910429 261.542002 
L 420.017761 261.454059 
L 427.980859 261.446047 
L 427.980859 261.446047 
" clip-path="url(#pd059a9aafb)" style="fill: none; stroke: #f69c73; stroke-linecap: round"/>
   </g>
   <g id="line2d_37">
    <path d="M 126.804294 -1 
L 127.124002 -0.174674 
L 129.338691 7.28745 
L 133.768095 24.41369 
L 134.875452 28.068881 
L 136.536475 33.458887 
L 139.30483 40.596963 
L 140.965854 44.571461 
L 142.626877 48.379149 
L 146.502615 59.881294 
L 148.163638 65.540851 
L 151.485685 77.102609 
L 152.593017 80.621334 
L 153.146708 81.966541 
L 154.807731 86.877813 
L 157.02242 93.094997 
L 158.683444 98.034403 
L 163.666513 113.787971 
L 165.881203 120.946621 
L 168.095917 127.656682 
L 174.74001 144.619265 
L 178.615723 153.239402 
L 180.276746 156.312645 
L 181.384103 158.038963 
L 182.491435 159.383472 
L 183.045126 159.9534 
L 183.598792 160.29632 
L 184.70615 161.216656 
L 186.367173 161.995947 
L 186.920839 162.205858 
L 188.028196 162.847342 
L 188.581862 163.156529 
L 189.689219 164.118794 
L 190.242885 164.67338 
L 190.796551 165.428152 
L 191.350243 165.948343 
L 192.457575 167.756622 
L 194.672289 171.880983 
L 196.886978 176.37926 
L 198.548002 179.082968 
L 199.655359 180.436484 
L 200.209025 180.996877 
L 200.762691 181.383945 
L 201.870048 181.635907 
L 202.423714 181.645782 
L 202.977406 181.465896 
L 204.638429 180.298715 
L 207.406784 177.569563 
L 208.514141 177.134542 
L 209.067807 177.052714 
L 209.621499 177.237547 
L 210.175165 177.596386 
L 210.72883 178.12938 
L 211.282522 178.857045 
L 211.836188 179.870322 
L 213.497211 183.9601 
L 215.7119 190.842631 
L 217.926615 197.725536 
L 219.033947 200.573343 
L 220.141304 202.938591 
L 220.69497 203.81468 
L 221.248661 204.303026 
L 221.802327 205.114748 
L 222.909685 205.678139 
L 223.463351 205.757243 
L 224.017017 205.655064 
L 225.124374 205.011644 
L 225.67804 204.413325 
L 226.231731 204.060463 
L 229.553778 200.787903 
L 230.107444 200.484528 
L 230.66111 200.384166 
L 231.214801 200.527538 
L 232.322133 201.512651 
L 233.42949 203.447618 
L 234.536847 206.528372 
L 236.197871 212.522541 
L 240.627249 230.748367 
L 242.288272 236.175227 
L 243.39563 239.041548 
L 244.502987 241.355877 
L 246.16401 244.034001 
L 246.717676 244.790931 
L 247.271342 245.321503 
L 247.825033 246.009116 
L 249.486057 247.403633 
L 250.593389 248.103016 
L 252.254412 249.085196 
L 255.022792 250.42224 
L 256.683816 251.04112 
L 257.791173 251.548372 
L 258.344839 251.639155 
L 258.898505 251.928127 
L 261.666885 252.695131 
L 263.327909 253.20669 
L 271.079359 255.040952 
L 272.740382 255.326744 
L 274.401406 255.708135 
L 274.955071 255.739836 
L 275.508737 255.922641 
L 276.062429 255.941301 
L 277.723452 256.292131 
L 279.938141 256.561996 
L 283.260188 257.014405 
L 284.367545 257.105421 
L 287.1359 257.489835 
L 287.689592 257.450459 
L 289.350615 257.711387 
L 289.904281 257.682257 
L 292.11897 257.971229 
L 295.994708 258.317715 
L 309.282894 259.100853 
L 309.836585 259.196857 
L 310.390226 259.1581 
L 310.943917 259.303178 
L 312.051249 259.236672 
L 320.356365 259.517182 
L 320.910057 259.645749 
L 322.017389 259.560913 
L 323.678412 259.725443 
L 330.876196 259.842647 
L 331.983528 259.846385 
L 333.644551 259.873184 
L 334.198243 259.944344 
L 335.305575 259.866965 
L 336.412957 259.92658 
L 337.520289 259.910701 
L 338.073981 260.044236 
L 338.627621 259.939911 
L 341.396027 260.033421 
L 342.503359 260.005042 
L 345.825406 260.071489 
L 346.932737 260.176682 
L 347.486429 260.076086 
L 349.701143 260.220856 
L 351.915807 260.131346 
L 354.684213 260.095862 
L 356.345236 260.199695 
L 358.00626 260.081543 
L 359.113592 260.190735 
L 360.220924 260.181906 
L 361.881947 260.123046 
L 362.989329 260.247802 
L 363.54297 260.085644 
L 367.418708 260.197149 
L 369.079731 260.148542 
L 370.187063 260.231899 
L 370.740754 260.13171 
L 371.294446 260.234115 
L 372.955469 260.101484 
L 373.50911 260.236561 
L 375.723824 260.160545 
L 376.831156 260.293756 
L 377.384847 260.2196 
L 378.492179 260.282549 
L 384.02894 260.347045 
L 385.136272 260.308765 
L 398.424458 260.127874 
L 400.085482 260.102874 
L 400.639173 260.193843 
L 402.300196 260.090174 
L 410.051621 260.007722 
L 410.605312 259.923602 
L 412.266336 260.058094 
L 412.820027 259.993962 
L 413.927359 260.045163 
L 420.571452 259.954698 
L 421.125143 260.044269 
L 421.678784 259.974611 
L 422.232475 260.064312 
L 422.786167 259.962703 
L 423.893499 259.999651 
L 427.980859 260.05268 
L 427.980859 260.05268 
" clip-path="url(#pd059a9aafb)" style="fill: none; stroke: #e83f3f; stroke-linecap: round"/>
   </g>
   <g id="line2d_38">
    <path d="M 78.400649 73.0056 
L 80.061672 79.505401 
L 80.615351 81.471228 
L 82.276374 85.751211 
L 83.937397 88.654397 
L 84.491063 89.377946 
L 85.044729 89.695856 
L 86.152086 90.787109 
L 87.81311 91.87198 
L 92.242513 94.323131 
L 93.349845 95.007442 
L 93.903537 95.349238 
L 95.010869 96.562587 
L 96.671892 97.394731 
L 98.332915 98.467517 
L 98.886606 98.436417 
L 99.440272 98.526072 
L 99.993938 98.858994 
L 100.54763 98.9647 
L 101.101296 99.201905 
L 101.654962 99.255362 
L 104.423342 100.45149 
L 105.530699 101.319927 
L 106.638031 101.501635 
L 107.745389 102.171652 
L 111.067435 105.656841 
L 112.728458 107.496909 
L 114.389482 109.405691 
L 116.604196 112.549952 
L 118.818885 116.19861 
L 119.372551 117.623087 
L 119.926243 117.214001 
L 121.587266 119.783037 
L 123.248289 121.854503 
L 124.355621 123.028265 
L 124.909312 123.883927 
L 125.462978 124.40545 
L 126.016644 125.082925 
L 127.677668 127.600846 
L 128.231359 128.919183 
L 129.338691 130.846441 
L 133.768095 140.206385 
L 134.321761 141.016635 
L 135.429118 143.251984 
L 136.536475 145.019042 
L 137.643807 146.923782 
L 138.197499 147.631111 
L 140.412188 151.179313 
L 140.965854 151.771287 
L 142.073211 153.478769 
L 142.626877 154.111624 
L 143.180568 155.153367 
L 143.734234 155.801763 
L 147.609947 162.376001 
L 148.163638 163.148088 
L 150.931993 167.951293 
L 152.039351 169.573907 
L 153.700374 172.304344 
L 154.25404 172.892947 
L 156.468754 176.126647 
L 157.576086 177.33603 
L 159.23711 179.544632 
L 159.790801 180.123172 
L 160.344467 180.890104 
L 160.898133 181.327013 
L 162.00549 182.881885 
L 162.559156 183.369919 
L 164.220179 185.24339 
L 165.881203 187.189527 
L 167.542226 188.742628 
L 168.095917 189.405116 
L 168.649583 189.80906 
L 169.203249 190.475555 
L 169.75694 190.805536 
L 170.864272 191.839268 
L 172.525296 193.411611 
L 174.186319 194.974493 
L 175.293676 196.012016 
L 176.401033 197.146638 
L 176.954699 197.502403 
L 178.615723 199.057157 
L 180.830412 200.961808 
L 183.045126 202.467655 
L 183.598792 202.633319 
L 184.70615 203.418364 
L 189.689219 205.903018 
L 191.903909 207.368891 
L 194.118598 209.459509 
L 194.672289 210.048825 
L 195.225955 210.406918 
L 195.779621 211.099953 
L 197.440644 212.597279 
L 197.994336 213.148995 
L 199.101668 213.947859 
L 200.209025 214.713351 
L 200.762691 215.02047 
L 201.316382 215.167184 
L 202.423714 215.615045 
L 204.638429 215.935962 
L 207.406784 215.899518 
L 209.067807 216.205438 
L 210.175165 216.74446 
L 211.282522 217.498392 
L 212.389854 218.579557 
L 214.604568 221.195814 
L 217.926615 225.45137 
L 220.141304 227.53917 
L 220.69497 227.936274 
L 221.248661 228.114775 
L 221.802327 228.624267 
L 224.570708 229.249633 
L 225.67804 228.906923 
L 226.231731 229.032345 
L 226.785397 229.041408 
L 227.339063 228.868773 
L 230.66111 228.886728 
L 232.322133 229.766496 
L 233.983156 231.23239 
L 236.197871 234.304024 
L 238.41256 237.956163 
L 241.18094 242.094011 
L 242.841964 244.113708 
L 245.610319 246.514822 
L 247.825033 247.870156 
L 248.932365 248.421011 
L 250.593389 249.204216 
L 251.14708 249.310662 
L 251.700746 249.724452 
L 252.808103 250.019686 
L 259.452196 252.306178 
L 260.559528 252.571769 
L 263.881575 253.62683 
L 274.401406 256.321701 
L 274.955071 256.353566 
L 275.508737 256.570018 
L 276.062429 256.603799 
L 276.616095 256.819221 
L 278.277118 257.146684 
L 279.384475 257.404499 
L 282.706522 258.049141 
L 283.813854 258.215286 
L 284.367545 258.376769 
L 284.921211 258.356864 
L 287.1359 258.764374 
L 293.226327 259.570281 
L 294.333685 259.798872 
L 294.887351 259.767238 
L 297.10204 260.119408 
L 297.655731 260.073969 
L 298.209422 260.21593 
L 299.316754 260.296831 
L 306.514539 260.886746 
L 312.60494 261.336473 
L 313.158632 261.290111 
L 315.373296 261.470257 
L 318.141701 261.587782 
L 323.678412 261.790943 
L 324.232103 261.864063 
L 324.785795 261.75939 
L 326.446818 261.940306 
L 327.000458 261.899499 
L 327.55415 261.998378 
L 329.215173 262.005596 
L 330.876196 262.046493 
L 350.254784 262.334072 
L 350.808475 262.205341 
L 351.915807 262.317966 
L 352.469499 262.278637 
L 353.02319 262.359828 
L 354.130522 262.313717 
L 355.791545 262.228797 
L 356.345236 262.404025 
L 356.898877 262.287366 
L 357.452568 262.367601 
L 358.00626 262.26915 
L 359.113592 262.361179 
L 365.203993 262.393849 
L 366.311376 262.431688 
L 367.972399 262.385649 
L 371.848086 262.415058 
L 372.955469 262.321589 
L 374.062801 262.423356 
L 375.723824 262.353109 
L 376.277515 262.46633 
L 381.260585 262.562572 
L 384.02894 262.563988 
L 385.689964 262.553683 
L 386.797296 262.582128 
L 387.904678 262.508806 
L 390.119342 262.57663 
L 392.334057 262.579165 
L 400.085482 262.633253 
L 400.639173 262.714491 
L 402.300196 262.62532 
L 403.961219 262.657613 
L 406.175934 262.672853 
L 406.729575 262.606819 
L 407.836957 262.684045 
L 411.159004 262.588186 
L 412.266336 262.712351 
L 417.803097 262.742434 
L 420.017761 262.703958 
L 423.339807 262.732922 
L 423.893499 262.643063 
L 426.108213 262.762082 
L 427.215545 262.712549 
L 427.980859 262.706079 
L 427.980859 262.706079 
" clip-path="url(#pd059a9aafb)" style="fill: none; stroke: #a11a5b; stroke-linecap: round"/>
   </g>
   <g id="line2d_39">
    <path d="M 78.400649 23.791239 
L 79.507993 28.090823 
L 80.615351 31.895263 
L 81.722695 34.45414 
L 82.276374 35.528323 
L 82.83004 36.335579 
L 84.491063 37.644003 
L 85.59842 37.693835 
L 87.81311 37.045137 
L 88.366776 36.811727 
L 88.920467 36.804476 
L 90.027799 36.577316 
L 93.349845 36.455145 
L 93.903537 36.626903 
L 95.010869 36.720769 
L 96.118226 36.405993 
L 96.671892 36.240316 
L 97.779249 36.427538 
L 98.886606 36.42531 
L 100.54763 37.294502 
L 101.654962 38.300556 
L 102.762319 39.892958 
L 103.869676 41.904896 
L 104.423342 43.397842 
L 109.960103 54.811068 
L 111.621126 57.617196 
L 113.28215 59.624432 
L 115.496839 62.062686 
L 116.050505 63.02565 
L 117.157862 64.21989 
L 118.265219 65.970906 
L 118.818885 66.696627 
L 119.372551 67.857727 
L 119.926243 68.048424 
L 122.140932 71.244764 
L 122.694598 72.622034 
L 123.248289 73.102695 
L 124.355621 74.995955 
L 127.124002 81.770727 
L 129.338691 89.108602 
L 132.107071 100.181013 
L 134.875452 111.92972 
L 135.982784 116.048378 
L 137.090141 120.273715 
L 138.751165 125.660605 
L 139.858522 128.936262 
L 142.073211 134.260263 
L 142.626877 135.321937 
L 143.734234 137.814328 
L 147.609947 146.394433 
L 148.717304 148.693568 
L 150.378327 152.339733 
L 152.039351 155.349984 
L 152.593017 156.451754 
L 157.02242 163.010697 
L 159.23711 165.987232 
L 160.898133 168.361398 
L 168.095917 179.952623 
L 168.649583 180.614265 
L 169.203249 181.519957 
L 170.310606 182.762433 
L 172.525296 185.467151 
L 174.186319 187.495527 
L 174.74001 188.084281 
L 175.847342 189.535473 
L 179.169389 193.539381 
L 182.491435 196.494597 
L 183.045126 196.803109 
L 183.598792 196.945414 
L 184.70615 197.535858 
L 188.028196 198.07245 
L 188.581862 198.123008 
L 190.242885 198.755821 
L 190.796551 199.09141 
L 191.350243 199.285057 
L 193.011266 200.817223 
L 194.672289 202.653216 
L 195.225955 203.201524 
L 195.779621 204.049808 
L 198.548002 206.899692 
L 199.101668 207.419407 
L 200.762691 208.510145 
L 201.316382 208.456934 
L 201.870048 208.564367 
L 202.977406 208.449197 
L 204.638429 207.628264 
L 205.192095 207.309929 
L 206.853118 205.98191 
L 207.960475 205.472996 
L 208.514141 205.261056 
L 209.067807 205.212098 
L 209.621499 205.29226 
L 210.72883 205.764183 
L 211.836188 206.857579 
L 212.943545 208.53804 
L 214.050877 210.490705 
L 215.7119 213.874881 
L 217.372924 217.266011 
L 219.033947 220.258677 
L 220.141304 221.79114 
L 220.69497 222.438091 
L 221.248661 222.693183 
L 221.802327 223.322455 
L 223.463351 223.746392 
L 224.570708 223.568517 
L 225.67804 222.803642 
L 226.231731 222.626314 
L 228.44642 220.964033 
L 229.000086 220.559947 
L 230.66111 219.984773 
L 231.214801 220.046274 
L 232.322133 220.643017 
L 233.42949 221.846513 
L 234.536847 223.891185 
L 236.197871 227.885328 
L 240.627249 240.209633 
L 242.288272 243.809429 
L 243.39563 245.784397 
L 244.502987 247.395578 
L 246.16401 249.305098 
L 248.378699 250.982821 
L 249.486057 251.650775 
L 251.700746 252.817796 
L 252.254412 252.933866 
L 254.469126 253.858337 
L 256.13015 254.300274 
L 257.791173 254.957906 
L 258.344839 254.975998 
L 259.452196 255.327444 
L 261.666885 255.855292 
L 263.881575 256.454146 
L 264.435266 256.525216 
L 264.988932 256.742832 
L 267.203621 257.139004 
L 267.757313 257.369604 
L 268.310978 257.394596 
L 268.864644 257.563297 
L 269.418336 257.596553 
L 270.525668 257.844561 
L 274.401406 258.535386 
L 274.955071 258.558368 
L 275.508737 258.745345 
L 276.616095 258.908297 
L 286.582234 260.256927 
L 303.746133 261.734068 
L 305.960847 261.845207 
L 310.390226 262.120931 
L 311.497608 262.237592 
L 312.051249 262.167684 
L 316.480678 262.432544 
L 319.249033 262.484539 
L 319.802725 262.575478 
L 320.910057 262.56333 
L 324.785795 262.692998 
L 325.339435 262.771989 
L 325.893126 262.702082 
L 326.446818 262.794861 
L 327.000458 262.753427 
L 328.107841 262.797691 
L 330.876196 262.891967 
L 332.537219 262.932601 
L 335.305575 262.915591 
L 335.859266 263.041064 
L 337.520289 263.044913 
L 338.073981 263.128951 
L 339.181312 262.963231 
L 339.735004 263.108 
L 340.842336 263.039156 
L 344.164382 263.203835 
L 344.718074 263.017479 
L 345.271714 263.100041 
L 345.825406 263.043762 
L 346.932737 263.132043 
L 349.147452 263.161083 
L 350.254784 263.221066 
L 350.808475 263.124676 
L 351.915807 263.18897 
L 353.57683 263.131122 
L 354.130522 263.249871 
L 354.684213 263.109612 
L 355.791545 263.205084 
L 356.898877 263.215344 
L 372.401778 263.21199 
L 372.955469 263.172856 
L 374.062801 263.296068 
L 374.616492 263.192818 
L 376.831156 263.307345 
L 378.492179 263.267364 
L 379.599562 263.336344 
L 380.706894 263.351598 
L 381.814226 263.431974 
L 382.367917 263.322963 
L 384.02894 263.420239 
L 385.689964 263.349658 
L 386.243655 263.467769 
L 387.350987 263.372671 
L 389.565701 263.437595 
L 390.673033 263.368726 
L 393.99508 263.493538 
L 395.656103 263.448376 
L 399.531841 263.540437 
L 400.085482 263.405742 
L 400.639173 263.597586 
L 401.192864 263.468032 
L 403.407528 263.506487 
L 405.622243 263.504187 
L 407.283266 263.486833 
L 408.390598 263.462674 
L 409.497981 263.446667 
L 410.605312 263.45117 
L 411.159004 263.372901 
L 411.712644 263.514112 
L 414.48105 263.51799 
L 422.232475 263.53955 
L 422.786167 263.470826 
L 423.339807 263.526141 
L 423.893499 263.434209 
L 425.554522 263.515624 
L 426.108213 263.552531 
L 426.661854 263.464975 
L 427.980859 263.47582 
L 427.980859 263.47582 
" clip-path="url(#pd059a9aafb)" style="fill: none; stroke: #4c1d4b; stroke-linecap: round"/>
   </g>
   <g id="line2d_40"/>
   <g id="line2d_41"/>
   <g id="line2d_42"/>
   <g id="line2d_43"/>
   <g id="patch_3">
    <path d="M 53.485313 277.248797 
L 53.485313 11.136797 
" style="fill: none; stroke: #262626; stroke-width: 1.25; stroke-linejoin: miter; stroke-linecap: square"/>
   </g>
   <g id="patch_4">
    <path d="M 53.485312 277.248797 
L 410.605312 277.248797 
" style="fill: none; stroke: #262626; stroke-width: 1.25; stroke-linejoin: miter; stroke-linecap: square"/>
   </g>
   <g id="legend_1">
    <g id="line2d_44">
     <path d="M 249.92025 98.565084 
L 255.92025 98.565084 
L 261.92025 98.565084 
" style="fill: none; stroke: #f69c73; stroke-width: 1.5; stroke-linecap: round"/>
    </g>
    <g id="text_21">
     <!-- polymer -->
     <g style="fill: #262626" transform="translate(266.72025 100.665084) scale(0.06 -0.06)">
      <defs>
       <path id="ArialMT-70" d="M 422 -1272 
L 422 3319 
L 934 3319 
L 934 2888 
Q 1116 3141 1344 3267 
Q 1572 3394 1897 3394 
Q 2322 3394 2647 3175 
Q 2972 2956 3137 2557 
Q 3303 2159 3303 1684 
Q 3303 1175 3120 767 
Q 2938 359 2589 142 
Q 2241 -75 1856 -75 
Q 1575 -75 1351 44 
Q 1128 163 984 344 
L 984 -1272 
L 422 -1272 
z
M 931 1641 
Q 931 1000 1190 694 
Q 1450 388 1819 388 
Q 2194 388 2461 705 
Q 2728 1022 2728 1688 
Q 2728 2322 2467 2637 
Q 2206 2953 1844 2953 
Q 1484 2953 1207 2617 
Q 931 2281 931 1641 
z
" transform="scale(0.015625)"/>
       <path id="ArialMT-79" d="M 397 -1278 
L 334 -750 
Q 519 -800 656 -800 
Q 844 -800 956 -737 
Q 1069 -675 1141 -563 
Q 1194 -478 1313 -144 
Q 1328 -97 1363 -6 
L 103 3319 
L 709 3319 
L 1400 1397 
Q 1534 1031 1641 628 
Q 1738 1016 1872 1384 
L 2581 3319 
L 3144 3319 
L 1881 -56 
Q 1678 -603 1566 -809 
Q 1416 -1088 1222 -1217 
Q 1028 -1347 759 -1347 
Q 597 -1347 397 -1278 
z
" transform="scale(0.015625)"/>
      </defs>
      <use xlink:href="#ArialMT-70"/>
      <use xlink:href="#ArialMT-6f" x="55.615234"/>
      <use xlink:href="#ArialMT-6c" x="111.230469"/>
      <use xlink:href="#ArialMT-79" x="133.447266"/>
      <use xlink:href="#ArialMT-6d" x="183.447266"/>
      <use xlink:href="#ArialMT-65" x="266.748047"/>
      <use xlink:href="#ArialMT-72" x="322.363281"/>
     </g>
    </g>
    <g id="line2d_45">
     <path d="M 249.92025 107.122584 
L 255.92025 107.122584 
L 261.92025 107.122584 
" style="fill: none; stroke: #e83f3f; stroke-width: 1.5; stroke-linecap: round"/>
    </g>
    <g id="text_22">
     <!-- Condition C -->
     <g style="fill: #262626" transform="translate(266.72025 109.222584) scale(0.06 -0.06)">
      <defs>
       <path id="ArialMT-43" d="M 3763 1606 
L 4369 1453 
Q 4178 706 3683 314 
Q 3188 -78 2472 -78 
Q 1731 -78 1267 223 
Q 803 525 561 1097 
Q 319 1669 319 2325 
Q 319 3041 592 3573 
Q 866 4106 1370 4382 
Q 1875 4659 2481 4659 
Q 3169 4659 3637 4309 
Q 4106 3959 4291 3325 
L 3694 3184 
Q 3534 3684 3231 3912 
Q 2928 4141 2469 4141 
Q 1941 4141 1586 3887 
Q 1231 3634 1087 3207 
Q 944 2781 944 2328 
Q 944 1744 1114 1308 
Q 1284 872 1643 656 
Q 2003 441 2422 441 
Q 2931 441 3284 734 
Q 3638 1028 3763 1606 
z
" transform="scale(0.015625)"/>
       <path id="ArialMT-64" d="M 2575 0 
L 2575 419 
Q 2259 -75 1647 -75 
Q 1250 -75 917 144 
Q 584 363 401 755 
Q 219 1147 219 1656 
Q 219 2153 384 2558 
Q 550 2963 881 3178 
Q 1213 3394 1622 3394 
Q 1922 3394 2156 3267 
Q 2391 3141 2538 2938 
L 2538 4581 
L 3097 4581 
L 3097 0 
L 2575 0 
z
M 797 1656 
Q 797 1019 1065 703 
Q 1334 388 1700 388 
Q 2069 388 2326 689 
Q 2584 991 2584 1609 
Q 2584 2291 2321 2609 
Q 2059 2928 1675 2928 
Q 1300 2928 1048 2622 
Q 797 2316 797 1656 
z
" transform="scale(0.015625)"/>
       <path id="ArialMT-69" d="M 425 3934 
L 425 4581 
L 988 4581 
L 988 3934 
L 425 3934 
z
M 425 0 
L 425 3319 
L 988 3319 
L 988 0 
L 425 0 
z
" transform="scale(0.015625)"/>
      </defs>
      <use xlink:href="#ArialMT-43"/>
      <use xlink:href="#ArialMT-6f" x="72.216797"/>
      <use xlink:href="#ArialMT-6e" x="127.832031"/>
      <use xlink:href="#ArialMT-64" x="183.447266"/>
      <use xlink:href="#ArialMT-69" x="239.0625"/>
      <use xlink:href="#ArialMT-74" x="261.279297"/>
      <use xlink:href="#ArialMT-69" x="289.0625"/>
      <use xlink:href="#ArialMT-6f" x="311.279297"/>
      <use xlink:href="#ArialMT-6e" x="366.894531"/>
      <use xlink:href="#ArialMT-20" x="422.509766"/>
      <use xlink:href="#ArialMT-43" x="450.292969"/>
     </g>
    </g>
    <g id="line2d_46">
     <path d="M 249.92025 115.609772 
L 255.92025 115.609772 
L 261.92025 115.609772 
" style="fill: none; stroke: #a11a5b; stroke-width: 1.5; stroke-linecap: round"/>
    </g>
    <g id="text_23">
     <!-- Condition E -->
     <g style="fill: #262626" transform="translate(266.72025 117.709772) scale(0.06 -0.06)">
      <defs>
       <path id="ArialMT-45" d="M 506 0 
L 506 4581 
L 3819 4581 
L 3819 4041 
L 1113 4041 
L 1113 2638 
L 3647 2638 
L 3647 2100 
L 1113 2100 
L 1113 541 
L 3925 541 
L 3925 0 
L 506 0 
z
" transform="scale(0.015625)"/>
      </defs>
      <use xlink:href="#ArialMT-43"/>
      <use xlink:href="#ArialMT-6f" x="72.216797"/>
      <use xlink:href="#ArialMT-6e" x="127.832031"/>
      <use xlink:href="#ArialMT-64" x="183.447266"/>
      <use xlink:href="#ArialMT-69" x="239.0625"/>
      <use xlink:href="#ArialMT-74" x="261.279297"/>
      <use xlink:href="#ArialMT-69" x="289.0625"/>
      <use xlink:href="#ArialMT-6f" x="311.279297"/>
      <use xlink:href="#ArialMT-6e" x="366.894531"/>
      <use xlink:href="#ArialMT-20" x="422.509766"/>
      <use xlink:href="#ArialMT-45" x="450.292969"/>
     </g>
    </g>
    <g id="line2d_47">
     <path d="M 249.92025 124.096959 
L 255.92025 124.096959 
L 261.92025 124.096959 
" style="fill: none; stroke: #4c1d4b; stroke-width: 1.5; stroke-linecap: round"/>
    </g>
    <g id="text_24">
     <!-- Condition D -->
     <g style="fill: #262626" transform="translate(266.72025 126.196959) scale(0.06 -0.06)">
      <defs>
       <path id="ArialMT-44" d="M 494 0 
L 494 4581 
L 2072 4581 
Q 2606 4581 2888 4516 
Q 3281 4425 3559 4188 
Q 3922 3881 4101 3404 
Q 4281 2928 4281 2316 
Q 4281 1794 4159 1391 
Q 4038 988 3847 723 
Q 3656 459 3429 307 
Q 3203 156 2883 78 
Q 2563 0 2147 0 
L 494 0 
z
M 1100 541 
L 2078 541 
Q 2531 541 2789 625 
Q 3047 709 3200 863 
Q 3416 1078 3536 1442 
Q 3656 1806 3656 2325 
Q 3656 3044 3420 3430 
Q 3184 3816 2847 3947 
Q 2603 4041 2063 4041 
L 1100 4041 
L 1100 541 
z
" transform="scale(0.015625)"/>
      </defs>
      <use xlink:href="#ArialMT-43"/>
      <use xlink:href="#ArialMT-6f" x="72.216797"/>
      <use xlink:href="#ArialMT-6e" x="127.832031"/>
      <use xlink:href="#ArialMT-64" x="183.447266"/>
      <use xlink:href="#ArialMT-69" x="239.0625"/>
      <use xlink:href="#ArialMT-74" x="261.279297"/>
      <use xlink:href="#ArialMT-69" x="289.0625"/>
      <use xlink:href="#ArialMT-6f" x="311.279297"/>
      <use xlink:href="#ArialMT-6e" x="366.894531"/>
      <use xlink:href="#ArialMT-20" x="422.509766"/>
      <use xlink:href="#ArialMT-44" x="450.292969"/>
     </g>
    </g>
   </g>
  </g>
 </g>
 <defs>
  <clipPath id="pd059a9aafb">
   <rect x="53.485313" y="11.136797" width="357.12" height="266.112"/>
  </clipPath>
 </defs>
</svg>
