<?xml version="1.0" encoding="utf-8" standalone="no"?>
<!DOCTYPE svg PUBLIC "-//W3C//DTD SVG 1.1//EN"
  "http://www.w3.org/Graphics/SVG/1.1/DTD/svg11.dtd">
<svg xmlns:xlink="http://www.w3.org/1999/xlink" width="448.72923pt" height="262.641094pt" viewBox="0 0 448.72923 262.641094" xmlns="http://www.w3.org/2000/svg" version="1.1">
 <metadata>
  <rdf:RDF xmlns:dc="http://purl.org/dc/elements/1.1/" xmlns:cc="http://creativecommons.org/ns#" xmlns:rdf="http://www.w3.org/1999/02/22-rdf-syntax-ns#">
   <cc:Work>
    <dc:type rdf:resource="http://purl.org/dc/dcmitype/StillImage"/>
    <dc:date>2024-11-22T16:22:56.874270</dc:date>
    <dc:format>image/svg+xml</dc:format>
    <dc:creator>
     <cc:Agent>
      <dc:title>Matplotlib v3.7.1, https://matplotlib.org/</dc:title>
     </cc:Agent>
    </dc:creator>
   </cc:Work>
  </rdf:RDF>
 </metadata>
 <defs>
  <style type="text/css">*{stroke-linejoin: round; stroke-linecap: butt}</style>
 </defs>
 <g id="figure_1">
  <g id="patch_1">
   <path d="M 0 262.641094 
L 448.72923 262.641094 
L 448.72923 0 
L 0 0 
z
" style="fill: #ffffff"/>
  </g>
  <g id="axes_1">
   <g id="patch_2">
    <path d="M 22.6975 56.748837 
L 284.53603 56.748837 
L 284.53603 7.2 
L 22.6975 7.2 
z
" style="fill: #ffffff"/>
   </g>
   <g id="matplotlib.axis_1">
    <g id="xtick_1">
     <g id="line2d_1">
      <defs>
       <path id="m579fe153f7" d="M 0 0 
L 0 6 
" style="stroke: #262626; stroke-width: 1.25"/>
      </defs>
      <g>
       <use xlink:href="#m579fe153f7" x="35.789426" y="56.748837" style="fill: #262626; stroke: #262626; stroke-width: 1.25"/>
      </g>
     </g>
    </g>
    <g id="xtick_2">
     <g id="line2d_2">
      <g>
       <use xlink:href="#m579fe153f7" x="88.157132" y="56.748837" style="fill: #262626; stroke: #262626; stroke-width: 1.25"/>
      </g>
     </g>
    </g>
    <g id="xtick_3">
     <g id="line2d_3">
      <g>
       <use xlink:href="#m579fe153f7" x="140.524838" y="56.748837" style="fill: #262626; stroke: #262626; stroke-width: 1.25"/>
      </g>
     </g>
    </g>
    <g id="xtick_4">
     <g id="line2d_4">
      <g>
       <use xlink:href="#m579fe153f7" x="192.892544" y="56.748837" style="fill: #262626; stroke: #262626; stroke-width: 1.25"/>
      </g>
     </g>
    </g>
    <g id="xtick_5">
     <g id="line2d_5">
      <g>
       <use xlink:href="#m579fe153f7" x="245.26025" y="56.748837" style="fill: #262626; stroke: #262626; stroke-width: 1.25"/>
      </g>
     </g>
    </g>
   </g>
   <g id="matplotlib.axis_2">
    <g id="text_1">
     <!-- Signal intensity -->
     <g style="fill: #262626" transform="translate(16.0425 72.329106) rotate(-90) scale(0.12 -0.12)">
      <defs>
       <path id="Helvetica-53" d="M 894 1481 
Q 916 1091 1078 847 
Q 1388 391 2169 391 
Q 2519 391 2806 491 
Q 3363 684 3363 1184 
Q 3363 1559 3128 1719 
Q 2891 1875 2384 1991 
L 1763 2131 
Q 1153 2269 900 2434 
Q 463 2722 463 3294 
Q 463 3913 891 4309 
Q 1319 4706 2103 4706 
Q 2825 4706 3329 4357 
Q 3834 4009 3834 3244 
L 3250 3244 
Q 3203 3613 3050 3809 
Q 2766 4169 2084 4169 
Q 1534 4169 1293 3937 
Q 1053 3706 1053 3400 
Q 1053 3063 1334 2906 
Q 1519 2806 2169 2656 
L 2813 2509 
Q 3278 2403 3531 2219 
Q 3969 1897 3969 1284 
Q 3969 522 3414 194 
Q 2859 -134 2125 -134 
Q 1269 -134 784 303 
Q 300 738 309 1481 
L 894 1481 
z
M 2150 4716 
L 2150 4716 
z
" transform="scale(0.015625)"/>
       <path id="Helvetica-69" d="M 413 3331 
L 984 3331 
L 984 0 
L 413 0 
L 413 3331 
z
M 413 4591 
L 984 4591 
L 984 3953 
L 413 3953 
L 413 4591 
z
" transform="scale(0.015625)"/>
       <path id="Helvetica-67" d="M 1594 3406 
Q 1988 3406 2281 3213 
Q 2441 3103 2606 2894 
L 2606 3316 
L 3125 3316 
L 3125 272 
Q 3125 -366 2938 -734 
Q 2588 -1416 1616 -1416 
Q 1075 -1416 706 -1173 
Q 338 -931 294 -416 
L 866 -416 
Q 906 -641 1028 -763 
Q 1219 -950 1628 -950 
Q 2275 -950 2475 -494 
Q 2594 -225 2584 466 
Q 2416 209 2178 84 
Q 1941 -41 1550 -41 
Q 1006 -41 598 345 
Q 191 731 191 1622 
Q 191 2463 602 2934 
Q 1013 3406 1594 3406 
z
M 2606 1688 
Q 2606 2309 2350 2609 
Q 2094 2909 1697 2909 
Q 1103 2909 884 2353 
Q 769 2056 769 1575 
Q 769 1009 998 714 
Q 1228 419 1616 419 
Q 2222 419 2469 966 
Q 2606 1275 2606 1688 
z
M 1659 3428 
L 1659 3428 
z
" transform="scale(0.015625)"/>
       <path id="Helvetica-6e" d="M 413 3347 
L 947 3347 
L 947 2872 
Q 1184 3166 1450 3294 
Q 1716 3422 2041 3422 
Q 2753 3422 3003 2925 
Q 3141 2653 3141 2147 
L 3141 0 
L 2569 0 
L 2569 2109 
Q 2569 2416 2478 2603 
Q 2328 2916 1934 2916 
Q 1734 2916 1606 2875 
Q 1375 2806 1200 2600 
Q 1059 2434 1017 2257 
Q 975 2081 975 1753 
L 975 0 
L 413 0 
L 413 3347 
z
M 1734 3428 
L 1734 3428 
z
" transform="scale(0.015625)"/>
       <path id="Helvetica-61" d="M 844 891 
Q 844 647 1022 506 
Q 1200 366 1444 366 
Q 1741 366 2019 503 
Q 2488 731 2488 1250 
L 2488 1703 
Q 2384 1638 2221 1594 
Q 2059 1550 1903 1531 
L 1563 1488 
Q 1256 1447 1103 1359 
Q 844 1213 844 891 
z
M 2206 2028 
Q 2400 2053 2466 2191 
Q 2503 2266 2503 2406 
Q 2503 2694 2298 2823 
Q 2094 2953 1713 2953 
Q 1272 2953 1088 2716 
Q 984 2584 953 2325 
L 428 2325 
Q 444 2944 830 3186 
Q 1216 3428 1725 3428 
Q 2316 3428 2684 3203 
Q 3050 2978 3050 2503 
L 3050 575 
Q 3050 488 3086 434 
Q 3122 381 3238 381 
Q 3275 381 3322 386 
Q 3369 391 3422 400 
L 3422 -16 
Q 3291 -53 3222 -62 
Q 3153 -72 3034 -72 
Q 2744 -72 2613 134 
Q 2544 244 2516 444 
Q 2344 219 2022 53 
Q 1700 -113 1313 -113 
Q 847 -113 551 170 
Q 256 453 256 878 
Q 256 1344 547 1600 
Q 838 1856 1309 1916 
L 2206 2028 
z
M 1741 3428 
L 1741 3428 
z
" transform="scale(0.015625)"/>
       <path id="Helvetica-6c" d="M 428 4591 
L 991 4591 
L 991 0 
L 428 0 
L 428 4591 
z
" transform="scale(0.015625)"/>
       <path id="Helvetica-20" transform="scale(0.015625)"/>
       <path id="Helvetica-74" d="M 525 4281 
L 1094 4281 
L 1094 3347 
L 1628 3347 
L 1628 2888 
L 1094 2888 
L 1094 703 
Q 1094 528 1213 469 
Q 1278 434 1431 434 
Q 1472 434 1519 436 
Q 1566 438 1628 444 
L 1628 0 
Q 1531 -28 1426 -40 
Q 1322 -53 1200 -53 
Q 806 -53 665 148 
Q 525 350 525 672 
L 525 2888 
L 72 2888 
L 72 3347 
L 525 3347 
L 525 4281 
z
" transform="scale(0.015625)"/>
       <path id="Helvetica-65" d="M 1806 3422 
Q 2163 3422 2497 3255 
Q 2831 3088 3006 2822 
Q 3175 2569 3231 2231 
Q 3281 2000 3281 1494 
L 828 1494 
Q 844 984 1069 676 
Q 1294 369 1766 369 
Q 2206 369 2469 659 
Q 2619 828 2681 1050 
L 3234 1050 
Q 3213 866 3089 639 
Q 2966 413 2813 269 
Q 2556 19 2178 -69 
Q 1975 -119 1719 -119 
Q 1094 -119 659 336 
Q 225 791 225 1609 
Q 225 2416 662 2919 
Q 1100 3422 1806 3422 
z
M 2703 1941 
Q 2669 2306 2544 2525 
Q 2313 2931 1772 2931 
Q 1384 2931 1121 2651 
Q 859 2372 844 1941 
L 2703 1941 
z
M 1753 3428 
L 1753 3428 
z
" transform="scale(0.015625)"/>
       <path id="Helvetica-73" d="M 747 1050 
Q 772 769 888 619 
Q 1100 347 1625 347 
Q 1938 347 2175 483 
Q 2413 619 2413 903 
Q 2413 1119 2222 1231 
Q 2100 1300 1741 1391 
L 1294 1503 
Q 866 1609 663 1741 
Q 300 1969 300 2372 
Q 300 2847 642 3140 
Q 984 3434 1563 3434 
Q 2319 3434 2653 2991 
Q 2863 2709 2856 2384 
L 2325 2384 
Q 2309 2575 2191 2731 
Q 1997 2953 1519 2953 
Q 1200 2953 1036 2831 
Q 872 2709 872 2509 
Q 872 2291 1088 2159 
Q 1213 2081 1456 2022 
L 1828 1931 
Q 2434 1784 2641 1647 
Q 2969 1431 2969 969 
Q 2969 522 2630 197 
Q 2291 -128 1597 -128 
Q 850 -128 539 211 
Q 228 550 206 1050 
L 747 1050 
z
M 1578 3428 
L 1578 3428 
z
" transform="scale(0.015625)"/>
       <path id="Helvetica-79" d="M 2503 3347 
L 3125 3347 
Q 3006 3025 2597 1878 
Q 2291 1016 2084 472 
Q 1597 -809 1397 -1090 
Q 1197 -1372 709 -1372 
Q 591 -1372 527 -1362 
Q 463 -1353 369 -1328 
L 369 -816 
Q 516 -856 581 -865 
Q 647 -875 697 -875 
Q 853 -875 926 -823 
Q 1000 -772 1050 -697 
Q 1066 -672 1162 -440 
Q 1259 -209 1303 -97 
L 66 3347 
L 703 3347 
L 1600 622 
L 2503 3347 
z
M 1597 3428 
L 1597 3428 
z
" transform="scale(0.015625)"/>
      </defs>
      <use xlink:href="#Helvetica-53"/>
      <use xlink:href="#Helvetica-69" x="66.699219"/>
      <use xlink:href="#Helvetica-67" x="88.916016"/>
      <use xlink:href="#Helvetica-6e" x="144.53125"/>
      <use xlink:href="#Helvetica-61" x="200.146484"/>
      <use xlink:href="#Helvetica-6c" x="255.761719"/>
      <use xlink:href="#Helvetica-20" x="277.978516"/>
      <use xlink:href="#Helvetica-69" x="305.761719"/>
      <use xlink:href="#Helvetica-6e" x="327.978516"/>
      <use xlink:href="#Helvetica-74" x="383.59375"/>
      <use xlink:href="#Helvetica-65" x="411.376953"/>
      <use xlink:href="#Helvetica-6e" x="466.992188"/>
      <use xlink:href="#Helvetica-73" x="522.607422"/>
      <use xlink:href="#Helvetica-69" x="572.607422"/>
      <use xlink:href="#Helvetica-74" x="594.824219"/>
      <use xlink:href="#Helvetica-79" x="622.607422"/>
     </g>
    </g>
   </g>
   <g id="line2d_6">
    <path d="M -1 34.593795 
L 0.964774 35.263503 
L 3.583159 36.164767 
L 5.154446 36.452686 
L 6.201545 36.480806 
L 7.772832 36.265006 
L 10.391217 35.762312 
L 11.438315 35.821903 
L 13.009602 36.268511 
L 15.104438 36.979006 
L 16.675086 37.248027 
L 19.81702 37.526376 
L 23.483143 38.270033 
L 24.530242 38.182723 
L 25.57798 37.862173 
L 29.767012 36.143876 
L 30.81475 36.042733 
L 32.385398 36.169244 
L 33.956685 36.560385 
L 36.57507 37.352798 
L 37.622168 37.445015 
L 38.669906 37.257985 
L 39.717004 36.783153 
L 43.382488 34.598755 
L 45.477324 33.906869 
L 47.57216 33.112287 
L 50.190546 31.948184 
L 51.237644 31.718107 
L 52.285382 31.732745 
L 53.33248 31.978181 
L 54.903767 32.671657 
L 58.045702 34.301408 
L 59.0928 34.669705 
L 60.664087 34.918048 
L 62.235374 34.862879 
L 63.806021 34.552338 
L 64.853759 34.154909 
L 65.900857 33.567369 
L 67.995694 32.001704 
L 70.09053 30.53412 
L 72.708915 29.014501 
L 73.756013 28.569398 
L 74.803112 28.385914 
L 75.850849 28.542082 
L 76.897948 28.995957 
L 79.516333 30.40529 
L 80.564071 30.714841 
L 81.611169 30.8272 
L 84.229555 30.707172 
L 87.895038 30.433957 
L 92.08471 29.692616 
L 93.131809 29.896802 
L 94.179547 30.438884 
L 95.226645 31.353716 
L 96.797932 33.254838 
L 98.368579 35.251824 
L 99.416317 36.306857 
L 100.463416 36.997808 
L 101.511153 37.333028 
L 102.558252 37.38498 
L 104.129539 37.149049 
L 106.223735 36.551097 
L 107.795022 35.929076 
L 109.366309 35.134003 
L 111.984694 33.493449 
L 114.078891 31.93131 
L 115.650178 30.521235 
L 118.792113 27.502305 
L 119.83985 26.922165 
L 120.886949 26.759606 
L 121.934047 26.998651 
L 122.981785 27.541063 
L 125.076621 29.013264 
L 128.218555 31.14271 
L 130.836941 33.029328 
L 132.931777 34.505858 
L 133.978875 35.008254 
L 135.025974 35.245299 
L 136.073711 35.153928 
L 137.12081 34.721411 
L 138.168547 33.963344 
L 139.739195 32.378856 
L 141.834031 30.131383 
L 142.88113 29.24396 
L 143.928867 28.60125 
L 144.975966 28.207481 
L 146.023703 28.054097 
L 147.070802 28.110791 
L 148.642089 28.438362 
L 152.831122 29.539616 
L 153.878859 30.120415 
L 154.925958 31.022105 
L 155.973056 32.290154 
L 157.544343 34.793671 
L 160.162728 39.226315 
L 161.209827 40.504157 
L 162.257564 41.3029 
L 163.304663 41.635233 
L 164.3524 41.561406 
L 165.399499 41.175368 
L 166.446597 40.567913 
L 168.017884 39.37537 
L 169.589171 37.897292 
L 171.159819 36.017509 
L 172.731106 33.635309 
L 175.87304 28.411375 
L 176.920138 27.124585 
L 177.967876 26.354499 
L 178.491425 26.195548 
L 179.014975 26.200805 
L 179.538524 26.36893 
L 180.062712 26.692501 
L 181.109811 27.754131 
L 182.156909 29.236125 
L 184.775294 33.276278 
L 185.823032 34.510099 
L 186.87013 35.393974 
L 187.917868 35.967967 
L 188.964967 36.326226 
L 191.059803 36.744652 
L 196.296573 37.395031 
L 197.867221 37.478299 
L 198.914959 37.354894 
L 199.962057 37.016105 
L 201.009795 36.459293 
L 204.151729 34.407828 
L 205.198828 34.024522 
L 206.246565 33.85382 
L 207.817213 33.853202 
L 210.435598 34.100441 
L 215.672369 34.920419 
L 217.767205 35.031643 
L 219.338492 35.409435 
L 223.003975 36.59971 
L 224.051074 36.655477 
L 225.098812 36.519204 
L 226.669459 36.053072 
L 229.812033 34.994225 
L 236.095902 33.474194 
L 237.143 33.359259 
L 238.190738 33.440383 
L 239.237836 33.735607 
L 240.285574 34.207511 
L 244.474607 36.458798 
L 247.092992 37.406627 
L 249.187828 37.988725 
L 250.234927 38.081189 
L 251.806214 37.944297 
L 254.948148 37.4994 
L 258.614271 37.231905 
L 262.279755 36.756867 
L 264.374591 36.765485 
L 266.992976 36.787513 
L 270.65846 36.627389 
L 271.706198 36.83927 
L 273.276845 37.487133 
L 275.895231 38.758791 
L 276.942968 39.030121 
L 277.990067 39.099741 
L 279.037165 39.006144 
L 280.084903 38.750936 
L 281.132001 38.322367 
L 282.179739 37.723714 
L 286.368772 34.895423 
L 287.41651 34.51697 
L 288.463608 34.324044 
L 290.034895 34.316025 
L 292.65328 34.65412 
L 295.271665 34.924542 
L 297.890051 34.886505 
L 300.508436 34.817328 
L 302.079084 34.95091 
L 305.745207 35.370522 
L 306.792305 35.236434 
L 308.887141 34.665324 
L 310.457789 34.268329 
L 312.552625 34.018884 
L 316.742297 33.64771 
L 318.837133 33.528847 
L 320.407781 33.724454 
L 321.979068 34.185297 
L 324.073904 35.087266 
L 326.692289 36.241687 
L 328.262937 36.704837 
L 331.92906 37.450045 
L 332.976158 37.498421 
L 334.023256 37.337924 
L 335.070994 36.971337 
L 336.641642 36.144762 
L 340.307765 33.995649 
L 341.878412 33.320665 
L 343.973248 32.70261 
L 345.544535 32.520613 
L 346.591634 32.641589 
L 347.639371 32.986436 
L 351.304855 34.564687 
L 352.351954 34.680447 
L 353.92324 34.569222 
L 357.588724 34.1101 
L 359.160011 34.2426 
L 360.731298 34.627422 
L 363.349683 35.393169 
L 364.396782 35.533895 
L 365.44388 35.512949 
L 366.491618 35.319404 
L 368.062265 34.802628 
L 370.680651 33.91772 
L 372.251938 33.664533 
L 374.346774 33.626475 
L 376.44161 33.856358 
L 380.107093 34.622206 
L 382.20193 35.266668 
L 385.343864 36.320804 
L 386.915151 36.548901 
L 389.009348 36.510349 
L 390.580635 36.521399 
L 392.151922 36.720624 
L 394.246118 37.01728 
L 395.817405 36.99553 
L 397.388692 36.735313 
L 400.007077 36.032621 
L 402.625463 35.307405 
L 403.672561 35.206973 
L 404.71966 35.300014 
L 405.767397 35.583827 
L 409.432881 36.898789 
L 410.480619 37.019569 
L 411.527717 36.947433 
L 412.574815 36.706347 
L 414.669652 35.91851 
L 416.240938 35.404628 
L 417.288037 35.245052 
L 418.859324 35.332483 
L 421.477709 35.653936 
L 424.096094 35.55113 
L 427.761578 35.302271 
L 428.285127 35.222209 
L 428.285127 35.222209 
" clip-path="url(#p1ec69be887)" style="fill: none; stroke: #f69c73; stroke-width: 1.5; stroke-linecap: round"/>
   </g>
   <g id="patch_3">
    <path d="M 22.6975 56.748837 
L 284.53603 56.748837 
" style="fill: none; stroke: #262626; stroke-width: 1.25; stroke-linejoin: miter; stroke-linecap: square"/>
   </g>
  </g>
  <g id="axes_2">
   <g id="patch_4">
    <path d="M 22.6975 111.252558 
L 284.53603 111.252558 
L 284.53603 61.703721 
L 22.6975 61.703721 
z
" style="fill: #ffffff"/>
   </g>
   <g id="matplotlib.axis_3">
    <g id="xtick_6">
     <g id="line2d_7">
      <g>
       <use xlink:href="#m579fe153f7" x="35.789426" y="111.252558" style="fill: #262626; stroke: #262626; stroke-width: 1.25"/>
      </g>
     </g>
    </g>
    <g id="xtick_7">
     <g id="line2d_8">
      <g>
       <use xlink:href="#m579fe153f7" x="88.157132" y="111.252558" style="fill: #262626; stroke: #262626; stroke-width: 1.25"/>
      </g>
     </g>
    </g>
    <g id="xtick_8">
     <g id="line2d_9">
      <g>
       <use xlink:href="#m579fe153f7" x="140.524838" y="111.252558" style="fill: #262626; stroke: #262626; stroke-width: 1.25"/>
      </g>
     </g>
    </g>
    <g id="xtick_9">
     <g id="line2d_10">
      <g>
       <use xlink:href="#m579fe153f7" x="192.892544" y="111.252558" style="fill: #262626; stroke: #262626; stroke-width: 1.25"/>
      </g>
     </g>
    </g>
    <g id="xtick_10">
     <g id="line2d_11">
      <g>
       <use xlink:href="#m579fe153f7" x="245.26025" y="111.252558" style="fill: #262626; stroke: #262626; stroke-width: 1.25"/>
      </g>
     </g>
    </g>
   </g>
   <g id="matplotlib.axis_4">
    <g id="text_2">
     <!-- Signal intensity -->
     <g style="fill: #262626" transform="translate(16.0425 126.832827) rotate(-90) scale(0.12 -0.12)">
      <use xlink:href="#Helvetica-53"/>
      <use xlink:href="#Helvetica-69" x="66.699219"/>
      <use xlink:href="#Helvetica-67" x="88.916016"/>
      <use xlink:href="#Helvetica-6e" x="144.53125"/>
      <use xlink:href="#Helvetica-61" x="200.146484"/>
      <use xlink:href="#Helvetica-6c" x="255.761719"/>
      <use xlink:href="#Helvetica-20" x="277.978516"/>
      <use xlink:href="#Helvetica-69" x="305.761719"/>
      <use xlink:href="#Helvetica-6e" x="327.978516"/>
      <use xlink:href="#Helvetica-74" x="383.59375"/>
      <use xlink:href="#Helvetica-65" x="411.376953"/>
      <use xlink:href="#Helvetica-6e" x="466.992188"/>
      <use xlink:href="#Helvetica-73" x="522.607422"/>
      <use xlink:href="#Helvetica-69" x="572.607422"/>
      <use xlink:href="#Helvetica-74" x="594.824219"/>
      <use xlink:href="#Helvetica-79" x="622.607422"/>
     </g>
    </g>
   </g>
   <g id="line2d_12">
    <path d="M -1 88.518526 
L 3.05961 89.786366 
L 4.106709 89.797293 
L 6.201545 89.380537 
L 9.343479 88.728756 
L 10.914766 88.323638 
L 12.486053 87.672816 
L 16.151537 85.92913 
L 17.198635 85.703125 
L 18.246373 85.70931 
L 19.293471 85.931862 
L 20.341209 86.376862 
L 21.388307 87.008346 
L 23.483143 88.7135 
L 25.57798 90.431869 
L 26.625078 91.065159 
L 27.672176 91.469048 
L 28.719914 91.623165 
L 29.767012 91.568449 
L 31.338299 91.200805 
L 35.527332 89.943101 
L 37.622168 89.438777 
L 39.193455 89.334253 
L 40.240554 89.482277 
L 41.811841 90.014072 
L 44.953775 91.635813 
L 47.57216 92.928377 
L 48.619259 93.218022 
L 49.666996 93.256884 
L 50.714095 93.021457 
L 54.380218 91.658099 
L 55.950865 91.56779 
L 58.045702 91.820183 
L 60.664087 92.088039 
L 62.235374 92.039065 
L 64.853759 91.848644 
L 65.900857 91.955931 
L 66.947956 92.251443 
L 68.519243 93.00816 
L 70.614079 94.033197 
L 71.661177 94.276694 
L 72.708915 94.301186 
L 73.756013 94.098158 
L 77.945686 92.842406 
L 79.516333 92.733449 
L 81.08762 92.833025 
L 82.658268 93.161853 
L 84.229555 93.732406 
L 87.371489 95.127503 
L 87.895038 95.178425 
L 88.419227 95.092662 
L 88.942776 94.837021 
L 89.466325 94.348418 
L 89.989874 93.628501 
L 90.513424 92.610886 
L 91.561161 89.751422 
L 92.60826 85.884651 
L 96.797932 68.572317 
L 97.321481 67.21876 
L 97.84503 66.200836 
L 98.368579 65.555035 
L 98.892768 65.322277 
L 99.416317 65.468962 
L 99.939866 66.008591 
L 100.463416 66.924156 
L 100.986965 68.207203 
L 102.034702 71.629798 
L 103.60535 78.1073 
L 105.700186 86.855384 
L 107.271473 92.298592 
L 108.842121 96.724948 
L 110.413408 100.480907 
L 111.984694 103.619823 
L 113.031793 105.188406 
L 114.078891 106.195094 
L 115.126629 106.585255 
L 115.650178 106.560516 
L 116.697277 106.173962 
L 117.745014 105.37828 
L 118.792113 104.158937 
L 119.83985 102.422332 
L 120.886949 100.006426 
L 121.934047 96.887713 
L 122.981785 93.088151 
L 124.552432 86.494065 
L 127.695006 72.934751 
L 128.742105 69.385521 
L 129.789203 66.787367 
L 130.313392 65.902624 
L 130.836941 65.306815 
L 131.36049 65.032931 
L 131.884039 65.060349 
L 132.407588 65.415566 
L 132.931777 66.074769 
L 133.455326 67.039504 
L 133.978875 68.277093 
L 135.025974 71.58702 
L 136.073711 75.759941 
L 138.168547 85.473564 
L 140.262744 94.933299 
L 141.834031 100.751597 
L 142.88113 103.79403 
L 143.928867 106.098197 
L 144.975966 107.703002 
L 146.023703 108.636978 
L 146.547253 108.884578 
L 147.070802 109.000338 
L 148.1179 108.879115 
L 149.165638 108.362782 
L 150.212736 107.485564 
L 151.260474 106.251685 
L 152.307572 104.62779 
L 153.354671 102.570151 
L 154.402408 100.014157 
L 155.449507 96.962034 
L 157.020794 91.471842 
L 159.11563 82.977872 
L 161.209827 74.606157 
L 162.257564 71.012446 
L 163.304663 68.040213 
L 164.3524 65.811396 
L 164.87595 65.001594 
L 165.399499 64.41331 
L 165.923048 64.068092 
L 166.446597 63.955941 
L 166.970786 64.131756 
L 167.494335 64.593207 
L 168.017884 65.35145 
L 168.541433 66.428646 
L 169.589171 69.525401 
L 170.636269 73.727495 
L 172.207556 81.448255 
L 174.825942 95.099259 
L 175.87304 99.76264 
L 176.920138 103.501383 
L 177.967876 106.091704 
L 178.491425 106.90357 
L 179.014975 107.418252 
L 179.538524 107.626475 
L 180.062712 107.550196 
L 180.586261 107.226419 
L 181.63336 105.966358 
L 182.681098 104.231196 
L 184.775294 100.568628 
L 185.823032 99.073407 
L 186.87013 97.906564 
L 189.488516 95.72228 
L 190.536253 94.726364 
L 191.583352 93.450944 
L 192.63045 91.851592 
L 194.201737 88.930877 
L 196.296573 84.78888 
L 197.343672 83.172128 
L 198.391409 82.213631 
L 198.914959 82.033033 
L 199.438508 82.067771 
L 199.962057 82.316505 
L 200.485606 82.780472 
L 201.009795 83.442252 
L 202.056893 85.276267 
L 203.62818 88.860803 
L 205.198828 92.480076 
L 206.246565 94.39532 
L 207.293664 95.646 
L 207.817213 96.023173 
L 208.340762 96.233664 
L 208.864951 96.32252 
L 209.912049 96.166662 
L 211.483336 95.50447 
L 214.62527 94.124732 
L 220.38559 91.787228 
L 223.003975 91.065631 
L 227.193648 89.955604 
L 230.335582 88.80485 
L 231.382681 88.614625 
L 232.430418 88.606378 
L 234.001066 88.797408 
L 236.095902 89.201279 
L 237.143 89.265498 
L 238.190738 89.144584 
L 239.761386 88.710201 
L 241.856222 87.970524 
L 246.045894 86.881794 
L 247.616542 86.591332 
L 253.377501 86.137416 
L 254.948148 86.323497 
L 257.566534 87.05902 
L 261.756206 88.30631 
L 264.89814 89.524541 
L 266.469427 89.860894 
L 268.563624 90.049057 
L 270.134911 90.004166 
L 271.706198 89.710457 
L 273.800395 88.979603 
L 275.371681 88.409587 
L 276.942968 88.015218 
L 279.037165 87.80075 
L 280.084903 87.84762 
L 281.132001 88.068523 
L 282.179739 88.496515 
L 284.273936 89.831722 
L 285.321673 90.435054 
L 286.368772 90.866345 
L 287.41651 91.078588 
L 291.605542 91.357288 
L 294.223928 91.778992 
L 295.271665 91.711907 
L 296.318764 91.407221 
L 297.365862 90.882477 
L 300.508436 88.986592 
L 301.555534 88.649557 
L 302.602633 88.579917 
L 304.17392 88.769246 
L 305.745207 89.198485 
L 307.839403 90.033369 
L 309.93424 90.941109 
L 311.505526 91.393325 
L 315.694559 92.399395 
L 318.312945 92.941487 
L 319.884232 93.021055 
L 321.979068 92.857455 
L 324.073904 92.254484 
L 325.644551 91.528021 
L 328.786486 90.09999 
L 330.357773 89.66104 
L 331.92906 89.383155 
L 334.023256 89.279013 
L 335.594543 89.427768 
L 338.736478 89.911609 
L 340.831314 89.957831 
L 343.973248 89.932463 
L 347.115183 89.960243 
L 350.257757 89.700397 
L 351.828404 89.835814 
L 353.399691 90.317501 
L 354.970339 91.113306 
L 357.065175 92.196408 
L 358.112913 92.462903 
L 359.160011 92.451111 
L 360.207109 92.238279 
L 362.301946 91.539195 
L 364.396782 90.893775 
L 366.491618 90.460258 
L 373.823224 89.350468 
L 375.917421 89.5031 
L 377.488708 89.71256 
L 378.535807 89.713488 
L 379.583544 89.509625 
L 381.154192 88.881141 
L 383.772577 87.63915 
L 385.343864 87.162122 
L 387.4387 86.731842 
L 391.104184 86.228529 
L 392.151922 86.313828 
L 393.19902 86.577591 
L 394.770307 87.300209 
L 396.340954 88.097097 
L 397.388692 88.486547 
L 398.435791 88.693523 
L 400.007077 88.643436 
L 403.672561 88.035424 
L 405.767397 87.512381 
L 410.480619 85.916194 
L 411.527717 85.797444 
L 412.574815 85.86857 
L 414.146102 86.32862 
L 416.240938 87.355914 
L 419.906422 89.08957 
L 423.572545 90.617188 
L 427.238029 91.86155 
L 428.285127 92.263411 
L 428.285127 92.263411 
" clip-path="url(#p9ce4f93231)" style="fill: none; stroke: #e83f3f; stroke-width: 1.5; stroke-linecap: round"/>
   </g>
   <g id="patch_5">
    <path d="M 22.6975 111.252558 
L 284.53603 111.252558 
" style="fill: none; stroke: #262626; stroke-width: 1.25; stroke-linejoin: miter; stroke-linecap: square"/>
   </g>
  </g>
  <g id="axes_3">
   <g id="patch_6">
    <path d="M 22.6975 165.756279 
L 284.53603 165.756279 
L 284.53603 116.207442 
L 22.6975 116.207442 
z
" style="fill: #ffffff"/>
   </g>
   <g id="matplotlib.axis_5">
    <g id="xtick_11">
     <g id="line2d_13">
      <g>
       <use xlink:href="#m579fe153f7" x="35.789426" y="165.756279" style="fill: #262626; stroke: #262626; stroke-width: 1.25"/>
      </g>
     </g>
    </g>
    <g id="xtick_12">
     <g id="line2d_14">
      <g>
       <use xlink:href="#m579fe153f7" x="88.157132" y="165.756279" style="fill: #262626; stroke: #262626; stroke-width: 1.25"/>
      </g>
     </g>
    </g>
    <g id="xtick_13">
     <g id="line2d_15">
      <g>
       <use xlink:href="#m579fe153f7" x="140.524838" y="165.756279" style="fill: #262626; stroke: #262626; stroke-width: 1.25"/>
      </g>
     </g>
    </g>
    <g id="xtick_14">
     <g id="line2d_16">
      <g>
       <use xlink:href="#m579fe153f7" x="192.892544" y="165.756279" style="fill: #262626; stroke: #262626; stroke-width: 1.25"/>
      </g>
     </g>
    </g>
    <g id="xtick_15">
     <g id="line2d_17">
      <g>
       <use xlink:href="#m579fe153f7" x="245.26025" y="165.756279" style="fill: #262626; stroke: #262626; stroke-width: 1.25"/>
      </g>
     </g>
    </g>
   </g>
   <g id="matplotlib.axis_6">
    <g id="text_3">
     <!-- Signal intensity -->
     <g style="fill: #262626" transform="translate(16.0425 181.336548) rotate(-90) scale(0.12 -0.12)">
      <use xlink:href="#Helvetica-53"/>
      <use xlink:href="#Helvetica-69" x="66.699219"/>
      <use xlink:href="#Helvetica-67" x="88.916016"/>
      <use xlink:href="#Helvetica-6e" x="144.53125"/>
      <use xlink:href="#Helvetica-61" x="200.146484"/>
      <use xlink:href="#Helvetica-6c" x="255.761719"/>
      <use xlink:href="#Helvetica-20" x="277.978516"/>
      <use xlink:href="#Helvetica-69" x="305.761719"/>
      <use xlink:href="#Helvetica-6e" x="327.978516"/>
      <use xlink:href="#Helvetica-74" x="383.59375"/>
      <use xlink:href="#Helvetica-65" x="411.376953"/>
      <use xlink:href="#Helvetica-6e" x="466.992188"/>
      <use xlink:href="#Helvetica-73" x="522.607422"/>
      <use xlink:href="#Helvetica-69" x="572.607422"/>
      <use xlink:href="#Helvetica-74" x="594.824219"/>
      <use xlink:href="#Helvetica-79" x="622.607422"/>
     </g>
    </g>
   </g>
   <g id="line2d_18">
    <path d="M -1 143.280092 
L 0.441225 143.436412 
L 3.05961 143.611413 
L 8.81993 144.653963 
L 11.961865 144.65654 
L 14.056701 144.462851 
L 17.722824 143.960372 
L 19.81702 144.109757 
L 21.911857 144.228847 
L 23.483143 144.0466 
L 28.196365 142.881373 
L 30.81475 142.583271 
L 33.433135 142.496335 
L 36.57507 142.696766 
L 37.622168 142.976321 
L 38.669906 143.453276 
L 42.33539 145.615295 
L 43.382488 145.91155 
L 44.953775 146.061842 
L 47.57216 146.12502 
L 49.143447 146.377084 
L 50.714095 146.662776 
L 51.761833 146.717653 
L 53.33248 146.42415 
L 55.950865 145.641457 
L 57.522152 145.413535 
L 60.664087 145.177552 
L 64.329571 144.660158 
L 66.424407 144.799781 
L 71.137628 145.501947 
L 73.232464 145.548354 
L 76.374399 145.265954 
L 79.516333 145.068142 
L 81.611169 144.83621 
L 82.658268 144.561293 
L 84.229555 143.875083 
L 85.276653 143.224746 
L 86.84794 141.980044 
L 88.419227 140.434964 
L 91.037612 137.235024 
L 94.179547 133.436389 
L 98.892768 128.483455 
L 100.463416 127.24669 
L 100.986965 126.964969 
L 101.511153 126.823234 
L 102.558252 126.87395 
L 103.081801 127.144845 
L 103.60535 127.55181 
L 104.653088 128.822107 
L 105.700186 130.757162 
L 106.747924 133.283005 
L 108.318571 137.885876 
L 110.413408 144.215168 
L 111.460506 146.700923 
L 112.508244 148.415478 
L 113.031793 148.932305 
L 113.555342 149.179627 
L 114.078891 149.181173 
L 114.60308 148.935634 
L 115.126629 148.428579 
L 115.650178 147.691242 
L 116.697277 145.618553 
L 118.268563 141.655133 
L 119.83985 137.809596 
L 120.886949 135.835906 
L 121.934047 134.53049 
L 122.458236 134.148988 
L 122.981785 133.93324 
L 123.505334 133.915715 
L 124.028883 134.076831 
L 124.552432 134.400196 
L 125.60017 135.522437 
L 126.647269 137.162867 
L 127.695006 139.152638 
L 131.36049 146.605284 
L 132.407588 147.995124 
L 132.931777 148.461977 
L 133.455326 148.764891 
L 133.978875 148.866467 
L 134.502424 148.841521 
L 135.550162 148.424961 
L 137.644359 147.196556 
L 138.692097 146.971015 
L 139.215646 147.04946 
L 139.739195 147.251395 
L 140.262744 147.624136 
L 141.310482 148.779054 
L 142.88113 151.213104 
L 144.452416 153.581903 
L 145.499515 154.629721 
L 146.023703 154.892268 
L 146.547253 154.983494 
L 147.070802 154.872063 
L 147.594351 154.539318 
L 148.1179 154.009276 
L 148.642089 153.296575 
L 149.689187 151.2732 
L 150.736285 148.584438 
L 152.831122 142.289163 
L 153.878859 139.234896 
L 154.925958 136.719516 
L 155.449507 135.711694 
L 155.973056 134.990025 
L 156.497245 134.471424 
L 157.020794 134.244338 
L 157.544343 134.235473 
L 158.067892 134.470084 
L 158.591441 134.898488 
L 159.639179 136.21844 
L 163.304663 141.620085 
L 164.3524 142.526991 
L 164.87595 142.786549 
L 165.399499 142.879528 
L 165.923048 142.831843 
L 166.446597 142.628083 
L 167.494335 141.848997 
L 169.064983 140.209217 
L 170.11272 139.248503 
L 170.636269 138.885658 
L 171.159819 138.683723 
L 171.683368 138.637955 
L 172.207556 138.740726 
L 172.731106 138.982657 
L 173.254655 139.411371 
L 174.301753 140.690605 
L 175.349491 142.407933 
L 177.444327 146.607449 
L 179.014975 149.623596 
L 180.062712 151.160532 
L 181.109811 152.057336 
L 181.63336 152.256282 
L 182.156909 152.251128 
L 182.681098 152.084137 
L 183.204647 151.720571 
L 184.251745 150.548541 
L 185.299483 148.87059 
L 188.964967 142.096422 
L 190.012065 140.95241 
L 190.536253 140.640713 
L 191.059803 140.529757 
L 191.583352 140.627932 
L 192.106901 140.91292 
L 192.63045 141.364517 
L 193.678188 142.762232 
L 195.248836 145.644745 
L 197.867221 150.788328 
L 198.914959 152.446466 
L 199.962057 153.783736 
L 201.009795 154.751974 
L 202.056893 155.317064 
L 202.580442 155.450553 
L 203.62818 155.390251 
L 204.675278 154.986793 
L 206.246565 153.911556 
L 212.530434 148.940891 
L 214.62527 147.873901 
L 216.720106 146.72527 
L 219.338492 145.256574 
L 220.909139 144.732263 
L 223.003975 144.391498 
L 231.90623 143.06362 
L 233.477517 143.130015 
L 236.095902 143.515053 
L 240.809123 144.133404 
L 242.379771 144.007748 
L 243.427509 143.740769 
L 248.664279 141.81697 
L 251.282665 141.209308 
L 253.90105 140.152059 
L 254.948148 139.794451 
L 255.995886 139.616401 
L 257.042984 139.683298 
L 258.090083 139.931053 
L 262.803304 141.543527 
L 264.89814 142.144602 
L 269.611362 143.732894 
L 270.65846 143.811346 
L 272.229747 143.659541 
L 277.466518 142.960323 
L 280.608452 142.816968 
L 286.892321 142.361649 
L 288.463608 142.536784 
L 290.034895 142.986629 
L 294.747477 144.671291 
L 295.795215 144.738726 
L 297.365862 144.620626 
L 301.555534 144.039972 
L 303.126821 144.160354 
L 305.221018 144.752281 
L 309.93424 146.417584 
L 311.505526 146.468815 
L 314.123912 146.32511 
L 315.694559 146.481577 
L 317.265846 146.60449 
L 318.312945 146.474217 
L 319.360682 146.130332 
L 321.455518 145.156224 
L 323.549715 144.308539 
L 325.121002 143.950126 
L 326.168101 143.882608 
L 327.215838 144.04795 
L 328.262937 144.452543 
L 329.834224 145.515204 
L 331.92906 147.023298 
L 332.976158 147.531054 
L 334.023256 147.745153 
L 335.070994 147.667873 
L 336.641642 147.244798 
L 338.212929 146.81359 
L 340.831314 146.448807 
L 345.544535 145.878481 
L 349.210019 145.451829 
L 351.304855 145.171284 
L 352.351954 144.922829 
L 356.018077 143.709948 
L 357.065175 143.691187 
L 358.636462 143.957754 
L 362.301946 144.684897 
L 364.920331 144.814573 
L 366.491618 144.592093 
L 373.299036 142.975785 
L 374.870323 142.761119 
L 376.44161 142.77787 
L 379.059995 143.298459 
L 380.630643 143.56648 
L 391.104184 144.250019 
L 392.151922 144.352307 
L 393.19902 144.268667 
L 394.246118 144.001863 
L 397.912241 142.799925 
L 400.007077 142.69847 
L 402.625463 142.810331 
L 404.71966 142.931924 
L 406.290946 142.74945 
L 407.338045 142.426797 
L 408.909332 141.650257 
L 412.574815 139.774917 
L 414.146102 139.261948 
L 415.193201 139.128713 
L 416.240938 139.19219 
L 417.811586 139.745497 
L 419.382873 140.728487 
L 425.666742 145.033094 
L 427.238029 145.809448 
L 428.285127 146.17352 
L 428.285127 146.17352 
" clip-path="url(#pf376517cc4)" style="fill: none; stroke: #a11a5b; stroke-width: 1.5; stroke-linecap: round"/>
   </g>
   <g id="patch_7">
    <path d="M 22.6975 165.756279 
L 284.53603 165.756279 
" style="fill: none; stroke: #262626; stroke-width: 1.25; stroke-linejoin: miter; stroke-linecap: square"/>
   </g>
  </g>
  <g id="axes_4">
   <g id="patch_8">
    <path d="M 22.6975 220.26 
L 284.53603 220.26 
L 284.53603 170.711163 
L 22.6975 170.711163 
z
" style="fill: #ffffff"/>
   </g>
   <g id="matplotlib.axis_7">
    <g id="xtick_16">
     <g id="line2d_19">
      <g>
       <use xlink:href="#m579fe153f7" x="35.789426" y="220.26" style="fill: #262626; stroke: #262626; stroke-width: 1.25"/>
      </g>
     </g>
     <g id="text_4">
      <!-- 3280 -->
      <g style="fill: #262626" transform="translate(23.555364 237.650781) scale(0.11 -0.11)">
       <defs>
        <path id="Helvetica-33" d="M 1663 -122 
Q 869 -122 511 314 
Q 153 750 153 1375 
L 741 1375 
Q 778 941 903 744 
Q 1122 391 1694 391 
Q 2138 391 2406 628 
Q 2675 866 2675 1241 
Q 2675 1703 2392 1887 
Q 2109 2072 1606 2072 
Q 1550 2072 1492 2070 
Q 1434 2069 1375 2066 
L 1375 2563 
Q 1463 2553 1522 2550 
Q 1581 2547 1650 2547 
Q 1966 2547 2169 2647 
Q 2525 2822 2525 3272 
Q 2525 3606 2287 3787 
Q 2050 3969 1734 3969 
Q 1172 3969 956 3594 
Q 838 3388 822 3006 
L 266 3006 
Q 266 3506 466 3856 
Q 809 4481 1675 4481 
Q 2359 4481 2734 4176 
Q 3109 3872 3109 3294 
Q 3109 2881 2888 2625 
Q 2750 2466 2531 2375 
Q 2884 2278 3082 2001 
Q 3281 1725 3281 1325 
Q 3281 684 2859 281 
Q 2438 -122 1663 -122 
z
" transform="scale(0.015625)"/>
        <path id="Helvetica-32" d="M 200 0 
Q 231 578 439 1006 
Q 647 1434 1250 1784 
L 1850 2131 
Q 2253 2366 2416 2531 
Q 2672 2791 2672 3125 
Q 2672 3516 2437 3745 
Q 2203 3975 1813 3975 
Q 1234 3975 1013 3538 
Q 894 3303 881 2888 
L 309 2888 
Q 319 3472 525 3841 
Q 891 4491 1816 4491 
Q 2584 4491 2939 4075 
Q 3294 3659 3294 3150 
Q 3294 2613 2916 2231 
Q 2697 2009 2131 1694 
L 1703 1456 
Q 1397 1288 1222 1134 
Q 909 863 828 531 
L 3272 531 
L 3272 0 
L 200 0 
z
" transform="scale(0.015625)"/>
        <path id="Helvetica-38" d="M 1741 2600 
Q 2113 2600 2322 2808 
Q 2531 3016 2531 3303 
Q 2531 3553 2331 3762 
Q 2131 3972 1722 3972 
Q 1316 3972 1134 3762 
Q 953 3553 953 3272 
Q 953 2956 1187 2778 
Q 1422 2600 1741 2600 
z
M 1775 384 
Q 2166 384 2423 595 
Q 2681 806 2681 1225 
Q 2681 1659 2415 1884 
Q 2150 2109 1734 2109 
Q 1331 2109 1076 1879 
Q 822 1650 822 1244 
Q 822 894 1055 639 
Q 1288 384 1775 384 
z
M 975 2384 
Q 741 2484 609 2619 
Q 363 2869 363 3269 
Q 363 3769 725 4128 
Q 1088 4488 1753 4488 
Q 2397 4488 2762 4148 
Q 3128 3809 3128 3356 
Q 3128 2938 2916 2678 
Q 2797 2531 2547 2391 
Q 2825 2263 2984 2097 
Q 3281 1784 3281 1284 
Q 3281 694 2884 283 
Q 2488 -128 1763 -128 
Q 1109 -128 657 226 
Q 206 581 206 1256 
Q 206 1653 400 1942 
Q 594 2231 975 2384 
z
" transform="scale(0.015625)"/>
        <path id="Helvetica-30" d="M 1731 4475 
Q 2600 4475 2988 3759 
Q 3288 3206 3288 2244 
Q 3288 1331 3016 734 
Q 2622 -122 1728 -122 
Q 922 -122 528 578 
Q 200 1163 200 2147 
Q 200 2909 397 3456 
Q 766 4475 1731 4475 
z
M 1725 391 
Q 2163 391 2422 778 
Q 2681 1166 2681 2222 
Q 2681 2984 2493 3476 
Q 2306 3969 1766 3969 
Q 1269 3969 1039 3501 
Q 809 3034 809 2125 
Q 809 1441 956 1025 
Q 1181 391 1725 391 
z
" transform="scale(0.015625)"/>
       </defs>
       <use xlink:href="#Helvetica-33"/>
       <use xlink:href="#Helvetica-32" x="55.615234"/>
       <use xlink:href="#Helvetica-38" x="111.230469"/>
       <use xlink:href="#Helvetica-30" x="166.845703"/>
      </g>
     </g>
    </g>
    <g id="xtick_17">
     <g id="line2d_20">
      <g>
       <use xlink:href="#m579fe153f7" x="88.157132" y="220.26" style="fill: #262626; stroke: #262626; stroke-width: 1.25"/>
      </g>
     </g>
     <g id="text_5">
      <!-- 3300 -->
      <g style="fill: #262626" transform="translate(75.92307 237.650781) scale(0.11 -0.11)">
       <use xlink:href="#Helvetica-33"/>
       <use xlink:href="#Helvetica-33" x="55.615234"/>
       <use xlink:href="#Helvetica-30" x="111.230469"/>
       <use xlink:href="#Helvetica-30" x="166.845703"/>
      </g>
     </g>
    </g>
    <g id="xtick_18">
     <g id="line2d_21">
      <g>
       <use xlink:href="#m579fe153f7" x="140.524838" y="220.26" style="fill: #262626; stroke: #262626; stroke-width: 1.25"/>
      </g>
     </g>
     <g id="text_6">
      <!-- 3320 -->
      <g style="fill: #262626" transform="translate(128.290776 237.650781) scale(0.11 -0.11)">
       <use xlink:href="#Helvetica-33"/>
       <use xlink:href="#Helvetica-33" x="55.615234"/>
       <use xlink:href="#Helvetica-32" x="111.230469"/>
       <use xlink:href="#Helvetica-30" x="166.845703"/>
      </g>
     </g>
    </g>
    <g id="xtick_19">
     <g id="line2d_22">
      <g>
       <use xlink:href="#m579fe153f7" x="192.892544" y="220.26" style="fill: #262626; stroke: #262626; stroke-width: 1.25"/>
      </g>
     </g>
     <g id="text_7">
      <!-- 3340 -->
      <g style="fill: #262626" transform="translate(180.658482 237.650781) scale(0.11 -0.11)">
       <defs>
        <path id="Helvetica-34" d="M 2116 1584 
L 2116 3613 
L 681 1584 
L 2116 1584 
z
M 2125 0 
L 2125 1094 
L 163 1094 
L 163 1644 
L 2213 4488 
L 2688 4488 
L 2688 1584 
L 3347 1584 
L 3347 1094 
L 2688 1094 
L 2688 0 
L 2125 0 
z
" transform="scale(0.015625)"/>
       </defs>
       <use xlink:href="#Helvetica-33"/>
       <use xlink:href="#Helvetica-33" x="55.615234"/>
       <use xlink:href="#Helvetica-34" x="111.230469"/>
       <use xlink:href="#Helvetica-30" x="166.845703"/>
      </g>
     </g>
    </g>
    <g id="xtick_20">
     <g id="line2d_23">
      <g>
       <use xlink:href="#m579fe153f7" x="245.26025" y="220.26" style="fill: #262626; stroke: #262626; stroke-width: 1.25"/>
      </g>
     </g>
     <g id="text_8">
      <!-- 3360 -->
      <g style="fill: #262626" transform="translate(233.026188 237.650781) scale(0.11 -0.11)">
       <defs>
        <path id="Helvetica-36" d="M 1872 4494 
Q 2622 4494 2917 4105 
Q 3213 3716 3213 3303 
L 2656 3303 
Q 2606 3569 2497 3719 
Q 2294 4000 1881 4000 
Q 1409 4000 1131 3564 
Q 853 3128 822 2316 
Q 1016 2600 1309 2741 
Q 1578 2866 1909 2866 
Q 2472 2866 2890 2506 
Q 3309 2147 3309 1434 
Q 3309 825 2912 354 
Q 2516 -116 1781 -116 
Q 1153 -116 697 361 
Q 241 838 241 1966 
Q 241 2800 444 3381 
Q 834 4494 1872 4494 
z
M 1831 384 
Q 2275 384 2495 682 
Q 2716 981 2716 1388 
Q 2716 1731 2519 2042 
Q 2322 2353 1803 2353 
Q 1441 2353 1167 2112 
Q 894 1872 894 1388 
Q 894 963 1142 673 
Q 1391 384 1831 384 
z
" transform="scale(0.015625)"/>
       </defs>
       <use xlink:href="#Helvetica-33"/>
       <use xlink:href="#Helvetica-33" x="55.615234"/>
       <use xlink:href="#Helvetica-36" x="111.230469"/>
       <use xlink:href="#Helvetica-30" x="166.845703"/>
      </g>
     </g>
    </g>
    <g id="text_9">
     <!-- magnetic field [G] -->
     <g style="fill: #262626" transform="translate(106.932078 252.786094) scale(0.12 -0.12)">
      <defs>
       <path id="Helvetica-6d" d="M 413 3347 
L 969 3347 
L 969 2872 
Q 1169 3119 1331 3231 
Q 1609 3422 1963 3422 
Q 2363 3422 2606 3225 
Q 2744 3113 2856 2894 
Q 3044 3163 3297 3292 
Q 3550 3422 3866 3422 
Q 4541 3422 4784 2934 
Q 4916 2672 4916 2228 
L 4916 0 
L 4331 0 
L 4331 2325 
Q 4331 2659 4164 2784 
Q 3997 2909 3756 2909 
Q 3425 2909 3186 2687 
Q 2947 2466 2947 1947 
L 2947 0 
L 2375 0 
L 2375 2184 
Q 2375 2525 2294 2681 
Q 2166 2916 1816 2916 
Q 1497 2916 1236 2669 
Q 975 2422 975 1775 
L 975 0 
L 413 0 
L 413 3347 
z
" transform="scale(0.015625)"/>
       <path id="Helvetica-63" d="M 1703 3444 
Q 2269 3444 2623 3169 
Q 2978 2894 3050 2222 
L 2503 2222 
Q 2453 2531 2275 2736 
Q 2097 2941 1703 2941 
Q 1166 2941 934 2416 
Q 784 2075 784 1575 
Q 784 1072 996 728 
Q 1209 384 1666 384 
Q 2016 384 2220 598 
Q 2425 813 2503 1184 
L 3050 1184 
Q 2956 519 2581 211 
Q 2206 -97 1622 -97 
Q 966 -97 575 383 
Q 184 863 184 1581 
Q 184 2463 612 2953 
Q 1041 3444 1703 3444 
z
M 1616 3428 
L 1616 3428 
z
" transform="scale(0.015625)"/>
       <path id="Helvetica-66" d="M 553 3856 
Q 566 4206 675 4369 
Q 872 4656 1434 4656 
Q 1488 4656 1544 4653 
Q 1600 4650 1672 4644 
L 1672 4131 
Q 1584 4138 1545 4139 
Q 1506 4141 1472 4141 
Q 1216 4141 1166 4008 
Q 1116 3875 1116 3331 
L 1672 3331 
L 1672 2888 
L 1109 2888 
L 1109 0 
L 553 0 
L 553 2888 
L 88 2888 
L 88 3331 
L 553 3331 
L 553 3856 
z
" transform="scale(0.015625)"/>
       <path id="Helvetica-64" d="M 769 1634 
Q 769 1097 997 734 
Q 1225 372 1728 372 
Q 2119 372 2370 708 
Q 2622 1044 2622 1672 
Q 2622 2306 2362 2611 
Q 2103 2916 1722 2916 
Q 1297 2916 1033 2591 
Q 769 2266 769 1634 
z
M 1616 3406 
Q 2000 3406 2259 3244 
Q 2409 3150 2600 2916 
L 2600 4606 
L 3141 4606 
L 3141 0 
L 2634 0 
L 2634 466 
Q 2438 156 2169 18 
Q 1900 -119 1553 -119 
Q 994 -119 584 351 
Q 175 822 175 1603 
Q 175 2334 548 2870 
Q 922 3406 1616 3406 
z
" transform="scale(0.015625)"/>
       <path id="Helvetica-5b" d="M 400 4622 
L 1600 4622 
L 1600 4163 
L 931 4163 
L 931 -800 
L 1600 -800 
L 1600 -1259 
L 400 -1259 
L 400 4622 
z
" transform="scale(0.015625)"/>
       <path id="Helvetica-47" d="M 2472 4709 
Q 3119 4709 3591 4459 
Q 4275 4100 4428 3200 
L 3813 3200 
Q 3700 3703 3347 3933 
Q 2994 4163 2456 4163 
Q 1819 4163 1383 3684 
Q 947 3206 947 2259 
Q 947 1441 1306 927 
Q 1666 413 2478 413 
Q 3100 413 3508 773 
Q 3916 1134 3925 1941 
L 2488 1941 
L 2488 2456 
L 4503 2456 
L 4503 0 
L 4103 0 
L 3953 591 
Q 3638 244 3394 109 
Q 2984 -122 2353 -122 
Q 1538 -122 950 406 
Q 309 1069 309 2225 
Q 309 3378 934 4059 
Q 1528 4709 2472 4709 
z
M 2369 4716 
L 2369 4716 
z
" transform="scale(0.015625)"/>
       <path id="Helvetica-5d" d="M 147 -800 
L 813 -800 
L 813 4163 
L 147 4163 
L 147 4622 
L 1347 4622 
L 1347 -1259 
L 147 -1259 
L 147 -800 
z
" transform="scale(0.015625)"/>
      </defs>
      <use xlink:href="#Helvetica-6d"/>
      <use xlink:href="#Helvetica-61" x="83.300781"/>
      <use xlink:href="#Helvetica-67" x="138.916016"/>
      <use xlink:href="#Helvetica-6e" x="194.53125"/>
      <use xlink:href="#Helvetica-65" x="250.146484"/>
      <use xlink:href="#Helvetica-74" x="305.761719"/>
      <use xlink:href="#Helvetica-69" x="333.544922"/>
      <use xlink:href="#Helvetica-63" x="355.761719"/>
      <use xlink:href="#Helvetica-20" x="405.761719"/>
      <use xlink:href="#Helvetica-66" x="433.544922"/>
      <use xlink:href="#Helvetica-69" x="461.328125"/>
      <use xlink:href="#Helvetica-65" x="483.544922"/>
      <use xlink:href="#Helvetica-6c" x="539.160156"/>
      <use xlink:href="#Helvetica-64" x="561.376953"/>
      <use xlink:href="#Helvetica-20" x="616.992188"/>
      <use xlink:href="#Helvetica-5b" x="644.775391"/>
      <use xlink:href="#Helvetica-47" x="672.558594"/>
      <use xlink:href="#Helvetica-5d" x="750.341797"/>
     </g>
    </g>
   </g>
   <g id="matplotlib.axis_8">
    <g id="text_10">
     <!-- Signal intensity -->
     <g style="fill: #262626" transform="translate(16.0425 235.840269) rotate(-90) scale(0.12 -0.12)">
      <use xlink:href="#Helvetica-53"/>
      <use xlink:href="#Helvetica-69" x="66.699219"/>
      <use xlink:href="#Helvetica-67" x="88.916016"/>
      <use xlink:href="#Helvetica-6e" x="144.53125"/>
      <use xlink:href="#Helvetica-61" x="200.146484"/>
      <use xlink:href="#Helvetica-6c" x="255.761719"/>
      <use xlink:href="#Helvetica-20" x="277.978516"/>
      <use xlink:href="#Helvetica-69" x="305.761719"/>
      <use xlink:href="#Helvetica-6e" x="327.978516"/>
      <use xlink:href="#Helvetica-74" x="383.59375"/>
      <use xlink:href="#Helvetica-65" x="411.376953"/>
      <use xlink:href="#Helvetica-6e" x="466.992188"/>
      <use xlink:href="#Helvetica-73" x="522.607422"/>
      <use xlink:href="#Helvetica-69" x="572.607422"/>
      <use xlink:href="#Helvetica-74" x="594.824219"/>
      <use xlink:href="#Helvetica-79" x="622.607422"/>
     </g>
    </g>
   </g>
   <g id="line2d_24">
    <path d="M -1 199.008769 
L 0.964774 198.327377 
L 2.012512 198.192702 
L 3.05961 198.317708 
L 4.106709 198.688892 
L 6.201545 199.62565 
L 7.249282 199.84445 
L 8.296381 199.84612 
L 11.438315 199.537774 
L 14.056701 199.408686 
L 17.198635 199.145969 
L 18.769922 199.258198 
L 23.483143 199.910473 
L 25.57798 199.83575 
L 29.767012 199.309728 
L 31.338299 199.532795 
L 33.433135 199.924812 
L 34.480234 199.901412 
L 35.527332 199.651338 
L 37.098619 198.921834 
L 39.717004 197.524676 
L 40.764103 197.157914 
L 41.811841 196.97443 
L 43.382488 197.006385 
L 46.525062 197.218423 
L 49.143447 197.134082 
L 50.190546 197.29361 
L 51.761833 197.865709 
L 54.380218 199.053781 
L 55.427316 199.302028 
L 56.474415 199.335065 
L 58.045702 199.098819 
L 60.664087 198.602706 
L 63.282472 198.328645 
L 65.377308 198.305895 
L 67.472144 198.553629 
L 70.09053 199.158199 
L 74.279563 200.556316 
L 75.3273 200.590158 
L 78.992784 200.227756 
L 80.564071 199.928646 
L 82.134718 199.364237 
L 84.229555 198.563938 
L 85.276653 198.338912 
L 86.84794 198.256344 
L 88.942776 198.162334 
L 90.513424 197.804541 
L 92.08471 197.344387 
L 93.131809 197.217804 
L 94.179547 197.400876 
L 95.226645 197.909168 
L 96.797932 199.136335 
L 98.368579 200.345609 
L 99.416317 200.847458 
L 100.463416 201.026582 
L 101.511153 200.930063 
L 103.60535 200.350154 
L 105.700186 199.612219 
L 107.271473 198.822949 
L 111.984694 196.105973 
L 115.650178 194.651852 
L 120.3634 192.299608 
L 121.410498 192.103136 
L 122.458236 192.090663 
L 124.028883 192.323316 
L 125.60017 192.848235 
L 127.170818 193.659657 
L 128.742105 194.716185 
L 130.836941 196.37821 
L 132.407588 197.864946 
L 133.978875 199.667934 
L 136.073711 202.516472 
L 138.168547 205.252754 
L 139.215646 206.252227 
L 140.262744 206.83649 
L 141.310482 206.991781 
L 142.35758 206.737398 
L 143.405318 206.166464 
L 148.642089 202.447377 
L 150.212736 201.094192 
L 151.784023 199.349826 
L 153.354671 197.217495 
L 154.925958 194.736832 
L 157.544343 190.426525 
L 158.591441 189.212025 
L 159.11563 188.815885 
L 159.639179 188.607971 
L 160.162728 188.568512 
L 160.686277 188.710588 
L 161.734015 189.435093 
L 163.304663 191.150668 
L 165.399499 193.44329 
L 168.017884 196.081852 
L 169.589171 198.096053 
L 172.207556 201.686361 
L 173.254655 202.733663 
L 174.301753 203.398535 
L 175.349491 203.652836 
L 176.396589 203.561403 
L 177.444327 203.220926 
L 179.014975 202.413597 
L 183.728196 199.651853 
L 185.823032 198.967396 
L 187.39368 198.407564 
L 188.964967 197.576526 
L 194.201737 194.122439 
L 195.248836 193.725196 
L 196.296573 193.563235 
L 197.343672 193.670687 
L 198.391409 194.094859 
L 199.962057 195.14629 
L 202.056893 196.658178 
L 203.62818 197.486021 
L 205.198828 198.010084 
L 206.770114 198.236346 
L 209.912049 198.410759 
L 212.006885 198.864728 
L 214.101721 199.253815 
L 216.720106 199.312222 
L 220.38559 199.139026 
L 221.956877 198.740515 
L 225.098812 197.737435 
L 226.14591 197.628478 
L 227.717197 197.774235 
L 230.335582 198.250159 
L 235.048804 198.888745 
L 237.143 199.059551 
L 238.714287 198.881117 
L 240.285574 198.419315 
L 242.379771 197.540241 
L 246.045894 195.934447 
L 247.092992 195.696124 
L 248.14073 195.661488 
L 249.187828 195.848168 
L 252.329763 196.68333 
L 253.90105 196.725902 
L 262.803304 196.168234 
L 263.851042 196.380168 
L 265.421689 196.997706 
L 268.563624 198.351456 
L 270.134911 198.726537 
L 271.706198 198.832535 
L 274.324583 198.901136 
L 275.895231 199.234994 
L 280.608452 200.624216 
L 281.65555 200.708103 
L 282.703288 200.599064 
L 284.273936 200.091329 
L 286.892321 199.084486 
L 287.940059 198.900105 
L 290.034895 198.884066 
L 292.129092 198.813734 
L 294.223928 198.727568 
L 295.271665 198.882086 
L 296.318764 199.208265 
L 298.4136 200.197605 
L 299.984248 200.985792 
L 301.555534 201.541914 
L 302.602633 201.70539 
L 303.650371 201.693474 
L 305.221018 201.390395 
L 308.363592 200.590292 
L 309.93424 200.443437 
L 312.552625 200.227447 
L 314.647461 199.788952 
L 317.789395 198.937802 
L 320.93133 197.937546 
L 321.979068 197.833919 
L 323.026166 197.929856 
L 325.121002 198.42082 
L 327.215838 198.898063 
L 330.357773 199.298832 
L 334.547445 199.740493 
L 337.689379 200.259 
L 339.784216 200.393325 
L 341.354863 200.326691 
L 342.92615 200.064136 
L 348.68647 198.837061 
L 350.257757 198.900095 
L 352.351954 199.31481 
L 353.92324 199.606611 
L 354.970339 199.622609 
L 356.018077 199.456958 
L 358.112913 198.808755 
L 360.207109 198.275826 
L 362.301946 198.17591 
L 374.346774 198.72898 
L 377.488708 199.396512 
L 378.535807 199.356032 
L 379.583544 199.079723 
L 381.154192 198.320698 
L 383.249028 197.211825 
L 384.296766 196.843631 
L 385.343864 196.649643 
L 386.915151 196.613987 
L 392.151922 196.73252 
L 394.770307 196.443357 
L 395.817405 196.542315 
L 396.864504 196.812078 
L 398.435791 197.427574 
L 400.530627 198.232739 
L 401.577725 198.438385 
L 402.625463 198.376227 
L 403.672561 198.006785 
L 404.71966 197.333564 
L 407.862233 194.835202 
L 408.909332 194.357061 
L 409.95643 194.165166 
L 411.004168 194.202069 
L 412.051266 194.425445 
L 413.622553 195.04022 
L 415.717389 196.202354 
L 419.382873 198.544496 
L 424.096094 201.596205 
L 426.19093 202.574122 
L 428.285127 203.465452 
L 428.285127 203.465452 
" clip-path="url(#p3e156ac450)" style="fill: none; stroke: #4c1d4b; stroke-width: 1.5; stroke-linecap: round"/>
   </g>
   <g id="patch_9">
    <path d="M 22.6975 220.26 
L 284.53603 220.26 
" style="fill: none; stroke: #262626; stroke-width: 1.25; stroke-linejoin: miter; stroke-linecap: square"/>
   </g>
  </g>
  <g id="legend_1">
   <g id="text_11">
    <!-- sample -->
    <g style="fill: #262626" transform="translate(345.091652 103.006797) scale(0.12 -0.12)">
     <defs>
      <path id="Helvetica-70" d="M 1825 378 
Q 2219 378 2480 708 
Q 2741 1038 2741 1694 
Q 2741 2094 2625 2381 
Q 2406 2934 1825 2934 
Q 1241 2934 1025 2350 
Q 909 2038 909 1556 
Q 909 1169 1025 897 
Q 1244 378 1825 378 
z
M 369 3331 
L 916 3331 
L 916 2888 
Q 1084 3116 1284 3241 
Q 1569 3428 1953 3428 
Q 2522 3428 2919 2992 
Q 3316 2556 3316 1747 
Q 3316 653 2744 184 
Q 2381 -113 1900 -113 
Q 1522 -113 1266 53 
Q 1116 147 931 375 
L 931 -1334 
L 369 -1334 
L 369 3331 
z
" transform="scale(0.015625)"/>
     </defs>
     <use xlink:href="#Helvetica-73"/>
     <use xlink:href="#Helvetica-61" x="50"/>
     <use xlink:href="#Helvetica-6d" x="105.615234"/>
     <use xlink:href="#Helvetica-70" x="188.916016"/>
     <use xlink:href="#Helvetica-6c" x="244.53125"/>
     <use xlink:href="#Helvetica-65" x="266.748047"/>
    </g>
   </g>
   <g id="line2d_25">
    <path d="M 290.035324 115.048828 
L 301.035324 115.048828 
L 312.035324 115.048828 
" style="fill: none; stroke: #f69c73; stroke-width: 1.5; stroke-linecap: round"/>
   </g>
   <g id="text_12">
    <!-- blank_corrected_0mM -->
    <g style="fill: #262626" transform="translate(320.835324 118.898828) scale(0.11 -0.11)">
     <defs>
      <path id="Helvetica-62" d="M 369 4606 
L 916 4606 
L 916 2941 
Q 1100 3181 1356 3307 
Q 1613 3434 1913 3434 
Q 2538 3434 2927 3004 
Q 3316 2575 3316 1738 
Q 3316 944 2931 419 
Q 2547 -106 1866 -106 
Q 1484 -106 1222 78 
Q 1066 188 888 428 
L 888 0 
L 369 0 
L 369 4606 
z
M 1831 391 
Q 2288 391 2514 753 
Q 2741 1116 2741 1709 
Q 2741 2238 2514 2584 
Q 2288 2931 1847 2931 
Q 1463 2931 1173 2647 
Q 884 2363 884 1709 
Q 884 1238 1003 944 
Q 1225 391 1831 391 
z
" transform="scale(0.015625)"/>
      <path id="Helvetica-6b" d="M 400 4591 
L 941 4591 
L 941 1925 
L 2384 3347 
L 3103 3347 
L 1822 2094 
L 3175 0 
L 2456 0 
L 1413 1688 
L 941 1256 
L 941 0 
L 400 0 
L 400 4591 
z
" transform="scale(0.015625)"/>
      <path id="Helvetica-5f" d="M 0 -800 
L 0 -484 
L 3559 -484 
L 3559 -800 
L 0 -800 
z
" transform="scale(0.015625)"/>
      <path id="Helvetica-6f" d="M 1741 363 
Q 2300 363 2508 786 
Q 2716 1209 2716 1728 
Q 2716 2197 2566 2491 
Q 2328 2953 1747 2953 
Q 1231 2953 997 2559 
Q 763 2166 763 1609 
Q 763 1075 997 719 
Q 1231 363 1741 363 
z
M 1763 3444 
Q 2409 3444 2856 3012 
Q 3303 2581 3303 1744 
Q 3303 934 2909 406 
Q 2516 -122 1688 -122 
Q 997 -122 590 345 
Q 184 813 184 1600 
Q 184 2444 612 2944 
Q 1041 3444 1763 3444 
z
M 1744 3428 
L 1744 3428 
z
" transform="scale(0.015625)"/>
      <path id="Helvetica-72" d="M 428 3347 
L 963 3347 
L 963 2769 
Q 1028 2938 1284 3180 
Q 1541 3422 1875 3422 
Q 1891 3422 1928 3419 
Q 1966 3416 2056 3406 
L 2056 2813 
Q 2006 2822 1964 2825 
Q 1922 2828 1872 2828 
Q 1447 2828 1219 2554 
Q 991 2281 991 1925 
L 991 0 
L 428 0 
L 428 3347 
z
" transform="scale(0.015625)"/>
      <path id="Helvetica-4d" d="M 472 4591 
L 1363 4591 
L 2681 709 
L 3991 4591 
L 4872 4591 
L 4872 0 
L 4281 0 
L 4281 2709 
Q 4281 2850 4287 3175 
Q 4294 3500 4294 3872 
L 2984 0 
L 2369 0 
L 1050 3872 
L 1050 3731 
Q 1050 3563 1058 3217 
Q 1066 2872 1066 2709 
L 1066 0 
L 472 0 
L 472 4591 
z
" transform="scale(0.015625)"/>
     </defs>
     <use xlink:href="#Helvetica-62"/>
     <use xlink:href="#Helvetica-6c" x="55.615234"/>
     <use xlink:href="#Helvetica-61" x="77.832031"/>
     <use xlink:href="#Helvetica-6e" x="133.447266"/>
     <use xlink:href="#Helvetica-6b" x="189.0625"/>
     <use xlink:href="#Helvetica-5f" x="239.0625"/>
     <use xlink:href="#Helvetica-63" x="294.677734"/>
     <use xlink:href="#Helvetica-6f" x="344.677734"/>
     <use xlink:href="#Helvetica-72" x="400.292969"/>
     <use xlink:href="#Helvetica-72" x="433.59375"/>
     <use xlink:href="#Helvetica-65" x="466.894531"/>
     <use xlink:href="#Helvetica-63" x="522.509766"/>
     <use xlink:href="#Helvetica-74" x="572.509766"/>
     <use xlink:href="#Helvetica-65" x="600.292969"/>
     <use xlink:href="#Helvetica-64" x="655.908203"/>
     <use xlink:href="#Helvetica-5f" x="711.523438"/>
     <use xlink:href="#Helvetica-30" x="767.138672"/>
     <use xlink:href="#Helvetica-6d" x="822.753906"/>
     <use xlink:href="#Helvetica-4d" x="906.054688"/>
    </g>
   </g>
   <g id="line2d_26">
    <path d="M 290.035324 130.732422 
L 301.035324 130.732422 
L 312.035324 130.732422 
" style="fill: none; stroke: #e83f3f; stroke-width: 1.5; stroke-linecap: round"/>
   </g>
   <g id="text_13">
    <!-- blank_corrected_0.7mM -->
    <g style="fill: #262626" transform="translate(320.835324 134.582422) scale(0.11 -0.11)">
     <defs>
      <path id="Helvetica-2e" d="M 547 681 
L 1200 681 
L 1200 0 
L 547 0 
L 547 681 
z
" transform="scale(0.015625)"/>
      <path id="Helvetica-37" d="M 3347 4400 
L 3347 3909 
Q 3131 3700 2773 3181 
Q 2416 2663 2141 2063 
Q 1869 1478 1728 997 
Q 1638 688 1494 0 
L 872 0 
Q 1084 1281 1809 2550 
Q 2238 3294 2709 3834 
L 234 3834 
L 234 4400 
L 3347 4400 
z
" transform="scale(0.015625)"/>
     </defs>
     <use xlink:href="#Helvetica-62"/>
     <use xlink:href="#Helvetica-6c" x="55.615234"/>
     <use xlink:href="#Helvetica-61" x="77.832031"/>
     <use xlink:href="#Helvetica-6e" x="133.447266"/>
     <use xlink:href="#Helvetica-6b" x="189.0625"/>
     <use xlink:href="#Helvetica-5f" x="239.0625"/>
     <use xlink:href="#Helvetica-63" x="294.677734"/>
     <use xlink:href="#Helvetica-6f" x="344.677734"/>
     <use xlink:href="#Helvetica-72" x="400.292969"/>
     <use xlink:href="#Helvetica-72" x="433.59375"/>
     <use xlink:href="#Helvetica-65" x="466.894531"/>
     <use xlink:href="#Helvetica-63" x="522.509766"/>
     <use xlink:href="#Helvetica-74" x="572.509766"/>
     <use xlink:href="#Helvetica-65" x="600.292969"/>
     <use xlink:href="#Helvetica-64" x="655.908203"/>
     <use xlink:href="#Helvetica-5f" x="711.523438"/>
     <use xlink:href="#Helvetica-30" x="767.138672"/>
     <use xlink:href="#Helvetica-2e" x="822.753906"/>
     <use xlink:href="#Helvetica-37" x="850.537109"/>
     <use xlink:href="#Helvetica-6d" x="906.152344"/>
     <use xlink:href="#Helvetica-4d" x="989.453125"/>
    </g>
   </g>
   <g id="line2d_27">
    <path d="M 290.035324 146.416016 
L 301.035324 146.416016 
L 312.035324 146.416016 
" style="fill: none; stroke: #a11a5b; stroke-width: 1.5; stroke-linecap: round"/>
   </g>
   <g id="text_14">
    <!-- blank_corrected_1mM -->
    <g style="fill: #262626" transform="translate(320.835324 150.266016) scale(0.11 -0.11)">
     <defs>
      <path id="Helvetica-31" d="M 613 3169 
L 613 3600 
Q 1222 3659 1462 3798 
Q 1703 3938 1822 4456 
L 2266 4456 
L 2266 0 
L 1666 0 
L 1666 3169 
L 613 3169 
z
" transform="scale(0.015625)"/>
     </defs>
     <use xlink:href="#Helvetica-62"/>
     <use xlink:href="#Helvetica-6c" x="55.615234"/>
     <use xlink:href="#Helvetica-61" x="77.832031"/>
     <use xlink:href="#Helvetica-6e" x="133.447266"/>
     <use xlink:href="#Helvetica-6b" x="189.0625"/>
     <use xlink:href="#Helvetica-5f" x="239.0625"/>
     <use xlink:href="#Helvetica-63" x="294.677734"/>
     <use xlink:href="#Helvetica-6f" x="344.677734"/>
     <use xlink:href="#Helvetica-72" x="400.292969"/>
     <use xlink:href="#Helvetica-72" x="433.59375"/>
     <use xlink:href="#Helvetica-65" x="466.894531"/>
     <use xlink:href="#Helvetica-63" x="522.509766"/>
     <use xlink:href="#Helvetica-74" x="572.509766"/>
     <use xlink:href="#Helvetica-65" x="600.292969"/>
     <use xlink:href="#Helvetica-64" x="655.908203"/>
     <use xlink:href="#Helvetica-5f" x="711.523438"/>
     <use xlink:href="#Helvetica-31" x="767.138672"/>
     <use xlink:href="#Helvetica-6d" x="822.753906"/>
     <use xlink:href="#Helvetica-4d" x="906.054688"/>
    </g>
   </g>
   <g id="line2d_28">
    <path d="M 290.035324 162.099609 
L 301.035324 162.099609 
L 312.035324 162.099609 
" style="fill: none; stroke: #4c1d4b; stroke-width: 1.5; stroke-linecap: round"/>
   </g>
   <g id="text_15">
    <!-- blank_corrected_5mM -->
    <g style="fill: #262626" transform="translate(320.835324 165.949609) scale(0.11 -0.11)">
     <defs>
      <path id="Helvetica-35" d="M 791 1141 
Q 847 659 1238 475 
Q 1438 381 1700 381 
Q 2200 381 2440 700 
Q 2681 1019 2681 1406 
Q 2681 1875 2395 2131 
Q 2109 2388 1709 2388 
Q 1419 2388 1211 2275 
Q 1003 2163 856 1963 
L 369 1991 
L 709 4400 
L 3034 4400 
L 3034 3856 
L 1131 3856 
L 941 2613 
Q 1097 2731 1238 2791 
Q 1488 2894 1816 2894 
Q 2431 2894 2859 2497 
Q 3288 2100 3288 1491 
Q 3288 856 2895 371 
Q 2503 -113 1644 -113 
Q 1097 -113 676 195 
Q 256 503 206 1141 
L 791 1141 
z
" transform="scale(0.015625)"/>
     </defs>
     <use xlink:href="#Helvetica-62"/>
     <use xlink:href="#Helvetica-6c" x="55.615234"/>
     <use xlink:href="#Helvetica-61" x="77.832031"/>
     <use xlink:href="#Helvetica-6e" x="133.447266"/>
     <use xlink:href="#Helvetica-6b" x="189.0625"/>
     <use xlink:href="#Helvetica-5f" x="239.0625"/>
     <use xlink:href="#Helvetica-63" x="294.677734"/>
     <use xlink:href="#Helvetica-6f" x="344.677734"/>
     <use xlink:href="#Helvetica-72" x="400.292969"/>
     <use xlink:href="#Helvetica-72" x="433.59375"/>
     <use xlink:href="#Helvetica-65" x="466.894531"/>
     <use xlink:href="#Helvetica-63" x="522.509766"/>
     <use xlink:href="#Helvetica-74" x="572.509766"/>
     <use xlink:href="#Helvetica-65" x="600.292969"/>
     <use xlink:href="#Helvetica-64" x="655.908203"/>
     <use xlink:href="#Helvetica-5f" x="711.523438"/>
     <use xlink:href="#Helvetica-35" x="767.138672"/>
     <use xlink:href="#Helvetica-6d" x="822.753906"/>
     <use xlink:href="#Helvetica-4d" x="906.054688"/>
    </g>
   </g>
  </g>
 </g>
 <defs>
  <clipPath id="p1ec69be887">
   <rect x="22.6975" y="7.2" width="261.83853" height="49.548837"/>
  </clipPath>
  <clipPath id="p9ce4f93231">
   <rect x="22.6975" y="61.703721" width="261.83853" height="49.548837"/>
  </clipPath>
  <clipPath id="pf376517cc4">
   <rect x="22.6975" y="116.207442" width="261.83853" height="49.548837"/>
  </clipPath>
  <clipPath id="p3e156ac450">
   <rect x="22.6975" y="170.711163" width="261.83853" height="49.548837"/>
  </clipPath>
 </defs>
</svg>
