<?xml version="1.0" encoding="utf-8" standalone="no"?>
<!DOCTYPE svg PUBLIC "-//W3C//DTD SVG 1.1//EN"
  "http://www.w3.org/Graphics/SVG/1.1/DTD/svg11.dtd">
<svg xmlns:xlink="http://www.w3.org/1999/xlink" width="436.464063pt" height="313.269891pt" viewBox="0 0 436.464063 313.269891" xmlns="http://www.w3.org/2000/svg" version="1.1">
 <metadata>
  <rdf:RDF xmlns:dc="http://purl.org/dc/elements/1.1/" xmlns:cc="http://creativecommons.org/ns#" xmlns:rdf="http://www.w3.org/1999/02/22-rdf-syntax-ns#">
   <cc:Work>
    <dc:type rdf:resource="http://purl.org/dc/dcmitype/StillImage"/>
    <dc:date>2024-11-22T16:44:01.294295</dc:date>
    <dc:format>image/svg+xml</dc:format>
    <dc:creator>
     <cc:Agent>
      <dc:title>Matplotlib v3.7.1, https://matplotlib.org/</dc:title>
     </cc:Agent>
    </dc:creator>
   </cc:Work>
  </rdf:RDF>
 </metadata>
 <defs>
  <style type="text/css">*{stroke-linejoin: round; stroke-linecap: butt}</style>
 </defs>
 <g id="figure_1">
  <g id="patch_1">
   <path d="M 0 313.269891 
L 436.464063 313.269891 
L 436.464063 0 
L 0 0 
z
" style="fill: #ffffff"/>
  </g>
  <g id="axes_1">
   <g id="patch_2">
    <path d="M 59.91 277.248797 
L 417.03 277.248797 
L 417.03 11.136797 
L 59.91 11.136797 
z
" style="fill: #ffffff"/>
   </g>
   <g id="matplotlib.axis_1">
    <g id="xtick_1">
     <g id="line2d_1">
      <defs>
       <path id="m7e78f246a8" d="M 0 0 
L 0 -6 
" style="stroke: #262626; stroke-width: 1.25"/>
      </defs>
      <g>
       <use xlink:href="#m7e78f246a8" x="59.91" y="277.248797" style="fill: #262626; stroke: #262626; stroke-width: 1.25"/>
      </g>
     </g>
     <g id="text_1">
      <!-- 3240 -->
      <g style="fill: #262626" transform="translate(47.675937 288.622391) scale(0.11 -0.11)">
       <defs>
        <path id="ArialMT-33" d="M 269 1209 
L 831 1284 
Q 928 806 1161 595 
Q 1394 384 1728 384 
Q 2125 384 2398 659 
Q 2672 934 2672 1341 
Q 2672 1728 2419 1979 
Q 2166 2231 1775 2231 
Q 1616 2231 1378 2169 
L 1441 2663 
Q 1497 2656 1531 2656 
Q 1891 2656 2178 2843 
Q 2466 3031 2466 3422 
Q 2466 3731 2256 3934 
Q 2047 4138 1716 4138 
Q 1388 4138 1169 3931 
Q 950 3725 888 3313 
L 325 3413 
Q 428 3978 793 4289 
Q 1159 4600 1703 4600 
Q 2078 4600 2393 4439 
Q 2709 4278 2876 4000 
Q 3044 3722 3044 3409 
Q 3044 3113 2884 2869 
Q 2725 2625 2413 2481 
Q 2819 2388 3044 2092 
Q 3269 1797 3269 1353 
Q 3269 753 2831 336 
Q 2394 -81 1725 -81 
Q 1122 -81 723 278 
Q 325 638 269 1209 
z
" transform="scale(0.015625)"/>
        <path id="ArialMT-32" d="M 3222 541 
L 3222 0 
L 194 0 
Q 188 203 259 391 
Q 375 700 629 1000 
Q 884 1300 1366 1694 
Q 2113 2306 2375 2664 
Q 2638 3022 2638 3341 
Q 2638 3675 2398 3904 
Q 2159 4134 1775 4134 
Q 1369 4134 1125 3890 
Q 881 3647 878 3216 
L 300 3275 
Q 359 3922 746 4261 
Q 1134 4600 1788 4600 
Q 2447 4600 2831 4234 
Q 3216 3869 3216 3328 
Q 3216 3053 3103 2787 
Q 2991 2522 2730 2228 
Q 2469 1934 1863 1422 
Q 1356 997 1212 845 
Q 1069 694 975 541 
L 3222 541 
z
" transform="scale(0.015625)"/>
        <path id="ArialMT-34" d="M 2069 0 
L 2069 1097 
L 81 1097 
L 81 1613 
L 2172 4581 
L 2631 4581 
L 2631 1613 
L 3250 1613 
L 3250 1097 
L 2631 1097 
L 2631 0 
L 2069 0 
z
M 2069 1613 
L 2069 3678 
L 634 1613 
L 2069 1613 
z
" transform="scale(0.015625)"/>
        <path id="ArialMT-30" d="M 266 2259 
Q 266 3072 433 3567 
Q 600 4063 929 4331 
Q 1259 4600 1759 4600 
Q 2128 4600 2406 4451 
Q 2684 4303 2865 4023 
Q 3047 3744 3150 3342 
Q 3253 2941 3253 2259 
Q 3253 1453 3087 958 
Q 2922 463 2592 192 
Q 2263 -78 1759 -78 
Q 1097 -78 719 397 
Q 266 969 266 2259 
z
M 844 2259 
Q 844 1131 1108 757 
Q 1372 384 1759 384 
Q 2147 384 2411 759 
Q 2675 1134 2675 2259 
Q 2675 3391 2411 3762 
Q 2147 4134 1753 4134 
Q 1366 4134 1134 3806 
Q 844 3388 844 2259 
z
" transform="scale(0.015625)"/>
       </defs>
       <use xlink:href="#ArialMT-33"/>
       <use xlink:href="#ArialMT-32" x="55.615234"/>
       <use xlink:href="#ArialMT-34" x="111.230469"/>
       <use xlink:href="#ArialMT-30" x="166.845703"/>
      </g>
     </g>
    </g>
    <g id="xtick_2">
     <g id="line2d_2">
      <g>
       <use xlink:href="#m7e78f246a8" x="104.55" y="277.248797" style="fill: #262626; stroke: #262626; stroke-width: 1.25"/>
      </g>
     </g>
     <g id="text_2">
      <!-- 3260 -->
      <g style="fill: #262626" transform="translate(92.315938 288.622391) scale(0.11 -0.11)">
       <defs>
        <path id="ArialMT-36" d="M 3184 3459 
L 2625 3416 
Q 2550 3747 2413 3897 
Q 2184 4138 1850 4138 
Q 1581 4138 1378 3988 
Q 1113 3794 959 3422 
Q 806 3050 800 2363 
Q 1003 2672 1297 2822 
Q 1591 2972 1913 2972 
Q 2475 2972 2870 2558 
Q 3266 2144 3266 1488 
Q 3266 1056 3080 686 
Q 2894 316 2569 119 
Q 2244 -78 1831 -78 
Q 1128 -78 684 439 
Q 241 956 241 2144 
Q 241 3472 731 4075 
Q 1159 4600 1884 4600 
Q 2425 4600 2770 4297 
Q 3116 3994 3184 3459 
z
M 888 1484 
Q 888 1194 1011 928 
Q 1134 663 1356 523 
Q 1578 384 1822 384 
Q 2178 384 2434 671 
Q 2691 959 2691 1453 
Q 2691 1928 2437 2201 
Q 2184 2475 1800 2475 
Q 1419 2475 1153 2201 
Q 888 1928 888 1484 
z
" transform="scale(0.015625)"/>
       </defs>
       <use xlink:href="#ArialMT-33"/>
       <use xlink:href="#ArialMT-32" x="55.615234"/>
       <use xlink:href="#ArialMT-36" x="111.230469"/>
       <use xlink:href="#ArialMT-30" x="166.845703"/>
      </g>
     </g>
    </g>
    <g id="xtick_3">
     <g id="line2d_3">
      <g>
       <use xlink:href="#m7e78f246a8" x="149.19" y="277.248797" style="fill: #262626; stroke: #262626; stroke-width: 1.25"/>
      </g>
     </g>
     <g id="text_3">
      <!-- 3280 -->
      <g style="fill: #262626" transform="translate(136.955938 288.622391) scale(0.11 -0.11)">
       <defs>
        <path id="ArialMT-38" d="M 1131 2484 
Q 781 2613 612 2850 
Q 444 3088 444 3419 
Q 444 3919 803 4259 
Q 1163 4600 1759 4600 
Q 2359 4600 2725 4251 
Q 3091 3903 3091 3403 
Q 3091 3084 2923 2848 
Q 2756 2613 2416 2484 
Q 2838 2347 3058 2040 
Q 3278 1734 3278 1309 
Q 3278 722 2862 322 
Q 2447 -78 1769 -78 
Q 1091 -78 675 323 
Q 259 725 259 1325 
Q 259 1772 486 2073 
Q 713 2375 1131 2484 
z
M 1019 3438 
Q 1019 3113 1228 2906 
Q 1438 2700 1772 2700 
Q 2097 2700 2305 2904 
Q 2513 3109 2513 3406 
Q 2513 3716 2298 3927 
Q 2084 4138 1766 4138 
Q 1444 4138 1231 3931 
Q 1019 3725 1019 3438 
z
M 838 1322 
Q 838 1081 952 856 
Q 1066 631 1291 507 
Q 1516 384 1775 384 
Q 2178 384 2440 643 
Q 2703 903 2703 1303 
Q 2703 1709 2433 1975 
Q 2163 2241 1756 2241 
Q 1359 2241 1098 1978 
Q 838 1716 838 1322 
z
" transform="scale(0.015625)"/>
       </defs>
       <use xlink:href="#ArialMT-33"/>
       <use xlink:href="#ArialMT-32" x="55.615234"/>
       <use xlink:href="#ArialMT-38" x="111.230469"/>
       <use xlink:href="#ArialMT-30" x="166.845703"/>
      </g>
     </g>
    </g>
    <g id="xtick_4">
     <g id="line2d_4">
      <g>
       <use xlink:href="#m7e78f246a8" x="193.83" y="277.248797" style="fill: #262626; stroke: #262626; stroke-width: 1.25"/>
      </g>
     </g>
     <g id="text_4">
      <!-- 3300 -->
      <g style="fill: #262626" transform="translate(181.595937 288.622391) scale(0.11 -0.11)">
       <use xlink:href="#ArialMT-33"/>
       <use xlink:href="#ArialMT-33" x="55.615234"/>
       <use xlink:href="#ArialMT-30" x="111.230469"/>
       <use xlink:href="#ArialMT-30" x="166.845703"/>
      </g>
     </g>
    </g>
    <g id="xtick_5">
     <g id="line2d_5">
      <g>
       <use xlink:href="#m7e78f246a8" x="238.47" y="277.248797" style="fill: #262626; stroke: #262626; stroke-width: 1.25"/>
      </g>
     </g>
     <g id="text_5">
      <!-- 3320 -->
      <g style="fill: #262626" transform="translate(226.235938 288.622391) scale(0.11 -0.11)">
       <use xlink:href="#ArialMT-33"/>
       <use xlink:href="#ArialMT-33" x="55.615234"/>
       <use xlink:href="#ArialMT-32" x="111.230469"/>
       <use xlink:href="#ArialMT-30" x="166.845703"/>
      </g>
     </g>
    </g>
    <g id="xtick_6">
     <g id="line2d_6">
      <g>
       <use xlink:href="#m7e78f246a8" x="283.11" y="277.248797" style="fill: #262626; stroke: #262626; stroke-width: 1.25"/>
      </g>
     </g>
     <g id="text_6">
      <!-- 3340 -->
      <g style="fill: #262626" transform="translate(270.875938 288.622391) scale(0.11 -0.11)">
       <use xlink:href="#ArialMT-33"/>
       <use xlink:href="#ArialMT-33" x="55.615234"/>
       <use xlink:href="#ArialMT-34" x="111.230469"/>
       <use xlink:href="#ArialMT-30" x="166.845703"/>
      </g>
     </g>
    </g>
    <g id="xtick_7">
     <g id="line2d_7">
      <g>
       <use xlink:href="#m7e78f246a8" x="327.75" y="277.248797" style="fill: #262626; stroke: #262626; stroke-width: 1.25"/>
      </g>
     </g>
     <g id="text_7">
      <!-- 3360 -->
      <g style="fill: #262626" transform="translate(315.515938 288.622391) scale(0.11 -0.11)">
       <use xlink:href="#ArialMT-33"/>
       <use xlink:href="#ArialMT-33" x="55.615234"/>
       <use xlink:href="#ArialMT-36" x="111.230469"/>
       <use xlink:href="#ArialMT-30" x="166.845703"/>
      </g>
     </g>
    </g>
    <g id="xtick_8">
     <g id="line2d_8">
      <g>
       <use xlink:href="#m7e78f246a8" x="372.39" y="277.248797" style="fill: #262626; stroke: #262626; stroke-width: 1.25"/>
      </g>
     </g>
     <g id="text_8">
      <!-- 3380 -->
      <g style="fill: #262626" transform="translate(360.155938 288.622391) scale(0.11 -0.11)">
       <use xlink:href="#ArialMT-33"/>
       <use xlink:href="#ArialMT-33" x="55.615234"/>
       <use xlink:href="#ArialMT-38" x="111.230469"/>
       <use xlink:href="#ArialMT-30" x="166.845703"/>
      </g>
     </g>
    </g>
    <g id="xtick_9">
     <g id="line2d_9">
      <g>
       <use xlink:href="#m7e78f246a8" x="417.03" y="277.248797" style="fill: #262626; stroke: #262626; stroke-width: 1.25"/>
      </g>
     </g>
     <g id="text_9">
      <!-- 3400 -->
      <g style="fill: #262626" transform="translate(404.795938 288.622391) scale(0.11 -0.11)">
       <use xlink:href="#ArialMT-33"/>
       <use xlink:href="#ArialMT-34" x="55.615234"/>
       <use xlink:href="#ArialMT-30" x="111.230469"/>
       <use xlink:href="#ArialMT-30" x="166.845703"/>
      </g>
     </g>
    </g>
    <g id="xtick_10">
     <g id="line2d_10">
      <defs>
       <path id="mcff4255373" d="M 0 0 
L 0 -4 
" style="stroke: #262626"/>
      </defs>
      <g>
       <use xlink:href="#mcff4255373" x="82.23" y="277.248797" style="fill: #262626; stroke: #262626"/>
      </g>
     </g>
    </g>
    <g id="xtick_11">
     <g id="line2d_11">
      <g>
       <use xlink:href="#mcff4255373" x="126.87" y="277.248797" style="fill: #262626; stroke: #262626"/>
      </g>
     </g>
    </g>
    <g id="xtick_12">
     <g id="line2d_12">
      <g>
       <use xlink:href="#mcff4255373" x="171.51" y="277.248797" style="fill: #262626; stroke: #262626"/>
      </g>
     </g>
    </g>
    <g id="xtick_13">
     <g id="line2d_13">
      <g>
       <use xlink:href="#mcff4255373" x="216.15" y="277.248797" style="fill: #262626; stroke: #262626"/>
      </g>
     </g>
    </g>
    <g id="xtick_14">
     <g id="line2d_14">
      <g>
       <use xlink:href="#mcff4255373" x="260.79" y="277.248797" style="fill: #262626; stroke: #262626"/>
      </g>
     </g>
    </g>
    <g id="xtick_15">
     <g id="line2d_15">
      <g>
       <use xlink:href="#mcff4255373" x="305.43" y="277.248797" style="fill: #262626; stroke: #262626"/>
      </g>
     </g>
    </g>
    <g id="xtick_16">
     <g id="line2d_16">
      <g>
       <use xlink:href="#mcff4255373" x="350.07" y="277.248797" style="fill: #262626; stroke: #262626"/>
      </g>
     </g>
    </g>
    <g id="xtick_17">
     <g id="line2d_17">
      <g>
       <use xlink:href="#mcff4255373" x="394.71" y="277.248797" style="fill: #262626; stroke: #262626"/>
      </g>
     </g>
    </g>
    <g id="text_10">
     <!-- magnetic field [G] -->
     <g style="fill: #262626" transform="translate(191.785313 303.544266) scale(0.12 -0.12)">
      <defs>
       <path id="ArialMT-6d" d="M 422 0 
L 422 3319 
L 925 3319 
L 925 2853 
Q 1081 3097 1340 3245 
Q 1600 3394 1931 3394 
Q 2300 3394 2536 3241 
Q 2772 3088 2869 2813 
Q 3263 3394 3894 3394 
Q 4388 3394 4653 3120 
Q 4919 2847 4919 2278 
L 4919 0 
L 4359 0 
L 4359 2091 
Q 4359 2428 4304 2576 
Q 4250 2725 4106 2815 
Q 3963 2906 3769 2906 
Q 3419 2906 3187 2673 
Q 2956 2441 2956 1928 
L 2956 0 
L 2394 0 
L 2394 2156 
Q 2394 2531 2256 2718 
Q 2119 2906 1806 2906 
Q 1569 2906 1367 2781 
Q 1166 2656 1075 2415 
Q 984 2175 984 1722 
L 984 0 
L 422 0 
z
" transform="scale(0.015625)"/>
       <path id="ArialMT-61" d="M 2588 409 
Q 2275 144 1986 34 
Q 1697 -75 1366 -75 
Q 819 -75 525 192 
Q 231 459 231 875 
Q 231 1119 342 1320 
Q 453 1522 633 1644 
Q 813 1766 1038 1828 
Q 1203 1872 1538 1913 
Q 2219 1994 2541 2106 
Q 2544 2222 2544 2253 
Q 2544 2597 2384 2738 
Q 2169 2928 1744 2928 
Q 1347 2928 1158 2789 
Q 969 2650 878 2297 
L 328 2372 
Q 403 2725 575 2942 
Q 747 3159 1072 3276 
Q 1397 3394 1825 3394 
Q 2250 3394 2515 3294 
Q 2781 3194 2906 3042 
Q 3031 2891 3081 2659 
Q 3109 2516 3109 2141 
L 3109 1391 
Q 3109 606 3145 398 
Q 3181 191 3288 0 
L 2700 0 
Q 2613 175 2588 409 
z
M 2541 1666 
Q 2234 1541 1622 1453 
Q 1275 1403 1131 1340 
Q 988 1278 909 1158 
Q 831 1038 831 891 
Q 831 666 1001 516 
Q 1172 366 1500 366 
Q 1825 366 2078 508 
Q 2331 650 2450 897 
Q 2541 1088 2541 1459 
L 2541 1666 
z
" transform="scale(0.015625)"/>
       <path id="ArialMT-67" d="M 319 -275 
L 866 -356 
Q 900 -609 1056 -725 
Q 1266 -881 1628 -881 
Q 2019 -881 2231 -725 
Q 2444 -569 2519 -288 
Q 2563 -116 2559 434 
Q 2191 0 1641 0 
Q 956 0 581 494 
Q 206 988 206 1678 
Q 206 2153 378 2554 
Q 550 2956 876 3175 
Q 1203 3394 1644 3394 
Q 2231 3394 2613 2919 
L 2613 3319 
L 3131 3319 
L 3131 450 
Q 3131 -325 2973 -648 
Q 2816 -972 2473 -1159 
Q 2131 -1347 1631 -1347 
Q 1038 -1347 672 -1080 
Q 306 -813 319 -275 
z
M 784 1719 
Q 784 1066 1043 766 
Q 1303 466 1694 466 
Q 2081 466 2343 764 
Q 2606 1063 2606 1700 
Q 2606 2309 2336 2618 
Q 2066 2928 1684 2928 
Q 1309 2928 1046 2623 
Q 784 2319 784 1719 
z
" transform="scale(0.015625)"/>
       <path id="ArialMT-6e" d="M 422 0 
L 422 3319 
L 928 3319 
L 928 2847 
Q 1294 3394 1984 3394 
Q 2284 3394 2536 3286 
Q 2788 3178 2913 3003 
Q 3038 2828 3088 2588 
Q 3119 2431 3119 2041 
L 3119 0 
L 2556 0 
L 2556 2019 
Q 2556 2363 2490 2533 
Q 2425 2703 2258 2804 
Q 2091 2906 1866 2906 
Q 1506 2906 1245 2678 
Q 984 2450 984 1813 
L 984 0 
L 422 0 
z
" transform="scale(0.015625)"/>
       <path id="ArialMT-65" d="M 2694 1069 
L 3275 997 
Q 3138 488 2766 206 
Q 2394 -75 1816 -75 
Q 1088 -75 661 373 
Q 234 822 234 1631 
Q 234 2469 665 2931 
Q 1097 3394 1784 3394 
Q 2450 3394 2872 2941 
Q 3294 2488 3294 1666 
Q 3294 1616 3291 1516 
L 816 1516 
Q 847 969 1125 678 
Q 1403 388 1819 388 
Q 2128 388 2347 550 
Q 2566 713 2694 1069 
z
M 847 1978 
L 2700 1978 
Q 2663 2397 2488 2606 
Q 2219 2931 1791 2931 
Q 1403 2931 1139 2672 
Q 875 2413 847 1978 
z
" transform="scale(0.015625)"/>
       <path id="ArialMT-74" d="M 1650 503 
L 1731 6 
Q 1494 -44 1306 -44 
Q 1000 -44 831 53 
Q 663 150 594 308 
Q 525 466 525 972 
L 525 2881 
L 113 2881 
L 113 3319 
L 525 3319 
L 525 4141 
L 1084 4478 
L 1084 3319 
L 1650 3319 
L 1650 2881 
L 1084 2881 
L 1084 941 
Q 1084 700 1114 631 
Q 1144 563 1211 522 
Q 1278 481 1403 481 
Q 1497 481 1650 503 
z
" transform="scale(0.015625)"/>
       <path id="ArialMT-69" d="M 425 3934 
L 425 4581 
L 988 4581 
L 988 3934 
L 425 3934 
z
M 425 0 
L 425 3319 
L 988 3319 
L 988 0 
L 425 0 
z
" transform="scale(0.015625)"/>
       <path id="ArialMT-63" d="M 2588 1216 
L 3141 1144 
Q 3050 572 2676 248 
Q 2303 -75 1759 -75 
Q 1078 -75 664 370 
Q 250 816 250 1647 
Q 250 2184 428 2587 
Q 606 2991 970 3192 
Q 1334 3394 1763 3394 
Q 2303 3394 2647 3120 
Q 2991 2847 3088 2344 
L 2541 2259 
Q 2463 2594 2264 2762 
Q 2066 2931 1784 2931 
Q 1359 2931 1093 2626 
Q 828 2322 828 1663 
Q 828 994 1084 691 
Q 1341 388 1753 388 
Q 2084 388 2306 591 
Q 2528 794 2588 1216 
z
" transform="scale(0.015625)"/>
       <path id="ArialMT-20" transform="scale(0.015625)"/>
       <path id="ArialMT-66" d="M 556 0 
L 556 2881 
L 59 2881 
L 59 3319 
L 556 3319 
L 556 3672 
Q 556 4006 616 4169 
Q 697 4388 901 4523 
Q 1106 4659 1475 4659 
Q 1713 4659 2000 4603 
L 1916 4113 
Q 1741 4144 1584 4144 
Q 1328 4144 1222 4034 
Q 1116 3925 1116 3625 
L 1116 3319 
L 1763 3319 
L 1763 2881 
L 1116 2881 
L 1116 0 
L 556 0 
z
" transform="scale(0.015625)"/>
       <path id="ArialMT-6c" d="M 409 0 
L 409 4581 
L 972 4581 
L 972 0 
L 409 0 
z
" transform="scale(0.015625)"/>
       <path id="ArialMT-64" d="M 2575 0 
L 2575 419 
Q 2259 -75 1647 -75 
Q 1250 -75 917 144 
Q 584 363 401 755 
Q 219 1147 219 1656 
Q 219 2153 384 2558 
Q 550 2963 881 3178 
Q 1213 3394 1622 3394 
Q 1922 3394 2156 3267 
Q 2391 3141 2538 2938 
L 2538 4581 
L 3097 4581 
L 3097 0 
L 2575 0 
z
M 797 1656 
Q 797 1019 1065 703 
Q 1334 388 1700 388 
Q 2069 388 2326 689 
Q 2584 991 2584 1609 
Q 2584 2291 2321 2609 
Q 2059 2928 1675 2928 
Q 1300 2928 1048 2622 
Q 797 2316 797 1656 
z
" transform="scale(0.015625)"/>
       <path id="ArialMT-5b" d="M 434 -1272 
L 434 4581 
L 1675 4581 
L 1675 4116 
L 997 4116 
L 997 -806 
L 1675 -806 
L 1675 -1272 
L 434 -1272 
z
" transform="scale(0.015625)"/>
       <path id="ArialMT-47" d="M 2638 1797 
L 2638 2334 
L 4578 2338 
L 4578 638 
Q 4131 281 3656 101 
Q 3181 -78 2681 -78 
Q 2006 -78 1454 211 
Q 903 500 622 1047 
Q 341 1594 341 2269 
Q 341 2938 620 3517 
Q 900 4097 1425 4378 
Q 1950 4659 2634 4659 
Q 3131 4659 3532 4498 
Q 3934 4338 4162 4050 
Q 4391 3763 4509 3300 
L 3963 3150 
Q 3859 3500 3706 3700 
Q 3553 3900 3268 4020 
Q 2984 4141 2638 4141 
Q 2222 4141 1919 4014 
Q 1616 3888 1430 3681 
Q 1244 3475 1141 3228 
Q 966 2803 966 2306 
Q 966 1694 1177 1281 
Q 1388 869 1791 669 
Q 2194 469 2647 469 
Q 3041 469 3416 620 
Q 3791 772 3984 944 
L 3984 1797 
L 2638 1797 
z
" transform="scale(0.015625)"/>
       <path id="ArialMT-5d" d="M 1363 -1272 
L 122 -1272 
L 122 -806 
L 800 -806 
L 800 4116 
L 122 4116 
L 122 4581 
L 1363 4581 
L 1363 -1272 
z
" transform="scale(0.015625)"/>
      </defs>
      <use xlink:href="#ArialMT-6d"/>
      <use xlink:href="#ArialMT-61" x="83.300781"/>
      <use xlink:href="#ArialMT-67" x="138.916016"/>
      <use xlink:href="#ArialMT-6e" x="194.53125"/>
      <use xlink:href="#ArialMT-65" x="250.146484"/>
      <use xlink:href="#ArialMT-74" x="305.761719"/>
      <use xlink:href="#ArialMT-69" x="333.544922"/>
      <use xlink:href="#ArialMT-63" x="355.761719"/>
      <use xlink:href="#ArialMT-20" x="405.761719"/>
      <use xlink:href="#ArialMT-66" x="433.544922"/>
      <use xlink:href="#ArialMT-69" x="461.328125"/>
      <use xlink:href="#ArialMT-65" x="483.544922"/>
      <use xlink:href="#ArialMT-6c" x="539.160156"/>
      <use xlink:href="#ArialMT-64" x="561.376953"/>
      <use xlink:href="#ArialMT-20" x="616.992188"/>
      <use xlink:href="#ArialMT-5b" x="644.775391"/>
      <use xlink:href="#ArialMT-47" x="672.558594"/>
      <use xlink:href="#ArialMT-5d" x="750.341797"/>
     </g>
    </g>
   </g>
   <g id="matplotlib.axis_2">
    <g id="ytick_1">
     <g id="line2d_18">
      <defs>
       <path id="m5ea3bac4fb" d="M 0 0 
L 6 0 
" style="stroke: #262626; stroke-width: 1.25"/>
      </defs>
      <g>
       <use xlink:href="#m5ea3bac4fb" x="59.91" y="277.248797" style="fill: #262626; stroke: #262626; stroke-width: 1.25"/>
      </g>
     </g>
     <g id="text_11">
      <!-- −0.020 -->
      <g style="fill: #262626" transform="translate(22.46125 281.185594) scale(0.11 -0.11)">
       <defs>
        <path id="ArialMT-2212" d="M 3381 1997 
L 356 1997 
L 356 2522 
L 3381 2522 
L 3381 1997 
z
" transform="scale(0.015625)"/>
        <path id="ArialMT-2e" d="M 581 0 
L 581 641 
L 1222 641 
L 1222 0 
L 581 0 
z
" transform="scale(0.015625)"/>
       </defs>
       <use xlink:href="#ArialMT-2212"/>
       <use xlink:href="#ArialMT-30" x="58.398438"/>
       <use xlink:href="#ArialMT-2e" x="114.013672"/>
       <use xlink:href="#ArialMT-30" x="141.796875"/>
       <use xlink:href="#ArialMT-32" x="197.412109"/>
       <use xlink:href="#ArialMT-30" x="253.027344"/>
      </g>
     </g>
    </g>
    <g id="ytick_2">
     <g id="line2d_19">
      <g>
       <use xlink:href="#m5ea3bac4fb" x="59.91" y="243.984797" style="fill: #262626; stroke: #262626; stroke-width: 1.25"/>
      </g>
     </g>
     <g id="text_12">
      <!-- −0.015 -->
      <g style="fill: #262626" transform="translate(22.46125 247.921594) scale(0.11 -0.11)">
       <defs>
        <path id="ArialMT-31" d="M 2384 0 
L 1822 0 
L 1822 3584 
Q 1619 3391 1289 3197 
Q 959 3003 697 2906 
L 697 3450 
Q 1169 3672 1522 3987 
Q 1875 4303 2022 4600 
L 2384 4600 
L 2384 0 
z
" transform="scale(0.015625)"/>
        <path id="ArialMT-35" d="M 266 1200 
L 856 1250 
Q 922 819 1161 601 
Q 1400 384 1738 384 
Q 2144 384 2425 690 
Q 2706 997 2706 1503 
Q 2706 1984 2436 2262 
Q 2166 2541 1728 2541 
Q 1456 2541 1237 2417 
Q 1019 2294 894 2097 
L 366 2166 
L 809 4519 
L 3088 4519 
L 3088 3981 
L 1259 3981 
L 1013 2750 
Q 1425 3038 1878 3038 
Q 2478 3038 2890 2622 
Q 3303 2206 3303 1553 
Q 3303 931 2941 478 
Q 2500 -78 1738 -78 
Q 1113 -78 717 272 
Q 322 622 266 1200 
z
" transform="scale(0.015625)"/>
       </defs>
       <use xlink:href="#ArialMT-2212"/>
       <use xlink:href="#ArialMT-30" x="58.398438"/>
       <use xlink:href="#ArialMT-2e" x="114.013672"/>
       <use xlink:href="#ArialMT-30" x="141.796875"/>
       <use xlink:href="#ArialMT-31" x="197.412109"/>
       <use xlink:href="#ArialMT-35" x="253.027344"/>
      </g>
     </g>
    </g>
    <g id="ytick_3">
     <g id="line2d_20">
      <g>
       <use xlink:href="#m5ea3bac4fb" x="59.91" y="210.720797" style="fill: #262626; stroke: #262626; stroke-width: 1.25"/>
      </g>
     </g>
     <g id="text_13">
      <!-- −0.010 -->
      <g style="fill: #262626" transform="translate(22.46125 214.657594) scale(0.11 -0.11)">
       <use xlink:href="#ArialMT-2212"/>
       <use xlink:href="#ArialMT-30" x="58.398438"/>
       <use xlink:href="#ArialMT-2e" x="114.013672"/>
       <use xlink:href="#ArialMT-30" x="141.796875"/>
       <use xlink:href="#ArialMT-31" x="197.412109"/>
       <use xlink:href="#ArialMT-30" x="253.027344"/>
      </g>
     </g>
    </g>
    <g id="ytick_4">
     <g id="line2d_21">
      <g>
       <use xlink:href="#m5ea3bac4fb" x="59.91" y="177.456797" style="fill: #262626; stroke: #262626; stroke-width: 1.25"/>
      </g>
     </g>
     <g id="text_14">
      <!-- −0.005 -->
      <g style="fill: #262626" transform="translate(22.46125 181.393594) scale(0.11 -0.11)">
       <use xlink:href="#ArialMT-2212"/>
       <use xlink:href="#ArialMT-30" x="58.398438"/>
       <use xlink:href="#ArialMT-2e" x="114.013672"/>
       <use xlink:href="#ArialMT-30" x="141.796875"/>
       <use xlink:href="#ArialMT-30" x="197.412109"/>
       <use xlink:href="#ArialMT-35" x="253.027344"/>
      </g>
     </g>
    </g>
    <g id="ytick_5">
     <g id="line2d_22">
      <g>
       <use xlink:href="#m5ea3bac4fb" x="59.91" y="144.192797" style="fill: #262626; stroke: #262626; stroke-width: 1.25"/>
      </g>
     </g>
     <g id="text_15">
      <!-- 0.000 -->
      <g style="fill: #262626" transform="translate(28.885937 148.129594) scale(0.11 -0.11)">
       <use xlink:href="#ArialMT-30"/>
       <use xlink:href="#ArialMT-2e" x="55.615234"/>
       <use xlink:href="#ArialMT-30" x="83.398438"/>
       <use xlink:href="#ArialMT-30" x="139.013672"/>
       <use xlink:href="#ArialMT-30" x="194.628906"/>
      </g>
     </g>
    </g>
    <g id="ytick_6">
     <g id="line2d_23">
      <g>
       <use xlink:href="#m5ea3bac4fb" x="59.91" y="110.928797" style="fill: #262626; stroke: #262626; stroke-width: 1.25"/>
      </g>
     </g>
     <g id="text_16">
      <!-- 0.005 -->
      <g style="fill: #262626" transform="translate(28.885937 114.865594) scale(0.11 -0.11)">
       <use xlink:href="#ArialMT-30"/>
       <use xlink:href="#ArialMT-2e" x="55.615234"/>
       <use xlink:href="#ArialMT-30" x="83.398438"/>
       <use xlink:href="#ArialMT-30" x="139.013672"/>
       <use xlink:href="#ArialMT-35" x="194.628906"/>
      </g>
     </g>
    </g>
    <g id="ytick_7">
     <g id="line2d_24">
      <g>
       <use xlink:href="#m5ea3bac4fb" x="59.91" y="77.664797" style="fill: #262626; stroke: #262626; stroke-width: 1.25"/>
      </g>
     </g>
     <g id="text_17">
      <!-- 0.010 -->
      <g style="fill: #262626" transform="translate(28.885937 81.601594) scale(0.11 -0.11)">
       <use xlink:href="#ArialMT-30"/>
       <use xlink:href="#ArialMT-2e" x="55.615234"/>
       <use xlink:href="#ArialMT-30" x="83.398438"/>
       <use xlink:href="#ArialMT-31" x="139.013672"/>
       <use xlink:href="#ArialMT-30" x="194.628906"/>
      </g>
     </g>
    </g>
    <g id="ytick_8">
     <g id="line2d_25">
      <g>
       <use xlink:href="#m5ea3bac4fb" x="59.91" y="44.400797" style="fill: #262626; stroke: #262626; stroke-width: 1.25"/>
      </g>
     </g>
     <g id="text_18">
      <!-- 0.015 -->
      <g style="fill: #262626" transform="translate(28.885937 48.337594) scale(0.11 -0.11)">
       <use xlink:href="#ArialMT-30"/>
       <use xlink:href="#ArialMT-2e" x="55.615234"/>
       <use xlink:href="#ArialMT-30" x="83.398438"/>
       <use xlink:href="#ArialMT-31" x="139.013672"/>
       <use xlink:href="#ArialMT-35" x="194.628906"/>
      </g>
     </g>
    </g>
    <g id="ytick_9">
     <g id="line2d_26">
      <g>
       <use xlink:href="#m5ea3bac4fb" x="59.91" y="11.136797" style="fill: #262626; stroke: #262626; stroke-width: 1.25"/>
      </g>
     </g>
     <g id="text_19">
      <!-- 0.020 -->
      <g style="fill: #262626" transform="translate(28.885937 15.073594) scale(0.11 -0.11)">
       <use xlink:href="#ArialMT-30"/>
       <use xlink:href="#ArialMT-2e" x="55.615234"/>
       <use xlink:href="#ArialMT-30" x="83.398438"/>
       <use xlink:href="#ArialMT-32" x="139.013672"/>
       <use xlink:href="#ArialMT-30" x="194.628906"/>
      </g>
     </g>
    </g>
    <g id="ytick_10">
     <g id="line2d_27">
      <defs>
       <path id="m0271bc5d39" d="M 0 0 
L 4 0 
" style="stroke: #262626"/>
      </defs>
      <g>
       <use xlink:href="#m0271bc5d39" x="59.91" y="260.616797" style="fill: #262626; stroke: #262626"/>
      </g>
     </g>
    </g>
    <g id="ytick_11">
     <g id="line2d_28">
      <g>
       <use xlink:href="#m0271bc5d39" x="59.91" y="227.352797" style="fill: #262626; stroke: #262626"/>
      </g>
     </g>
    </g>
    <g id="ytick_12">
     <g id="line2d_29">
      <g>
       <use xlink:href="#m0271bc5d39" x="59.91" y="194.088797" style="fill: #262626; stroke: #262626"/>
      </g>
     </g>
    </g>
    <g id="ytick_13">
     <g id="line2d_30">
      <g>
       <use xlink:href="#m0271bc5d39" x="59.91" y="160.824797" style="fill: #262626; stroke: #262626"/>
      </g>
     </g>
    </g>
    <g id="ytick_14">
     <g id="line2d_31">
      <g>
       <use xlink:href="#m0271bc5d39" x="59.91" y="127.560797" style="fill: #262626; stroke: #262626"/>
      </g>
     </g>
    </g>
    <g id="ytick_15">
     <g id="line2d_32">
      <g>
       <use xlink:href="#m0271bc5d39" x="59.91" y="94.296797" style="fill: #262626; stroke: #262626"/>
      </g>
     </g>
    </g>
    <g id="ytick_16">
     <g id="line2d_33">
      <g>
       <use xlink:href="#m0271bc5d39" x="59.91" y="61.032797" style="fill: #262626; stroke: #262626"/>
      </g>
     </g>
    </g>
    <g id="ytick_17">
     <g id="line2d_34">
      <g>
       <use xlink:href="#m0271bc5d39" x="59.91" y="27.768797" style="fill: #262626; stroke: #262626"/>
      </g>
     </g>
    </g>
    <g id="text_20">
     <!-- Signal intensity -->
     <g style="fill: #262626" transform="translate(15.935625 184.547484) rotate(-90) scale(0.12 -0.12)">
      <defs>
       <path id="ArialMT-53" d="M 288 1472 
L 859 1522 
Q 900 1178 1048 958 
Q 1197 738 1509 602 
Q 1822 466 2213 466 
Q 2559 466 2825 569 
Q 3091 672 3220 851 
Q 3350 1031 3350 1244 
Q 3350 1459 3225 1620 
Q 3100 1781 2813 1891 
Q 2628 1963 1997 2114 
Q 1366 2266 1113 2400 
Q 784 2572 623 2826 
Q 463 3081 463 3397 
Q 463 3744 659 4045 
Q 856 4347 1234 4503 
Q 1613 4659 2075 4659 
Q 2584 4659 2973 4495 
Q 3363 4331 3572 4012 
Q 3781 3694 3797 3291 
L 3216 3247 
Q 3169 3681 2898 3903 
Q 2628 4125 2100 4125 
Q 1550 4125 1298 3923 
Q 1047 3722 1047 3438 
Q 1047 3191 1225 3031 
Q 1400 2872 2139 2705 
Q 2878 2538 3153 2413 
Q 3553 2228 3743 1945 
Q 3934 1663 3934 1294 
Q 3934 928 3725 604 
Q 3516 281 3123 101 
Q 2731 -78 2241 -78 
Q 1619 -78 1198 103 
Q 778 284 539 648 
Q 300 1013 288 1472 
z
" transform="scale(0.015625)"/>
       <path id="ArialMT-73" d="M 197 991 
L 753 1078 
Q 800 744 1014 566 
Q 1228 388 1613 388 
Q 2000 388 2187 545 
Q 2375 703 2375 916 
Q 2375 1106 2209 1216 
Q 2094 1291 1634 1406 
Q 1016 1563 777 1677 
Q 538 1791 414 1992 
Q 291 2194 291 2438 
Q 291 2659 392 2848 
Q 494 3038 669 3163 
Q 800 3259 1026 3326 
Q 1253 3394 1513 3394 
Q 1903 3394 2198 3281 
Q 2494 3169 2634 2976 
Q 2775 2784 2828 2463 
L 2278 2388 
Q 2241 2644 2061 2787 
Q 1881 2931 1553 2931 
Q 1166 2931 1000 2803 
Q 834 2675 834 2503 
Q 834 2394 903 2306 
Q 972 2216 1119 2156 
Q 1203 2125 1616 2013 
Q 2213 1853 2448 1751 
Q 2684 1650 2818 1456 
Q 2953 1263 2953 975 
Q 2953 694 2789 445 
Q 2625 197 2315 61 
Q 2006 -75 1616 -75 
Q 969 -75 630 194 
Q 291 463 197 991 
z
" transform="scale(0.015625)"/>
       <path id="ArialMT-79" d="M 397 -1278 
L 334 -750 
Q 519 -800 656 -800 
Q 844 -800 956 -737 
Q 1069 -675 1141 -563 
Q 1194 -478 1313 -144 
Q 1328 -97 1363 -6 
L 103 3319 
L 709 3319 
L 1400 1397 
Q 1534 1031 1641 628 
Q 1738 1016 1872 1384 
L 2581 3319 
L 3144 3319 
L 1881 -56 
Q 1678 -603 1566 -809 
Q 1416 -1088 1222 -1217 
Q 1028 -1347 759 -1347 
Q 597 -1347 397 -1278 
z
" transform="scale(0.015625)"/>
      </defs>
      <use xlink:href="#ArialMT-53"/>
      <use xlink:href="#ArialMT-69" x="66.699219"/>
      <use xlink:href="#ArialMT-67" x="88.916016"/>
      <use xlink:href="#ArialMT-6e" x="144.53125"/>
      <use xlink:href="#ArialMT-61" x="200.146484"/>
      <use xlink:href="#ArialMT-6c" x="255.761719"/>
      <use xlink:href="#ArialMT-20" x="277.978516"/>
      <use xlink:href="#ArialMT-69" x="305.761719"/>
      <use xlink:href="#ArialMT-6e" x="327.978516"/>
      <use xlink:href="#ArialMT-74" x="383.59375"/>
      <use xlink:href="#ArialMT-65" x="411.376953"/>
      <use xlink:href="#ArialMT-6e" x="466.992188"/>
      <use xlink:href="#ArialMT-73" x="522.607422"/>
      <use xlink:href="#ArialMT-69" x="572.607422"/>
      <use xlink:href="#ArialMT-74" x="594.824219"/>
      <use xlink:href="#ArialMT-79" x="622.607422"/>
     </g>
    </g>
   </g>
   <g id="PolyCollection_1"/>
   <g id="PolyCollection_2"/>
   <g id="PolyCollection_3"/>
   <g id="PolyCollection_4"/>
   <g id="line2d_35">
    <path d="M 44.955709 136.383874 
L 45.402 136.677152 
L 45.848291 137.358595 
L 46.741418 139.541492 
L 48.080291 143.395259 
L 48.973418 145.193511 
L 49.419709 145.709569 
L 49.866 146.004753 
L 51.205418 146.439521 
L 51.651709 146.796496 
L 52.098 147.37683 
L 52.544291 148.147673 
L 53.437418 150.275186 
L 54.776291 153.691332 
L 55.669418 155.332245 
L 56.562 156.260377 
L 57.008291 156.453308 
L 57.454582 156.517908 
L 57.901418 156.421641 
L 58.347709 156.129517 
L 58.794 155.659962 
L 59.686582 154.192354 
L 61.026 150.973962 
L 62.365418 147.716985 
L 63.258 146.150649 
L 64.150582 145.189985 
L 65.043709 144.606268 
L 67.722 143.197738 
L 69.507709 141.874156 
L 70.400291 141.055004 
L 71.293418 139.999204 
L 73.525418 137.1069 
L 73.971709 136.797545 
L 74.864291 136.542077 
L 76.203709 136.557378 
L 76.65 136.385071 
L 77.096291 136.034468 
L 77.989418 134.787733 
L 79.774582 131.529857 
L 80.667709 130.549901 
L 81.114 130.340337 
L 82.006582 130.299955 
L 83.792291 130.970091 
L 85.578 131.821916 
L 86.917418 132.814646 
L 87.81 133.806512 
L 88.702582 135.089505 
L 89.595709 136.768871 
L 90.934582 139.940653 
L 94.059709 148.379803 
L 94.952291 150.010158 
L 95.398582 150.507156 
L 95.845418 150.795967 
L 96.291709 150.811468 
L 96.738 150.62326 
L 97.184291 150.178255 
L 97.630582 149.560409 
L 98.523709 147.748053 
L 101.648291 140.16426 
L 102.094582 139.443829 
L 102.541418 138.946997 
L 102.987709 138.680752 
L 103.434 138.722066 
L 103.880291 139.063555 
L 104.326582 139.75844 
L 104.773418 140.773657 
L 105.666 143.690377 
L 108.344291 154.11445 
L 108.790582 155.081834 
L 109.237418 155.64832 
L 109.683709 155.763679 
L 110.13 155.430174 
L 110.576291 154.713202 
L 111.022582 153.615823 
L 111.915709 150.61521 
L 114.147709 142.170146 
L 115.040291 139.958203 
L 115.486582 139.327371 
L 115.933418 138.965925 
L 116.379709 138.960935 
L 116.826 139.232543 
L 117.272291 139.786461 
L 118.165418 141.533087 
L 119.504291 145.119732 
L 121.29 149.982063 
L 122.182582 151.736007 
L 123.075709 152.794668 
L 123.522 153.030576 
L 123.968291 152.976156 
L 124.414582 152.73599 
L 124.861418 152.27209 
L 125.754 150.790977 
L 126.646582 149.210006 
L 127.093418 148.660951 
L 127.539709 148.339021 
L 127.986 148.361707 
L 128.432291 148.72362 
L 128.878582 149.461482 
L 129.771709 151.606012 
L 131.110582 155.241301 
L 132.003709 156.975953 
L 132.896291 157.927769 
L 134.682 158.809398 
L 135.128291 159.190869 
L 136.021418 160.408997 
L 138.253418 164.223048 
L 138.699709 164.523754 
L 139.146 164.425293 
L 139.592291 163.960261 
L 140.038582 163.100054 
L 140.931709 160.408464 
L 142.717418 153.844413 
L 143.61 151.557979 
L 144.056291 150.801622 
L 144.502582 150.353489 
L 144.949418 150.148849 
L 145.395709 150.200741 
L 145.842 150.476965 
L 146.288291 150.965347 
L 147.181418 152.502344 
L 148.520291 155.711987 
L 149.413418 157.787994 
L 149.859709 158.603959 
L 150.306 159.087019 
L 150.752291 159.199119 
L 151.198582 158.819909 
L 151.645418 157.992034 
L 152.091709 156.651096 
L 152.984291 152.89273 
L 154.77 144.163924 
L 155.662582 140.829474 
L 156.555709 138.411447 
L 158.341418 134.055194 
L 159.234 131.23587 
L 161.019709 124.953564 
L 161.912291 122.808036 
L 162.358582 122.237891 
L 162.805418 122.066915 
L 163.251709 122.332361 
L 163.698 122.927788 
L 164.144291 123.916394 
L 165.037418 126.702586 
L 166.376291 132.050306 
L 167.715709 137.411997 
L 168.608291 140.217749 
L 169.054582 141.287386 
L 169.501418 142.055053 
L 169.947709 142.575805 
L 170.394 142.890179 
L 170.840291 142.948258 
L 171.286582 142.848931 
L 171.733418 142.534121 
L 172.179709 142.067028 
L 172.626 141.405008 
L 173.072291 140.529898 
L 173.518582 139.40624 
L 174.411709 136.214293 
L 175.304291 131.852857 
L 178.429418 114.596484 
L 180.214582 106.591836 
L 181.107709 103.213545 
L 181.554 101.91625 
L 182.000291 101.054713 
L 182.446582 100.732052 
L 182.893418 100.954255 
L 183.339709 101.739948 
L 183.786 103.02567 
L 184.678582 106.590838 
L 186.018 112.294684 
L 186.910582 114.956401 
L 187.357418 115.762853 
L 187.803709 116.247444 
L 188.25 116.488009 
L 188.696291 116.467786 
L 190.035709 115.917999 
L 190.928291 115.563138 
L 192.267709 115.185525 
L 193.160291 114.487427 
L 194.053418 113.271846 
L 195.838582 110.048366 
L 196.285418 109.509422 
L 196.731709 109.171593 
L 197.178 109.16545 
L 197.624291 109.59451 
L 198.070582 110.48326 
L 198.517418 111.926518 
L 198.963709 113.981832 
L 199.856291 119.886126 
L 200.749418 127.775017 
L 202.981418 148.698738 
L 203.874 154.376903 
L 204.320291 156.312868 
L 204.766582 157.640101 
L 205.213418 158.476359 
L 205.659709 158.826296 
L 206.106 158.811659 
L 206.552291 158.508292 
L 206.998582 158.001348 
L 207.891709 156.484111 
L 208.784291 154.55267 
L 210.123709 150.885314 
L 211.462582 146.113128 
L 212.802 140.310689 
L 214.587709 131.317766 
L 215.926582 123.613891 
L 217.266 114.513326 
L 219.944291 95.029271 
L 220.390582 92.861124 
L 220.837418 91.285072 
L 221.283709 90.439505 
L 221.73 90.235926 
L 222.176291 90.723581 
L 222.622582 91.778712 
L 223.515709 95.279416 
L 224.854582 102.312091 
L 227.086582 114.108835 
L 229.318582 125.615518 
L 231.997418 140.229923 
L 232.89 143.472365 
L 233.336291 144.472148 
L 233.782582 145.002243 
L 234.229418 144.993262 
L 234.675709 144.412539 
L 235.122 143.282561 
L 235.568291 141.621091 
L 236.461418 136.728555 
L 237.354 130.162042 
L 240.032291 108.964892 
L 240.925418 103.954668 
L 241.818 100.653546 
L 242.264291 99.58045 
L 242.710582 98.9012 
L 243.157418 98.590515 
L 243.603709 98.61892 
L 244.05 98.956417 
L 244.496291 99.506738 
L 245.835709 101.928223 
L 248.514 106.890615 
L 248.960291 108.177996 
L 249.406582 109.820973 
L 250.299709 114.540535 
L 251.192291 121.532828 
L 252.085418 130.914294 
L 253.424291 148.072976 
L 254.763709 165.632775 
L 255.656291 175.170031 
L 256.549418 181.873988 
L 256.995709 184.097754 
L 257.442 185.502201 
L 257.888291 186.242617 
L 258.334582 186.287126 
L 258.781418 185.766143 
L 259.227709 184.748931 
L 260.120291 181.452469 
L 261.013418 176.977131 
L 262.352291 168.703708 
L 263.245418 162.118101 
L 264.584291 149.986055 
L 265.923709 134.611434 
L 268.602 100.896373 
L 269.494582 92.591484 
L 269.941418 89.661993 
L 270.387709 87.621379 
L 270.834 86.595517 
L 271.280291 86.629446 
L 271.726582 87.714516 
L 272.173418 89.802832 
L 272.619709 92.831185 
L 273.512291 101.171134 
L 276.637418 136.537486 
L 277.53 143.393529 
L 278.422582 148.044369 
L 279.315709 150.972146 
L 280.208291 152.802053 
L 281.547709 154.679007 
L 283.779709 157.002098 
L 286.458 159.171243 
L 286.904291 159.366502 
L 287.350582 159.413938 
L 287.797418 159.165988 
L 288.243709 158.617484 
L 288.69 157.719469 
L 289.136291 156.430955 
L 290.029418 152.837312 
L 292.707709 139.597242 
L 293.154 138.163298 
L 293.600291 137.123399 
L 294.046582 136.431441 
L 294.493418 136.021695 
L 294.939709 135.88172 
L 295.832291 136.017704 
L 296.725418 136.459316 
L 297.618 137.126592 
L 298.510582 138.195171 
L 301.189418 142.264815 
L 301.635709 142.610096 
L 302.528291 142.90548 
L 303.421418 143.067143 
L 303.867709 143.211509 
L 304.314 143.623317 
L 304.760291 144.2234 
L 305.206582 145.01974 
L 306.099709 147.220486 
L 307.438582 151.10306 
L 308.331709 153.12285 
L 308.778 153.743556 
L 309.224291 154.094825 
L 309.670582 154.103473 
L 310.117418 153.813411 
L 310.563709 153.223973 
L 311.456291 151.375825 
L 314.581418 143.381821 
L 315.920291 140.994796 
L 317.259709 138.769434 
L 318.598582 136.069728 
L 319.491709 134.284116 
L 320.384291 133.067319 
L 320.830582 132.829815 
L 321.277418 132.901665 
L 321.723709 133.35339 
L 322.17 134.142412 
L 323.062582 136.640538 
L 323.955709 140.185816 
L 326.187709 149.777822 
L 327.526582 154.169336 
L 329.312291 158.951368 
L 330.205418 161.115524 
L 331.098 162.708204 
L 331.544291 163.155272 
L 331.990582 163.304961 
L 332.437418 163.223796 
L 332.883709 162.920429 
L 333.776291 161.855981 
L 334.669418 160.649163 
L 335.562 159.807584 
L 336.454582 159.36983 
L 337.347709 159.085755 
L 338.240291 158.628708 
L 339.133418 157.823718 
L 341.365418 155.318474 
L 342.258 154.757843 
L 343.150582 154.640155 
L 344.49 154.96847 
L 345.382582 155.16047 
L 346.275709 154.95563 
L 347.168291 154.441901 
L 348.061418 153.84428 
L 348.507709 153.67297 
L 348.954 153.689064 
L 349.400291 153.922198 
L 349.846582 154.448488 
L 350.293418 155.289667 
L 351.186 157.86836 
L 352.525418 163.080429 
L 353.418 166.39166 
L 354.310582 168.727791 
L 354.757418 169.429329 
L 355.203709 169.805744 
L 355.65 169.878659 
L 356.096291 169.710277 
L 356.542582 169.274584 
L 356.989418 168.578636 
L 357.435709 167.627484 
L 358.328291 164.861517 
L 359.221418 160.997836 
L 360.560291 153.671373 
L 361.899709 146.457729 
L 362.792291 142.744156 
L 363.685418 140.301641 
L 364.131709 139.517209 
L 364.578 139.056503 
L 365.024291 138.837958 
L 365.917418 139.004744 
L 366.81 139.695903 
L 369.488291 142.472383 
L 370.381418 142.932091 
L 371.274 143.043858 
L 372.166582 142.847601 
L 374.398582 142.153714 
L 375.291709 142.391352 
L 375.738 142.676424 
L 376.630582 143.578012 
L 377.97 145.273744 
L 378.416291 145.63366 
L 378.862582 145.847548 
L 379.309418 145.810425 
L 379.755709 145.519033 
L 380.648291 144.19446 
L 383.326582 138.696919 
L 384.219709 137.67425 
L 385.112291 137.087008 
L 386.898 136.195 
L 388.237418 135.094095 
L 389.13 134.325364 
L 390.022582 133.917814 
L 390.469418 133.924333 
L 390.915709 134.132832 
L 391.362 134.559076 
L 392.254582 136.0032 
L 393.147709 138.161036 
L 394.040291 140.869258 
L 397.165418 151.432893 
L 398.058 153.564643 
L 399.397418 155.934357 
L 401.182582 158.753314 
L 401.629418 159.231584 
L 402.075709 159.537746 
L 402.522 159.5438 
L 402.968291 159.199518 
L 403.414582 158.507959 
L 403.861418 157.469456 
L 404.754 154.523398 
L 406.093418 148.723753 
L 408.325418 138.680486 
L 409.218 135.346569 
L 410.110582 132.580734 
L 411.45 129.415378 
L 412.342582 127.971541 
L 412.789418 127.543899 
L 413.235709 127.417229 
L 413.682 127.605171 
L 414.128291 128.198002 
L 414.574582 129.119349 
L 415.467709 131.960293 
L 417.253418 138.567855 
L 417.699709 139.762697 
L 418.146 140.609599 
L 418.592291 141.129182 
L 419.038582 141.356708 
L 419.485418 141.31413 
L 419.931709 141.057332 
L 420.824291 140.153882 
L 422.163709 138.540578 
L 423.056291 137.817152 
L 423.502582 137.675714 
L 423.949418 137.753885 
L 424.395709 138.006757 
L 425.288291 139.185966 
L 426.181418 141.014488 
L 427.966582 145.186659 
L 428.859709 146.540237 
L 429.306 146.864827 
L 429.752291 146.928495 
L 430.198582 146.729642 
L 430.645418 146.252637 
L 431.538 144.526302 
L 432.430582 142.145265 
L 434.216291 137.34191 
L 435.109418 135.701629 
L 436.002 134.800041 
L 436.894582 134.461946 
L 437.464063 134.489771 
L 437.464063 134.489771 
" clip-path="url(#p91dd604937)" style="fill: none; stroke: #f69c73; stroke-linecap: round"/>
   </g>
   <g id="line2d_36">
    <path d="M 44.955709 152.468215 
L 46.294582 153.464139 
L 47.187709 153.901228 
L 47.634 154.00102 
L 48.080291 153.973744 
L 48.526582 153.782143 
L 48.973418 153.390958 
L 49.419709 152.782893 
L 50.312291 150.977322 
L 52.098 146.705559 
L 52.544291 145.933169 
L 52.990582 145.382983 
L 53.437418 145.068305 
L 53.883709 144.98468 
L 54.33 145.108954 
L 55.222582 145.824596 
L 57.008291 147.662265 
L 57.901418 148.070714 
L 58.794 148.086481 
L 59.686582 148.031542 
L 60.579709 148.240893 
L 61.472291 148.790613 
L 62.811709 149.77423 
L 63.704291 150.208724 
L 66.382582 151.156283 
L 68.614582 152.328506 
L 69.507709 152.454909 
L 70.400291 152.191458 
L 70.846582 151.878776 
L 71.739709 150.832291 
L 72.632291 149.17774 
L 73.525418 146.954374 
L 74.864291 142.91812 
L 77.989418 133.280874 
L 78.882 131.084119 
L 79.774582 129.497427 
L 80.667709 128.60389 
L 81.560291 128.24996 
L 84.685418 127.846867 
L 85.578 127.909204 
L 86.470582 128.229403 
L 87.81 129.07351 
L 89.149418 129.863378 
L 89.595709 129.9773 
L 90.042 129.960994 
L 90.488291 129.788421 
L 90.934582 129.446068 
L 91.827709 128.29653 
L 93.613418 125.490113 
L 94.059709 125.069389 
L 94.506 124.873066 
L 94.952291 124.927086 
L 95.398582 125.240367 
L 95.845418 125.802462 
L 96.738 127.589337 
L 97.630582 130.093718 
L 98.97 134.870894 
L 101.202 143.695833 
L 102.094582 146.340986 
L 102.987709 148.100652 
L 103.880291 149.187719 
L 104.773418 149.93882 
L 105.666 150.463061 
L 106.112291 150.573498 
L 106.558582 150.516949 
L 107.005418 150.24618 
L 107.451709 149.731918 
L 108.344291 147.998864 
L 110.13 143.634627 
L 110.576291 142.972008 
L 111.022582 142.681946 
L 111.469418 142.822985 
L 111.915709 143.41575 
L 112.362 144.43895 
L 113.254582 147.513143 
L 115.040291 154.822308 
L 115.933418 157.453689 
L 116.379709 158.287553 
L 116.826 158.764025 
L 117.272291 158.878454 
L 117.718582 158.645606 
L 118.165418 158.099478 
L 119.058 156.298897 
L 120.843709 152.096988 
L 121.736291 150.745805 
L 122.629418 150.015328 
L 123.968291 149.282189 
L 124.861418 148.471878 
L 125.754 147.235122 
L 128.878582 142.165689 
L 129.771709 141.336883 
L 130.664291 140.891811 
L 131.557418 140.737199 
L 133.789418 140.569416 
L 135.128291 139.994215 
L 136.021418 139.714797 
L 136.467709 139.782656 
L 136.914 140.064734 
L 137.360291 140.58964 
L 138.253418 142.282113 
L 139.592291 145.106226 
L 140.038582 145.64843 
L 140.485418 145.82739 
L 140.931709 145.599864 
L 141.378 144.967183 
L 141.824291 143.965936 
L 142.717418 141.127187 
L 146.288291 128.004272 
L 146.734582 127.184316 
L 147.181418 126.805571 
L 147.627709 126.929247 
L 148.074 127.58355 
L 148.520291 128.74952 
L 149.413418 132.282289 
L 150.752291 138.364279 
L 151.645418 141.184401 
L 152.091709 142.002695 
L 152.538 142.472383 
L 153.430582 142.80968 
L 153.877418 142.95205 
L 154.323709 143.242777 
L 154.77 143.7597 
L 155.216291 144.530759 
L 156.109418 146.701568 
L 157.448291 150.296076 
L 158.341418 151.979899 
L 158.787709 152.483516 
L 159.234 152.751624 
L 159.680291 152.79021 
L 160.126582 152.603932 
L 160.573418 152.189462 
L 161.019709 151.531634 
L 161.466 150.608425 
L 162.358582 147.866007 
L 163.251709 143.85224 
L 164.590582 136.080572 
L 165.483709 130.925783 
L 166.376291 127.105081 
L 166.822582 126.006038 
L 167.269418 125.546861 
L 167.715709 125.74272 
L 168.162 126.555692 
L 168.608291 127.8951 
L 169.501418 131.582614 
L 170.394 135.396531 
L 170.840291 136.88443 
L 171.286582 137.895922 
L 171.733418 138.342325 
L 172.179709 138.205277 
L 172.626 137.531348 
L 173.518582 135.044532 
L 174.858 130.772103 
L 175.750582 128.795557 
L 176.643709 127.483624 
L 177.536291 126.254187 
L 178.429418 124.712733 
L 179.768291 122.243213 
L 180.214582 121.643797 
L 180.661418 121.258599 
L 181.107709 121.120221 
L 181.554 121.232654 
L 182.000291 121.573277 
L 182.893418 122.737516 
L 183.786 124.044127 
L 184.232291 124.527785 
L 184.678582 124.781922 
L 185.125418 124.734022 
L 185.571709 124.334854 
L 186.018 123.565125 
L 186.464291 122.442133 
L 187.357418 119.34725 
L 193.606582 94.228937 
L 194.499709 91.782039 
L 194.946 90.962414 
L 195.392291 90.405576 
L 195.838582 90.098216 
L 196.285418 89.989775 
L 197.178 90.209314 
L 198.070582 90.797423 
L 198.963709 91.801333 
L 199.41 92.573058 
L 199.856291 93.594926 
L 200.749418 96.596005 
L 201.642 100.951594 
L 202.981418 109.344765 
L 206.552291 134.157714 
L 208.338 148.527096 
L 210.123709 162.814649 
L 211.016291 167.715102 
L 211.462582 169.158094 
L 211.909418 169.804746 
L 212.355709 169.595848 
L 212.802 168.500798 
L 213.248291 166.517598 
L 213.694582 163.674258 
L 214.587709 155.654972 
L 215.480291 145.218659 
L 218.158582 111.416446 
L 219.051709 103.114417 
L 219.944291 97.384362 
L 220.390582 95.513593 
L 220.837418 94.286816 
L 221.283709 93.662784 
L 221.73 93.604242 
L 222.176291 94.064613 
L 222.622582 94.984032 
L 223.515709 97.95384 
L 224.854582 104.028514 
L 226.194 110.080566 
L 227.533418 114.95374 
L 229.765418 122.232968 
L 231.104291 127.470985 
L 237.800291 155.611663 
L 238.693418 158.1211 
L 239.139709 158.781056 
L 239.586 158.969331 
L 240.032291 158.648001 
L 240.478582 157.782472 
L 240.925418 156.345467 
L 241.371709 154.315032 
L 242.264291 148.410406 
L 243.157418 140.057749 
L 244.05 129.54067 
L 246.728291 94.70794 
L 247.621418 86.931484 
L 248.067709 84.549116 
L 248.514 83.319675 
L 248.960291 83.285083 
L 249.406582 84.445328 
L 249.853418 86.76583 
L 250.299709 90.156092 
L 251.192291 99.541865 
L 253.870582 132.386073 
L 254.763709 139.142656 
L 255.21 141.272218 
L 255.656291 142.636441 
L 256.102582 143.353014 
L 256.549418 143.576282 
L 256.995709 143.480215 
L 257.888291 143.020573 
L 258.334582 142.950054 
L 258.781418 143.125022 
L 259.227709 143.596041 
L 259.674 144.377745 
L 260.566582 146.780071 
L 261.459709 150.013332 
L 264.584291 162.241178 
L 265.030582 163.319597 
L 265.477418 164.038099 
L 265.923709 164.357434 
L 266.37 164.250988 
L 266.816291 163.725418 
L 267.262582 162.794026 
L 267.709418 161.463466 
L 268.602 157.719935 
L 269.494582 152.768256 
L 272.173418 136.188614 
L 273.066 132.009125 
L 273.958582 128.879381 
L 274.851709 126.718553 
L 275.744291 125.397972 
L 276.637418 124.739344 
L 277.53 124.550405 
L 277.976291 124.612276 
L 278.422582 124.80055 
L 278.869418 125.159801 
L 279.315709 125.743917 
L 279.762 126.613438 
L 280.208291 127.822252 
L 281.101418 131.385492 
L 281.994 136.471557 
L 283.333418 146.217909 
L 285.565418 163.145627 
L 286.458 168.544772 
L 287.350582 172.735106 
L 288.243709 175.634782 
L 288.69 176.568316 
L 289.136291 177.130477 
L 289.582582 177.2956 
L 290.029418 177.040466 
L 290.475709 176.347841 
L 290.922 175.212141 
L 291.368291 173.643147 
L 292.261418 169.314821 
L 293.600291 160.748889 
L 294.939709 152.209621 
L 295.386 150.026637 
L 295.832291 148.410007 
L 296.278582 147.463979 
L 296.725418 147.250424 
L 297.171709 147.782648 
L 297.618 149.023395 
L 298.064291 150.891501 
L 298.957418 156.010166 
L 300.742582 167.433689 
L 301.635709 171.457966 
L 302.082 172.745283 
L 302.528291 173.538297 
L 302.974582 173.884908 
L 303.421418 173.863619 
L 303.867709 173.571562 
L 304.760291 172.555679 
L 306.099709 170.718176 
L 306.992291 169.142793 
L 307.885418 166.864874 
L 308.778 163.807247 
L 310.563709 157.250247 
L 311.456291 155.024221 
L 311.902582 154.338982 
L 312.349418 153.939814 
L 312.795709 153.807423 
L 313.242 153.90788 
L 313.688291 154.203931 
L 314.581418 155.223805 
L 317.706 159.699143 
L 318.598582 160.459559 
L 320.384291 161.639765 
L 321.277418 162.712862 
L 322.17 164.369409 
L 324.848291 170.241169 
L 325.741418 171.442666 
L 326.634 172.140544 
L 327.080291 172.30753 
L 327.973418 172.291563 
L 328.866 171.841834 
L 330.205418 170.684247 
L 331.544291 169.507366 
L 332.883709 168.595267 
L 334.222582 167.955268 
L 335.115709 167.749697 
L 336.901418 167.446994 
L 337.794 166.84159 
L 338.686582 165.790447 
L 340.472291 163.47993 
L 341.365418 162.88517 
L 342.258 162.728828 
L 343.150582 162.688911 
L 343.597418 162.567831 
L 344.043709 162.307705 
L 344.49 161.866625 
L 344.936291 161.221969 
L 345.829418 159.332574 
L 347.168291 155.481268 
L 348.507709 151.591376 
L 349.400291 149.581565 
L 350.293418 148.328843 
L 350.739709 148.027471 
L 351.186 147.94165 
L 351.632291 148.052086 
L 352.525418 148.684768 
L 353.418 149.418106 
L 353.864291 149.629266 
L 354.310582 149.646629 
L 354.757418 149.42855 
L 355.203709 148.963187 
L 356.096291 147.406232 
L 357.435709 144.576204 
L 358.328291 143.306511 
L 358.774582 142.997954 
L 359.221418 142.895434 
L 360.114 143.09748 
L 361.006582 143.364656 
L 361.453418 143.364257 
L 361.899709 143.228074 
L 362.792291 142.540907 
L 363.685418 141.424766 
L 366.81 136.979765 
L 367.256291 136.698285 
L 367.702582 136.630093 
L 368.149418 136.804064 
L 368.595709 137.230309 
L 369.042 137.896188 
L 369.934582 139.783787 
L 371.720291 143.883355 
L 372.613418 145.086275 
L 373.059709 145.380841 
L 373.506 145.493406 
L 374.398582 145.344263 
L 375.738 144.983016 
L 376.630582 145.109486 
L 378.862582 145.985926 
L 379.309418 145.914142 
L 380.202 145.404272 
L 381.094582 144.748173 
L 381.541418 144.554709 
L 381.987709 144.54473 
L 382.434 144.758285 
L 382.880291 145.197902 
L 383.773418 146.574167 
L 384.666 148.042573 
L 385.112291 148.565416 
L 385.558582 148.838247 
L 386.005418 148.813366 
L 386.451709 148.471612 
L 386.898 147.823296 
L 387.790582 145.750617 
L 389.13 141.476525 
L 390.469418 137.098717 
L 391.362 134.873222 
L 391.808291 134.156383 
L 392.254582 133.786887 
L 392.701418 133.817157 
L 393.147709 134.280059 
L 393.594 135.187833 
L 394.040291 136.520256 
L 394.933418 140.237441 
L 397.165418 151.14504 
L 398.058 154.270725 
L 398.950582 156.209218 
L 399.397418 156.744767 
L 399.843709 157.018996 
L 400.29 157.063636 
L 400.736291 156.921466 
L 402.522 155.755629 
L 402.968291 155.700677 
L 403.414582 155.882565 
L 403.861418 156.342141 
L 404.307709 157.093041 
L 405.200291 159.364653 
L 406.986 164.918199 
L 407.432291 165.947453 
L 407.878582 166.649323 
L 408.325418 166.960009 
L 408.771709 166.846246 
L 409.218 166.300051 
L 409.664291 165.345375 
L 410.557418 162.422134 
L 412.342582 154.702225 
L 413.682 149.408592 
L 414.574582 146.559863 
L 415.914 143.160282 
L 416.806582 141.33675 
L 417.699709 139.91671 
L 418.146 139.418482 
L 418.592291 139.101675 
L 419.038582 138.991106 
L 419.485418 139.09602 
L 419.931709 139.40471 
L 420.824291 140.460762 
L 421.717418 141.612003 
L 422.163709 142.009601 
L 422.61 142.191209 
L 423.056291 142.112979 
L 423.502582 141.76227 
L 423.949418 141.158814 
L 424.842 139.412441 
L 426.181418 136.672272 
L 426.627709 136.059882 
L 427.074 135.701296 
L 427.520291 135.627915 
L 427.966582 135.848655 
L 428.413418 136.35347 
L 428.859709 137.117345 
L 429.752291 139.278573 
L 431.091709 143.479084 
L 432.430582 147.659571 
L 433.323709 149.649224 
L 433.77 150.244317 
L 434.216291 150.542163 
L 434.662582 150.55141 
L 435.109418 150.309647 
L 436.002 149.331639 
L 436.894582 148.214281 
L 437.464063 147.715162 
L 437.464063 147.715162 
" clip-path="url(#p91dd604937)" style="fill: none; stroke: #e83f3f; stroke-linecap: round"/>
   </g>
   <g id="line2d_37">
    <path d="M 44.955709 137.859331 
L 45.848291 136.699083 
L 46.741418 135.395799 
L 47.187709 134.928773 
L 47.634 134.71921 
L 48.080291 134.846278 
L 48.526582 135.353887 
L 48.973418 136.245362 
L 49.866 138.966889 
L 51.651709 145.151399 
L 52.098 146.205469 
L 52.544291 146.930823 
L 52.990582 147.325268 
L 53.437418 147.424128 
L 53.883709 147.294864 
L 55.222582 146.522408 
L 55.669418 146.496661 
L 56.115709 146.745742 
L 56.562 147.331402 
L 57.008291 148.282725 
L 57.901418 151.211434 
L 60.133418 160.395092 
L 60.579709 161.587142 
L 61.026 162.328861 
L 61.472291 162.576013 
L 61.918582 162.321677 
L 62.365418 161.595856 
L 62.811709 160.456898 
L 63.704291 157.267544 
L 65.936291 148.084685 
L 66.829418 145.367016 
L 67.722 143.637953 
L 68.168291 143.176914 
L 68.614582 142.986644 
L 69.061418 143.062486 
L 69.507709 143.393796 
L 69.954 143.956622 
L 70.846582 145.621153 
L 72.186 148.507803 
L 72.632291 149.262896 
L 73.078582 149.793124 
L 73.525418 150.05724 
L 73.971709 150.035286 
L 74.418 149.742563 
L 74.864291 149.217657 
L 75.757418 147.720777 
L 77.542582 144.595957 
L 79.774582 141.507727 
L 81.114 139.822639 
L 81.560291 139.434847 
L 82.006582 139.197076 
L 82.453418 139.132278 
L 82.899709 139.247105 
L 83.346 139.53118 
L 84.238582 140.494106 
L 86.024291 143.074927 
L 87.363709 144.873837 
L 88.256291 145.613702 
L 88.702582 145.717052 
L 89.149418 145.591435 
L 89.595709 145.219723 
L 90.042 144.608464 
L 90.934582 142.813006 
L 92.720291 138.603607 
L 93.613418 137.069777 
L 94.059709 136.56902 
L 94.506 136.269512 
L 94.952291 136.179965 
L 95.398582 136.303175 
L 95.845418 136.634285 
L 96.291709 137.166066 
L 97.184291 138.774956 
L 98.077418 140.989939 
L 101.202 149.732583 
L 102.094582 151.175575 
L 102.541418 151.608008 
L 102.987709 151.860814 
L 103.434 151.957945 
L 104.326582 151.793621 
L 105.219709 151.335908 
L 106.558582 150.348233 
L 107.451709 149.410854 
L 108.344291 148.06313 
L 109.237418 146.227023 
L 111.022582 141.693806 
L 112.362 138.456553 
L 113.254582 136.648788 
L 114.147709 135.25786 
L 115.040291 134.431875 
L 115.486582 134.254978 
L 115.933418 134.222911 
L 116.826 134.447044 
L 117.718582 134.702577 
L 118.165418 134.711891 
L 119.058 134.392557 
L 120.397418 133.690021 
L 120.843709 133.733265 
L 121.29 134.071227 
L 121.736291 134.770437 
L 122.182582 135.862161 
L 123.075709 139.163945 
L 123.968291 143.58207 
L 127.986 165.179187 
L 128.878582 168.254911 
L 129.325418 169.189149 
L 129.771709 169.663241 
L 130.218 169.669827 
L 130.664291 169.231873 
L 131.110582 168.402403 
L 132.003709 165.886247 
L 134.235709 158.761431 
L 135.128291 156.82806 
L 137.360291 153.052331 
L 138.253418 150.661314 
L 139.146 147.405301 
L 142.270582 134.287776 
L 143.163709 131.637567 
L 144.056291 129.674458 
L 145.395709 127.527093 
L 148.074 123.794381 
L 148.520291 123.426614 
L 148.966582 123.258099 
L 149.413418 123.338065 
L 149.859709 123.705899 
L 150.306 124.392733 
L 150.752291 125.417264 
L 151.645418 128.498841 
L 152.538 132.83048 
L 155.216291 147.423397 
L 155.662582 148.955536 
L 156.109418 149.997897 
L 156.555709 150.52267 
L 157.002 150.536574 
L 157.448291 150.071943 
L 157.894582 149.182397 
L 158.787709 146.402125 
L 161.466 136.305636 
L 161.912291 135.331999 
L 162.358582 134.737172 
L 162.805418 134.52701 
L 163.251709 134.673838 
L 163.698 135.122236 
L 164.590582 136.62211 
L 166.822582 140.930503 
L 168.162 143.424398 
L 169.054582 145.545843 
L 171.286582 151.682533 
L 171.733418 152.427766 
L 172.179709 152.794136 
L 172.626 152.725478 
L 173.072291 152.198776 
L 173.518582 151.227668 
L 174.411709 148.155205 
L 175.750582 141.903568 
L 177.536291 133.399959 
L 178.875709 128.095682 
L 179.768291 125.45319 
L 180.214582 124.513815 
L 180.661418 123.871154 
L 181.107709 123.539845 
L 181.554 123.504584 
L 182.000291 123.726124 
L 182.893418 124.66949 
L 183.786 125.745914 
L 184.678582 126.417845 
L 185.125418 126.501005 
L 185.571709 126.389239 
L 186.018 126.066578 
L 186.464291 125.516391 
L 186.910582 124.71606 
L 187.357418 123.636975 
L 188.25 120.51282 
L 189.142582 115.893782 
L 190.035709 109.662104 
L 190.928291 101.873672 
L 192.267709 87.924743 
L 194.499709 63.512297 
L 195.392291 55.524279 
L 196.285418 49.629899 
L 196.731709 47.647365 
L 197.178 46.389981 
L 197.624291 45.877716 
L 198.070582 46.137176 
L 198.517418 47.135101 
L 198.963709 48.851521 
L 199.856291 54.207024 
L 200.749418 61.724686 
L 201.642 70.99204 
L 202.981418 87.896805 
L 204.320291 108.370794 
L 207.445418 160.680697 
L 208.338 170.773393 
L 208.784291 173.960817 
L 209.230582 175.701388 
L 209.677418 175.895051 
L 210.123709 174.496499 
L 210.57 171.511654 
L 211.016291 166.994737 
L 211.909418 153.779615 
L 212.802 135.95071 
L 214.141418 103.619699 
L 215.926582 59.086588 
L 216.819709 40.809617 
L 217.712291 27.876568 
L 218.158582 23.874907 
L 218.605418 21.668174 
L 219.051709 21.314921 
L 219.498 22.795159 
L 219.944291 26.06501 
L 220.390582 31.019353 
L 221.283709 45.33485 
L 222.176291 64.125685 
L 224.854582 126.251526 
L 225.747709 141.769847 
L 226.640291 152.245346 
L 227.086582 155.551122 
L 227.533418 157.704634 
L 227.979709 158.896816 
L 228.426 159.365172 
L 228.872291 159.377813 
L 229.765418 159.113631 
L 230.211709 159.328249 
L 230.658 160.040897 
L 231.104291 161.394742 
L 231.550582 163.476736 
L 231.997418 166.31675 
L 232.89 174.078505 
L 235.568291 201.594485 
L 236.014582 204.467828 
L 236.461418 206.36787 
L 236.907709 207.188827 
L 237.354 206.857514 
L 237.800291 205.350658 
L 238.246582 202.642968 
L 238.693418 198.764382 
L 239.586 187.646225 
L 240.478582 172.696053 
L 241.818 145.689012 
L 244.05 100.039294 
L 244.942582 85.310195 
L 245.835709 74.375654 
L 246.282 70.609505 
L 246.728291 68.070796 
L 247.174582 66.773498 
L 247.621418 66.708968 
L 248.067709 67.820649 
L 248.514 70.034036 
L 248.960291 73.261971 
L 249.853418 82.351032 
L 250.746 94.203658 
L 253.870582 140.264984 
L 254.763709 149.320775 
L 255.656291 155.078774 
L 256.102582 156.807836 
L 256.549418 157.92218 
L 256.995709 158.586861 
L 258.334582 159.798801 
L 258.781418 160.561466 
L 259.227709 161.752131 
L 259.674 163.460636 
L 260.566582 168.54271 
L 261.459709 175.517506 
L 263.245418 190.520901 
L 263.691709 193.350337 
L 264.138 195.432662 
L 264.584291 196.630166 
L 265.030582 196.85636 
L 265.477418 196.051373 
L 265.923709 194.208547 
L 266.37 191.361149 
L 267.262582 182.892133 
L 268.155709 171.26304 
L 269.494582 150.007344 
L 270.834 128.391067 
L 271.726582 116.648208 
L 272.619709 108.71541 
L 273.066 106.432171 
L 273.512291 105.31982 
L 273.958582 105.371048 
L 274.405418 106.547929 
L 274.851709 108.79325 
L 275.298 112.036489 
L 276.190582 121.11623 
L 277.083709 132.900334 
L 278.869418 160.51145 
L 280.654582 187.463272 
L 281.994 204.384004 
L 282.886582 213.644704 
L 283.779709 221.323032 
L 284.672291 227.56901 
L 285.565418 232.43088 
L 286.011709 234.283021 
L 286.458 235.64418 
L 286.904291 236.439189 
L 287.350582 236.548962 
L 287.797418 235.873038 
L 288.243709 234.326262 
L 288.69 231.852752 
L 289.136291 228.430551 
L 290.029418 218.916382 
L 290.922 206.571443 
L 293.600291 166.052568 
L 294.493418 155.401434 
L 295.386 147.302316 
L 296.278582 141.916674 
L 296.725418 140.217217 
L 297.171709 139.132877 
L 297.618 138.604977 
L 298.064291 138.558407 
L 298.510582 138.904486 
L 299.403709 140.376085 
L 300.742582 143.039867 
L 301.189418 143.70182 
L 301.635709 144.14024 
L 302.082 144.309886 
L 302.528291 144.180822 
L 302.974582 143.738411 
L 303.421418 142.983318 
L 304.314 140.610929 
L 305.206582 137.344404 
L 308.331709 124.808534 
L 309.670582 120.741012 
L 311.01 117.435902 
L 311.902582 115.656278 
L 312.795709 114.397568 
L 313.242 114.048295 
L 313.688291 113.927878 
L 314.134582 114.075573 
L 314.581418 114.506671 
L 315.027709 115.218522 
L 315.920291 117.411952 
L 317.259709 121.947164 
L 319.491709 129.812769 
L 321.277418 135.842868 
L 322.17 139.395463 
L 323.509418 145.817411 
L 325.741418 157.00742 
L 326.634 160.457562 
L 327.526582 163.081426 
L 328.419709 164.980801 
L 329.312291 166.277431 
L 330.205418 167.017888 
L 330.651709 167.168907 
L 331.098 167.156267 
L 331.544291 166.964001 
L 331.990582 166.571486 
L 332.437418 165.959428 
L 332.883709 165.11053 
L 333.776291 162.676272 
L 334.669418 159.308623 
L 336.008291 152.974493 
L 338.686582 139.509226 
L 339.579709 135.870809 
L 340.472291 133.035386 
L 341.365418 131.111397 
L 341.811709 130.502665 
L 342.258 130.130108 
L 342.704291 129.99173 
L 343.150582 130.082208 
L 343.597418 130.397551 
L 344.043709 130.930441 
L 344.936291 132.600293 
L 345.829418 134.958045 
L 349.400291 145.635789 
L 350.293418 147.236453 
L 351.186 148.210423 
L 351.632291 148.455246 
L 352.078582 148.531753 
L 352.525418 148.437283 
L 352.971709 148.172502 
L 353.864291 147.195871 
L 355.203709 145.07895 
L 356.542582 143.038536 
L 357.435709 142.067626 
L 358.328291 141.568533 
L 358.774582 141.533274 
L 359.221418 141.654487 
L 359.667709 141.932728 
L 360.560291 142.901402 
L 362.346 145.394492 
L 362.792291 145.835706 
L 363.238582 146.117053 
L 363.685418 146.21771 
L 364.131709 146.134084 
L 364.578 145.878683 
L 365.470582 144.959253 
L 366.81 143.004953 
L 368.149418 140.70349 
L 371.274 134.927575 
L 372.166582 134.021531 
L 372.613418 133.815161 
L 373.059709 133.787285 
L 373.506 133.939901 
L 373.952291 134.266753 
L 374.845418 135.366694 
L 377.077418 138.884195 
L 377.97 139.759238 
L 378.862582 140.215686 
L 381.094582 140.937316 
L 381.987709 141.523095 
L 382.880291 142.435792 
L 383.773418 143.793562 
L 384.666 145.649561 
L 386.451709 149.903141 
L 387.344291 151.312225 
L 387.790582 151.647393 
L 388.237418 151.719908 
L 388.683709 151.55585 
L 389.576291 150.727044 
L 391.362 148.716102 
L 392.701418 147.434839 
L 393.594 146.17267 
L 394.486582 144.255865 
L 395.826 140.408418 
L 396.718582 137.864521 
L 397.611709 135.988896 
L 398.058 135.445962 
L 398.504291 135.22429 
L 398.950582 135.360074 
L 399.397418 135.88631 
L 399.843709 136.832804 
L 400.29 138.225235 
L 401.182582 142.394545 
L 402.075709 148.265308 
L 404.754 168.043085 
L 405.200291 170.140713 
L 405.646582 171.591023 
L 406.093418 172.360087 
L 406.539709 172.455888 
L 406.986 171.928319 
L 407.432291 170.852363 
L 408.325418 167.444598 
L 409.664291 160.625679 
L 411.896291 148.946888 
L 413.235709 143.112382 
L 414.128291 139.989558 
L 415.021418 137.595215 
L 415.914 136.021828 
L 416.360291 135.56212 
L 416.806582 135.318627 
L 417.253418 135.279309 
L 417.699709 135.422078 
L 418.592291 136.116232 
L 420.378 137.94156 
L 421.270582 138.545967 
L 422.163709 138.888253 
L 424.395709 139.367588 
L 425.288291 139.33266 
L 425.734582 139.169134 
L 426.627709 138.464004 
L 427.966582 136.733744 
L 428.859709 135.745936 
L 429.306 135.497787 
L 429.752291 135.479425 
L 430.198582 135.714668 
L 430.645418 136.204181 
L 431.538 137.862657 
L 432.430582 140.199254 
L 433.77 144.426909 
L 435.555709 150.186883 
L 436.448291 152.290785 
L 436.894582 152.947682 
L 437.464063 153.28877 
L 437.464063 153.28877 
" clip-path="url(#p91dd604937)" style="fill: none; stroke: #a11a5b; stroke-linecap: round"/>
   </g>
   <g id="line2d_38">
    <path d="M 44.955709 152.35046 
L 46.294582 149.908883 
L 47.187709 148.366098 
L 48.080291 147.377093 
L 48.526582 147.131871 
L 49.419709 146.995355 
L 50.312291 146.94852 
L 50.758582 146.818457 
L 51.205418 146.571439 
L 52.098 145.70877 
L 54.776291 142.285705 
L 55.222582 141.989057 
L 55.669418 141.849481 
L 56.115709 141.875959 
L 56.562 142.061439 
L 57.454582 142.778279 
L 58.347709 143.56943 
L 58.794 143.816248 
L 59.240291 143.877454 
L 59.686582 143.717122 
L 60.133418 143.319018 
L 61.026 141.893456 
L 64.150582 135.589662 
L 65.043709 134.651883 
L 65.49 134.400008 
L 65.936291 134.307867 
L 66.382582 134.391626 
L 66.829418 134.67264 
L 67.275709 135.169604 
L 67.722 135.892099 
L 68.614582 137.977751 
L 70.846582 144.05841 
L 71.293418 144.724356 
L 71.739709 145.060322 
L 72.186 145.06764 
L 72.632291 144.784231 
L 73.525418 143.608681 
L 74.864291 141.542321 
L 75.310582 141.056667 
L 75.757418 140.757956 
L 76.203709 140.683445 
L 76.65 140.861075 
L 77.096291 141.307477 
L 77.542582 142.027976 
L 78.435709 144.210759 
L 80.667709 150.930753 
L 81.114 151.802935 
L 81.560291 152.374411 
L 82.006582 152.636531 
L 82.453418 152.614576 
L 82.899709 152.352589 
L 83.792291 151.347152 
L 85.131709 149.343927 
L 86.024291 147.804935 
L 86.917418 145.91361 
L 88.256291 142.351967 
L 89.595709 138.879472 
L 90.488291 137.187199 
L 91.827709 135.390743 
L 94.059709 132.600493 
L 94.506 132.262996 
L 94.952291 132.114107 
L 95.398582 132.173183 
L 95.845418 132.423329 
L 97.630582 134.006695 
L 98.077418 134.1484 
L 98.523709 134.084532 
L 98.97 133.821747 
L 99.862582 132.857756 
L 101.202 131.265076 
L 102.094582 130.693134 
L 102.987709 130.59168 
L 104.326582 130.663331 
L 104.773418 130.543979 
L 105.666 129.9229 
L 107.451709 128.149171 
L 107.898 128.011458 
L 108.344291 128.128946 
L 108.790582 128.528514 
L 109.237418 129.205503 
L 110.13 131.259088 
L 111.469418 135.378036 
L 113.254582 141.808433 
L 115.933418 151.999857 
L 116.826 154.327473 
L 117.718582 155.828012 
L 118.611709 156.739379 
L 119.950582 157.848866 
L 120.843709 158.858229 
L 123.075709 161.78586 
L 123.522 162.012322 
L 123.968291 161.979457 
L 124.414582 161.661985 
L 124.861418 161.068156 
L 125.754 159.242761 
L 127.093418 156.128119 
L 127.986 154.59771 
L 128.878582 153.566924 
L 129.771709 152.610851 
L 130.664291 151.267917 
L 131.557418 149.406862 
L 133.342582 145.468937 
L 134.235709 144.23757 
L 134.682 143.878785 
L 135.574582 143.556789 
L 138.699709 143.311966 
L 139.146 143.425729 
L 139.592291 143.684523 
L 140.038582 144.116955 
L 140.931709 145.48344 
L 142.717418 148.721358 
L 143.163709 149.202355 
L 143.61 149.445781 
L 144.056291 149.445981 
L 144.502582 149.226705 
L 145.395709 148.33809 
L 146.734582 146.7981 
L 147.627709 146.11978 
L 148.520291 145.777693 
L 151.645418 145.113325 
L 152.538 144.580396 
L 153.430582 143.733022 
L 154.323709 142.492208 
L 155.216291 140.798871 
L 156.109418 138.608317 
L 157.002 135.883716 
L 158.341418 130.835039 
L 161.019709 119.891448 
L 161.912291 117.254945 
L 162.805418 115.597067 
L 163.251709 115.157315 
L 163.698 114.953077 
L 164.144291 114.939105 
L 165.93 115.297027 
L 166.376291 115.094114 
L 166.822582 114.676318 
L 167.715709 113.255282 
L 169.501418 109.76389 
L 170.394 108.567719 
L 171.286582 107.792732 
L 173.072291 106.441285 
L 173.965418 105.488138 
L 174.858 104.284692 
L 175.750582 102.818367 
L 177.09 100.097573 
L 178.875709 96.092188 
L 179.768291 94.667158 
L 180.214582 94.299924 
L 180.661418 94.230003 
L 181.107709 94.489729 
L 181.554 95.089146 
L 182.000291 96.017877 
L 182.893418 98.71093 
L 184.232291 104.037826 
L 186.464291 113.225343 
L 187.357418 115.758064 
L 187.803709 116.447959 
L 188.25 116.64089 
L 188.696291 116.283635 
L 189.142582 115.356235 
L 189.589418 113.87998 
L 190.482 109.543685 
L 194.053418 88.84616 
L 194.946 85.894308 
L 195.838582 84.100718 
L 196.285418 83.573149 
L 196.731709 83.245832 
L 197.178 83.085501 
L 198.070582 83.122088 
L 199.41 83.400178 
L 199.856291 83.36625 
L 200.302582 83.202585 
L 201.195709 82.506041 
L 202.534582 81.140886 
L 202.981418 80.912028 
L 203.427709 80.924667 
L 203.874 81.254649 
L 204.320291 81.92126 
L 204.766582 82.92051 
L 205.659709 85.732645 
L 207.891709 93.611559 
L 208.784291 95.954276 
L 210.57 100.237814 
L 211.462582 103.233635 
L 212.355709 107.334288 
L 213.694582 115.399011 
L 215.034 123.699312 
L 215.926582 127.556206 
L 216.373418 128.620788 
L 216.819709 129.029336 
L 217.266 128.77826 
L 217.712291 127.912731 
L 218.158582 126.514311 
L 219.051709 122.571063 
L 221.73 109.10859 
L 223.069418 103.763066 
L 224.408291 99.340285 
L 225.301418 97.110931 
L 225.747709 96.313927 
L 226.194 95.767067 
L 226.640291 95.475674 
L 227.086582 95.427773 
L 227.533418 95.591432 
L 228.426 96.357301 
L 229.765418 97.72891 
L 230.211709 98.011654 
L 230.658 98.114174 
L 231.104291 97.987106 
L 231.550582 97.590599 
L 231.997418 96.900038 
L 232.443709 95.912098 
L 233.336291 93.158236 
L 235.568291 85.326825 
L 236.014582 84.323585 
L 236.461418 83.671608 
L 236.907709 83.408159 
L 237.354 83.56051 
L 237.800291 84.150614 
L 238.246582 85.193105 
L 238.693418 86.705953 
L 239.586 91.160001 
L 240.478582 97.444571 
L 241.818 109.470502 
L 244.05 130.460752 
L 244.942582 136.957211 
L 245.835709 141.546313 
L 246.282 143.057829 
L 246.728291 144.05841 
L 247.174582 144.585977 
L 247.621418 144.703067 
L 248.067709 144.490842 
L 248.960291 143.443692 
L 250.299709 141.575253 
L 251.192291 140.735403 
L 252.085418 140.310888 
L 253.424291 140.100659 
L 254.763709 139.869142 
L 256.549418 139.303654 
L 256.995709 139.058166 
L 257.442 138.682282 
L 257.888291 138.090849 
L 258.334582 137.188064 
L 258.781418 135.877462 
L 259.227709 134.075218 
L 260.120291 128.810858 
L 261.013418 121.43756 
L 263.691709 96.011889 
L 264.584291 90.593182 
L 265.030582 88.957259 
L 265.477418 88.04915 
L 265.923709 87.839592 
L 266.37 88.246744 
L 266.816291 89.155912 
L 267.709418 91.98555 
L 269.494582 98.385607 
L 270.387709 100.654346 
L 270.834 101.429664 
L 271.280291 101.972797 
L 271.726582 102.312091 
L 272.619709 102.5802 
L 273.512291 102.719908 
L 273.958582 102.900196 
L 274.405418 103.231507 
L 274.851709 103.749094 
L 275.298 104.47425 
L 276.190582 106.557241 
L 277.083709 109.335252 
L 278.869418 115.297027 
L 279.762 117.362719 
L 280.208291 117.962402 
L 280.654582 118.247875 
L 281.101418 118.235567 
L 281.547709 117.970119 
L 282.440291 116.957563 
L 283.779709 115.359562 
L 284.672291 114.77478 
L 286.458 114.067255 
L 286.904291 113.654316 
L 287.350582 113.04705 
L 288.243709 111.19757 
L 289.136291 108.644892 
L 291.814582 100.301281 
L 293.154 97.014467 
L 294.046582 95.276754 
L 294.939709 94.001411 
L 295.386 93.589604 
L 295.832291 93.365405 
L 296.278582 93.368066 
L 296.725418 93.629521 
L 297.171709 94.182369 
L 297.618 95.047233 
L 298.510582 97.721658 
L 299.85 103.318658 
L 300.742582 107.00032 
L 301.635709 109.64281 
L 302.082 110.385928 
L 302.528291 110.71125 
L 302.974582 110.642061 
L 303.421418 110.230253 
L 304.314 108.705432 
L 305.653418 106.178696 
L 306.546 105.12556 
L 307.438582 104.663191 
L 309.224291 104.369136 
L 310.117418 104.330548 
L 310.563709 104.411049 
L 311.01 104.610634 
L 311.456291 104.945935 
L 311.902582 105.458866 
L 312.795709 107.038904 
L 313.688291 109.456533 
L 314.581418 112.796903 
L 315.474 117.058686 
L 316.813418 124.7766 
L 319.491709 140.633549 
L 320.830582 147.183896 
L 321.723709 150.683934 
L 322.616291 153.15811 
L 323.062582 153.908546 
L 323.509418 154.320354 
L 323.955709 154.39287 
L 324.402 154.149377 
L 324.848291 153.642434 
L 325.741418 152.027799 
L 327.080291 148.736659 
L 328.419709 144.703067 
L 329.758582 139.820577 
L 332.437418 129.579921 
L 332.883709 128.422334 
L 333.33 127.628655 
L 333.776291 127.276057 
L 334.222582 127.419757 
L 334.669418 128.07772 
L 335.115709 129.225328 
L 336.008291 132.654845 
L 337.347709 138.504653 
L 338.240291 141.225648 
L 338.686582 142.012009 
L 339.133418 142.436458 
L 339.579709 142.572175 
L 340.472291 142.379909 
L 341.365418 142.233547 
L 341.811709 142.357289 
L 342.258 142.656665 
L 343.150582 143.765687 
L 344.49 146.235207 
L 345.829418 148.57167 
L 346.722 149.516367 
L 347.168291 149.751877 
L 347.614582 149.835702 
L 348.507709 149.637448 
L 349.400291 149.121856 
L 350.739709 148.068718 
L 352.078582 146.687597 
L 352.971709 145.440197 
L 353.864291 143.816248 
L 354.757418 141.759203 
L 356.096291 137.923198 
L 358.328291 130.422432 
L 360.114 124.537765 
L 361.006582 122.241883 
L 361.453418 121.420927 
L 361.899709 120.873403 
L 362.346 120.617935 
L 362.792291 120.643149 
L 363.238582 120.910259 
L 364.131709 121.880237 
L 365.024291 122.857932 
L 365.470582 123.168353 
L 365.917418 123.310989 
L 366.363709 123.285908 
L 367.256291 122.863587 
L 368.595709 122.111888 
L 369.042 122.044695 
L 369.488291 122.132777 
L 369.934582 122.393301 
L 370.381418 122.834781 
L 371.274 124.246253 
L 372.166582 126.32991 
L 373.059709 129.084821 
L 373.952291 132.513474 
L 377.97 149.474521 
L 379.309418 153.248588 
L 380.202 155.282349 
L 381.094582 156.871291 
L 381.541418 157.416633 
L 381.987709 157.723727 
L 382.434 157.73018 
L 382.880291 157.376385 
L 383.326582 156.618431 
L 383.773418 155.440287 
L 384.666 151.942311 
L 387.344291 139.424269 
L 388.237418 137.072837 
L 388.683709 136.353603 
L 389.13 135.885313 
L 390.022582 135.460864 
L 390.915709 135.252299 
L 391.362 135.045662 
L 391.808291 134.68202 
L 392.254582 134.112607 
L 392.701418 133.308417 
L 393.594 131.013427 
L 396.718582 121.348745 
L 397.165418 120.695773 
L 397.611709 120.459332 
L 398.058 120.719656 
L 398.504291 121.53815 
L 398.950582 122.944019 
L 399.397418 124.922563 
L 400.29 130.285783 
L 402.522 145.233295 
L 403.414582 149.294563 
L 404.307709 151.846644 
L 404.754 152.607857 
L 405.200291 153.052264 
L 405.646582 153.185653 
L 406.093418 153.007757 
L 406.539709 152.517445 
L 406.986 151.724432 
L 407.878582 149.362688 
L 409.664291 143.750386 
L 410.110582 142.733838 
L 410.557418 142.019327 
L 411.003709 141.625481 
L 411.45 141.531012 
L 411.896291 141.687352 
L 412.789418 142.453755 
L 414.128291 143.707142 
L 415.914 145.00843 
L 416.806582 146.185976 
L 417.699709 148.006115 
L 420.378 154.623435 
L 420.824291 155.351938 
L 421.270582 155.863471 
L 421.717418 156.143488 
L 422.163709 156.196843 
L 422.61 156.051945 
L 423.502582 155.381276 
L 424.395709 154.681335 
L 424.842 154.49998 
L 425.288291 154.505096 
L 425.734582 154.728011 
L 426.181418 155.180994 
L 426.627709 155.859 
L 427.520291 157.787261 
L 429.306 162.335514 
L 429.752291 163.144428 
L 430.198582 163.652902 
L 430.645418 163.803921 
L 431.091709 163.567746 
L 431.538 162.947705 
L 431.984291 161.979724 
L 432.877418 159.268706 
L 434.662582 153.212131 
L 435.555709 151.001272 
L 436.448291 149.550297 
L 437.341418 148.666805 
L 437.464063 148.587276 
L 437.464063 148.587276 
" clip-path="url(#p91dd604937)" style="fill: none; stroke: #4c1d4b; stroke-linecap: round"/>
   </g>
   <g id="line2d_39"/>
   <g id="line2d_40"/>
   <g id="line2d_41"/>
   <g id="line2d_42"/>
   <g id="patch_3">
    <path d="M 59.91 277.248797 
L 59.91 11.136797 
" style="fill: none; stroke: #262626; stroke-width: 1.25; stroke-linejoin: miter; stroke-linecap: square"/>
   </g>
   <g id="patch_4">
    <path d="M 59.91 277.248797 
L 417.03 277.248797 
" style="fill: none; stroke: #262626; stroke-width: 1.25; stroke-linejoin: miter; stroke-linecap: square"/>
   </g>
   <g id="legend_1">
    <g id="line2d_43">
     <path d="M 335.473125 18.749297 
L 341.473125 18.749297 
L 347.473125 18.749297 
" style="fill: none; stroke: #f69c73; stroke-width: 1.5; stroke-linecap: round"/>
    </g>
    <g id="text_21">
     <!-- blank_corrected_0mM -->
     <g style="fill: #262626" transform="translate(352.273125 20.849297) scale(0.06 -0.06)">
      <defs>
       <path id="ArialMT-62" d="M 941 0 
L 419 0 
L 419 4581 
L 981 4581 
L 981 2947 
Q 1338 3394 1891 3394 
Q 2197 3394 2470 3270 
Q 2744 3147 2920 2923 
Q 3097 2700 3197 2384 
Q 3297 2069 3297 1709 
Q 3297 856 2875 390 
Q 2453 -75 1863 -75 
Q 1275 -75 941 416 
L 941 0 
z
M 934 1684 
Q 934 1088 1097 822 
Q 1363 388 1816 388 
Q 2184 388 2453 708 
Q 2722 1028 2722 1663 
Q 2722 2313 2464 2622 
Q 2206 2931 1841 2931 
Q 1472 2931 1203 2611 
Q 934 2291 934 1684 
z
" transform="scale(0.015625)"/>
       <path id="ArialMT-6b" d="M 425 0 
L 425 4581 
L 988 4581 
L 988 1969 
L 2319 3319 
L 3047 3319 
L 1778 2088 
L 3175 0 
L 2481 0 
L 1384 1697 
L 988 1316 
L 988 0 
L 425 0 
z
" transform="scale(0.015625)"/>
       <path id="ArialMT-5f" d="M -97 -1272 
L -97 -866 
L 3631 -866 
L 3631 -1272 
L -97 -1272 
z
" transform="scale(0.015625)"/>
       <path id="ArialMT-6f" d="M 213 1659 
Q 213 2581 725 3025 
Q 1153 3394 1769 3394 
Q 2453 3394 2887 2945 
Q 3322 2497 3322 1706 
Q 3322 1066 3130 698 
Q 2938 331 2570 128 
Q 2203 -75 1769 -75 
Q 1072 -75 642 372 
Q 213 819 213 1659 
z
M 791 1659 
Q 791 1022 1069 705 
Q 1347 388 1769 388 
Q 2188 388 2466 706 
Q 2744 1025 2744 1678 
Q 2744 2294 2464 2611 
Q 2184 2928 1769 2928 
Q 1347 2928 1069 2612 
Q 791 2297 791 1659 
z
" transform="scale(0.015625)"/>
       <path id="ArialMT-72" d="M 416 0 
L 416 3319 
L 922 3319 
L 922 2816 
Q 1116 3169 1280 3281 
Q 1444 3394 1641 3394 
Q 1925 3394 2219 3213 
L 2025 2691 
Q 1819 2813 1613 2813 
Q 1428 2813 1281 2702 
Q 1134 2591 1072 2394 
Q 978 2094 978 1738 
L 978 0 
L 416 0 
z
" transform="scale(0.015625)"/>
       <path id="ArialMT-4d" d="M 475 0 
L 475 4581 
L 1388 4581 
L 2472 1338 
Q 2622 884 2691 659 
Q 2769 909 2934 1394 
L 4031 4581 
L 4847 4581 
L 4847 0 
L 4263 0 
L 4263 3834 
L 2931 0 
L 2384 0 
L 1059 3900 
L 1059 0 
L 475 0 
z
" transform="scale(0.015625)"/>
      </defs>
      <use xlink:href="#ArialMT-62"/>
      <use xlink:href="#ArialMT-6c" x="55.615234"/>
      <use xlink:href="#ArialMT-61" x="77.832031"/>
      <use xlink:href="#ArialMT-6e" x="133.447266"/>
      <use xlink:href="#ArialMT-6b" x="189.0625"/>
      <use xlink:href="#ArialMT-5f" x="239.0625"/>
      <use xlink:href="#ArialMT-63" x="294.677734"/>
      <use xlink:href="#ArialMT-6f" x="344.677734"/>
      <use xlink:href="#ArialMT-72" x="400.292969"/>
      <use xlink:href="#ArialMT-72" x="433.59375"/>
      <use xlink:href="#ArialMT-65" x="466.894531"/>
      <use xlink:href="#ArialMT-63" x="522.509766"/>
      <use xlink:href="#ArialMT-74" x="572.509766"/>
      <use xlink:href="#ArialMT-65" x="600.292969"/>
      <use xlink:href="#ArialMT-64" x="655.908203"/>
      <use xlink:href="#ArialMT-5f" x="711.523438"/>
      <use xlink:href="#ArialMT-30" x="767.138672"/>
      <use xlink:href="#ArialMT-6d" x="822.753906"/>
      <use xlink:href="#ArialMT-4d" x="906.054688"/>
     </g>
    </g>
    <g id="line2d_44">
     <path d="M 335.473125 27.236484 
L 341.473125 27.236484 
L 347.473125 27.236484 
" style="fill: none; stroke: #e83f3f; stroke-width: 1.5; stroke-linecap: round"/>
    </g>
    <g id="text_22">
     <!-- 10 mM corrected -->
     <g style="fill: #262626" transform="translate(352.273125 29.336484) scale(0.06 -0.06)">
      <use xlink:href="#ArialMT-31"/>
      <use xlink:href="#ArialMT-30" x="55.615234"/>
      <use xlink:href="#ArialMT-20" x="111.230469"/>
      <use xlink:href="#ArialMT-6d" x="139.013672"/>
      <use xlink:href="#ArialMT-4d" x="222.314453"/>
      <use xlink:href="#ArialMT-20" x="305.615234"/>
      <use xlink:href="#ArialMT-63" x="333.398438"/>
      <use xlink:href="#ArialMT-6f" x="383.398438"/>
      <use xlink:href="#ArialMT-72" x="439.013672"/>
      <use xlink:href="#ArialMT-72" x="472.314453"/>
      <use xlink:href="#ArialMT-65" x="505.615234"/>
      <use xlink:href="#ArialMT-63" x="561.230469"/>
      <use xlink:href="#ArialMT-74" x="611.230469"/>
      <use xlink:href="#ArialMT-65" x="639.013672"/>
      <use xlink:href="#ArialMT-64" x="694.628906"/>
     </g>
    </g>
    <g id="line2d_45">
     <path d="M 335.473125 35.723672 
L 341.473125 35.723672 
L 347.473125 35.723672 
" style="fill: none; stroke: #a11a5b; stroke-width: 1.5; stroke-linecap: round"/>
    </g>
    <g id="text_23">
     <!-- 50 mM corrected -->
     <g style="fill: #262626" transform="translate(352.273125 37.823672) scale(0.06 -0.06)">
      <use xlink:href="#ArialMT-35"/>
      <use xlink:href="#ArialMT-30" x="55.615234"/>
      <use xlink:href="#ArialMT-20" x="111.230469"/>
      <use xlink:href="#ArialMT-6d" x="139.013672"/>
      <use xlink:href="#ArialMT-4d" x="222.314453"/>
      <use xlink:href="#ArialMT-20" x="305.615234"/>
      <use xlink:href="#ArialMT-63" x="333.398438"/>
      <use xlink:href="#ArialMT-6f" x="383.398438"/>
      <use xlink:href="#ArialMT-72" x="439.013672"/>
      <use xlink:href="#ArialMT-72" x="472.314453"/>
      <use xlink:href="#ArialMT-65" x="505.615234"/>
      <use xlink:href="#ArialMT-63" x="561.230469"/>
      <use xlink:href="#ArialMT-74" x="611.230469"/>
      <use xlink:href="#ArialMT-65" x="639.013672"/>
      <use xlink:href="#ArialMT-64" x="694.628906"/>
     </g>
    </g>
    <g id="line2d_46">
     <path d="M 335.473125 44.210859 
L 341.473125 44.210859 
L 347.473125 44.210859 
" style="fill: none; stroke: #4c1d4b; stroke-width: 1.5; stroke-linecap: round"/>
    </g>
    <g id="text_24">
     <!-- 100 mM corrected -->
     <g style="fill: #262626" transform="translate(352.273125 46.310859) scale(0.06 -0.06)">
      <use xlink:href="#ArialMT-31"/>
      <use xlink:href="#ArialMT-30" x="55.615234"/>
      <use xlink:href="#ArialMT-30" x="111.230469"/>
      <use xlink:href="#ArialMT-20" x="166.845703"/>
      <use xlink:href="#ArialMT-6d" x="194.628906"/>
      <use xlink:href="#ArialMT-4d" x="277.929688"/>
      <use xlink:href="#ArialMT-20" x="361.230469"/>
      <use xlink:href="#ArialMT-63" x="389.013672"/>
      <use xlink:href="#ArialMT-6f" x="439.013672"/>
      <use xlink:href="#ArialMT-72" x="494.628906"/>
      <use xlink:href="#ArialMT-72" x="527.929688"/>
      <use xlink:href="#ArialMT-65" x="561.230469"/>
      <use xlink:href="#ArialMT-63" x="616.845703"/>
      <use xlink:href="#ArialMT-74" x="666.845703"/>
      <use xlink:href="#ArialMT-65" x="694.628906"/>
      <use xlink:href="#ArialMT-64" x="750.244141"/>
     </g>
    </g>
   </g>
  </g>
 </g>
 <defs>
  <clipPath id="p91dd604937">
   <rect x="59.91" y="11.136797" width="357.12" height="266.112"/>
  </clipPath>
 </defs>
</svg>
