<?xml version="1.0" encoding="utf-8" standalone="no"?>
<!DOCTYPE svg PUBLIC "-//W3C//DTD SVG 1.1//EN"
  "http://www.w3.org/Graphics/SVG/1.1/DTD/svg11.dtd">
<svg xmlns:xlink="http://www.w3.org/1999/xlink" width="418.112969pt" height="309.333094pt" viewBox="0 0 418.112969 309.333094" xmlns="http://www.w3.org/2000/svg" version="1.1">
 <metadata>
  <rdf:RDF xmlns:dc="http://purl.org/dc/elements/1.1/" xmlns:cc="http://creativecommons.org/ns#" xmlns:rdf="http://www.w3.org/1999/02/22-rdf-syntax-ns#">
   <cc:Work>
    <dc:type rdf:resource="http://purl.org/dc/dcmitype/StillImage"/>
    <dc:date>2024-11-22T16:22:10.685809</dc:date>
    <dc:format>image/svg+xml</dc:format>
    <dc:creator>
     <cc:Agent>
      <dc:title>Matplotlib v3.7.1, https://matplotlib.org/</dc:title>
     </cc:Agent>
    </dc:creator>
   </cc:Work>
  </rdf:RDF>
 </metadata>
 <defs>
  <style type="text/css">*{stroke-linejoin: round; stroke-linecap: butt}</style>
 </defs>
 <g id="figure_1">
  <g id="patch_1">
   <path d="M 0 309.333094 
L 418.112969 309.333094 
L 418.112969 0 
L 0 0 
z
" style="fill: #ffffff"/>
  </g>
  <g id="axes_1">
   <g id="patch_2">
    <path d="M 53.792969 273.312 
L 410.912969 273.312 
L 410.912969 7.2 
L 53.792969 7.2 
z
" style="fill: #ffffff"/>
   </g>
   <g id="matplotlib.axis_1">
    <g id="xtick_1">
     <g id="line2d_1">
      <defs>
       <path id="mdc893b86e8" d="M 0 0 
L 0 -6 
" style="stroke: #262626; stroke-width: 1.25"/>
      </defs>
      <g>
       <use xlink:href="#mdc893b86e8" x="71.648969" y="273.312" style="fill: #262626; stroke: #262626; stroke-width: 1.25"/>
      </g>
     </g>
     <g id="text_1">
      <!-- 3280 -->
      <g style="fill: #262626" transform="translate(59.414906 284.685594) scale(0.11 -0.11)">
       <defs>
        <path id="ArialMT-33" d="M 269 1209 
L 831 1284 
Q 928 806 1161 595 
Q 1394 384 1728 384 
Q 2125 384 2398 659 
Q 2672 934 2672 1341 
Q 2672 1728 2419 1979 
Q 2166 2231 1775 2231 
Q 1616 2231 1378 2169 
L 1441 2663 
Q 1497 2656 1531 2656 
Q 1891 2656 2178 2843 
Q 2466 3031 2466 3422 
Q 2466 3731 2256 3934 
Q 2047 4138 1716 4138 
Q 1388 4138 1169 3931 
Q 950 3725 888 3313 
L 325 3413 
Q 428 3978 793 4289 
Q 1159 4600 1703 4600 
Q 2078 4600 2393 4439 
Q 2709 4278 2876 4000 
Q 3044 3722 3044 3409 
Q 3044 3113 2884 2869 
Q 2725 2625 2413 2481 
Q 2819 2388 3044 2092 
Q 3269 1797 3269 1353 
Q 3269 753 2831 336 
Q 2394 -81 1725 -81 
Q 1122 -81 723 278 
Q 325 638 269 1209 
z
" transform="scale(0.015625)"/>
        <path id="ArialMT-32" d="M 3222 541 
L 3222 0 
L 194 0 
Q 188 203 259 391 
Q 375 700 629 1000 
Q 884 1300 1366 1694 
Q 2113 2306 2375 2664 
Q 2638 3022 2638 3341 
Q 2638 3675 2398 3904 
Q 2159 4134 1775 4134 
Q 1369 4134 1125 3890 
Q 881 3647 878 3216 
L 300 3275 
Q 359 3922 746 4261 
Q 1134 4600 1788 4600 
Q 2447 4600 2831 4234 
Q 3216 3869 3216 3328 
Q 3216 3053 3103 2787 
Q 2991 2522 2730 2228 
Q 2469 1934 1863 1422 
Q 1356 997 1212 845 
Q 1069 694 975 541 
L 3222 541 
z
" transform="scale(0.015625)"/>
        <path id="ArialMT-38" d="M 1131 2484 
Q 781 2613 612 2850 
Q 444 3088 444 3419 
Q 444 3919 803 4259 
Q 1163 4600 1759 4600 
Q 2359 4600 2725 4251 
Q 3091 3903 3091 3403 
Q 3091 3084 2923 2848 
Q 2756 2613 2416 2484 
Q 2838 2347 3058 2040 
Q 3278 1734 3278 1309 
Q 3278 722 2862 322 
Q 2447 -78 1769 -78 
Q 1091 -78 675 323 
Q 259 725 259 1325 
Q 259 1772 486 2073 
Q 713 2375 1131 2484 
z
M 1019 3438 
Q 1019 3113 1228 2906 
Q 1438 2700 1772 2700 
Q 2097 2700 2305 2904 
Q 2513 3109 2513 3406 
Q 2513 3716 2298 3927 
Q 2084 4138 1766 4138 
Q 1444 4138 1231 3931 
Q 1019 3725 1019 3438 
z
M 838 1322 
Q 838 1081 952 856 
Q 1066 631 1291 507 
Q 1516 384 1775 384 
Q 2178 384 2440 643 
Q 2703 903 2703 1303 
Q 2703 1709 2433 1975 
Q 2163 2241 1756 2241 
Q 1359 2241 1098 1978 
Q 838 1716 838 1322 
z
" transform="scale(0.015625)"/>
        <path id="ArialMT-30" d="M 266 2259 
Q 266 3072 433 3567 
Q 600 4063 929 4331 
Q 1259 4600 1759 4600 
Q 2128 4600 2406 4451 
Q 2684 4303 2865 4023 
Q 3047 3744 3150 3342 
Q 3253 2941 3253 2259 
Q 3253 1453 3087 958 
Q 2922 463 2592 192 
Q 2263 -78 1759 -78 
Q 1097 -78 719 397 
Q 266 969 266 2259 
z
M 844 2259 
Q 844 1131 1108 757 
Q 1372 384 1759 384 
Q 2147 384 2411 759 
Q 2675 1134 2675 2259 
Q 2675 3391 2411 3762 
Q 2147 4134 1753 4134 
Q 1366 4134 1134 3806 
Q 844 3388 844 2259 
z
" transform="scale(0.015625)"/>
       </defs>
       <use xlink:href="#ArialMT-33"/>
       <use xlink:href="#ArialMT-32" x="55.615234"/>
       <use xlink:href="#ArialMT-38" x="111.230469"/>
       <use xlink:href="#ArialMT-30" x="166.845703"/>
      </g>
     </g>
    </g>
    <g id="xtick_2">
     <g id="line2d_2">
      <g>
       <use xlink:href="#mdc893b86e8" x="143.072969" y="273.312" style="fill: #262626; stroke: #262626; stroke-width: 1.25"/>
      </g>
     </g>
     <g id="text_2">
      <!-- 3300 -->
      <g style="fill: #262626" transform="translate(130.838906 284.685594) scale(0.11 -0.11)">
       <use xlink:href="#ArialMT-33"/>
       <use xlink:href="#ArialMT-33" x="55.615234"/>
       <use xlink:href="#ArialMT-30" x="111.230469"/>
       <use xlink:href="#ArialMT-30" x="166.845703"/>
      </g>
     </g>
    </g>
    <g id="xtick_3">
     <g id="line2d_3">
      <g>
       <use xlink:href="#mdc893b86e8" x="214.496969" y="273.312" style="fill: #262626; stroke: #262626; stroke-width: 1.25"/>
      </g>
     </g>
     <g id="text_3">
      <!-- 3320 -->
      <g style="fill: #262626" transform="translate(202.262906 284.685594) scale(0.11 -0.11)">
       <use xlink:href="#ArialMT-33"/>
       <use xlink:href="#ArialMT-33" x="55.615234"/>
       <use xlink:href="#ArialMT-32" x="111.230469"/>
       <use xlink:href="#ArialMT-30" x="166.845703"/>
      </g>
     </g>
    </g>
    <g id="xtick_4">
     <g id="line2d_4">
      <g>
       <use xlink:href="#mdc893b86e8" x="285.920969" y="273.312" style="fill: #262626; stroke: #262626; stroke-width: 1.25"/>
      </g>
     </g>
     <g id="text_4">
      <!-- 3340 -->
      <g style="fill: #262626" transform="translate(273.686906 284.685594) scale(0.11 -0.11)">
       <defs>
        <path id="ArialMT-34" d="M 2069 0 
L 2069 1097 
L 81 1097 
L 81 1613 
L 2172 4581 
L 2631 4581 
L 2631 1613 
L 3250 1613 
L 3250 1097 
L 2631 1097 
L 2631 0 
L 2069 0 
z
M 2069 1613 
L 2069 3678 
L 634 1613 
L 2069 1613 
z
" transform="scale(0.015625)"/>
       </defs>
       <use xlink:href="#ArialMT-33"/>
       <use xlink:href="#ArialMT-33" x="55.615234"/>
       <use xlink:href="#ArialMT-34" x="111.230469"/>
       <use xlink:href="#ArialMT-30" x="166.845703"/>
      </g>
     </g>
    </g>
    <g id="xtick_5">
     <g id="line2d_5">
      <g>
       <use xlink:href="#mdc893b86e8" x="357.344969" y="273.312" style="fill: #262626; stroke: #262626; stroke-width: 1.25"/>
      </g>
     </g>
     <g id="text_5">
      <!-- 3360 -->
      <g style="fill: #262626" transform="translate(345.110906 284.685594) scale(0.11 -0.11)">
       <defs>
        <path id="ArialMT-36" d="M 3184 3459 
L 2625 3416 
Q 2550 3747 2413 3897 
Q 2184 4138 1850 4138 
Q 1581 4138 1378 3988 
Q 1113 3794 959 3422 
Q 806 3050 800 2363 
Q 1003 2672 1297 2822 
Q 1591 2972 1913 2972 
Q 2475 2972 2870 2558 
Q 3266 2144 3266 1488 
Q 3266 1056 3080 686 
Q 2894 316 2569 119 
Q 2244 -78 1831 -78 
Q 1128 -78 684 439 
Q 241 956 241 2144 
Q 241 3472 731 4075 
Q 1159 4600 1884 4600 
Q 2425 4600 2770 4297 
Q 3116 3994 3184 3459 
z
M 888 1484 
Q 888 1194 1011 928 
Q 1134 663 1356 523 
Q 1578 384 1822 384 
Q 2178 384 2434 671 
Q 2691 959 2691 1453 
Q 2691 1928 2437 2201 
Q 2184 2475 1800 2475 
Q 1419 2475 1153 2201 
Q 888 1928 888 1484 
z
" transform="scale(0.015625)"/>
       </defs>
       <use xlink:href="#ArialMT-33"/>
       <use xlink:href="#ArialMT-33" x="55.615234"/>
       <use xlink:href="#ArialMT-36" x="111.230469"/>
       <use xlink:href="#ArialMT-30" x="166.845703"/>
      </g>
     </g>
    </g>
    <g id="xtick_6">
     <g id="line2d_6">
      <defs>
       <path id="m03230506a3" d="M 0 0 
L 0 -4 
" style="stroke: #262626"/>
      </defs>
      <g>
       <use xlink:href="#m03230506a3" x="107.360969" y="273.312" style="fill: #262626; stroke: #262626"/>
      </g>
     </g>
    </g>
    <g id="xtick_7">
     <g id="line2d_7">
      <g>
       <use xlink:href="#m03230506a3" x="178.784969" y="273.312" style="fill: #262626; stroke: #262626"/>
      </g>
     </g>
    </g>
    <g id="xtick_8">
     <g id="line2d_8">
      <g>
       <use xlink:href="#m03230506a3" x="250.208969" y="273.312" style="fill: #262626; stroke: #262626"/>
      </g>
     </g>
    </g>
    <g id="xtick_9">
     <g id="line2d_9">
      <g>
       <use xlink:href="#m03230506a3" x="321.632969" y="273.312" style="fill: #262626; stroke: #262626"/>
      </g>
     </g>
    </g>
    <g id="xtick_10">
     <g id="line2d_10">
      <g>
       <use xlink:href="#m03230506a3" x="393.056969" y="273.312" style="fill: #262626; stroke: #262626"/>
      </g>
     </g>
    </g>
    <g id="text_6">
     <!-- magnetic field [G] -->
     <g style="fill: #262626" transform="translate(185.668281 299.607469) scale(0.12 -0.12)">
      <defs>
       <path id="ArialMT-6d" d="M 422 0 
L 422 3319 
L 925 3319 
L 925 2853 
Q 1081 3097 1340 3245 
Q 1600 3394 1931 3394 
Q 2300 3394 2536 3241 
Q 2772 3088 2869 2813 
Q 3263 3394 3894 3394 
Q 4388 3394 4653 3120 
Q 4919 2847 4919 2278 
L 4919 0 
L 4359 0 
L 4359 2091 
Q 4359 2428 4304 2576 
Q 4250 2725 4106 2815 
Q 3963 2906 3769 2906 
Q 3419 2906 3187 2673 
Q 2956 2441 2956 1928 
L 2956 0 
L 2394 0 
L 2394 2156 
Q 2394 2531 2256 2718 
Q 2119 2906 1806 2906 
Q 1569 2906 1367 2781 
Q 1166 2656 1075 2415 
Q 984 2175 984 1722 
L 984 0 
L 422 0 
z
" transform="scale(0.015625)"/>
       <path id="ArialMT-61" d="M 2588 409 
Q 2275 144 1986 34 
Q 1697 -75 1366 -75 
Q 819 -75 525 192 
Q 231 459 231 875 
Q 231 1119 342 1320 
Q 453 1522 633 1644 
Q 813 1766 1038 1828 
Q 1203 1872 1538 1913 
Q 2219 1994 2541 2106 
Q 2544 2222 2544 2253 
Q 2544 2597 2384 2738 
Q 2169 2928 1744 2928 
Q 1347 2928 1158 2789 
Q 969 2650 878 2297 
L 328 2372 
Q 403 2725 575 2942 
Q 747 3159 1072 3276 
Q 1397 3394 1825 3394 
Q 2250 3394 2515 3294 
Q 2781 3194 2906 3042 
Q 3031 2891 3081 2659 
Q 3109 2516 3109 2141 
L 3109 1391 
Q 3109 606 3145 398 
Q 3181 191 3288 0 
L 2700 0 
Q 2613 175 2588 409 
z
M 2541 1666 
Q 2234 1541 1622 1453 
Q 1275 1403 1131 1340 
Q 988 1278 909 1158 
Q 831 1038 831 891 
Q 831 666 1001 516 
Q 1172 366 1500 366 
Q 1825 366 2078 508 
Q 2331 650 2450 897 
Q 2541 1088 2541 1459 
L 2541 1666 
z
" transform="scale(0.015625)"/>
       <path id="ArialMT-67" d="M 319 -275 
L 866 -356 
Q 900 -609 1056 -725 
Q 1266 -881 1628 -881 
Q 2019 -881 2231 -725 
Q 2444 -569 2519 -288 
Q 2563 -116 2559 434 
Q 2191 0 1641 0 
Q 956 0 581 494 
Q 206 988 206 1678 
Q 206 2153 378 2554 
Q 550 2956 876 3175 
Q 1203 3394 1644 3394 
Q 2231 3394 2613 2919 
L 2613 3319 
L 3131 3319 
L 3131 450 
Q 3131 -325 2973 -648 
Q 2816 -972 2473 -1159 
Q 2131 -1347 1631 -1347 
Q 1038 -1347 672 -1080 
Q 306 -813 319 -275 
z
M 784 1719 
Q 784 1066 1043 766 
Q 1303 466 1694 466 
Q 2081 466 2343 764 
Q 2606 1063 2606 1700 
Q 2606 2309 2336 2618 
Q 2066 2928 1684 2928 
Q 1309 2928 1046 2623 
Q 784 2319 784 1719 
z
" transform="scale(0.015625)"/>
       <path id="ArialMT-6e" d="M 422 0 
L 422 3319 
L 928 3319 
L 928 2847 
Q 1294 3394 1984 3394 
Q 2284 3394 2536 3286 
Q 2788 3178 2913 3003 
Q 3038 2828 3088 2588 
Q 3119 2431 3119 2041 
L 3119 0 
L 2556 0 
L 2556 2019 
Q 2556 2363 2490 2533 
Q 2425 2703 2258 2804 
Q 2091 2906 1866 2906 
Q 1506 2906 1245 2678 
Q 984 2450 984 1813 
L 984 0 
L 422 0 
z
" transform="scale(0.015625)"/>
       <path id="ArialMT-65" d="M 2694 1069 
L 3275 997 
Q 3138 488 2766 206 
Q 2394 -75 1816 -75 
Q 1088 -75 661 373 
Q 234 822 234 1631 
Q 234 2469 665 2931 
Q 1097 3394 1784 3394 
Q 2450 3394 2872 2941 
Q 3294 2488 3294 1666 
Q 3294 1616 3291 1516 
L 816 1516 
Q 847 969 1125 678 
Q 1403 388 1819 388 
Q 2128 388 2347 550 
Q 2566 713 2694 1069 
z
M 847 1978 
L 2700 1978 
Q 2663 2397 2488 2606 
Q 2219 2931 1791 2931 
Q 1403 2931 1139 2672 
Q 875 2413 847 1978 
z
" transform="scale(0.015625)"/>
       <path id="ArialMT-74" d="M 1650 503 
L 1731 6 
Q 1494 -44 1306 -44 
Q 1000 -44 831 53 
Q 663 150 594 308 
Q 525 466 525 972 
L 525 2881 
L 113 2881 
L 113 3319 
L 525 3319 
L 525 4141 
L 1084 4478 
L 1084 3319 
L 1650 3319 
L 1650 2881 
L 1084 2881 
L 1084 941 
Q 1084 700 1114 631 
Q 1144 563 1211 522 
Q 1278 481 1403 481 
Q 1497 481 1650 503 
z
" transform="scale(0.015625)"/>
       <path id="ArialMT-69" d="M 425 3934 
L 425 4581 
L 988 4581 
L 988 3934 
L 425 3934 
z
M 425 0 
L 425 3319 
L 988 3319 
L 988 0 
L 425 0 
z
" transform="scale(0.015625)"/>
       <path id="ArialMT-63" d="M 2588 1216 
L 3141 1144 
Q 3050 572 2676 248 
Q 2303 -75 1759 -75 
Q 1078 -75 664 370 
Q 250 816 250 1647 
Q 250 2184 428 2587 
Q 606 2991 970 3192 
Q 1334 3394 1763 3394 
Q 2303 3394 2647 3120 
Q 2991 2847 3088 2344 
L 2541 2259 
Q 2463 2594 2264 2762 
Q 2066 2931 1784 2931 
Q 1359 2931 1093 2626 
Q 828 2322 828 1663 
Q 828 994 1084 691 
Q 1341 388 1753 388 
Q 2084 388 2306 591 
Q 2528 794 2588 1216 
z
" transform="scale(0.015625)"/>
       <path id="ArialMT-20" transform="scale(0.015625)"/>
       <path id="ArialMT-66" d="M 556 0 
L 556 2881 
L 59 2881 
L 59 3319 
L 556 3319 
L 556 3672 
Q 556 4006 616 4169 
Q 697 4388 901 4523 
Q 1106 4659 1475 4659 
Q 1713 4659 2000 4603 
L 1916 4113 
Q 1741 4144 1584 4144 
Q 1328 4144 1222 4034 
Q 1116 3925 1116 3625 
L 1116 3319 
L 1763 3319 
L 1763 2881 
L 1116 2881 
L 1116 0 
L 556 0 
z
" transform="scale(0.015625)"/>
       <path id="ArialMT-6c" d="M 409 0 
L 409 4581 
L 972 4581 
L 972 0 
L 409 0 
z
" transform="scale(0.015625)"/>
       <path id="ArialMT-64" d="M 2575 0 
L 2575 419 
Q 2259 -75 1647 -75 
Q 1250 -75 917 144 
Q 584 363 401 755 
Q 219 1147 219 1656 
Q 219 2153 384 2558 
Q 550 2963 881 3178 
Q 1213 3394 1622 3394 
Q 1922 3394 2156 3267 
Q 2391 3141 2538 2938 
L 2538 4581 
L 3097 4581 
L 3097 0 
L 2575 0 
z
M 797 1656 
Q 797 1019 1065 703 
Q 1334 388 1700 388 
Q 2069 388 2326 689 
Q 2584 991 2584 1609 
Q 2584 2291 2321 2609 
Q 2059 2928 1675 2928 
Q 1300 2928 1048 2622 
Q 797 2316 797 1656 
z
" transform="scale(0.015625)"/>
       <path id="ArialMT-5b" d="M 434 -1272 
L 434 4581 
L 1675 4581 
L 1675 4116 
L 997 4116 
L 997 -806 
L 1675 -806 
L 1675 -1272 
L 434 -1272 
z
" transform="scale(0.015625)"/>
       <path id="ArialMT-47" d="M 2638 1797 
L 2638 2334 
L 4578 2338 
L 4578 638 
Q 4131 281 3656 101 
Q 3181 -78 2681 -78 
Q 2006 -78 1454 211 
Q 903 500 622 1047 
Q 341 1594 341 2269 
Q 341 2938 620 3517 
Q 900 4097 1425 4378 
Q 1950 4659 2634 4659 
Q 3131 4659 3532 4498 
Q 3934 4338 4162 4050 
Q 4391 3763 4509 3300 
L 3963 3150 
Q 3859 3500 3706 3700 
Q 3553 3900 3268 4020 
Q 2984 4141 2638 4141 
Q 2222 4141 1919 4014 
Q 1616 3888 1430 3681 
Q 1244 3475 1141 3228 
Q 966 2803 966 2306 
Q 966 1694 1177 1281 
Q 1388 869 1791 669 
Q 2194 469 2647 469 
Q 3041 469 3416 620 
Q 3791 772 3984 944 
L 3984 1797 
L 2638 1797 
z
" transform="scale(0.015625)"/>
       <path id="ArialMT-5d" d="M 1363 -1272 
L 122 -1272 
L 122 -806 
L 800 -806 
L 800 4116 
L 122 4116 
L 122 4581 
L 1363 4581 
L 1363 -1272 
z
" transform="scale(0.015625)"/>
      </defs>
      <use xlink:href="#ArialMT-6d"/>
      <use xlink:href="#ArialMT-61" x="83.300781"/>
      <use xlink:href="#ArialMT-67" x="138.916016"/>
      <use xlink:href="#ArialMT-6e" x="194.53125"/>
      <use xlink:href="#ArialMT-65" x="250.146484"/>
      <use xlink:href="#ArialMT-74" x="305.761719"/>
      <use xlink:href="#ArialMT-69" x="333.544922"/>
      <use xlink:href="#ArialMT-63" x="355.761719"/>
      <use xlink:href="#ArialMT-20" x="405.761719"/>
      <use xlink:href="#ArialMT-66" x="433.544922"/>
      <use xlink:href="#ArialMT-69" x="461.328125"/>
      <use xlink:href="#ArialMT-65" x="483.544922"/>
      <use xlink:href="#ArialMT-6c" x="539.160156"/>
      <use xlink:href="#ArialMT-64" x="561.376953"/>
      <use xlink:href="#ArialMT-20" x="616.992188"/>
      <use xlink:href="#ArialMT-5b" x="644.775391"/>
      <use xlink:href="#ArialMT-47" x="672.558594"/>
      <use xlink:href="#ArialMT-5d" x="750.341797"/>
     </g>
    </g>
   </g>
   <g id="matplotlib.axis_2">
    <g id="ytick_1">
     <g id="line2d_11">
      <defs>
       <path id="m8e693ca619" d="M 0 0 
L 6 0 
" style="stroke: #262626; stroke-width: 1.25"/>
      </defs>
      <g>
       <use xlink:href="#m8e693ca619" x="53.792969" y="246.7008" style="fill: #262626; stroke: #262626; stroke-width: 1.25"/>
      </g>
     </g>
     <g id="text_7">
      <!-- −0.04 -->
      <g style="fill: #262626" transform="translate(22.46125 250.637597) scale(0.11 -0.11)">
       <defs>
        <path id="ArialMT-2212" d="M 3381 1997 
L 356 1997 
L 356 2522 
L 3381 2522 
L 3381 1997 
z
" transform="scale(0.015625)"/>
        <path id="ArialMT-2e" d="M 581 0 
L 581 641 
L 1222 641 
L 1222 0 
L 581 0 
z
" transform="scale(0.015625)"/>
       </defs>
       <use xlink:href="#ArialMT-2212"/>
       <use xlink:href="#ArialMT-30" x="58.398438"/>
       <use xlink:href="#ArialMT-2e" x="114.013672"/>
       <use xlink:href="#ArialMT-30" x="141.796875"/>
       <use xlink:href="#ArialMT-34" x="197.412109"/>
      </g>
     </g>
    </g>
    <g id="ytick_2">
     <g id="line2d_12">
      <g>
       <use xlink:href="#m8e693ca619" x="53.792969" y="193.4784" style="fill: #262626; stroke: #262626; stroke-width: 1.25"/>
      </g>
     </g>
     <g id="text_8">
      <!-- −0.02 -->
      <g style="fill: #262626" transform="translate(22.46125 197.415197) scale(0.11 -0.11)">
       <use xlink:href="#ArialMT-2212"/>
       <use xlink:href="#ArialMT-30" x="58.398438"/>
       <use xlink:href="#ArialMT-2e" x="114.013672"/>
       <use xlink:href="#ArialMT-30" x="141.796875"/>
       <use xlink:href="#ArialMT-32" x="197.412109"/>
      </g>
     </g>
    </g>
    <g id="ytick_3">
     <g id="line2d_13">
      <g>
       <use xlink:href="#m8e693ca619" x="53.792969" y="140.256" style="fill: #262626; stroke: #262626; stroke-width: 1.25"/>
      </g>
     </g>
     <g id="text_9">
      <!-- 0.00 -->
      <g style="fill: #262626" transform="translate(28.885938 144.192797) scale(0.11 -0.11)">
       <use xlink:href="#ArialMT-30"/>
       <use xlink:href="#ArialMT-2e" x="55.615234"/>
       <use xlink:href="#ArialMT-30" x="83.398438"/>
       <use xlink:href="#ArialMT-30" x="139.013672"/>
      </g>
     </g>
    </g>
    <g id="ytick_4">
     <g id="line2d_14">
      <g>
       <use xlink:href="#m8e693ca619" x="53.792969" y="87.0336" style="fill: #262626; stroke: #262626; stroke-width: 1.25"/>
      </g>
     </g>
     <g id="text_10">
      <!-- 0.02 -->
      <g style="fill: #262626" transform="translate(28.885938 90.970397) scale(0.11 -0.11)">
       <use xlink:href="#ArialMT-30"/>
       <use xlink:href="#ArialMT-2e" x="55.615234"/>
       <use xlink:href="#ArialMT-30" x="83.398438"/>
       <use xlink:href="#ArialMT-32" x="139.013672"/>
      </g>
     </g>
    </g>
    <g id="ytick_5">
     <g id="line2d_15">
      <g>
       <use xlink:href="#m8e693ca619" x="53.792969" y="33.8112" style="fill: #262626; stroke: #262626; stroke-width: 1.25"/>
      </g>
     </g>
     <g id="text_11">
      <!-- 0.04 -->
      <g style="fill: #262626" transform="translate(28.885938 37.747997) scale(0.11 -0.11)">
       <use xlink:href="#ArialMT-30"/>
       <use xlink:href="#ArialMT-2e" x="55.615234"/>
       <use xlink:href="#ArialMT-30" x="83.398438"/>
       <use xlink:href="#ArialMT-34" x="139.013672"/>
      </g>
     </g>
    </g>
    <g id="ytick_6">
     <g id="line2d_16">
      <defs>
       <path id="mbf79847594" d="M 0 0 
L 4 0 
" style="stroke: #262626"/>
      </defs>
      <g>
       <use xlink:href="#mbf79847594" x="53.792969" y="273.312" style="fill: #262626; stroke: #262626"/>
      </g>
     </g>
    </g>
    <g id="ytick_7">
     <g id="line2d_17">
      <g>
       <use xlink:href="#mbf79847594" x="53.792969" y="220.0896" style="fill: #262626; stroke: #262626"/>
      </g>
     </g>
    </g>
    <g id="ytick_8">
     <g id="line2d_18">
      <g>
       <use xlink:href="#mbf79847594" x="53.792969" y="166.8672" style="fill: #262626; stroke: #262626"/>
      </g>
     </g>
    </g>
    <g id="ytick_9">
     <g id="line2d_19">
      <g>
       <use xlink:href="#mbf79847594" x="53.792969" y="113.6448" style="fill: #262626; stroke: #262626"/>
      </g>
     </g>
    </g>
    <g id="ytick_10">
     <g id="line2d_20">
      <g>
       <use xlink:href="#mbf79847594" x="53.792969" y="60.4224" style="fill: #262626; stroke: #262626"/>
      </g>
     </g>
    </g>
    <g id="text_12">
     <!-- Signal intensity -->
     <g style="fill: #262626" transform="translate(15.935625 180.610687) rotate(-90) scale(0.12 -0.12)">
      <defs>
       <path id="ArialMT-53" d="M 288 1472 
L 859 1522 
Q 900 1178 1048 958 
Q 1197 738 1509 602 
Q 1822 466 2213 466 
Q 2559 466 2825 569 
Q 3091 672 3220 851 
Q 3350 1031 3350 1244 
Q 3350 1459 3225 1620 
Q 3100 1781 2813 1891 
Q 2628 1963 1997 2114 
Q 1366 2266 1113 2400 
Q 784 2572 623 2826 
Q 463 3081 463 3397 
Q 463 3744 659 4045 
Q 856 4347 1234 4503 
Q 1613 4659 2075 4659 
Q 2584 4659 2973 4495 
Q 3363 4331 3572 4012 
Q 3781 3694 3797 3291 
L 3216 3247 
Q 3169 3681 2898 3903 
Q 2628 4125 2100 4125 
Q 1550 4125 1298 3923 
Q 1047 3722 1047 3438 
Q 1047 3191 1225 3031 
Q 1400 2872 2139 2705 
Q 2878 2538 3153 2413 
Q 3553 2228 3743 1945 
Q 3934 1663 3934 1294 
Q 3934 928 3725 604 
Q 3516 281 3123 101 
Q 2731 -78 2241 -78 
Q 1619 -78 1198 103 
Q 778 284 539 648 
Q 300 1013 288 1472 
z
" transform="scale(0.015625)"/>
       <path id="ArialMT-73" d="M 197 991 
L 753 1078 
Q 800 744 1014 566 
Q 1228 388 1613 388 
Q 2000 388 2187 545 
Q 2375 703 2375 916 
Q 2375 1106 2209 1216 
Q 2094 1291 1634 1406 
Q 1016 1563 777 1677 
Q 538 1791 414 1992 
Q 291 2194 291 2438 
Q 291 2659 392 2848 
Q 494 3038 669 3163 
Q 800 3259 1026 3326 
Q 1253 3394 1513 3394 
Q 1903 3394 2198 3281 
Q 2494 3169 2634 2976 
Q 2775 2784 2828 2463 
L 2278 2388 
Q 2241 2644 2061 2787 
Q 1881 2931 1553 2931 
Q 1166 2931 1000 2803 
Q 834 2675 834 2503 
Q 834 2394 903 2306 
Q 972 2216 1119 2156 
Q 1203 2125 1616 2013 
Q 2213 1853 2448 1751 
Q 2684 1650 2818 1456 
Q 2953 1263 2953 975 
Q 2953 694 2789 445 
Q 2625 197 2315 61 
Q 2006 -75 1616 -75 
Q 969 -75 630 194 
Q 291 463 197 991 
z
" transform="scale(0.015625)"/>
       <path id="ArialMT-79" d="M 397 -1278 
L 334 -750 
Q 519 -800 656 -800 
Q 844 -800 956 -737 
Q 1069 -675 1141 -563 
Q 1194 -478 1313 -144 
Q 1328 -97 1363 -6 
L 103 3319 
L 709 3319 
L 1400 1397 
Q 1534 1031 1641 628 
Q 1738 1016 1872 1384 
L 2581 3319 
L 3144 3319 
L 1881 -56 
Q 1678 -603 1566 -809 
Q 1416 -1088 1222 -1217 
Q 1028 -1347 759 -1347 
Q 597 -1347 397 -1278 
z
" transform="scale(0.015625)"/>
      </defs>
      <use xlink:href="#ArialMT-53"/>
      <use xlink:href="#ArialMT-69" x="66.699219"/>
      <use xlink:href="#ArialMT-67" x="88.916016"/>
      <use xlink:href="#ArialMT-6e" x="144.53125"/>
      <use xlink:href="#ArialMT-61" x="200.146484"/>
      <use xlink:href="#ArialMT-6c" x="255.761719"/>
      <use xlink:href="#ArialMT-20" x="277.978516"/>
      <use xlink:href="#ArialMT-69" x="305.761719"/>
      <use xlink:href="#ArialMT-6e" x="327.978516"/>
      <use xlink:href="#ArialMT-74" x="383.59375"/>
      <use xlink:href="#ArialMT-65" x="411.376953"/>
      <use xlink:href="#ArialMT-6e" x="466.992188"/>
      <use xlink:href="#ArialMT-73" x="522.607422"/>
      <use xlink:href="#ArialMT-69" x="572.607422"/>
      <use xlink:href="#ArialMT-74" x="594.824219"/>
      <use xlink:href="#ArialMT-79" x="622.607422"/>
     </g>
    </g>
   </g>
   <g id="PolyCollection_1"/>
   <g id="PolyCollection_2"/>
   <g id="PolyCollection_3"/>
   <g id="PolyCollection_4"/>
   <g id="line2d_21">
    <path d="M -1 138.174952 
L -0.846566 138.204303 
L -0.1325 138.482257 
L 1.296503 139.41647 
L 2.724634 140.772044 
L 5.581769 143.703215 
L 7.0099 144.611615 
L 7.724837 144.838209 
L 8.438903 144.884353 
L 9.152969 144.750951 
L 9.867034 144.464162 
L 11.296038 143.46752 
L 13.438234 141.404513 
L 14.867238 140.038267 
L 16.295369 138.945132 
L 17.009434 138.562163 
L 18.438438 138.165251 
L 19.866569 138.271898 
L 21.2947 138.800765 
L 22.723703 139.631941 
L 27.723034 142.953463 
L 29.152038 143.517362 
L 30.580169 143.791112 
L 32.0083 143.673277 
L 33.437303 143.212238 
L 36.294438 142.043261 
L 37.008503 141.91449 
L 37.722569 141.923564 
L 38.436634 142.068329 
L 39.865638 142.756072 
L 43.436837 145.055489 
L 44.864969 145.580635 
L 46.2931 145.837354 
L 49.150234 146.255229 
L 50.579238 146.74248 
L 54.150438 148.2681 
L 54.864503 148.388383 
L 55.578569 148.348998 
L 56.292634 148.162986 
L 57.0067 147.818903 
L 58.435703 146.742267 
L 61.292838 144.116647 
L 62.720969 143.202073 
L 63.435034 142.89953 
L 64.864037 142.638421 
L 66.292169 142.769667 
L 67.7203 143.242122 
L 69.149303 143.974782 
L 72.006438 145.694079 
L 72.720503 146.020465 
L 73.434569 146.213689 
L 74.148634 146.258529 
L 74.8627 146.106845 
L 75.577638 145.775695 
L 76.291703 145.23932 
L 77.719834 143.735973 
L 80.576969 140.244451 
L 82.0051 138.910671 
L 83.434103 137.94346 
L 86.291237 136.200959 
L 87.719369 135.073229 
L 90.576503 132.560307 
L 92.004634 131.702096 
L 92.7187 131.474038 
L 93.433638 131.405647 
L 94.147703 131.511826 
L 94.861769 131.749996 
L 96.2899 132.65185 
L 97.718903 133.935707 
L 101.290103 137.54368 
L 102.718234 138.665981 
L 104.147237 139.400902 
L 105.575369 139.734953 
L 107.0035 139.718454 
L 108.432503 139.405692 
L 109.860634 138.790841 
L 111.289638 137.764846 
L 112.717769 136.248061 
L 114.1459 134.301771 
L 117.003034 130.204151 
L 119.146103 127.587738 
L 122.003238 124.494452 
L 123.431369 123.345381 
L 124.145434 123.000766 
L 124.8595 122.871702 
L 125.574437 122.960583 
L 126.288503 123.274861 
L 127.002569 123.789149 
L 128.4307 125.215217 
L 130.573769 127.496755 
L 132.0019 128.561442 
L 132.716838 128.884023 
L 134.144969 129.174085 
L 135.5731 129.105588 
L 142.001434 128.373852 
L 143.430438 127.88762 
L 147.001637 126.38265 
L 147.715703 126.247518 
L 148.429769 126.245061 
L 149.143834 126.416685 
L 149.8579 126.772185 
L 150.572837 127.349488 
L 151.286903 128.171614 
L 152.000969 129.234173 
L 153.4291 132.030212 
L 155.572169 137.237492 
L 157.0003 140.596623 
L 158.429303 143.32028 
L 159.143369 144.329643 
L 159.857434 145.104028 
L 160.5715 145.634922 
L 161.286438 145.969425 
L 162.000503 146.1094 
L 162.714569 146.103545 
L 164.1427 145.779421 
L 165.571703 145.172526 
L 167.7139 143.950806 
L 169.142903 142.933007 
L 170.571034 141.717407 
L 172.714103 139.511685 
L 174.8563 136.968612 
L 176.999369 134.140589 
L 179.142438 130.882471 
L 180.570569 128.384212 
L 184.141769 121.6726 
L 184.855834 120.59059 
L 185.5699 119.723331 
L 186.284837 119.09291 
L 186.998903 118.754683 
L 187.712969 118.673252 
L 188.427034 118.868313 
L 189.1411 119.290366 
L 190.570103 120.690647 
L 191.998234 122.526554 
L 196.2835 128.222415 
L 199.140634 131.845264 
L 204.140838 138.670851 
L 205.568969 139.967827 
L 206.283034 140.36774 
L 206.9971 140.579778 
L 207.712037 140.576186 
L 208.426103 140.343897 
L 209.140169 139.891906 
L 209.854234 139.227317 
L 210.5683 138.347439 
L 211.997303 136.022078 
L 214.1395 131.668566 
L 216.282569 127.377776 
L 217.7107 125.086818 
L 218.425638 124.160748 
L 219.853769 122.8403 
L 220.567834 122.411061 
L 221.2819 122.139361 
L 221.996838 122.015087 
L 222.710903 122.026449 
L 224.139034 122.381576 
L 226.996169 123.677596 
L 230.567369 125.335127 
L 231.281434 125.85008 
L 231.9955 126.507271 
L 232.710437 127.349461 
L 233.424503 128.395095 
L 234.138569 129.677249 
L 235.5667 132.950824 
L 236.995703 137.09097 
L 241.280969 150.857104 
L 242.7091 154.155962 
L 243.424038 155.328477 
L 244.138103 156.217983 
L 244.852169 156.779762 
L 245.566234 157.075928 
L 246.2803 157.093731 
L 246.995237 156.885338 
L 247.709303 156.478454 
L 249.137434 155.159869 
L 250.566437 153.369734 
L 251.994569 151.241902 
L 253.4227 148.792873 
L 254.851703 145.932169 
L 256.279834 142.573303 
L 257.708838 138.609831 
L 259.851034 131.814129 
L 261.994103 124.959084 
L 263.422234 121.14538 
L 264.1363 119.615475 
L 264.851238 118.443679 
L 265.565303 117.627433 
L 266.279369 117.217088 
L 266.993434 117.23066 
L 267.7075 117.664687 
L 268.422437 118.500014 
L 269.136503 119.711355 
L 269.850569 121.240701 
L 271.2787 125.066593 
L 274.8499 135.496587 
L 276.278903 138.681799 
L 276.992969 139.936293 
L 278.4211 141.796629 
L 279.850103 142.96774 
L 281.278234 143.699702 
L 283.421303 144.450484 
L 287.706569 145.526082 
L 291.991834 146.325482 
L 292.7059 146.344457 
L 293.420837 146.245276 
L 294.134903 146.025875 
L 294.848969 145.666669 
L 295.563034 145.151263 
L 296.992038 143.713806 
L 301.277303 138.417778 
L 301.991369 137.8442 
L 302.705434 137.428241 
L 304.134438 136.987559 
L 305.562569 136.942081 
L 307.705638 137.162608 
L 309.847834 137.624232 
L 311.276837 138.130909 
L 314.1331 139.283095 
L 315.562103 139.62292 
L 317.7043 139.758903 
L 319.133303 139.863485 
L 320.561434 140.268241 
L 321.990438 141.003509 
L 324.132634 142.511033 
L 325.561638 143.465045 
L 326.989769 144.076304 
L 327.703834 144.216811 
L 328.4179 144.220271 
L 329.132837 144.104246 
L 330.560969 143.537959 
L 331.9891 142.665112 
L 335.5603 140.304166 
L 337.703369 139.271918 
L 341.988634 137.383055 
L 344.131703 136.292528 
L 345.559834 135.805809 
L 346.2739 135.710807 
L 346.988838 135.739547 
L 347.702903 135.920237 
L 348.416969 136.235846 
L 349.8451 137.235096 
L 351.274103 138.653207 
L 354.845303 142.49001 
L 356.9875 144.246616 
L 360.5587 146.607029 
L 361.987703 147.374762 
L 363.415834 147.84099 
L 364.844838 147.8684 
L 366.272969 147.547469 
L 369.844169 146.501915 
L 371.987237 146.279445 
L 374.129434 146.030365 
L 376.272503 145.501147 
L 379.129638 144.706271 
L 381.271834 144.440664 
L 383.414903 144.504265 
L 385.5571 144.643069 
L 387.700169 144.477867 
L 390.557303 144.048069 
L 391.985434 144.14776 
L 392.6995 144.358276 
L 393.414437 144.694748 
L 394.842569 145.726225 
L 396.2707 147.087387 
L 398.413769 149.135545 
L 399.8419 150.069998 
L 400.556838 150.350613 
L 401.270903 150.501179 
L 402.699034 150.462992 
L 404.128038 150.010336 
L 405.556169 149.140442 
L 406.9843 147.810334 
L 408.413303 146.054261 
L 411.984503 141.161973 
L 413.412634 139.676544 
L 414.841637 138.699537 
L 415.555703 138.385765 
L 416.983834 138.114064 
L 418.412838 138.180779 
L 419.112969 138.305814 
L 419.112969 138.305814 
" clip-path="url(#p93a3d29e2a)" style="fill: none; stroke: #f69c73; stroke-linecap: round"/>
   </g>
   <g id="line2d_22">
    <path d="M -1 138.758537 
L 0.582438 137.92273 
L 4.867703 135.418882 
L 7.0099 133.909495 
L 8.438903 133.058948 
L 9.867034 132.680137 
L 10.5811 132.699111 
L 11.296038 132.844594 
L 12.724169 133.480496 
L 15.581303 135.103194 
L 17.009434 135.712217 
L 19.866569 136.602362 
L 21.2947 137.294652 
L 22.723703 138.224448 
L 24.8659 139.760499 
L 26.294903 140.457979 
L 27.008969 140.676191 
L 27.723034 140.746178 
L 28.4371 140.704399 
L 29.866103 140.300707 
L 32.0083 139.301456 
L 37.722569 136.900035 
L 39.1507 135.854534 
L 41.293769 133.819829 
L 43.436837 131.773334 
L 44.864969 130.718413 
L 45.579034 130.355835 
L 46.2931 130.134962 
L 47.008037 130.066571 
L 47.722103 130.150929 
L 48.436169 130.37606 
L 49.150234 130.725465 
L 50.579238 131.874271 
L 52.007369 133.504499 
L 54.150438 136.733795 
L 57.0067 141.352169 
L 58.435703 143.213941 
L 59.149769 143.977502 
L 60.5779 145.020177 
L 61.292838 145.293926 
L 62.006903 145.418041 
L 62.720969 145.426929 
L 64.1491 145.024381 
L 65.578103 144.327684 
L 69.149303 142.227863 
L 72.720503 140.371226 
L 74.8627 139.592583 
L 75.577638 139.485606 
L 77.005769 139.631435 
L 78.4339 140.258661 
L 79.862903 141.264032 
L 82.720037 143.951231 
L 85.5763 146.888469 
L 87.719369 148.787556 
L 88.433434 149.234087 
L 89.1475 149.535299 
L 89.862437 149.683124 
L 90.576503 149.635623 
L 91.290569 149.413739 
L 92.004634 149.02785 
L 93.433638 147.920904 
L 95.575834 146.207861 
L 97.004838 145.508226 
L 98.432969 145.244562 
L 99.8611 145.3736 
L 102.718234 146.117889 
L 104.147237 146.452285 
L 105.575369 146.618153 
L 107.0035 146.581615 
L 109.146569 146.217388 
L 110.5747 146.036618 
L 111.289638 146.000134 
L 112.717769 146.277103 
L 114.1459 147.039993 
L 115.574903 148.281938 
L 118.432038 151.082766 
L 119.146103 151.63974 
L 119.860169 152.050084 
L 121.2883 152.395152 
L 122.003238 152.331577 
L 123.431369 151.807443 
L 125.574437 150.419084 
L 127.716634 149.128706 
L 129.145637 148.565613 
L 130.573769 148.298703 
L 132.0019 148.308816 
L 133.430903 148.541397 
L 134.859034 149.025455 
L 136.288038 149.805695 
L 137.716169 150.863225 
L 141.287369 154.070406 
L 142.001434 154.464784 
L 142.7155 154.596244 
L 143.430438 154.374838 
L 144.144503 153.71488 
L 144.858569 152.45351 
L 145.572634 150.594983 
L 146.2867 147.967926 
L 147.001637 144.633542 
L 147.715703 140.585979 
L 149.143834 130.603586 
L 151.286903 112.685199 
L 153.4291 95.185942 
L 154.858103 85.910343 
L 155.572169 82.416023 
L 156.286234 79.788167 
L 157.0003 78.120978 
L 157.715238 77.520095 
L 158.429303 77.898773 
L 159.143369 79.29187 
L 159.857434 81.655478 
L 160.5715 84.967773 
L 162.000503 93.803487 
L 163.428634 104.717806 
L 166.999834 133.109615 
L 168.428837 142.810303 
L 169.856969 151.227798 
L 171.2851 158.588722 
L 173.428169 168.285045 
L 174.8563 173.917837 
L 176.285303 178.595288 
L 176.999369 180.437847 
L 177.713434 181.950694 
L 178.4275 183.036697 
L 179.142438 183.696922 
L 179.856503 184.043932 
L 180.570569 183.980065 
L 181.284634 183.617887 
L 181.9987 182.982143 
L 182.713638 182.089923 
L 183.427703 180.928025 
L 184.141769 179.501134 
L 184.855834 177.780187 
L 185.5699 175.710899 
L 186.284837 173.296998 
L 186.998903 170.414473 
L 188.427034 163.269365 
L 189.856037 154.304052 
L 191.284169 143.808595 
L 194.141303 120.041334 
L 196.2835 102.483796 
L 197.712503 92.328962 
L 199.140634 84.28147 
L 199.8547 81.302346 
L 200.569638 79.018309 
L 201.283703 77.480178 
L 201.997769 76.773122 
L 202.711834 76.843904 
L 203.4259 77.760927 
L 204.140838 79.462714 
L 204.854903 81.953258 
L 205.568969 85.148198 
L 206.283034 89.085907 
L 207.712037 98.805864 
L 209.140169 110.438684 
L 214.1395 153.963429 
L 215.568503 164.380117 
L 216.996634 173.150903 
L 218.425638 180.036816 
L 219.139703 182.786551 
L 219.853769 185.085493 
L 220.567834 186.929488 
L 221.2819 188.307977 
L 221.996838 189.340626 
L 222.710903 189.979825 
L 223.424969 190.278671 
L 224.139034 190.236093 
L 224.8531 189.965723 
L 225.568038 189.428975 
L 226.282103 188.632767 
L 226.996169 187.640966 
L 228.4243 184.920504 
L 229.853303 181.228199 
L 231.281434 176.477516 
L 232.710437 170.547529 
L 234.138569 163.286929 
L 235.5667 154.780925 
L 236.995703 145.027388 
L 239.1379 128.749849 
L 241.995034 106.635861 
L 243.424038 96.653816 
L 244.852169 88.142489 
L 246.2803 81.392291 
L 246.995237 78.782795 
L 247.709303 76.692223 
L 248.423369 75.173518 
L 249.137434 74.282309 
L 249.8515 73.992782 
L 250.566437 74.446664 
L 251.280503 75.637938 
L 251.994569 77.595407 
L 252.708634 80.376277 
L 253.4227 83.993534 
L 254.137637 88.370811 
L 255.565769 99.218868 
L 256.9939 112.157234 
L 261.994103 160.661469 
L 263.422234 171.603994 
L 264.1363 176.082658 
L 264.851238 179.838032 
L 265.565303 182.769787 
L 266.279369 184.865687 
L 266.993434 186.194381 
L 267.7075 186.731928 
L 268.422437 186.535007 
L 269.136503 185.69915 
L 269.850569 184.26986 
L 271.2787 180.324485 
L 275.564838 166.480193 
L 276.992969 163.068558 
L 278.4211 160.435274 
L 279.850103 158.193812 
L 281.278234 156.00025 
L 282.707238 153.429209 
L 284.135369 150.136606 
L 285.5635 146.007745 
L 286.992503 141.155459 
L 290.563703 127.774761 
L 291.991834 123.600981 
L 292.7059 122.15586 
L 293.420837 121.126539 
L 294.134903 120.660311 
L 294.848969 120.749991 
L 295.563034 121.392119 
L 296.2771 122.589889 
L 296.992038 124.298328 
L 297.706103 126.46927 
L 299.134234 131.896091 
L 303.4195 150.284963 
L 304.134438 152.574591 
L 304.848503 154.403578 
L 305.562569 155.803327 
L 306.276634 156.777032 
L 306.9907 157.320432 
L 307.705638 157.549821 
L 308.419703 157.472915 
L 309.133769 157.147459 
L 310.5619 156.064649 
L 314.848037 152.399489 
L 317.7043 150.206194 
L 322.704503 146.333732 
L 324.132634 145.423549 
L 326.275703 144.287836 
L 330.560969 142.397536 
L 332.704037 141.113094 
L 336.275238 138.504052 
L 337.703369 137.803858 
L 339.1315 137.573564 
L 340.560503 137.710665 
L 341.988634 138.123112 
L 344.131703 138.982388 
L 345.559834 139.294271 
L 346.2739 139.331527 
L 346.988838 139.243178 
L 348.416969 138.723993 
L 349.8451 137.897982 
L 351.274103 136.902057 
L 354.131237 135.241519 
L 359.844634 132.63253 
L 361.273638 132.298187 
L 368.416038 131.256119 
L 369.844169 131.498121 
L 371.2723 132.06569 
L 376.272503 134.721084 
L 378.4147 135.827098 
L 380.557769 137.42196 
L 383.414903 139.617757 
L 385.5571 140.646386 
L 386.986103 141.028523 
L 388.414234 141.296711 
L 389.843238 141.367869 
L 391.271369 141.238459 
L 392.6995 140.825506 
L 394.128503 140.077625 
L 396.2707 138.593465 
L 397.699703 137.538251 
L 399.8419 136.413878 
L 400.556838 136.103823 
L 402.699034 135.621872 
L 404.128038 135.56362 
L 405.556169 135.884312 
L 406.270234 136.241434 
L 406.9843 136.722831 
L 407.699238 137.346332 
L 409.127369 139.007935 
L 411.270437 141.645371 
L 412.698569 142.997486 
L 413.412634 143.464246 
L 414.841637 144.012171 
L 419.112969 144.307069 
L 419.112969 144.307069 
" clip-path="url(#p93a3d29e2a)" style="fill: none; stroke: #e83f3f; stroke-linecap: round"/>
   </g>
   <g id="line2d_23">
    <path d="M -1 138.315137 
L 0.582438 138.236902 
L 4.867703 137.819718 
L 6.295834 137.631976 
L 13.438234 137.175142 
L 15.581303 136.942746 
L 17.009434 136.962116 
L 17.7235 137.010908 
L 23.437769 138.472358 
L 26.294903 138.772372 
L 27.723034 139.183968 
L 29.152038 139.7283 
L 32.0083 141.025596 
L 33.437303 141.45723 
L 34.865434 141.615566 
L 37.722569 141.704182 
L 39.865638 141.565005 
L 42.007834 141.122195 
L 46.2931 139.884827 
L 47.722103 139.853825 
L 49.150234 140.053302 
L 51.293303 140.490924 
L 52.721434 140.518094 
L 54.150438 140.255148 
L 54.864503 140.047608 
L 60.5779 137.256545 
L 63.435034 136.469652 
L 67.7203 136.050659 
L 70.577434 136.136054 
L 72.720503 136.562898 
L 73.434569 136.839388 
L 74.8627 137.843695 
L 76.291703 139.321415 
L 79.148838 142.812006 
L 80.576969 144.097327 
L 81.291034 144.547322 
L 82.720037 145.0854 
L 84.148169 145.250124 
L 86.291237 145.270987 
L 88.433434 145.564482 
L 92.7187 146.89013 
L 93.433638 146.943155 
L 94.861769 146.532464 
L 96.2899 145.743469 
L 99.147034 144.164866 
L 100.576038 143.740284 
L 102.004169 143.513078 
L 104.861303 143.116624 
L 106.289434 142.747687 
L 109.146569 141.859245 
L 110.5747 141.63156 
L 112.003703 141.695533 
L 114.1459 142.22491 
L 117.7171 143.278952 
L 119.860169 143.80471 
L 122.003238 143.9598 
L 124.145434 143.748188 
L 127.716634 143.066675 
L 133.430903 142.321827 
L 134.859034 141.784813 
L 136.288038 140.871517 
L 137.002103 140.32173 
L 138.430234 138.830172 
L 139.859238 136.917625 
L 141.287369 134.712621 
L 142.7155 132.127875 
L 144.144503 129.151945 
L 146.2867 124.20918 
L 149.143834 117.396712 
L 152.715034 109.690642 
L 156.286234 102.568155 
L 158.429303 98.682652 
L 159.857434 96.677231 
L 160.5715 95.949947 
L 161.286438 95.584046 
L 162.000503 95.521775 
L 162.714569 95.714973 
L 163.428634 96.414312 
L 164.1427 97.464924 
L 164.857637 98.899746 
L 165.571703 100.744304 
L 166.285769 103.047715 
L 167.7139 108.807682 
L 169.142903 115.976207 
L 174.142234 143.903038 
L 174.8563 146.899965 
L 175.571238 149.407192 
L 176.285303 151.326233 
L 176.999369 152.660465 
L 177.713434 153.298948 
L 178.4275 153.302939 
L 179.142438 152.66906 
L 179.856503 151.360055 
L 180.570569 149.456556 
L 181.284634 147.002258 
L 182.713638 140.861937 
L 186.284837 123.946261 
L 187.712969 118.851015 
L 188.427034 116.981046 
L 189.1411 115.480974 
L 189.856037 114.496093 
L 190.570103 113.939121 
L 191.284169 113.893881 
L 191.998234 114.309814 
L 192.7123 115.144608 
L 193.427238 116.401987 
L 194.141303 118.041768 
L 194.855369 119.991305 
L 196.2835 124.709738 
L 198.426569 133.139367 
L 200.569638 141.754477 
L 201.997769 146.653066 
L 202.711834 148.641721 
L 203.4259 150.241054 
L 204.140838 151.446275 
L 204.854903 152.228272 
L 205.568969 152.490499 
L 206.283034 152.4261 
L 206.9971 152.033585 
L 208.426103 150.535108 
L 210.5683 148.179485 
L 211.283237 147.768342 
L 211.997303 147.597232 
L 212.711369 147.799743 
L 213.425434 148.321056 
L 214.1395 149.283318 
L 214.854438 150.609087 
L 215.568503 152.264836 
L 216.996634 156.322778 
L 219.139703 162.807396 
L 219.853769 164.663793 
L 220.567834 166.192339 
L 221.2819 167.368822 
L 221.996838 168.046609 
L 222.710903 168.282118 
L 223.424969 167.99445 
L 224.139034 167.13544 
L 224.8531 165.767092 
L 225.568038 163.927194 
L 226.996169 158.703682 
L 228.4243 151.762417 
L 230.567369 139.655505 
L 232.710437 127.625792 
L 234.138569 121.132128 
L 234.852634 118.530349 
L 235.5667 116.667301 
L 236.281638 115.32849 
L 236.995703 114.742246 
L 237.709769 114.719361 
L 238.423834 115.32503 
L 239.1379 116.430992 
L 239.852838 117.953687 
L 241.280969 121.884959 
L 244.138103 130.386438 
L 244.852169 132.247359 
L 246.2803 135.116047 
L 246.995237 136.124611 
L 247.709303 136.794681 
L 248.423369 137.034714 
L 249.137434 136.911611 
L 249.8515 136.385587 
L 250.566437 135.547202 
L 251.994569 133.082685 
L 254.137637 128.798548 
L 255.565769 126.724205 
L 256.279834 126.202892 
L 256.9939 126.084737 
L 257.708838 126.350051 
L 258.422903 126.974616 
L 259.136969 128.081376 
L 259.851034 129.582248 
L 261.280038 133.486111 
L 262.708169 138.390555 
L 266.993434 154.445092 
L 268.422437 158.412822 
L 269.136503 159.772654 
L 269.850569 160.727997 
L 270.564634 161.241592 
L 271.2787 161.228286 
L 271.993637 160.797185 
L 272.707703 159.858609 
L 273.421769 158.525387 
L 274.135834 156.832915 
L 275.564838 152.501144 
L 279.850103 137.032053 
L 280.564169 135.013061 
L 281.278234 133.350659 
L 281.9923 132.059697 
L 282.707238 131.255026 
L 283.421303 130.968585 
L 284.135369 131.22203 
L 284.849434 131.95775 
L 285.5635 133.123586 
L 286.278438 134.744661 
L 287.706569 139.024514 
L 289.849637 146.906139 
L 291.991834 154.960098 
L 293.420837 159.698781 
L 294.848969 163.558124 
L 295.563034 165.184841 
L 296.992038 167.684429 
L 297.706103 168.54131 
L 298.420169 169.143257 
L 299.134234 169.487871 
L 299.8483 169.487871 
L 300.563238 169.332195 
L 301.277303 168.892578 
L 301.991369 168.290634 
L 303.4195 166.482934 
L 304.848503 164.428549 
L 310.5619 155.474679 
L 312.704969 152.682632 
L 314.848037 150.547882 
L 316.276169 149.256174 
L 318.419238 146.962821 
L 321.2755 143.834674 
L 322.704503 142.640097 
L 324.132634 141.817705 
L 325.561638 141.335989 
L 327.703834 140.728466 
L 330.560969 139.951435 
L 334.132169 138.803428 
L 336.989303 137.920521 
L 338.417434 137.606722 
L 339.846438 137.51675 
L 340.560503 137.5374 
L 343.417638 138.214149 
L 345.559834 138.863303 
L 349.131034 139.852574 
L 351.274103 140.271701 
L 352.702234 140.158603 
L 354.131237 139.641547 
L 354.845303 139.25808 
L 356.9875 137.578913 
L 358.416503 136.390191 
L 359.844634 135.391207 
L 360.5587 134.926309 
L 363.415834 133.757545 
L 364.844838 133.094926 
L 366.272969 132.233256 
L 369.844169 129.462524 
L 371.2723 128.785029 
L 371.987237 128.610678 
L 372.701303 128.626826 
L 374.129434 129.04856 
L 375.558437 129.910843 
L 376.986569 130.903813 
L 378.4147 131.918791 
L 379.843703 132.861546 
L 381.9859 133.925249 
L 384.128969 135.137442 
L 385.5571 136.145368 
L 386.986103 137.277249 
L 389.843238 139.04535 
L 391.271369 139.42134 
L 392.6995 139.373054 
L 394.842569 138.851197 
L 399.127834 137.669205 
L 402.699034 137.115399 
L 403.4131 137.115 
L 407.699238 136.522449 
L 409.841434 136.181027 
L 411.270437 135.887505 
L 414.1267 135.697768 
L 415.555703 135.923963 
L 416.983834 136.45459 
L 418.412838 137.311204 
L 419.112969 137.812691 
L 419.112969 137.812691 
" clip-path="url(#p93a3d29e2a)" style="fill: none; stroke: #a11a5b; stroke-linecap: round"/>
   </g>
   <g id="line2d_24">
    <path d="M -1 133.481837 
L -0.1325 133.299433 
L 1.296503 133.166031 
L 3.4387 133.20624 
L 4.867703 133.469133 
L 5.581769 133.728007 
L 6.295834 134.113603 
L 7.724837 135.358874 
L 9.152969 137.228257 
L 12.724169 142.558055 
L 13.438234 143.333372 
L 14.1523 143.904795 
L 14.867238 144.292334 
L 15.581303 144.460729 
L 16.295369 144.433586 
L 17.009434 144.255078 
L 18.438438 143.523802 
L 21.2947 141.36755 
L 22.723703 140.301958 
L 24.151834 139.472061 
L 24.8659 139.239878 
L 25.580837 139.124385 
L 26.294903 139.205922 
L 27.008969 139.447099 
L 27.723034 139.859307 
L 29.152038 141.048322 
L 30.580169 142.30775 
L 31.294234 142.823661 
L 32.0083 143.193052 
L 32.723238 143.388511 
L 34.151369 143.392822 
L 37.722569 142.647895 
L 42.007834 142.263549 
L 45.579034 141.612852 
L 47.008037 141.6186 
L 48.436169 141.875052 
L 50.579238 142.58778 
L 52.721434 143.248855 
L 54.150438 143.50544 
L 56.292634 143.557119 
L 57.721638 143.366051 
L 59.863834 142.755324 
L 62.006903 142.110268 
L 63.435034 142.008081 
L 64.864037 142.300805 
L 67.7203 143.432047 
L 68.435237 143.595972 
L 69.149303 143.636687 
L 69.863369 143.535564 
L 70.577434 143.286217 
L 71.2915 142.889976 
L 72.720503 141.713495 
L 74.8627 139.468841 
L 77.005769 137.39982 
L 78.4339 136.452993 
L 79.862903 135.979314 
L 81.291034 135.942324 
L 85.5763 136.633151 
L 87.005303 136.52511 
L 89.1475 136.334307 
L 90.576503 136.531736 
L 91.290569 136.803303 
L 92.7187 137.713593 
L 94.147703 138.932279 
L 96.2899 140.843735 
L 97.718903 141.729702 
L 98.432969 141.988203 
L 99.147034 142.09675 
L 100.576038 141.953608 
L 102.004169 141.463602 
L 104.861303 140.37929 
L 107.0035 139.861603 
L 109.146569 139.475334 
L 111.289638 139.366627 
L 112.717769 139.523128 
L 114.860838 140.05615 
L 117.7171 141.217463 
L 119.146103 142.097495 
L 122.717303 144.690357 
L 123.431369 145.02172 
L 124.8595 145.325247 
L 126.288503 145.214864 
L 128.4307 144.814951 
L 131.287834 144.195016 
L 132.716838 143.605871 
L 134.144969 142.687066 
L 137.716169 140.082761 
L 139.1443 139.501839 
L 140.573303 139.280966 
L 143.430438 139.209382 
L 144.858569 138.823519 
L 146.2867 138.122314 
L 148.429769 136.93439 
L 149.143834 136.687438 
L 149.8579 136.607605 
L 150.572837 136.723629 
L 151.286903 137.080219 
L 152.000969 137.621225 
L 152.715034 138.392418 
L 154.144038 140.408216 
L 156.286234 143.749508 
L 157.0003 144.682294 
L 157.715238 145.429856 
L 158.429303 145.97786 
L 159.143369 146.307839 
L 159.857434 146.440283 
L 160.5715 146.381872 
L 162.000503 145.888739 
L 163.428634 145.126808 
L 166.285769 143.311631 
L 167.7139 142.176264 
L 169.142903 140.751421 
L 171.2851 138.233017 
L 173.428169 135.727811 
L 174.8563 134.336338 
L 176.285303 133.228781 
L 180.570569 129.983385 
L 182.713638 127.760844 
L 184.855834 125.508073 
L 186.284837 124.330794 
L 187.712969 123.594461 
L 188.427034 123.40366 
L 189.856037 123.37146 
L 191.284169 123.695585 
L 192.7123 124.348091 
L 194.141303 125.327196 
L 195.569434 126.637852 
L 196.998438 128.26659 
L 199.140634 131.148479 
L 201.283703 134.440122 
L 203.4259 138.278256 
L 204.854903 141.280265 
L 206.9971 146.482488 
L 210.5683 155.751436 
L 211.997303 158.748921 
L 212.711369 159.930725 
L 213.425434 160.833643 
L 214.1395 161.439048 
L 214.854438 161.778953 
L 215.568503 161.839945 
L 216.282569 161.627976 
L 216.996634 161.183234 
L 217.7107 160.526071 
L 219.139703 158.781386 
L 226.996169 147.883781 
L 228.4243 145.225376 
L 229.853303 142.111599 
L 231.281434 138.547827 
L 233.424503 132.411231 
L 237.709769 119.075348 
L 238.423834 117.322468 
L 239.1379 115.940016 
L 239.852838 114.917347 
L 240.566903 114.380599 
L 241.280969 114.278733 
L 241.995034 114.645513 
L 242.7091 115.425701 
L 243.424038 116.515883 
L 244.852169 119.362481 
L 247.709303 125.501687 
L 251.994569 133.67505 
L 253.4227 137.033384 
L 257.708838 148.14356 
L 259.136969 150.847258 
L 259.851034 151.837194 
L 260.5651 152.56368 
L 261.280038 153.024054 
L 261.994103 153.220178 
L 262.708169 153.203413 
L 263.422234 152.984137 
L 264.1363 152.626748 
L 265.565303 151.487522 
L 267.7075 149.216257 
L 271.993637 144.176894 
L 273.421769 142.891307 
L 274.8499 141.926119 
L 277.707034 140.231252 
L 279.136038 139.045457 
L 280.564169 137.533674 
L 282.707238 134.692929 
L 285.5635 130.891492 
L 286.992503 129.292888 
L 288.420634 128.034141 
L 289.1347 127.591145 
L 289.849637 127.285408 
L 290.563703 127.173029 
L 291.277769 127.216539 
L 291.991834 127.450425 
L 292.7059 127.91495 
L 293.420837 128.54546 
L 294.848969 130.272196 
L 298.420169 135.162882 
L 299.8483 136.685309 
L 301.277303 137.836244 
L 302.705434 138.652941 
L 304.134438 139.109323 
L 305.562569 139.29028 
L 307.705638 139.400184 
L 309.133769 139.687319 
L 310.5619 140.216349 
L 313.419034 141.470615 
L 314.848037 141.863737 
L 316.276169 141.995055 
L 321.2755 141.969495 
L 322.704503 141.768847 
L 324.132634 141.29703 
L 325.561638 140.538611 
L 329.132837 138.267877 
L 329.846903 137.949075 
L 331.275034 137.667795 
L 332.704037 137.853541 
L 334.132169 138.332809 
L 336.989303 139.272716 
L 341.988634 140.455052 
L 344.845769 141.244606 
L 346.2739 141.362228 
L 347.702903 141.144282 
L 349.131034 140.596091 
L 350.560037 139.709406 
L 351.988169 138.637773 
L 358.416503 133.29451 
L 359.130569 132.919026 
L 360.5587 132.556581 
L 361.273638 132.589845 
L 361.987703 132.76681 
L 363.415834 133.468547 
L 365.558903 134.690268 
L 366.272969 135.024238 
L 367.7011 135.341976 
L 369.130103 135.337718 
L 371.987237 135.068572 
L 374.8435 134.894668 
L 376.986569 134.417396 
L 379.129638 133.852813 
L 380.557769 133.773778 
L 381.9859 134.119191 
L 382.700838 134.445178 
L 384.128969 135.433518 
L 389.1283 139.534222 
L 390.557303 140.260604 
L 391.985434 140.659 
L 393.414437 140.776169 
L 396.2707 140.851293 
L 396.985637 140.953267 
L 398.413769 141.46359 
L 399.8419 142.226027 
L 404.842103 145.150066 
L 406.270234 145.56999 
L 407.699238 145.560357 
L 408.413303 145.33661 
L 409.841434 144.564753 
L 414.1267 141.4266 
L 415.555703 140.950606 
L 416.983834 140.856881 
L 419.112969 140.934456 
L 419.112969 140.934456 
" clip-path="url(#p93a3d29e2a)" style="fill: none; stroke: #4c1d4b; stroke-linecap: round"/>
   </g>
   <g id="line2d_25"/>
   <g id="line2d_26"/>
   <g id="line2d_27"/>
   <g id="line2d_28"/>
   <g id="patch_3">
    <path d="M 53.792969 273.312 
L 53.792969 7.2 
" style="fill: none; stroke: #262626; stroke-width: 1.25; stroke-linejoin: miter; stroke-linecap: square"/>
   </g>
   <g id="patch_4">
    <path d="M 53.792969 273.312 
L 410.912969 273.312 
" style="fill: none; stroke: #262626; stroke-width: 1.25; stroke-linejoin: miter; stroke-linecap: square"/>
   </g>
   <g id="legend_1">
    <g id="line2d_29">
     <path d="M 324.352656 14.8125 
L 330.352656 14.8125 
L 336.352656 14.8125 
" style="fill: none; stroke: #f69c73; stroke-width: 1.5; stroke-linecap: round"/>
    </g>
    <g id="text_13">
     <!-- blank_corrected_0mM -->
     <g style="fill: #262626" transform="translate(341.152656 16.9125) scale(0.06 -0.06)">
      <defs>
       <path id="ArialMT-62" d="M 941 0 
L 419 0 
L 419 4581 
L 981 4581 
L 981 2947 
Q 1338 3394 1891 3394 
Q 2197 3394 2470 3270 
Q 2744 3147 2920 2923 
Q 3097 2700 3197 2384 
Q 3297 2069 3297 1709 
Q 3297 856 2875 390 
Q 2453 -75 1863 -75 
Q 1275 -75 941 416 
L 941 0 
z
M 934 1684 
Q 934 1088 1097 822 
Q 1363 388 1816 388 
Q 2184 388 2453 708 
Q 2722 1028 2722 1663 
Q 2722 2313 2464 2622 
Q 2206 2931 1841 2931 
Q 1472 2931 1203 2611 
Q 934 2291 934 1684 
z
" transform="scale(0.015625)"/>
       <path id="ArialMT-6b" d="M 425 0 
L 425 4581 
L 988 4581 
L 988 1969 
L 2319 3319 
L 3047 3319 
L 1778 2088 
L 3175 0 
L 2481 0 
L 1384 1697 
L 988 1316 
L 988 0 
L 425 0 
z
" transform="scale(0.015625)"/>
       <path id="ArialMT-5f" d="M -97 -1272 
L -97 -866 
L 3631 -866 
L 3631 -1272 
L -97 -1272 
z
" transform="scale(0.015625)"/>
       <path id="ArialMT-6f" d="M 213 1659 
Q 213 2581 725 3025 
Q 1153 3394 1769 3394 
Q 2453 3394 2887 2945 
Q 3322 2497 3322 1706 
Q 3322 1066 3130 698 
Q 2938 331 2570 128 
Q 2203 -75 1769 -75 
Q 1072 -75 642 372 
Q 213 819 213 1659 
z
M 791 1659 
Q 791 1022 1069 705 
Q 1347 388 1769 388 
Q 2188 388 2466 706 
Q 2744 1025 2744 1678 
Q 2744 2294 2464 2611 
Q 2184 2928 1769 2928 
Q 1347 2928 1069 2612 
Q 791 2297 791 1659 
z
" transform="scale(0.015625)"/>
       <path id="ArialMT-72" d="M 416 0 
L 416 3319 
L 922 3319 
L 922 2816 
Q 1116 3169 1280 3281 
Q 1444 3394 1641 3394 
Q 1925 3394 2219 3213 
L 2025 2691 
Q 1819 2813 1613 2813 
Q 1428 2813 1281 2702 
Q 1134 2591 1072 2394 
Q 978 2094 978 1738 
L 978 0 
L 416 0 
z
" transform="scale(0.015625)"/>
       <path id="ArialMT-4d" d="M 475 0 
L 475 4581 
L 1388 4581 
L 2472 1338 
Q 2622 884 2691 659 
Q 2769 909 2934 1394 
L 4031 4581 
L 4847 4581 
L 4847 0 
L 4263 0 
L 4263 3834 
L 2931 0 
L 2384 0 
L 1059 3900 
L 1059 0 
L 475 0 
z
" transform="scale(0.015625)"/>
      </defs>
      <use xlink:href="#ArialMT-62"/>
      <use xlink:href="#ArialMT-6c" x="55.615234"/>
      <use xlink:href="#ArialMT-61" x="77.832031"/>
      <use xlink:href="#ArialMT-6e" x="133.447266"/>
      <use xlink:href="#ArialMT-6b" x="189.0625"/>
      <use xlink:href="#ArialMT-5f" x="239.0625"/>
      <use xlink:href="#ArialMT-63" x="294.677734"/>
      <use xlink:href="#ArialMT-6f" x="344.677734"/>
      <use xlink:href="#ArialMT-72" x="400.292969"/>
      <use xlink:href="#ArialMT-72" x="433.59375"/>
      <use xlink:href="#ArialMT-65" x="466.894531"/>
      <use xlink:href="#ArialMT-63" x="522.509766"/>
      <use xlink:href="#ArialMT-74" x="572.509766"/>
      <use xlink:href="#ArialMT-65" x="600.292969"/>
      <use xlink:href="#ArialMT-64" x="655.908203"/>
      <use xlink:href="#ArialMT-5f" x="711.523438"/>
      <use xlink:href="#ArialMT-30" x="767.138672"/>
      <use xlink:href="#ArialMT-6d" x="822.753906"/>
      <use xlink:href="#ArialMT-4d" x="906.054688"/>
     </g>
    </g>
    <g id="line2d_30">
     <path d="M 324.352656 23.3175 
L 330.352656 23.3175 
L 336.352656 23.3175 
" style="fill: none; stroke: #e83f3f; stroke-width: 1.5; stroke-linecap: round"/>
    </g>
    <g id="text_14">
     <!-- blank_corrected_0.7mM -->
     <g style="fill: #262626" transform="translate(341.152656 25.4175) scale(0.06 -0.06)">
      <defs>
       <path id="ArialMT-37" d="M 303 3981 
L 303 4522 
L 3269 4522 
L 3269 4084 
Q 2831 3619 2401 2847 
Q 1972 2075 1738 1259 
Q 1569 684 1522 0 
L 944 0 
Q 953 541 1156 1306 
Q 1359 2072 1739 2783 
Q 2119 3494 2547 3981 
L 303 3981 
z
" transform="scale(0.015625)"/>
      </defs>
      <use xlink:href="#ArialMT-62"/>
      <use xlink:href="#ArialMT-6c" x="55.615234"/>
      <use xlink:href="#ArialMT-61" x="77.832031"/>
      <use xlink:href="#ArialMT-6e" x="133.447266"/>
      <use xlink:href="#ArialMT-6b" x="189.0625"/>
      <use xlink:href="#ArialMT-5f" x="239.0625"/>
      <use xlink:href="#ArialMT-63" x="294.677734"/>
      <use xlink:href="#ArialMT-6f" x="344.677734"/>
      <use xlink:href="#ArialMT-72" x="400.292969"/>
      <use xlink:href="#ArialMT-72" x="433.59375"/>
      <use xlink:href="#ArialMT-65" x="466.894531"/>
      <use xlink:href="#ArialMT-63" x="522.509766"/>
      <use xlink:href="#ArialMT-74" x="572.509766"/>
      <use xlink:href="#ArialMT-65" x="600.292969"/>
      <use xlink:href="#ArialMT-64" x="655.908203"/>
      <use xlink:href="#ArialMT-5f" x="711.523438"/>
      <use xlink:href="#ArialMT-30" x="767.138672"/>
      <use xlink:href="#ArialMT-2e" x="822.753906"/>
      <use xlink:href="#ArialMT-37" x="850.537109"/>
      <use xlink:href="#ArialMT-6d" x="906.152344"/>
      <use xlink:href="#ArialMT-4d" x="989.453125"/>
     </g>
    </g>
    <g id="line2d_31">
     <path d="M 324.352656 31.8225 
L 330.352656 31.8225 
L 336.352656 31.8225 
" style="fill: none; stroke: #a11a5b; stroke-width: 1.5; stroke-linecap: round"/>
    </g>
    <g id="text_15">
     <!-- blank_corrected_1mM -->
     <g style="fill: #262626" transform="translate(341.152656 33.9225) scale(0.06 -0.06)">
      <defs>
       <path id="ArialMT-31" d="M 2384 0 
L 1822 0 
L 1822 3584 
Q 1619 3391 1289 3197 
Q 959 3003 697 2906 
L 697 3450 
Q 1169 3672 1522 3987 
Q 1875 4303 2022 4600 
L 2384 4600 
L 2384 0 
z
" transform="scale(0.015625)"/>
      </defs>
      <use xlink:href="#ArialMT-62"/>
      <use xlink:href="#ArialMT-6c" x="55.615234"/>
      <use xlink:href="#ArialMT-61" x="77.832031"/>
      <use xlink:href="#ArialMT-6e" x="133.447266"/>
      <use xlink:href="#ArialMT-6b" x="189.0625"/>
      <use xlink:href="#ArialMT-5f" x="239.0625"/>
      <use xlink:href="#ArialMT-63" x="294.677734"/>
      <use xlink:href="#ArialMT-6f" x="344.677734"/>
      <use xlink:href="#ArialMT-72" x="400.292969"/>
      <use xlink:href="#ArialMT-72" x="433.59375"/>
      <use xlink:href="#ArialMT-65" x="466.894531"/>
      <use xlink:href="#ArialMT-63" x="522.509766"/>
      <use xlink:href="#ArialMT-74" x="572.509766"/>
      <use xlink:href="#ArialMT-65" x="600.292969"/>
      <use xlink:href="#ArialMT-64" x="655.908203"/>
      <use xlink:href="#ArialMT-5f" x="711.523438"/>
      <use xlink:href="#ArialMT-31" x="767.138672"/>
      <use xlink:href="#ArialMT-6d" x="822.753906"/>
      <use xlink:href="#ArialMT-4d" x="906.054688"/>
     </g>
    </g>
    <g id="line2d_32">
     <path d="M 324.352656 40.309687 
L 330.352656 40.309687 
L 336.352656 40.309687 
" style="fill: none; stroke: #4c1d4b; stroke-width: 1.5; stroke-linecap: round"/>
    </g>
    <g id="text_16">
     <!-- blank_corrected_5mM -->
     <g style="fill: #262626" transform="translate(341.152656 42.409687) scale(0.06 -0.06)">
      <defs>
       <path id="ArialMT-35" d="M 266 1200 
L 856 1250 
Q 922 819 1161 601 
Q 1400 384 1738 384 
Q 2144 384 2425 690 
Q 2706 997 2706 1503 
Q 2706 1984 2436 2262 
Q 2166 2541 1728 2541 
Q 1456 2541 1237 2417 
Q 1019 2294 894 2097 
L 366 2166 
L 809 4519 
L 3088 4519 
L 3088 3981 
L 1259 3981 
L 1013 2750 
Q 1425 3038 1878 3038 
Q 2478 3038 2890 2622 
Q 3303 2206 3303 1553 
Q 3303 931 2941 478 
Q 2500 -78 1738 -78 
Q 1113 -78 717 272 
Q 322 622 266 1200 
z
" transform="scale(0.015625)"/>
      </defs>
      <use xlink:href="#ArialMT-62"/>
      <use xlink:href="#ArialMT-6c" x="55.615234"/>
      <use xlink:href="#ArialMT-61" x="77.832031"/>
      <use xlink:href="#ArialMT-6e" x="133.447266"/>
      <use xlink:href="#ArialMT-6b" x="189.0625"/>
      <use xlink:href="#ArialMT-5f" x="239.0625"/>
      <use xlink:href="#ArialMT-63" x="294.677734"/>
      <use xlink:href="#ArialMT-6f" x="344.677734"/>
      <use xlink:href="#ArialMT-72" x="400.292969"/>
      <use xlink:href="#ArialMT-72" x="433.59375"/>
      <use xlink:href="#ArialMT-65" x="466.894531"/>
      <use xlink:href="#ArialMT-63" x="522.509766"/>
      <use xlink:href="#ArialMT-74" x="572.509766"/>
      <use xlink:href="#ArialMT-65" x="600.292969"/>
      <use xlink:href="#ArialMT-64" x="655.908203"/>
      <use xlink:href="#ArialMT-5f" x="711.523438"/>
      <use xlink:href="#ArialMT-35" x="767.138672"/>
      <use xlink:href="#ArialMT-6d" x="822.753906"/>
      <use xlink:href="#ArialMT-4d" x="906.054688"/>
     </g>
    </g>
   </g>
  </g>
 </g>
 <defs>
  <clipPath id="p93a3d29e2a">
   <rect x="53.792969" y="7.2" width="357.12" height="266.112"/>
  </clipPath>
 </defs>
</svg>
