<?xml version="1.0" encoding="utf-8" standalone="no"?>
<!DOCTYPE svg PUBLIC "-//W3C//DTD SVG 1.1//EN"
  "http://www.w3.org/Graphics/SVG/1.1/DTD/svg11.dtd">
<svg xmlns:xlink="http://www.w3.org/1999/xlink" width="449.913067pt" height="262.641094pt" viewBox="0 0 449.913067 262.641094" xmlns="http://www.w3.org/2000/svg" version="1.1">
 <metadata>
  <rdf:RDF xmlns:dc="http://purl.org/dc/elements/1.1/" xmlns:cc="http://creativecommons.org/ns#" xmlns:rdf="http://www.w3.org/1999/02/22-rdf-syntax-ns#">
   <cc:Work>
    <dc:type rdf:resource="http://purl.org/dc/dcmitype/StillImage"/>
    <dc:date>2024-11-22T16:44:14.520921</dc:date>
    <dc:format>image/svg+xml</dc:format>
    <dc:creator>
     <cc:Agent>
      <dc:title>Matplotlib v3.7.1, https://matplotlib.org/</dc:title>
     </cc:Agent>
    </dc:creator>
   </cc:Work>
  </rdf:RDF>
 </metadata>
 <defs>
  <style type="text/css">*{stroke-linejoin: round; stroke-linecap: butt}</style>
 </defs>
 <g id="figure_1">
  <g id="patch_1">
   <path d="M 0 262.641094 
L 449.913068 262.641094 
L 449.913068 0 
L 0 0 
z
" style="fill: #ffffff"/>
  </g>
  <g id="axes_1">
   <g id="patch_2">
    <path d="M 22.6975 56.748837 
L 294.900768 56.748837 
L 294.900768 7.2 
L 22.6975 7.2 
z
" style="fill: #ffffff"/>
   </g>
   <g id="matplotlib.axis_1">
    <g id="xtick_1">
     <g id="line2d_1">
      <defs>
       <path id="m3410e6fc43" d="M 0 0 
L 0 6 
" style="stroke: #262626; stroke-width: 1.25"/>
      </defs>
      <g>
       <use xlink:href="#m3410e6fc43" x="36.307663" y="56.748837" style="fill: #262626; stroke: #262626; stroke-width: 1.25"/>
      </g>
     </g>
    </g>
    <g id="xtick_2">
     <g id="line2d_2">
      <g>
       <use xlink:href="#m3410e6fc43" x="90.748317" y="56.748837" style="fill: #262626; stroke: #262626; stroke-width: 1.25"/>
      </g>
     </g>
    </g>
    <g id="xtick_3">
     <g id="line2d_3">
      <g>
       <use xlink:href="#m3410e6fc43" x="145.18897" y="56.748837" style="fill: #262626; stroke: #262626; stroke-width: 1.25"/>
      </g>
     </g>
    </g>
    <g id="xtick_4">
     <g id="line2d_4">
      <g>
       <use xlink:href="#m3410e6fc43" x="199.629624" y="56.748837" style="fill: #262626; stroke: #262626; stroke-width: 1.25"/>
      </g>
     </g>
    </g>
    <g id="xtick_5">
     <g id="line2d_5">
      <g>
       <use xlink:href="#m3410e6fc43" x="254.070277" y="56.748837" style="fill: #262626; stroke: #262626; stroke-width: 1.25"/>
      </g>
     </g>
    </g>
   </g>
   <g id="matplotlib.axis_2">
    <g id="text_1">
     <!-- Signal intensity -->
     <g style="fill: #262626" transform="translate(16.0425 72.329106) rotate(-90) scale(0.12 -0.12)">
      <defs>
       <path id="Helvetica-53" d="M 894 1481 
Q 916 1091 1078 847 
Q 1388 391 2169 391 
Q 2519 391 2806 491 
Q 3363 684 3363 1184 
Q 3363 1559 3128 1719 
Q 2891 1875 2384 1991 
L 1763 2131 
Q 1153 2269 900 2434 
Q 463 2722 463 3294 
Q 463 3913 891 4309 
Q 1319 4706 2103 4706 
Q 2825 4706 3329 4357 
Q 3834 4009 3834 3244 
L 3250 3244 
Q 3203 3613 3050 3809 
Q 2766 4169 2084 4169 
Q 1534 4169 1293 3937 
Q 1053 3706 1053 3400 
Q 1053 3063 1334 2906 
Q 1519 2806 2169 2656 
L 2813 2509 
Q 3278 2403 3531 2219 
Q 3969 1897 3969 1284 
Q 3969 522 3414 194 
Q 2859 -134 2125 -134 
Q 1269 -134 784 303 
Q 300 738 309 1481 
L 894 1481 
z
M 2150 4716 
L 2150 4716 
z
" transform="scale(0.015625)"/>
       <path id="Helvetica-69" d="M 413 3331 
L 984 3331 
L 984 0 
L 413 0 
L 413 3331 
z
M 413 4591 
L 984 4591 
L 984 3953 
L 413 3953 
L 413 4591 
z
" transform="scale(0.015625)"/>
       <path id="Helvetica-67" d="M 1594 3406 
Q 1988 3406 2281 3213 
Q 2441 3103 2606 2894 
L 2606 3316 
L 3125 3316 
L 3125 272 
Q 3125 -366 2938 -734 
Q 2588 -1416 1616 -1416 
Q 1075 -1416 706 -1173 
Q 338 -931 294 -416 
L 866 -416 
Q 906 -641 1028 -763 
Q 1219 -950 1628 -950 
Q 2275 -950 2475 -494 
Q 2594 -225 2584 466 
Q 2416 209 2178 84 
Q 1941 -41 1550 -41 
Q 1006 -41 598 345 
Q 191 731 191 1622 
Q 191 2463 602 2934 
Q 1013 3406 1594 3406 
z
M 2606 1688 
Q 2606 2309 2350 2609 
Q 2094 2909 1697 2909 
Q 1103 2909 884 2353 
Q 769 2056 769 1575 
Q 769 1009 998 714 
Q 1228 419 1616 419 
Q 2222 419 2469 966 
Q 2606 1275 2606 1688 
z
M 1659 3428 
L 1659 3428 
z
" transform="scale(0.015625)"/>
       <path id="Helvetica-6e" d="M 413 3347 
L 947 3347 
L 947 2872 
Q 1184 3166 1450 3294 
Q 1716 3422 2041 3422 
Q 2753 3422 3003 2925 
Q 3141 2653 3141 2147 
L 3141 0 
L 2569 0 
L 2569 2109 
Q 2569 2416 2478 2603 
Q 2328 2916 1934 2916 
Q 1734 2916 1606 2875 
Q 1375 2806 1200 2600 
Q 1059 2434 1017 2257 
Q 975 2081 975 1753 
L 975 0 
L 413 0 
L 413 3347 
z
M 1734 3428 
L 1734 3428 
z
" transform="scale(0.015625)"/>
       <path id="Helvetica-61" d="M 844 891 
Q 844 647 1022 506 
Q 1200 366 1444 366 
Q 1741 366 2019 503 
Q 2488 731 2488 1250 
L 2488 1703 
Q 2384 1638 2221 1594 
Q 2059 1550 1903 1531 
L 1563 1488 
Q 1256 1447 1103 1359 
Q 844 1213 844 891 
z
M 2206 2028 
Q 2400 2053 2466 2191 
Q 2503 2266 2503 2406 
Q 2503 2694 2298 2823 
Q 2094 2953 1713 2953 
Q 1272 2953 1088 2716 
Q 984 2584 953 2325 
L 428 2325 
Q 444 2944 830 3186 
Q 1216 3428 1725 3428 
Q 2316 3428 2684 3203 
Q 3050 2978 3050 2503 
L 3050 575 
Q 3050 488 3086 434 
Q 3122 381 3238 381 
Q 3275 381 3322 386 
Q 3369 391 3422 400 
L 3422 -16 
Q 3291 -53 3222 -62 
Q 3153 -72 3034 -72 
Q 2744 -72 2613 134 
Q 2544 244 2516 444 
Q 2344 219 2022 53 
Q 1700 -113 1313 -113 
Q 847 -113 551 170 
Q 256 453 256 878 
Q 256 1344 547 1600 
Q 838 1856 1309 1916 
L 2206 2028 
z
M 1741 3428 
L 1741 3428 
z
" transform="scale(0.015625)"/>
       <path id="Helvetica-6c" d="M 428 4591 
L 991 4591 
L 991 0 
L 428 0 
L 428 4591 
z
" transform="scale(0.015625)"/>
       <path id="Helvetica-20" transform="scale(0.015625)"/>
       <path id="Helvetica-74" d="M 525 4281 
L 1094 4281 
L 1094 3347 
L 1628 3347 
L 1628 2888 
L 1094 2888 
L 1094 703 
Q 1094 528 1213 469 
Q 1278 434 1431 434 
Q 1472 434 1519 436 
Q 1566 438 1628 444 
L 1628 0 
Q 1531 -28 1426 -40 
Q 1322 -53 1200 -53 
Q 806 -53 665 148 
Q 525 350 525 672 
L 525 2888 
L 72 2888 
L 72 3347 
L 525 3347 
L 525 4281 
z
" transform="scale(0.015625)"/>
       <path id="Helvetica-65" d="M 1806 3422 
Q 2163 3422 2497 3255 
Q 2831 3088 3006 2822 
Q 3175 2569 3231 2231 
Q 3281 2000 3281 1494 
L 828 1494 
Q 844 984 1069 676 
Q 1294 369 1766 369 
Q 2206 369 2469 659 
Q 2619 828 2681 1050 
L 3234 1050 
Q 3213 866 3089 639 
Q 2966 413 2813 269 
Q 2556 19 2178 -69 
Q 1975 -119 1719 -119 
Q 1094 -119 659 336 
Q 225 791 225 1609 
Q 225 2416 662 2919 
Q 1100 3422 1806 3422 
z
M 2703 1941 
Q 2669 2306 2544 2525 
Q 2313 2931 1772 2931 
Q 1384 2931 1121 2651 
Q 859 2372 844 1941 
L 2703 1941 
z
M 1753 3428 
L 1753 3428 
z
" transform="scale(0.015625)"/>
       <path id="Helvetica-73" d="M 747 1050 
Q 772 769 888 619 
Q 1100 347 1625 347 
Q 1938 347 2175 483 
Q 2413 619 2413 903 
Q 2413 1119 2222 1231 
Q 2100 1300 1741 1391 
L 1294 1503 
Q 866 1609 663 1741 
Q 300 1969 300 2372 
Q 300 2847 642 3140 
Q 984 3434 1563 3434 
Q 2319 3434 2653 2991 
Q 2863 2709 2856 2384 
L 2325 2384 
Q 2309 2575 2191 2731 
Q 1997 2953 1519 2953 
Q 1200 2953 1036 2831 
Q 872 2709 872 2509 
Q 872 2291 1088 2159 
Q 1213 2081 1456 2022 
L 1828 1931 
Q 2434 1784 2641 1647 
Q 2969 1431 2969 969 
Q 2969 522 2630 197 
Q 2291 -128 1597 -128 
Q 850 -128 539 211 
Q 228 550 206 1050 
L 747 1050 
z
M 1578 3428 
L 1578 3428 
z
" transform="scale(0.015625)"/>
       <path id="Helvetica-79" d="M 2503 3347 
L 3125 3347 
Q 3006 3025 2597 1878 
Q 2291 1016 2084 472 
Q 1597 -809 1397 -1090 
Q 1197 -1372 709 -1372 
Q 591 -1372 527 -1362 
Q 463 -1353 369 -1328 
L 369 -816 
Q 516 -856 581 -865 
Q 647 -875 697 -875 
Q 853 -875 926 -823 
Q 1000 -772 1050 -697 
Q 1066 -672 1162 -440 
Q 1259 -209 1303 -97 
L 66 3347 
L 703 3347 
L 1600 622 
L 2503 3347 
z
M 1597 3428 
L 1597 3428 
z
" transform="scale(0.015625)"/>
      </defs>
      <use xlink:href="#Helvetica-53"/>
      <use xlink:href="#Helvetica-69" x="66.699219"/>
      <use xlink:href="#Helvetica-67" x="88.916016"/>
      <use xlink:href="#Helvetica-6e" x="144.53125"/>
      <use xlink:href="#Helvetica-61" x="200.146484"/>
      <use xlink:href="#Helvetica-6c" x="255.761719"/>
      <use xlink:href="#Helvetica-20" x="277.978516"/>
      <use xlink:href="#Helvetica-69" x="305.761719"/>
      <use xlink:href="#Helvetica-6e" x="327.978516"/>
      <use xlink:href="#Helvetica-74" x="383.59375"/>
      <use xlink:href="#Helvetica-65" x="411.376953"/>
      <use xlink:href="#Helvetica-6e" x="466.992188"/>
      <use xlink:href="#Helvetica-73" x="522.607422"/>
      <use xlink:href="#Helvetica-69" x="572.607422"/>
      <use xlink:href="#Helvetica-74" x="594.824219"/>
      <use xlink:href="#Helvetica-79" x="622.607422"/>
     </g>
    </g>
   </g>
   <g id="line2d_6">
    <path d="M -1 34.834973 
L 0.64877 35.630833 
L 2.282255 36.379809 
L 3.91574 36.874579 
L 5.004288 37.017805 
L 6.092835 36.956154 
L 7.182047 36.714937 
L 9.359806 36.103326 
L 10.448353 36.0407 
L 11.5369 36.270862 
L 13.170386 36.978528 
L 14.803871 37.679331 
L 15.892418 37.954088 
L 17.525904 38.131217 
L 19.158725 38.307038 
L 20.79221 38.726971 
L 22.969969 39.360177 
L 24.058516 39.402503 
L 25.147064 39.125156 
L 26.236275 38.561857 
L 28.958308 36.924771 
L 30.046855 36.551327 
L 31.136067 36.414714 
L 32.224614 36.483383 
L 33.313162 36.730573 
L 34.946647 37.343702 
L 37.124406 38.184208 
L 38.212953 38.308764 
L 39.302165 38.056144 
L 40.390712 37.414793 
L 44.201292 34.464346 
L 45.834778 33.742184 
L 47.468263 33.046618 
L 49.101084 32.121682 
L 51.278843 30.884243 
L 52.36739 30.573481 
L 53.456602 30.593252 
L 54.545149 30.92476 
L 55.634361 31.507857 
L 60.533488 34.560179 
L 61.6227 34.82982 
L 62.711247 34.907767 
L 63.800459 34.821096 
L 64.889006 34.584795 
L 65.977554 34.166491 
L 67.066766 33.498477 
L 68.155313 32.585711 
L 71.966557 28.97428 
L 74.68859 26.921744 
L 75.777137 26.320547 
L 76.865684 26.072717 
L 77.410623 26.11922 
L 78.49917 26.552728 
L 80.132655 27.710595 
L 81.765476 28.80027 
L 82.854688 29.218379 
L 83.943235 29.37014 
L 86.120994 29.250848 
L 90.475848 28.83899 
L 94.287092 27.838953 
L 95.37564 27.927461 
L 96.464851 28.415506 
L 97.553399 29.401578 
L 98.641946 30.864473 
L 102.45319 36.771465 
L 103.541738 37.704727 
L 104.630949 38.157504 
L 105.719497 38.227676 
L 106.808044 38.058093 
L 108.441529 37.547159 
L 110.075015 36.849712 
L 111.707836 35.932838 
L 113.885595 34.355774 
L 116.063354 32.473726 
L 117.696175 30.861452 
L 119.32966 28.956876 
L 122.595966 24.879234 
L 123.685178 24.095644 
L 124.229452 23.918683 
L 124.773725 23.876077 
L 125.317999 23.978134 
L 126.407211 24.529904 
L 127.495758 25.390627 
L 137.295341 34.338872 
L 138.383889 35.017453 
L 139.472436 35.337628 
L 140.017374 35.335748 
L 140.561648 35.214214 
L 141.650195 34.630017 
L 142.739407 33.606102 
L 143.827954 32.231855 
L 147.09426 27.795694 
L 148.183472 26.74715 
L 149.272019 26.056288 
L 150.360567 25.689555 
L 151.449778 25.630479 
L 152.538326 25.816282 
L 156.893844 27.150778 
L 157.982391 27.631012 
L 159.071603 28.415492 
L 160.16015 29.633397 
L 161.248697 31.346139 
L 162.337909 33.512274 
L 165.604215 40.71475 
L 166.692763 42.440721 
L 167.781974 43.519576 
L 168.326248 43.8135 
L 168.870522 43.968455 
L 169.414795 43.97777 
L 170.504007 43.655855 
L 171.592554 42.965968 
L 172.681766 42.029364 
L 174.314587 40.297894 
L 175.948073 38.138012 
L 177.03662 36.380645 
L 178.670105 33.163029 
L 181.936411 26.107107 
L 183.024959 24.369051 
L 183.569897 23.755964 
L 184.114171 23.328902 
L 184.658444 23.114209 
L 185.202718 23.12131 
L 185.746991 23.348394 
L 186.29193 23.785439 
L 187.380477 25.219373 
L 188.469024 27.22109 
L 191.191057 32.678089 
L 192.280269 34.3446 
L 193.368816 35.538441 
L 194.458028 36.313729 
L 195.546575 36.797626 
L 197.18006 37.241131 
L 199.902093 37.75652 
L 203.712673 38.30293 
L 204.80122 38.353722 
L 205.890432 38.187039 
L 206.978979 37.72944 
L 208.068191 36.977359 
L 211.334497 34.206464 
L 212.423045 33.688735 
L 213.512256 33.458169 
L 215.145077 33.457334 
L 217.322836 33.689403 
L 218.956322 34.056373 
L 221.678354 34.764736 
L 223.311175 34.898815 
L 224.944661 34.962861 
L 226.033208 35.17463 
L 227.12242 35.559324 
L 230.933 37.167019 
L 232.021547 37.242342 
L 233.110759 37.058279 
L 234.74358 36.428679 
L 238.01055 34.998504 
L 240.732583 34.195979 
L 243.454616 33.272185 
L 245.087437 32.839875 
L 246.176648 32.805206 
L 247.265196 33.064871 
L 248.353743 33.587682 
L 249.987228 34.742738 
L 252.164987 36.337066 
L 253.797808 37.256126 
L 257.064779 38.709831 
L 258.153326 39.043149 
L 259.241874 39.168039 
L 260.331085 39.087564 
L 264.685939 38.344491 
L 267.407972 38.11341 
L 272.307763 37.357653 
L 275.029796 37.445633 
L 276.663281 37.420682 
L 280.473861 37.204405 
L 281.563073 37.49059 
L 282.65162 38.030261 
L 286.4622 40.302934 
L 287.551412 40.528529 
L 288.639959 40.50855 
L 289.729171 40.271719 
L 290.817718 39.816588 
L 291.906266 39.120673 
L 293.539751 37.682422 
L 295.71751 35.642233 
L 296.806057 34.865053 
L 297.895269 34.353881 
L 298.983817 34.093297 
L 300.072364 34.054354 
L 301.705849 34.227111 
L 305.516429 34.860387 
L 307.149915 34.927775 
L 312.59398 34.850878 
L 316.949498 35.506765 
L 318.038045 35.325654 
L 319.671531 34.766657 
L 321.848625 34.018043 
L 323.482111 33.734124 
L 331.103935 33.062866 
L 332.192482 33.283435 
L 333.825968 33.905893 
L 335.458789 34.798353 
L 338.725759 36.68344 
L 340.35858 37.309013 
L 343.624887 38.215466 
L 344.714098 38.379632 
L 345.802646 38.308848 
L 346.891857 37.946779 
L 347.980405 37.330224 
L 349.61389 36.116469 
L 352.880196 33.649737 
L 354.513017 32.738042 
L 356.146503 32.075593 
L 357.23505 31.773425 
L 358.324262 31.657418 
L 359.412809 31.820819 
L 360.502021 32.286601 
L 364.312601 34.418331 
L 365.401148 34.574686 
L 366.49036 34.512033 
L 371.390151 33.820684 
L 372.478699 33.983291 
L 374.112184 34.503066 
L 376.834217 35.537354 
L 377.922764 35.727431 
L 379.011311 35.69914 
L 380.100523 35.43772 
L 381.733344 34.739716 
L 384.455377 33.544478 
L 385.544588 33.280525 
L 387.177409 33.131744 
L 388.810895 33.197711 
L 390.44438 33.461597 
L 393.710687 34.321621 
L 395.888446 35.119634 
L 399.699025 36.790303 
L 400.787573 37.044788 
L 402.421058 37.113192 
L 404.598817 37.025171 
L 406.231638 37.21781 
L 408.953671 37.731027 
L 410.042883 37.747693 
L 411.675703 37.499821 
L 413.853462 36.81535 
L 417.664707 35.421514 
L 418.753254 35.285862 
L 419.841801 35.411531 
L 420.931013 35.794874 
L 424.741593 37.570982 
L 425.830805 37.734118 
L 426.919352 37.636685 
L 428.007899 37.311052 
L 429.641385 36.536569 
L 431.27487 35.742529 
L 432.363418 35.410417 
L 433.451965 35.330143 
L 434.541177 35.455386 
L 436.718936 35.853992 
L 438.351757 35.871465 
L 443.795822 35.414579 
L 444.340096 35.30644 
L 444.340096 35.30644 
" clip-path="url(#pd7677ea895)" style="fill: none; stroke: #f69c73; stroke-width: 1.5; stroke-linecap: round"/>
   </g>
   <g id="patch_3">
    <path d="M 22.6975 56.748837 
L 294.900767 56.748837 
" style="fill: none; stroke: #262626; stroke-width: 1.25; stroke-linejoin: miter; stroke-linecap: square"/>
   </g>
  </g>
  <g id="axes_2">
   <g id="patch_4">
    <path d="M 22.6975 111.252558 
L 294.900768 111.252558 
L 294.900768 61.703721 
L 22.6975 61.703721 
z
" style="fill: #ffffff"/>
   </g>
   <g id="matplotlib.axis_3">
    <g id="xtick_6">
     <g id="line2d_7">
      <g>
       <use xlink:href="#m3410e6fc43" x="36.307663" y="111.252558" style="fill: #262626; stroke: #262626; stroke-width: 1.25"/>
      </g>
     </g>
    </g>
    <g id="xtick_7">
     <g id="line2d_8">
      <g>
       <use xlink:href="#m3410e6fc43" x="90.748317" y="111.252558" style="fill: #262626; stroke: #262626; stroke-width: 1.25"/>
      </g>
     </g>
    </g>
    <g id="xtick_8">
     <g id="line2d_9">
      <g>
       <use xlink:href="#m3410e6fc43" x="145.18897" y="111.252558" style="fill: #262626; stroke: #262626; stroke-width: 1.25"/>
      </g>
     </g>
    </g>
    <g id="xtick_9">
     <g id="line2d_10">
      <g>
       <use xlink:href="#m3410e6fc43" x="199.629624" y="111.252558" style="fill: #262626; stroke: #262626; stroke-width: 1.25"/>
      </g>
     </g>
    </g>
    <g id="xtick_10">
     <g id="line2d_11">
      <g>
       <use xlink:href="#m3410e6fc43" x="254.070277" y="111.252558" style="fill: #262626; stroke: #262626; stroke-width: 1.25"/>
      </g>
     </g>
    </g>
   </g>
   <g id="matplotlib.axis_4">
    <g id="text_2">
     <!-- Signal intensity -->
     <g style="fill: #262626" transform="translate(16.0425 126.832827) rotate(-90) scale(0.12 -0.12)">
      <use xlink:href="#Helvetica-53"/>
      <use xlink:href="#Helvetica-69" x="66.699219"/>
      <use xlink:href="#Helvetica-67" x="88.916016"/>
      <use xlink:href="#Helvetica-6e" x="144.53125"/>
      <use xlink:href="#Helvetica-61" x="200.146484"/>
      <use xlink:href="#Helvetica-6c" x="255.761719"/>
      <use xlink:href="#Helvetica-20" x="277.978516"/>
      <use xlink:href="#Helvetica-69" x="305.761719"/>
      <use xlink:href="#Helvetica-6e" x="327.978516"/>
      <use xlink:href="#Helvetica-74" x="383.59375"/>
      <use xlink:href="#Helvetica-65" x="411.376953"/>
      <use xlink:href="#Helvetica-6e" x="466.992188"/>
      <use xlink:href="#Helvetica-73" x="522.607422"/>
      <use xlink:href="#Helvetica-69" x="572.607422"/>
      <use xlink:href="#Helvetica-74" x="594.824219"/>
      <use xlink:href="#Helvetica-79" x="622.607422"/>
     </g>
    </g>
   </g>
   <g id="line2d_12">
    <path d="M -1 92.418521 
L 0.104496 91.975515 
L 1.737981 91.326144 
L 3.370802 90.954399 
L 7.182047 90.448574 
L 13.170386 89.018636 
L 15.348145 88.945957 
L 18.614451 88.839182 
L 20.79221 88.748988 
L 21.880757 88.917875 
L 23.514243 89.485378 
L 24.60279 89.86311 
L 25.692002 90.014036 
L 26.780549 89.834011 
L 27.869096 89.351577 
L 29.502582 88.303033 
L 32.224614 86.530406 
L 33.313162 86.112395 
L 34.402373 86.059014 
L 35.490921 86.439962 
L 36.580132 87.179304 
L 38.212953 88.452149 
L 39.302165 89.042347 
L 40.390712 89.311897 
L 43.112745 89.581308 
L 44.201292 89.952496 
L 47.468263 91.301639 
L 48.55681 91.463147 
L 49.645358 91.432238 
L 50.734569 91.207826 
L 51.823117 90.760451 
L 52.912329 90.053174 
L 54.000876 89.091885 
L 56.722908 86.446255 
L 57.811456 85.865803 
L 58.356394 85.769706 
L 58.900667 85.810696 
L 59.989215 86.261148 
L 63.255521 88.35413 
L 63.800459 88.447554 
L 64.344733 88.418873 
L 65.43328 88.046988 
L 68.155313 86.633659 
L 69.788798 86.175034 
L 71.966557 85.595139 
L 74.143652 84.952869 
L 75.232864 84.843295 
L 76.321411 84.938111 
L 80.132655 85.599595 
L 81.221203 85.354967 
L 82.30975 84.820739 
L 84.487509 83.298533 
L 89.387301 79.900474 
L 91.020786 78.933518 
L 92.109333 78.531839 
L 93.19788 78.350978 
L 94.831366 78.374229 
L 96.464851 78.587531 
L 97.553399 78.868916 
L 98.641946 79.361513 
L 99.731158 80.132989 
L 100.819705 81.168864 
L 102.997464 83.658305 
L 106.808044 88.281452 
L 111.163562 94.144308 
L 111.707836 94.594719 
L 112.252109 94.896709 
L 112.797047 95.032041 
L 113.341321 94.988323 
L 113.885595 94.75915 
L 114.429868 94.344104 
L 114.974142 93.749047 
L 116.063354 92.070762 
L 117.151901 89.88664 
L 120.418207 82.812479 
L 121.507419 81.075022 
L 122.595966 79.87583 
L 123.685178 79.227573 
L 124.229452 79.096975 
L 125.317999 79.18107 
L 126.407211 79.651112 
L 127.495758 80.392375 
L 130.762064 82.900612 
L 132.939823 84.14408 
L 135.117582 85.422758 
L 138.383889 87.755439 
L 144.916501 92.361183 
L 146.005713 92.724992 
L 147.09426 92.697147 
L 147.638534 92.516008 
L 148.727746 91.790338 
L 149.816293 90.554612 
L 150.905505 88.80656 
L 151.994052 86.605535 
L 155.260358 79.315706 
L 156.34957 77.688241 
L 156.893844 77.189657 
L 157.438117 76.932358 
L 157.982391 76.925119 
L 158.526665 77.167936 
L 159.071603 77.653573 
L 159.615876 78.363091 
L 160.704424 80.327355 
L 163.97073 87.201024 
L 165.059942 88.615048 
L 165.604215 89.060725 
L 166.148489 89.346231 
L 167.237701 89.542922 
L 169.959734 89.448482 
L 171.048281 89.710653 
L 172.136828 90.213414 
L 173.770313 91.268642 
L 176.492346 93.160227 
L 177.580893 93.674823 
L 178.670105 93.892022 
L 179.758652 93.759753 
L 180.847864 93.28637 
L 181.936411 92.50292 
L 183.569897 90.882834 
L 186.29193 87.996823 
L 187.380477 87.122136 
L 188.469024 86.46714 
L 189.558236 86.014919 
L 191.191057 85.655148 
L 192.824542 85.561167 
L 194.458028 85.688702 
L 195.546575 85.992921 
L 196.635122 86.57755 
L 197.724334 87.486446 
L 198.812881 88.689954 
L 200.99064 91.574225 
L 202.624126 93.638414 
L 203.712673 94.768353 
L 204.80122 95.64531 
L 205.890432 96.252157 
L 206.978979 96.565178 
L 208.068191 96.54634 
L 209.156738 96.163707 
L 210.245285 95.421032 
L 211.334497 94.373272 
L 214.600804 90.892859 
L 215.145077 90.554529 
L 215.689351 90.356543 
L 216.234289 90.31185 
L 216.778563 90.423234 
L 217.322836 90.682899 
L 218.411384 91.571329 
L 221.678354 95.004752 
L 222.766902 95.64744 
L 223.855449 95.885942 
L 224.944661 95.820365 
L 227.666693 95.223205 
L 229.299514 94.677004 
L 230.933 93.776879 
L 233.110759 92.404623 
L 234.199306 91.938758 
L 235.288518 91.711812 
L 236.377065 91.705129 
L 238.01055 91.980527 
L 242.365404 93.004707 
L 246.176648 93.547845 
L 247.809469 94.104627 
L 250.531502 95.123376 
L 252.164987 95.46115 
L 253.797808 95.565572 
L 255.431294 95.458365 
L 262.508844 94.618527 
L 266.319424 94.411909 
L 271.219216 93.559262 
L 273.941249 93.463053 
L 275.029796 93.235829 
L 276.663281 92.590774 
L 280.473861 90.799714 
L 281.563073 90.537543 
L 282.65162 90.45651 
L 284.285106 90.612031 
L 285.917927 90.809696 
L 287.007139 90.767691 
L 288.095686 90.525583 
L 291.361992 89.486464 
L 292.451204 89.400433 
L 296.261784 89.411795 
L 297.895269 89.092651 
L 302.250123 88.103488 
L 303.339335 88.125625 
L 304.427882 88.354186 
L 306.061367 88.978454 
L 307.694188 89.607187 
L 308.7834 89.858935 
L 310.416221 89.937981 
L 313.682527 89.863792 
L 316.949498 90.032192 
L 320.760078 89.790293 
L 322.393563 90.170322 
L 324.026384 90.587053 
L 325.115596 90.638944 
L 326.204143 90.431741 
L 327.292691 89.997969 
L 329.47045 88.785536 
L 331.103935 87.931318 
L 332.192482 87.571516 
L 333.281694 87.500522 
L 334.370241 87.787379 
L 335.458789 88.423913 
L 337.092274 89.787388 
L 338.725759 91.126919 
L 339.814307 91.781066 
L 340.902854 92.186755 
L 341.992066 92.356227 
L 343.624887 92.278327 
L 345.802646 92.080328 
L 346.891857 92.214574 
L 347.980405 92.585859 
L 351.790985 94.371671 
L 352.880196 94.412884 
L 353.968744 94.09878 
L 355.057955 93.487001 
L 359.957083 90.167329 
L 362.134842 89.256065 
L 363.768327 88.777043 
L 364.856874 88.606472 
L 365.946086 88.605288 
L 367.578907 88.890903 
L 369.212392 89.215045 
L 370.30094 89.23668 
L 371.390151 89.036992 
L 375.200731 87.894837 
L 376.289279 87.925676 
L 377.37849 88.191189 
L 379.011311 88.918919 
L 382.278282 90.63066 
L 383.366829 90.938415 
L 384.455377 91.002684 
L 386.088862 90.747409 
L 388.266621 90.369269 
L 389.355168 90.394607 
L 390.44438 90.629685 
L 391.532927 91.075585 
L 393.710687 92.346105 
L 394.799234 92.912397 
L 395.888446 93.227754 
L 396.976993 93.187516 
L 398.06554 92.780685 
L 399.154752 92.094139 
L 401.876785 90.134749 
L 402.965332 89.581865 
L 404.054544 89.247851 
L 405.143091 89.113911 
L 409.498609 88.930962 
L 417.664707 87.747768 
L 418.753254 87.939057 
L 419.841801 88.35963 
L 422.019561 89.571979 
L 423.653046 90.352088 
L 424.741593 90.604234 
L 425.830805 90.579451 
L 427.463626 90.158418 
L 429.097111 89.75994 
L 430.185659 89.761388 
L 431.27487 90.012407 
L 434.541177 91.037255 
L 435.629724 91.069152 
L 436.718936 90.912045 
L 438.89603 90.29194 
L 444.340096 88.475539 
L 444.340096 88.475539 
" clip-path="url(#pc24c5a5808)" style="fill: none; stroke: #e83f3f; stroke-width: 1.5; stroke-linecap: round"/>
   </g>
   <g id="patch_5">
    <path d="M 22.6975 111.252558 
L 294.900767 111.252558 
" style="fill: none; stroke: #262626; stroke-width: 1.25; stroke-linejoin: miter; stroke-linecap: square"/>
   </g>
  </g>
  <g id="axes_3">
   <g id="patch_6">
    <path d="M 22.6975 165.756279 
L 294.900768 165.756279 
L 294.900768 116.207442 
L 22.6975 116.207442 
z
" style="fill: #ffffff"/>
   </g>
   <g id="matplotlib.axis_5">
    <g id="xtick_11">
     <g id="line2d_13">
      <g>
       <use xlink:href="#m3410e6fc43" x="36.307663" y="165.756279" style="fill: #262626; stroke: #262626; stroke-width: 1.25"/>
      </g>
     </g>
    </g>
    <g id="xtick_12">
     <g id="line2d_14">
      <g>
       <use xlink:href="#m3410e6fc43" x="90.748317" y="165.756279" style="fill: #262626; stroke: #262626; stroke-width: 1.25"/>
      </g>
     </g>
    </g>
    <g id="xtick_13">
     <g id="line2d_15">
      <g>
       <use xlink:href="#m3410e6fc43" x="145.18897" y="165.756279" style="fill: #262626; stroke: #262626; stroke-width: 1.25"/>
      </g>
     </g>
    </g>
    <g id="xtick_14">
     <g id="line2d_16">
      <g>
       <use xlink:href="#m3410e6fc43" x="199.629624" y="165.756279" style="fill: #262626; stroke: #262626; stroke-width: 1.25"/>
      </g>
     </g>
    </g>
    <g id="xtick_15">
     <g id="line2d_17">
      <g>
       <use xlink:href="#m3410e6fc43" x="254.070277" y="165.756279" style="fill: #262626; stroke: #262626; stroke-width: 1.25"/>
      </g>
     </g>
    </g>
   </g>
   <g id="matplotlib.axis_6">
    <g id="text_3">
     <!-- Signal intensity -->
     <g style="fill: #262626" transform="translate(16.0425 181.336548) rotate(-90) scale(0.12 -0.12)">
      <use xlink:href="#Helvetica-53"/>
      <use xlink:href="#Helvetica-69" x="66.699219"/>
      <use xlink:href="#Helvetica-67" x="88.916016"/>
      <use xlink:href="#Helvetica-6e" x="144.53125"/>
      <use xlink:href="#Helvetica-61" x="200.146484"/>
      <use xlink:href="#Helvetica-6c" x="255.761719"/>
      <use xlink:href="#Helvetica-20" x="277.978516"/>
      <use xlink:href="#Helvetica-69" x="305.761719"/>
      <use xlink:href="#Helvetica-6e" x="327.978516"/>
      <use xlink:href="#Helvetica-74" x="383.59375"/>
      <use xlink:href="#Helvetica-65" x="411.376953"/>
      <use xlink:href="#Helvetica-6e" x="466.992188"/>
      <use xlink:href="#Helvetica-73" x="522.607422"/>
      <use xlink:href="#Helvetica-69" x="572.607422"/>
      <use xlink:href="#Helvetica-74" x="594.824219"/>
      <use xlink:href="#Helvetica-79" x="622.607422"/>
     </g>
    </g>
   </g>
   <g id="line2d_18">
    <path d="M -1 142.16987 
L 2.282255 142.057415 
L 3.370802 142.432224 
L 4.460014 143.123225 
L 6.092835 144.559665 
L 9.904079 148.147774 
L 10.992627 148.927311 
L 12.081838 149.40693 
L 13.170386 149.507526 
L 14.258933 149.242279 
L 15.348145 148.715695 
L 18.070177 147.224606 
L 19.702998 146.661475 
L 21.880757 146.0298 
L 22.969969 145.529406 
L 24.60279 144.453864 
L 27.869096 142.102735 
L 29.502582 141.326748 
L 31.136067 140.825727 
L 35.490921 139.8297 
L 36.580132 139.811168 
L 37.66868 140.03189 
L 38.757227 140.533259 
L 39.846439 141.315735 
L 41.47926 142.87442 
L 43.112745 144.440623 
L 44.201292 145.172419 
L 45.290504 145.50039 
L 46.379051 145.406061 
L 47.468263 144.958547 
L 49.101084 143.890287 
L 50.734569 142.79989 
L 51.823117 142.321271 
L 52.912329 142.152802 
L 54.000876 142.277372 
L 55.634361 142.778671 
L 61.078427 144.717984 
L 63.255521 145.743127 
L 64.344733 145.975765 
L 65.43328 145.851167 
L 66.522492 145.360979 
L 67.611039 144.597118 
L 71.966557 141.146431 
L 73.599378 140.253824 
L 74.68859 139.922734 
L 75.777137 139.846018 
L 77.410623 140.08981 
L 79.587717 140.455708 
L 80.676929 140.449721 
L 81.765476 140.267051 
L 82.854688 139.873725 
L 83.943235 139.219898 
L 85.031782 138.253221 
L 86.120994 136.949049 
L 87.209541 135.319078 
L 88.843027 132.399832 
L 91.56506 127.290771 
L 92.653607 125.619031 
L 93.742819 124.385449 
L 94.287092 123.970542 
L 94.831366 123.707396 
L 95.37564 123.600188 
L 95.919913 123.654488 
L 96.464851 123.863335 
L 97.009125 124.222549 
L 98.097672 125.343354 
L 99.186884 126.916658 
L 100.275431 128.856139 
L 101.908917 132.393986 
L 103.541738 136.678803 
L 107.352982 147.626272 
L 108.441529 149.738482 
L 108.985803 150.405549 
L 109.530077 150.769818 
L 110.075015 150.810347 
L 110.619288 150.517657 
L 111.163562 149.892986 
L 111.707836 148.947681 
L 112.797047 146.182007 
L 113.885595 142.450755 
L 115.51908 135.684489 
L 117.696175 126.364554 
L 118.785386 122.539531 
L 119.873934 119.83289 
L 120.418207 118.995418 
L 120.963145 118.533591 
L 121.507419 118.459662 
L 122.051693 118.769448 
L 122.595966 119.453765 
L 123.14024 120.490615 
L 124.229452 123.486577 
L 125.317999 127.419142 
L 128.584305 140.4209 
L 129.673517 143.66859 
L 130.217791 144.90259 
L 130.762064 145.860913 
L 131.306338 146.55275 
L 131.851276 147.003439 
L 132.39555 147.25294 
L 133.484097 147.353603 
L 135.117582 147.34323 
L 135.661856 147.492374 
L 136.20613 147.775708 
L 136.750403 148.21143 
L 137.839615 149.551969 
L 138.928162 151.408691 
L 141.105921 155.412541 
L 142.194469 156.790087 
L 142.739407 157.18773 
L 143.28368 157.359541 
L 143.827954 157.290203 
L 144.372228 156.974847 
L 144.916501 156.408179 
L 145.461439 155.596464 
L 146.549987 153.269645 
L 147.638534 150.140858 
L 149.272019 144.488797 
L 151.994052 134.935178 
L 153.082599 131.852657 
L 154.171811 129.564266 
L 154.716085 128.776082 
L 155.260358 128.244779 
L 155.804632 127.973279 
L 156.34957 127.959774 
L 156.893844 128.192427 
L 157.438117 128.655647 
L 157.982391 129.331193 
L 159.071603 131.233361 
L 160.16015 133.71389 
L 163.97073 143.353651 
L 165.059942 145.248856 
L 166.148489 146.453896 
L 167.237701 147.048967 
L 168.326248 147.272507 
L 169.414795 147.441708 
L 170.504007 147.850503 
L 171.592554 148.682558 
L 172.681766 149.962225 
L 175.948073 154.463407 
L 176.492346 154.899199 
L 177.03662 155.149813 
L 177.580893 155.197151 
L 178.125832 155.028683 
L 178.670105 154.643014 
L 179.214379 154.047108 
L 180.302926 152.274704 
L 181.392138 149.840956 
L 183.024959 145.392542 
L 184.658444 140.868666 
L 185.746991 138.411108 
L 186.29193 137.46824 
L 186.836203 136.750924 
L 187.380477 136.273086 
L 187.92475 136.040292 
L 188.469024 136.051013 
L 189.013962 136.297312 
L 189.558236 136.767215 
L 190.10251 137.445963 
L 191.191057 139.34618 
L 192.280269 141.81237 
L 194.458028 147.590852 
L 196.635122 153.231357 
L 198.268608 156.772544 
L 199.357155 158.710633 
L 200.446367 160.317561 
L 201.534914 161.624726 
L 202.624126 162.642223 
L 203.712673 163.314706 
L 204.256947 163.481086 
L 204.80122 163.504059 
L 205.346158 163.362601 
L 205.890432 163.03889 
L 206.434706 162.521232 
L 206.978979 161.80503 
L 208.068191 159.813895 
L 209.156738 157.230334 
L 212.423045 148.750503 
L 213.512256 146.521423 
L 214.600804 144.826431 
L 215.689351 143.699319 
L 216.778563 143.116723 
L 217.86711 142.996497 
L 218.956322 143.203004 
L 222.222628 144.164669 
L 223.311175 144.173162 
L 224.400387 143.922547 
L 225.488934 143.426051 
L 227.12242 142.357596 
L 229.844452 140.447076 
L 231.477273 139.531218 
L 233.655032 138.575958 
L 235.288518 138.055096 
L 236.377065 137.866996 
L 237.465612 137.872705 
L 238.554824 138.111902 
L 239.643371 138.570945 
L 241.82113 139.86189 
L 245.087437 141.780347 
L 247.265196 143.171677 
L 248.898681 144.515669 
L 251.620714 146.857525 
L 253.253535 147.874743 
L 254.88702 148.526202 
L 256.519841 148.889733 
L 258.153326 148.981486 
L 259.241874 148.859102 
L 260.331085 148.553352 
L 261.419633 148.043908 
L 263.053118 146.925609 
L 265.775151 144.55883 
L 267.95291 142.795755 
L 269.585731 141.840634 
L 270.674943 141.437979 
L 271.76349 141.232614 
L 272.852037 141.222589 
L 273.941249 141.400108 
L 275.029796 141.749577 
L 276.663281 142.529407 
L 279.929588 144.261712 
L 281.563073 144.812647 
L 283.195894 145.067717 
L 284.82938 145.008544 
L 286.4622 144.667012 
L 289.729171 143.821786 
L 291.361992 143.626459 
L 292.995478 143.702678 
L 294.628298 144.036674 
L 296.806057 144.519497 
L 297.895269 144.599444 
L 299.52809 144.444312 
L 301.705849 143.927075 
L 304.972155 142.8982 
L 307.149915 142.236633 
L 308.7834 142.003826 
L 309.871947 142.029931 
L 311.505433 142.328532 
L 314.771739 143.168656 
L 316.40456 143.343334 
L 320.215804 143.61695 
L 321.848625 143.936985 
L 323.482111 144.480541 
L 326.204143 145.54174 
L 327.292691 145.735773 
L 328.381902 145.716615 
L 330.559661 145.319613 
L 334.914515 144.407542 
L 336.548 143.66582 
L 338.725759 142.631045 
L 339.814307 142.345121 
L 340.902854 142.327147 
L 341.992066 142.635361 
L 343.080613 143.314945 
L 344.169825 144.37435 
L 345.802646 146.487699 
L 347.436131 148.608654 
L 348.524678 149.606074 
L 349.068952 149.909596 
L 349.61389 150.070547 
L 350.158164 150.090596 
L 350.702437 149.980186 
L 351.790985 149.435155 
L 352.880196 148.595539 
L 357.779988 144.327429 
L 359.412809 143.29601 
L 360.502021 142.794919 
L 361.590568 142.465639 
L 362.679115 142.318472 
L 364.312601 142.401356 
L 369.212392 143.065528 
L 373.022972 143.158533 
L 374.656458 142.97674 
L 377.922764 142.355967 
L 379.011311 142.401356 
L 380.100523 142.65587 
L 381.733344 143.339895 
L 384.455377 144.850128 
L 386.088862 145.674019 
L 387.177409 146.007899 
L 388.266621 146.08009 
L 389.355168 145.887089 
L 390.988654 145.279765 
L 393.166413 144.493252 
L 397.521266 143.302553 
L 398.610478 142.648449 
L 400.787573 140.944546 
L 401.876785 140.155945 
L 402.965332 139.596712 
L 404.054544 139.341419 
L 405.143091 139.380612 
L 406.231638 139.643048 
L 407.865124 140.276922 
L 410.587156 141.630256 
L 413.853462 143.273482 
L 415.486948 143.900093 
L 417.119769 144.316516 
L 420.38674 144.967987 
L 424.19732 146.117084 
L 425.285867 146.161261 
L 426.375079 146.001091 
L 428.552838 145.567889 
L 429.641385 145.664682 
L 430.729932 146.106975 
L 433.996903 148.076766 
L 435.08545 148.291738 
L 436.173998 148.188568 
L 437.263209 147.854095 
L 439.440968 146.845328 
L 441.618063 145.826663 
L 444.340096 144.847594 
L 444.340096 144.847594 
" clip-path="url(#pdfa7cfc2b9)" style="fill: none; stroke: #a11a5b; stroke-width: 1.5; stroke-linecap: round"/>
   </g>
   <g id="patch_7">
    <path d="M 22.6975 165.756279 
L 294.900767 165.756279 
" style="fill: none; stroke: #262626; stroke-width: 1.25; stroke-linejoin: miter; stroke-linecap: square"/>
   </g>
  </g>
  <g id="axes_4">
   <g id="patch_8">
    <path d="M 22.6975 220.26 
L 294.900768 220.26 
L 294.900768 170.711163 
L 22.6975 170.711163 
z
" style="fill: #ffffff"/>
   </g>
   <g id="matplotlib.axis_7">
    <g id="xtick_16">
     <g id="line2d_19">
      <g>
       <use xlink:href="#m3410e6fc43" x="36.307663" y="220.26" style="fill: #262626; stroke: #262626; stroke-width: 1.25"/>
      </g>
     </g>
     <g id="text_4">
      <!-- 3280 -->
      <g style="fill: #262626" transform="translate(24.073601 237.650781) scale(0.11 -0.11)">
       <defs>
        <path id="Helvetica-33" d="M 1663 -122 
Q 869 -122 511 314 
Q 153 750 153 1375 
L 741 1375 
Q 778 941 903 744 
Q 1122 391 1694 391 
Q 2138 391 2406 628 
Q 2675 866 2675 1241 
Q 2675 1703 2392 1887 
Q 2109 2072 1606 2072 
Q 1550 2072 1492 2070 
Q 1434 2069 1375 2066 
L 1375 2563 
Q 1463 2553 1522 2550 
Q 1581 2547 1650 2547 
Q 1966 2547 2169 2647 
Q 2525 2822 2525 3272 
Q 2525 3606 2287 3787 
Q 2050 3969 1734 3969 
Q 1172 3969 956 3594 
Q 838 3388 822 3006 
L 266 3006 
Q 266 3506 466 3856 
Q 809 4481 1675 4481 
Q 2359 4481 2734 4176 
Q 3109 3872 3109 3294 
Q 3109 2881 2888 2625 
Q 2750 2466 2531 2375 
Q 2884 2278 3082 2001 
Q 3281 1725 3281 1325 
Q 3281 684 2859 281 
Q 2438 -122 1663 -122 
z
" transform="scale(0.015625)"/>
        <path id="Helvetica-32" d="M 200 0 
Q 231 578 439 1006 
Q 647 1434 1250 1784 
L 1850 2131 
Q 2253 2366 2416 2531 
Q 2672 2791 2672 3125 
Q 2672 3516 2437 3745 
Q 2203 3975 1813 3975 
Q 1234 3975 1013 3538 
Q 894 3303 881 2888 
L 309 2888 
Q 319 3472 525 3841 
Q 891 4491 1816 4491 
Q 2584 4491 2939 4075 
Q 3294 3659 3294 3150 
Q 3294 2613 2916 2231 
Q 2697 2009 2131 1694 
L 1703 1456 
Q 1397 1288 1222 1134 
Q 909 863 828 531 
L 3272 531 
L 3272 0 
L 200 0 
z
" transform="scale(0.015625)"/>
        <path id="Helvetica-38" d="M 1741 2600 
Q 2113 2600 2322 2808 
Q 2531 3016 2531 3303 
Q 2531 3553 2331 3762 
Q 2131 3972 1722 3972 
Q 1316 3972 1134 3762 
Q 953 3553 953 3272 
Q 953 2956 1187 2778 
Q 1422 2600 1741 2600 
z
M 1775 384 
Q 2166 384 2423 595 
Q 2681 806 2681 1225 
Q 2681 1659 2415 1884 
Q 2150 2109 1734 2109 
Q 1331 2109 1076 1879 
Q 822 1650 822 1244 
Q 822 894 1055 639 
Q 1288 384 1775 384 
z
M 975 2384 
Q 741 2484 609 2619 
Q 363 2869 363 3269 
Q 363 3769 725 4128 
Q 1088 4488 1753 4488 
Q 2397 4488 2762 4148 
Q 3128 3809 3128 3356 
Q 3128 2938 2916 2678 
Q 2797 2531 2547 2391 
Q 2825 2263 2984 2097 
Q 3281 1784 3281 1284 
Q 3281 694 2884 283 
Q 2488 -128 1763 -128 
Q 1109 -128 657 226 
Q 206 581 206 1256 
Q 206 1653 400 1942 
Q 594 2231 975 2384 
z
" transform="scale(0.015625)"/>
        <path id="Helvetica-30" d="M 1731 4475 
Q 2600 4475 2988 3759 
Q 3288 3206 3288 2244 
Q 3288 1331 3016 734 
Q 2622 -122 1728 -122 
Q 922 -122 528 578 
Q 200 1163 200 2147 
Q 200 2909 397 3456 
Q 766 4475 1731 4475 
z
M 1725 391 
Q 2163 391 2422 778 
Q 2681 1166 2681 2222 
Q 2681 2984 2493 3476 
Q 2306 3969 1766 3969 
Q 1269 3969 1039 3501 
Q 809 3034 809 2125 
Q 809 1441 956 1025 
Q 1181 391 1725 391 
z
" transform="scale(0.015625)"/>
       </defs>
       <use xlink:href="#Helvetica-33"/>
       <use xlink:href="#Helvetica-32" x="55.615234"/>
       <use xlink:href="#Helvetica-38" x="111.230469"/>
       <use xlink:href="#Helvetica-30" x="166.845703"/>
      </g>
     </g>
    </g>
    <g id="xtick_17">
     <g id="line2d_20">
      <g>
       <use xlink:href="#m3410e6fc43" x="90.748317" y="220.26" style="fill: #262626; stroke: #262626; stroke-width: 1.25"/>
      </g>
     </g>
     <g id="text_5">
      <!-- 3300 -->
      <g style="fill: #262626" transform="translate(78.514254 237.650781) scale(0.11 -0.11)">
       <use xlink:href="#Helvetica-33"/>
       <use xlink:href="#Helvetica-33" x="55.615234"/>
       <use xlink:href="#Helvetica-30" x="111.230469"/>
       <use xlink:href="#Helvetica-30" x="166.845703"/>
      </g>
     </g>
    </g>
    <g id="xtick_18">
     <g id="line2d_21">
      <g>
       <use xlink:href="#m3410e6fc43" x="145.18897" y="220.26" style="fill: #262626; stroke: #262626; stroke-width: 1.25"/>
      </g>
     </g>
     <g id="text_6">
      <!-- 3320 -->
      <g style="fill: #262626" transform="translate(132.954908 237.650781) scale(0.11 -0.11)">
       <use xlink:href="#Helvetica-33"/>
       <use xlink:href="#Helvetica-33" x="55.615234"/>
       <use xlink:href="#Helvetica-32" x="111.230469"/>
       <use xlink:href="#Helvetica-30" x="166.845703"/>
      </g>
     </g>
    </g>
    <g id="xtick_19">
     <g id="line2d_22">
      <g>
       <use xlink:href="#m3410e6fc43" x="199.629624" y="220.26" style="fill: #262626; stroke: #262626; stroke-width: 1.25"/>
      </g>
     </g>
     <g id="text_7">
      <!-- 3340 -->
      <g style="fill: #262626" transform="translate(187.395561 237.650781) scale(0.11 -0.11)">
       <defs>
        <path id="Helvetica-34" d="M 2116 1584 
L 2116 3613 
L 681 1584 
L 2116 1584 
z
M 2125 0 
L 2125 1094 
L 163 1094 
L 163 1644 
L 2213 4488 
L 2688 4488 
L 2688 1584 
L 3347 1584 
L 3347 1094 
L 2688 1094 
L 2688 0 
L 2125 0 
z
" transform="scale(0.015625)"/>
       </defs>
       <use xlink:href="#Helvetica-33"/>
       <use xlink:href="#Helvetica-33" x="55.615234"/>
       <use xlink:href="#Helvetica-34" x="111.230469"/>
       <use xlink:href="#Helvetica-30" x="166.845703"/>
      </g>
     </g>
    </g>
    <g id="xtick_20">
     <g id="line2d_23">
      <g>
       <use xlink:href="#m3410e6fc43" x="254.070277" y="220.26" style="fill: #262626; stroke: #262626; stroke-width: 1.25"/>
      </g>
     </g>
     <g id="text_8">
      <!-- 3360 -->
      <g style="fill: #262626" transform="translate(241.836215 237.650781) scale(0.11 -0.11)">
       <defs>
        <path id="Helvetica-36" d="M 1872 4494 
Q 2622 4494 2917 4105 
Q 3213 3716 3213 3303 
L 2656 3303 
Q 2606 3569 2497 3719 
Q 2294 4000 1881 4000 
Q 1409 4000 1131 3564 
Q 853 3128 822 2316 
Q 1016 2600 1309 2741 
Q 1578 2866 1909 2866 
Q 2472 2866 2890 2506 
Q 3309 2147 3309 1434 
Q 3309 825 2912 354 
Q 2516 -116 1781 -116 
Q 1153 -116 697 361 
Q 241 838 241 1966 
Q 241 2800 444 3381 
Q 834 4494 1872 4494 
z
M 1831 384 
Q 2275 384 2495 682 
Q 2716 981 2716 1388 
Q 2716 1731 2519 2042 
Q 2322 2353 1803 2353 
Q 1441 2353 1167 2112 
Q 894 1872 894 1388 
Q 894 963 1142 673 
Q 1391 384 1831 384 
z
" transform="scale(0.015625)"/>
       </defs>
       <use xlink:href="#Helvetica-33"/>
       <use xlink:href="#Helvetica-33" x="55.615234"/>
       <use xlink:href="#Helvetica-36" x="111.230469"/>
       <use xlink:href="#Helvetica-30" x="166.845703"/>
      </g>
     </g>
    </g>
    <g id="text_9">
     <!-- magnetic field [G] -->
     <g style="fill: #262626" transform="translate(112.114446 252.786094) scale(0.12 -0.12)">
      <defs>
       <path id="Helvetica-6d" d="M 413 3347 
L 969 3347 
L 969 2872 
Q 1169 3119 1331 3231 
Q 1609 3422 1963 3422 
Q 2363 3422 2606 3225 
Q 2744 3113 2856 2894 
Q 3044 3163 3297 3292 
Q 3550 3422 3866 3422 
Q 4541 3422 4784 2934 
Q 4916 2672 4916 2228 
L 4916 0 
L 4331 0 
L 4331 2325 
Q 4331 2659 4164 2784 
Q 3997 2909 3756 2909 
Q 3425 2909 3186 2687 
Q 2947 2466 2947 1947 
L 2947 0 
L 2375 0 
L 2375 2184 
Q 2375 2525 2294 2681 
Q 2166 2916 1816 2916 
Q 1497 2916 1236 2669 
Q 975 2422 975 1775 
L 975 0 
L 413 0 
L 413 3347 
z
" transform="scale(0.015625)"/>
       <path id="Helvetica-63" d="M 1703 3444 
Q 2269 3444 2623 3169 
Q 2978 2894 3050 2222 
L 2503 2222 
Q 2453 2531 2275 2736 
Q 2097 2941 1703 2941 
Q 1166 2941 934 2416 
Q 784 2075 784 1575 
Q 784 1072 996 728 
Q 1209 384 1666 384 
Q 2016 384 2220 598 
Q 2425 813 2503 1184 
L 3050 1184 
Q 2956 519 2581 211 
Q 2206 -97 1622 -97 
Q 966 -97 575 383 
Q 184 863 184 1581 
Q 184 2463 612 2953 
Q 1041 3444 1703 3444 
z
M 1616 3428 
L 1616 3428 
z
" transform="scale(0.015625)"/>
       <path id="Helvetica-66" d="M 553 3856 
Q 566 4206 675 4369 
Q 872 4656 1434 4656 
Q 1488 4656 1544 4653 
Q 1600 4650 1672 4644 
L 1672 4131 
Q 1584 4138 1545 4139 
Q 1506 4141 1472 4141 
Q 1216 4141 1166 4008 
Q 1116 3875 1116 3331 
L 1672 3331 
L 1672 2888 
L 1109 2888 
L 1109 0 
L 553 0 
L 553 2888 
L 88 2888 
L 88 3331 
L 553 3331 
L 553 3856 
z
" transform="scale(0.015625)"/>
       <path id="Helvetica-64" d="M 769 1634 
Q 769 1097 997 734 
Q 1225 372 1728 372 
Q 2119 372 2370 708 
Q 2622 1044 2622 1672 
Q 2622 2306 2362 2611 
Q 2103 2916 1722 2916 
Q 1297 2916 1033 2591 
Q 769 2266 769 1634 
z
M 1616 3406 
Q 2000 3406 2259 3244 
Q 2409 3150 2600 2916 
L 2600 4606 
L 3141 4606 
L 3141 0 
L 2634 0 
L 2634 466 
Q 2438 156 2169 18 
Q 1900 -119 1553 -119 
Q 994 -119 584 351 
Q 175 822 175 1603 
Q 175 2334 548 2870 
Q 922 3406 1616 3406 
z
" transform="scale(0.015625)"/>
       <path id="Helvetica-5b" d="M 400 4622 
L 1600 4622 
L 1600 4163 
L 931 4163 
L 931 -800 
L 1600 -800 
L 1600 -1259 
L 400 -1259 
L 400 4622 
z
" transform="scale(0.015625)"/>
       <path id="Helvetica-47" d="M 2472 4709 
Q 3119 4709 3591 4459 
Q 4275 4100 4428 3200 
L 3813 3200 
Q 3700 3703 3347 3933 
Q 2994 4163 2456 4163 
Q 1819 4163 1383 3684 
Q 947 3206 947 2259 
Q 947 1441 1306 927 
Q 1666 413 2478 413 
Q 3100 413 3508 773 
Q 3916 1134 3925 1941 
L 2488 1941 
L 2488 2456 
L 4503 2456 
L 4503 0 
L 4103 0 
L 3953 591 
Q 3638 244 3394 109 
Q 2984 -122 2353 -122 
Q 1538 -122 950 406 
Q 309 1069 309 2225 
Q 309 3378 934 4059 
Q 1528 4709 2472 4709 
z
M 2369 4716 
L 2369 4716 
z
" transform="scale(0.015625)"/>
       <path id="Helvetica-5d" d="M 147 -800 
L 813 -800 
L 813 4163 
L 147 4163 
L 147 4622 
L 1347 4622 
L 1347 -1259 
L 147 -1259 
L 147 -800 
z
" transform="scale(0.015625)"/>
      </defs>
      <use xlink:href="#Helvetica-6d"/>
      <use xlink:href="#Helvetica-61" x="83.300781"/>
      <use xlink:href="#Helvetica-67" x="138.916016"/>
      <use xlink:href="#Helvetica-6e" x="194.53125"/>
      <use xlink:href="#Helvetica-65" x="250.146484"/>
      <use xlink:href="#Helvetica-74" x="305.761719"/>
      <use xlink:href="#Helvetica-69" x="333.544922"/>
      <use xlink:href="#Helvetica-63" x="355.761719"/>
      <use xlink:href="#Helvetica-20" x="405.761719"/>
      <use xlink:href="#Helvetica-66" x="433.544922"/>
      <use xlink:href="#Helvetica-69" x="461.328125"/>
      <use xlink:href="#Helvetica-65" x="483.544922"/>
      <use xlink:href="#Helvetica-6c" x="539.160156"/>
      <use xlink:href="#Helvetica-64" x="561.376953"/>
      <use xlink:href="#Helvetica-20" x="616.992188"/>
      <use xlink:href="#Helvetica-5b" x="644.775391"/>
      <use xlink:href="#Helvetica-47" x="672.558594"/>
      <use xlink:href="#Helvetica-5d" x="750.341797"/>
     </g>
    </g>
   </g>
   <g id="matplotlib.axis_8">
    <g id="text_10">
     <!-- Signal intensity -->
     <g style="fill: #262626" transform="translate(16.0425 235.840269) rotate(-90) scale(0.12 -0.12)">
      <use xlink:href="#Helvetica-53"/>
      <use xlink:href="#Helvetica-69" x="66.699219"/>
      <use xlink:href="#Helvetica-67" x="88.916016"/>
      <use xlink:href="#Helvetica-6e" x="144.53125"/>
      <use xlink:href="#Helvetica-61" x="200.146484"/>
      <use xlink:href="#Helvetica-6c" x="255.761719"/>
      <use xlink:href="#Helvetica-20" x="277.978516"/>
      <use xlink:href="#Helvetica-69" x="305.761719"/>
      <use xlink:href="#Helvetica-6e" x="327.978516"/>
      <use xlink:href="#Helvetica-74" x="383.59375"/>
      <use xlink:href="#Helvetica-65" x="411.376953"/>
      <use xlink:href="#Helvetica-6e" x="466.992188"/>
      <use xlink:href="#Helvetica-73" x="522.607422"/>
      <use xlink:href="#Helvetica-69" x="572.607422"/>
      <use xlink:href="#Helvetica-74" x="594.824219"/>
      <use xlink:href="#Helvetica-79" x="622.607422"/>
     </g>
    </g>
   </g>
   <g id="line2d_24">
    <path d="M -1 201.302666 
L 2.282255 201.87722 
L 4.460014 202.361283 
L 5.548561 202.401799 
L 6.637773 202.211081 
L 8.270594 201.604259 
L 9.904079 201.001279 
L 11.5369 200.641216 
L 13.714659 200.160077 
L 15.892418 199.33231 
L 17.525904 198.799294 
L 19.158725 198.568728 
L 23.514243 198.495048 
L 25.147064 198.663516 
L 26.780549 199.128407 
L 28.414034 199.62713 
L 29.502582 199.778739 
L 30.591129 199.73289 
L 36.035194 198.992838 
L 39.846439 198.823377 
L 42.024198 198.464514 
L 43.657019 197.969104 
L 45.290504 197.239843 
L 46.923325 196.259619 
L 51.278843 193.294372 
L 52.36739 192.841037 
L 53.456602 192.602814 
L 55.089423 192.580259 
L 56.722908 192.632053 
L 57.811456 192.50215 
L 59.444941 192.016932 
L 61.6227 191.335399 
L 63.800459 190.996136 
L 66.522492 190.579239 
L 68.699586 190.020506 
L 70.877345 189.238045 
L 73.055104 188.443708 
L 74.143652 188.237758 
L 75.232864 188.27748 
L 76.321411 188.597293 
L 77.410623 189.160898 
L 79.587717 190.676839 
L 81.765476 192.198489 
L 82.854688 192.728539 
L 83.943235 192.913298 
L 84.487509 192.838531 
L 85.576721 192.335492 
L 86.665268 191.427988 
L 91.020786 187.096389 
L 92.109333 186.478622 
L 93.19788 186.103258 
L 94.287092 185.924346 
L 95.919913 185.898449 
L 98.641946 185.915295 
L 100.819705 185.568472 
L 101.908917 185.435925 
L 102.997464 185.507629 
L 104.086011 185.856263 
L 105.719497 186.787993 
L 107.897256 188.093696 
L 110.075015 189.010208 
L 111.707836 189.768388 
L 112.797047 190.505586 
L 113.885595 191.484654 
L 117.151901 194.847794 
L 118.241113 195.420463 
L 118.785386 195.505964 
L 119.32966 195.453419 
L 120.418207 194.979617 
L 121.507419 194.15437 
L 124.773725 191.33693 
L 126.951484 189.887402 
L 128.584305 189.039628 
L 129.673517 188.65925 
L 130.762064 188.48382 
L 131.851276 188.508046 
L 136.20613 189.009415 
L 137.295341 188.781912 
L 138.383889 188.310617 
L 142.194469 186.149899 
L 143.28368 185.958318 
L 144.372228 186.1137 
L 145.461439 186.648484 
L 146.549987 187.580632 
L 147.638534 188.895873 
L 149.272019 191.412672 
L 151.994052 195.805533 
L 153.082599 197.165118 
L 154.171811 198.12553 
L 155.260358 198.651264 
L 156.34957 198.786178 
L 157.438117 198.647226 
L 160.704424 197.955822 
L 162.882183 197.833146 
L 167.237701 197.656184 
L 168.870522 197.402367 
L 169.959734 196.939147 
L 171.048281 196.070349 
L 172.136828 194.737496 
L 173.770313 192.083763 
L 175.403799 189.357491 
L 176.492346 187.957807 
L 177.03662 187.462007 
L 177.580893 187.119639 
L 178.125832 186.92959 
L 178.670105 186.885733 
L 179.758652 187.161214 
L 180.847864 187.753403 
L 183.024959 189.092814 
L 184.114171 189.567618 
L 185.202718 189.843544 
L 186.836203 189.970662 
L 189.013962 190.106968 
L 190.10251 190.367051 
L 191.191057 190.802982 
L 193.368816 192.031969 
L 195.002301 192.875706 
L 196.090848 193.189865 
L 197.18006 193.247033 
L 198.812881 192.979571 
L 200.99064 192.572462 
L 204.80122 192.161175 
L 205.890432 191.774114 
L 207.523253 190.940959 
L 210.245285 189.493728 
L 212.423045 188.613443 
L 214.05653 188.175285 
L 215.145077 188.042181 
L 216.234289 188.097455 
L 217.322836 188.394155 
L 218.411384 188.953862 
L 220.589143 190.52647 
L 221.678354 191.207725 
L 222.766902 191.604253 
L 223.855449 191.657857 
L 224.944661 191.429519 
L 227.666693 190.596364 
L 229.299514 190.406593 
L 233.110759 190.353824 
L 234.74358 190.573112 
L 235.832791 190.903785 
L 236.921339 191.409748 
L 238.01055 192.108824 
L 239.643371 193.511014 
L 245.087437 198.878071 
L 246.720922 200.03786 
L 247.809469 200.555659 
L 248.898681 200.798894 
L 249.987228 200.763112 
L 251.075776 200.505257 
L 252.709261 199.877188 
L 254.88702 198.786178 
L 257.064779 197.391228 
L 259.786812 195.621191 
L 260.875359 195.212828 
L 261.963906 195.16911 
L 263.053118 195.546982 
L 264.141665 196.264715 
L 266.319424 197.812261 
L 267.407972 198.222991 
L 268.497183 198.340223 
L 271.76349 198.357906 
L 273.396975 198.748447 
L 276.663281 199.710947 
L 278.296102 199.860342 
L 280.473861 199.710947 
L 283.740168 199.201503 
L 285.373653 198.781445 
L 287.007139 198.170084 
L 289.184233 197.068214 
L 294.628298 194.085479 
L 295.71751 193.799082 
L 296.806057 193.750895 
L 298.439543 194.009794 
L 300.072364 194.279372 
L 301.705849 194.269584 
L 304.427882 194.044212 
L 306.061367 194.209562 
L 307.694188 194.705707 
L 309.327674 195.517576 
L 310.960494 196.639593 
L 314.227465 199.128964 
L 315.860286 200.07083 
L 318.038045 201.000221 
L 319.671531 201.446887 
L 320.760078 201.512506 
L 321.848625 201.279838 
L 322.937837 200.702923 
L 324.570658 199.368371 
L 326.204143 198.028291 
L 327.292691 197.401671 
L 328.381902 197.038794 
L 330.014723 196.851961 
L 332.192482 196.688964 
L 333.281694 196.401495 
L 334.370241 195.921197 
L 338.180821 193.898562 
L 339.270033 193.712425 
L 339.814307 193.766906 
L 340.35858 193.938201 
L 341.447792 194.646495 
L 342.536339 195.768915 
L 345.258372 198.897145 
L 346.346919 199.747091 
L 347.436131 200.281193 
L 348.524678 200.533507 
L 349.61389 200.524192 
L 350.702437 200.255617 
L 351.790985 199.761349 
L 354.513017 198.374056 
L 355.602229 198.142098 
L 356.690776 198.155047 
L 362.134842 198.957014 
L 363.768327 199.477444 
L 367.578907 201.014785 
L 368.668119 201.180441 
L 369.756666 201.161283 
L 373.022972 200.837557 
L 374.112184 200.97901 
L 375.200731 201.305388 
L 379.011311 202.752019 
L 380.100523 202.734198 
L 381.18907 202.401855 
L 382.822556 201.506296 
L 384.455377 200.566964 
L 385.544588 200.104273 
L 387.177409 199.696328 
L 388.810895 199.513936 
L 390.44438 199.542618 
L 392.077201 199.836394 
L 394.799234 200.422972 
L 396.976993 200.572088 
L 399.154752 200.479917 
L 401.876785 200.065846 
L 407.865124 198.998352 
L 409.498609 198.253538 
L 412.220642 196.821859 
L 413.309189 196.478976 
L 414.397736 196.391609 
L 415.486948 196.547951 
L 417.119769 197.068409 
L 425.830805 200.267359 
L 427.463626 200.782702 
L 428.552838 200.955765 
L 429.641385 200.854266 
L 430.729932 200.406417 
L 431.819144 199.654191 
L 433.996903 198.003369 
L 435.08545 197.552539 
L 436.173998 197.476688 
L 437.807483 197.807249 
L 439.440968 198.106455 
L 440.529516 198.090165 
L 442.163001 197.743064 
L 444.340096 196.945552 
L 444.340096 196.945552 
" clip-path="url(#p11840e0cac)" style="fill: none; stroke: #4c1d4b; stroke-width: 1.5; stroke-linecap: round"/>
   </g>
   <g id="patch_9">
    <path d="M 22.6975 220.26 
L 294.900767 220.26 
" style="fill: none; stroke: #262626; stroke-width: 1.25; stroke-linejoin: miter; stroke-linecap: square"/>
   </g>
  </g>
  <g id="legend_1">
   <g id="text_11">
    <!-- sample -->
    <g style="fill: #262626" transform="translate(350.861974 103.006797) scale(0.12 -0.12)">
     <defs>
      <path id="Helvetica-70" d="M 1825 378 
Q 2219 378 2480 708 
Q 2741 1038 2741 1694 
Q 2741 2094 2625 2381 
Q 2406 2934 1825 2934 
Q 1241 2934 1025 2350 
Q 909 2038 909 1556 
Q 909 1169 1025 897 
Q 1244 378 1825 378 
z
M 369 3331 
L 916 3331 
L 916 2888 
Q 1084 3116 1284 3241 
Q 1569 3428 1953 3428 
Q 2522 3428 2919 2992 
Q 3316 2556 3316 1747 
Q 3316 653 2744 184 
Q 2381 -113 1900 -113 
Q 1522 -113 1266 53 
Q 1116 147 931 375 
L 931 -1334 
L 369 -1334 
L 369 3331 
z
" transform="scale(0.015625)"/>
     </defs>
     <use xlink:href="#Helvetica-73"/>
     <use xlink:href="#Helvetica-61" x="50"/>
     <use xlink:href="#Helvetica-6d" x="105.615234"/>
     <use xlink:href="#Helvetica-70" x="188.916016"/>
     <use xlink:href="#Helvetica-6c" x="244.53125"/>
     <use xlink:href="#Helvetica-65" x="266.748047"/>
    </g>
   </g>
   <g id="line2d_25">
    <path d="M 300.39213 115.048828 
L 311.39213 115.048828 
L 322.39213 115.048828 
" style="fill: none; stroke: #f69c73; stroke-width: 1.5; stroke-linecap: round"/>
   </g>
   <g id="text_12">
    <!-- blank_corrected_0mM -->
    <g style="fill: #262626" transform="translate(331.19213 118.898828) scale(0.11 -0.11)">
     <defs>
      <path id="Helvetica-62" d="M 369 4606 
L 916 4606 
L 916 2941 
Q 1100 3181 1356 3307 
Q 1613 3434 1913 3434 
Q 2538 3434 2927 3004 
Q 3316 2575 3316 1738 
Q 3316 944 2931 419 
Q 2547 -106 1866 -106 
Q 1484 -106 1222 78 
Q 1066 188 888 428 
L 888 0 
L 369 0 
L 369 4606 
z
M 1831 391 
Q 2288 391 2514 753 
Q 2741 1116 2741 1709 
Q 2741 2238 2514 2584 
Q 2288 2931 1847 2931 
Q 1463 2931 1173 2647 
Q 884 2363 884 1709 
Q 884 1238 1003 944 
Q 1225 391 1831 391 
z
" transform="scale(0.015625)"/>
      <path id="Helvetica-6b" d="M 400 4591 
L 941 4591 
L 941 1925 
L 2384 3347 
L 3103 3347 
L 1822 2094 
L 3175 0 
L 2456 0 
L 1413 1688 
L 941 1256 
L 941 0 
L 400 0 
L 400 4591 
z
" transform="scale(0.015625)"/>
      <path id="Helvetica-5f" d="M 0 -800 
L 0 -484 
L 3559 -484 
L 3559 -800 
L 0 -800 
z
" transform="scale(0.015625)"/>
      <path id="Helvetica-6f" d="M 1741 363 
Q 2300 363 2508 786 
Q 2716 1209 2716 1728 
Q 2716 2197 2566 2491 
Q 2328 2953 1747 2953 
Q 1231 2953 997 2559 
Q 763 2166 763 1609 
Q 763 1075 997 719 
Q 1231 363 1741 363 
z
M 1763 3444 
Q 2409 3444 2856 3012 
Q 3303 2581 3303 1744 
Q 3303 934 2909 406 
Q 2516 -122 1688 -122 
Q 997 -122 590 345 
Q 184 813 184 1600 
Q 184 2444 612 2944 
Q 1041 3444 1763 3444 
z
M 1744 3428 
L 1744 3428 
z
" transform="scale(0.015625)"/>
      <path id="Helvetica-72" d="M 428 3347 
L 963 3347 
L 963 2769 
Q 1028 2938 1284 3180 
Q 1541 3422 1875 3422 
Q 1891 3422 1928 3419 
Q 1966 3416 2056 3406 
L 2056 2813 
Q 2006 2822 1964 2825 
Q 1922 2828 1872 2828 
Q 1447 2828 1219 2554 
Q 991 2281 991 1925 
L 991 0 
L 428 0 
L 428 3347 
z
" transform="scale(0.015625)"/>
      <path id="Helvetica-4d" d="M 472 4591 
L 1363 4591 
L 2681 709 
L 3991 4591 
L 4872 4591 
L 4872 0 
L 4281 0 
L 4281 2709 
Q 4281 2850 4287 3175 
Q 4294 3500 4294 3872 
L 2984 0 
L 2369 0 
L 1050 3872 
L 1050 3731 
Q 1050 3563 1058 3217 
Q 1066 2872 1066 2709 
L 1066 0 
L 472 0 
L 472 4591 
z
" transform="scale(0.015625)"/>
     </defs>
     <use xlink:href="#Helvetica-62"/>
     <use xlink:href="#Helvetica-6c" x="55.615234"/>
     <use xlink:href="#Helvetica-61" x="77.832031"/>
     <use xlink:href="#Helvetica-6e" x="133.447266"/>
     <use xlink:href="#Helvetica-6b" x="189.0625"/>
     <use xlink:href="#Helvetica-5f" x="239.0625"/>
     <use xlink:href="#Helvetica-63" x="294.677734"/>
     <use xlink:href="#Helvetica-6f" x="344.677734"/>
     <use xlink:href="#Helvetica-72" x="400.292969"/>
     <use xlink:href="#Helvetica-72" x="433.59375"/>
     <use xlink:href="#Helvetica-65" x="466.894531"/>
     <use xlink:href="#Helvetica-63" x="522.509766"/>
     <use xlink:href="#Helvetica-74" x="572.509766"/>
     <use xlink:href="#Helvetica-65" x="600.292969"/>
     <use xlink:href="#Helvetica-64" x="655.908203"/>
     <use xlink:href="#Helvetica-5f" x="711.523438"/>
     <use xlink:href="#Helvetica-30" x="767.138672"/>
     <use xlink:href="#Helvetica-6d" x="822.753906"/>
     <use xlink:href="#Helvetica-4d" x="906.054688"/>
    </g>
   </g>
   <g id="line2d_26">
    <path d="M 300.39213 130.732422 
L 311.39213 130.732422 
L 322.39213 130.732422 
" style="fill: none; stroke: #e83f3f; stroke-width: 1.5; stroke-linecap: round"/>
   </g>
   <g id="text_13">
    <!-- 10 mM corrected -->
    <g style="fill: #262626" transform="translate(331.19213 134.582422) scale(0.11 -0.11)">
     <defs>
      <path id="Helvetica-31" d="M 613 3169 
L 613 3600 
Q 1222 3659 1462 3798 
Q 1703 3938 1822 4456 
L 2266 4456 
L 2266 0 
L 1666 0 
L 1666 3169 
L 613 3169 
z
" transform="scale(0.015625)"/>
     </defs>
     <use xlink:href="#Helvetica-31"/>
     <use xlink:href="#Helvetica-30" x="55.615234"/>
     <use xlink:href="#Helvetica-20" x="111.230469"/>
     <use xlink:href="#Helvetica-6d" x="139.013672"/>
     <use xlink:href="#Helvetica-4d" x="222.314453"/>
     <use xlink:href="#Helvetica-20" x="305.615234"/>
     <use xlink:href="#Helvetica-63" x="333.398438"/>
     <use xlink:href="#Helvetica-6f" x="383.398438"/>
     <use xlink:href="#Helvetica-72" x="439.013672"/>
     <use xlink:href="#Helvetica-72" x="472.314453"/>
     <use xlink:href="#Helvetica-65" x="505.615234"/>
     <use xlink:href="#Helvetica-63" x="561.230469"/>
     <use xlink:href="#Helvetica-74" x="611.230469"/>
     <use xlink:href="#Helvetica-65" x="639.013672"/>
     <use xlink:href="#Helvetica-64" x="694.628906"/>
    </g>
   </g>
   <g id="line2d_27">
    <path d="M 300.39213 146.416016 
L 311.39213 146.416016 
L 322.39213 146.416016 
" style="fill: none; stroke: #a11a5b; stroke-width: 1.5; stroke-linecap: round"/>
   </g>
   <g id="text_14">
    <!-- 50 mM corrected -->
    <g style="fill: #262626" transform="translate(331.19213 150.266016) scale(0.11 -0.11)">
     <defs>
      <path id="Helvetica-35" d="M 791 1141 
Q 847 659 1238 475 
Q 1438 381 1700 381 
Q 2200 381 2440 700 
Q 2681 1019 2681 1406 
Q 2681 1875 2395 2131 
Q 2109 2388 1709 2388 
Q 1419 2388 1211 2275 
Q 1003 2163 856 1963 
L 369 1991 
L 709 4400 
L 3034 4400 
L 3034 3856 
L 1131 3856 
L 941 2613 
Q 1097 2731 1238 2791 
Q 1488 2894 1816 2894 
Q 2431 2894 2859 2497 
Q 3288 2100 3288 1491 
Q 3288 856 2895 371 
Q 2503 -113 1644 -113 
Q 1097 -113 676 195 
Q 256 503 206 1141 
L 791 1141 
z
" transform="scale(0.015625)"/>
     </defs>
     <use xlink:href="#Helvetica-35"/>
     <use xlink:href="#Helvetica-30" x="55.615234"/>
     <use xlink:href="#Helvetica-20" x="111.230469"/>
     <use xlink:href="#Helvetica-6d" x="139.013672"/>
     <use xlink:href="#Helvetica-4d" x="222.314453"/>
     <use xlink:href="#Helvetica-20" x="305.615234"/>
     <use xlink:href="#Helvetica-63" x="333.398438"/>
     <use xlink:href="#Helvetica-6f" x="383.398438"/>
     <use xlink:href="#Helvetica-72" x="439.013672"/>
     <use xlink:href="#Helvetica-72" x="472.314453"/>
     <use xlink:href="#Helvetica-65" x="505.615234"/>
     <use xlink:href="#Helvetica-63" x="561.230469"/>
     <use xlink:href="#Helvetica-74" x="611.230469"/>
     <use xlink:href="#Helvetica-65" x="639.013672"/>
     <use xlink:href="#Helvetica-64" x="694.628906"/>
    </g>
   </g>
   <g id="line2d_28">
    <path d="M 300.39213 162.099609 
L 311.39213 162.099609 
L 322.39213 162.099609 
" style="fill: none; stroke: #4c1d4b; stroke-width: 1.5; stroke-linecap: round"/>
   </g>
   <g id="text_15">
    <!-- 100 mM corrected -->
    <g style="fill: #262626" transform="translate(331.19213 165.949609) scale(0.11 -0.11)">
     <use xlink:href="#Helvetica-31"/>
     <use xlink:href="#Helvetica-30" x="55.615234"/>
     <use xlink:href="#Helvetica-30" x="111.230469"/>
     <use xlink:href="#Helvetica-20" x="166.845703"/>
     <use xlink:href="#Helvetica-6d" x="194.628906"/>
     <use xlink:href="#Helvetica-4d" x="277.929688"/>
     <use xlink:href="#Helvetica-20" x="361.230469"/>
     <use xlink:href="#Helvetica-63" x="389.013672"/>
     <use xlink:href="#Helvetica-6f" x="439.013672"/>
     <use xlink:href="#Helvetica-72" x="494.628906"/>
     <use xlink:href="#Helvetica-72" x="527.929688"/>
     <use xlink:href="#Helvetica-65" x="561.230469"/>
     <use xlink:href="#Helvetica-63" x="616.845703"/>
     <use xlink:href="#Helvetica-74" x="666.845703"/>
     <use xlink:href="#Helvetica-65" x="694.628906"/>
     <use xlink:href="#Helvetica-64" x="750.244141"/>
    </g>
   </g>
  </g>
 </g>
 <defs>
  <clipPath id="pd7677ea895">
   <rect x="22.6975" y="7.2" width="272.203268" height="49.548837"/>
  </clipPath>
  <clipPath id="pc24c5a5808">
   <rect x="22.6975" y="61.703721" width="272.203268" height="49.548837"/>
  </clipPath>
  <clipPath id="pdfa7cfc2b9">
   <rect x="22.6975" y="116.207442" width="272.203268" height="49.548837"/>
  </clipPath>
  <clipPath id="p11840e0cac">
   <rect x="22.6975" y="170.711163" width="272.203268" height="49.548837"/>
  </clipPath>
 </defs>
</svg>
