<?xml version="1.0" encoding="utf-8" standalone="no"?>
<!DOCTYPE svg PUBLIC "-//W3C//DTD SVG 1.1//EN"
  "http://www.w3.org/Graphics/SVG/1.1/DTD/svg11.dtd">
<svg xmlns:xlink="http://www.w3.org/1999/xlink" width="423.922344pt" height="309.333094pt" viewBox="0 0 423.922344 309.333094" xmlns="http://www.w3.org/2000/svg" version="1.1">
 <metadata>
  <rdf:RDF xmlns:dc="http://purl.org/dc/elements/1.1/" xmlns:cc="http://creativecommons.org/ns#" xmlns:rdf="http://www.w3.org/1999/02/22-rdf-syntax-ns#">
   <cc:Work>
    <dc:type rdf:resource="http://purl.org/dc/dcmitype/StillImage"/>
    <dc:date>2024-08-29T12:11:45.611302</dc:date>
    <dc:format>image/svg+xml</dc:format>
    <dc:creator>
     <cc:Agent>
      <dc:title>Matplotlib v3.7.1, https://matplotlib.org/</dc:title>
     </cc:Agent>
    </dc:creator>
   </cc:Work>
  </rdf:RDF>
 </metadata>
 <defs>
  <style type="text/css">*{stroke-linejoin: round; stroke-linecap: butt}</style>
 </defs>
 <g id="figure_1">
  <g id="patch_1">
   <path d="M 0 309.333094 
L 423.922344 309.333094 
L 423.922344 0 
L 0 0 
z
" style="fill: #ffffff"/>
  </g>
  <g id="axes_1">
   <g id="patch_2">
    <path d="M 47.368281 273.312 
L 404.488281 273.312 
L 404.488281 7.2 
L 47.368281 7.2 
z
" style="fill: #ffffff"/>
   </g>
   <g id="matplotlib.axis_1">
    <g id="xtick_1">
     <g id="line2d_1">
      <defs>
       <path id="m9ebb18363d" d="M 0 0 
L 0 -6 
" style="stroke: #262626; stroke-width: 1.25"/>
      </defs>
      <g>
       <use xlink:href="#m9ebb18363d" x="404.488281" y="273.312" style="fill: #262626; stroke: #262626; stroke-width: 1.25"/>
      </g>
     </g>
     <g id="text_1">
      <!-- 1400 -->
      <g style="fill: #262626" transform="translate(392.254219 284.685594) scale(0.11 -0.11)">
       <defs>
        <path id="ArialMT-31" d="M 2384 0 
L 1822 0 
L 1822 3584 
Q 1619 3391 1289 3197 
Q 959 3003 697 2906 
L 697 3450 
Q 1169 3672 1522 3987 
Q 1875 4303 2022 4600 
L 2384 4600 
L 2384 0 
z
" transform="scale(0.015625)"/>
        <path id="ArialMT-34" d="M 2069 0 
L 2069 1097 
L 81 1097 
L 81 1613 
L 2172 4581 
L 2631 4581 
L 2631 1613 
L 3250 1613 
L 3250 1097 
L 2631 1097 
L 2631 0 
L 2069 0 
z
M 2069 1613 
L 2069 3678 
L 634 1613 
L 2069 1613 
z
" transform="scale(0.015625)"/>
        <path id="ArialMT-30" d="M 266 2259 
Q 266 3072 433 3567 
Q 600 4063 929 4331 
Q 1259 4600 1759 4600 
Q 2128 4600 2406 4451 
Q 2684 4303 2865 4023 
Q 3047 3744 3150 3342 
Q 3253 2941 3253 2259 
Q 3253 1453 3087 958 
Q 2922 463 2592 192 
Q 2263 -78 1759 -78 
Q 1097 -78 719 397 
Q 266 969 266 2259 
z
M 844 2259 
Q 844 1131 1108 757 
Q 1372 384 1759 384 
Q 2147 384 2411 759 
Q 2675 1134 2675 2259 
Q 2675 3391 2411 3762 
Q 2147 4134 1753 4134 
Q 1366 4134 1134 3806 
Q 844 3388 844 2259 
z
" transform="scale(0.015625)"/>
       </defs>
       <use xlink:href="#ArialMT-31"/>
       <use xlink:href="#ArialMT-34" x="55.615234"/>
       <use xlink:href="#ArialMT-30" x="111.230469"/>
       <use xlink:href="#ArialMT-30" x="166.845703"/>
      </g>
     </g>
    </g>
    <g id="xtick_2">
     <g id="line2d_2">
      <g>
       <use xlink:href="#m9ebb18363d" x="344.968281" y="273.312" style="fill: #262626; stroke: #262626; stroke-width: 1.25"/>
      </g>
     </g>
     <g id="text_2">
      <!-- 1450 -->
      <g style="fill: #262626" transform="translate(332.734219 284.685594) scale(0.11 -0.11)">
       <defs>
        <path id="ArialMT-35" d="M 266 1200 
L 856 1250 
Q 922 819 1161 601 
Q 1400 384 1738 384 
Q 2144 384 2425 690 
Q 2706 997 2706 1503 
Q 2706 1984 2436 2262 
Q 2166 2541 1728 2541 
Q 1456 2541 1237 2417 
Q 1019 2294 894 2097 
L 366 2166 
L 809 4519 
L 3088 4519 
L 3088 3981 
L 1259 3981 
L 1013 2750 
Q 1425 3038 1878 3038 
Q 2478 3038 2890 2622 
Q 3303 2206 3303 1553 
Q 3303 931 2941 478 
Q 2500 -78 1738 -78 
Q 1113 -78 717 272 
Q 322 622 266 1200 
z
" transform="scale(0.015625)"/>
       </defs>
       <use xlink:href="#ArialMT-31"/>
       <use xlink:href="#ArialMT-34" x="55.615234"/>
       <use xlink:href="#ArialMT-35" x="111.230469"/>
       <use xlink:href="#ArialMT-30" x="166.845703"/>
      </g>
     </g>
    </g>
    <g id="xtick_3">
     <g id="line2d_3">
      <g>
       <use xlink:href="#m9ebb18363d" x="285.448281" y="273.312" style="fill: #262626; stroke: #262626; stroke-width: 1.25"/>
      </g>
     </g>
     <g id="text_3">
      <!-- 1500 -->
      <g style="fill: #262626" transform="translate(273.214219 284.685594) scale(0.11 -0.11)">
       <use xlink:href="#ArialMT-31"/>
       <use xlink:href="#ArialMT-35" x="55.615234"/>
       <use xlink:href="#ArialMT-30" x="111.230469"/>
       <use xlink:href="#ArialMT-30" x="166.845703"/>
      </g>
     </g>
    </g>
    <g id="xtick_4">
     <g id="line2d_4">
      <g>
       <use xlink:href="#m9ebb18363d" x="225.928281" y="273.312" style="fill: #262626; stroke: #262626; stroke-width: 1.25"/>
      </g>
     </g>
     <g id="text_4">
      <!-- 1550 -->
      <g style="fill: #262626" transform="translate(213.694219 284.685594) scale(0.11 -0.11)">
       <use xlink:href="#ArialMT-31"/>
       <use xlink:href="#ArialMT-35" x="55.615234"/>
       <use xlink:href="#ArialMT-35" x="111.230469"/>
       <use xlink:href="#ArialMT-30" x="166.845703"/>
      </g>
     </g>
    </g>
    <g id="xtick_5">
     <g id="line2d_5">
      <g>
       <use xlink:href="#m9ebb18363d" x="166.408281" y="273.312" style="fill: #262626; stroke: #262626; stroke-width: 1.25"/>
      </g>
     </g>
     <g id="text_5">
      <!-- 1600 -->
      <g style="fill: #262626" transform="translate(154.174219 284.685594) scale(0.11 -0.11)">
       <defs>
        <path id="ArialMT-36" d="M 3184 3459 
L 2625 3416 
Q 2550 3747 2413 3897 
Q 2184 4138 1850 4138 
Q 1581 4138 1378 3988 
Q 1113 3794 959 3422 
Q 806 3050 800 2363 
Q 1003 2672 1297 2822 
Q 1591 2972 1913 2972 
Q 2475 2972 2870 2558 
Q 3266 2144 3266 1488 
Q 3266 1056 3080 686 
Q 2894 316 2569 119 
Q 2244 -78 1831 -78 
Q 1128 -78 684 439 
Q 241 956 241 2144 
Q 241 3472 731 4075 
Q 1159 4600 1884 4600 
Q 2425 4600 2770 4297 
Q 3116 3994 3184 3459 
z
M 888 1484 
Q 888 1194 1011 928 
Q 1134 663 1356 523 
Q 1578 384 1822 384 
Q 2178 384 2434 671 
Q 2691 959 2691 1453 
Q 2691 1928 2437 2201 
Q 2184 2475 1800 2475 
Q 1419 2475 1153 2201 
Q 888 1928 888 1484 
z
" transform="scale(0.015625)"/>
       </defs>
       <use xlink:href="#ArialMT-31"/>
       <use xlink:href="#ArialMT-36" x="55.615234"/>
       <use xlink:href="#ArialMT-30" x="111.230469"/>
       <use xlink:href="#ArialMT-30" x="166.845703"/>
      </g>
     </g>
    </g>
    <g id="xtick_6">
     <g id="line2d_6">
      <g>
       <use xlink:href="#m9ebb18363d" x="106.888281" y="273.312" style="fill: #262626; stroke: #262626; stroke-width: 1.25"/>
      </g>
     </g>
     <g id="text_6">
      <!-- 1650 -->
      <g style="fill: #262626" transform="translate(94.654219 284.685594) scale(0.11 -0.11)">
       <use xlink:href="#ArialMT-31"/>
       <use xlink:href="#ArialMT-36" x="55.615234"/>
       <use xlink:href="#ArialMT-35" x="111.230469"/>
       <use xlink:href="#ArialMT-30" x="166.845703"/>
      </g>
     </g>
    </g>
    <g id="xtick_7">
     <g id="line2d_7">
      <g>
       <use xlink:href="#m9ebb18363d" x="47.368281" y="273.312" style="fill: #262626; stroke: #262626; stroke-width: 1.25"/>
      </g>
     </g>
     <g id="text_7">
      <!-- 1700 -->
      <g style="fill: #262626" transform="translate(35.134219 284.685594) scale(0.11 -0.11)">
       <defs>
        <path id="ArialMT-37" d="M 303 3981 
L 303 4522 
L 3269 4522 
L 3269 4084 
Q 2831 3619 2401 2847 
Q 1972 2075 1738 1259 
Q 1569 684 1522 0 
L 944 0 
Q 953 541 1156 1306 
Q 1359 2072 1739 2783 
Q 2119 3494 2547 3981 
L 303 3981 
z
" transform="scale(0.015625)"/>
       </defs>
       <use xlink:href="#ArialMT-31"/>
       <use xlink:href="#ArialMT-37" x="55.615234"/>
       <use xlink:href="#ArialMT-30" x="111.230469"/>
       <use xlink:href="#ArialMT-30" x="166.845703"/>
      </g>
     </g>
    </g>
    <g id="xtick_8">
     <g id="line2d_8">
      <defs>
       <path id="md22a7a0e7c" d="M 0 0 
L 0 -4 
" style="stroke: #262626"/>
      </defs>
      <g>
       <use xlink:href="#md22a7a0e7c" x="374.728281" y="273.312" style="fill: #262626; stroke: #262626"/>
      </g>
     </g>
    </g>
    <g id="xtick_9">
     <g id="line2d_9">
      <g>
       <use xlink:href="#md22a7a0e7c" x="315.208281" y="273.312" style="fill: #262626; stroke: #262626"/>
      </g>
     </g>
    </g>
    <g id="xtick_10">
     <g id="line2d_10">
      <g>
       <use xlink:href="#md22a7a0e7c" x="255.688281" y="273.312" style="fill: #262626; stroke: #262626"/>
      </g>
     </g>
    </g>
    <g id="xtick_11">
     <g id="line2d_11">
      <g>
       <use xlink:href="#md22a7a0e7c" x="196.168281" y="273.312" style="fill: #262626; stroke: #262626"/>
      </g>
     </g>
    </g>
    <g id="xtick_12">
     <g id="line2d_12">
      <g>
       <use xlink:href="#md22a7a0e7c" x="136.648281" y="273.312" style="fill: #262626; stroke: #262626"/>
      </g>
     </g>
    </g>
    <g id="xtick_13">
     <g id="line2d_13">
      <g>
       <use xlink:href="#md22a7a0e7c" x="77.128281" y="273.312" style="fill: #262626; stroke: #262626"/>
      </g>
     </g>
    </g>
    <g id="text_8">
     <!-- Wavenumber (cm^-1) -->
     <g style="fill: #262626" transform="translate(168.664844 299.607469) scale(0.12 -0.12)">
      <defs>
       <path id="ArialMT-57" d="M 1294 0 
L 78 4581 
L 700 4581 
L 1397 1578 
Q 1509 1106 1591 641 
Q 1766 1375 1797 1488 
L 2669 4581 
L 3400 4581 
L 4056 2263 
Q 4303 1400 4413 641 
Q 4500 1075 4641 1638 
L 5359 4581 
L 5969 4581 
L 4713 0 
L 4128 0 
L 3163 3491 
Q 3041 3928 3019 4028 
Q 2947 3713 2884 3491 
L 1913 0 
L 1294 0 
z
" transform="scale(0.015625)"/>
       <path id="ArialMT-61" d="M 2588 409 
Q 2275 144 1986 34 
Q 1697 -75 1366 -75 
Q 819 -75 525 192 
Q 231 459 231 875 
Q 231 1119 342 1320 
Q 453 1522 633 1644 
Q 813 1766 1038 1828 
Q 1203 1872 1538 1913 
Q 2219 1994 2541 2106 
Q 2544 2222 2544 2253 
Q 2544 2597 2384 2738 
Q 2169 2928 1744 2928 
Q 1347 2928 1158 2789 
Q 969 2650 878 2297 
L 328 2372 
Q 403 2725 575 2942 
Q 747 3159 1072 3276 
Q 1397 3394 1825 3394 
Q 2250 3394 2515 3294 
Q 2781 3194 2906 3042 
Q 3031 2891 3081 2659 
Q 3109 2516 3109 2141 
L 3109 1391 
Q 3109 606 3145 398 
Q 3181 191 3288 0 
L 2700 0 
Q 2613 175 2588 409 
z
M 2541 1666 
Q 2234 1541 1622 1453 
Q 1275 1403 1131 1340 
Q 988 1278 909 1158 
Q 831 1038 831 891 
Q 831 666 1001 516 
Q 1172 366 1500 366 
Q 1825 366 2078 508 
Q 2331 650 2450 897 
Q 2541 1088 2541 1459 
L 2541 1666 
z
" transform="scale(0.015625)"/>
       <path id="ArialMT-76" d="M 1344 0 
L 81 3319 
L 675 3319 
L 1388 1331 
Q 1503 1009 1600 663 
Q 1675 925 1809 1294 
L 2547 3319 
L 3125 3319 
L 1869 0 
L 1344 0 
z
" transform="scale(0.015625)"/>
       <path id="ArialMT-65" d="M 2694 1069 
L 3275 997 
Q 3138 488 2766 206 
Q 2394 -75 1816 -75 
Q 1088 -75 661 373 
Q 234 822 234 1631 
Q 234 2469 665 2931 
Q 1097 3394 1784 3394 
Q 2450 3394 2872 2941 
Q 3294 2488 3294 1666 
Q 3294 1616 3291 1516 
L 816 1516 
Q 847 969 1125 678 
Q 1403 388 1819 388 
Q 2128 388 2347 550 
Q 2566 713 2694 1069 
z
M 847 1978 
L 2700 1978 
Q 2663 2397 2488 2606 
Q 2219 2931 1791 2931 
Q 1403 2931 1139 2672 
Q 875 2413 847 1978 
z
" transform="scale(0.015625)"/>
       <path id="ArialMT-6e" d="M 422 0 
L 422 3319 
L 928 3319 
L 928 2847 
Q 1294 3394 1984 3394 
Q 2284 3394 2536 3286 
Q 2788 3178 2913 3003 
Q 3038 2828 3088 2588 
Q 3119 2431 3119 2041 
L 3119 0 
L 2556 0 
L 2556 2019 
Q 2556 2363 2490 2533 
Q 2425 2703 2258 2804 
Q 2091 2906 1866 2906 
Q 1506 2906 1245 2678 
Q 984 2450 984 1813 
L 984 0 
L 422 0 
z
" transform="scale(0.015625)"/>
       <path id="ArialMT-75" d="M 2597 0 
L 2597 488 
Q 2209 -75 1544 -75 
Q 1250 -75 995 37 
Q 741 150 617 320 
Q 494 491 444 738 
Q 409 903 409 1263 
L 409 3319 
L 972 3319 
L 972 1478 
Q 972 1038 1006 884 
Q 1059 663 1231 536 
Q 1403 409 1656 409 
Q 1909 409 2131 539 
Q 2353 669 2445 892 
Q 2538 1116 2538 1541 
L 2538 3319 
L 3100 3319 
L 3100 0 
L 2597 0 
z
" transform="scale(0.015625)"/>
       <path id="ArialMT-6d" d="M 422 0 
L 422 3319 
L 925 3319 
L 925 2853 
Q 1081 3097 1340 3245 
Q 1600 3394 1931 3394 
Q 2300 3394 2536 3241 
Q 2772 3088 2869 2813 
Q 3263 3394 3894 3394 
Q 4388 3394 4653 3120 
Q 4919 2847 4919 2278 
L 4919 0 
L 4359 0 
L 4359 2091 
Q 4359 2428 4304 2576 
Q 4250 2725 4106 2815 
Q 3963 2906 3769 2906 
Q 3419 2906 3187 2673 
Q 2956 2441 2956 1928 
L 2956 0 
L 2394 0 
L 2394 2156 
Q 2394 2531 2256 2718 
Q 2119 2906 1806 2906 
Q 1569 2906 1367 2781 
Q 1166 2656 1075 2415 
Q 984 2175 984 1722 
L 984 0 
L 422 0 
z
" transform="scale(0.015625)"/>
       <path id="ArialMT-62" d="M 941 0 
L 419 0 
L 419 4581 
L 981 4581 
L 981 2947 
Q 1338 3394 1891 3394 
Q 2197 3394 2470 3270 
Q 2744 3147 2920 2923 
Q 3097 2700 3197 2384 
Q 3297 2069 3297 1709 
Q 3297 856 2875 390 
Q 2453 -75 1863 -75 
Q 1275 -75 941 416 
L 941 0 
z
M 934 1684 
Q 934 1088 1097 822 
Q 1363 388 1816 388 
Q 2184 388 2453 708 
Q 2722 1028 2722 1663 
Q 2722 2313 2464 2622 
Q 2206 2931 1841 2931 
Q 1472 2931 1203 2611 
Q 934 2291 934 1684 
z
" transform="scale(0.015625)"/>
       <path id="ArialMT-72" d="M 416 0 
L 416 3319 
L 922 3319 
L 922 2816 
Q 1116 3169 1280 3281 
Q 1444 3394 1641 3394 
Q 1925 3394 2219 3213 
L 2025 2691 
Q 1819 2813 1613 2813 
Q 1428 2813 1281 2702 
Q 1134 2591 1072 2394 
Q 978 2094 978 1738 
L 978 0 
L 416 0 
z
" transform="scale(0.015625)"/>
       <path id="ArialMT-20" transform="scale(0.015625)"/>
       <path id="ArialMT-28" d="M 1497 -1347 
Q 1031 -759 709 28 
Q 388 816 388 1659 
Q 388 2403 628 3084 
Q 909 3875 1497 4659 
L 1900 4659 
Q 1522 4009 1400 3731 
Q 1209 3300 1100 2831 
Q 966 2247 966 1656 
Q 966 153 1900 -1347 
L 1497 -1347 
z
" transform="scale(0.015625)"/>
       <path id="ArialMT-63" d="M 2588 1216 
L 3141 1144 
Q 3050 572 2676 248 
Q 2303 -75 1759 -75 
Q 1078 -75 664 370 
Q 250 816 250 1647 
Q 250 2184 428 2587 
Q 606 2991 970 3192 
Q 1334 3394 1763 3394 
Q 2303 3394 2647 3120 
Q 2991 2847 3088 2344 
L 2541 2259 
Q 2463 2594 2264 2762 
Q 2066 2931 1784 2931 
Q 1359 2931 1093 2626 
Q 828 2322 828 1663 
Q 828 994 1084 691 
Q 1341 388 1753 388 
Q 2084 388 2306 591 
Q 2528 794 2588 1216 
z
" transform="scale(0.015625)"/>
       <path id="ArialMT-5e" d="M 747 2156 
L 169 2156 
L 1272 4659 
L 1725 4659 
L 2834 2156 
L 2269 2156 
L 1497 4022 
L 747 2156 
z
" transform="scale(0.015625)"/>
       <path id="ArialMT-2d" d="M 203 1375 
L 203 1941 
L 1931 1941 
L 1931 1375 
L 203 1375 
z
" transform="scale(0.015625)"/>
       <path id="ArialMT-29" d="M 791 -1347 
L 388 -1347 
Q 1322 153 1322 1656 
Q 1322 2244 1188 2822 
Q 1081 3291 891 3722 
Q 769 4003 388 4659 
L 791 4659 
Q 1378 3875 1659 3084 
Q 1900 2403 1900 1659 
Q 1900 816 1576 28 
Q 1253 -759 791 -1347 
z
" transform="scale(0.015625)"/>
      </defs>
      <use xlink:href="#ArialMT-57"/>
      <use xlink:href="#ArialMT-61" x="90.634766"/>
      <use xlink:href="#ArialMT-76" x="146.25"/>
      <use xlink:href="#ArialMT-65" x="196.25"/>
      <use xlink:href="#ArialMT-6e" x="251.865234"/>
      <use xlink:href="#ArialMT-75" x="307.480469"/>
      <use xlink:href="#ArialMT-6d" x="363.095703"/>
      <use xlink:href="#ArialMT-62" x="446.396484"/>
      <use xlink:href="#ArialMT-65" x="502.011719"/>
      <use xlink:href="#ArialMT-72" x="557.626953"/>
      <use xlink:href="#ArialMT-20" x="590.927734"/>
      <use xlink:href="#ArialMT-28" x="618.710938"/>
      <use xlink:href="#ArialMT-63" x="652.011719"/>
      <use xlink:href="#ArialMT-6d" x="702.011719"/>
      <use xlink:href="#ArialMT-5e" x="785.3125"/>
      <use xlink:href="#ArialMT-2d" x="832.236328"/>
      <use xlink:href="#ArialMT-31" x="865.537109"/>
      <use xlink:href="#ArialMT-29" x="921.152344"/>
     </g>
    </g>
   </g>
   <g id="matplotlib.axis_2">
    <g id="ytick_1">
     <g id="line2d_14">
      <defs>
       <path id="m2408707aa9" d="M 0 0 
L 6 0 
" style="stroke: #262626; stroke-width: 1.25"/>
      </defs>
      <g>
       <use xlink:href="#m2408707aa9" x="47.368281" y="273.312" style="fill: #262626; stroke: #262626; stroke-width: 1.25"/>
      </g>
     </g>
     <g id="text_9">
      <!-- 0.00 -->
      <g style="fill: #262626" transform="translate(22.46125 277.248797) scale(0.11 -0.11)">
       <defs>
        <path id="ArialMT-2e" d="M 581 0 
L 581 641 
L 1222 641 
L 1222 0 
L 581 0 
z
" transform="scale(0.015625)"/>
       </defs>
       <use xlink:href="#ArialMT-30"/>
       <use xlink:href="#ArialMT-2e" x="55.615234"/>
       <use xlink:href="#ArialMT-30" x="83.398438"/>
       <use xlink:href="#ArialMT-30" x="139.013672"/>
      </g>
     </g>
    </g>
    <g id="ytick_2">
     <g id="line2d_15">
      <g>
       <use xlink:href="#m2408707aa9" x="47.368281" y="224.032" style="fill: #262626; stroke: #262626; stroke-width: 1.25"/>
      </g>
     </g>
     <g id="text_10">
      <!-- 0.05 -->
      <g style="fill: #262626" transform="translate(22.46125 227.968797) scale(0.11 -0.11)">
       <use xlink:href="#ArialMT-30"/>
       <use xlink:href="#ArialMT-2e" x="55.615234"/>
       <use xlink:href="#ArialMT-30" x="83.398438"/>
       <use xlink:href="#ArialMT-35" x="139.013672"/>
      </g>
     </g>
    </g>
    <g id="ytick_3">
     <g id="line2d_16">
      <g>
       <use xlink:href="#m2408707aa9" x="47.368281" y="174.752" style="fill: #262626; stroke: #262626; stroke-width: 1.25"/>
      </g>
     </g>
     <g id="text_11">
      <!-- 0.10 -->
      <g style="fill: #262626" transform="translate(22.46125 178.688797) scale(0.11 -0.11)">
       <use xlink:href="#ArialMT-30"/>
       <use xlink:href="#ArialMT-2e" x="55.615234"/>
       <use xlink:href="#ArialMT-31" x="83.398438"/>
       <use xlink:href="#ArialMT-30" x="139.013672"/>
      </g>
     </g>
    </g>
    <g id="ytick_4">
     <g id="line2d_17">
      <g>
       <use xlink:href="#m2408707aa9" x="47.368281" y="125.472" style="fill: #262626; stroke: #262626; stroke-width: 1.25"/>
      </g>
     </g>
     <g id="text_12">
      <!-- 0.15 -->
      <g style="fill: #262626" transform="translate(22.46125 129.408797) scale(0.11 -0.11)">
       <use xlink:href="#ArialMT-30"/>
       <use xlink:href="#ArialMT-2e" x="55.615234"/>
       <use xlink:href="#ArialMT-31" x="83.398438"/>
       <use xlink:href="#ArialMT-35" x="139.013672"/>
      </g>
     </g>
    </g>
    <g id="ytick_5">
     <g id="line2d_18">
      <g>
       <use xlink:href="#m2408707aa9" x="47.368281" y="76.192" style="fill: #262626; stroke: #262626; stroke-width: 1.25"/>
      </g>
     </g>
     <g id="text_13">
      <!-- 0.20 -->
      <g style="fill: #262626" transform="translate(22.46125 80.128797) scale(0.11 -0.11)">
       <defs>
        <path id="ArialMT-32" d="M 3222 541 
L 3222 0 
L 194 0 
Q 188 203 259 391 
Q 375 700 629 1000 
Q 884 1300 1366 1694 
Q 2113 2306 2375 2664 
Q 2638 3022 2638 3341 
Q 2638 3675 2398 3904 
Q 2159 4134 1775 4134 
Q 1369 4134 1125 3890 
Q 881 3647 878 3216 
L 300 3275 
Q 359 3922 746 4261 
Q 1134 4600 1788 4600 
Q 2447 4600 2831 4234 
Q 3216 3869 3216 3328 
Q 3216 3053 3103 2787 
Q 2991 2522 2730 2228 
Q 2469 1934 1863 1422 
Q 1356 997 1212 845 
Q 1069 694 975 541 
L 3222 541 
z
" transform="scale(0.015625)"/>
       </defs>
       <use xlink:href="#ArialMT-30"/>
       <use xlink:href="#ArialMT-2e" x="55.615234"/>
       <use xlink:href="#ArialMT-32" x="83.398438"/>
       <use xlink:href="#ArialMT-30" x="139.013672"/>
      </g>
     </g>
    </g>
    <g id="ytick_6">
     <g id="line2d_19">
      <g>
       <use xlink:href="#m2408707aa9" x="47.368281" y="26.912" style="fill: #262626; stroke: #262626; stroke-width: 1.25"/>
      </g>
     </g>
     <g id="text_14">
      <!-- 0.25 -->
      <g style="fill: #262626" transform="translate(22.46125 30.848797) scale(0.11 -0.11)">
       <use xlink:href="#ArialMT-30"/>
       <use xlink:href="#ArialMT-2e" x="55.615234"/>
       <use xlink:href="#ArialMT-32" x="83.398438"/>
       <use xlink:href="#ArialMT-35" x="139.013672"/>
      </g>
     </g>
    </g>
    <g id="ytick_7">
     <g id="line2d_20">
      <defs>
       <path id="m237b28287d" d="M 0 0 
L 4 0 
" style="stroke: #262626"/>
      </defs>
      <g>
       <use xlink:href="#m237b28287d" x="47.368281" y="248.672" style="fill: #262626; stroke: #262626"/>
      </g>
     </g>
    </g>
    <g id="ytick_8">
     <g id="line2d_21">
      <g>
       <use xlink:href="#m237b28287d" x="47.368281" y="199.392" style="fill: #262626; stroke: #262626"/>
      </g>
     </g>
    </g>
    <g id="ytick_9">
     <g id="line2d_22">
      <g>
       <use xlink:href="#m237b28287d" x="47.368281" y="150.112" style="fill: #262626; stroke: #262626"/>
      </g>
     </g>
    </g>
    <g id="ytick_10">
     <g id="line2d_23">
      <g>
       <use xlink:href="#m237b28287d" x="47.368281" y="100.832" style="fill: #262626; stroke: #262626"/>
      </g>
     </g>
    </g>
    <g id="ytick_11">
     <g id="line2d_24">
      <g>
       <use xlink:href="#m237b28287d" x="47.368281" y="51.552" style="fill: #262626; stroke: #262626"/>
      </g>
     </g>
    </g>
    <g id="text_15">
     <!-- Absorbance (a.u.) -->
     <g style="fill: #262626" transform="translate(15.935625 187.94475) rotate(-90) scale(0.12 -0.12)">
      <defs>
       <path id="ArialMT-41" d="M -9 0 
L 1750 4581 
L 2403 4581 
L 4278 0 
L 3588 0 
L 3053 1388 
L 1138 1388 
L 634 0 
L -9 0 
z
M 1313 1881 
L 2866 1881 
L 2388 3150 
Q 2169 3728 2063 4100 
Q 1975 3659 1816 3225 
L 1313 1881 
z
" transform="scale(0.015625)"/>
       <path id="ArialMT-73" d="M 197 991 
L 753 1078 
Q 800 744 1014 566 
Q 1228 388 1613 388 
Q 2000 388 2187 545 
Q 2375 703 2375 916 
Q 2375 1106 2209 1216 
Q 2094 1291 1634 1406 
Q 1016 1563 777 1677 
Q 538 1791 414 1992 
Q 291 2194 291 2438 
Q 291 2659 392 2848 
Q 494 3038 669 3163 
Q 800 3259 1026 3326 
Q 1253 3394 1513 3394 
Q 1903 3394 2198 3281 
Q 2494 3169 2634 2976 
Q 2775 2784 2828 2463 
L 2278 2388 
Q 2241 2644 2061 2787 
Q 1881 2931 1553 2931 
Q 1166 2931 1000 2803 
Q 834 2675 834 2503 
Q 834 2394 903 2306 
Q 972 2216 1119 2156 
Q 1203 2125 1616 2013 
Q 2213 1853 2448 1751 
Q 2684 1650 2818 1456 
Q 2953 1263 2953 975 
Q 2953 694 2789 445 
Q 2625 197 2315 61 
Q 2006 -75 1616 -75 
Q 969 -75 630 194 
Q 291 463 197 991 
z
" transform="scale(0.015625)"/>
       <path id="ArialMT-6f" d="M 213 1659 
Q 213 2581 725 3025 
Q 1153 3394 1769 3394 
Q 2453 3394 2887 2945 
Q 3322 2497 3322 1706 
Q 3322 1066 3130 698 
Q 2938 331 2570 128 
Q 2203 -75 1769 -75 
Q 1072 -75 642 372 
Q 213 819 213 1659 
z
M 791 1659 
Q 791 1022 1069 705 
Q 1347 388 1769 388 
Q 2188 388 2466 706 
Q 2744 1025 2744 1678 
Q 2744 2294 2464 2611 
Q 2184 2928 1769 2928 
Q 1347 2928 1069 2612 
Q 791 2297 791 1659 
z
" transform="scale(0.015625)"/>
      </defs>
      <use xlink:href="#ArialMT-41"/>
      <use xlink:href="#ArialMT-62" x="66.699219"/>
      <use xlink:href="#ArialMT-73" x="122.314453"/>
      <use xlink:href="#ArialMT-6f" x="172.314453"/>
      <use xlink:href="#ArialMT-72" x="227.929688"/>
      <use xlink:href="#ArialMT-62" x="261.230469"/>
      <use xlink:href="#ArialMT-61" x="316.845703"/>
      <use xlink:href="#ArialMT-6e" x="372.460938"/>
      <use xlink:href="#ArialMT-63" x="428.076172"/>
      <use xlink:href="#ArialMT-65" x="478.076172"/>
      <use xlink:href="#ArialMT-20" x="533.691406"/>
      <use xlink:href="#ArialMT-28" x="561.474609"/>
      <use xlink:href="#ArialMT-61" x="594.775391"/>
      <use xlink:href="#ArialMT-2e" x="650.390625"/>
      <use xlink:href="#ArialMT-75" x="678.173828"/>
      <use xlink:href="#ArialMT-2e" x="733.789062"/>
      <use xlink:href="#ArialMT-29" x="761.572266"/>
     </g>
    </g>
   </g>
   <g id="PolyCollection_1"/>
   <g id="PolyCollection_2"/>
   <g id="PolyCollection_3"/>
   <g id="PolyCollection_4"/>
   <g id="line2d_25">
    <path d="M 405.556328 121.804578 
L 404.408505 123.943341 
L 403.260681 125.607023 
L 402.112858 126.838037 
L 400.965034 127.740851 
L 396.373741 130.494615 
L 392.93027 132.457932 
L 390.634623 133.555887 
L 389.4868 133.930424 
L 388.338977 134.125565 
L 387.191153 134.128531 
L 386.04333 133.932392 
L 384.895506 133.516468 
L 383.747683 132.862034 
L 380.304212 130.494615 
L 376.860742 128.752081 
L 375.712919 127.877848 
L 374.565095 126.795667 
L 373.417272 125.498606 
L 372.269448 123.877295 
L 371.121625 121.701096 
L 369.973802 118.750209 
L 368.825978 115.04731 
L 365.382508 103.142247 
L 364.234684 99.323045 
L 363.086861 94.920374 
L 361.939037 89.477893 
L 358.495567 71.058992 
L 356.19992 60.500263 
L 353.904273 48.397093 
L 350.460803 29.103973 
L 349.31298 23.443675 
L 348.165156 18.466391 
L 347.017333 14.487531 
L 345.869509 11.811636 
L 344.721686 10.445578 
L 343.573862 10.050362 
L 342.426039 10.181454 
L 341.278216 10.522447 
L 340.130392 10.994562 
L 338.982569 11.799798 
L 337.834745 13.432947 
L 336.686922 16.270483 
L 335.539098 19.659941 
L 334.391275 22.356545 
L 333.243452 23.964079 
L 332.095628 24.754511 
L 330.947805 25.039372 
L 329.799981 25.131017 
L 328.652158 25.563713 
L 327.504334 27.178106 
L 326.356511 30.663189 
L 325.208687 35.964737 
L 324.060864 42.516026 
L 322.913041 49.94942 
L 321.765217 58.36545 
L 320.617394 68.122894 
L 318.321747 90.80647 
L 317.173923 100.180521 
L 316.0261 105.532327 
L 314.878277 107.39413 
L 313.730453 107.460161 
L 312.58263 106.856969 
L 311.434806 105.922623 
L 310.286983 104.600933 
L 309.139159 102.764757 
L 307.991336 100.393403 
L 304.547866 92.049323 
L 303.400042 89.705564 
L 302.252219 87.871356 
L 301.104395 86.752709 
L 299.956572 86.731017 
L 298.808748 88.180832 
L 295.365278 96.043956 
L 294.217455 97.367614 
L 293.069631 97.809166 
L 291.921808 97.398177 
L 290.773984 95.981861 
L 289.626161 93.235 
L 288.478337 88.949601 
L 283.887044 67.175727 
L 280.443573 54.002198 
L 279.29575 48.44243 
L 278.147927 40.521162 
L 277.000103 30.695719 
L 275.85228 23.041556 
L 274.704456 20.184281 
L 273.556633 20.516433 
L 272.408809 22.116066 
L 271.260986 24.286362 
L 270.113162 27.136719 
L 268.965339 31.140224 
L 267.817516 36.740409 
L 266.669692 43.910649 
L 259.782752 93.000426 
L 258.634928 101.418438 
L 257.487105 108.440829 
L 256.339281 114.162237 
L 252.895811 128.947222 
L 251.747987 133.077882 
L 250.600164 136.357955 
L 249.452341 138.888967 
L 246.00887 145.537834 
L 244.861047 147.741629 
L 243.713223 149.419116 
L 242.5654 150.43429 
L 241.417577 150.935961 
L 239.12193 151.266138 
L 237.974106 151.306548 
L 236.826283 151.149835 
L 234.530636 150.194788 
L 232.234989 149.12935 
L 231.087166 148.457174 
L 229.939342 147.59281 
L 228.791519 146.522452 
L 227.643695 145.255954 
L 226.495872 143.784447 
L 225.348048 142.059654 
L 224.200225 140.042129 
L 218.461108 128.871336 
L 217.313284 125.564652 
L 216.165461 120.300554 
L 215.017637 114.06466 
L 213.869814 109.447124 
L 212.721991 106.865839 
L 210.426344 103.456657 
L 209.27852 101.440116 
L 208.130697 99.019487 
L 206.982873 96.107035 
L 205.83505 92.396249 
L 204.687227 87.334209 
L 203.539403 80.568071 
L 201.243756 64.995591 
L 200.095933 58.626636 
L 198.948109 53.65232 
L 195.504639 41.551117 
L 194.356816 38.216837 
L 193.208992 36.634945 
L 192.061169 37.070578 
L 190.913345 38.956027 
L 189.765522 41.781741 
L 188.617698 45.416641 
L 187.469875 49.927728 
L 186.322052 55.315017 
L 184.026405 67.881417 
L 180.582934 88.61253 
L 178.287287 102.611004 
L 175.991641 114.9517 
L 174.843817 120.264087 
L 173.695994 124.975264 
L 172.54817 129.023122 
L 171.400347 132.336709 
L 170.252523 134.900253 
L 169.1047 136.778799 
L 167.956877 138.082747 
L 166.809053 138.930369 
L 165.66123 139.425145 
L 164.513406 139.657737 
L 163.365583 139.708009 
L 161.069936 139.517788 
L 157.626466 139.12059 
L 155.330819 139.128476 
L 149.591702 139.670558 
L 147.296055 139.421195 
L 143.852584 138.790406 
L 141.556937 138.32324 
L 140.409114 137.898445 
L 138.113467 136.631948 
L 135.81782 135.398965 
L 133.522173 134.617389 
L 132.37435 134.409427 
L 131.226527 134.334511 
L 128.93088 134.493199 
L 118.600469 135.739987 
L 116.304822 135.679861 
L 115.156998 135.525123 
L 114.009175 135.235356 
L 112.861352 134.752403 
L 110.565705 133.407068 
L 109.417881 132.964531 
L 108.270058 132.812746 
L 105.974411 132.772343 
L 104.826587 132.448078 
L 103.678764 131.598488 
L 101.383117 129.214327 
L 100.235294 128.540168 
L 96.791823 127.184979 
L 94.496177 125.9579 
L 92.20053 124.711112 
L 91.052706 124.290267 
L 87.609236 123.661447 
L 86.461412 122.889725 
L 85.313589 121.004276 
L 84.165766 117.472872 
L 83.017942 112.411817 
L 80.722295 101.224267 
L 77.278825 85.433971 
L 76.131002 81.194909 
L 74.983178 78.950696 
L 73.835355 78.92802 
L 72.687531 80.512864 
L 71.539708 82.990667 
L 70.391884 86.177112 
L 69.244061 90.741424 
L 68.096237 98.142302 
L 66.948414 109.286482 
L 65.800591 122.049007 
L 64.652767 132.55551 
L 63.504944 139.505966 
L 62.35712 144.036762 
L 61.209297 147.430186 
L 60.061473 150.299261 
L 58.91365 152.739606 
L 57.765827 154.634917 
L 56.618003 155.882689 
L 55.47018 156.494746 
L 54.322356 156.581477 
L 53.174533 156.305509 
L 47.435416 154.050457 
L 46.287592 153.902615 
L 46.287592 153.902615 
" clip-path="url(#pdc56e77e46)" style="fill: none; stroke: #f69c73; stroke-linecap: round"/>
   </g>
   <g id="line2d_26">
    <path d="M 405.556328 195.215419 
L 404.408505 196.971464 
L 403.260681 198.305373 
L 402.112858 199.193501 
L 400.965034 199.677137 
L 399.817211 199.838675 
L 398.669387 199.767122 
L 397.521564 199.529295 
L 396.373741 199.155058 
L 395.225917 198.644325 
L 394.078094 197.985353 
L 391.782447 196.239265 
L 386.04333 191.195062 
L 384.895506 189.985732 
L 381.452036 185.801561 
L 376.860742 181.392582 
L 374.565095 178.104028 
L 372.269448 174.405072 
L 371.121625 172.306726 
L 368.825978 167.267355 
L 366.530331 162.24671 
L 359.643391 149.77788 
L 358.495567 148.478866 
L 357.347744 147.631245 
L 355.052097 146.484986 
L 353.904273 146.067094 
L 352.75645 145.835487 
L 351.608627 145.891663 
L 350.460803 146.321378 
L 349.31298 147.184773 
L 348.165156 148.497592 
L 345.869509 152.079261 
L 344.721686 153.922332 
L 343.573862 155.535756 
L 342.426039 156.837736 
L 341.278216 157.830233 
L 338.982569 159.258372 
L 337.834745 160.264667 
L 336.686922 162.098867 
L 334.391275 167.042636 
L 333.243452 168.787152 
L 332.095628 169.942274 
L 330.947805 170.72681 
L 328.652158 172.017944 
L 327.504334 172.981861 
L 326.356511 174.358743 
L 324.060864 177.873001 
L 319.46957 185.164567 
L 318.321747 186.591721 
L 317.173923 187.213529 
L 316.0261 186.855565 
L 314.878277 185.794761 
L 313.730453 184.381118 
L 311.434806 181.011252 
L 309.139159 176.975415 
L 301.104395 161.258148 
L 298.808748 156.123175 
L 297.660925 154.18351 
L 296.513102 153.145676 
L 295.365278 152.816483 
L 294.217455 152.846055 
L 293.069631 153.026421 
L 291.921808 153.323082 
L 290.773984 153.8356 
L 289.626161 154.750236 
L 288.478337 156.217793 
L 283.887044 163.752701 
L 282.73922 165.118745 
L 280.443573 167.251582 
L 279.29575 168.283505 
L 278.147927 169.770779 
L 277.000103 172.160859 
L 275.85228 175.093513 
L 274.704456 177.660111 
L 273.556633 179.601648 
L 272.408809 181.102713 
L 271.260986 182.318351 
L 270.113162 183.30573 
L 268.965339 184.080014 
L 266.669692 185.133027 
L 260.930575 187.172928 
L 258.634928 187.654097 
L 255.191458 188.04755 
L 251.747987 188.351115 
L 250.600164 188.339087 
L 249.452341 188.184547 
L 248.304517 187.860774 
L 244.861047 186.528936 
L 242.5654 186.224483 
L 240.269753 185.983109 
L 237.974106 185.363364 
L 236.826283 185.301174 
L 235.678459 185.859418 
L 234.530636 186.914598 
L 232.234989 189.330203 
L 229.939342 191.340341 
L 227.643695 192.835201 
L 225.348048 194.113125 
L 224.200225 194.612924 
L 223.052402 194.914814 
L 221.904578 194.998395 
L 220.756755 194.907419 
L 219.608931 194.661022 
L 218.461108 194.115687 
L 217.313284 192.83382 
L 216.165461 190.312949 
L 215.017637 187.058593 
L 213.869814 184.399645 
L 211.574167 180.646775 
L 210.426344 178.403054 
L 209.27852 175.608292 
L 208.130697 172.304758 
L 206.982873 168.581158 
L 205.83505 164.44361 
L 203.539403 154.727568 
L 202.39158 149.69706 
L 201.243756 145.439272 
L 200.095933 142.350404 
L 198.948109 140.339782 
L 197.800286 139.135379 
L 196.652462 138.574572 
L 195.504639 138.747051 
L 194.356816 139.855844 
L 193.208992 141.826064 
L 190.913345 146.898942 
L 189.765522 149.733527 
L 188.617698 152.925891 
L 187.469875 156.587389 
L 185.174228 164.98766 
L 181.730758 177.594073 
L 179.435111 185.195519 
L 178.287287 188.547834 
L 177.139464 191.483249 
L 175.991641 193.971788 
L 174.843817 196.013069 
L 173.695994 197.605991 
L 172.54817 198.748402 
L 171.400347 199.458924 
L 170.252523 199.785943 
L 169.1047 199.789299 
L 167.956877 199.518647 
L 166.809053 199.011556 
L 165.66123 198.303802 
L 163.365583 196.442593 
L 161.069936 194.150678 
L 159.922112 192.832337 
L 158.774289 191.341913 
L 157.626466 189.595627 
L 156.478642 187.511578 
L 154.182995 182.487775 
L 151.887348 177.447515 
L 149.591702 172.388531 
L 148.443878 169.039461 
L 145.000408 156.058128 
L 143.852584 152.982067 
L 140.409114 145.829568 
L 138.113467 140.177157 
L 136.965644 137.874785 
L 135.81782 136.316553 
L 134.669997 135.39403 
L 133.522173 134.906157 
L 132.37435 134.733677 
L 131.226527 134.8214 
L 128.93088 135.455141 
L 126.635233 136.234749 
L 125.487409 136.828087 
L 124.339586 137.837335 
L 123.191762 139.320665 
L 119.748292 144.581796 
L 116.304822 150.614656 
L 114.009175 154.700955 
L 112.861352 157.474429 
L 111.713528 161.532149 
L 109.417881 171.520216 
L 108.270058 175.068671 
L 107.122234 177.383159 
L 105.974411 179.196071 
L 104.826587 181.517256 
L 103.678764 185.369276 
L 102.530941 190.513222 
L 101.383117 194.92063 
L 100.235294 197.582441 
L 99.08747 199.137816 
L 96.791823 201.333732 
L 93.348353 204.597246 
L 89.904883 208.220903 
L 88.757059 209.155749 
L 86.461412 210.565551 
L 84.165766 212.096285 
L 83.017942 212.9714 
L 81.870119 213.660631 
L 80.722295 213.962914 
L 79.574472 213.804427 
L 78.426648 213.175812 
L 77.278825 212.102494 
L 72.687531 206.495222 
L 70.391884 204.335773 
L 69.244061 203.556459 
L 68.096237 203.386733 
L 66.948414 204.289841 
L 63.504944 210.042789 
L 57.765827 217.586076 
L 56.618003 218.788903 
L 55.47018 219.714481 
L 54.322356 220.402922 
L 52.026709 221.335201 
L 49.731062 221.941346 
L 46.287592 222.742932 
L 46.287592 222.742932 
" clip-path="url(#pdc56e77e46)" style="fill: none; stroke: #e83f3f; stroke-linecap: round"/>
   </g>
   <g id="line2d_27">
    <path d="M 405.556328 252.480062 
L 404.408505 254.393999 
L 403.260681 256.075826 
L 402.112858 257.35011 
L 400.965034 258.230546 
L 398.669387 259.389612 
L 394.078094 261.511608 
L 390.634623 262.632925 
L 389.4868 262.914314 
L 388.338977 263.030122 
L 387.191153 262.916482 
L 383.747683 261.820594 
L 382.599859 261.854203 
L 381.452036 262.29654 
L 379.156389 263.423377 
L 378.008566 263.692692 
L 376.860742 263.745983 
L 374.565095 263.492625 
L 373.417272 263.250206 
L 372.269448 262.891448 
L 371.121625 262.361097 
L 369.973802 261.636386 
L 366.530331 258.888237 
L 364.234684 256.900972 
L 360.791214 253.333296 
L 359.643391 252.510814 
L 357.347744 251.353326 
L 356.19992 250.559819 
L 355.052097 249.452595 
L 353.904273 248.027714 
L 352.75645 246.327455 
L 351.608627 244.38878 
L 349.31298 239.807021 
L 347.017333 234.795441 
L 345.869509 232.755643 
L 344.721686 231.335197 
L 343.573862 230.507193 
L 342.426039 230.091372 
L 341.278216 229.899965 
L 340.130392 229.859361 
L 338.982569 230.145576 
L 337.834745 231.329088 
L 336.686922 234.06048 
L 335.539098 237.871205 
L 334.391275 241.263736 
L 333.243452 243.528941 
L 332.095628 244.874581 
L 330.947805 245.651333 
L 329.799981 246.097711 
L 327.504334 246.721695 
L 326.356511 247.252145 
L 325.208687 248.021702 
L 322.913041 249.956729 
L 320.617394 252.20991 
L 319.46957 253.612321 
L 316.0261 258.666969 
L 314.878277 259.849788 
L 313.730453 260.618852 
L 312.58263 261.03576 
L 311.434806 261.133926 
L 310.286983 260.918277 
L 309.139159 260.3897 
L 307.991336 259.56012 
L 306.843512 258.453094 
L 305.695689 257.090699 
L 304.547866 255.475991 
L 303.400042 253.588075 
L 299.956572 246.961492 
L 298.808748 245.901873 
L 297.660925 246.477069 
L 296.513102 248.284758 
L 295.365278 250.339636 
L 294.217455 251.993966 
L 293.069631 253.086994 
L 291.921808 253.678355 
L 290.773984 253.853891 
L 289.626161 253.650759 
L 288.478337 253.060975 
L 287.330514 252.110168 
L 285.034867 249.617584 
L 282.73922 246.970755 
L 281.591397 245.491174 
L 280.443573 243.528844 
L 279.29575 240.376699 
L 278.147927 235.089841 
L 277.000103 228.000322 
L 275.85228 222.119149 
L 274.704456 219.358089 
L 273.556633 218.51136 
L 271.260986 217.668277 
L 270.113162 217.093969 
L 268.965339 216.687209 
L 267.817516 216.828248 
L 266.669692 217.794434 
L 265.521869 219.568515 
L 264.374045 221.885757 
L 263.226222 224.528644 
L 262.078398 227.532951 
L 259.782752 234.844821 
L 258.634928 238.477349 
L 257.487105 241.526993 
L 252.895811 251.54867 
L 251.747987 253.812003 
L 250.600164 255.567061 
L 249.452341 256.804777 
L 246.00887 259.54445 
L 243.713223 261.586514 
L 242.5654 262.258792 
L 241.417577 262.614988 
L 240.269753 262.687429 
L 239.12193 262.492576 
L 236.826283 261.641117 
L 235.678459 261.657477 
L 234.530636 262.213454 
L 231.087166 264.673472 
L 229.939342 265.167859 
L 228.791519 265.375397 
L 227.643695 265.329241 
L 221.904578 264.173694 
L 220.756755 263.875057 
L 219.608931 263.443976 
L 217.313284 262.257806 
L 216.165461 262.000959 
L 215.017637 262.483705 
L 212.721991 264.137089 
L 211.574167 264.616682 
L 210.426344 264.883582 
L 209.27852 265.003057 
L 206.982873 264.901097 
L 205.83505 264.671383 
L 204.687227 264.292488 
L 202.39158 263.110744 
L 198.948109 260.942622 
L 197.800286 259.900448 
L 196.652462 258.376415 
L 195.504639 256.22761 
L 193.208992 251.260875 
L 192.061169 249.365862 
L 189.765522 246.548426 
L 187.469875 244.157065 
L 186.322052 243.400123 
L 185.174228 243.202314 
L 184.026405 243.622377 
L 182.878581 244.586096 
L 181.730758 245.977369 
L 180.582934 247.700691 
L 178.287287 251.782159 
L 175.991641 255.971552 
L 173.695994 259.63956 
L 172.54817 261.204397 
L 171.400347 262.557232 
L 170.252523 263.671018 
L 169.1047 264.531793 
L 167.956877 265.145919 
L 166.809053 265.538385 
L 165.66123 265.746229 
L 163.365583 265.76808 
L 161.069936 265.448844 
L 158.774289 264.882774 
L 155.330819 263.97144 
L 149.591702 262.997794 
L 141.556937 260.480671 
L 139.261291 259.264342 
L 136.965644 257.933782 
L 134.669997 256.743965 
L 133.522173 256.002893 
L 131.226527 254.096053 
L 127.783056 250.993088 
L 126.635233 249.507789 
L 125.487409 247.230954 
L 124.339586 243.949596 
L 123.191762 240.204514 
L 122.043939 236.98249 
L 120.896116 234.5587 
L 116.304822 226.241813 
L 115.156998 224.00332 
L 114.009175 221.426566 
L 112.861352 217.956369 
L 111.713528 213.107707 
L 110.565705 207.365601 
L 109.417881 202.242949 
L 108.270058 198.736182 
L 107.122234 196.707128 
L 105.974411 195.733745 
L 104.826587 195.852611 
L 103.678764 197.695785 
L 101.383117 205.250211 
L 100.235294 207.850221 
L 99.08747 209.301124 
L 97.939647 210.117103 
L 94.496177 211.660259 
L 93.348353 212.902902 
L 92.20053 215.078022 
L 86.461412 229.822303 
L 85.313589 233.132637 
L 83.017942 240.4245 
L 81.870119 242.92743 
L 80.722295 243.962409 
L 79.574472 243.692748 
L 78.426648 242.509536 
L 76.131002 239.46768 
L 74.983178 238.776478 
L 73.835355 239.006812 
L 72.687531 239.961069 
L 71.539708 241.356188 
L 70.391884 243.077931 
L 69.244061 245.296222 
L 68.096237 248.430429 
L 64.652767 260.843076 
L 63.504944 263.080289 
L 62.35712 264.437796 
L 60.061473 266.246234 
L 58.91365 266.979806 
L 57.765827 267.537241 
L 56.618003 267.815969 
L 55.47018 267.738994 
L 54.322356 267.283065 
L 53.174533 266.504638 
L 50.878886 264.75369 
L 49.731062 264.326275 
L 48.583239 264.382395 
L 46.287592 265.235185 
L 46.287592 265.235185 
" clip-path="url(#pdc56e77e46)" style="fill: none; stroke: #a11a5b; stroke-linecap: round"/>
   </g>
   <g id="line2d_28">
    <path d="M 405.556328 256.911517 
L 403.260681 258.0215 
L 402.112858 258.341919 
L 399.817211 258.603201 
L 397.521564 258.926577 
L 394.078094 259.574313 
L 391.782447 259.729052 
L 389.4868 259.678983 
L 388.338977 259.46087 
L 387.191153 259.042483 
L 383.747683 257.264263 
L 382.599859 257.18719 
L 381.452036 257.593848 
L 379.156389 258.821414 
L 378.008566 259.226987 
L 375.712919 259.707467 
L 373.417272 260.056074 
L 371.121625 260.121124 
L 366.530331 259.724124 
L 364.234684 259.295585 
L 363.086861 259.040611 
L 361.939037 258.938404 
L 360.791214 259.144493 
L 357.347744 260.650194 
L 356.19992 260.879346 
L 355.052097 260.909407 
L 352.75645 260.545918 
L 348.165156 259.38153 
L 345.869509 259.222848 
L 343.573862 258.995569 
L 342.426039 258.656226 
L 341.278216 258.106558 
L 340.130392 257.332073 
L 338.982569 256.396739 
L 337.834745 255.609342 
L 336.686922 255.601951 
L 335.539098 256.678817 
L 334.391275 258.195458 
L 333.243452 259.436132 
L 332.095628 260.224415 
L 330.947805 260.649602 
L 329.799981 260.834008 
L 324.060864 261.126928 
L 322.913041 261.006981 
L 321.765217 260.670005 
L 320.617394 260.079433 
L 318.321747 258.526719 
L 317.173923 258.217339 
L 316.0261 258.556287 
L 312.58263 260.791627 
L 311.434806 261.277035 
L 309.139159 261.808274 
L 306.843512 262.034074 
L 305.695689 262.039102 
L 304.547866 261.899541 
L 303.400042 261.542753 
L 302.252219 260.920544 
L 299.956572 259.160065 
L 298.808748 258.605862 
L 297.660925 258.716348 
L 295.365278 260.016256 
L 294.217455 260.403794 
L 293.069631 260.391474 
L 291.921808 259.996544 
L 289.626161 258.606158 
L 288.478337 258.184715 
L 287.330514 258.282388 
L 285.034867 259.39799 
L 283.887044 259.914247 
L 282.73922 260.23979 
L 281.591397 260.308585 
L 280.443573 259.994474 
L 279.29575 259.075698 
L 277.000103 255.687403 
L 275.85228 255.181 
L 274.704456 256.03522 
L 273.556633 257.313544 
L 272.408809 258.405687 
L 271.260986 259.128723 
L 270.113162 259.464912 
L 268.965339 259.457815 
L 266.669692 258.848221 
L 265.521869 258.537659 
L 264.374045 258.351479 
L 262.078398 258.298256 
L 258.634928 258.57521 
L 256.339281 258.870594 
L 255.191458 259.160953 
L 250.600164 260.887034 
L 249.452341 260.943213 
L 246.00887 260.44785 
L 244.861047 260.530641 
L 242.5654 260.979976 
L 241.417577 261.052319 
L 240.269753 260.86811 
L 239.12193 260.318145 
L 236.826283 258.393564 
L 235.678459 258.045746 
L 234.530636 258.461867 
L 231.087166 260.800793 
L 229.939342 261.297338 
L 228.791519 261.546893 
L 227.643695 261.582177 
L 223.052402 261.277824 
L 220.756755 261.093024 
L 219.608931 260.799709 
L 217.313284 259.990926 
L 216.165461 260.075687 
L 215.017637 260.90162 
L 213.869814 261.971194 
L 212.721991 262.749226 
L 211.574167 263.195506 
L 210.426344 263.42998 
L 208.130697 263.550332 
L 203.539403 263.382475 
L 198.948109 263.84132 
L 194.356816 263.517817 
L 189.765522 264.166056 
L 184.026405 264.118116 
L 181.730758 263.999608 
L 174.843817 263.20201 
L 169.1047 262.270718 
L 166.809053 262.167328 
L 164.513406 262.288064 
L 157.626466 263.165248 
L 154.182995 263.514199 
L 151.887348 263.695964 
L 149.591702 263.60928 
L 147.296055 263.540998 
L 142.704761 263.925875 
L 138.113467 263.588494 
L 135.81782 263.755977 
L 131.226527 264.283392 
L 128.93088 264.213956 
L 127.783056 264.002762 
L 125.487409 263.231284 
L 124.339586 262.8537 
L 123.191762 262.732076 
L 120.896116 263.170965 
L 118.600469 263.504236 
L 117.452645 263.493551 
L 116.304822 263.355863 
L 115.156998 263.081177 
L 111.713528 261.741154 
L 110.565705 261.608394 
L 109.417881 261.801177 
L 107.122234 262.347002 
L 105.974411 262.396086 
L 103.678764 262.090451 
L 102.530941 262.175508 
L 99.08747 263.434809 
L 97.939647 263.617796 
L 96.791823 263.654805 
L 91.052706 263.31161 
L 88.757059 263.249221 
L 87.609236 263.020759 
L 84.165766 262.027077 
L 83.017942 261.994356 
L 78.426648 262.635193 
L 76.131002 262.645935 
L 74.983178 262.546784 
L 73.835355 262.335865 
L 71.539708 261.588584 
L 69.244061 260.745206 
L 68.096237 260.59293 
L 66.948414 260.837359 
L 64.652767 261.896387 
L 63.504944 262.18497 
L 57.765827 262.809348 
L 56.618003 262.788552 
L 55.47018 262.585321 
L 54.322356 262.180732 
L 52.026709 261.034676 
L 50.878886 260.626441 
L 49.731062 260.564151 
L 48.583239 260.842386 
L 46.287592 261.630472 
L 46.287592 261.630472 
" clip-path="url(#pdc56e77e46)" style="fill: none; stroke: #4c1d4b; stroke-linecap: round"/>
   </g>
   <g id="line2d_29"/>
   <g id="line2d_30"/>
   <g id="line2d_31"/>
   <g id="line2d_32"/>
   <g id="patch_3">
    <path d="M 47.368281 273.312 
L 47.368281 7.2 
" style="fill: none; stroke: #262626; stroke-width: 1.25; stroke-linejoin: miter; stroke-linecap: square"/>
   </g>
   <g id="patch_4">
    <path d="M 47.368281 273.312 
L 404.488281 273.312 
" style="fill: none; stroke: #262626; stroke-width: 1.25; stroke-linejoin: miter; stroke-linecap: square"/>
   </g>
   <g id="legend_1">
    <g id="line2d_33">
     <path d="M 302.752281 52.5186 
L 308.752281 52.5186 
L 314.752281 52.5186 
" style="fill: none; stroke: #f69c73; stroke-width: 1.5; stroke-linecap: round"/>
    </g>
    <g id="text_16">
     <!-- p(TT-TII-PD) -->
     <g style="fill: #262626" transform="translate(319.552281 54.6186) scale(0.06 -0.06)">
      <defs>
       <path id="ArialMT-70" d="M 422 -1272 
L 422 3319 
L 934 3319 
L 934 2888 
Q 1116 3141 1344 3267 
Q 1572 3394 1897 3394 
Q 2322 3394 2647 3175 
Q 2972 2956 3137 2557 
Q 3303 2159 3303 1684 
Q 3303 1175 3120 767 
Q 2938 359 2589 142 
Q 2241 -75 1856 -75 
Q 1575 -75 1351 44 
Q 1128 163 984 344 
L 984 -1272 
L 422 -1272 
z
M 931 1641 
Q 931 1000 1190 694 
Q 1450 388 1819 388 
Q 2194 388 2461 705 
Q 2728 1022 2728 1688 
Q 2728 2322 2467 2637 
Q 2206 2953 1844 2953 
Q 1484 2953 1207 2617 
Q 931 2281 931 1641 
z
" transform="scale(0.015625)"/>
       <path id="ArialMT-54" d="M 1659 0 
L 1659 4041 
L 150 4041 
L 150 4581 
L 3781 4581 
L 3781 4041 
L 2266 4041 
L 2266 0 
L 1659 0 
z
" transform="scale(0.015625)"/>
       <path id="ArialMT-49" d="M 597 0 
L 597 4581 
L 1203 4581 
L 1203 0 
L 597 0 
z
" transform="scale(0.015625)"/>
       <path id="ArialMT-50" d="M 494 0 
L 494 4581 
L 2222 4581 
Q 2678 4581 2919 4538 
Q 3256 4481 3484 4323 
Q 3713 4166 3852 3881 
Q 3991 3597 3991 3256 
Q 3991 2672 3619 2267 
Q 3247 1863 2275 1863 
L 1100 1863 
L 1100 0 
L 494 0 
z
M 1100 2403 
L 2284 2403 
Q 2872 2403 3119 2622 
Q 3366 2841 3366 3238 
Q 3366 3525 3220 3729 
Q 3075 3934 2838 4000 
Q 2684 4041 2272 4041 
L 1100 4041 
L 1100 2403 
z
" transform="scale(0.015625)"/>
       <path id="ArialMT-44" d="M 494 0 
L 494 4581 
L 2072 4581 
Q 2606 4581 2888 4516 
Q 3281 4425 3559 4188 
Q 3922 3881 4101 3404 
Q 4281 2928 4281 2316 
Q 4281 1794 4159 1391 
Q 4038 988 3847 723 
Q 3656 459 3429 307 
Q 3203 156 2883 78 
Q 2563 0 2147 0 
L 494 0 
z
M 1100 541 
L 2078 541 
Q 2531 541 2789 625 
Q 3047 709 3200 863 
Q 3416 1078 3536 1442 
Q 3656 1806 3656 2325 
Q 3656 3044 3420 3430 
Q 3184 3816 2847 3947 
Q 2603 4041 2063 4041 
L 1100 4041 
L 1100 541 
z
" transform="scale(0.015625)"/>
      </defs>
      <use xlink:href="#ArialMT-70"/>
      <use xlink:href="#ArialMT-28" x="55.615234"/>
      <use xlink:href="#ArialMT-54" x="88.916016"/>
      <use xlink:href="#ArialMT-54" x="150"/>
      <use xlink:href="#ArialMT-2d" x="205.583984"/>
      <use xlink:href="#ArialMT-54" x="238.884766"/>
      <use xlink:href="#ArialMT-49" x="299.96875"/>
      <use xlink:href="#ArialMT-49" x="327.751953"/>
      <use xlink:href="#ArialMT-2d" x="355.535156"/>
      <use xlink:href="#ArialMT-50" x="388.835938"/>
      <use xlink:href="#ArialMT-44" x="455.535156"/>
      <use xlink:href="#ArialMT-29" x="527.751953"/>
     </g>
    </g>
    <g id="line2d_34">
     <path d="M 302.752281 61.149225 
L 308.752281 61.149225 
L 314.752281 61.149225 
" style="fill: none; stroke: #e83f3f; stroke-width: 1.5; stroke-linecap: round"/>
    </g>
    <g id="text_17">
     <!-- p(TT-TII-PD) protonated -->
     <g style="fill: #262626" transform="translate(319.552281 63.249225) scale(0.06 -0.06)">
      <defs>
       <path id="ArialMT-74" d="M 1650 503 
L 1731 6 
Q 1494 -44 1306 -44 
Q 1000 -44 831 53 
Q 663 150 594 308 
Q 525 466 525 972 
L 525 2881 
L 113 2881 
L 113 3319 
L 525 3319 
L 525 4141 
L 1084 4478 
L 1084 3319 
L 1650 3319 
L 1650 2881 
L 1084 2881 
L 1084 941 
Q 1084 700 1114 631 
Q 1144 563 1211 522 
Q 1278 481 1403 481 
Q 1497 481 1650 503 
z
" transform="scale(0.015625)"/>
       <path id="ArialMT-64" d="M 2575 0 
L 2575 419 
Q 2259 -75 1647 -75 
Q 1250 -75 917 144 
Q 584 363 401 755 
Q 219 1147 219 1656 
Q 219 2153 384 2558 
Q 550 2963 881 3178 
Q 1213 3394 1622 3394 
Q 1922 3394 2156 3267 
Q 2391 3141 2538 2938 
L 2538 4581 
L 3097 4581 
L 3097 0 
L 2575 0 
z
M 797 1656 
Q 797 1019 1065 703 
Q 1334 388 1700 388 
Q 2069 388 2326 689 
Q 2584 991 2584 1609 
Q 2584 2291 2321 2609 
Q 2059 2928 1675 2928 
Q 1300 2928 1048 2622 
Q 797 2316 797 1656 
z
" transform="scale(0.015625)"/>
      </defs>
      <use xlink:href="#ArialMT-70"/>
      <use xlink:href="#ArialMT-28" x="55.615234"/>
      <use xlink:href="#ArialMT-54" x="88.916016"/>
      <use xlink:href="#ArialMT-54" x="150"/>
      <use xlink:href="#ArialMT-2d" x="205.583984"/>
      <use xlink:href="#ArialMT-54" x="238.884766"/>
      <use xlink:href="#ArialMT-49" x="299.96875"/>
      <use xlink:href="#ArialMT-49" x="327.751953"/>
      <use xlink:href="#ArialMT-2d" x="355.535156"/>
      <use xlink:href="#ArialMT-50" x="388.835938"/>
      <use xlink:href="#ArialMT-44" x="455.535156"/>
      <use xlink:href="#ArialMT-29" x="527.751953"/>
      <use xlink:href="#ArialMT-20" x="561.052734"/>
      <use xlink:href="#ArialMT-70" x="588.835938"/>
      <use xlink:href="#ArialMT-72" x="644.451172"/>
      <use xlink:href="#ArialMT-6f" x="677.751953"/>
      <use xlink:href="#ArialMT-74" x="733.367188"/>
      <use xlink:href="#ArialMT-6f" x="761.150391"/>
      <use xlink:href="#ArialMT-6e" x="816.765625"/>
      <use xlink:href="#ArialMT-61" x="872.380859"/>
      <use xlink:href="#ArialMT-74" x="927.996094"/>
      <use xlink:href="#ArialMT-65" x="955.779297"/>
      <use xlink:href="#ArialMT-64" x="1011.394531"/>
     </g>
    </g>
    <g id="line2d_35">
     <path d="M 302.752281 69.7836 
L 308.752281 69.7836 
L 314.752281 69.7836 
" style="fill: none; stroke: #a11a5b; stroke-width: 1.5; stroke-linecap: round"/>
    </g>
    <g id="text_18">
     <!-- TT-(TII-CHO)2 -->
     <g style="fill: #262626" transform="translate(319.552281 71.8836) scale(0.06 -0.06)">
      <defs>
       <path id="ArialMT-43" d="M 3763 1606 
L 4369 1453 
Q 4178 706 3683 314 
Q 3188 -78 2472 -78 
Q 1731 -78 1267 223 
Q 803 525 561 1097 
Q 319 1669 319 2325 
Q 319 3041 592 3573 
Q 866 4106 1370 4382 
Q 1875 4659 2481 4659 
Q 3169 4659 3637 4309 
Q 4106 3959 4291 3325 
L 3694 3184 
Q 3534 3684 3231 3912 
Q 2928 4141 2469 4141 
Q 1941 4141 1586 3887 
Q 1231 3634 1087 3207 
Q 944 2781 944 2328 
Q 944 1744 1114 1308 
Q 1284 872 1643 656 
Q 2003 441 2422 441 
Q 2931 441 3284 734 
Q 3638 1028 3763 1606 
z
" transform="scale(0.015625)"/>
       <path id="ArialMT-48" d="M 513 0 
L 513 4581 
L 1119 4581 
L 1119 2700 
L 3500 2700 
L 3500 4581 
L 4106 4581 
L 4106 0 
L 3500 0 
L 3500 2159 
L 1119 2159 
L 1119 0 
L 513 0 
z
" transform="scale(0.015625)"/>
       <path id="ArialMT-4f" d="M 309 2231 
Q 309 3372 921 4017 
Q 1534 4663 2503 4663 
Q 3138 4663 3647 4359 
Q 4156 4056 4423 3514 
Q 4691 2972 4691 2284 
Q 4691 1588 4409 1038 
Q 4128 488 3612 205 
Q 3097 -78 2500 -78 
Q 1853 -78 1343 234 
Q 834 547 571 1087 
Q 309 1628 309 2231 
z
M 934 2222 
Q 934 1394 1379 917 
Q 1825 441 2497 441 
Q 3181 441 3623 922 
Q 4066 1403 4066 2288 
Q 4066 2847 3877 3264 
Q 3688 3681 3323 3911 
Q 2959 4141 2506 4141 
Q 1863 4141 1398 3698 
Q 934 3256 934 2222 
z
" transform="scale(0.015625)"/>
      </defs>
      <use xlink:href="#ArialMT-54"/>
      <use xlink:href="#ArialMT-54" x="61.083984"/>
      <use xlink:href="#ArialMT-2d" x="116.667969"/>
      <use xlink:href="#ArialMT-28" x="149.96875"/>
      <use xlink:href="#ArialMT-54" x="183.269531"/>
      <use xlink:href="#ArialMT-49" x="244.353516"/>
      <use xlink:href="#ArialMT-49" x="272.136719"/>
      <use xlink:href="#ArialMT-2d" x="299.919922"/>
      <use xlink:href="#ArialMT-43" x="333.220703"/>
      <use xlink:href="#ArialMT-48" x="405.4375"/>
      <use xlink:href="#ArialMT-4f" x="477.654297"/>
      <use xlink:href="#ArialMT-29" x="555.4375"/>
      <use xlink:href="#ArialMT-32" x="588.738281"/>
     </g>
    </g>
    <g id="line2d_36">
     <path d="M 302.752281 78.3411 
L 308.752281 78.3411 
L 314.752281 78.3411 
" style="fill: none; stroke: #4c1d4b; stroke-width: 1.5; stroke-linecap: round"/>
    </g>
    <g id="text_19">
     <!-- PTSA -->
     <g style="fill: #262626" transform="translate(319.552281 80.4411) scale(0.06 -0.06)">
      <defs>
       <path id="ArialMT-53" d="M 288 1472 
L 859 1522 
Q 900 1178 1048 958 
Q 1197 738 1509 602 
Q 1822 466 2213 466 
Q 2559 466 2825 569 
Q 3091 672 3220 851 
Q 3350 1031 3350 1244 
Q 3350 1459 3225 1620 
Q 3100 1781 2813 1891 
Q 2628 1963 1997 2114 
Q 1366 2266 1113 2400 
Q 784 2572 623 2826 
Q 463 3081 463 3397 
Q 463 3744 659 4045 
Q 856 4347 1234 4503 
Q 1613 4659 2075 4659 
Q 2584 4659 2973 4495 
Q 3363 4331 3572 4012 
Q 3781 3694 3797 3291 
L 3216 3247 
Q 3169 3681 2898 3903 
Q 2628 4125 2100 4125 
Q 1550 4125 1298 3923 
Q 1047 3722 1047 3438 
Q 1047 3191 1225 3031 
Q 1400 2872 2139 2705 
Q 2878 2538 3153 2413 
Q 3553 2228 3743 1945 
Q 3934 1663 3934 1294 
Q 3934 928 3725 604 
Q 3516 281 3123 101 
Q 2731 -78 2241 -78 
Q 1619 -78 1198 103 
Q 778 284 539 648 
Q 300 1013 288 1472 
z
" transform="scale(0.015625)"/>
      </defs>
      <use xlink:href="#ArialMT-50"/>
      <use xlink:href="#ArialMT-54" x="66.699219"/>
      <use xlink:href="#ArialMT-53" x="127.783203"/>
      <use xlink:href="#ArialMT-41" x="194.482422"/>
     </g>
    </g>
   </g>
  </g>
 </g>
 <defs>
  <clipPath id="pdc56e77e46">
   <rect x="47.368281" y="7.2" width="357.12" height="266.112"/>
  </clipPath>
 </defs>
</svg>
