<?xml version="1.0" encoding="utf-8" standalone="no"?>
<!DOCTYPE svg PUBLIC "-//W3C//DTD SVG 1.1//EN"
  "http://www.w3.org/Graphics/SVG/1.1/DTD/svg11.dtd">
<svg xmlns:xlink="http://www.w3.org/1999/xlink" width="408.632344pt" height="315.420584pt" viewBox="0 0 408.632344 315.420584" xmlns="http://www.w3.org/2000/svg" version="1.1">
 <metadata>
  <rdf:RDF xmlns:dc="http://purl.org/dc/elements/1.1/" xmlns:cc="http://creativecommons.org/ns#" xmlns:rdf="http://www.w3.org/1999/02/22-rdf-syntax-ns#">
   <cc:Work>
    <dc:type rdf:resource="http://purl.org/dc/dcmitype/StillImage"/>
    <dc:date>2024-10-24T15:38:45.652015</dc:date>
    <dc:format>image/svg+xml</dc:format>
    <dc:creator>
     <cc:Agent>
      <dc:title>Matplotlib v3.7.1, https://matplotlib.org/</dc:title>
     </cc:Agent>
    </dc:creator>
   </cc:Work>
  </rdf:RDF>
 </metadata>
 <defs>
  <style type="text/css">*{stroke-linejoin: round; stroke-linecap: butt}</style>
 </defs>
 <g id="figure_1">
  <g id="patch_1">
   <path d="M 0 315.420584 
L 408.632344 315.420584 
L 408.632344 0 
L 0 0 
z
" style="fill: #ffffff"/>
  </g>
  <g id="axes_1">
   <g id="patch_2">
    <path d="M 44.312344 273.500741 
L 401.432344 273.500741 
L 401.432344 7.388741 
L 44.312344 7.388741 
z
" style="fill: #ffffff"/>
   </g>
   <g id="matplotlib.axis_1">
    <g id="xtick_1">
     <g id="line2d_1">
      <defs>
       <path id="me380426b68" d="M 0 0 
L 0 -6 
" style="stroke: #262626; stroke-width: 1.25"/>
      </defs>
      <g>
       <use xlink:href="#me380426b68" x="391.512344" y="273.500741" style="fill: #262626; stroke: #262626; stroke-width: 1.25"/>
      </g>
     </g>
     <g id="text_1">
      <!-- 500 -->
      <g style="fill: #262626" transform="translate(382.336797 284.874334) scale(0.11 -0.11)">
       <defs>
        <path id="ArialMT-35" d="M 266 1200 
L 856 1250 
Q 922 819 1161 601 
Q 1400 384 1738 384 
Q 2144 384 2425 690 
Q 2706 997 2706 1503 
Q 2706 1984 2436 2262 
Q 2166 2541 1728 2541 
Q 1456 2541 1237 2417 
Q 1019 2294 894 2097 
L 366 2166 
L 809 4519 
L 3088 4519 
L 3088 3981 
L 1259 3981 
L 1013 2750 
Q 1425 3038 1878 3038 
Q 2478 3038 2890 2622 
Q 3303 2206 3303 1553 
Q 3303 931 2941 478 
Q 2500 -78 1738 -78 
Q 1113 -78 717 272 
Q 322 622 266 1200 
z
" transform="scale(0.015625)"/>
        <path id="ArialMT-30" d="M 266 2259 
Q 266 3072 433 3567 
Q 600 4063 929 4331 
Q 1259 4600 1759 4600 
Q 2128 4600 2406 4451 
Q 2684 4303 2865 4023 
Q 3047 3744 3150 3342 
Q 3253 2941 3253 2259 
Q 3253 1453 3087 958 
Q 2922 463 2592 192 
Q 2263 -78 1759 -78 
Q 1097 -78 719 397 
Q 266 969 266 2259 
z
M 844 2259 
Q 844 1131 1108 757 
Q 1372 384 1759 384 
Q 2147 384 2411 759 
Q 2675 1134 2675 2259 
Q 2675 3391 2411 3762 
Q 2147 4134 1753 4134 
Q 1366 4134 1134 3806 
Q 844 3388 844 2259 
z
" transform="scale(0.015625)"/>
       </defs>
       <use xlink:href="#ArialMT-35"/>
       <use xlink:href="#ArialMT-30" x="55.615234"/>
       <use xlink:href="#ArialMT-30" x="111.230469"/>
      </g>
     </g>
    </g>
    <g id="xtick_2">
     <g id="line2d_2">
      <g>
       <use xlink:href="#me380426b68" x="341.912344" y="273.500741" style="fill: #262626; stroke: #262626; stroke-width: 1.25"/>
      </g>
     </g>
     <g id="text_2">
      <!-- 1000 -->
      <g style="fill: #262626" transform="translate(329.678281 284.874334) scale(0.11 -0.11)">
       <defs>
        <path id="ArialMT-31" d="M 2384 0 
L 1822 0 
L 1822 3584 
Q 1619 3391 1289 3197 
Q 959 3003 697 2906 
L 697 3450 
Q 1169 3672 1522 3987 
Q 1875 4303 2022 4600 
L 2384 4600 
L 2384 0 
z
" transform="scale(0.015625)"/>
       </defs>
       <use xlink:href="#ArialMT-31"/>
       <use xlink:href="#ArialMT-30" x="55.615234"/>
       <use xlink:href="#ArialMT-30" x="111.230469"/>
       <use xlink:href="#ArialMT-30" x="166.845703"/>
      </g>
     </g>
    </g>
    <g id="xtick_3">
     <g id="line2d_3">
      <g>
       <use xlink:href="#me380426b68" x="292.312344" y="273.500741" style="fill: #262626; stroke: #262626; stroke-width: 1.25"/>
      </g>
     </g>
     <g id="text_3">
      <!-- 1500 -->
      <g style="fill: #262626" transform="translate(280.078281 284.874334) scale(0.11 -0.11)">
       <use xlink:href="#ArialMT-31"/>
       <use xlink:href="#ArialMT-35" x="55.615234"/>
       <use xlink:href="#ArialMT-30" x="111.230469"/>
       <use xlink:href="#ArialMT-30" x="166.845703"/>
      </g>
     </g>
    </g>
    <g id="xtick_4">
     <g id="line2d_4">
      <g>
       <use xlink:href="#me380426b68" x="242.712344" y="273.500741" style="fill: #262626; stroke: #262626; stroke-width: 1.25"/>
      </g>
     </g>
     <g id="text_4">
      <!-- 2000 -->
      <g style="fill: #262626" transform="translate(230.478281 284.874334) scale(0.11 -0.11)">
       <defs>
        <path id="ArialMT-32" d="M 3222 541 
L 3222 0 
L 194 0 
Q 188 203 259 391 
Q 375 700 629 1000 
Q 884 1300 1366 1694 
Q 2113 2306 2375 2664 
Q 2638 3022 2638 3341 
Q 2638 3675 2398 3904 
Q 2159 4134 1775 4134 
Q 1369 4134 1125 3890 
Q 881 3647 878 3216 
L 300 3275 
Q 359 3922 746 4261 
Q 1134 4600 1788 4600 
Q 2447 4600 2831 4234 
Q 3216 3869 3216 3328 
Q 3216 3053 3103 2787 
Q 2991 2522 2730 2228 
Q 2469 1934 1863 1422 
Q 1356 997 1212 845 
Q 1069 694 975 541 
L 3222 541 
z
" transform="scale(0.015625)"/>
       </defs>
       <use xlink:href="#ArialMT-32"/>
       <use xlink:href="#ArialMT-30" x="55.615234"/>
       <use xlink:href="#ArialMT-30" x="111.230469"/>
       <use xlink:href="#ArialMT-30" x="166.845703"/>
      </g>
     </g>
    </g>
    <g id="xtick_5">
     <g id="line2d_5">
      <g>
       <use xlink:href="#me380426b68" x="193.112344" y="273.500741" style="fill: #262626; stroke: #262626; stroke-width: 1.25"/>
      </g>
     </g>
     <g id="text_5">
      <!-- 2500 -->
      <g style="fill: #262626" transform="translate(180.878281 284.874334) scale(0.11 -0.11)">
       <use xlink:href="#ArialMT-32"/>
       <use xlink:href="#ArialMT-35" x="55.615234"/>
       <use xlink:href="#ArialMT-30" x="111.230469"/>
       <use xlink:href="#ArialMT-30" x="166.845703"/>
      </g>
     </g>
    </g>
    <g id="xtick_6">
     <g id="line2d_6">
      <g>
       <use xlink:href="#me380426b68" x="143.512344" y="273.500741" style="fill: #262626; stroke: #262626; stroke-width: 1.25"/>
      </g>
     </g>
     <g id="text_6">
      <!-- 3000 -->
      <g style="fill: #262626" transform="translate(131.278281 284.874334) scale(0.11 -0.11)">
       <defs>
        <path id="ArialMT-33" d="M 269 1209 
L 831 1284 
Q 928 806 1161 595 
Q 1394 384 1728 384 
Q 2125 384 2398 659 
Q 2672 934 2672 1341 
Q 2672 1728 2419 1979 
Q 2166 2231 1775 2231 
Q 1616 2231 1378 2169 
L 1441 2663 
Q 1497 2656 1531 2656 
Q 1891 2656 2178 2843 
Q 2466 3031 2466 3422 
Q 2466 3731 2256 3934 
Q 2047 4138 1716 4138 
Q 1388 4138 1169 3931 
Q 950 3725 888 3313 
L 325 3413 
Q 428 3978 793 4289 
Q 1159 4600 1703 4600 
Q 2078 4600 2393 4439 
Q 2709 4278 2876 4000 
Q 3044 3722 3044 3409 
Q 3044 3113 2884 2869 
Q 2725 2625 2413 2481 
Q 2819 2388 3044 2092 
Q 3269 1797 3269 1353 
Q 3269 753 2831 336 
Q 2394 -81 1725 -81 
Q 1122 -81 723 278 
Q 325 638 269 1209 
z
" transform="scale(0.015625)"/>
       </defs>
       <use xlink:href="#ArialMT-33"/>
       <use xlink:href="#ArialMT-30" x="55.615234"/>
       <use xlink:href="#ArialMT-30" x="111.230469"/>
       <use xlink:href="#ArialMT-30" x="166.845703"/>
      </g>
     </g>
    </g>
    <g id="xtick_7">
     <g id="line2d_7">
      <g>
       <use xlink:href="#me380426b68" x="93.912344" y="273.500741" style="fill: #262626; stroke: #262626; stroke-width: 1.25"/>
      </g>
     </g>
     <g id="text_7">
      <!-- 3500 -->
      <g style="fill: #262626" transform="translate(81.678281 284.874334) scale(0.11 -0.11)">
       <use xlink:href="#ArialMT-33"/>
       <use xlink:href="#ArialMT-35" x="55.615234"/>
       <use xlink:href="#ArialMT-30" x="111.230469"/>
       <use xlink:href="#ArialMT-30" x="166.845703"/>
      </g>
     </g>
    </g>
    <g id="xtick_8">
     <g id="line2d_8">
      <g>
       <use xlink:href="#me380426b68" x="44.312344" y="273.500741" style="fill: #262626; stroke: #262626; stroke-width: 1.25"/>
      </g>
     </g>
     <g id="text_8">
      <!-- 4000 -->
      <g style="fill: #262626" transform="translate(32.078281 284.874334) scale(0.11 -0.11)">
       <defs>
        <path id="ArialMT-34" d="M 2069 0 
L 2069 1097 
L 81 1097 
L 81 1613 
L 2172 4581 
L 2631 4581 
L 2631 1613 
L 3250 1613 
L 3250 1097 
L 2631 1097 
L 2631 0 
L 2069 0 
z
M 2069 1613 
L 2069 3678 
L 634 1613 
L 2069 1613 
z
" transform="scale(0.015625)"/>
       </defs>
       <use xlink:href="#ArialMT-34"/>
       <use xlink:href="#ArialMT-30" x="55.615234"/>
       <use xlink:href="#ArialMT-30" x="111.230469"/>
       <use xlink:href="#ArialMT-30" x="166.845703"/>
      </g>
     </g>
    </g>
    <g id="xtick_9">
     <g id="line2d_9">
      <defs>
       <path id="m0ea7fd1ad0" d="M 0 0 
L 0 -4 
" style="stroke: #262626"/>
      </defs>
      <g>
       <use xlink:href="#m0ea7fd1ad0" x="366.712344" y="273.500741" style="fill: #262626; stroke: #262626"/>
      </g>
     </g>
    </g>
    <g id="xtick_10">
     <g id="line2d_10">
      <g>
       <use xlink:href="#m0ea7fd1ad0" x="317.112344" y="273.500741" style="fill: #262626; stroke: #262626"/>
      </g>
     </g>
    </g>
    <g id="xtick_11">
     <g id="line2d_11">
      <g>
       <use xlink:href="#m0ea7fd1ad0" x="267.512344" y="273.500741" style="fill: #262626; stroke: #262626"/>
      </g>
     </g>
    </g>
    <g id="xtick_12">
     <g id="line2d_12">
      <g>
       <use xlink:href="#m0ea7fd1ad0" x="217.912344" y="273.500741" style="fill: #262626; stroke: #262626"/>
      </g>
     </g>
    </g>
    <g id="xtick_13">
     <g id="line2d_13">
      <g>
       <use xlink:href="#m0ea7fd1ad0" x="168.312344" y="273.500741" style="fill: #262626; stroke: #262626"/>
      </g>
     </g>
    </g>
    <g id="xtick_14">
     <g id="line2d_14">
      <g>
       <use xlink:href="#m0ea7fd1ad0" x="118.712344" y="273.500741" style="fill: #262626; stroke: #262626"/>
      </g>
     </g>
    </g>
    <g id="xtick_15">
     <g id="line2d_15">
      <g>
       <use xlink:href="#m0ea7fd1ad0" x="69.112344" y="273.500741" style="fill: #262626; stroke: #262626"/>
      </g>
     </g>
    </g>
    <g id="text_9">
     <!-- Wavenumber ($\mathregular{cm^{-1}}$) -->
     <g style="fill: #262626" transform="translate(168.332344 305.580584) scale(0.12 -0.12)">
      <defs>
       <path id="ArialMT-57" d="M 1294 0 
L 78 4581 
L 700 4581 
L 1397 1578 
Q 1509 1106 1591 641 
Q 1766 1375 1797 1488 
L 2669 4581 
L 3400 4581 
L 4056 2263 
Q 4303 1400 4413 641 
Q 4500 1075 4641 1638 
L 5359 4581 
L 5969 4581 
L 4713 0 
L 4128 0 
L 3163 3491 
Q 3041 3928 3019 4028 
Q 2947 3713 2884 3491 
L 1913 0 
L 1294 0 
z
" transform="scale(0.015625)"/>
       <path id="ArialMT-61" d="M 2588 409 
Q 2275 144 1986 34 
Q 1697 -75 1366 -75 
Q 819 -75 525 192 
Q 231 459 231 875 
Q 231 1119 342 1320 
Q 453 1522 633 1644 
Q 813 1766 1038 1828 
Q 1203 1872 1538 1913 
Q 2219 1994 2541 2106 
Q 2544 2222 2544 2253 
Q 2544 2597 2384 2738 
Q 2169 2928 1744 2928 
Q 1347 2928 1158 2789 
Q 969 2650 878 2297 
L 328 2372 
Q 403 2725 575 2942 
Q 747 3159 1072 3276 
Q 1397 3394 1825 3394 
Q 2250 3394 2515 3294 
Q 2781 3194 2906 3042 
Q 3031 2891 3081 2659 
Q 3109 2516 3109 2141 
L 3109 1391 
Q 3109 606 3145 398 
Q 3181 191 3288 0 
L 2700 0 
Q 2613 175 2588 409 
z
M 2541 1666 
Q 2234 1541 1622 1453 
Q 1275 1403 1131 1340 
Q 988 1278 909 1158 
Q 831 1038 831 891 
Q 831 666 1001 516 
Q 1172 366 1500 366 
Q 1825 366 2078 508 
Q 2331 650 2450 897 
Q 2541 1088 2541 1459 
L 2541 1666 
z
" transform="scale(0.015625)"/>
       <path id="ArialMT-76" d="M 1344 0 
L 81 3319 
L 675 3319 
L 1388 1331 
Q 1503 1009 1600 663 
Q 1675 925 1809 1294 
L 2547 3319 
L 3125 3319 
L 1869 0 
L 1344 0 
z
" transform="scale(0.015625)"/>
       <path id="ArialMT-65" d="M 2694 1069 
L 3275 997 
Q 3138 488 2766 206 
Q 2394 -75 1816 -75 
Q 1088 -75 661 373 
Q 234 822 234 1631 
Q 234 2469 665 2931 
Q 1097 3394 1784 3394 
Q 2450 3394 2872 2941 
Q 3294 2488 3294 1666 
Q 3294 1616 3291 1516 
L 816 1516 
Q 847 969 1125 678 
Q 1403 388 1819 388 
Q 2128 388 2347 550 
Q 2566 713 2694 1069 
z
M 847 1978 
L 2700 1978 
Q 2663 2397 2488 2606 
Q 2219 2931 1791 2931 
Q 1403 2931 1139 2672 
Q 875 2413 847 1978 
z
" transform="scale(0.015625)"/>
       <path id="ArialMT-6e" d="M 422 0 
L 422 3319 
L 928 3319 
L 928 2847 
Q 1294 3394 1984 3394 
Q 2284 3394 2536 3286 
Q 2788 3178 2913 3003 
Q 3038 2828 3088 2588 
Q 3119 2431 3119 2041 
L 3119 0 
L 2556 0 
L 2556 2019 
Q 2556 2363 2490 2533 
Q 2425 2703 2258 2804 
Q 2091 2906 1866 2906 
Q 1506 2906 1245 2678 
Q 984 2450 984 1813 
L 984 0 
L 422 0 
z
" transform="scale(0.015625)"/>
       <path id="ArialMT-75" d="M 2597 0 
L 2597 488 
Q 2209 -75 1544 -75 
Q 1250 -75 995 37 
Q 741 150 617 320 
Q 494 491 444 738 
Q 409 903 409 1263 
L 409 3319 
L 972 3319 
L 972 1478 
Q 972 1038 1006 884 
Q 1059 663 1231 536 
Q 1403 409 1656 409 
Q 1909 409 2131 539 
Q 2353 669 2445 892 
Q 2538 1116 2538 1541 
L 2538 3319 
L 3100 3319 
L 3100 0 
L 2597 0 
z
" transform="scale(0.015625)"/>
       <path id="ArialMT-6d" d="M 422 0 
L 422 3319 
L 925 3319 
L 925 2853 
Q 1081 3097 1340 3245 
Q 1600 3394 1931 3394 
Q 2300 3394 2536 3241 
Q 2772 3088 2869 2813 
Q 3263 3394 3894 3394 
Q 4388 3394 4653 3120 
Q 4919 2847 4919 2278 
L 4919 0 
L 4359 0 
L 4359 2091 
Q 4359 2428 4304 2576 
Q 4250 2725 4106 2815 
Q 3963 2906 3769 2906 
Q 3419 2906 3187 2673 
Q 2956 2441 2956 1928 
L 2956 0 
L 2394 0 
L 2394 2156 
Q 2394 2531 2256 2718 
Q 2119 2906 1806 2906 
Q 1569 2906 1367 2781 
Q 1166 2656 1075 2415 
Q 984 2175 984 1722 
L 984 0 
L 422 0 
z
" transform="scale(0.015625)"/>
       <path id="ArialMT-62" d="M 941 0 
L 419 0 
L 419 4581 
L 981 4581 
L 981 2947 
Q 1338 3394 1891 3394 
Q 2197 3394 2470 3270 
Q 2744 3147 2920 2923 
Q 3097 2700 3197 2384 
Q 3297 2069 3297 1709 
Q 3297 856 2875 390 
Q 2453 -75 1863 -75 
Q 1275 -75 941 416 
L 941 0 
z
M 934 1684 
Q 934 1088 1097 822 
Q 1363 388 1816 388 
Q 2184 388 2453 708 
Q 2722 1028 2722 1663 
Q 2722 2313 2464 2622 
Q 2206 2931 1841 2931 
Q 1472 2931 1203 2611 
Q 934 2291 934 1684 
z
" transform="scale(0.015625)"/>
       <path id="ArialMT-72" d="M 416 0 
L 416 3319 
L 922 3319 
L 922 2816 
Q 1116 3169 1280 3281 
Q 1444 3394 1641 3394 
Q 1925 3394 2219 3213 
L 2025 2691 
Q 1819 2813 1613 2813 
Q 1428 2813 1281 2702 
Q 1134 2591 1072 2394 
Q 978 2094 978 1738 
L 978 0 
L 416 0 
z
" transform="scale(0.015625)"/>
       <path id="ArialMT-20" transform="scale(0.015625)"/>
       <path id="ArialMT-28" d="M 1497 -1347 
Q 1031 -759 709 28 
Q 388 816 388 1659 
Q 388 2403 628 3084 
Q 909 3875 1497 4659 
L 1900 4659 
Q 1522 4009 1400 3731 
Q 1209 3300 1100 2831 
Q 966 2247 966 1656 
Q 966 153 1900 -1347 
L 1497 -1347 
z
" transform="scale(0.015625)"/>
       <path id="ArialMT-63" d="M 2588 1216 
L 3141 1144 
Q 3050 572 2676 248 
Q 2303 -75 1759 -75 
Q 1078 -75 664 370 
Q 250 816 250 1647 
Q 250 2184 428 2587 
Q 606 2991 970 3192 
Q 1334 3394 1763 3394 
Q 2303 3394 2647 3120 
Q 2991 2847 3088 2344 
L 2541 2259 
Q 2463 2594 2264 2762 
Q 2066 2931 1784 2931 
Q 1359 2931 1093 2626 
Q 828 2322 828 1663 
Q 828 994 1084 691 
Q 1341 388 1753 388 
Q 2084 388 2306 591 
Q 2528 794 2588 1216 
z
" transform="scale(0.015625)"/>
       <path id="ArialMT-2212" d="M 3381 1997 
L 356 1997 
L 356 2522 
L 3381 2522 
L 3381 1997 
z
" transform="scale(0.015625)"/>
       <path id="ArialMT-29" d="M 791 -1347 
L 388 -1347 
Q 1322 153 1322 1656 
Q 1322 2244 1188 2822 
Q 1081 3291 891 3722 
Q 769 4003 388 4659 
L 791 4659 
Q 1378 3875 1659 3084 
Q 1900 2403 1900 1659 
Q 1900 816 1576 28 
Q 1253 -759 791 -1347 
z
" transform="scale(0.015625)"/>
      </defs>
      <use xlink:href="#ArialMT-57" transform="translate(0 0.99375)"/>
      <use xlink:href="#ArialMT-61" transform="translate(94.384766 0.99375)"/>
      <use xlink:href="#ArialMT-76" transform="translate(150 0.99375)"/>
      <use xlink:href="#ArialMT-65" transform="translate(200 0.99375)"/>
      <use xlink:href="#ArialMT-6e" transform="translate(255.615234 0.99375)"/>
      <use xlink:href="#ArialMT-75" transform="translate(311.230469 0.99375)"/>
      <use xlink:href="#ArialMT-6d" transform="translate(366.845703 0.99375)"/>
      <use xlink:href="#ArialMT-62" transform="translate(450.146484 0.99375)"/>
      <use xlink:href="#ArialMT-65" transform="translate(505.761719 0.99375)"/>
      <use xlink:href="#ArialMT-72" transform="translate(561.376953 0.99375)"/>
      <use xlink:href="#ArialMT-20" transform="translate(594.677734 0.99375)"/>
      <use xlink:href="#ArialMT-28" transform="translate(622.460938 0.99375)"/>
      <use xlink:href="#ArialMT-63" transform="translate(655.761719 0.99375)"/>
      <use xlink:href="#ArialMT-6d" transform="translate(705.761719 0.99375)"/>
      <use xlink:href="#ArialMT-2212" transform="translate(790.804844 70.6875) scale(0.7)"/>
      <use xlink:href="#ArialMT-31" transform="translate(831.68375 70.6875) scale(0.7)"/>
      <use xlink:href="#ArialMT-29" transform="translate(875.592539 0.99375)"/>
     </g>
    </g>
   </g>
   <g id="matplotlib.axis_2">
    <g id="ytick_1">
     <g id="line2d_16">
      <defs>
       <path id="m1cb24f3176" d="M 0 0 
L 6 0 
" style="stroke: #262626; stroke-width: 1.25"/>
      </defs>
      <g>
       <use xlink:href="#m1cb24f3176" x="44.312344" y="273.500741" style="fill: #262626; stroke: #262626; stroke-width: 1.25"/>
      </g>
     </g>
     <g id="text_10">
      <!-- 93 -->
      <g style="fill: #262626" transform="translate(28.578281 277.437537) scale(0.11 -0.11)">
       <defs>
        <path id="ArialMT-39" d="M 350 1059 
L 891 1109 
Q 959 728 1153 556 
Q 1347 384 1650 384 
Q 1909 384 2104 503 
Q 2300 622 2425 820 
Q 2550 1019 2634 1356 
Q 2719 1694 2719 2044 
Q 2719 2081 2716 2156 
Q 2547 1888 2255 1720 
Q 1963 1553 1622 1553 
Q 1053 1553 659 1965 
Q 266 2378 266 3053 
Q 266 3750 677 4175 
Q 1088 4600 1706 4600 
Q 2153 4600 2523 4359 
Q 2894 4119 3086 3673 
Q 3278 3228 3278 2384 
Q 3278 1506 3087 986 
Q 2897 466 2520 194 
Q 2144 -78 1638 -78 
Q 1100 -78 759 220 
Q 419 519 350 1059 
z
M 2653 3081 
Q 2653 3566 2395 3850 
Q 2138 4134 1775 4134 
Q 1400 4134 1122 3828 
Q 844 3522 844 3034 
Q 844 2597 1108 2323 
Q 1372 2050 1759 2050 
Q 2150 2050 2401 2323 
Q 2653 2597 2653 3081 
z
" transform="scale(0.015625)"/>
       </defs>
       <use xlink:href="#ArialMT-39"/>
       <use xlink:href="#ArialMT-33" x="55.615234"/>
      </g>
     </g>
    </g>
    <g id="ytick_2">
     <g id="line2d_17">
      <g>
       <use xlink:href="#m1cb24f3176" x="44.312344" y="236.020177" style="fill: #262626; stroke: #262626; stroke-width: 1.25"/>
      </g>
     </g>
     <g id="text_11">
      <!-- 94 -->
      <g style="fill: #262626" transform="translate(28.578281 239.956974) scale(0.11 -0.11)">
       <use xlink:href="#ArialMT-39"/>
       <use xlink:href="#ArialMT-34" x="55.615234"/>
      </g>
     </g>
    </g>
    <g id="ytick_3">
     <g id="line2d_18">
      <g>
       <use xlink:href="#m1cb24f3176" x="44.312344" y="198.539614" style="fill: #262626; stroke: #262626; stroke-width: 1.25"/>
      </g>
     </g>
     <g id="text_12">
      <!-- 95 -->
      <g style="fill: #262626" transform="translate(28.578281 202.476411) scale(0.11 -0.11)">
       <use xlink:href="#ArialMT-39"/>
       <use xlink:href="#ArialMT-35" x="55.615234"/>
      </g>
     </g>
    </g>
    <g id="ytick_4">
     <g id="line2d_19">
      <g>
       <use xlink:href="#m1cb24f3176" x="44.312344" y="161.05905" style="fill: #262626; stroke: #262626; stroke-width: 1.25"/>
      </g>
     </g>
     <g id="text_13">
      <!-- 96 -->
      <g style="fill: #262626" transform="translate(28.578281 164.995847) scale(0.11 -0.11)">
       <defs>
        <path id="ArialMT-36" d="M 3184 3459 
L 2625 3416 
Q 2550 3747 2413 3897 
Q 2184 4138 1850 4138 
Q 1581 4138 1378 3988 
Q 1113 3794 959 3422 
Q 806 3050 800 2363 
Q 1003 2672 1297 2822 
Q 1591 2972 1913 2972 
Q 2475 2972 2870 2558 
Q 3266 2144 3266 1488 
Q 3266 1056 3080 686 
Q 2894 316 2569 119 
Q 2244 -78 1831 -78 
Q 1128 -78 684 439 
Q 241 956 241 2144 
Q 241 3472 731 4075 
Q 1159 4600 1884 4600 
Q 2425 4600 2770 4297 
Q 3116 3994 3184 3459 
z
M 888 1484 
Q 888 1194 1011 928 
Q 1134 663 1356 523 
Q 1578 384 1822 384 
Q 2178 384 2434 671 
Q 2691 959 2691 1453 
Q 2691 1928 2437 2201 
Q 2184 2475 1800 2475 
Q 1419 2475 1153 2201 
Q 888 1928 888 1484 
z
" transform="scale(0.015625)"/>
       </defs>
       <use xlink:href="#ArialMT-39"/>
       <use xlink:href="#ArialMT-36" x="55.615234"/>
      </g>
     </g>
    </g>
    <g id="ytick_5">
     <g id="line2d_20">
      <g>
       <use xlink:href="#m1cb24f3176" x="44.312344" y="123.578487" style="fill: #262626; stroke: #262626; stroke-width: 1.25"/>
      </g>
     </g>
     <g id="text_14">
      <!-- 97 -->
      <g style="fill: #262626" transform="translate(28.578281 127.515284) scale(0.11 -0.11)">
       <defs>
        <path id="ArialMT-37" d="M 303 3981 
L 303 4522 
L 3269 4522 
L 3269 4084 
Q 2831 3619 2401 2847 
Q 1972 2075 1738 1259 
Q 1569 684 1522 0 
L 944 0 
Q 953 541 1156 1306 
Q 1359 2072 1739 2783 
Q 2119 3494 2547 3981 
L 303 3981 
z
" transform="scale(0.015625)"/>
       </defs>
       <use xlink:href="#ArialMT-39"/>
       <use xlink:href="#ArialMT-37" x="55.615234"/>
      </g>
     </g>
    </g>
    <g id="ytick_6">
     <g id="line2d_21">
      <g>
       <use xlink:href="#m1cb24f3176" x="44.312344" y="86.097924" style="fill: #262626; stroke: #262626; stroke-width: 1.25"/>
      </g>
     </g>
     <g id="text_15">
      <!-- 98 -->
      <g style="fill: #262626" transform="translate(28.578281 90.034721) scale(0.11 -0.11)">
       <defs>
        <path id="ArialMT-38" d="M 1131 2484 
Q 781 2613 612 2850 
Q 444 3088 444 3419 
Q 444 3919 803 4259 
Q 1163 4600 1759 4600 
Q 2359 4600 2725 4251 
Q 3091 3903 3091 3403 
Q 3091 3084 2923 2848 
Q 2756 2613 2416 2484 
Q 2838 2347 3058 2040 
Q 3278 1734 3278 1309 
Q 3278 722 2862 322 
Q 2447 -78 1769 -78 
Q 1091 -78 675 323 
Q 259 725 259 1325 
Q 259 1772 486 2073 
Q 713 2375 1131 2484 
z
M 1019 3438 
Q 1019 3113 1228 2906 
Q 1438 2700 1772 2700 
Q 2097 2700 2305 2904 
Q 2513 3109 2513 3406 
Q 2513 3716 2298 3927 
Q 2084 4138 1766 4138 
Q 1444 4138 1231 3931 
Q 1019 3725 1019 3438 
z
M 838 1322 
Q 838 1081 952 856 
Q 1066 631 1291 507 
Q 1516 384 1775 384 
Q 2178 384 2440 643 
Q 2703 903 2703 1303 
Q 2703 1709 2433 1975 
Q 2163 2241 1756 2241 
Q 1359 2241 1098 1978 
Q 838 1716 838 1322 
z
" transform="scale(0.015625)"/>
       </defs>
       <use xlink:href="#ArialMT-39"/>
       <use xlink:href="#ArialMT-38" x="55.615234"/>
      </g>
     </g>
    </g>
    <g id="ytick_7">
     <g id="line2d_22">
      <g>
       <use xlink:href="#m1cb24f3176" x="44.312344" y="48.61736" style="fill: #262626; stroke: #262626; stroke-width: 1.25"/>
      </g>
     </g>
     <g id="text_16">
      <!-- 99 -->
      <g style="fill: #262626" transform="translate(28.578281 52.554157) scale(0.11 -0.11)">
       <use xlink:href="#ArialMT-39"/>
       <use xlink:href="#ArialMT-39" x="55.615234"/>
      </g>
     </g>
    </g>
    <g id="ytick_8">
     <g id="line2d_23">
      <g>
       <use xlink:href="#m1cb24f3176" x="44.312344" y="11.136797" style="fill: #262626; stroke: #262626; stroke-width: 1.25"/>
      </g>
     </g>
     <g id="text_17">
      <!-- 100 -->
      <g style="fill: #262626" transform="translate(22.46125 15.073594) scale(0.11 -0.11)">
       <use xlink:href="#ArialMT-31"/>
       <use xlink:href="#ArialMT-30" x="55.615234"/>
       <use xlink:href="#ArialMT-30" x="111.230469"/>
      </g>
     </g>
    </g>
    <g id="ytick_9">
     <g id="line2d_24">
      <defs>
       <path id="m043a247ba7" d="M 0 0 
L 4 0 
" style="stroke: #262626"/>
      </defs>
      <g>
       <use xlink:href="#m043a247ba7" x="44.312344" y="254.760459" style="fill: #262626; stroke: #262626"/>
      </g>
     </g>
    </g>
    <g id="ytick_10">
     <g id="line2d_25">
      <g>
       <use xlink:href="#m043a247ba7" x="44.312344" y="217.279895" style="fill: #262626; stroke: #262626"/>
      </g>
     </g>
    </g>
    <g id="ytick_11">
     <g id="line2d_26">
      <g>
       <use xlink:href="#m043a247ba7" x="44.312344" y="179.799332" style="fill: #262626; stroke: #262626"/>
      </g>
     </g>
    </g>
    <g id="ytick_12">
     <g id="line2d_27">
      <g>
       <use xlink:href="#m043a247ba7" x="44.312344" y="142.318769" style="fill: #262626; stroke: #262626"/>
      </g>
     </g>
    </g>
    <g id="ytick_13">
     <g id="line2d_28">
      <g>
       <use xlink:href="#m043a247ba7" x="44.312344" y="104.838205" style="fill: #262626; stroke: #262626"/>
      </g>
     </g>
    </g>
    <g id="ytick_14">
     <g id="line2d_29">
      <g>
       <use xlink:href="#m043a247ba7" x="44.312344" y="67.357642" style="fill: #262626; stroke: #262626"/>
      </g>
     </g>
    </g>
    <g id="ytick_15">
     <g id="line2d_30">
      <g>
       <use xlink:href="#m043a247ba7" x="44.312344" y="29.877079" style="fill: #262626; stroke: #262626"/>
      </g>
     </g>
    </g>
    <g id="text_18">
     <!-- Transmittance (%T) -->
     <g style="fill: #262626" transform="translate(15.935625 192.892241) rotate(-90) scale(0.12 -0.12)">
      <defs>
       <path id="ArialMT-54" d="M 1659 0 
L 1659 4041 
L 150 4041 
L 150 4581 
L 3781 4581 
L 3781 4041 
L 2266 4041 
L 2266 0 
L 1659 0 
z
" transform="scale(0.015625)"/>
       <path id="ArialMT-73" d="M 197 991 
L 753 1078 
Q 800 744 1014 566 
Q 1228 388 1613 388 
Q 2000 388 2187 545 
Q 2375 703 2375 916 
Q 2375 1106 2209 1216 
Q 2094 1291 1634 1406 
Q 1016 1563 777 1677 
Q 538 1791 414 1992 
Q 291 2194 291 2438 
Q 291 2659 392 2848 
Q 494 3038 669 3163 
Q 800 3259 1026 3326 
Q 1253 3394 1513 3394 
Q 1903 3394 2198 3281 
Q 2494 3169 2634 2976 
Q 2775 2784 2828 2463 
L 2278 2388 
Q 2241 2644 2061 2787 
Q 1881 2931 1553 2931 
Q 1166 2931 1000 2803 
Q 834 2675 834 2503 
Q 834 2394 903 2306 
Q 972 2216 1119 2156 
Q 1203 2125 1616 2013 
Q 2213 1853 2448 1751 
Q 2684 1650 2818 1456 
Q 2953 1263 2953 975 
Q 2953 694 2789 445 
Q 2625 197 2315 61 
Q 2006 -75 1616 -75 
Q 969 -75 630 194 
Q 291 463 197 991 
z
" transform="scale(0.015625)"/>
       <path id="ArialMT-69" d="M 425 3934 
L 425 4581 
L 988 4581 
L 988 3934 
L 425 3934 
z
M 425 0 
L 425 3319 
L 988 3319 
L 988 0 
L 425 0 
z
" transform="scale(0.015625)"/>
       <path id="ArialMT-74" d="M 1650 503 
L 1731 6 
Q 1494 -44 1306 -44 
Q 1000 -44 831 53 
Q 663 150 594 308 
Q 525 466 525 972 
L 525 2881 
L 113 2881 
L 113 3319 
L 525 3319 
L 525 4141 
L 1084 4478 
L 1084 3319 
L 1650 3319 
L 1650 2881 
L 1084 2881 
L 1084 941 
Q 1084 700 1114 631 
Q 1144 563 1211 522 
Q 1278 481 1403 481 
Q 1497 481 1650 503 
z
" transform="scale(0.015625)"/>
       <path id="ArialMT-25" d="M 372 3481 
Q 372 3972 619 4315 
Q 866 4659 1334 4659 
Q 1766 4659 2048 4351 
Q 2331 4044 2331 3447 
Q 2331 2866 2045 2552 
Q 1759 2238 1341 2238 
Q 925 2238 648 2547 
Q 372 2856 372 3481 
z
M 1350 4272 
Q 1141 4272 1002 4090 
Q 863 3909 863 3425 
Q 863 2984 1003 2804 
Q 1144 2625 1350 2625 
Q 1563 2625 1702 2806 
Q 1841 2988 1841 3469 
Q 1841 3913 1700 4092 
Q 1559 4272 1350 4272 
z
M 1353 -169 
L 3859 4659 
L 4316 4659 
L 1819 -169 
L 1353 -169 
z
M 3334 1075 
Q 3334 1569 3581 1911 
Q 3828 2253 4300 2253 
Q 4731 2253 5014 1945 
Q 5297 1638 5297 1041 
Q 5297 459 5011 145 
Q 4725 -169 4303 -169 
Q 3888 -169 3611 142 
Q 3334 453 3334 1075 
z
M 4316 1866 
Q 4103 1866 3964 1684 
Q 3825 1503 3825 1019 
Q 3825 581 3965 400 
Q 4106 219 4313 219 
Q 4528 219 4667 400 
Q 4806 581 4806 1063 
Q 4806 1506 4665 1686 
Q 4525 1866 4316 1866 
z
" transform="scale(0.015625)"/>
      </defs>
      <use xlink:href="#ArialMT-54"/>
      <use xlink:href="#ArialMT-72" x="57.333984"/>
      <use xlink:href="#ArialMT-61" x="90.634766"/>
      <use xlink:href="#ArialMT-6e" x="146.25"/>
      <use xlink:href="#ArialMT-73" x="201.865234"/>
      <use xlink:href="#ArialMT-6d" x="251.865234"/>
      <use xlink:href="#ArialMT-69" x="335.166016"/>
      <use xlink:href="#ArialMT-74" x="357.382812"/>
      <use xlink:href="#ArialMT-74" x="385.166016"/>
      <use xlink:href="#ArialMT-61" x="412.949219"/>
      <use xlink:href="#ArialMT-6e" x="468.564453"/>
      <use xlink:href="#ArialMT-63" x="524.179688"/>
      <use xlink:href="#ArialMT-65" x="574.179688"/>
      <use xlink:href="#ArialMT-20" x="629.794922"/>
      <use xlink:href="#ArialMT-28" x="657.578125"/>
      <use xlink:href="#ArialMT-25" x="690.878906"/>
      <use xlink:href="#ArialMT-54" x="779.794922"/>
      <use xlink:href="#ArialMT-29" x="840.878906"/>
     </g>
    </g>
   </g>
   <g id="PolyCollection_1"/>
   <g id="line2d_31">
    <path d="M 401.432344 20.103439 
L 401.134744 21.597879 
L 400.539544 23.46593 
L 400.043544 20.103439 
L 399.646744 21.224269 
L 399.249944 20.103439 
L 399.051544 20.103439 
L 398.654744 18.982609 
L 398.059544 20.850659 
L 397.861144 20.477049 
L 397.563544 21.224269 
L 397.464344 21.224269 
L 397.067544 22.345099 
L 396.769944 22.345099 
L 396.571544 22.718709 
L 396.075544 22.718709 
L 395.877144 22.345099 
L 395.678744 22.718709 
L 395.579544 22.718709 
L 394.984344 24.58676 
L 394.885144 24.58676 
L 394.686744 24.96037 
L 394.587544 24.96037 
L 394.389144 24.58676 
L 394.091544 26.0812 
L 393.793944 27.57564 
L 393.694744 27.57564 
L 393.496344 27.949251 
L 393.297944 27.949251 
L 393.099544 27.57564 
L 392.801944 29.070081 
L 392.305944 33.553402 
L 392.107544 31.311741 
L 391.809944 28.322861 
L 391.710744 27.949251 
L 391.313944 29.070081 
L 391.214744 29.070081 
L 390.917144 29.817301 
L 390.817944 29.817301 
L 390.619544 30.938131 
L 390.520344 30.938131 
L 390.222744 31.685351 
L 390.123544 31.685351 
L 389.726744 33.553402 
L 389.230744 37.663113 
L 388.933144 43.640874 
L 388.734744 53.728346 
L 388.536344 73.15607 
L 388.238744 109.769858 
L 388.139544 107.154588 
L 387.445144 28.322861 
L 387.246744 26.0812 
L 387.048344 25.70759 
L 386.849944 25.70759 
L 386.651544 26.0812 
L 386.453144 26.0812 
L 386.155544 26.82842 
L 385.957144 26.82842 
L 385.758744 27.20203 
L 385.560344 27.20203 
L 385.262744 27.949251 
L 385.163544 27.949251 
L 384.865944 29.443691 
L 384.568344 33.553402 
L 384.270744 41.772824 
L 383.973144 50.739466 
L 383.873944 49.992245 
L 383.278744 24.21315 
L 383.080344 23.83954 
L 382.683544 25.33398 
L 382.485144 24.96037 
L 382.286744 24.96037 
L 382.088344 25.33398 
L 381.592344 25.33398 
L 381.294744 26.0812 
L 381.195544 26.0812 
L 380.897944 26.82842 
L 380.798744 26.82842 
L 380.501144 27.57564 
L 380.302744 27.57564 
L 380.104344 27.949251 
L 380.005144 27.949251 
L 379.608344 29.070081 
L 379.310744 28.322861 
L 378.616344 28.322861 
L 378.417944 28.696471 
L 378.318744 28.696471 
L 378.120344 29.070081 
L 377.921944 29.070081 
L 377.723544 29.443691 
L 377.624344 29.443691 
L 377.326744 30.190911 
L 377.227544 30.190911 
L 376.731544 31.685351 
L 376.632344 31.685351 
L 375.739544 35.421452 
L 375.342744 40.651993 
L 375.045144 49.245025 
L 374.846744 54.849176 
L 374.747544 54.849176 
L 374.152344 42.520044 
L 373.953944 43.640874 
L 373.755544 47.376975 
L 373.457944 57.838057 
L 373.259544 73.15607 
L 372.961944 125.835092 
L 372.664344 175.898843 
L 372.565144 169.921082 
L 371.870744 65.683869 
L 371.374744 41.772824 
L 370.977944 32.806182 
L 370.680344 29.817301 
L 370.481944 29.443691 
L 370.382744 29.443691 
L 370.184344 29.817301 
L 369.787544 29.817301 
L 369.093144 32.806182 
L 368.597144 37.289503 
L 368.200344 42.893654 
L 367.803544 54.101956 
L 367.505944 73.15607 
L 367.109144 123.219821 
L 366.712344 182.623824 
L 366.613144 181.502994 
L 366.414744 146.757256 
L 366.017944 63.442208 
L 365.621144 33.179792 
L 365.323544 26.45481 
L 365.025944 24.21315 
L 364.629144 23.092319 
L 364.232344 23.092319 
L 363.934744 23.83954 
L 363.835544 23.83954 
L 361.553944 32.058961 
L 361.454744 32.058961 
L 361.157144 32.806182 
L 360.958744 32.806182 
L 360.661144 33.553402 
L 360.561944 33.553402 
L 359.371544 38.410333 
L 359.073944 41.399213 
L 358.776344 48.871415 
L 358.379544 66.804699 
L 358.280344 66.431089 
L 357.883544 51.113076 
L 357.784344 52.607516 
L 357.387544 70.16719 
L 356.693144 38.783943 
L 356.494744 38.410333 
L 356.395544 38.410333 
L 356.197144 38.783943 
L 356.097944 38.783943 
L 355.701144 37.289503 
L 355.403544 38.036723 
L 355.304344 38.036723 
L 354.907544 39.157553 
L 354.808344 39.157553 
L 354.213144 41.772824 
L 353.816344 44.014484 
L 353.518744 44.761704 
L 352.725144 44.761704 
L 352.129944 47.376975 
L 351.336344 54.101956 
L 350.840344 69.41997 
L 350.741144 67.551919 
L 350.344344 55.222786 
L 349.749144 53.354736 
L 349.649944 53.354736 
L 349.153944 55.596397 
L 348.459544 61.200548 
L 347.765144 73.15607 
L 347.368344 86.606033 
L 347.070744 106.033758 
L 346.376344 166.558591 
L 345.979544 248.005589 
L 345.880344 237.544506 
L 345.384344 117.61567 
L 345.285144 112.758739 
L 345.185944 113.879569 
L 344.789144 143.768376 
L 344.689944 142.647546 
L 344.491544 128.823973 
L 343.896344 64.936649 
L 343.697944 66.431089 
L 343.499544 60.826938 
L 343.301144 55.222786 
L 343.201944 54.849176 
L 343.003544 55.222786 
L 342.606744 55.222786 
L 342.209944 58.958887 
L 341.912344 62.321378 
L 341.416344 66.431089 
L 341.118744 72.03524 
L 340.523544 84.364373 
L 340.325144 82.122712 
L 340.027544 75.771341 
L 339.829144 75.024121 
L 339.531544 76.144951 
L 339.432344 75.771341 
L 339.233944 72.40885 
L 338.737944 60.826938 
L 338.440344 59.332497 
L 338.241944 59.332497 
L 337.448344 61.947768 
L 337.349144 61.947768 
L 337.051544 62.694988 
L 336.654744 62.694988 
L 335.861144 66.057479 
L 335.464344 69.79358 
L 335.067544 78.386612 
L 334.670744 88.474084 
L 334.571544 86.232423 
L 334.075544 64.563039 
L 333.777944 63.068598 
L 333.480344 63.068598 
L 333.281944 63.442208 
L 332.686744 63.442208 
L 332.488344 63.815818 
L 332.289944 63.815818 
L 331.893144 64.936649 
L 331.793944 64.936649 
L 331.595544 63.815818 
L 331.099544 60.826938 
L 330.603544 59.332497 
L 330.504344 59.332497 
L 330.305944 58.958887 
L 330.107544 59.332497 
L 329.909144 59.332497 
L 329.710744 58.958887 
L 329.512344 58.958887 
L 329.313944 59.332497 
L 328.321944 59.332497 
L 328.123544 58.958887 
L 327.925144 58.958887 
L 327.131544 61.574158 
L 327.032344 61.574158 
L 326.734744 63.068598 
L 326.536344 64.189428 
L 326.437144 64.189428 
L 325.841944 62.321378 
L 325.742744 62.321378 
L 325.544344 61.947768 
L 325.246744 61.947768 
L 324.750744 64.189428 
L 324.254744 68.672749 
L 323.857944 72.03524 
L 323.659544 72.40885 
L 323.461144 70.5408 
L 322.865944 60.826938 
L 322.568344 59.332497 
L 322.369944 58.958887 
L 321.973144 58.958887 
L 321.774744 59.332497 
L 321.377944 59.332497 
L 320.683544 61.574158 
L 320.088344 57.464447 
L 319.790744 57.464447 
L 319.393944 58.585277 
L 319.294744 58.585277 
L 318.997144 59.332497 
L 318.897944 59.332497 
L 318.401944 60.826938 
L 317.905944 60.826938 
L 317.509144 59.706107 
L 317.310744 59.706107 
L 317.112344 59.332497 
L 316.219544 62.321378 
L 315.227544 55.596397 
L 314.830744 54.475566 
L 314.632344 54.475566 
L 314.334744 55.970007 
L 314.037144 58.958887 
L 313.937944 58.958887 
L 313.838744 58.585277 
L 313.045144 50.739466 
L 312.747544 50.739466 
L 312.549144 51.113076 
L 312.449944 51.113076 
L 312.251544 51.486686 
L 312.053144 51.486686 
L 311.854744 51.860296 
L 311.457944 51.860296 
L 311.259544 51.486686 
L 310.862744 51.486686 
L 310.664344 51.113076 
L 310.267544 51.113076 
L 309.771544 52.607516 
L 309.672344 52.607516 
L 309.275544 53.728346 
L 309.176344 53.728346 
L 308.977944 54.849176 
L 308.581144 59.332497 
L 308.481944 58.958887 
L 308.283544 55.970007 
L 308.085144 52.981126 
L 307.886744 52.233906 
L 307.192344 55.222786 
L 306.101144 64.189428 
L 305.902744 67.178309 
L 305.505944 74.276901 
L 305.406744 73.903291 
L 305.208344 70.16719 
L 304.910744 64.563039 
L 304.712344 64.189428 
L 304.414744 65.683869 
L 303.422744 73.15607 
L 303.125144 80.628272 
L 302.728344 90.715744 
L 302.629144 89.221304 
L 302.331544 74.276901 
L 302.033944 62.694988 
L 301.835544 60.079718 
L 301.537944 58.585277 
L 300.942744 56.717227 
L 300.347544 59.332497 
L 299.553944 66.057479 
L 299.157144 71.66163 
L 298.661144 82.869933 
L 297.768344 113.505959 
L 297.669144 110.517079 
L 296.974744 72.03524 
L 296.577944 59.706107 
L 296.280344 56.717227 
L 295.784344 55.222786 
L 295.685144 55.222786 
L 295.486744 54.849176 
L 295.387544 54.849176 
L 294.593944 58.211667 
L 294.296344 61.200548 
L 293.998744 66.804699 
L 293.701144 76.144951 
L 293.502744 87.726864 
L 293.205144 109.022638 
L 293.105944 106.033758 
L 292.411544 42.520044 
L 292.113944 41.025603 
L 291.915544 40.651993 
L 291.518744 41.772824 
L 291.320344 41.772824 
L 290.427544 44.761704 
L 290.328344 44.761704 
L 290.129944 45.135314 
L 289.931544 45.135314 
L 289.534744 46.256145 
L 289.435544 46.256145 
L 288.840344 48.124195 
L 288.542744 48.124195 
L 288.245144 48.871415 
L 287.947544 48.871415 
L 287.550744 49.992245 
L 287.451544 49.992245 
L 286.459544 53.728346 
L 286.161944 55.970007 
L 286.062744 55.970007 
L 285.864344 57.838057 
L 285.269144 65.683869 
L 284.773144 62.694988 
L 284.475544 67.178309 
L 284.078744 79.881052 
L 283.781144 89.594914 
L 283.681944 89.968524 
L 283.483544 85.111593 
L 283.086744 72.78246 
L 282.888344 71.28802 
L 282.789144 71.28802 
L 282.392344 73.52968 
L 282.193944 73.903291 
L 282.094744 73.52968 
L 281.896344 70.5408 
L 281.003544 49.618635 
L 280.904344 49.618635 
L 280.606744 50.365855 
L 280.309144 50.365855 
L 279.515544 52.981126 
L 279.416344 52.981126 
L 279.019544 54.101956 
L 278.721944 54.101956 
L 278.523544 53.728346 
L 278.027544 55.222786 
L 277.729944 55.222786 
L 277.233944 57.464447 
L 276.837144 59.706107 
L 276.638744 60.826938 
L 276.341144 62.694988 
L 275.249944 62.694988 
L 274.952344 63.442208 
L 274.753944 63.442208 
L 274.456344 64.189428 
L 274.257944 64.189428 
L 273.960344 63.068598 
L 273.761944 63.442208 
L 273.464344 63.442208 
L 273.265944 63.815818 
L 273.067544 63.815818 
L 272.869144 64.563039 
L 272.670744 64.189428 
L 272.571544 64.189428 
L 271.579544 67.551919 
L 271.083544 67.551919 
L 270.885144 66.804699 
L 270.686744 65.310259 
L 270.190744 65.310259 
L 269.992344 64.936649 
L 269.793944 64.936649 
L 269.297944 62.694988 
L 268.901144 59.332497 
L 268.405144 54.849176 
L 267.512344 45.882534 
L 267.016344 43.640874 
L 266.619544 41.399213 
L 266.024344 39.531163 
L 265.825944 39.531163 
L 265.429144 38.410333 
L 265.329944 38.410333 
L 265.131544 38.036723 
L 264.933144 38.036723 
L 264.734744 38.410333 
L 264.437144 38.410333 
L 263.445144 41.772824 
L 262.849944 39.904773 
L 262.750744 39.904773 
L 262.552344 40.278383 
L 262.155544 40.278383 
L 261.659544 38.036723 
L 261.064344 34.300622 
L 260.865944 33.927012 
L 260.568344 34.674232 
L 260.270744 34.674232 
L 259.973144 33.179792 
L 259.675544 31.685351 
L 259.477144 31.311741 
L 259.377944 31.311741 
L 259.179544 31.685351 
L 258.782744 31.685351 
L 258.584344 32.058961 
L 258.385944 32.058961 
L 258.088344 31.311741 
L 257.989144 31.311741 
L 257.790744 30.938131 
L 257.592344 30.938131 
L 257.294744 31.685351 
L 257.195544 31.685351 
L 256.997144 32.058961 
L 256.798744 32.058961 
L 256.401944 33.179792 
L 256.302744 33.179792 
L 256.203544 33.553402 
L 256.005144 33.179792 
L 255.806744 33.179792 
L 255.608344 32.806182 
L 255.310744 32.806182 
L 255.211544 32.432572 
L 255.013144 32.806182 
L 254.715544 32.806182 
L 253.921944 30.190911 
L 253.723544 30.190911 
L 253.525144 29.817301 
L 253.227544 29.817301 
L 252.433944 27.20203 
L 252.037144 27.20203 
L 251.838744 26.82842 
L 251.739544 26.82842 
L 251.144344 24.21315 
L 250.846744 22.718709 
L 249.656344 26.82842 
L 249.061144 26.82842 
L 248.763544 25.33398 
L 248.565144 24.21315 
L 248.465944 24.21315 
L 247.771544 29.070081 
L 247.672344 29.070081 
L 246.977944 26.0812 
L 246.878744 25.33398 
L 246.680344 26.45481 
L 246.481944 27.57564 
L 246.382744 27.57564 
L 245.886744 26.0812 
L 245.489944 26.0812 
L 245.291544 25.70759 
L 245.192344 25.70759 
L 244.993944 27.57564 
L 244.696344 32.058961 
L 243.902744 26.82842 
L 243.803544 26.82842 
L 243.605144 27.949251 
L 243.406744 27.949251 
L 243.109144 28.696471 
L 242.910744 27.57564 
L 242.712344 27.57564 
L 242.613144 27.949251 
L 242.513944 27.57564 
L 242.216344 24.58676 
L 242.017944 25.70759 
L 241.819544 27.949251 
L 241.720344 27.949251 
L 241.224344 25.70759 
L 241.025944 24.96037 
L 240.827544 26.0812 
L 240.629144 27.20203 
L 240.529944 27.20203 
L 240.430744 26.82842 
L 240.133144 24.21315 
L 240.033944 24.21315 
L 239.240344 29.443691 
L 238.446744 32.058961 
L 238.347544 32.058961 
L 237.950744 33.927012 
L 237.653144 38.036723 
L 237.256344 34.300622 
L 237.057944 35.047842 
L 236.958744 35.047842 
L 236.760344 34.674232 
L 236.661144 34.674232 
L 236.462744 34.300622 
L 236.363544 34.300622 
L 235.768344 36.168672 
L 235.569944 36.168672 
L 235.371544 35.795062 
L 234.776344 37.663113 
L 234.577944 37.663113 
L 234.280344 36.915893 
L 234.181144 36.915893 
L 233.982744 36.542282 
L 233.784344 36.542282 
L 233.685144 36.915893 
L 233.288344 35.421452 
L 232.494744 38.036723 
L 232.296344 38.036723 
L 231.998744 37.289503 
L 231.800344 37.289503 
L 231.601944 37.663113 
L 231.403544 37.663113 
L 230.808344 35.795062 
L 230.510744 35.795062 
L 230.113944 33.927012 
L 229.419544 29.443691 
L 229.121944 30.938131 
L 228.824344 30.938131 
L 228.427544 28.696471 
L 228.129944 27.949251 
L 228.030744 27.949251 
L 227.832344 28.322861 
L 227.733144 28.322861 
L 227.435544 25.70759 
L 227.137944 22.718709 
L 227.038744 23.83954 
L 226.641944 36.915893 
L 226.542744 37.289503 
L 226.145944 36.168672 
L 226.046744 36.168672 
L 225.253144 33.553402 
L 225.054744 33.553402 
L 224.657944 34.674232 
L 224.558744 34.674232 
L 224.261144 37.663113 
L 224.062744 39.157553 
L 223.864344 38.036723 
L 223.665944 36.915893 
L 223.269144 38.036723 
L 222.971544 37.289503 
L 222.872344 37.289503 
L 222.673944 36.915893 
L 222.574744 36.915893 
L 222.078744 35.421452 
L 221.979544 35.421452 
L 221.681944 37.289503 
L 220.888344 37.289503 
L 220.491544 36.168672 
L 220.193944 36.168672 
L 219.797144 37.289503 
L 219.697944 37.289503 
L 219.499544 36.915893 
L 219.301144 36.915893 
L 219.102744 36.542282 
L 219.003544 36.542282 
L 218.606744 37.663113 
L 218.408344 37.289503 
L 218.110744 37.289503 
L 217.813144 36.542282 
L 217.515544 36.542282 
L 217.118744 37.663113 
L 216.821144 37.663113 
L 216.523544 36.915893 
L 216.225944 36.915893 
L 216.027544 37.289503 
L 215.928344 37.289503 
L 215.630744 38.036723 
L 215.333144 38.036723 
L 215.134744 38.410333 
L 215.035544 38.410333 
L 214.341144 40.651993 
L 213.845144 39.157553 
L 213.745944 39.157553 
L 213.448344 38.410333 
L 213.150744 38.410333 
L 212.952344 38.036723 
L 212.555544 39.157553 
L 212.158744 39.157553 
L 211.464344 42.146434 
L 211.067544 44.388094 
L 210.869144 45.508924 
L 210.571544 47.003365 
L 210.472344 47.003365 
L 210.174744 44.014484 
L 209.976344 42.520044 
L 209.579544 42.520044 
L 209.281944 41.772824 
L 209.083544 41.772824 
L 208.686744 38.036723 
L 208.488344 35.047842 
L 207.992344 44.388094 
L 207.793944 45.135314 
L 207.397144 43.640874 
L 207.297944 44.388094 
L 207.099544 36.542282 
L 207.000344 36.915893 
L 206.603544 33.553402 
L 206.305944 32.058961 
L 206.206744 32.058961 
L 206.008344 31.685351 
L 205.909144 31.685351 
L 205.710744 32.058961 
L 205.313944 32.058961 
L 205.115544 31.685351 
L 205.016344 31.685351 
L 204.718744 30.938131 
L 204.520344 31.311741 
L 204.321944 31.311741 
L 204.123544 30.938131 
L 203.627544 30.938131 
L 203.131544 29.443691 
L 203.032344 29.443691 
L 202.833944 29.070081 
L 202.734744 29.070081 
L 202.536344 28.696471 
L 202.337944 28.696471 
L 202.139544 29.070081 
L 201.841944 28.322861 
L 201.742744 28.322861 
L 201.345944 27.20203 
L 200.552344 27.20203 
L 200.353944 26.82842 
L 199.957144 26.82842 
L 199.758744 26.45481 
L 199.560344 26.45481 
L 199.361944 26.0812 
L 198.568344 26.0812 
L 198.369944 25.70759 
L 198.270744 25.70759 
L 198.072344 26.0812 
L 197.576344 26.0812 
L 197.377944 25.70759 
L 197.179544 25.70759 
L 196.981144 25.33398 
L 196.782744 25.33398 
L 196.584344 24.96037 
L 196.385944 25.33398 
L 196.286744 25.33398 
L 196.088344 24.96037 
L 195.790744 24.96037 
L 195.393944 23.83954 
L 195.294744 23.83954 
L 194.997144 23.092319 
L 194.897944 23.092319 
L 194.699544 23.46593 
L 194.104344 23.46593 
L 193.905944 23.092319 
L 193.806744 23.092319 
L 193.608344 22.718709 
L 193.509144 22.718709 
L 193.310744 23.092319 
L 193.112344 22.718709 
L 192.913944 23.092319 
L 192.814744 23.092319 
L 192.517144 22.345099 
L 192.021144 22.345099 
L 191.822744 22.718709 
L 191.525144 22.718709 
L 191.326744 22.345099 
L 190.433944 22.345099 
L 190.334744 21.971489 
L 190.136344 22.345099 
L 189.937944 22.345099 
L 189.739544 21.971489 
L 189.541144 22.345099 
L 189.441944 22.345099 
L 189.243544 21.971489 
L 188.945944 21.971489 
L 188.747544 22.345099 
L 188.350744 22.345099 
L 188.152344 22.718709 
L 187.953944 22.718709 
L 187.755544 22.345099 
L 187.457944 22.345099 
L 187.259544 22.718709 
L 187.160344 22.718709 
L 187.061144 23.092319 
L 186.862744 22.718709 
L 186.664344 22.718709 
L 186.465944 23.092319 
L 185.573144 23.092319 
L 185.275544 23.83954 
L 185.176344 23.83954 
L 184.977944 24.21315 
L 183.985944 24.21315 
L 183.787544 24.58676 
L 183.688344 24.58676 
L 183.489944 24.21315 
L 183.291544 24.21315 
L 182.993944 24.96037 
L 182.894744 24.96037 
L 182.597144 25.70759 
L 182.101144 25.70759 
L 181.803544 26.45481 
L 181.704344 26.45481 
L 181.406744 27.20203 
L 181.307544 27.20203 
L 180.910744 28.322861 
L 180.811544 28.322861 
L 180.414744 29.443691 
L 180.315544 29.443691 
L 180.017944 30.190911 
L 179.918744 30.190911 
L 179.125144 32.806182 
L 179.025944 32.806182 
L 177.934744 36.542282 
L 177.835544 36.542282 
L 177.339544 38.036723 
L 177.240344 38.036723 
L 177.041944 38.410333 
L 176.645144 38.410333 
L 176.446744 38.036723 
L 176.248344 38.036723 
L 176.049944 37.663113 
L 174.065944 37.663113 
L 173.867544 38.036723 
L 173.669144 37.663113 
L 173.569944 37.663113 
L 173.371544 38.036723 
L 173.272344 38.036723 
L 173.073944 38.410333 
L 172.677144 38.410333 
L 172.478744 38.783943 
L 171.486744 38.783943 
L 171.288344 39.157553 
L 169.304344 39.157553 
L 169.105944 39.531163 
L 168.808344 39.531163 
L 168.510744 38.783943 
L 168.312344 38.783943 
L 168.113944 38.410333 
L 167.221144 38.410333 
L 167.022744 38.783943 
L 166.427544 38.783943 
L 166.229144 39.157553 
L 166.030744 39.157553 
L 165.832344 39.531163 
L 164.542744 39.531163 
L 164.344344 39.904773 
L 164.145944 39.531163 
L 164.046744 39.531163 
L 163.848344 39.904773 
L 163.749144 39.904773 
L 163.550744 40.278383 
L 163.253144 40.278383 
L 162.955544 41.025603 
L 162.856344 41.025603 
L 162.657944 41.399213 
L 162.459544 41.025603 
L 162.261144 41.025603 
L 162.062744 41.399213 
L 161.963544 41.399213 
L 161.765144 41.772824 
L 161.566744 41.772824 
L 161.368344 42.146434 
L 161.169944 42.146434 
L 160.971544 42.520044 
L 160.872344 42.520044 
L 160.574744 43.267264 
L 160.475544 43.267264 
L 159.185944 48.497805 
L 158.392344 53.728346 
L 158.193944 54.101956 
L 157.995544 54.101956 
L 156.705944 49.618635 
L 156.209944 49.618635 
L 155.912344 48.871415 
L 155.813144 48.871415 
L 155.614744 48.497805 
L 155.515544 48.497805 
L 155.317144 48.124195 
L 155.019544 48.124195 
L 154.721944 48.871415 
L 154.622744 48.871415 
L 154.225944 49.992245 
L 154.126744 49.992245 
L 152.936344 54.849176 
L 152.241944 60.826938 
L 151.845144 64.189428 
L 151.547544 65.683869 
L 151.448344 66.057479 
L 151.249944 64.936649 
L 150.952344 61.947768 
L 150.158744 54.101956 
L 149.761944 51.860296 
L 149.662744 51.860296 
L 149.464344 51.486686 
L 149.365144 51.486686 
L 148.869144 53.728346 
L 148.670744 54.475566 
L 148.472344 54.475566 
L 147.976344 49.992245 
L 147.678744 47.376975 
L 146.984344 45.135314 
L 146.785944 45.135314 
L 146.488344 44.388094 
L 146.190744 44.388094 
L 145.893144 45.135314 
L 145.397144 45.135314 
L 144.603544 48.124195 
L 144.305944 46.629755 
L 144.008344 45.135314 
L 143.512344 43.640874 
L 143.115544 43.640874 
L 142.619544 45.135314 
L 142.520344 45.135314 
L 142.222744 46.629755 
L 141.825944 51.860296 
L 141.131544 66.057479 
L 141.032344 66.057479 
L 140.933144 65.310259 
L 140.635544 57.838057 
L 140.337944 53.354736 
L 140.238744 53.354736 
L 140.040344 53.728346 
L 139.841944 52.981126 
L 139.445144 45.882534 
L 138.949144 36.915893 
L 138.750744 36.542282 
L 138.651544 36.542282 
L 138.155544 38.036723 
L 138.056344 38.036723 
L 137.857944 37.289503 
L 137.461144 31.685351 
L 137.163544 27.20203 
L 136.865944 25.70759 
L 136.766744 25.70759 
L 136.469144 26.82842 
L 135.973144 31.311741 
L 135.873944 31.311741 
L 135.576344 28.322861 
L 135.278744 25.70759 
L 134.981144 24.96037 
L 134.088344 24.96037 
L 133.889944 25.33398 
L 133.592344 25.33398 
L 132.997144 23.46593 
L 132.897944 23.46593 
L 132.699544 23.092319 
L 132.501144 23.092319 
L 132.302744 23.46593 
L 131.806744 23.46593 
L 131.608344 23.83954 
L 129.921944 23.83954 
L 129.723544 24.21315 
L 128.632344 24.21315 
L 128.433944 24.58676 
L 127.838744 24.58676 
L 127.640344 24.21315 
L 127.541144 24.21315 
L 127.342744 24.58676 
L 126.648344 24.58676 
L 126.350744 25.33398 
L 126.152344 25.33398 
L 126.053144 25.70759 
L 125.854744 25.33398 
L 125.457944 25.33398 
L 125.259544 25.70759 
L 124.465944 25.70759 
L 124.267544 26.0812 
L 124.168344 26.0812 
L 123.969944 25.70759 
L 123.870744 25.70759 
L 123.573144 26.45481 
L 123.374744 26.45481 
L 123.176344 26.82842 
L 122.085144 26.82842 
L 121.787544 27.57564 
L 121.589144 27.57564 
L 121.390744 27.20203 
L 121.192344 27.20203 
L 120.993944 27.57564 
L 120.894744 27.57564 
L 120.696344 27.949251 
L 120.299544 27.949251 
L 120.001944 28.696471 
L 118.910744 28.696471 
L 118.613144 29.443691 
L 118.216344 29.443691 
L 117.918744 30.190911 
L 117.125144 30.190911 
L 116.827544 30.938131 
L 116.331544 30.938131 
L 116.133144 30.564521 
L 116.033944 30.564521 
L 115.637144 31.685351 
L 115.438744 31.685351 
L 115.141144 32.432572 
L 114.942744 32.432572 
L 114.744344 32.058961 
L 114.446744 32.058961 
L 114.248344 32.432572 
L 113.653144 32.432572 
L 113.454744 32.806182 
L 113.355544 32.806182 
L 113.157144 33.179792 
L 112.661144 33.179792 
L 112.462744 33.553402 
L 111.569944 33.553402 
L 111.371544 33.927012 
L 110.974744 33.927012 
L 110.776344 34.300622 
L 110.379544 34.300622 
L 110.181144 34.674232 
L 109.883544 34.674232 
L 109.685144 35.047842 
L 109.387544 35.047842 
L 109.189144 34.674232 
L 108.792344 34.674232 
L 108.593944 35.047842 
L 107.800344 35.047842 
L 107.601944 35.421452 
L 107.105944 35.421452 
L 106.907544 35.047842 
L 106.709144 35.047842 
L 106.510744 35.421452 
L 106.411544 35.421452 
L 106.213144 35.795062 
L 106.113944 35.795062 
L 105.816344 35.047842 
L 105.121944 35.047842 
L 104.923544 35.421452 
L 104.625944 35.421452 
L 104.427544 35.047842 
L 104.328344 35.047842 
L 104.129944 34.674232 
L 103.931544 34.674232 
L 103.733144 35.047842 
L 102.344344 35.047842 
L 102.145944 34.674232 
L 101.749144 34.674232 
L 101.550744 34.300622 
L 101.352344 34.674232 
L 101.054744 34.674232 
L 100.856344 34.300622 
L 100.657944 34.300622 
L 100.459544 33.927012 
L 100.261144 33.927012 
L 99.963544 34.674232 
L 99.765144 34.674232 
L 99.467544 33.927012 
L 99.169944 33.927012 
L 98.971544 33.553402 
L 98.475544 33.553402 
L 98.277144 33.179792 
L 98.078744 33.179792 
L 97.880344 32.806182 
L 97.681944 32.806182 
L 97.384344 32.058961 
L 96.888344 32.058961 
L 96.689944 31.685351 
L 95.896344 31.685351 
L 95.797144 31.311741 
L 95.598744 31.685351 
L 95.201944 30.564521 
L 94.507544 30.564521 
L 94.309144 30.190911 
L 94.209944 30.190911 
L 94.011544 30.564521 
L 93.713944 30.564521 
L 93.416344 29.817301 
L 93.118744 29.817301 
L 92.523544 27.949251 
L 92.424344 27.949251 
L 92.325144 27.57564 
L 91.729944 29.443691 
L 91.531544 29.443691 
L 90.837144 27.20203 
L 90.737944 27.20203 
L 90.539544 26.82842 
L 90.341144 26.82842 
L 90.142744 26.45481 
L 89.745944 27.57564 
L 89.646744 27.57564 
L 89.051544 25.70759 
L 88.952344 25.70759 
L 88.753944 25.33398 
L 88.654744 25.33398 
L 88.456344 24.96037 
L 88.357144 24.96037 
L 88.158744 25.33398 
L 88.059544 25.33398 
L 87.861144 26.45481 
L 87.563544 27.949251 
L 87.365144 26.82842 
L 86.968344 23.092319 
L 86.571544 23.092319 
L 86.273944 22.345099 
L 86.174744 22.345099 
L 85.976344 23.092319 
L 85.579544 26.82842 
L 85.381144 27.20203 
L 84.785944 25.33398 
L 84.488344 26.0812 
L 84.389144 26.0812 
L 84.190744 24.96037 
L 83.992344 24.96037 
L 83.793944 26.0812 
L 83.099544 30.564521 
L 82.603544 32.058961 
L 82.206744 29.817301 
L 82.008344 28.696471 
L 81.909144 27.949251 
L 81.710744 29.070081 
L 81.413144 31.311741 
L 81.214744 31.311741 
L 81.016344 28.696471 
L 80.718744 24.21315 
L 80.421144 22.718709 
L 80.024344 20.477049 
L 79.925144 20.477049 
L 79.726744 21.597879 
L 79.429144 23.83954 
L 79.329944 23.092319 
L 78.833944 15.246508 
L 78.536344 13.004847 
L 78.139544 11.136797 
L 78.040344 11.510407 
L 77.841944 12.631237 
L 76.949144 25.33398 
L 76.353944 20.103439 
L 76.155544 18.608999 
L 75.957144 19.356219 
L 75.461144 24.21315 
L 75.361944 24.21315 
L 75.163544 23.092319 
L 74.865944 20.103439 
L 74.667544 19.729829 
L 74.568344 19.729829 
L 74.270744 21.224269 
L 73.973144 21.971489 
L 73.873944 21.971489 
L 73.576344 23.092319 
L 73.278744 26.0812 
L 73.179544 26.0812 
L 73.080344 25.70759 
L 72.881944 24.21315 
L 72.385944 24.21315 
L 71.889944 25.70759 
L 71.592344 24.96037 
L 71.393944 26.0812 
L 71.195544 27.949251 
L 70.798744 32.432572 
L 70.501144 28.322861 
L 70.401944 28.322861 
L 70.302744 28.696471 
L 70.104344 30.938131 
L 70.005144 30.938131 
L 69.905944 31.311741 
L 69.608344 36.915893 
L 69.211544 33.179792 
L 68.814744 29.817301 
L 68.517144 28.322861 
L 68.318744 27.949251 
L 67.822744 27.949251 
L 67.624344 29.443691 
L 67.525144 29.817301 
L 67.227544 28.322861 
L 66.830744 27.20203 
L 66.334744 28.696471 
L 66.136344 28.696471 
L 65.739544 27.57564 
L 65.541144 27.57564 
L 65.342744 27.20203 
L 65.144344 28.322861 
L 64.648344 32.432572 
L 64.449944 34.300622 
L 64.350744 33.927012 
L 64.251544 32.806182 
L 64.152344 33.179792 
L 63.953944 34.300622 
L 63.557144 29.817301 
L 63.358744 30.190911 
L 63.259544 30.190911 
L 62.664344 35.047842 
L 62.465944 36.542282 
L 62.168344 34.300622 
L 62.069144 34.300622 
L 61.969944 33.927012 
L 61.771544 31.311741 
L 61.672344 31.311741 
L 61.176344 33.179792 
L 60.878744 36.168672 
L 60.680344 36.542282 
L 60.481944 36.168672 
L 60.382744 36.168672 
L 59.787544 32.058961 
L 59.589144 33.927012 
L 59.291544 38.036723 
L 59.192344 38.036723 
L 58.993944 36.915893 
L 58.795544 36.915893 
L 58.299544 33.553402 
L 57.902744 35.047842 
L 57.704344 36.915893 
L 57.605144 36.542282 
L 57.406744 35.421452 
L 57.208344 35.795062 
L 56.910744 33.179792 
L 56.613144 33.927012 
L 56.513944 33.553402 
L 56.414744 33.927012 
L 56.216344 35.795062 
L 56.117144 35.795062 
L 55.819544 33.179792 
L 55.621144 34.674232 
L 55.125144 31.685351 
L 54.529944 34.300622 
L 54.331544 36.542282 
L 54.232344 36.542282 
L 53.934744 33.553402 
L 53.438744 28.696471 
L 53.339544 28.322861 
L 52.744344 30.190911 
L 52.248344 30.190911 
L 51.851544 29.070081 
L 51.553944 29.817301 
L 51.256344 29.817301 
L 50.661144 27.949251 
L 50.462744 28.322861 
L 50.264344 28.322861 
L 50.065944 28.696471 
L 49.966744 28.696471 
L 49.073944 25.70759 
L 48.677144 25.70759 
L 48.478744 26.0812 
L 48.379544 26.0812 
L 48.081944 25.33398 
L 47.982744 25.33398 
L 47.784344 24.96037 
L 47.585944 24.96037 
L 47.387544 25.33398 
L 47.089944 24.58676 
L 46.990744 24.58676 
L 46.792344 24.21315 
L 46.593944 24.21315 
L 46.395544 23.83954 
L 45.899544 23.83954 
L 45.701144 24.21315 
L 45.502744 23.83954 
L 44.907544 23.83954 
L 44.709144 23.092319 
L 44.510744 23.46593 
L 44.411544 23.46593 
L 44.312344 23.092319 
L 44.312344 23.092319 
" clip-path="url(#p7d95d04d68)" style="fill: none; stroke: #1f77b4; stroke-linecap: round"/>
   </g>
   <g id="patch_3">
    <path d="M 44.312344 273.500741 
L 44.312344 7.388741 
" style="fill: none; stroke: #262626; stroke-width: 1.25; stroke-linejoin: miter; stroke-linecap: square"/>
   </g>
   <g id="patch_4">
    <path d="M 401.432344 273.500741 
L 401.432344 7.388741 
" style="fill: none; stroke: #262626; stroke-width: 1.25; stroke-linejoin: miter; stroke-linecap: square"/>
   </g>
   <g id="patch_5">
    <path d="M 44.312344 273.500741 
L 401.432344 273.500741 
" style="fill: none; stroke: #262626; stroke-width: 1.25; stroke-linejoin: miter; stroke-linecap: square"/>
   </g>
   <g id="patch_6">
    <path d="M 44.312344 7.388741 
L 401.432344 7.388741 
" style="fill: none; stroke: #262626; stroke-width: 1.25; stroke-linejoin: miter; stroke-linecap: square"/>
   </g>
   <g id="legend_1"/>
  </g>
 </g>
 <defs>
  <clipPath id="p7d95d04d68">
   <rect x="44.312344" y="7.388741" width="357.12" height="266.112"/>
  </clipPath>
 </defs>
</svg>
