<?xml version="1.0" encoding="utf-8" standalone="no"?>
<!DOCTYPE svg PUBLIC "-//W3C//DTD SVG 1.1//EN"
  "http://www.w3.org/Graphics/SVG/1.1/DTD/svg11.dtd">
<svg xmlns:xlink="http://www.w3.org/1999/xlink" width="417.807891pt" height="315.231844pt" viewBox="0 0 417.807891 315.231844" xmlns="http://www.w3.org/2000/svg" version="1.1">
 <metadata>
  <rdf:RDF xmlns:dc="http://purl.org/dc/elements/1.1/" xmlns:cc="http://creativecommons.org/ns#" xmlns:rdf="http://www.w3.org/1999/02/22-rdf-syntax-ns#">
   <cc:Work>
    <dc:type rdf:resource="http://purl.org/dc/dcmitype/StillImage"/>
    <dc:date>2023-09-08T16:00:09.567697</dc:date>
    <dc:format>image/svg+xml</dc:format>
    <dc:creator>
     <cc:Agent>
      <dc:title>Matplotlib v3.7.1, https://matplotlib.org/</dc:title>
     </cc:Agent>
    </dc:creator>
   </cc:Work>
  </rdf:RDF>
 </metadata>
 <defs>
  <style type="text/css">*{stroke-linejoin: round; stroke-linecap: butt}</style>
 </defs>
 <g id="figure_1">
  <g id="patch_1">
   <path d="M 0 315.231844 
L 417.807891 315.231844 
L 417.807891 0 
L 0 0 
z
" style="fill: #ffffff"/>
  </g>
  <g id="axes_1">
   <g id="patch_2">
    <path d="M 44.312344 273.312 
L 401.432344 273.312 
L 401.432344 7.2 
L 44.312344 7.2 
z
" style="fill: #ffffff"/>
   </g>
   <g id="matplotlib.axis_1">
    <g id="xtick_1">
     <g id="line2d_1">
      <defs>
       <path id="m052250d927" d="M 0 0 
L 0 -6 
" style="stroke: #262626; stroke-width: 1.25"/>
      </defs>
      <g>
       <use xlink:href="#m052250d927" x="401.432344" y="273.312" style="fill: #262626; stroke: #262626; stroke-width: 1.25"/>
      </g>
     </g>
     <g id="text_1">
      <!-- 500 -->
      <g style="fill: #262626" transform="translate(392.256797 284.685594) scale(0.11 -0.11)">
       <defs>
        <path id="ArialMT-35" d="M 266 1200 
L 856 1250 
Q 922 819 1161 601 
Q 1400 384 1738 384 
Q 2144 384 2425 690 
Q 2706 997 2706 1503 
Q 2706 1984 2436 2262 
Q 2166 2541 1728 2541 
Q 1456 2541 1237 2417 
Q 1019 2294 894 2097 
L 366 2166 
L 809 4519 
L 3088 4519 
L 3088 3981 
L 1259 3981 
L 1013 2750 
Q 1425 3038 1878 3038 
Q 2478 3038 2890 2622 
Q 3303 2206 3303 1553 
Q 3303 931 2941 478 
Q 2500 -78 1738 -78 
Q 1113 -78 717 272 
Q 322 622 266 1200 
z
" transform="scale(0.015625)"/>
        <path id="ArialMT-30" d="M 266 2259 
Q 266 3072 433 3567 
Q 600 4063 929 4331 
Q 1259 4600 1759 4600 
Q 2128 4600 2406 4451 
Q 2684 4303 2865 4023 
Q 3047 3744 3150 3342 
Q 3253 2941 3253 2259 
Q 3253 1453 3087 958 
Q 2922 463 2592 192 
Q 2263 -78 1759 -78 
Q 1097 -78 719 397 
Q 266 969 266 2259 
z
M 844 2259 
Q 844 1131 1108 757 
Q 1372 384 1759 384 
Q 2147 384 2411 759 
Q 2675 1134 2675 2259 
Q 2675 3391 2411 3762 
Q 2147 4134 1753 4134 
Q 1366 4134 1134 3806 
Q 844 3388 844 2259 
z
" transform="scale(0.015625)"/>
       </defs>
       <use xlink:href="#ArialMT-35"/>
       <use xlink:href="#ArialMT-30" x="55.615234"/>
       <use xlink:href="#ArialMT-30" x="111.230469"/>
      </g>
     </g>
    </g>
    <g id="xtick_2">
     <g id="line2d_2">
      <g>
       <use xlink:href="#m052250d927" x="350.415201" y="273.312" style="fill: #262626; stroke: #262626; stroke-width: 1.25"/>
      </g>
     </g>
     <g id="text_2">
      <!-- 1000 -->
      <g style="fill: #262626" transform="translate(338.181138 284.685594) scale(0.11 -0.11)">
       <defs>
        <path id="ArialMT-31" d="M 2384 0 
L 1822 0 
L 1822 3584 
Q 1619 3391 1289 3197 
Q 959 3003 697 2906 
L 697 3450 
Q 1169 3672 1522 3987 
Q 1875 4303 2022 4600 
L 2384 4600 
L 2384 0 
z
" transform="scale(0.015625)"/>
       </defs>
       <use xlink:href="#ArialMT-31"/>
       <use xlink:href="#ArialMT-30" x="55.615234"/>
       <use xlink:href="#ArialMT-30" x="111.230469"/>
       <use xlink:href="#ArialMT-30" x="166.845703"/>
      </g>
     </g>
    </g>
    <g id="xtick_3">
     <g id="line2d_3">
      <g>
       <use xlink:href="#m052250d927" x="299.398058" y="273.312" style="fill: #262626; stroke: #262626; stroke-width: 1.25"/>
      </g>
     </g>
     <g id="text_3">
      <!-- 1500 -->
      <g style="fill: #262626" transform="translate(287.163996 284.685594) scale(0.11 -0.11)">
       <use xlink:href="#ArialMT-31"/>
       <use xlink:href="#ArialMT-35" x="55.615234"/>
       <use xlink:href="#ArialMT-30" x="111.230469"/>
       <use xlink:href="#ArialMT-30" x="166.845703"/>
      </g>
     </g>
    </g>
    <g id="xtick_4">
     <g id="line2d_4">
      <g>
       <use xlink:href="#m052250d927" x="248.380915" y="273.312" style="fill: #262626; stroke: #262626; stroke-width: 1.25"/>
      </g>
     </g>
     <g id="text_4">
      <!-- 2000 -->
      <g style="fill: #262626" transform="translate(236.146853 284.685594) scale(0.11 -0.11)">
       <defs>
        <path id="ArialMT-32" d="M 3222 541 
L 3222 0 
L 194 0 
Q 188 203 259 391 
Q 375 700 629 1000 
Q 884 1300 1366 1694 
Q 2113 2306 2375 2664 
Q 2638 3022 2638 3341 
Q 2638 3675 2398 3904 
Q 2159 4134 1775 4134 
Q 1369 4134 1125 3890 
Q 881 3647 878 3216 
L 300 3275 
Q 359 3922 746 4261 
Q 1134 4600 1788 4600 
Q 2447 4600 2831 4234 
Q 3216 3869 3216 3328 
Q 3216 3053 3103 2787 
Q 2991 2522 2730 2228 
Q 2469 1934 1863 1422 
Q 1356 997 1212 845 
Q 1069 694 975 541 
L 3222 541 
z
" transform="scale(0.015625)"/>
       </defs>
       <use xlink:href="#ArialMT-32"/>
       <use xlink:href="#ArialMT-30" x="55.615234"/>
       <use xlink:href="#ArialMT-30" x="111.230469"/>
       <use xlink:href="#ArialMT-30" x="166.845703"/>
      </g>
     </g>
    </g>
    <g id="xtick_5">
     <g id="line2d_5">
      <g>
       <use xlink:href="#m052250d927" x="197.363772" y="273.312" style="fill: #262626; stroke: #262626; stroke-width: 1.25"/>
      </g>
     </g>
     <g id="text_5">
      <!-- 2500 -->
      <g style="fill: #262626" transform="translate(185.12971 284.685594) scale(0.11 -0.11)">
       <use xlink:href="#ArialMT-32"/>
       <use xlink:href="#ArialMT-35" x="55.615234"/>
       <use xlink:href="#ArialMT-30" x="111.230469"/>
       <use xlink:href="#ArialMT-30" x="166.845703"/>
      </g>
     </g>
    </g>
    <g id="xtick_6">
     <g id="line2d_6">
      <g>
       <use xlink:href="#m052250d927" x="146.346629" y="273.312" style="fill: #262626; stroke: #262626; stroke-width: 1.25"/>
      </g>
     </g>
     <g id="text_6">
      <!-- 3000 -->
      <g style="fill: #262626" transform="translate(134.112567 284.685594) scale(0.11 -0.11)">
       <defs>
        <path id="ArialMT-33" d="M 269 1209 
L 831 1284 
Q 928 806 1161 595 
Q 1394 384 1728 384 
Q 2125 384 2398 659 
Q 2672 934 2672 1341 
Q 2672 1728 2419 1979 
Q 2166 2231 1775 2231 
Q 1616 2231 1378 2169 
L 1441 2663 
Q 1497 2656 1531 2656 
Q 1891 2656 2178 2843 
Q 2466 3031 2466 3422 
Q 2466 3731 2256 3934 
Q 2047 4138 1716 4138 
Q 1388 4138 1169 3931 
Q 950 3725 888 3313 
L 325 3413 
Q 428 3978 793 4289 
Q 1159 4600 1703 4600 
Q 2078 4600 2393 4439 
Q 2709 4278 2876 4000 
Q 3044 3722 3044 3409 
Q 3044 3113 2884 2869 
Q 2725 2625 2413 2481 
Q 2819 2388 3044 2092 
Q 3269 1797 3269 1353 
Q 3269 753 2831 336 
Q 2394 -81 1725 -81 
Q 1122 -81 723 278 
Q 325 638 269 1209 
z
" transform="scale(0.015625)"/>
       </defs>
       <use xlink:href="#ArialMT-33"/>
       <use xlink:href="#ArialMT-30" x="55.615234"/>
       <use xlink:href="#ArialMT-30" x="111.230469"/>
       <use xlink:href="#ArialMT-30" x="166.845703"/>
      </g>
     </g>
    </g>
    <g id="xtick_7">
     <g id="line2d_7">
      <g>
       <use xlink:href="#m052250d927" x="95.329487" y="273.312" style="fill: #262626; stroke: #262626; stroke-width: 1.25"/>
      </g>
     </g>
     <g id="text_7">
      <!-- 3500 -->
      <g style="fill: #262626" transform="translate(83.095424 284.685594) scale(0.11 -0.11)">
       <use xlink:href="#ArialMT-33"/>
       <use xlink:href="#ArialMT-35" x="55.615234"/>
       <use xlink:href="#ArialMT-30" x="111.230469"/>
       <use xlink:href="#ArialMT-30" x="166.845703"/>
      </g>
     </g>
    </g>
    <g id="xtick_8">
     <g id="line2d_8">
      <g>
       <use xlink:href="#m052250d927" x="44.312344" y="273.312" style="fill: #262626; stroke: #262626; stroke-width: 1.25"/>
      </g>
     </g>
     <g id="text_8">
      <!-- 4000 -->
      <g style="fill: #262626" transform="translate(32.078281 284.685594) scale(0.11 -0.11)">
       <defs>
        <path id="ArialMT-34" d="M 2069 0 
L 2069 1097 
L 81 1097 
L 81 1613 
L 2172 4581 
L 2631 4581 
L 2631 1613 
L 3250 1613 
L 3250 1097 
L 2631 1097 
L 2631 0 
L 2069 0 
z
M 2069 1613 
L 2069 3678 
L 634 1613 
L 2069 1613 
z
" transform="scale(0.015625)"/>
       </defs>
       <use xlink:href="#ArialMT-34"/>
       <use xlink:href="#ArialMT-30" x="55.615234"/>
       <use xlink:href="#ArialMT-30" x="111.230469"/>
       <use xlink:href="#ArialMT-30" x="166.845703"/>
      </g>
     </g>
    </g>
    <g id="xtick_9">
     <g id="line2d_9">
      <defs>
       <path id="m6ea8f1b85a" d="M 0 0 
L 0 -4 
" style="stroke: #262626"/>
      </defs>
      <g>
       <use xlink:href="#m6ea8f1b85a" x="375.923772" y="273.312" style="fill: #262626; stroke: #262626"/>
      </g>
     </g>
    </g>
    <g id="xtick_10">
     <g id="line2d_10">
      <g>
       <use xlink:href="#m6ea8f1b85a" x="324.906629" y="273.312" style="fill: #262626; stroke: #262626"/>
      </g>
     </g>
    </g>
    <g id="xtick_11">
     <g id="line2d_11">
      <g>
       <use xlink:href="#m6ea8f1b85a" x="273.889487" y="273.312" style="fill: #262626; stroke: #262626"/>
      </g>
     </g>
    </g>
    <g id="xtick_12">
     <g id="line2d_12">
      <g>
       <use xlink:href="#m6ea8f1b85a" x="222.872344" y="273.312" style="fill: #262626; stroke: #262626"/>
      </g>
     </g>
    </g>
    <g id="xtick_13">
     <g id="line2d_13">
      <g>
       <use xlink:href="#m6ea8f1b85a" x="171.855201" y="273.312" style="fill: #262626; stroke: #262626"/>
      </g>
     </g>
    </g>
    <g id="xtick_14">
     <g id="line2d_14">
      <g>
       <use xlink:href="#m6ea8f1b85a" x="120.838058" y="273.312" style="fill: #262626; stroke: #262626"/>
      </g>
     </g>
    </g>
    <g id="xtick_15">
     <g id="line2d_15">
      <g>
       <use xlink:href="#m6ea8f1b85a" x="69.820915" y="273.312" style="fill: #262626; stroke: #262626"/>
      </g>
     </g>
    </g>
    <g id="text_9">
     <!-- Wavenumber ($\mathregular{cm^{-1}}$) -->
     <g style="fill: #262626" transform="translate(168.332344 305.391844) scale(0.12 -0.12)">
      <defs>
       <path id="ArialMT-57" d="M 1294 0 
L 78 4581 
L 700 4581 
L 1397 1578 
Q 1509 1106 1591 641 
Q 1766 1375 1797 1488 
L 2669 4581 
L 3400 4581 
L 4056 2263 
Q 4303 1400 4413 641 
Q 4500 1075 4641 1638 
L 5359 4581 
L 5969 4581 
L 4713 0 
L 4128 0 
L 3163 3491 
Q 3041 3928 3019 4028 
Q 2947 3713 2884 3491 
L 1913 0 
L 1294 0 
z
" transform="scale(0.015625)"/>
       <path id="ArialMT-61" d="M 2588 409 
Q 2275 144 1986 34 
Q 1697 -75 1366 -75 
Q 819 -75 525 192 
Q 231 459 231 875 
Q 231 1119 342 1320 
Q 453 1522 633 1644 
Q 813 1766 1038 1828 
Q 1203 1872 1538 1913 
Q 2219 1994 2541 2106 
Q 2544 2222 2544 2253 
Q 2544 2597 2384 2738 
Q 2169 2928 1744 2928 
Q 1347 2928 1158 2789 
Q 969 2650 878 2297 
L 328 2372 
Q 403 2725 575 2942 
Q 747 3159 1072 3276 
Q 1397 3394 1825 3394 
Q 2250 3394 2515 3294 
Q 2781 3194 2906 3042 
Q 3031 2891 3081 2659 
Q 3109 2516 3109 2141 
L 3109 1391 
Q 3109 606 3145 398 
Q 3181 191 3288 0 
L 2700 0 
Q 2613 175 2588 409 
z
M 2541 1666 
Q 2234 1541 1622 1453 
Q 1275 1403 1131 1340 
Q 988 1278 909 1158 
Q 831 1038 831 891 
Q 831 666 1001 516 
Q 1172 366 1500 366 
Q 1825 366 2078 508 
Q 2331 650 2450 897 
Q 2541 1088 2541 1459 
L 2541 1666 
z
" transform="scale(0.015625)"/>
       <path id="ArialMT-76" d="M 1344 0 
L 81 3319 
L 675 3319 
L 1388 1331 
Q 1503 1009 1600 663 
Q 1675 925 1809 1294 
L 2547 3319 
L 3125 3319 
L 1869 0 
L 1344 0 
z
" transform="scale(0.015625)"/>
       <path id="ArialMT-65" d="M 2694 1069 
L 3275 997 
Q 3138 488 2766 206 
Q 2394 -75 1816 -75 
Q 1088 -75 661 373 
Q 234 822 234 1631 
Q 234 2469 665 2931 
Q 1097 3394 1784 3394 
Q 2450 3394 2872 2941 
Q 3294 2488 3294 1666 
Q 3294 1616 3291 1516 
L 816 1516 
Q 847 969 1125 678 
Q 1403 388 1819 388 
Q 2128 388 2347 550 
Q 2566 713 2694 1069 
z
M 847 1978 
L 2700 1978 
Q 2663 2397 2488 2606 
Q 2219 2931 1791 2931 
Q 1403 2931 1139 2672 
Q 875 2413 847 1978 
z
" transform="scale(0.015625)"/>
       <path id="ArialMT-6e" d="M 422 0 
L 422 3319 
L 928 3319 
L 928 2847 
Q 1294 3394 1984 3394 
Q 2284 3394 2536 3286 
Q 2788 3178 2913 3003 
Q 3038 2828 3088 2588 
Q 3119 2431 3119 2041 
L 3119 0 
L 2556 0 
L 2556 2019 
Q 2556 2363 2490 2533 
Q 2425 2703 2258 2804 
Q 2091 2906 1866 2906 
Q 1506 2906 1245 2678 
Q 984 2450 984 1813 
L 984 0 
L 422 0 
z
" transform="scale(0.015625)"/>
       <path id="ArialMT-75" d="M 2597 0 
L 2597 488 
Q 2209 -75 1544 -75 
Q 1250 -75 995 37 
Q 741 150 617 320 
Q 494 491 444 738 
Q 409 903 409 1263 
L 409 3319 
L 972 3319 
L 972 1478 
Q 972 1038 1006 884 
Q 1059 663 1231 536 
Q 1403 409 1656 409 
Q 1909 409 2131 539 
Q 2353 669 2445 892 
Q 2538 1116 2538 1541 
L 2538 3319 
L 3100 3319 
L 3100 0 
L 2597 0 
z
" transform="scale(0.015625)"/>
       <path id="ArialMT-6d" d="M 422 0 
L 422 3319 
L 925 3319 
L 925 2853 
Q 1081 3097 1340 3245 
Q 1600 3394 1931 3394 
Q 2300 3394 2536 3241 
Q 2772 3088 2869 2813 
Q 3263 3394 3894 3394 
Q 4388 3394 4653 3120 
Q 4919 2847 4919 2278 
L 4919 0 
L 4359 0 
L 4359 2091 
Q 4359 2428 4304 2576 
Q 4250 2725 4106 2815 
Q 3963 2906 3769 2906 
Q 3419 2906 3187 2673 
Q 2956 2441 2956 1928 
L 2956 0 
L 2394 0 
L 2394 2156 
Q 2394 2531 2256 2718 
Q 2119 2906 1806 2906 
Q 1569 2906 1367 2781 
Q 1166 2656 1075 2415 
Q 984 2175 984 1722 
L 984 0 
L 422 0 
z
" transform="scale(0.015625)"/>
       <path id="ArialMT-62" d="M 941 0 
L 419 0 
L 419 4581 
L 981 4581 
L 981 2947 
Q 1338 3394 1891 3394 
Q 2197 3394 2470 3270 
Q 2744 3147 2920 2923 
Q 3097 2700 3197 2384 
Q 3297 2069 3297 1709 
Q 3297 856 2875 390 
Q 2453 -75 1863 -75 
Q 1275 -75 941 416 
L 941 0 
z
M 934 1684 
Q 934 1088 1097 822 
Q 1363 388 1816 388 
Q 2184 388 2453 708 
Q 2722 1028 2722 1663 
Q 2722 2313 2464 2622 
Q 2206 2931 1841 2931 
Q 1472 2931 1203 2611 
Q 934 2291 934 1684 
z
" transform="scale(0.015625)"/>
       <path id="ArialMT-72" d="M 416 0 
L 416 3319 
L 922 3319 
L 922 2816 
Q 1116 3169 1280 3281 
Q 1444 3394 1641 3394 
Q 1925 3394 2219 3213 
L 2025 2691 
Q 1819 2813 1613 2813 
Q 1428 2813 1281 2702 
Q 1134 2591 1072 2394 
Q 978 2094 978 1738 
L 978 0 
L 416 0 
z
" transform="scale(0.015625)"/>
       <path id="ArialMT-20" transform="scale(0.015625)"/>
       <path id="ArialMT-28" d="M 1497 -1347 
Q 1031 -759 709 28 
Q 388 816 388 1659 
Q 388 2403 628 3084 
Q 909 3875 1497 4659 
L 1900 4659 
Q 1522 4009 1400 3731 
Q 1209 3300 1100 2831 
Q 966 2247 966 1656 
Q 966 153 1900 -1347 
L 1497 -1347 
z
" transform="scale(0.015625)"/>
       <path id="ArialMT-63" d="M 2588 1216 
L 3141 1144 
Q 3050 572 2676 248 
Q 2303 -75 1759 -75 
Q 1078 -75 664 370 
Q 250 816 250 1647 
Q 250 2184 428 2587 
Q 606 2991 970 3192 
Q 1334 3394 1763 3394 
Q 2303 3394 2647 3120 
Q 2991 2847 3088 2344 
L 2541 2259 
Q 2463 2594 2264 2762 
Q 2066 2931 1784 2931 
Q 1359 2931 1093 2626 
Q 828 2322 828 1663 
Q 828 994 1084 691 
Q 1341 388 1753 388 
Q 2084 388 2306 591 
Q 2528 794 2588 1216 
z
" transform="scale(0.015625)"/>
       <path id="ArialMT-2212" d="M 3381 1997 
L 356 1997 
L 356 2522 
L 3381 2522 
L 3381 1997 
z
" transform="scale(0.015625)"/>
       <path id="ArialMT-29" d="M 791 -1347 
L 388 -1347 
Q 1322 153 1322 1656 
Q 1322 2244 1188 2822 
Q 1081 3291 891 3722 
Q 769 4003 388 4659 
L 791 4659 
Q 1378 3875 1659 3084 
Q 1900 2403 1900 1659 
Q 1900 816 1576 28 
Q 1253 -759 791 -1347 
z
" transform="scale(0.015625)"/>
      </defs>
      <use xlink:href="#ArialMT-57" transform="translate(0 0.99375)"/>
      <use xlink:href="#ArialMT-61" transform="translate(94.384766 0.99375)"/>
      <use xlink:href="#ArialMT-76" transform="translate(150 0.99375)"/>
      <use xlink:href="#ArialMT-65" transform="translate(200 0.99375)"/>
      <use xlink:href="#ArialMT-6e" transform="translate(255.615234 0.99375)"/>
      <use xlink:href="#ArialMT-75" transform="translate(311.230469 0.99375)"/>
      <use xlink:href="#ArialMT-6d" transform="translate(366.845703 0.99375)"/>
      <use xlink:href="#ArialMT-62" transform="translate(450.146484 0.99375)"/>
      <use xlink:href="#ArialMT-65" transform="translate(505.761719 0.99375)"/>
      <use xlink:href="#ArialMT-72" transform="translate(561.376953 0.99375)"/>
      <use xlink:href="#ArialMT-20" transform="translate(594.677734 0.99375)"/>
      <use xlink:href="#ArialMT-28" transform="translate(622.460938 0.99375)"/>
      <use xlink:href="#ArialMT-63" transform="translate(655.761719 0.99375)"/>
      <use xlink:href="#ArialMT-6d" transform="translate(705.761719 0.99375)"/>
      <use xlink:href="#ArialMT-2212" transform="translate(790.804844 70.6875) scale(0.7)"/>
      <use xlink:href="#ArialMT-31" transform="translate(831.68375 70.6875) scale(0.7)"/>
      <use xlink:href="#ArialMT-29" transform="translate(875.592539 0.99375)"/>
     </g>
    </g>
   </g>
   <g id="matplotlib.axis_2">
    <g id="ytick_1">
     <g id="line2d_16">
      <defs>
       <path id="mb22c2873d5" d="M 0 0 
L 6 0 
" style="stroke: #262626; stroke-width: 1.25"/>
      </defs>
      <g>
       <use xlink:href="#mb22c2873d5" x="44.312344" y="273.312" style="fill: #262626; stroke: #262626; stroke-width: 1.25"/>
      </g>
     </g>
     <g id="text_10">
      <!-- 88 -->
      <g style="fill: #262626" transform="translate(28.578281 277.248797) scale(0.11 -0.11)">
       <defs>
        <path id="ArialMT-38" d="M 1131 2484 
Q 781 2613 612 2850 
Q 444 3088 444 3419 
Q 444 3919 803 4259 
Q 1163 4600 1759 4600 
Q 2359 4600 2725 4251 
Q 3091 3903 3091 3403 
Q 3091 3084 2923 2848 
Q 2756 2613 2416 2484 
Q 2838 2347 3058 2040 
Q 3278 1734 3278 1309 
Q 3278 722 2862 322 
Q 2447 -78 1769 -78 
Q 1091 -78 675 323 
Q 259 725 259 1325 
Q 259 1772 486 2073 
Q 713 2375 1131 2484 
z
M 1019 3438 
Q 1019 3113 1228 2906 
Q 1438 2700 1772 2700 
Q 2097 2700 2305 2904 
Q 2513 3109 2513 3406 
Q 2513 3716 2298 3927 
Q 2084 4138 1766 4138 
Q 1444 4138 1231 3931 
Q 1019 3725 1019 3438 
z
M 838 1322 
Q 838 1081 952 856 
Q 1066 631 1291 507 
Q 1516 384 1775 384 
Q 2178 384 2440 643 
Q 2703 903 2703 1303 
Q 2703 1709 2433 1975 
Q 2163 2241 1756 2241 
Q 1359 2241 1098 1978 
Q 838 1716 838 1322 
z
" transform="scale(0.015625)"/>
       </defs>
       <use xlink:href="#ArialMT-38"/>
       <use xlink:href="#ArialMT-38" x="55.615234"/>
      </g>
     </g>
    </g>
    <g id="ytick_2">
     <g id="line2d_17">
      <g>
       <use xlink:href="#mb22c2873d5" x="44.312344" y="230.73408" style="fill: #262626; stroke: #262626; stroke-width: 1.25"/>
      </g>
     </g>
     <g id="text_11">
      <!-- 90 -->
      <g style="fill: #262626" transform="translate(28.578281 234.670877) scale(0.11 -0.11)">
       <defs>
        <path id="ArialMT-39" d="M 350 1059 
L 891 1109 
Q 959 728 1153 556 
Q 1347 384 1650 384 
Q 1909 384 2104 503 
Q 2300 622 2425 820 
Q 2550 1019 2634 1356 
Q 2719 1694 2719 2044 
Q 2719 2081 2716 2156 
Q 2547 1888 2255 1720 
Q 1963 1553 1622 1553 
Q 1053 1553 659 1965 
Q 266 2378 266 3053 
Q 266 3750 677 4175 
Q 1088 4600 1706 4600 
Q 2153 4600 2523 4359 
Q 2894 4119 3086 3673 
Q 3278 3228 3278 2384 
Q 3278 1506 3087 986 
Q 2897 466 2520 194 
Q 2144 -78 1638 -78 
Q 1100 -78 759 220 
Q 419 519 350 1059 
z
M 2653 3081 
Q 2653 3566 2395 3850 
Q 2138 4134 1775 4134 
Q 1400 4134 1122 3828 
Q 844 3522 844 3034 
Q 844 2597 1108 2323 
Q 1372 2050 1759 2050 
Q 2150 2050 2401 2323 
Q 2653 2597 2653 3081 
z
" transform="scale(0.015625)"/>
       </defs>
       <use xlink:href="#ArialMT-39"/>
       <use xlink:href="#ArialMT-30" x="55.615234"/>
      </g>
     </g>
    </g>
    <g id="ytick_3">
     <g id="line2d_18">
      <g>
       <use xlink:href="#mb22c2873d5" x="44.312344" y="188.15616" style="fill: #262626; stroke: #262626; stroke-width: 1.25"/>
      </g>
     </g>
     <g id="text_12">
      <!-- 92 -->
      <g style="fill: #262626" transform="translate(28.578281 192.092957) scale(0.11 -0.11)">
       <use xlink:href="#ArialMT-39"/>
       <use xlink:href="#ArialMT-32" x="55.615234"/>
      </g>
     </g>
    </g>
    <g id="ytick_4">
     <g id="line2d_19">
      <g>
       <use xlink:href="#mb22c2873d5" x="44.312344" y="145.57824" style="fill: #262626; stroke: #262626; stroke-width: 1.25"/>
      </g>
     </g>
     <g id="text_13">
      <!-- 94 -->
      <g style="fill: #262626" transform="translate(28.578281 149.515037) scale(0.11 -0.11)">
       <use xlink:href="#ArialMT-39"/>
       <use xlink:href="#ArialMT-34" x="55.615234"/>
      </g>
     </g>
    </g>
    <g id="ytick_5">
     <g id="line2d_20">
      <g>
       <use xlink:href="#mb22c2873d5" x="44.312344" y="103.00032" style="fill: #262626; stroke: #262626; stroke-width: 1.25"/>
      </g>
     </g>
     <g id="text_14">
      <!-- 96 -->
      <g style="fill: #262626" transform="translate(28.578281 106.937117) scale(0.11 -0.11)">
       <defs>
        <path id="ArialMT-36" d="M 3184 3459 
L 2625 3416 
Q 2550 3747 2413 3897 
Q 2184 4138 1850 4138 
Q 1581 4138 1378 3988 
Q 1113 3794 959 3422 
Q 806 3050 800 2363 
Q 1003 2672 1297 2822 
Q 1591 2972 1913 2972 
Q 2475 2972 2870 2558 
Q 3266 2144 3266 1488 
Q 3266 1056 3080 686 
Q 2894 316 2569 119 
Q 2244 -78 1831 -78 
Q 1128 -78 684 439 
Q 241 956 241 2144 
Q 241 3472 731 4075 
Q 1159 4600 1884 4600 
Q 2425 4600 2770 4297 
Q 3116 3994 3184 3459 
z
M 888 1484 
Q 888 1194 1011 928 
Q 1134 663 1356 523 
Q 1578 384 1822 384 
Q 2178 384 2434 671 
Q 2691 959 2691 1453 
Q 2691 1928 2437 2201 
Q 2184 2475 1800 2475 
Q 1419 2475 1153 2201 
Q 888 1928 888 1484 
z
" transform="scale(0.015625)"/>
       </defs>
       <use xlink:href="#ArialMT-39"/>
       <use xlink:href="#ArialMT-36" x="55.615234"/>
      </g>
     </g>
    </g>
    <g id="ytick_6">
     <g id="line2d_21">
      <g>
       <use xlink:href="#mb22c2873d5" x="44.312344" y="60.4224" style="fill: #262626; stroke: #262626; stroke-width: 1.25"/>
      </g>
     </g>
     <g id="text_15">
      <!-- 98 -->
      <g style="fill: #262626" transform="translate(28.578281 64.359197) scale(0.11 -0.11)">
       <use xlink:href="#ArialMT-39"/>
       <use xlink:href="#ArialMT-38" x="55.615234"/>
      </g>
     </g>
    </g>
    <g id="ytick_7">
     <g id="line2d_22">
      <g>
       <use xlink:href="#mb22c2873d5" x="44.312344" y="17.84448" style="fill: #262626; stroke: #262626; stroke-width: 1.25"/>
      </g>
     </g>
     <g id="text_16">
      <!-- 100 -->
      <g style="fill: #262626" transform="translate(22.46125 21.781277) scale(0.11 -0.11)">
       <use xlink:href="#ArialMT-31"/>
       <use xlink:href="#ArialMT-30" x="55.615234"/>
       <use xlink:href="#ArialMT-30" x="111.230469"/>
      </g>
     </g>
    </g>
    <g id="ytick_8">
     <g id="line2d_23">
      <defs>
       <path id="m861b58b025" d="M 0 0 
L 4 0 
" style="stroke: #262626"/>
      </defs>
      <g>
       <use xlink:href="#m861b58b025" x="44.312344" y="252.02304" style="fill: #262626; stroke: #262626"/>
      </g>
     </g>
    </g>
    <g id="ytick_9">
     <g id="line2d_24">
      <g>
       <use xlink:href="#m861b58b025" x="44.312344" y="209.44512" style="fill: #262626; stroke: #262626"/>
      </g>
     </g>
    </g>
    <g id="ytick_10">
     <g id="line2d_25">
      <g>
       <use xlink:href="#m861b58b025" x="44.312344" y="166.8672" style="fill: #262626; stroke: #262626"/>
      </g>
     </g>
    </g>
    <g id="ytick_11">
     <g id="line2d_26">
      <g>
       <use xlink:href="#m861b58b025" x="44.312344" y="124.28928" style="fill: #262626; stroke: #262626"/>
      </g>
     </g>
    </g>
    <g id="ytick_12">
     <g id="line2d_27">
      <g>
       <use xlink:href="#m861b58b025" x="44.312344" y="81.71136" style="fill: #262626; stroke: #262626"/>
      </g>
     </g>
    </g>
    <g id="ytick_13">
     <g id="line2d_28">
      <g>
       <use xlink:href="#m861b58b025" x="44.312344" y="39.13344" style="fill: #262626; stroke: #262626"/>
      </g>
     </g>
    </g>
    <g id="text_17">
     <!-- Transmittance (%T) -->
     <g style="fill: #262626" transform="translate(15.935625 192.7035) rotate(-90) scale(0.12 -0.12)">
      <defs>
       <path id="ArialMT-54" d="M 1659 0 
L 1659 4041 
L 150 4041 
L 150 4581 
L 3781 4581 
L 3781 4041 
L 2266 4041 
L 2266 0 
L 1659 0 
z
" transform="scale(0.015625)"/>
       <path id="ArialMT-73" d="M 197 991 
L 753 1078 
Q 800 744 1014 566 
Q 1228 388 1613 388 
Q 2000 388 2187 545 
Q 2375 703 2375 916 
Q 2375 1106 2209 1216 
Q 2094 1291 1634 1406 
Q 1016 1563 777 1677 
Q 538 1791 414 1992 
Q 291 2194 291 2438 
Q 291 2659 392 2848 
Q 494 3038 669 3163 
Q 800 3259 1026 3326 
Q 1253 3394 1513 3394 
Q 1903 3394 2198 3281 
Q 2494 3169 2634 2976 
Q 2775 2784 2828 2463 
L 2278 2388 
Q 2241 2644 2061 2787 
Q 1881 2931 1553 2931 
Q 1166 2931 1000 2803 
Q 834 2675 834 2503 
Q 834 2394 903 2306 
Q 972 2216 1119 2156 
Q 1203 2125 1616 2013 
Q 2213 1853 2448 1751 
Q 2684 1650 2818 1456 
Q 2953 1263 2953 975 
Q 2953 694 2789 445 
Q 2625 197 2315 61 
Q 2006 -75 1616 -75 
Q 969 -75 630 194 
Q 291 463 197 991 
z
" transform="scale(0.015625)"/>
       <path id="ArialMT-69" d="M 425 3934 
L 425 4581 
L 988 4581 
L 988 3934 
L 425 3934 
z
M 425 0 
L 425 3319 
L 988 3319 
L 988 0 
L 425 0 
z
" transform="scale(0.015625)"/>
       <path id="ArialMT-74" d="M 1650 503 
L 1731 6 
Q 1494 -44 1306 -44 
Q 1000 -44 831 53 
Q 663 150 594 308 
Q 525 466 525 972 
L 525 2881 
L 113 2881 
L 113 3319 
L 525 3319 
L 525 4141 
L 1084 4478 
L 1084 3319 
L 1650 3319 
L 1650 2881 
L 1084 2881 
L 1084 941 
Q 1084 700 1114 631 
Q 1144 563 1211 522 
Q 1278 481 1403 481 
Q 1497 481 1650 503 
z
" transform="scale(0.015625)"/>
       <path id="ArialMT-25" d="M 372 3481 
Q 372 3972 619 4315 
Q 866 4659 1334 4659 
Q 1766 4659 2048 4351 
Q 2331 4044 2331 3447 
Q 2331 2866 2045 2552 
Q 1759 2238 1341 2238 
Q 925 2238 648 2547 
Q 372 2856 372 3481 
z
M 1350 4272 
Q 1141 4272 1002 4090 
Q 863 3909 863 3425 
Q 863 2984 1003 2804 
Q 1144 2625 1350 2625 
Q 1563 2625 1702 2806 
Q 1841 2988 1841 3469 
Q 1841 3913 1700 4092 
Q 1559 4272 1350 4272 
z
M 1353 -169 
L 3859 4659 
L 4316 4659 
L 1819 -169 
L 1353 -169 
z
M 3334 1075 
Q 3334 1569 3581 1911 
Q 3828 2253 4300 2253 
Q 4731 2253 5014 1945 
Q 5297 1638 5297 1041 
Q 5297 459 5011 145 
Q 4725 -169 4303 -169 
Q 3888 -169 3611 142 
Q 3334 453 3334 1075 
z
M 4316 1866 
Q 4103 1866 3964 1684 
Q 3825 1503 3825 1019 
Q 3825 581 3965 400 
Q 4106 219 4313 219 
Q 4528 219 4667 400 
Q 4806 581 4806 1063 
Q 4806 1506 4665 1686 
Q 4525 1866 4316 1866 
z
" transform="scale(0.015625)"/>
      </defs>
      <use xlink:href="#ArialMT-54"/>
      <use xlink:href="#ArialMT-72" x="57.333984"/>
      <use xlink:href="#ArialMT-61" x="90.634766"/>
      <use xlink:href="#ArialMT-6e" x="146.25"/>
      <use xlink:href="#ArialMT-73" x="201.865234"/>
      <use xlink:href="#ArialMT-6d" x="251.865234"/>
      <use xlink:href="#ArialMT-69" x="335.166016"/>
      <use xlink:href="#ArialMT-74" x="357.382812"/>
      <use xlink:href="#ArialMT-74" x="385.166016"/>
      <use xlink:href="#ArialMT-61" x="412.949219"/>
      <use xlink:href="#ArialMT-6e" x="468.564453"/>
      <use xlink:href="#ArialMT-63" x="524.179688"/>
      <use xlink:href="#ArialMT-65" x="574.179688"/>
      <use xlink:href="#ArialMT-20" x="629.794922"/>
      <use xlink:href="#ArialMT-28" x="657.578125"/>
      <use xlink:href="#ArialMT-25" x="690.878906"/>
      <use xlink:href="#ArialMT-54" x="779.794922"/>
      <use xlink:href="#ArialMT-29" x="840.878906"/>
     </g>
    </g>
   </g>
   <g id="PolyCollection_1"/>
   <g id="line2d_29">
    <path d="M 401.534378 34.220603 
L 401.126241 35.496665 
L 400.922172 35.496665 
L 400.309967 34.007926 
L 400.105898 33.369895 
L 399.901829 33.369895 
L 399.697761 33.582572 
L 399.595727 33.582572 
L 399.391658 32.944542 
L 399.085555 30.392418 
L 398.575384 25.075495 
L 398.269281 23.161403 
L 397.657075 21.034634 
L 397.146904 20.183926 
L 396.942835 20.183926 
L 396.738767 19.971249 
L 396.534698 19.971249 
L 396.330629 20.183926 
L 396.024527 20.183926 
L 395.922492 20.396603 
L 394.698081 18.057157 
L 394.085875 19.120542 
L 393.779772 19.120542 
L 393.065532 17.84448 
L 392.657395 17.84448 
L 392.453327 18.057157 
L 392.351292 18.057157 
L 392.147224 18.269834 
L 391.841121 18.269834 
L 391.535018 18.695188 
L 391.228915 18.695188 
L 391.024847 18.907865 
L 390.922812 18.907865 
L 390.412641 19.758572 
L 390.310607 19.758572 
L 390.004504 20.183926 
L 389.800435 20.183926 
L 389.596367 20.396603 
L 389.392298 20.396603 
L 389.188229 20.60928 
L 388.678058 20.60928 
L 388.371955 20.183926 
L 387.657715 20.183926 
L 387.453647 20.396603 
L 387.147544 20.396603 
L 386.841441 19.971249 
L 386.637372 19.971249 
L 386.433304 19.758572 
L 386.229235 19.758572 
L 385.004824 22.098018 
L 384.902789 22.098018 
L 384.392618 23.161403 
L 384.086515 22.310695 
L 383.984481 22.310695 
L 383.474309 23.161403 
L 383.270241 23.161403 
L 383.066172 22.948726 
L 382.964138 22.948726 
L 380.719384 27.840295 
L 379.903109 31.66848 
L 379.392938 35.283988 
L 379.086835 39.324849 
L 378.372595 50.809403 
L 378.168527 48.895311 
L 377.250218 31.455803 
L 376.842081 28.478326 
L 376.127841 27.202265 
L 376.025807 27.202265 
L 375.515635 28.052972 
L 375.413601 28.052972 
L 375.209532 27.840295 
L 375.107498 27.840295 
L 374.495292 29.329034 
L 373.372915 34.43328 
L 372.862744 37.19808 
L 372.046469 39.112172 
L 371.740367 39.96288 
L 371.332229 40.600911 
L 371.230195 40.600911 
L 371.026127 40.388234 
L 370.822058 40.600911 
L 370.617989 40.600911 
L 370.107818 39.324849 
L 369.189509 35.071311 
L 368.781372 33.157218 
L 368.067132 31.66848 
L 367.658995 32.306511 
L 367.556961 32.306511 
L 367.352892 31.66848 
L 366.842721 29.967065 
L 366.434584 31.030449 
L 366.026447 32.944542 
L 365.822378 33.157218 
L 365.720344 33.157218 
L 365.414241 32.519188 
L 365.108138 33.157218 
L 364.700001 36.134695 
L 364.087795 43.365711 
L 363.577624 52.298142 
L 363.271521 57.189711 
L 363.169487 57.402388 
L 362.965418 55.700972 
L 362.761349 53.78688 
L 362.557281 53.574203 
L 362.251178 55.275618 
L 361.638972 58.465772 
L 361.128801 60.167188 
L 360.822698 60.592542 
L 360.618629 60.592542 
L 360.414561 59.529157 
L 359.496252 52.510818 
L 359.190149 53.361526 
L 358.782012 56.55168 
L 358.169807 63.995372 
L 357.353532 77.394018 
L 356.741327 90.792665 
L 356.333189 108.019495 
L 355.516915 152.256295 
L 355.210812 154.595742 
L 355.006744 161.401403 
L 354.598607 181.605711 
L 354.496572 180.755003 
L 354.292504 164.166203 
L 353.578264 73.353157 
L 353.272161 57.827742 
L 352.966058 52.936172 
L 352.761989 52.510818 
L 352.659955 52.723495 
L 352.251818 55.913649 
L 351.843681 58.465772 
L 351.639612 59.741834 
L 351.129441 64.84608 
L 350.415201 75.054572 
L 349.802995 86.96448 
L 348.782652 110.571618 
L 348.578584 111.422326 
L 348.272481 111.422326 
L 348.068412 112.060357 
L 347.762309 112.911065 
L 347.660275 112.911065 
L 347.456207 112.485711 
L 346.435864 106.530757 
L 346.333829 106.530757 
L 346.027727 108.232172 
L 345.415521 111.422326 
L 345.211452 111.635003 
L 344.905349 110.146265 
L 344.497212 105.892726 
L 343.578904 95.471557 
L 343.068732 92.919434 
L 342.252458 89.941957 
L 341.844321 89.303926 
L 341.538218 89.303926 
L 341.232115 90.154634 
L 341.028047 91.005342 
L 340.823978 91.218018 
L 340.415841 89.091249 
L 340.109738 86.539126 
L 338.783292 71.226388 
L 337.558881 59.529157 
L 336.640572 52.723495 
L 336.232435 50.809403 
L 336.028367 50.596726 
L 335.722264 50.596726 
L 334.701921 52.510818 
L 334.395818 52.085465 
L 334.293784 52.085465 
L 333.783612 51.02208 
L 332.661235 44.641772 
L 332.151064 43.791065 
L 332.049029 43.791065 
L 331.844961 43.578388 
L 331.538858 43.578388 
L 331.130721 44.641772 
L 330.518515 46.768542 
L 330.212412 45.917834 
L 329.294104 41.664295 
L 328.885967 39.750203 
L 328.375795 38.048788 
L 328.171727 38.048788 
L 326.947315 40.813588 
L 326.233075 44.003742 
L 325.314767 51.02208 
L 325.008664 52.085465 
L 324.906629 52.085465 
L 324.702561 52.298142 
L 324.600527 52.298142 
L 324.396458 52.510818 
L 324.294424 52.510818 
L 324.192389 52.723495 
L 323.988321 52.298142 
L 323.682218 49.746018 
L 322.457807 35.496665 
L 321.233395 26.13888 
L 320.519155 22.310695 
L 319.906949 20.183926 
L 319.600847 19.758572 
L 319.396778 19.971249 
L 318.886607 19.971249 
L 318.682538 20.183926 
L 317.662195 18.269834 
L 317.458127 18.269834 
L 317.152024 19.120542 
L 315.621509 25.075495 
L 315.111338 25.075495 
L 314.907269 25.713526 
L 314.397098 27.414942 
L 314.090995 28.265649 
L 313.886927 29.967065 
L 313.580824 35.071311 
L 313.172687 42.940357 
L 313.070652 43.153034 
L 312.968618 42.940357 
L 312.662515 40.600911 
L 312.560481 40.600911 
L 312.458447 41.238942 
L 312.050309 47.406572 
L 311.948275 47.193895 
L 311.744207 44.216418 
L 311.438104 39.112172 
L 311.336069 38.686818 
L 311.234035 38.899495 
L 311.029967 40.813588 
L 310.519795 46.555865 
L 310.315727 47.193895 
L 310.213692 46.981218 
L 309.907589 44.429095 
L 309.499452 41.026265 
L 309.295384 40.600911 
L 309.091315 41.238942 
L 308.581144 43.153034 
L 308.479109 42.940357 
L 307.866904 39.537526 
L 307.662835 39.112172 
L 307.458767 39.750203 
L 307.254698 41.451618 
L 307.050629 44.216418 
L 306.540458 54.424911 
L 306.132321 62.506634 
L 305.622149 68.461588 
L 305.111978 71.013711 
L 304.907909 72.077095 
L 304.601807 75.267249 
L 303.887567 84.19968 
L 303.377395 80.158818 
L 303.173327 80.371495 
L 303.071292 80.158818 
L 302.867224 75.692603 
L 302.561121 60.379865 
L 302.050949 34.858634 
L 301.846881 33.369895 
L 301.744847 33.582572 
L 301.540778 35.283988 
L 301.234675 40.813588 
L 300.724504 50.171372 
L 300.622469 50.171372 
L 300.418401 46.130511 
L 299.602127 24.862818 
L 299.296024 22.098018 
L 298.887887 20.821957 
L 298.683818 20.821957 
L 298.275681 19.545895 
L 297.969578 19.545895 
L 297.357372 21.034634 
L 295.724824 30.817772 
L 295.418721 31.66848 
L 295.214652 32.519188 
L 295.112618 32.519188 
L 294.908549 32.731865 
L 294.704481 32.731865 
L 294.500412 32.519188 
L 294.194309 32.519188 
L 293.888207 32.093834 
L 293.684138 32.093834 
L 293.480069 31.881157 
L 293.378035 31.881157 
L 293.173967 32.093834 
L 292.255658 30.392418 
L 291.847521 30.392418 
L 291.337349 32.093834 
L 291.235315 32.093834 
L 290.827178 33.157218 
L 290.214972 36.134695 
L 289.500732 39.96288 
L 289.194629 40.813588 
L 289.092595 40.813588 
L 288.786492 39.96288 
L 287.664115 35.496665 
L 287.562081 35.496665 
L 287.255978 35.071311 
L 287.153944 35.071311 
L 286.847841 35.922018 
L 286.439704 38.048788 
L 285.827498 42.515003 
L 285.521395 42.940357 
L 285.317327 42.72768 
L 285.215292 42.72768 
L 284.909189 42.302326 
L 284.807155 42.302326 
L 284.296984 41.451618 
L 283.888847 41.451618 
L 283.684778 41.238942 
L 283.480709 41.238942 
L 282.766469 42.515003 
L 282.664435 42.515003 
L 282.358332 42.940357 
L 281.950195 42.940357 
L 281.133921 41.026265 
L 280.215612 37.623434 
L 280.011544 37.410757 
L 279.705441 37.410757 
L 279.603407 37.623434 
L 279.297304 39.112172 
L 279.093235 38.899495 
L 278.889167 40.175557 
L 278.378995 44.003742 
L 277.970858 49.958695 
L 276.950515 67.61088 
L 276.848481 67.61088 
L 276.644412 66.547495 
L 276.338309 63.144665 
L 275.828138 54.212234 
L 274.399658 26.351557 
L 273.991521 23.586757 
L 273.787452 23.37408 
L 273.583384 23.37408 
L 273.379315 23.161403 
L 273.277281 23.161403 
L 273.073212 23.799434 
L 272.971178 23.799434 
L 271.644732 26.564234 
L 271.440664 27.414942 
L 271.032527 28.478326 
L 270.624389 29.754388 
L 270.420321 29.967065 
L 270.012184 28.90368 
L 269.604047 27.627618 
L 269.093875 26.351557 
L 268.277601 23.37408 
L 267.053189 21.034634 
L 266.543018 21.885342 
L 266.338949 21.885342 
L 266.032847 22.310695 
L 265.930812 22.310695 
L 265.522675 22.948726 
L 265.420641 22.948726 
L 265.114538 22.523372 
L 264.910469 22.523372 
L 264.706401 22.736049 
L 264.502332 22.310695 
L 263.890127 23.37408 
L 263.788092 23.37408 
L 263.584024 23.586757 
L 263.277921 23.586757 
L 262.563681 22.310695 
L 262.461647 22.310695 
L 261.849441 21.247311 
L 261.747407 21.247311 
L 261.543338 21.459988 
L 261.339269 21.459988 
L 261.135201 21.247311 
L 260.727064 21.247311 
L 260.522995 21.034634 
L 259.706721 21.034634 
L 259.502652 20.821957 
L 259.196549 20.821957 
L 258.992481 21.034634 
L 258.278241 21.034634 
L 258.074172 21.247311 
L 257.257898 21.247311 
L 256.747727 19.971249 
L 256.645692 20.183926 
L 256.237555 20.183926 
L 255.931452 19.758572 
L 255.829418 19.758572 
L 255.625349 19.971249 
L 255.523315 19.971249 
L 255.013144 20.821957 
L 254.911109 20.821957 
L 254.707041 21.034634 
L 254.400938 21.034634 
L 253.992801 21.672665 
L 253.890767 21.672665 
L 253.686698 21.459988 
L 253.278561 21.459988 
L 252.768389 20.183926 
L 252.564321 19.333218 
L 252.462287 19.120542 
L 251.850081 20.183926 
L 251.543978 20.183926 
L 251.135841 19.545895 
L 251.033807 19.545895 
L 250.829738 19.971249 
L 250.625669 21.885342 
L 250.421601 24.224788 
L 250.319567 24.224788 
L 250.013464 23.37408 
L 249.707361 22.523372 
L 249.503292 22.310695 
L 249.095155 22.948726 
L 248.176847 20.821957 
L 247.870744 19.333218 
L 247.666675 20.60928 
L 247.462607 21.672665 
L 247.360572 21.672665 
L 246.850401 19.971249 
L 246.646332 19.758572 
L 246.136161 20.60928 
L 245.830058 20.183926 
L 245.115818 21.459988 
L 245.013784 21.459988 
L 244.401578 24.650142 
L 244.197509 24.437465 
L 243.789372 25.500849 
L 243.585304 26.564234 
L 243.177167 29.967065 
L 242.769029 27.840295 
L 242.462927 28.265649 
L 242.258858 28.265649 
L 242.054789 28.478326 
L 241.748687 28.478326 
L 241.544618 29.116357 
L 241.340549 29.754388 
L 241.238515 29.754388 
L 240.932412 29.329034 
L 240.116138 30.817772 
L 239.810035 30.817772 
L 239.503932 30.392418 
L 239.095795 30.392418 
L 238.687658 29.541711 
L 238.279521 30.817772 
L 237.871384 31.455803 
L 237.361212 31.455803 
L 236.953075 32.093834 
L 236.749007 32.093834 
L 236.544938 31.455803 
L 236.136801 30.179742 
L 235.830698 29.754388 
L 235.728664 29.754388 
L 235.218492 27.202265 
L 234.810355 25.288172 
L 234.708321 25.288172 
L 234.198149 26.351557 
L 233.892047 25.288172 
L 233.585944 25.288172 
L 232.871704 21.885342 
L 232.361532 19.120542 
L 232.157464 22.948726 
L 231.851361 29.967065 
L 231.749327 30.179742 
L 230.933052 28.691003 
L 230.831018 28.691003 
L 230.524915 28.052972 
L 230.320847 28.265649 
L 230.218812 28.265649 
L 229.912709 27.627618 
L 229.708641 28.265649 
L 229.096435 30.605095 
L 228.688298 29.967065 
L 228.586264 29.967065 
L 228.280161 29.541711 
L 228.178127 29.541711 
L 227.974058 29.754388 
L 227.565921 29.754388 
L 227.361852 29.967065 
L 227.259818 29.967065 
L 227.055749 29.754388 
L 226.953715 29.754388 
L 226.545578 30.392418 
L 226.443544 30.392418 
L 226.137441 29.967065 
L 225.831338 30.392418 
L 225.015064 30.392418 
L 224.708961 30.817772 
L 224.300824 30.817772 
L 224.096755 30.605095 
L 223.892687 30.605095 
L 223.586584 31.030449 
L 223.484549 31.030449 
L 223.280481 30.817772 
L 223.178447 30.817772 
L 222.872344 30.392418 
L 222.770309 30.392418 
L 222.566241 30.179742 
L 221.852001 31.455803 
L 221.545898 31.030449 
L 221.443864 31.030449 
L 221.239795 30.817772 
L 221.137761 30.817772 
L 220.423521 32.093834 
L 220.117418 32.093834 
L 219.913349 31.881157 
L 219.403178 32.731865 
L 219.199109 32.731865 
L 217.668595 29.754388 
L 217.362492 29.754388 
L 216.954355 29.116357 
L 216.750287 29.116357 
L 216.036047 30.392418 
L 215.934012 30.392418 
L 215.627909 31.030449 
L 215.423841 31.881157 
L 215.321807 32.093834 
L 215.117738 30.817772 
L 214.811635 28.691003 
L 214.403498 28.691003 
L 214.097395 28.265649 
L 213.995361 28.265649 
L 213.383155 27.202265 
L 213.179087 27.414942 
L 213.077052 27.414942 
L 212.872984 26.776911 
L 212.668915 26.13888 
L 212.464847 26.13888 
L 212.362812 26.351557 
L 211.954675 25.713526 
L 211.648572 25.713526 
L 210.934332 24.437465 
L 210.832298 24.437465 
L 210.628229 24.650142 
L 210.220092 24.650142 
L 209.913989 24.224788 
L 209.301784 24.224788 
L 209.097715 24.437465 
L 208.587544 24.437465 
L 208.383475 24.224788 
L 208.077372 24.224788 
L 207.771269 23.799434 
L 207.567201 23.799434 
L 207.363132 23.586757 
L 207.261098 23.586757 
L 207.057029 23.37408 
L 206.852961 23.37408 
L 206.648892 23.586757 
L 206.342789 23.161403 
L 205.832618 23.161403 
L 205.526515 22.736049 
L 204.914309 22.736049 
L 204.710241 22.523372 
L 204.404138 22.523372 
L 204.200069 22.310695 
L 203.996001 22.523372 
L 203.689898 22.098018 
L 203.383795 22.098018 
L 203.077692 22.523372 
L 201.955315 22.523372 
L 201.751247 22.310695 
L 201.547178 22.310695 
L 201.241075 21.885342 
L 200.934972 21.885342 
L 200.526835 21.247311 
L 200.220732 21.247311 
L 199.914629 20.821957 
L 199.812595 20.821957 
L 199.506492 20.396603 
L 198.792252 20.396603 
L 198.588184 20.183926 
L 197.873944 20.183926 
L 197.669875 19.971249 
L 197.567841 19.971249 
L 197.363772 19.758572 
L 197.159704 19.971249 
L 196.853601 19.971249 
L 196.649532 19.758572 
L 196.445464 19.758572 
L 196.241395 19.971249 
L 195.221052 19.971249 
L 195.119018 19.758572 
L 194.914949 19.971249 
L 194.302744 19.971249 
L 194.098675 20.183926 
L 193.894607 19.971249 
L 193.180367 19.971249 
L 192.976298 20.183926 
L 192.670195 20.183926 
L 192.364092 20.60928 
L 191.547818 20.60928 
L 191.241715 21.034634 
L 190.119338 21.034634 
L 189.915269 20.821957 
L 189.711201 21.034634 
L 189.609167 21.034634 
L 189.201029 21.672665 
L 188.894927 21.672665 
L 188.690858 21.459988 
L 188.588824 21.459988 
L 188.180687 22.098018 
L 187.466447 22.098018 
L 186.854241 23.161403 
L 186.242035 23.161403 
L 185.833898 23.799434 
L 185.731864 23.799434 
L 185.425761 24.224788 
L 185.221692 24.224788 
L 185.017624 24.437465 
L 184.813555 24.437465 
L 184.405418 25.075495 
L 184.099315 25.075495 
L 183.895247 25.288172 
L 183.691178 25.288172 
L 183.385075 25.713526 
L 183.283041 25.713526 
L 183.078972 25.926203 
L 182.976938 25.926203 
L 182.772869 26.13888 
L 182.670835 26.13888 
L 182.466767 26.351557 
L 182.364732 26.351557 
L 181.956595 26.989588 
L 181.752527 26.989588 
L 181.344389 27.627618 
L 180.834218 27.627618 
L 180.630149 27.414942 
L 180.528115 27.414942 
L 180.222012 26.989588 
L 179.813875 26.989588 
L 179.507772 27.414942 
L 179.405738 27.414942 
L 179.201669 27.627618 
L 178.895567 27.627618 
L 178.691498 27.840295 
L 177.977258 27.840295 
L 177.671155 28.265649 
L 177.467087 28.265649 
L 176.446744 30.179742 
L 176.344709 30.179742 
L 174.712161 33.369895 
L 174.610127 33.369895 
L 174.201989 34.007926 
L 174.099955 34.007926 
L 173.895887 34.220603 
L 173.793852 34.220603 
L 173.589784 34.43328 
L 173.181647 34.43328 
L 172.977578 34.645957 
L 172.875544 34.645957 
L 172.671475 34.858634 
L 172.263338 34.858634 
L 172.059269 35.071311 
L 171.957235 35.071311 
L 171.753167 35.283988 
L 171.651132 35.283988 
L 169.304344 40.388234 
L 168.590104 42.940357 
L 168.488069 43.153034 
L 168.181967 44.429095 
L 167.059589 49.533342 
L 165.325007 61.017895 
L 164.814835 66.122142 
L 164.304664 72.289772 
L 163.692458 82.285588 
L 163.284321 92.281403 
L 162.876184 108.657526 
L 162.263978 145.875988 
L 161.753807 171.397218 
L 161.447704 177.564849 
L 161.345669 177.990203 
L 161.243635 177.777526 
L 161.039567 174.587372 
L 160.631429 160.763372 
L 160.223292 149.278818 
L 159.611087 139.921034 
L 158.692778 110.571618 
L 158.590744 110.146265 
L 158.488709 110.358942 
L 158.284641 112.485711 
L 157.978538 118.015311 
L 157.264298 136.73088 
L 156.345989 166.292972 
L 155.733784 193.090265 
L 155.019544 223.715742 
L 154.611407 233.286203 
L 154.407338 235.412972 
L 154.305304 235.625649 
L 154.203269 235.200295 
L 153.999201 232.010142 
L 153.795132 225.417157 
L 153.386995 201.810018 
L 152.366652 134.816788 
L 152.162584 130.137895 
L 152.060549 129.499865 
L 151.958515 129.925218 
L 151.754447 133.115372 
L 151.346309 140.771742 
L 151.244275 141.197095 
L 151.142241 140.771742 
L 150.938172 136.73088 
L 150.530035 118.866018 
L 149.305624 54.212234 
L 148.897487 43.153034 
L 148.489349 37.836111 
L 147.775109 32.731865 
L 147.571041 32.731865 
L 147.264938 33.582572 
L 146.244595 37.410757 
L 146.142561 37.410757 
L 145.938492 37.19808 
L 145.836458 37.19808 
L 145.632389 36.985403 
L 145.530355 36.985403 
L 145.224252 36.560049 
L 144.918149 36.560049 
L 144.612047 38.261465 
L 144.407978 40.600911 
L 143.693738 49.533342 
L 143.591704 49.320665 
L 143.387635 47.619249 
L 142.367292 35.496665 
L 141.959155 34.220603 
L 141.653052 33.795249 
L 141.448984 34.007926 
L 141.346949 34.007926 
L 141.142881 34.220603 
L 141.040847 34.220603 
L 140.734744 33.369895 
L 140.122538 28.90368 
L 139.510332 23.37408 
L 139.000161 20.821957 
L 138.489989 19.971249 
L 137.979818 19.971249 
L 137.775749 20.183926 
L 137.469647 20.183926 
L 137.163544 20.60928 
L 137.061509 20.60928 
L 136.347269 21.885342 
L 136.245235 21.885342 
L 135.428961 23.37408 
L 135.326927 23.37408 
L 135.020824 23.799434 
L 134.918789 23.799434 
L 134.612687 24.224788 
L 134.510652 24.224788 
L 134.000481 25.075495 
L 133.898447 25.075495 
L 130.837418 31.66848 
L 130.429281 32.944542 
L 129.613007 34.858634 
L 129.306904 35.709342 
L 128.592664 37.410757 
L 128.286561 38.261465 
L 127.572321 39.96288 
L 127.266218 40.813588 
L 125.939772 43.791065 
L 125.633669 44.641772 
L 124.409258 46.981218 
L 124.307224 46.981218 
L 122.572641 50.384049 
L 122.470607 50.384049 
L 121.654332 51.872788 
L 121.450264 51.872788 
L 120.633989 53.361526 
L 120.531955 53.361526 
L 119.715681 54.850265 
L 119.511612 54.850265 
L 119.103475 55.488295 
L 119.001441 55.488295 
L 118.593304 56.126326 
L 118.491269 56.126326 
L 118.185167 56.55168 
L 118.083132 56.55168 
L 117.062789 58.465772 
L 116.960755 58.465772 
L 116.144481 59.954511 
L 115.124138 59.954511 
L 114.613967 59.103803 
L 114.511932 59.103803 
L 113.899727 58.040418 
L 113.491589 58.040418 
L 113.287521 58.253095 
L 112.981418 58.253095 
L 112.777349 58.040418 
L 112.675315 58.040418 
L 112.471247 57.827742 
L 111.246835 57.827742 
L 110.940732 57.402388 
L 110.838698 57.402388 
L 110.532595 56.977034 
L 110.226492 56.977034 
L 110.022424 56.764357 
L 109.920389 56.764357 
L 109.716321 56.55168 
L 109.206149 56.55168 
L 108.900047 56.126326 
L 108.593944 56.126326 
L 108.389875 55.913649 
L 108.287841 55.913649 
L 108.083772 55.700972 
L 107.981738 55.700972 
L 107.675635 55.275618 
L 107.063429 55.275618 
L 106.859361 55.062942 
L 106.553258 55.062942 
L 106.247155 54.637588 
L 106.145121 54.637588 
L 105.736984 53.999557 
L 105.226812 53.999557 
L 104.716641 53.148849 
L 104.614607 53.148849 
L 104.410538 52.936172 
L 104.104435 52.936172 
L 103.798332 52.510818 
L 103.594264 52.510818 
L 103.186127 51.872788 
L 103.084092 51.872788 
L 102.675955 51.234757 
L 102.573921 51.234757 
L 101.961715 50.171372 
L 101.859681 50.171372 
L 101.553578 49.746018 
L 101.349509 49.746018 
L 100.941372 49.107988 
L 100.839338 49.107988 
L 100.125098 47.831926 
L 100.023064 47.831926 
L 99.614927 47.193895 
L 99.512892 47.193895 
L 98.594584 45.49248 
L 98.390515 45.49248 
L 98.186447 45.279803 
L 98.084412 45.279803 
L 97.778309 44.854449 
L 97.676275 44.854449 
L 97.370172 44.429095 
L 97.268138 44.429095 
L 97.064069 44.216418 
L 96.962035 44.216418 
L 96.349829 43.153034 
L 96.145761 43.153034 
L 95.737624 42.515003 
L 95.227452 42.515003 
L 94.819315 41.876972 
L 94.717281 41.876972 
L 94.207109 41.026265 
L 94.105075 41.026265 
L 93.696938 40.388234 
L 92.778629 40.388234 
L 92.268458 39.537526 
L 92.166424 39.537526 
L 91.554218 38.474142 
L 91.350149 38.474142 
L 91.146081 38.686818 
L 90.942012 38.686818 
L 89.819635 36.560049 
L 89.717601 36.560049 
L 89.513532 36.347372 
L 89.207429 36.347372 
L 88.901327 36.772726 
L 88.799292 36.772726 
L 88.595224 36.134695 
L 88.085052 34.43328 
L 87.778949 33.582572 
L 87.370812 32.306511 
L 87.166744 32.306511 
L 86.860641 33.157218 
L 86.656572 33.157218 
L 86.248435 31.881157 
L 85.228092 29.541711 
L 85.024024 29.116357 
L 84.921989 29.116357 
L 84.513852 29.754388 
L 84.207749 29.754388 
L 82.779269 26.989588 
L 82.575201 26.989588 
L 82.371132 27.202265 
L 82.167064 26.564234 
L 81.452824 24.012111 
L 81.146721 23.586757 
L 81.044687 23.586757 
L 80.840618 24.224788 
L 80.534515 25.926203 
L 80.330447 26.776911 
L 80.126378 26.13888 
L 78.901967 21.459988 
L 78.799932 21.247311 
L 78.493829 22.098018 
L 78.187727 23.799434 
L 77.881624 25.288172 
L 77.677555 25.288172 
L 77.473487 24.224788 
L 77.167384 22.523372 
L 76.861281 21.034634 
L 76.759247 21.034634 
L 76.249075 22.098018 
L 75.840938 20.821957 
L 75.126698 19.333218 
L 74.820595 19.758572 
L 74.718561 19.758572 
L 73.902287 21.672665 
L 73.800252 21.459988 
L 73.086012 20.183926 
L 72.983978 20.183926 
L 72.677875 20.60928 
L 72.575841 20.60928 
L 71.861601 22.310695 
L 71.657532 22.948726 
L 71.555498 22.948726 
L 71.249395 23.37408 
L 70.943292 23.37408 
L 70.739224 23.799434 
L 70.331087 25.713526 
L 70.229052 25.713526 
L 70.127018 25.926203 
L 69.922949 25.288172 
L 69.616847 23.799434 
L 69.412778 23.161403 
L 69.106675 22.310695 
L 68.800572 21.885342 
L 68.698538 21.885342 
L 68.494469 21.672665 
L 68.290401 21.885342 
L 67.882264 21.885342 
L 67.474127 21.247311 
L 67.372092 21.247311 
L 67.168024 21.034634 
L 67.065989 21.034634 
L 66.861921 21.247311 
L 66.453784 21.247311 
L 66.147681 20.821957 
L 65.943612 20.821957 
L 65.229372 22.523372 
L 64.719201 24.224788 
L 64.617167 24.224788 
L 64.311064 23.37408 
L 64.209029 23.37408 
L 63.902927 22.523372 
L 63.800892 22.523372 
L 63.290721 23.799434 
L 63.086652 24.437465 
L 62.882584 24.437465 
L 62.780549 24.650142 
L 61.862241 22.948726 
L 61.454104 24.012111 
L 61.045967 25.288172 
L 60.943932 25.288172 
L 60.637829 24.437465 
L 60.229692 23.161403 
L 59.923589 24.012111 
L 59.413418 26.564234 
L 58.699178 24.012111 
L 58.495109 23.799434 
L 57.882904 24.862818 
L 57.678835 24.862818 
L 57.474767 24.224788 
L 57.168664 24.224788 
L 56.862561 23.586757 
L 56.454424 24.224788 
L 56.352389 24.224788 
L 56.148321 24.437465 
L 55.332047 22.948726 
L 54.413738 24.650142 
L 54.311704 24.650142 
L 54.107635 24.012111 
L 53.495429 21.672665 
L 53.393395 21.672665 
L 53.087292 22.098018 
L 52.985258 22.098018 
L 52.781189 22.310695 
L 52.679155 22.310695 
L 52.475087 22.523372 
L 52.373052 22.523372 
L 52.168984 22.310695 
L 51.658812 22.310695 
L 51.352709 21.885342 
L 51.250675 21.885342 
L 51.046607 21.672665 
L 50.944572 21.885342 
L 50.740504 21.672665 
L 50.638469 21.672665 
L 50.536435 21.459988 
L 50.128298 22.098018 
L 50.026264 22.098018 
L 49.516092 21.247311 
L 49.107955 21.247311 
L 48.903887 21.034634 
L 48.597784 21.034634 
L 48.393715 21.247311 
L 48.189647 21.247311 
L 47.781509 20.60928 
L 47.271338 20.60928 
L 47.067269 20.396603 
L 46.557098 20.396603 
L 46.250995 19.971249 
L 45.128618 19.971249 
L 44.822515 19.545895 
L 44.312344 19.545895 
L 44.312344 19.545895 
" clip-path="url(#p805d114338)" style="fill: none; stroke: #800080; stroke-linecap: round"/>
   </g>
   <g id="patch_3">
    <path d="M 44.312344 273.312 
L 44.312344 7.2 
" style="fill: none; stroke: #262626; stroke-width: 1.25; stroke-linejoin: miter; stroke-linecap: square"/>
   </g>
   <g id="patch_4">
    <path d="M 401.432344 273.312 
L 401.432344 7.2 
" style="fill: none; stroke: #262626; stroke-width: 1.25; stroke-linejoin: miter; stroke-linecap: square"/>
   </g>
   <g id="patch_5">
    <path d="M 44.312344 273.312 
L 401.432344 273.312 
" style="fill: none; stroke: #262626; stroke-width: 1.25; stroke-linejoin: miter; stroke-linecap: square"/>
   </g>
   <g id="patch_6">
    <path d="M 44.312344 7.2 
L 401.432344 7.2 
" style="fill: none; stroke: #262626; stroke-width: 1.25; stroke-linejoin: miter; stroke-linecap: square"/>
   </g>
  </g>
 </g>
 <defs>
  <clipPath id="p805d114338">
   <rect x="44.312344" y="7.2" width="357.12" height="266.112"/>
  </clipPath>
 </defs>
</svg>
