<?xml version="1.0" encoding="utf-8" standalone="no"?>
<!DOCTYPE svg PUBLIC "-//W3C//DTD SVG 1.1//EN"
  "http://www.w3.org/Graphics/SVG/1.1/DTD/svg11.dtd">
<svg xmlns:xlink="http://www.w3.org/1999/xlink" width="411.690859pt" height="319.168641pt" viewBox="0 0 411.690859 319.168641" xmlns="http://www.w3.org/2000/svg" version="1.1">
 <metadata>
  <rdf:RDF xmlns:dc="http://purl.org/dc/elements/1.1/" xmlns:cc="http://creativecommons.org/ns#" xmlns:rdf="http://www.w3.org/1999/02/22-rdf-syntax-ns#">
   <cc:Work>
    <dc:type rdf:resource="http://purl.org/dc/dcmitype/StillImage"/>
    <dc:date>2024-10-24T15:37:34.428526</dc:date>
    <dc:format>image/svg+xml</dc:format>
    <dc:creator>
     <cc:Agent>
      <dc:title>Matplotlib v3.7.1, https://matplotlib.org/</dc:title>
     </cc:Agent>
    </dc:creator>
   </cc:Work>
  </rdf:RDF>
 </metadata>
 <defs>
  <style type="text/css">*{stroke-linejoin: round; stroke-linecap: butt}</style>
 </defs>
 <g id="figure_1">
  <g id="patch_1">
   <path d="M 0 319.168641 
L 411.690859 319.168641 
L 411.690859 0 
L 0 0 
z
" style="fill: #ffffff"/>
  </g>
  <g id="axes_1">
   <g id="patch_2">
    <path d="M 44.312344 277.248797 
L 401.432344 277.248797 
L 401.432344 11.136797 
L 44.312344 11.136797 
z
" style="fill: #ffffff"/>
   </g>
   <g id="matplotlib.axis_1">
    <g id="xtick_1">
     <g id="line2d_1">
      <defs>
       <path id="m65a4caf27c" d="M 0 0 
L 0 -6 
" style="stroke: #262626; stroke-width: 1.25"/>
      </defs>
      <g>
       <use xlink:href="#m65a4caf27c" x="401.432344" y="277.248797" style="fill: #262626; stroke: #262626; stroke-width: 1.25"/>
      </g>
     </g>
     <g id="text_1">
      <!-- 0 -->
      <g style="fill: #262626" transform="translate(398.373828 288.622391) scale(0.11 -0.11)">
       <defs>
        <path id="ArialMT-30" d="M 266 2259 
Q 266 3072 433 3567 
Q 600 4063 929 4331 
Q 1259 4600 1759 4600 
Q 2128 4600 2406 4451 
Q 2684 4303 2865 4023 
Q 3047 3744 3150 3342 
Q 3253 2941 3253 2259 
Q 3253 1453 3087 958 
Q 2922 463 2592 192 
Q 2263 -78 1759 -78 
Q 1097 -78 719 397 
Q 266 969 266 2259 
z
M 844 2259 
Q 844 1131 1108 757 
Q 1372 384 1759 384 
Q 2147 384 2411 759 
Q 2675 1134 2675 2259 
Q 2675 3391 2411 3762 
Q 2147 4134 1753 4134 
Q 1366 4134 1134 3806 
Q 844 3388 844 2259 
z
" transform="scale(0.015625)"/>
       </defs>
       <use xlink:href="#ArialMT-30"/>
      </g>
     </g>
    </g>
    <g id="xtick_2">
     <g id="line2d_2">
      <g>
       <use xlink:href="#m65a4caf27c" x="356.792344" y="277.248797" style="fill: #262626; stroke: #262626; stroke-width: 1.25"/>
      </g>
     </g>
     <g id="text_2">
      <!-- 500 -->
      <g style="fill: #262626" transform="translate(347.616797 288.622391) scale(0.11 -0.11)">
       <defs>
        <path id="ArialMT-35" d="M 266 1200 
L 856 1250 
Q 922 819 1161 601 
Q 1400 384 1738 384 
Q 2144 384 2425 690 
Q 2706 997 2706 1503 
Q 2706 1984 2436 2262 
Q 2166 2541 1728 2541 
Q 1456 2541 1237 2417 
Q 1019 2294 894 2097 
L 366 2166 
L 809 4519 
L 3088 4519 
L 3088 3981 
L 1259 3981 
L 1013 2750 
Q 1425 3038 1878 3038 
Q 2478 3038 2890 2622 
Q 3303 2206 3303 1553 
Q 3303 931 2941 478 
Q 2500 -78 1738 -78 
Q 1113 -78 717 272 
Q 322 622 266 1200 
z
" transform="scale(0.015625)"/>
       </defs>
       <use xlink:href="#ArialMT-35"/>
       <use xlink:href="#ArialMT-30" x="55.615234"/>
       <use xlink:href="#ArialMT-30" x="111.230469"/>
      </g>
     </g>
    </g>
    <g id="xtick_3">
     <g id="line2d_3">
      <g>
       <use xlink:href="#m65a4caf27c" x="312.152344" y="277.248797" style="fill: #262626; stroke: #262626; stroke-width: 1.25"/>
      </g>
     </g>
     <g id="text_3">
      <!-- 1000 -->
      <g style="fill: #262626" transform="translate(299.918281 288.622391) scale(0.11 -0.11)">
       <defs>
        <path id="ArialMT-31" d="M 2384 0 
L 1822 0 
L 1822 3584 
Q 1619 3391 1289 3197 
Q 959 3003 697 2906 
L 697 3450 
Q 1169 3672 1522 3987 
Q 1875 4303 2022 4600 
L 2384 4600 
L 2384 0 
z
" transform="scale(0.015625)"/>
       </defs>
       <use xlink:href="#ArialMT-31"/>
       <use xlink:href="#ArialMT-30" x="55.615234"/>
       <use xlink:href="#ArialMT-30" x="111.230469"/>
       <use xlink:href="#ArialMT-30" x="166.845703"/>
      </g>
     </g>
    </g>
    <g id="xtick_4">
     <g id="line2d_4">
      <g>
       <use xlink:href="#m65a4caf27c" x="267.512344" y="277.248797" style="fill: #262626; stroke: #262626; stroke-width: 1.25"/>
      </g>
     </g>
     <g id="text_4">
      <!-- 1500 -->
      <g style="fill: #262626" transform="translate(255.278281 288.622391) scale(0.11 -0.11)">
       <use xlink:href="#ArialMT-31"/>
       <use xlink:href="#ArialMT-35" x="55.615234"/>
       <use xlink:href="#ArialMT-30" x="111.230469"/>
       <use xlink:href="#ArialMT-30" x="166.845703"/>
      </g>
     </g>
    </g>
    <g id="xtick_5">
     <g id="line2d_5">
      <g>
       <use xlink:href="#m65a4caf27c" x="222.872344" y="277.248797" style="fill: #262626; stroke: #262626; stroke-width: 1.25"/>
      </g>
     </g>
     <g id="text_5">
      <!-- 2000 -->
      <g style="fill: #262626" transform="translate(210.638281 288.622391) scale(0.11 -0.11)">
       <defs>
        <path id="ArialMT-32" d="M 3222 541 
L 3222 0 
L 194 0 
Q 188 203 259 391 
Q 375 700 629 1000 
Q 884 1300 1366 1694 
Q 2113 2306 2375 2664 
Q 2638 3022 2638 3341 
Q 2638 3675 2398 3904 
Q 2159 4134 1775 4134 
Q 1369 4134 1125 3890 
Q 881 3647 878 3216 
L 300 3275 
Q 359 3922 746 4261 
Q 1134 4600 1788 4600 
Q 2447 4600 2831 4234 
Q 3216 3869 3216 3328 
Q 3216 3053 3103 2787 
Q 2991 2522 2730 2228 
Q 2469 1934 1863 1422 
Q 1356 997 1212 845 
Q 1069 694 975 541 
L 3222 541 
z
" transform="scale(0.015625)"/>
       </defs>
       <use xlink:href="#ArialMT-32"/>
       <use xlink:href="#ArialMT-30" x="55.615234"/>
       <use xlink:href="#ArialMT-30" x="111.230469"/>
       <use xlink:href="#ArialMT-30" x="166.845703"/>
      </g>
     </g>
    </g>
    <g id="xtick_6">
     <g id="line2d_6">
      <g>
       <use xlink:href="#m65a4caf27c" x="178.232344" y="277.248797" style="fill: #262626; stroke: #262626; stroke-width: 1.25"/>
      </g>
     </g>
     <g id="text_6">
      <!-- 2500 -->
      <g style="fill: #262626" transform="translate(165.998281 288.622391) scale(0.11 -0.11)">
       <use xlink:href="#ArialMT-32"/>
       <use xlink:href="#ArialMT-35" x="55.615234"/>
       <use xlink:href="#ArialMT-30" x="111.230469"/>
       <use xlink:href="#ArialMT-30" x="166.845703"/>
      </g>
     </g>
    </g>
    <g id="xtick_7">
     <g id="line2d_7">
      <g>
       <use xlink:href="#m65a4caf27c" x="133.592344" y="277.248797" style="fill: #262626; stroke: #262626; stroke-width: 1.25"/>
      </g>
     </g>
     <g id="text_7">
      <!-- 3000 -->
      <g style="fill: #262626" transform="translate(121.358281 288.622391) scale(0.11 -0.11)">
       <defs>
        <path id="ArialMT-33" d="M 269 1209 
L 831 1284 
Q 928 806 1161 595 
Q 1394 384 1728 384 
Q 2125 384 2398 659 
Q 2672 934 2672 1341 
Q 2672 1728 2419 1979 
Q 2166 2231 1775 2231 
Q 1616 2231 1378 2169 
L 1441 2663 
Q 1497 2656 1531 2656 
Q 1891 2656 2178 2843 
Q 2466 3031 2466 3422 
Q 2466 3731 2256 3934 
Q 2047 4138 1716 4138 
Q 1388 4138 1169 3931 
Q 950 3725 888 3313 
L 325 3413 
Q 428 3978 793 4289 
Q 1159 4600 1703 4600 
Q 2078 4600 2393 4439 
Q 2709 4278 2876 4000 
Q 3044 3722 3044 3409 
Q 3044 3113 2884 2869 
Q 2725 2625 2413 2481 
Q 2819 2388 3044 2092 
Q 3269 1797 3269 1353 
Q 3269 753 2831 336 
Q 2394 -81 1725 -81 
Q 1122 -81 723 278 
Q 325 638 269 1209 
z
" transform="scale(0.015625)"/>
       </defs>
       <use xlink:href="#ArialMT-33"/>
       <use xlink:href="#ArialMT-30" x="55.615234"/>
       <use xlink:href="#ArialMT-30" x="111.230469"/>
       <use xlink:href="#ArialMT-30" x="166.845703"/>
      </g>
     </g>
    </g>
    <g id="xtick_8">
     <g id="line2d_8">
      <g>
       <use xlink:href="#m65a4caf27c" x="88.952344" y="277.248797" style="fill: #262626; stroke: #262626; stroke-width: 1.25"/>
      </g>
     </g>
     <g id="text_8">
      <!-- 3500 -->
      <g style="fill: #262626" transform="translate(76.718281 288.622391) scale(0.11 -0.11)">
       <use xlink:href="#ArialMT-33"/>
       <use xlink:href="#ArialMT-35" x="55.615234"/>
       <use xlink:href="#ArialMT-30" x="111.230469"/>
       <use xlink:href="#ArialMT-30" x="166.845703"/>
      </g>
     </g>
    </g>
    <g id="xtick_9">
     <g id="line2d_9">
      <g>
       <use xlink:href="#m65a4caf27c" x="44.312344" y="277.248797" style="fill: #262626; stroke: #262626; stroke-width: 1.25"/>
      </g>
     </g>
     <g id="text_9">
      <!-- 4000 -->
      <g style="fill: #262626" transform="translate(32.078281 288.622391) scale(0.11 -0.11)">
       <defs>
        <path id="ArialMT-34" d="M 2069 0 
L 2069 1097 
L 81 1097 
L 81 1613 
L 2172 4581 
L 2631 4581 
L 2631 1613 
L 3250 1613 
L 3250 1097 
L 2631 1097 
L 2631 0 
L 2069 0 
z
M 2069 1613 
L 2069 3678 
L 634 1613 
L 2069 1613 
z
" transform="scale(0.015625)"/>
       </defs>
       <use xlink:href="#ArialMT-34"/>
       <use xlink:href="#ArialMT-30" x="55.615234"/>
       <use xlink:href="#ArialMT-30" x="111.230469"/>
       <use xlink:href="#ArialMT-30" x="166.845703"/>
      </g>
     </g>
    </g>
    <g id="xtick_10">
     <g id="line2d_10">
      <defs>
       <path id="m716ba0ed47" d="M 0 0 
L 0 -4 
" style="stroke: #262626"/>
      </defs>
      <g>
       <use xlink:href="#m716ba0ed47" x="379.112344" y="277.248797" style="fill: #262626; stroke: #262626"/>
      </g>
     </g>
    </g>
    <g id="xtick_11">
     <g id="line2d_11">
      <g>
       <use xlink:href="#m716ba0ed47" x="334.472344" y="277.248797" style="fill: #262626; stroke: #262626"/>
      </g>
     </g>
    </g>
    <g id="xtick_12">
     <g id="line2d_12">
      <g>
       <use xlink:href="#m716ba0ed47" x="289.832344" y="277.248797" style="fill: #262626; stroke: #262626"/>
      </g>
     </g>
    </g>
    <g id="xtick_13">
     <g id="line2d_13">
      <g>
       <use xlink:href="#m716ba0ed47" x="245.192344" y="277.248797" style="fill: #262626; stroke: #262626"/>
      </g>
     </g>
    </g>
    <g id="xtick_14">
     <g id="line2d_14">
      <g>
       <use xlink:href="#m716ba0ed47" x="200.552344" y="277.248797" style="fill: #262626; stroke: #262626"/>
      </g>
     </g>
    </g>
    <g id="xtick_15">
     <g id="line2d_15">
      <g>
       <use xlink:href="#m716ba0ed47" x="155.912344" y="277.248797" style="fill: #262626; stroke: #262626"/>
      </g>
     </g>
    </g>
    <g id="xtick_16">
     <g id="line2d_16">
      <g>
       <use xlink:href="#m716ba0ed47" x="111.272344" y="277.248797" style="fill: #262626; stroke: #262626"/>
      </g>
     </g>
    </g>
    <g id="xtick_17">
     <g id="line2d_17">
      <g>
       <use xlink:href="#m716ba0ed47" x="66.632344" y="277.248797" style="fill: #262626; stroke: #262626"/>
      </g>
     </g>
    </g>
    <g id="text_10">
     <!-- Wavenumber ($\mathregular{cm^{-1}}$) -->
     <g style="fill: #262626" transform="translate(168.332344 309.328641) scale(0.12 -0.12)">
      <defs>
       <path id="ArialMT-57" d="M 1294 0 
L 78 4581 
L 700 4581 
L 1397 1578 
Q 1509 1106 1591 641 
Q 1766 1375 1797 1488 
L 2669 4581 
L 3400 4581 
L 4056 2263 
Q 4303 1400 4413 641 
Q 4500 1075 4641 1638 
L 5359 4581 
L 5969 4581 
L 4713 0 
L 4128 0 
L 3163 3491 
Q 3041 3928 3019 4028 
Q 2947 3713 2884 3491 
L 1913 0 
L 1294 0 
z
" transform="scale(0.015625)"/>
       <path id="ArialMT-61" d="M 2588 409 
Q 2275 144 1986 34 
Q 1697 -75 1366 -75 
Q 819 -75 525 192 
Q 231 459 231 875 
Q 231 1119 342 1320 
Q 453 1522 633 1644 
Q 813 1766 1038 1828 
Q 1203 1872 1538 1913 
Q 2219 1994 2541 2106 
Q 2544 2222 2544 2253 
Q 2544 2597 2384 2738 
Q 2169 2928 1744 2928 
Q 1347 2928 1158 2789 
Q 969 2650 878 2297 
L 328 2372 
Q 403 2725 575 2942 
Q 747 3159 1072 3276 
Q 1397 3394 1825 3394 
Q 2250 3394 2515 3294 
Q 2781 3194 2906 3042 
Q 3031 2891 3081 2659 
Q 3109 2516 3109 2141 
L 3109 1391 
Q 3109 606 3145 398 
Q 3181 191 3288 0 
L 2700 0 
Q 2613 175 2588 409 
z
M 2541 1666 
Q 2234 1541 1622 1453 
Q 1275 1403 1131 1340 
Q 988 1278 909 1158 
Q 831 1038 831 891 
Q 831 666 1001 516 
Q 1172 366 1500 366 
Q 1825 366 2078 508 
Q 2331 650 2450 897 
Q 2541 1088 2541 1459 
L 2541 1666 
z
" transform="scale(0.015625)"/>
       <path id="ArialMT-76" d="M 1344 0 
L 81 3319 
L 675 3319 
L 1388 1331 
Q 1503 1009 1600 663 
Q 1675 925 1809 1294 
L 2547 3319 
L 3125 3319 
L 1869 0 
L 1344 0 
z
" transform="scale(0.015625)"/>
       <path id="ArialMT-65" d="M 2694 1069 
L 3275 997 
Q 3138 488 2766 206 
Q 2394 -75 1816 -75 
Q 1088 -75 661 373 
Q 234 822 234 1631 
Q 234 2469 665 2931 
Q 1097 3394 1784 3394 
Q 2450 3394 2872 2941 
Q 3294 2488 3294 1666 
Q 3294 1616 3291 1516 
L 816 1516 
Q 847 969 1125 678 
Q 1403 388 1819 388 
Q 2128 388 2347 550 
Q 2566 713 2694 1069 
z
M 847 1978 
L 2700 1978 
Q 2663 2397 2488 2606 
Q 2219 2931 1791 2931 
Q 1403 2931 1139 2672 
Q 875 2413 847 1978 
z
" transform="scale(0.015625)"/>
       <path id="ArialMT-6e" d="M 422 0 
L 422 3319 
L 928 3319 
L 928 2847 
Q 1294 3394 1984 3394 
Q 2284 3394 2536 3286 
Q 2788 3178 2913 3003 
Q 3038 2828 3088 2588 
Q 3119 2431 3119 2041 
L 3119 0 
L 2556 0 
L 2556 2019 
Q 2556 2363 2490 2533 
Q 2425 2703 2258 2804 
Q 2091 2906 1866 2906 
Q 1506 2906 1245 2678 
Q 984 2450 984 1813 
L 984 0 
L 422 0 
z
" transform="scale(0.015625)"/>
       <path id="ArialMT-75" d="M 2597 0 
L 2597 488 
Q 2209 -75 1544 -75 
Q 1250 -75 995 37 
Q 741 150 617 320 
Q 494 491 444 738 
Q 409 903 409 1263 
L 409 3319 
L 972 3319 
L 972 1478 
Q 972 1038 1006 884 
Q 1059 663 1231 536 
Q 1403 409 1656 409 
Q 1909 409 2131 539 
Q 2353 669 2445 892 
Q 2538 1116 2538 1541 
L 2538 3319 
L 3100 3319 
L 3100 0 
L 2597 0 
z
" transform="scale(0.015625)"/>
       <path id="ArialMT-6d" d="M 422 0 
L 422 3319 
L 925 3319 
L 925 2853 
Q 1081 3097 1340 3245 
Q 1600 3394 1931 3394 
Q 2300 3394 2536 3241 
Q 2772 3088 2869 2813 
Q 3263 3394 3894 3394 
Q 4388 3394 4653 3120 
Q 4919 2847 4919 2278 
L 4919 0 
L 4359 0 
L 4359 2091 
Q 4359 2428 4304 2576 
Q 4250 2725 4106 2815 
Q 3963 2906 3769 2906 
Q 3419 2906 3187 2673 
Q 2956 2441 2956 1928 
L 2956 0 
L 2394 0 
L 2394 2156 
Q 2394 2531 2256 2718 
Q 2119 2906 1806 2906 
Q 1569 2906 1367 2781 
Q 1166 2656 1075 2415 
Q 984 2175 984 1722 
L 984 0 
L 422 0 
z
" transform="scale(0.015625)"/>
       <path id="ArialMT-62" d="M 941 0 
L 419 0 
L 419 4581 
L 981 4581 
L 981 2947 
Q 1338 3394 1891 3394 
Q 2197 3394 2470 3270 
Q 2744 3147 2920 2923 
Q 3097 2700 3197 2384 
Q 3297 2069 3297 1709 
Q 3297 856 2875 390 
Q 2453 -75 1863 -75 
Q 1275 -75 941 416 
L 941 0 
z
M 934 1684 
Q 934 1088 1097 822 
Q 1363 388 1816 388 
Q 2184 388 2453 708 
Q 2722 1028 2722 1663 
Q 2722 2313 2464 2622 
Q 2206 2931 1841 2931 
Q 1472 2931 1203 2611 
Q 934 2291 934 1684 
z
" transform="scale(0.015625)"/>
       <path id="ArialMT-72" d="M 416 0 
L 416 3319 
L 922 3319 
L 922 2816 
Q 1116 3169 1280 3281 
Q 1444 3394 1641 3394 
Q 1925 3394 2219 3213 
L 2025 2691 
Q 1819 2813 1613 2813 
Q 1428 2813 1281 2702 
Q 1134 2591 1072 2394 
Q 978 2094 978 1738 
L 978 0 
L 416 0 
z
" transform="scale(0.015625)"/>
       <path id="ArialMT-20" transform="scale(0.015625)"/>
       <path id="ArialMT-28" d="M 1497 -1347 
Q 1031 -759 709 28 
Q 388 816 388 1659 
Q 388 2403 628 3084 
Q 909 3875 1497 4659 
L 1900 4659 
Q 1522 4009 1400 3731 
Q 1209 3300 1100 2831 
Q 966 2247 966 1656 
Q 966 153 1900 -1347 
L 1497 -1347 
z
" transform="scale(0.015625)"/>
       <path id="ArialMT-63" d="M 2588 1216 
L 3141 1144 
Q 3050 572 2676 248 
Q 2303 -75 1759 -75 
Q 1078 -75 664 370 
Q 250 816 250 1647 
Q 250 2184 428 2587 
Q 606 2991 970 3192 
Q 1334 3394 1763 3394 
Q 2303 3394 2647 3120 
Q 2991 2847 3088 2344 
L 2541 2259 
Q 2463 2594 2264 2762 
Q 2066 2931 1784 2931 
Q 1359 2931 1093 2626 
Q 828 2322 828 1663 
Q 828 994 1084 691 
Q 1341 388 1753 388 
Q 2084 388 2306 591 
Q 2528 794 2588 1216 
z
" transform="scale(0.015625)"/>
       <path id="ArialMT-2212" d="M 3381 1997 
L 356 1997 
L 356 2522 
L 3381 2522 
L 3381 1997 
z
" transform="scale(0.015625)"/>
       <path id="ArialMT-29" d="M 791 -1347 
L 388 -1347 
Q 1322 153 1322 1656 
Q 1322 2244 1188 2822 
Q 1081 3291 891 3722 
Q 769 4003 388 4659 
L 791 4659 
Q 1378 3875 1659 3084 
Q 1900 2403 1900 1659 
Q 1900 816 1576 28 
Q 1253 -759 791 -1347 
z
" transform="scale(0.015625)"/>
      </defs>
      <use xlink:href="#ArialMT-57" transform="translate(0 0.99375)"/>
      <use xlink:href="#ArialMT-61" transform="translate(94.384766 0.99375)"/>
      <use xlink:href="#ArialMT-76" transform="translate(150 0.99375)"/>
      <use xlink:href="#ArialMT-65" transform="translate(200 0.99375)"/>
      <use xlink:href="#ArialMT-6e" transform="translate(255.615234 0.99375)"/>
      <use xlink:href="#ArialMT-75" transform="translate(311.230469 0.99375)"/>
      <use xlink:href="#ArialMT-6d" transform="translate(366.845703 0.99375)"/>
      <use xlink:href="#ArialMT-62" transform="translate(450.146484 0.99375)"/>
      <use xlink:href="#ArialMT-65" transform="translate(505.761719 0.99375)"/>
      <use xlink:href="#ArialMT-72" transform="translate(561.376953 0.99375)"/>
      <use xlink:href="#ArialMT-20" transform="translate(594.677734 0.99375)"/>
      <use xlink:href="#ArialMT-28" transform="translate(622.460938 0.99375)"/>
      <use xlink:href="#ArialMT-63" transform="translate(655.761719 0.99375)"/>
      <use xlink:href="#ArialMT-6d" transform="translate(705.761719 0.99375)"/>
      <use xlink:href="#ArialMT-2212" transform="translate(790.804844 70.6875) scale(0.7)"/>
      <use xlink:href="#ArialMT-31" transform="translate(831.68375 70.6875) scale(0.7)"/>
      <use xlink:href="#ArialMT-29" transform="translate(875.592539 0.99375)"/>
     </g>
    </g>
   </g>
   <g id="matplotlib.axis_2">
    <g id="ytick_1">
     <g id="line2d_18">
      <defs>
       <path id="m5cd7ed5de8" d="M 0 0 
L 6 0 
" style="stroke: #262626; stroke-width: 1.25"/>
      </defs>
      <g>
       <use xlink:href="#m5cd7ed5de8" x="44.312344" y="277.248797" style="fill: #262626; stroke: #262626; stroke-width: 1.25"/>
      </g>
     </g>
     <g id="text_11">
      <!-- 90 -->
      <g style="fill: #262626" transform="translate(28.578281 281.185594) scale(0.11 -0.11)">
       <defs>
        <path id="ArialMT-39" d="M 350 1059 
L 891 1109 
Q 959 728 1153 556 
Q 1347 384 1650 384 
Q 1909 384 2104 503 
Q 2300 622 2425 820 
Q 2550 1019 2634 1356 
Q 2719 1694 2719 2044 
Q 2719 2081 2716 2156 
Q 2547 1888 2255 1720 
Q 1963 1553 1622 1553 
Q 1053 1553 659 1965 
Q 266 2378 266 3053 
Q 266 3750 677 4175 
Q 1088 4600 1706 4600 
Q 2153 4600 2523 4359 
Q 2894 4119 3086 3673 
Q 3278 3228 3278 2384 
Q 3278 1506 3087 986 
Q 2897 466 2520 194 
Q 2144 -78 1638 -78 
Q 1100 -78 759 220 
Q 419 519 350 1059 
z
M 2653 3081 
Q 2653 3566 2395 3850 
Q 2138 4134 1775 4134 
Q 1400 4134 1122 3828 
Q 844 3522 844 3034 
Q 844 2597 1108 2323 
Q 1372 2050 1759 2050 
Q 2150 2050 2401 2323 
Q 2653 2597 2653 3081 
z
" transform="scale(0.015625)"/>
       </defs>
       <use xlink:href="#ArialMT-39"/>
       <use xlink:href="#ArialMT-30" x="55.615234"/>
      </g>
     </g>
    </g>
    <g id="ytick_2">
     <g id="line2d_19">
      <g>
       <use xlink:href="#m5cd7ed5de8" x="44.312344" y="224.026397" style="fill: #262626; stroke: #262626; stroke-width: 1.25"/>
      </g>
     </g>
     <g id="text_12">
      <!-- 92 -->
      <g style="fill: #262626" transform="translate(28.578281 227.963194) scale(0.11 -0.11)">
       <use xlink:href="#ArialMT-39"/>
       <use xlink:href="#ArialMT-32" x="55.615234"/>
      </g>
     </g>
    </g>
    <g id="ytick_3">
     <g id="line2d_20">
      <g>
       <use xlink:href="#m5cd7ed5de8" x="44.312344" y="170.803997" style="fill: #262626; stroke: #262626; stroke-width: 1.25"/>
      </g>
     </g>
     <g id="text_13">
      <!-- 94 -->
      <g style="fill: #262626" transform="translate(28.578281 174.740794) scale(0.11 -0.11)">
       <use xlink:href="#ArialMT-39"/>
       <use xlink:href="#ArialMT-34" x="55.615234"/>
      </g>
     </g>
    </g>
    <g id="ytick_4">
     <g id="line2d_21">
      <g>
       <use xlink:href="#m5cd7ed5de8" x="44.312344" y="117.581597" style="fill: #262626; stroke: #262626; stroke-width: 1.25"/>
      </g>
     </g>
     <g id="text_14">
      <!-- 96 -->
      <g style="fill: #262626" transform="translate(28.578281 121.518394) scale(0.11 -0.11)">
       <defs>
        <path id="ArialMT-36" d="M 3184 3459 
L 2625 3416 
Q 2550 3747 2413 3897 
Q 2184 4138 1850 4138 
Q 1581 4138 1378 3988 
Q 1113 3794 959 3422 
Q 806 3050 800 2363 
Q 1003 2672 1297 2822 
Q 1591 2972 1913 2972 
Q 2475 2972 2870 2558 
Q 3266 2144 3266 1488 
Q 3266 1056 3080 686 
Q 2894 316 2569 119 
Q 2244 -78 1831 -78 
Q 1128 -78 684 439 
Q 241 956 241 2144 
Q 241 3472 731 4075 
Q 1159 4600 1884 4600 
Q 2425 4600 2770 4297 
Q 3116 3994 3184 3459 
z
M 888 1484 
Q 888 1194 1011 928 
Q 1134 663 1356 523 
Q 1578 384 1822 384 
Q 2178 384 2434 671 
Q 2691 959 2691 1453 
Q 2691 1928 2437 2201 
Q 2184 2475 1800 2475 
Q 1419 2475 1153 2201 
Q 888 1928 888 1484 
z
" transform="scale(0.015625)"/>
       </defs>
       <use xlink:href="#ArialMT-39"/>
       <use xlink:href="#ArialMT-36" x="55.615234"/>
      </g>
     </g>
    </g>
    <g id="ytick_5">
     <g id="line2d_22">
      <g>
       <use xlink:href="#m5cd7ed5de8" x="44.312344" y="64.359197" style="fill: #262626; stroke: #262626; stroke-width: 1.25"/>
      </g>
     </g>
     <g id="text_15">
      <!-- 98 -->
      <g style="fill: #262626" transform="translate(28.578281 68.295994) scale(0.11 -0.11)">
       <defs>
        <path id="ArialMT-38" d="M 1131 2484 
Q 781 2613 612 2850 
Q 444 3088 444 3419 
Q 444 3919 803 4259 
Q 1163 4600 1759 4600 
Q 2359 4600 2725 4251 
Q 3091 3903 3091 3403 
Q 3091 3084 2923 2848 
Q 2756 2613 2416 2484 
Q 2838 2347 3058 2040 
Q 3278 1734 3278 1309 
Q 3278 722 2862 322 
Q 2447 -78 1769 -78 
Q 1091 -78 675 323 
Q 259 725 259 1325 
Q 259 1772 486 2073 
Q 713 2375 1131 2484 
z
M 1019 3438 
Q 1019 3113 1228 2906 
Q 1438 2700 1772 2700 
Q 2097 2700 2305 2904 
Q 2513 3109 2513 3406 
Q 2513 3716 2298 3927 
Q 2084 4138 1766 4138 
Q 1444 4138 1231 3931 
Q 1019 3725 1019 3438 
z
M 838 1322 
Q 838 1081 952 856 
Q 1066 631 1291 507 
Q 1516 384 1775 384 
Q 2178 384 2440 643 
Q 2703 903 2703 1303 
Q 2703 1709 2433 1975 
Q 2163 2241 1756 2241 
Q 1359 2241 1098 1978 
Q 838 1716 838 1322 
z
" transform="scale(0.015625)"/>
       </defs>
       <use xlink:href="#ArialMT-39"/>
       <use xlink:href="#ArialMT-38" x="55.615234"/>
      </g>
     </g>
    </g>
    <g id="ytick_6">
     <g id="line2d_23">
      <g>
       <use xlink:href="#m5cd7ed5de8" x="44.312344" y="11.136797" style="fill: #262626; stroke: #262626; stroke-width: 1.25"/>
      </g>
     </g>
     <g id="text_16">
      <!-- 100 -->
      <g style="fill: #262626" transform="translate(22.46125 15.073594) scale(0.11 -0.11)">
       <use xlink:href="#ArialMT-31"/>
       <use xlink:href="#ArialMT-30" x="55.615234"/>
       <use xlink:href="#ArialMT-30" x="111.230469"/>
      </g>
     </g>
    </g>
    <g id="ytick_7">
     <g id="line2d_24">
      <defs>
       <path id="m9cbd4e2a42" d="M 0 0 
L 4 0 
" style="stroke: #262626"/>
      </defs>
      <g>
       <use xlink:href="#m9cbd4e2a42" x="44.312344" y="250.637597" style="fill: #262626; stroke: #262626"/>
      </g>
     </g>
    </g>
    <g id="ytick_8">
     <g id="line2d_25">
      <g>
       <use xlink:href="#m9cbd4e2a42" x="44.312344" y="197.415197" style="fill: #262626; stroke: #262626"/>
      </g>
     </g>
    </g>
    <g id="ytick_9">
     <g id="line2d_26">
      <g>
       <use xlink:href="#m9cbd4e2a42" x="44.312344" y="144.192797" style="fill: #262626; stroke: #262626"/>
      </g>
     </g>
    </g>
    <g id="ytick_10">
     <g id="line2d_27">
      <g>
       <use xlink:href="#m9cbd4e2a42" x="44.312344" y="90.970397" style="fill: #262626; stroke: #262626"/>
      </g>
     </g>
    </g>
    <g id="ytick_11">
     <g id="line2d_28">
      <g>
       <use xlink:href="#m9cbd4e2a42" x="44.312344" y="37.747997" style="fill: #262626; stroke: #262626"/>
      </g>
     </g>
    </g>
    <g id="text_17">
     <!-- Transmittance (%T) -->
     <g style="fill: #262626" transform="translate(15.935625 196.640297) rotate(-90) scale(0.12 -0.12)">
      <defs>
       <path id="ArialMT-54" d="M 1659 0 
L 1659 4041 
L 150 4041 
L 150 4581 
L 3781 4581 
L 3781 4041 
L 2266 4041 
L 2266 0 
L 1659 0 
z
" transform="scale(0.015625)"/>
       <path id="ArialMT-73" d="M 197 991 
L 753 1078 
Q 800 744 1014 566 
Q 1228 388 1613 388 
Q 2000 388 2187 545 
Q 2375 703 2375 916 
Q 2375 1106 2209 1216 
Q 2094 1291 1634 1406 
Q 1016 1563 777 1677 
Q 538 1791 414 1992 
Q 291 2194 291 2438 
Q 291 2659 392 2848 
Q 494 3038 669 3163 
Q 800 3259 1026 3326 
Q 1253 3394 1513 3394 
Q 1903 3394 2198 3281 
Q 2494 3169 2634 2976 
Q 2775 2784 2828 2463 
L 2278 2388 
Q 2241 2644 2061 2787 
Q 1881 2931 1553 2931 
Q 1166 2931 1000 2803 
Q 834 2675 834 2503 
Q 834 2394 903 2306 
Q 972 2216 1119 2156 
Q 1203 2125 1616 2013 
Q 2213 1853 2448 1751 
Q 2684 1650 2818 1456 
Q 2953 1263 2953 975 
Q 2953 694 2789 445 
Q 2625 197 2315 61 
Q 2006 -75 1616 -75 
Q 969 -75 630 194 
Q 291 463 197 991 
z
" transform="scale(0.015625)"/>
       <path id="ArialMT-69" d="M 425 3934 
L 425 4581 
L 988 4581 
L 988 3934 
L 425 3934 
z
M 425 0 
L 425 3319 
L 988 3319 
L 988 0 
L 425 0 
z
" transform="scale(0.015625)"/>
       <path id="ArialMT-74" d="M 1650 503 
L 1731 6 
Q 1494 -44 1306 -44 
Q 1000 -44 831 53 
Q 663 150 594 308 
Q 525 466 525 972 
L 525 2881 
L 113 2881 
L 113 3319 
L 525 3319 
L 525 4141 
L 1084 4478 
L 1084 3319 
L 1650 3319 
L 1650 2881 
L 1084 2881 
L 1084 941 
Q 1084 700 1114 631 
Q 1144 563 1211 522 
Q 1278 481 1403 481 
Q 1497 481 1650 503 
z
" transform="scale(0.015625)"/>
       <path id="ArialMT-25" d="M 372 3481 
Q 372 3972 619 4315 
Q 866 4659 1334 4659 
Q 1766 4659 2048 4351 
Q 2331 4044 2331 3447 
Q 2331 2866 2045 2552 
Q 1759 2238 1341 2238 
Q 925 2238 648 2547 
Q 372 2856 372 3481 
z
M 1350 4272 
Q 1141 4272 1002 4090 
Q 863 3909 863 3425 
Q 863 2984 1003 2804 
Q 1144 2625 1350 2625 
Q 1563 2625 1702 2806 
Q 1841 2988 1841 3469 
Q 1841 3913 1700 4092 
Q 1559 4272 1350 4272 
z
M 1353 -169 
L 3859 4659 
L 4316 4659 
L 1819 -169 
L 1353 -169 
z
M 3334 1075 
Q 3334 1569 3581 1911 
Q 3828 2253 4300 2253 
Q 4731 2253 5014 1945 
Q 5297 1638 5297 1041 
Q 5297 459 5011 145 
Q 4725 -169 4303 -169 
Q 3888 -169 3611 142 
Q 3334 453 3334 1075 
z
M 4316 1866 
Q 4103 1866 3964 1684 
Q 3825 1503 3825 1019 
Q 3825 581 3965 400 
Q 4106 219 4313 219 
Q 4528 219 4667 400 
Q 4806 581 4806 1063 
Q 4806 1506 4665 1686 
Q 4525 1866 4316 1866 
z
" transform="scale(0.015625)"/>
      </defs>
      <use xlink:href="#ArialMT-54"/>
      <use xlink:href="#ArialMT-72" x="57.333984"/>
      <use xlink:href="#ArialMT-61" x="90.634766"/>
      <use xlink:href="#ArialMT-6e" x="146.25"/>
      <use xlink:href="#ArialMT-73" x="201.865234"/>
      <use xlink:href="#ArialMT-6d" x="251.865234"/>
      <use xlink:href="#ArialMT-69" x="335.166016"/>
      <use xlink:href="#ArialMT-74" x="357.382812"/>
      <use xlink:href="#ArialMT-74" x="385.166016"/>
      <use xlink:href="#ArialMT-61" x="412.949219"/>
      <use xlink:href="#ArialMT-6e" x="468.564453"/>
      <use xlink:href="#ArialMT-63" x="524.179688"/>
      <use xlink:href="#ArialMT-65" x="574.179688"/>
      <use xlink:href="#ArialMT-20" x="629.794922"/>
      <use xlink:href="#ArialMT-28" x="657.578125"/>
      <use xlink:href="#ArialMT-25" x="690.878906"/>
      <use xlink:href="#ArialMT-54" x="779.794922"/>
      <use xlink:href="#ArialMT-29" x="840.878906"/>
     </g>
    </g>
   </g>
   <g id="PolyCollection_1"/>
   <g id="line2d_29">
    <path d="M 365.720344 17.503113 
L 365.452504 18.564165 
L 364.916824 19.890481 
L 364.470424 17.503113 
L 364.113304 18.298902 
L 363.756184 17.503113 
L 363.577624 17.503113 
L 363.220504 16.707323 
L 362.684824 18.033639 
L 362.506264 17.768376 
L 362.238424 18.298902 
L 362.149144 18.298902 
L 361.792024 19.094692 
L 361.524184 19.094692 
L 361.345624 19.359955 
L 360.899224 19.359955 
L 360.720664 19.094692 
L 360.542104 19.359955 
L 360.452824 19.359955 
L 359.917144 20.686271 
L 359.827864 20.686271 
L 359.649304 20.951534 
L 359.560024 20.951534 
L 359.381464 20.686271 
L 359.113624 21.747323 
L 358.845784 22.808376 
L 358.756504 22.808376 
L 358.577944 23.073639 
L 358.399384 23.073639 
L 358.220824 22.808376 
L 357.952984 23.869428 
L 357.506584 27.052586 
L 357.328024 25.461007 
L 357.060184 23.338902 
L 356.970904 23.073639 
L 356.613784 23.869428 
L 356.524504 23.869428 
L 356.256664 24.399955 
L 356.167384 24.399955 
L 355.988824 25.195744 
L 355.899544 25.195744 
L 355.631704 25.726271 
L 355.542424 25.726271 
L 355.185304 27.052586 
L 354.738904 29.970481 
L 354.471064 34.214692 
L 354.292504 41.376797 
L 354.024664 65.515744 
L 353.846104 81.166271 
L 353.756824 79.309428 
L 353.131864 23.338902 
L 352.953304 21.747323 
L 352.774744 21.48206 
L 352.596184 21.48206 
L 352.417624 21.747323 
L 352.239064 21.747323 
L 351.971224 22.27785 
L 351.792664 22.27785 
L 351.614104 22.543113 
L 351.435544 22.543113 
L 351.167704 23.073639 
L 351.078424 23.073639 
L 350.810584 24.134692 
L 350.542744 27.052586 
L 350.185624 35.275744 
L 350.007064 39.254692 
L 349.917784 38.724165 
L 349.382104 20.421007 
L 349.203544 20.155744 
L 348.846424 21.216797 
L 348.667864 20.951534 
L 348.489304 20.951534 
L 348.310744 21.216797 
L 347.864344 21.216797 
L 347.596504 21.747323 
L 347.507224 21.747323 
L 347.239384 22.27785 
L 347.150104 22.27785 
L 346.882264 22.808376 
L 346.703704 22.808376 
L 346.525144 23.073639 
L 346.435864 23.073639 
L 346.078744 23.869428 
L 345.810904 23.338902 
L 345.185944 23.338902 
L 345.007384 23.604165 
L 344.918104 23.604165 
L 344.739544 23.869428 
L 344.560984 23.869428 
L 344.382424 24.134692 
L 344.293144 24.134692 
L 344.025304 24.665218 
L 343.936024 24.665218 
L 343.489624 25.726271 
L 343.400344 25.726271 
L 342.596824 28.378902 
L 342.239704 32.092586 
L 341.971864 38.193639 
L 341.793304 42.172586 
L 341.704024 42.172586 
L 341.168344 33.418902 
L 340.989784 34.214692 
L 340.811224 36.867323 
L 340.543384 44.294692 
L 340.364824 55.170481 
L 340.096984 92.572586 
L 339.829144 128.11785 
L 339.739864 123.873639 
L 339.114904 49.865218 
L 338.579224 30.766271 
L 338.222104 25.461007 
L 337.954264 24.134692 
L 337.775704 24.134692 
L 337.597144 24.399955 
L 337.240024 24.399955 
L 336.615064 26.52206 
L 336.168664 29.705218 
L 335.811544 33.684165 
L 335.454424 41.64206 
L 335.186584 55.170481 
L 334.829464 90.715744 
L 334.472344 132.892586 
L 334.383064 132.096797 
L 334.204504 107.427323 
L 333.847384 48.273639 
L 333.490264 26.787323 
L 333.222424 22.012586 
L 332.954584 20.421007 
L 332.597464 19.625218 
L 332.240344 19.625218 
L 331.972504 20.155744 
L 331.883224 20.155744 
L 329.829784 25.991534 
L 329.740504 25.991534 
L 329.472664 26.52206 
L 329.294104 26.52206 
L 329.026264 27.052586 
L 328.936984 27.052586 
L 327.865624 30.501007 
L 327.597784 32.623113 
L 327.329944 37.928376 
L 326.972824 50.661007 
L 326.883544 50.395744 
L 326.526424 39.519955 
L 326.437144 40.581007 
L 326.080024 53.048376 
L 325.455064 30.766271 
L 325.276504 30.501007 
L 325.187224 30.501007 
L 325.008664 30.766271 
L 324.919384 30.766271 
L 324.562264 29.705218 
L 324.294424 30.235744 
L 324.205144 30.235744 
L 323.848024 31.031534 
L 323.758744 31.031534 
L 323.223064 32.888376 
L 322.865944 34.479955 
L 322.598104 35.010481 
L 321.883864 35.010481 
L 321.348184 36.867323 
L 320.633944 41.64206 
L 320.187544 52.51785 
L 320.008984 48.273639 
L 319.741144 42.43785 
L 319.205464 41.111534 
L 319.116184 41.111534 
L 318.669784 42.703113 
L 318.044824 46.68206 
L 317.419864 55.170481 
L 317.062744 64.719955 
L 316.794904 78.513639 
L 316.169944 121.486271 
L 315.812824 179.313639 
L 315.723544 171.886271 
L 315.277144 86.736797 
L 315.187864 83.288376 
L 315.098584 84.084165 
L 314.741464 105.305218 
L 314.652184 104.509428 
L 314.473624 94.694692 
L 313.937944 49.334692 
L 313.759384 50.395744 
L 313.580824 46.416797 
L 313.312984 42.172586 
L 313.134424 42.43785 
L 312.777304 42.43785 
L 312.420184 45.090481 
L 312.152344 47.47785 
L 311.705944 50.395744 
L 311.438104 54.374692 
L 310.902424 63.128376 
L 310.723864 61.536797 
L 310.456024 57.027323 
L 310.277464 56.496797 
L 310.009624 57.292586 
L 309.920344 57.027323 
L 309.741784 54.639955 
L 309.295384 46.416797 
L 309.027544 45.355744 
L 308.848984 45.355744 
L 308.134744 47.212586 
L 308.045464 47.212586 
L 307.777624 47.743113 
L 307.420504 47.743113 
L 306.706264 50.130481 
L 306.349144 52.783113 
L 305.992024 58.884165 
L 305.634904 66.046271 
L 305.456344 61.006271 
L 305.099224 49.069428 
L 304.831384 48.008376 
L 304.563544 48.008376 
L 304.384984 48.273639 
L 303.849304 48.273639 
L 303.670744 48.538902 
L 303.492184 48.538902 
L 303.135064 49.334692 
L 303.045784 49.334692 
L 302.867224 48.538902 
L 302.420824 46.416797 
L 301.974424 45.355744 
L 301.885144 45.355744 
L 301.706584 45.090481 
L 301.528024 45.355744 
L 301.349464 45.355744 
L 301.170904 45.090481 
L 300.992344 45.090481 
L 300.813784 45.355744 
L 299.920984 45.355744 
L 299.742424 45.090481 
L 299.563864 45.090481 
L 298.849624 46.947323 
L 298.760344 46.947323 
L 298.492504 48.008376 
L 298.313944 48.804165 
L 298.224664 48.804165 
L 297.688984 47.47785 
L 297.599704 47.47785 
L 297.421144 47.212586 
L 297.153304 47.212586 
L 296.706904 48.804165 
L 296.260504 51.987323 
L 295.903384 54.374692 
L 295.724824 54.639955 
L 295.546264 53.313639 
L 295.010584 46.416797 
L 294.742744 45.355744 
L 294.564184 45.090481 
L 294.207064 45.090481 
L 294.028504 45.355744 
L 293.671384 45.355744 
L 293.046424 46.947323 
L 292.510744 44.029428 
L 292.242904 44.029428 
L 291.885784 44.825218 
L 291.796504 44.825218 
L 291.528664 45.355744 
L 291.439384 45.355744 
L 290.992984 46.416797 
L 290.546584 46.416797 
L 290.189464 45.621007 
L 290.010904 45.621007 
L 289.832344 45.355744 
L 289.028824 47.47785 
L 288.136024 42.703113 
L 287.778904 41.907323 
L 287.600344 41.907323 
L 287.332504 42.968376 
L 287.064664 45.090481 
L 286.975384 45.090481 
L 286.886104 44.825218 
L 286.171864 39.254692 
L 285.904024 39.254692 
L 285.725464 39.519955 
L 285.636184 39.519955 
L 285.457624 39.785218 
L 285.279064 39.785218 
L 285.100504 40.050481 
L 284.743384 40.050481 
L 284.564824 39.785218 
L 284.207704 39.785218 
L 284.029144 39.519955 
L 283.672024 39.519955 
L 283.225624 40.581007 
L 283.136344 40.581007 
L 282.779224 41.376797 
L 282.689944 41.376797 
L 282.511384 42.172586 
L 282.154264 45.355744 
L 282.064984 45.090481 
L 281.886424 42.968376 
L 281.618584 40.581007 
L 281.529304 40.315744 
L 280.904344 42.43785 
L 279.922264 48.804165 
L 279.743704 50.926271 
L 279.386584 55.966271 
L 279.297304 55.701007 
L 279.118744 53.048376 
L 278.850904 49.069428 
L 278.672344 48.804165 
L 278.404504 49.865218 
L 277.511704 55.170481 
L 277.243864 60.475744 
L 276.886744 67.63785 
L 276.797464 66.576797 
L 276.529624 55.966271 
L 276.261784 47.743113 
L 275.993944 45.355744 
L 275.279704 43.498902 
L 274.744024 45.355744 
L 274.029784 50.130481 
L 273.672664 54.109428 
L 273.226264 62.067323 
L 272.422744 83.818902 
L 272.244184 77.187323 
L 271.797784 57.027323 
L 271.351384 45.621007 
L 271.083544 43.498902 
L 270.637144 42.43785 
L 270.547864 42.43785 
L 270.369304 42.172586 
L 270.280024 42.172586 
L 269.565784 44.559955 
L 269.297944 46.68206 
L 269.030104 50.661007 
L 268.762264 57.292586 
L 268.494424 71.616797 
L 268.315864 80.635744 
L 268.226584 78.513639 
L 267.601624 33.418902 
L 267.333784 32.35785 
L 267.155224 32.092586 
L 266.798104 32.888376 
L 266.619544 32.888376 
L 265.816024 35.010481 
L 265.726744 35.010481 
L 265.548184 35.275744 
L 265.369624 35.275744 
L 265.012504 36.071534 
L 264.923224 36.071534 
L 264.387544 37.39785 
L 264.119704 37.39785 
L 263.851864 37.928376 
L 263.584024 37.928376 
L 263.226904 38.724165 
L 263.137624 38.724165 
L 262.244824 41.376797 
L 261.976984 42.968376 
L 261.887704 42.968376 
L 261.709144 44.294692 
L 261.173464 49.865218 
L 260.727064 47.743113 
L 260.459224 50.926271 
L 260.102104 59.945218 
L 259.834264 66.84206 
L 259.744984 67.107323 
L 259.566424 63.658902 
L 259.209304 54.905218 
L 259.030744 53.844165 
L 258.941464 53.844165 
L 258.584344 55.435744 
L 258.405784 55.701007 
L 258.316504 55.435744 
L 258.137944 53.313639 
L 257.334424 38.458902 
L 257.245144 38.458902 
L 256.977304 38.989428 
L 256.709464 38.989428 
L 255.995224 40.846271 
L 255.905944 40.846271 
L 255.548824 41.64206 
L 255.280984 41.64206 
L 255.102424 41.376797 
L 254.656024 42.43785 
L 254.388184 42.43785 
L 253.941784 44.029428 
L 253.584664 45.621007 
L 253.406104 46.416797 
L 253.138264 47.743113 
L 252.156184 47.743113 
L 251.888344 48.273639 
L 251.709784 48.273639 
L 251.441944 48.804165 
L 251.263384 48.804165 
L 250.995544 48.008376 
L 250.816984 48.273639 
L 250.549144 48.273639 
L 250.370584 48.538902 
L 250.192024 48.538902 
L 250.013464 49.069428 
L 249.834904 48.804165 
L 249.745624 48.804165 
L 248.852824 51.191534 
L 248.406424 51.191534 
L 248.227864 50.661007 
L 248.049304 49.599955 
L 247.602904 49.599955 
L 247.424344 49.334692 
L 247.245784 49.334692 
L 246.799384 47.743113 
L 246.442264 45.355744 
L 245.995864 42.172586 
L 245.192344 35.806271 
L 244.745944 34.214692 
L 244.388824 32.623113 
L 243.853144 31.296797 
L 243.674584 31.296797 
L 243.317464 30.501007 
L 243.228184 30.501007 
L 243.049624 30.235744 
L 242.871064 30.235744 
L 242.692504 30.501007 
L 242.424664 30.501007 
L 241.531864 32.888376 
L 240.996184 31.56206 
L 240.906904 31.56206 
L 240.728344 31.827323 
L 240.371224 31.827323 
L 239.924824 30.235744 
L 239.389144 27.583113 
L 239.210584 27.31785 
L 238.942744 27.848376 
L 238.674904 27.848376 
L 238.407064 26.787323 
L 238.139224 25.726271 
L 237.960664 25.461007 
L 237.871384 25.461007 
L 237.692824 25.726271 
L 237.335704 25.726271 
L 237.157144 25.991534 
L 236.978584 25.991534 
L 236.710744 25.461007 
L 236.621464 25.461007 
L 236.442904 25.195744 
L 236.264344 25.195744 
L 235.996504 25.726271 
L 235.907224 25.726271 
L 235.728664 25.991534 
L 235.550104 25.991534 
L 235.192984 26.787323 
L 235.103704 26.787323 
L 235.014424 27.052586 
L 234.835864 26.787323 
L 234.657304 26.787323 
L 234.478744 26.52206 
L 234.210904 26.52206 
L 234.121624 26.256797 
L 233.943064 26.52206 
L 233.675224 26.52206 
L 232.960984 24.665218 
L 232.782424 24.665218 
L 232.603864 24.399955 
L 232.336024 24.399955 
L 231.621784 22.543113 
L 231.264664 22.543113 
L 231.086104 22.27785 
L 230.996824 22.27785 
L 230.461144 20.421007 
L 230.193304 19.359955 
L 229.121944 22.27785 
L 228.586264 22.27785 
L 228.318424 21.216797 
L 228.139864 20.421007 
L 228.050584 20.421007 
L 227.425624 23.869428 
L 227.336344 23.869428 
L 226.711384 21.747323 
L 226.622104 21.216797 
L 226.443544 22.012586 
L 226.264984 22.808376 
L 226.175704 22.808376 
L 225.729304 21.747323 
L 225.372184 21.747323 
L 225.193624 21.48206 
L 225.104344 21.48206 
L 224.925784 22.808376 
L 224.657944 25.991534 
L 223.943704 22.27785 
L 223.854424 22.27785 
L 223.675864 23.073639 
L 223.497304 23.073639 
L 223.229464 23.604165 
L 223.050904 22.808376 
L 222.872344 22.808376 
L 222.783064 23.073639 
L 222.693784 22.808376 
L 222.425944 20.686271 
L 222.247384 21.48206 
L 222.068824 23.073639 
L 221.979544 23.073639 
L 221.533144 21.48206 
L 221.354584 20.951534 
L 221.176024 21.747323 
L 220.997464 22.543113 
L 220.908184 22.543113 
L 220.818904 22.27785 
L 220.551064 20.421007 
L 220.461784 20.421007 
L 219.747544 24.134692 
L 219.033304 25.991534 
L 218.944024 25.991534 
L 218.586904 27.31785 
L 218.319064 30.235744 
L 217.961944 27.583113 
L 217.783384 28.113639 
L 217.694104 28.113639 
L 217.515544 27.848376 
L 217.426264 27.848376 
L 217.247704 27.583113 
L 217.158424 27.583113 
L 216.622744 28.909428 
L 216.444184 28.909428 
L 216.265624 28.644165 
L 215.729944 29.970481 
L 215.551384 29.970481 
L 215.283544 29.439955 
L 215.194264 29.439955 
L 215.015704 29.174692 
L 214.837144 29.174692 
L 214.747864 29.439955 
L 214.390744 28.378902 
L 213.676504 30.235744 
L 213.497944 30.235744 
L 213.230104 29.705218 
L 213.051544 29.705218 
L 212.872984 29.970481 
L 212.694424 29.970481 
L 212.158744 28.644165 
L 211.890904 28.644165 
L 211.533784 27.31785 
L 210.908824 24.134692 
L 210.640984 25.195744 
L 210.373144 25.195744 
L 210.016024 23.604165 
L 209.748184 23.073639 
L 209.658904 23.073639 
L 209.480344 23.338902 
L 209.391064 23.338902 
L 209.123224 21.48206 
L 208.855384 19.359955 
L 208.766104 20.155744 
L 208.408984 29.439955 
L 208.319704 29.705218 
L 207.962584 28.909428 
L 207.873304 28.909428 
L 207.159064 27.052586 
L 206.980504 27.052586 
L 206.623384 27.848376 
L 206.534104 27.848376 
L 206.266264 29.970481 
L 206.087704 31.031534 
L 205.909144 30.235744 
L 205.730584 29.439955 
L 205.373464 30.235744 
L 205.105624 29.705218 
L 205.016344 29.705218 
L 204.837784 29.439955 
L 204.748504 29.439955 
L 204.302104 28.378902 
L 204.212824 28.378902 
L 203.944984 29.705218 
L 203.230744 29.705218 
L 202.873624 28.909428 
L 202.605784 28.909428 
L 202.248664 29.705218 
L 202.159384 29.705218 
L 201.980824 29.439955 
L 201.802264 29.439955 
L 201.623704 29.174692 
L 201.534424 29.174692 
L 201.177304 29.970481 
L 200.998744 29.705218 
L 200.730904 29.705218 
L 200.463064 29.174692 
L 200.195224 29.174692 
L 199.838104 29.970481 
L 199.570264 29.970481 
L 199.302424 29.439955 
L 199.034584 29.439955 
L 198.856024 29.705218 
L 198.766744 29.705218 
L 198.498904 30.235744 
L 198.231064 30.235744 
L 198.052504 30.501007 
L 197.963224 30.501007 
L 197.338264 32.092586 
L 196.891864 31.031534 
L 196.802584 31.031534 
L 196.534744 30.501007 
L 196.266904 30.501007 
L 196.088344 30.235744 
L 195.731224 31.031534 
L 195.374104 31.031534 
L 194.749144 33.153639 
L 194.392024 34.745218 
L 194.213464 35.541007 
L 193.945624 36.60206 
L 193.856344 36.60206 
L 193.588504 34.479955 
L 193.409944 33.418902 
L 193.052824 33.418902 
L 192.784984 32.888376 
L 192.606424 32.888376 
L 192.249304 30.235744 
L 192.070744 28.113639 
L 191.624344 34.745218 
L 191.445784 35.275744 
L 191.088664 34.214692 
L 190.999384 34.745218 
L 190.820824 29.174692 
L 190.731544 29.439955 
L 190.374424 27.052586 
L 190.106584 25.991534 
L 190.017304 25.991534 
L 189.838744 25.726271 
L 189.749464 25.726271 
L 189.570904 25.991534 
L 189.213784 25.991534 
L 189.035224 25.726271 
L 188.945944 25.726271 
L 188.678104 25.195744 
L 188.499544 25.461007 
L 188.320984 25.461007 
L 188.142424 25.195744 
L 187.696024 25.195744 
L 187.249624 24.134692 
L 187.160344 24.134692 
L 186.981784 23.869428 
L 186.892504 23.869428 
L 186.713944 23.604165 
L 186.535384 23.604165 
L 186.356824 23.869428 
L 186.088984 23.338902 
L 185.999704 23.338902 
L 185.642584 22.543113 
L 184.928344 22.543113 
L 184.749784 22.27785 
L 184.392664 22.27785 
L 184.214104 22.012586 
L 184.035544 22.012586 
L 183.856984 21.747323 
L 183.142744 21.747323 
L 182.964184 21.48206 
L 182.874904 21.48206 
L 182.696344 21.747323 
L 182.249944 21.747323 
L 182.071384 21.48206 
L 181.892824 21.48206 
L 181.714264 21.216797 
L 181.535704 21.216797 
L 181.357144 20.951534 
L 181.178584 21.216797 
L 181.089304 21.216797 
L 180.910744 20.951534 
L 180.642904 20.951534 
L 180.285784 20.155744 
L 180.196504 20.155744 
L 179.928664 19.625218 
L 179.839384 19.625218 
L 179.660824 19.890481 
L 179.125144 19.890481 
L 178.946584 19.625218 
L 178.857304 19.625218 
L 178.678744 19.359955 
L 178.589464 19.359955 
L 178.410904 19.625218 
L 178.232344 19.359955 
L 178.053784 19.625218 
L 177.964504 19.625218 
L 177.696664 19.094692 
L 177.250264 19.094692 
L 177.071704 19.359955 
L 176.803864 19.359955 
L 176.625304 19.094692 
L 175.821784 19.094692 
L 175.732504 18.829428 
L 175.553944 19.094692 
L 175.375384 19.094692 
L 175.196824 18.829428 
L 175.018264 19.094692 
L 174.928984 19.094692 
L 174.750424 18.829428 
L 174.482584 18.829428 
L 174.304024 19.094692 
L 173.946904 19.094692 
L 173.768344 19.359955 
L 173.589784 19.359955 
L 173.411224 19.094692 
L 173.143384 19.094692 
L 172.964824 19.359955 
L 172.875544 19.359955 
L 172.786264 19.625218 
L 172.607704 19.359955 
L 172.429144 19.359955 
L 172.250584 19.625218 
L 171.447064 19.625218 
L 171.179224 20.155744 
L 171.089944 20.155744 
L 170.911384 20.421007 
L 170.018584 20.421007 
L 169.840024 20.686271 
L 169.750744 20.686271 
L 169.572184 20.421007 
L 169.393624 20.421007 
L 169.125784 20.951534 
L 169.036504 20.951534 
L 168.768664 21.48206 
L 168.322264 21.48206 
L 168.054424 22.012586 
L 167.965144 22.012586 
L 167.697304 22.543113 
L 167.608024 22.543113 
L 167.250904 23.338902 
L 167.161624 23.338902 
L 166.804504 24.134692 
L 166.715224 24.134692 
L 166.447384 24.665218 
L 166.358104 24.665218 
L 165.643864 26.52206 
L 165.554584 26.52206 
L 164.572504 29.174692 
L 164.483224 29.174692 
L 164.036824 30.235744 
L 163.947544 30.235744 
L 163.768984 30.501007 
L 163.411864 30.501007 
L 163.233304 30.235744 
L 163.054744 30.235744 
L 162.876184 29.970481 
L 161.090584 29.970481 
L 160.912024 30.235744 
L 160.733464 29.970481 
L 160.644184 29.970481 
L 160.465624 30.235744 
L 160.376344 30.235744 
L 160.197784 30.501007 
L 159.840664 30.501007 
L 159.662104 30.766271 
L 158.769304 30.766271 
L 158.590744 31.031534 
L 156.805144 31.031534 
L 156.626584 31.296797 
L 156.358744 31.296797 
L 156.090904 30.766271 
L 155.912344 30.766271 
L 155.733784 30.501007 
L 154.930264 30.501007 
L 154.751704 30.766271 
L 154.216024 30.766271 
L 154.037464 31.031534 
L 153.858904 31.031534 
L 153.680344 31.296797 
L 152.519704 31.296797 
L 152.341144 31.56206 
L 152.162584 31.296797 
L 152.073304 31.296797 
L 151.894744 31.56206 
L 151.805464 31.56206 
L 151.626904 31.827323 
L 151.359064 31.827323 
L 151.091224 32.35785 
L 151.001944 32.35785 
L 150.823384 32.623113 
L 150.644824 32.35785 
L 150.466264 32.35785 
L 150.287704 32.623113 
L 150.198424 32.623113 
L 150.019864 32.888376 
L 149.841304 32.888376 
L 149.662744 33.153639 
L 149.484184 33.153639 
L 149.305624 33.418902 
L 149.216344 33.418902 
L 148.948504 33.949428 
L 148.859224 33.949428 
L 147.698584 37.663113 
L 146.984344 41.376797 
L 146.805784 41.64206 
L 146.627224 41.64206 
L 145.466584 38.458902 
L 145.020184 38.458902 
L 144.752344 37.928376 
L 144.663064 37.928376 
L 144.484504 37.663113 
L 144.395224 37.663113 
L 144.216664 37.39785 
L 143.948824 37.39785 
L 143.680984 37.928376 
L 143.591704 37.928376 
L 143.234584 38.724165 
L 143.145304 38.724165 
L 142.073944 42.172586 
L 141.448984 46.416797 
L 141.091864 48.804165 
L 140.824024 49.865218 
L 140.734744 50.130481 
L 140.556184 49.334692 
L 140.288344 47.212586 
L 139.574104 41.64206 
L 139.216984 40.050481 
L 139.127704 40.050481 
L 138.949144 39.785218 
L 138.859864 39.785218 
L 138.413464 41.376797 
L 138.234904 41.907323 
L 138.056344 41.907323 
L 137.609944 38.724165 
L 137.342104 36.867323 
L 136.717144 35.275744 
L 136.538584 35.275744 
L 136.270744 34.745218 
L 136.002904 34.745218 
L 135.735064 35.275744 
L 135.288664 35.275744 
L 134.574424 37.39785 
L 134.306584 36.336797 
L 134.038744 35.275744 
L 133.592344 34.214692 
L 133.235224 34.214692 
L 132.788824 35.275744 
L 132.699544 35.275744 
L 132.431704 36.336797 
L 132.074584 40.050481 
L 131.449624 50.130481 
L 131.360344 50.130481 
L 131.271064 49.599955 
L 130.646104 41.111534 
L 130.467544 41.376797 
L 130.288984 40.846271 
L 129.931864 35.806271 
L 129.485464 29.439955 
L 129.306904 29.174692 
L 129.217624 29.174692 
L 128.771224 30.235744 
L 128.681944 30.235744 
L 128.503384 29.705218 
L 128.146264 25.726271 
L 127.789144 22.012586 
L 127.521304 21.48206 
L 127.253464 22.27785 
L 126.807064 25.461007 
L 126.717784 25.461007 
L 126.449944 23.338902 
L 126.182104 21.48206 
L 125.914264 20.951534 
L 125.110744 20.951534 
L 124.932184 21.216797 
L 124.664344 21.216797 
L 124.128664 19.890481 
L 124.039384 19.890481 
L 123.860824 19.625218 
L 123.682264 19.625218 
L 123.503704 19.890481 
L 123.057304 19.890481 
L 122.878744 20.155744 
L 121.360984 20.155744 
L 121.182424 20.421007 
L 120.200344 20.421007 
L 120.021784 20.686271 
L 119.486104 20.686271 
L 119.307544 20.421007 
L 119.218264 20.421007 
L 119.039704 20.686271 
L 118.414744 20.686271 
L 118.146904 21.216797 
L 117.968344 21.216797 
L 117.879064 21.48206 
L 117.700504 21.216797 
L 117.343384 21.216797 
L 117.164824 21.48206 
L 116.450584 21.48206 
L 116.272024 21.747323 
L 116.182744 21.747323 
L 116.004184 21.48206 
L 115.914904 21.48206 
L 115.647064 22.012586 
L 115.468504 22.012586 
L 115.289944 22.27785 
L 114.307864 22.27785 
L 114.040024 22.808376 
L 113.861464 22.808376 
L 113.682904 22.543113 
L 113.504344 22.543113 
L 113.325784 22.808376 
L 113.236504 22.808376 
L 113.057944 23.073639 
L 112.700824 23.073639 
L 112.432984 23.604165 
L 111.450904 23.604165 
L 111.183064 24.134692 
L 110.825944 24.134692 
L 110.558104 24.665218 
L 109.843864 24.665218 
L 109.576024 25.195744 
L 109.129624 25.195744 
L 108.951064 24.930481 
L 108.861784 24.930481 
L 108.504664 25.726271 
L 108.326104 25.726271 
L 108.058264 26.256797 
L 107.879704 26.256797 
L 107.701144 25.991534 
L 107.433304 25.991534 
L 107.254744 26.256797 
L 106.719064 26.256797 
L 106.540504 26.52206 
L 106.451224 26.52206 
L 106.272664 26.787323 
L 105.826264 26.787323 
L 105.647704 27.052586 
L 104.844184 27.052586 
L 104.665624 27.31785 
L 104.308504 27.31785 
L 104.129944 27.583113 
L 103.772824 27.583113 
L 103.594264 27.848376 
L 103.326424 27.848376 
L 103.147864 28.113639 
L 102.880024 28.113639 
L 102.701464 27.848376 
L 102.344344 27.848376 
L 102.165784 28.113639 
L 101.451544 28.113639 
L 101.272984 28.378902 
L 100.826584 28.378902 
L 100.648024 28.113639 
L 100.469464 28.113639 
L 100.290904 28.378902 
L 100.201624 28.378902 
L 100.023064 28.644165 
L 99.933784 28.644165 
L 99.665944 28.113639 
L 99.040984 28.113639 
L 98.862424 28.378902 
L 98.594584 28.378902 
L 98.416024 28.113639 
L 98.326744 28.113639 
L 98.148184 27.848376 
L 97.969624 27.848376 
L 97.791064 28.113639 
L 96.541144 28.113639 
L 96.362584 27.848376 
L 96.005464 27.848376 
L 95.826904 27.583113 
L 95.648344 27.848376 
L 95.380504 27.848376 
L 95.201944 27.583113 
L 95.023384 27.583113 
L 94.844824 27.31785 
L 94.666264 27.31785 
L 94.398424 27.848376 
L 94.219864 27.848376 
L 93.952024 27.31785 
L 93.684184 27.31785 
L 93.505624 27.052586 
L 93.059224 27.052586 
L 92.880664 26.787323 
L 92.702104 26.787323 
L 92.523544 26.52206 
L 92.344984 26.52206 
L 92.077144 25.991534 
L 91.630744 25.991534 
L 91.452184 25.726271 
L 90.737944 25.726271 
L 90.648664 25.461007 
L 90.470104 25.726271 
L 90.112984 24.930481 
L 89.488024 24.930481 
L 89.309464 24.665218 
L 89.220184 24.665218 
L 89.041624 24.930481 
L 88.773784 24.930481 
L 88.505944 24.399955 
L 88.238104 24.399955 
L 87.702424 23.073639 
L 87.613144 23.073639 
L 87.523864 22.808376 
L 86.988184 24.134692 
L 86.809624 24.134692 
L 86.184664 22.543113 
L 86.095384 22.543113 
L 85.916824 22.27785 
L 85.738264 22.27785 
L 85.559704 22.012586 
L 85.202584 22.808376 
L 85.113304 22.808376 
L 84.577624 21.48206 
L 84.488344 21.48206 
L 84.309784 21.216797 
L 84.220504 21.216797 
L 84.041944 20.951534 
L 83.952664 20.951534 
L 83.774104 21.216797 
L 83.684824 21.216797 
L 83.506264 22.012586 
L 83.238424 23.073639 
L 83.059864 22.27785 
L 82.702744 19.625218 
L 82.345624 19.625218 
L 82.077784 19.094692 
L 81.988504 19.094692 
L 81.809944 19.625218 
L 81.452824 22.27785 
L 81.274264 22.543113 
L 80.738584 21.216797 
L 80.470744 21.747323 
L 80.381464 21.747323 
L 80.202904 20.951534 
L 80.024344 20.951534 
L 79.845784 21.747323 
L 79.220824 24.930481 
L 78.774424 25.991534 
L 78.417304 24.399955 
L 78.238744 23.604165 
L 78.149464 23.073639 
L 77.970904 23.869428 
L 77.703064 25.461007 
L 77.524504 25.461007 
L 77.345944 23.604165 
L 77.078104 20.421007 
L 76.810264 19.359955 
L 76.453144 17.768376 
L 76.363864 17.768376 
L 76.185304 18.564165 
L 75.917464 20.155744 
L 75.828184 19.625218 
L 75.292504 13.258902 
L 75.113944 12.463113 
L 74.756824 11.136797 
L 74.667544 11.40206 
L 74.488984 12.19785 
L 73.685464 21.216797 
L 73.149784 17.503113 
L 72.971224 16.44206 
L 72.792664 16.972586 
L 72.346264 20.421007 
L 72.256984 20.421007 
L 72.078424 19.625218 
L 71.810584 17.503113 
L 71.632024 17.23785 
L 71.542744 17.23785 
L 71.274904 18.298902 
L 71.007064 18.829428 
L 70.917784 18.829428 
L 70.649944 19.625218 
L 70.382104 21.747323 
L 70.292824 21.747323 
L 70.203544 21.48206 
L 70.024984 20.421007 
L 69.578584 20.421007 
L 69.132184 21.48206 
L 68.864344 20.951534 
L 68.685784 21.747323 
L 68.507224 23.073639 
L 68.150104 26.256797 
L 67.882264 23.338902 
L 67.792984 23.338902 
L 67.703704 23.604165 
L 67.525144 25.195744 
L 67.435864 25.195744 
L 67.346584 25.461007 
L 67.078744 29.439955 
L 66.721624 26.787323 
L 66.364504 24.399955 
L 66.096664 23.338902 
L 65.918104 23.073639 
L 65.471704 23.073639 
L 65.293144 24.134692 
L 65.203864 24.399955 
L 64.936024 23.338902 
L 64.578904 22.543113 
L 64.132504 23.604165 
L 63.953944 23.604165 
L 63.596824 22.808376 
L 63.418264 22.808376 
L 63.239704 22.543113 
L 63.061144 23.338902 
L 62.614744 26.256797 
L 62.436184 27.583113 
L 62.346904 27.31785 
L 62.257624 26.52206 
L 62.168344 26.787323 
L 61.989784 27.583113 
L 61.632664 24.399955 
L 61.454104 24.665218 
L 61.364824 24.665218 
L 60.829144 28.113639 
L 60.650584 29.174692 
L 60.382744 27.583113 
L 60.293464 27.583113 
L 60.204184 27.31785 
L 60.025624 25.461007 
L 59.936344 25.461007 
L 59.489944 26.787323 
L 59.222104 28.909428 
L 59.043544 29.174692 
L 58.864984 28.909428 
L 58.775704 28.909428 
L 58.240024 25.991534 
L 58.061464 27.31785 
L 57.793624 30.235744 
L 57.704344 30.235744 
L 57.525784 29.439955 
L 57.347224 29.439955 
L 56.900824 27.052586 
L 56.543704 28.113639 
L 56.365144 29.439955 
L 56.275864 29.174692 
L 56.097304 28.378902 
L 55.918744 28.644165 
L 55.650904 26.787323 
L 55.383064 27.31785 
L 55.293784 27.052586 
L 55.204504 27.31785 
L 55.025944 28.644165 
L 54.936664 28.644165 
L 54.668824 26.787323 
L 54.490264 27.848376 
L 54.043864 25.726271 
L 53.508184 27.583113 
L 53.329624 29.174692 
L 53.240344 29.174692 
L 52.972504 27.052586 
L 52.526104 23.604165 
L 52.436824 23.338902 
L 51.901144 24.665218 
L 51.454744 24.665218 
L 51.097624 23.869428 
L 50.829784 24.399955 
L 50.561944 24.399955 
L 50.026264 23.073639 
L 49.847704 23.338902 
L 49.669144 23.338902 
L 49.490584 23.604165 
L 49.401304 23.604165 
L 48.597784 21.48206 
L 48.240664 21.48206 
L 48.062104 21.747323 
L 47.972824 21.747323 
L 47.704984 21.216797 
L 47.615704 21.216797 
L 47.437144 20.951534 
L 47.258584 20.951534 
L 47.080024 21.216797 
L 46.812184 20.686271 
L 46.722904 20.686271 
L 46.544344 20.421007 
L 46.365784 20.421007 
L 46.187224 20.155744 
L 45.740824 20.155744 
L 45.562264 20.421007 
L 45.383704 20.155744 
L 44.848024 20.155744 
L 44.669464 19.625218 
L 44.490904 19.890481 
L 44.401624 19.890481 
L 44.312344 19.625218 
L 44.312344 19.625218 
" clip-path="url(#p730f87d6c6)" style="fill: none; stroke: #1f77b4; stroke-linecap: round"/>
   </g>
   <g id="patch_3">
    <path d="M 44.312344 277.248797 
L 44.312344 11.136797 
" style="fill: none; stroke: #262626; stroke-width: 1.25; stroke-linejoin: miter; stroke-linecap: square"/>
   </g>
   <g id="patch_4">
    <path d="M 401.432344 277.248797 
L 401.432344 11.136797 
" style="fill: none; stroke: #262626; stroke-width: 1.25; stroke-linejoin: miter; stroke-linecap: square"/>
   </g>
   <g id="patch_5">
    <path d="M 44.312344 277.248797 
L 401.432344 277.248797 
" style="fill: none; stroke: #262626; stroke-width: 1.25; stroke-linejoin: miter; stroke-linecap: square"/>
   </g>
   <g id="patch_6">
    <path d="M 44.312344 11.136797 
L 401.432344 11.136797 
" style="fill: none; stroke: #262626; stroke-width: 1.25; stroke-linejoin: miter; stroke-linecap: square"/>
   </g>
   <g id="legend_1"/>
  </g>
 </g>
 <defs>
  <clipPath id="p730f87d6c6">
   <rect x="44.312344" y="11.136797" width="357.12" height="266.112"/>
  </clipPath>
 </defs>
</svg>
