<?xml version="1.0" encoding="utf-8" standalone="no"?>
<!DOCTYPE svg PUBLIC "-//W3C//DTD SVG 1.1//EN"
  "http://www.w3.org/Graphics/SVG/1.1/DTD/svg11.dtd">
<svg xmlns:xlink="http://www.w3.org/1999/xlink" width="417.805313pt" height="313.269891pt" viewBox="0 0 417.805313 313.269891" xmlns="http://www.w3.org/2000/svg" version="1.1">
 <metadata>
  <rdf:RDF xmlns:dc="http://purl.org/dc/elements/1.1/" xmlns:cc="http://creativecommons.org/ns#" xmlns:rdf="http://www.w3.org/1999/02/22-rdf-syntax-ns#">
   <cc:Work>
    <dc:type rdf:resource="http://purl.org/dc/dcmitype/StillImage"/>
    <dc:date>2024-04-24T10:25:20.355108</dc:date>
    <dc:format>image/svg+xml</dc:format>
    <dc:creator>
     <cc:Agent>
      <dc:title>Matplotlib v3.7.1, https://matplotlib.org/</dc:title>
     </cc:Agent>
    </dc:creator>
   </cc:Work>
  </rdf:RDF>
 </metadata>
 <defs>
  <style type="text/css">*{stroke-linejoin: round; stroke-linecap: butt}</style>
 </defs>
 <g id="figure_1">
  <g id="patch_1">
   <path d="M 0 313.269891 
L 417.805313 313.269891 
L 417.805313 0 
L 0 0 
z
" style="fill: #ffffff"/>
  </g>
  <g id="axes_1">
   <g id="patch_2">
    <path d="M 41.25125 277.248797 
L 398.37125 277.248797 
L 398.37125 11.136797 
L 41.25125 11.136797 
z
" style="fill: #ffffff"/>
   </g>
   <g id="matplotlib.axis_1">
    <g id="xtick_1">
     <g id="line2d_1">
      <defs>
       <path id="m00addece3a" d="M 0 0 
L 0 -6 
" style="stroke: #262626; stroke-width: 1.25"/>
      </defs>
      <g>
       <use xlink:href="#m00addece3a" x="73.716705" y="277.248797" style="fill: #262626; stroke: #262626; stroke-width: 1.25"/>
      </g>
     </g>
     <g id="text_1">
      <!-- 400 -->
      <g style="fill: #262626" transform="translate(64.541158 288.622391) scale(0.11 -0.11)">
       <defs>
        <path id="ArialMT-34" d="M 2069 0 
L 2069 1097 
L 81 1097 
L 81 1613 
L 2172 4581 
L 2631 4581 
L 2631 1613 
L 3250 1613 
L 3250 1097 
L 2631 1097 
L 2631 0 
L 2069 0 
z
M 2069 1613 
L 2069 3678 
L 634 1613 
L 2069 1613 
z
" transform="scale(0.015625)"/>
        <path id="ArialMT-30" d="M 266 2259 
Q 266 3072 433 3567 
Q 600 4063 929 4331 
Q 1259 4600 1759 4600 
Q 2128 4600 2406 4451 
Q 2684 4303 2865 4023 
Q 3047 3744 3150 3342 
Q 3253 2941 3253 2259 
Q 3253 1453 3087 958 
Q 2922 463 2592 192 
Q 2263 -78 1759 -78 
Q 1097 -78 719 397 
Q 266 969 266 2259 
z
M 844 2259 
Q 844 1131 1108 757 
Q 1372 384 1759 384 
Q 2147 384 2411 759 
Q 2675 1134 2675 2259 
Q 2675 3391 2411 3762 
Q 2147 4134 1753 4134 
Q 1366 4134 1134 3806 
Q 844 3388 844 2259 
z
" transform="scale(0.015625)"/>
       </defs>
       <use xlink:href="#ArialMT-34"/>
       <use xlink:href="#ArialMT-30" x="55.615234"/>
       <use xlink:href="#ArialMT-30" x="111.230469"/>
      </g>
     </g>
    </g>
    <g id="xtick_2">
     <g id="line2d_2">
      <g>
       <use xlink:href="#m00addece3a" x="138.647614" y="277.248797" style="fill: #262626; stroke: #262626; stroke-width: 1.25"/>
      </g>
     </g>
     <g id="text_2">
      <!-- 600 -->
      <g style="fill: #262626" transform="translate(129.472067 288.622391) scale(0.11 -0.11)">
       <defs>
        <path id="ArialMT-36" d="M 3184 3459 
L 2625 3416 
Q 2550 3747 2413 3897 
Q 2184 4138 1850 4138 
Q 1581 4138 1378 3988 
Q 1113 3794 959 3422 
Q 806 3050 800 2363 
Q 1003 2672 1297 2822 
Q 1591 2972 1913 2972 
Q 2475 2972 2870 2558 
Q 3266 2144 3266 1488 
Q 3266 1056 3080 686 
Q 2894 316 2569 119 
Q 2244 -78 1831 -78 
Q 1128 -78 684 439 
Q 241 956 241 2144 
Q 241 3472 731 4075 
Q 1159 4600 1884 4600 
Q 2425 4600 2770 4297 
Q 3116 3994 3184 3459 
z
M 888 1484 
Q 888 1194 1011 928 
Q 1134 663 1356 523 
Q 1578 384 1822 384 
Q 2178 384 2434 671 
Q 2691 959 2691 1453 
Q 2691 1928 2437 2201 
Q 2184 2475 1800 2475 
Q 1419 2475 1153 2201 
Q 888 1928 888 1484 
z
" transform="scale(0.015625)"/>
       </defs>
       <use xlink:href="#ArialMT-36"/>
       <use xlink:href="#ArialMT-30" x="55.615234"/>
       <use xlink:href="#ArialMT-30" x="111.230469"/>
      </g>
     </g>
    </g>
    <g id="xtick_3">
     <g id="line2d_3">
      <g>
       <use xlink:href="#m00addece3a" x="203.578523" y="277.248797" style="fill: #262626; stroke: #262626; stroke-width: 1.25"/>
      </g>
     </g>
     <g id="text_3">
      <!-- 800 -->
      <g style="fill: #262626" transform="translate(194.402976 288.622391) scale(0.11 -0.11)">
       <defs>
        <path id="ArialMT-38" d="M 1131 2484 
Q 781 2613 612 2850 
Q 444 3088 444 3419 
Q 444 3919 803 4259 
Q 1163 4600 1759 4600 
Q 2359 4600 2725 4251 
Q 3091 3903 3091 3403 
Q 3091 3084 2923 2848 
Q 2756 2613 2416 2484 
Q 2838 2347 3058 2040 
Q 3278 1734 3278 1309 
Q 3278 722 2862 322 
Q 2447 -78 1769 -78 
Q 1091 -78 675 323 
Q 259 725 259 1325 
Q 259 1772 486 2073 
Q 713 2375 1131 2484 
z
M 1019 3438 
Q 1019 3113 1228 2906 
Q 1438 2700 1772 2700 
Q 2097 2700 2305 2904 
Q 2513 3109 2513 3406 
Q 2513 3716 2298 3927 
Q 2084 4138 1766 4138 
Q 1444 4138 1231 3931 
Q 1019 3725 1019 3438 
z
M 838 1322 
Q 838 1081 952 856 
Q 1066 631 1291 507 
Q 1516 384 1775 384 
Q 2178 384 2440 643 
Q 2703 903 2703 1303 
Q 2703 1709 2433 1975 
Q 2163 2241 1756 2241 
Q 1359 2241 1098 1978 
Q 838 1716 838 1322 
z
" transform="scale(0.015625)"/>
       </defs>
       <use xlink:href="#ArialMT-38"/>
       <use xlink:href="#ArialMT-30" x="55.615234"/>
       <use xlink:href="#ArialMT-30" x="111.230469"/>
      </g>
     </g>
    </g>
    <g id="xtick_4">
     <g id="line2d_4">
      <g>
       <use xlink:href="#m00addece3a" x="268.509432" y="277.248797" style="fill: #262626; stroke: #262626; stroke-width: 1.25"/>
      </g>
     </g>
     <g id="text_4">
      <!-- 1000 -->
      <g style="fill: #262626" transform="translate(256.275369 288.622391) scale(0.11 -0.11)">
       <defs>
        <path id="ArialMT-31" d="M 2384 0 
L 1822 0 
L 1822 3584 
Q 1619 3391 1289 3197 
Q 959 3003 697 2906 
L 697 3450 
Q 1169 3672 1522 3987 
Q 1875 4303 2022 4600 
L 2384 4600 
L 2384 0 
z
" transform="scale(0.015625)"/>
       </defs>
       <use xlink:href="#ArialMT-31"/>
       <use xlink:href="#ArialMT-30" x="55.615234"/>
       <use xlink:href="#ArialMT-30" x="111.230469"/>
       <use xlink:href="#ArialMT-30" x="166.845703"/>
      </g>
     </g>
    </g>
    <g id="xtick_5">
     <g id="line2d_5">
      <g>
       <use xlink:href="#m00addece3a" x="333.440341" y="277.248797" style="fill: #262626; stroke: #262626; stroke-width: 1.25"/>
      </g>
     </g>
     <g id="text_5">
      <!-- 1200 -->
      <g style="fill: #262626" transform="translate(321.206278 288.622391) scale(0.11 -0.11)">
       <defs>
        <path id="ArialMT-32" d="M 3222 541 
L 3222 0 
L 194 0 
Q 188 203 259 391 
Q 375 700 629 1000 
Q 884 1300 1366 1694 
Q 2113 2306 2375 2664 
Q 2638 3022 2638 3341 
Q 2638 3675 2398 3904 
Q 2159 4134 1775 4134 
Q 1369 4134 1125 3890 
Q 881 3647 878 3216 
L 300 3275 
Q 359 3922 746 4261 
Q 1134 4600 1788 4600 
Q 2447 4600 2831 4234 
Q 3216 3869 3216 3328 
Q 3216 3053 3103 2787 
Q 2991 2522 2730 2228 
Q 2469 1934 1863 1422 
Q 1356 997 1212 845 
Q 1069 694 975 541 
L 3222 541 
z
" transform="scale(0.015625)"/>
       </defs>
       <use xlink:href="#ArialMT-31"/>
       <use xlink:href="#ArialMT-32" x="55.615234"/>
       <use xlink:href="#ArialMT-30" x="111.230469"/>
       <use xlink:href="#ArialMT-30" x="166.845703"/>
      </g>
     </g>
    </g>
    <g id="xtick_6">
     <g id="line2d_6">
      <g>
       <use xlink:href="#m00addece3a" x="398.37125" y="277.248797" style="fill: #262626; stroke: #262626; stroke-width: 1.25"/>
      </g>
     </g>
     <g id="text_6">
      <!-- 1400 -->
      <g style="fill: #262626" transform="translate(386.137188 288.622391) scale(0.11 -0.11)">
       <use xlink:href="#ArialMT-31"/>
       <use xlink:href="#ArialMT-34" x="55.615234"/>
       <use xlink:href="#ArialMT-30" x="111.230469"/>
       <use xlink:href="#ArialMT-30" x="166.845703"/>
      </g>
     </g>
    </g>
    <g id="xtick_7">
     <g id="line2d_7">
      <defs>
       <path id="mf56b8ffc44" d="M 0 0 
L 0 -4 
" style="stroke: #262626"/>
      </defs>
      <g>
       <use xlink:href="#mf56b8ffc44" x="106.182159" y="277.248797" style="fill: #262626; stroke: #262626"/>
      </g>
     </g>
    </g>
    <g id="xtick_8">
     <g id="line2d_8">
      <g>
       <use xlink:href="#mf56b8ffc44" x="171.113068" y="277.248797" style="fill: #262626; stroke: #262626"/>
      </g>
     </g>
    </g>
    <g id="xtick_9">
     <g id="line2d_9">
      <g>
       <use xlink:href="#mf56b8ffc44" x="236.043977" y="277.248797" style="fill: #262626; stroke: #262626"/>
      </g>
     </g>
    </g>
    <g id="xtick_10">
     <g id="line2d_10">
      <g>
       <use xlink:href="#mf56b8ffc44" x="300.974886" y="277.248797" style="fill: #262626; stroke: #262626"/>
      </g>
     </g>
    </g>
    <g id="xtick_11">
     <g id="line2d_11">
      <g>
       <use xlink:href="#mf56b8ffc44" x="365.905795" y="277.248797" style="fill: #262626; stroke: #262626"/>
      </g>
     </g>
    </g>
    <g id="text_7">
     <!-- Wavelength (nm) -->
     <g style="fill: #262626" transform="translate(174.356562 303.544266) scale(0.12 -0.12)">
      <defs>
       <path id="ArialMT-57" d="M 1294 0 
L 78 4581 
L 700 4581 
L 1397 1578 
Q 1509 1106 1591 641 
Q 1766 1375 1797 1488 
L 2669 4581 
L 3400 4581 
L 4056 2263 
Q 4303 1400 4413 641 
Q 4500 1075 4641 1638 
L 5359 4581 
L 5969 4581 
L 4713 0 
L 4128 0 
L 3163 3491 
Q 3041 3928 3019 4028 
Q 2947 3713 2884 3491 
L 1913 0 
L 1294 0 
z
" transform="scale(0.015625)"/>
       <path id="ArialMT-61" d="M 2588 409 
Q 2275 144 1986 34 
Q 1697 -75 1366 -75 
Q 819 -75 525 192 
Q 231 459 231 875 
Q 231 1119 342 1320 
Q 453 1522 633 1644 
Q 813 1766 1038 1828 
Q 1203 1872 1538 1913 
Q 2219 1994 2541 2106 
Q 2544 2222 2544 2253 
Q 2544 2597 2384 2738 
Q 2169 2928 1744 2928 
Q 1347 2928 1158 2789 
Q 969 2650 878 2297 
L 328 2372 
Q 403 2725 575 2942 
Q 747 3159 1072 3276 
Q 1397 3394 1825 3394 
Q 2250 3394 2515 3294 
Q 2781 3194 2906 3042 
Q 3031 2891 3081 2659 
Q 3109 2516 3109 2141 
L 3109 1391 
Q 3109 606 3145 398 
Q 3181 191 3288 0 
L 2700 0 
Q 2613 175 2588 409 
z
M 2541 1666 
Q 2234 1541 1622 1453 
Q 1275 1403 1131 1340 
Q 988 1278 909 1158 
Q 831 1038 831 891 
Q 831 666 1001 516 
Q 1172 366 1500 366 
Q 1825 366 2078 508 
Q 2331 650 2450 897 
Q 2541 1088 2541 1459 
L 2541 1666 
z
" transform="scale(0.015625)"/>
       <path id="ArialMT-76" d="M 1344 0 
L 81 3319 
L 675 3319 
L 1388 1331 
Q 1503 1009 1600 663 
Q 1675 925 1809 1294 
L 2547 3319 
L 3125 3319 
L 1869 0 
L 1344 0 
z
" transform="scale(0.015625)"/>
       <path id="ArialMT-65" d="M 2694 1069 
L 3275 997 
Q 3138 488 2766 206 
Q 2394 -75 1816 -75 
Q 1088 -75 661 373 
Q 234 822 234 1631 
Q 234 2469 665 2931 
Q 1097 3394 1784 3394 
Q 2450 3394 2872 2941 
Q 3294 2488 3294 1666 
Q 3294 1616 3291 1516 
L 816 1516 
Q 847 969 1125 678 
Q 1403 388 1819 388 
Q 2128 388 2347 550 
Q 2566 713 2694 1069 
z
M 847 1978 
L 2700 1978 
Q 2663 2397 2488 2606 
Q 2219 2931 1791 2931 
Q 1403 2931 1139 2672 
Q 875 2413 847 1978 
z
" transform="scale(0.015625)"/>
       <path id="ArialMT-6c" d="M 409 0 
L 409 4581 
L 972 4581 
L 972 0 
L 409 0 
z
" transform="scale(0.015625)"/>
       <path id="ArialMT-6e" d="M 422 0 
L 422 3319 
L 928 3319 
L 928 2847 
Q 1294 3394 1984 3394 
Q 2284 3394 2536 3286 
Q 2788 3178 2913 3003 
Q 3038 2828 3088 2588 
Q 3119 2431 3119 2041 
L 3119 0 
L 2556 0 
L 2556 2019 
Q 2556 2363 2490 2533 
Q 2425 2703 2258 2804 
Q 2091 2906 1866 2906 
Q 1506 2906 1245 2678 
Q 984 2450 984 1813 
L 984 0 
L 422 0 
z
" transform="scale(0.015625)"/>
       <path id="ArialMT-67" d="M 319 -275 
L 866 -356 
Q 900 -609 1056 -725 
Q 1266 -881 1628 -881 
Q 2019 -881 2231 -725 
Q 2444 -569 2519 -288 
Q 2563 -116 2559 434 
Q 2191 0 1641 0 
Q 956 0 581 494 
Q 206 988 206 1678 
Q 206 2153 378 2554 
Q 550 2956 876 3175 
Q 1203 3394 1644 3394 
Q 2231 3394 2613 2919 
L 2613 3319 
L 3131 3319 
L 3131 450 
Q 3131 -325 2973 -648 
Q 2816 -972 2473 -1159 
Q 2131 -1347 1631 -1347 
Q 1038 -1347 672 -1080 
Q 306 -813 319 -275 
z
M 784 1719 
Q 784 1066 1043 766 
Q 1303 466 1694 466 
Q 2081 466 2343 764 
Q 2606 1063 2606 1700 
Q 2606 2309 2336 2618 
Q 2066 2928 1684 2928 
Q 1309 2928 1046 2623 
Q 784 2319 784 1719 
z
" transform="scale(0.015625)"/>
       <path id="ArialMT-74" d="M 1650 503 
L 1731 6 
Q 1494 -44 1306 -44 
Q 1000 -44 831 53 
Q 663 150 594 308 
Q 525 466 525 972 
L 525 2881 
L 113 2881 
L 113 3319 
L 525 3319 
L 525 4141 
L 1084 4478 
L 1084 3319 
L 1650 3319 
L 1650 2881 
L 1084 2881 
L 1084 941 
Q 1084 700 1114 631 
Q 1144 563 1211 522 
Q 1278 481 1403 481 
Q 1497 481 1650 503 
z
" transform="scale(0.015625)"/>
       <path id="ArialMT-68" d="M 422 0 
L 422 4581 
L 984 4581 
L 984 2938 
Q 1378 3394 1978 3394 
Q 2347 3394 2619 3248 
Q 2891 3103 3008 2847 
Q 3125 2591 3125 2103 
L 3125 0 
L 2563 0 
L 2563 2103 
Q 2563 2525 2380 2717 
Q 2197 2909 1863 2909 
Q 1613 2909 1392 2779 
Q 1172 2650 1078 2428 
Q 984 2206 984 1816 
L 984 0 
L 422 0 
z
" transform="scale(0.015625)"/>
       <path id="ArialMT-20" transform="scale(0.015625)"/>
       <path id="ArialMT-28" d="M 1497 -1347 
Q 1031 -759 709 28 
Q 388 816 388 1659 
Q 388 2403 628 3084 
Q 909 3875 1497 4659 
L 1900 4659 
Q 1522 4009 1400 3731 
Q 1209 3300 1100 2831 
Q 966 2247 966 1656 
Q 966 153 1900 -1347 
L 1497 -1347 
z
" transform="scale(0.015625)"/>
       <path id="ArialMT-6d" d="M 422 0 
L 422 3319 
L 925 3319 
L 925 2853 
Q 1081 3097 1340 3245 
Q 1600 3394 1931 3394 
Q 2300 3394 2536 3241 
Q 2772 3088 2869 2813 
Q 3263 3394 3894 3394 
Q 4388 3394 4653 3120 
Q 4919 2847 4919 2278 
L 4919 0 
L 4359 0 
L 4359 2091 
Q 4359 2428 4304 2576 
Q 4250 2725 4106 2815 
Q 3963 2906 3769 2906 
Q 3419 2906 3187 2673 
Q 2956 2441 2956 1928 
L 2956 0 
L 2394 0 
L 2394 2156 
Q 2394 2531 2256 2718 
Q 2119 2906 1806 2906 
Q 1569 2906 1367 2781 
Q 1166 2656 1075 2415 
Q 984 2175 984 1722 
L 984 0 
L 422 0 
z
" transform="scale(0.015625)"/>
       <path id="ArialMT-29" d="M 791 -1347 
L 388 -1347 
Q 1322 153 1322 1656 
Q 1322 2244 1188 2822 
Q 1081 3291 891 3722 
Q 769 4003 388 4659 
L 791 4659 
Q 1378 3875 1659 3084 
Q 1900 2403 1900 1659 
Q 1900 816 1576 28 
Q 1253 -759 791 -1347 
z
" transform="scale(0.015625)"/>
      </defs>
      <use xlink:href="#ArialMT-57"/>
      <use xlink:href="#ArialMT-61" x="90.634766"/>
      <use xlink:href="#ArialMT-76" x="146.25"/>
      <use xlink:href="#ArialMT-65" x="196.25"/>
      <use xlink:href="#ArialMT-6c" x="251.865234"/>
      <use xlink:href="#ArialMT-65" x="274.082031"/>
      <use xlink:href="#ArialMT-6e" x="329.697266"/>
      <use xlink:href="#ArialMT-67" x="385.3125"/>
      <use xlink:href="#ArialMT-74" x="440.927734"/>
      <use xlink:href="#ArialMT-68" x="468.710938"/>
      <use xlink:href="#ArialMT-20" x="524.326172"/>
      <use xlink:href="#ArialMT-28" x="552.109375"/>
      <use xlink:href="#ArialMT-6e" x="585.410156"/>
      <use xlink:href="#ArialMT-6d" x="641.025391"/>
      <use xlink:href="#ArialMT-29" x="724.326172"/>
     </g>
    </g>
   </g>
   <g id="matplotlib.axis_2">
    <g id="ytick_1">
     <g id="line2d_12">
      <defs>
       <path id="mb328561e91" d="M 0 0 
L 6 0 
" style="stroke: #262626; stroke-width: 1.25"/>
      </defs>
      <g>
       <use xlink:href="#mb328561e91" x="41.25125" y="277.248797" style="fill: #262626; stroke: #262626; stroke-width: 1.25"/>
      </g>
     </g>
     <g id="text_8">
      <!-- 0.0 -->
      <g style="fill: #262626" transform="translate(22.46125 281.185594) scale(0.11 -0.11)">
       <defs>
        <path id="ArialMT-2e" d="M 581 0 
L 581 641 
L 1222 641 
L 1222 0 
L 581 0 
z
" transform="scale(0.015625)"/>
       </defs>
       <use xlink:href="#ArialMT-30"/>
       <use xlink:href="#ArialMT-2e" x="55.615234"/>
       <use xlink:href="#ArialMT-30" x="83.398438"/>
      </g>
     </g>
    </g>
    <g id="ytick_2">
     <g id="line2d_13">
      <g>
       <use xlink:href="#mb328561e91" x="41.25125" y="224.026397" style="fill: #262626; stroke: #262626; stroke-width: 1.25"/>
      </g>
     </g>
     <g id="text_9">
      <!-- 0.5 -->
      <g style="fill: #262626" transform="translate(22.46125 227.963194) scale(0.11 -0.11)">
       <defs>
        <path id="ArialMT-35" d="M 266 1200 
L 856 1250 
Q 922 819 1161 601 
Q 1400 384 1738 384 
Q 2144 384 2425 690 
Q 2706 997 2706 1503 
Q 2706 1984 2436 2262 
Q 2166 2541 1728 2541 
Q 1456 2541 1237 2417 
Q 1019 2294 894 2097 
L 366 2166 
L 809 4519 
L 3088 4519 
L 3088 3981 
L 1259 3981 
L 1013 2750 
Q 1425 3038 1878 3038 
Q 2478 3038 2890 2622 
Q 3303 2206 3303 1553 
Q 3303 931 2941 478 
Q 2500 -78 1738 -78 
Q 1113 -78 717 272 
Q 322 622 266 1200 
z
" transform="scale(0.015625)"/>
       </defs>
       <use xlink:href="#ArialMT-30"/>
       <use xlink:href="#ArialMT-2e" x="55.615234"/>
       <use xlink:href="#ArialMT-35" x="83.398438"/>
      </g>
     </g>
    </g>
    <g id="ytick_3">
     <g id="line2d_14">
      <g>
       <use xlink:href="#mb328561e91" x="41.25125" y="170.803997" style="fill: #262626; stroke: #262626; stroke-width: 1.25"/>
      </g>
     </g>
     <g id="text_10">
      <!-- 1.0 -->
      <g style="fill: #262626" transform="translate(22.46125 174.740794) scale(0.11 -0.11)">
       <use xlink:href="#ArialMT-31"/>
       <use xlink:href="#ArialMT-2e" x="55.615234"/>
       <use xlink:href="#ArialMT-30" x="83.398438"/>
      </g>
     </g>
    </g>
    <g id="ytick_4">
     <g id="line2d_15">
      <g>
       <use xlink:href="#mb328561e91" x="41.25125" y="117.581597" style="fill: #262626; stroke: #262626; stroke-width: 1.25"/>
      </g>
     </g>
     <g id="text_11">
      <!-- 1.5 -->
      <g style="fill: #262626" transform="translate(22.46125 121.518394) scale(0.11 -0.11)">
       <use xlink:href="#ArialMT-31"/>
       <use xlink:href="#ArialMT-2e" x="55.615234"/>
       <use xlink:href="#ArialMT-35" x="83.398438"/>
      </g>
     </g>
    </g>
    <g id="ytick_5">
     <g id="line2d_16">
      <g>
       <use xlink:href="#mb328561e91" x="41.25125" y="64.359197" style="fill: #262626; stroke: #262626; stroke-width: 1.25"/>
      </g>
     </g>
     <g id="text_12">
      <!-- 2.0 -->
      <g style="fill: #262626" transform="translate(22.46125 68.295994) scale(0.11 -0.11)">
       <use xlink:href="#ArialMT-32"/>
       <use xlink:href="#ArialMT-2e" x="55.615234"/>
       <use xlink:href="#ArialMT-30" x="83.398438"/>
      </g>
     </g>
    </g>
    <g id="ytick_6">
     <g id="line2d_17">
      <g>
       <use xlink:href="#mb328561e91" x="41.25125" y="11.136797" style="fill: #262626; stroke: #262626; stroke-width: 1.25"/>
      </g>
     </g>
     <g id="text_13">
      <!-- 2.5 -->
      <g style="fill: #262626" transform="translate(22.46125 15.073594) scale(0.11 -0.11)">
       <use xlink:href="#ArialMT-32"/>
       <use xlink:href="#ArialMT-2e" x="55.615234"/>
       <use xlink:href="#ArialMT-35" x="83.398438"/>
      </g>
     </g>
    </g>
    <g id="ytick_7">
     <g id="line2d_18">
      <defs>
       <path id="m8f900401d1" d="M 0 0 
L 4 0 
" style="stroke: #262626"/>
      </defs>
      <g>
       <use xlink:href="#m8f900401d1" x="41.25125" y="250.637597" style="fill: #262626; stroke: #262626"/>
      </g>
     </g>
    </g>
    <g id="ytick_8">
     <g id="line2d_19">
      <g>
       <use xlink:href="#m8f900401d1" x="41.25125" y="197.415197" style="fill: #262626; stroke: #262626"/>
      </g>
     </g>
    </g>
    <g id="ytick_9">
     <g id="line2d_20">
      <g>
       <use xlink:href="#m8f900401d1" x="41.25125" y="144.192797" style="fill: #262626; stroke: #262626"/>
      </g>
     </g>
    </g>
    <g id="ytick_10">
     <g id="line2d_21">
      <g>
       <use xlink:href="#m8f900401d1" x="41.25125" y="90.970397" style="fill: #262626; stroke: #262626"/>
      </g>
     </g>
    </g>
    <g id="ytick_11">
     <g id="line2d_22">
      <g>
       <use xlink:href="#m8f900401d1" x="41.25125" y="37.747997" style="fill: #262626; stroke: #262626"/>
      </g>
     </g>
    </g>
    <g id="text_14">
     <!-- Absorbance (a.u.) -->
     <g style="fill: #262626" transform="translate(15.935625 191.881547) rotate(-90) scale(0.12 -0.12)">
      <defs>
       <path id="ArialMT-41" d="M -9 0 
L 1750 4581 
L 2403 4581 
L 4278 0 
L 3588 0 
L 3053 1388 
L 1138 1388 
L 634 0 
L -9 0 
z
M 1313 1881 
L 2866 1881 
L 2388 3150 
Q 2169 3728 2063 4100 
Q 1975 3659 1816 3225 
L 1313 1881 
z
" transform="scale(0.015625)"/>
       <path id="ArialMT-62" d="M 941 0 
L 419 0 
L 419 4581 
L 981 4581 
L 981 2947 
Q 1338 3394 1891 3394 
Q 2197 3394 2470 3270 
Q 2744 3147 2920 2923 
Q 3097 2700 3197 2384 
Q 3297 2069 3297 1709 
Q 3297 856 2875 390 
Q 2453 -75 1863 -75 
Q 1275 -75 941 416 
L 941 0 
z
M 934 1684 
Q 934 1088 1097 822 
Q 1363 388 1816 388 
Q 2184 388 2453 708 
Q 2722 1028 2722 1663 
Q 2722 2313 2464 2622 
Q 2206 2931 1841 2931 
Q 1472 2931 1203 2611 
Q 934 2291 934 1684 
z
" transform="scale(0.015625)"/>
       <path id="ArialMT-73" d="M 197 991 
L 753 1078 
Q 800 744 1014 566 
Q 1228 388 1613 388 
Q 2000 388 2187 545 
Q 2375 703 2375 916 
Q 2375 1106 2209 1216 
Q 2094 1291 1634 1406 
Q 1016 1563 777 1677 
Q 538 1791 414 1992 
Q 291 2194 291 2438 
Q 291 2659 392 2848 
Q 494 3038 669 3163 
Q 800 3259 1026 3326 
Q 1253 3394 1513 3394 
Q 1903 3394 2198 3281 
Q 2494 3169 2634 2976 
Q 2775 2784 2828 2463 
L 2278 2388 
Q 2241 2644 2061 2787 
Q 1881 2931 1553 2931 
Q 1166 2931 1000 2803 
Q 834 2675 834 2503 
Q 834 2394 903 2306 
Q 972 2216 1119 2156 
Q 1203 2125 1616 2013 
Q 2213 1853 2448 1751 
Q 2684 1650 2818 1456 
Q 2953 1263 2953 975 
Q 2953 694 2789 445 
Q 2625 197 2315 61 
Q 2006 -75 1616 -75 
Q 969 -75 630 194 
Q 291 463 197 991 
z
" transform="scale(0.015625)"/>
       <path id="ArialMT-6f" d="M 213 1659 
Q 213 2581 725 3025 
Q 1153 3394 1769 3394 
Q 2453 3394 2887 2945 
Q 3322 2497 3322 1706 
Q 3322 1066 3130 698 
Q 2938 331 2570 128 
Q 2203 -75 1769 -75 
Q 1072 -75 642 372 
Q 213 819 213 1659 
z
M 791 1659 
Q 791 1022 1069 705 
Q 1347 388 1769 388 
Q 2188 388 2466 706 
Q 2744 1025 2744 1678 
Q 2744 2294 2464 2611 
Q 2184 2928 1769 2928 
Q 1347 2928 1069 2612 
Q 791 2297 791 1659 
z
" transform="scale(0.015625)"/>
       <path id="ArialMT-72" d="M 416 0 
L 416 3319 
L 922 3319 
L 922 2816 
Q 1116 3169 1280 3281 
Q 1444 3394 1641 3394 
Q 1925 3394 2219 3213 
L 2025 2691 
Q 1819 2813 1613 2813 
Q 1428 2813 1281 2702 
Q 1134 2591 1072 2394 
Q 978 2094 978 1738 
L 978 0 
L 416 0 
z
" transform="scale(0.015625)"/>
       <path id="ArialMT-63" d="M 2588 1216 
L 3141 1144 
Q 3050 572 2676 248 
Q 2303 -75 1759 -75 
Q 1078 -75 664 370 
Q 250 816 250 1647 
Q 250 2184 428 2587 
Q 606 2991 970 3192 
Q 1334 3394 1763 3394 
Q 2303 3394 2647 3120 
Q 2991 2847 3088 2344 
L 2541 2259 
Q 2463 2594 2264 2762 
Q 2066 2931 1784 2931 
Q 1359 2931 1093 2626 
Q 828 2322 828 1663 
Q 828 994 1084 691 
Q 1341 388 1753 388 
Q 2084 388 2306 591 
Q 2528 794 2588 1216 
z
" transform="scale(0.015625)"/>
       <path id="ArialMT-75" d="M 2597 0 
L 2597 488 
Q 2209 -75 1544 -75 
Q 1250 -75 995 37 
Q 741 150 617 320 
Q 494 491 444 738 
Q 409 903 409 1263 
L 409 3319 
L 972 3319 
L 972 1478 
Q 972 1038 1006 884 
Q 1059 663 1231 536 
Q 1403 409 1656 409 
Q 1909 409 2131 539 
Q 2353 669 2445 892 
Q 2538 1116 2538 1541 
L 2538 3319 
L 3100 3319 
L 3100 0 
L 2597 0 
z
" transform="scale(0.015625)"/>
      </defs>
      <use xlink:href="#ArialMT-41"/>
      <use xlink:href="#ArialMT-62" x="66.699219"/>
      <use xlink:href="#ArialMT-73" x="122.314453"/>
      <use xlink:href="#ArialMT-6f" x="172.314453"/>
      <use xlink:href="#ArialMT-72" x="227.929688"/>
      <use xlink:href="#ArialMT-62" x="261.230469"/>
      <use xlink:href="#ArialMT-61" x="316.845703"/>
      <use xlink:href="#ArialMT-6e" x="372.460938"/>
      <use xlink:href="#ArialMT-63" x="428.076172"/>
      <use xlink:href="#ArialMT-65" x="478.076172"/>
      <use xlink:href="#ArialMT-20" x="533.691406"/>
      <use xlink:href="#ArialMT-28" x="561.474609"/>
      <use xlink:href="#ArialMT-61" x="594.775391"/>
      <use xlink:href="#ArialMT-2e" x="650.390625"/>
      <use xlink:href="#ArialMT-75" x="678.173828"/>
      <use xlink:href="#ArialMT-2e" x="733.789062"/>
      <use xlink:href="#ArialMT-29" x="761.572266"/>
     </g>
    </g>
   </g>
   <g id="PolyCollection_1"/>
   <g id="PolyCollection_2"/>
   <g id="PolyCollection_3"/>
   <g id="PolyCollection_4"/>
   <g id="PolyCollection_5"/>
   <g id="PolyCollection_6"/>
   <g id="line2d_23">
    <path d="M 41.289256 234.608594 
L 42.155434 232.528119 
L 43.238164 229.038577 
L 44.320884 224.687508 
L 45.403604 219.569401 
L 46.702876 212.412865 
L 48.435232 201.390631 
L 53.415759 168.370549 
L 54.715021 161.209255 
L 55.581199 157.413887 
L 56.663919 153.787159 
L 57.530097 151.568488 
L 58.179734 150.409177 
L 58.82937 149.650108 
L 59.479006 149.271589 
L 59.91209 149.238648 
L 60.345184 149.411374 
L 60.778268 149.804067 
L 61.427904 150.740708 
L 62.294082 152.694681 
L 63.16026 155.32655 
L 64.24298 159.191911 
L 66.40843 167.140394 
L 67.49115 170.190956 
L 68.357329 171.910572 
L 69.006965 172.697588 
L 69.656601 173.08374 
L 70.306237 173.091994 
L 70.739321 172.89299 
L 71.388957 172.274727 
L 72.038593 171.331494 
L 72.904771 169.634356 
L 73.987491 166.830117 
L 75.286753 162.650013 
L 76.802567 156.773018 
L 78.534924 148.936632 
L 80.26728 140.099791 
L 82.43273 128.048976 
L 85.464348 110.011824 
L 90.877969 77.974731 
L 92.393783 70.481271 
L 93.693045 64.994038 
L 94.775765 61.184864 
L 95.858495 58.125039 
L 96.941215 55.835475 
L 97.807394 54.504173 
L 98.45703 53.86484 
L 99.106666 53.532738 
L 99.756292 53.569791 
L 100.405928 53.982114 
L 101.055564 54.847746 
L 101.488648 55.68663 
L 102.138284 57.291104 
L 103.004462 60.251751 
L 104.087182 65.249713 
L 105.169912 71.602857 
L 106.469174 80.732248 
L 108.201531 94.661142 
L 111.233149 121.3626 
L 113.182067 139.832861 
L 114.914423 157.78629 
L 117.72949 189.852517 
L 120.328034 219.349415 
L 121.843848 234.326009 
L 123.1431 245.073395 
L 124.22583 252.39907 
L 125.30856 258.323903 
L 126.39127 262.988499 
L 127.474 266.567531 
L 128.340188 268.794487 
L 129.206357 270.555306 
L 130.289087 272.221393 
L 131.155255 273.243004 
L 132.237985 274.196785 
L 133.537257 275.006616 
L 135.053071 275.628219 
L 136.568865 276.035047 
L 138.950868 276.395433 
L 142.41558 276.650514 
L 149.778089 276.821806 
L 165.585856 276.892379 
L 168.400923 276.91149 
L 180.310874 276.93137 
L 183.342502 276.939182 
L 189.622301 276.955271 
L 198.717166 276.957065 
L 200.23298 276.965375 
L 202.614962 276.955548 
L 214.958017 276.974159 
L 215.824185 276.96871 
L 219.288898 277.015234 
L 219.938544 276.983899 
L 223.186714 277.020847 
L 224.269424 276.988593 
L 225.568696 277.05817 
L 226.00178 276.971315 
L 226.434865 277.043348 
L 226.867968 277.041571 
L 227.950679 276.97473 
L 228.383783 277.041087 
L 228.600325 276.934352 
L 228.816867 277.059542 
L 229.249951 276.998642 
L 229.466493 277.115993 
L 229.683035 276.933964 
L 231.198849 276.94481 
L 231.415391 276.894192 
L 231.848495 277.049993 
L 232.065037 276.972848 
L 232.281579 277.081718 
L 232.498121 276.910244 
L 233.364309 277.066328 
L 233.580851 276.772771 
L 233.797393 277.045025 
L 234.013935 277.093884 
L 234.230477 277.026191 
L 234.880103 277.257938 
L 235.096665 277.067684 
L 235.313207 277.207191 
L 235.529749 276.908381 
L 235.746291 277.130744 
L 237.045544 277.113434 
L 243.541884 277.108487 
L 343.585478 277.110621 
L 361.125582 277.109977 
L 381.26423 277.111815 
L 398.37125 277.082973 
L 398.37125 277.082973 
" clip-path="url(#p778cd730e5)" style="fill: none; stroke: #f6b48f; stroke-linecap: round"/>
   </g>
   <g id="line2d_24">
    <path d="M 41.289256 241.170771 
L 42.588528 239.150078 
L 43.454706 237.555045 
L 44.320884 235.235102 
L 45.187062 232.101261 
L 48.218681 219.048236 
L 49.301411 213.236832 
L 52.549581 193.492664 
L 53.848843 187.674148 
L 54.281937 185.983641 
L 56.014293 177.763451 
L 57.746649 169.806168 
L 58.396276 167.798139 
L 59.045912 166.492825 
L 59.695548 165.644222 
L 60.778268 164.903121 
L 62.727176 164.211877 
L 66.191888 163.477222 
L 66.841514 163.178252 
L 67.707693 162.590513 
L 68.790423 161.546559 
L 71.822041 158.585316 
L 72.471677 158.297259 
L 73.337855 158.195453 
L 74.204033 158.379307 
L 75.286753 158.840738 
L 76.802567 159.505792 
L 77.668745 159.673467 
L 78.968018 159.531119 
L 80.050738 159.033436 
L 81.133458 158.257174 
L 82.43273 157.082216 
L 86.330526 153.09434 
L 88.279435 151.520599 
L 90.011791 150.510602 
L 91.094511 150.136524 
L 92.177231 149.946693 
L 93.259961 149.951769 
L 94.126139 150.097733 
L 95.641943 150.73364 
L 96.508121 151.298602 
L 97.807394 152.4654 
L 98.890114 153.699451 
L 100.189386 155.551758 
L 101.921742 158.625376 
L 103.437556 161.811713 
L 105.602996 167.084536 
L 107.984989 173.681497 
L 110.583523 181.511456 
L 120.544576 212.901292 
L 122.710016 218.660727 
L 124.22583 222.240892 
L 125.958186 225.906995 
L 127.907085 229.566912 
L 129.855983 232.686931 
L 132.021443 235.948762 
L 135.053071 240.023181 
L 137.435053 242.935529 
L 141.33285 247.187084 
L 144.147936 249.970313 
L 148.478817 253.874965 
L 151.943529 256.749266 
L 158.872974 261.701881 
L 161.471498 263.254092 
L 164.719668 264.913674 
L 167.101651 265.980624 
L 173.814533 268.401848 
L 183.559044 271.273235 
L 187.023757 272.219206 
L 188.756113 272.658266 
L 198.500624 274.733041 
L 203.264608 275.432977 
L 204.130776 275.523174 
L 217.34 276.459515 
L 219.072356 276.495705 
L 219.50544 276.514746 
L 220.371628 276.572967 
L 220.804712 276.560023 
L 222.75361 276.636901 
L 224.91907 276.671145 
L 225.135612 276.63796 
L 225.568696 276.742942 
L 225.785238 276.676257 
L 226.218323 276.726908 
L 226.651426 276.714093 
L 228.383783 276.736078 
L 228.600325 276.639252 
L 229.033409 276.778979 
L 229.466493 276.8628 
L 229.683035 276.621257 
L 229.899597 276.73965 
L 230.332681 276.742828 
L 230.549223 276.802052 
L 230.765765 276.742118 
L 230.982307 276.829431 
L 231.415391 276.625123 
L 231.631953 276.752831 
L 232.065037 276.667672 
L 232.498121 276.854447 
L 232.931205 276.553853 
L 233.364309 276.822527 
L 233.580851 276.668308 
L 233.797393 276.891332 
L 234.013935 276.621042 
L 234.230477 276.955279 
L 234.663561 276.872096 
L 234.880103 276.985512 
L 235.096665 276.772665 
L 235.313207 276.81255 
L 235.529749 276.493487 
L 235.962814 276.971798 
L 247.006597 277.021088 
L 311.969943 277.192329 
L 314.78503 277.139937 
L 398.37125 277.214322 
L 398.37125 277.214322 
" clip-path="url(#p778cd730e5)" style="fill: none; stroke: #f37651; stroke-linecap: round"/>
   </g>
   <g id="line2d_25">
    <path d="M 41.289256 246.297669 
L 43.021612 243.124056 
L 43.88779 241.098186 
L 44.753968 238.594811 
L 46.486324 232.149895 
L 48.218681 224.864694 
L 49.951037 216.163338 
L 52.982665 200.066791 
L 55.364657 189.011058 
L 57.963191 177.514685 
L 59.045912 173.861525 
L 60.128632 170.871973 
L 61.427904 167.996954 
L 62.510624 166.091999 
L 63.809896 164.257634 
L 66.624972 160.262868 
L 67.707693 158.103698 
L 68.790423 155.404627 
L 70.089685 151.541194 
L 74.420575 137.918326 
L 80.700374 120.114693 
L 83.082366 113.439433 
L 84.814722 109.231488 
L 86.113984 106.571487 
L 87.196704 104.740929 
L 88.279435 103.287266 
L 89.145613 102.386345 
L 90.011791 101.784864 
L 90.661427 101.498799 
L 91.527605 101.377274 
L 92.177231 101.454171 
L 93.043409 101.77503 
L 93.909587 102.397854 
L 94.559223 103.028787 
L 95.425401 104.120643 
L 96.291579 105.465433 
L 97.157757 107.121095 
L 98.45703 110.09721 
L 99.53975 113.058325 
L 101.055564 117.934116 
L 103.004462 125.389902 
L 105.169912 135.053318 
L 107.768446 148.195506 
L 110.800065 164.986578 
L 119.028762 211.011005 
L 120.97766 220.004006 
L 122.493474 226.139877 
L 124.442372 232.742494 
L 125.958186 236.973873 
L 127.474 240.536082 
L 128.773273 243.066212 
L 130.505629 245.972872 
L 132.021443 248.126609 
L 133.970341 250.507374 
L 136.568865 253.195527 
L 139.16741 255.474853 
L 141.765934 257.502053 
L 146.096834 260.447475 
L 149.345005 262.423325 
L 153.026259 264.480692 
L 160.60533 268.090513 
L 164.286584 269.448014 
L 166.668566 270.192728 
L 168.834007 270.777938 
L 175.113805 272.169777 
L 191.138115 274.757812 
L 194.602827 275.183726 
L 196.98481 275.466509 
L 202.181878 275.975407 
L 203.914234 276.105621 
L 208.678219 276.413578 
L 216.690373 276.731921 
L 217.989646 276.772047 
L 222.970152 276.893092 
L 223.403256 276.852648 
L 224.052882 276.916552 
L 224.702508 276.901916 
L 225.568696 276.943867 
L 226.00178 276.909247 
L 227.301053 276.95757 
L 229.249951 276.905822 
L 229.466493 277.002116 
L 229.899597 276.835846 
L 230.116139 276.858532 
L 230.549223 277.056944 
L 230.765765 276.899195 
L 231.198849 276.856453 
L 231.415391 277.033932 
L 231.631953 276.831567 
L 231.848495 276.986686 
L 232.065037 276.828628 
L 232.281579 277.058754 
L 232.498121 276.964019 
L 232.714663 277.036799 
L 232.931205 276.796495 
L 233.147747 277.035233 
L 233.580851 276.978361 
L 233.797393 276.912101 
L 234.447019 277.102442 
L 234.663561 277.05159 
L 234.880103 277.12373 
L 235.313207 276.900103 
L 235.529749 276.743817 
L 235.962814 277.089344 
L 264.763243 277.144058 
L 273.858108 277.155691 
L 302.658556 277.186013 
L 314.568488 277.248169 
L 323.663372 277.189434 
L 353.979615 277.184791 
L 359.609788 277.187318 
L 367.621923 277.18005 
L 368.488091 277.190864 
L 398.154708 277.287671 
L 398.37125 277.298258 
L 398.37125 277.298258 
" clip-path="url(#p778cd730e5)" style="fill: none; stroke: #e13342; stroke-linecap: round"/>
   </g>
   <g id="line2d_26">
    <path d="M 41.289256 254.35315 
L 42.588528 252.437807 
L 43.88779 250.091339 
L 45.403604 246.849132 
L 46.702876 243.577416 
L 48.218681 239.207668 
L 51.033767 230.01 
L 52.766123 223.767493 
L 57.097013 206.97092 
L 59.695548 196.256653 
L 63.809896 178.841577 
L 67.058066 164.697734 
L 69.006965 154.971963 
L 70.739321 145.073225 
L 72.904771 131.225415 
L 77.019109 102.761223 
L 81.783094 70.483796 
L 84.381628 55.102216 
L 85.897442 47.430269 
L 87.413256 40.939764 
L 88.495977 37.160283 
L 89.362155 34.664494 
L 90.444875 32.303235 
L 91.311053 30.985765 
L 92.177231 30.176777 
L 93.043409 29.945275 
L 93.259961 29.931038 
L 94.126139 30.447159 
L 94.559223 30.892804 
L 95.208859 31.79257 
L 96.075037 33.45912 
L 96.941215 35.763405 
L 98.023936 39.399777 
L 99.106666 43.896908 
L 100.405928 50.45794 
L 101.488648 56.797443 
L 103.221004 68.583092 
L 104.95336 81.957886 
L 106.902268 98.721042 
L 109.500803 122.958433 
L 117.72949 200.463798 
L 119.461846 214.167332 
L 121.194202 226.125649 
L 122.493474 233.862805 
L 124.009288 241.45146 
L 125.30856 246.827291 
L 126.607832 251.279125 
L 127.907085 254.922736 
L 129.206357 257.834302 
L 130.505629 260.191336 
L 131.804901 262.074963 
L 133.320695 263.814914 
L 134.619967 265.000975 
L 136.568865 266.408528 
L 138.950868 267.690001 
L 141.765934 268.844965 
L 145.66375 270.076445 
L 149.561547 271.059833 
L 153.675905 271.925591 
L 157.140617 272.592534 
L 164.503126 273.790945 
L 175.763451 275.033672 
L 186.807214 275.86706 
L 189.405759 276.014978 
L 194.602827 276.263326 
L 213.442203 276.788308 
L 214.958017 276.802271 
L 223.403256 276.827474 
L 223.619798 276.932766 
L 224.269424 276.901011 
L 226.434865 276.903148 
L 226.867968 276.906147 
L 227.517595 277.052614 
L 227.734137 276.897152 
L 229.033409 276.894597 
L 229.466493 277.027091 
L 229.683035 276.875879 
L 230.549223 277.015599 
L 230.765765 277.081419 
L 230.982307 276.939429 
L 233.797393 276.945847 
L 234.013935 276.804096 
L 234.230477 277.058181 
L 234.447019 277.000604 
L 234.663561 277.119555 
L 235.529749 276.739449 
L 235.746291 277.10723 
L 236.829002 277.089775 
L 256.101462 277.155042 
L 310.670691 277.311407 
L 313.485777 277.406452 
L 320.631744 277.207099 
L 325.828833 277.208197 
L 332.541715 277.199095 
L 340.986934 277.200099 
L 360.042872 277.19125 
L 370.220467 277.198177 
L 397.938166 277.348496 
L 398.37125 277.387259 
L 398.37125 277.387259 
" clip-path="url(#p778cd730e5)" style="fill: none; stroke: #ad1759; stroke-linecap: round"/>
   </g>
   <g id="line2d_27">
    <path d="M 41.289256 253.763417 
L 42.588528 251.93399 
L 43.454706 250.483915 
L 45.620146 246.139907 
L 47.13596 242.424611 
L 48.868317 237.552516 
L 50.817215 231.516225 
L 52.982665 224.088644 
L 56.447377 210.731107 
L 59.045912 200.016802 
L 62.07754 186.366601 
L 66.624972 165.087242 
L 69.006965 152.798999 
L 71.388957 138.642308 
L 73.987491 121.867073 
L 77.019109 102.860528 
L 79.18456 90.768131 
L 80.916916 82.381198 
L 82.216188 76.922948 
L 83.51545 72.271655 
L 85.247806 67.430353 
L 86.113984 65.533926 
L 86.980162 64.018619 
L 88.062892 62.672928 
L 88.929071 62.023494 
L 89.795249 61.789734 
L 90.444875 61.905764 
L 90.877969 62.109832 
L 91.744147 62.692748 
L 92.610325 63.657001 
L 93.259961 64.583618 
L 94.342681 66.62521 
L 95.208859 68.631907 
L 96.508121 72.321752 
L 97.807394 76.787034 
L 98.890114 81.092343 
L 100.189386 87.026464 
L 101.488648 93.691077 
L 103.221004 103.688791 
L 104.95336 114.718277 
L 107.335352 131.317323 
L 110.583523 155.949552 
L 117.079863 206.342455 
L 119.245304 221.255613 
L 121.194202 232.966347 
L 122.710016 240.716751 
L 124.009288 246.400705 
L 125.525102 251.90622 
L 126.824374 255.76327 
L 128.123627 258.919385 
L 129.422899 261.470278 
L 130.722171 263.528974 
L 132.237985 265.402945 
L 133.537257 266.680304 
L 135.269613 268.008969 
L 137.218511 269.128802 
L 138.734326 269.80637 
L 141.116308 270.647873 
L 144.797562 271.618058 
L 153.675905 273.08892 
L 159.5226 273.808506 
L 171.432551 274.925611 
L 172.948365 275.014031 
L 178.145434 275.379011 
L 181.177062 275.555926 
L 184.425232 275.749847 
L 188.539571 275.95765 
L 203.264608 276.506562 
L 203.914234 276.507618 
L 206.296236 276.5695 
L 215.174559 276.693098 
L 216.906915 276.682109 
L 226.867968 276.866336 
L 227.084511 276.730154 
L 227.517595 276.858117 
L 227.734137 276.787067 
L 227.950679 276.868398 
L 228.600325 276.731344 
L 228.816867 276.798768 
L 229.249951 276.723511 
L 229.466493 276.83728 
L 229.683035 276.746901 
L 229.899597 276.837783 
L 230.549223 276.759963 
L 230.765765 276.943523 
L 231.198849 276.737231 
L 231.631953 276.890743 
L 231.848495 276.844385 
L 232.065037 276.64021 
L 232.281579 276.914029 
L 232.498121 276.917807 
L 232.931205 276.647122 
L 233.364309 276.976518 
L 234.013935 276.612249 
L 234.230477 276.853252 
L 234.663561 276.964712 
L 235.096665 276.86485 
L 235.313207 276.650849 
L 235.529749 276.694855 
L 235.746291 276.926859 
L 237.045544 276.912603 
L 248.738953 276.960703 
L 258.699986 276.973394 
L 265.196327 276.965264 
L 277.32282 276.977763 
L 283.602618 276.993323 
L 286.850789 277.006717 
L 292.264419 277.012924 
L 309.804523 277.194224 
L 313.052693 277.532067 
L 314.568488 277.392363 
L 316.300864 277.221234 
L 327.128085 277.034709 
L 348.349443 277.000133 
L 357.444328 276.986825 
L 364.806837 277.001207 
L 372.60243 277.004753 
L 374.118263 277.002291 
L 389.059823 277.028303 
L 393.607285 276.97067 
L 396.855456 277.070555 
L 398.37125 277.203798 
L 398.37125 277.203798 
" clip-path="url(#p778cd730e5)" style="fill: none; stroke: #701f57; stroke-linecap: round"/>
   </g>
   <g id="line2d_28">
    <path d="M 41.289256 254.74986 
L 42.155434 253.837601 
L 43.238164 252.433999 
L 44.537426 250.480159 
L 46.05324 247.722486 
L 47.569054 244.512579 
L 49.517953 239.810237 
L 51.033767 235.804641 
L 53.632301 228.108617 
L 56.230835 219.385331 
L 57.746649 213.606107 
L 60.128632 204.025926 
L 62.510624 193.452991 
L 66.40843 174.313489 
L 69.006965 160.194803 
L 71.388957 145.962091 
L 74.853669 123.777014 
L 77.235661 108.852385 
L 79.834196 93.963807 
L 81.783094 84.218075 
L 83.51545 76.764434 
L 85.247806 70.712874 
L 86.330526 67.63451 
L 87.196704 65.585507 
L 88.062892 63.896675 
L 88.929071 62.645392 
L 89.795249 61.764685 
L 90.661427 61.30965 
L 91.527605 61.238235 
L 92.177231 61.404819 
L 93.259961 62.244921 
L 94.126139 63.366723 
L 95.208859 65.310786 
L 96.291579 67.919281 
L 97.157757 70.38883 
L 98.45703 74.874922 
L 99.756292 80.253916 
L 101.488648 88.831428 
L 103.221004 98.780922 
L 105.386454 112.910788 
L 107.768446 130.226876 
L 110.800065 153.981951 
L 117.512948 206.981116 
L 119.678388 221.782285 
L 121.410744 232.193879 
L 123.1431 240.963969 
L 124.442372 246.565265 
L 125.958186 251.988273 
L 127.257458 255.837701 
L 128.556731 259.007331 
L 130.072545 261.953935 
L 131.371797 264.000885 
L 132.671069 265.66139 
L 134.186883 267.202542 
L 135.919239 268.593304 
L 137.868138 269.766456 
L 139.600494 270.582508 
L 141.765934 271.387579 
L 145.66375 272.398277 
L 148.262275 272.889715 
L 154.108989 273.68825 
L 163.420396 274.589527 
L 169.916737 275.056326 
L 173.814533 275.309709 
L 201.31571 276.49419 
L 204.347318 276.543446 
L 205.213506 276.573566 
L 215.174559 276.717309 
L 215.824185 276.744739 
L 216.473831 276.738808 
L 228.383783 276.850747 
L 228.600325 276.793404 
L 228.816867 276.969533 
L 229.033409 276.832481 
L 229.466493 276.953713 
L 229.683035 276.772654 
L 230.982307 276.910488 
L 231.415391 276.812242 
L 231.848495 276.881737 
L 232.065037 276.788857 
L 232.281579 276.971615 
L 232.498121 276.939382 
L 232.714663 276.724285 
L 232.931205 276.761935 
L 233.147747 276.981499 
L 233.364309 276.774338 
L 233.797393 276.840716 
L 234.013935 276.762207 
L 234.663561 277.051374 
L 235.096665 276.843668 
L 235.313207 276.874004 
L 235.529749 276.507282 
L 235.962814 276.999991 
L 250.471309 277.034975 
L 268.877581 276.999459 
L 308.288689 277.157709 
L 310.670691 277.441682 
L 312.836151 277.814902 
L 313.918862 277.758797 
L 316.733948 277.335154 
L 324.529541 277.095656 
L 397.505082 277.033984 
L 398.37125 277.122324 
L 398.37125 277.122324 
" clip-path="url(#p778cd730e5)" style="fill: none; stroke: #35193e; stroke-linecap: round"/>
   </g>
   <g id="line2d_29"/>
   <g id="line2d_30"/>
   <g id="line2d_31"/>
   <g id="line2d_32"/>
   <g id="line2d_33"/>
   <g id="line2d_34"/>
   <g id="patch_3">
    <path d="M 41.25125 277.248797 
L 41.25125 11.136797 
" style="fill: none; stroke: #262626; stroke-width: 1.25; stroke-linejoin: miter; stroke-linecap: square"/>
   </g>
   <g id="patch_4">
    <path d="M 41.25125 277.248797 
L 398.37125 277.248797 
" style="fill: none; stroke: #262626; stroke-width: 1.25; stroke-linejoin: miter; stroke-linecap: square"/>
   </g>
   <g id="legend_1">
    <g id="line2d_35">
     <path d="M 258.19925 45.415809 
L 264.19925 45.415809 
L 270.19925 45.415809 
" style="fill: none; stroke: #f6b48f; stroke-width: 1.5; stroke-linecap: round"/>
    </g>
    <g id="text_15">
     <!-- imine polymer 0.0% TFA_Abs -->
     <g style="fill: #262626" transform="translate(274.99925 47.515809) scale(0.06 -0.06)">
      <defs>
       <path id="ArialMT-69" d="M 425 3934 
L 425 4581 
L 988 4581 
L 988 3934 
L 425 3934 
z
M 425 0 
L 425 3319 
L 988 3319 
L 988 0 
L 425 0 
z
" transform="scale(0.015625)"/>
       <path id="ArialMT-70" d="M 422 -1272 
L 422 3319 
L 934 3319 
L 934 2888 
Q 1116 3141 1344 3267 
Q 1572 3394 1897 3394 
Q 2322 3394 2647 3175 
Q 2972 2956 3137 2557 
Q 3303 2159 3303 1684 
Q 3303 1175 3120 767 
Q 2938 359 2589 142 
Q 2241 -75 1856 -75 
Q 1575 -75 1351 44 
Q 1128 163 984 344 
L 984 -1272 
L 422 -1272 
z
M 931 1641 
Q 931 1000 1190 694 
Q 1450 388 1819 388 
Q 2194 388 2461 705 
Q 2728 1022 2728 1688 
Q 2728 2322 2467 2637 
Q 2206 2953 1844 2953 
Q 1484 2953 1207 2617 
Q 931 2281 931 1641 
z
" transform="scale(0.015625)"/>
       <path id="ArialMT-79" d="M 397 -1278 
L 334 -750 
Q 519 -800 656 -800 
Q 844 -800 956 -737 
Q 1069 -675 1141 -563 
Q 1194 -478 1313 -144 
Q 1328 -97 1363 -6 
L 103 3319 
L 709 3319 
L 1400 1397 
Q 1534 1031 1641 628 
Q 1738 1016 1872 1384 
L 2581 3319 
L 3144 3319 
L 1881 -56 
Q 1678 -603 1566 -809 
Q 1416 -1088 1222 -1217 
Q 1028 -1347 759 -1347 
Q 597 -1347 397 -1278 
z
" transform="scale(0.015625)"/>
       <path id="ArialMT-25" d="M 372 3481 
Q 372 3972 619 4315 
Q 866 4659 1334 4659 
Q 1766 4659 2048 4351 
Q 2331 4044 2331 3447 
Q 2331 2866 2045 2552 
Q 1759 2238 1341 2238 
Q 925 2238 648 2547 
Q 372 2856 372 3481 
z
M 1350 4272 
Q 1141 4272 1002 4090 
Q 863 3909 863 3425 
Q 863 2984 1003 2804 
Q 1144 2625 1350 2625 
Q 1563 2625 1702 2806 
Q 1841 2988 1841 3469 
Q 1841 3913 1700 4092 
Q 1559 4272 1350 4272 
z
M 1353 -169 
L 3859 4659 
L 4316 4659 
L 1819 -169 
L 1353 -169 
z
M 3334 1075 
Q 3334 1569 3581 1911 
Q 3828 2253 4300 2253 
Q 4731 2253 5014 1945 
Q 5297 1638 5297 1041 
Q 5297 459 5011 145 
Q 4725 -169 4303 -169 
Q 3888 -169 3611 142 
Q 3334 453 3334 1075 
z
M 4316 1866 
Q 4103 1866 3964 1684 
Q 3825 1503 3825 1019 
Q 3825 581 3965 400 
Q 4106 219 4313 219 
Q 4528 219 4667 400 
Q 4806 581 4806 1063 
Q 4806 1506 4665 1686 
Q 4525 1866 4316 1866 
z
" transform="scale(0.015625)"/>
       <path id="ArialMT-54" d="M 1659 0 
L 1659 4041 
L 150 4041 
L 150 4581 
L 3781 4581 
L 3781 4041 
L 2266 4041 
L 2266 0 
L 1659 0 
z
" transform="scale(0.015625)"/>
       <path id="ArialMT-46" d="M 525 0 
L 525 4581 
L 3616 4581 
L 3616 4041 
L 1131 4041 
L 1131 2622 
L 3281 2622 
L 3281 2081 
L 1131 2081 
L 1131 0 
L 525 0 
z
" transform="scale(0.015625)"/>
       <path id="ArialMT-5f" d="M -97 -1272 
L -97 -866 
L 3631 -866 
L 3631 -1272 
L -97 -1272 
z
" transform="scale(0.015625)"/>
      </defs>
      <use xlink:href="#ArialMT-69"/>
      <use xlink:href="#ArialMT-6d" x="22.216797"/>
      <use xlink:href="#ArialMT-69" x="105.517578"/>
      <use xlink:href="#ArialMT-6e" x="127.734375"/>
      <use xlink:href="#ArialMT-65" x="183.349609"/>
      <use xlink:href="#ArialMT-20" x="238.964844"/>
      <use xlink:href="#ArialMT-70" x="266.748047"/>
      <use xlink:href="#ArialMT-6f" x="322.363281"/>
      <use xlink:href="#ArialMT-6c" x="377.978516"/>
      <use xlink:href="#ArialMT-79" x="400.195312"/>
      <use xlink:href="#ArialMT-6d" x="450.195312"/>
      <use xlink:href="#ArialMT-65" x="533.496094"/>
      <use xlink:href="#ArialMT-72" x="589.111328"/>
      <use xlink:href="#ArialMT-20" x="622.412109"/>
      <use xlink:href="#ArialMT-30" x="650.195312"/>
      <use xlink:href="#ArialMT-2e" x="705.810547"/>
      <use xlink:href="#ArialMT-30" x="733.59375"/>
      <use xlink:href="#ArialMT-25" x="789.208984"/>
      <use xlink:href="#ArialMT-20" x="878.125"/>
      <use xlink:href="#ArialMT-54" x="904.158203"/>
      <use xlink:href="#ArialMT-46" x="965.242188"/>
      <use xlink:href="#ArialMT-41" x="1020.826172"/>
      <use xlink:href="#ArialMT-5f" x="1087.525391"/>
      <use xlink:href="#ArialMT-41" x="1143.140625"/>
      <use xlink:href="#ArialMT-62" x="1209.839844"/>
      <use xlink:href="#ArialMT-73" x="1265.455078"/>
     </g>
    </g>
    <g id="line2d_36">
     <path d="M 258.19925 54.046434 
L 264.19925 54.046434 
L 270.19925 54.046434 
" style="fill: none; stroke: #f37651; stroke-width: 1.5; stroke-linecap: round"/>
    </g>
    <g id="text_16">
     <!-- imine polymer 0.05% TFA_Abs -->
     <g style="fill: #262626" transform="translate(274.99925 56.146434) scale(0.06 -0.06)">
      <use xlink:href="#ArialMT-69"/>
      <use xlink:href="#ArialMT-6d" x="22.216797"/>
      <use xlink:href="#ArialMT-69" x="105.517578"/>
      <use xlink:href="#ArialMT-6e" x="127.734375"/>
      <use xlink:href="#ArialMT-65" x="183.349609"/>
      <use xlink:href="#ArialMT-20" x="238.964844"/>
      <use xlink:href="#ArialMT-70" x="266.748047"/>
      <use xlink:href="#ArialMT-6f" x="322.363281"/>
      <use xlink:href="#ArialMT-6c" x="377.978516"/>
      <use xlink:href="#ArialMT-79" x="400.195312"/>
      <use xlink:href="#ArialMT-6d" x="450.195312"/>
      <use xlink:href="#ArialMT-65" x="533.496094"/>
      <use xlink:href="#ArialMT-72" x="589.111328"/>
      <use xlink:href="#ArialMT-20" x="622.412109"/>
      <use xlink:href="#ArialMT-30" x="650.195312"/>
      <use xlink:href="#ArialMT-2e" x="705.810547"/>
      <use xlink:href="#ArialMT-30" x="733.59375"/>
      <use xlink:href="#ArialMT-35" x="789.208984"/>
      <use xlink:href="#ArialMT-25" x="844.824219"/>
      <use xlink:href="#ArialMT-20" x="933.740234"/>
      <use xlink:href="#ArialMT-54" x="959.773438"/>
      <use xlink:href="#ArialMT-46" x="1020.857422"/>
      <use xlink:href="#ArialMT-41" x="1076.441406"/>
      <use xlink:href="#ArialMT-5f" x="1143.140625"/>
      <use xlink:href="#ArialMT-41" x="1198.755859"/>
      <use xlink:href="#ArialMT-62" x="1265.455078"/>
      <use xlink:href="#ArialMT-73" x="1321.070312"/>
     </g>
    </g>
    <g id="line2d_37">
     <path d="M 258.19925 62.677059 
L 264.19925 62.677059 
L 270.19925 62.677059 
" style="fill: none; stroke: #e13342; stroke-width: 1.5; stroke-linecap: round"/>
    </g>
    <g id="text_17">
     <!-- imine polymer 0.1% TFA_Abs -->
     <g style="fill: #262626" transform="translate(274.99925 64.777059) scale(0.06 -0.06)">
      <use xlink:href="#ArialMT-69"/>
      <use xlink:href="#ArialMT-6d" x="22.216797"/>
      <use xlink:href="#ArialMT-69" x="105.517578"/>
      <use xlink:href="#ArialMT-6e" x="127.734375"/>
      <use xlink:href="#ArialMT-65" x="183.349609"/>
      <use xlink:href="#ArialMT-20" x="238.964844"/>
      <use xlink:href="#ArialMT-70" x="266.748047"/>
      <use xlink:href="#ArialMT-6f" x="322.363281"/>
      <use xlink:href="#ArialMT-6c" x="377.978516"/>
      <use xlink:href="#ArialMT-79" x="400.195312"/>
      <use xlink:href="#ArialMT-6d" x="450.195312"/>
      <use xlink:href="#ArialMT-65" x="533.496094"/>
      <use xlink:href="#ArialMT-72" x="589.111328"/>
      <use xlink:href="#ArialMT-20" x="622.412109"/>
      <use xlink:href="#ArialMT-30" x="650.195312"/>
      <use xlink:href="#ArialMT-2e" x="705.810547"/>
      <use xlink:href="#ArialMT-31" x="733.59375"/>
      <use xlink:href="#ArialMT-25" x="789.208984"/>
      <use xlink:href="#ArialMT-20" x="878.125"/>
      <use xlink:href="#ArialMT-54" x="904.158203"/>
      <use xlink:href="#ArialMT-46" x="965.242188"/>
      <use xlink:href="#ArialMT-41" x="1020.826172"/>
      <use xlink:href="#ArialMT-5f" x="1087.525391"/>
      <use xlink:href="#ArialMT-41" x="1143.140625"/>
      <use xlink:href="#ArialMT-62" x="1209.839844"/>
      <use xlink:href="#ArialMT-73" x="1265.455078"/>
     </g>
    </g>
    <g id="line2d_38">
     <path d="M 258.19925 71.307684 
L 264.19925 71.307684 
L 270.19925 71.307684 
" style="fill: none; stroke: #ad1759; stroke-width: 1.5; stroke-linecap: round"/>
    </g>
    <g id="text_18">
     <!-- imine polymer 0.25% TFA_Abs -->
     <g style="fill: #262626" transform="translate(274.99925 73.407684) scale(0.06 -0.06)">
      <use xlink:href="#ArialMT-69"/>
      <use xlink:href="#ArialMT-6d" x="22.216797"/>
      <use xlink:href="#ArialMT-69" x="105.517578"/>
      <use xlink:href="#ArialMT-6e" x="127.734375"/>
      <use xlink:href="#ArialMT-65" x="183.349609"/>
      <use xlink:href="#ArialMT-20" x="238.964844"/>
      <use xlink:href="#ArialMT-70" x="266.748047"/>
      <use xlink:href="#ArialMT-6f" x="322.363281"/>
      <use xlink:href="#ArialMT-6c" x="377.978516"/>
      <use xlink:href="#ArialMT-79" x="400.195312"/>
      <use xlink:href="#ArialMT-6d" x="450.195312"/>
      <use xlink:href="#ArialMT-65" x="533.496094"/>
      <use xlink:href="#ArialMT-72" x="589.111328"/>
      <use xlink:href="#ArialMT-20" x="622.412109"/>
      <use xlink:href="#ArialMT-30" x="650.195312"/>
      <use xlink:href="#ArialMT-2e" x="705.810547"/>
      <use xlink:href="#ArialMT-32" x="733.59375"/>
      <use xlink:href="#ArialMT-35" x="789.208984"/>
      <use xlink:href="#ArialMT-25" x="844.824219"/>
      <use xlink:href="#ArialMT-20" x="933.740234"/>
      <use xlink:href="#ArialMT-54" x="959.773438"/>
      <use xlink:href="#ArialMT-46" x="1020.857422"/>
      <use xlink:href="#ArialMT-41" x="1076.441406"/>
      <use xlink:href="#ArialMT-5f" x="1143.140625"/>
      <use xlink:href="#ArialMT-41" x="1198.755859"/>
      <use xlink:href="#ArialMT-62" x="1265.455078"/>
      <use xlink:href="#ArialMT-73" x="1321.070312"/>
     </g>
    </g>
    <g id="line2d_39">
     <path d="M 258.19925 79.938309 
L 264.19925 79.938309 
L 270.19925 79.938309 
" style="fill: none; stroke: #701f57; stroke-width: 1.5; stroke-linecap: round"/>
    </g>
    <g id="text_19">
     <!-- imine polymer 0.50% TFA_Abs -->
     <g style="fill: #262626" transform="translate(274.99925 82.038309) scale(0.06 -0.06)">
      <use xlink:href="#ArialMT-69"/>
      <use xlink:href="#ArialMT-6d" x="22.216797"/>
      <use xlink:href="#ArialMT-69" x="105.517578"/>
      <use xlink:href="#ArialMT-6e" x="127.734375"/>
      <use xlink:href="#ArialMT-65" x="183.349609"/>
      <use xlink:href="#ArialMT-20" x="238.964844"/>
      <use xlink:href="#ArialMT-70" x="266.748047"/>
      <use xlink:href="#ArialMT-6f" x="322.363281"/>
      <use xlink:href="#ArialMT-6c" x="377.978516"/>
      <use xlink:href="#ArialMT-79" x="400.195312"/>
      <use xlink:href="#ArialMT-6d" x="450.195312"/>
      <use xlink:href="#ArialMT-65" x="533.496094"/>
      <use xlink:href="#ArialMT-72" x="589.111328"/>
      <use xlink:href="#ArialMT-20" x="622.412109"/>
      <use xlink:href="#ArialMT-30" x="650.195312"/>
      <use xlink:href="#ArialMT-2e" x="705.810547"/>
      <use xlink:href="#ArialMT-35" x="733.59375"/>
      <use xlink:href="#ArialMT-30" x="789.208984"/>
      <use xlink:href="#ArialMT-25" x="844.824219"/>
      <use xlink:href="#ArialMT-20" x="933.740234"/>
      <use xlink:href="#ArialMT-54" x="959.773438"/>
      <use xlink:href="#ArialMT-46" x="1020.857422"/>
      <use xlink:href="#ArialMT-41" x="1076.441406"/>
      <use xlink:href="#ArialMT-5f" x="1143.140625"/>
      <use xlink:href="#ArialMT-41" x="1198.755859"/>
      <use xlink:href="#ArialMT-62" x="1265.455078"/>
      <use xlink:href="#ArialMT-73" x="1321.070312"/>
     </g>
    </g>
    <g id="line2d_40">
     <path d="M 258.19925 88.568934 
L 264.19925 88.568934 
L 270.19925 88.568934 
" style="fill: none; stroke: #35193e; stroke-width: 1.5; stroke-linecap: round"/>
    </g>
    <g id="text_20">
     <!-- imine polymer 1.00% TFA_Abs -->
     <g style="fill: #262626" transform="translate(274.99925 90.668934) scale(0.06 -0.06)">
      <use xlink:href="#ArialMT-69"/>
      <use xlink:href="#ArialMT-6d" x="22.216797"/>
      <use xlink:href="#ArialMT-69" x="105.517578"/>
      <use xlink:href="#ArialMT-6e" x="127.734375"/>
      <use xlink:href="#ArialMT-65" x="183.349609"/>
      <use xlink:href="#ArialMT-20" x="238.964844"/>
      <use xlink:href="#ArialMT-70" x="266.748047"/>
      <use xlink:href="#ArialMT-6f" x="322.363281"/>
      <use xlink:href="#ArialMT-6c" x="377.978516"/>
      <use xlink:href="#ArialMT-79" x="400.195312"/>
      <use xlink:href="#ArialMT-6d" x="450.195312"/>
      <use xlink:href="#ArialMT-65" x="533.496094"/>
      <use xlink:href="#ArialMT-72" x="589.111328"/>
      <use xlink:href="#ArialMT-20" x="622.412109"/>
      <use xlink:href="#ArialMT-31" x="650.195312"/>
      <use xlink:href="#ArialMT-2e" x="705.810547"/>
      <use xlink:href="#ArialMT-30" x="733.59375"/>
      <use xlink:href="#ArialMT-30" x="789.208984"/>
      <use xlink:href="#ArialMT-25" x="844.824219"/>
      <use xlink:href="#ArialMT-20" x="933.740234"/>
      <use xlink:href="#ArialMT-54" x="959.773438"/>
      <use xlink:href="#ArialMT-46" x="1020.857422"/>
      <use xlink:href="#ArialMT-41" x="1076.441406"/>
      <use xlink:href="#ArialMT-5f" x="1143.140625"/>
      <use xlink:href="#ArialMT-41" x="1198.755859"/>
      <use xlink:href="#ArialMT-62" x="1265.455078"/>
      <use xlink:href="#ArialMT-73" x="1321.070312"/>
     </g>
    </g>
   </g>
  </g>
 </g>
 <defs>
  <clipPath id="p778cd730e5">
   <rect x="41.25125" y="11.136797" width="357.12" height="266.112"/>
  </clipPath>
 </defs>
</svg>
