<?xml version="1.0" encoding="utf-8" standalone="no"?>
<!DOCTYPE svg PUBLIC "-//W3C//DTD SVG 1.1//EN"
  "http://www.w3.org/Graphics/SVG/1.1/DTD/svg11.dtd">
<svg xmlns:xlink="http://www.w3.org/1999/xlink" width="414.746797pt" height="313.269891pt" viewBox="0 0 414.746797 313.269891" xmlns="http://www.w3.org/2000/svg" version="1.1">
 <metadata>
  <rdf:RDF xmlns:dc="http://purl.org/dc/elements/1.1/" xmlns:cc="http://creativecommons.org/ns#" xmlns:rdf="http://www.w3.org/1999/02/22-rdf-syntax-ns#">
   <cc:Work>
    <dc:type rdf:resource="http://purl.org/dc/dcmitype/StillImage"/>
    <dc:date>2024-04-24T10:06:11.134943</dc:date>
    <dc:format>image/svg+xml</dc:format>
    <dc:creator>
     <cc:Agent>
      <dc:title>Matplotlib v3.7.1, https://matplotlib.org/</dc:title>
     </cc:Agent>
    </dc:creator>
   </cc:Work>
  </rdf:RDF>
 </metadata>
 <defs>
  <style type="text/css">*{stroke-linejoin: round; stroke-linecap: butt}</style>
 </defs>
 <g id="figure_1">
  <g id="patch_1">
   <path d="M 0 313.269891 
L 414.746797 313.269891 
L 414.746797 0 
L 0 0 
z
" style="fill: #ffffff"/>
  </g>
  <g id="axes_1">
   <g id="patch_2">
    <path d="M 41.25125 277.248797 
L 398.37125 277.248797 
L 398.37125 11.136797 
L 41.25125 11.136797 
z
" style="fill: #ffffff"/>
   </g>
   <g id="matplotlib.axis_1">
    <g id="xtick_1">
     <g id="line2d_1">
      <defs>
       <path id="mf030c459e3" d="M 0 0 
L 0 -6 
" style="stroke: #262626; stroke-width: 1.25"/>
      </defs>
      <g>
       <use xlink:href="#mf030c459e3" x="41.25125" y="277.248797" style="fill: #262626; stroke: #262626; stroke-width: 1.25"/>
      </g>
     </g>
     <g id="text_1">
      <!-- 300 -->
      <g style="fill: #262626" transform="translate(32.075703 288.622391) scale(0.11 -0.11)">
       <defs>
        <path id="ArialMT-33" d="M 269 1209 
L 831 1284 
Q 928 806 1161 595 
Q 1394 384 1728 384 
Q 2125 384 2398 659 
Q 2672 934 2672 1341 
Q 2672 1728 2419 1979 
Q 2166 2231 1775 2231 
Q 1616 2231 1378 2169 
L 1441 2663 
Q 1497 2656 1531 2656 
Q 1891 2656 2178 2843 
Q 2466 3031 2466 3422 
Q 2466 3731 2256 3934 
Q 2047 4138 1716 4138 
Q 1388 4138 1169 3931 
Q 950 3725 888 3313 
L 325 3413 
Q 428 3978 793 4289 
Q 1159 4600 1703 4600 
Q 2078 4600 2393 4439 
Q 2709 4278 2876 4000 
Q 3044 3722 3044 3409 
Q 3044 3113 2884 2869 
Q 2725 2625 2413 2481 
Q 2819 2388 3044 2092 
Q 3269 1797 3269 1353 
Q 3269 753 2831 336 
Q 2394 -81 1725 -81 
Q 1122 -81 723 278 
Q 325 638 269 1209 
z
" transform="scale(0.015625)"/>
        <path id="ArialMT-30" d="M 266 2259 
Q 266 3072 433 3567 
Q 600 4063 929 4331 
Q 1259 4600 1759 4600 
Q 2128 4600 2406 4451 
Q 2684 4303 2865 4023 
Q 3047 3744 3150 3342 
Q 3253 2941 3253 2259 
Q 3253 1453 3087 958 
Q 2922 463 2592 192 
Q 2263 -78 1759 -78 
Q 1097 -78 719 397 
Q 266 969 266 2259 
z
M 844 2259 
Q 844 1131 1108 757 
Q 1372 384 1759 384 
Q 2147 384 2411 759 
Q 2675 1134 2675 2259 
Q 2675 3391 2411 3762 
Q 2147 4134 1753 4134 
Q 1366 4134 1134 3806 
Q 844 3388 844 2259 
z
" transform="scale(0.015625)"/>
       </defs>
       <use xlink:href="#ArialMT-33"/>
       <use xlink:href="#ArialMT-30" x="55.615234"/>
       <use xlink:href="#ArialMT-30" x="111.230469"/>
      </g>
     </g>
    </g>
    <g id="xtick_2">
     <g id="line2d_2">
      <g>
       <use xlink:href="#mf030c459e3" x="85.89125" y="277.248797" style="fill: #262626; stroke: #262626; stroke-width: 1.25"/>
      </g>
     </g>
     <g id="text_2">
      <!-- 350 -->
      <g style="fill: #262626" transform="translate(76.715703 288.622391) scale(0.11 -0.11)">
       <defs>
        <path id="ArialMT-35" d="M 266 1200 
L 856 1250 
Q 922 819 1161 601 
Q 1400 384 1738 384 
Q 2144 384 2425 690 
Q 2706 997 2706 1503 
Q 2706 1984 2436 2262 
Q 2166 2541 1728 2541 
Q 1456 2541 1237 2417 
Q 1019 2294 894 2097 
L 366 2166 
L 809 4519 
L 3088 4519 
L 3088 3981 
L 1259 3981 
L 1013 2750 
Q 1425 3038 1878 3038 
Q 2478 3038 2890 2622 
Q 3303 2206 3303 1553 
Q 3303 931 2941 478 
Q 2500 -78 1738 -78 
Q 1113 -78 717 272 
Q 322 622 266 1200 
z
" transform="scale(0.015625)"/>
       </defs>
       <use xlink:href="#ArialMT-33"/>
       <use xlink:href="#ArialMT-35" x="55.615234"/>
       <use xlink:href="#ArialMT-30" x="111.230469"/>
      </g>
     </g>
    </g>
    <g id="xtick_3">
     <g id="line2d_3">
      <g>
       <use xlink:href="#mf030c459e3" x="130.53125" y="277.248797" style="fill: #262626; stroke: #262626; stroke-width: 1.25"/>
      </g>
     </g>
     <g id="text_3">
      <!-- 400 -->
      <g style="fill: #262626" transform="translate(121.355703 288.622391) scale(0.11 -0.11)">
       <defs>
        <path id="ArialMT-34" d="M 2069 0 
L 2069 1097 
L 81 1097 
L 81 1613 
L 2172 4581 
L 2631 4581 
L 2631 1613 
L 3250 1613 
L 3250 1097 
L 2631 1097 
L 2631 0 
L 2069 0 
z
M 2069 1613 
L 2069 3678 
L 634 1613 
L 2069 1613 
z
" transform="scale(0.015625)"/>
       </defs>
       <use xlink:href="#ArialMT-34"/>
       <use xlink:href="#ArialMT-30" x="55.615234"/>
       <use xlink:href="#ArialMT-30" x="111.230469"/>
      </g>
     </g>
    </g>
    <g id="xtick_4">
     <g id="line2d_4">
      <g>
       <use xlink:href="#mf030c459e3" x="175.17125" y="277.248797" style="fill: #262626; stroke: #262626; stroke-width: 1.25"/>
      </g>
     </g>
     <g id="text_4">
      <!-- 450 -->
      <g style="fill: #262626" transform="translate(165.995703 288.622391) scale(0.11 -0.11)">
       <use xlink:href="#ArialMT-34"/>
       <use xlink:href="#ArialMT-35" x="55.615234"/>
       <use xlink:href="#ArialMT-30" x="111.230469"/>
      </g>
     </g>
    </g>
    <g id="xtick_5">
     <g id="line2d_5">
      <g>
       <use xlink:href="#mf030c459e3" x="219.81125" y="277.248797" style="fill: #262626; stroke: #262626; stroke-width: 1.25"/>
      </g>
     </g>
     <g id="text_5">
      <!-- 500 -->
      <g style="fill: #262626" transform="translate(210.635703 288.622391) scale(0.11 -0.11)">
       <use xlink:href="#ArialMT-35"/>
       <use xlink:href="#ArialMT-30" x="55.615234"/>
       <use xlink:href="#ArialMT-30" x="111.230469"/>
      </g>
     </g>
    </g>
    <g id="xtick_6">
     <g id="line2d_6">
      <g>
       <use xlink:href="#mf030c459e3" x="264.45125" y="277.248797" style="fill: #262626; stroke: #262626; stroke-width: 1.25"/>
      </g>
     </g>
     <g id="text_6">
      <!-- 550 -->
      <g style="fill: #262626" transform="translate(255.275703 288.622391) scale(0.11 -0.11)">
       <use xlink:href="#ArialMT-35"/>
       <use xlink:href="#ArialMT-35" x="55.615234"/>
       <use xlink:href="#ArialMT-30" x="111.230469"/>
      </g>
     </g>
    </g>
    <g id="xtick_7">
     <g id="line2d_7">
      <g>
       <use xlink:href="#mf030c459e3" x="309.09125" y="277.248797" style="fill: #262626; stroke: #262626; stroke-width: 1.25"/>
      </g>
     </g>
     <g id="text_7">
      <!-- 600 -->
      <g style="fill: #262626" transform="translate(299.915703 288.622391) scale(0.11 -0.11)">
       <defs>
        <path id="ArialMT-36" d="M 3184 3459 
L 2625 3416 
Q 2550 3747 2413 3897 
Q 2184 4138 1850 4138 
Q 1581 4138 1378 3988 
Q 1113 3794 959 3422 
Q 806 3050 800 2363 
Q 1003 2672 1297 2822 
Q 1591 2972 1913 2972 
Q 2475 2972 2870 2558 
Q 3266 2144 3266 1488 
Q 3266 1056 3080 686 
Q 2894 316 2569 119 
Q 2244 -78 1831 -78 
Q 1128 -78 684 439 
Q 241 956 241 2144 
Q 241 3472 731 4075 
Q 1159 4600 1884 4600 
Q 2425 4600 2770 4297 
Q 3116 3994 3184 3459 
z
M 888 1484 
Q 888 1194 1011 928 
Q 1134 663 1356 523 
Q 1578 384 1822 384 
Q 2178 384 2434 671 
Q 2691 959 2691 1453 
Q 2691 1928 2437 2201 
Q 2184 2475 1800 2475 
Q 1419 2475 1153 2201 
Q 888 1928 888 1484 
z
" transform="scale(0.015625)"/>
       </defs>
       <use xlink:href="#ArialMT-36"/>
       <use xlink:href="#ArialMT-30" x="55.615234"/>
       <use xlink:href="#ArialMT-30" x="111.230469"/>
      </g>
     </g>
    </g>
    <g id="xtick_8">
     <g id="line2d_8">
      <g>
       <use xlink:href="#mf030c459e3" x="353.73125" y="277.248797" style="fill: #262626; stroke: #262626; stroke-width: 1.25"/>
      </g>
     </g>
     <g id="text_8">
      <!-- 650 -->
      <g style="fill: #262626" transform="translate(344.555703 288.622391) scale(0.11 -0.11)">
       <use xlink:href="#ArialMT-36"/>
       <use xlink:href="#ArialMT-35" x="55.615234"/>
       <use xlink:href="#ArialMT-30" x="111.230469"/>
      </g>
     </g>
    </g>
    <g id="xtick_9">
     <g id="line2d_9">
      <g>
       <use xlink:href="#mf030c459e3" x="398.37125" y="277.248797" style="fill: #262626; stroke: #262626; stroke-width: 1.25"/>
      </g>
     </g>
     <g id="text_9">
      <!-- 700 -->
      <g style="fill: #262626" transform="translate(389.195703 288.622391) scale(0.11 -0.11)">
       <defs>
        <path id="ArialMT-37" d="M 303 3981 
L 303 4522 
L 3269 4522 
L 3269 4084 
Q 2831 3619 2401 2847 
Q 1972 2075 1738 1259 
Q 1569 684 1522 0 
L 944 0 
Q 953 541 1156 1306 
Q 1359 2072 1739 2783 
Q 2119 3494 2547 3981 
L 303 3981 
z
" transform="scale(0.015625)"/>
       </defs>
       <use xlink:href="#ArialMT-37"/>
       <use xlink:href="#ArialMT-30" x="55.615234"/>
       <use xlink:href="#ArialMT-30" x="111.230469"/>
      </g>
     </g>
    </g>
    <g id="xtick_10">
     <g id="line2d_10">
      <defs>
       <path id="mf4c45f2ed0" d="M 0 0 
L 0 -4 
" style="stroke: #262626"/>
      </defs>
      <g>
       <use xlink:href="#mf4c45f2ed0" x="63.57125" y="277.248797" style="fill: #262626; stroke: #262626"/>
      </g>
     </g>
    </g>
    <g id="xtick_11">
     <g id="line2d_11">
      <g>
       <use xlink:href="#mf4c45f2ed0" x="108.21125" y="277.248797" style="fill: #262626; stroke: #262626"/>
      </g>
     </g>
    </g>
    <g id="xtick_12">
     <g id="line2d_12">
      <g>
       <use xlink:href="#mf4c45f2ed0" x="152.85125" y="277.248797" style="fill: #262626; stroke: #262626"/>
      </g>
     </g>
    </g>
    <g id="xtick_13">
     <g id="line2d_13">
      <g>
       <use xlink:href="#mf4c45f2ed0" x="197.49125" y="277.248797" style="fill: #262626; stroke: #262626"/>
      </g>
     </g>
    </g>
    <g id="xtick_14">
     <g id="line2d_14">
      <g>
       <use xlink:href="#mf4c45f2ed0" x="242.13125" y="277.248797" style="fill: #262626; stroke: #262626"/>
      </g>
     </g>
    </g>
    <g id="xtick_15">
     <g id="line2d_15">
      <g>
       <use xlink:href="#mf4c45f2ed0" x="286.77125" y="277.248797" style="fill: #262626; stroke: #262626"/>
      </g>
     </g>
    </g>
    <g id="xtick_16">
     <g id="line2d_16">
      <g>
       <use xlink:href="#mf4c45f2ed0" x="331.41125" y="277.248797" style="fill: #262626; stroke: #262626"/>
      </g>
     </g>
    </g>
    <g id="xtick_17">
     <g id="line2d_17">
      <g>
       <use xlink:href="#mf4c45f2ed0" x="376.05125" y="277.248797" style="fill: #262626; stroke: #262626"/>
      </g>
     </g>
    </g>
    <g id="text_10">
     <!-- Wavelength (nm) -->
     <g style="fill: #262626" transform="translate(174.356562 303.544266) scale(0.12 -0.12)">
      <defs>
       <path id="ArialMT-57" d="M 1294 0 
L 78 4581 
L 700 4581 
L 1397 1578 
Q 1509 1106 1591 641 
Q 1766 1375 1797 1488 
L 2669 4581 
L 3400 4581 
L 4056 2263 
Q 4303 1400 4413 641 
Q 4500 1075 4641 1638 
L 5359 4581 
L 5969 4581 
L 4713 0 
L 4128 0 
L 3163 3491 
Q 3041 3928 3019 4028 
Q 2947 3713 2884 3491 
L 1913 0 
L 1294 0 
z
" transform="scale(0.015625)"/>
       <path id="ArialMT-61" d="M 2588 409 
Q 2275 144 1986 34 
Q 1697 -75 1366 -75 
Q 819 -75 525 192 
Q 231 459 231 875 
Q 231 1119 342 1320 
Q 453 1522 633 1644 
Q 813 1766 1038 1828 
Q 1203 1872 1538 1913 
Q 2219 1994 2541 2106 
Q 2544 2222 2544 2253 
Q 2544 2597 2384 2738 
Q 2169 2928 1744 2928 
Q 1347 2928 1158 2789 
Q 969 2650 878 2297 
L 328 2372 
Q 403 2725 575 2942 
Q 747 3159 1072 3276 
Q 1397 3394 1825 3394 
Q 2250 3394 2515 3294 
Q 2781 3194 2906 3042 
Q 3031 2891 3081 2659 
Q 3109 2516 3109 2141 
L 3109 1391 
Q 3109 606 3145 398 
Q 3181 191 3288 0 
L 2700 0 
Q 2613 175 2588 409 
z
M 2541 1666 
Q 2234 1541 1622 1453 
Q 1275 1403 1131 1340 
Q 988 1278 909 1158 
Q 831 1038 831 891 
Q 831 666 1001 516 
Q 1172 366 1500 366 
Q 1825 366 2078 508 
Q 2331 650 2450 897 
Q 2541 1088 2541 1459 
L 2541 1666 
z
" transform="scale(0.015625)"/>
       <path id="ArialMT-76" d="M 1344 0 
L 81 3319 
L 675 3319 
L 1388 1331 
Q 1503 1009 1600 663 
Q 1675 925 1809 1294 
L 2547 3319 
L 3125 3319 
L 1869 0 
L 1344 0 
z
" transform="scale(0.015625)"/>
       <path id="ArialMT-65" d="M 2694 1069 
L 3275 997 
Q 3138 488 2766 206 
Q 2394 -75 1816 -75 
Q 1088 -75 661 373 
Q 234 822 234 1631 
Q 234 2469 665 2931 
Q 1097 3394 1784 3394 
Q 2450 3394 2872 2941 
Q 3294 2488 3294 1666 
Q 3294 1616 3291 1516 
L 816 1516 
Q 847 969 1125 678 
Q 1403 388 1819 388 
Q 2128 388 2347 550 
Q 2566 713 2694 1069 
z
M 847 1978 
L 2700 1978 
Q 2663 2397 2488 2606 
Q 2219 2931 1791 2931 
Q 1403 2931 1139 2672 
Q 875 2413 847 1978 
z
" transform="scale(0.015625)"/>
       <path id="ArialMT-6c" d="M 409 0 
L 409 4581 
L 972 4581 
L 972 0 
L 409 0 
z
" transform="scale(0.015625)"/>
       <path id="ArialMT-6e" d="M 422 0 
L 422 3319 
L 928 3319 
L 928 2847 
Q 1294 3394 1984 3394 
Q 2284 3394 2536 3286 
Q 2788 3178 2913 3003 
Q 3038 2828 3088 2588 
Q 3119 2431 3119 2041 
L 3119 0 
L 2556 0 
L 2556 2019 
Q 2556 2363 2490 2533 
Q 2425 2703 2258 2804 
Q 2091 2906 1866 2906 
Q 1506 2906 1245 2678 
Q 984 2450 984 1813 
L 984 0 
L 422 0 
z
" transform="scale(0.015625)"/>
       <path id="ArialMT-67" d="M 319 -275 
L 866 -356 
Q 900 -609 1056 -725 
Q 1266 -881 1628 -881 
Q 2019 -881 2231 -725 
Q 2444 -569 2519 -288 
Q 2563 -116 2559 434 
Q 2191 0 1641 0 
Q 956 0 581 494 
Q 206 988 206 1678 
Q 206 2153 378 2554 
Q 550 2956 876 3175 
Q 1203 3394 1644 3394 
Q 2231 3394 2613 2919 
L 2613 3319 
L 3131 3319 
L 3131 450 
Q 3131 -325 2973 -648 
Q 2816 -972 2473 -1159 
Q 2131 -1347 1631 -1347 
Q 1038 -1347 672 -1080 
Q 306 -813 319 -275 
z
M 784 1719 
Q 784 1066 1043 766 
Q 1303 466 1694 466 
Q 2081 466 2343 764 
Q 2606 1063 2606 1700 
Q 2606 2309 2336 2618 
Q 2066 2928 1684 2928 
Q 1309 2928 1046 2623 
Q 784 2319 784 1719 
z
" transform="scale(0.015625)"/>
       <path id="ArialMT-74" d="M 1650 503 
L 1731 6 
Q 1494 -44 1306 -44 
Q 1000 -44 831 53 
Q 663 150 594 308 
Q 525 466 525 972 
L 525 2881 
L 113 2881 
L 113 3319 
L 525 3319 
L 525 4141 
L 1084 4478 
L 1084 3319 
L 1650 3319 
L 1650 2881 
L 1084 2881 
L 1084 941 
Q 1084 700 1114 631 
Q 1144 563 1211 522 
Q 1278 481 1403 481 
Q 1497 481 1650 503 
z
" transform="scale(0.015625)"/>
       <path id="ArialMT-68" d="M 422 0 
L 422 4581 
L 984 4581 
L 984 2938 
Q 1378 3394 1978 3394 
Q 2347 3394 2619 3248 
Q 2891 3103 3008 2847 
Q 3125 2591 3125 2103 
L 3125 0 
L 2563 0 
L 2563 2103 
Q 2563 2525 2380 2717 
Q 2197 2909 1863 2909 
Q 1613 2909 1392 2779 
Q 1172 2650 1078 2428 
Q 984 2206 984 1816 
L 984 0 
L 422 0 
z
" transform="scale(0.015625)"/>
       <path id="ArialMT-20" transform="scale(0.015625)"/>
       <path id="ArialMT-28" d="M 1497 -1347 
Q 1031 -759 709 28 
Q 388 816 388 1659 
Q 388 2403 628 3084 
Q 909 3875 1497 4659 
L 1900 4659 
Q 1522 4009 1400 3731 
Q 1209 3300 1100 2831 
Q 966 2247 966 1656 
Q 966 153 1900 -1347 
L 1497 -1347 
z
" transform="scale(0.015625)"/>
       <path id="ArialMT-6d" d="M 422 0 
L 422 3319 
L 925 3319 
L 925 2853 
Q 1081 3097 1340 3245 
Q 1600 3394 1931 3394 
Q 2300 3394 2536 3241 
Q 2772 3088 2869 2813 
Q 3263 3394 3894 3394 
Q 4388 3394 4653 3120 
Q 4919 2847 4919 2278 
L 4919 0 
L 4359 0 
L 4359 2091 
Q 4359 2428 4304 2576 
Q 4250 2725 4106 2815 
Q 3963 2906 3769 2906 
Q 3419 2906 3187 2673 
Q 2956 2441 2956 1928 
L 2956 0 
L 2394 0 
L 2394 2156 
Q 2394 2531 2256 2718 
Q 2119 2906 1806 2906 
Q 1569 2906 1367 2781 
Q 1166 2656 1075 2415 
Q 984 2175 984 1722 
L 984 0 
L 422 0 
z
" transform="scale(0.015625)"/>
       <path id="ArialMT-29" d="M 791 -1347 
L 388 -1347 
Q 1322 153 1322 1656 
Q 1322 2244 1188 2822 
Q 1081 3291 891 3722 
Q 769 4003 388 4659 
L 791 4659 
Q 1378 3875 1659 3084 
Q 1900 2403 1900 1659 
Q 1900 816 1576 28 
Q 1253 -759 791 -1347 
z
" transform="scale(0.015625)"/>
      </defs>
      <use xlink:href="#ArialMT-57"/>
      <use xlink:href="#ArialMT-61" x="90.634766"/>
      <use xlink:href="#ArialMT-76" x="146.25"/>
      <use xlink:href="#ArialMT-65" x="196.25"/>
      <use xlink:href="#ArialMT-6c" x="251.865234"/>
      <use xlink:href="#ArialMT-65" x="274.082031"/>
      <use xlink:href="#ArialMT-6e" x="329.697266"/>
      <use xlink:href="#ArialMT-67" x="385.3125"/>
      <use xlink:href="#ArialMT-74" x="440.927734"/>
      <use xlink:href="#ArialMT-68" x="468.710938"/>
      <use xlink:href="#ArialMT-20" x="524.326172"/>
      <use xlink:href="#ArialMT-28" x="552.109375"/>
      <use xlink:href="#ArialMT-6e" x="585.410156"/>
      <use xlink:href="#ArialMT-6d" x="641.025391"/>
      <use xlink:href="#ArialMT-29" x="724.326172"/>
     </g>
    </g>
   </g>
   <g id="matplotlib.axis_2">
    <g id="ytick_1">
     <g id="line2d_18">
      <defs>
       <path id="me791d5d63c" d="M 0 0 
L 6 0 
" style="stroke: #262626; stroke-width: 1.25"/>
      </defs>
      <g>
       <use xlink:href="#me791d5d63c" x="41.25125" y="277.248797" style="fill: #262626; stroke: #262626; stroke-width: 1.25"/>
      </g>
     </g>
     <g id="text_11">
      <!-- 0.0 -->
      <g style="fill: #262626" transform="translate(22.46125 281.185594) scale(0.11 -0.11)">
       <defs>
        <path id="ArialMT-2e" d="M 581 0 
L 581 641 
L 1222 641 
L 1222 0 
L 581 0 
z
" transform="scale(0.015625)"/>
       </defs>
       <use xlink:href="#ArialMT-30"/>
       <use xlink:href="#ArialMT-2e" x="55.615234"/>
       <use xlink:href="#ArialMT-30" x="83.398438"/>
      </g>
     </g>
    </g>
    <g id="ytick_2">
     <g id="line2d_19">
      <g>
       <use xlink:href="#me791d5d63c" x="41.25125" y="224.026397" style="fill: #262626; stroke: #262626; stroke-width: 1.25"/>
      </g>
     </g>
     <g id="text_12">
      <!-- 0.5 -->
      <g style="fill: #262626" transform="translate(22.46125 227.963194) scale(0.11 -0.11)">
       <use xlink:href="#ArialMT-30"/>
       <use xlink:href="#ArialMT-2e" x="55.615234"/>
       <use xlink:href="#ArialMT-35" x="83.398438"/>
      </g>
     </g>
    </g>
    <g id="ytick_3">
     <g id="line2d_20">
      <g>
       <use xlink:href="#me791d5d63c" x="41.25125" y="170.803997" style="fill: #262626; stroke: #262626; stroke-width: 1.25"/>
      </g>
     </g>
     <g id="text_13">
      <!-- 1.0 -->
      <g style="fill: #262626" transform="translate(22.46125 174.740794) scale(0.11 -0.11)">
       <defs>
        <path id="ArialMT-31" d="M 2384 0 
L 1822 0 
L 1822 3584 
Q 1619 3391 1289 3197 
Q 959 3003 697 2906 
L 697 3450 
Q 1169 3672 1522 3987 
Q 1875 4303 2022 4600 
L 2384 4600 
L 2384 0 
z
" transform="scale(0.015625)"/>
       </defs>
       <use xlink:href="#ArialMT-31"/>
       <use xlink:href="#ArialMT-2e" x="55.615234"/>
       <use xlink:href="#ArialMT-30" x="83.398438"/>
      </g>
     </g>
    </g>
    <g id="ytick_4">
     <g id="line2d_21">
      <g>
       <use xlink:href="#me791d5d63c" x="41.25125" y="117.581597" style="fill: #262626; stroke: #262626; stroke-width: 1.25"/>
      </g>
     </g>
     <g id="text_14">
      <!-- 1.5 -->
      <g style="fill: #262626" transform="translate(22.46125 121.518394) scale(0.11 -0.11)">
       <use xlink:href="#ArialMT-31"/>
       <use xlink:href="#ArialMT-2e" x="55.615234"/>
       <use xlink:href="#ArialMT-35" x="83.398438"/>
      </g>
     </g>
    </g>
    <g id="ytick_5">
     <g id="line2d_22">
      <g>
       <use xlink:href="#me791d5d63c" x="41.25125" y="64.359197" style="fill: #262626; stroke: #262626; stroke-width: 1.25"/>
      </g>
     </g>
     <g id="text_15">
      <!-- 2.0 -->
      <g style="fill: #262626" transform="translate(22.46125 68.295994) scale(0.11 -0.11)">
       <defs>
        <path id="ArialMT-32" d="M 3222 541 
L 3222 0 
L 194 0 
Q 188 203 259 391 
Q 375 700 629 1000 
Q 884 1300 1366 1694 
Q 2113 2306 2375 2664 
Q 2638 3022 2638 3341 
Q 2638 3675 2398 3904 
Q 2159 4134 1775 4134 
Q 1369 4134 1125 3890 
Q 881 3647 878 3216 
L 300 3275 
Q 359 3922 746 4261 
Q 1134 4600 1788 4600 
Q 2447 4600 2831 4234 
Q 3216 3869 3216 3328 
Q 3216 3053 3103 2787 
Q 2991 2522 2730 2228 
Q 2469 1934 1863 1422 
Q 1356 997 1212 845 
Q 1069 694 975 541 
L 3222 541 
z
" transform="scale(0.015625)"/>
       </defs>
       <use xlink:href="#ArialMT-32"/>
       <use xlink:href="#ArialMT-2e" x="55.615234"/>
       <use xlink:href="#ArialMT-30" x="83.398438"/>
      </g>
     </g>
    </g>
    <g id="ytick_6">
     <g id="line2d_23">
      <g>
       <use xlink:href="#me791d5d63c" x="41.25125" y="11.136797" style="fill: #262626; stroke: #262626; stroke-width: 1.25"/>
      </g>
     </g>
     <g id="text_16">
      <!-- 2.5 -->
      <g style="fill: #262626" transform="translate(22.46125 15.073594) scale(0.11 -0.11)">
       <use xlink:href="#ArialMT-32"/>
       <use xlink:href="#ArialMT-2e" x="55.615234"/>
       <use xlink:href="#ArialMT-35" x="83.398438"/>
      </g>
     </g>
    </g>
    <g id="ytick_7">
     <g id="line2d_24">
      <defs>
       <path id="m95d29f7ea7" d="M 0 0 
L 4 0 
" style="stroke: #262626"/>
      </defs>
      <g>
       <use xlink:href="#m95d29f7ea7" x="41.25125" y="250.637597" style="fill: #262626; stroke: #262626"/>
      </g>
     </g>
    </g>
    <g id="ytick_8">
     <g id="line2d_25">
      <g>
       <use xlink:href="#m95d29f7ea7" x="41.25125" y="197.415197" style="fill: #262626; stroke: #262626"/>
      </g>
     </g>
    </g>
    <g id="ytick_9">
     <g id="line2d_26">
      <g>
       <use xlink:href="#m95d29f7ea7" x="41.25125" y="144.192797" style="fill: #262626; stroke: #262626"/>
      </g>
     </g>
    </g>
    <g id="ytick_10">
     <g id="line2d_27">
      <g>
       <use xlink:href="#m95d29f7ea7" x="41.25125" y="90.970397" style="fill: #262626; stroke: #262626"/>
      </g>
     </g>
    </g>
    <g id="ytick_11">
     <g id="line2d_28">
      <g>
       <use xlink:href="#m95d29f7ea7" x="41.25125" y="37.747997" style="fill: #262626; stroke: #262626"/>
      </g>
     </g>
    </g>
    <g id="text_17">
     <!-- Absorbance (a.u.) -->
     <g style="fill: #262626" transform="translate(15.935625 191.881547) rotate(-90) scale(0.12 -0.12)">
      <defs>
       <path id="ArialMT-41" d="M -9 0 
L 1750 4581 
L 2403 4581 
L 4278 0 
L 3588 0 
L 3053 1388 
L 1138 1388 
L 634 0 
L -9 0 
z
M 1313 1881 
L 2866 1881 
L 2388 3150 
Q 2169 3728 2063 4100 
Q 1975 3659 1816 3225 
L 1313 1881 
z
" transform="scale(0.015625)"/>
       <path id="ArialMT-62" d="M 941 0 
L 419 0 
L 419 4581 
L 981 4581 
L 981 2947 
Q 1338 3394 1891 3394 
Q 2197 3394 2470 3270 
Q 2744 3147 2920 2923 
Q 3097 2700 3197 2384 
Q 3297 2069 3297 1709 
Q 3297 856 2875 390 
Q 2453 -75 1863 -75 
Q 1275 -75 941 416 
L 941 0 
z
M 934 1684 
Q 934 1088 1097 822 
Q 1363 388 1816 388 
Q 2184 388 2453 708 
Q 2722 1028 2722 1663 
Q 2722 2313 2464 2622 
Q 2206 2931 1841 2931 
Q 1472 2931 1203 2611 
Q 934 2291 934 1684 
z
" transform="scale(0.015625)"/>
       <path id="ArialMT-73" d="M 197 991 
L 753 1078 
Q 800 744 1014 566 
Q 1228 388 1613 388 
Q 2000 388 2187 545 
Q 2375 703 2375 916 
Q 2375 1106 2209 1216 
Q 2094 1291 1634 1406 
Q 1016 1563 777 1677 
Q 538 1791 414 1992 
Q 291 2194 291 2438 
Q 291 2659 392 2848 
Q 494 3038 669 3163 
Q 800 3259 1026 3326 
Q 1253 3394 1513 3394 
Q 1903 3394 2198 3281 
Q 2494 3169 2634 2976 
Q 2775 2784 2828 2463 
L 2278 2388 
Q 2241 2644 2061 2787 
Q 1881 2931 1553 2931 
Q 1166 2931 1000 2803 
Q 834 2675 834 2503 
Q 834 2394 903 2306 
Q 972 2216 1119 2156 
Q 1203 2125 1616 2013 
Q 2213 1853 2448 1751 
Q 2684 1650 2818 1456 
Q 2953 1263 2953 975 
Q 2953 694 2789 445 
Q 2625 197 2315 61 
Q 2006 -75 1616 -75 
Q 969 -75 630 194 
Q 291 463 197 991 
z
" transform="scale(0.015625)"/>
       <path id="ArialMT-6f" d="M 213 1659 
Q 213 2581 725 3025 
Q 1153 3394 1769 3394 
Q 2453 3394 2887 2945 
Q 3322 2497 3322 1706 
Q 3322 1066 3130 698 
Q 2938 331 2570 128 
Q 2203 -75 1769 -75 
Q 1072 -75 642 372 
Q 213 819 213 1659 
z
M 791 1659 
Q 791 1022 1069 705 
Q 1347 388 1769 388 
Q 2188 388 2466 706 
Q 2744 1025 2744 1678 
Q 2744 2294 2464 2611 
Q 2184 2928 1769 2928 
Q 1347 2928 1069 2612 
Q 791 2297 791 1659 
z
" transform="scale(0.015625)"/>
       <path id="ArialMT-72" d="M 416 0 
L 416 3319 
L 922 3319 
L 922 2816 
Q 1116 3169 1280 3281 
Q 1444 3394 1641 3394 
Q 1925 3394 2219 3213 
L 2025 2691 
Q 1819 2813 1613 2813 
Q 1428 2813 1281 2702 
Q 1134 2591 1072 2394 
Q 978 2094 978 1738 
L 978 0 
L 416 0 
z
" transform="scale(0.015625)"/>
       <path id="ArialMT-63" d="M 2588 1216 
L 3141 1144 
Q 3050 572 2676 248 
Q 2303 -75 1759 -75 
Q 1078 -75 664 370 
Q 250 816 250 1647 
Q 250 2184 428 2587 
Q 606 2991 970 3192 
Q 1334 3394 1763 3394 
Q 2303 3394 2647 3120 
Q 2991 2847 3088 2344 
L 2541 2259 
Q 2463 2594 2264 2762 
Q 2066 2931 1784 2931 
Q 1359 2931 1093 2626 
Q 828 2322 828 1663 
Q 828 994 1084 691 
Q 1341 388 1753 388 
Q 2084 388 2306 591 
Q 2528 794 2588 1216 
z
" transform="scale(0.015625)"/>
       <path id="ArialMT-75" d="M 2597 0 
L 2597 488 
Q 2209 -75 1544 -75 
Q 1250 -75 995 37 
Q 741 150 617 320 
Q 494 491 444 738 
Q 409 903 409 1263 
L 409 3319 
L 972 3319 
L 972 1478 
Q 972 1038 1006 884 
Q 1059 663 1231 536 
Q 1403 409 1656 409 
Q 1909 409 2131 539 
Q 2353 669 2445 892 
Q 2538 1116 2538 1541 
L 2538 3319 
L 3100 3319 
L 3100 0 
L 2597 0 
z
" transform="scale(0.015625)"/>
      </defs>
      <use xlink:href="#ArialMT-41"/>
      <use xlink:href="#ArialMT-62" x="66.699219"/>
      <use xlink:href="#ArialMT-73" x="122.314453"/>
      <use xlink:href="#ArialMT-6f" x="172.314453"/>
      <use xlink:href="#ArialMT-72" x="227.929688"/>
      <use xlink:href="#ArialMT-62" x="261.230469"/>
      <use xlink:href="#ArialMT-61" x="316.845703"/>
      <use xlink:href="#ArialMT-6e" x="372.460938"/>
      <use xlink:href="#ArialMT-63" x="428.076172"/>
      <use xlink:href="#ArialMT-65" x="478.076172"/>
      <use xlink:href="#ArialMT-20" x="533.691406"/>
      <use xlink:href="#ArialMT-28" x="561.474609"/>
      <use xlink:href="#ArialMT-61" x="594.775391"/>
      <use xlink:href="#ArialMT-2e" x="650.390625"/>
      <use xlink:href="#ArialMT-75" x="678.173828"/>
      <use xlink:href="#ArialMT-2e" x="733.789062"/>
      <use xlink:href="#ArialMT-29" x="761.572266"/>
     </g>
    </g>
   </g>
   <g id="PolyCollection_1"/>
   <g id="PolyCollection_2"/>
   <g id="PolyCollection_3"/>
   <g id="PolyCollection_4"/>
   <g id="PolyCollection_5"/>
   <g id="PolyCollection_6"/>
   <g id="line2d_29">
    <path d="M 41.355766 233.5552 
L 43.142265 232.114248 
L 45.524255 229.61546 
L 47.310754 227.339112 
L 49.692744 223.828306 
L 51.479243 220.893951 
L 53.861233 216.550473 
L 56.838713 210.375441 
L 59.220703 204.945779 
L 63.389192 194.853468 
L 71.726142 174.535639 
L 74.108132 169.018105 
L 77.085639 162.712241 
L 79.467629 158.538011 
L 81.254101 155.882477 
L 83.636091 153.095292 
L 84.827099 152.001406 
L 88.40007 149.724619 
L 89.591079 149.227393 
L 91.973069 148.815565 
L 93.759568 149.025596 
L 94.950549 149.396375 
L 96.737048 150.350083 
L 97.928057 151.25018 
L 99.714528 152.902936 
L 102.096518 155.668829 
L 104.478508 158.829546 
L 109.838005 166.051228 
L 112.219995 168.729222 
L 114.006467 170.31314 
L 115.792966 171.55398 
L 117.579465 172.33882 
L 118.770474 172.643374 
L 119.961455 172.769118 
L 121.152463 172.738238 
L 122.938935 172.376919 
L 124.725434 171.647791 
L 126.511933 170.597505 
L 128.298433 169.249087 
L 130.084904 167.647315 
L 132.466894 165.142719 
L 135.444402 161.443396 
L 137.826392 158.12886 
L 141.399363 152.548197 
L 144.972361 146.348757 
L 147.949841 140.785998 
L 154.50032 127.578029 
L 158.668809 118.677285 
L 162.83727 109.538935 
L 173.556238 86.027836 
L 176.533718 79.948398 
L 178.915708 75.378874 
L 180.702207 72.177019 
L 183.679687 67.297459 
L 186.657195 63.139104 
L 188.443667 60.975772 
L 190.230166 59.074217 
L 192.016665 57.412109 
L 193.803164 56.079513 
L 195.589663 54.952788 
L 197.971653 53.946127 
L 199.758125 53.559614 
L 200.949133 53.447289 
L 202.735633 53.633262 
L 204.522104 54.211357 
L 206.308604 55.222281 
L 207.499612 56.179098 
L 209.286084 57.99094 
L 211.072583 60.330957 
L 212.859082 63.192424 
L 214.645581 66.527174 
L 217.027571 71.745382 
L 219.409561 77.66887 
L 222.387041 85.920244 
L 225.960039 96.702265 
L 231.31951 113.770165 
L 234.892508 125.57222 
L 240.251978 144.416279 
L 243.824976 158.026649 
L 247.993465 174.982154 
L 257.521424 214.925182 
L 260.498877 226.313586 
L 262.880894 234.559668 
L 264.667366 240.216739 
L 267.049383 246.89014 
L 269.431346 252.60664 
L 271.217872 256.27158 
L 273.004344 259.494336 
L 274.790816 262.265604 
L 276.577342 264.646577 
L 278.959304 267.26539 
L 281.341321 269.340788 
L 283.127793 270.620051 
L 284.914265 271.667018 
L 287.296282 272.809607 
L 290.27379 273.869821 
L 293.251243 274.644343 
L 297.419732 275.3882 
L 301.588221 275.868244 
L 307.543181 276.276202 
L 317.666631 276.601534 
L 323.026156 276.670219 
L 331.958624 276.746241 
L 366.497462 276.872946 
L 378.407438 276.882545 
L 398.654337 276.920021 
L 398.654337 276.920021 
" clip-path="url(#p0a0ca39741)" style="fill: none; stroke: #f6b48f; stroke-linecap: round"/>
   </g>
   <g id="line2d_30">
    <path d="M 41.355766 207.318452 
L 43.142265 201.41252 
L 46.119746 192.217177 
L 47.310754 187.511479 
L 48.501735 181.436945 
L 49.692744 173.96255 
L 50.883725 165.311574 
L 53.861233 142.563629 
L 55.052214 135.293766 
L 56.243222 129.607312 
L 57.434204 125.379357 
L 60.411684 116.587486 
L 61.602692 111.28294 
L 62.793674 103.996086 
L 63.984682 94.377094 
L 65.771181 76.947983 
L 67.557653 59.354091 
L 68.748662 50.322165 
L 69.344152 46.865447 
L 69.93967 44.565021 
L 70.535161 43.12982 
L 71.130651 42.682424 
L 71.726142 43.173065 
L 72.32166 44.159448 
L 72.917151 45.929136 
L 74.108132 50.796006 
L 76.490122 61.27039 
L 77.68113 64.902384 
L 78.276621 65.911011 
L 78.872111 66.487215 
L 79.467629 66.499372 
L 80.06312 65.791339 
L 80.65861 64.675488 
L 81.254101 63.082333 
L 83.0406 56.703467 
L 83.636091 54.527445 
L 84.231609 52.792323 
L 84.827099 51.715085 
L 85.42259 51.361361 
L 86.018081 51.883877 
L 86.613598 53.368337 
L 87.209089 56.057967 
L 87.80458 59.893585 
L 88.40007 64.954359 
L 89.591079 77.990567 
L 90.78206 94.260721 
L 93.759568 140.148822 
L 95.546067 165.906241 
L 97.332539 187.780071 
L 98.523547 199.896045 
L 99.714528 210.297174 
L 100.905537 219.15086 
L 102.096518 226.399469 
L 103.287527 232.538248 
L 104.478508 237.603026 
L 105.669516 241.876875 
L 106.860498 245.521019 
L 108.646997 249.909458 
L 109.838005 252.337343 
L 111.624477 255.369209 
L 113.410976 257.876239 
L 115.792966 260.549487 
L 117.579465 262.166237 
L 119.961455 263.907416 
L 121.747954 264.945952 
L 124.725434 266.285372 
L 128.893923 267.606918 
L 131.871404 268.361238 
L 138.421882 269.630358 
L 141.994853 270.147827 
L 150.331831 270.984566 
L 157.4778 271.407963 
L 178.915708 272.074948 
L 220.005051 272.667367 
L 236.67898 272.568258 
L 240.251978 272.511994 
L 248.588956 272.371587 
L 280.150286 271.854922 
L 299.206258 271.866603 
L 320.048648 272.216094 
L 327.790135 272.346251 
L 350.419051 272.45295 
L 359.94701 272.346187 
L 377.216402 271.929984 
L 390.91285 271.767629 
L 397.463356 271.786385 
L 398.654337 271.79431 
L 398.654337 271.79431 
" clip-path="url(#p0a0ca39741)" style="fill: none; stroke: #f37651; stroke-linecap: round"/>
   </g>
   <g id="line2d_31">
    <path d="M 41.355766 225.016266 
L 46.119746 213.017677 
L 47.310754 209.4535 
L 48.501735 205.29229 
L 50.288234 197.96108 
L 52.670224 186.397334 
L 55.647704 172.321772 
L 57.434204 164.947051 
L 61.007202 150.950803 
L 62.793674 142.555077 
L 64.580173 132.406869 
L 68.748662 107.139799 
L 69.93967 101.488228 
L 71.130651 97.087865 
L 72.32166 93.84732 
L 72.917151 92.608789 
L 74.108132 90.812302 
L 75.29914 89.650135 
L 76.490122 88.735231 
L 78.276621 87.46763 
L 80.06312 85.758926 
L 81.254101 84.259607 
L 83.636091 81.157857 
L 84.231609 80.50487 
L 84.827099 80.093435 
L 85.42259 80.159077 
L 86.018081 80.442439 
L 86.613598 81.093053 
L 87.209089 82.092608 
L 87.80458 83.557044 
L 88.40007 85.41954 
L 89.591079 90.325049 
L 90.78206 96.644542 
L 92.568559 107.921353 
L 94.355058 120.767921 
L 99.714528 161.985847 
L 102.692036 184.504016 
L 105.074026 200.982394 
L 106.860498 212.365382 
L 109.242487 225.60746 
L 111.028987 234.05137 
L 112.815486 241.380127 
L 114.006467 245.528541 
L 115.792966 250.863587 
L 117.579465 255.129764 
L 118.770474 257.48783 
L 119.961455 259.490979 
L 121.747954 261.941612 
L 123.534453 263.824604 
L 124.725434 264.853327 
L 126.511933 266.095819 
L 128.298433 267.066219 
L 130.084904 267.880926 
L 133.657903 269.085692 
L 136.635383 269.840766 
L 140.803872 270.630745 
L 146.163342 271.31093 
L 155.09581 271.985883 
L 165.814778 272.454732 
L 175.938228 272.8096 
L 198.567144 273.652472 
L 223.57805 274.201648 
L 249.184446 274.264215 
L 305.75671 274.374899 
L 348.632525 274.734708 
L 398.654337 274.823778 
L 398.654337 274.823778 
" clip-path="url(#p0a0ca39741)" style="fill: none; stroke: #e13342; stroke-linecap: round"/>
   </g>
   <g id="line2d_32">
    <path d="M 41.355766 234.262436 
L 44.928764 227.208168 
L 46.715263 223.175522 
L 47.906245 220.193558 
L 49.692744 215.207067 
L 51.479243 209.527789 
L 54.456723 199.054008 
L 61.007202 174.823056 
L 63.389192 165.051915 
L 66.962163 148.67106 
L 69.344152 138.006363 
L 71.130651 130.836897 
L 72.917151 124.56806 
L 74.70365 119.17795 
L 75.894631 115.92785 
L 77.68113 111.926296 
L 78.872111 109.708387 
L 80.06312 107.722741 
L 82.44511 104.649034 
L 83.636091 103.562648 
L 84.827099 102.984997 
L 86.018081 102.971648 
L 86.613598 103.152799 
L 87.209089 103.530772 
L 87.80458 104.083248 
L 88.995588 105.694714 
L 90.186569 108.002183 
L 91.377578 110.987256 
L 93.16405 116.516909 
L 94.950549 123.560574 
L 96.737048 131.882247 
L 98.523547 141.520005 
L 100.310046 152.387145 
L 103.883017 176.095619 
L 108.646997 207.519455 
L 110.433496 218.069892 
L 112.815486 230.466618 
L 114.601985 238.23315 
L 116.388457 244.729352 
L 117.579465 248.385173 
L 118.770474 251.551829 
L 120.556946 255.419435 
L 121.747954 257.524919 
L 122.938935 259.271103 
L 124.725434 261.438342 
L 126.511933 263.09429 
L 128.298433 264.375992 
L 130.084904 265.418501 
L 132.466894 266.480843 
L 134.848884 267.308815 
L 137.826392 268.115189 
L 141.994853 268.938998 
L 148.545332 269.753 
L 153.309311 270.135169 
L 159.264299 270.43831 
L 179.511226 271.14531 
L 192.612156 271.664055 
L 205.713113 272.227869 
L 221.19606 272.87063 
L 238.465452 273.434116 
L 256.925879 273.829381 
L 265.858347 273.940417 
L 279.554795 274.028016 
L 289.082754 274.075658 
L 292.060262 274.119442 
L 328.385626 274.563556 
L 337.913585 274.712079 
L 348.037034 274.86807 
L 378.407438 275.132828 
L 398.654337 275.279237 
L 398.654337 275.279237 
" clip-path="url(#p0a0ca39741)" style="fill: none; stroke: #ad1759; stroke-linecap: round"/>
   </g>
   <g id="line2d_33">
    <path d="M 41.355766 243.0585 
L 43.737756 240.008808 
L 46.119746 236.402661 
L 49.097253 231.282407 
L 50.883725 227.94886 
L 53.265715 222.967127 
L 55.052214 218.83311 
L 57.434204 212.639431 
L 61.007202 202.210957 
L 65.175663 189.167985 
L 76.490122 152.666245 
L 77.68113 149.37002 
L 79.467629 145.025653 
L 80.65861 142.636605 
L 81.849619 140.577882 
L 83.636091 138.352132 
L 84.827099 137.438204 
L 86.018081 136.808362 
L 87.209089 136.545049 
L 88.40007 136.572902 
L 89.591079 136.830226 
L 90.78206 137.345535 
L 91.973069 138.168392 
L 93.16405 139.232801 
L 94.355058 140.687657 
L 95.546067 142.572943 
L 96.737048 144.930395 
L 97.928057 147.846007 
L 99.119038 151.296203 
L 100.310046 155.399665 
L 102.096518 162.525316 
L 103.883017 170.854684 
L 105.669516 180.028868 
L 112.815486 218.530942 
L 114.601985 226.544821 
L 116.388457 233.350735 
L 118.174956 238.954185 
L 119.365964 242.035176 
L 120.556946 244.641432 
L 121.747954 246.833835 
L 122.938935 248.600024 
L 124.129944 250.075008 
L 125.320925 251.265061 
L 126.511933 252.24078 
L 127.702915 253.015122 
L 130.084904 254.114696 
L 131.871404 254.650264 
L 134.253393 255.103324 
L 137.230874 255.387444 
L 141.994853 255.448415 
L 146.75886 255.279194 
L 167.005759 253.989861 
L 175.938228 253.807328 
L 182.488706 253.975485 
L 187.848176 254.319525 
L 192.612156 254.788894 
L 197.971653 255.510448 
L 202.735633 256.336465 
L 206.308604 257.071924 
L 213.454573 258.833346 
L 227.151021 262.739115 
L 235.487998 265.066233 
L 244.420467 267.352518 
L 252.161899 269.121842 
L 258.116915 270.266462 
L 264.071875 271.210078 
L 268.835855 271.790812 
L 275.386306 272.373314 
L 282.532303 272.770426 
L 292.655752 273.086707 
L 305.161219 273.309069 
L 313.498197 273.48093 
L 326.599099 273.763099 
L 341.486583 274.169373 
L 376.620911 274.917228 
L 389.721869 275.097232 
L 398.654337 275.262031 
L 398.654337 275.262031 
" clip-path="url(#p0a0ca39741)" style="fill: none; stroke: #701f57; stroke-linecap: round"/>
   </g>
   <g id="line2d_34">
    <path d="M 41.355766 215.670204 
L 42.546775 218.155449 
L 43.142265 219.067682 
L 44.333274 220.270734 
L 45.524255 220.970398 
L 46.715263 221.184166 
L 47.906245 221.030164 
L 49.692744 220.372501 
L 50.883725 219.721932 
L 53.265715 217.979817 
L 54.456723 216.886972 
L 55.647704 215.525249 
L 56.838713 213.918839 
L 58.029694 212.036655 
L 59.220703 209.910864 
L 61.007202 206.260242 
L 63.984682 199.445781 
L 67.557653 190.645136 
L 70.535161 182.903342 
L 74.70365 171.295291 
L 77.085639 164.530325 
L 78.872111 159.978718 
L 80.65861 156.088638 
L 82.44511 152.978488 
L 84.231609 150.796375 
L 85.42259 149.908169 
L 86.613598 149.343601 
L 87.80458 149.067293 
L 88.995588 149.037841 
L 90.186569 149.239854 
L 91.377578 149.598171 
L 92.568559 150.122071 
L 93.759568 150.909018 
L 94.950549 151.93329 
L 96.141557 153.232336 
L 97.332539 154.926751 
L 98.523547 157.032563 
L 99.714528 159.661615 
L 100.905537 162.859144 
L 102.096518 166.575356 
L 103.883017 173.29808 
L 105.074026 178.386136 
L 107.456016 190.03764 
L 113.410976 220.743394 
L 115.197475 228.543111 
L 116.388457 233.112242 
L 118.174956 238.967791 
L 119.365964 242.217206 
L 120.556946 244.984132 
L 121.747954 247.320209 
L 122.938935 249.217998 
L 124.129944 250.820747 
L 125.320925 252.111994 
L 127.107424 253.582837 
L 128.893923 254.630488 
L 130.680422 255.365326 
L 132.466894 255.858972 
L 134.848884 256.268162 
L 137.826392 256.49954 
L 143.781352 256.502161 
L 153.309311 256.224405 
L 164.028279 256.194987 
L 173.556238 256.616925 
L 181.297698 257.302513 
L 186.657195 257.871889 
L 203.926614 260.16905 
L 211.072583 261.529343 
L 217.623062 262.950136 
L 230.724019 265.820792 
L 249.779937 269.781123 
L 261.689858 271.788496 
L 267.049383 272.45306 
L 275.981851 273.22226 
L 283.723284 273.592563 
L 293.251243 273.821242 
L 299.206258 273.91072 
L 317.666631 274.08254 
L 326.003609 274.168322 
L 339.700057 274.39442 
L 366.497462 274.814227 
L 381.980381 274.982172 
L 395.676829 275.179084 
L 398.654337 275.254819 
L 398.654337 275.254819 
" clip-path="url(#p0a0ca39741)" style="fill: none; stroke: #35193e; stroke-linecap: round"/>
   </g>
   <g id="line2d_35"/>
   <g id="line2d_36"/>
   <g id="line2d_37"/>
   <g id="line2d_38"/>
   <g id="line2d_39"/>
   <g id="line2d_40"/>
   <g id="patch_3">
    <path d="M 41.25125 277.248797 
L 41.25125 11.136797 
" style="fill: none; stroke: #262626; stroke-width: 1.25; stroke-linejoin: miter; stroke-linecap: square"/>
   </g>
   <g id="patch_4">
    <path d="M 41.25125 277.248797 
L 398.37125 277.248797 
" style="fill: none; stroke: #262626; stroke-width: 1.25; stroke-linejoin: miter; stroke-linecap: square"/>
   </g>
   <g id="legend_1">
    <g id="line2d_41">
     <path d="M 236.683625 45.415809 
L 242.683625 45.415809 
L 248.683625 45.415809 
" style="fill: none; stroke: #f6b48f; stroke-width: 1.5; stroke-linecap: round"/>
    </g>
    <g id="text_18">
     <!-- imine polymer 0.0% TFA t=22hrs_Abs -->
     <g style="fill: #262626" transform="translate(253.483625 47.515809) scale(0.06 -0.06)">
      <defs>
       <path id="ArialMT-69" d="M 425 3934 
L 425 4581 
L 988 4581 
L 988 3934 
L 425 3934 
z
M 425 0 
L 425 3319 
L 988 3319 
L 988 0 
L 425 0 
z
" transform="scale(0.015625)"/>
       <path id="ArialMT-70" d="M 422 -1272 
L 422 3319 
L 934 3319 
L 934 2888 
Q 1116 3141 1344 3267 
Q 1572 3394 1897 3394 
Q 2322 3394 2647 3175 
Q 2972 2956 3137 2557 
Q 3303 2159 3303 1684 
Q 3303 1175 3120 767 
Q 2938 359 2589 142 
Q 2241 -75 1856 -75 
Q 1575 -75 1351 44 
Q 1128 163 984 344 
L 984 -1272 
L 422 -1272 
z
M 931 1641 
Q 931 1000 1190 694 
Q 1450 388 1819 388 
Q 2194 388 2461 705 
Q 2728 1022 2728 1688 
Q 2728 2322 2467 2637 
Q 2206 2953 1844 2953 
Q 1484 2953 1207 2617 
Q 931 2281 931 1641 
z
" transform="scale(0.015625)"/>
       <path id="ArialMT-79" d="M 397 -1278 
L 334 -750 
Q 519 -800 656 -800 
Q 844 -800 956 -737 
Q 1069 -675 1141 -563 
Q 1194 -478 1313 -144 
Q 1328 -97 1363 -6 
L 103 3319 
L 709 3319 
L 1400 1397 
Q 1534 1031 1641 628 
Q 1738 1016 1872 1384 
L 2581 3319 
L 3144 3319 
L 1881 -56 
Q 1678 -603 1566 -809 
Q 1416 -1088 1222 -1217 
Q 1028 -1347 759 -1347 
Q 597 -1347 397 -1278 
z
" transform="scale(0.015625)"/>
       <path id="ArialMT-25" d="M 372 3481 
Q 372 3972 619 4315 
Q 866 4659 1334 4659 
Q 1766 4659 2048 4351 
Q 2331 4044 2331 3447 
Q 2331 2866 2045 2552 
Q 1759 2238 1341 2238 
Q 925 2238 648 2547 
Q 372 2856 372 3481 
z
M 1350 4272 
Q 1141 4272 1002 4090 
Q 863 3909 863 3425 
Q 863 2984 1003 2804 
Q 1144 2625 1350 2625 
Q 1563 2625 1702 2806 
Q 1841 2988 1841 3469 
Q 1841 3913 1700 4092 
Q 1559 4272 1350 4272 
z
M 1353 -169 
L 3859 4659 
L 4316 4659 
L 1819 -169 
L 1353 -169 
z
M 3334 1075 
Q 3334 1569 3581 1911 
Q 3828 2253 4300 2253 
Q 4731 2253 5014 1945 
Q 5297 1638 5297 1041 
Q 5297 459 5011 145 
Q 4725 -169 4303 -169 
Q 3888 -169 3611 142 
Q 3334 453 3334 1075 
z
M 4316 1866 
Q 4103 1866 3964 1684 
Q 3825 1503 3825 1019 
Q 3825 581 3965 400 
Q 4106 219 4313 219 
Q 4528 219 4667 400 
Q 4806 581 4806 1063 
Q 4806 1506 4665 1686 
Q 4525 1866 4316 1866 
z
" transform="scale(0.015625)"/>
       <path id="ArialMT-54" d="M 1659 0 
L 1659 4041 
L 150 4041 
L 150 4581 
L 3781 4581 
L 3781 4041 
L 2266 4041 
L 2266 0 
L 1659 0 
z
" transform="scale(0.015625)"/>
       <path id="ArialMT-46" d="M 525 0 
L 525 4581 
L 3616 4581 
L 3616 4041 
L 1131 4041 
L 1131 2622 
L 3281 2622 
L 3281 2081 
L 1131 2081 
L 1131 0 
L 525 0 
z
" transform="scale(0.015625)"/>
       <path id="ArialMT-3d" d="M 3381 2694 
L 356 2694 
L 356 3219 
L 3381 3219 
L 3381 2694 
z
M 3381 1303 
L 356 1303 
L 356 1828 
L 3381 1828 
L 3381 1303 
z
" transform="scale(0.015625)"/>
       <path id="ArialMT-5f" d="M -97 -1272 
L -97 -866 
L 3631 -866 
L 3631 -1272 
L -97 -1272 
z
" transform="scale(0.015625)"/>
      </defs>
      <use xlink:href="#ArialMT-69"/>
      <use xlink:href="#ArialMT-6d" x="22.216797"/>
      <use xlink:href="#ArialMT-69" x="105.517578"/>
      <use xlink:href="#ArialMT-6e" x="127.734375"/>
      <use xlink:href="#ArialMT-65" x="183.349609"/>
      <use xlink:href="#ArialMT-20" x="238.964844"/>
      <use xlink:href="#ArialMT-70" x="266.748047"/>
      <use xlink:href="#ArialMT-6f" x="322.363281"/>
      <use xlink:href="#ArialMT-6c" x="377.978516"/>
      <use xlink:href="#ArialMT-79" x="400.195312"/>
      <use xlink:href="#ArialMT-6d" x="450.195312"/>
      <use xlink:href="#ArialMT-65" x="533.496094"/>
      <use xlink:href="#ArialMT-72" x="589.111328"/>
      <use xlink:href="#ArialMT-20" x="622.412109"/>
      <use xlink:href="#ArialMT-30" x="650.195312"/>
      <use xlink:href="#ArialMT-2e" x="705.810547"/>
      <use xlink:href="#ArialMT-30" x="733.59375"/>
      <use xlink:href="#ArialMT-25" x="789.208984"/>
      <use xlink:href="#ArialMT-20" x="878.125"/>
      <use xlink:href="#ArialMT-54" x="904.158203"/>
      <use xlink:href="#ArialMT-46" x="965.242188"/>
      <use xlink:href="#ArialMT-41" x="1020.826172"/>
      <use xlink:href="#ArialMT-20" x="1082.025391"/>
      <use xlink:href="#ArialMT-74" x="1109.808594"/>
      <use xlink:href="#ArialMT-3d" x="1137.591797"/>
      <use xlink:href="#ArialMT-32" x="1195.990234"/>
      <use xlink:href="#ArialMT-32" x="1251.605469"/>
      <use xlink:href="#ArialMT-68" x="1307.220703"/>
      <use xlink:href="#ArialMT-72" x="1362.835938"/>
      <use xlink:href="#ArialMT-73" x="1396.136719"/>
      <use xlink:href="#ArialMT-5f" x="1446.136719"/>
      <use xlink:href="#ArialMT-41" x="1501.751953"/>
      <use xlink:href="#ArialMT-62" x="1568.451172"/>
      <use xlink:href="#ArialMT-73" x="1624.066406"/>
     </g>
    </g>
    <g id="line2d_42">
     <path d="M 236.683625 54.046434 
L 242.683625 54.046434 
L 248.683625 54.046434 
" style="fill: none; stroke: #f37651; stroke-width: 1.5; stroke-linecap: round"/>
    </g>
    <g id="text_19">
     <!-- imine polymer 0.05% TFA t=22hrs_Abs -->
     <g style="fill: #262626" transform="translate(253.483625 56.146434) scale(0.06 -0.06)">
      <use xlink:href="#ArialMT-69"/>
      <use xlink:href="#ArialMT-6d" x="22.216797"/>
      <use xlink:href="#ArialMT-69" x="105.517578"/>
      <use xlink:href="#ArialMT-6e" x="127.734375"/>
      <use xlink:href="#ArialMT-65" x="183.349609"/>
      <use xlink:href="#ArialMT-20" x="238.964844"/>
      <use xlink:href="#ArialMT-70" x="266.748047"/>
      <use xlink:href="#ArialMT-6f" x="322.363281"/>
      <use xlink:href="#ArialMT-6c" x="377.978516"/>
      <use xlink:href="#ArialMT-79" x="400.195312"/>
      <use xlink:href="#ArialMT-6d" x="450.195312"/>
      <use xlink:href="#ArialMT-65" x="533.496094"/>
      <use xlink:href="#ArialMT-72" x="589.111328"/>
      <use xlink:href="#ArialMT-20" x="622.412109"/>
      <use xlink:href="#ArialMT-30" x="650.195312"/>
      <use xlink:href="#ArialMT-2e" x="705.810547"/>
      <use xlink:href="#ArialMT-30" x="733.59375"/>
      <use xlink:href="#ArialMT-35" x="789.208984"/>
      <use xlink:href="#ArialMT-25" x="844.824219"/>
      <use xlink:href="#ArialMT-20" x="933.740234"/>
      <use xlink:href="#ArialMT-54" x="959.773438"/>
      <use xlink:href="#ArialMT-46" x="1020.857422"/>
      <use xlink:href="#ArialMT-41" x="1076.441406"/>
      <use xlink:href="#ArialMT-20" x="1137.640625"/>
      <use xlink:href="#ArialMT-74" x="1165.423828"/>
      <use xlink:href="#ArialMT-3d" x="1193.207031"/>
      <use xlink:href="#ArialMT-32" x="1251.605469"/>
      <use xlink:href="#ArialMT-32" x="1307.220703"/>
      <use xlink:href="#ArialMT-68" x="1362.835938"/>
      <use xlink:href="#ArialMT-72" x="1418.451172"/>
      <use xlink:href="#ArialMT-73" x="1451.751953"/>
      <use xlink:href="#ArialMT-5f" x="1501.751953"/>
      <use xlink:href="#ArialMT-41" x="1557.367188"/>
      <use xlink:href="#ArialMT-62" x="1624.066406"/>
      <use xlink:href="#ArialMT-73" x="1679.681641"/>
     </g>
    </g>
    <g id="line2d_43">
     <path d="M 236.683625 62.677059 
L 242.683625 62.677059 
L 248.683625 62.677059 
" style="fill: none; stroke: #e13342; stroke-width: 1.5; stroke-linecap: round"/>
    </g>
    <g id="text_20">
     <!-- imine polymer 0.10% TFA t=22hrs_Abs -->
     <g style="fill: #262626" transform="translate(253.483625 64.777059) scale(0.06 -0.06)">
      <use xlink:href="#ArialMT-69"/>
      <use xlink:href="#ArialMT-6d" x="22.216797"/>
      <use xlink:href="#ArialMT-69" x="105.517578"/>
      <use xlink:href="#ArialMT-6e" x="127.734375"/>
      <use xlink:href="#ArialMT-65" x="183.349609"/>
      <use xlink:href="#ArialMT-20" x="238.964844"/>
      <use xlink:href="#ArialMT-70" x="266.748047"/>
      <use xlink:href="#ArialMT-6f" x="322.363281"/>
      <use xlink:href="#ArialMT-6c" x="377.978516"/>
      <use xlink:href="#ArialMT-79" x="400.195312"/>
      <use xlink:href="#ArialMT-6d" x="450.195312"/>
      <use xlink:href="#ArialMT-65" x="533.496094"/>
      <use xlink:href="#ArialMT-72" x="589.111328"/>
      <use xlink:href="#ArialMT-20" x="622.412109"/>
      <use xlink:href="#ArialMT-30" x="650.195312"/>
      <use xlink:href="#ArialMT-2e" x="705.810547"/>
      <use xlink:href="#ArialMT-31" x="733.59375"/>
      <use xlink:href="#ArialMT-30" x="789.208984"/>
      <use xlink:href="#ArialMT-25" x="844.824219"/>
      <use xlink:href="#ArialMT-20" x="933.740234"/>
      <use xlink:href="#ArialMT-54" x="959.773438"/>
      <use xlink:href="#ArialMT-46" x="1020.857422"/>
      <use xlink:href="#ArialMT-41" x="1076.441406"/>
      <use xlink:href="#ArialMT-20" x="1137.640625"/>
      <use xlink:href="#ArialMT-74" x="1165.423828"/>
      <use xlink:href="#ArialMT-3d" x="1193.207031"/>
      <use xlink:href="#ArialMT-32" x="1251.605469"/>
      <use xlink:href="#ArialMT-32" x="1307.220703"/>
      <use xlink:href="#ArialMT-68" x="1362.835938"/>
      <use xlink:href="#ArialMT-72" x="1418.451172"/>
      <use xlink:href="#ArialMT-73" x="1451.751953"/>
      <use xlink:href="#ArialMT-5f" x="1501.751953"/>
      <use xlink:href="#ArialMT-41" x="1557.367188"/>
      <use xlink:href="#ArialMT-62" x="1624.066406"/>
      <use xlink:href="#ArialMT-73" x="1679.681641"/>
     </g>
    </g>
    <g id="line2d_44">
     <path d="M 236.683625 71.307684 
L 242.683625 71.307684 
L 248.683625 71.307684 
" style="fill: none; stroke: #ad1759; stroke-width: 1.5; stroke-linecap: round"/>
    </g>
    <g id="text_21">
     <!-- imine polymer 0.25% TFA t=22hrs_Abs -->
     <g style="fill: #262626" transform="translate(253.483625 73.407684) scale(0.06 -0.06)">
      <use xlink:href="#ArialMT-69"/>
      <use xlink:href="#ArialMT-6d" x="22.216797"/>
      <use xlink:href="#ArialMT-69" x="105.517578"/>
      <use xlink:href="#ArialMT-6e" x="127.734375"/>
      <use xlink:href="#ArialMT-65" x="183.349609"/>
      <use xlink:href="#ArialMT-20" x="238.964844"/>
      <use xlink:href="#ArialMT-70" x="266.748047"/>
      <use xlink:href="#ArialMT-6f" x="322.363281"/>
      <use xlink:href="#ArialMT-6c" x="377.978516"/>
      <use xlink:href="#ArialMT-79" x="400.195312"/>
      <use xlink:href="#ArialMT-6d" x="450.195312"/>
      <use xlink:href="#ArialMT-65" x="533.496094"/>
      <use xlink:href="#ArialMT-72" x="589.111328"/>
      <use xlink:href="#ArialMT-20" x="622.412109"/>
      <use xlink:href="#ArialMT-30" x="650.195312"/>
      <use xlink:href="#ArialMT-2e" x="705.810547"/>
      <use xlink:href="#ArialMT-32" x="733.59375"/>
      <use xlink:href="#ArialMT-35" x="789.208984"/>
      <use xlink:href="#ArialMT-25" x="844.824219"/>
      <use xlink:href="#ArialMT-20" x="933.740234"/>
      <use xlink:href="#ArialMT-54" x="959.773438"/>
      <use xlink:href="#ArialMT-46" x="1020.857422"/>
      <use xlink:href="#ArialMT-41" x="1076.441406"/>
      <use xlink:href="#ArialMT-20" x="1137.640625"/>
      <use xlink:href="#ArialMT-74" x="1165.423828"/>
      <use xlink:href="#ArialMT-3d" x="1193.207031"/>
      <use xlink:href="#ArialMT-32" x="1251.605469"/>
      <use xlink:href="#ArialMT-32" x="1307.220703"/>
      <use xlink:href="#ArialMT-68" x="1362.835938"/>
      <use xlink:href="#ArialMT-72" x="1418.451172"/>
      <use xlink:href="#ArialMT-73" x="1451.751953"/>
      <use xlink:href="#ArialMT-5f" x="1501.751953"/>
      <use xlink:href="#ArialMT-41" x="1557.367188"/>
      <use xlink:href="#ArialMT-62" x="1624.066406"/>
      <use xlink:href="#ArialMT-73" x="1679.681641"/>
     </g>
    </g>
    <g id="line2d_45">
     <path d="M 236.683625 79.938309 
L 242.683625 79.938309 
L 248.683625 79.938309 
" style="fill: none; stroke: #701f57; stroke-width: 1.5; stroke-linecap: round"/>
    </g>
    <g id="text_22">
     <!-- imine polymer 0.50% TFA t=22hrs_Abs -->
     <g style="fill: #262626" transform="translate(253.483625 82.038309) scale(0.06 -0.06)">
      <use xlink:href="#ArialMT-69"/>
      <use xlink:href="#ArialMT-6d" x="22.216797"/>
      <use xlink:href="#ArialMT-69" x="105.517578"/>
      <use xlink:href="#ArialMT-6e" x="127.734375"/>
      <use xlink:href="#ArialMT-65" x="183.349609"/>
      <use xlink:href="#ArialMT-20" x="238.964844"/>
      <use xlink:href="#ArialMT-70" x="266.748047"/>
      <use xlink:href="#ArialMT-6f" x="322.363281"/>
      <use xlink:href="#ArialMT-6c" x="377.978516"/>
      <use xlink:href="#ArialMT-79" x="400.195312"/>
      <use xlink:href="#ArialMT-6d" x="450.195312"/>
      <use xlink:href="#ArialMT-65" x="533.496094"/>
      <use xlink:href="#ArialMT-72" x="589.111328"/>
      <use xlink:href="#ArialMT-20" x="622.412109"/>
      <use xlink:href="#ArialMT-30" x="650.195312"/>
      <use xlink:href="#ArialMT-2e" x="705.810547"/>
      <use xlink:href="#ArialMT-35" x="733.59375"/>
      <use xlink:href="#ArialMT-30" x="789.208984"/>
      <use xlink:href="#ArialMT-25" x="844.824219"/>
      <use xlink:href="#ArialMT-20" x="933.740234"/>
      <use xlink:href="#ArialMT-54" x="959.773438"/>
      <use xlink:href="#ArialMT-46" x="1020.857422"/>
      <use xlink:href="#ArialMT-41" x="1076.441406"/>
      <use xlink:href="#ArialMT-20" x="1137.640625"/>
      <use xlink:href="#ArialMT-74" x="1165.423828"/>
      <use xlink:href="#ArialMT-3d" x="1193.207031"/>
      <use xlink:href="#ArialMT-32" x="1251.605469"/>
      <use xlink:href="#ArialMT-32" x="1307.220703"/>
      <use xlink:href="#ArialMT-68" x="1362.835938"/>
      <use xlink:href="#ArialMT-72" x="1418.451172"/>
      <use xlink:href="#ArialMT-73" x="1451.751953"/>
      <use xlink:href="#ArialMT-5f" x="1501.751953"/>
      <use xlink:href="#ArialMT-41" x="1557.367188"/>
      <use xlink:href="#ArialMT-62" x="1624.066406"/>
      <use xlink:href="#ArialMT-73" x="1679.681641"/>
     </g>
    </g>
    <g id="line2d_46">
     <path d="M 236.683625 88.568934 
L 242.683625 88.568934 
L 248.683625 88.568934 
" style="fill: none; stroke: #35193e; stroke-width: 1.5; stroke-linecap: round"/>
    </g>
    <g id="text_23">
     <!-- imine polymer 1.00% TFA t=22hrs_Abs -->
     <g style="fill: #262626" transform="translate(253.483625 90.668934) scale(0.06 -0.06)">
      <use xlink:href="#ArialMT-69"/>
      <use xlink:href="#ArialMT-6d" x="22.216797"/>
      <use xlink:href="#ArialMT-69" x="105.517578"/>
      <use xlink:href="#ArialMT-6e" x="127.734375"/>
      <use xlink:href="#ArialMT-65" x="183.349609"/>
      <use xlink:href="#ArialMT-20" x="238.964844"/>
      <use xlink:href="#ArialMT-70" x="266.748047"/>
      <use xlink:href="#ArialMT-6f" x="322.363281"/>
      <use xlink:href="#ArialMT-6c" x="377.978516"/>
      <use xlink:href="#ArialMT-79" x="400.195312"/>
      <use xlink:href="#ArialMT-6d" x="450.195312"/>
      <use xlink:href="#ArialMT-65" x="533.496094"/>
      <use xlink:href="#ArialMT-72" x="589.111328"/>
      <use xlink:href="#ArialMT-20" x="622.412109"/>
      <use xlink:href="#ArialMT-31" x="650.195312"/>
      <use xlink:href="#ArialMT-2e" x="705.810547"/>
      <use xlink:href="#ArialMT-30" x="733.59375"/>
      <use xlink:href="#ArialMT-30" x="789.208984"/>
      <use xlink:href="#ArialMT-25" x="844.824219"/>
      <use xlink:href="#ArialMT-20" x="933.740234"/>
      <use xlink:href="#ArialMT-54" x="959.773438"/>
      <use xlink:href="#ArialMT-46" x="1020.857422"/>
      <use xlink:href="#ArialMT-41" x="1076.441406"/>
      <use xlink:href="#ArialMT-20" x="1137.640625"/>
      <use xlink:href="#ArialMT-74" x="1165.423828"/>
      <use xlink:href="#ArialMT-3d" x="1193.207031"/>
      <use xlink:href="#ArialMT-32" x="1251.605469"/>
      <use xlink:href="#ArialMT-32" x="1307.220703"/>
      <use xlink:href="#ArialMT-68" x="1362.835938"/>
      <use xlink:href="#ArialMT-72" x="1418.451172"/>
      <use xlink:href="#ArialMT-73" x="1451.751953"/>
      <use xlink:href="#ArialMT-5f" x="1501.751953"/>
      <use xlink:href="#ArialMT-41" x="1557.367188"/>
      <use xlink:href="#ArialMT-62" x="1624.066406"/>
      <use xlink:href="#ArialMT-73" x="1679.681641"/>
     </g>
    </g>
   </g>
  </g>
 </g>
 <defs>
  <clipPath id="p0a0ca39741">
   <rect x="41.25125" y="11.136797" width="357.12" height="266.112"/>
  </clipPath>
 </defs>
</svg>
