<?xml version="1.0" encoding="utf-8" standalone="no"?>
<!DOCTYPE svg PUBLIC "-//W3C//DTD SVG 1.1//EN"
  "http://www.w3.org/Graphics/SVG/1.1/DTD/svg11.dtd">
<svg xmlns:xlink="http://www.w3.org/1999/xlink" width="423.922344pt" height="313.269891pt" viewBox="0 0 423.922344 313.269891" xmlns="http://www.w3.org/2000/svg" version="1.1">
 <metadata>
  <rdf:RDF xmlns:dc="http://purl.org/dc/elements/1.1/" xmlns:cc="http://creativecommons.org/ns#" xmlns:rdf="http://www.w3.org/1999/02/22-rdf-syntax-ns#">
   <cc:Work>
    <dc:type rdf:resource="http://purl.org/dc/dcmitype/StillImage"/>
    <dc:date>2024-05-07T16:28:22.903942</dc:date>
    <dc:format>image/svg+xml</dc:format>
    <dc:creator>
     <cc:Agent>
      <dc:title>Matplotlib v3.7.1, https://matplotlib.org/</dc:title>
     </cc:Agent>
    </dc:creator>
   </cc:Work>
  </rdf:RDF>
 </metadata>
 <defs>
  <style type="text/css">*{stroke-linejoin: round; stroke-linecap: butt}</style>
 </defs>
 <g id="figure_1">
  <g id="patch_1">
   <path d="M 0 313.269891 
L 423.922344 313.269891 
L 423.922344 0 
L 0 0 
z
" style="fill: #ffffff"/>
  </g>
  <g id="axes_1">
   <g id="patch_2">
    <path d="M 47.368281 277.248797 
L 404.488281 277.248797 
L 404.488281 11.136797 
L 47.368281 11.136797 
z
" style="fill: #ffffff"/>
   </g>
   <g id="matplotlib.axis_1">
    <g id="xtick_1">
     <g id="line2d_1">
      <defs>
       <path id="mb1bd733906" d="M 0 0 
L 0 -6 
" style="stroke: #262626; stroke-width: 1.25"/>
      </defs>
      <g>
       <use xlink:href="#mb1bd733906" x="79.833736" y="277.248797" style="fill: #262626; stroke: #262626; stroke-width: 1.25"/>
      </g>
     </g>
     <g id="text_1">
      <!-- 400 -->
      <g style="fill: #262626" transform="translate(70.658189 288.622391) scale(0.11 -0.11)">
       <defs>
        <path id="ArialMT-34" d="M 2069 0 
L 2069 1097 
L 81 1097 
L 81 1613 
L 2172 4581 
L 2631 4581 
L 2631 1613 
L 3250 1613 
L 3250 1097 
L 2631 1097 
L 2631 0 
L 2069 0 
z
M 2069 1613 
L 2069 3678 
L 634 1613 
L 2069 1613 
z
" transform="scale(0.015625)"/>
        <path id="ArialMT-30" d="M 266 2259 
Q 266 3072 433 3567 
Q 600 4063 929 4331 
Q 1259 4600 1759 4600 
Q 2128 4600 2406 4451 
Q 2684 4303 2865 4023 
Q 3047 3744 3150 3342 
Q 3253 2941 3253 2259 
Q 3253 1453 3087 958 
Q 2922 463 2592 192 
Q 2263 -78 1759 -78 
Q 1097 -78 719 397 
Q 266 969 266 2259 
z
M 844 2259 
Q 844 1131 1108 757 
Q 1372 384 1759 384 
Q 2147 384 2411 759 
Q 2675 1134 2675 2259 
Q 2675 3391 2411 3762 
Q 2147 4134 1753 4134 
Q 1366 4134 1134 3806 
Q 844 3388 844 2259 
z
" transform="scale(0.015625)"/>
       </defs>
       <use xlink:href="#ArialMT-34"/>
       <use xlink:href="#ArialMT-30" x="55.615234"/>
       <use xlink:href="#ArialMT-30" x="111.230469"/>
      </g>
     </g>
    </g>
    <g id="xtick_2">
     <g id="line2d_2">
      <g>
       <use xlink:href="#mb1bd733906" x="144.764645" y="277.248797" style="fill: #262626; stroke: #262626; stroke-width: 1.25"/>
      </g>
     </g>
     <g id="text_2">
      <!-- 600 -->
      <g style="fill: #262626" transform="translate(135.589098 288.622391) scale(0.11 -0.11)">
       <defs>
        <path id="ArialMT-36" d="M 3184 3459 
L 2625 3416 
Q 2550 3747 2413 3897 
Q 2184 4138 1850 4138 
Q 1581 4138 1378 3988 
Q 1113 3794 959 3422 
Q 806 3050 800 2363 
Q 1003 2672 1297 2822 
Q 1591 2972 1913 2972 
Q 2475 2972 2870 2558 
Q 3266 2144 3266 1488 
Q 3266 1056 3080 686 
Q 2894 316 2569 119 
Q 2244 -78 1831 -78 
Q 1128 -78 684 439 
Q 241 956 241 2144 
Q 241 3472 731 4075 
Q 1159 4600 1884 4600 
Q 2425 4600 2770 4297 
Q 3116 3994 3184 3459 
z
M 888 1484 
Q 888 1194 1011 928 
Q 1134 663 1356 523 
Q 1578 384 1822 384 
Q 2178 384 2434 671 
Q 2691 959 2691 1453 
Q 2691 1928 2437 2201 
Q 2184 2475 1800 2475 
Q 1419 2475 1153 2201 
Q 888 1928 888 1484 
z
" transform="scale(0.015625)"/>
       </defs>
       <use xlink:href="#ArialMT-36"/>
       <use xlink:href="#ArialMT-30" x="55.615234"/>
       <use xlink:href="#ArialMT-30" x="111.230469"/>
      </g>
     </g>
    </g>
    <g id="xtick_3">
     <g id="line2d_3">
      <g>
       <use xlink:href="#mb1bd733906" x="209.695554" y="277.248797" style="fill: #262626; stroke: #262626; stroke-width: 1.25"/>
      </g>
     </g>
     <g id="text_3">
      <!-- 800 -->
      <g style="fill: #262626" transform="translate(200.520007 288.622391) scale(0.11 -0.11)">
       <defs>
        <path id="ArialMT-38" d="M 1131 2484 
Q 781 2613 612 2850 
Q 444 3088 444 3419 
Q 444 3919 803 4259 
Q 1163 4600 1759 4600 
Q 2359 4600 2725 4251 
Q 3091 3903 3091 3403 
Q 3091 3084 2923 2848 
Q 2756 2613 2416 2484 
Q 2838 2347 3058 2040 
Q 3278 1734 3278 1309 
Q 3278 722 2862 322 
Q 2447 -78 1769 -78 
Q 1091 -78 675 323 
Q 259 725 259 1325 
Q 259 1772 486 2073 
Q 713 2375 1131 2484 
z
M 1019 3438 
Q 1019 3113 1228 2906 
Q 1438 2700 1772 2700 
Q 2097 2700 2305 2904 
Q 2513 3109 2513 3406 
Q 2513 3716 2298 3927 
Q 2084 4138 1766 4138 
Q 1444 4138 1231 3931 
Q 1019 3725 1019 3438 
z
M 838 1322 
Q 838 1081 952 856 
Q 1066 631 1291 507 
Q 1516 384 1775 384 
Q 2178 384 2440 643 
Q 2703 903 2703 1303 
Q 2703 1709 2433 1975 
Q 2163 2241 1756 2241 
Q 1359 2241 1098 1978 
Q 838 1716 838 1322 
z
" transform="scale(0.015625)"/>
       </defs>
       <use xlink:href="#ArialMT-38"/>
       <use xlink:href="#ArialMT-30" x="55.615234"/>
       <use xlink:href="#ArialMT-30" x="111.230469"/>
      </g>
     </g>
    </g>
    <g id="xtick_4">
     <g id="line2d_4">
      <g>
       <use xlink:href="#mb1bd733906" x="274.626463" y="277.248797" style="fill: #262626; stroke: #262626; stroke-width: 1.25"/>
      </g>
     </g>
     <g id="text_4">
      <!-- 1000 -->
      <g style="fill: #262626" transform="translate(262.392401 288.622391) scale(0.11 -0.11)">
       <defs>
        <path id="ArialMT-31" d="M 2384 0 
L 1822 0 
L 1822 3584 
Q 1619 3391 1289 3197 
Q 959 3003 697 2906 
L 697 3450 
Q 1169 3672 1522 3987 
Q 1875 4303 2022 4600 
L 2384 4600 
L 2384 0 
z
" transform="scale(0.015625)"/>
       </defs>
       <use xlink:href="#ArialMT-31"/>
       <use xlink:href="#ArialMT-30" x="55.615234"/>
       <use xlink:href="#ArialMT-30" x="111.230469"/>
       <use xlink:href="#ArialMT-30" x="166.845703"/>
      </g>
     </g>
    </g>
    <g id="xtick_5">
     <g id="line2d_5">
      <g>
       <use xlink:href="#mb1bd733906" x="339.557372" y="277.248797" style="fill: #262626; stroke: #262626; stroke-width: 1.25"/>
      </g>
     </g>
     <g id="text_5">
      <!-- 1200 -->
      <g style="fill: #262626" transform="translate(327.32331 288.622391) scale(0.11 -0.11)">
       <defs>
        <path id="ArialMT-32" d="M 3222 541 
L 3222 0 
L 194 0 
Q 188 203 259 391 
Q 375 700 629 1000 
Q 884 1300 1366 1694 
Q 2113 2306 2375 2664 
Q 2638 3022 2638 3341 
Q 2638 3675 2398 3904 
Q 2159 4134 1775 4134 
Q 1369 4134 1125 3890 
Q 881 3647 878 3216 
L 300 3275 
Q 359 3922 746 4261 
Q 1134 4600 1788 4600 
Q 2447 4600 2831 4234 
Q 3216 3869 3216 3328 
Q 3216 3053 3103 2787 
Q 2991 2522 2730 2228 
Q 2469 1934 1863 1422 
Q 1356 997 1212 845 
Q 1069 694 975 541 
L 3222 541 
z
" transform="scale(0.015625)"/>
       </defs>
       <use xlink:href="#ArialMT-31"/>
       <use xlink:href="#ArialMT-32" x="55.615234"/>
       <use xlink:href="#ArialMT-30" x="111.230469"/>
       <use xlink:href="#ArialMT-30" x="166.845703"/>
      </g>
     </g>
    </g>
    <g id="xtick_6">
     <g id="line2d_6">
      <g>
       <use xlink:href="#mb1bd733906" x="404.488281" y="277.248797" style="fill: #262626; stroke: #262626; stroke-width: 1.25"/>
      </g>
     </g>
     <g id="text_6">
      <!-- 1400 -->
      <g style="fill: #262626" transform="translate(392.254219 288.622391) scale(0.11 -0.11)">
       <use xlink:href="#ArialMT-31"/>
       <use xlink:href="#ArialMT-34" x="55.615234"/>
       <use xlink:href="#ArialMT-30" x="111.230469"/>
       <use xlink:href="#ArialMT-30" x="166.845703"/>
      </g>
     </g>
    </g>
    <g id="xtick_7">
     <g id="line2d_7">
      <defs>
       <path id="m5eac82b8ba" d="M 0 0 
L 0 -4 
" style="stroke: #262626"/>
      </defs>
      <g>
       <use xlink:href="#m5eac82b8ba" x="112.29919" y="277.248797" style="fill: #262626; stroke: #262626"/>
      </g>
     </g>
    </g>
    <g id="xtick_8">
     <g id="line2d_8">
      <g>
       <use xlink:href="#m5eac82b8ba" x="177.230099" y="277.248797" style="fill: #262626; stroke: #262626"/>
      </g>
     </g>
    </g>
    <g id="xtick_9">
     <g id="line2d_9">
      <g>
       <use xlink:href="#m5eac82b8ba" x="242.161009" y="277.248797" style="fill: #262626; stroke: #262626"/>
      </g>
     </g>
    </g>
    <g id="xtick_10">
     <g id="line2d_10">
      <g>
       <use xlink:href="#m5eac82b8ba" x="307.091918" y="277.248797" style="fill: #262626; stroke: #262626"/>
      </g>
     </g>
    </g>
    <g id="xtick_11">
     <g id="line2d_11">
      <g>
       <use xlink:href="#m5eac82b8ba" x="372.022827" y="277.248797" style="fill: #262626; stroke: #262626"/>
      </g>
     </g>
    </g>
    <g id="text_7">
     <!-- Wavelength (nm) -->
     <g style="fill: #262626" transform="translate(180.473594 303.544266) scale(0.12 -0.12)">
      <defs>
       <path id="ArialMT-57" d="M 1294 0 
L 78 4581 
L 700 4581 
L 1397 1578 
Q 1509 1106 1591 641 
Q 1766 1375 1797 1488 
L 2669 4581 
L 3400 4581 
L 4056 2263 
Q 4303 1400 4413 641 
Q 4500 1075 4641 1638 
L 5359 4581 
L 5969 4581 
L 4713 0 
L 4128 0 
L 3163 3491 
Q 3041 3928 3019 4028 
Q 2947 3713 2884 3491 
L 1913 0 
L 1294 0 
z
" transform="scale(0.015625)"/>
       <path id="ArialMT-61" d="M 2588 409 
Q 2275 144 1986 34 
Q 1697 -75 1366 -75 
Q 819 -75 525 192 
Q 231 459 231 875 
Q 231 1119 342 1320 
Q 453 1522 633 1644 
Q 813 1766 1038 1828 
Q 1203 1872 1538 1913 
Q 2219 1994 2541 2106 
Q 2544 2222 2544 2253 
Q 2544 2597 2384 2738 
Q 2169 2928 1744 2928 
Q 1347 2928 1158 2789 
Q 969 2650 878 2297 
L 328 2372 
Q 403 2725 575 2942 
Q 747 3159 1072 3276 
Q 1397 3394 1825 3394 
Q 2250 3394 2515 3294 
Q 2781 3194 2906 3042 
Q 3031 2891 3081 2659 
Q 3109 2516 3109 2141 
L 3109 1391 
Q 3109 606 3145 398 
Q 3181 191 3288 0 
L 2700 0 
Q 2613 175 2588 409 
z
M 2541 1666 
Q 2234 1541 1622 1453 
Q 1275 1403 1131 1340 
Q 988 1278 909 1158 
Q 831 1038 831 891 
Q 831 666 1001 516 
Q 1172 366 1500 366 
Q 1825 366 2078 508 
Q 2331 650 2450 897 
Q 2541 1088 2541 1459 
L 2541 1666 
z
" transform="scale(0.015625)"/>
       <path id="ArialMT-76" d="M 1344 0 
L 81 3319 
L 675 3319 
L 1388 1331 
Q 1503 1009 1600 663 
Q 1675 925 1809 1294 
L 2547 3319 
L 3125 3319 
L 1869 0 
L 1344 0 
z
" transform="scale(0.015625)"/>
       <path id="ArialMT-65" d="M 2694 1069 
L 3275 997 
Q 3138 488 2766 206 
Q 2394 -75 1816 -75 
Q 1088 -75 661 373 
Q 234 822 234 1631 
Q 234 2469 665 2931 
Q 1097 3394 1784 3394 
Q 2450 3394 2872 2941 
Q 3294 2488 3294 1666 
Q 3294 1616 3291 1516 
L 816 1516 
Q 847 969 1125 678 
Q 1403 388 1819 388 
Q 2128 388 2347 550 
Q 2566 713 2694 1069 
z
M 847 1978 
L 2700 1978 
Q 2663 2397 2488 2606 
Q 2219 2931 1791 2931 
Q 1403 2931 1139 2672 
Q 875 2413 847 1978 
z
" transform="scale(0.015625)"/>
       <path id="ArialMT-6c" d="M 409 0 
L 409 4581 
L 972 4581 
L 972 0 
L 409 0 
z
" transform="scale(0.015625)"/>
       <path id="ArialMT-6e" d="M 422 0 
L 422 3319 
L 928 3319 
L 928 2847 
Q 1294 3394 1984 3394 
Q 2284 3394 2536 3286 
Q 2788 3178 2913 3003 
Q 3038 2828 3088 2588 
Q 3119 2431 3119 2041 
L 3119 0 
L 2556 0 
L 2556 2019 
Q 2556 2363 2490 2533 
Q 2425 2703 2258 2804 
Q 2091 2906 1866 2906 
Q 1506 2906 1245 2678 
Q 984 2450 984 1813 
L 984 0 
L 422 0 
z
" transform="scale(0.015625)"/>
       <path id="ArialMT-67" d="M 319 -275 
L 866 -356 
Q 900 -609 1056 -725 
Q 1266 -881 1628 -881 
Q 2019 -881 2231 -725 
Q 2444 -569 2519 -288 
Q 2563 -116 2559 434 
Q 2191 0 1641 0 
Q 956 0 581 494 
Q 206 988 206 1678 
Q 206 2153 378 2554 
Q 550 2956 876 3175 
Q 1203 3394 1644 3394 
Q 2231 3394 2613 2919 
L 2613 3319 
L 3131 3319 
L 3131 450 
Q 3131 -325 2973 -648 
Q 2816 -972 2473 -1159 
Q 2131 -1347 1631 -1347 
Q 1038 -1347 672 -1080 
Q 306 -813 319 -275 
z
M 784 1719 
Q 784 1066 1043 766 
Q 1303 466 1694 466 
Q 2081 466 2343 764 
Q 2606 1063 2606 1700 
Q 2606 2309 2336 2618 
Q 2066 2928 1684 2928 
Q 1309 2928 1046 2623 
Q 784 2319 784 1719 
z
" transform="scale(0.015625)"/>
       <path id="ArialMT-74" d="M 1650 503 
L 1731 6 
Q 1494 -44 1306 -44 
Q 1000 -44 831 53 
Q 663 150 594 308 
Q 525 466 525 972 
L 525 2881 
L 113 2881 
L 113 3319 
L 525 3319 
L 525 4141 
L 1084 4478 
L 1084 3319 
L 1650 3319 
L 1650 2881 
L 1084 2881 
L 1084 941 
Q 1084 700 1114 631 
Q 1144 563 1211 522 
Q 1278 481 1403 481 
Q 1497 481 1650 503 
z
" transform="scale(0.015625)"/>
       <path id="ArialMT-68" d="M 422 0 
L 422 4581 
L 984 4581 
L 984 2938 
Q 1378 3394 1978 3394 
Q 2347 3394 2619 3248 
Q 2891 3103 3008 2847 
Q 3125 2591 3125 2103 
L 3125 0 
L 2563 0 
L 2563 2103 
Q 2563 2525 2380 2717 
Q 2197 2909 1863 2909 
Q 1613 2909 1392 2779 
Q 1172 2650 1078 2428 
Q 984 2206 984 1816 
L 984 0 
L 422 0 
z
" transform="scale(0.015625)"/>
       <path id="ArialMT-20" transform="scale(0.015625)"/>
       <path id="ArialMT-28" d="M 1497 -1347 
Q 1031 -759 709 28 
Q 388 816 388 1659 
Q 388 2403 628 3084 
Q 909 3875 1497 4659 
L 1900 4659 
Q 1522 4009 1400 3731 
Q 1209 3300 1100 2831 
Q 966 2247 966 1656 
Q 966 153 1900 -1347 
L 1497 -1347 
z
" transform="scale(0.015625)"/>
       <path id="ArialMT-6d" d="M 422 0 
L 422 3319 
L 925 3319 
L 925 2853 
Q 1081 3097 1340 3245 
Q 1600 3394 1931 3394 
Q 2300 3394 2536 3241 
Q 2772 3088 2869 2813 
Q 3263 3394 3894 3394 
Q 4388 3394 4653 3120 
Q 4919 2847 4919 2278 
L 4919 0 
L 4359 0 
L 4359 2091 
Q 4359 2428 4304 2576 
Q 4250 2725 4106 2815 
Q 3963 2906 3769 2906 
Q 3419 2906 3187 2673 
Q 2956 2441 2956 1928 
L 2956 0 
L 2394 0 
L 2394 2156 
Q 2394 2531 2256 2718 
Q 2119 2906 1806 2906 
Q 1569 2906 1367 2781 
Q 1166 2656 1075 2415 
Q 984 2175 984 1722 
L 984 0 
L 422 0 
z
" transform="scale(0.015625)"/>
       <path id="ArialMT-29" d="M 791 -1347 
L 388 -1347 
Q 1322 153 1322 1656 
Q 1322 2244 1188 2822 
Q 1081 3291 891 3722 
Q 769 4003 388 4659 
L 791 4659 
Q 1378 3875 1659 3084 
Q 1900 2403 1900 1659 
Q 1900 816 1576 28 
Q 1253 -759 791 -1347 
z
" transform="scale(0.015625)"/>
      </defs>
      <use xlink:href="#ArialMT-57"/>
      <use xlink:href="#ArialMT-61" x="90.634766"/>
      <use xlink:href="#ArialMT-76" x="146.25"/>
      <use xlink:href="#ArialMT-65" x="196.25"/>
      <use xlink:href="#ArialMT-6c" x="251.865234"/>
      <use xlink:href="#ArialMT-65" x="274.082031"/>
      <use xlink:href="#ArialMT-6e" x="329.697266"/>
      <use xlink:href="#ArialMT-67" x="385.3125"/>
      <use xlink:href="#ArialMT-74" x="440.927734"/>
      <use xlink:href="#ArialMT-68" x="468.710938"/>
      <use xlink:href="#ArialMT-20" x="524.326172"/>
      <use xlink:href="#ArialMT-28" x="552.109375"/>
      <use xlink:href="#ArialMT-6e" x="585.410156"/>
      <use xlink:href="#ArialMT-6d" x="641.025391"/>
      <use xlink:href="#ArialMT-29" x="724.326172"/>
     </g>
    </g>
   </g>
   <g id="matplotlib.axis_2">
    <g id="ytick_1">
     <g id="line2d_12">
      <defs>
       <path id="me5e27faa72" d="M 0 0 
L 6 0 
" style="stroke: #262626; stroke-width: 1.25"/>
      </defs>
      <g>
       <use xlink:href="#me5e27faa72" x="47.368281" y="277.248797" style="fill: #262626; stroke: #262626; stroke-width: 1.25"/>
      </g>
     </g>
     <g id="text_8">
      <!-- 0.00 -->
      <g style="fill: #262626" transform="translate(22.46125 281.185594) scale(0.11 -0.11)">
       <defs>
        <path id="ArialMT-2e" d="M 581 0 
L 581 641 
L 1222 641 
L 1222 0 
L 581 0 
z
" transform="scale(0.015625)"/>
       </defs>
       <use xlink:href="#ArialMT-30"/>
       <use xlink:href="#ArialMT-2e" x="55.615234"/>
       <use xlink:href="#ArialMT-30" x="83.398438"/>
       <use xlink:href="#ArialMT-30" x="139.013672"/>
      </g>
     </g>
    </g>
    <g id="ytick_2">
     <g id="line2d_13">
      <g>
       <use xlink:href="#me5e27faa72" x="47.368281" y="247.680797" style="fill: #262626; stroke: #262626; stroke-width: 1.25"/>
      </g>
     </g>
     <g id="text_9">
      <!-- 0.05 -->
      <g style="fill: #262626" transform="translate(22.46125 251.617594) scale(0.11 -0.11)">
       <defs>
        <path id="ArialMT-35" d="M 266 1200 
L 856 1250 
Q 922 819 1161 601 
Q 1400 384 1738 384 
Q 2144 384 2425 690 
Q 2706 997 2706 1503 
Q 2706 1984 2436 2262 
Q 2166 2541 1728 2541 
Q 1456 2541 1237 2417 
Q 1019 2294 894 2097 
L 366 2166 
L 809 4519 
L 3088 4519 
L 3088 3981 
L 1259 3981 
L 1013 2750 
Q 1425 3038 1878 3038 
Q 2478 3038 2890 2622 
Q 3303 2206 3303 1553 
Q 3303 931 2941 478 
Q 2500 -78 1738 -78 
Q 1113 -78 717 272 
Q 322 622 266 1200 
z
" transform="scale(0.015625)"/>
       </defs>
       <use xlink:href="#ArialMT-30"/>
       <use xlink:href="#ArialMT-2e" x="55.615234"/>
       <use xlink:href="#ArialMT-30" x="83.398438"/>
       <use xlink:href="#ArialMT-35" x="139.013672"/>
      </g>
     </g>
    </g>
    <g id="ytick_3">
     <g id="line2d_14">
      <g>
       <use xlink:href="#me5e27faa72" x="47.368281" y="218.112797" style="fill: #262626; stroke: #262626; stroke-width: 1.25"/>
      </g>
     </g>
     <g id="text_10">
      <!-- 0.10 -->
      <g style="fill: #262626" transform="translate(22.46125 222.049594) scale(0.11 -0.11)">
       <use xlink:href="#ArialMT-30"/>
       <use xlink:href="#ArialMT-2e" x="55.615234"/>
       <use xlink:href="#ArialMT-31" x="83.398438"/>
       <use xlink:href="#ArialMT-30" x="139.013672"/>
      </g>
     </g>
    </g>
    <g id="ytick_4">
     <g id="line2d_15">
      <g>
       <use xlink:href="#me5e27faa72" x="47.368281" y="188.544797" style="fill: #262626; stroke: #262626; stroke-width: 1.25"/>
      </g>
     </g>
     <g id="text_11">
      <!-- 0.15 -->
      <g style="fill: #262626" transform="translate(22.46125 192.481594) scale(0.11 -0.11)">
       <use xlink:href="#ArialMT-30"/>
       <use xlink:href="#ArialMT-2e" x="55.615234"/>
       <use xlink:href="#ArialMT-31" x="83.398438"/>
       <use xlink:href="#ArialMT-35" x="139.013672"/>
      </g>
     </g>
    </g>
    <g id="ytick_5">
     <g id="line2d_16">
      <g>
       <use xlink:href="#me5e27faa72" x="47.368281" y="158.976797" style="fill: #262626; stroke: #262626; stroke-width: 1.25"/>
      </g>
     </g>
     <g id="text_12">
      <!-- 0.20 -->
      <g style="fill: #262626" transform="translate(22.46125 162.913594) scale(0.11 -0.11)">
       <use xlink:href="#ArialMT-30"/>
       <use xlink:href="#ArialMT-2e" x="55.615234"/>
       <use xlink:href="#ArialMT-32" x="83.398438"/>
       <use xlink:href="#ArialMT-30" x="139.013672"/>
      </g>
     </g>
    </g>
    <g id="ytick_6">
     <g id="line2d_17">
      <g>
       <use xlink:href="#me5e27faa72" x="47.368281" y="129.408797" style="fill: #262626; stroke: #262626; stroke-width: 1.25"/>
      </g>
     </g>
     <g id="text_13">
      <!-- 0.25 -->
      <g style="fill: #262626" transform="translate(22.46125 133.345594) scale(0.11 -0.11)">
       <use xlink:href="#ArialMT-30"/>
       <use xlink:href="#ArialMT-2e" x="55.615234"/>
       <use xlink:href="#ArialMT-32" x="83.398438"/>
       <use xlink:href="#ArialMT-35" x="139.013672"/>
      </g>
     </g>
    </g>
    <g id="ytick_7">
     <g id="line2d_18">
      <g>
       <use xlink:href="#me5e27faa72" x="47.368281" y="99.840797" style="fill: #262626; stroke: #262626; stroke-width: 1.25"/>
      </g>
     </g>
     <g id="text_14">
      <!-- 0.30 -->
      <g style="fill: #262626" transform="translate(22.46125 103.777594) scale(0.11 -0.11)">
       <defs>
        <path id="ArialMT-33" d="M 269 1209 
L 831 1284 
Q 928 806 1161 595 
Q 1394 384 1728 384 
Q 2125 384 2398 659 
Q 2672 934 2672 1341 
Q 2672 1728 2419 1979 
Q 2166 2231 1775 2231 
Q 1616 2231 1378 2169 
L 1441 2663 
Q 1497 2656 1531 2656 
Q 1891 2656 2178 2843 
Q 2466 3031 2466 3422 
Q 2466 3731 2256 3934 
Q 2047 4138 1716 4138 
Q 1388 4138 1169 3931 
Q 950 3725 888 3313 
L 325 3413 
Q 428 3978 793 4289 
Q 1159 4600 1703 4600 
Q 2078 4600 2393 4439 
Q 2709 4278 2876 4000 
Q 3044 3722 3044 3409 
Q 3044 3113 2884 2869 
Q 2725 2625 2413 2481 
Q 2819 2388 3044 2092 
Q 3269 1797 3269 1353 
Q 3269 753 2831 336 
Q 2394 -81 1725 -81 
Q 1122 -81 723 278 
Q 325 638 269 1209 
z
" transform="scale(0.015625)"/>
       </defs>
       <use xlink:href="#ArialMT-30"/>
       <use xlink:href="#ArialMT-2e" x="55.615234"/>
       <use xlink:href="#ArialMT-33" x="83.398438"/>
       <use xlink:href="#ArialMT-30" x="139.013672"/>
      </g>
     </g>
    </g>
    <g id="ytick_8">
     <g id="line2d_19">
      <g>
       <use xlink:href="#me5e27faa72" x="47.368281" y="70.272797" style="fill: #262626; stroke: #262626; stroke-width: 1.25"/>
      </g>
     </g>
     <g id="text_15">
      <!-- 0.35 -->
      <g style="fill: #262626" transform="translate(22.46125 74.209594) scale(0.11 -0.11)">
       <use xlink:href="#ArialMT-30"/>
       <use xlink:href="#ArialMT-2e" x="55.615234"/>
       <use xlink:href="#ArialMT-33" x="83.398438"/>
       <use xlink:href="#ArialMT-35" x="139.013672"/>
      </g>
     </g>
    </g>
    <g id="ytick_9">
     <g id="line2d_20">
      <g>
       <use xlink:href="#me5e27faa72" x="47.368281" y="40.704797" style="fill: #262626; stroke: #262626; stroke-width: 1.25"/>
      </g>
     </g>
     <g id="text_16">
      <!-- 0.40 -->
      <g style="fill: #262626" transform="translate(22.46125 44.641594) scale(0.11 -0.11)">
       <use xlink:href="#ArialMT-30"/>
       <use xlink:href="#ArialMT-2e" x="55.615234"/>
       <use xlink:href="#ArialMT-34" x="83.398438"/>
       <use xlink:href="#ArialMT-30" x="139.013672"/>
      </g>
     </g>
    </g>
    <g id="ytick_10">
     <g id="line2d_21">
      <g>
       <use xlink:href="#me5e27faa72" x="47.368281" y="11.136797" style="fill: #262626; stroke: #262626; stroke-width: 1.25"/>
      </g>
     </g>
     <g id="text_17">
      <!-- 0.45 -->
      <g style="fill: #262626" transform="translate(22.46125 15.073594) scale(0.11 -0.11)">
       <use xlink:href="#ArialMT-30"/>
       <use xlink:href="#ArialMT-2e" x="55.615234"/>
       <use xlink:href="#ArialMT-34" x="83.398438"/>
       <use xlink:href="#ArialMT-35" x="139.013672"/>
      </g>
     </g>
    </g>
    <g id="ytick_11">
     <g id="line2d_22">
      <defs>
       <path id="mfa7522229d" d="M 0 0 
L 4 0 
" style="stroke: #262626"/>
      </defs>
      <g>
       <use xlink:href="#mfa7522229d" x="47.368281" y="262.464797" style="fill: #262626; stroke: #262626"/>
      </g>
     </g>
    </g>
    <g id="ytick_12">
     <g id="line2d_23">
      <g>
       <use xlink:href="#mfa7522229d" x="47.368281" y="232.896797" style="fill: #262626; stroke: #262626"/>
      </g>
     </g>
    </g>
    <g id="ytick_13">
     <g id="line2d_24">
      <g>
       <use xlink:href="#mfa7522229d" x="47.368281" y="203.328797" style="fill: #262626; stroke: #262626"/>
      </g>
     </g>
    </g>
    <g id="ytick_14">
     <g id="line2d_25">
      <g>
       <use xlink:href="#mfa7522229d" x="47.368281" y="173.760797" style="fill: #262626; stroke: #262626"/>
      </g>
     </g>
    </g>
    <g id="ytick_15">
     <g id="line2d_26">
      <g>
       <use xlink:href="#mfa7522229d" x="47.368281" y="144.192797" style="fill: #262626; stroke: #262626"/>
      </g>
     </g>
    </g>
    <g id="ytick_16">
     <g id="line2d_27">
      <g>
       <use xlink:href="#mfa7522229d" x="47.368281" y="114.624797" style="fill: #262626; stroke: #262626"/>
      </g>
     </g>
    </g>
    <g id="ytick_17">
     <g id="line2d_28">
      <g>
       <use xlink:href="#mfa7522229d" x="47.368281" y="85.056797" style="fill: #262626; stroke: #262626"/>
      </g>
     </g>
    </g>
    <g id="ytick_18">
     <g id="line2d_29">
      <g>
       <use xlink:href="#mfa7522229d" x="47.368281" y="55.488797" style="fill: #262626; stroke: #262626"/>
      </g>
     </g>
    </g>
    <g id="ytick_19">
     <g id="line2d_30">
      <g>
       <use xlink:href="#mfa7522229d" x="47.368281" y="25.920797" style="fill: #262626; stroke: #262626"/>
      </g>
     </g>
    </g>
    <g id="text_18">
     <!-- Absorbance (a.u.) -->
     <g style="fill: #262626" transform="translate(15.935625 191.881547) rotate(-90) scale(0.12 -0.12)">
      <defs>
       <path id="ArialMT-41" d="M -9 0 
L 1750 4581 
L 2403 4581 
L 4278 0 
L 3588 0 
L 3053 1388 
L 1138 1388 
L 634 0 
L -9 0 
z
M 1313 1881 
L 2866 1881 
L 2388 3150 
Q 2169 3728 2063 4100 
Q 1975 3659 1816 3225 
L 1313 1881 
z
" transform="scale(0.015625)"/>
       <path id="ArialMT-62" d="M 941 0 
L 419 0 
L 419 4581 
L 981 4581 
L 981 2947 
Q 1338 3394 1891 3394 
Q 2197 3394 2470 3270 
Q 2744 3147 2920 2923 
Q 3097 2700 3197 2384 
Q 3297 2069 3297 1709 
Q 3297 856 2875 390 
Q 2453 -75 1863 -75 
Q 1275 -75 941 416 
L 941 0 
z
M 934 1684 
Q 934 1088 1097 822 
Q 1363 388 1816 388 
Q 2184 388 2453 708 
Q 2722 1028 2722 1663 
Q 2722 2313 2464 2622 
Q 2206 2931 1841 2931 
Q 1472 2931 1203 2611 
Q 934 2291 934 1684 
z
" transform="scale(0.015625)"/>
       <path id="ArialMT-73" d="M 197 991 
L 753 1078 
Q 800 744 1014 566 
Q 1228 388 1613 388 
Q 2000 388 2187 545 
Q 2375 703 2375 916 
Q 2375 1106 2209 1216 
Q 2094 1291 1634 1406 
Q 1016 1563 777 1677 
Q 538 1791 414 1992 
Q 291 2194 291 2438 
Q 291 2659 392 2848 
Q 494 3038 669 3163 
Q 800 3259 1026 3326 
Q 1253 3394 1513 3394 
Q 1903 3394 2198 3281 
Q 2494 3169 2634 2976 
Q 2775 2784 2828 2463 
L 2278 2388 
Q 2241 2644 2061 2787 
Q 1881 2931 1553 2931 
Q 1166 2931 1000 2803 
Q 834 2675 834 2503 
Q 834 2394 903 2306 
Q 972 2216 1119 2156 
Q 1203 2125 1616 2013 
Q 2213 1853 2448 1751 
Q 2684 1650 2818 1456 
Q 2953 1263 2953 975 
Q 2953 694 2789 445 
Q 2625 197 2315 61 
Q 2006 -75 1616 -75 
Q 969 -75 630 194 
Q 291 463 197 991 
z
" transform="scale(0.015625)"/>
       <path id="ArialMT-6f" d="M 213 1659 
Q 213 2581 725 3025 
Q 1153 3394 1769 3394 
Q 2453 3394 2887 2945 
Q 3322 2497 3322 1706 
Q 3322 1066 3130 698 
Q 2938 331 2570 128 
Q 2203 -75 1769 -75 
Q 1072 -75 642 372 
Q 213 819 213 1659 
z
M 791 1659 
Q 791 1022 1069 705 
Q 1347 388 1769 388 
Q 2188 388 2466 706 
Q 2744 1025 2744 1678 
Q 2744 2294 2464 2611 
Q 2184 2928 1769 2928 
Q 1347 2928 1069 2612 
Q 791 2297 791 1659 
z
" transform="scale(0.015625)"/>
       <path id="ArialMT-72" d="M 416 0 
L 416 3319 
L 922 3319 
L 922 2816 
Q 1116 3169 1280 3281 
Q 1444 3394 1641 3394 
Q 1925 3394 2219 3213 
L 2025 2691 
Q 1819 2813 1613 2813 
Q 1428 2813 1281 2702 
Q 1134 2591 1072 2394 
Q 978 2094 978 1738 
L 978 0 
L 416 0 
z
" transform="scale(0.015625)"/>
       <path id="ArialMT-63" d="M 2588 1216 
L 3141 1144 
Q 3050 572 2676 248 
Q 2303 -75 1759 -75 
Q 1078 -75 664 370 
Q 250 816 250 1647 
Q 250 2184 428 2587 
Q 606 2991 970 3192 
Q 1334 3394 1763 3394 
Q 2303 3394 2647 3120 
Q 2991 2847 3088 2344 
L 2541 2259 
Q 2463 2594 2264 2762 
Q 2066 2931 1784 2931 
Q 1359 2931 1093 2626 
Q 828 2322 828 1663 
Q 828 994 1084 691 
Q 1341 388 1753 388 
Q 2084 388 2306 591 
Q 2528 794 2588 1216 
z
" transform="scale(0.015625)"/>
       <path id="ArialMT-75" d="M 2597 0 
L 2597 488 
Q 2209 -75 1544 -75 
Q 1250 -75 995 37 
Q 741 150 617 320 
Q 494 491 444 738 
Q 409 903 409 1263 
L 409 3319 
L 972 3319 
L 972 1478 
Q 972 1038 1006 884 
Q 1059 663 1231 536 
Q 1403 409 1656 409 
Q 1909 409 2131 539 
Q 2353 669 2445 892 
Q 2538 1116 2538 1541 
L 2538 3319 
L 3100 3319 
L 3100 0 
L 2597 0 
z
" transform="scale(0.015625)"/>
      </defs>
      <use xlink:href="#ArialMT-41"/>
      <use xlink:href="#ArialMT-62" x="66.699219"/>
      <use xlink:href="#ArialMT-73" x="122.314453"/>
      <use xlink:href="#ArialMT-6f" x="172.314453"/>
      <use xlink:href="#ArialMT-72" x="227.929688"/>
      <use xlink:href="#ArialMT-62" x="261.230469"/>
      <use xlink:href="#ArialMT-61" x="316.845703"/>
      <use xlink:href="#ArialMT-6e" x="372.460938"/>
      <use xlink:href="#ArialMT-63" x="428.076172"/>
      <use xlink:href="#ArialMT-65" x="478.076172"/>
      <use xlink:href="#ArialMT-20" x="533.691406"/>
      <use xlink:href="#ArialMT-28" x="561.474609"/>
      <use xlink:href="#ArialMT-61" x="594.775391"/>
      <use xlink:href="#ArialMT-2e" x="650.390625"/>
      <use xlink:href="#ArialMT-75" x="678.173828"/>
      <use xlink:href="#ArialMT-2e" x="733.789062"/>
      <use xlink:href="#ArialMT-29" x="761.572266"/>
     </g>
    </g>
   </g>
   <g id="PolyCollection_1"/>
   <g id="PolyCollection_2"/>
   <g id="PolyCollection_3"/>
   <g id="PolyCollection_4"/>
   <g id="line2d_31">
    <path d="M 47.368281 230.150022 
L 47.801157 228.969987 
L 48.666899 226.237917 
L 49.749085 221.835039 
L 51.480569 212.879427 
L 52.99563 203.156673 
L 54.727114 190.678228 
L 57.107918 172.251761 
L 60.570896 147.92697 
L 61.653081 142.401551 
L 62.518823 139.028707 
L 63.168132 136.923946 
L 64.466751 134.275329 
L 65.548936 133.29826 
L 66.414678 133.381691 
L 67.063987 134.048192 
L 67.713296 135.226764 
L 68.579048 137.677632 
L 69.44479 140.693522 
L 71.392718 148.903308 
L 72.907769 154.765987 
L 74.42283 158.6556 
L 74.855696 159.33909 
L 75.721448 160.067582 
L 76.154324 160.173546 
L 76.803633 159.971902 
L 78.102251 158.289754 
L 80.050179 153.155347 
L 80.699488 150.982505 
L 81.998106 145.914391 
L 83.72959 137.814561 
L 85.677518 127.189754 
L 88.274754 111.325123 
L 97.365081 50.859597 
L 98.447266 44.873445 
L 99.745885 38.559612 
L 100.82807 34.235782 
L 101.910245 30.703547 
L 102.775997 28.466562 
L 103.641739 26.809775 
L 104.291048 25.87213 
L 104.723924 25.474588 
L 105.806099 25.154926 
L 106.671851 25.835966 
L 107.321161 26.877856 
L 107.97047 28.492769 
L 108.619779 30.609259 
L 109.269088 33.339342 
L 110.351263 39.066282 
L 111.433448 46.459032 
L 112.732066 56.8786 
L 114.463561 72.658266 
L 118.359415 111.961822 
L 120.523766 136.354685 
L 122.25527 157.818385 
L 126.800433 216.214794 
L 128.315475 232.508836 
L 129.39767 242.24846 
L 130.479845 250.286233 
L 131.56204 256.762316 
L 132.644215 261.795963 
L 133.72639 265.691023 
L 134.808585 268.670868 
L 136.54007 271.777182 
L 138.70444 274.070048 
L 140.86879 275.204807 
L 143.68247 275.956994 
L 144.331779 276.005914 
L 145.413954 276.16301 
L 147.794767 276.340013 
L 148.444076 276.413157 
L 149.093385 276.402253 
L 149.959118 276.484822 
L 151.041313 276.492145 
L 151.907045 276.523157 
L 154.071415 276.555515 
L 155.370033 276.599671 
L 157.96727 276.626665 
L 159.049445 276.636531 
L 162.728876 276.624885 
L 165.10967 276.601237 
L 165.975422 276.62803 
L 171.169894 276.567104 
L 180.476645 276.732386 
L 180.909531 276.735147 
L 181.775263 276.770039 
L 182.641015 276.735837 
L 187.402622 276.781664 
L 188.268354 276.726572 
L 189.783415 276.759933 
L 191.298476 276.730775 
L 191.514899 276.817977 
L 191.947785 276.747985 
L 192.380651 276.779579 
L 192.813518 276.747509 
L 193.462827 276.80893 
L 194.328579 276.778658 
L 194.761445 276.774104 
L 196.060063 276.786296 
L 197.142258 276.873525 
L 197.575124 276.856737 
L 198.440876 276.799545 
L 201.687422 276.845837 
L 201.903845 276.740009 
L 203.202463 276.77849 
L 205.15039 276.771634 
L 205.583276 276.770223 
L 207.098318 276.708349 
L 207.531204 276.762463 
L 208.180513 276.702274 
L 208.396936 276.82043 
L 208.829822 276.750163 
L 209.046245 276.82408 
L 209.695554 276.749871 
L 209.911997 276.806308 
L 210.12844 276.687654 
L 210.344863 276.791418 
L 210.561306 276.71858 
L 210.777749 276.80801 
L 211.859924 276.764089 
L 212.29279 276.751528 
L 212.509233 276.77487 
L 212.725676 276.679078 
L 213.158542 276.772478 
L 213.807851 276.757939 
L 214.024294 276.694619 
L 214.457161 276.735883 
L 214.673604 276.649221 
L 214.890027 276.703747 
L 215.10647 276.876223 
L 215.322913 276.725698 
L 217.054397 276.684125 
L 217.487263 276.654714 
L 217.703706 276.760899 
L 218.785881 276.701921 
L 219.218767 276.80548 
L 219.43519 276.661818 
L 219.651633 276.734288 
L 220.300942 276.687976 
L 220.517385 276.789133 
L 221.166694 276.738997 
L 221.383118 276.78556 
L 221.816004 276.648469 
L 222.032427 276.708563 
L 222.24887 276.622122 
L 222.465313 276.741175 
L 223.114622 276.612854 
L 223.331045 276.870397 
L 223.763931 276.611488 
L 224.196797 276.722477 
L 224.41324 276.66438 
L 224.846106 276.814527 
L 225.495415 276.602203 
L 225.711858 276.805219 
L 227.226899 276.661634 
L 227.443342 276.997027 
L 227.876209 276.495692 
L 228.092651 276.454328 
L 228.309094 276.803624 
L 228.525518 276.728781 
L 228.741961 276.868665 
L 228.958404 276.819418 
L 229.174827 276.595436 
L 229.39127 276.961046 
L 229.607713 276.446328 
L 230.040579 276.88096 
L 230.257022 276.946379 
L 230.473445 276.234529 
L 230.689888 276.834997 
L 230.906331 276.330134 
L 231.122754 276.726572 
L 231.339197 276.812073 
L 231.55564 276.67176 
L 231.772063 276.941597 
L 231.988506 276.610797 
L 232.637815 276.661357 
L 232.854258 276.450781 
L 233.070681 276.835303 
L 233.287124 276.851264 
L 233.503567 276.702719 
L 233.71999 276.387093 
L 233.936433 276.931283 
L 234.369299 276.872727 
L 234.585742 276.451533 
L 234.802185 277.163089 
L 235.018609 276.718105 
L 235.235051 276.656586 
L 235.451494 276.440661 
L 235.667918 276.387155 
L 235.884361 276.705495 
L 236.100804 275.830527 
L 236.317227 277.2044 
L 236.53367 276.749319 
L 236.750113 276.925811 
L 236.966536 276.63314 
L 237.399422 276.795205 
L 237.615845 276.192601 
L 237.832288 276.823742 
L 238.265154 276.623642 
L 238.481597 276.238018 
L 238.69804 277.31097 
L 238.914463 276.907923 
L 239.130906 277.312409 
L 239.563772 276.188328 
L 239.780215 276.893852 
L 239.996658 276.344283 
L 240.213081 276.752908 
L 240.429524 276.503752 
L 240.645967 277.268605 
L 241.078833 275.166012 
L 241.295276 277.500703 
L 241.511699 275.633441 
L 241.728142 277.542358 
L 241.944566 276.677789 
L 243.243184 276.653302 
L 245.84042 276.604812 
L 253.415686 276.377755 
L 254.714304 276.37519 
L 264.453941 276.158905 
L 267.484063 276.097252 
L 296.486549 276.112751 
L 297.135858 276.110091 
L 298.00159 276.145684 
L 298.867323 276.118379 
L 300.598827 276.108569 
L 301.031713 276.139535 
L 309.472731 276.144716 
L 310.12204 276.163609 
L 312.935699 276.163609 
L 315.10005 276.189619 
L 315.965822 276.230595 
L 316.615131 276.258641 
L 317.26444 276.330457 
L 319.212367 276.373715 
L 323.108222 276.176399 
L 324.40684 276.192478 
L 338.258754 276.248222 
L 340.423104 276.204405 
L 345.617577 276.131924 
L 347.781967 276.087672 
L 352.110668 276.118994 
L 354.491481 276.114012 
L 357.305141 276.087103 
L 361.850304 276.077 
L 363.581809 276.082459 
L 367.26124 276.097129 
L 368.126972 276.101235 
L 369.209167 276.096514 
L 373.970754 276.103003 
L 376.351567 276.07434 
L 377.433723 276.099297 
L 380.463845 276.105002 
L 381.329577 276.082736 
L 382.628195 276.087503 
L 391.285676 276.082413 
L 391.718523 276.077477 
L 393.233604 276.110875 
L 394.099336 276.07883 
L 396.047263 276.015881 
L 397.99519 275.911511 
L 401.458159 275.712361 
L 401.891045 275.726082 
L 404.488281 275.760435 
L 404.488281 275.760435 
" clip-path="url(#pe4c05d2bfc)" style="fill: none; stroke: #f69c73; stroke-linecap: round"/>
   </g>
   <g id="line2d_32">
    <path d="M 47.368281 228.956963 
L 49.316209 224.995079 
L 50.181951 221.91013 
L 51.047703 217.240796 
L 52.99563 205.924331 
L 54.510681 198.107161 
L 55.376423 191.727397 
L 57.97366 168.813091 
L 58.622969 166.002449 
L 59.272278 164.186323 
L 60.570896 161.146244 
L 61.003772 159.593253 
L 61.869514 155.063047 
L 63.601009 145.579096 
L 64.033885 144.569925 
L 64.250318 144.419735 
L 64.466751 144.499447 
L 64.899627 145.400954 
L 65.332503 146.95095 
L 65.981812 150.200806 
L 67.496863 157.714369 
L 68.579048 161.596923 
L 69.877666 164.579204 
L 71.392718 166.742538 
L 73.989954 169.142226 
L 74.42283 169.522576 
L 75.288572 170.455163 
L 77.020066 173.109992 
L 78.318685 176.269702 
L 79.40087 179.771598 
L 80.915921 185.307547 
L 82.214539 190.185614 
L 83.946033 195.986133 
L 85.244651 199.468176 
L 86.110394 201.367345 
L 86.976136 202.940419 
L 88.70763 204.97453 
L 88.924063 205.191568 
L 89.356939 205.405144 
L 90.439124 205.8413 
L 91.088433 205.904486 
L 91.737742 205.852522 
L 92.387051 205.713513 
L 93.036361 205.460236 
L 95.85003 203.487685 
L 96.932215 202.451787 
L 98.01439 201.36389 
L 107.754027 190.630679 
L 109.701954 188.968269 
L 113.381375 186.499689 
L 113.814251 186.310373 
L 114.896427 185.871054 
L 117.060797 185.253107 
L 119.225147 185.084058 
L 119.658033 185.214625 
L 120.523766 185.248375 
L 122.904579 185.93939 
L 124.41962 186.698223 
L 127.666166 189.15903 
L 130.263402 191.950797 
L 131.56204 193.536464 
L 133.72639 196.624771 
L 134.592142 198.040948 
L 134.808585 198.060555 
L 135.890761 199.814089 
L 137.622245 202.813941 
L 147.578324 222.413693 
L 149.526251 226.458405 
L 158.183713 243.23177 
L 160.997372 247.897954 
L 163.811051 252.106167 
L 168.139772 257.477452 
L 171.169894 260.509855 
L 175.498615 264.039683 
L 177.013676 265.089014 
L 177.446542 265.429084 
L 178.745161 266.229712 
L 180.043779 267.092439 
L 181.342397 267.799128 
L 182.208149 268.302305 
L 184.588942 269.478621 
L 185.238251 269.754464 
L 186.104004 270.183283 
L 188.051931 270.97292 
L 188.484797 271.13013 
L 189.134106 271.350595 
L 191.514899 272.255996 
L 191.731342 272.251298 
L 192.380651 272.549189 
L 192.813518 272.631479 
L 193.462827 272.871697 
L 195.194331 273.372394 
L 196.925815 273.850215 
L 197.575124 274.09252 
L 198.00799 274.151697 
L 198.224433 274.250512 
L 198.440876 274.22635 
L 198.873742 274.378501 
L 199.523051 274.51031 
L 200.172361 274.656541 
L 201.687422 275.035991 
L 202.120288 275.043248 
L 202.553154 275.148805 
L 204.933967 275.613229 
L 205.366833 275.62087 
L 209.479131 276.222111 
L 209.695554 276.199856 
L 209.911997 276.363777 
L 210.12844 276.247838 
L 210.344863 276.372118 
L 210.777749 276.368907 
L 211.427058 276.423201 
L 213.158542 276.627232 
L 213.374985 276.700801 
L 213.807851 276.63535 
L 216.188645 276.928187 
L 216.405088 276.811537 
L 216.837954 276.922209 
L 217.054397 276.835012 
L 218.136572 276.956586 
L 218.785881 276.989273 
L 219.218767 277.078761 
L 220.084499 276.994514 
L 220.733809 277.089239 
L 220.950251 277.018585 
L 221.383118 277.123639 
L 221.816004 277.115338 
L 222.032427 277.169061 
L 222.24887 277.018937 
L 222.465313 277.208978 
L 222.681736 277.038181 
L 223.114622 277.08449 
L 223.331045 277.343382 
L 223.763931 277.089285 
L 223.980354 277.078869 
L 224.41324 277.337874 
L 224.846106 277.241051 
L 225.062549 277.23058 
L 225.278972 277.346198 
L 225.495415 277.271788 
L 225.711858 277.380075 
L 225.928281 277.28137 
L 226.57759 277.267502 
L 227.010476 277.201675 
L 227.226899 277.16733 
L 227.443342 277.395895 
L 228.092651 277.122675 
L 228.309094 277.367896 
L 228.525518 277.134115 
L 228.741961 277.202609 
L 228.958404 277.059751 
L 229.39127 277.44757 
L 229.607713 277.065113 
L 229.824136 277.496237 
L 230.040579 277.316418 
L 230.257022 277.505719 
L 230.473445 276.957644 
L 230.689888 277.258533 
L 230.906331 276.733275 
L 231.339197 277.573426 
L 231.55564 277.54196 
L 231.772063 277.156443 
L 232.204949 277.361132 
L 232.421372 277.147438 
L 232.854258 277.243454 
L 233.070681 277.617178 
L 233.287124 277.242521 
L 233.503567 277.276533 
L 233.71999 277.165049 
L 233.936433 277.257369 
L 234.152876 277.714623 
L 234.585742 276.920722 
L 234.802185 277.64625 
L 235.018609 277.373312 
L 235.235051 276.71766 
L 235.667918 277.365417 
L 235.884361 277.320061 
L 236.100804 276.995387 
L 236.317227 277.826572 
L 236.750113 277.087339 
L 236.966536 278.264121 
L 237.182979 277.767456 
L 237.399422 278.018671 
L 237.615845 276.499699 
L 238.048731 277.91154 
L 238.265154 277.167131 
L 238.481597 277.947845 
L 238.914463 277.743073 
L 239.130906 277.935235 
L 239.347349 276.540257 
L 239.563772 276.327415 
L 239.780215 277.963478 
L 239.996658 277.453688 
L 240.213081 277.842792 
L 240.429524 277.152523 
L 240.645967 277.891781 
L 240.86239 277.224395 
L 241.078833 277.199577 
L 241.295276 277.758565 
L 241.511699 276.601283 
L 241.728142 277.677123 
L 241.944566 277.459623 
L 243.026741 277.483666 
L 271.596341 277.38338 
L 272.678536 277.372975 
L 282.201729 277.356787 
L 284.149676 277.3529 
L 286.097604 277.363734 
L 288.261954 277.348371 
L 290.209881 277.352013 
L 293.889313 277.357093 
L 295.187931 277.360245 
L 303.845372 277.370313 
L 305.14399 277.370894 
L 306.659032 277.358439 
L 309.905577 277.384298 
L 311.853504 277.396506 
L 313.368585 277.416884 
L 314.667204 277.477487 
L 315.532936 277.548045 
L 318.995904 277.68944 
L 320.727409 277.455432 
L 322.026027 277.495289 
L 322.891759 277.47709 
L 325.488995 277.413763 
L 328.302694 277.482167 
L 328.735541 277.465955 
L 330.467045 277.475071 
L 339.124486 277.475927 
L 341.938185 277.395436 
L 343.453227 277.367896 
L 344.968268 277.367069 
L 349.297009 277.331324 
L 351.244936 277.341454 
L 355.790099 277.319234 
L 385.009009 277.376617 
L 386.091204 277.380809 
L 389.554172 277.369701 
L 396.047263 277.316296 
L 399.293809 277.138541 
L 399.943118 277.054696 
L 401.458159 277.01074 
L 401.891045 277.029662 
L 403.838972 277.096086 
L 404.271858 277.168556 
L 404.488281 277.144345 
L 404.488281 277.144345 
" clip-path="url(#pe4c05d2bfc)" style="fill: none; stroke: #e83f3f; stroke-linecap: round"/>
   </g>
   <g id="line2d_33">
    <path d="M 47.368281 212.083025 
L 48.234023 208.852432 
L 49.316209 204.856798 
L 49.965518 200.906189 
L 50.398394 197.509737 
L 52.99563 172.104337 
L 54.727114 160.082342 
L 55.376423 152.358016 
L 56.458609 135.183462 
L 57.324351 122.557734 
L 57.757227 118.349693 
L 58.190103 115.897803 
L 58.406536 115.172051 
L 58.839412 114.733057 
L 59.488721 115.809595 
L 60.13803 117.002716 
L 60.354463 117.074551 
L 60.787339 116.811285 
L 61.220205 115.413798 
L 61.653081 112.954259 
L 62.518823 106.243976 
L 63.168132 101.749388 
L 63.601009 100.221378 
L 63.817442 100.178711 
L 64.033885 100.648264 
L 64.466751 103.168782 
L 65.11606 110.62979 
L 65.981812 124.729722 
L 67.28043 146.230353 
L 68.146172 157.421847 
L 69.011914 165.737139 
L 69.877666 171.884875 
L 70.743409 176.600802 
L 71.609151 180.338946 
L 73.340645 185.908452 
L 77.020066 195.935509 
L 78.535118 201.67119 
L 83.080281 222.733166 
L 84.162466 226.554966 
L 85.244651 229.667462 
L 86.326827 231.985688 
L 87.192579 233.383012 
L 88.274754 234.638292 
L 89.573372 235.521382 
L 90.006248 235.788415 
L 91.304866 235.96809 
L 91.521299 236.035026 
L 91.954175 235.999761 
L 92.603485 235.909081 
L 92.819918 235.914888 
L 93.469227 235.633007 
L 95.200721 234.860463 
L 99.096575 232.448443 
L 99.962318 231.853227 
L 102.126688 230.299411 
L 107.104718 227.282155 
L 108.186903 226.852013 
L 108.403336 226.843743 
L 109.052645 226.601731 
L 113.381375 225.893704 
L 117.27722 226.029444 
L 119.008724 226.319687 
L 120.740209 226.799031 
L 122.471693 227.43647 
L 126.800433 229.765125 
L 127.882609 230.546132 
L 128.748361 231.114816 
L 134.375699 235.987485 
L 135.025009 236.473451 
L 135.674318 237.061398 
L 136.54007 237.921008 
L 138.271554 239.583149 
L 138.70444 240.130437 
L 139.570172 240.905356 
L 143.68247 244.982119 
L 144.115336 245.392203 
L 146.712572 247.854634 
L 149.959118 250.880002 
L 150.608427 251.41937 
L 151.690622 252.418436 
L 152.339931 252.978314 
L 155.370033 255.494743 
L 156.668651 256.472151 
L 158.400136 257.751074 
L 160.780949 259.334184 
L 162.945299 260.555077 
L 163.811051 261.050919 
L 164.460361 261.290287 
L 165.10967 261.623465 
L 170.737009 263.52843 
L 171.819204 263.856992 
L 172.25207 263.996053 
L 172.901379 264.172443 
L 175.065749 264.818331 
L 176.58079 265.261607 
L 178.528718 265.929291 
L 178.745161 265.92662 
L 179.610913 266.293781 
L 181.775263 266.966327 
L 182.857458 267.35326 
L 183.72319 267.591629 
L 184.372499 267.83281 
L 185.238251 268.019629 
L 185.454694 268.148001 
L 186.104004 268.24484 
L 186.53687 268.404569 
L 187.186179 268.542978 
L 187.619045 268.660279 
L 188.051931 268.788569 
L 189.350549 269.02542 
L 189.566972 269.156434 
L 189.999858 269.223456 
L 192.164209 269.684128 
L 192.380651 269.789183 
L 192.813518 269.810441 
L 194.545022 270.191103 
L 194.977888 270.272626 
L 195.627197 270.444036 
L 196.276506 270.556653 
L 198.873742 271.143346 
L 199.090185 271.133893 
L 199.306609 271.262426 
L 199.739494 271.300969 
L 200.172361 271.37019 
L 201.687422 271.718816 
L 202.120288 271.702768 
L 202.769597 271.895281 
L 203.202463 271.9274 
L 203.635349 272.033979 
L 204.068215 272.107579 
L 205.366833 272.353358 
L 205.799699 272.358242 
L 206.232585 272.481438 
L 206.449009 272.462865 
L 206.665451 272.56453 
L 206.881894 272.478413 
L 207.531204 272.641516 
L 209.911997 273.005137 
L 210.12844 272.951906 
L 210.994172 273.168807 
L 212.509233 273.299902 
L 213.591409 273.419882 
L 214.890027 273.459252 
L 215.10647 273.611594 
L 215.322913 273.524322 
L 215.755779 273.646153 
L 215.972222 273.574142 
L 216.188645 273.665216 
L 216.405088 273.582232 
L 216.837954 273.663043 
L 217.054397 273.633718 
L 217.487263 273.701957 
L 218.136572 273.758415 
L 218.569458 273.763722 
L 218.785881 273.860794 
L 219.651633 273.843312 
L 221.166694 273.984497 
L 221.816004 273.971163 
L 222.032427 274.128021 
L 222.24887 273.955472 
L 222.465313 274.124473 
L 222.681736 273.993334 
L 223.114622 274.031035 
L 223.331045 274.19884 
L 223.547488 274.21007 
L 223.980354 274.042149 
L 224.196797 274.20389 
L 225.495415 274.187128 
L 225.928281 274.277304 
L 226.144724 274.201163 
L 226.361167 274.318835 
L 226.794033 274.351627 
L 227.010476 274.156221 
L 227.226899 274.268028 
L 227.443342 274.530237 
L 227.659785 274.301152 
L 227.876209 274.369476 
L 228.092651 274.113983 
L 228.309094 274.539241 
L 228.525518 274.171265 
L 228.741961 274.440476 
L 229.174827 274.363795 
L 229.39127 274.647634 
L 229.607713 273.910549 
L 229.824136 274.602198 
L 230.040579 274.578564 
L 230.257022 274.744898 
L 230.473445 274.11781 
L 230.689888 274.72287 
L 230.906331 274.454048 
L 231.122754 274.483728 
L 231.339197 275.035281 
L 231.55564 274.537509 
L 231.772063 274.448771 
L 231.988506 274.230253 
L 232.204949 274.562631 
L 232.421372 274.441899 
L 232.637815 274.477724 
L 232.854258 274.395668 
L 233.070681 274.74598 
L 233.503567 274.193279 
L 233.71999 274.469074 
L 233.936433 274.339427 
L 234.152876 274.834492 
L 234.369299 274.406162 
L 234.585742 274.376303 
L 234.802185 274.9488 
L 235.235051 274.552282 
L 235.451494 274.953943 
L 235.667918 274.90218 
L 235.884361 275.357213 
L 236.100804 274.34034 
L 236.317227 274.820646 
L 236.53367 274.988152 
L 236.750113 274.59663 
L 236.966536 275.071224 
L 237.182979 274.261818 
L 237.399422 275.801141 
L 237.615845 274.236573 
L 237.832288 274.929646 
L 238.048731 275.011084 
L 238.265154 273.870628 
L 238.481597 274.222989 
L 238.69804 275.811209 
L 238.914463 274.260176 
L 239.130906 275.977624 
L 239.347349 273.667343 
L 239.780215 274.775101 
L 239.996658 274.667597 
L 240.213081 275.325721 
L 240.429524 275.153218 
L 240.645967 275.568287 
L 241.078833 273.735867 
L 241.295276 274.818591 
L 241.511699 273.474585 
L 241.728142 275.3953 
L 241.944566 275.18791 
L 243.026741 275.229232 
L 255.580056 275.416423 
L 262.506013 275.450848 
L 263.588209 275.464213 
L 265.319693 275.479596 
L 270.081299 275.505151 
L 271.812784 275.527744 
L 273.111402 275.524323 
L 274.41002 275.539965 
L 281.119554 275.532167 
L 282.851058 275.544927 
L 284.798985 275.561492 
L 286.963336 275.545836 
L 296.486549 275.590967 
L 297.785167 275.601906 
L 301.681022 275.611103 
L 303.196063 275.629867 
L 312.069967 275.694697 
L 315.749359 275.928283 
L 317.480863 276.118948 
L 319.212367 275.902309 
L 320.078099 275.757325 
L 323.324645 275.739464 
L 325.056149 275.711807 
L 326.57119 275.731626 
L 328.302694 275.754553 
L 335.228632 275.822385 
L 336.52725 275.806714 
L 338.258754 275.839501 
L 340.206681 275.758587 
L 341.072413 275.762206 
L 346.050463 275.704369 
L 347.99839 275.70808 
L 396.047263 275.775246 
L 398.860923 275.597176 
L 399.077385 275.645071 
L 399.726694 275.508603 
L 404.488281 275.453499 
L 404.488281 275.453499 
" clip-path="url(#pe4c05d2bfc)" style="fill: none; stroke: #a11a5b; stroke-linecap: round"/>
   </g>
   <g id="line2d_34">
    <path d="M 47.368281 208.652524 
L 48.450466 203.518324 
L 49.099775 200.667156 
L 49.532642 197.950247 
L 49.965518 194.602454 
L 50.614827 187.805585 
L 52.562754 163.804132 
L 53.212063 158.533898 
L 54.294248 151.084777 
L 54.727114 146.930532 
L 55.376423 138.011208 
L 56.242175 122.289534 
L 57.107918 106.728669 
L 57.757227 99.306151 
L 58.190103 96.911768 
L 58.406536 96.442338 
L 58.622969 96.504339 
L 58.839412 96.892505 
L 59.272278 98.314225 
L 60.13803 102.019827 
L 60.570896 102.894483 
L 60.787339 102.885601 
L 61.003772 102.613787 
L 61.220205 102.001374 
L 61.653081 99.756865 
L 63.384575 87.707298 
L 63.601009 87.432717 
L 63.817442 87.745876 
L 64.033885 88.777615 
L 64.466751 92.698281 
L 64.899627 99.141738 
L 65.765369 117.197019 
L 67.496863 155.306151 
L 68.579048 172.361152 
L 69.44479 181.998818 
L 70.310532 189.071959 
L 71.176285 194.435054 
L 71.825594 197.633298 
L 72.907769 202.043741 
L 74.42283 206.652973 
L 77.452942 214.7637 
L 78.967994 220.051416 
L 79.833736 223.359431 
L 82.214539 232.365545 
L 84.378899 238.670843 
L 85.677518 241.201735 
L 86.759703 242.695609 
L 87.841888 243.708559 
L 89.140506 244.433079 
L 89.789815 244.658604 
L 90.439124 244.777067 
L 91.304866 244.740863 
L 92.170609 244.627927 
L 92.603485 244.579917 
L 92.819918 244.605175 
L 93.469227 244.278485 
L 94.118536 244.043395 
L 94.551412 243.863636 
L 101.477379 240.480569 
L 102.126688 240.130706 
L 102.775997 239.832007 
L 104.074615 239.211576 
L 107.104718 238.182155 
L 108.836212 237.940579 
L 116.627911 238.506562 
L 118.792281 238.958827 
L 120.090899 239.381452 
L 120.740209 239.535283 
L 124.203197 240.847631 
L 125.285372 241.365851 
L 128.748361 243.257283 
L 131.345597 244.961428 
L 132.427772 245.650525 
L 133.293524 246.327056 
L 133.72639 246.620747 
L 134.375699 247.175083 
L 136.972936 249.157926 
L 139.570172 251.19478 
L 141.518099 252.675452 
L 142.816718 253.622798 
L 143.898913 254.335386 
L 145.630397 255.531579 
L 152.123488 259.564711 
L 155.802899 261.544015 
L 160.348063 263.492289 
L 160.780949 263.57285 
L 162.079567 263.983996 
L 162.945299 264.169704 
L 163.594609 264.336574 
L 164.676804 264.521867 
L 170.087699 264.884214 
L 178.312294 265.925868 
L 179.610913 266.206207 
L 180.260222 266.350646 
L 181.55884 266.636839 
L 181.991706 266.680325 
L 182.857458 266.917789 
L 183.506767 267.042364 
L 186.753313 267.62499 
L 188.051931 267.816407 
L 188.484797 267.898591 
L 190.216281 268.077604 
L 190.86559 268.163512 
L 191.298476 268.247409 
L 194.545022 268.711922 
L 194.977888 268.83234 
L 195.410754 268.860526 
L 195.84364 268.950726 
L 196.925815 269.104264 
L 197.575124 269.29384 
L 198.00799 269.324927 
L 198.440876 269.467245 
L 199.090185 269.520571 
L 199.306609 269.626529 
L 199.739494 269.630204 
L 200.172361 269.768995 
L 200.388804 269.714175 
L 200.82167 269.854024 
L 201.254536 269.937229 
L 201.687422 270.08023 
L 202.120288 270.020737 
L 202.553154 270.154565 
L 203.635349 270.425801 
L 204.068215 270.511115 
L 205.799699 270.703675 
L 206.016142 270.815959 
L 206.232585 270.765334 
L 206.665451 270.945671 
L 207.098318 270.944573 
L 209.911997 271.382312 
L 210.12844 271.310995 
L 210.777749 271.494519 
L 211.427058 271.523087 
L 213.374985 271.870553 
L 213.591409 271.789004 
L 214.024294 271.862143 
L 216.188645 272.105221 
L 216.621531 272.083714 
L 216.837954 272.181455 
L 217.054397 272.053631 
L 217.487263 272.156114 
L 217.920149 272.317704 
L 218.353015 272.202547 
L 219.218767 272.385107 
L 219.43519 272.263472 
L 219.868076 272.392065 
L 220.517385 272.390833 
L 220.733809 272.510958 
L 220.950251 272.398305 
L 221.599561 272.478647 
L 221.816004 272.399413 
L 222.032427 272.511192 
L 222.24887 272.492152 
L 222.465313 272.671842 
L 222.681736 272.417508 
L 223.547488 272.709707 
L 223.763931 272.553585 
L 224.846106 272.774437 
L 225.278972 272.692661 
L 225.928281 272.758875 
L 226.144724 272.971317 
L 227.226899 272.745914 
L 227.443342 273.072392 
L 227.659785 272.71301 
L 227.876209 272.841674 
L 228.092651 272.77654 
L 228.309094 273.22672 
L 228.525518 272.904612 
L 228.741961 272.952965 
L 229.174827 272.644835 
L 229.39127 273.050888 
L 229.607713 272.676657 
L 229.824136 273.055229 
L 230.040579 272.983877 
L 230.257022 273.193675 
L 230.473445 272.719335 
L 230.689888 273.076483 
L 230.906331 272.837485 
L 231.55564 273.118644 
L 231.772063 273.338357 
L 231.988506 273.125037 
L 232.637815 273.30127 
L 232.854258 272.868723 
L 233.070681 272.94968 
L 233.287124 272.857122 
L 233.503567 273.331037 
L 233.71999 272.621644 
L 233.936433 273.219567 
L 234.152876 272.600212 
L 234.369299 273.306197 
L 234.585742 273.205883 
L 234.802185 273.6215 
L 235.018609 273.431162 
L 235.235051 272.644913 
L 235.451494 273.316799 
L 235.667918 273.158993 
L 235.884361 273.615988 
L 236.100804 272.993667 
L 236.53367 273.857009 
L 236.750113 272.981792 
L 237.399422 273.874924 
L 237.615845 273.108034 
L 237.832288 274.074945 
L 238.265154 272.632648 
L 238.481597 272.865188 
L 238.69804 274.02392 
L 238.914463 274.032089 
L 239.130906 274.32348 
L 239.563772 272.185264 
L 239.780215 273.468651 
L 239.996658 274.078711 
L 240.213081 273.119375 
L 240.429524 272.777708 
L 240.645967 274.319283 
L 241.078833 272.270995 
L 241.295276 273.935687 
L 241.511699 272.930891 
L 241.728142 274.353066 
L 241.944566 273.56043 
L 243.892493 273.584531 
L 244.974668 273.598241 
L 270.730609 273.720503 
L 271.596341 273.702345 
L 273.111402 273.718501 
L 278.738741 273.711859 
L 281.335977 273.693777 
L 282.851058 273.712666 
L 286.746913 273.696649 
L 289.127686 273.697052 
L 293.67285 273.699551 
L 296.270086 273.713597 
L 297.135858 273.682074 
L 298.00159 273.722226 
L 299.083785 273.683921 
L 301.681022 273.708025 
L 303.412486 273.708475 
L 307.091918 273.6973 
L 308.606959 273.721512 
L 311.853504 273.751463 
L 312.719276 273.789029 
L 314.450741 273.921234 
L 315.965822 274.070203 
L 318.130172 274.338807 
L 318.995904 274.225343 
L 320.294523 273.989008 
L 324.40684 273.747367 
L 325.056149 273.753543 
L 327.220499 273.811324 
L 328.086232 273.795809 
L 331.332777 273.815901 
L 335.445094 273.84232 
L 336.310827 273.837945 
L 343.236804 273.753931 
L 344.318959 273.73042 
L 346.483349 273.700281 
L 356.439409 273.716142 
L 356.872294 273.590819 
L 357.95445 273.61633 
L 361.850304 273.614699 
L 362.932499 273.601098 
L 363.581809 273.598645 
L 373.105022 273.576844 
L 376.56799 273.588645 
L 378.083032 273.608458 
L 381.762463 273.604172 
L 384.143276 273.641853 
L 384.792585 273.628983 
L 394.532222 273.559048 
L 398.428076 273.344947 
L 398.860923 273.341155 
L 399.293809 273.277625 
L 400.159541 273.190472 
L 404.488281 273.020995 
L 404.488281 273.020995 
" clip-path="url(#pe4c05d2bfc)" style="fill: none; stroke: #4c1d4b; stroke-linecap: round"/>
   </g>
   <g id="line2d_35"/>
   <g id="line2d_36"/>
   <g id="line2d_37"/>
   <g id="line2d_38"/>
   <g id="patch_3">
    <path d="M 47.368281 277.248797 
L 47.368281 11.136797 
" style="fill: none; stroke: #262626; stroke-width: 1.25; stroke-linejoin: miter; stroke-linecap: square"/>
   </g>
   <g id="patch_4">
    <path d="M 47.368281 277.248797 
L 404.488281 277.248797 
" style="fill: none; stroke: #262626; stroke-width: 1.25; stroke-linejoin: miter; stroke-linecap: square"/>
   </g>
   <g id="legend_1">
    <g id="line2d_39">
     <path d="M 223.462844 45.415809 
L 229.462844 45.415809 
L 235.462844 45.415809 
" style="fill: none; stroke: #f69c73; stroke-width: 1.5; stroke-linecap: round"/>
    </g>
    <g id="text_19">
     <!-- imine polymer 0.0% TFA time = 1 min_Abs -->
     <g style="fill: #262626" transform="translate(240.262844 47.515809) scale(0.06 -0.06)">
      <defs>
       <path id="ArialMT-69" d="M 425 3934 
L 425 4581 
L 988 4581 
L 988 3934 
L 425 3934 
z
M 425 0 
L 425 3319 
L 988 3319 
L 988 0 
L 425 0 
z
" transform="scale(0.015625)"/>
       <path id="ArialMT-70" d="M 422 -1272 
L 422 3319 
L 934 3319 
L 934 2888 
Q 1116 3141 1344 3267 
Q 1572 3394 1897 3394 
Q 2322 3394 2647 3175 
Q 2972 2956 3137 2557 
Q 3303 2159 3303 1684 
Q 3303 1175 3120 767 
Q 2938 359 2589 142 
Q 2241 -75 1856 -75 
Q 1575 -75 1351 44 
Q 1128 163 984 344 
L 984 -1272 
L 422 -1272 
z
M 931 1641 
Q 931 1000 1190 694 
Q 1450 388 1819 388 
Q 2194 388 2461 705 
Q 2728 1022 2728 1688 
Q 2728 2322 2467 2637 
Q 2206 2953 1844 2953 
Q 1484 2953 1207 2617 
Q 931 2281 931 1641 
z
" transform="scale(0.015625)"/>
       <path id="ArialMT-79" d="M 397 -1278 
L 334 -750 
Q 519 -800 656 -800 
Q 844 -800 956 -737 
Q 1069 -675 1141 -563 
Q 1194 -478 1313 -144 
Q 1328 -97 1363 -6 
L 103 3319 
L 709 3319 
L 1400 1397 
Q 1534 1031 1641 628 
Q 1738 1016 1872 1384 
L 2581 3319 
L 3144 3319 
L 1881 -56 
Q 1678 -603 1566 -809 
Q 1416 -1088 1222 -1217 
Q 1028 -1347 759 -1347 
Q 597 -1347 397 -1278 
z
" transform="scale(0.015625)"/>
       <path id="ArialMT-25" d="M 372 3481 
Q 372 3972 619 4315 
Q 866 4659 1334 4659 
Q 1766 4659 2048 4351 
Q 2331 4044 2331 3447 
Q 2331 2866 2045 2552 
Q 1759 2238 1341 2238 
Q 925 2238 648 2547 
Q 372 2856 372 3481 
z
M 1350 4272 
Q 1141 4272 1002 4090 
Q 863 3909 863 3425 
Q 863 2984 1003 2804 
Q 1144 2625 1350 2625 
Q 1563 2625 1702 2806 
Q 1841 2988 1841 3469 
Q 1841 3913 1700 4092 
Q 1559 4272 1350 4272 
z
M 1353 -169 
L 3859 4659 
L 4316 4659 
L 1819 -169 
L 1353 -169 
z
M 3334 1075 
Q 3334 1569 3581 1911 
Q 3828 2253 4300 2253 
Q 4731 2253 5014 1945 
Q 5297 1638 5297 1041 
Q 5297 459 5011 145 
Q 4725 -169 4303 -169 
Q 3888 -169 3611 142 
Q 3334 453 3334 1075 
z
M 4316 1866 
Q 4103 1866 3964 1684 
Q 3825 1503 3825 1019 
Q 3825 581 3965 400 
Q 4106 219 4313 219 
Q 4528 219 4667 400 
Q 4806 581 4806 1063 
Q 4806 1506 4665 1686 
Q 4525 1866 4316 1866 
z
" transform="scale(0.015625)"/>
       <path id="ArialMT-54" d="M 1659 0 
L 1659 4041 
L 150 4041 
L 150 4581 
L 3781 4581 
L 3781 4041 
L 2266 4041 
L 2266 0 
L 1659 0 
z
" transform="scale(0.015625)"/>
       <path id="ArialMT-46" d="M 525 0 
L 525 4581 
L 3616 4581 
L 3616 4041 
L 1131 4041 
L 1131 2622 
L 3281 2622 
L 3281 2081 
L 1131 2081 
L 1131 0 
L 525 0 
z
" transform="scale(0.015625)"/>
       <path id="ArialMT-3d" d="M 3381 2694 
L 356 2694 
L 356 3219 
L 3381 3219 
L 3381 2694 
z
M 3381 1303 
L 356 1303 
L 356 1828 
L 3381 1828 
L 3381 1303 
z
" transform="scale(0.015625)"/>
       <path id="ArialMT-5f" d="M -97 -1272 
L -97 -866 
L 3631 -866 
L 3631 -1272 
L -97 -1272 
z
" transform="scale(0.015625)"/>
      </defs>
      <use xlink:href="#ArialMT-69"/>
      <use xlink:href="#ArialMT-6d" x="22.216797"/>
      <use xlink:href="#ArialMT-69" x="105.517578"/>
      <use xlink:href="#ArialMT-6e" x="127.734375"/>
      <use xlink:href="#ArialMT-65" x="183.349609"/>
      <use xlink:href="#ArialMT-20" x="238.964844"/>
      <use xlink:href="#ArialMT-70" x="266.748047"/>
      <use xlink:href="#ArialMT-6f" x="322.363281"/>
      <use xlink:href="#ArialMT-6c" x="377.978516"/>
      <use xlink:href="#ArialMT-79" x="400.195312"/>
      <use xlink:href="#ArialMT-6d" x="450.195312"/>
      <use xlink:href="#ArialMT-65" x="533.496094"/>
      <use xlink:href="#ArialMT-72" x="589.111328"/>
      <use xlink:href="#ArialMT-20" x="622.412109"/>
      <use xlink:href="#ArialMT-30" x="650.195312"/>
      <use xlink:href="#ArialMT-2e" x="705.810547"/>
      <use xlink:href="#ArialMT-30" x="733.59375"/>
      <use xlink:href="#ArialMT-25" x="789.208984"/>
      <use xlink:href="#ArialMT-20" x="878.125"/>
      <use xlink:href="#ArialMT-54" x="904.158203"/>
      <use xlink:href="#ArialMT-46" x="965.242188"/>
      <use xlink:href="#ArialMT-41" x="1020.826172"/>
      <use xlink:href="#ArialMT-20" x="1082.025391"/>
      <use xlink:href="#ArialMT-74" x="1109.808594"/>
      <use xlink:href="#ArialMT-69" x="1137.591797"/>
      <use xlink:href="#ArialMT-6d" x="1159.808594"/>
      <use xlink:href="#ArialMT-65" x="1243.109375"/>
      <use xlink:href="#ArialMT-20" x="1298.724609"/>
      <use xlink:href="#ArialMT-3d" x="1326.507812"/>
      <use xlink:href="#ArialMT-20" x="1384.90625"/>
      <use xlink:href="#ArialMT-31" x="1412.689453"/>
      <use xlink:href="#ArialMT-20" x="1468.304688"/>
      <use xlink:href="#ArialMT-6d" x="1496.087891"/>
      <use xlink:href="#ArialMT-69" x="1579.388672"/>
      <use xlink:href="#ArialMT-6e" x="1601.605469"/>
      <use xlink:href="#ArialMT-5f" x="1657.220703"/>
      <use xlink:href="#ArialMT-41" x="1712.835938"/>
      <use xlink:href="#ArialMT-62" x="1779.535156"/>
      <use xlink:href="#ArialMT-73" x="1835.150391"/>
     </g>
    </g>
    <g id="line2d_40">
     <path d="M 223.462844 54.046434 
L 229.462844 54.046434 
L 235.462844 54.046434 
" style="fill: none; stroke: #e83f3f; stroke-width: 1.5; stroke-linecap: round"/>
    </g>
    <g id="text_20">
     <!-- imine polymer 0.017% TFA time = 1 min_Abs -->
     <g style="fill: #262626" transform="translate(240.262844 56.146434) scale(0.06 -0.06)">
      <defs>
       <path id="ArialMT-37" d="M 303 3981 
L 303 4522 
L 3269 4522 
L 3269 4084 
Q 2831 3619 2401 2847 
Q 1972 2075 1738 1259 
Q 1569 684 1522 0 
L 944 0 
Q 953 541 1156 1306 
Q 1359 2072 1739 2783 
Q 2119 3494 2547 3981 
L 303 3981 
z
" transform="scale(0.015625)"/>
      </defs>
      <use xlink:href="#ArialMT-69"/>
      <use xlink:href="#ArialMT-6d" x="22.216797"/>
      <use xlink:href="#ArialMT-69" x="105.517578"/>
      <use xlink:href="#ArialMT-6e" x="127.734375"/>
      <use xlink:href="#ArialMT-65" x="183.349609"/>
      <use xlink:href="#ArialMT-20" x="238.964844"/>
      <use xlink:href="#ArialMT-70" x="266.748047"/>
      <use xlink:href="#ArialMT-6f" x="322.363281"/>
      <use xlink:href="#ArialMT-6c" x="377.978516"/>
      <use xlink:href="#ArialMT-79" x="400.195312"/>
      <use xlink:href="#ArialMT-6d" x="450.195312"/>
      <use xlink:href="#ArialMT-65" x="533.496094"/>
      <use xlink:href="#ArialMT-72" x="589.111328"/>
      <use xlink:href="#ArialMT-20" x="622.412109"/>
      <use xlink:href="#ArialMT-30" x="650.195312"/>
      <use xlink:href="#ArialMT-2e" x="705.810547"/>
      <use xlink:href="#ArialMT-30" x="733.59375"/>
      <use xlink:href="#ArialMT-31" x="789.208984"/>
      <use xlink:href="#ArialMT-37" x="844.824219"/>
      <use xlink:href="#ArialMT-25" x="900.439453"/>
      <use xlink:href="#ArialMT-20" x="989.355469"/>
      <use xlink:href="#ArialMT-54" x="1015.388672"/>
      <use xlink:href="#ArialMT-46" x="1076.472656"/>
      <use xlink:href="#ArialMT-41" x="1132.056641"/>
      <use xlink:href="#ArialMT-20" x="1193.255859"/>
      <use xlink:href="#ArialMT-74" x="1221.039062"/>
      <use xlink:href="#ArialMT-69" x="1248.822266"/>
      <use xlink:href="#ArialMT-6d" x="1271.039062"/>
      <use xlink:href="#ArialMT-65" x="1354.339844"/>
      <use xlink:href="#ArialMT-20" x="1409.955078"/>
      <use xlink:href="#ArialMT-3d" x="1437.738281"/>
      <use xlink:href="#ArialMT-20" x="1496.136719"/>
      <use xlink:href="#ArialMT-31" x="1523.919922"/>
      <use xlink:href="#ArialMT-20" x="1579.535156"/>
      <use xlink:href="#ArialMT-6d" x="1607.318359"/>
      <use xlink:href="#ArialMT-69" x="1690.619141"/>
      <use xlink:href="#ArialMT-6e" x="1712.835938"/>
      <use xlink:href="#ArialMT-5f" x="1768.451172"/>
      <use xlink:href="#ArialMT-41" x="1824.066406"/>
      <use xlink:href="#ArialMT-62" x="1890.765625"/>
      <use xlink:href="#ArialMT-73" x="1946.380859"/>
     </g>
    </g>
    <g id="line2d_41">
     <path d="M 223.462844 62.677059 
L 229.462844 62.677059 
L 235.462844 62.677059 
" style="fill: none; stroke: #a11a5b; stroke-width: 1.5; stroke-linecap: round"/>
    </g>
    <g id="text_21">
     <!-- imine polymer 0.017% TFA time = 10 min_Abs -->
     <g style="fill: #262626" transform="translate(240.262844 64.777059) scale(0.06 -0.06)">
      <use xlink:href="#ArialMT-69"/>
      <use xlink:href="#ArialMT-6d" x="22.216797"/>
      <use xlink:href="#ArialMT-69" x="105.517578"/>
      <use xlink:href="#ArialMT-6e" x="127.734375"/>
      <use xlink:href="#ArialMT-65" x="183.349609"/>
      <use xlink:href="#ArialMT-20" x="238.964844"/>
      <use xlink:href="#ArialMT-70" x="266.748047"/>
      <use xlink:href="#ArialMT-6f" x="322.363281"/>
      <use xlink:href="#ArialMT-6c" x="377.978516"/>
      <use xlink:href="#ArialMT-79" x="400.195312"/>
      <use xlink:href="#ArialMT-6d" x="450.195312"/>
      <use xlink:href="#ArialMT-65" x="533.496094"/>
      <use xlink:href="#ArialMT-72" x="589.111328"/>
      <use xlink:href="#ArialMT-20" x="622.412109"/>
      <use xlink:href="#ArialMT-30" x="650.195312"/>
      <use xlink:href="#ArialMT-2e" x="705.810547"/>
      <use xlink:href="#ArialMT-30" x="733.59375"/>
      <use xlink:href="#ArialMT-31" x="789.208984"/>
      <use xlink:href="#ArialMT-37" x="844.824219"/>
      <use xlink:href="#ArialMT-25" x="900.439453"/>
      <use xlink:href="#ArialMT-20" x="989.355469"/>
      <use xlink:href="#ArialMT-54" x="1015.388672"/>
      <use xlink:href="#ArialMT-46" x="1076.472656"/>
      <use xlink:href="#ArialMT-41" x="1132.056641"/>
      <use xlink:href="#ArialMT-20" x="1193.255859"/>
      <use xlink:href="#ArialMT-74" x="1221.039062"/>
      <use xlink:href="#ArialMT-69" x="1248.822266"/>
      <use xlink:href="#ArialMT-6d" x="1271.039062"/>
      <use xlink:href="#ArialMT-65" x="1354.339844"/>
      <use xlink:href="#ArialMT-20" x="1409.955078"/>
      <use xlink:href="#ArialMT-3d" x="1437.738281"/>
      <use xlink:href="#ArialMT-20" x="1496.136719"/>
      <use xlink:href="#ArialMT-31" x="1523.919922"/>
      <use xlink:href="#ArialMT-30" x="1579.535156"/>
      <use xlink:href="#ArialMT-20" x="1635.150391"/>
      <use xlink:href="#ArialMT-6d" x="1662.933594"/>
      <use xlink:href="#ArialMT-69" x="1746.234375"/>
      <use xlink:href="#ArialMT-6e" x="1768.451172"/>
      <use xlink:href="#ArialMT-5f" x="1824.066406"/>
      <use xlink:href="#ArialMT-41" x="1879.681641"/>
      <use xlink:href="#ArialMT-62" x="1946.380859"/>
      <use xlink:href="#ArialMT-73" x="2001.996094"/>
     </g>
    </g>
    <g id="line2d_42">
     <path d="M 223.462844 71.307684 
L 229.462844 71.307684 
L 235.462844 71.307684 
" style="fill: none; stroke: #4c1d4b; stroke-width: 1.5; stroke-linecap: round"/>
    </g>
    <g id="text_22">
     <!-- imine polymer 0.017% TFA time = 20 min_Abs -->
     <g style="fill: #262626" transform="translate(240.262844 73.407684) scale(0.06 -0.06)">
      <use xlink:href="#ArialMT-69"/>
      <use xlink:href="#ArialMT-6d" x="22.216797"/>
      <use xlink:href="#ArialMT-69" x="105.517578"/>
      <use xlink:href="#ArialMT-6e" x="127.734375"/>
      <use xlink:href="#ArialMT-65" x="183.349609"/>
      <use xlink:href="#ArialMT-20" x="238.964844"/>
      <use xlink:href="#ArialMT-70" x="266.748047"/>
      <use xlink:href="#ArialMT-6f" x="322.363281"/>
      <use xlink:href="#ArialMT-6c" x="377.978516"/>
      <use xlink:href="#ArialMT-79" x="400.195312"/>
      <use xlink:href="#ArialMT-6d" x="450.195312"/>
      <use xlink:href="#ArialMT-65" x="533.496094"/>
      <use xlink:href="#ArialMT-72" x="589.111328"/>
      <use xlink:href="#ArialMT-20" x="622.412109"/>
      <use xlink:href="#ArialMT-30" x="650.195312"/>
      <use xlink:href="#ArialMT-2e" x="705.810547"/>
      <use xlink:href="#ArialMT-30" x="733.59375"/>
      <use xlink:href="#ArialMT-31" x="789.208984"/>
      <use xlink:href="#ArialMT-37" x="844.824219"/>
      <use xlink:href="#ArialMT-25" x="900.439453"/>
      <use xlink:href="#ArialMT-20" x="989.355469"/>
      <use xlink:href="#ArialMT-54" x="1015.388672"/>
      <use xlink:href="#ArialMT-46" x="1076.472656"/>
      <use xlink:href="#ArialMT-41" x="1132.056641"/>
      <use xlink:href="#ArialMT-20" x="1193.255859"/>
      <use xlink:href="#ArialMT-74" x="1221.039062"/>
      <use xlink:href="#ArialMT-69" x="1248.822266"/>
      <use xlink:href="#ArialMT-6d" x="1271.039062"/>
      <use xlink:href="#ArialMT-65" x="1354.339844"/>
      <use xlink:href="#ArialMT-20" x="1409.955078"/>
      <use xlink:href="#ArialMT-3d" x="1437.738281"/>
      <use xlink:href="#ArialMT-20" x="1496.136719"/>
      <use xlink:href="#ArialMT-32" x="1523.919922"/>
      <use xlink:href="#ArialMT-30" x="1579.535156"/>
      <use xlink:href="#ArialMT-20" x="1635.150391"/>
      <use xlink:href="#ArialMT-6d" x="1662.933594"/>
      <use xlink:href="#ArialMT-69" x="1746.234375"/>
      <use xlink:href="#ArialMT-6e" x="1768.451172"/>
      <use xlink:href="#ArialMT-5f" x="1824.066406"/>
      <use xlink:href="#ArialMT-41" x="1879.681641"/>
      <use xlink:href="#ArialMT-62" x="1946.380859"/>
      <use xlink:href="#ArialMT-73" x="2001.996094"/>
     </g>
    </g>
   </g>
  </g>
 </g>
 <defs>
  <clipPath id="pe4c05d2bfc">
   <rect x="47.368281" y="11.136797" width="357.12" height="266.112"/>
  </clipPath>
 </defs>
</svg>
