<?xml version="1.0" encoding="utf-8" standalone="no"?>
<!DOCTYPE svg PUBLIC "-//W3C//DTD SVG 1.1//EN"
  "http://www.w3.org/Graphics/SVG/1.1/DTD/svg11.dtd">
<svg xmlns:xlink="http://www.w3.org/1999/xlink" width="417.805313pt" height="313.269891pt" viewBox="0 0 417.805313 313.269891" xmlns="http://www.w3.org/2000/svg" version="1.1">
 <metadata>
  <rdf:RDF xmlns:dc="http://purl.org/dc/elements/1.1/" xmlns:cc="http://creativecommons.org/ns#" xmlns:rdf="http://www.w3.org/1999/02/22-rdf-syntax-ns#">
   <cc:Work>
    <dc:type rdf:resource="http://purl.org/dc/dcmitype/StillImage"/>
    <dc:date>2024-04-24T11:07:38.143693</dc:date>
    <dc:format>image/svg+xml</dc:format>
    <dc:creator>
     <cc:Agent>
      <dc:title>Matplotlib v3.7.1, https://matplotlib.org/</dc:title>
     </cc:Agent>
    </dc:creator>
   </cc:Work>
  </rdf:RDF>
 </metadata>
 <defs>
  <style type="text/css">*{stroke-linejoin: round; stroke-linecap: butt}</style>
 </defs>
 <g id="figure_1">
  <g id="patch_1">
   <path d="M 0 313.269891 
L 417.805313 313.269891 
L 417.805313 0 
L 0 0 
z
" style="fill: #ffffff"/>
  </g>
  <g id="axes_1">
   <g id="patch_2">
    <path d="M 41.25125 277.248797 
L 398.37125 277.248797 
L 398.37125 11.136797 
L 41.25125 11.136797 
z
" style="fill: #ffffff"/>
   </g>
   <g id="matplotlib.axis_1">
    <g id="xtick_1">
     <g id="line2d_1">
      <defs>
       <path id="md2997b748c" d="M 0 0 
L 0 -6 
" style="stroke: #262626; stroke-width: 1.25"/>
      </defs>
      <g>
       <use xlink:href="#md2997b748c" x="73.716705" y="277.248797" style="fill: #262626; stroke: #262626; stroke-width: 1.25"/>
      </g>
     </g>
     <g id="text_1">
      <!-- 400 -->
      <g style="fill: #262626" transform="translate(64.541158 288.622391) scale(0.11 -0.11)">
       <defs>
        <path id="ArialMT-34" d="M 2069 0 
L 2069 1097 
L 81 1097 
L 81 1613 
L 2172 4581 
L 2631 4581 
L 2631 1613 
L 3250 1613 
L 3250 1097 
L 2631 1097 
L 2631 0 
L 2069 0 
z
M 2069 1613 
L 2069 3678 
L 634 1613 
L 2069 1613 
z
" transform="scale(0.015625)"/>
        <path id="ArialMT-30" d="M 266 2259 
Q 266 3072 433 3567 
Q 600 4063 929 4331 
Q 1259 4600 1759 4600 
Q 2128 4600 2406 4451 
Q 2684 4303 2865 4023 
Q 3047 3744 3150 3342 
Q 3253 2941 3253 2259 
Q 3253 1453 3087 958 
Q 2922 463 2592 192 
Q 2263 -78 1759 -78 
Q 1097 -78 719 397 
Q 266 969 266 2259 
z
M 844 2259 
Q 844 1131 1108 757 
Q 1372 384 1759 384 
Q 2147 384 2411 759 
Q 2675 1134 2675 2259 
Q 2675 3391 2411 3762 
Q 2147 4134 1753 4134 
Q 1366 4134 1134 3806 
Q 844 3388 844 2259 
z
" transform="scale(0.015625)"/>
       </defs>
       <use xlink:href="#ArialMT-34"/>
       <use xlink:href="#ArialMT-30" x="55.615234"/>
       <use xlink:href="#ArialMT-30" x="111.230469"/>
      </g>
     </g>
    </g>
    <g id="xtick_2">
     <g id="line2d_2">
      <g>
       <use xlink:href="#md2997b748c" x="138.647614" y="277.248797" style="fill: #262626; stroke: #262626; stroke-width: 1.25"/>
      </g>
     </g>
     <g id="text_2">
      <!-- 600 -->
      <g style="fill: #262626" transform="translate(129.472067 288.622391) scale(0.11 -0.11)">
       <defs>
        <path id="ArialMT-36" d="M 3184 3459 
L 2625 3416 
Q 2550 3747 2413 3897 
Q 2184 4138 1850 4138 
Q 1581 4138 1378 3988 
Q 1113 3794 959 3422 
Q 806 3050 800 2363 
Q 1003 2672 1297 2822 
Q 1591 2972 1913 2972 
Q 2475 2972 2870 2558 
Q 3266 2144 3266 1488 
Q 3266 1056 3080 686 
Q 2894 316 2569 119 
Q 2244 -78 1831 -78 
Q 1128 -78 684 439 
Q 241 956 241 2144 
Q 241 3472 731 4075 
Q 1159 4600 1884 4600 
Q 2425 4600 2770 4297 
Q 3116 3994 3184 3459 
z
M 888 1484 
Q 888 1194 1011 928 
Q 1134 663 1356 523 
Q 1578 384 1822 384 
Q 2178 384 2434 671 
Q 2691 959 2691 1453 
Q 2691 1928 2437 2201 
Q 2184 2475 1800 2475 
Q 1419 2475 1153 2201 
Q 888 1928 888 1484 
z
" transform="scale(0.015625)"/>
       </defs>
       <use xlink:href="#ArialMT-36"/>
       <use xlink:href="#ArialMT-30" x="55.615234"/>
       <use xlink:href="#ArialMT-30" x="111.230469"/>
      </g>
     </g>
    </g>
    <g id="xtick_3">
     <g id="line2d_3">
      <g>
       <use xlink:href="#md2997b748c" x="203.578523" y="277.248797" style="fill: #262626; stroke: #262626; stroke-width: 1.25"/>
      </g>
     </g>
     <g id="text_3">
      <!-- 800 -->
      <g style="fill: #262626" transform="translate(194.402976 288.622391) scale(0.11 -0.11)">
       <defs>
        <path id="ArialMT-38" d="M 1131 2484 
Q 781 2613 612 2850 
Q 444 3088 444 3419 
Q 444 3919 803 4259 
Q 1163 4600 1759 4600 
Q 2359 4600 2725 4251 
Q 3091 3903 3091 3403 
Q 3091 3084 2923 2848 
Q 2756 2613 2416 2484 
Q 2838 2347 3058 2040 
Q 3278 1734 3278 1309 
Q 3278 722 2862 322 
Q 2447 -78 1769 -78 
Q 1091 -78 675 323 
Q 259 725 259 1325 
Q 259 1772 486 2073 
Q 713 2375 1131 2484 
z
M 1019 3438 
Q 1019 3113 1228 2906 
Q 1438 2700 1772 2700 
Q 2097 2700 2305 2904 
Q 2513 3109 2513 3406 
Q 2513 3716 2298 3927 
Q 2084 4138 1766 4138 
Q 1444 4138 1231 3931 
Q 1019 3725 1019 3438 
z
M 838 1322 
Q 838 1081 952 856 
Q 1066 631 1291 507 
Q 1516 384 1775 384 
Q 2178 384 2440 643 
Q 2703 903 2703 1303 
Q 2703 1709 2433 1975 
Q 2163 2241 1756 2241 
Q 1359 2241 1098 1978 
Q 838 1716 838 1322 
z
" transform="scale(0.015625)"/>
       </defs>
       <use xlink:href="#ArialMT-38"/>
       <use xlink:href="#ArialMT-30" x="55.615234"/>
       <use xlink:href="#ArialMT-30" x="111.230469"/>
      </g>
     </g>
    </g>
    <g id="xtick_4">
     <g id="line2d_4">
      <g>
       <use xlink:href="#md2997b748c" x="268.509432" y="277.248797" style="fill: #262626; stroke: #262626; stroke-width: 1.25"/>
      </g>
     </g>
     <g id="text_4">
      <!-- 1000 -->
      <g style="fill: #262626" transform="translate(256.275369 288.622391) scale(0.11 -0.11)">
       <defs>
        <path id="ArialMT-31" d="M 2384 0 
L 1822 0 
L 1822 3584 
Q 1619 3391 1289 3197 
Q 959 3003 697 2906 
L 697 3450 
Q 1169 3672 1522 3987 
Q 1875 4303 2022 4600 
L 2384 4600 
L 2384 0 
z
" transform="scale(0.015625)"/>
       </defs>
       <use xlink:href="#ArialMT-31"/>
       <use xlink:href="#ArialMT-30" x="55.615234"/>
       <use xlink:href="#ArialMT-30" x="111.230469"/>
       <use xlink:href="#ArialMT-30" x="166.845703"/>
      </g>
     </g>
    </g>
    <g id="xtick_5">
     <g id="line2d_5">
      <g>
       <use xlink:href="#md2997b748c" x="333.440341" y="277.248797" style="fill: #262626; stroke: #262626; stroke-width: 1.25"/>
      </g>
     </g>
     <g id="text_5">
      <!-- 1200 -->
      <g style="fill: #262626" transform="translate(321.206278 288.622391) scale(0.11 -0.11)">
       <defs>
        <path id="ArialMT-32" d="M 3222 541 
L 3222 0 
L 194 0 
Q 188 203 259 391 
Q 375 700 629 1000 
Q 884 1300 1366 1694 
Q 2113 2306 2375 2664 
Q 2638 3022 2638 3341 
Q 2638 3675 2398 3904 
Q 2159 4134 1775 4134 
Q 1369 4134 1125 3890 
Q 881 3647 878 3216 
L 300 3275 
Q 359 3922 746 4261 
Q 1134 4600 1788 4600 
Q 2447 4600 2831 4234 
Q 3216 3869 3216 3328 
Q 3216 3053 3103 2787 
Q 2991 2522 2730 2228 
Q 2469 1934 1863 1422 
Q 1356 997 1212 845 
Q 1069 694 975 541 
L 3222 541 
z
" transform="scale(0.015625)"/>
       </defs>
       <use xlink:href="#ArialMT-31"/>
       <use xlink:href="#ArialMT-32" x="55.615234"/>
       <use xlink:href="#ArialMT-30" x="111.230469"/>
       <use xlink:href="#ArialMT-30" x="166.845703"/>
      </g>
     </g>
    </g>
    <g id="xtick_6">
     <g id="line2d_6">
      <g>
       <use xlink:href="#md2997b748c" x="398.37125" y="277.248797" style="fill: #262626; stroke: #262626; stroke-width: 1.25"/>
      </g>
     </g>
     <g id="text_6">
      <!-- 1400 -->
      <g style="fill: #262626" transform="translate(386.137188 288.622391) scale(0.11 -0.11)">
       <use xlink:href="#ArialMT-31"/>
       <use xlink:href="#ArialMT-34" x="55.615234"/>
       <use xlink:href="#ArialMT-30" x="111.230469"/>
       <use xlink:href="#ArialMT-30" x="166.845703"/>
      </g>
     </g>
    </g>
    <g id="xtick_7">
     <g id="line2d_7">
      <defs>
       <path id="m5d033113a7" d="M 0 0 
L 0 -4 
" style="stroke: #262626"/>
      </defs>
      <g>
       <use xlink:href="#m5d033113a7" x="106.182159" y="277.248797" style="fill: #262626; stroke: #262626"/>
      </g>
     </g>
    </g>
    <g id="xtick_8">
     <g id="line2d_8">
      <g>
       <use xlink:href="#m5d033113a7" x="171.113068" y="277.248797" style="fill: #262626; stroke: #262626"/>
      </g>
     </g>
    </g>
    <g id="xtick_9">
     <g id="line2d_9">
      <g>
       <use xlink:href="#m5d033113a7" x="236.043977" y="277.248797" style="fill: #262626; stroke: #262626"/>
      </g>
     </g>
    </g>
    <g id="xtick_10">
     <g id="line2d_10">
      <g>
       <use xlink:href="#m5d033113a7" x="300.974886" y="277.248797" style="fill: #262626; stroke: #262626"/>
      </g>
     </g>
    </g>
    <g id="xtick_11">
     <g id="line2d_11">
      <g>
       <use xlink:href="#m5d033113a7" x="365.905795" y="277.248797" style="fill: #262626; stroke: #262626"/>
      </g>
     </g>
    </g>
    <g id="text_7">
     <!-- Wavelength (nm) -->
     <g style="fill: #262626" transform="translate(174.356562 303.544266) scale(0.12 -0.12)">
      <defs>
       <path id="ArialMT-57" d="M 1294 0 
L 78 4581 
L 700 4581 
L 1397 1578 
Q 1509 1106 1591 641 
Q 1766 1375 1797 1488 
L 2669 4581 
L 3400 4581 
L 4056 2263 
Q 4303 1400 4413 641 
Q 4500 1075 4641 1638 
L 5359 4581 
L 5969 4581 
L 4713 0 
L 4128 0 
L 3163 3491 
Q 3041 3928 3019 4028 
Q 2947 3713 2884 3491 
L 1913 0 
L 1294 0 
z
" transform="scale(0.015625)"/>
       <path id="ArialMT-61" d="M 2588 409 
Q 2275 144 1986 34 
Q 1697 -75 1366 -75 
Q 819 -75 525 192 
Q 231 459 231 875 
Q 231 1119 342 1320 
Q 453 1522 633 1644 
Q 813 1766 1038 1828 
Q 1203 1872 1538 1913 
Q 2219 1994 2541 2106 
Q 2544 2222 2544 2253 
Q 2544 2597 2384 2738 
Q 2169 2928 1744 2928 
Q 1347 2928 1158 2789 
Q 969 2650 878 2297 
L 328 2372 
Q 403 2725 575 2942 
Q 747 3159 1072 3276 
Q 1397 3394 1825 3394 
Q 2250 3394 2515 3294 
Q 2781 3194 2906 3042 
Q 3031 2891 3081 2659 
Q 3109 2516 3109 2141 
L 3109 1391 
Q 3109 606 3145 398 
Q 3181 191 3288 0 
L 2700 0 
Q 2613 175 2588 409 
z
M 2541 1666 
Q 2234 1541 1622 1453 
Q 1275 1403 1131 1340 
Q 988 1278 909 1158 
Q 831 1038 831 891 
Q 831 666 1001 516 
Q 1172 366 1500 366 
Q 1825 366 2078 508 
Q 2331 650 2450 897 
Q 2541 1088 2541 1459 
L 2541 1666 
z
" transform="scale(0.015625)"/>
       <path id="ArialMT-76" d="M 1344 0 
L 81 3319 
L 675 3319 
L 1388 1331 
Q 1503 1009 1600 663 
Q 1675 925 1809 1294 
L 2547 3319 
L 3125 3319 
L 1869 0 
L 1344 0 
z
" transform="scale(0.015625)"/>
       <path id="ArialMT-65" d="M 2694 1069 
L 3275 997 
Q 3138 488 2766 206 
Q 2394 -75 1816 -75 
Q 1088 -75 661 373 
Q 234 822 234 1631 
Q 234 2469 665 2931 
Q 1097 3394 1784 3394 
Q 2450 3394 2872 2941 
Q 3294 2488 3294 1666 
Q 3294 1616 3291 1516 
L 816 1516 
Q 847 969 1125 678 
Q 1403 388 1819 388 
Q 2128 388 2347 550 
Q 2566 713 2694 1069 
z
M 847 1978 
L 2700 1978 
Q 2663 2397 2488 2606 
Q 2219 2931 1791 2931 
Q 1403 2931 1139 2672 
Q 875 2413 847 1978 
z
" transform="scale(0.015625)"/>
       <path id="ArialMT-6c" d="M 409 0 
L 409 4581 
L 972 4581 
L 972 0 
L 409 0 
z
" transform="scale(0.015625)"/>
       <path id="ArialMT-6e" d="M 422 0 
L 422 3319 
L 928 3319 
L 928 2847 
Q 1294 3394 1984 3394 
Q 2284 3394 2536 3286 
Q 2788 3178 2913 3003 
Q 3038 2828 3088 2588 
Q 3119 2431 3119 2041 
L 3119 0 
L 2556 0 
L 2556 2019 
Q 2556 2363 2490 2533 
Q 2425 2703 2258 2804 
Q 2091 2906 1866 2906 
Q 1506 2906 1245 2678 
Q 984 2450 984 1813 
L 984 0 
L 422 0 
z
" transform="scale(0.015625)"/>
       <path id="ArialMT-67" d="M 319 -275 
L 866 -356 
Q 900 -609 1056 -725 
Q 1266 -881 1628 -881 
Q 2019 -881 2231 -725 
Q 2444 -569 2519 -288 
Q 2563 -116 2559 434 
Q 2191 0 1641 0 
Q 956 0 581 494 
Q 206 988 206 1678 
Q 206 2153 378 2554 
Q 550 2956 876 3175 
Q 1203 3394 1644 3394 
Q 2231 3394 2613 2919 
L 2613 3319 
L 3131 3319 
L 3131 450 
Q 3131 -325 2973 -648 
Q 2816 -972 2473 -1159 
Q 2131 -1347 1631 -1347 
Q 1038 -1347 672 -1080 
Q 306 -813 319 -275 
z
M 784 1719 
Q 784 1066 1043 766 
Q 1303 466 1694 466 
Q 2081 466 2343 764 
Q 2606 1063 2606 1700 
Q 2606 2309 2336 2618 
Q 2066 2928 1684 2928 
Q 1309 2928 1046 2623 
Q 784 2319 784 1719 
z
" transform="scale(0.015625)"/>
       <path id="ArialMT-74" d="M 1650 503 
L 1731 6 
Q 1494 -44 1306 -44 
Q 1000 -44 831 53 
Q 663 150 594 308 
Q 525 466 525 972 
L 525 2881 
L 113 2881 
L 113 3319 
L 525 3319 
L 525 4141 
L 1084 4478 
L 1084 3319 
L 1650 3319 
L 1650 2881 
L 1084 2881 
L 1084 941 
Q 1084 700 1114 631 
Q 1144 563 1211 522 
Q 1278 481 1403 481 
Q 1497 481 1650 503 
z
" transform="scale(0.015625)"/>
       <path id="ArialMT-68" d="M 422 0 
L 422 4581 
L 984 4581 
L 984 2938 
Q 1378 3394 1978 3394 
Q 2347 3394 2619 3248 
Q 2891 3103 3008 2847 
Q 3125 2591 3125 2103 
L 3125 0 
L 2563 0 
L 2563 2103 
Q 2563 2525 2380 2717 
Q 2197 2909 1863 2909 
Q 1613 2909 1392 2779 
Q 1172 2650 1078 2428 
Q 984 2206 984 1816 
L 984 0 
L 422 0 
z
" transform="scale(0.015625)"/>
       <path id="ArialMT-20" transform="scale(0.015625)"/>
       <path id="ArialMT-28" d="M 1497 -1347 
Q 1031 -759 709 28 
Q 388 816 388 1659 
Q 388 2403 628 3084 
Q 909 3875 1497 4659 
L 1900 4659 
Q 1522 4009 1400 3731 
Q 1209 3300 1100 2831 
Q 966 2247 966 1656 
Q 966 153 1900 -1347 
L 1497 -1347 
z
" transform="scale(0.015625)"/>
       <path id="ArialMT-6d" d="M 422 0 
L 422 3319 
L 925 3319 
L 925 2853 
Q 1081 3097 1340 3245 
Q 1600 3394 1931 3394 
Q 2300 3394 2536 3241 
Q 2772 3088 2869 2813 
Q 3263 3394 3894 3394 
Q 4388 3394 4653 3120 
Q 4919 2847 4919 2278 
L 4919 0 
L 4359 0 
L 4359 2091 
Q 4359 2428 4304 2576 
Q 4250 2725 4106 2815 
Q 3963 2906 3769 2906 
Q 3419 2906 3187 2673 
Q 2956 2441 2956 1928 
L 2956 0 
L 2394 0 
L 2394 2156 
Q 2394 2531 2256 2718 
Q 2119 2906 1806 2906 
Q 1569 2906 1367 2781 
Q 1166 2656 1075 2415 
Q 984 2175 984 1722 
L 984 0 
L 422 0 
z
" transform="scale(0.015625)"/>
       <path id="ArialMT-29" d="M 791 -1347 
L 388 -1347 
Q 1322 153 1322 1656 
Q 1322 2244 1188 2822 
Q 1081 3291 891 3722 
Q 769 4003 388 4659 
L 791 4659 
Q 1378 3875 1659 3084 
Q 1900 2403 1900 1659 
Q 1900 816 1576 28 
Q 1253 -759 791 -1347 
z
" transform="scale(0.015625)"/>
      </defs>
      <use xlink:href="#ArialMT-57"/>
      <use xlink:href="#ArialMT-61" x="90.634766"/>
      <use xlink:href="#ArialMT-76" x="146.25"/>
      <use xlink:href="#ArialMT-65" x="196.25"/>
      <use xlink:href="#ArialMT-6c" x="251.865234"/>
      <use xlink:href="#ArialMT-65" x="274.082031"/>
      <use xlink:href="#ArialMT-6e" x="329.697266"/>
      <use xlink:href="#ArialMT-67" x="385.3125"/>
      <use xlink:href="#ArialMT-74" x="440.927734"/>
      <use xlink:href="#ArialMT-68" x="468.710938"/>
      <use xlink:href="#ArialMT-20" x="524.326172"/>
      <use xlink:href="#ArialMT-28" x="552.109375"/>
      <use xlink:href="#ArialMT-6e" x="585.410156"/>
      <use xlink:href="#ArialMT-6d" x="641.025391"/>
      <use xlink:href="#ArialMT-29" x="724.326172"/>
     </g>
    </g>
   </g>
   <g id="matplotlib.axis_2">
    <g id="ytick_1">
     <g id="line2d_12">
      <defs>
       <path id="m21624f4f31" d="M 0 0 
L 6 0 
" style="stroke: #262626; stroke-width: 1.25"/>
      </defs>
      <g>
       <use xlink:href="#m21624f4f31" x="41.25125" y="277.248797" style="fill: #262626; stroke: #262626; stroke-width: 1.25"/>
      </g>
     </g>
     <g id="text_8">
      <!-- 0.0 -->
      <g style="fill: #262626" transform="translate(22.46125 281.185594) scale(0.11 -0.11)">
       <defs>
        <path id="ArialMT-2e" d="M 581 0 
L 581 641 
L 1222 641 
L 1222 0 
L 581 0 
z
" transform="scale(0.015625)"/>
       </defs>
       <use xlink:href="#ArialMT-30"/>
       <use xlink:href="#ArialMT-2e" x="55.615234"/>
       <use xlink:href="#ArialMT-30" x="83.398438"/>
      </g>
     </g>
    </g>
    <g id="ytick_2">
     <g id="line2d_13">
      <g>
       <use xlink:href="#m21624f4f31" x="41.25125" y="224.026397" style="fill: #262626; stroke: #262626; stroke-width: 1.25"/>
      </g>
     </g>
     <g id="text_9">
      <!-- 0.5 -->
      <g style="fill: #262626" transform="translate(22.46125 227.963194) scale(0.11 -0.11)">
       <defs>
        <path id="ArialMT-35" d="M 266 1200 
L 856 1250 
Q 922 819 1161 601 
Q 1400 384 1738 384 
Q 2144 384 2425 690 
Q 2706 997 2706 1503 
Q 2706 1984 2436 2262 
Q 2166 2541 1728 2541 
Q 1456 2541 1237 2417 
Q 1019 2294 894 2097 
L 366 2166 
L 809 4519 
L 3088 4519 
L 3088 3981 
L 1259 3981 
L 1013 2750 
Q 1425 3038 1878 3038 
Q 2478 3038 2890 2622 
Q 3303 2206 3303 1553 
Q 3303 931 2941 478 
Q 2500 -78 1738 -78 
Q 1113 -78 717 272 
Q 322 622 266 1200 
z
" transform="scale(0.015625)"/>
       </defs>
       <use xlink:href="#ArialMT-30"/>
       <use xlink:href="#ArialMT-2e" x="55.615234"/>
       <use xlink:href="#ArialMT-35" x="83.398438"/>
      </g>
     </g>
    </g>
    <g id="ytick_3">
     <g id="line2d_14">
      <g>
       <use xlink:href="#m21624f4f31" x="41.25125" y="170.803997" style="fill: #262626; stroke: #262626; stroke-width: 1.25"/>
      </g>
     </g>
     <g id="text_10">
      <!-- 1.0 -->
      <g style="fill: #262626" transform="translate(22.46125 174.740794) scale(0.11 -0.11)">
       <use xlink:href="#ArialMT-31"/>
       <use xlink:href="#ArialMT-2e" x="55.615234"/>
       <use xlink:href="#ArialMT-30" x="83.398438"/>
      </g>
     </g>
    </g>
    <g id="ytick_4">
     <g id="line2d_15">
      <g>
       <use xlink:href="#m21624f4f31" x="41.25125" y="117.581597" style="fill: #262626; stroke: #262626; stroke-width: 1.25"/>
      </g>
     </g>
     <g id="text_11">
      <!-- 1.5 -->
      <g style="fill: #262626" transform="translate(22.46125 121.518394) scale(0.11 -0.11)">
       <use xlink:href="#ArialMT-31"/>
       <use xlink:href="#ArialMT-2e" x="55.615234"/>
       <use xlink:href="#ArialMT-35" x="83.398438"/>
      </g>
     </g>
    </g>
    <g id="ytick_5">
     <g id="line2d_16">
      <g>
       <use xlink:href="#m21624f4f31" x="41.25125" y="64.359197" style="fill: #262626; stroke: #262626; stroke-width: 1.25"/>
      </g>
     </g>
     <g id="text_12">
      <!-- 2.0 -->
      <g style="fill: #262626" transform="translate(22.46125 68.295994) scale(0.11 -0.11)">
       <use xlink:href="#ArialMT-32"/>
       <use xlink:href="#ArialMT-2e" x="55.615234"/>
       <use xlink:href="#ArialMT-30" x="83.398438"/>
      </g>
     </g>
    </g>
    <g id="ytick_6">
     <g id="line2d_17">
      <g>
       <use xlink:href="#m21624f4f31" x="41.25125" y="11.136797" style="fill: #262626; stroke: #262626; stroke-width: 1.25"/>
      </g>
     </g>
     <g id="text_13">
      <!-- 2.5 -->
      <g style="fill: #262626" transform="translate(22.46125 15.073594) scale(0.11 -0.11)">
       <use xlink:href="#ArialMT-32"/>
       <use xlink:href="#ArialMT-2e" x="55.615234"/>
       <use xlink:href="#ArialMT-35" x="83.398438"/>
      </g>
     </g>
    </g>
    <g id="ytick_7">
     <g id="line2d_18">
      <defs>
       <path id="m3d47f50156" d="M 0 0 
L 4 0 
" style="stroke: #262626"/>
      </defs>
      <g>
       <use xlink:href="#m3d47f50156" x="41.25125" y="250.637597" style="fill: #262626; stroke: #262626"/>
      </g>
     </g>
    </g>
    <g id="ytick_8">
     <g id="line2d_19">
      <g>
       <use xlink:href="#m3d47f50156" x="41.25125" y="197.415197" style="fill: #262626; stroke: #262626"/>
      </g>
     </g>
    </g>
    <g id="ytick_9">
     <g id="line2d_20">
      <g>
       <use xlink:href="#m3d47f50156" x="41.25125" y="144.192797" style="fill: #262626; stroke: #262626"/>
      </g>
     </g>
    </g>
    <g id="ytick_10">
     <g id="line2d_21">
      <g>
       <use xlink:href="#m3d47f50156" x="41.25125" y="90.970397" style="fill: #262626; stroke: #262626"/>
      </g>
     </g>
    </g>
    <g id="ytick_11">
     <g id="line2d_22">
      <g>
       <use xlink:href="#m3d47f50156" x="41.25125" y="37.747997" style="fill: #262626; stroke: #262626"/>
      </g>
     </g>
    </g>
    <g id="text_14">
     <!-- Absorbance (a.u.) -->
     <g style="fill: #262626" transform="translate(15.935625 191.881547) rotate(-90) scale(0.12 -0.12)">
      <defs>
       <path id="ArialMT-41" d="M -9 0 
L 1750 4581 
L 2403 4581 
L 4278 0 
L 3588 0 
L 3053 1388 
L 1138 1388 
L 634 0 
L -9 0 
z
M 1313 1881 
L 2866 1881 
L 2388 3150 
Q 2169 3728 2063 4100 
Q 1975 3659 1816 3225 
L 1313 1881 
z
" transform="scale(0.015625)"/>
       <path id="ArialMT-62" d="M 941 0 
L 419 0 
L 419 4581 
L 981 4581 
L 981 2947 
Q 1338 3394 1891 3394 
Q 2197 3394 2470 3270 
Q 2744 3147 2920 2923 
Q 3097 2700 3197 2384 
Q 3297 2069 3297 1709 
Q 3297 856 2875 390 
Q 2453 -75 1863 -75 
Q 1275 -75 941 416 
L 941 0 
z
M 934 1684 
Q 934 1088 1097 822 
Q 1363 388 1816 388 
Q 2184 388 2453 708 
Q 2722 1028 2722 1663 
Q 2722 2313 2464 2622 
Q 2206 2931 1841 2931 
Q 1472 2931 1203 2611 
Q 934 2291 934 1684 
z
" transform="scale(0.015625)"/>
       <path id="ArialMT-73" d="M 197 991 
L 753 1078 
Q 800 744 1014 566 
Q 1228 388 1613 388 
Q 2000 388 2187 545 
Q 2375 703 2375 916 
Q 2375 1106 2209 1216 
Q 2094 1291 1634 1406 
Q 1016 1563 777 1677 
Q 538 1791 414 1992 
Q 291 2194 291 2438 
Q 291 2659 392 2848 
Q 494 3038 669 3163 
Q 800 3259 1026 3326 
Q 1253 3394 1513 3394 
Q 1903 3394 2198 3281 
Q 2494 3169 2634 2976 
Q 2775 2784 2828 2463 
L 2278 2388 
Q 2241 2644 2061 2787 
Q 1881 2931 1553 2931 
Q 1166 2931 1000 2803 
Q 834 2675 834 2503 
Q 834 2394 903 2306 
Q 972 2216 1119 2156 
Q 1203 2125 1616 2013 
Q 2213 1853 2448 1751 
Q 2684 1650 2818 1456 
Q 2953 1263 2953 975 
Q 2953 694 2789 445 
Q 2625 197 2315 61 
Q 2006 -75 1616 -75 
Q 969 -75 630 194 
Q 291 463 197 991 
z
" transform="scale(0.015625)"/>
       <path id="ArialMT-6f" d="M 213 1659 
Q 213 2581 725 3025 
Q 1153 3394 1769 3394 
Q 2453 3394 2887 2945 
Q 3322 2497 3322 1706 
Q 3322 1066 3130 698 
Q 2938 331 2570 128 
Q 2203 -75 1769 -75 
Q 1072 -75 642 372 
Q 213 819 213 1659 
z
M 791 1659 
Q 791 1022 1069 705 
Q 1347 388 1769 388 
Q 2188 388 2466 706 
Q 2744 1025 2744 1678 
Q 2744 2294 2464 2611 
Q 2184 2928 1769 2928 
Q 1347 2928 1069 2612 
Q 791 2297 791 1659 
z
" transform="scale(0.015625)"/>
       <path id="ArialMT-72" d="M 416 0 
L 416 3319 
L 922 3319 
L 922 2816 
Q 1116 3169 1280 3281 
Q 1444 3394 1641 3394 
Q 1925 3394 2219 3213 
L 2025 2691 
Q 1819 2813 1613 2813 
Q 1428 2813 1281 2702 
Q 1134 2591 1072 2394 
Q 978 2094 978 1738 
L 978 0 
L 416 0 
z
" transform="scale(0.015625)"/>
       <path id="ArialMT-63" d="M 2588 1216 
L 3141 1144 
Q 3050 572 2676 248 
Q 2303 -75 1759 -75 
Q 1078 -75 664 370 
Q 250 816 250 1647 
Q 250 2184 428 2587 
Q 606 2991 970 3192 
Q 1334 3394 1763 3394 
Q 2303 3394 2647 3120 
Q 2991 2847 3088 2344 
L 2541 2259 
Q 2463 2594 2264 2762 
Q 2066 2931 1784 2931 
Q 1359 2931 1093 2626 
Q 828 2322 828 1663 
Q 828 994 1084 691 
Q 1341 388 1753 388 
Q 2084 388 2306 591 
Q 2528 794 2588 1216 
z
" transform="scale(0.015625)"/>
       <path id="ArialMT-75" d="M 2597 0 
L 2597 488 
Q 2209 -75 1544 -75 
Q 1250 -75 995 37 
Q 741 150 617 320 
Q 494 491 444 738 
Q 409 903 409 1263 
L 409 3319 
L 972 3319 
L 972 1478 
Q 972 1038 1006 884 
Q 1059 663 1231 536 
Q 1403 409 1656 409 
Q 1909 409 2131 539 
Q 2353 669 2445 892 
Q 2538 1116 2538 1541 
L 2538 3319 
L 3100 3319 
L 3100 0 
L 2597 0 
z
" transform="scale(0.015625)"/>
      </defs>
      <use xlink:href="#ArialMT-41"/>
      <use xlink:href="#ArialMT-62" x="66.699219"/>
      <use xlink:href="#ArialMT-73" x="122.314453"/>
      <use xlink:href="#ArialMT-6f" x="172.314453"/>
      <use xlink:href="#ArialMT-72" x="227.929688"/>
      <use xlink:href="#ArialMT-62" x="261.230469"/>
      <use xlink:href="#ArialMT-61" x="316.845703"/>
      <use xlink:href="#ArialMT-6e" x="372.460938"/>
      <use xlink:href="#ArialMT-63" x="428.076172"/>
      <use xlink:href="#ArialMT-65" x="478.076172"/>
      <use xlink:href="#ArialMT-20" x="533.691406"/>
      <use xlink:href="#ArialMT-28" x="561.474609"/>
      <use xlink:href="#ArialMT-61" x="594.775391"/>
      <use xlink:href="#ArialMT-2e" x="650.390625"/>
      <use xlink:href="#ArialMT-75" x="678.173828"/>
      <use xlink:href="#ArialMT-2e" x="733.789062"/>
      <use xlink:href="#ArialMT-29" x="761.572266"/>
     </g>
    </g>
   </g>
   <g id="PolyCollection_1"/>
   <g id="PolyCollection_2"/>
   <g id="PolyCollection_3"/>
   <g id="PolyCollection_4"/>
   <g id="PolyCollection_5"/>
   <g id="PolyCollection_6"/>
   <g id="line2d_23">
    <path d="M 41.289256 233.5552 
L 42.155434 231.524463 
L 43.021612 228.884873 
L 43.88779 225.633498 
L 44.97052 220.893951 
L 46.269782 214.158018 
L 47.569054 206.311157 
L 49.517953 193.383385 
L 53.632301 166.396705 
L 54.715021 160.54302 
L 55.797741 155.882477 
L 56.880471 152.488621 
L 57.746649 150.72222 
L 58.396276 149.724619 
L 58.82937 149.227393 
L 59.695548 148.815565 
L 60.345184 149.025596 
L 60.778268 149.396375 
L 61.427904 150.350083 
L 62.07754 151.752875 
L 62.727176 153.556532 
L 63.809896 157.218181 
L 66.624972 167.432601 
L 67.49115 169.833209 
L 68.357329 171.55398 
L 69.006965 172.33882 
L 69.440059 172.643374 
L 69.873143 172.769118 
L 70.306237 172.738238 
L 70.955863 172.376919 
L 71.605499 171.647791 
L 72.471677 170.187365 
L 73.554397 167.647315 
L 74.853669 163.719497 
L 75.936389 159.841129 
L 77.452203 153.545467 
L 79.617654 143.071845 
L 82.43273 127.578029 
L 85.031264 112.181894 
L 89.795249 83.545065 
L 91.527605 74.266424 
L 93.043409 67.297459 
L 94.559223 61.651903 
L 95.858495 57.932823 
L 96.724673 56.079513 
L 97.590851 54.682381 
L 98.240488 53.946127 
L 98.890114 53.559614 
L 99.323208 53.447289 
L 99.972844 53.633262 
L 100.62247 54.211357 
L 101.272106 55.222281 
L 102.138284 57.340415 
L 102.78792 59.501285 
L 103.654098 63.192424 
L 104.736818 69.052897 
L 105.819538 76.156291 
L 107.11881 85.920244 
L 109.500803 106.0886 
L 112.532421 133.742167 
L 114.697861 155.710411 
L 116.863321 180.014377 
L 120.328034 219.611732 
L 121.843848 234.559668 
L 123.1431 245.281774 
L 124.22583 252.60664 
L 125.30856 258.47454 
L 126.39127 263.112878 
L 127.474 266.661187 
L 128.340188 268.855988 
L 129.206357 270.620051 
L 130.072545 271.977406 
L 131.155255 273.268048 
L 132.454527 274.365014 
L 133.537257 275.013537 
L 134.836509 275.540066 
L 136.785427 276.058494 
L 139.817036 276.453485 
L 141.765934 276.601534 
L 143.714852 276.670219 
L 146.963022 276.746241 
L 159.5226 276.872946 
L 163.8535 276.882545 
L 186.157588 276.947969 
L 192.220825 276.934968 
L 193.736639 276.931592 
L 195.902079 276.935828 
L 198.06754 276.927907 
L 222.103984 277.056814 
L 222.537068 277.084422 
L 224.052882 277.09988 
L 224.269424 277.04409 
L 224.485966 277.139025 
L 224.702508 277.057033 
L 225.352154 277.117203 
L 227.950679 277.115656 
L 228.383783 277.190458 
L 228.600325 277.076485 
L 228.816867 277.175221 
L 229.033409 277.145242 
L 229.249951 277.234753 
L 229.899597 277.193454 
L 230.116139 277.195115 
L 230.332681 277.319766 
L 230.549223 277.148636 
L 230.765765 277.311721 
L 231.415391 277.114178 
L 231.848495 277.241982 
L 232.065037 277.028398 
L 232.281579 277.206788 
L 232.714663 277.159959 
L 232.931205 277.050937 
L 233.147747 277.227592 
L 234.013935 277.079782 
L 234.230477 277.291547 
L 235.096665 277.420071 
L 235.529749 276.9087 
L 235.746291 277.423749 
L 235.962814 277.090547 
L 340.337308 277.239645 
L 350.947987 277.275715 
L 365.456463 277.289978 
L 375.417516 277.29272 
L 382.130398 277.292907 
L 398.37125 277.167796 
L 398.37125 277.167796 
" clip-path="url(#p51a1991396)" style="fill: none; stroke: #f6b48f; stroke-linecap: round"/>
   </g>
   <g id="line2d_24">
    <path d="M 41.289256 207.318452 
L 42.155434 199.623189 
L 43.238164 190.035197 
L 43.88779 181.436945 
L 44.753968 165.311574 
L 46.05324 138.714396 
L 46.702876 129.607312 
L 47.352502 123.63893 
L 48.218681 116.587486 
L 48.651775 111.28294 
L 49.301411 99.448565 
L 50.167589 76.947983 
L 51.033767 54.435246 
L 51.466851 46.865447 
L 51.899945 43.12982 
L 52.116487 42.682424 
L 52.333029 43.173065 
L 52.549581 44.159448 
L 52.982665 48.288441 
L 54.498479 64.902384 
L 54.931563 66.487215 
L 55.148115 66.499372 
L 55.364657 65.791339 
L 55.797741 63.082333 
L 57.097013 51.715085 
L 57.313555 51.361361 
L 57.530097 51.883877 
L 57.746649 53.368337 
L 58.179734 59.893585 
L 58.612828 70.984182 
L 59.262454 94.260721 
L 61.644446 187.780071 
L 62.510624 210.297174 
L 63.16026 222.969513 
L 64.026438 235.208531 
L 64.892616 243.775514 
L 65.758794 249.909458 
L 66.624972 254.400718 
L 67.49115 257.876239 
L 68.573871 261.116625 
L 69.656601 263.507606 
L 70.522779 264.945952 
L 71.822041 266.489023 
L 73.121313 267.606918 
L 74.420575 268.486153 
L 75.936389 269.340837 
L 77.885288 270.147827 
L 80.916916 270.984566 
L 83.51545 271.407963 
L 91.311053 272.074948 
L 106.252632 272.667367 
L 112.315879 272.568258 
L 113.615151 272.511994 
L 116.646779 272.371587 
L 128.123627 271.854922 
L 135.053071 271.866603 
L 142.632122 272.216094 
L 145.447208 272.346251 
L 153.675905 272.45295 
L 157.140617 272.346187 
L 163.420396 271.929984 
L 168.400923 271.767629 
L 170.782925 271.786385 
L 174.247637 271.933863 
L 190.271927 273.35464 
L 192.870471 273.581012 
L 205.213506 274.554879 
L 206.512778 274.610617 
L 208.894761 274.749061 
L 213.442203 274.929829 
L 228.383783 275.628336 
L 228.600325 275.568234 
L 229.033409 275.678454 
L 229.466493 275.849901 
L 229.683035 275.654044 
L 229.899597 275.77877 
L 230.332681 275.603756 
L 230.765765 275.788867 
L 231.631953 275.670181 
L 231.848495 275.908092 
L 232.065037 275.710393 
L 232.714663 275.777158 
L 232.931205 275.729868 
L 233.364309 275.931178 
L 233.580851 275.696621 
L 233.797393 275.845627 
L 234.013935 275.779803 
L 234.447019 276.083771 
L 234.663561 275.933738 
L 235.096665 276.08892 
L 235.529749 275.735201 
L 235.746291 276.047432 
L 235.962814 275.885218 
L 248.738953 276.223218 
L 318.466284 276.962874 
L 330.376255 277.015693 
L 354.4127 277.127183 
L 359.176664 277.126448 
L 377.149892 277.162612 
L 382.780025 277.155111 
L 393.823827 277.127562 
L 398.37125 277.013004 
L 398.37125 277.013004 
" clip-path="url(#p51a1991396)" style="fill: none; stroke: #f37651; stroke-linecap: round"/>
   </g>
   <g id="line2d_25">
    <path d="M 41.289256 225.016266 
L 43.454706 209.4535 
L 44.320884 200.543144 
L 45.403604 186.397334 
L 46.919418 167.33412 
L 49.084859 142.555077 
L 50.167589 125.065007 
L 51.250309 107.139799 
L 51.899945 99.075769 
L 52.549581 93.84732 
L 52.982665 91.669902 
L 53.415759 90.165076 
L 54.281937 88.351776 
L 55.148115 86.507767 
L 57.097013 80.093435 
L 57.313555 80.159077 
L 57.530097 80.442439 
L 57.963191 82.092608 
L 58.396276 85.41954 
L 59.045912 93.250825 
L 59.91209 107.921353 
L 61.427904 138.891271 
L 64.24298 196.996574 
L 65.542252 219.228195 
L 66.624972 234.05137 
L 67.49115 243.538479 
L 68.357329 250.863587 
L 69.223507 256.34851 
L 70.089685 260.367593 
L 70.739321 262.605581 
L 71.605499 264.853327 
L 72.471677 266.455337 
L 73.337855 267.628838 
L 74.420575 268.727347 
L 75.936389 269.840766 
L 77.452203 270.630745 
L 79.401102 271.31093 
L 82.649272 271.985883 
L 86.547078 272.454732 
L 90.228333 272.8096 
L 98.45703 273.652472 
L 107.551904 274.201648 
L 116.863321 274.264215 
L 137.435053 274.374899 
L 153.026259 274.734708 
L 177.928892 275.03564 
L 190.055385 275.375866 
L 191.571199 275.418884 
L 215.824185 276.06103 
L 217.123458 276.077379 
L 218.42273 276.160483 
L 219.938544 276.190724 
L 220.804712 276.244663 
L 221.887442 276.269344 
L 223.186714 276.36295 
L 223.403256 276.291182 
L 224.052882 276.362124 
L 225.785238 276.416605 
L 226.218323 276.42058 
L 226.434865 276.509455 
L 226.867968 276.437033 
L 227.517595 276.49705 
L 227.734137 276.405132 
L 228.383783 276.481904 
L 228.600325 276.361262 
L 228.816867 276.554102 
L 230.116139 276.517165 
L 230.332681 276.634224 
L 231.198849 276.459161 
L 231.415391 276.441475 
L 231.848495 276.588776 
L 232.065037 276.388284 
L 232.281579 276.606111 
L 232.498121 276.635112 
L 232.931205 276.443471 
L 233.147747 276.647588 
L 234.013935 276.56726 
L 234.230477 276.81134 
L 234.447019 276.627851 
L 234.663561 276.758359 
L 235.529749 276.391888 
L 235.746291 276.729026 
L 235.962814 276.603168 
L 246.573493 276.735047 
L 258.05036 276.817315 
L 273.208481 276.918775 
L 310.887233 277.14134 
L 314.568488 277.153035 
L 318.0332 277.065631 
L 323.230288 277.072157 
L 348.349443 277.166184 
L 355.928494 277.187067 
L 372.385888 277.206148 
L 378.882228 277.189923 
L 387.327487 277.141994 
L 391.441825 277.089001 
L 398.37125 276.827629 
L 398.37125 276.827629 
" clip-path="url(#p51a1991396)" style="fill: none; stroke: #e13342; stroke-linecap: round"/>
   </g>
   <g id="line2d_26">
    <path d="M 41.289256 234.262436 
L 43.021612 224.564619 
L 44.104342 216.918118 
L 45.187062 207.489566 
L 48.002138 179.41556 
L 49.517953 162.400784 
L 52.333029 128.627972 
L 53.415759 119.17795 
L 54.281937 113.163443 
L 55.148115 108.704137 
L 55.797741 106.146691 
L 56.447377 104.070203 
L 56.880471 103.228312 
L 57.097013 102.984997 
L 57.530097 102.971648 
L 57.746649 103.152799 
L 58.179734 104.083248 
L 58.612828 105.694714 
L 59.262454 109.449616 
L 59.91209 114.535984 
L 60.561726 121.04032 
L 61.427904 131.882247 
L 62.510624 148.604873 
L 64.676074 188.170137 
L 66.191888 214.680871 
L 67.274608 230.466618 
L 68.140787 240.52688 
L 69.006965 248.385173 
L 69.873143 254.222467 
L 70.739321 258.437711 
L 71.605499 261.438342 
L 72.471677 263.567541 
L 73.337855 265.099372 
L 74.204033 266.244498 
L 75.286753 267.308815 
L 76.369483 268.115189 
L 77.885288 268.938998 
L 80.26728 269.753 
L 81.999636 270.135169 
L 84.165086 270.43831 
L 91.527605 271.14531 
L 96.291579 271.664055 
L 101.272106 272.256834 
L 110.150439 273.201711 
L 116.213675 273.678573 
L 118.81222 273.794491 
L 122.493474 273.935657 
L 125.525102 273.989512 
L 137.218511 274.255241 
L 140.466682 274.376767 
L 145.447208 274.560571 
L 149.561547 274.721611 
L 151.726987 274.824702 
L 157.573701 275.028012 
L 161.471498 275.104159 
L 163.8535 275.132828 
L 173.164907 275.332769 
L 184.858316 275.66305 
L 220.155086 276.328901 
L 220.58817 276.327622 
L 221.6709 276.414279 
L 221.887442 276.331647 
L 222.75361 276.449353 
L 223.619798 276.44411 
L 225.135612 276.476931 
L 226.867968 276.568331 
L 227.301053 276.557827 
L 227.734137 276.586342 
L 228.167241 276.638512 
L 228.383783 276.662294 
L 228.600325 276.559749 
L 228.816867 276.67838 
L 229.249951 276.613073 
L 229.466493 276.768155 
L 229.683035 276.399898 
L 229.899597 276.556071 
L 230.332681 276.587831 
L 230.982307 276.751992 
L 231.415391 276.595962 
L 231.848495 276.657545 
L 232.065037 276.553679 
L 232.714663 276.762667 
L 232.931205 276.490263 
L 233.147747 276.796381 
L 233.364309 276.786716 
L 233.580851 276.571329 
L 234.013935 276.667878 
L 234.230477 276.868517 
L 234.447019 276.618964 
L 234.663561 276.88735 
L 235.529749 276.521271 
L 235.746291 276.737435 
L 236.179356 276.676421 
L 247.223139 276.796826 
L 259.782716 276.883081 
L 265.845973 276.917429 
L 271.909209 276.943753 
L 317.600116 277.089872 
L 320.848286 277.042158 
L 332.108591 277.104551 
L 340.986934 277.140752 
L 361.125582 277.152543 
L 365.456463 277.13612 
L 368.488091 277.143486 
L 396.20579 276.945126 
L 398.37125 276.814937 
L 398.37125 276.814937 
" clip-path="url(#p51a1991396)" style="fill: none; stroke: #ad1759; stroke-linecap: round"/>
   </g>
   <g id="line2d_27">
    <path d="M 41.289256 243.0585 
L 42.588528 238.263911 
L 43.671248 233.395544 
L 45.187062 225.531289 
L 46.486324 217.334819 
L 47.785596 207.581931 
L 49.951037 189.167985 
L 54.498479 149.37002 
L 55.364657 143.766681 
L 56.230835 139.776774 
L 56.880471 137.835884 
L 57.530097 136.808362 
L 57.963191 136.545049 
L 58.396276 136.572902 
L 58.82937 136.830226 
L 59.262454 137.345535 
L 59.91209 138.633845 
L 60.561726 140.687657 
L 61.211362 143.695558 
L 61.860998 147.846007 
L 62.510624 153.261254 
L 63.376802 162.525316 
L 64.459532 176.84583 
L 67.924244 226.544821 
L 68.790423 235.347287 
L 69.656601 242.035176 
L 70.522779 246.833835 
L 71.388957 250.075008 
L 72.038593 251.775229 
L 72.688219 253.015122 
L 73.554397 254.114696 
L 74.420575 254.784594 
L 75.503305 255.241385 
L 77.019109 255.468228 
L 78.318382 255.432313 
L 80.916916 255.06207 
L 86.76362 254.003417 
L 91.094511 253.841776 
L 93.043409 254.035843 
L 94.992317 254.416607 
L 97.374309 255.169848 
L 99.106666 255.901147 
L 101.055564 256.937042 
L 103.437556 258.525444 
L 115.997133 267.923613 
L 118.379136 269.364551 
L 120.761118 270.575556 
L 123.359662 271.599209 
L 127.690543 272.602687 
L 131.588339 273.012644 
L 136.135781 273.267463 
L 143.281748 273.651621 
L 148.911921 274.061741 
L 154.108989 274.419818 
L 156.274429 274.561126 
L 166.885109 275.067723 
L 169.050569 275.144933 
L 170.782925 275.23727 
L 175.546889 275.491783 
L 192.220825 275.95941 
L 212.359473 276.26931 
L 214.091829 276.291252 
L 216.040727 276.323313 
L 217.989646 276.355051 
L 219.722002 276.450174 
L 220.58817 276.446695 
L 221.021254 276.485064 
L 221.887442 276.462309 
L 223.186714 276.547489 
L 223.83634 276.562227 
L 224.052882 276.612344 
L 224.269424 276.515412 
L 224.702508 276.594578 
L 225.568696 276.612047 
L 226.218323 276.698533 
L 229.033409 276.692839 
L 229.899597 276.632004 
L 230.332681 276.711575 
L 231.198849 276.675908 
L 231.631953 276.711503 
L 231.848495 276.898723 
L 232.065037 276.554787 
L 232.281579 276.770402 
L 232.931205 276.567641 
L 233.147747 276.791678 
L 233.580851 276.64825 
L 234.230477 276.903837 
L 234.447019 276.769461 
L 234.663561 276.906058 
L 235.096665 276.812698 
L 235.529749 276.644682 
L 235.746291 276.803526 
L 238.344796 276.847576 
L 269.960311 277.099371 
L 278.40557 277.126606 
L 287.716957 277.155826 
L 302.442014 277.176626 
L 309.804523 277.30417 
L 313.485777 277.583786 
L 321.497912 277.189095 
L 326.911543 277.2404 
L 358.093954 277.301572 
L 365.456463 277.301027 
L 367.838465 277.334433 
L 368.488091 277.314208 
L 375.417516 277.286867 
L 389.492907 277.187829 
L 393.390743 277.075644 
L 398.154708 276.929339 
L 398.37125 276.915262 
L 398.37125 276.915262 
" clip-path="url(#p51a1991396)" style="fill: none; stroke: #701f57; stroke-linecap: round"/>
   </g>
   <g id="line2d_28">
    <path d="M 41.289256 215.670204 
L 41.938892 219.067682 
L 42.371986 220.270734 
L 42.80507 220.970398 
L 43.238164 221.184166 
L 43.671248 221.030164 
L 44.320884 220.372501 
L 44.97052 219.314456 
L 45.836698 217.462923 
L 46.486324 215.525249 
L 47.13596 213.032276 
L 48.218681 207.544288 
L 49.734495 198.026709 
L 51.899945 182.903342 
L 55.581199 156.088638 
L 56.447377 152.193064 
L 57.097013 150.339716 
L 57.530097 149.576866 
L 57.963191 149.159239 
L 58.396276 149.031979 
L 58.82937 149.111566 
L 59.479006 149.598171 
L 60.128632 150.477178 
L 60.778268 151.93329 
L 61.211362 153.232336 
L 61.860998 155.912347 
L 62.510624 159.661615 
L 63.376802 166.575356 
L 64.24298 175.748867 
L 65.32571 190.03764 
L 67.924244 226.076053 
L 69.006965 237.148213 
L 69.873143 243.650861 
L 70.739321 248.314279 
L 71.605499 251.5089 
L 72.255135 253.150688 
L 72.904771 254.312068 
L 73.554397 255.157563 
L 74.420575 255.858972 
L 75.286753 256.268162 
L 76.369483 256.49954 
L 78.534924 256.502161 
L 81.999636 256.224405 
L 85.897442 256.194987 
L 89.362155 256.616925 
L 92.393783 257.354641 
L 97.590851 259.037939 
L 99.972844 259.975184 
L 102.138284 261.042031 
L 104.520276 262.422796 
L 111.233149 266.473399 
L 114.264777 268.221541 
L 117.296405 269.886726 
L 120.761118 271.519931 
L 123.359662 272.45306 
L 126.607832 273.22226 
L 129.422899 273.592563 
L 132.887611 273.821242 
L 135.053071 273.91072 
L 141.765934 274.08254 
L 144.797562 274.168322 
L 149.778089 274.39442 
L 159.5226 274.814227 
L 165.152752 274.982172 
L 170.133279 275.179084 
L 172.298739 275.314875 
L 174.247637 275.423551 
L 178.79506 275.651679 
L 183.559044 275.815967 
L 188.756113 275.913586 
L 215.824185 276.439666 
L 217.123458 276.438213 
L 217.773084 276.479063 
L 223.83634 276.719531 
L 224.485966 276.701422 
L 225.135612 276.734869 
L 226.651426 276.794684 
L 226.867968 276.861352 
L 227.084511 276.731503 
L 227.517595 276.817042 
L 227.734137 276.714422 
L 228.167241 276.838695 
L 228.383783 276.855555 
L 228.816867 276.76072 
L 229.033409 276.791996 
L 229.249951 276.691626 
L 229.466493 276.88853 
L 229.683035 276.731475 
L 230.332681 276.849258 
L 230.549223 276.745433 
L 230.765765 276.972042 
L 231.415391 276.642756 
L 231.848495 276.826754 
L 232.065037 276.64667 
L 232.498121 276.967717 
L 232.931205 276.704678 
L 233.147747 276.909683 
L 233.580851 276.602953 
L 233.797393 276.884884 
L 234.013935 276.76407 
L 234.230477 276.85829 
L 234.447019 276.830404 
L 234.880103 276.971448 
L 235.529749 276.714806 
L 235.746291 276.967983 
L 236.395898 276.919913 
L 257.833818 277.043066 
L 299.410386 277.165146 
L 303.09164 277.168928 
L 311.103775 277.496698 
L 313.269235 277.744831 
L 314.78503 277.5818 
L 316.300864 277.402591 
L 320.848286 277.187718 
L 334.05751 277.239871 
L 351.381071 277.255476 
L 359.393206 277.260649 
L 373.901721 277.269877 
L 383.646232 277.201685 
L 385.162027 277.202259 
L 386.028195 277.217518 
L 398.37125 276.90118 
L 398.37125 276.90118 
" clip-path="url(#p51a1991396)" style="fill: none; stroke: #35193e; stroke-linecap: round"/>
   </g>
   <g id="line2d_29"/>
   <g id="line2d_30"/>
   <g id="line2d_31"/>
   <g id="line2d_32"/>
   <g id="line2d_33"/>
   <g id="line2d_34"/>
   <g id="patch_3">
    <path d="M 41.25125 277.248797 
L 41.25125 11.136797 
" style="fill: none; stroke: #262626; stroke-width: 1.25; stroke-linejoin: miter; stroke-linecap: square"/>
   </g>
   <g id="patch_4">
    <path d="M 41.25125 277.248797 
L 398.37125 277.248797 
" style="fill: none; stroke: #262626; stroke-width: 1.25; stroke-linejoin: miter; stroke-linecap: square"/>
   </g>
   <g id="legend_1">
    <g id="line2d_35">
     <path d="M 236.683625 45.415809 
L 242.683625 45.415809 
L 248.683625 45.415809 
" style="fill: none; stroke: #f6b48f; stroke-width: 1.5; stroke-linecap: round"/>
    </g>
    <g id="text_15">
     <!-- imine polymer 0.0% TFA t=22hrs_Abs -->
     <g style="fill: #262626" transform="translate(253.483625 47.515809) scale(0.06 -0.06)">
      <defs>
       <path id="ArialMT-69" d="M 425 3934 
L 425 4581 
L 988 4581 
L 988 3934 
L 425 3934 
z
M 425 0 
L 425 3319 
L 988 3319 
L 988 0 
L 425 0 
z
" transform="scale(0.015625)"/>
       <path id="ArialMT-70" d="M 422 -1272 
L 422 3319 
L 934 3319 
L 934 2888 
Q 1116 3141 1344 3267 
Q 1572 3394 1897 3394 
Q 2322 3394 2647 3175 
Q 2972 2956 3137 2557 
Q 3303 2159 3303 1684 
Q 3303 1175 3120 767 
Q 2938 359 2589 142 
Q 2241 -75 1856 -75 
Q 1575 -75 1351 44 
Q 1128 163 984 344 
L 984 -1272 
L 422 -1272 
z
M 931 1641 
Q 931 1000 1190 694 
Q 1450 388 1819 388 
Q 2194 388 2461 705 
Q 2728 1022 2728 1688 
Q 2728 2322 2467 2637 
Q 2206 2953 1844 2953 
Q 1484 2953 1207 2617 
Q 931 2281 931 1641 
z
" transform="scale(0.015625)"/>
       <path id="ArialMT-79" d="M 397 -1278 
L 334 -750 
Q 519 -800 656 -800 
Q 844 -800 956 -737 
Q 1069 -675 1141 -563 
Q 1194 -478 1313 -144 
Q 1328 -97 1363 -6 
L 103 3319 
L 709 3319 
L 1400 1397 
Q 1534 1031 1641 628 
Q 1738 1016 1872 1384 
L 2581 3319 
L 3144 3319 
L 1881 -56 
Q 1678 -603 1566 -809 
Q 1416 -1088 1222 -1217 
Q 1028 -1347 759 -1347 
Q 597 -1347 397 -1278 
z
" transform="scale(0.015625)"/>
       <path id="ArialMT-25" d="M 372 3481 
Q 372 3972 619 4315 
Q 866 4659 1334 4659 
Q 1766 4659 2048 4351 
Q 2331 4044 2331 3447 
Q 2331 2866 2045 2552 
Q 1759 2238 1341 2238 
Q 925 2238 648 2547 
Q 372 2856 372 3481 
z
M 1350 4272 
Q 1141 4272 1002 4090 
Q 863 3909 863 3425 
Q 863 2984 1003 2804 
Q 1144 2625 1350 2625 
Q 1563 2625 1702 2806 
Q 1841 2988 1841 3469 
Q 1841 3913 1700 4092 
Q 1559 4272 1350 4272 
z
M 1353 -169 
L 3859 4659 
L 4316 4659 
L 1819 -169 
L 1353 -169 
z
M 3334 1075 
Q 3334 1569 3581 1911 
Q 3828 2253 4300 2253 
Q 4731 2253 5014 1945 
Q 5297 1638 5297 1041 
Q 5297 459 5011 145 
Q 4725 -169 4303 -169 
Q 3888 -169 3611 142 
Q 3334 453 3334 1075 
z
M 4316 1866 
Q 4103 1866 3964 1684 
Q 3825 1503 3825 1019 
Q 3825 581 3965 400 
Q 4106 219 4313 219 
Q 4528 219 4667 400 
Q 4806 581 4806 1063 
Q 4806 1506 4665 1686 
Q 4525 1866 4316 1866 
z
" transform="scale(0.015625)"/>
       <path id="ArialMT-54" d="M 1659 0 
L 1659 4041 
L 150 4041 
L 150 4581 
L 3781 4581 
L 3781 4041 
L 2266 4041 
L 2266 0 
L 1659 0 
z
" transform="scale(0.015625)"/>
       <path id="ArialMT-46" d="M 525 0 
L 525 4581 
L 3616 4581 
L 3616 4041 
L 1131 4041 
L 1131 2622 
L 3281 2622 
L 3281 2081 
L 1131 2081 
L 1131 0 
L 525 0 
z
" transform="scale(0.015625)"/>
       <path id="ArialMT-3d" d="M 3381 2694 
L 356 2694 
L 356 3219 
L 3381 3219 
L 3381 2694 
z
M 3381 1303 
L 356 1303 
L 356 1828 
L 3381 1828 
L 3381 1303 
z
" transform="scale(0.015625)"/>
       <path id="ArialMT-5f" d="M -97 -1272 
L -97 -866 
L 3631 -866 
L 3631 -1272 
L -97 -1272 
z
" transform="scale(0.015625)"/>
      </defs>
      <use xlink:href="#ArialMT-69"/>
      <use xlink:href="#ArialMT-6d" x="22.216797"/>
      <use xlink:href="#ArialMT-69" x="105.517578"/>
      <use xlink:href="#ArialMT-6e" x="127.734375"/>
      <use xlink:href="#ArialMT-65" x="183.349609"/>
      <use xlink:href="#ArialMT-20" x="238.964844"/>
      <use xlink:href="#ArialMT-70" x="266.748047"/>
      <use xlink:href="#ArialMT-6f" x="322.363281"/>
      <use xlink:href="#ArialMT-6c" x="377.978516"/>
      <use xlink:href="#ArialMT-79" x="400.195312"/>
      <use xlink:href="#ArialMT-6d" x="450.195312"/>
      <use xlink:href="#ArialMT-65" x="533.496094"/>
      <use xlink:href="#ArialMT-72" x="589.111328"/>
      <use xlink:href="#ArialMT-20" x="622.412109"/>
      <use xlink:href="#ArialMT-30" x="650.195312"/>
      <use xlink:href="#ArialMT-2e" x="705.810547"/>
      <use xlink:href="#ArialMT-30" x="733.59375"/>
      <use xlink:href="#ArialMT-25" x="789.208984"/>
      <use xlink:href="#ArialMT-20" x="878.125"/>
      <use xlink:href="#ArialMT-54" x="904.158203"/>
      <use xlink:href="#ArialMT-46" x="965.242188"/>
      <use xlink:href="#ArialMT-41" x="1020.826172"/>
      <use xlink:href="#ArialMT-20" x="1082.025391"/>
      <use xlink:href="#ArialMT-74" x="1109.808594"/>
      <use xlink:href="#ArialMT-3d" x="1137.591797"/>
      <use xlink:href="#ArialMT-32" x="1195.990234"/>
      <use xlink:href="#ArialMT-32" x="1251.605469"/>
      <use xlink:href="#ArialMT-68" x="1307.220703"/>
      <use xlink:href="#ArialMT-72" x="1362.835938"/>
      <use xlink:href="#ArialMT-73" x="1396.136719"/>
      <use xlink:href="#ArialMT-5f" x="1446.136719"/>
      <use xlink:href="#ArialMT-41" x="1501.751953"/>
      <use xlink:href="#ArialMT-62" x="1568.451172"/>
      <use xlink:href="#ArialMT-73" x="1624.066406"/>
     </g>
    </g>
    <g id="line2d_36">
     <path d="M 236.683625 54.046434 
L 242.683625 54.046434 
L 248.683625 54.046434 
" style="fill: none; stroke: #f37651; stroke-width: 1.5; stroke-linecap: round"/>
    </g>
    <g id="text_16">
     <!-- imine polymer 0.05% TFA t=22hrs_Abs -->
     <g style="fill: #262626" transform="translate(253.483625 56.146434) scale(0.06 -0.06)">
      <use xlink:href="#ArialMT-69"/>
      <use xlink:href="#ArialMT-6d" x="22.216797"/>
      <use xlink:href="#ArialMT-69" x="105.517578"/>
      <use xlink:href="#ArialMT-6e" x="127.734375"/>
      <use xlink:href="#ArialMT-65" x="183.349609"/>
      <use xlink:href="#ArialMT-20" x="238.964844"/>
      <use xlink:href="#ArialMT-70" x="266.748047"/>
      <use xlink:href="#ArialMT-6f" x="322.363281"/>
      <use xlink:href="#ArialMT-6c" x="377.978516"/>
      <use xlink:href="#ArialMT-79" x="400.195312"/>
      <use xlink:href="#ArialMT-6d" x="450.195312"/>
      <use xlink:href="#ArialMT-65" x="533.496094"/>
      <use xlink:href="#ArialMT-72" x="589.111328"/>
      <use xlink:href="#ArialMT-20" x="622.412109"/>
      <use xlink:href="#ArialMT-30" x="650.195312"/>
      <use xlink:href="#ArialMT-2e" x="705.810547"/>
      <use xlink:href="#ArialMT-30" x="733.59375"/>
      <use xlink:href="#ArialMT-35" x="789.208984"/>
      <use xlink:href="#ArialMT-25" x="844.824219"/>
      <use xlink:href="#ArialMT-20" x="933.740234"/>
      <use xlink:href="#ArialMT-54" x="959.773438"/>
      <use xlink:href="#ArialMT-46" x="1020.857422"/>
      <use xlink:href="#ArialMT-41" x="1076.441406"/>
      <use xlink:href="#ArialMT-20" x="1137.640625"/>
      <use xlink:href="#ArialMT-74" x="1165.423828"/>
      <use xlink:href="#ArialMT-3d" x="1193.207031"/>
      <use xlink:href="#ArialMT-32" x="1251.605469"/>
      <use xlink:href="#ArialMT-32" x="1307.220703"/>
      <use xlink:href="#ArialMT-68" x="1362.835938"/>
      <use xlink:href="#ArialMT-72" x="1418.451172"/>
      <use xlink:href="#ArialMT-73" x="1451.751953"/>
      <use xlink:href="#ArialMT-5f" x="1501.751953"/>
      <use xlink:href="#ArialMT-41" x="1557.367188"/>
      <use xlink:href="#ArialMT-62" x="1624.066406"/>
      <use xlink:href="#ArialMT-73" x="1679.681641"/>
     </g>
    </g>
    <g id="line2d_37">
     <path d="M 236.683625 62.677059 
L 242.683625 62.677059 
L 248.683625 62.677059 
" style="fill: none; stroke: #e13342; stroke-width: 1.5; stroke-linecap: round"/>
    </g>
    <g id="text_17">
     <!-- imine polymer 0.10% TFA t=22hrs_Abs -->
     <g style="fill: #262626" transform="translate(253.483625 64.777059) scale(0.06 -0.06)">
      <use xlink:href="#ArialMT-69"/>
      <use xlink:href="#ArialMT-6d" x="22.216797"/>
      <use xlink:href="#ArialMT-69" x="105.517578"/>
      <use xlink:href="#ArialMT-6e" x="127.734375"/>
      <use xlink:href="#ArialMT-65" x="183.349609"/>
      <use xlink:href="#ArialMT-20" x="238.964844"/>
      <use xlink:href="#ArialMT-70" x="266.748047"/>
      <use xlink:href="#ArialMT-6f" x="322.363281"/>
      <use xlink:href="#ArialMT-6c" x="377.978516"/>
      <use xlink:href="#ArialMT-79" x="400.195312"/>
      <use xlink:href="#ArialMT-6d" x="450.195312"/>
      <use xlink:href="#ArialMT-65" x="533.496094"/>
      <use xlink:href="#ArialMT-72" x="589.111328"/>
      <use xlink:href="#ArialMT-20" x="622.412109"/>
      <use xlink:href="#ArialMT-30" x="650.195312"/>
      <use xlink:href="#ArialMT-2e" x="705.810547"/>
      <use xlink:href="#ArialMT-31" x="733.59375"/>
      <use xlink:href="#ArialMT-30" x="789.208984"/>
      <use xlink:href="#ArialMT-25" x="844.824219"/>
      <use xlink:href="#ArialMT-20" x="933.740234"/>
      <use xlink:href="#ArialMT-54" x="959.773438"/>
      <use xlink:href="#ArialMT-46" x="1020.857422"/>
      <use xlink:href="#ArialMT-41" x="1076.441406"/>
      <use xlink:href="#ArialMT-20" x="1137.640625"/>
      <use xlink:href="#ArialMT-74" x="1165.423828"/>
      <use xlink:href="#ArialMT-3d" x="1193.207031"/>
      <use xlink:href="#ArialMT-32" x="1251.605469"/>
      <use xlink:href="#ArialMT-32" x="1307.220703"/>
      <use xlink:href="#ArialMT-68" x="1362.835938"/>
      <use xlink:href="#ArialMT-72" x="1418.451172"/>
      <use xlink:href="#ArialMT-73" x="1451.751953"/>
      <use xlink:href="#ArialMT-5f" x="1501.751953"/>
      <use xlink:href="#ArialMT-41" x="1557.367188"/>
      <use xlink:href="#ArialMT-62" x="1624.066406"/>
      <use xlink:href="#ArialMT-73" x="1679.681641"/>
     </g>
    </g>
    <g id="line2d_38">
     <path d="M 236.683625 71.307684 
L 242.683625 71.307684 
L 248.683625 71.307684 
" style="fill: none; stroke: #ad1759; stroke-width: 1.5; stroke-linecap: round"/>
    </g>
    <g id="text_18">
     <!-- imine polymer 0.25% TFA t=22hrs_Abs -->
     <g style="fill: #262626" transform="translate(253.483625 73.407684) scale(0.06 -0.06)">
      <use xlink:href="#ArialMT-69"/>
      <use xlink:href="#ArialMT-6d" x="22.216797"/>
      <use xlink:href="#ArialMT-69" x="105.517578"/>
      <use xlink:href="#ArialMT-6e" x="127.734375"/>
      <use xlink:href="#ArialMT-65" x="183.349609"/>
      <use xlink:href="#ArialMT-20" x="238.964844"/>
      <use xlink:href="#ArialMT-70" x="266.748047"/>
      <use xlink:href="#ArialMT-6f" x="322.363281"/>
      <use xlink:href="#ArialMT-6c" x="377.978516"/>
      <use xlink:href="#ArialMT-79" x="400.195312"/>
      <use xlink:href="#ArialMT-6d" x="450.195312"/>
      <use xlink:href="#ArialMT-65" x="533.496094"/>
      <use xlink:href="#ArialMT-72" x="589.111328"/>
      <use xlink:href="#ArialMT-20" x="622.412109"/>
      <use xlink:href="#ArialMT-30" x="650.195312"/>
      <use xlink:href="#ArialMT-2e" x="705.810547"/>
      <use xlink:href="#ArialMT-32" x="733.59375"/>
      <use xlink:href="#ArialMT-35" x="789.208984"/>
      <use xlink:href="#ArialMT-25" x="844.824219"/>
      <use xlink:href="#ArialMT-20" x="933.740234"/>
      <use xlink:href="#ArialMT-54" x="959.773438"/>
      <use xlink:href="#ArialMT-46" x="1020.857422"/>
      <use xlink:href="#ArialMT-41" x="1076.441406"/>
      <use xlink:href="#ArialMT-20" x="1137.640625"/>
      <use xlink:href="#ArialMT-74" x="1165.423828"/>
      <use xlink:href="#ArialMT-3d" x="1193.207031"/>
      <use xlink:href="#ArialMT-32" x="1251.605469"/>
      <use xlink:href="#ArialMT-32" x="1307.220703"/>
      <use xlink:href="#ArialMT-68" x="1362.835938"/>
      <use xlink:href="#ArialMT-72" x="1418.451172"/>
      <use xlink:href="#ArialMT-73" x="1451.751953"/>
      <use xlink:href="#ArialMT-5f" x="1501.751953"/>
      <use xlink:href="#ArialMT-41" x="1557.367188"/>
      <use xlink:href="#ArialMT-62" x="1624.066406"/>
      <use xlink:href="#ArialMT-73" x="1679.681641"/>
     </g>
    </g>
    <g id="line2d_39">
     <path d="M 236.683625 79.938309 
L 242.683625 79.938309 
L 248.683625 79.938309 
" style="fill: none; stroke: #701f57; stroke-width: 1.5; stroke-linecap: round"/>
    </g>
    <g id="text_19">
     <!-- imine polymer 0.50% TFA t=22hrs_Abs -->
     <g style="fill: #262626" transform="translate(253.483625 82.038309) scale(0.06 -0.06)">
      <use xlink:href="#ArialMT-69"/>
      <use xlink:href="#ArialMT-6d" x="22.216797"/>
      <use xlink:href="#ArialMT-69" x="105.517578"/>
      <use xlink:href="#ArialMT-6e" x="127.734375"/>
      <use xlink:href="#ArialMT-65" x="183.349609"/>
      <use xlink:href="#ArialMT-20" x="238.964844"/>
      <use xlink:href="#ArialMT-70" x="266.748047"/>
      <use xlink:href="#ArialMT-6f" x="322.363281"/>
      <use xlink:href="#ArialMT-6c" x="377.978516"/>
      <use xlink:href="#ArialMT-79" x="400.195312"/>
      <use xlink:href="#ArialMT-6d" x="450.195312"/>
      <use xlink:href="#ArialMT-65" x="533.496094"/>
      <use xlink:href="#ArialMT-72" x="589.111328"/>
      <use xlink:href="#ArialMT-20" x="622.412109"/>
      <use xlink:href="#ArialMT-30" x="650.195312"/>
      <use xlink:href="#ArialMT-2e" x="705.810547"/>
      <use xlink:href="#ArialMT-35" x="733.59375"/>
      <use xlink:href="#ArialMT-30" x="789.208984"/>
      <use xlink:href="#ArialMT-25" x="844.824219"/>
      <use xlink:href="#ArialMT-20" x="933.740234"/>
      <use xlink:href="#ArialMT-54" x="959.773438"/>
      <use xlink:href="#ArialMT-46" x="1020.857422"/>
      <use xlink:href="#ArialMT-41" x="1076.441406"/>
      <use xlink:href="#ArialMT-20" x="1137.640625"/>
      <use xlink:href="#ArialMT-74" x="1165.423828"/>
      <use xlink:href="#ArialMT-3d" x="1193.207031"/>
      <use xlink:href="#ArialMT-32" x="1251.605469"/>
      <use xlink:href="#ArialMT-32" x="1307.220703"/>
      <use xlink:href="#ArialMT-68" x="1362.835938"/>
      <use xlink:href="#ArialMT-72" x="1418.451172"/>
      <use xlink:href="#ArialMT-73" x="1451.751953"/>
      <use xlink:href="#ArialMT-5f" x="1501.751953"/>
      <use xlink:href="#ArialMT-41" x="1557.367188"/>
      <use xlink:href="#ArialMT-62" x="1624.066406"/>
      <use xlink:href="#ArialMT-73" x="1679.681641"/>
     </g>
    </g>
    <g id="line2d_40">
     <path d="M 236.683625 88.568934 
L 242.683625 88.568934 
L 248.683625 88.568934 
" style="fill: none; stroke: #35193e; stroke-width: 1.5; stroke-linecap: round"/>
    </g>
    <g id="text_20">
     <!-- imine polymer 1.00% TFA t=22hrs_Abs -->
     <g style="fill: #262626" transform="translate(253.483625 90.668934) scale(0.06 -0.06)">
      <use xlink:href="#ArialMT-69"/>
      <use xlink:href="#ArialMT-6d" x="22.216797"/>
      <use xlink:href="#ArialMT-69" x="105.517578"/>
      <use xlink:href="#ArialMT-6e" x="127.734375"/>
      <use xlink:href="#ArialMT-65" x="183.349609"/>
      <use xlink:href="#ArialMT-20" x="238.964844"/>
      <use xlink:href="#ArialMT-70" x="266.748047"/>
      <use xlink:href="#ArialMT-6f" x="322.363281"/>
      <use xlink:href="#ArialMT-6c" x="377.978516"/>
      <use xlink:href="#ArialMT-79" x="400.195312"/>
      <use xlink:href="#ArialMT-6d" x="450.195312"/>
      <use xlink:href="#ArialMT-65" x="533.496094"/>
      <use xlink:href="#ArialMT-72" x="589.111328"/>
      <use xlink:href="#ArialMT-20" x="622.412109"/>
      <use xlink:href="#ArialMT-31" x="650.195312"/>
      <use xlink:href="#ArialMT-2e" x="705.810547"/>
      <use xlink:href="#ArialMT-30" x="733.59375"/>
      <use xlink:href="#ArialMT-30" x="789.208984"/>
      <use xlink:href="#ArialMT-25" x="844.824219"/>
      <use xlink:href="#ArialMT-20" x="933.740234"/>
      <use xlink:href="#ArialMT-54" x="959.773438"/>
      <use xlink:href="#ArialMT-46" x="1020.857422"/>
      <use xlink:href="#ArialMT-41" x="1076.441406"/>
      <use xlink:href="#ArialMT-20" x="1137.640625"/>
      <use xlink:href="#ArialMT-74" x="1165.423828"/>
      <use xlink:href="#ArialMT-3d" x="1193.207031"/>
      <use xlink:href="#ArialMT-32" x="1251.605469"/>
      <use xlink:href="#ArialMT-32" x="1307.220703"/>
      <use xlink:href="#ArialMT-68" x="1362.835938"/>
      <use xlink:href="#ArialMT-72" x="1418.451172"/>
      <use xlink:href="#ArialMT-73" x="1451.751953"/>
      <use xlink:href="#ArialMT-5f" x="1501.751953"/>
      <use xlink:href="#ArialMT-41" x="1557.367188"/>
      <use xlink:href="#ArialMT-62" x="1624.066406"/>
      <use xlink:href="#ArialMT-73" x="1679.681641"/>
     </g>
    </g>
   </g>
  </g>
 </g>
 <defs>
  <clipPath id="p51a1991396">
   <rect x="41.25125" y="11.136797" width="357.12" height="266.112"/>
  </clipPath>
 </defs>
</svg>
