<?xml version="1.0" encoding="utf-8" standalone="no"?>
<!DOCTYPE svg PUBLIC "-//W3C//DTD SVG 1.1//EN"
  "http://www.w3.org/Graphics/SVG/1.1/DTD/svg11.dtd">
<svg xmlns:xlink="http://www.w3.org/1999/xlink" width="423.922344pt" height="313.269891pt" viewBox="0 0 423.922344 313.269891" xmlns="http://www.w3.org/2000/svg" version="1.1">
 <metadata>
  <rdf:RDF xmlns:dc="http://purl.org/dc/elements/1.1/" xmlns:cc="http://creativecommons.org/ns#" xmlns:rdf="http://www.w3.org/1999/02/22-rdf-syntax-ns#">
   <cc:Work>
    <dc:type rdf:resource="http://purl.org/dc/dcmitype/StillImage"/>
    <dc:date>2024-05-07T16:26:10.862227</dc:date>
    <dc:format>image/svg+xml</dc:format>
    <dc:creator>
     <cc:Agent>
      <dc:title>Matplotlib v3.7.1, https://matplotlib.org/</dc:title>
     </cc:Agent>
    </dc:creator>
   </cc:Work>
  </rdf:RDF>
 </metadata>
 <defs>
  <style type="text/css">*{stroke-linejoin: round; stroke-linecap: butt}</style>
 </defs>
 <g id="figure_1">
  <g id="patch_1">
   <path d="M 0 313.269891 
L 423.922344 313.269891 
L 423.922344 0 
L 0 0 
z
" style="fill: #ffffff"/>
  </g>
  <g id="axes_1">
   <g id="patch_2">
    <path d="M 47.368281 277.248797 
L 404.488281 277.248797 
L 404.488281 11.136797 
L 47.368281 11.136797 
z
" style="fill: #ffffff"/>
   </g>
   <g id="matplotlib.axis_1">
    <g id="xtick_1">
     <g id="line2d_1">
      <defs>
       <path id="md7e23b2310" d="M 0 0 
L 0 -6 
" style="stroke: #262626; stroke-width: 1.25"/>
      </defs>
      <g>
       <use xlink:href="#md7e23b2310" x="79.833736" y="277.248797" style="fill: #262626; stroke: #262626; stroke-width: 1.25"/>
      </g>
     </g>
     <g id="text_1">
      <!-- 400 -->
      <g style="fill: #262626" transform="translate(70.658189 288.622391) scale(0.11 -0.11)">
       <defs>
        <path id="ArialMT-34" d="M 2069 0 
L 2069 1097 
L 81 1097 
L 81 1613 
L 2172 4581 
L 2631 4581 
L 2631 1613 
L 3250 1613 
L 3250 1097 
L 2631 1097 
L 2631 0 
L 2069 0 
z
M 2069 1613 
L 2069 3678 
L 634 1613 
L 2069 1613 
z
" transform="scale(0.015625)"/>
        <path id="ArialMT-30" d="M 266 2259 
Q 266 3072 433 3567 
Q 600 4063 929 4331 
Q 1259 4600 1759 4600 
Q 2128 4600 2406 4451 
Q 2684 4303 2865 4023 
Q 3047 3744 3150 3342 
Q 3253 2941 3253 2259 
Q 3253 1453 3087 958 
Q 2922 463 2592 192 
Q 2263 -78 1759 -78 
Q 1097 -78 719 397 
Q 266 969 266 2259 
z
M 844 2259 
Q 844 1131 1108 757 
Q 1372 384 1759 384 
Q 2147 384 2411 759 
Q 2675 1134 2675 2259 
Q 2675 3391 2411 3762 
Q 2147 4134 1753 4134 
Q 1366 4134 1134 3806 
Q 844 3388 844 2259 
z
" transform="scale(0.015625)"/>
       </defs>
       <use xlink:href="#ArialMT-34"/>
       <use xlink:href="#ArialMT-30" x="55.615234"/>
       <use xlink:href="#ArialMT-30" x="111.230469"/>
      </g>
     </g>
    </g>
    <g id="xtick_2">
     <g id="line2d_2">
      <g>
       <use xlink:href="#md7e23b2310" x="144.764645" y="277.248797" style="fill: #262626; stroke: #262626; stroke-width: 1.25"/>
      </g>
     </g>
     <g id="text_2">
      <!-- 600 -->
      <g style="fill: #262626" transform="translate(135.589098 288.622391) scale(0.11 -0.11)">
       <defs>
        <path id="ArialMT-36" d="M 3184 3459 
L 2625 3416 
Q 2550 3747 2413 3897 
Q 2184 4138 1850 4138 
Q 1581 4138 1378 3988 
Q 1113 3794 959 3422 
Q 806 3050 800 2363 
Q 1003 2672 1297 2822 
Q 1591 2972 1913 2972 
Q 2475 2972 2870 2558 
Q 3266 2144 3266 1488 
Q 3266 1056 3080 686 
Q 2894 316 2569 119 
Q 2244 -78 1831 -78 
Q 1128 -78 684 439 
Q 241 956 241 2144 
Q 241 3472 731 4075 
Q 1159 4600 1884 4600 
Q 2425 4600 2770 4297 
Q 3116 3994 3184 3459 
z
M 888 1484 
Q 888 1194 1011 928 
Q 1134 663 1356 523 
Q 1578 384 1822 384 
Q 2178 384 2434 671 
Q 2691 959 2691 1453 
Q 2691 1928 2437 2201 
Q 2184 2475 1800 2475 
Q 1419 2475 1153 2201 
Q 888 1928 888 1484 
z
" transform="scale(0.015625)"/>
       </defs>
       <use xlink:href="#ArialMT-36"/>
       <use xlink:href="#ArialMT-30" x="55.615234"/>
       <use xlink:href="#ArialMT-30" x="111.230469"/>
      </g>
     </g>
    </g>
    <g id="xtick_3">
     <g id="line2d_3">
      <g>
       <use xlink:href="#md7e23b2310" x="209.695554" y="277.248797" style="fill: #262626; stroke: #262626; stroke-width: 1.25"/>
      </g>
     </g>
     <g id="text_3">
      <!-- 800 -->
      <g style="fill: #262626" transform="translate(200.520007 288.622391) scale(0.11 -0.11)">
       <defs>
        <path id="ArialMT-38" d="M 1131 2484 
Q 781 2613 612 2850 
Q 444 3088 444 3419 
Q 444 3919 803 4259 
Q 1163 4600 1759 4600 
Q 2359 4600 2725 4251 
Q 3091 3903 3091 3403 
Q 3091 3084 2923 2848 
Q 2756 2613 2416 2484 
Q 2838 2347 3058 2040 
Q 3278 1734 3278 1309 
Q 3278 722 2862 322 
Q 2447 -78 1769 -78 
Q 1091 -78 675 323 
Q 259 725 259 1325 
Q 259 1772 486 2073 
Q 713 2375 1131 2484 
z
M 1019 3438 
Q 1019 3113 1228 2906 
Q 1438 2700 1772 2700 
Q 2097 2700 2305 2904 
Q 2513 3109 2513 3406 
Q 2513 3716 2298 3927 
Q 2084 4138 1766 4138 
Q 1444 4138 1231 3931 
Q 1019 3725 1019 3438 
z
M 838 1322 
Q 838 1081 952 856 
Q 1066 631 1291 507 
Q 1516 384 1775 384 
Q 2178 384 2440 643 
Q 2703 903 2703 1303 
Q 2703 1709 2433 1975 
Q 2163 2241 1756 2241 
Q 1359 2241 1098 1978 
Q 838 1716 838 1322 
z
" transform="scale(0.015625)"/>
       </defs>
       <use xlink:href="#ArialMT-38"/>
       <use xlink:href="#ArialMT-30" x="55.615234"/>
       <use xlink:href="#ArialMT-30" x="111.230469"/>
      </g>
     </g>
    </g>
    <g id="xtick_4">
     <g id="line2d_4">
      <g>
       <use xlink:href="#md7e23b2310" x="274.626463" y="277.248797" style="fill: #262626; stroke: #262626; stroke-width: 1.25"/>
      </g>
     </g>
     <g id="text_4">
      <!-- 1000 -->
      <g style="fill: #262626" transform="translate(262.392401 288.622391) scale(0.11 -0.11)">
       <defs>
        <path id="ArialMT-31" d="M 2384 0 
L 1822 0 
L 1822 3584 
Q 1619 3391 1289 3197 
Q 959 3003 697 2906 
L 697 3450 
Q 1169 3672 1522 3987 
Q 1875 4303 2022 4600 
L 2384 4600 
L 2384 0 
z
" transform="scale(0.015625)"/>
       </defs>
       <use xlink:href="#ArialMT-31"/>
       <use xlink:href="#ArialMT-30" x="55.615234"/>
       <use xlink:href="#ArialMT-30" x="111.230469"/>
       <use xlink:href="#ArialMT-30" x="166.845703"/>
      </g>
     </g>
    </g>
    <g id="xtick_5">
     <g id="line2d_5">
      <g>
       <use xlink:href="#md7e23b2310" x="339.557372" y="277.248797" style="fill: #262626; stroke: #262626; stroke-width: 1.25"/>
      </g>
     </g>
     <g id="text_5">
      <!-- 1200 -->
      <g style="fill: #262626" transform="translate(327.32331 288.622391) scale(0.11 -0.11)">
       <defs>
        <path id="ArialMT-32" d="M 3222 541 
L 3222 0 
L 194 0 
Q 188 203 259 391 
Q 375 700 629 1000 
Q 884 1300 1366 1694 
Q 2113 2306 2375 2664 
Q 2638 3022 2638 3341 
Q 2638 3675 2398 3904 
Q 2159 4134 1775 4134 
Q 1369 4134 1125 3890 
Q 881 3647 878 3216 
L 300 3275 
Q 359 3922 746 4261 
Q 1134 4600 1788 4600 
Q 2447 4600 2831 4234 
Q 3216 3869 3216 3328 
Q 3216 3053 3103 2787 
Q 2991 2522 2730 2228 
Q 2469 1934 1863 1422 
Q 1356 997 1212 845 
Q 1069 694 975 541 
L 3222 541 
z
" transform="scale(0.015625)"/>
       </defs>
       <use xlink:href="#ArialMT-31"/>
       <use xlink:href="#ArialMT-32" x="55.615234"/>
       <use xlink:href="#ArialMT-30" x="111.230469"/>
       <use xlink:href="#ArialMT-30" x="166.845703"/>
      </g>
     </g>
    </g>
    <g id="xtick_6">
     <g id="line2d_6">
      <g>
       <use xlink:href="#md7e23b2310" x="404.488281" y="277.248797" style="fill: #262626; stroke: #262626; stroke-width: 1.25"/>
      </g>
     </g>
     <g id="text_6">
      <!-- 1400 -->
      <g style="fill: #262626" transform="translate(392.254219 288.622391) scale(0.11 -0.11)">
       <use xlink:href="#ArialMT-31"/>
       <use xlink:href="#ArialMT-34" x="55.615234"/>
       <use xlink:href="#ArialMT-30" x="111.230469"/>
       <use xlink:href="#ArialMT-30" x="166.845703"/>
      </g>
     </g>
    </g>
    <g id="xtick_7">
     <g id="line2d_7">
      <defs>
       <path id="m8894e43584" d="M 0 0 
L 0 -4 
" style="stroke: #262626"/>
      </defs>
      <g>
       <use xlink:href="#m8894e43584" x="112.29919" y="277.248797" style="fill: #262626; stroke: #262626"/>
      </g>
     </g>
    </g>
    <g id="xtick_8">
     <g id="line2d_8">
      <g>
       <use xlink:href="#m8894e43584" x="177.230099" y="277.248797" style="fill: #262626; stroke: #262626"/>
      </g>
     </g>
    </g>
    <g id="xtick_9">
     <g id="line2d_9">
      <g>
       <use xlink:href="#m8894e43584" x="242.161009" y="277.248797" style="fill: #262626; stroke: #262626"/>
      </g>
     </g>
    </g>
    <g id="xtick_10">
     <g id="line2d_10">
      <g>
       <use xlink:href="#m8894e43584" x="307.091918" y="277.248797" style="fill: #262626; stroke: #262626"/>
      </g>
     </g>
    </g>
    <g id="xtick_11">
     <g id="line2d_11">
      <g>
       <use xlink:href="#m8894e43584" x="372.022827" y="277.248797" style="fill: #262626; stroke: #262626"/>
      </g>
     </g>
    </g>
    <g id="text_7">
     <!-- Wavelength (nm) -->
     <g style="fill: #262626" transform="translate(180.473594 303.544266) scale(0.12 -0.12)">
      <defs>
       <path id="ArialMT-57" d="M 1294 0 
L 78 4581 
L 700 4581 
L 1397 1578 
Q 1509 1106 1591 641 
Q 1766 1375 1797 1488 
L 2669 4581 
L 3400 4581 
L 4056 2263 
Q 4303 1400 4413 641 
Q 4500 1075 4641 1638 
L 5359 4581 
L 5969 4581 
L 4713 0 
L 4128 0 
L 3163 3491 
Q 3041 3928 3019 4028 
Q 2947 3713 2884 3491 
L 1913 0 
L 1294 0 
z
" transform="scale(0.015625)"/>
       <path id="ArialMT-61" d="M 2588 409 
Q 2275 144 1986 34 
Q 1697 -75 1366 -75 
Q 819 -75 525 192 
Q 231 459 231 875 
Q 231 1119 342 1320 
Q 453 1522 633 1644 
Q 813 1766 1038 1828 
Q 1203 1872 1538 1913 
Q 2219 1994 2541 2106 
Q 2544 2222 2544 2253 
Q 2544 2597 2384 2738 
Q 2169 2928 1744 2928 
Q 1347 2928 1158 2789 
Q 969 2650 878 2297 
L 328 2372 
Q 403 2725 575 2942 
Q 747 3159 1072 3276 
Q 1397 3394 1825 3394 
Q 2250 3394 2515 3294 
Q 2781 3194 2906 3042 
Q 3031 2891 3081 2659 
Q 3109 2516 3109 2141 
L 3109 1391 
Q 3109 606 3145 398 
Q 3181 191 3288 0 
L 2700 0 
Q 2613 175 2588 409 
z
M 2541 1666 
Q 2234 1541 1622 1453 
Q 1275 1403 1131 1340 
Q 988 1278 909 1158 
Q 831 1038 831 891 
Q 831 666 1001 516 
Q 1172 366 1500 366 
Q 1825 366 2078 508 
Q 2331 650 2450 897 
Q 2541 1088 2541 1459 
L 2541 1666 
z
" transform="scale(0.015625)"/>
       <path id="ArialMT-76" d="M 1344 0 
L 81 3319 
L 675 3319 
L 1388 1331 
Q 1503 1009 1600 663 
Q 1675 925 1809 1294 
L 2547 3319 
L 3125 3319 
L 1869 0 
L 1344 0 
z
" transform="scale(0.015625)"/>
       <path id="ArialMT-65" d="M 2694 1069 
L 3275 997 
Q 3138 488 2766 206 
Q 2394 -75 1816 -75 
Q 1088 -75 661 373 
Q 234 822 234 1631 
Q 234 2469 665 2931 
Q 1097 3394 1784 3394 
Q 2450 3394 2872 2941 
Q 3294 2488 3294 1666 
Q 3294 1616 3291 1516 
L 816 1516 
Q 847 969 1125 678 
Q 1403 388 1819 388 
Q 2128 388 2347 550 
Q 2566 713 2694 1069 
z
M 847 1978 
L 2700 1978 
Q 2663 2397 2488 2606 
Q 2219 2931 1791 2931 
Q 1403 2931 1139 2672 
Q 875 2413 847 1978 
z
" transform="scale(0.015625)"/>
       <path id="ArialMT-6c" d="M 409 0 
L 409 4581 
L 972 4581 
L 972 0 
L 409 0 
z
" transform="scale(0.015625)"/>
       <path id="ArialMT-6e" d="M 422 0 
L 422 3319 
L 928 3319 
L 928 2847 
Q 1294 3394 1984 3394 
Q 2284 3394 2536 3286 
Q 2788 3178 2913 3003 
Q 3038 2828 3088 2588 
Q 3119 2431 3119 2041 
L 3119 0 
L 2556 0 
L 2556 2019 
Q 2556 2363 2490 2533 
Q 2425 2703 2258 2804 
Q 2091 2906 1866 2906 
Q 1506 2906 1245 2678 
Q 984 2450 984 1813 
L 984 0 
L 422 0 
z
" transform="scale(0.015625)"/>
       <path id="ArialMT-67" d="M 319 -275 
L 866 -356 
Q 900 -609 1056 -725 
Q 1266 -881 1628 -881 
Q 2019 -881 2231 -725 
Q 2444 -569 2519 -288 
Q 2563 -116 2559 434 
Q 2191 0 1641 0 
Q 956 0 581 494 
Q 206 988 206 1678 
Q 206 2153 378 2554 
Q 550 2956 876 3175 
Q 1203 3394 1644 3394 
Q 2231 3394 2613 2919 
L 2613 3319 
L 3131 3319 
L 3131 450 
Q 3131 -325 2973 -648 
Q 2816 -972 2473 -1159 
Q 2131 -1347 1631 -1347 
Q 1038 -1347 672 -1080 
Q 306 -813 319 -275 
z
M 784 1719 
Q 784 1066 1043 766 
Q 1303 466 1694 466 
Q 2081 466 2343 764 
Q 2606 1063 2606 1700 
Q 2606 2309 2336 2618 
Q 2066 2928 1684 2928 
Q 1309 2928 1046 2623 
Q 784 2319 784 1719 
z
" transform="scale(0.015625)"/>
       <path id="ArialMT-74" d="M 1650 503 
L 1731 6 
Q 1494 -44 1306 -44 
Q 1000 -44 831 53 
Q 663 150 594 308 
Q 525 466 525 972 
L 525 2881 
L 113 2881 
L 113 3319 
L 525 3319 
L 525 4141 
L 1084 4478 
L 1084 3319 
L 1650 3319 
L 1650 2881 
L 1084 2881 
L 1084 941 
Q 1084 700 1114 631 
Q 1144 563 1211 522 
Q 1278 481 1403 481 
Q 1497 481 1650 503 
z
" transform="scale(0.015625)"/>
       <path id="ArialMT-68" d="M 422 0 
L 422 4581 
L 984 4581 
L 984 2938 
Q 1378 3394 1978 3394 
Q 2347 3394 2619 3248 
Q 2891 3103 3008 2847 
Q 3125 2591 3125 2103 
L 3125 0 
L 2563 0 
L 2563 2103 
Q 2563 2525 2380 2717 
Q 2197 2909 1863 2909 
Q 1613 2909 1392 2779 
Q 1172 2650 1078 2428 
Q 984 2206 984 1816 
L 984 0 
L 422 0 
z
" transform="scale(0.015625)"/>
       <path id="ArialMT-20" transform="scale(0.015625)"/>
       <path id="ArialMT-28" d="M 1497 -1347 
Q 1031 -759 709 28 
Q 388 816 388 1659 
Q 388 2403 628 3084 
Q 909 3875 1497 4659 
L 1900 4659 
Q 1522 4009 1400 3731 
Q 1209 3300 1100 2831 
Q 966 2247 966 1656 
Q 966 153 1900 -1347 
L 1497 -1347 
z
" transform="scale(0.015625)"/>
       <path id="ArialMT-6d" d="M 422 0 
L 422 3319 
L 925 3319 
L 925 2853 
Q 1081 3097 1340 3245 
Q 1600 3394 1931 3394 
Q 2300 3394 2536 3241 
Q 2772 3088 2869 2813 
Q 3263 3394 3894 3394 
Q 4388 3394 4653 3120 
Q 4919 2847 4919 2278 
L 4919 0 
L 4359 0 
L 4359 2091 
Q 4359 2428 4304 2576 
Q 4250 2725 4106 2815 
Q 3963 2906 3769 2906 
Q 3419 2906 3187 2673 
Q 2956 2441 2956 1928 
L 2956 0 
L 2394 0 
L 2394 2156 
Q 2394 2531 2256 2718 
Q 2119 2906 1806 2906 
Q 1569 2906 1367 2781 
Q 1166 2656 1075 2415 
Q 984 2175 984 1722 
L 984 0 
L 422 0 
z
" transform="scale(0.015625)"/>
       <path id="ArialMT-29" d="M 791 -1347 
L 388 -1347 
Q 1322 153 1322 1656 
Q 1322 2244 1188 2822 
Q 1081 3291 891 3722 
Q 769 4003 388 4659 
L 791 4659 
Q 1378 3875 1659 3084 
Q 1900 2403 1900 1659 
Q 1900 816 1576 28 
Q 1253 -759 791 -1347 
z
" transform="scale(0.015625)"/>
      </defs>
      <use xlink:href="#ArialMT-57"/>
      <use xlink:href="#ArialMT-61" x="90.634766"/>
      <use xlink:href="#ArialMT-76" x="146.25"/>
      <use xlink:href="#ArialMT-65" x="196.25"/>
      <use xlink:href="#ArialMT-6c" x="251.865234"/>
      <use xlink:href="#ArialMT-65" x="274.082031"/>
      <use xlink:href="#ArialMT-6e" x="329.697266"/>
      <use xlink:href="#ArialMT-67" x="385.3125"/>
      <use xlink:href="#ArialMT-74" x="440.927734"/>
      <use xlink:href="#ArialMT-68" x="468.710938"/>
      <use xlink:href="#ArialMT-20" x="524.326172"/>
      <use xlink:href="#ArialMT-28" x="552.109375"/>
      <use xlink:href="#ArialMT-6e" x="585.410156"/>
      <use xlink:href="#ArialMT-6d" x="641.025391"/>
      <use xlink:href="#ArialMT-29" x="724.326172"/>
     </g>
    </g>
   </g>
   <g id="matplotlib.axis_2">
    <g id="ytick_1">
     <g id="line2d_12">
      <defs>
       <path id="m9276b990b9" d="M 0 0 
L 6 0 
" style="stroke: #262626; stroke-width: 1.25"/>
      </defs>
      <g>
       <use xlink:href="#m9276b990b9" x="47.368281" y="277.248797" style="fill: #262626; stroke: #262626; stroke-width: 1.25"/>
      </g>
     </g>
     <g id="text_8">
      <!-- 0.00 -->
      <g style="fill: #262626" transform="translate(22.46125 281.185594) scale(0.11 -0.11)">
       <defs>
        <path id="ArialMT-2e" d="M 581 0 
L 581 641 
L 1222 641 
L 1222 0 
L 581 0 
z
" transform="scale(0.015625)"/>
       </defs>
       <use xlink:href="#ArialMT-30"/>
       <use xlink:href="#ArialMT-2e" x="55.615234"/>
       <use xlink:href="#ArialMT-30" x="83.398438"/>
       <use xlink:href="#ArialMT-30" x="139.013672"/>
      </g>
     </g>
    </g>
    <g id="ytick_2">
     <g id="line2d_13">
      <g>
       <use xlink:href="#m9276b990b9" x="47.368281" y="247.680797" style="fill: #262626; stroke: #262626; stroke-width: 1.25"/>
      </g>
     </g>
     <g id="text_9">
      <!-- 0.05 -->
      <g style="fill: #262626" transform="translate(22.46125 251.617594) scale(0.11 -0.11)">
       <defs>
        <path id="ArialMT-35" d="M 266 1200 
L 856 1250 
Q 922 819 1161 601 
Q 1400 384 1738 384 
Q 2144 384 2425 690 
Q 2706 997 2706 1503 
Q 2706 1984 2436 2262 
Q 2166 2541 1728 2541 
Q 1456 2541 1237 2417 
Q 1019 2294 894 2097 
L 366 2166 
L 809 4519 
L 3088 4519 
L 3088 3981 
L 1259 3981 
L 1013 2750 
Q 1425 3038 1878 3038 
Q 2478 3038 2890 2622 
Q 3303 2206 3303 1553 
Q 3303 931 2941 478 
Q 2500 -78 1738 -78 
Q 1113 -78 717 272 
Q 322 622 266 1200 
z
" transform="scale(0.015625)"/>
       </defs>
       <use xlink:href="#ArialMT-30"/>
       <use xlink:href="#ArialMT-2e" x="55.615234"/>
       <use xlink:href="#ArialMT-30" x="83.398438"/>
       <use xlink:href="#ArialMT-35" x="139.013672"/>
      </g>
     </g>
    </g>
    <g id="ytick_3">
     <g id="line2d_14">
      <g>
       <use xlink:href="#m9276b990b9" x="47.368281" y="218.112797" style="fill: #262626; stroke: #262626; stroke-width: 1.25"/>
      </g>
     </g>
     <g id="text_10">
      <!-- 0.10 -->
      <g style="fill: #262626" transform="translate(22.46125 222.049594) scale(0.11 -0.11)">
       <use xlink:href="#ArialMT-30"/>
       <use xlink:href="#ArialMT-2e" x="55.615234"/>
       <use xlink:href="#ArialMT-31" x="83.398438"/>
       <use xlink:href="#ArialMT-30" x="139.013672"/>
      </g>
     </g>
    </g>
    <g id="ytick_4">
     <g id="line2d_15">
      <g>
       <use xlink:href="#m9276b990b9" x="47.368281" y="188.544797" style="fill: #262626; stroke: #262626; stroke-width: 1.25"/>
      </g>
     </g>
     <g id="text_11">
      <!-- 0.15 -->
      <g style="fill: #262626" transform="translate(22.46125 192.481594) scale(0.11 -0.11)">
       <use xlink:href="#ArialMT-30"/>
       <use xlink:href="#ArialMT-2e" x="55.615234"/>
       <use xlink:href="#ArialMT-31" x="83.398438"/>
       <use xlink:href="#ArialMT-35" x="139.013672"/>
      </g>
     </g>
    </g>
    <g id="ytick_5">
     <g id="line2d_16">
      <g>
       <use xlink:href="#m9276b990b9" x="47.368281" y="158.976797" style="fill: #262626; stroke: #262626; stroke-width: 1.25"/>
      </g>
     </g>
     <g id="text_12">
      <!-- 0.20 -->
      <g style="fill: #262626" transform="translate(22.46125 162.913594) scale(0.11 -0.11)">
       <use xlink:href="#ArialMT-30"/>
       <use xlink:href="#ArialMT-2e" x="55.615234"/>
       <use xlink:href="#ArialMT-32" x="83.398438"/>
       <use xlink:href="#ArialMT-30" x="139.013672"/>
      </g>
     </g>
    </g>
    <g id="ytick_6">
     <g id="line2d_17">
      <g>
       <use xlink:href="#m9276b990b9" x="47.368281" y="129.408797" style="fill: #262626; stroke: #262626; stroke-width: 1.25"/>
      </g>
     </g>
     <g id="text_13">
      <!-- 0.25 -->
      <g style="fill: #262626" transform="translate(22.46125 133.345594) scale(0.11 -0.11)">
       <use xlink:href="#ArialMT-30"/>
       <use xlink:href="#ArialMT-2e" x="55.615234"/>
       <use xlink:href="#ArialMT-32" x="83.398438"/>
       <use xlink:href="#ArialMT-35" x="139.013672"/>
      </g>
     </g>
    </g>
    <g id="ytick_7">
     <g id="line2d_18">
      <g>
       <use xlink:href="#m9276b990b9" x="47.368281" y="99.840797" style="fill: #262626; stroke: #262626; stroke-width: 1.25"/>
      </g>
     </g>
     <g id="text_14">
      <!-- 0.30 -->
      <g style="fill: #262626" transform="translate(22.46125 103.777594) scale(0.11 -0.11)">
       <defs>
        <path id="ArialMT-33" d="M 269 1209 
L 831 1284 
Q 928 806 1161 595 
Q 1394 384 1728 384 
Q 2125 384 2398 659 
Q 2672 934 2672 1341 
Q 2672 1728 2419 1979 
Q 2166 2231 1775 2231 
Q 1616 2231 1378 2169 
L 1441 2663 
Q 1497 2656 1531 2656 
Q 1891 2656 2178 2843 
Q 2466 3031 2466 3422 
Q 2466 3731 2256 3934 
Q 2047 4138 1716 4138 
Q 1388 4138 1169 3931 
Q 950 3725 888 3313 
L 325 3413 
Q 428 3978 793 4289 
Q 1159 4600 1703 4600 
Q 2078 4600 2393 4439 
Q 2709 4278 2876 4000 
Q 3044 3722 3044 3409 
Q 3044 3113 2884 2869 
Q 2725 2625 2413 2481 
Q 2819 2388 3044 2092 
Q 3269 1797 3269 1353 
Q 3269 753 2831 336 
Q 2394 -81 1725 -81 
Q 1122 -81 723 278 
Q 325 638 269 1209 
z
" transform="scale(0.015625)"/>
       </defs>
       <use xlink:href="#ArialMT-30"/>
       <use xlink:href="#ArialMT-2e" x="55.615234"/>
       <use xlink:href="#ArialMT-33" x="83.398438"/>
       <use xlink:href="#ArialMT-30" x="139.013672"/>
      </g>
     </g>
    </g>
    <g id="ytick_8">
     <g id="line2d_19">
      <g>
       <use xlink:href="#m9276b990b9" x="47.368281" y="70.272797" style="fill: #262626; stroke: #262626; stroke-width: 1.25"/>
      </g>
     </g>
     <g id="text_15">
      <!-- 0.35 -->
      <g style="fill: #262626" transform="translate(22.46125 74.209594) scale(0.11 -0.11)">
       <use xlink:href="#ArialMT-30"/>
       <use xlink:href="#ArialMT-2e" x="55.615234"/>
       <use xlink:href="#ArialMT-33" x="83.398438"/>
       <use xlink:href="#ArialMT-35" x="139.013672"/>
      </g>
     </g>
    </g>
    <g id="ytick_9">
     <g id="line2d_20">
      <g>
       <use xlink:href="#m9276b990b9" x="47.368281" y="40.704797" style="fill: #262626; stroke: #262626; stroke-width: 1.25"/>
      </g>
     </g>
     <g id="text_16">
      <!-- 0.40 -->
      <g style="fill: #262626" transform="translate(22.46125 44.641594) scale(0.11 -0.11)">
       <use xlink:href="#ArialMT-30"/>
       <use xlink:href="#ArialMT-2e" x="55.615234"/>
       <use xlink:href="#ArialMT-34" x="83.398438"/>
       <use xlink:href="#ArialMT-30" x="139.013672"/>
      </g>
     </g>
    </g>
    <g id="ytick_10">
     <g id="line2d_21">
      <g>
       <use xlink:href="#m9276b990b9" x="47.368281" y="11.136797" style="fill: #262626; stroke: #262626; stroke-width: 1.25"/>
      </g>
     </g>
     <g id="text_17">
      <!-- 0.45 -->
      <g style="fill: #262626" transform="translate(22.46125 15.073594) scale(0.11 -0.11)">
       <use xlink:href="#ArialMT-30"/>
       <use xlink:href="#ArialMT-2e" x="55.615234"/>
       <use xlink:href="#ArialMT-34" x="83.398438"/>
       <use xlink:href="#ArialMT-35" x="139.013672"/>
      </g>
     </g>
    </g>
    <g id="ytick_11">
     <g id="line2d_22">
      <defs>
       <path id="ma338777722" d="M 0 0 
L 4 0 
" style="stroke: #262626"/>
      </defs>
      <g>
       <use xlink:href="#ma338777722" x="47.368281" y="262.464797" style="fill: #262626; stroke: #262626"/>
      </g>
     </g>
    </g>
    <g id="ytick_12">
     <g id="line2d_23">
      <g>
       <use xlink:href="#ma338777722" x="47.368281" y="232.896797" style="fill: #262626; stroke: #262626"/>
      </g>
     </g>
    </g>
    <g id="ytick_13">
     <g id="line2d_24">
      <g>
       <use xlink:href="#ma338777722" x="47.368281" y="203.328797" style="fill: #262626; stroke: #262626"/>
      </g>
     </g>
    </g>
    <g id="ytick_14">
     <g id="line2d_25">
      <g>
       <use xlink:href="#ma338777722" x="47.368281" y="173.760797" style="fill: #262626; stroke: #262626"/>
      </g>
     </g>
    </g>
    <g id="ytick_15">
     <g id="line2d_26">
      <g>
       <use xlink:href="#ma338777722" x="47.368281" y="144.192797" style="fill: #262626; stroke: #262626"/>
      </g>
     </g>
    </g>
    <g id="ytick_16">
     <g id="line2d_27">
      <g>
       <use xlink:href="#ma338777722" x="47.368281" y="114.624797" style="fill: #262626; stroke: #262626"/>
      </g>
     </g>
    </g>
    <g id="ytick_17">
     <g id="line2d_28">
      <g>
       <use xlink:href="#ma338777722" x="47.368281" y="85.056797" style="fill: #262626; stroke: #262626"/>
      </g>
     </g>
    </g>
    <g id="ytick_18">
     <g id="line2d_29">
      <g>
       <use xlink:href="#ma338777722" x="47.368281" y="55.488797" style="fill: #262626; stroke: #262626"/>
      </g>
     </g>
    </g>
    <g id="ytick_19">
     <g id="line2d_30">
      <g>
       <use xlink:href="#ma338777722" x="47.368281" y="25.920797" style="fill: #262626; stroke: #262626"/>
      </g>
     </g>
    </g>
    <g id="text_18">
     <!-- Absorbance (a.u.) -->
     <g style="fill: #262626" transform="translate(15.935625 191.881547) rotate(-90) scale(0.12 -0.12)">
      <defs>
       <path id="ArialMT-41" d="M -9 0 
L 1750 4581 
L 2403 4581 
L 4278 0 
L 3588 0 
L 3053 1388 
L 1138 1388 
L 634 0 
L -9 0 
z
M 1313 1881 
L 2866 1881 
L 2388 3150 
Q 2169 3728 2063 4100 
Q 1975 3659 1816 3225 
L 1313 1881 
z
" transform="scale(0.015625)"/>
       <path id="ArialMT-62" d="M 941 0 
L 419 0 
L 419 4581 
L 981 4581 
L 981 2947 
Q 1338 3394 1891 3394 
Q 2197 3394 2470 3270 
Q 2744 3147 2920 2923 
Q 3097 2700 3197 2384 
Q 3297 2069 3297 1709 
Q 3297 856 2875 390 
Q 2453 -75 1863 -75 
Q 1275 -75 941 416 
L 941 0 
z
M 934 1684 
Q 934 1088 1097 822 
Q 1363 388 1816 388 
Q 2184 388 2453 708 
Q 2722 1028 2722 1663 
Q 2722 2313 2464 2622 
Q 2206 2931 1841 2931 
Q 1472 2931 1203 2611 
Q 934 2291 934 1684 
z
" transform="scale(0.015625)"/>
       <path id="ArialMT-73" d="M 197 991 
L 753 1078 
Q 800 744 1014 566 
Q 1228 388 1613 388 
Q 2000 388 2187 545 
Q 2375 703 2375 916 
Q 2375 1106 2209 1216 
Q 2094 1291 1634 1406 
Q 1016 1563 777 1677 
Q 538 1791 414 1992 
Q 291 2194 291 2438 
Q 291 2659 392 2848 
Q 494 3038 669 3163 
Q 800 3259 1026 3326 
Q 1253 3394 1513 3394 
Q 1903 3394 2198 3281 
Q 2494 3169 2634 2976 
Q 2775 2784 2828 2463 
L 2278 2388 
Q 2241 2644 2061 2787 
Q 1881 2931 1553 2931 
Q 1166 2931 1000 2803 
Q 834 2675 834 2503 
Q 834 2394 903 2306 
Q 972 2216 1119 2156 
Q 1203 2125 1616 2013 
Q 2213 1853 2448 1751 
Q 2684 1650 2818 1456 
Q 2953 1263 2953 975 
Q 2953 694 2789 445 
Q 2625 197 2315 61 
Q 2006 -75 1616 -75 
Q 969 -75 630 194 
Q 291 463 197 991 
z
" transform="scale(0.015625)"/>
       <path id="ArialMT-6f" d="M 213 1659 
Q 213 2581 725 3025 
Q 1153 3394 1769 3394 
Q 2453 3394 2887 2945 
Q 3322 2497 3322 1706 
Q 3322 1066 3130 698 
Q 2938 331 2570 128 
Q 2203 -75 1769 -75 
Q 1072 -75 642 372 
Q 213 819 213 1659 
z
M 791 1659 
Q 791 1022 1069 705 
Q 1347 388 1769 388 
Q 2188 388 2466 706 
Q 2744 1025 2744 1678 
Q 2744 2294 2464 2611 
Q 2184 2928 1769 2928 
Q 1347 2928 1069 2612 
Q 791 2297 791 1659 
z
" transform="scale(0.015625)"/>
       <path id="ArialMT-72" d="M 416 0 
L 416 3319 
L 922 3319 
L 922 2816 
Q 1116 3169 1280 3281 
Q 1444 3394 1641 3394 
Q 1925 3394 2219 3213 
L 2025 2691 
Q 1819 2813 1613 2813 
Q 1428 2813 1281 2702 
Q 1134 2591 1072 2394 
Q 978 2094 978 1738 
L 978 0 
L 416 0 
z
" transform="scale(0.015625)"/>
       <path id="ArialMT-63" d="M 2588 1216 
L 3141 1144 
Q 3050 572 2676 248 
Q 2303 -75 1759 -75 
Q 1078 -75 664 370 
Q 250 816 250 1647 
Q 250 2184 428 2587 
Q 606 2991 970 3192 
Q 1334 3394 1763 3394 
Q 2303 3394 2647 3120 
Q 2991 2847 3088 2344 
L 2541 2259 
Q 2463 2594 2264 2762 
Q 2066 2931 1784 2931 
Q 1359 2931 1093 2626 
Q 828 2322 828 1663 
Q 828 994 1084 691 
Q 1341 388 1753 388 
Q 2084 388 2306 591 
Q 2528 794 2588 1216 
z
" transform="scale(0.015625)"/>
       <path id="ArialMT-75" d="M 2597 0 
L 2597 488 
Q 2209 -75 1544 -75 
Q 1250 -75 995 37 
Q 741 150 617 320 
Q 494 491 444 738 
Q 409 903 409 1263 
L 409 3319 
L 972 3319 
L 972 1478 
Q 972 1038 1006 884 
Q 1059 663 1231 536 
Q 1403 409 1656 409 
Q 1909 409 2131 539 
Q 2353 669 2445 892 
Q 2538 1116 2538 1541 
L 2538 3319 
L 3100 3319 
L 3100 0 
L 2597 0 
z
" transform="scale(0.015625)"/>
      </defs>
      <use xlink:href="#ArialMT-41"/>
      <use xlink:href="#ArialMT-62" x="66.699219"/>
      <use xlink:href="#ArialMT-73" x="122.314453"/>
      <use xlink:href="#ArialMT-6f" x="172.314453"/>
      <use xlink:href="#ArialMT-72" x="227.929688"/>
      <use xlink:href="#ArialMT-62" x="261.230469"/>
      <use xlink:href="#ArialMT-61" x="316.845703"/>
      <use xlink:href="#ArialMT-6e" x="372.460938"/>
      <use xlink:href="#ArialMT-63" x="428.076172"/>
      <use xlink:href="#ArialMT-65" x="478.076172"/>
      <use xlink:href="#ArialMT-20" x="533.691406"/>
      <use xlink:href="#ArialMT-28" x="561.474609"/>
      <use xlink:href="#ArialMT-61" x="594.775391"/>
      <use xlink:href="#ArialMT-2e" x="650.390625"/>
      <use xlink:href="#ArialMT-75" x="678.173828"/>
      <use xlink:href="#ArialMT-2e" x="733.789062"/>
      <use xlink:href="#ArialMT-29" x="761.572266"/>
     </g>
    </g>
   </g>
   <g id="PolyCollection_1"/>
   <g id="PolyCollection_2"/>
   <g id="PolyCollection_3"/>
   <g id="PolyCollection_4"/>
   <g id="line2d_31">
    <path d="M 47.368281 230.150022 
L 47.801157 228.969987 
L 48.666899 226.237917 
L 49.749085 221.835039 
L 51.480569 212.879427 
L 52.99563 203.156673 
L 54.727114 190.678228 
L 57.107918 172.251761 
L 60.570896 147.92697 
L 61.653081 142.401551 
L 62.518823 139.028707 
L 63.168132 136.923946 
L 64.466751 134.275329 
L 65.548936 133.29826 
L 66.414678 133.381691 
L 67.063987 134.048192 
L 67.713296 135.226764 
L 68.579048 137.677632 
L 69.44479 140.693522 
L 71.392718 148.903308 
L 72.907769 154.765987 
L 74.42283 158.6556 
L 74.855696 159.33909 
L 75.721448 160.067582 
L 76.154324 160.173546 
L 76.803633 159.971902 
L 78.102251 158.289754 
L 80.050179 153.155347 
L 80.699488 150.982505 
L 81.998106 145.914391 
L 83.72959 137.814561 
L 85.677518 127.189754 
L 88.274754 111.325123 
L 97.365081 50.859597 
L 98.447266 44.873445 
L 99.745885 38.559612 
L 100.82807 34.235782 
L 101.910245 30.703547 
L 102.775997 28.466562 
L 103.641739 26.809775 
L 104.291048 25.87213 
L 104.723924 25.474588 
L 105.806099 25.154926 
L 106.671851 25.835966 
L 107.321161 26.877856 
L 107.97047 28.492769 
L 108.619779 30.609259 
L 109.269088 33.339342 
L 110.351263 39.066282 
L 111.433448 46.459032 
L 112.732066 56.8786 
L 114.463561 72.658266 
L 118.359415 111.961822 
L 120.523766 136.354685 
L 122.25527 157.818385 
L 126.800433 216.214794 
L 128.315475 232.508836 
L 129.39767 242.24846 
L 130.479845 250.286233 
L 131.56204 256.762316 
L 132.644215 261.795963 
L 133.72639 265.691023 
L 134.808585 268.670868 
L 136.54007 271.777182 
L 138.70444 274.070048 
L 140.86879 275.204807 
L 143.68247 275.956994 
L 144.331779 276.005914 
L 145.413954 276.16301 
L 147.794767 276.340013 
L 148.444076 276.413157 
L 149.093385 276.402253 
L 149.959118 276.484822 
L 151.041313 276.492145 
L 151.907045 276.523157 
L 154.071415 276.555515 
L 155.370033 276.599671 
L 157.96727 276.626665 
L 159.049445 276.636531 
L 162.728876 276.624885 
L 165.10967 276.601237 
L 165.975422 276.62803 
L 171.169894 276.567104 
L 180.476645 276.732386 
L 180.909531 276.735147 
L 181.775263 276.770039 
L 182.641015 276.735837 
L 187.402622 276.781664 
L 188.268354 276.726572 
L 189.783415 276.759933 
L 191.298476 276.730775 
L 191.514899 276.817977 
L 191.947785 276.747985 
L 192.380651 276.779579 
L 192.813518 276.747509 
L 193.462827 276.80893 
L 194.328579 276.778658 
L 194.761445 276.774104 
L 196.060063 276.786296 
L 197.142258 276.873525 
L 197.575124 276.856737 
L 198.440876 276.799545 
L 201.687422 276.845837 
L 201.903845 276.740009 
L 203.202463 276.77849 
L 205.15039 276.771634 
L 205.583276 276.770223 
L 207.098318 276.708349 
L 207.531204 276.762463 
L 208.180513 276.702274 
L 208.396936 276.82043 
L 208.829822 276.750163 
L 209.046245 276.82408 
L 209.695554 276.749871 
L 209.911997 276.806308 
L 210.12844 276.687654 
L 210.344863 276.791418 
L 210.561306 276.71858 
L 210.777749 276.80801 
L 211.859924 276.764089 
L 212.29279 276.751528 
L 212.509233 276.77487 
L 212.725676 276.679078 
L 213.158542 276.772478 
L 213.807851 276.757939 
L 214.024294 276.694619 
L 214.457161 276.735883 
L 214.673604 276.649221 
L 214.890027 276.703747 
L 215.10647 276.876223 
L 215.322913 276.725698 
L 217.054397 276.684125 
L 217.487263 276.654714 
L 217.703706 276.760899 
L 218.785881 276.701921 
L 219.218767 276.80548 
L 219.43519 276.661818 
L 219.651633 276.734288 
L 220.300942 276.687976 
L 220.517385 276.789133 
L 221.166694 276.738997 
L 221.383118 276.78556 
L 221.816004 276.648469 
L 222.032427 276.708563 
L 222.24887 276.622122 
L 222.465313 276.741175 
L 223.114622 276.612854 
L 223.331045 276.870397 
L 223.763931 276.611488 
L 224.196797 276.722477 
L 224.41324 276.66438 
L 224.846106 276.814527 
L 225.495415 276.602203 
L 225.711858 276.805219 
L 227.226899 276.661634 
L 227.443342 276.997027 
L 227.876209 276.495692 
L 228.092651 276.454328 
L 228.309094 276.803624 
L 228.525518 276.728781 
L 228.741961 276.868665 
L 228.958404 276.819418 
L 229.174827 276.595436 
L 229.39127 276.961046 
L 229.607713 276.446328 
L 230.040579 276.88096 
L 230.257022 276.946379 
L 230.473445 276.234529 
L 230.689888 276.834997 
L 230.906331 276.330134 
L 231.122754 276.726572 
L 231.339197 276.812073 
L 231.55564 276.67176 
L 231.772063 276.941597 
L 231.988506 276.610797 
L 232.637815 276.661357 
L 232.854258 276.450781 
L 233.070681 276.835303 
L 233.287124 276.851264 
L 233.503567 276.702719 
L 233.71999 276.387093 
L 233.936433 276.931283 
L 234.369299 276.872727 
L 234.585742 276.451533 
L 234.802185 277.163089 
L 235.018609 276.718105 
L 235.235051 276.656586 
L 235.451494 276.440661 
L 235.667918 276.387155 
L 235.884361 276.705495 
L 236.100804 275.830527 
L 236.317227 277.2044 
L 236.53367 276.749319 
L 236.750113 276.925811 
L 236.966536 276.63314 
L 237.399422 276.795205 
L 237.615845 276.192601 
L 237.832288 276.823742 
L 238.265154 276.623642 
L 238.481597 276.238018 
L 238.69804 277.31097 
L 238.914463 276.907923 
L 239.130906 277.312409 
L 239.563772 276.188328 
L 239.780215 276.893852 
L 239.996658 276.344283 
L 240.213081 276.752908 
L 240.429524 276.503752 
L 240.645967 277.268605 
L 241.078833 275.166012 
L 241.295276 277.500703 
L 241.511699 275.633441 
L 241.728142 277.542358 
L 241.944566 276.677789 
L 243.243184 276.653302 
L 245.84042 276.604812 
L 253.415686 276.377755 
L 254.714304 276.37519 
L 264.453941 276.158905 
L 267.484063 276.097252 
L 296.486549 276.112751 
L 297.135858 276.110091 
L 298.00159 276.145684 
L 298.867323 276.118379 
L 300.598827 276.108569 
L 301.031713 276.139535 
L 309.472731 276.144716 
L 310.12204 276.163609 
L 312.935699 276.163609 
L 315.10005 276.189619 
L 315.965822 276.230595 
L 316.615131 276.258641 
L 317.26444 276.330457 
L 319.212367 276.373715 
L 323.108222 276.176399 
L 324.40684 276.192478 
L 338.258754 276.248222 
L 340.423104 276.204405 
L 345.617577 276.131924 
L 347.781967 276.087672 
L 352.110668 276.118994 
L 354.491481 276.114012 
L 357.305141 276.087103 
L 361.850304 276.077 
L 363.581809 276.082459 
L 367.26124 276.097129 
L 368.126972 276.101235 
L 369.209167 276.096514 
L 373.970754 276.103003 
L 376.351567 276.07434 
L 377.433723 276.099297 
L 380.463845 276.105002 
L 381.329577 276.082736 
L 382.628195 276.087503 
L 391.285676 276.082413 
L 391.718523 276.077477 
L 393.233604 276.110875 
L 394.099336 276.07883 
L 396.047263 276.015881 
L 397.99519 275.911511 
L 401.458159 275.712361 
L 401.891045 275.726082 
L 404.488281 275.760435 
L 404.488281 275.760435 
" clip-path="url(#p29862df73b)" style="fill: none; stroke: #f69c73; stroke-linecap: round"/>
   </g>
   <g id="line2d_32">
    <path d="M 47.368281 249.736023 
L 47.584714 249.647441 
L 48.883332 247.797678 
L 49.316209 247.339847 
L 49.965518 246.164491 
L 50.614827 245.114261 
L 51.264136 243.891091 
L 52.346321 241.615996 
L 54.510681 236.045777 
L 55.376423 233.379051 
L 56.242175 230.44902 
L 57.757227 225.1765 
L 59.705154 217.382149 
L 61.003772 211.687245 
L 62.085957 206.639592 
L 67.063987 180.929259 
L 70.526975 160.007009 
L 75.505015 126.837981 
L 80.699488 86.497188 
L 82.863848 71.76944 
L 84.378899 63.14009 
L 85.461085 57.967299 
L 86.326827 54.462645 
L 86.976136 52.07117 
L 87.841888 49.498257 
L 88.70763 47.42551 
L 88.924063 47.090867 
L 89.356939 46.194639 
L 90.006248 45.376907 
L 90.439124 44.851274 
L 91.088433 44.403874 
L 91.737742 44.213342 
L 92.387051 44.296915 
L 93.68567 45.139584 
L 94.984288 47.00021 
L 96.066463 49.188851 
L 97.148648 51.972811 
L 99.096575 58.330686 
L 99.745885 60.764036 
L 101.044503 66.18543 
L 103.425306 77.724979 
L 104.940357 86.022594 
L 106.671851 96.410756 
L 108.619779 109.00254 
L 111.000572 125.53568 
L 113.814251 145.927583 
L 118.359415 179.200936 
L 121.822384 203.405518 
L 123.986754 217.240312 
L 126.151124 229.488579 
L 127.449742 236.070177 
L 128.964784 242.789424 
L 130.263402 247.740949 
L 131.994906 253.19498 
L 133.077081 256.053132 
L 134.375699 259.087677 
L 136.107204 262.067413 
L 136.972936 263.463136 
L 139.137306 266.093951 
L 140.435924 267.345528 
L 143.249604 269.42388 
L 145.197531 270.401842 
L 148.227633 271.564862 
L 149.742694 271.991406 
L 150.392004 272.12824 
L 155.15359 273.141946 
L 158.833022 273.73745 
L 159.265888 273.745194 
L 160.997372 273.933826 
L 164.893227 274.317332 
L 165.326113 274.382185 
L 165.975422 274.447842 
L 166.408288 274.513575 
L 166.841154 274.510852 
L 167.27404 274.571 
L 169.654833 274.8085 
L 170.087699 274.829532 
L 173.334245 275.036145 
L 178.961604 275.491495 
L 179.39447 275.537792 
L 180.693088 275.667282 
L 182.208149 275.769488 
L 182.857458 275.755015 
L 184.372499 275.882211 
L 185.454694 275.970532 
L 185.887561 275.967824 
L 186.753313 276.084827 
L 187.402622 276.087887 
L 197.358681 276.698976 
L 197.791567 276.745945 
L 198.657299 276.764488 
L 199.306609 276.817977 
L 200.388804 276.813591 
L 200.82167 276.876514 
L 202.120288 276.939161 
L 204.284658 277.06764 
L 204.717524 277.057729 
L 204.933967 277.131129 
L 205.366833 277.118509 
L 206.016142 277.125232 
L 206.665451 277.170852 
L 207.098318 277.11592 
L 207.96407 277.238326 
L 208.180513 277.132338 
L 208.396936 277.313755 
L 208.829822 277.278707 
L 209.046245 277.350177 
L 209.262688 277.181249 
L 209.479131 277.299339 
L 210.12844 277.192458 
L 210.344863 277.33668 
L 212.725676 277.33619 
L 213.374985 277.474795 
L 213.807851 277.363856 
L 215.755779 277.442308 
L 215.972222 277.391672 
L 216.188645 277.469473 
L 216.621531 277.436128 
L 218.136572 277.4818 
L 218.569458 277.450904 
L 218.785881 277.414467 
L 219.002324 277.581284 
L 219.218767 277.59596 
L 219.43519 277.400545 
L 219.651633 277.536669 
L 223.114622 277.425084 
L 223.547488 277.60339 
L 223.763931 277.341516 
L 224.629663 277.486786 
L 225.062549 277.389683 
L 225.278972 277.566882 
L 225.495415 277.391458 
L 225.928281 277.572998 
L 226.57759 277.514374 
L 227.010476 277.32759 
L 227.443342 277.695675 
L 228.092651 277.322724 
L 228.309094 277.61568 
L 228.525518 277.474704 
L 228.958404 277.594615 
L 229.174827 277.416731 
L 229.39127 277.683816 
L 229.607713 277.487673 
L 230.040579 277.808121 
L 230.257022 277.810595 
L 230.473445 277.308307 
L 230.689888 277.93496 
L 230.906331 277.526914 
L 231.122754 277.619624 
L 231.339197 278.021938 
L 231.772063 278.135766 
L 232.204949 277.628979 
L 232.637815 277.812031 
L 232.854258 277.795656 
L 233.070681 277.357062 
L 233.503567 277.8708 
L 233.71999 277.430988 
L 234.152876 277.747198 
L 234.369299 277.814719 
L 234.585742 277.433314 
L 234.802185 278.14196 
L 235.018609 277.615925 
L 235.667918 277.542052 
L 235.884361 278.233777 
L 236.100804 277.063167 
L 236.317227 277.463753 
L 236.750113 277.208748 
L 237.182979 278.014154 
L 237.615845 277.301114 
L 237.832288 277.431937 
L 238.048731 277.322326 
L 238.265154 276.690569 
L 238.69804 277.480087 
L 238.914463 277.404829 
L 239.130906 277.885154 
L 239.563772 276.505134 
L 239.996658 278.360285 
L 240.213081 278.033903 
L 240.429524 277.379646 
L 240.645967 277.960211 
L 240.86239 278.062165 
L 241.078833 276.615156 
L 241.295276 277.384695 
L 241.511699 276.786986 
L 241.728142 277.874282 
L 241.944566 276.960846 
L 244.541802 276.906452 
L 248.654099 276.787799 
L 249.736275 276.785161 
L 250.385584 276.730499 
L 255.363613 276.660928 
L 262.28959 276.597876 
L 263.371766 276.514928 
L 264.021075 276.512211 
L 270.081299 276.38886 
L 271.596341 276.256152 
L 272.24565 276.245625 
L 275.059329 276.080768 
L 280.037359 276.10085 
L 281.335977 276.121192 
L 282.418172 276.158352 
L 283.067481 276.173186 
L 287.179759 276.256844 
L 290.209881 276.303909 
L 291.075613 276.368815 
L 294.755045 276.361949 
L 301.897445 276.395295 
L 302.113868 276.309609 
L 302.330331 276.445744 
L 302.97964 276.39849 
L 304.278258 276.407398 
L 305.793299 276.397015 
L 306.442609 276.481152 
L 308.823422 276.485804 
L 311.420658 276.562038 
L 311.853504 276.632465 
L 313.585009 277.247281 
L 314.234318 277.456319 
L 315.10005 278.150136 
L 315.965822 278.898184 
L 316.398668 279.654221 
L 317.480863 281.916012 
L 318.779481 284.192568 
L 319.212367 284.50015 
L 319.645213 284.24355 
L 320.510985 282.956299 
L 321.593141 280.625141 
L 322.24245 279.838291 
L 322.675336 279.451139 
L 325.705458 277.408072 
L 327.004076 277.107772 
L 328.735541 276.993671 
L 329.601313 276.934747 
L 331.54924 276.971926 
L 335.228632 276.829201 
L 342.587494 276.635442 
L 344.102536 276.621493 
L 347.781967 276.522727 
L 348.864123 276.518643 
L 351.894245 276.405386 
L 356.222985 276.147037 
L 359.036645 276.073525 
L 360.11884 276.051025 
L 366.828354 276.059238 
L 367.694086 276.078 
L 369.642013 276.162979 
L 370.507785 276.165792 
L 370.940632 276.165546 
L 371.589941 276.216363 
L 372.672136 276.369107 
L 375.485795 276.23456 
L 376.351567 276.23038 
L 377.650185 276.246056 
L 378.299494 276.263774 
L 380.030959 276.272164 
L 381.329577 276.121285 
L 382.628195 276.32783 
L 383.926813 276.162626 
L 385.874741 276.300114 
L 386.52405 276.3637 
L 389.770595 276.01805 
L 389.987058 276.133139 
L 391.069213 276.092593 
L 392.584294 276.27135 
L 393.233604 276.477682 
L 393.882913 276.508404 
L 394.315759 276.559828 
L 395.397954 276.383392 
L 397.129458 276.055685 
L 398.211613 275.883027 
L 400.376004 275.409716 
L 400.80885 275.450678 
L 401.241736 275.451757 
L 401.674622 275.541875 
L 402.107468 275.849598 
L 402.756777 276.088472 
L 404.488281 277.415048 
L 404.488281 277.415048 
" clip-path="url(#p29862df73b)" style="fill: none; stroke: #e83f3f; stroke-linecap: round"/>
   </g>
   <g id="line2d_33">
    <path d="M 47.368281 251.832071 
L 47.801157 251.364383 
L 48.234023 250.541345 
L 49.749085 247.786346 
L 50.614827 245.789747 
L 52.99563 239.429931 
L 54.294248 235.104378 
L 58.622969 217.493928 
L 63.601009 194.910969 
L 64.466751 192.05299 
L 68.579048 180.587241 
L 69.44479 178.836861 
L 70.310532 177.908698 
L 71.176285 177.731516 
L 71.392718 177.91136 
L 71.825594 177.935266 
L 73.124212 178.858979 
L 74.206387 179.211334 
L 74.639263 179.08468 
L 75.505015 178.358425 
L 76.803633 175.863427 
L 79.184427 168.415795 
L 81.348797 161.411722 
L 82.430972 158.506307 
L 84.162466 155.252001 
L 84.811775 154.442386 
L 85.461085 153.839648 
L 86.110394 153.58456 
L 86.326827 153.602765 
L 86.54327 153.46989 
L 87.625445 153.768633 
L 88.491197 154.341004 
L 89.789815 156.02176 
L 91.737742 159.54462 
L 94.118536 165.344919 
L 98.01439 176.87622 
L 101.693812 188.4906 
L 113.164942 224.5839 
L 119.874456 243.543264 
L 120.956651 246.197265 
L 122.038827 248.911399 
L 125.718238 256.956267 
L 128.315475 261.582091 
L 130.479845 264.630824 
L 131.778463 266.104934 
L 132.427772 266.707025 
L 133.077081 267.32852 
L 134.808585 268.781655 
L 135.241451 268.959864 
L 135.890761 269.424953 
L 137.405822 270.20089 
L 139.137306 271.004229 
L 141.301676 271.788879 
L 141.518099 271.81335 
L 141.950985 271.975922 
L 142.816718 272.202969 
L 143.898913 272.407244 
L 144.764645 272.593556 
L 148.01119 273.145135 
L 148.227633 273.098949 
L 148.660499 273.224652 
L 159.915197 274.375049 
L 163.161742 274.570969 
L 168.356215 274.92475 
L 169.005524 274.92753 
L 170.304142 275.016196 
L 171.169894 274.980955 
L 174.632863 275.183096 
L 175.282172 275.164222 
L 176.364367 275.245648 
L 177.446542 275.311115 
L 183.72319 275.612474 
L 185.021809 275.616603 
L 185.671118 275.671918 
L 185.887561 275.592338 
L 186.753313 275.708003 
L 187.402622 275.663262 
L 188.268354 275.645117 
L 189.134106 275.595774 
L 190.432724 275.647089 
L 191.731342 275.566946 
L 192.164209 275.601521 
L 196.492949 275.763545 
L 199.955918 276.110445 
L 200.388804 276.088303 
L 200.82167 276.111214 
L 204.501081 276.346495 
L 205.799699 276.315539 
L 206.232585 276.436193 
L 207.098318 276.404833 
L 210.344863 276.528038 
L 210.561306 276.505149 
L 210.777749 276.627463 
L 211.643481 276.56365 
L 212.076367 276.635979 
L 212.29279 276.598566 
L 212.509233 276.733306 
L 212.725676 276.608495 
L 213.374985 276.70301 
L 213.807851 276.618593 
L 214.240718 276.737156 
L 214.673604 276.697273 
L 215.539336 276.744978 
L 215.755779 276.655082 
L 216.188645 276.754181 
L 216.405088 276.651323 
L 216.837954 276.779349 
L 217.054397 276.658135 
L 217.487263 276.70953 
L 217.920149 276.814772 
L 218.569458 276.705495 
L 218.785881 276.800864 
L 219.002324 276.715973 
L 219.218767 276.766497 
L 219.43519 276.674537 
L 219.868076 276.758813 
L 220.084499 276.672604 
L 220.733809 276.781864 
L 221.166694 276.701369 
L 222.032427 276.821565 
L 222.681736 276.652458 
L 223.114622 276.665822 
L 223.547488 276.771588 
L 223.763931 276.538461 
L 224.196797 276.746205 
L 224.41324 276.613621 
L 224.629663 276.803179 
L 224.846106 276.691198 
L 225.495415 276.736527 
L 226.144724 276.728612 
L 226.57759 276.702044 
L 227.226899 276.600423 
L 227.443342 276.876882 
L 227.659785 276.679477 
L 227.876209 276.77188 
L 228.092651 276.443656 
L 228.309094 276.708594 
L 228.525518 276.530709 
L 228.741961 277.060456 
L 229.174827 276.454036 
L 229.39127 276.911924 
L 229.607713 276.364376 
L 229.824136 277.060517 
L 230.040579 276.468501 
L 230.257022 276.952157 
L 230.473445 276.220083 
L 230.689888 277.006864 
L 231.122754 276.48083 
L 231.339197 276.825276 
L 231.772063 276.928263 
L 232.204949 276.701921 
L 232.421372 277.006036 
L 232.637815 277.087875 
L 233.287124 276.832559 
L 233.503567 277.200113 
L 233.71999 276.36774 
L 233.936433 276.465875 
L 234.152876 276.794653 
L 234.369299 276.331317 
L 234.802185 277.016593 
L 235.018609 276.921994 
L 235.235051 276.056255 
L 235.451494 276.540181 
L 235.884361 276.685169 
L 236.100804 276.304739 
L 236.53367 276.510538 
L 236.750113 277.504129 
L 236.966536 276.749365 
L 237.182979 276.438174 
L 237.399422 277.407063 
L 237.615845 276.042967 
L 237.832288 276.087011 
L 238.048731 276.534931 
L 238.265154 275.873408 
L 238.481597 276.37115 
L 238.69804 276.581654 
L 238.914463 276.560596 
L 239.130906 277.166488 
L 239.347349 275.701859 
L 239.563772 275.818075 
L 239.780215 276.696199 
L 239.996658 276.641534 
L 240.213081 276.76415 
L 240.429524 277.113853 
L 241.078833 275.343981 
L 241.295276 275.974209 
L 241.511699 275.037859 
L 241.728142 276.444562 
L 241.944566 276.61626 
L 264.453941 276.103187 
L 267.916929 276.15457 
L 275.275772 275.591583 
L 277.007256 275.680975 
L 278.089432 275.703614 
L 289.776995 276.111767 
L 301.897445 276.238863 
L 302.113868 276.166761 
L 302.330331 276.309701 
L 302.97964 276.246793 
L 305.14399 276.257305 
L 308.606959 276.24143 
L 312.069967 276.392269 
L 313.585009 276.817041 
L 314.234318 277.00881 
L 315.532936 277.96534 
L 315.965822 278.347359 
L 316.615131 279.472113 
L 317.480863 281.034121 
L 318.779481 283.064011 
L 319.212367 283.35483 
L 319.42879 283.296794 
L 319.861676 282.846624 
L 320.943832 281.019278 
L 321.593141 279.757899 
L 322.24245 279.053522 
L 322.891759 278.567307 
L 323.757531 277.984909 
L 324.623263 277.347759 
L 325.488995 276.877633 
L 326.787613 276.567457 
L 327.436923 276.504474 
L 328.086232 276.497995 
L 328.735541 276.451026 
L 329.38485 276.398613 
L 331.54924 276.471986 
L 332.631395 276.421266 
L 334.146476 276.376065 
L 335.877941 276.406215 
L 341.288876 276.313834 
L 344.751845 276.221005 
L 354.707904 275.859864 
L 364.231118 275.631022 
L 365.313313 275.663478 
L 366.828354 275.657994 
L 367.477663 275.669731 
L 371.806404 275.841179 
L 372.672136 275.929437 
L 373.537868 275.91208 
L 373.754331 275.821092 
L 373.970754 275.907633 
L 374.836486 275.83573 
L 377.650185 275.807022 
L 378.299494 275.820953 
L 380.030959 275.820199 
L 381.762463 275.70825 
L 382.628195 275.818305 
L 383.71039 275.675245 
L 384.576123 275.660844 
L 385.874741 275.736291 
L 386.740513 275.753183 
L 388.039131 275.588718 
L 389.337749 275.436141 
L 391.069213 275.56425 
L 391.934985 275.563649 
L 394.748645 275.727699 
L 397.345881 275.123631 
L 398.644499 274.825328 
L 399.943118 274.4856 
L 400.592427 274.419427 
L 401.241736 274.460934 
L 402.323931 274.770665 
L 404.488281 275.717951 
L 404.488281 275.717951 
" clip-path="url(#p29862df73b)" style="fill: none; stroke: #a11a5b; stroke-linecap: round"/>
   </g>
   <g id="line2d_34">
    <path d="M 47.368281 249.225747 
L 47.584714 248.98725 
L 48.666899 245.980627 
L 49.316209 244.0836 
L 51.480569 235.69451 
L 53.861372 223.801659 
L 54.943557 216.739709 
L 58.839412 190.656031 
L 62.518823 164.876828 
L 63.168132 161.731834 
L 64.033885 158.802116 
L 64.466751 157.709416 
L 65.981812 155.259386 
L 67.28043 154.015403 
L 68.146172 154.069464 
L 68.579048 154.295217 
L 69.011914 155.074335 
L 69.44479 156.205252 
L 70.094099 158.759959 
L 70.959842 163.943545 
L 72.042027 172.576296 
L 74.42283 192.255012 
L 75.072139 196.244685 
L 75.721448 199.176711 
L 76.370757 201.363644 
L 77.020066 202.711916 
L 77.452942 203.243048 
L 78.102251 203.640035 
L 78.318685 203.467118 
L 78.967994 203.341164 
L 82.430972 200.074094 
L 84.162466 199.28279 
L 85.028209 199.309622 
L 85.893961 199.725211 
L 87.625445 201.429769 
L 88.491197 202.548446 
L 91.304866 207.629522 
L 102.343121 233.2464 
L 105.373233 239.107189 
L 108.403336 244.782209 
L 109.701954 247.022938 
L 111.000572 249.25069 
L 112.515633 251.673463 
L 114.247118 254.33537 
L 116.411488 257.231554 
L 119.874456 261.457475 
L 121.173075 262.772159 
L 122.904579 264.544579 
L 123.986754 265.542031 
L 124.636063 266.129633 
L 125.934681 267.237956 
L 130.046979 270.095483 
L 130.912731 270.544145 
L 132.211349 271.103243 
L 133.077081 271.387794 
L 133.72639 271.663989 
L 134.375699 272.01667 
L 134.808585 272.16111 
L 135.025009 272.096694 
L 136.323627 272.4997 
L 138.055131 272.972033 
L 138.271554 272.971955 
L 138.70444 273.137046 
L 139.570172 273.214887 
L 140.86879 273.527987 
L 141.518099 273.562154 
L 141.950985 273.702422 
L 142.816718 273.77463 
L 143.466027 273.894048 
L 144.548222 274.014976 
L 145.84684 274.123977 
L 146.496149 274.164727 
L 150.175561 274.513792 
L 150.608427 274.497654 
L 152.772797 274.779259 
L 153.854972 274.852293 
L 154.504281 274.910399 
L 155.15359 274.891783 
L 155.802899 274.976183 
L 156.668651 275.003827 
L 158.400136 275.141443 
L 159.049445 275.170179 
L 160.348063 275.241359 
L 160.780949 275.218756 
L 165.326113 275.483989 
L 165.758979 275.442816 
L 166.408288 275.504226 
L 167.057597 275.557516 
L 168.139772 275.700565 
L 170.087699 275.658765 
L 184.372499 276.157583 
L 185.887561 276.180457 
L 188.484797 276.138197 
L 189.350549 276.078753 
L 190.432724 276.025556 
L 191.731342 276.019173 
L 192.380651 276.101573 
L 197.575124 276.477513 
L 198.873742 276.626051 
L 199.090185 276.609309 
L 199.306609 276.72536 
L 199.523051 276.632634 
L 200.172361 276.705633 
L 204.284658 277.06617 
L 204.717524 277.074472 
L 205.15039 277.113148 
L 205.799699 277.052107 
L 206.232585 277.171388 
L 207.531204 277.219419 
L 214.890027 277.348524 
L 215.10647 277.518106 
L 215.539336 277.376005 
L 215.972222 277.422667 
L 216.837954 277.441635 
L 217.054397 277.327988 
L 217.703706 277.423217 
L 219.002324 277.416609 
L 219.43519 277.424441 
L 220.950251 277.43313 
L 221.599561 277.483819 
L 221.816004 277.318316 
L 222.032427 277.384053 
L 222.24887 277.290278 
L 222.465313 277.443501 
L 222.681736 277.281278 
L 223.547488 277.436434 
L 223.763931 277.218838 
L 223.980354 277.160654 
L 224.196797 277.429428 
L 225.278972 277.285503 
L 226.794033 277.274941 
L 227.010476 277.17292 
L 227.659785 277.369334 
L 227.876209 277.10186 
L 228.525518 277.511224 
L 228.741961 277.573762 
L 229.174827 277.275676 
L 229.39127 277.481739 
L 229.607713 277.060594 
L 229.824136 277.527342 
L 230.040579 277.139307 
L 230.257022 277.403666 
L 230.473445 277.222022 
L 230.689888 277.569237 
L 230.906331 277.142645 
L 231.122754 277.284982 
L 231.339197 277.703346 
L 231.55564 277.566576 
L 231.772063 277.608771 
L 231.988506 277.382278 
L 232.204949 277.675656 
L 232.637815 277.152477 
L 233.070681 277.496176 
L 233.503567 277.440748 
L 233.71999 277.065404 
L 233.936433 277.136045 
L 234.152876 277.382859 
L 234.369299 277.0734 
L 234.585742 277.076356 
L 234.802185 277.722263 
L 235.018609 277.463171 
L 235.235051 276.591936 
L 235.451494 276.890127 
L 235.667918 277.609352 
L 236.100804 276.717629 
L 236.317227 277.732806 
L 236.53367 277.002022 
L 236.750113 277.318745 
L 236.966536 277.902317 
L 237.182979 277.201445 
L 237.399422 277.63121 
L 237.615845 275.966794 
L 237.832288 277.342709 
L 238.048731 277.615069 
L 238.265154 276.715635 
L 238.481597 277.281064 
L 238.69804 277.527311 
L 238.914463 278.341689 
L 239.130906 277.183516 
L 239.347349 276.917871 
L 239.563772 275.817182 
L 239.780215 277.40691 
L 239.996658 277.027747 
L 240.429524 277.67538 
L 240.645967 277.035423 
L 240.86239 276.043182 
L 241.078833 275.886997 
L 241.295276 277.133548 
L 241.511699 276.922531 
L 241.728142 277.385766 
L 241.944566 276.891997 
L 243.243184 276.92037 
L 249.519832 276.768322 
L 250.169141 276.753552 
L 252.98282 276.713733 
L 255.363613 276.660222 
L 256.878675 276.636746 
L 262.28959 276.499269 
L 264.453941 276.492099 
L 267.700486 276.550849 
L 268.566238 276.532045 
L 269.864856 276.476684 
L 272.678536 276.333161 
L 274.41002 276.322991 
L 275.275772 276.276313 
L 276.141504 276.254523 
L 278.089432 276.26591 
L 278.522318 276.283504 
L 295.620777 276.531815 
L 297.135858 276.574686 
L 297.568704 276.570511 
L 299.083785 276.537679 
L 302.330331 276.614281 
L 303.196063 276.623304 
L 312.069967 276.725391 
L 313.368585 277.115231 
L 314.234318 277.262574 
L 315.10005 277.773476 
L 316.182245 278.661896 
L 318.995904 283.062724 
L 319.42879 283.159681 
L 319.861676 282.782661 
L 320.727409 281.485188 
L 321.809604 279.620946 
L 322.458913 279.008645 
L 324.839686 277.422208 
L 325.921881 276.977964 
L 327.436923 276.75958 
L 329.168427 276.662109 
L 331.116354 276.779072 
L 332.414972 276.80778 
L 333.064281 276.74484 
L 333.930013 276.733567 
L 337.609445 276.687593 
L 339.990258 276.617181 
L 344.751845 276.496828 
L 346.050463 276.458842 
L 348.647699 276.401116 
L 350.595627 276.369337 
L 353.842172 276.216778 
L 360.335263 275.976624 
L 361.200995 275.985762 
L 362.932499 275.959594 
L 364.231118 275.985639 
L 374.187177 276.176491 
L 375.918681 276.076062 
L 376.784413 276.1445 
L 377.650185 276.131509 
L 378.515918 276.126082 
L 379.814536 276.121823 
L 381.762463 275.951332 
L 382.628195 276.051302 
L 384.359699 275.82985 
L 386.307627 275.972717 
L 387.822668 275.80499 
L 389.770595 275.682946 
L 391.069213 275.749688 
L 392.151409 275.653266 
L 393.017141 275.838162 
L 394.748645 275.808299 
L 395.397954 275.494747 
L 396.047263 275.386866 
L 396.912995 275.169608 
L 401.241736 274.243713 
L 403.622549 274.656541 
L 404.271858 274.912639 
L 404.488281 274.862042 
L 404.488281 274.862042 
" clip-path="url(#p29862df73b)" style="fill: none; stroke: #4c1d4b; stroke-linecap: round"/>
   </g>
   <g id="line2d_35"/>
   <g id="line2d_36"/>
   <g id="line2d_37"/>
   <g id="line2d_38"/>
   <g id="patch_3">
    <path d="M 47.368281 277.248797 
L 47.368281 11.136797 
" style="fill: none; stroke: #262626; stroke-width: 1.25; stroke-linejoin: miter; stroke-linecap: square"/>
   </g>
   <g id="patch_4">
    <path d="M 47.368281 277.248797 
L 404.488281 277.248797 
" style="fill: none; stroke: #262626; stroke-width: 1.25; stroke-linejoin: miter; stroke-linecap: square"/>
   </g>
   <g id="legend_1">
    <g id="line2d_39">
     <path d="M 226.799406 45.415809 
L 232.799406 45.415809 
L 238.799406 45.415809 
" style="fill: none; stroke: #f69c73; stroke-width: 1.5; stroke-linecap: round"/>
    </g>
    <g id="text_19">
     <!-- imine polymer 0.0% TFA time = 1 min_Abs -->
     <g style="fill: #262626" transform="translate(243.599406 47.515809) scale(0.06 -0.06)">
      <defs>
       <path id="ArialMT-69" d="M 425 3934 
L 425 4581 
L 988 4581 
L 988 3934 
L 425 3934 
z
M 425 0 
L 425 3319 
L 988 3319 
L 988 0 
L 425 0 
z
" transform="scale(0.015625)"/>
       <path id="ArialMT-70" d="M 422 -1272 
L 422 3319 
L 934 3319 
L 934 2888 
Q 1116 3141 1344 3267 
Q 1572 3394 1897 3394 
Q 2322 3394 2647 3175 
Q 2972 2956 3137 2557 
Q 3303 2159 3303 1684 
Q 3303 1175 3120 767 
Q 2938 359 2589 142 
Q 2241 -75 1856 -75 
Q 1575 -75 1351 44 
Q 1128 163 984 344 
L 984 -1272 
L 422 -1272 
z
M 931 1641 
Q 931 1000 1190 694 
Q 1450 388 1819 388 
Q 2194 388 2461 705 
Q 2728 1022 2728 1688 
Q 2728 2322 2467 2637 
Q 2206 2953 1844 2953 
Q 1484 2953 1207 2617 
Q 931 2281 931 1641 
z
" transform="scale(0.015625)"/>
       <path id="ArialMT-79" d="M 397 -1278 
L 334 -750 
Q 519 -800 656 -800 
Q 844 -800 956 -737 
Q 1069 -675 1141 -563 
Q 1194 -478 1313 -144 
Q 1328 -97 1363 -6 
L 103 3319 
L 709 3319 
L 1400 1397 
Q 1534 1031 1641 628 
Q 1738 1016 1872 1384 
L 2581 3319 
L 3144 3319 
L 1881 -56 
Q 1678 -603 1566 -809 
Q 1416 -1088 1222 -1217 
Q 1028 -1347 759 -1347 
Q 597 -1347 397 -1278 
z
" transform="scale(0.015625)"/>
       <path id="ArialMT-25" d="M 372 3481 
Q 372 3972 619 4315 
Q 866 4659 1334 4659 
Q 1766 4659 2048 4351 
Q 2331 4044 2331 3447 
Q 2331 2866 2045 2552 
Q 1759 2238 1341 2238 
Q 925 2238 648 2547 
Q 372 2856 372 3481 
z
M 1350 4272 
Q 1141 4272 1002 4090 
Q 863 3909 863 3425 
Q 863 2984 1003 2804 
Q 1144 2625 1350 2625 
Q 1563 2625 1702 2806 
Q 1841 2988 1841 3469 
Q 1841 3913 1700 4092 
Q 1559 4272 1350 4272 
z
M 1353 -169 
L 3859 4659 
L 4316 4659 
L 1819 -169 
L 1353 -169 
z
M 3334 1075 
Q 3334 1569 3581 1911 
Q 3828 2253 4300 2253 
Q 4731 2253 5014 1945 
Q 5297 1638 5297 1041 
Q 5297 459 5011 145 
Q 4725 -169 4303 -169 
Q 3888 -169 3611 142 
Q 3334 453 3334 1075 
z
M 4316 1866 
Q 4103 1866 3964 1684 
Q 3825 1503 3825 1019 
Q 3825 581 3965 400 
Q 4106 219 4313 219 
Q 4528 219 4667 400 
Q 4806 581 4806 1063 
Q 4806 1506 4665 1686 
Q 4525 1866 4316 1866 
z
" transform="scale(0.015625)"/>
       <path id="ArialMT-54" d="M 1659 0 
L 1659 4041 
L 150 4041 
L 150 4581 
L 3781 4581 
L 3781 4041 
L 2266 4041 
L 2266 0 
L 1659 0 
z
" transform="scale(0.015625)"/>
       <path id="ArialMT-46" d="M 525 0 
L 525 4581 
L 3616 4581 
L 3616 4041 
L 1131 4041 
L 1131 2622 
L 3281 2622 
L 3281 2081 
L 1131 2081 
L 1131 0 
L 525 0 
z
" transform="scale(0.015625)"/>
       <path id="ArialMT-3d" d="M 3381 2694 
L 356 2694 
L 356 3219 
L 3381 3219 
L 3381 2694 
z
M 3381 1303 
L 356 1303 
L 356 1828 
L 3381 1828 
L 3381 1303 
z
" transform="scale(0.015625)"/>
       <path id="ArialMT-5f" d="M -97 -1272 
L -97 -866 
L 3631 -866 
L 3631 -1272 
L -97 -1272 
z
" transform="scale(0.015625)"/>
      </defs>
      <use xlink:href="#ArialMT-69"/>
      <use xlink:href="#ArialMT-6d" x="22.216797"/>
      <use xlink:href="#ArialMT-69" x="105.517578"/>
      <use xlink:href="#ArialMT-6e" x="127.734375"/>
      <use xlink:href="#ArialMT-65" x="183.349609"/>
      <use xlink:href="#ArialMT-20" x="238.964844"/>
      <use xlink:href="#ArialMT-70" x="266.748047"/>
      <use xlink:href="#ArialMT-6f" x="322.363281"/>
      <use xlink:href="#ArialMT-6c" x="377.978516"/>
      <use xlink:href="#ArialMT-79" x="400.195312"/>
      <use xlink:href="#ArialMT-6d" x="450.195312"/>
      <use xlink:href="#ArialMT-65" x="533.496094"/>
      <use xlink:href="#ArialMT-72" x="589.111328"/>
      <use xlink:href="#ArialMT-20" x="622.412109"/>
      <use xlink:href="#ArialMT-30" x="650.195312"/>
      <use xlink:href="#ArialMT-2e" x="705.810547"/>
      <use xlink:href="#ArialMT-30" x="733.59375"/>
      <use xlink:href="#ArialMT-25" x="789.208984"/>
      <use xlink:href="#ArialMT-20" x="878.125"/>
      <use xlink:href="#ArialMT-54" x="904.158203"/>
      <use xlink:href="#ArialMT-46" x="965.242188"/>
      <use xlink:href="#ArialMT-41" x="1020.826172"/>
      <use xlink:href="#ArialMT-20" x="1082.025391"/>
      <use xlink:href="#ArialMT-74" x="1109.808594"/>
      <use xlink:href="#ArialMT-69" x="1137.591797"/>
      <use xlink:href="#ArialMT-6d" x="1159.808594"/>
      <use xlink:href="#ArialMT-65" x="1243.109375"/>
      <use xlink:href="#ArialMT-20" x="1298.724609"/>
      <use xlink:href="#ArialMT-3d" x="1326.507812"/>
      <use xlink:href="#ArialMT-20" x="1384.90625"/>
      <use xlink:href="#ArialMT-31" x="1412.689453"/>
      <use xlink:href="#ArialMT-20" x="1468.304688"/>
      <use xlink:href="#ArialMT-6d" x="1496.087891"/>
      <use xlink:href="#ArialMT-69" x="1579.388672"/>
      <use xlink:href="#ArialMT-6e" x="1601.605469"/>
      <use xlink:href="#ArialMT-5f" x="1657.220703"/>
      <use xlink:href="#ArialMT-41" x="1712.835938"/>
      <use xlink:href="#ArialMT-62" x="1779.535156"/>
      <use xlink:href="#ArialMT-73" x="1835.150391"/>
     </g>
    </g>
    <g id="line2d_40">
     <path d="M 226.799406 54.046434 
L 232.799406 54.046434 
L 238.799406 54.046434 
" style="fill: none; stroke: #e83f3f; stroke-width: 1.5; stroke-linecap: round"/>
    </g>
    <g id="text_20">
     <!-- imine polymer 1.00% TFA time = 1 min_Abs -->
     <g style="fill: #262626" transform="translate(243.599406 56.146434) scale(0.06 -0.06)">
      <use xlink:href="#ArialMT-69"/>
      <use xlink:href="#ArialMT-6d" x="22.216797"/>
      <use xlink:href="#ArialMT-69" x="105.517578"/>
      <use xlink:href="#ArialMT-6e" x="127.734375"/>
      <use xlink:href="#ArialMT-65" x="183.349609"/>
      <use xlink:href="#ArialMT-20" x="238.964844"/>
      <use xlink:href="#ArialMT-70" x="266.748047"/>
      <use xlink:href="#ArialMT-6f" x="322.363281"/>
      <use xlink:href="#ArialMT-6c" x="377.978516"/>
      <use xlink:href="#ArialMT-79" x="400.195312"/>
      <use xlink:href="#ArialMT-6d" x="450.195312"/>
      <use xlink:href="#ArialMT-65" x="533.496094"/>
      <use xlink:href="#ArialMT-72" x="589.111328"/>
      <use xlink:href="#ArialMT-20" x="622.412109"/>
      <use xlink:href="#ArialMT-31" x="650.195312"/>
      <use xlink:href="#ArialMT-2e" x="705.810547"/>
      <use xlink:href="#ArialMT-30" x="733.59375"/>
      <use xlink:href="#ArialMT-30" x="789.208984"/>
      <use xlink:href="#ArialMT-25" x="844.824219"/>
      <use xlink:href="#ArialMT-20" x="933.740234"/>
      <use xlink:href="#ArialMT-54" x="959.773438"/>
      <use xlink:href="#ArialMT-46" x="1020.857422"/>
      <use xlink:href="#ArialMT-41" x="1076.441406"/>
      <use xlink:href="#ArialMT-20" x="1137.640625"/>
      <use xlink:href="#ArialMT-74" x="1165.423828"/>
      <use xlink:href="#ArialMT-69" x="1193.207031"/>
      <use xlink:href="#ArialMT-6d" x="1215.423828"/>
      <use xlink:href="#ArialMT-65" x="1298.724609"/>
      <use xlink:href="#ArialMT-20" x="1354.339844"/>
      <use xlink:href="#ArialMT-3d" x="1382.123047"/>
      <use xlink:href="#ArialMT-20" x="1440.521484"/>
      <use xlink:href="#ArialMT-31" x="1468.304688"/>
      <use xlink:href="#ArialMT-20" x="1523.919922"/>
      <use xlink:href="#ArialMT-6d" x="1551.703125"/>
      <use xlink:href="#ArialMT-69" x="1635.003906"/>
      <use xlink:href="#ArialMT-6e" x="1657.220703"/>
      <use xlink:href="#ArialMT-5f" x="1712.835938"/>
      <use xlink:href="#ArialMT-41" x="1768.451172"/>
      <use xlink:href="#ArialMT-62" x="1835.150391"/>
      <use xlink:href="#ArialMT-73" x="1890.765625"/>
     </g>
    </g>
    <g id="line2d_41">
     <path d="M 226.799406 62.677059 
L 232.799406 62.677059 
L 238.799406 62.677059 
" style="fill: none; stroke: #a11a5b; stroke-width: 1.5; stroke-linecap: round"/>
    </g>
    <g id="text_21">
     <!-- imine polymer 1.00% TFA time = 10 min_Abs -->
     <g style="fill: #262626" transform="translate(243.599406 64.777059) scale(0.06 -0.06)">
      <use xlink:href="#ArialMT-69"/>
      <use xlink:href="#ArialMT-6d" x="22.216797"/>
      <use xlink:href="#ArialMT-69" x="105.517578"/>
      <use xlink:href="#ArialMT-6e" x="127.734375"/>
      <use xlink:href="#ArialMT-65" x="183.349609"/>
      <use xlink:href="#ArialMT-20" x="238.964844"/>
      <use xlink:href="#ArialMT-70" x="266.748047"/>
      <use xlink:href="#ArialMT-6f" x="322.363281"/>
      <use xlink:href="#ArialMT-6c" x="377.978516"/>
      <use xlink:href="#ArialMT-79" x="400.195312"/>
      <use xlink:href="#ArialMT-6d" x="450.195312"/>
      <use xlink:href="#ArialMT-65" x="533.496094"/>
      <use xlink:href="#ArialMT-72" x="589.111328"/>
      <use xlink:href="#ArialMT-20" x="622.412109"/>
      <use xlink:href="#ArialMT-31" x="650.195312"/>
      <use xlink:href="#ArialMT-2e" x="705.810547"/>
      <use xlink:href="#ArialMT-30" x="733.59375"/>
      <use xlink:href="#ArialMT-30" x="789.208984"/>
      <use xlink:href="#ArialMT-25" x="844.824219"/>
      <use xlink:href="#ArialMT-20" x="933.740234"/>
      <use xlink:href="#ArialMT-54" x="959.773438"/>
      <use xlink:href="#ArialMT-46" x="1020.857422"/>
      <use xlink:href="#ArialMT-41" x="1076.441406"/>
      <use xlink:href="#ArialMT-20" x="1137.640625"/>
      <use xlink:href="#ArialMT-74" x="1165.423828"/>
      <use xlink:href="#ArialMT-69" x="1193.207031"/>
      <use xlink:href="#ArialMT-6d" x="1215.423828"/>
      <use xlink:href="#ArialMT-65" x="1298.724609"/>
      <use xlink:href="#ArialMT-20" x="1354.339844"/>
      <use xlink:href="#ArialMT-3d" x="1382.123047"/>
      <use xlink:href="#ArialMT-20" x="1440.521484"/>
      <use xlink:href="#ArialMT-31" x="1468.304688"/>
      <use xlink:href="#ArialMT-30" x="1523.919922"/>
      <use xlink:href="#ArialMT-20" x="1579.535156"/>
      <use xlink:href="#ArialMT-6d" x="1607.318359"/>
      <use xlink:href="#ArialMT-69" x="1690.619141"/>
      <use xlink:href="#ArialMT-6e" x="1712.835938"/>
      <use xlink:href="#ArialMT-5f" x="1768.451172"/>
      <use xlink:href="#ArialMT-41" x="1824.066406"/>
      <use xlink:href="#ArialMT-62" x="1890.765625"/>
      <use xlink:href="#ArialMT-73" x="1946.380859"/>
     </g>
    </g>
    <g id="line2d_42">
     <path d="M 226.799406 71.307684 
L 232.799406 71.307684 
L 238.799406 71.307684 
" style="fill: none; stroke: #4c1d4b; stroke-width: 1.5; stroke-linecap: round"/>
    </g>
    <g id="text_22">
     <!-- imine polymer 1.00% TFA time = 20 min_Abs -->
     <g style="fill: #262626" transform="translate(243.599406 73.407684) scale(0.06 -0.06)">
      <use xlink:href="#ArialMT-69"/>
      <use xlink:href="#ArialMT-6d" x="22.216797"/>
      <use xlink:href="#ArialMT-69" x="105.517578"/>
      <use xlink:href="#ArialMT-6e" x="127.734375"/>
      <use xlink:href="#ArialMT-65" x="183.349609"/>
      <use xlink:href="#ArialMT-20" x="238.964844"/>
      <use xlink:href="#ArialMT-70" x="266.748047"/>
      <use xlink:href="#ArialMT-6f" x="322.363281"/>
      <use xlink:href="#ArialMT-6c" x="377.978516"/>
      <use xlink:href="#ArialMT-79" x="400.195312"/>
      <use xlink:href="#ArialMT-6d" x="450.195312"/>
      <use xlink:href="#ArialMT-65" x="533.496094"/>
      <use xlink:href="#ArialMT-72" x="589.111328"/>
      <use xlink:href="#ArialMT-20" x="622.412109"/>
      <use xlink:href="#ArialMT-31" x="650.195312"/>
      <use xlink:href="#ArialMT-2e" x="705.810547"/>
      <use xlink:href="#ArialMT-30" x="733.59375"/>
      <use xlink:href="#ArialMT-30" x="789.208984"/>
      <use xlink:href="#ArialMT-25" x="844.824219"/>
      <use xlink:href="#ArialMT-20" x="933.740234"/>
      <use xlink:href="#ArialMT-54" x="959.773438"/>
      <use xlink:href="#ArialMT-46" x="1020.857422"/>
      <use xlink:href="#ArialMT-41" x="1076.441406"/>
      <use xlink:href="#ArialMT-20" x="1137.640625"/>
      <use xlink:href="#ArialMT-74" x="1165.423828"/>
      <use xlink:href="#ArialMT-69" x="1193.207031"/>
      <use xlink:href="#ArialMT-6d" x="1215.423828"/>
      <use xlink:href="#ArialMT-65" x="1298.724609"/>
      <use xlink:href="#ArialMT-20" x="1354.339844"/>
      <use xlink:href="#ArialMT-3d" x="1382.123047"/>
      <use xlink:href="#ArialMT-20" x="1440.521484"/>
      <use xlink:href="#ArialMT-32" x="1468.304688"/>
      <use xlink:href="#ArialMT-30" x="1523.919922"/>
      <use xlink:href="#ArialMT-20" x="1579.535156"/>
      <use xlink:href="#ArialMT-6d" x="1607.318359"/>
      <use xlink:href="#ArialMT-69" x="1690.619141"/>
      <use xlink:href="#ArialMT-6e" x="1712.835938"/>
      <use xlink:href="#ArialMT-5f" x="1768.451172"/>
      <use xlink:href="#ArialMT-41" x="1824.066406"/>
      <use xlink:href="#ArialMT-62" x="1890.765625"/>
      <use xlink:href="#ArialMT-73" x="1946.380859"/>
     </g>
    </g>
   </g>
  </g>
 </g>
 <defs>
  <clipPath id="p29862df73b">
   <rect x="47.368281" y="11.136797" width="357.12" height="266.112"/>
  </clipPath>
 </defs>
</svg>
