<?xml version="1.0" encoding="utf-8" standalone="no"?>
<!DOCTYPE svg PUBLIC "-//W3C//DTD SVG 1.1//EN"
  "http://www.w3.org/Graphics/SVG/1.1/DTD/svg11.dtd">
<svg xmlns:xlink="http://www.w3.org/1999/xlink" width="423.922344pt" height="313.269891pt" viewBox="0 0 423.922344 313.269891" xmlns="http://www.w3.org/2000/svg" version="1.1">
 <metadata>
  <rdf:RDF xmlns:dc="http://purl.org/dc/elements/1.1/" xmlns:cc="http://creativecommons.org/ns#" xmlns:rdf="http://www.w3.org/1999/02/22-rdf-syntax-ns#">
   <cc:Work>
    <dc:type rdf:resource="http://purl.org/dc/dcmitype/StillImage"/>
    <dc:date>2024-05-07T16:26:07.672600</dc:date>
    <dc:format>image/svg+xml</dc:format>
    <dc:creator>
     <cc:Agent>
      <dc:title>Matplotlib v3.7.1, https://matplotlib.org/</dc:title>
     </cc:Agent>
    </dc:creator>
   </cc:Work>
  </rdf:RDF>
 </metadata>
 <defs>
  <style type="text/css">*{stroke-linejoin: round; stroke-linecap: butt}</style>
 </defs>
 <g id="figure_1">
  <g id="patch_1">
   <path d="M 0 313.269891 
L 423.922344 313.269891 
L 423.922344 0 
L 0 0 
z
" style="fill: #ffffff"/>
  </g>
  <g id="axes_1">
   <g id="patch_2">
    <path d="M 47.368281 277.248797 
L 404.488281 277.248797 
L 404.488281 11.136797 
L 47.368281 11.136797 
z
" style="fill: #ffffff"/>
   </g>
   <g id="matplotlib.axis_1">
    <g id="xtick_1">
     <g id="line2d_1">
      <defs>
       <path id="m12e9386686" d="M 0 0 
L 0 -6 
" style="stroke: #262626; stroke-width: 1.25"/>
      </defs>
      <g>
       <use xlink:href="#m12e9386686" x="79.833736" y="277.248797" style="fill: #262626; stroke: #262626; stroke-width: 1.25"/>
      </g>
     </g>
     <g id="text_1">
      <!-- 400 -->
      <g style="fill: #262626" transform="translate(70.658189 288.622391) scale(0.11 -0.11)">
       <defs>
        <path id="ArialMT-34" d="M 2069 0 
L 2069 1097 
L 81 1097 
L 81 1613 
L 2172 4581 
L 2631 4581 
L 2631 1613 
L 3250 1613 
L 3250 1097 
L 2631 1097 
L 2631 0 
L 2069 0 
z
M 2069 1613 
L 2069 3678 
L 634 1613 
L 2069 1613 
z
" transform="scale(0.015625)"/>
        <path id="ArialMT-30" d="M 266 2259 
Q 266 3072 433 3567 
Q 600 4063 929 4331 
Q 1259 4600 1759 4600 
Q 2128 4600 2406 4451 
Q 2684 4303 2865 4023 
Q 3047 3744 3150 3342 
Q 3253 2941 3253 2259 
Q 3253 1453 3087 958 
Q 2922 463 2592 192 
Q 2263 -78 1759 -78 
Q 1097 -78 719 397 
Q 266 969 266 2259 
z
M 844 2259 
Q 844 1131 1108 757 
Q 1372 384 1759 384 
Q 2147 384 2411 759 
Q 2675 1134 2675 2259 
Q 2675 3391 2411 3762 
Q 2147 4134 1753 4134 
Q 1366 4134 1134 3806 
Q 844 3388 844 2259 
z
" transform="scale(0.015625)"/>
       </defs>
       <use xlink:href="#ArialMT-34"/>
       <use xlink:href="#ArialMT-30" x="55.615234"/>
       <use xlink:href="#ArialMT-30" x="111.230469"/>
      </g>
     </g>
    </g>
    <g id="xtick_2">
     <g id="line2d_2">
      <g>
       <use xlink:href="#m12e9386686" x="144.764645" y="277.248797" style="fill: #262626; stroke: #262626; stroke-width: 1.25"/>
      </g>
     </g>
     <g id="text_2">
      <!-- 600 -->
      <g style="fill: #262626" transform="translate(135.589098 288.622391) scale(0.11 -0.11)">
       <defs>
        <path id="ArialMT-36" d="M 3184 3459 
L 2625 3416 
Q 2550 3747 2413 3897 
Q 2184 4138 1850 4138 
Q 1581 4138 1378 3988 
Q 1113 3794 959 3422 
Q 806 3050 800 2363 
Q 1003 2672 1297 2822 
Q 1591 2972 1913 2972 
Q 2475 2972 2870 2558 
Q 3266 2144 3266 1488 
Q 3266 1056 3080 686 
Q 2894 316 2569 119 
Q 2244 -78 1831 -78 
Q 1128 -78 684 439 
Q 241 956 241 2144 
Q 241 3472 731 4075 
Q 1159 4600 1884 4600 
Q 2425 4600 2770 4297 
Q 3116 3994 3184 3459 
z
M 888 1484 
Q 888 1194 1011 928 
Q 1134 663 1356 523 
Q 1578 384 1822 384 
Q 2178 384 2434 671 
Q 2691 959 2691 1453 
Q 2691 1928 2437 2201 
Q 2184 2475 1800 2475 
Q 1419 2475 1153 2201 
Q 888 1928 888 1484 
z
" transform="scale(0.015625)"/>
       </defs>
       <use xlink:href="#ArialMT-36"/>
       <use xlink:href="#ArialMT-30" x="55.615234"/>
       <use xlink:href="#ArialMT-30" x="111.230469"/>
      </g>
     </g>
    </g>
    <g id="xtick_3">
     <g id="line2d_3">
      <g>
       <use xlink:href="#m12e9386686" x="209.695554" y="277.248797" style="fill: #262626; stroke: #262626; stroke-width: 1.25"/>
      </g>
     </g>
     <g id="text_3">
      <!-- 800 -->
      <g style="fill: #262626" transform="translate(200.520007 288.622391) scale(0.11 -0.11)">
       <defs>
        <path id="ArialMT-38" d="M 1131 2484 
Q 781 2613 612 2850 
Q 444 3088 444 3419 
Q 444 3919 803 4259 
Q 1163 4600 1759 4600 
Q 2359 4600 2725 4251 
Q 3091 3903 3091 3403 
Q 3091 3084 2923 2848 
Q 2756 2613 2416 2484 
Q 2838 2347 3058 2040 
Q 3278 1734 3278 1309 
Q 3278 722 2862 322 
Q 2447 -78 1769 -78 
Q 1091 -78 675 323 
Q 259 725 259 1325 
Q 259 1772 486 2073 
Q 713 2375 1131 2484 
z
M 1019 3438 
Q 1019 3113 1228 2906 
Q 1438 2700 1772 2700 
Q 2097 2700 2305 2904 
Q 2513 3109 2513 3406 
Q 2513 3716 2298 3927 
Q 2084 4138 1766 4138 
Q 1444 4138 1231 3931 
Q 1019 3725 1019 3438 
z
M 838 1322 
Q 838 1081 952 856 
Q 1066 631 1291 507 
Q 1516 384 1775 384 
Q 2178 384 2440 643 
Q 2703 903 2703 1303 
Q 2703 1709 2433 1975 
Q 2163 2241 1756 2241 
Q 1359 2241 1098 1978 
Q 838 1716 838 1322 
z
" transform="scale(0.015625)"/>
       </defs>
       <use xlink:href="#ArialMT-38"/>
       <use xlink:href="#ArialMT-30" x="55.615234"/>
       <use xlink:href="#ArialMT-30" x="111.230469"/>
      </g>
     </g>
    </g>
    <g id="xtick_4">
     <g id="line2d_4">
      <g>
       <use xlink:href="#m12e9386686" x="274.626463" y="277.248797" style="fill: #262626; stroke: #262626; stroke-width: 1.25"/>
      </g>
     </g>
     <g id="text_4">
      <!-- 1000 -->
      <g style="fill: #262626" transform="translate(262.392401 288.622391) scale(0.11 -0.11)">
       <defs>
        <path id="ArialMT-31" d="M 2384 0 
L 1822 0 
L 1822 3584 
Q 1619 3391 1289 3197 
Q 959 3003 697 2906 
L 697 3450 
Q 1169 3672 1522 3987 
Q 1875 4303 2022 4600 
L 2384 4600 
L 2384 0 
z
" transform="scale(0.015625)"/>
       </defs>
       <use xlink:href="#ArialMT-31"/>
       <use xlink:href="#ArialMT-30" x="55.615234"/>
       <use xlink:href="#ArialMT-30" x="111.230469"/>
       <use xlink:href="#ArialMT-30" x="166.845703"/>
      </g>
     </g>
    </g>
    <g id="xtick_5">
     <g id="line2d_5">
      <g>
       <use xlink:href="#m12e9386686" x="339.557372" y="277.248797" style="fill: #262626; stroke: #262626; stroke-width: 1.25"/>
      </g>
     </g>
     <g id="text_5">
      <!-- 1200 -->
      <g style="fill: #262626" transform="translate(327.32331 288.622391) scale(0.11 -0.11)">
       <defs>
        <path id="ArialMT-32" d="M 3222 541 
L 3222 0 
L 194 0 
Q 188 203 259 391 
Q 375 700 629 1000 
Q 884 1300 1366 1694 
Q 2113 2306 2375 2664 
Q 2638 3022 2638 3341 
Q 2638 3675 2398 3904 
Q 2159 4134 1775 4134 
Q 1369 4134 1125 3890 
Q 881 3647 878 3216 
L 300 3275 
Q 359 3922 746 4261 
Q 1134 4600 1788 4600 
Q 2447 4600 2831 4234 
Q 3216 3869 3216 3328 
Q 3216 3053 3103 2787 
Q 2991 2522 2730 2228 
Q 2469 1934 1863 1422 
Q 1356 997 1212 845 
Q 1069 694 975 541 
L 3222 541 
z
" transform="scale(0.015625)"/>
       </defs>
       <use xlink:href="#ArialMT-31"/>
       <use xlink:href="#ArialMT-32" x="55.615234"/>
       <use xlink:href="#ArialMT-30" x="111.230469"/>
       <use xlink:href="#ArialMT-30" x="166.845703"/>
      </g>
     </g>
    </g>
    <g id="xtick_6">
     <g id="line2d_6">
      <g>
       <use xlink:href="#m12e9386686" x="404.488281" y="277.248797" style="fill: #262626; stroke: #262626; stroke-width: 1.25"/>
      </g>
     </g>
     <g id="text_6">
      <!-- 1400 -->
      <g style="fill: #262626" transform="translate(392.254219 288.622391) scale(0.11 -0.11)">
       <use xlink:href="#ArialMT-31"/>
       <use xlink:href="#ArialMT-34" x="55.615234"/>
       <use xlink:href="#ArialMT-30" x="111.230469"/>
       <use xlink:href="#ArialMT-30" x="166.845703"/>
      </g>
     </g>
    </g>
    <g id="xtick_7">
     <g id="line2d_7">
      <defs>
       <path id="mf41c37055a" d="M 0 0 
L 0 -4 
" style="stroke: #262626"/>
      </defs>
      <g>
       <use xlink:href="#mf41c37055a" x="112.29919" y="277.248797" style="fill: #262626; stroke: #262626"/>
      </g>
     </g>
    </g>
    <g id="xtick_8">
     <g id="line2d_8">
      <g>
       <use xlink:href="#mf41c37055a" x="177.230099" y="277.248797" style="fill: #262626; stroke: #262626"/>
      </g>
     </g>
    </g>
    <g id="xtick_9">
     <g id="line2d_9">
      <g>
       <use xlink:href="#mf41c37055a" x="242.161009" y="277.248797" style="fill: #262626; stroke: #262626"/>
      </g>
     </g>
    </g>
    <g id="xtick_10">
     <g id="line2d_10">
      <g>
       <use xlink:href="#mf41c37055a" x="307.091918" y="277.248797" style="fill: #262626; stroke: #262626"/>
      </g>
     </g>
    </g>
    <g id="xtick_11">
     <g id="line2d_11">
      <g>
       <use xlink:href="#mf41c37055a" x="372.022827" y="277.248797" style="fill: #262626; stroke: #262626"/>
      </g>
     </g>
    </g>
    <g id="text_7">
     <!-- Wavelength (nm) -->
     <g style="fill: #262626" transform="translate(180.473594 303.544266) scale(0.12 -0.12)">
      <defs>
       <path id="ArialMT-57" d="M 1294 0 
L 78 4581 
L 700 4581 
L 1397 1578 
Q 1509 1106 1591 641 
Q 1766 1375 1797 1488 
L 2669 4581 
L 3400 4581 
L 4056 2263 
Q 4303 1400 4413 641 
Q 4500 1075 4641 1638 
L 5359 4581 
L 5969 4581 
L 4713 0 
L 4128 0 
L 3163 3491 
Q 3041 3928 3019 4028 
Q 2947 3713 2884 3491 
L 1913 0 
L 1294 0 
z
" transform="scale(0.015625)"/>
       <path id="ArialMT-61" d="M 2588 409 
Q 2275 144 1986 34 
Q 1697 -75 1366 -75 
Q 819 -75 525 192 
Q 231 459 231 875 
Q 231 1119 342 1320 
Q 453 1522 633 1644 
Q 813 1766 1038 1828 
Q 1203 1872 1538 1913 
Q 2219 1994 2541 2106 
Q 2544 2222 2544 2253 
Q 2544 2597 2384 2738 
Q 2169 2928 1744 2928 
Q 1347 2928 1158 2789 
Q 969 2650 878 2297 
L 328 2372 
Q 403 2725 575 2942 
Q 747 3159 1072 3276 
Q 1397 3394 1825 3394 
Q 2250 3394 2515 3294 
Q 2781 3194 2906 3042 
Q 3031 2891 3081 2659 
Q 3109 2516 3109 2141 
L 3109 1391 
Q 3109 606 3145 398 
Q 3181 191 3288 0 
L 2700 0 
Q 2613 175 2588 409 
z
M 2541 1666 
Q 2234 1541 1622 1453 
Q 1275 1403 1131 1340 
Q 988 1278 909 1158 
Q 831 1038 831 891 
Q 831 666 1001 516 
Q 1172 366 1500 366 
Q 1825 366 2078 508 
Q 2331 650 2450 897 
Q 2541 1088 2541 1459 
L 2541 1666 
z
" transform="scale(0.015625)"/>
       <path id="ArialMT-76" d="M 1344 0 
L 81 3319 
L 675 3319 
L 1388 1331 
Q 1503 1009 1600 663 
Q 1675 925 1809 1294 
L 2547 3319 
L 3125 3319 
L 1869 0 
L 1344 0 
z
" transform="scale(0.015625)"/>
       <path id="ArialMT-65" d="M 2694 1069 
L 3275 997 
Q 3138 488 2766 206 
Q 2394 -75 1816 -75 
Q 1088 -75 661 373 
Q 234 822 234 1631 
Q 234 2469 665 2931 
Q 1097 3394 1784 3394 
Q 2450 3394 2872 2941 
Q 3294 2488 3294 1666 
Q 3294 1616 3291 1516 
L 816 1516 
Q 847 969 1125 678 
Q 1403 388 1819 388 
Q 2128 388 2347 550 
Q 2566 713 2694 1069 
z
M 847 1978 
L 2700 1978 
Q 2663 2397 2488 2606 
Q 2219 2931 1791 2931 
Q 1403 2931 1139 2672 
Q 875 2413 847 1978 
z
" transform="scale(0.015625)"/>
       <path id="ArialMT-6c" d="M 409 0 
L 409 4581 
L 972 4581 
L 972 0 
L 409 0 
z
" transform="scale(0.015625)"/>
       <path id="ArialMT-6e" d="M 422 0 
L 422 3319 
L 928 3319 
L 928 2847 
Q 1294 3394 1984 3394 
Q 2284 3394 2536 3286 
Q 2788 3178 2913 3003 
Q 3038 2828 3088 2588 
Q 3119 2431 3119 2041 
L 3119 0 
L 2556 0 
L 2556 2019 
Q 2556 2363 2490 2533 
Q 2425 2703 2258 2804 
Q 2091 2906 1866 2906 
Q 1506 2906 1245 2678 
Q 984 2450 984 1813 
L 984 0 
L 422 0 
z
" transform="scale(0.015625)"/>
       <path id="ArialMT-67" d="M 319 -275 
L 866 -356 
Q 900 -609 1056 -725 
Q 1266 -881 1628 -881 
Q 2019 -881 2231 -725 
Q 2444 -569 2519 -288 
Q 2563 -116 2559 434 
Q 2191 0 1641 0 
Q 956 0 581 494 
Q 206 988 206 1678 
Q 206 2153 378 2554 
Q 550 2956 876 3175 
Q 1203 3394 1644 3394 
Q 2231 3394 2613 2919 
L 2613 3319 
L 3131 3319 
L 3131 450 
Q 3131 -325 2973 -648 
Q 2816 -972 2473 -1159 
Q 2131 -1347 1631 -1347 
Q 1038 -1347 672 -1080 
Q 306 -813 319 -275 
z
M 784 1719 
Q 784 1066 1043 766 
Q 1303 466 1694 466 
Q 2081 466 2343 764 
Q 2606 1063 2606 1700 
Q 2606 2309 2336 2618 
Q 2066 2928 1684 2928 
Q 1309 2928 1046 2623 
Q 784 2319 784 1719 
z
" transform="scale(0.015625)"/>
       <path id="ArialMT-74" d="M 1650 503 
L 1731 6 
Q 1494 -44 1306 -44 
Q 1000 -44 831 53 
Q 663 150 594 308 
Q 525 466 525 972 
L 525 2881 
L 113 2881 
L 113 3319 
L 525 3319 
L 525 4141 
L 1084 4478 
L 1084 3319 
L 1650 3319 
L 1650 2881 
L 1084 2881 
L 1084 941 
Q 1084 700 1114 631 
Q 1144 563 1211 522 
Q 1278 481 1403 481 
Q 1497 481 1650 503 
z
" transform="scale(0.015625)"/>
       <path id="ArialMT-68" d="M 422 0 
L 422 4581 
L 984 4581 
L 984 2938 
Q 1378 3394 1978 3394 
Q 2347 3394 2619 3248 
Q 2891 3103 3008 2847 
Q 3125 2591 3125 2103 
L 3125 0 
L 2563 0 
L 2563 2103 
Q 2563 2525 2380 2717 
Q 2197 2909 1863 2909 
Q 1613 2909 1392 2779 
Q 1172 2650 1078 2428 
Q 984 2206 984 1816 
L 984 0 
L 422 0 
z
" transform="scale(0.015625)"/>
       <path id="ArialMT-20" transform="scale(0.015625)"/>
       <path id="ArialMT-28" d="M 1497 -1347 
Q 1031 -759 709 28 
Q 388 816 388 1659 
Q 388 2403 628 3084 
Q 909 3875 1497 4659 
L 1900 4659 
Q 1522 4009 1400 3731 
Q 1209 3300 1100 2831 
Q 966 2247 966 1656 
Q 966 153 1900 -1347 
L 1497 -1347 
z
" transform="scale(0.015625)"/>
       <path id="ArialMT-6d" d="M 422 0 
L 422 3319 
L 925 3319 
L 925 2853 
Q 1081 3097 1340 3245 
Q 1600 3394 1931 3394 
Q 2300 3394 2536 3241 
Q 2772 3088 2869 2813 
Q 3263 3394 3894 3394 
Q 4388 3394 4653 3120 
Q 4919 2847 4919 2278 
L 4919 0 
L 4359 0 
L 4359 2091 
Q 4359 2428 4304 2576 
Q 4250 2725 4106 2815 
Q 3963 2906 3769 2906 
Q 3419 2906 3187 2673 
Q 2956 2441 2956 1928 
L 2956 0 
L 2394 0 
L 2394 2156 
Q 2394 2531 2256 2718 
Q 2119 2906 1806 2906 
Q 1569 2906 1367 2781 
Q 1166 2656 1075 2415 
Q 984 2175 984 1722 
L 984 0 
L 422 0 
z
" transform="scale(0.015625)"/>
       <path id="ArialMT-29" d="M 791 -1347 
L 388 -1347 
Q 1322 153 1322 1656 
Q 1322 2244 1188 2822 
Q 1081 3291 891 3722 
Q 769 4003 388 4659 
L 791 4659 
Q 1378 3875 1659 3084 
Q 1900 2403 1900 1659 
Q 1900 816 1576 28 
Q 1253 -759 791 -1347 
z
" transform="scale(0.015625)"/>
      </defs>
      <use xlink:href="#ArialMT-57"/>
      <use xlink:href="#ArialMT-61" x="90.634766"/>
      <use xlink:href="#ArialMT-76" x="146.25"/>
      <use xlink:href="#ArialMT-65" x="196.25"/>
      <use xlink:href="#ArialMT-6c" x="251.865234"/>
      <use xlink:href="#ArialMT-65" x="274.082031"/>
      <use xlink:href="#ArialMT-6e" x="329.697266"/>
      <use xlink:href="#ArialMT-67" x="385.3125"/>
      <use xlink:href="#ArialMT-74" x="440.927734"/>
      <use xlink:href="#ArialMT-68" x="468.710938"/>
      <use xlink:href="#ArialMT-20" x="524.326172"/>
      <use xlink:href="#ArialMT-28" x="552.109375"/>
      <use xlink:href="#ArialMT-6e" x="585.410156"/>
      <use xlink:href="#ArialMT-6d" x="641.025391"/>
      <use xlink:href="#ArialMT-29" x="724.326172"/>
     </g>
    </g>
   </g>
   <g id="matplotlib.axis_2">
    <g id="ytick_1">
     <g id="line2d_12">
      <defs>
       <path id="m3910b9d9d7" d="M 0 0 
L 6 0 
" style="stroke: #262626; stroke-width: 1.25"/>
      </defs>
      <g>
       <use xlink:href="#m3910b9d9d7" x="47.368281" y="277.248797" style="fill: #262626; stroke: #262626; stroke-width: 1.25"/>
      </g>
     </g>
     <g id="text_8">
      <!-- 0.00 -->
      <g style="fill: #262626" transform="translate(22.46125 281.185594) scale(0.11 -0.11)">
       <defs>
        <path id="ArialMT-2e" d="M 581 0 
L 581 641 
L 1222 641 
L 1222 0 
L 581 0 
z
" transform="scale(0.015625)"/>
       </defs>
       <use xlink:href="#ArialMT-30"/>
       <use xlink:href="#ArialMT-2e" x="55.615234"/>
       <use xlink:href="#ArialMT-30" x="83.398438"/>
       <use xlink:href="#ArialMT-30" x="139.013672"/>
      </g>
     </g>
    </g>
    <g id="ytick_2">
     <g id="line2d_13">
      <g>
       <use xlink:href="#m3910b9d9d7" x="47.368281" y="247.680797" style="fill: #262626; stroke: #262626; stroke-width: 1.25"/>
      </g>
     </g>
     <g id="text_9">
      <!-- 0.05 -->
      <g style="fill: #262626" transform="translate(22.46125 251.617594) scale(0.11 -0.11)">
       <defs>
        <path id="ArialMT-35" d="M 266 1200 
L 856 1250 
Q 922 819 1161 601 
Q 1400 384 1738 384 
Q 2144 384 2425 690 
Q 2706 997 2706 1503 
Q 2706 1984 2436 2262 
Q 2166 2541 1728 2541 
Q 1456 2541 1237 2417 
Q 1019 2294 894 2097 
L 366 2166 
L 809 4519 
L 3088 4519 
L 3088 3981 
L 1259 3981 
L 1013 2750 
Q 1425 3038 1878 3038 
Q 2478 3038 2890 2622 
Q 3303 2206 3303 1553 
Q 3303 931 2941 478 
Q 2500 -78 1738 -78 
Q 1113 -78 717 272 
Q 322 622 266 1200 
z
" transform="scale(0.015625)"/>
       </defs>
       <use xlink:href="#ArialMT-30"/>
       <use xlink:href="#ArialMT-2e" x="55.615234"/>
       <use xlink:href="#ArialMT-30" x="83.398438"/>
       <use xlink:href="#ArialMT-35" x="139.013672"/>
      </g>
     </g>
    </g>
    <g id="ytick_3">
     <g id="line2d_14">
      <g>
       <use xlink:href="#m3910b9d9d7" x="47.368281" y="218.112797" style="fill: #262626; stroke: #262626; stroke-width: 1.25"/>
      </g>
     </g>
     <g id="text_10">
      <!-- 0.10 -->
      <g style="fill: #262626" transform="translate(22.46125 222.049594) scale(0.11 -0.11)">
       <use xlink:href="#ArialMT-30"/>
       <use xlink:href="#ArialMT-2e" x="55.615234"/>
       <use xlink:href="#ArialMT-31" x="83.398438"/>
       <use xlink:href="#ArialMT-30" x="139.013672"/>
      </g>
     </g>
    </g>
    <g id="ytick_4">
     <g id="line2d_15">
      <g>
       <use xlink:href="#m3910b9d9d7" x="47.368281" y="188.544797" style="fill: #262626; stroke: #262626; stroke-width: 1.25"/>
      </g>
     </g>
     <g id="text_11">
      <!-- 0.15 -->
      <g style="fill: #262626" transform="translate(22.46125 192.481594) scale(0.11 -0.11)">
       <use xlink:href="#ArialMT-30"/>
       <use xlink:href="#ArialMT-2e" x="55.615234"/>
       <use xlink:href="#ArialMT-31" x="83.398438"/>
       <use xlink:href="#ArialMT-35" x="139.013672"/>
      </g>
     </g>
    </g>
    <g id="ytick_5">
     <g id="line2d_16">
      <g>
       <use xlink:href="#m3910b9d9d7" x="47.368281" y="158.976797" style="fill: #262626; stroke: #262626; stroke-width: 1.25"/>
      </g>
     </g>
     <g id="text_12">
      <!-- 0.20 -->
      <g style="fill: #262626" transform="translate(22.46125 162.913594) scale(0.11 -0.11)">
       <use xlink:href="#ArialMT-30"/>
       <use xlink:href="#ArialMT-2e" x="55.615234"/>
       <use xlink:href="#ArialMT-32" x="83.398438"/>
       <use xlink:href="#ArialMT-30" x="139.013672"/>
      </g>
     </g>
    </g>
    <g id="ytick_6">
     <g id="line2d_17">
      <g>
       <use xlink:href="#m3910b9d9d7" x="47.368281" y="129.408797" style="fill: #262626; stroke: #262626; stroke-width: 1.25"/>
      </g>
     </g>
     <g id="text_13">
      <!-- 0.25 -->
      <g style="fill: #262626" transform="translate(22.46125 133.345594) scale(0.11 -0.11)">
       <use xlink:href="#ArialMT-30"/>
       <use xlink:href="#ArialMT-2e" x="55.615234"/>
       <use xlink:href="#ArialMT-32" x="83.398438"/>
       <use xlink:href="#ArialMT-35" x="139.013672"/>
      </g>
     </g>
    </g>
    <g id="ytick_7">
     <g id="line2d_18">
      <g>
       <use xlink:href="#m3910b9d9d7" x="47.368281" y="99.840797" style="fill: #262626; stroke: #262626; stroke-width: 1.25"/>
      </g>
     </g>
     <g id="text_14">
      <!-- 0.30 -->
      <g style="fill: #262626" transform="translate(22.46125 103.777594) scale(0.11 -0.11)">
       <defs>
        <path id="ArialMT-33" d="M 269 1209 
L 831 1284 
Q 928 806 1161 595 
Q 1394 384 1728 384 
Q 2125 384 2398 659 
Q 2672 934 2672 1341 
Q 2672 1728 2419 1979 
Q 2166 2231 1775 2231 
Q 1616 2231 1378 2169 
L 1441 2663 
Q 1497 2656 1531 2656 
Q 1891 2656 2178 2843 
Q 2466 3031 2466 3422 
Q 2466 3731 2256 3934 
Q 2047 4138 1716 4138 
Q 1388 4138 1169 3931 
Q 950 3725 888 3313 
L 325 3413 
Q 428 3978 793 4289 
Q 1159 4600 1703 4600 
Q 2078 4600 2393 4439 
Q 2709 4278 2876 4000 
Q 3044 3722 3044 3409 
Q 3044 3113 2884 2869 
Q 2725 2625 2413 2481 
Q 2819 2388 3044 2092 
Q 3269 1797 3269 1353 
Q 3269 753 2831 336 
Q 2394 -81 1725 -81 
Q 1122 -81 723 278 
Q 325 638 269 1209 
z
" transform="scale(0.015625)"/>
       </defs>
       <use xlink:href="#ArialMT-30"/>
       <use xlink:href="#ArialMT-2e" x="55.615234"/>
       <use xlink:href="#ArialMT-33" x="83.398438"/>
       <use xlink:href="#ArialMT-30" x="139.013672"/>
      </g>
     </g>
    </g>
    <g id="ytick_8">
     <g id="line2d_19">
      <g>
       <use xlink:href="#m3910b9d9d7" x="47.368281" y="70.272797" style="fill: #262626; stroke: #262626; stroke-width: 1.25"/>
      </g>
     </g>
     <g id="text_15">
      <!-- 0.35 -->
      <g style="fill: #262626" transform="translate(22.46125 74.209594) scale(0.11 -0.11)">
       <use xlink:href="#ArialMT-30"/>
       <use xlink:href="#ArialMT-2e" x="55.615234"/>
       <use xlink:href="#ArialMT-33" x="83.398438"/>
       <use xlink:href="#ArialMT-35" x="139.013672"/>
      </g>
     </g>
    </g>
    <g id="ytick_9">
     <g id="line2d_20">
      <g>
       <use xlink:href="#m3910b9d9d7" x="47.368281" y="40.704797" style="fill: #262626; stroke: #262626; stroke-width: 1.25"/>
      </g>
     </g>
     <g id="text_16">
      <!-- 0.40 -->
      <g style="fill: #262626" transform="translate(22.46125 44.641594) scale(0.11 -0.11)">
       <use xlink:href="#ArialMT-30"/>
       <use xlink:href="#ArialMT-2e" x="55.615234"/>
       <use xlink:href="#ArialMT-34" x="83.398438"/>
       <use xlink:href="#ArialMT-30" x="139.013672"/>
      </g>
     </g>
    </g>
    <g id="ytick_10">
     <g id="line2d_21">
      <g>
       <use xlink:href="#m3910b9d9d7" x="47.368281" y="11.136797" style="fill: #262626; stroke: #262626; stroke-width: 1.25"/>
      </g>
     </g>
     <g id="text_17">
      <!-- 0.45 -->
      <g style="fill: #262626" transform="translate(22.46125 15.073594) scale(0.11 -0.11)">
       <use xlink:href="#ArialMT-30"/>
       <use xlink:href="#ArialMT-2e" x="55.615234"/>
       <use xlink:href="#ArialMT-34" x="83.398438"/>
       <use xlink:href="#ArialMT-35" x="139.013672"/>
      </g>
     </g>
    </g>
    <g id="ytick_11">
     <g id="line2d_22">
      <defs>
       <path id="m2a4b832031" d="M 0 0 
L 4 0 
" style="stroke: #262626"/>
      </defs>
      <g>
       <use xlink:href="#m2a4b832031" x="47.368281" y="262.464797" style="fill: #262626; stroke: #262626"/>
      </g>
     </g>
    </g>
    <g id="ytick_12">
     <g id="line2d_23">
      <g>
       <use xlink:href="#m2a4b832031" x="47.368281" y="232.896797" style="fill: #262626; stroke: #262626"/>
      </g>
     </g>
    </g>
    <g id="ytick_13">
     <g id="line2d_24">
      <g>
       <use xlink:href="#m2a4b832031" x="47.368281" y="203.328797" style="fill: #262626; stroke: #262626"/>
      </g>
     </g>
    </g>
    <g id="ytick_14">
     <g id="line2d_25">
      <g>
       <use xlink:href="#m2a4b832031" x="47.368281" y="173.760797" style="fill: #262626; stroke: #262626"/>
      </g>
     </g>
    </g>
    <g id="ytick_15">
     <g id="line2d_26">
      <g>
       <use xlink:href="#m2a4b832031" x="47.368281" y="144.192797" style="fill: #262626; stroke: #262626"/>
      </g>
     </g>
    </g>
    <g id="ytick_16">
     <g id="line2d_27">
      <g>
       <use xlink:href="#m2a4b832031" x="47.368281" y="114.624797" style="fill: #262626; stroke: #262626"/>
      </g>
     </g>
    </g>
    <g id="ytick_17">
     <g id="line2d_28">
      <g>
       <use xlink:href="#m2a4b832031" x="47.368281" y="85.056797" style="fill: #262626; stroke: #262626"/>
      </g>
     </g>
    </g>
    <g id="ytick_18">
     <g id="line2d_29">
      <g>
       <use xlink:href="#m2a4b832031" x="47.368281" y="55.488797" style="fill: #262626; stroke: #262626"/>
      </g>
     </g>
    </g>
    <g id="ytick_19">
     <g id="line2d_30">
      <g>
       <use xlink:href="#m2a4b832031" x="47.368281" y="25.920797" style="fill: #262626; stroke: #262626"/>
      </g>
     </g>
    </g>
    <g id="text_18">
     <!-- Absorbance (a.u.) -->
     <g style="fill: #262626" transform="translate(15.935625 191.881547) rotate(-90) scale(0.12 -0.12)">
      <defs>
       <path id="ArialMT-41" d="M -9 0 
L 1750 4581 
L 2403 4581 
L 4278 0 
L 3588 0 
L 3053 1388 
L 1138 1388 
L 634 0 
L -9 0 
z
M 1313 1881 
L 2866 1881 
L 2388 3150 
Q 2169 3728 2063 4100 
Q 1975 3659 1816 3225 
L 1313 1881 
z
" transform="scale(0.015625)"/>
       <path id="ArialMT-62" d="M 941 0 
L 419 0 
L 419 4581 
L 981 4581 
L 981 2947 
Q 1338 3394 1891 3394 
Q 2197 3394 2470 3270 
Q 2744 3147 2920 2923 
Q 3097 2700 3197 2384 
Q 3297 2069 3297 1709 
Q 3297 856 2875 390 
Q 2453 -75 1863 -75 
Q 1275 -75 941 416 
L 941 0 
z
M 934 1684 
Q 934 1088 1097 822 
Q 1363 388 1816 388 
Q 2184 388 2453 708 
Q 2722 1028 2722 1663 
Q 2722 2313 2464 2622 
Q 2206 2931 1841 2931 
Q 1472 2931 1203 2611 
Q 934 2291 934 1684 
z
" transform="scale(0.015625)"/>
       <path id="ArialMT-73" d="M 197 991 
L 753 1078 
Q 800 744 1014 566 
Q 1228 388 1613 388 
Q 2000 388 2187 545 
Q 2375 703 2375 916 
Q 2375 1106 2209 1216 
Q 2094 1291 1634 1406 
Q 1016 1563 777 1677 
Q 538 1791 414 1992 
Q 291 2194 291 2438 
Q 291 2659 392 2848 
Q 494 3038 669 3163 
Q 800 3259 1026 3326 
Q 1253 3394 1513 3394 
Q 1903 3394 2198 3281 
Q 2494 3169 2634 2976 
Q 2775 2784 2828 2463 
L 2278 2388 
Q 2241 2644 2061 2787 
Q 1881 2931 1553 2931 
Q 1166 2931 1000 2803 
Q 834 2675 834 2503 
Q 834 2394 903 2306 
Q 972 2216 1119 2156 
Q 1203 2125 1616 2013 
Q 2213 1853 2448 1751 
Q 2684 1650 2818 1456 
Q 2953 1263 2953 975 
Q 2953 694 2789 445 
Q 2625 197 2315 61 
Q 2006 -75 1616 -75 
Q 969 -75 630 194 
Q 291 463 197 991 
z
" transform="scale(0.015625)"/>
       <path id="ArialMT-6f" d="M 213 1659 
Q 213 2581 725 3025 
Q 1153 3394 1769 3394 
Q 2453 3394 2887 2945 
Q 3322 2497 3322 1706 
Q 3322 1066 3130 698 
Q 2938 331 2570 128 
Q 2203 -75 1769 -75 
Q 1072 -75 642 372 
Q 213 819 213 1659 
z
M 791 1659 
Q 791 1022 1069 705 
Q 1347 388 1769 388 
Q 2188 388 2466 706 
Q 2744 1025 2744 1678 
Q 2744 2294 2464 2611 
Q 2184 2928 1769 2928 
Q 1347 2928 1069 2612 
Q 791 2297 791 1659 
z
" transform="scale(0.015625)"/>
       <path id="ArialMT-72" d="M 416 0 
L 416 3319 
L 922 3319 
L 922 2816 
Q 1116 3169 1280 3281 
Q 1444 3394 1641 3394 
Q 1925 3394 2219 3213 
L 2025 2691 
Q 1819 2813 1613 2813 
Q 1428 2813 1281 2702 
Q 1134 2591 1072 2394 
Q 978 2094 978 1738 
L 978 0 
L 416 0 
z
" transform="scale(0.015625)"/>
       <path id="ArialMT-63" d="M 2588 1216 
L 3141 1144 
Q 3050 572 2676 248 
Q 2303 -75 1759 -75 
Q 1078 -75 664 370 
Q 250 816 250 1647 
Q 250 2184 428 2587 
Q 606 2991 970 3192 
Q 1334 3394 1763 3394 
Q 2303 3394 2647 3120 
Q 2991 2847 3088 2344 
L 2541 2259 
Q 2463 2594 2264 2762 
Q 2066 2931 1784 2931 
Q 1359 2931 1093 2626 
Q 828 2322 828 1663 
Q 828 994 1084 691 
Q 1341 388 1753 388 
Q 2084 388 2306 591 
Q 2528 794 2588 1216 
z
" transform="scale(0.015625)"/>
       <path id="ArialMT-75" d="M 2597 0 
L 2597 488 
Q 2209 -75 1544 -75 
Q 1250 -75 995 37 
Q 741 150 617 320 
Q 494 491 444 738 
Q 409 903 409 1263 
L 409 3319 
L 972 3319 
L 972 1478 
Q 972 1038 1006 884 
Q 1059 663 1231 536 
Q 1403 409 1656 409 
Q 1909 409 2131 539 
Q 2353 669 2445 892 
Q 2538 1116 2538 1541 
L 2538 3319 
L 3100 3319 
L 3100 0 
L 2597 0 
z
" transform="scale(0.015625)"/>
      </defs>
      <use xlink:href="#ArialMT-41"/>
      <use xlink:href="#ArialMT-62" x="66.699219"/>
      <use xlink:href="#ArialMT-73" x="122.314453"/>
      <use xlink:href="#ArialMT-6f" x="172.314453"/>
      <use xlink:href="#ArialMT-72" x="227.929688"/>
      <use xlink:href="#ArialMT-62" x="261.230469"/>
      <use xlink:href="#ArialMT-61" x="316.845703"/>
      <use xlink:href="#ArialMT-6e" x="372.460938"/>
      <use xlink:href="#ArialMT-63" x="428.076172"/>
      <use xlink:href="#ArialMT-65" x="478.076172"/>
      <use xlink:href="#ArialMT-20" x="533.691406"/>
      <use xlink:href="#ArialMT-28" x="561.474609"/>
      <use xlink:href="#ArialMT-61" x="594.775391"/>
      <use xlink:href="#ArialMT-2e" x="650.390625"/>
      <use xlink:href="#ArialMT-75" x="678.173828"/>
      <use xlink:href="#ArialMT-2e" x="733.789062"/>
      <use xlink:href="#ArialMT-29" x="761.572266"/>
     </g>
    </g>
   </g>
   <g id="PolyCollection_1"/>
   <g id="PolyCollection_2"/>
   <g id="PolyCollection_3"/>
   <g id="PolyCollection_4"/>
   <g id="PolyCollection_5"/>
   <g id="PolyCollection_6"/>
   <g id="PolyCollection_7"/>
   <g id="line2d_31">
    <path d="M 47.368281 230.150022 
L 47.801157 228.969987 
L 48.666899 226.237917 
L 49.749085 221.835039 
L 51.480569 212.879427 
L 52.99563 203.156673 
L 54.727114 190.678228 
L 57.107918 172.251761 
L 60.570896 147.92697 
L 61.653081 142.401551 
L 62.518823 139.028707 
L 63.168132 136.923946 
L 64.466751 134.275329 
L 65.548936 133.29826 
L 66.414678 133.381691 
L 67.063987 134.048192 
L 67.713296 135.226764 
L 68.579048 137.677632 
L 69.44479 140.693522 
L 71.392718 148.903308 
L 72.907769 154.765987 
L 74.42283 158.6556 
L 74.855696 159.33909 
L 75.721448 160.067582 
L 76.154324 160.173546 
L 76.803633 159.971902 
L 78.102251 158.289754 
L 80.050179 153.155347 
L 80.699488 150.982505 
L 81.998106 145.914391 
L 83.72959 137.814561 
L 85.677518 127.189754 
L 88.274754 111.325123 
L 97.365081 50.859597 
L 98.447266 44.873445 
L 99.745885 38.559612 
L 100.82807 34.235782 
L 101.910245 30.703547 
L 102.775997 28.466562 
L 103.641739 26.809775 
L 104.291048 25.87213 
L 104.723924 25.474588 
L 105.806099 25.154926 
L 106.671851 25.835966 
L 107.321161 26.877856 
L 107.97047 28.492769 
L 108.619779 30.609259 
L 109.269088 33.339342 
L 110.351263 39.066282 
L 111.433448 46.459032 
L 112.732066 56.8786 
L 114.463561 72.658266 
L 118.359415 111.961822 
L 120.523766 136.354685 
L 122.25527 157.818385 
L 126.800433 216.214794 
L 128.315475 232.508836 
L 129.39767 242.24846 
L 130.479845 250.286233 
L 131.56204 256.762316 
L 132.644215 261.795963 
L 133.72639 265.691023 
L 134.808585 268.670868 
L 136.54007 271.777182 
L 138.70444 274.070048 
L 140.86879 275.204807 
L 143.68247 275.956994 
L 144.331779 276.005914 
L 145.413954 276.16301 
L 147.794767 276.340013 
L 148.444076 276.413157 
L 149.093385 276.402253 
L 149.959118 276.484822 
L 151.041313 276.492145 
L 151.907045 276.523157 
L 154.071415 276.555515 
L 155.370033 276.599671 
L 157.96727 276.626665 
L 159.049445 276.636531 
L 162.728876 276.624885 
L 165.10967 276.601237 
L 165.975422 276.62803 
L 171.169894 276.567104 
L 180.476645 276.732386 
L 180.909531 276.735147 
L 181.775263 276.770039 
L 182.641015 276.735837 
L 187.402622 276.781664 
L 188.268354 276.726572 
L 189.783415 276.759933 
L 191.298476 276.730775 
L 191.514899 276.817977 
L 191.947785 276.747985 
L 192.380651 276.779579 
L 192.813518 276.747509 
L 193.462827 276.80893 
L 194.328579 276.778658 
L 194.761445 276.774104 
L 196.060063 276.786296 
L 197.142258 276.873525 
L 197.575124 276.856737 
L 198.440876 276.799545 
L 201.687422 276.845837 
L 201.903845 276.740009 
L 203.202463 276.77849 
L 205.15039 276.771634 
L 205.583276 276.770223 
L 207.098318 276.708349 
L 207.531204 276.762463 
L 208.180513 276.702274 
L 208.396936 276.82043 
L 208.829822 276.750163 
L 209.046245 276.82408 
L 209.695554 276.749871 
L 209.911997 276.806308 
L 210.12844 276.687654 
L 210.344863 276.791418 
L 210.561306 276.71858 
L 210.777749 276.80801 
L 211.859924 276.764089 
L 212.29279 276.751528 
L 212.509233 276.77487 
L 212.725676 276.679078 
L 213.158542 276.772478 
L 213.807851 276.757939 
L 214.024294 276.694619 
L 214.457161 276.735883 
L 214.673604 276.649221 
L 214.890027 276.703747 
L 215.10647 276.876223 
L 215.322913 276.725698 
L 217.054397 276.684125 
L 217.487263 276.654714 
L 217.703706 276.760899 
L 218.785881 276.701921 
L 219.218767 276.80548 
L 219.43519 276.661818 
L 219.651633 276.734288 
L 220.300942 276.687976 
L 220.517385 276.789133 
L 221.166694 276.738997 
L 221.383118 276.78556 
L 221.816004 276.648469 
L 222.032427 276.708563 
L 222.24887 276.622122 
L 222.465313 276.741175 
L 223.114622 276.612854 
L 223.331045 276.870397 
L 223.763931 276.611488 
L 224.196797 276.722477 
L 224.41324 276.66438 
L 224.846106 276.814527 
L 225.495415 276.602203 
L 225.711858 276.805219 
L 227.226899 276.661634 
L 227.443342 276.997027 
L 227.876209 276.495692 
L 228.092651 276.454328 
L 228.309094 276.803624 
L 228.525518 276.728781 
L 228.741961 276.868665 
L 228.958404 276.819418 
L 229.174827 276.595436 
L 229.39127 276.961046 
L 229.607713 276.446328 
L 230.040579 276.88096 
L 230.257022 276.946379 
L 230.473445 276.234529 
L 230.689888 276.834997 
L 230.906331 276.330134 
L 231.122754 276.726572 
L 231.339197 276.812073 
L 231.55564 276.67176 
L 231.772063 276.941597 
L 231.988506 276.610797 
L 232.637815 276.661357 
L 232.854258 276.450781 
L 233.070681 276.835303 
L 233.287124 276.851264 
L 233.503567 276.702719 
L 233.71999 276.387093 
L 233.936433 276.931283 
L 234.369299 276.872727 
L 234.585742 276.451533 
L 234.802185 277.163089 
L 235.018609 276.718105 
L 235.235051 276.656586 
L 235.451494 276.440661 
L 235.667918 276.387155 
L 235.884361 276.705495 
L 236.100804 275.830527 
L 236.317227 277.2044 
L 236.53367 276.749319 
L 236.750113 276.925811 
L 236.966536 276.63314 
L 237.399422 276.795205 
L 237.615845 276.192601 
L 237.832288 276.823742 
L 238.265154 276.623642 
L 238.481597 276.238018 
L 238.69804 277.31097 
L 238.914463 276.907923 
L 239.130906 277.312409 
L 239.563772 276.188328 
L 239.780215 276.893852 
L 239.996658 276.344283 
L 240.213081 276.752908 
L 240.429524 276.503752 
L 240.645967 277.268605 
L 241.078833 275.166012 
L 241.295276 277.500703 
L 241.511699 275.633441 
L 241.728142 277.542358 
L 241.944566 276.677789 
L 243.243184 276.653302 
L 245.84042 276.604812 
L 253.415686 276.377755 
L 254.714304 276.37519 
L 264.453941 276.158905 
L 267.484063 276.097252 
L 296.486549 276.112751 
L 297.135858 276.110091 
L 298.00159 276.145684 
L 298.867323 276.118379 
L 300.598827 276.108569 
L 301.031713 276.139535 
L 309.472731 276.144716 
L 310.12204 276.163609 
L 312.935699 276.163609 
L 315.10005 276.189619 
L 315.965822 276.230595 
L 316.615131 276.258641 
L 317.26444 276.330457 
L 319.212367 276.373715 
L 323.108222 276.176399 
L 324.40684 276.192478 
L 338.258754 276.248222 
L 340.423104 276.204405 
L 345.617577 276.131924 
L 347.781967 276.087672 
L 352.110668 276.118994 
L 354.491481 276.114012 
L 357.305141 276.087103 
L 361.850304 276.077 
L 363.581809 276.082459 
L 367.26124 276.097129 
L 368.126972 276.101235 
L 369.209167 276.096514 
L 373.970754 276.103003 
L 376.351567 276.07434 
L 377.433723 276.099297 
L 380.463845 276.105002 
L 381.329577 276.082736 
L 382.628195 276.087503 
L 391.285676 276.082413 
L 391.718523 276.077477 
L 393.233604 276.110875 
L 394.099336 276.07883 
L 396.047263 276.015881 
L 397.99519 275.911511 
L 401.458159 275.712361 
L 401.891045 275.726082 
L 404.488281 275.760435 
L 404.488281 275.760435 
" clip-path="url(#paeaeb56231)" style="fill: none; stroke: #f6bb97; stroke-linecap: round"/>
   </g>
   <g id="line2d_32">
    <path d="M 47.368281 228.956963 
L 49.316209 224.995079 
L 50.181951 221.91013 
L 51.047703 217.240796 
L 52.99563 205.924331 
L 54.510681 198.107161 
L 55.376423 191.727397 
L 57.97366 168.813091 
L 58.622969 166.002449 
L 59.272278 164.186323 
L 60.570896 161.146244 
L 61.003772 159.593253 
L 61.869514 155.063047 
L 63.601009 145.579096 
L 64.033885 144.569925 
L 64.250318 144.419735 
L 64.466751 144.499447 
L 64.899627 145.400954 
L 65.332503 146.95095 
L 65.981812 150.200806 
L 67.496863 157.714369 
L 68.579048 161.596923 
L 69.877666 164.579204 
L 71.392718 166.742538 
L 73.989954 169.142226 
L 74.42283 169.522576 
L 75.288572 170.455163 
L 77.020066 173.109992 
L 78.318685 176.269702 
L 79.40087 179.771598 
L 80.915921 185.307547 
L 82.214539 190.185614 
L 83.946033 195.986133 
L 85.244651 199.468176 
L 86.110394 201.367345 
L 86.976136 202.940419 
L 88.70763 204.97453 
L 88.924063 205.191568 
L 89.356939 205.405144 
L 90.439124 205.8413 
L 91.088433 205.904486 
L 91.737742 205.852522 
L 92.387051 205.713513 
L 93.036361 205.460236 
L 95.85003 203.487685 
L 96.932215 202.451787 
L 98.01439 201.36389 
L 107.754027 190.630679 
L 109.701954 188.968269 
L 113.381375 186.499689 
L 113.814251 186.310373 
L 114.896427 185.871054 
L 117.060797 185.253107 
L 119.225147 185.084058 
L 119.658033 185.214625 
L 120.523766 185.248375 
L 122.904579 185.93939 
L 124.41962 186.698223 
L 127.666166 189.15903 
L 130.263402 191.950797 
L 131.56204 193.536464 
L 133.72639 196.624771 
L 134.592142 198.040948 
L 134.808585 198.060555 
L 135.890761 199.814089 
L 137.622245 202.813941 
L 147.578324 222.413693 
L 149.526251 226.458405 
L 158.183713 243.23177 
L 160.997372 247.897954 
L 163.811051 252.106167 
L 168.139772 257.477452 
L 171.169894 260.509855 
L 175.498615 264.039683 
L 177.013676 265.089014 
L 177.446542 265.429084 
L 178.745161 266.229712 
L 180.043779 267.092439 
L 181.342397 267.799128 
L 182.208149 268.302305 
L 184.588942 269.478621 
L 185.238251 269.754464 
L 186.104004 270.183283 
L 188.051931 270.97292 
L 188.484797 271.13013 
L 189.134106 271.350595 
L 191.514899 272.255996 
L 191.731342 272.251298 
L 192.380651 272.549189 
L 192.813518 272.631479 
L 193.462827 272.871697 
L 195.194331 273.372394 
L 196.925815 273.850215 
L 197.575124 274.09252 
L 198.00799 274.151697 
L 198.224433 274.250512 
L 198.440876 274.22635 
L 198.873742 274.378501 
L 199.523051 274.51031 
L 200.172361 274.656541 
L 201.687422 275.035991 
L 202.120288 275.043248 
L 202.553154 275.148805 
L 204.933967 275.613229 
L 205.366833 275.62087 
L 209.479131 276.222111 
L 209.695554 276.199856 
L 209.911997 276.363777 
L 210.12844 276.247838 
L 210.344863 276.372118 
L 210.777749 276.368907 
L 211.427058 276.423201 
L 213.158542 276.627232 
L 213.374985 276.700801 
L 213.807851 276.63535 
L 216.188645 276.928187 
L 216.405088 276.811537 
L 216.837954 276.922209 
L 217.054397 276.835012 
L 218.136572 276.956586 
L 218.785881 276.989273 
L 219.218767 277.078761 
L 220.084499 276.994514 
L 220.733809 277.089239 
L 220.950251 277.018585 
L 221.383118 277.123639 
L 221.816004 277.115338 
L 222.032427 277.169061 
L 222.24887 277.018937 
L 222.465313 277.208978 
L 222.681736 277.038181 
L 223.114622 277.08449 
L 223.331045 277.343382 
L 223.763931 277.089285 
L 223.980354 277.078869 
L 224.41324 277.337874 
L 224.846106 277.241051 
L 225.062549 277.23058 
L 225.278972 277.346198 
L 225.495415 277.271788 
L 225.711858 277.380075 
L 225.928281 277.28137 
L 226.57759 277.267502 
L 227.010476 277.201675 
L 227.226899 277.16733 
L 227.443342 277.395895 
L 228.092651 277.122675 
L 228.309094 277.367896 
L 228.525518 277.134115 
L 228.741961 277.202609 
L 228.958404 277.059751 
L 229.39127 277.44757 
L 229.607713 277.065113 
L 229.824136 277.496237 
L 230.040579 277.316418 
L 230.257022 277.505719 
L 230.473445 276.957644 
L 230.689888 277.258533 
L 230.906331 276.733275 
L 231.339197 277.573426 
L 231.55564 277.54196 
L 231.772063 277.156443 
L 232.204949 277.361132 
L 232.421372 277.147438 
L 232.854258 277.243454 
L 233.070681 277.617178 
L 233.287124 277.242521 
L 233.503567 277.276533 
L 233.71999 277.165049 
L 233.936433 277.257369 
L 234.152876 277.714623 
L 234.585742 276.920722 
L 234.802185 277.64625 
L 235.018609 277.373312 
L 235.235051 276.71766 
L 235.667918 277.365417 
L 235.884361 277.320061 
L 236.100804 276.995387 
L 236.317227 277.826572 
L 236.750113 277.087339 
L 236.966536 278.264121 
L 237.182979 277.767456 
L 237.399422 278.018671 
L 237.615845 276.499699 
L 238.048731 277.91154 
L 238.265154 277.167131 
L 238.481597 277.947845 
L 238.914463 277.743073 
L 239.130906 277.935235 
L 239.347349 276.540257 
L 239.563772 276.327415 
L 239.780215 277.963478 
L 239.996658 277.453688 
L 240.213081 277.842792 
L 240.429524 277.152523 
L 240.645967 277.891781 
L 240.86239 277.224395 
L 241.078833 277.199577 
L 241.295276 277.758565 
L 241.511699 276.601283 
L 241.728142 277.677123 
L 241.944566 277.459623 
L 243.026741 277.483666 
L 271.596341 277.38338 
L 272.678536 277.372975 
L 282.201729 277.356787 
L 284.149676 277.3529 
L 286.097604 277.363734 
L 288.261954 277.348371 
L 290.209881 277.352013 
L 293.889313 277.357093 
L 295.187931 277.360245 
L 303.845372 277.370313 
L 305.14399 277.370894 
L 306.659032 277.358439 
L 309.905577 277.384298 
L 311.853504 277.396506 
L 313.368585 277.416884 
L 314.667204 277.477487 
L 315.532936 277.548045 
L 318.995904 277.68944 
L 320.727409 277.455432 
L 322.026027 277.495289 
L 322.891759 277.47709 
L 325.488995 277.413763 
L 328.302694 277.482167 
L 328.735541 277.465955 
L 330.467045 277.475071 
L 339.124486 277.475927 
L 341.938185 277.395436 
L 343.453227 277.367896 
L 344.968268 277.367069 
L 349.297009 277.331324 
L 351.244936 277.341454 
L 355.790099 277.319234 
L 385.009009 277.376617 
L 386.091204 277.380809 
L 389.554172 277.369701 
L 396.047263 277.316296 
L 399.293809 277.138541 
L 399.943118 277.054696 
L 401.458159 277.01074 
L 401.891045 277.029662 
L 403.838972 277.096086 
L 404.271858 277.168556 
L 404.488281 277.144345 
L 404.488281 277.144345 
" clip-path="url(#paeaeb56231)" style="fill: none; stroke: #f4865e; stroke-linecap: round"/>
   </g>
   <g id="line2d_33">
    <path d="M 47.368281 240.504361 
L 48.666899 235.698216 
L 50.614827 226.372691 
L 53.212063 208.982862 
L 55.592866 192.181855 
L 57.757227 175.233135 
L 58.622969 169.410268 
L 59.705154 162.951258 
L 61.436648 154.182874 
L 63.168132 146.290591 
L 64.033885 143.651923 
L 64.466751 142.750011 
L 65.11606 142.204146 
L 65.765369 142.225594 
L 66.631121 143.088522 
L 67.496863 144.907203 
L 67.929739 146.127958 
L 69.011914 150.013349 
L 72.907769 166.109408 
L 73.989954 168.826494 
L 74.639263 169.826245 
L 75.288572 170.438966 
L 75.505015 170.596163 
L 75.721448 170.554465 
L 76.154324 170.600956 
L 76.803633 170.559214 
L 77.236499 170.289798 
L 77.669375 170.118969 
L 78.751561 169.63025 
L 78.967994 169.617631 
L 79.40087 169.324924 
L 81.348797 169.06202 
L 81.56523 169.112495 
L 81.998106 169.049163 
L 82.647415 168.986246 
L 83.72959 168.71482 
L 83.946033 168.569229 
L 84.162466 168.564647 
L 85.028209 167.993941 
L 87.192579 166.052465 
L 89.789815 162.910168 
L 94.767845 156.72276 
L 95.85003 155.853884 
L 96.715772 155.408114 
L 97.797957 155.128202 
L 98.880142 155.086698 
L 101.477379 155.824196 
L 103.208863 156.876934 
L 105.373233 159.214938 
L 106.455409 160.962022 
L 107.537594 163.240228 
L 109.052645 167.319835 
L 110.784139 172.645964 
L 112.948499 179.749339 
L 115.762179 189.311539 
L 119.658033 203.107317 
L 123.770311 217.159316 
L 126.367547 225.124091 
L 128.748361 231.330096 
L 130.263402 234.68144 
L 131.778463 237.545518 
L 133.293524 240.059818 
L 133.72639 240.706182 
L 134.159276 241.385971 
L 135.890761 243.566111 
L 140.86879 248.83527 
L 144.331779 252.026994 
L 147.578324 254.77892 
L 148.876942 255.912214 
L 149.526251 256.397369 
L 154.937167 260.399544 
L 156.019342 261.110488 
L 157.534404 262.116389 
L 158.183713 262.565015 
L 160.13164 263.757662 
L 160.997372 264.287682 
L 162.29599 265.050829 
L 167.27404 267.693032 
L 170.520585 269.075457 
L 171.169894 269.288771 
L 173.550688 270.105966 
L 175.065749 270.55527 
L 175.931481 270.728988 
L 176.364367 270.903859 
L 177.013676 271.035346 
L 177.879409 271.292289 
L 178.745161 271.434037 
L 180.693088 271.840053 
L 183.290324 272.27073 
L 185.021809 272.463301 
L 186.969736 272.762754 
L 187.619045 272.812364 
L 188.917663 272.936495 
L 189.999858 272.992251 
L 190.86559 273.071147 
L 193.029961 273.360583 
L 193.67927 273.543409 
L 194.328579 273.558799 
L 199.306609 274.376427 
L 199.739494 274.423513 
L 201.254536 274.584086 
L 201.687422 274.692104 
L 202.120288 274.666035 
L 202.553154 274.816428 
L 202.769597 274.752534 
L 203.202463 274.909596 
L 203.851772 274.853807 
L 204.284658 274.992337 
L 204.933967 274.997032 
L 206.665451 275.21965 
L 206.881894 275.091323 
L 207.314761 275.184037 
L 207.96407 275.266536 
L 208.180513 275.209868 
L 208.613379 275.311022 
L 210.561306 275.298066 
L 211.427058 275.385786 
L 212.29279 275.373265 
L 212.509233 275.527004 
L 212.942099 275.428695 
L 213.374985 275.54582 
L 214.024294 275.531042 
L 214.240718 275.606836 
L 214.890027 275.508279 
L 215.10647 275.718675 
L 215.322913 275.566946 
L 215.755779 275.648506 
L 216.188645 275.716504 
L 216.405088 275.598316 
L 216.837954 275.727314 
L 217.054397 275.627572 
L 217.487263 275.708819 
L 218.353015 275.740218 
L 218.785881 275.749041 
L 219.002324 275.921928 
L 219.868076 275.857063 
L 220.300942 275.860511 
L 221.816004 275.81612 
L 222.032427 275.949501 
L 223.114622 275.80596 
L 223.331045 276.022064 
L 223.547488 276.019911 
L 223.980354 275.801372 
L 224.41324 276.058992 
L 225.062549 275.942577 
L 225.278972 276.098498 
L 225.495415 275.968471 
L 225.711858 276.065697 
L 225.928281 275.948085 
L 226.144724 276.124037 
L 227.226899 276.016973 
L 227.443342 276.118886 
L 227.876209 275.80128 
L 228.092651 275.842195 
L 228.309094 276.076693 
L 228.525518 275.997207 
L 228.741961 276.242413 
L 229.174827 275.826479 
L 229.39127 276.298654 
L 229.607713 275.670024 
L 229.824136 276.146361 
L 230.040579 275.97447 
L 230.257022 276.132385 
L 230.473445 275.666589 
L 230.689888 276.218269 
L 230.906331 275.877933 
L 231.55564 276.185592 
L 231.772063 275.836253 
L 231.988506 275.824724 
L 232.204949 276.041782 
L 232.854258 276.007406 
L 233.070681 276.251434 
L 233.287124 275.88789 
L 234.152876 276.010928 
L 234.369299 275.539641 
L 234.585742 275.593632 
L 234.802185 276.557956 
L 235.018609 276.247469 
L 235.235051 276.224524 
L 235.451494 275.657655 
L 235.667918 276.547318 
L 235.884361 276.470896 
L 236.100804 275.82454 
L 236.317227 276.319196 
L 237.182979 275.964809 
L 237.399422 276.853318 
L 237.615845 275.870453 
L 237.832288 276.601866 
L 238.048731 276.410362 
L 238.265154 275.457353 
L 238.481597 277.024851 
L 238.69804 276.989656 
L 238.914463 276.640536 
L 239.130906 276.72625 
L 239.563772 275.475527 
L 239.780215 276.493343 
L 239.996658 276.036107 
L 240.213081 276.671821 
L 240.429524 275.723079 
L 240.645967 276.569099 
L 240.86239 276.149743 
L 241.078833 274.950978 
L 241.295276 276.407613 
L 241.511699 275.358385 
L 241.728142 277.076923 
L 241.944566 275.884812 
L 246.273286 275.767887 
L 247.355481 275.706155 
L 254.714304 275.577747 
L 261.856704 275.56425 
L 263.371766 275.494516 
L 264.453941 275.515939 
L 267.700486 275.52178 
L 268.566238 275.499911 
L 271.163475 275.472737 
L 272.894959 275.453669 
L 273.977154 275.454686 
L 276.141504 275.440088 
L 277.007256 275.447318 
L 281.985286 275.364229 
L 286.746913 275.210038 
L 287.612645 275.195734 
L 289.127686 275.108767 
L 297.135858 275.139467 
L 297.785167 275.168374 
L 299.083785 275.191197 
L 305.360413 275.280697 
L 306.875494 275.327973 
L 312.719276 275.483203 
L 314.234318 275.619669 
L 316.398668 276.044535 
L 317.26444 276.29005 
L 318.995904 276.470358 
L 319.645213 276.27387 
L 320.294523 276.130848 
L 321.160294 275.931499 
L 321.593141 275.868129 
L 327.653385 275.391353 
L 330.683468 275.466402 
L 331.982086 275.445113 
L 332.847858 275.460128 
L 334.146476 275.469623 
L 360.335263 275.276532 
L 361.417458 275.289706 
L 362.932499 275.247453 
L 364.014694 275.246481 
L 372.23925 275.33866 
L 373.754331 275.333771 
L 375.918681 275.274666 
L 377.000876 275.300827 
L 378.515918 275.313289 
L 380.030959 275.301413 
L 383.061081 275.223508 
L 383.926813 275.049347 
L 385.225432 275.129064 
L 387.173359 275.32242 
L 389.121286 275.32259 
L 389.987058 275.398445 
L 390.85279 275.406586 
L 391.285676 275.435463 
L 393.66645 275.586345 
L 394.532222 275.561415 
L 401.241736 274.994561 
L 403.189663 275.306889 
L 404.488281 275.859895 
L 404.488281 275.859895 
" clip-path="url(#paeaeb56231)" style="fill: none; stroke: #ec4a3e; stroke-linecap: round"/>
   </g>
   <g id="line2d_34">
    <path d="M 47.368281 234.494032 
L 47.801157 233.404456 
L 48.234023 232.038996 
L 49.749085 226.926117 
L 51.264136 220.027928 
L 54.943557 198.873721 
L 57.540794 182.096957 
L 59.488721 171.226499 
L 60.787339 165.466682 
L 62.518823 158.52891 
L 63.601009 155.301542 
L 64.250318 153.92315 
L 64.899627 153.178699 
L 65.765369 153.097664 
L 66.631121 153.793562 
L 67.28043 154.871968 
L 68.579048 158.538753 
L 69.011914 160.479885 
L 69.228357 161.152016 
L 70.094099 165.222336 
L 72.691336 176.817294 
L 73.557078 179.517258 
L 74.206387 181.114283 
L 74.855696 182.145837 
L 75.505015 182.84466 
L 75.721448 182.836896 
L 75.937881 182.992128 
L 76.370757 183.016801 
L 76.803633 183.004147 
L 77.452942 182.648021 
L 78.102251 182.36247 
L 78.318685 182.060052 
L 79.184427 181.574012 
L 84.378899 178.753095 
L 85.028209 178.225691 
L 87.625445 175.725176 
L 93.902103 168.522781 
L 94.984288 167.497352 
L 96.715772 166.518115 
L 97.797957 166.274139 
L 99.313009 166.335673 
L 102.343121 167.407329 
L 104.291048 168.80679 
L 105.15679 169.770844 
L 106.238975 171.34465 
L 107.104718 172.954417 
L 108.186903 175.468202 
L 111.649881 185.743051 
L 114.896427 196.143021 
L 118.575838 208.398907 
L 124.636063 227.972391 
L 126.367547 232.838226 
L 128.315475 237.629372 
L 129.614093 240.429319 
L 130.912731 242.87013 
L 132.211349 244.963356 
L 133.72639 247.060647 
L 134.375699 247.935224 
L 137.189379 250.741323 
L 142.383851 254.96768 
L 150.175561 260.018975 
L 150.608427 260.258358 
L 152.339931 261.253683 
L 153.638549 261.983617 
L 154.071415 262.24252 
L 154.504281 262.484882 
L 155.586476 263.017145 
L 160.780949 265.559734 
L 166.624731 268.082237 
L 167.27404 268.301022 
L 173.983554 270.253278 
L 181.342397 271.631743 
L 181.775263 271.642023 
L 190.216281 272.481267 
L 190.649167 272.45594 
L 191.514899 272.556017 
L 193.246404 272.742643 
L 193.895713 272.846548 
L 194.545022 272.854459 
L 195.194331 272.971861 
L 196.060063 273.085663 
L 196.925815 273.190907 
L 197.575124 273.333337 
L 198.00799 273.289206 
L 198.657299 273.46093 
L 198.873742 273.509116 
L 199.090185 273.426253 
L 199.306609 273.516789 
L 199.739494 273.56425 
L 200.82167 273.650593 
L 209.262688 274.368284 
L 209.479131 274.289677 
L 209.911997 274.336315 
L 210.777749 274.357649 
L 210.994172 274.444066 
L 211.643481 274.411193 
L 212.076367 274.552638 
L 212.29279 274.443633 
L 212.725676 274.543604 
L 214.890027 274.514936 
L 215.10647 274.676735 
L 215.322913 274.571386 
L 215.539336 274.647804 
L 215.972222 274.601533 
L 216.837954 274.636114 
L 217.27084 274.669514 
L 219.868076 274.779151 
L 220.084499 274.610936 
L 220.300942 274.771855 
L 222.681736 274.782226 
L 222.898179 274.642794 
L 223.547488 274.853668 
L 224.196797 274.704117 
L 224.41324 274.891984 
L 224.846106 274.718928 
L 226.361167 274.912809 
L 226.794033 274.702138 
L 227.010476 274.770093 
L 227.226899 274.710177 
L 227.443342 274.961727 
L 227.876209 274.774669 
L 228.092651 274.489066 
L 228.309094 274.910476 
L 228.525518 274.521837 
L 228.741961 274.894395 
L 228.958404 274.676287 
L 229.174827 274.701922 
L 229.39127 275.321017 
L 229.607713 274.616968 
L 229.824136 275.049563 
L 230.040579 274.754482 
L 230.257022 275.115481 
L 230.473445 274.532713 
L 230.689888 274.924704 
L 230.906331 274.48724 
L 231.122754 274.657438 
L 231.339197 275.022557 
L 231.55564 274.815176 
L 231.988506 274.820414 
L 232.204949 274.940861 
L 232.421372 274.82485 
L 232.637815 274.864916 
L 232.854258 274.639454 
L 233.070681 274.973867 
L 233.936433 274.233103 
L 234.152876 274.946606 
L 234.585742 274.714893 
L 234.802185 274.939007 
L 235.451494 274.788409 
L 235.884361 275.577963 
L 236.100804 274.697794 
L 236.317227 275.3683 
L 236.53367 275.660166 
L 236.750113 274.614942 
L 236.966536 275.43315 
L 237.182979 275.138603 
L 237.615845 274.082168 
L 237.832288 275.192848 
L 238.265154 274.025408 
L 238.481597 274.721525 
L 238.69804 274.757805 
L 238.914463 275.070421 
L 239.347349 274.294292 
L 239.780215 274.779089 
L 240.213081 275.199684 
L 240.429524 274.83613 
L 240.86239 274.794142 
L 241.078833 274.513993 
L 241.295276 274.741157 
L 241.511699 273.427946 
L 241.728142 275.392555 
L 241.944566 274.63916 
L 245.191111 274.616442 
L 246.056863 274.594495 
L 249.303409 274.546126 
L 250.81845 274.50423 
L 253.415686 274.473128 
L 254.930747 274.461987 
L 266.618311 274.359615 
L 267.700486 274.397835 
L 268.566238 274.359723 
L 282.201729 274.331469 
L 283.067481 274.352246 
L 286.53045 274.36734 
L 289.127686 274.408809 
L 290.426304 274.392479 
L 291.941385 274.439176 
L 294.105736 274.436266 
L 295.620777 274.408778 
L 300.165941 274.432815 
L 302.113868 274.446805 
L 302.97964 274.438727 
L 313.368585 274.614988 
L 314.667204 274.751004 
L 316.182245 274.99538 
L 316.831554 275.245308 
L 317.697286 275.389826 
L 318.346595 275.515816 
L 319.42879 275.402577 
L 320.078099 275.238504 
L 320.727409 275.09969 
L 322.026027 274.933832 
L 326.57119 274.529062 
L 338.258754 274.655412 
L 340.639567 274.574697 
L 343.453227 274.493337 
L 344.968268 274.500377 
L 371.589941 274.51161 
L 373.321445 274.520305 
L 381.978886 274.483326 
L 387.173359 274.450396 
L 388.255554 274.44289 
L 394.748645 274.645995 
L 399.943118 274.051961 
L 400.592427 274.047156 
L 402.107468 274.173867 
L 403.189663 274.360993 
L 404.488281 274.988986 
L 404.488281 274.988986 
" clip-path="url(#paeaeb56231)" style="fill: none; stroke: #ca1a50; stroke-linecap: round"/>
   </g>
   <g id="line2d_35">
    <path d="M 47.368281 249.362822 
L 47.801157 248.49204 
L 48.450466 246.631855 
L 49.316209 244.159356 
L 51.913445 234.513396 
L 54.943557 220.654229 
L 61.869514 188.341995 
L 63.168132 183.773475 
L 64.250318 180.575618 
L 66.414678 175.829915 
L 67.28043 174.59055 
L 67.929739 174.105839 
L 69.011914 174.103328 
L 69.661223 174.702082 
L 70.310532 175.500762 
L 72.907769 180.145876 
L 73.557078 180.785888 
L 74.206387 181.143557 
L 74.639263 181.083283 
L 75.505015 180.369594 
L 77.020066 177.339772 
L 78.102251 174.312762 
L 79.40087 170.105073 
L 81.56523 163.203474 
L 84.162466 155.812476 
L 85.677518 152.040627 
L 87.841888 147.603219 
L 89.356939 145.116496 
L 90.655557 143.510729 
L 92.170609 142.09597 
L 92.603485 141.815266 
L 93.036361 141.509385 
L 93.68567 141.131203 
L 93.902103 141.120434 
L 94.118536 140.99104 
L 94.551412 140.956012 
L 94.984288 140.929779 
L 95.633597 140.989841 
L 96.932215 141.613208 
L 97.797957 142.328095 
L 99.529451 144.443765 
L 101.910245 148.304915 
L 103.858172 152.303981 
L 105.806099 157.419803 
L 107.104718 161.587362 
L 108.186903 165.562019 
L 111.866324 181.445269 
L 122.038827 227.600725 
L 125.285372 240.380058 
L 127.666166 248.086693 
L 128.964784 251.596017 
L 130.263402 254.70558 
L 132.644215 259.015295 
L 134.808585 261.890416 
L 137.838688 264.522077 
L 139.137306 265.34766 
L 141.950985 266.799275 
L 144.548222 267.792013 
L 145.630397 268.165383 
L 148.01119 268.967738 
L 152.339931 270.240725 
L 154.287858 270.815598 
L 155.370033 271.030939 
L 159.049445 271.916851 
L 160.13164 272.133909 
L 160.564506 272.231427 
L 163.811051 272.915556 
L 165.10967 273.168279 
L 165.975422 273.38694 
L 167.27404 273.627912 
L 168.356215 273.839015 
L 170.953451 274.234962 
L 171.602761 274.358113 
L 172.468513 274.421392 
L 172.901379 274.505344 
L 175.065749 274.807758 
L 175.715058 274.875716 
L 176.364367 274.981496 
L 178.095851 275.199206 
L 178.745161 275.209004 
L 179.39447 275.357182 
L 179.827336 275.323253 
L 180.260222 275.419229 
L 181.55884 275.520177 
L 182.641015 275.554542 
L 185.021809 275.719584 
L 185.671118 275.744976 
L 186.53687 275.776216 
L 186.969736 275.81321 
L 187.619045 275.802203 
L 188.051931 275.829866 
L 188.917663 275.826479 
L 195.410754 276.209124 
L 196.492949 276.369936 
L 196.709372 276.327461 
L 197.142258 276.457245 
L 199.090185 276.619483 
L 199.306609 276.706308 
L 199.739494 276.686319 
L 200.605227 276.783367 
L 201.038113 276.827024 
L 201.470979 276.877112 
L 201.903845 276.873923 
L 206.016142 277.130868 
L 206.449009 277.127621 
L 206.665451 277.225467 
L 206.881894 277.044401 
L 207.314761 277.233733 
L 207.531204 277.140501 
L 207.96407 277.211397 
L 209.479131 277.295114 
L 210.12844 277.289605 
L 210.994172 277.353053 
L 211.210615 277.285962 
L 211.427058 277.397914 
L 211.643481 277.30742 
L 212.076367 277.396874 
L 212.29279 277.289788 
L 212.725676 277.43261 
L 213.158542 277.358776 
L 213.807851 277.401769 
L 214.457161 277.402351 
L 216.188645 277.442645 
L 216.621531 277.415446 
L 216.837954 277.450598 
L 217.054397 277.362907 
L 217.920149 277.528168 
L 218.353015 277.421749 
L 219.218767 277.540859 
L 219.651633 277.460449 
L 219.868076 277.561378 
L 220.084499 277.394273 
L 220.733809 277.515323 
L 220.950251 277.370007 
L 221.383118 277.538168 
L 222.24887 277.429183 
L 222.465313 277.536394 
L 222.898179 277.271911 
L 223.114622 277.277911 
L 223.331045 277.5726 
L 223.980354 277.360459 
L 225.495415 277.451486 
L 225.711858 277.345066 
L 226.361167 277.413121 
L 226.57759 277.336313 
L 226.794033 277.379769 
L 227.010476 277.208365 
L 227.443342 277.55936 
L 228.092651 277.158326 
L 228.309094 277.597458 
L 228.525518 277.370558 
L 228.741961 277.401402 
L 229.174827 277.233688 
L 229.39127 277.568747 
L 229.607713 276.935927 
L 229.824136 277.39516 
L 230.040579 276.982592 
L 230.257022 277.610146 
L 230.473445 277.038165 
L 230.689888 277.640901 
L 230.906331 276.964341 
L 231.55564 277.557923 
L 231.772063 277.14603 
L 231.988506 277.262114 
L 232.421372 277.13727 
L 232.637815 277.328539 
L 232.854258 276.856615 
L 233.287124 277.44708 
L 233.503567 277.203818 
L 233.71999 276.417887 
L 233.936433 277.278768 
L 234.152876 277.146458 
L 234.369299 277.36202 
L 234.585742 277.032389 
L 235.018609 277.740842 
L 235.235051 276.883627 
L 235.884361 277.579755 
L 236.100804 276.250958 
L 236.317227 277.524314 
L 236.750113 276.869769 
L 236.966536 277.822234 
L 237.182979 277.399903 
L 237.399422 277.35997 
L 237.615845 276.739717 
L 237.832288 277.700259 
L 238.265154 276.396831 
L 238.481597 277.574924 
L 238.69804 277.637263 
L 238.914463 277.152477 
L 239.130906 278.67925 
L 239.563772 276.276805 
L 239.780215 277.954288 
L 239.996658 277.677275 
L 240.213081 276.916093 
L 240.429524 276.934547 
L 240.645967 277.927876 
L 240.86239 277.501284 
L 241.078833 276.525997 
L 241.295276 277.44552 
L 241.511699 276.469606 
L 241.728142 277.889399 
L 241.944566 277.083862 
L 243.892493 277.055308 
L 244.325359 277.045779 
L 246.056863 277.053118 
L 247.355481 277.047189 
L 249.086966 277.023702 
L 252.117068 277.034917 
L 254.281438 277.01287 
L 257.311541 277.015398 
L 260.990972 277.083142 
L 265.752559 276.989365 
L 269.215547 276.961076 
L 277.440123 276.870734 
L 279.604493 276.857964 
L 280.037359 276.859497 
L 282.634595 276.83725 
L 283.933213 276.894542 
L 285.448294 276.902865 
L 286.097604 276.907632 
L 287.396222 276.869539 
L 288.045531 276.886862 
L 301.897445 276.910882 
L 302.113868 276.833601 
L 302.330331 276.982561 
L 302.763177 276.931696 
L 312.935699 277.061773 
L 314.234318 277.170883 
L 316.615131 277.745823 
L 318.130172 278.324769 
L 318.995904 278.561885 
L 319.645213 278.50431 
L 321.593141 277.857789 
L 322.675336 277.718412 
L 323.324645 277.6851 
L 326.57119 277.047066 
L 328.086232 277.055814 
L 331.54924 277.153411 
L 335.445094 277.17537 
L 339.340949 277.19134 
L 339.773795 277.124114 
L 343.453227 277.052122 
L 345.401154 276.998957 
L 347.565504 276.980339 
L 349.080585 276.990039 
L 353.842172 276.972233 
L 357.738027 276.87702 
L 358.603759 276.865783 
L 363.581809 276.79289 
L 368.559858 276.866319 
L 369.42559 276.856814 
L 371.157094 276.878997 
L 375.052949 276.928355 
L 376.351567 276.910453 
L 378.299494 276.919741 
L 381.978886 276.859926 
L 383.061081 276.856017 
L 384.359699 276.752985 
L 385.874741 276.775852 
L 391.718523 276.729425 
L 392.367832 276.849853 
L 392.800718 276.883029 
L 393.233604 276.939069 
L 393.882913 276.907096 
L 394.532222 276.850237 
L 395.397954 276.688851 
L 398.644499 276.246209 
L 401.025313 276.126958 
L 401.674622 276.137659 
L 402.107468 276.335727 
L 402.756777 276.462266 
L 404.488281 277.440105 
L 404.488281 277.440105 
" clip-path="url(#paeaeb56231)" style="fill: none; stroke: #951c5b; stroke-linecap: round"/>
   </g>
   <g id="line2d_36">
    <path d="M 47.368281 247.164705 
L 47.584714 247.127873 
L 47.801157 246.834193 
L 48.234023 246.09418 
L 50.398394 242.324796 
L 53.644939 233.927516 
L 55.809299 226.547489 
L 58.190103 217.479671 
L 62.30239 198.536585 
L 66.631121 177.707654 
L 70.959842 155.311878 
L 73.340645 143.589076 
L 75.288572 132.616664 
L 76.154324 127.09254 
L 79.184427 105.325947 
L 81.56523 88.076748 
L 83.72959 74.376297 
L 85.028209 67.307279 
L 86.326827 61.251777 
L 87.409012 56.856376 
L 88.70763 52.676498 
L 90.655557 48.383527 
L 91.304866 47.395743 
L 92.170609 46.553038 
L 92.603485 46.256781 
L 92.819918 46.217673 
L 93.252794 46.019845 
L 93.902103 46.041698 
L 94.334979 46.211417 
L 94.767845 46.420806 
L 95.633597 47.187604 
L 96.499339 48.366767 
L 97.148648 49.431673 
L 98.663699 52.896762 
L 99.962318 56.676912 
L 101.477379 62.02099 
L 102.99243 68.301655 
L 104.723924 76.580747 
L 107.104718 90.002476 
L 109.052645 102.559277 
L 113.814251 137.412401 
L 122.038827 201.050194 
L 124.636063 218.862993 
L 126.58399 230.496772 
L 128.315475 239.402491 
L 129.830536 245.962889 
L 131.129154 250.647637 
L 132.211349 253.943538 
L 133.942833 258.334229 
L 135.457894 261.123953 
L 137.405822 263.919397 
L 140.003058 266.513679 
L 142.600294 268.231285 
L 143.466027 268.607549 
L 144.115336 268.88311 
L 145.630397 269.445421 
L 146.496149 269.745007 
L 150.175561 270.640557 
L 151.041313 270.790625 
L 151.690622 270.929841 
L 152.98924 271.131275 
L 153.854972 271.271623 
L 155.586476 271.555769 
L 167.057597 272.620989 
L 168.789081 272.726191 
L 169.654833 272.808237 
L 170.953451 272.827393 
L 172.25207 272.919729 
L 172.468513 272.843916 
L 172.901379 272.921644 
L 175.282172 273.021306 
L 176.147924 273.111799 
L 177.662985 273.163597 
L 178.528718 273.23067 
L 178.961604 273.262917 
L 180.043779 273.328954 
L 183.506767 273.388758 
L 184.156076 273.446342 
L 186.104004 273.513807 
L 186.753313 273.55824 
L 187.402622 273.520097 
L 187.835488 273.5572 
L 189.134106 273.520765 
L 190.432724 273.536436 
L 191.082033 273.534914 
L 193.029961 273.611951 
L 193.895713 273.641993 
L 204.284658 273.98076 
L 204.501081 273.914891 
L 204.717524 274.022215 
L 205.366833 273.926677 
L 206.232585 274.06453 
L 207.314761 273.985164 
L 207.747627 274.01789 
L 207.96407 274.061539 
L 208.180513 273.946758 
L 208.396936 274.107521 
L 208.829822 274.014061 
L 209.046245 274.098672 
L 209.695554 274.029299 
L 209.911997 274.069598 
L 210.12844 273.971195 
L 210.994172 274.10766 
L 211.427058 274.031733 
L 212.076367 274.084136 
L 212.29279 274.001861 
L 212.509233 274.158715 
L 212.725676 274.035143 
L 213.158542 274.105227 
L 214.024294 274.109628 
L 214.673604 274.102794 
L 214.890027 274.051697 
L 215.10647 274.170893 
L 215.322913 274.081951 
L 215.755779 274.105351 
L 217.487263 274.052689 
L 217.703706 274.188507 
L 218.785881 274.081253 
L 219.218767 274.216437 
L 219.43519 274.130408 
L 219.651633 274.202279 
L 220.084499 274.050798 
L 220.517385 274.170831 
L 220.733809 274.192163 
L 220.950251 274.067584 
L 221.383118 274.147126 
L 221.816004 274.05086 
L 222.465313 274.186726 
L 222.898179 273.987582 
L 223.114622 273.975706 
L 223.331045 274.204153 
L 223.547488 274.158529 
L 223.763931 273.996962 
L 223.980354 273.979117 
L 224.41324 274.135955 
L 224.629663 274.066886 
L 224.846106 274.161923 
L 225.278972 273.944928 
L 225.711858 274.172737 
L 226.57759 274.167608 
L 226.794033 273.983117 
L 227.659785 274.017347 
L 227.876209 273.968512 
L 228.092651 273.784948 
L 228.309094 274.16956 
L 228.958404 274.165672 
L 229.174827 274.12314 
L 229.39127 274.400064 
L 229.607713 273.62445 
L 229.824136 274.379445 
L 230.040579 274.268787 
L 230.257022 274.381613 
L 230.473445 273.987396 
L 230.906331 274.173356 
L 231.122754 274.092396 
L 231.339197 274.454698 
L 231.55564 274.188259 
L 231.772063 274.274826 
L 231.988506 273.955395 
L 232.204949 274.529696 
L 232.421372 274.311588 
L 232.637815 274.400033 
L 232.854258 274.08474 
L 233.503567 274.575037 
L 233.71999 273.745349 
L 233.936433 274.084415 
L 234.152876 273.936974 
L 234.369299 274.249552 
L 234.585742 273.775406 
L 234.802185 274.473175 
L 235.235051 273.973334 
L 235.667918 274.378068 
L 235.884361 274.054828 
L 236.317227 274.433743 
L 236.53367 274.214268 
L 237.182979 274.245974 
L 237.399422 274.497344 
L 237.615845 273.410761 
L 237.832288 275.338815 
L 238.265154 273.40035 
L 238.481597 273.917667 
L 238.914463 274.197957 
L 239.130906 273.858421 
L 239.347349 274.241173 
L 239.563772 273.574018 
L 239.780215 274.556769 
L 239.996658 274.269855 
L 240.213081 275.0868 
L 240.429524 273.862779 
L 240.645967 275.277797 
L 240.86239 273.626716 
L 241.078833 272.978928 
L 241.295276 273.778649 
L 241.728142 274.313802 
L 241.944566 273.755684 
L 244.325359 273.786934 
L 245.407554 273.758291 
L 248.221213 273.811727 
L 250.385584 273.814629 
L 264.886827 273.944479 
L 265.752559 273.962279 
L 269.648413 273.983179 
L 271.596341 273.874862 
L 272.24565 273.892962 
L 285.231832 274.00924 
L 287.829068 274.099323 
L 290.426304 274.142013 
L 297.135858 274.262886 
L 298.00159 274.293703 
L 299.300209 274.289987 
L 301.897445 274.331871 
L 302.113868 274.277072 
L 302.330331 274.378594 
L 303.196063 274.35223 
L 305.576876 274.366241 
L 306.226185 274.356395 
L 307.308341 274.409227 
L 310.771349 274.396473 
L 312.28639 274.581317 
L 313.152123 274.791515 
L 314.234318 275.010884 
L 315.532936 275.644855 
L 316.182245 276.146222 
L 317.047977 277.357277 
L 318.563058 279.182149 
L 318.995904 279.500794 
L 319.42879 279.516453 
L 319.861676 279.234803 
L 320.727409 278.212824 
L 321.809604 276.849271 
L 322.458913 276.435179 
L 323.757531 275.867129 
L 325.272572 275.083744 
L 326.787613 274.797558 
L 327.869809 274.731496 
L 328.735541 274.745455 
L 329.601313 274.712172 
L 331.54924 274.749366 
L 332.631395 274.736396 
L 336.310827 274.742595 
L 338.69164 274.728559 
L 339.557372 274.672189 
L 346.050463 274.608431 
L 360.335263 274.348267 
L 360.984572 274.348097 
L 361.850304 274.359212 
L 364.880427 274.425866 
L 366.828354 274.402742 
L 367.26124 274.466505 
L 367.694086 274.450844 
L 368.343395 274.487504 
L 375.485795 274.606652 
L 376.56799 274.622257 
L 379.165227 274.707116 
L 380.463845 274.626649 
L 381.329577 274.554603 
L 382.844658 274.656618 
L 384.143276 274.588123 
L 385.441894 274.612452 
L 387.389822 274.61573 
L 389.770595 274.528876 
L 390.203481 274.600063 
L 392.367832 274.757295 
L 394.099336 274.959472 
L 394.965068 274.851165 
L 400.376004 273.988063 
L 401.674622 274.11764 
L 402.107468 274.345062 
L 402.97324 274.725807 
L 404.488281 275.880857 
L 404.488281 275.880857 
" clip-path="url(#paeaeb56231)" style="fill: none; stroke: #601f52; stroke-linecap: round"/>
   </g>
   <g id="line2d_37">
    <path d="M 47.368281 249.736023 
L 47.584714 249.647441 
L 48.883332 247.797678 
L 49.316209 247.339847 
L 49.965518 246.164491 
L 50.614827 245.114261 
L 51.264136 243.891091 
L 52.346321 241.615996 
L 54.510681 236.045777 
L 55.376423 233.379051 
L 56.242175 230.44902 
L 57.757227 225.1765 
L 59.705154 217.382149 
L 61.003772 211.687245 
L 62.085957 206.639592 
L 67.063987 180.929259 
L 70.526975 160.007009 
L 75.505015 126.837981 
L 80.699488 86.497188 
L 82.863848 71.76944 
L 84.378899 63.14009 
L 85.461085 57.967299 
L 86.326827 54.462645 
L 86.976136 52.07117 
L 87.841888 49.498257 
L 88.70763 47.42551 
L 88.924063 47.090867 
L 89.356939 46.194639 
L 90.006248 45.376907 
L 90.439124 44.851274 
L 91.088433 44.403874 
L 91.737742 44.213342 
L 92.387051 44.296915 
L 93.68567 45.139584 
L 94.984288 47.00021 
L 96.066463 49.188851 
L 97.148648 51.972811 
L 99.096575 58.330686 
L 99.745885 60.764036 
L 101.044503 66.18543 
L 103.425306 77.724979 
L 104.940357 86.022594 
L 106.671851 96.410756 
L 108.619779 109.00254 
L 111.000572 125.53568 
L 113.814251 145.927583 
L 118.359415 179.200936 
L 121.822384 203.405518 
L 123.986754 217.240312 
L 126.151124 229.488579 
L 127.449742 236.070177 
L 128.964784 242.789424 
L 130.263402 247.740949 
L 131.994906 253.19498 
L 133.077081 256.053132 
L 134.375699 259.087677 
L 136.107204 262.067413 
L 136.972936 263.463136 
L 139.137306 266.093951 
L 140.435924 267.345528 
L 143.249604 269.42388 
L 145.197531 270.401842 
L 148.227633 271.564862 
L 149.742694 271.991406 
L 150.392004 272.12824 
L 155.15359 273.141946 
L 158.833022 273.73745 
L 159.265888 273.745194 
L 160.997372 273.933826 
L 164.893227 274.317332 
L 165.326113 274.382185 
L 165.975422 274.447842 
L 166.408288 274.513575 
L 166.841154 274.510852 
L 167.27404 274.571 
L 169.654833 274.8085 
L 170.087699 274.829532 
L 173.334245 275.036145 
L 178.961604 275.491495 
L 179.39447 275.537792 
L 180.693088 275.667282 
L 182.208149 275.769488 
L 182.857458 275.755015 
L 184.372499 275.882211 
L 185.454694 275.970532 
L 185.887561 275.967824 
L 186.753313 276.084827 
L 187.402622 276.087887 
L 197.358681 276.698976 
L 197.791567 276.745945 
L 198.657299 276.764488 
L 199.306609 276.817977 
L 200.388804 276.813591 
L 200.82167 276.876514 
L 202.120288 276.939161 
L 204.284658 277.06764 
L 204.717524 277.057729 
L 204.933967 277.131129 
L 205.366833 277.118509 
L 206.016142 277.125232 
L 206.665451 277.170852 
L 207.098318 277.11592 
L 207.96407 277.238326 
L 208.180513 277.132338 
L 208.396936 277.313755 
L 208.829822 277.278707 
L 209.046245 277.350177 
L 209.262688 277.181249 
L 209.479131 277.299339 
L 210.12844 277.192458 
L 210.344863 277.33668 
L 212.725676 277.33619 
L 213.374985 277.474795 
L 213.807851 277.363856 
L 215.755779 277.442308 
L 215.972222 277.391672 
L 216.188645 277.469473 
L 216.621531 277.436128 
L 218.136572 277.4818 
L 218.569458 277.450904 
L 218.785881 277.414467 
L 219.002324 277.581284 
L 219.218767 277.59596 
L 219.43519 277.400545 
L 219.651633 277.536669 
L 223.114622 277.425084 
L 223.547488 277.60339 
L 223.763931 277.341516 
L 224.629663 277.486786 
L 225.062549 277.389683 
L 225.278972 277.566882 
L 225.495415 277.391458 
L 225.928281 277.572998 
L 226.57759 277.514374 
L 227.010476 277.32759 
L 227.443342 277.695675 
L 228.092651 277.322724 
L 228.309094 277.61568 
L 228.525518 277.474704 
L 228.958404 277.594615 
L 229.174827 277.416731 
L 229.39127 277.683816 
L 229.607713 277.487673 
L 230.040579 277.808121 
L 230.257022 277.810595 
L 230.473445 277.308307 
L 230.689888 277.93496 
L 230.906331 277.526914 
L 231.122754 277.619624 
L 231.339197 278.021938 
L 231.772063 278.135766 
L 232.204949 277.628979 
L 232.637815 277.812031 
L 232.854258 277.795656 
L 233.070681 277.357062 
L 233.503567 277.8708 
L 233.71999 277.430988 
L 234.152876 277.747198 
L 234.369299 277.814719 
L 234.585742 277.433314 
L 234.802185 278.14196 
L 235.018609 277.615925 
L 235.667918 277.542052 
L 235.884361 278.233777 
L 236.100804 277.063167 
L 236.317227 277.463753 
L 236.750113 277.208748 
L 237.182979 278.014154 
L 237.615845 277.301114 
L 237.832288 277.431937 
L 238.048731 277.322326 
L 238.265154 276.690569 
L 238.69804 277.480087 
L 238.914463 277.404829 
L 239.130906 277.885154 
L 239.563772 276.505134 
L 239.996658 278.360285 
L 240.213081 278.033903 
L 240.429524 277.379646 
L 240.645967 277.960211 
L 240.86239 278.062165 
L 241.078833 276.615156 
L 241.295276 277.384695 
L 241.511699 276.786986 
L 241.728142 277.874282 
L 241.944566 276.960846 
L 244.541802 276.906452 
L 248.654099 276.787799 
L 249.736275 276.785161 
L 250.385584 276.730499 
L 255.363613 276.660928 
L 262.28959 276.597876 
L 263.371766 276.514928 
L 264.021075 276.512211 
L 270.081299 276.38886 
L 271.596341 276.256152 
L 272.24565 276.245625 
L 275.059329 276.080768 
L 280.037359 276.10085 
L 281.335977 276.121192 
L 282.418172 276.158352 
L 283.067481 276.173186 
L 287.179759 276.256844 
L 290.209881 276.303909 
L 291.075613 276.368815 
L 294.755045 276.361949 
L 301.897445 276.395295 
L 302.113868 276.309609 
L 302.330331 276.445744 
L 302.97964 276.39849 
L 304.278258 276.407398 
L 305.793299 276.397015 
L 306.442609 276.481152 
L 308.823422 276.485804 
L 311.420658 276.562038 
L 311.853504 276.632465 
L 313.585009 277.247281 
L 314.234318 277.456319 
L 315.10005 278.150136 
L 315.965822 278.898184 
L 316.398668 279.654221 
L 317.480863 281.916012 
L 318.779481 284.192568 
L 319.212367 284.50015 
L 319.645213 284.24355 
L 320.510985 282.956299 
L 321.593141 280.625141 
L 322.24245 279.838291 
L 322.675336 279.451139 
L 325.705458 277.408072 
L 327.004076 277.107772 
L 328.735541 276.993671 
L 329.601313 276.934747 
L 331.54924 276.971926 
L 335.228632 276.829201 
L 342.587494 276.635442 
L 344.102536 276.621493 
L 347.781967 276.522727 
L 348.864123 276.518643 
L 351.894245 276.405386 
L 356.222985 276.147037 
L 359.036645 276.073525 
L 360.11884 276.051025 
L 366.828354 276.059238 
L 367.694086 276.078 
L 369.642013 276.162979 
L 370.507785 276.165792 
L 370.940632 276.165546 
L 371.589941 276.216363 
L 372.672136 276.369107 
L 375.485795 276.23456 
L 376.351567 276.23038 
L 377.650185 276.246056 
L 378.299494 276.263774 
L 380.030959 276.272164 
L 381.329577 276.121285 
L 382.628195 276.32783 
L 383.926813 276.162626 
L 385.874741 276.300114 
L 386.52405 276.3637 
L 389.770595 276.01805 
L 389.987058 276.133139 
L 391.069213 276.092593 
L 392.584294 276.27135 
L 393.233604 276.477682 
L 393.882913 276.508404 
L 394.315759 276.559828 
L 395.397954 276.383392 
L 397.129458 276.055685 
L 398.211613 275.883027 
L 400.376004 275.409716 
L 400.80885 275.450678 
L 401.241736 275.451757 
L 401.674622 275.541875 
L 402.107468 275.849598 
L 402.756777 276.088472 
L 404.488281 277.415048 
L 404.488281 277.415048 
" clip-path="url(#paeaeb56231)" style="fill: none; stroke: #2e1739; stroke-linecap: round"/>
   </g>
   <g id="line2d_38"/>
   <g id="line2d_39"/>
   <g id="line2d_40"/>
   <g id="line2d_41"/>
   <g id="line2d_42"/>
   <g id="line2d_43"/>
   <g id="line2d_44"/>
   <g id="patch_3">
    <path d="M 47.368281 277.248797 
L 47.368281 11.136797 
" style="fill: none; stroke: #262626; stroke-width: 1.25; stroke-linejoin: miter; stroke-linecap: square"/>
   </g>
   <g id="patch_4">
    <path d="M 47.368281 277.248797 
L 404.488281 277.248797 
" style="fill: none; stroke: #262626; stroke-width: 1.25; stroke-linejoin: miter; stroke-linecap: square"/>
   </g>
   <g id="legend_1">
    <g id="line2d_45">
     <path d="M 226.799406 45.415809 
L 232.799406 45.415809 
L 238.799406 45.415809 
" style="fill: none; stroke: #f6bb97; stroke-width: 1.5; stroke-linecap: round"/>
    </g>
    <g id="text_19">
     <!-- imine polymer 0.0% TFA time = 1 min_Abs -->
     <g style="fill: #262626" transform="translate(243.599406 47.515809) scale(0.06 -0.06)">
      <defs>
       <path id="ArialMT-69" d="M 425 3934 
L 425 4581 
L 988 4581 
L 988 3934 
L 425 3934 
z
M 425 0 
L 425 3319 
L 988 3319 
L 988 0 
L 425 0 
z
" transform="scale(0.015625)"/>
       <path id="ArialMT-70" d="M 422 -1272 
L 422 3319 
L 934 3319 
L 934 2888 
Q 1116 3141 1344 3267 
Q 1572 3394 1897 3394 
Q 2322 3394 2647 3175 
Q 2972 2956 3137 2557 
Q 3303 2159 3303 1684 
Q 3303 1175 3120 767 
Q 2938 359 2589 142 
Q 2241 -75 1856 -75 
Q 1575 -75 1351 44 
Q 1128 163 984 344 
L 984 -1272 
L 422 -1272 
z
M 931 1641 
Q 931 1000 1190 694 
Q 1450 388 1819 388 
Q 2194 388 2461 705 
Q 2728 1022 2728 1688 
Q 2728 2322 2467 2637 
Q 2206 2953 1844 2953 
Q 1484 2953 1207 2617 
Q 931 2281 931 1641 
z
" transform="scale(0.015625)"/>
       <path id="ArialMT-79" d="M 397 -1278 
L 334 -750 
Q 519 -800 656 -800 
Q 844 -800 956 -737 
Q 1069 -675 1141 -563 
Q 1194 -478 1313 -144 
Q 1328 -97 1363 -6 
L 103 3319 
L 709 3319 
L 1400 1397 
Q 1534 1031 1641 628 
Q 1738 1016 1872 1384 
L 2581 3319 
L 3144 3319 
L 1881 -56 
Q 1678 -603 1566 -809 
Q 1416 -1088 1222 -1217 
Q 1028 -1347 759 -1347 
Q 597 -1347 397 -1278 
z
" transform="scale(0.015625)"/>
       <path id="ArialMT-25" d="M 372 3481 
Q 372 3972 619 4315 
Q 866 4659 1334 4659 
Q 1766 4659 2048 4351 
Q 2331 4044 2331 3447 
Q 2331 2866 2045 2552 
Q 1759 2238 1341 2238 
Q 925 2238 648 2547 
Q 372 2856 372 3481 
z
M 1350 4272 
Q 1141 4272 1002 4090 
Q 863 3909 863 3425 
Q 863 2984 1003 2804 
Q 1144 2625 1350 2625 
Q 1563 2625 1702 2806 
Q 1841 2988 1841 3469 
Q 1841 3913 1700 4092 
Q 1559 4272 1350 4272 
z
M 1353 -169 
L 3859 4659 
L 4316 4659 
L 1819 -169 
L 1353 -169 
z
M 3334 1075 
Q 3334 1569 3581 1911 
Q 3828 2253 4300 2253 
Q 4731 2253 5014 1945 
Q 5297 1638 5297 1041 
Q 5297 459 5011 145 
Q 4725 -169 4303 -169 
Q 3888 -169 3611 142 
Q 3334 453 3334 1075 
z
M 4316 1866 
Q 4103 1866 3964 1684 
Q 3825 1503 3825 1019 
Q 3825 581 3965 400 
Q 4106 219 4313 219 
Q 4528 219 4667 400 
Q 4806 581 4806 1063 
Q 4806 1506 4665 1686 
Q 4525 1866 4316 1866 
z
" transform="scale(0.015625)"/>
       <path id="ArialMT-54" d="M 1659 0 
L 1659 4041 
L 150 4041 
L 150 4581 
L 3781 4581 
L 3781 4041 
L 2266 4041 
L 2266 0 
L 1659 0 
z
" transform="scale(0.015625)"/>
       <path id="ArialMT-46" d="M 525 0 
L 525 4581 
L 3616 4581 
L 3616 4041 
L 1131 4041 
L 1131 2622 
L 3281 2622 
L 3281 2081 
L 1131 2081 
L 1131 0 
L 525 0 
z
" transform="scale(0.015625)"/>
       <path id="ArialMT-3d" d="M 3381 2694 
L 356 2694 
L 356 3219 
L 3381 3219 
L 3381 2694 
z
M 3381 1303 
L 356 1303 
L 356 1828 
L 3381 1828 
L 3381 1303 
z
" transform="scale(0.015625)"/>
       <path id="ArialMT-5f" d="M -97 -1272 
L -97 -866 
L 3631 -866 
L 3631 -1272 
L -97 -1272 
z
" transform="scale(0.015625)"/>
      </defs>
      <use xlink:href="#ArialMT-69"/>
      <use xlink:href="#ArialMT-6d" x="22.216797"/>
      <use xlink:href="#ArialMT-69" x="105.517578"/>
      <use xlink:href="#ArialMT-6e" x="127.734375"/>
      <use xlink:href="#ArialMT-65" x="183.349609"/>
      <use xlink:href="#ArialMT-20" x="238.964844"/>
      <use xlink:href="#ArialMT-70" x="266.748047"/>
      <use xlink:href="#ArialMT-6f" x="322.363281"/>
      <use xlink:href="#ArialMT-6c" x="377.978516"/>
      <use xlink:href="#ArialMT-79" x="400.195312"/>
      <use xlink:href="#ArialMT-6d" x="450.195312"/>
      <use xlink:href="#ArialMT-65" x="533.496094"/>
      <use xlink:href="#ArialMT-72" x="589.111328"/>
      <use xlink:href="#ArialMT-20" x="622.412109"/>
      <use xlink:href="#ArialMT-30" x="650.195312"/>
      <use xlink:href="#ArialMT-2e" x="705.810547"/>
      <use xlink:href="#ArialMT-30" x="733.59375"/>
      <use xlink:href="#ArialMT-25" x="789.208984"/>
      <use xlink:href="#ArialMT-20" x="878.125"/>
      <use xlink:href="#ArialMT-54" x="904.158203"/>
      <use xlink:href="#ArialMT-46" x="965.242188"/>
      <use xlink:href="#ArialMT-41" x="1020.826172"/>
      <use xlink:href="#ArialMT-20" x="1082.025391"/>
      <use xlink:href="#ArialMT-74" x="1109.808594"/>
      <use xlink:href="#ArialMT-69" x="1137.591797"/>
      <use xlink:href="#ArialMT-6d" x="1159.808594"/>
      <use xlink:href="#ArialMT-65" x="1243.109375"/>
      <use xlink:href="#ArialMT-20" x="1298.724609"/>
      <use xlink:href="#ArialMT-3d" x="1326.507812"/>
      <use xlink:href="#ArialMT-20" x="1384.90625"/>
      <use xlink:href="#ArialMT-31" x="1412.689453"/>
      <use xlink:href="#ArialMT-20" x="1468.304688"/>
      <use xlink:href="#ArialMT-6d" x="1496.087891"/>
      <use xlink:href="#ArialMT-69" x="1579.388672"/>
      <use xlink:href="#ArialMT-6e" x="1601.605469"/>
      <use xlink:href="#ArialMT-5f" x="1657.220703"/>
      <use xlink:href="#ArialMT-41" x="1712.835938"/>
      <use xlink:href="#ArialMT-62" x="1779.535156"/>
      <use xlink:href="#ArialMT-73" x="1835.150391"/>
     </g>
    </g>
    <g id="line2d_46">
     <path d="M 226.799406 54.046434 
L 232.799406 54.046434 
L 238.799406 54.046434 
" style="fill: none; stroke: #f4865e; stroke-width: 1.5; stroke-linecap: round"/>
    </g>
    <g id="text_20">
     <!-- imine polymer 0.017% TFA time = 1 min_Abs -->
     <g style="fill: #262626" transform="translate(243.599406 56.146434) scale(0.06 -0.06)">
      <defs>
       <path id="ArialMT-37" d="M 303 3981 
L 303 4522 
L 3269 4522 
L 3269 4084 
Q 2831 3619 2401 2847 
Q 1972 2075 1738 1259 
Q 1569 684 1522 0 
L 944 0 
Q 953 541 1156 1306 
Q 1359 2072 1739 2783 
Q 2119 3494 2547 3981 
L 303 3981 
z
" transform="scale(0.015625)"/>
      </defs>
      <use xlink:href="#ArialMT-69"/>
      <use xlink:href="#ArialMT-6d" x="22.216797"/>
      <use xlink:href="#ArialMT-69" x="105.517578"/>
      <use xlink:href="#ArialMT-6e" x="127.734375"/>
      <use xlink:href="#ArialMT-65" x="183.349609"/>
      <use xlink:href="#ArialMT-20" x="238.964844"/>
      <use xlink:href="#ArialMT-70" x="266.748047"/>
      <use xlink:href="#ArialMT-6f" x="322.363281"/>
      <use xlink:href="#ArialMT-6c" x="377.978516"/>
      <use xlink:href="#ArialMT-79" x="400.195312"/>
      <use xlink:href="#ArialMT-6d" x="450.195312"/>
      <use xlink:href="#ArialMT-65" x="533.496094"/>
      <use xlink:href="#ArialMT-72" x="589.111328"/>
      <use xlink:href="#ArialMT-20" x="622.412109"/>
      <use xlink:href="#ArialMT-30" x="650.195312"/>
      <use xlink:href="#ArialMT-2e" x="705.810547"/>
      <use xlink:href="#ArialMT-30" x="733.59375"/>
      <use xlink:href="#ArialMT-31" x="789.208984"/>
      <use xlink:href="#ArialMT-37" x="844.824219"/>
      <use xlink:href="#ArialMT-25" x="900.439453"/>
      <use xlink:href="#ArialMT-20" x="989.355469"/>
      <use xlink:href="#ArialMT-54" x="1015.388672"/>
      <use xlink:href="#ArialMT-46" x="1076.472656"/>
      <use xlink:href="#ArialMT-41" x="1132.056641"/>
      <use xlink:href="#ArialMT-20" x="1193.255859"/>
      <use xlink:href="#ArialMT-74" x="1221.039062"/>
      <use xlink:href="#ArialMT-69" x="1248.822266"/>
      <use xlink:href="#ArialMT-6d" x="1271.039062"/>
      <use xlink:href="#ArialMT-65" x="1354.339844"/>
      <use xlink:href="#ArialMT-20" x="1409.955078"/>
      <use xlink:href="#ArialMT-3d" x="1437.738281"/>
      <use xlink:href="#ArialMT-20" x="1496.136719"/>
      <use xlink:href="#ArialMT-31" x="1523.919922"/>
      <use xlink:href="#ArialMT-20" x="1579.535156"/>
      <use xlink:href="#ArialMT-6d" x="1607.318359"/>
      <use xlink:href="#ArialMT-69" x="1690.619141"/>
      <use xlink:href="#ArialMT-6e" x="1712.835938"/>
      <use xlink:href="#ArialMT-5f" x="1768.451172"/>
      <use xlink:href="#ArialMT-41" x="1824.066406"/>
      <use xlink:href="#ArialMT-62" x="1890.765625"/>
      <use xlink:href="#ArialMT-73" x="1946.380859"/>
     </g>
    </g>
    <g id="line2d_47">
     <path d="M 226.799406 62.677059 
L 232.799406 62.677059 
L 238.799406 62.677059 
" style="fill: none; stroke: #ec4a3e; stroke-width: 1.5; stroke-linecap: round"/>
    </g>
    <g id="text_21">
     <!-- imine polymer 0.050% TFA time = 1 min_Abs -->
     <g style="fill: #262626" transform="translate(243.599406 64.777059) scale(0.06 -0.06)">
      <use xlink:href="#ArialMT-69"/>
      <use xlink:href="#ArialMT-6d" x="22.216797"/>
      <use xlink:href="#ArialMT-69" x="105.517578"/>
      <use xlink:href="#ArialMT-6e" x="127.734375"/>
      <use xlink:href="#ArialMT-65" x="183.349609"/>
      <use xlink:href="#ArialMT-20" x="238.964844"/>
      <use xlink:href="#ArialMT-70" x="266.748047"/>
      <use xlink:href="#ArialMT-6f" x="322.363281"/>
      <use xlink:href="#ArialMT-6c" x="377.978516"/>
      <use xlink:href="#ArialMT-79" x="400.195312"/>
      <use xlink:href="#ArialMT-6d" x="450.195312"/>
      <use xlink:href="#ArialMT-65" x="533.496094"/>
      <use xlink:href="#ArialMT-72" x="589.111328"/>
      <use xlink:href="#ArialMT-20" x="622.412109"/>
      <use xlink:href="#ArialMT-30" x="650.195312"/>
      <use xlink:href="#ArialMT-2e" x="705.810547"/>
      <use xlink:href="#ArialMT-30" x="733.59375"/>
      <use xlink:href="#ArialMT-35" x="789.208984"/>
      <use xlink:href="#ArialMT-30" x="844.824219"/>
      <use xlink:href="#ArialMT-25" x="900.439453"/>
      <use xlink:href="#ArialMT-20" x="989.355469"/>
      <use xlink:href="#ArialMT-54" x="1015.388672"/>
      <use xlink:href="#ArialMT-46" x="1076.472656"/>
      <use xlink:href="#ArialMT-41" x="1132.056641"/>
      <use xlink:href="#ArialMT-20" x="1193.255859"/>
      <use xlink:href="#ArialMT-74" x="1221.039062"/>
      <use xlink:href="#ArialMT-69" x="1248.822266"/>
      <use xlink:href="#ArialMT-6d" x="1271.039062"/>
      <use xlink:href="#ArialMT-65" x="1354.339844"/>
      <use xlink:href="#ArialMT-20" x="1409.955078"/>
      <use xlink:href="#ArialMT-3d" x="1437.738281"/>
      <use xlink:href="#ArialMT-20" x="1496.136719"/>
      <use xlink:href="#ArialMT-31" x="1523.919922"/>
      <use xlink:href="#ArialMT-20" x="1579.535156"/>
      <use xlink:href="#ArialMT-6d" x="1607.318359"/>
      <use xlink:href="#ArialMT-69" x="1690.619141"/>
      <use xlink:href="#ArialMT-6e" x="1712.835938"/>
      <use xlink:href="#ArialMT-5f" x="1768.451172"/>
      <use xlink:href="#ArialMT-41" x="1824.066406"/>
      <use xlink:href="#ArialMT-62" x="1890.765625"/>
      <use xlink:href="#ArialMT-73" x="1946.380859"/>
     </g>
    </g>
    <g id="line2d_48">
     <path d="M 226.799406 71.307684 
L 232.799406 71.307684 
L 238.799406 71.307684 
" style="fill: none; stroke: #ca1a50; stroke-width: 1.5; stroke-linecap: round"/>
    </g>
    <g id="text_22">
     <!-- imine polymer 0.10% TFA time = 1 min_Abs -->
     <g style="fill: #262626" transform="translate(243.599406 73.407684) scale(0.06 -0.06)">
      <use xlink:href="#ArialMT-69"/>
      <use xlink:href="#ArialMT-6d" x="22.216797"/>
      <use xlink:href="#ArialMT-69" x="105.517578"/>
      <use xlink:href="#ArialMT-6e" x="127.734375"/>
      <use xlink:href="#ArialMT-65" x="183.349609"/>
      <use xlink:href="#ArialMT-20" x="238.964844"/>
      <use xlink:href="#ArialMT-70" x="266.748047"/>
      <use xlink:href="#ArialMT-6f" x="322.363281"/>
      <use xlink:href="#ArialMT-6c" x="377.978516"/>
      <use xlink:href="#ArialMT-79" x="400.195312"/>
      <use xlink:href="#ArialMT-6d" x="450.195312"/>
      <use xlink:href="#ArialMT-65" x="533.496094"/>
      <use xlink:href="#ArialMT-72" x="589.111328"/>
      <use xlink:href="#ArialMT-20" x="622.412109"/>
      <use xlink:href="#ArialMT-30" x="650.195312"/>
      <use xlink:href="#ArialMT-2e" x="705.810547"/>
      <use xlink:href="#ArialMT-31" x="733.59375"/>
      <use xlink:href="#ArialMT-30" x="789.208984"/>
      <use xlink:href="#ArialMT-25" x="844.824219"/>
      <use xlink:href="#ArialMT-20" x="933.740234"/>
      <use xlink:href="#ArialMT-54" x="959.773438"/>
      <use xlink:href="#ArialMT-46" x="1020.857422"/>
      <use xlink:href="#ArialMT-41" x="1076.441406"/>
      <use xlink:href="#ArialMT-20" x="1137.640625"/>
      <use xlink:href="#ArialMT-74" x="1165.423828"/>
      <use xlink:href="#ArialMT-69" x="1193.207031"/>
      <use xlink:href="#ArialMT-6d" x="1215.423828"/>
      <use xlink:href="#ArialMT-65" x="1298.724609"/>
      <use xlink:href="#ArialMT-20" x="1354.339844"/>
      <use xlink:href="#ArialMT-3d" x="1382.123047"/>
      <use xlink:href="#ArialMT-20" x="1440.521484"/>
      <use xlink:href="#ArialMT-31" x="1468.304688"/>
      <use xlink:href="#ArialMT-20" x="1523.919922"/>
      <use xlink:href="#ArialMT-6d" x="1551.703125"/>
      <use xlink:href="#ArialMT-69" x="1635.003906"/>
      <use xlink:href="#ArialMT-6e" x="1657.220703"/>
      <use xlink:href="#ArialMT-5f" x="1712.835938"/>
      <use xlink:href="#ArialMT-41" x="1768.451172"/>
      <use xlink:href="#ArialMT-62" x="1835.150391"/>
      <use xlink:href="#ArialMT-73" x="1890.765625"/>
     </g>
    </g>
    <g id="line2d_49">
     <path d="M 226.799406 79.938309 
L 232.799406 79.938309 
L 238.799406 79.938309 
" style="fill: none; stroke: #951c5b; stroke-width: 1.5; stroke-linecap: round"/>
    </g>
    <g id="text_23">
     <!-- imine polymer 0.25% TFA time = 1 min_Abs -->
     <g style="fill: #262626" transform="translate(243.599406 82.038309) scale(0.06 -0.06)">
      <use xlink:href="#ArialMT-69"/>
      <use xlink:href="#ArialMT-6d" x="22.216797"/>
      <use xlink:href="#ArialMT-69" x="105.517578"/>
      <use xlink:href="#ArialMT-6e" x="127.734375"/>
      <use xlink:href="#ArialMT-65" x="183.349609"/>
      <use xlink:href="#ArialMT-20" x="238.964844"/>
      <use xlink:href="#ArialMT-70" x="266.748047"/>
      <use xlink:href="#ArialMT-6f" x="322.363281"/>
      <use xlink:href="#ArialMT-6c" x="377.978516"/>
      <use xlink:href="#ArialMT-79" x="400.195312"/>
      <use xlink:href="#ArialMT-6d" x="450.195312"/>
      <use xlink:href="#ArialMT-65" x="533.496094"/>
      <use xlink:href="#ArialMT-72" x="589.111328"/>
      <use xlink:href="#ArialMT-20" x="622.412109"/>
      <use xlink:href="#ArialMT-30" x="650.195312"/>
      <use xlink:href="#ArialMT-2e" x="705.810547"/>
      <use xlink:href="#ArialMT-32" x="733.59375"/>
      <use xlink:href="#ArialMT-35" x="789.208984"/>
      <use xlink:href="#ArialMT-25" x="844.824219"/>
      <use xlink:href="#ArialMT-20" x="933.740234"/>
      <use xlink:href="#ArialMT-54" x="959.773438"/>
      <use xlink:href="#ArialMT-46" x="1020.857422"/>
      <use xlink:href="#ArialMT-41" x="1076.441406"/>
      <use xlink:href="#ArialMT-20" x="1137.640625"/>
      <use xlink:href="#ArialMT-74" x="1165.423828"/>
      <use xlink:href="#ArialMT-69" x="1193.207031"/>
      <use xlink:href="#ArialMT-6d" x="1215.423828"/>
      <use xlink:href="#ArialMT-65" x="1298.724609"/>
      <use xlink:href="#ArialMT-20" x="1354.339844"/>
      <use xlink:href="#ArialMT-3d" x="1382.123047"/>
      <use xlink:href="#ArialMT-20" x="1440.521484"/>
      <use xlink:href="#ArialMT-31" x="1468.304688"/>
      <use xlink:href="#ArialMT-20" x="1523.919922"/>
      <use xlink:href="#ArialMT-6d" x="1551.703125"/>
      <use xlink:href="#ArialMT-69" x="1635.003906"/>
      <use xlink:href="#ArialMT-6e" x="1657.220703"/>
      <use xlink:href="#ArialMT-5f" x="1712.835938"/>
      <use xlink:href="#ArialMT-41" x="1768.451172"/>
      <use xlink:href="#ArialMT-62" x="1835.150391"/>
      <use xlink:href="#ArialMT-73" x="1890.765625"/>
     </g>
    </g>
    <g id="line2d_50">
     <path d="M 226.799406 88.568934 
L 232.799406 88.568934 
L 238.799406 88.568934 
" style="fill: none; stroke: #601f52; stroke-width: 1.5; stroke-linecap: round"/>
    </g>
    <g id="text_24">
     <!-- imine polymer 0.50% TFA time = 1 min_Abs -->
     <g style="fill: #262626" transform="translate(243.599406 90.668934) scale(0.06 -0.06)">
      <use xlink:href="#ArialMT-69"/>
      <use xlink:href="#ArialMT-6d" x="22.216797"/>
      <use xlink:href="#ArialMT-69" x="105.517578"/>
      <use xlink:href="#ArialMT-6e" x="127.734375"/>
      <use xlink:href="#ArialMT-65" x="183.349609"/>
      <use xlink:href="#ArialMT-20" x="238.964844"/>
      <use xlink:href="#ArialMT-70" x="266.748047"/>
      <use xlink:href="#ArialMT-6f" x="322.363281"/>
      <use xlink:href="#ArialMT-6c" x="377.978516"/>
      <use xlink:href="#ArialMT-79" x="400.195312"/>
      <use xlink:href="#ArialMT-6d" x="450.195312"/>
      <use xlink:href="#ArialMT-65" x="533.496094"/>
      <use xlink:href="#ArialMT-72" x="589.111328"/>
      <use xlink:href="#ArialMT-20" x="622.412109"/>
      <use xlink:href="#ArialMT-30" x="650.195312"/>
      <use xlink:href="#ArialMT-2e" x="705.810547"/>
      <use xlink:href="#ArialMT-35" x="733.59375"/>
      <use xlink:href="#ArialMT-30" x="789.208984"/>
      <use xlink:href="#ArialMT-25" x="844.824219"/>
      <use xlink:href="#ArialMT-20" x="933.740234"/>
      <use xlink:href="#ArialMT-54" x="959.773438"/>
      <use xlink:href="#ArialMT-46" x="1020.857422"/>
      <use xlink:href="#ArialMT-41" x="1076.441406"/>
      <use xlink:href="#ArialMT-20" x="1137.640625"/>
      <use xlink:href="#ArialMT-74" x="1165.423828"/>
      <use xlink:href="#ArialMT-69" x="1193.207031"/>
      <use xlink:href="#ArialMT-6d" x="1215.423828"/>
      <use xlink:href="#ArialMT-65" x="1298.724609"/>
      <use xlink:href="#ArialMT-20" x="1354.339844"/>
      <use xlink:href="#ArialMT-3d" x="1382.123047"/>
      <use xlink:href="#ArialMT-20" x="1440.521484"/>
      <use xlink:href="#ArialMT-31" x="1468.304688"/>
      <use xlink:href="#ArialMT-20" x="1523.919922"/>
      <use xlink:href="#ArialMT-6d" x="1551.703125"/>
      <use xlink:href="#ArialMT-69" x="1635.003906"/>
      <use xlink:href="#ArialMT-6e" x="1657.220703"/>
      <use xlink:href="#ArialMT-5f" x="1712.835938"/>
      <use xlink:href="#ArialMT-41" x="1768.451172"/>
      <use xlink:href="#ArialMT-62" x="1835.150391"/>
      <use xlink:href="#ArialMT-73" x="1890.765625"/>
     </g>
    </g>
    <g id="line2d_51">
     <path d="M 226.799406 97.199559 
L 232.799406 97.199559 
L 238.799406 97.199559 
" style="fill: none; stroke: #2e1739; stroke-width: 1.5; stroke-linecap: round"/>
    </g>
    <g id="text_25">
     <!-- imine polymer 1.00% TFA time = 1 min_Abs -->
     <g style="fill: #262626" transform="translate(243.599406 99.299559) scale(0.06 -0.06)">
      <use xlink:href="#ArialMT-69"/>
      <use xlink:href="#ArialMT-6d" x="22.216797"/>
      <use xlink:href="#ArialMT-69" x="105.517578"/>
      <use xlink:href="#ArialMT-6e" x="127.734375"/>
      <use xlink:href="#ArialMT-65" x="183.349609"/>
      <use xlink:href="#ArialMT-20" x="238.964844"/>
      <use xlink:href="#ArialMT-70" x="266.748047"/>
      <use xlink:href="#ArialMT-6f" x="322.363281"/>
      <use xlink:href="#ArialMT-6c" x="377.978516"/>
      <use xlink:href="#ArialMT-79" x="400.195312"/>
      <use xlink:href="#ArialMT-6d" x="450.195312"/>
      <use xlink:href="#ArialMT-65" x="533.496094"/>
      <use xlink:href="#ArialMT-72" x="589.111328"/>
      <use xlink:href="#ArialMT-20" x="622.412109"/>
      <use xlink:href="#ArialMT-31" x="650.195312"/>
      <use xlink:href="#ArialMT-2e" x="705.810547"/>
      <use xlink:href="#ArialMT-30" x="733.59375"/>
      <use xlink:href="#ArialMT-30" x="789.208984"/>
      <use xlink:href="#ArialMT-25" x="844.824219"/>
      <use xlink:href="#ArialMT-20" x="933.740234"/>
      <use xlink:href="#ArialMT-54" x="959.773438"/>
      <use xlink:href="#ArialMT-46" x="1020.857422"/>
      <use xlink:href="#ArialMT-41" x="1076.441406"/>
      <use xlink:href="#ArialMT-20" x="1137.640625"/>
      <use xlink:href="#ArialMT-74" x="1165.423828"/>
      <use xlink:href="#ArialMT-69" x="1193.207031"/>
      <use xlink:href="#ArialMT-6d" x="1215.423828"/>
      <use xlink:href="#ArialMT-65" x="1298.724609"/>
      <use xlink:href="#ArialMT-20" x="1354.339844"/>
      <use xlink:href="#ArialMT-3d" x="1382.123047"/>
      <use xlink:href="#ArialMT-20" x="1440.521484"/>
      <use xlink:href="#ArialMT-31" x="1468.304688"/>
      <use xlink:href="#ArialMT-20" x="1523.919922"/>
      <use xlink:href="#ArialMT-6d" x="1551.703125"/>
      <use xlink:href="#ArialMT-69" x="1635.003906"/>
      <use xlink:href="#ArialMT-6e" x="1657.220703"/>
      <use xlink:href="#ArialMT-5f" x="1712.835938"/>
      <use xlink:href="#ArialMT-41" x="1768.451172"/>
      <use xlink:href="#ArialMT-62" x="1835.150391"/>
      <use xlink:href="#ArialMT-73" x="1890.765625"/>
     </g>
    </g>
   </g>
  </g>
 </g>
 <defs>
  <clipPath id="paeaeb56231">
   <rect x="47.368281" y="11.136797" width="357.12" height="266.112"/>
  </clipPath>
 </defs>
</svg>
