<?xml version="1.0" encoding="utf-8" standalone="no"?>
<!DOCTYPE svg PUBLIC "-//W3C//DTD SVG 1.1//EN"
  "http://www.w3.org/Graphics/SVG/1.1/DTD/svg11.dtd">
<svg xmlns:xlink="http://www.w3.org/1999/xlink" width="414.746797pt" height="313.269891pt" viewBox="0 0 414.746797 313.269891" xmlns="http://www.w3.org/2000/svg" version="1.1">
 <metadata>
  <rdf:RDF xmlns:dc="http://purl.org/dc/elements/1.1/" xmlns:cc="http://creativecommons.org/ns#" xmlns:rdf="http://www.w3.org/1999/02/22-rdf-syntax-ns#">
   <cc:Work>
    <dc:type rdf:resource="http://purl.org/dc/dcmitype/StillImage"/>
    <dc:date>2024-04-24T10:23:25.914708</dc:date>
    <dc:format>image/svg+xml</dc:format>
    <dc:creator>
     <cc:Agent>
      <dc:title>Matplotlib v3.7.1, https://matplotlib.org/</dc:title>
     </cc:Agent>
    </dc:creator>
   </cc:Work>
  </rdf:RDF>
 </metadata>
 <defs>
  <style type="text/css">*{stroke-linejoin: round; stroke-linecap: butt}</style>
 </defs>
 <g id="figure_1">
  <g id="patch_1">
   <path d="M 0 313.269891 
L 414.746797 313.269891 
L 414.746797 0 
L 0 0 
z
" style="fill: #ffffff"/>
  </g>
  <g id="axes_1">
   <g id="patch_2">
    <path d="M 41.25125 277.248797 
L 398.37125 277.248797 
L 398.37125 11.136797 
L 41.25125 11.136797 
z
" style="fill: #ffffff"/>
   </g>
   <g id="matplotlib.axis_1">
    <g id="xtick_1">
     <g id="line2d_1">
      <defs>
       <path id="m560bbde7ec" d="M 0 0 
L 0 -6 
" style="stroke: #262626; stroke-width: 1.25"/>
      </defs>
      <g>
       <use xlink:href="#m560bbde7ec" x="41.25125" y="277.248797" style="fill: #262626; stroke: #262626; stroke-width: 1.25"/>
      </g>
     </g>
     <g id="text_1">
      <!-- 300 -->
      <g style="fill: #262626" transform="translate(32.075703 288.622391) scale(0.11 -0.11)">
       <defs>
        <path id="ArialMT-33" d="M 269 1209 
L 831 1284 
Q 928 806 1161 595 
Q 1394 384 1728 384 
Q 2125 384 2398 659 
Q 2672 934 2672 1341 
Q 2672 1728 2419 1979 
Q 2166 2231 1775 2231 
Q 1616 2231 1378 2169 
L 1441 2663 
Q 1497 2656 1531 2656 
Q 1891 2656 2178 2843 
Q 2466 3031 2466 3422 
Q 2466 3731 2256 3934 
Q 2047 4138 1716 4138 
Q 1388 4138 1169 3931 
Q 950 3725 888 3313 
L 325 3413 
Q 428 3978 793 4289 
Q 1159 4600 1703 4600 
Q 2078 4600 2393 4439 
Q 2709 4278 2876 4000 
Q 3044 3722 3044 3409 
Q 3044 3113 2884 2869 
Q 2725 2625 2413 2481 
Q 2819 2388 3044 2092 
Q 3269 1797 3269 1353 
Q 3269 753 2831 336 
Q 2394 -81 1725 -81 
Q 1122 -81 723 278 
Q 325 638 269 1209 
z
" transform="scale(0.015625)"/>
        <path id="ArialMT-30" d="M 266 2259 
Q 266 3072 433 3567 
Q 600 4063 929 4331 
Q 1259 4600 1759 4600 
Q 2128 4600 2406 4451 
Q 2684 4303 2865 4023 
Q 3047 3744 3150 3342 
Q 3253 2941 3253 2259 
Q 3253 1453 3087 958 
Q 2922 463 2592 192 
Q 2263 -78 1759 -78 
Q 1097 -78 719 397 
Q 266 969 266 2259 
z
M 844 2259 
Q 844 1131 1108 757 
Q 1372 384 1759 384 
Q 2147 384 2411 759 
Q 2675 1134 2675 2259 
Q 2675 3391 2411 3762 
Q 2147 4134 1753 4134 
Q 1366 4134 1134 3806 
Q 844 3388 844 2259 
z
" transform="scale(0.015625)"/>
       </defs>
       <use xlink:href="#ArialMT-33"/>
       <use xlink:href="#ArialMT-30" x="55.615234"/>
       <use xlink:href="#ArialMT-30" x="111.230469"/>
      </g>
     </g>
    </g>
    <g id="xtick_2">
     <g id="line2d_2">
      <g>
       <use xlink:href="#m560bbde7ec" x="112.67525" y="277.248797" style="fill: #262626; stroke: #262626; stroke-width: 1.25"/>
      </g>
     </g>
     <g id="text_2">
      <!-- 400 -->
      <g style="fill: #262626" transform="translate(103.499703 288.622391) scale(0.11 -0.11)">
       <defs>
        <path id="ArialMT-34" d="M 2069 0 
L 2069 1097 
L 81 1097 
L 81 1613 
L 2172 4581 
L 2631 4581 
L 2631 1613 
L 3250 1613 
L 3250 1097 
L 2631 1097 
L 2631 0 
L 2069 0 
z
M 2069 1613 
L 2069 3678 
L 634 1613 
L 2069 1613 
z
" transform="scale(0.015625)"/>
       </defs>
       <use xlink:href="#ArialMT-34"/>
       <use xlink:href="#ArialMT-30" x="55.615234"/>
       <use xlink:href="#ArialMT-30" x="111.230469"/>
      </g>
     </g>
    </g>
    <g id="xtick_3">
     <g id="line2d_3">
      <g>
       <use xlink:href="#m560bbde7ec" x="184.09925" y="277.248797" style="fill: #262626; stroke: #262626; stroke-width: 1.25"/>
      </g>
     </g>
     <g id="text_3">
      <!-- 500 -->
      <g style="fill: #262626" transform="translate(174.923703 288.622391) scale(0.11 -0.11)">
       <defs>
        <path id="ArialMT-35" d="M 266 1200 
L 856 1250 
Q 922 819 1161 601 
Q 1400 384 1738 384 
Q 2144 384 2425 690 
Q 2706 997 2706 1503 
Q 2706 1984 2436 2262 
Q 2166 2541 1728 2541 
Q 1456 2541 1237 2417 
Q 1019 2294 894 2097 
L 366 2166 
L 809 4519 
L 3088 4519 
L 3088 3981 
L 1259 3981 
L 1013 2750 
Q 1425 3038 1878 3038 
Q 2478 3038 2890 2622 
Q 3303 2206 3303 1553 
Q 3303 931 2941 478 
Q 2500 -78 1738 -78 
Q 1113 -78 717 272 
Q 322 622 266 1200 
z
" transform="scale(0.015625)"/>
       </defs>
       <use xlink:href="#ArialMT-35"/>
       <use xlink:href="#ArialMT-30" x="55.615234"/>
       <use xlink:href="#ArialMT-30" x="111.230469"/>
      </g>
     </g>
    </g>
    <g id="xtick_4">
     <g id="line2d_4">
      <g>
       <use xlink:href="#m560bbde7ec" x="255.52325" y="277.248797" style="fill: #262626; stroke: #262626; stroke-width: 1.25"/>
      </g>
     </g>
     <g id="text_4">
      <!-- 600 -->
      <g style="fill: #262626" transform="translate(246.347703 288.622391) scale(0.11 -0.11)">
       <defs>
        <path id="ArialMT-36" d="M 3184 3459 
L 2625 3416 
Q 2550 3747 2413 3897 
Q 2184 4138 1850 4138 
Q 1581 4138 1378 3988 
Q 1113 3794 959 3422 
Q 806 3050 800 2363 
Q 1003 2672 1297 2822 
Q 1591 2972 1913 2972 
Q 2475 2972 2870 2558 
Q 3266 2144 3266 1488 
Q 3266 1056 3080 686 
Q 2894 316 2569 119 
Q 2244 -78 1831 -78 
Q 1128 -78 684 439 
Q 241 956 241 2144 
Q 241 3472 731 4075 
Q 1159 4600 1884 4600 
Q 2425 4600 2770 4297 
Q 3116 3994 3184 3459 
z
M 888 1484 
Q 888 1194 1011 928 
Q 1134 663 1356 523 
Q 1578 384 1822 384 
Q 2178 384 2434 671 
Q 2691 959 2691 1453 
Q 2691 1928 2437 2201 
Q 2184 2475 1800 2475 
Q 1419 2475 1153 2201 
Q 888 1928 888 1484 
z
" transform="scale(0.015625)"/>
       </defs>
       <use xlink:href="#ArialMT-36"/>
       <use xlink:href="#ArialMT-30" x="55.615234"/>
       <use xlink:href="#ArialMT-30" x="111.230469"/>
      </g>
     </g>
    </g>
    <g id="xtick_5">
     <g id="line2d_5">
      <g>
       <use xlink:href="#m560bbde7ec" x="326.94725" y="277.248797" style="fill: #262626; stroke: #262626; stroke-width: 1.25"/>
      </g>
     </g>
     <g id="text_5">
      <!-- 700 -->
      <g style="fill: #262626" transform="translate(317.771703 288.622391) scale(0.11 -0.11)">
       <defs>
        <path id="ArialMT-37" d="M 303 3981 
L 303 4522 
L 3269 4522 
L 3269 4084 
Q 2831 3619 2401 2847 
Q 1972 2075 1738 1259 
Q 1569 684 1522 0 
L 944 0 
Q 953 541 1156 1306 
Q 1359 2072 1739 2783 
Q 2119 3494 2547 3981 
L 303 3981 
z
" transform="scale(0.015625)"/>
       </defs>
       <use xlink:href="#ArialMT-37"/>
       <use xlink:href="#ArialMT-30" x="55.615234"/>
       <use xlink:href="#ArialMT-30" x="111.230469"/>
      </g>
     </g>
    </g>
    <g id="xtick_6">
     <g id="line2d_6">
      <g>
       <use xlink:href="#m560bbde7ec" x="398.37125" y="277.248797" style="fill: #262626; stroke: #262626; stroke-width: 1.25"/>
      </g>
     </g>
     <g id="text_6">
      <!-- 800 -->
      <g style="fill: #262626" transform="translate(389.195703 288.622391) scale(0.11 -0.11)">
       <defs>
        <path id="ArialMT-38" d="M 1131 2484 
Q 781 2613 612 2850 
Q 444 3088 444 3419 
Q 444 3919 803 4259 
Q 1163 4600 1759 4600 
Q 2359 4600 2725 4251 
Q 3091 3903 3091 3403 
Q 3091 3084 2923 2848 
Q 2756 2613 2416 2484 
Q 2838 2347 3058 2040 
Q 3278 1734 3278 1309 
Q 3278 722 2862 322 
Q 2447 -78 1769 -78 
Q 1091 -78 675 323 
Q 259 725 259 1325 
Q 259 1772 486 2073 
Q 713 2375 1131 2484 
z
M 1019 3438 
Q 1019 3113 1228 2906 
Q 1438 2700 1772 2700 
Q 2097 2700 2305 2904 
Q 2513 3109 2513 3406 
Q 2513 3716 2298 3927 
Q 2084 4138 1766 4138 
Q 1444 4138 1231 3931 
Q 1019 3725 1019 3438 
z
M 838 1322 
Q 838 1081 952 856 
Q 1066 631 1291 507 
Q 1516 384 1775 384 
Q 2178 384 2440 643 
Q 2703 903 2703 1303 
Q 2703 1709 2433 1975 
Q 2163 2241 1756 2241 
Q 1359 2241 1098 1978 
Q 838 1716 838 1322 
z
" transform="scale(0.015625)"/>
       </defs>
       <use xlink:href="#ArialMT-38"/>
       <use xlink:href="#ArialMT-30" x="55.615234"/>
       <use xlink:href="#ArialMT-30" x="111.230469"/>
      </g>
     </g>
    </g>
    <g id="xtick_7">
     <g id="line2d_7">
      <defs>
       <path id="mf50f007b51" d="M 0 0 
L 0 -4 
" style="stroke: #262626"/>
      </defs>
      <g>
       <use xlink:href="#mf50f007b51" x="76.96325" y="277.248797" style="fill: #262626; stroke: #262626"/>
      </g>
     </g>
    </g>
    <g id="xtick_8">
     <g id="line2d_8">
      <g>
       <use xlink:href="#mf50f007b51" x="148.38725" y="277.248797" style="fill: #262626; stroke: #262626"/>
      </g>
     </g>
    </g>
    <g id="xtick_9">
     <g id="line2d_9">
      <g>
       <use xlink:href="#mf50f007b51" x="219.81125" y="277.248797" style="fill: #262626; stroke: #262626"/>
      </g>
     </g>
    </g>
    <g id="xtick_10">
     <g id="line2d_10">
      <g>
       <use xlink:href="#mf50f007b51" x="291.23525" y="277.248797" style="fill: #262626; stroke: #262626"/>
      </g>
     </g>
    </g>
    <g id="xtick_11">
     <g id="line2d_11">
      <g>
       <use xlink:href="#mf50f007b51" x="362.65925" y="277.248797" style="fill: #262626; stroke: #262626"/>
      </g>
     </g>
    </g>
    <g id="text_7">
     <!-- Wavelength (nm) -->
     <g style="fill: #262626" transform="translate(174.356562 303.544266) scale(0.12 -0.12)">
      <defs>
       <path id="ArialMT-57" d="M 1294 0 
L 78 4581 
L 700 4581 
L 1397 1578 
Q 1509 1106 1591 641 
Q 1766 1375 1797 1488 
L 2669 4581 
L 3400 4581 
L 4056 2263 
Q 4303 1400 4413 641 
Q 4500 1075 4641 1638 
L 5359 4581 
L 5969 4581 
L 4713 0 
L 4128 0 
L 3163 3491 
Q 3041 3928 3019 4028 
Q 2947 3713 2884 3491 
L 1913 0 
L 1294 0 
z
" transform="scale(0.015625)"/>
       <path id="ArialMT-61" d="M 2588 409 
Q 2275 144 1986 34 
Q 1697 -75 1366 -75 
Q 819 -75 525 192 
Q 231 459 231 875 
Q 231 1119 342 1320 
Q 453 1522 633 1644 
Q 813 1766 1038 1828 
Q 1203 1872 1538 1913 
Q 2219 1994 2541 2106 
Q 2544 2222 2544 2253 
Q 2544 2597 2384 2738 
Q 2169 2928 1744 2928 
Q 1347 2928 1158 2789 
Q 969 2650 878 2297 
L 328 2372 
Q 403 2725 575 2942 
Q 747 3159 1072 3276 
Q 1397 3394 1825 3394 
Q 2250 3394 2515 3294 
Q 2781 3194 2906 3042 
Q 3031 2891 3081 2659 
Q 3109 2516 3109 2141 
L 3109 1391 
Q 3109 606 3145 398 
Q 3181 191 3288 0 
L 2700 0 
Q 2613 175 2588 409 
z
M 2541 1666 
Q 2234 1541 1622 1453 
Q 1275 1403 1131 1340 
Q 988 1278 909 1158 
Q 831 1038 831 891 
Q 831 666 1001 516 
Q 1172 366 1500 366 
Q 1825 366 2078 508 
Q 2331 650 2450 897 
Q 2541 1088 2541 1459 
L 2541 1666 
z
" transform="scale(0.015625)"/>
       <path id="ArialMT-76" d="M 1344 0 
L 81 3319 
L 675 3319 
L 1388 1331 
Q 1503 1009 1600 663 
Q 1675 925 1809 1294 
L 2547 3319 
L 3125 3319 
L 1869 0 
L 1344 0 
z
" transform="scale(0.015625)"/>
       <path id="ArialMT-65" d="M 2694 1069 
L 3275 997 
Q 3138 488 2766 206 
Q 2394 -75 1816 -75 
Q 1088 -75 661 373 
Q 234 822 234 1631 
Q 234 2469 665 2931 
Q 1097 3394 1784 3394 
Q 2450 3394 2872 2941 
Q 3294 2488 3294 1666 
Q 3294 1616 3291 1516 
L 816 1516 
Q 847 969 1125 678 
Q 1403 388 1819 388 
Q 2128 388 2347 550 
Q 2566 713 2694 1069 
z
M 847 1978 
L 2700 1978 
Q 2663 2397 2488 2606 
Q 2219 2931 1791 2931 
Q 1403 2931 1139 2672 
Q 875 2413 847 1978 
z
" transform="scale(0.015625)"/>
       <path id="ArialMT-6c" d="M 409 0 
L 409 4581 
L 972 4581 
L 972 0 
L 409 0 
z
" transform="scale(0.015625)"/>
       <path id="ArialMT-6e" d="M 422 0 
L 422 3319 
L 928 3319 
L 928 2847 
Q 1294 3394 1984 3394 
Q 2284 3394 2536 3286 
Q 2788 3178 2913 3003 
Q 3038 2828 3088 2588 
Q 3119 2431 3119 2041 
L 3119 0 
L 2556 0 
L 2556 2019 
Q 2556 2363 2490 2533 
Q 2425 2703 2258 2804 
Q 2091 2906 1866 2906 
Q 1506 2906 1245 2678 
Q 984 2450 984 1813 
L 984 0 
L 422 0 
z
" transform="scale(0.015625)"/>
       <path id="ArialMT-67" d="M 319 -275 
L 866 -356 
Q 900 -609 1056 -725 
Q 1266 -881 1628 -881 
Q 2019 -881 2231 -725 
Q 2444 -569 2519 -288 
Q 2563 -116 2559 434 
Q 2191 0 1641 0 
Q 956 0 581 494 
Q 206 988 206 1678 
Q 206 2153 378 2554 
Q 550 2956 876 3175 
Q 1203 3394 1644 3394 
Q 2231 3394 2613 2919 
L 2613 3319 
L 3131 3319 
L 3131 450 
Q 3131 -325 2973 -648 
Q 2816 -972 2473 -1159 
Q 2131 -1347 1631 -1347 
Q 1038 -1347 672 -1080 
Q 306 -813 319 -275 
z
M 784 1719 
Q 784 1066 1043 766 
Q 1303 466 1694 466 
Q 2081 466 2343 764 
Q 2606 1063 2606 1700 
Q 2606 2309 2336 2618 
Q 2066 2928 1684 2928 
Q 1309 2928 1046 2623 
Q 784 2319 784 1719 
z
" transform="scale(0.015625)"/>
       <path id="ArialMT-74" d="M 1650 503 
L 1731 6 
Q 1494 -44 1306 -44 
Q 1000 -44 831 53 
Q 663 150 594 308 
Q 525 466 525 972 
L 525 2881 
L 113 2881 
L 113 3319 
L 525 3319 
L 525 4141 
L 1084 4478 
L 1084 3319 
L 1650 3319 
L 1650 2881 
L 1084 2881 
L 1084 941 
Q 1084 700 1114 631 
Q 1144 563 1211 522 
Q 1278 481 1403 481 
Q 1497 481 1650 503 
z
" transform="scale(0.015625)"/>
       <path id="ArialMT-68" d="M 422 0 
L 422 4581 
L 984 4581 
L 984 2938 
Q 1378 3394 1978 3394 
Q 2347 3394 2619 3248 
Q 2891 3103 3008 2847 
Q 3125 2591 3125 2103 
L 3125 0 
L 2563 0 
L 2563 2103 
Q 2563 2525 2380 2717 
Q 2197 2909 1863 2909 
Q 1613 2909 1392 2779 
Q 1172 2650 1078 2428 
Q 984 2206 984 1816 
L 984 0 
L 422 0 
z
" transform="scale(0.015625)"/>
       <path id="ArialMT-20" transform="scale(0.015625)"/>
       <path id="ArialMT-28" d="M 1497 -1347 
Q 1031 -759 709 28 
Q 388 816 388 1659 
Q 388 2403 628 3084 
Q 909 3875 1497 4659 
L 1900 4659 
Q 1522 4009 1400 3731 
Q 1209 3300 1100 2831 
Q 966 2247 966 1656 
Q 966 153 1900 -1347 
L 1497 -1347 
z
" transform="scale(0.015625)"/>
       <path id="ArialMT-6d" d="M 422 0 
L 422 3319 
L 925 3319 
L 925 2853 
Q 1081 3097 1340 3245 
Q 1600 3394 1931 3394 
Q 2300 3394 2536 3241 
Q 2772 3088 2869 2813 
Q 3263 3394 3894 3394 
Q 4388 3394 4653 3120 
Q 4919 2847 4919 2278 
L 4919 0 
L 4359 0 
L 4359 2091 
Q 4359 2428 4304 2576 
Q 4250 2725 4106 2815 
Q 3963 2906 3769 2906 
Q 3419 2906 3187 2673 
Q 2956 2441 2956 1928 
L 2956 0 
L 2394 0 
L 2394 2156 
Q 2394 2531 2256 2718 
Q 2119 2906 1806 2906 
Q 1569 2906 1367 2781 
Q 1166 2656 1075 2415 
Q 984 2175 984 1722 
L 984 0 
L 422 0 
z
" transform="scale(0.015625)"/>
       <path id="ArialMT-29" d="M 791 -1347 
L 388 -1347 
Q 1322 153 1322 1656 
Q 1322 2244 1188 2822 
Q 1081 3291 891 3722 
Q 769 4003 388 4659 
L 791 4659 
Q 1378 3875 1659 3084 
Q 1900 2403 1900 1659 
Q 1900 816 1576 28 
Q 1253 -759 791 -1347 
z
" transform="scale(0.015625)"/>
      </defs>
      <use xlink:href="#ArialMT-57"/>
      <use xlink:href="#ArialMT-61" x="90.634766"/>
      <use xlink:href="#ArialMT-76" x="146.25"/>
      <use xlink:href="#ArialMT-65" x="196.25"/>
      <use xlink:href="#ArialMT-6c" x="251.865234"/>
      <use xlink:href="#ArialMT-65" x="274.082031"/>
      <use xlink:href="#ArialMT-6e" x="329.697266"/>
      <use xlink:href="#ArialMT-67" x="385.3125"/>
      <use xlink:href="#ArialMT-74" x="440.927734"/>
      <use xlink:href="#ArialMT-68" x="468.710938"/>
      <use xlink:href="#ArialMT-20" x="524.326172"/>
      <use xlink:href="#ArialMT-28" x="552.109375"/>
      <use xlink:href="#ArialMT-6e" x="585.410156"/>
      <use xlink:href="#ArialMT-6d" x="641.025391"/>
      <use xlink:href="#ArialMT-29" x="724.326172"/>
     </g>
    </g>
   </g>
   <g id="matplotlib.axis_2">
    <g id="ytick_1">
     <g id="line2d_12">
      <defs>
       <path id="m1cc961a5d5" d="M 0 0 
L 6 0 
" style="stroke: #262626; stroke-width: 1.25"/>
      </defs>
      <g>
       <use xlink:href="#m1cc961a5d5" x="41.25125" y="277.248797" style="fill: #262626; stroke: #262626; stroke-width: 1.25"/>
      </g>
     </g>
     <g id="text_8">
      <!-- 0.0 -->
      <g style="fill: #262626" transform="translate(22.46125 281.185594) scale(0.11 -0.11)">
       <defs>
        <path id="ArialMT-2e" d="M 581 0 
L 581 641 
L 1222 641 
L 1222 0 
L 581 0 
z
" transform="scale(0.015625)"/>
       </defs>
       <use xlink:href="#ArialMT-30"/>
       <use xlink:href="#ArialMT-2e" x="55.615234"/>
       <use xlink:href="#ArialMT-30" x="83.398438"/>
      </g>
     </g>
    </g>
    <g id="ytick_2">
     <g id="line2d_13">
      <g>
       <use xlink:href="#m1cc961a5d5" x="41.25125" y="224.026397" style="fill: #262626; stroke: #262626; stroke-width: 1.25"/>
      </g>
     </g>
     <g id="text_9">
      <!-- 0.5 -->
      <g style="fill: #262626" transform="translate(22.46125 227.963194) scale(0.11 -0.11)">
       <use xlink:href="#ArialMT-30"/>
       <use xlink:href="#ArialMT-2e" x="55.615234"/>
       <use xlink:href="#ArialMT-35" x="83.398438"/>
      </g>
     </g>
    </g>
    <g id="ytick_3">
     <g id="line2d_14">
      <g>
       <use xlink:href="#m1cc961a5d5" x="41.25125" y="170.803997" style="fill: #262626; stroke: #262626; stroke-width: 1.25"/>
      </g>
     </g>
     <g id="text_10">
      <!-- 1.0 -->
      <g style="fill: #262626" transform="translate(22.46125 174.740794) scale(0.11 -0.11)">
       <defs>
        <path id="ArialMT-31" d="M 2384 0 
L 1822 0 
L 1822 3584 
Q 1619 3391 1289 3197 
Q 959 3003 697 2906 
L 697 3450 
Q 1169 3672 1522 3987 
Q 1875 4303 2022 4600 
L 2384 4600 
L 2384 0 
z
" transform="scale(0.015625)"/>
       </defs>
       <use xlink:href="#ArialMT-31"/>
       <use xlink:href="#ArialMT-2e" x="55.615234"/>
       <use xlink:href="#ArialMT-30" x="83.398438"/>
      </g>
     </g>
    </g>
    <g id="ytick_4">
     <g id="line2d_15">
      <g>
       <use xlink:href="#m1cc961a5d5" x="41.25125" y="117.581597" style="fill: #262626; stroke: #262626; stroke-width: 1.25"/>
      </g>
     </g>
     <g id="text_11">
      <!-- 1.5 -->
      <g style="fill: #262626" transform="translate(22.46125 121.518394) scale(0.11 -0.11)">
       <use xlink:href="#ArialMT-31"/>
       <use xlink:href="#ArialMT-2e" x="55.615234"/>
       <use xlink:href="#ArialMT-35" x="83.398438"/>
      </g>
     </g>
    </g>
    <g id="ytick_5">
     <g id="line2d_16">
      <g>
       <use xlink:href="#m1cc961a5d5" x="41.25125" y="64.359197" style="fill: #262626; stroke: #262626; stroke-width: 1.25"/>
      </g>
     </g>
     <g id="text_12">
      <!-- 2.0 -->
      <g style="fill: #262626" transform="translate(22.46125 68.295994) scale(0.11 -0.11)">
       <defs>
        <path id="ArialMT-32" d="M 3222 541 
L 3222 0 
L 194 0 
Q 188 203 259 391 
Q 375 700 629 1000 
Q 884 1300 1366 1694 
Q 2113 2306 2375 2664 
Q 2638 3022 2638 3341 
Q 2638 3675 2398 3904 
Q 2159 4134 1775 4134 
Q 1369 4134 1125 3890 
Q 881 3647 878 3216 
L 300 3275 
Q 359 3922 746 4261 
Q 1134 4600 1788 4600 
Q 2447 4600 2831 4234 
Q 3216 3869 3216 3328 
Q 3216 3053 3103 2787 
Q 2991 2522 2730 2228 
Q 2469 1934 1863 1422 
Q 1356 997 1212 845 
Q 1069 694 975 541 
L 3222 541 
z
" transform="scale(0.015625)"/>
       </defs>
       <use xlink:href="#ArialMT-32"/>
       <use xlink:href="#ArialMT-2e" x="55.615234"/>
       <use xlink:href="#ArialMT-30" x="83.398438"/>
      </g>
     </g>
    </g>
    <g id="ytick_6">
     <g id="line2d_17">
      <g>
       <use xlink:href="#m1cc961a5d5" x="41.25125" y="11.136797" style="fill: #262626; stroke: #262626; stroke-width: 1.25"/>
      </g>
     </g>
     <g id="text_13">
      <!-- 2.5 -->
      <g style="fill: #262626" transform="translate(22.46125 15.073594) scale(0.11 -0.11)">
       <use xlink:href="#ArialMT-32"/>
       <use xlink:href="#ArialMT-2e" x="55.615234"/>
       <use xlink:href="#ArialMT-35" x="83.398438"/>
      </g>
     </g>
    </g>
    <g id="ytick_7">
     <g id="line2d_18">
      <defs>
       <path id="m3ec6077dfb" d="M 0 0 
L 4 0 
" style="stroke: #262626"/>
      </defs>
      <g>
       <use xlink:href="#m3ec6077dfb" x="41.25125" y="250.637597" style="fill: #262626; stroke: #262626"/>
      </g>
     </g>
    </g>
    <g id="ytick_8">
     <g id="line2d_19">
      <g>
       <use xlink:href="#m3ec6077dfb" x="41.25125" y="197.415197" style="fill: #262626; stroke: #262626"/>
      </g>
     </g>
    </g>
    <g id="ytick_9">
     <g id="line2d_20">
      <g>
       <use xlink:href="#m3ec6077dfb" x="41.25125" y="144.192797" style="fill: #262626; stroke: #262626"/>
      </g>
     </g>
    </g>
    <g id="ytick_10">
     <g id="line2d_21">
      <g>
       <use xlink:href="#m3ec6077dfb" x="41.25125" y="90.970397" style="fill: #262626; stroke: #262626"/>
      </g>
     </g>
    </g>
    <g id="ytick_11">
     <g id="line2d_22">
      <g>
       <use xlink:href="#m3ec6077dfb" x="41.25125" y="37.747997" style="fill: #262626; stroke: #262626"/>
      </g>
     </g>
    </g>
    <g id="text_14">
     <!-- Absorbance (a.u.) -->
     <g style="fill: #262626" transform="translate(15.935625 191.881547) rotate(-90) scale(0.12 -0.12)">
      <defs>
       <path id="ArialMT-41" d="M -9 0 
L 1750 4581 
L 2403 4581 
L 4278 0 
L 3588 0 
L 3053 1388 
L 1138 1388 
L 634 0 
L -9 0 
z
M 1313 1881 
L 2866 1881 
L 2388 3150 
Q 2169 3728 2063 4100 
Q 1975 3659 1816 3225 
L 1313 1881 
z
" transform="scale(0.015625)"/>
       <path id="ArialMT-62" d="M 941 0 
L 419 0 
L 419 4581 
L 981 4581 
L 981 2947 
Q 1338 3394 1891 3394 
Q 2197 3394 2470 3270 
Q 2744 3147 2920 2923 
Q 3097 2700 3197 2384 
Q 3297 2069 3297 1709 
Q 3297 856 2875 390 
Q 2453 -75 1863 -75 
Q 1275 -75 941 416 
L 941 0 
z
M 934 1684 
Q 934 1088 1097 822 
Q 1363 388 1816 388 
Q 2184 388 2453 708 
Q 2722 1028 2722 1663 
Q 2722 2313 2464 2622 
Q 2206 2931 1841 2931 
Q 1472 2931 1203 2611 
Q 934 2291 934 1684 
z
" transform="scale(0.015625)"/>
       <path id="ArialMT-73" d="M 197 991 
L 753 1078 
Q 800 744 1014 566 
Q 1228 388 1613 388 
Q 2000 388 2187 545 
Q 2375 703 2375 916 
Q 2375 1106 2209 1216 
Q 2094 1291 1634 1406 
Q 1016 1563 777 1677 
Q 538 1791 414 1992 
Q 291 2194 291 2438 
Q 291 2659 392 2848 
Q 494 3038 669 3163 
Q 800 3259 1026 3326 
Q 1253 3394 1513 3394 
Q 1903 3394 2198 3281 
Q 2494 3169 2634 2976 
Q 2775 2784 2828 2463 
L 2278 2388 
Q 2241 2644 2061 2787 
Q 1881 2931 1553 2931 
Q 1166 2931 1000 2803 
Q 834 2675 834 2503 
Q 834 2394 903 2306 
Q 972 2216 1119 2156 
Q 1203 2125 1616 2013 
Q 2213 1853 2448 1751 
Q 2684 1650 2818 1456 
Q 2953 1263 2953 975 
Q 2953 694 2789 445 
Q 2625 197 2315 61 
Q 2006 -75 1616 -75 
Q 969 -75 630 194 
Q 291 463 197 991 
z
" transform="scale(0.015625)"/>
       <path id="ArialMT-6f" d="M 213 1659 
Q 213 2581 725 3025 
Q 1153 3394 1769 3394 
Q 2453 3394 2887 2945 
Q 3322 2497 3322 1706 
Q 3322 1066 3130 698 
Q 2938 331 2570 128 
Q 2203 -75 1769 -75 
Q 1072 -75 642 372 
Q 213 819 213 1659 
z
M 791 1659 
Q 791 1022 1069 705 
Q 1347 388 1769 388 
Q 2188 388 2466 706 
Q 2744 1025 2744 1678 
Q 2744 2294 2464 2611 
Q 2184 2928 1769 2928 
Q 1347 2928 1069 2612 
Q 791 2297 791 1659 
z
" transform="scale(0.015625)"/>
       <path id="ArialMT-72" d="M 416 0 
L 416 3319 
L 922 3319 
L 922 2816 
Q 1116 3169 1280 3281 
Q 1444 3394 1641 3394 
Q 1925 3394 2219 3213 
L 2025 2691 
Q 1819 2813 1613 2813 
Q 1428 2813 1281 2702 
Q 1134 2591 1072 2394 
Q 978 2094 978 1738 
L 978 0 
L 416 0 
z
" transform="scale(0.015625)"/>
       <path id="ArialMT-63" d="M 2588 1216 
L 3141 1144 
Q 3050 572 2676 248 
Q 2303 -75 1759 -75 
Q 1078 -75 664 370 
Q 250 816 250 1647 
Q 250 2184 428 2587 
Q 606 2991 970 3192 
Q 1334 3394 1763 3394 
Q 2303 3394 2647 3120 
Q 2991 2847 3088 2344 
L 2541 2259 
Q 2463 2594 2264 2762 
Q 2066 2931 1784 2931 
Q 1359 2931 1093 2626 
Q 828 2322 828 1663 
Q 828 994 1084 691 
Q 1341 388 1753 388 
Q 2084 388 2306 591 
Q 2528 794 2588 1216 
z
" transform="scale(0.015625)"/>
       <path id="ArialMT-75" d="M 2597 0 
L 2597 488 
Q 2209 -75 1544 -75 
Q 1250 -75 995 37 
Q 741 150 617 320 
Q 494 491 444 738 
Q 409 903 409 1263 
L 409 3319 
L 972 3319 
L 972 1478 
Q 972 1038 1006 884 
Q 1059 663 1231 536 
Q 1403 409 1656 409 
Q 1909 409 2131 539 
Q 2353 669 2445 892 
Q 2538 1116 2538 1541 
L 2538 3319 
L 3100 3319 
L 3100 0 
L 2597 0 
z
" transform="scale(0.015625)"/>
      </defs>
      <use xlink:href="#ArialMT-41"/>
      <use xlink:href="#ArialMT-62" x="66.699219"/>
      <use xlink:href="#ArialMT-73" x="122.314453"/>
      <use xlink:href="#ArialMT-6f" x="172.314453"/>
      <use xlink:href="#ArialMT-72" x="227.929688"/>
      <use xlink:href="#ArialMT-62" x="261.230469"/>
      <use xlink:href="#ArialMT-61" x="316.845703"/>
      <use xlink:href="#ArialMT-6e" x="372.460938"/>
      <use xlink:href="#ArialMT-63" x="428.076172"/>
      <use xlink:href="#ArialMT-65" x="478.076172"/>
      <use xlink:href="#ArialMT-20" x="533.691406"/>
      <use xlink:href="#ArialMT-28" x="561.474609"/>
      <use xlink:href="#ArialMT-61" x="594.775391"/>
      <use xlink:href="#ArialMT-2e" x="650.390625"/>
      <use xlink:href="#ArialMT-75" x="678.173828"/>
      <use xlink:href="#ArialMT-2e" x="733.789062"/>
      <use xlink:href="#ArialMT-29" x="761.572266"/>
     </g>
    </g>
   </g>
   <g id="PolyCollection_1"/>
   <g id="PolyCollection_2"/>
   <g id="PolyCollection_3"/>
   <g id="PolyCollection_4"/>
   <g id="PolyCollection_5"/>
   <g id="PolyCollection_6"/>
   <g id="line2d_23">
    <path d="M 41.334863 234.608594 
L 43.240455 232.528119 
L 44.669654 230.567811 
L 46.575246 227.395065 
L 48.480838 223.753484 
L 50.386429 219.569401 
L 52.292021 214.942344 
L 54.674005 208.412865 
L 57.056011 201.390631 
L 66.58397 172.392191 
L 69.442347 164.530921 
L 71.347939 160.159502 
L 72.777138 157.413887 
L 74.68273 154.377613 
L 77.064714 151.568488 
L 78.493914 150.409177 
L 79.923113 149.650108 
L 81.352312 149.271589 
L 82.305097 149.238648 
L 83.257904 149.411374 
L 84.210689 149.804067 
L 85.639888 150.740708 
L 87.069088 152.134846 
L 88.498287 153.943832 
L 89.927465 156.042577 
L 92.785863 160.842409 
L 95.64424 165.695055 
L 97.549832 168.458067 
L 98.979031 170.190956 
L 100.40823 171.54287 
L 101.361015 172.197837 
L 102.313822 172.697588 
L 103.266629 173.008271 
L 104.695806 173.132892 
L 105.648613 173.010542 
L 106.601398 172.717339 
L 107.554205 172.274727 
L 108.50699 171.689044 
L 109.936189 170.543361 
L 111.365389 169.122867 
L 113.27098 166.830117 
L 115.176572 164.116302 
L 116.605771 161.866797 
L 118.987756 157.676782 
L 121.36974 152.989337 
L 124.228139 146.811647 
L 127.56293 138.947167 
L 131.850506 128.048976 
L 136.138082 116.5641 
L 149.477225 80.304305 
L 151.382816 75.701383 
L 154.241215 69.500078 
L 156.146807 65.843492 
L 158.052399 62.641992 
L 159.481598 60.526599 
L 160.910775 58.689151 
L 162.339975 57.110309 
L 164.245566 55.452159 
L 165.198373 54.784935 
L 166.627573 54.039292 
L 168.05675 53.602148 
L 169.009557 53.518526 
L 169.962342 53.569791 
L 171.391541 53.982114 
L 172.344348 54.527623 
L 173.297133 55.205049 
L 174.726332 56.675652 
L 176.155531 58.672223 
L 177.584709 61.169384 
L 179.013908 64.147693 
L 180.443108 67.657249 
L 182.348699 73.020178 
L 185.207098 82.373153 
L 188.065475 92.866863 
L 190.923873 103.962066 
L 195.687864 123.313719 
L 199.97544 141.95673 
L 203.310231 157.78629 
L 207.597807 179.756107 
L 213.790953 212.268608 
L 216.649352 226.060861 
L 218.554965 234.326009 
L 220.460535 241.718038 
L 221.889756 246.683018 
L 223.795326 252.39907 
L 225.224547 256.104402 
L 226.653725 259.343911 
L 228.082903 262.136436 
L 229.512124 264.531747 
L 231.417694 267.177349 
L 233.323307 269.283173 
L 235.228877 270.930076 
L 237.134491 272.221393 
L 239.040061 273.243004 
L 241.422067 274.196785 
L 244.280465 275.006616 
L 247.615257 275.628219 
L 250.950004 276.035047 
L 256.190409 276.395433 
L 263.812776 276.650514 
L 280.010295 276.821806 
L 314.787384 276.892379 
L 320.98053 276.91149 
L 347.182422 276.93137 
L 353.852005 276.939182 
L 367.667562 276.955271 
L 387.676265 276.957065 
L 391.011056 276.965375 
L 396.251417 276.955548 
L 398.633423 276.961468 
L 398.633423 276.961468 
" clip-path="url(#pdd3e45f013)" style="fill: none; stroke: #f6b48f; stroke-linecap: round"/>
   </g>
   <g id="line2d_24">
    <path d="M 41.334863 254.74986 
L 43.240455 253.837601 
L 45.146046 252.741095 
L 48.480838 250.480159 
L 51.339236 248.151435 
L 54.197613 245.479484 
L 58.485189 240.932268 
L 62.772787 235.804641 
L 67.060363 230.13935 
L 71.824353 223.148925 
L 76.111929 216.222419 
L 77.064714 214.415907 
L 79.923113 209.346467 
L 82.305097 204.93597 
L 85.639888 198.368905 
L 90.403879 188.322103 
L 94.215062 179.818608 
L 98.026246 170.894636 
L 101.83743 161.422497 
L 105.172221 152.590566 
L 108.983404 141.895606 
L 121.36974 106.244753 
L 125.180924 96.317274 
L 128.039322 89.466117 
L 131.850506 81.277846 
L 134.23249 76.764434 
L 137.567281 71.387648 
L 139.472873 68.789076 
L 141.854857 66.045352 
L 144.236863 63.896675 
L 146.142455 62.645392 
L 148.048047 61.764685 
L 149.953639 61.30965 
L 151.859231 61.238235 
L 153.288408 61.404819 
L 155.194 62.046157 
L 156.623199 62.740384 
L 159.005184 64.445128 
L 160.910775 66.26103 
L 163.292781 69.104695 
L 164.721981 71.084173 
L 166.151158 73.268126 
L 168.533164 77.452925 
L 171.391541 83.316685 
L 173.773525 88.831428 
L 176.631924 96.163976 
L 179.013908 102.83883 
L 181.395893 109.921045 
L 184.730684 120.585856 
L 189.018282 135.180032 
L 192.829465 148.780187 
L 208.550592 205.412412 
L 211.885383 216.089601 
L 214.267389 223.161037 
L 216.649352 229.726643 
L 219.031358 235.668137 
L 221.41332 240.963969 
L 223.318934 244.78901 
L 225.224547 248.221318 
L 227.60651 251.988273 
L 229.512124 254.625535 
L 231.894086 257.49742 
L 234.276092 259.900478 
L 236.181662 261.571033 
L 238.563668 263.367508 
L 240.945674 264.874111 
L 243.804029 266.365555 
L 246.662428 267.591559 
L 250.473612 268.888207 
L 253.808403 269.766456 
L 257.619586 270.582508 
L 262.383555 271.387579 
L 270.958751 272.398277 
L 276.675504 272.889715 
L 289.538276 273.68825 
L 310.023372 274.589527 
L 324.315321 275.056326 
L 332.890473 275.309709 
L 393.393062 276.49419 
L 398.633423 276.539188 
L 398.633423 276.539188 
" clip-path="url(#pdd3e45f013)" style="fill: none; stroke: #f37651; stroke-linecap: round"/>
   </g>
   <g id="line2d_25">
    <path d="M 41.334863 227.336789 
L 42.28767 229.872157 
L 43.240455 231.619058 
L 44.193261 232.893743 
L 45.146046 233.752939 
L 46.098853 234.250442 
L 47.528053 234.520021 
L 48.95723 234.4237 
L 51.339236 233.777178 
L 53.244828 232.845204 
L 54.197613 232.196788 
L 56.103205 230.472613 
L 57.532404 228.834884 
L 60.390781 224.905949 
L 63.249179 220.404992 
L 66.107578 215.443657 
L 68.01317 211.851792 
L 71.824353 204.402097 
L 74.206338 200.227373 
L 76.588322 196.636555 
L 78.970306 193.957121 
L 81.352312 191.739783 
L 83.257904 190.129548 
L 85.163496 188.674825 
L 87.069088 187.565249 
L 88.498287 187.068505 
L 89.927465 186.948255 
L 90.880271 187.120442 
L 91.833056 187.477453 
L 93.262256 188.398987 
L 95.167847 190.134332 
L 98.502639 193.514718 
L 99.931838 194.615152 
L 100.884623 195.13624 
L 102.313822 195.52231 
L 103.266629 195.523001 
L 104.219414 195.310374 
L 105.172221 194.913646 
L 106.601398 193.991801 
L 108.030598 192.716624 
L 109.459797 191.175957 
L 111.365389 188.817109 
L 114.70018 184.169794 
L 125.180924 169.541116 
L 128.039322 166.04232 
L 131.850506 161.888762 
L 134.23249 159.625933 
L 136.614474 157.618906 
L 139.949266 155.292809 
L 142.807664 153.730996 
L 145.189648 152.742773 
L 146.618848 152.280658 
L 148.52444 151.840393 
L 150.906424 151.572727 
L 152.335623 151.534088 
L 154.717607 151.707867 
L 157.576006 152.331288 
L 159.005184 152.788873 
L 160.910775 153.589397 
L 163.292781 154.878151 
L 165.674766 156.475913 
L 168.05675 158.37663 
L 170.438756 160.642085 
L 172.82074 163.214048 
L 175.679117 166.757649 
L 179.013908 171.448285 
L 182.348699 176.710519 
L 186.159883 183.379967 
L 189.971067 190.649476 
L 192.829465 196.425813 
L 197.593434 206.560938 
L 203.310231 219.215112 
L 208.0742 229.705024 
L 212.361776 238.539194 
L 215.696567 244.810912 
L 218.078573 248.897446 
L 220.460535 252.571202 
L 222.366149 255.199521 
L 224.748111 258.132075 
L 227.130118 260.659515 
L 229.035731 262.427506 
L 231.417694 264.325373 
L 233.7997 265.907292 
L 236.181662 267.2241 
L 239.040061 268.524828 
L 242.374852 269.693697 
L 246.662428 270.806733 
L 251.902833 271.752891 
L 257.619586 272.43279 
L 263.812776 272.960487 
L 274.293542 273.600746 
L 286.679877 274.158433 
L 311.452593 275.08089 
L 348.135251 276.00921 
L 353.375612 276.082774 
L 366.23834 276.258837 
L 373.384315 276.345434 
L 377.195499 276.392963 
L 382.435903 276.443059 
L 392.440233 276.535248 
L 398.633423 276.563726 
L 398.633423 276.563726 
" clip-path="url(#pdd3e45f013)" style="fill: none; stroke: #e13342; stroke-linecap: round"/>
   </g>
   <g id="line2d_26">
    <path d="M 41.334863 221.312626 
L 42.28767 224.083574 
L 43.240455 225.969724 
L 44.193261 227.22678 
L 45.146046 228.033494 
L 46.098853 228.42054 
L 47.051638 228.51391 
L 48.480838 228.254622 
L 49.433644 227.894052 
L 50.862822 227.19487 
L 52.292021 226.202482 
L 53.72122 224.829113 
L 55.15042 223.024926 
L 56.579597 220.802329 
L 58.485189 217.269336 
L 60.867195 212.29266 
L 63.249179 206.987955 
L 66.58397 198.953376 
L 71.824353 185.451887 
L 73.729945 181.424414 
L 74.68273 179.744439 
L 76.588322 177.053477 
L 77.541129 176.182401 
L 78.970306 175.242098 
L 80.399506 174.664632 
L 81.828705 174.309746 
L 83.734297 174.211056 
L 84.687103 174.347008 
L 85.639888 174.643282 
L 86.592695 175.147177 
L 87.54548 175.913662 
L 88.498287 176.989809 
L 89.451072 178.417624 
L 90.403879 180.205514 
L 91.833056 183.60652 
L 93.262256 187.856879 
L 95.167847 194.450249 
L 98.979031 208.17491 
L 100.40823 212.530132 
L 101.83743 216.122339 
L 102.790215 218.069809 
L 103.743021 219.661252 
L 104.695806 220.899801 
L 105.648613 221.830701 
L 106.601398 222.457427 
L 107.554205 222.836822 
L 108.50699 223.017129 
L 109.459797 223.0022 
L 110.412582 222.849447 
L 111.841781 222.36057 
L 113.747373 221.402617 
L 116.129357 219.907835 
L 121.36974 216.143461 
L 125.657338 213.066505 
L 128.992107 210.850062 
L 132.803291 208.593001 
L 135.661689 207.134173 
L 138.520066 205.896664 
L 141.854857 204.751831 
L 144.713256 204.000186 
L 149.000832 203.356532 
L 152.335623 203.232216 
L 155.670414 203.435636 
L 159.005184 203.955691 
L 161.863582 204.678773 
L 164.721981 205.65378 
L 167.580358 206.891213 
L 170.438756 208.416887 
L 173.297133 210.22456 
L 176.631924 212.693404 
L 179.966715 215.523123 
L 183.777899 219.158455 
L 186.636275 222.133154 
L 190.923873 226.945204 
L 196.640649 233.911725 
L 202.357402 241.241488 
L 208.550592 249.193359 
L 212.838168 254.322492 
L 216.649352 258.44639 
L 219.50775 261.183242 
L 221.889756 263.199601 
L 225.224547 265.590287 
L 227.60651 267.024328 
L 229.988516 268.237724 
L 231.894086 269.067535 
L 235.70527 270.388834 
L 239.516453 271.358318 
L 243.327637 272.048341 
L 247.13882 272.554035 
L 250.473612 272.901838 
L 259.5252 273.455294 
L 265.241953 273.698504 
L 297.637036 274.766346 
L 309.546979 275.104104 
L 316.216561 275.284125 
L 332.414081 275.689069 
L 348.135251 276.039666 
L 386.72348 276.480304 
L 394.822239 276.53921 
L 397.204245 276.551388 
L 398.633423 276.560104 
L 398.633423 276.560104 
" clip-path="url(#pdd3e45f013)" style="fill: none; stroke: #ad1759; stroke-linecap: round"/>
   </g>
   <g id="line2d_27">
    <path d="M 41.334863 219.494395 
L 42.28767 222.135559 
L 43.240455 223.872648 
L 44.193261 225.003396 
L 45.146046 225.65591 
L 45.622461 225.833248 
L 46.575246 225.879421 
L 48.004445 225.488194 
L 48.95723 225.013414 
L 50.386429 224.019583 
L 51.339236 223.224623 
L 52.768414 221.684686 
L 54.197613 219.623273 
L 55.626812 217.053594 
L 57.056011 214.016571 
L 58.961603 209.469076 
L 63.249179 198.077174 
L 66.107578 189.874863 
L 71.824353 172.737109 
L 73.253531 169.340449 
L 74.68273 166.631379 
L 75.635537 165.271667 
L 77.064714 163.709562 
L 78.017521 163.144562 
L 78.970306 162.815493 
L 79.923113 162.675962 
L 81.352312 162.762414 
L 82.305097 162.995476 
L 83.257904 163.365392 
L 84.210689 163.943259 
L 85.163496 164.701452 
L 86.116281 165.771685 
L 87.069088 167.160227 
L 88.021873 168.952007 
L 88.97468 171.217272 
L 89.927465 173.892569 
L 91.356664 178.902624 
L 92.785863 184.894424 
L 94.691455 194.219927 
L 98.979031 215.986438 
L 100.40823 222.167123 
L 101.83743 227.364848 
L 103.266629 231.574586 
L 104.695806 234.773944 
L 105.648613 236.422104 
L 106.601398 237.720943 
L 107.554205 238.744024 
L 108.50699 239.496338 
L 109.936189 240.216197 
L 110.888996 240.493647 
L 112.318174 240.657293 
L 113.747373 240.583315 
L 115.652965 240.26216 
L 117.558556 239.773087 
L 120.893348 238.67331 
L 130.421307 235.378379 
L 133.756098 234.394594 
L 138.043674 233.386218 
L 143.284057 232.607024 
L 146.618848 232.34292 
L 149.953639 232.278034 
L 153.764822 232.432703 
L 157.099592 232.760487 
L 159.95799 233.201095 
L 163.769174 234.001035 
L 167.580358 235.069971 
L 170.438756 236.063764 
L 173.297133 237.232685 
L 177.108316 239.052441 
L 181.395893 241.419077 
L 186.636275 244.705401 
L 194.735035 250.31327 
L 202.357402 255.943799 
L 210.932598 262.154142 
L 215.220174 264.926086 
L 219.031358 267.07581 
L 221.889756 268.458768 
L 226.177333 270.127038 
L 229.988516 271.249916 
L 233.323307 271.992132 
L 236.181662 272.489065 
L 240.469282 273.043382 
L 247.615257 273.595164 
L 253.33201 273.840413 
L 264.765561 274.1475 
L 368.143954 276.295179 
L 376.719106 276.393356 
L 398.633423 276.587359 
L 398.633423 276.587359 
" clip-path="url(#pdd3e45f013)" style="fill: none; stroke: #701f57; stroke-linecap: round"/>
   </g>
   <g id="line2d_28">
    <path d="M 41.334863 215.670204 
L 42.28767 218.155449 
L 43.240455 219.741156 
L 44.193261 220.673032 
L 44.669654 220.970398 
L 45.622461 221.184166 
L 46.575246 221.030164 
L 48.004445 220.372501 
L 49.433644 219.314456 
L 50.862822 217.979817 
L 51.815629 216.886972 
L 52.768414 215.525249 
L 53.72122 213.918839 
L 55.15042 211.029303 
L 56.579597 207.544288 
L 58.961603 200.858331 
L 62.296373 190.645136 
L 65.154771 181.278901 
L 67.536755 172.980545 
L 70.871547 161.431341 
L 72.300746 157.318832 
L 73.253531 154.989042 
L 74.68273 152.193064 
L 75.635537 150.796375 
L 77.064714 149.576866 
L 78.017521 149.159239 
L 78.970306 149.031979 
L 79.923113 149.111566 
L 81.352312 149.598171 
L 82.305097 150.122071 
L 83.257904 150.909018 
L 84.210689 151.93329 
L 85.163496 153.232336 
L 86.116281 154.926751 
L 87.069088 157.032563 
L 88.021873 159.661615 
L 89.451072 164.662864 
L 90.403879 168.685648 
L 91.833056 175.748867 
L 93.262256 184.060699 
L 96.120654 202.610483 
L 98.979031 220.743394 
L 100.884623 230.921002 
L 102.313822 237.148213 
L 103.743021 242.217206 
L 105.172221 246.20729 
L 106.125006 248.314279 
L 107.554205 250.820747 
L 108.50699 252.111994 
L 109.936189 253.582837 
L 111.365389 254.630488 
L 112.794588 255.365326 
L 114.223765 255.858972 
L 116.129357 256.268162 
L 118.511363 256.49954 
L 123.275332 256.502161 
L 130.897699 256.224405 
L 139.472873 256.194987 
L 147.09524 256.616925 
L 153.764822 257.354641 
L 165.198373 259.037939 
L 169.962342 259.872269 
L 177.108316 261.529343 
L 182.348699 262.950136 
L 193.305858 265.947861 
L 201.88101 268.221541 
L 208.0742 269.781123 
L 217.602137 271.788496 
L 221.889756 272.45306 
L 229.035731 273.22226 
L 235.228877 273.592563 
L 242.851244 273.821242 
L 247.615257 273.91072 
L 262.383555 274.08254 
L 269.053137 274.168322 
L 280.010295 274.39442 
L 301.448219 274.814227 
L 313.834555 274.982172 
L 324.791713 275.179084 
L 329.555726 275.314875 
L 333.843302 275.423551 
L 343.847631 275.651679 
L 354.328397 275.815967 
L 365.761948 275.913586 
L 398.633423 276.245494 
L 398.633423 276.245494 
" clip-path="url(#pdd3e45f013)" style="fill: none; stroke: #35193e; stroke-linecap: round"/>
   </g>
   <g id="line2d_29"/>
   <g id="line2d_30"/>
   <g id="line2d_31"/>
   <g id="line2d_32"/>
   <g id="line2d_33"/>
   <g id="line2d_34"/>
   <g id="patch_3">
    <path d="M 41.25125 277.248797 
L 41.25125 11.136797 
" style="fill: none; stroke: #262626; stroke-width: 1.25; stroke-linejoin: miter; stroke-linecap: square"/>
   </g>
   <g id="patch_4">
    <path d="M 41.25125 277.248797 
L 398.37125 277.248797 
" style="fill: none; stroke: #262626; stroke-width: 1.25; stroke-linejoin: miter; stroke-linecap: square"/>
   </g>
   <g id="legend_1">
    <g id="line2d_35">
     <path d="M 236.683625 45.415809 
L 242.683625 45.415809 
L 248.683625 45.415809 
" style="fill: none; stroke: #f6b48f; stroke-width: 1.5; stroke-linecap: round"/>
    </g>
    <g id="text_15">
     <!-- imine polymer 0.0% TFA_Abs -->
     <g style="fill: #262626" transform="translate(253.483625 47.515809) scale(0.06 -0.06)">
      <defs>
       <path id="ArialMT-69" d="M 425 3934 
L 425 4581 
L 988 4581 
L 988 3934 
L 425 3934 
z
M 425 0 
L 425 3319 
L 988 3319 
L 988 0 
L 425 0 
z
" transform="scale(0.015625)"/>
       <path id="ArialMT-70" d="M 422 -1272 
L 422 3319 
L 934 3319 
L 934 2888 
Q 1116 3141 1344 3267 
Q 1572 3394 1897 3394 
Q 2322 3394 2647 3175 
Q 2972 2956 3137 2557 
Q 3303 2159 3303 1684 
Q 3303 1175 3120 767 
Q 2938 359 2589 142 
Q 2241 -75 1856 -75 
Q 1575 -75 1351 44 
Q 1128 163 984 344 
L 984 -1272 
L 422 -1272 
z
M 931 1641 
Q 931 1000 1190 694 
Q 1450 388 1819 388 
Q 2194 388 2461 705 
Q 2728 1022 2728 1688 
Q 2728 2322 2467 2637 
Q 2206 2953 1844 2953 
Q 1484 2953 1207 2617 
Q 931 2281 931 1641 
z
" transform="scale(0.015625)"/>
       <path id="ArialMT-79" d="M 397 -1278 
L 334 -750 
Q 519 -800 656 -800 
Q 844 -800 956 -737 
Q 1069 -675 1141 -563 
Q 1194 -478 1313 -144 
Q 1328 -97 1363 -6 
L 103 3319 
L 709 3319 
L 1400 1397 
Q 1534 1031 1641 628 
Q 1738 1016 1872 1384 
L 2581 3319 
L 3144 3319 
L 1881 -56 
Q 1678 -603 1566 -809 
Q 1416 -1088 1222 -1217 
Q 1028 -1347 759 -1347 
Q 597 -1347 397 -1278 
z
" transform="scale(0.015625)"/>
       <path id="ArialMT-25" d="M 372 3481 
Q 372 3972 619 4315 
Q 866 4659 1334 4659 
Q 1766 4659 2048 4351 
Q 2331 4044 2331 3447 
Q 2331 2866 2045 2552 
Q 1759 2238 1341 2238 
Q 925 2238 648 2547 
Q 372 2856 372 3481 
z
M 1350 4272 
Q 1141 4272 1002 4090 
Q 863 3909 863 3425 
Q 863 2984 1003 2804 
Q 1144 2625 1350 2625 
Q 1563 2625 1702 2806 
Q 1841 2988 1841 3469 
Q 1841 3913 1700 4092 
Q 1559 4272 1350 4272 
z
M 1353 -169 
L 3859 4659 
L 4316 4659 
L 1819 -169 
L 1353 -169 
z
M 3334 1075 
Q 3334 1569 3581 1911 
Q 3828 2253 4300 2253 
Q 4731 2253 5014 1945 
Q 5297 1638 5297 1041 
Q 5297 459 5011 145 
Q 4725 -169 4303 -169 
Q 3888 -169 3611 142 
Q 3334 453 3334 1075 
z
M 4316 1866 
Q 4103 1866 3964 1684 
Q 3825 1503 3825 1019 
Q 3825 581 3965 400 
Q 4106 219 4313 219 
Q 4528 219 4667 400 
Q 4806 581 4806 1063 
Q 4806 1506 4665 1686 
Q 4525 1866 4316 1866 
z
" transform="scale(0.015625)"/>
       <path id="ArialMT-54" d="M 1659 0 
L 1659 4041 
L 150 4041 
L 150 4581 
L 3781 4581 
L 3781 4041 
L 2266 4041 
L 2266 0 
L 1659 0 
z
" transform="scale(0.015625)"/>
       <path id="ArialMT-46" d="M 525 0 
L 525 4581 
L 3616 4581 
L 3616 4041 
L 1131 4041 
L 1131 2622 
L 3281 2622 
L 3281 2081 
L 1131 2081 
L 1131 0 
L 525 0 
z
" transform="scale(0.015625)"/>
       <path id="ArialMT-5f" d="M -97 -1272 
L -97 -866 
L 3631 -866 
L 3631 -1272 
L -97 -1272 
z
" transform="scale(0.015625)"/>
      </defs>
      <use xlink:href="#ArialMT-69"/>
      <use xlink:href="#ArialMT-6d" x="22.216797"/>
      <use xlink:href="#ArialMT-69" x="105.517578"/>
      <use xlink:href="#ArialMT-6e" x="127.734375"/>
      <use xlink:href="#ArialMT-65" x="183.349609"/>
      <use xlink:href="#ArialMT-20" x="238.964844"/>
      <use xlink:href="#ArialMT-70" x="266.748047"/>
      <use xlink:href="#ArialMT-6f" x="322.363281"/>
      <use xlink:href="#ArialMT-6c" x="377.978516"/>
      <use xlink:href="#ArialMT-79" x="400.195312"/>
      <use xlink:href="#ArialMT-6d" x="450.195312"/>
      <use xlink:href="#ArialMT-65" x="533.496094"/>
      <use xlink:href="#ArialMT-72" x="589.111328"/>
      <use xlink:href="#ArialMT-20" x="622.412109"/>
      <use xlink:href="#ArialMT-30" x="650.195312"/>
      <use xlink:href="#ArialMT-2e" x="705.810547"/>
      <use xlink:href="#ArialMT-30" x="733.59375"/>
      <use xlink:href="#ArialMT-25" x="789.208984"/>
      <use xlink:href="#ArialMT-20" x="878.125"/>
      <use xlink:href="#ArialMT-54" x="904.158203"/>
      <use xlink:href="#ArialMT-46" x="965.242188"/>
      <use xlink:href="#ArialMT-41" x="1020.826172"/>
      <use xlink:href="#ArialMT-5f" x="1087.525391"/>
      <use xlink:href="#ArialMT-41" x="1143.140625"/>
      <use xlink:href="#ArialMT-62" x="1209.839844"/>
      <use xlink:href="#ArialMT-73" x="1265.455078"/>
     </g>
    </g>
    <g id="line2d_36">
     <path d="M 236.683625 54.046434 
L 242.683625 54.046434 
L 248.683625 54.046434 
" style="fill: none; stroke: #f37651; stroke-width: 1.5; stroke-linecap: round"/>
    </g>
    <g id="text_16">
     <!-- imine polymer 1.00% TFA t=0hrs_Abs -->
     <g style="fill: #262626" transform="translate(253.483625 56.146434) scale(0.06 -0.06)">
      <defs>
       <path id="ArialMT-3d" d="M 3381 2694 
L 356 2694 
L 356 3219 
L 3381 3219 
L 3381 2694 
z
M 3381 1303 
L 356 1303 
L 356 1828 
L 3381 1828 
L 3381 1303 
z
" transform="scale(0.015625)"/>
      </defs>
      <use xlink:href="#ArialMT-69"/>
      <use xlink:href="#ArialMT-6d" x="22.216797"/>
      <use xlink:href="#ArialMT-69" x="105.517578"/>
      <use xlink:href="#ArialMT-6e" x="127.734375"/>
      <use xlink:href="#ArialMT-65" x="183.349609"/>
      <use xlink:href="#ArialMT-20" x="238.964844"/>
      <use xlink:href="#ArialMT-70" x="266.748047"/>
      <use xlink:href="#ArialMT-6f" x="322.363281"/>
      <use xlink:href="#ArialMT-6c" x="377.978516"/>
      <use xlink:href="#ArialMT-79" x="400.195312"/>
      <use xlink:href="#ArialMT-6d" x="450.195312"/>
      <use xlink:href="#ArialMT-65" x="533.496094"/>
      <use xlink:href="#ArialMT-72" x="589.111328"/>
      <use xlink:href="#ArialMT-20" x="622.412109"/>
      <use xlink:href="#ArialMT-31" x="650.195312"/>
      <use xlink:href="#ArialMT-2e" x="705.810547"/>
      <use xlink:href="#ArialMT-30" x="733.59375"/>
      <use xlink:href="#ArialMT-30" x="789.208984"/>
      <use xlink:href="#ArialMT-25" x="844.824219"/>
      <use xlink:href="#ArialMT-20" x="933.740234"/>
      <use xlink:href="#ArialMT-54" x="959.773438"/>
      <use xlink:href="#ArialMT-46" x="1020.857422"/>
      <use xlink:href="#ArialMT-41" x="1076.441406"/>
      <use xlink:href="#ArialMT-20" x="1137.640625"/>
      <use xlink:href="#ArialMT-74" x="1165.423828"/>
      <use xlink:href="#ArialMT-3d" x="1193.207031"/>
      <use xlink:href="#ArialMT-30" x="1251.605469"/>
      <use xlink:href="#ArialMT-68" x="1307.220703"/>
      <use xlink:href="#ArialMT-72" x="1362.835938"/>
      <use xlink:href="#ArialMT-73" x="1396.136719"/>
      <use xlink:href="#ArialMT-5f" x="1446.136719"/>
      <use xlink:href="#ArialMT-41" x="1501.751953"/>
      <use xlink:href="#ArialMT-62" x="1568.451172"/>
      <use xlink:href="#ArialMT-73" x="1624.066406"/>
     </g>
    </g>
    <g id="line2d_37">
     <path d="M 236.683625 62.677059 
L 242.683625 62.677059 
L 248.683625 62.677059 
" style="fill: none; stroke: #e13342; stroke-width: 1.5; stroke-linecap: round"/>
    </g>
    <g id="text_17">
     <!-- imine polymer 1.0% TFA t=1hr_Abs -->
     <g style="fill: #262626" transform="translate(253.483625 64.777059) scale(0.06 -0.06)">
      <use xlink:href="#ArialMT-69"/>
      <use xlink:href="#ArialMT-6d" x="22.216797"/>
      <use xlink:href="#ArialMT-69" x="105.517578"/>
      <use xlink:href="#ArialMT-6e" x="127.734375"/>
      <use xlink:href="#ArialMT-65" x="183.349609"/>
      <use xlink:href="#ArialMT-20" x="238.964844"/>
      <use xlink:href="#ArialMT-70" x="266.748047"/>
      <use xlink:href="#ArialMT-6f" x="322.363281"/>
      <use xlink:href="#ArialMT-6c" x="377.978516"/>
      <use xlink:href="#ArialMT-79" x="400.195312"/>
      <use xlink:href="#ArialMT-6d" x="450.195312"/>
      <use xlink:href="#ArialMT-65" x="533.496094"/>
      <use xlink:href="#ArialMT-72" x="589.111328"/>
      <use xlink:href="#ArialMT-20" x="622.412109"/>
      <use xlink:href="#ArialMT-31" x="650.195312"/>
      <use xlink:href="#ArialMT-2e" x="705.810547"/>
      <use xlink:href="#ArialMT-30" x="733.59375"/>
      <use xlink:href="#ArialMT-25" x="789.208984"/>
      <use xlink:href="#ArialMT-20" x="878.125"/>
      <use xlink:href="#ArialMT-54" x="904.158203"/>
      <use xlink:href="#ArialMT-46" x="965.242188"/>
      <use xlink:href="#ArialMT-41" x="1020.826172"/>
      <use xlink:href="#ArialMT-20" x="1082.025391"/>
      <use xlink:href="#ArialMT-74" x="1109.808594"/>
      <use xlink:href="#ArialMT-3d" x="1137.591797"/>
      <use xlink:href="#ArialMT-31" x="1195.990234"/>
      <use xlink:href="#ArialMT-68" x="1251.605469"/>
      <use xlink:href="#ArialMT-72" x="1307.220703"/>
      <use xlink:href="#ArialMT-5f" x="1340.521484"/>
      <use xlink:href="#ArialMT-41" x="1396.136719"/>
      <use xlink:href="#ArialMT-62" x="1462.835938"/>
      <use xlink:href="#ArialMT-73" x="1518.451172"/>
     </g>
    </g>
    <g id="line2d_38">
     <path d="M 236.683625 71.307684 
L 242.683625 71.307684 
L 248.683625 71.307684 
" style="fill: none; stroke: #ad1759; stroke-width: 1.5; stroke-linecap: round"/>
    </g>
    <g id="text_18">
     <!-- imine polymer 1.0% TFA t=2.5hrs_Abs -->
     <g style="fill: #262626" transform="translate(253.483625 73.407684) scale(0.06 -0.06)">
      <use xlink:href="#ArialMT-69"/>
      <use xlink:href="#ArialMT-6d" x="22.216797"/>
      <use xlink:href="#ArialMT-69" x="105.517578"/>
      <use xlink:href="#ArialMT-6e" x="127.734375"/>
      <use xlink:href="#ArialMT-65" x="183.349609"/>
      <use xlink:href="#ArialMT-20" x="238.964844"/>
      <use xlink:href="#ArialMT-70" x="266.748047"/>
      <use xlink:href="#ArialMT-6f" x="322.363281"/>
      <use xlink:href="#ArialMT-6c" x="377.978516"/>
      <use xlink:href="#ArialMT-79" x="400.195312"/>
      <use xlink:href="#ArialMT-6d" x="450.195312"/>
      <use xlink:href="#ArialMT-65" x="533.496094"/>
      <use xlink:href="#ArialMT-72" x="589.111328"/>
      <use xlink:href="#ArialMT-20" x="622.412109"/>
      <use xlink:href="#ArialMT-31" x="650.195312"/>
      <use xlink:href="#ArialMT-2e" x="705.810547"/>
      <use xlink:href="#ArialMT-30" x="733.59375"/>
      <use xlink:href="#ArialMT-25" x="789.208984"/>
      <use xlink:href="#ArialMT-20" x="878.125"/>
      <use xlink:href="#ArialMT-54" x="904.158203"/>
      <use xlink:href="#ArialMT-46" x="965.242188"/>
      <use xlink:href="#ArialMT-41" x="1020.826172"/>
      <use xlink:href="#ArialMT-20" x="1082.025391"/>
      <use xlink:href="#ArialMT-74" x="1109.808594"/>
      <use xlink:href="#ArialMT-3d" x="1137.591797"/>
      <use xlink:href="#ArialMT-32" x="1195.990234"/>
      <use xlink:href="#ArialMT-2e" x="1251.605469"/>
      <use xlink:href="#ArialMT-35" x="1279.388672"/>
      <use xlink:href="#ArialMT-68" x="1335.003906"/>
      <use xlink:href="#ArialMT-72" x="1390.619141"/>
      <use xlink:href="#ArialMT-73" x="1423.919922"/>
      <use xlink:href="#ArialMT-5f" x="1473.919922"/>
      <use xlink:href="#ArialMT-41" x="1529.535156"/>
      <use xlink:href="#ArialMT-62" x="1596.234375"/>
      <use xlink:href="#ArialMT-73" x="1651.849609"/>
     </g>
    </g>
    <g id="line2d_39">
     <path d="M 236.683625 79.938309 
L 242.683625 79.938309 
L 248.683625 79.938309 
" style="fill: none; stroke: #701f57; stroke-width: 1.5; stroke-linecap: round"/>
    </g>
    <g id="text_19">
     <!-- imine polymer 1.0% TFA t=5hrs_Abs -->
     <g style="fill: #262626" transform="translate(253.483625 82.038309) scale(0.06 -0.06)">
      <use xlink:href="#ArialMT-69"/>
      <use xlink:href="#ArialMT-6d" x="22.216797"/>
      <use xlink:href="#ArialMT-69" x="105.517578"/>
      <use xlink:href="#ArialMT-6e" x="127.734375"/>
      <use xlink:href="#ArialMT-65" x="183.349609"/>
      <use xlink:href="#ArialMT-20" x="238.964844"/>
      <use xlink:href="#ArialMT-70" x="266.748047"/>
      <use xlink:href="#ArialMT-6f" x="322.363281"/>
      <use xlink:href="#ArialMT-6c" x="377.978516"/>
      <use xlink:href="#ArialMT-79" x="400.195312"/>
      <use xlink:href="#ArialMT-6d" x="450.195312"/>
      <use xlink:href="#ArialMT-65" x="533.496094"/>
      <use xlink:href="#ArialMT-72" x="589.111328"/>
      <use xlink:href="#ArialMT-20" x="622.412109"/>
      <use xlink:href="#ArialMT-31" x="650.195312"/>
      <use xlink:href="#ArialMT-2e" x="705.810547"/>
      <use xlink:href="#ArialMT-30" x="733.59375"/>
      <use xlink:href="#ArialMT-25" x="789.208984"/>
      <use xlink:href="#ArialMT-20" x="878.125"/>
      <use xlink:href="#ArialMT-54" x="904.158203"/>
      <use xlink:href="#ArialMT-46" x="965.242188"/>
      <use xlink:href="#ArialMT-41" x="1020.826172"/>
      <use xlink:href="#ArialMT-20" x="1082.025391"/>
      <use xlink:href="#ArialMT-74" x="1109.808594"/>
      <use xlink:href="#ArialMT-3d" x="1137.591797"/>
      <use xlink:href="#ArialMT-35" x="1195.990234"/>
      <use xlink:href="#ArialMT-68" x="1251.605469"/>
      <use xlink:href="#ArialMT-72" x="1307.220703"/>
      <use xlink:href="#ArialMT-73" x="1340.521484"/>
      <use xlink:href="#ArialMT-5f" x="1390.521484"/>
      <use xlink:href="#ArialMT-41" x="1446.136719"/>
      <use xlink:href="#ArialMT-62" x="1512.835938"/>
      <use xlink:href="#ArialMT-73" x="1568.451172"/>
     </g>
    </g>
    <g id="line2d_40">
     <path d="M 236.683625 88.568934 
L 242.683625 88.568934 
L 248.683625 88.568934 
" style="fill: none; stroke: #35193e; stroke-width: 1.5; stroke-linecap: round"/>
    </g>
    <g id="text_20">
     <!-- imine polymer 1.00% TFA t=22hrs_Abs -->
     <g style="fill: #262626" transform="translate(253.483625 90.668934) scale(0.06 -0.06)">
      <use xlink:href="#ArialMT-69"/>
      <use xlink:href="#ArialMT-6d" x="22.216797"/>
      <use xlink:href="#ArialMT-69" x="105.517578"/>
      <use xlink:href="#ArialMT-6e" x="127.734375"/>
      <use xlink:href="#ArialMT-65" x="183.349609"/>
      <use xlink:href="#ArialMT-20" x="238.964844"/>
      <use xlink:href="#ArialMT-70" x="266.748047"/>
      <use xlink:href="#ArialMT-6f" x="322.363281"/>
      <use xlink:href="#ArialMT-6c" x="377.978516"/>
      <use xlink:href="#ArialMT-79" x="400.195312"/>
      <use xlink:href="#ArialMT-6d" x="450.195312"/>
      <use xlink:href="#ArialMT-65" x="533.496094"/>
      <use xlink:href="#ArialMT-72" x="589.111328"/>
      <use xlink:href="#ArialMT-20" x="622.412109"/>
      <use xlink:href="#ArialMT-31" x="650.195312"/>
      <use xlink:href="#ArialMT-2e" x="705.810547"/>
      <use xlink:href="#ArialMT-30" x="733.59375"/>
      <use xlink:href="#ArialMT-30" x="789.208984"/>
      <use xlink:href="#ArialMT-25" x="844.824219"/>
      <use xlink:href="#ArialMT-20" x="933.740234"/>
      <use xlink:href="#ArialMT-54" x="959.773438"/>
      <use xlink:href="#ArialMT-46" x="1020.857422"/>
      <use xlink:href="#ArialMT-41" x="1076.441406"/>
      <use xlink:href="#ArialMT-20" x="1137.640625"/>
      <use xlink:href="#ArialMT-74" x="1165.423828"/>
      <use xlink:href="#ArialMT-3d" x="1193.207031"/>
      <use xlink:href="#ArialMT-32" x="1251.605469"/>
      <use xlink:href="#ArialMT-32" x="1307.220703"/>
      <use xlink:href="#ArialMT-68" x="1362.835938"/>
      <use xlink:href="#ArialMT-72" x="1418.451172"/>
      <use xlink:href="#ArialMT-73" x="1451.751953"/>
      <use xlink:href="#ArialMT-5f" x="1501.751953"/>
      <use xlink:href="#ArialMT-41" x="1557.367188"/>
      <use xlink:href="#ArialMT-62" x="1624.066406"/>
      <use xlink:href="#ArialMT-73" x="1679.681641"/>
     </g>
    </g>
   </g>
  </g>
 </g>
 <defs>
  <clipPath id="pdd3e45f013">
   <rect x="41.25125" y="11.136797" width="357.12" height="266.112"/>
  </clipPath>
 </defs>
</svg>
