<?xml version="1.0" encoding="utf-8" standalone="no"?>
<!DOCTYPE svg PUBLIC "-//W3C//DTD SVG 1.1//EN"
  "http://www.w3.org/Graphics/SVG/1.1/DTD/svg11.dtd">
<svg xmlns:xlink="http://www.w3.org/1999/xlink" width="417.805313pt" height="313.269891pt" viewBox="0 0 417.805313 313.269891" xmlns="http://www.w3.org/2000/svg" version="1.1">
 <metadata>
  <rdf:RDF xmlns:dc="http://purl.org/dc/elements/1.1/" xmlns:cc="http://creativecommons.org/ns#" xmlns:rdf="http://www.w3.org/1999/02/22-rdf-syntax-ns#">
   <cc:Work>
    <dc:type rdf:resource="http://purl.org/dc/dcmitype/StillImage"/>
    <dc:date>2024-11-04T15:35:51.033797</dc:date>
    <dc:format>image/svg+xml</dc:format>
    <dc:creator>
     <cc:Agent>
      <dc:title>Matplotlib v3.7.1, https://matplotlib.org/</dc:title>
     </cc:Agent>
    </dc:creator>
   </cc:Work>
  </rdf:RDF>
 </metadata>
 <defs>
  <style type="text/css">*{stroke-linejoin: round; stroke-linecap: butt}</style>
 </defs>
 <g id="figure_1">
  <g id="patch_1">
   <path d="M 0 313.269891 
L 417.805313 313.269891 
L 417.805313 0 
L 0 0 
z
" style="fill: #ffffff"/>
  </g>
  <g id="axes_1">
   <g id="patch_2">
    <path d="M 41.25125 277.248797 
L 398.37125 277.248797 
L 398.37125 11.136797 
L 41.25125 11.136797 
z
" style="fill: #ffffff"/>
   </g>
   <g id="matplotlib.axis_1">
    <g id="xtick_1">
     <g id="line2d_1">
      <defs>
       <path id="mcd50a44b93" d="M 0 0 
L 0 -6 
" style="stroke: #262626; stroke-width: 1.25"/>
      </defs>
      <g>
       <use xlink:href="#mcd50a44b93" x="41.25125" y="277.248797" style="fill: #262626; stroke: #262626; stroke-width: 1.25"/>
      </g>
     </g>
     <g id="text_1">
      <!-- 300 -->
      <g style="fill: #262626" transform="translate(32.075703 288.622391) scale(0.11 -0.11)">
       <defs>
        <path id="ArialMT-33" d="M 269 1209 
L 831 1284 
Q 928 806 1161 595 
Q 1394 384 1728 384 
Q 2125 384 2398 659 
Q 2672 934 2672 1341 
Q 2672 1728 2419 1979 
Q 2166 2231 1775 2231 
Q 1616 2231 1378 2169 
L 1441 2663 
Q 1497 2656 1531 2656 
Q 1891 2656 2178 2843 
Q 2466 3031 2466 3422 
Q 2466 3731 2256 3934 
Q 2047 4138 1716 4138 
Q 1388 4138 1169 3931 
Q 950 3725 888 3313 
L 325 3413 
Q 428 3978 793 4289 
Q 1159 4600 1703 4600 
Q 2078 4600 2393 4439 
Q 2709 4278 2876 4000 
Q 3044 3722 3044 3409 
Q 3044 3113 2884 2869 
Q 2725 2625 2413 2481 
Q 2819 2388 3044 2092 
Q 3269 1797 3269 1353 
Q 3269 753 2831 336 
Q 2394 -81 1725 -81 
Q 1122 -81 723 278 
Q 325 638 269 1209 
z
" transform="scale(0.015625)"/>
        <path id="ArialMT-30" d="M 266 2259 
Q 266 3072 433 3567 
Q 600 4063 929 4331 
Q 1259 4600 1759 4600 
Q 2128 4600 2406 4451 
Q 2684 4303 2865 4023 
Q 3047 3744 3150 3342 
Q 3253 2941 3253 2259 
Q 3253 1453 3087 958 
Q 2922 463 2592 192 
Q 2263 -78 1759 -78 
Q 1097 -78 719 397 
Q 266 969 266 2259 
z
M 844 2259 
Q 844 1131 1108 757 
Q 1372 384 1759 384 
Q 2147 384 2411 759 
Q 2675 1134 2675 2259 
Q 2675 3391 2411 3762 
Q 2147 4134 1753 4134 
Q 1366 4134 1134 3806 
Q 844 3388 844 2259 
z
" transform="scale(0.015625)"/>
       </defs>
       <use xlink:href="#ArialMT-33"/>
       <use xlink:href="#ArialMT-30" x="55.615234"/>
       <use xlink:href="#ArialMT-30" x="111.230469"/>
      </g>
     </g>
    </g>
    <g id="xtick_2">
     <g id="line2d_2">
      <g>
       <use xlink:href="#mcd50a44b93" x="92.268393" y="277.248797" style="fill: #262626; stroke: #262626; stroke-width: 1.25"/>
      </g>
     </g>
     <g id="text_2">
      <!-- 400 -->
      <g style="fill: #262626" transform="translate(83.092846 288.622391) scale(0.11 -0.11)">
       <defs>
        <path id="ArialMT-34" d="M 2069 0 
L 2069 1097 
L 81 1097 
L 81 1613 
L 2172 4581 
L 2631 4581 
L 2631 1613 
L 3250 1613 
L 3250 1097 
L 2631 1097 
L 2631 0 
L 2069 0 
z
M 2069 1613 
L 2069 3678 
L 634 1613 
L 2069 1613 
z
" transform="scale(0.015625)"/>
       </defs>
       <use xlink:href="#ArialMT-34"/>
       <use xlink:href="#ArialMT-30" x="55.615234"/>
       <use xlink:href="#ArialMT-30" x="111.230469"/>
      </g>
     </g>
    </g>
    <g id="xtick_3">
     <g id="line2d_3">
      <g>
       <use xlink:href="#mcd50a44b93" x="143.285536" y="277.248797" style="fill: #262626; stroke: #262626; stroke-width: 1.25"/>
      </g>
     </g>
     <g id="text_3">
      <!-- 500 -->
      <g style="fill: #262626" transform="translate(134.109989 288.622391) scale(0.11 -0.11)">
       <defs>
        <path id="ArialMT-35" d="M 266 1200 
L 856 1250 
Q 922 819 1161 601 
Q 1400 384 1738 384 
Q 2144 384 2425 690 
Q 2706 997 2706 1503 
Q 2706 1984 2436 2262 
Q 2166 2541 1728 2541 
Q 1456 2541 1237 2417 
Q 1019 2294 894 2097 
L 366 2166 
L 809 4519 
L 3088 4519 
L 3088 3981 
L 1259 3981 
L 1013 2750 
Q 1425 3038 1878 3038 
Q 2478 3038 2890 2622 
Q 3303 2206 3303 1553 
Q 3303 931 2941 478 
Q 2500 -78 1738 -78 
Q 1113 -78 717 272 
Q 322 622 266 1200 
z
" transform="scale(0.015625)"/>
       </defs>
       <use xlink:href="#ArialMT-35"/>
       <use xlink:href="#ArialMT-30" x="55.615234"/>
       <use xlink:href="#ArialMT-30" x="111.230469"/>
      </g>
     </g>
    </g>
    <g id="xtick_4">
     <g id="line2d_4">
      <g>
       <use xlink:href="#mcd50a44b93" x="194.302679" y="277.248797" style="fill: #262626; stroke: #262626; stroke-width: 1.25"/>
      </g>
     </g>
     <g id="text_4">
      <!-- 600 -->
      <g style="fill: #262626" transform="translate(185.127132 288.622391) scale(0.11 -0.11)">
       <defs>
        <path id="ArialMT-36" d="M 3184 3459 
L 2625 3416 
Q 2550 3747 2413 3897 
Q 2184 4138 1850 4138 
Q 1581 4138 1378 3988 
Q 1113 3794 959 3422 
Q 806 3050 800 2363 
Q 1003 2672 1297 2822 
Q 1591 2972 1913 2972 
Q 2475 2972 2870 2558 
Q 3266 2144 3266 1488 
Q 3266 1056 3080 686 
Q 2894 316 2569 119 
Q 2244 -78 1831 -78 
Q 1128 -78 684 439 
Q 241 956 241 2144 
Q 241 3472 731 4075 
Q 1159 4600 1884 4600 
Q 2425 4600 2770 4297 
Q 3116 3994 3184 3459 
z
M 888 1484 
Q 888 1194 1011 928 
Q 1134 663 1356 523 
Q 1578 384 1822 384 
Q 2178 384 2434 671 
Q 2691 959 2691 1453 
Q 2691 1928 2437 2201 
Q 2184 2475 1800 2475 
Q 1419 2475 1153 2201 
Q 888 1928 888 1484 
z
" transform="scale(0.015625)"/>
       </defs>
       <use xlink:href="#ArialMT-36"/>
       <use xlink:href="#ArialMT-30" x="55.615234"/>
       <use xlink:href="#ArialMT-30" x="111.230469"/>
      </g>
     </g>
    </g>
    <g id="xtick_5">
     <g id="line2d_5">
      <g>
       <use xlink:href="#mcd50a44b93" x="245.319821" y="277.248797" style="fill: #262626; stroke: #262626; stroke-width: 1.25"/>
      </g>
     </g>
     <g id="text_5">
      <!-- 700 -->
      <g style="fill: #262626" transform="translate(236.144275 288.622391) scale(0.11 -0.11)">
       <defs>
        <path id="ArialMT-37" d="M 303 3981 
L 303 4522 
L 3269 4522 
L 3269 4084 
Q 2831 3619 2401 2847 
Q 1972 2075 1738 1259 
Q 1569 684 1522 0 
L 944 0 
Q 953 541 1156 1306 
Q 1359 2072 1739 2783 
Q 2119 3494 2547 3981 
L 303 3981 
z
" transform="scale(0.015625)"/>
       </defs>
       <use xlink:href="#ArialMT-37"/>
       <use xlink:href="#ArialMT-30" x="55.615234"/>
       <use xlink:href="#ArialMT-30" x="111.230469"/>
      </g>
     </g>
    </g>
    <g id="xtick_6">
     <g id="line2d_6">
      <g>
       <use xlink:href="#mcd50a44b93" x="296.336964" y="277.248797" style="fill: #262626; stroke: #262626; stroke-width: 1.25"/>
      </g>
     </g>
     <g id="text_6">
      <!-- 800 -->
      <g style="fill: #262626" transform="translate(287.161417 288.622391) scale(0.11 -0.11)">
       <defs>
        <path id="ArialMT-38" d="M 1131 2484 
Q 781 2613 612 2850 
Q 444 3088 444 3419 
Q 444 3919 803 4259 
Q 1163 4600 1759 4600 
Q 2359 4600 2725 4251 
Q 3091 3903 3091 3403 
Q 3091 3084 2923 2848 
Q 2756 2613 2416 2484 
Q 2838 2347 3058 2040 
Q 3278 1734 3278 1309 
Q 3278 722 2862 322 
Q 2447 -78 1769 -78 
Q 1091 -78 675 323 
Q 259 725 259 1325 
Q 259 1772 486 2073 
Q 713 2375 1131 2484 
z
M 1019 3438 
Q 1019 3113 1228 2906 
Q 1438 2700 1772 2700 
Q 2097 2700 2305 2904 
Q 2513 3109 2513 3406 
Q 2513 3716 2298 3927 
Q 2084 4138 1766 4138 
Q 1444 4138 1231 3931 
Q 1019 3725 1019 3438 
z
M 838 1322 
Q 838 1081 952 856 
Q 1066 631 1291 507 
Q 1516 384 1775 384 
Q 2178 384 2440 643 
Q 2703 903 2703 1303 
Q 2703 1709 2433 1975 
Q 2163 2241 1756 2241 
Q 1359 2241 1098 1978 
Q 838 1716 838 1322 
z
" transform="scale(0.015625)"/>
       </defs>
       <use xlink:href="#ArialMT-38"/>
       <use xlink:href="#ArialMT-30" x="55.615234"/>
       <use xlink:href="#ArialMT-30" x="111.230469"/>
      </g>
     </g>
    </g>
    <g id="xtick_7">
     <g id="line2d_7">
      <g>
       <use xlink:href="#mcd50a44b93" x="347.354107" y="277.248797" style="fill: #262626; stroke: #262626; stroke-width: 1.25"/>
      </g>
     </g>
     <g id="text_7">
      <!-- 900 -->
      <g style="fill: #262626" transform="translate(338.17856 288.622391) scale(0.11 -0.11)">
       <defs>
        <path id="ArialMT-39" d="M 350 1059 
L 891 1109 
Q 959 728 1153 556 
Q 1347 384 1650 384 
Q 1909 384 2104 503 
Q 2300 622 2425 820 
Q 2550 1019 2634 1356 
Q 2719 1694 2719 2044 
Q 2719 2081 2716 2156 
Q 2547 1888 2255 1720 
Q 1963 1553 1622 1553 
Q 1053 1553 659 1965 
Q 266 2378 266 3053 
Q 266 3750 677 4175 
Q 1088 4600 1706 4600 
Q 2153 4600 2523 4359 
Q 2894 4119 3086 3673 
Q 3278 3228 3278 2384 
Q 3278 1506 3087 986 
Q 2897 466 2520 194 
Q 2144 -78 1638 -78 
Q 1100 -78 759 220 
Q 419 519 350 1059 
z
M 2653 3081 
Q 2653 3566 2395 3850 
Q 2138 4134 1775 4134 
Q 1400 4134 1122 3828 
Q 844 3522 844 3034 
Q 844 2597 1108 2323 
Q 1372 2050 1759 2050 
Q 2150 2050 2401 2323 
Q 2653 2597 2653 3081 
z
" transform="scale(0.015625)"/>
       </defs>
       <use xlink:href="#ArialMT-39"/>
       <use xlink:href="#ArialMT-30" x="55.615234"/>
       <use xlink:href="#ArialMT-30" x="111.230469"/>
      </g>
     </g>
    </g>
    <g id="xtick_8">
     <g id="line2d_8">
      <g>
       <use xlink:href="#mcd50a44b93" x="398.37125" y="277.248797" style="fill: #262626; stroke: #262626; stroke-width: 1.25"/>
      </g>
     </g>
     <g id="text_8">
      <!-- 1000 -->
      <g style="fill: #262626" transform="translate(386.137188 288.622391) scale(0.11 -0.11)">
       <defs>
        <path id="ArialMT-31" d="M 2384 0 
L 1822 0 
L 1822 3584 
Q 1619 3391 1289 3197 
Q 959 3003 697 2906 
L 697 3450 
Q 1169 3672 1522 3987 
Q 1875 4303 2022 4600 
L 2384 4600 
L 2384 0 
z
" transform="scale(0.015625)"/>
       </defs>
       <use xlink:href="#ArialMT-31"/>
       <use xlink:href="#ArialMT-30" x="55.615234"/>
       <use xlink:href="#ArialMT-30" x="111.230469"/>
       <use xlink:href="#ArialMT-30" x="166.845703"/>
      </g>
     </g>
    </g>
    <g id="xtick_9">
     <g id="line2d_9">
      <defs>
       <path id="mbdee5208ae" d="M 0 0 
L 0 -4 
" style="stroke: #262626"/>
      </defs>
      <g>
       <use xlink:href="#mbdee5208ae" x="66.759821" y="277.248797" style="fill: #262626; stroke: #262626"/>
      </g>
     </g>
    </g>
    <g id="xtick_10">
     <g id="line2d_10">
      <g>
       <use xlink:href="#mbdee5208ae" x="117.776964" y="277.248797" style="fill: #262626; stroke: #262626"/>
      </g>
     </g>
    </g>
    <g id="xtick_11">
     <g id="line2d_11">
      <g>
       <use xlink:href="#mbdee5208ae" x="168.794107" y="277.248797" style="fill: #262626; stroke: #262626"/>
      </g>
     </g>
    </g>
    <g id="xtick_12">
     <g id="line2d_12">
      <g>
       <use xlink:href="#mbdee5208ae" x="219.81125" y="277.248797" style="fill: #262626; stroke: #262626"/>
      </g>
     </g>
    </g>
    <g id="xtick_13">
     <g id="line2d_13">
      <g>
       <use xlink:href="#mbdee5208ae" x="270.828393" y="277.248797" style="fill: #262626; stroke: #262626"/>
      </g>
     </g>
    </g>
    <g id="xtick_14">
     <g id="line2d_14">
      <g>
       <use xlink:href="#mbdee5208ae" x="321.845536" y="277.248797" style="fill: #262626; stroke: #262626"/>
      </g>
     </g>
    </g>
    <g id="xtick_15">
     <g id="line2d_15">
      <g>
       <use xlink:href="#mbdee5208ae" x="372.862679" y="277.248797" style="fill: #262626; stroke: #262626"/>
      </g>
     </g>
    </g>
    <g id="text_9">
     <!-- Wavelength (nm) -->
     <g style="fill: #262626" transform="translate(174.356562 303.544266) scale(0.12 -0.12)">
      <defs>
       <path id="ArialMT-57" d="M 1294 0 
L 78 4581 
L 700 4581 
L 1397 1578 
Q 1509 1106 1591 641 
Q 1766 1375 1797 1488 
L 2669 4581 
L 3400 4581 
L 4056 2263 
Q 4303 1400 4413 641 
Q 4500 1075 4641 1638 
L 5359 4581 
L 5969 4581 
L 4713 0 
L 4128 0 
L 3163 3491 
Q 3041 3928 3019 4028 
Q 2947 3713 2884 3491 
L 1913 0 
L 1294 0 
z
" transform="scale(0.015625)"/>
       <path id="ArialMT-61" d="M 2588 409 
Q 2275 144 1986 34 
Q 1697 -75 1366 -75 
Q 819 -75 525 192 
Q 231 459 231 875 
Q 231 1119 342 1320 
Q 453 1522 633 1644 
Q 813 1766 1038 1828 
Q 1203 1872 1538 1913 
Q 2219 1994 2541 2106 
Q 2544 2222 2544 2253 
Q 2544 2597 2384 2738 
Q 2169 2928 1744 2928 
Q 1347 2928 1158 2789 
Q 969 2650 878 2297 
L 328 2372 
Q 403 2725 575 2942 
Q 747 3159 1072 3276 
Q 1397 3394 1825 3394 
Q 2250 3394 2515 3294 
Q 2781 3194 2906 3042 
Q 3031 2891 3081 2659 
Q 3109 2516 3109 2141 
L 3109 1391 
Q 3109 606 3145 398 
Q 3181 191 3288 0 
L 2700 0 
Q 2613 175 2588 409 
z
M 2541 1666 
Q 2234 1541 1622 1453 
Q 1275 1403 1131 1340 
Q 988 1278 909 1158 
Q 831 1038 831 891 
Q 831 666 1001 516 
Q 1172 366 1500 366 
Q 1825 366 2078 508 
Q 2331 650 2450 897 
Q 2541 1088 2541 1459 
L 2541 1666 
z
" transform="scale(0.015625)"/>
       <path id="ArialMT-76" d="M 1344 0 
L 81 3319 
L 675 3319 
L 1388 1331 
Q 1503 1009 1600 663 
Q 1675 925 1809 1294 
L 2547 3319 
L 3125 3319 
L 1869 0 
L 1344 0 
z
" transform="scale(0.015625)"/>
       <path id="ArialMT-65" d="M 2694 1069 
L 3275 997 
Q 3138 488 2766 206 
Q 2394 -75 1816 -75 
Q 1088 -75 661 373 
Q 234 822 234 1631 
Q 234 2469 665 2931 
Q 1097 3394 1784 3394 
Q 2450 3394 2872 2941 
Q 3294 2488 3294 1666 
Q 3294 1616 3291 1516 
L 816 1516 
Q 847 969 1125 678 
Q 1403 388 1819 388 
Q 2128 388 2347 550 
Q 2566 713 2694 1069 
z
M 847 1978 
L 2700 1978 
Q 2663 2397 2488 2606 
Q 2219 2931 1791 2931 
Q 1403 2931 1139 2672 
Q 875 2413 847 1978 
z
" transform="scale(0.015625)"/>
       <path id="ArialMT-6c" d="M 409 0 
L 409 4581 
L 972 4581 
L 972 0 
L 409 0 
z
" transform="scale(0.015625)"/>
       <path id="ArialMT-6e" d="M 422 0 
L 422 3319 
L 928 3319 
L 928 2847 
Q 1294 3394 1984 3394 
Q 2284 3394 2536 3286 
Q 2788 3178 2913 3003 
Q 3038 2828 3088 2588 
Q 3119 2431 3119 2041 
L 3119 0 
L 2556 0 
L 2556 2019 
Q 2556 2363 2490 2533 
Q 2425 2703 2258 2804 
Q 2091 2906 1866 2906 
Q 1506 2906 1245 2678 
Q 984 2450 984 1813 
L 984 0 
L 422 0 
z
" transform="scale(0.015625)"/>
       <path id="ArialMT-67" d="M 319 -275 
L 866 -356 
Q 900 -609 1056 -725 
Q 1266 -881 1628 -881 
Q 2019 -881 2231 -725 
Q 2444 -569 2519 -288 
Q 2563 -116 2559 434 
Q 2191 0 1641 0 
Q 956 0 581 494 
Q 206 988 206 1678 
Q 206 2153 378 2554 
Q 550 2956 876 3175 
Q 1203 3394 1644 3394 
Q 2231 3394 2613 2919 
L 2613 3319 
L 3131 3319 
L 3131 450 
Q 3131 -325 2973 -648 
Q 2816 -972 2473 -1159 
Q 2131 -1347 1631 -1347 
Q 1038 -1347 672 -1080 
Q 306 -813 319 -275 
z
M 784 1719 
Q 784 1066 1043 766 
Q 1303 466 1694 466 
Q 2081 466 2343 764 
Q 2606 1063 2606 1700 
Q 2606 2309 2336 2618 
Q 2066 2928 1684 2928 
Q 1309 2928 1046 2623 
Q 784 2319 784 1719 
z
" transform="scale(0.015625)"/>
       <path id="ArialMT-74" d="M 1650 503 
L 1731 6 
Q 1494 -44 1306 -44 
Q 1000 -44 831 53 
Q 663 150 594 308 
Q 525 466 525 972 
L 525 2881 
L 113 2881 
L 113 3319 
L 525 3319 
L 525 4141 
L 1084 4478 
L 1084 3319 
L 1650 3319 
L 1650 2881 
L 1084 2881 
L 1084 941 
Q 1084 700 1114 631 
Q 1144 563 1211 522 
Q 1278 481 1403 481 
Q 1497 481 1650 503 
z
" transform="scale(0.015625)"/>
       <path id="ArialMT-68" d="M 422 0 
L 422 4581 
L 984 4581 
L 984 2938 
Q 1378 3394 1978 3394 
Q 2347 3394 2619 3248 
Q 2891 3103 3008 2847 
Q 3125 2591 3125 2103 
L 3125 0 
L 2563 0 
L 2563 2103 
Q 2563 2525 2380 2717 
Q 2197 2909 1863 2909 
Q 1613 2909 1392 2779 
Q 1172 2650 1078 2428 
Q 984 2206 984 1816 
L 984 0 
L 422 0 
z
" transform="scale(0.015625)"/>
       <path id="ArialMT-20" transform="scale(0.015625)"/>
       <path id="ArialMT-28" d="M 1497 -1347 
Q 1031 -759 709 28 
Q 388 816 388 1659 
Q 388 2403 628 3084 
Q 909 3875 1497 4659 
L 1900 4659 
Q 1522 4009 1400 3731 
Q 1209 3300 1100 2831 
Q 966 2247 966 1656 
Q 966 153 1900 -1347 
L 1497 -1347 
z
" transform="scale(0.015625)"/>
       <path id="ArialMT-6d" d="M 422 0 
L 422 3319 
L 925 3319 
L 925 2853 
Q 1081 3097 1340 3245 
Q 1600 3394 1931 3394 
Q 2300 3394 2536 3241 
Q 2772 3088 2869 2813 
Q 3263 3394 3894 3394 
Q 4388 3394 4653 3120 
Q 4919 2847 4919 2278 
L 4919 0 
L 4359 0 
L 4359 2091 
Q 4359 2428 4304 2576 
Q 4250 2725 4106 2815 
Q 3963 2906 3769 2906 
Q 3419 2906 3187 2673 
Q 2956 2441 2956 1928 
L 2956 0 
L 2394 0 
L 2394 2156 
Q 2394 2531 2256 2718 
Q 2119 2906 1806 2906 
Q 1569 2906 1367 2781 
Q 1166 2656 1075 2415 
Q 984 2175 984 1722 
L 984 0 
L 422 0 
z
" transform="scale(0.015625)"/>
       <path id="ArialMT-29" d="M 791 -1347 
L 388 -1347 
Q 1322 153 1322 1656 
Q 1322 2244 1188 2822 
Q 1081 3291 891 3722 
Q 769 4003 388 4659 
L 791 4659 
Q 1378 3875 1659 3084 
Q 1900 2403 1900 1659 
Q 1900 816 1576 28 
Q 1253 -759 791 -1347 
z
" transform="scale(0.015625)"/>
      </defs>
      <use xlink:href="#ArialMT-57"/>
      <use xlink:href="#ArialMT-61" x="90.634766"/>
      <use xlink:href="#ArialMT-76" x="146.25"/>
      <use xlink:href="#ArialMT-65" x="196.25"/>
      <use xlink:href="#ArialMT-6c" x="251.865234"/>
      <use xlink:href="#ArialMT-65" x="274.082031"/>
      <use xlink:href="#ArialMT-6e" x="329.697266"/>
      <use xlink:href="#ArialMT-67" x="385.3125"/>
      <use xlink:href="#ArialMT-74" x="440.927734"/>
      <use xlink:href="#ArialMT-68" x="468.710938"/>
      <use xlink:href="#ArialMT-20" x="524.326172"/>
      <use xlink:href="#ArialMT-28" x="552.109375"/>
      <use xlink:href="#ArialMT-6e" x="585.410156"/>
      <use xlink:href="#ArialMT-6d" x="641.025391"/>
      <use xlink:href="#ArialMT-29" x="724.326172"/>
     </g>
    </g>
   </g>
   <g id="matplotlib.axis_2">
    <g id="ytick_1">
     <g id="line2d_16">
      <defs>
       <path id="m146af28f31" d="M 0 0 
L 6 0 
" style="stroke: #262626; stroke-width: 1.25"/>
      </defs>
      <g>
       <use xlink:href="#m146af28f31" x="41.25125" y="277.248797" style="fill: #262626; stroke: #262626; stroke-width: 1.25"/>
      </g>
     </g>
     <g id="text_10">
      <!-- 0.0 -->
      <g style="fill: #262626" transform="translate(22.46125 281.185594) scale(0.11 -0.11)">
       <defs>
        <path id="ArialMT-2e" d="M 581 0 
L 581 641 
L 1222 641 
L 1222 0 
L 581 0 
z
" transform="scale(0.015625)"/>
       </defs>
       <use xlink:href="#ArialMT-30"/>
       <use xlink:href="#ArialMT-2e" x="55.615234"/>
       <use xlink:href="#ArialMT-30" x="83.398438"/>
      </g>
     </g>
    </g>
    <g id="ytick_2">
     <g id="line2d_17">
      <g>
       <use xlink:href="#m146af28f31" x="41.25125" y="224.026397" style="fill: #262626; stroke: #262626; stroke-width: 1.25"/>
      </g>
     </g>
     <g id="text_11">
      <!-- 0.2 -->
      <g style="fill: #262626" transform="translate(22.46125 227.963194) scale(0.11 -0.11)">
       <defs>
        <path id="ArialMT-32" d="M 3222 541 
L 3222 0 
L 194 0 
Q 188 203 259 391 
Q 375 700 629 1000 
Q 884 1300 1366 1694 
Q 2113 2306 2375 2664 
Q 2638 3022 2638 3341 
Q 2638 3675 2398 3904 
Q 2159 4134 1775 4134 
Q 1369 4134 1125 3890 
Q 881 3647 878 3216 
L 300 3275 
Q 359 3922 746 4261 
Q 1134 4600 1788 4600 
Q 2447 4600 2831 4234 
Q 3216 3869 3216 3328 
Q 3216 3053 3103 2787 
Q 2991 2522 2730 2228 
Q 2469 1934 1863 1422 
Q 1356 997 1212 845 
Q 1069 694 975 541 
L 3222 541 
z
" transform="scale(0.015625)"/>
       </defs>
       <use xlink:href="#ArialMT-30"/>
       <use xlink:href="#ArialMT-2e" x="55.615234"/>
       <use xlink:href="#ArialMT-32" x="83.398438"/>
      </g>
     </g>
    </g>
    <g id="ytick_3">
     <g id="line2d_18">
      <g>
       <use xlink:href="#m146af28f31" x="41.25125" y="170.803997" style="fill: #262626; stroke: #262626; stroke-width: 1.25"/>
      </g>
     </g>
     <g id="text_12">
      <!-- 0.4 -->
      <g style="fill: #262626" transform="translate(22.46125 174.740794) scale(0.11 -0.11)">
       <use xlink:href="#ArialMT-30"/>
       <use xlink:href="#ArialMT-2e" x="55.615234"/>
       <use xlink:href="#ArialMT-34" x="83.398438"/>
      </g>
     </g>
    </g>
    <g id="ytick_4">
     <g id="line2d_19">
      <g>
       <use xlink:href="#m146af28f31" x="41.25125" y="117.581597" style="fill: #262626; stroke: #262626; stroke-width: 1.25"/>
      </g>
     </g>
     <g id="text_13">
      <!-- 0.6 -->
      <g style="fill: #262626" transform="translate(22.46125 121.518394) scale(0.11 -0.11)">
       <use xlink:href="#ArialMT-30"/>
       <use xlink:href="#ArialMT-2e" x="55.615234"/>
       <use xlink:href="#ArialMT-36" x="83.398438"/>
      </g>
     </g>
    </g>
    <g id="ytick_5">
     <g id="line2d_20">
      <g>
       <use xlink:href="#m146af28f31" x="41.25125" y="64.359197" style="fill: #262626; stroke: #262626; stroke-width: 1.25"/>
      </g>
     </g>
     <g id="text_14">
      <!-- 0.8 -->
      <g style="fill: #262626" transform="translate(22.46125 68.295994) scale(0.11 -0.11)">
       <use xlink:href="#ArialMT-30"/>
       <use xlink:href="#ArialMT-2e" x="55.615234"/>
       <use xlink:href="#ArialMT-38" x="83.398438"/>
      </g>
     </g>
    </g>
    <g id="ytick_6">
     <g id="line2d_21">
      <g>
       <use xlink:href="#m146af28f31" x="41.25125" y="11.136797" style="fill: #262626; stroke: #262626; stroke-width: 1.25"/>
      </g>
     </g>
     <g id="text_15">
      <!-- 1.0 -->
      <g style="fill: #262626" transform="translate(22.46125 15.073594) scale(0.11 -0.11)">
       <use xlink:href="#ArialMT-31"/>
       <use xlink:href="#ArialMT-2e" x="55.615234"/>
       <use xlink:href="#ArialMT-30" x="83.398438"/>
      </g>
     </g>
    </g>
    <g id="ytick_7">
     <g id="line2d_22">
      <defs>
       <path id="mef3ee37e8e" d="M 0 0 
L 4 0 
" style="stroke: #262626"/>
      </defs>
      <g>
       <use xlink:href="#mef3ee37e8e" x="41.25125" y="250.637597" style="fill: #262626; stroke: #262626"/>
      </g>
     </g>
    </g>
    <g id="ytick_8">
     <g id="line2d_23">
      <g>
       <use xlink:href="#mef3ee37e8e" x="41.25125" y="197.415197" style="fill: #262626; stroke: #262626"/>
      </g>
     </g>
    </g>
    <g id="ytick_9">
     <g id="line2d_24">
      <g>
       <use xlink:href="#mef3ee37e8e" x="41.25125" y="144.192797" style="fill: #262626; stroke: #262626"/>
      </g>
     </g>
    </g>
    <g id="ytick_10">
     <g id="line2d_25">
      <g>
       <use xlink:href="#mef3ee37e8e" x="41.25125" y="90.970397" style="fill: #262626; stroke: #262626"/>
      </g>
     </g>
    </g>
    <g id="ytick_11">
     <g id="line2d_26">
      <g>
       <use xlink:href="#mef3ee37e8e" x="41.25125" y="37.747997" style="fill: #262626; stroke: #262626"/>
      </g>
     </g>
    </g>
    <g id="text_16">
     <!-- Absorbance (a.u.) -->
     <g style="fill: #262626" transform="translate(15.935625 191.881547) rotate(-90) scale(0.12 -0.12)">
      <defs>
       <path id="ArialMT-41" d="M -9 0 
L 1750 4581 
L 2403 4581 
L 4278 0 
L 3588 0 
L 3053 1388 
L 1138 1388 
L 634 0 
L -9 0 
z
M 1313 1881 
L 2866 1881 
L 2388 3150 
Q 2169 3728 2063 4100 
Q 1975 3659 1816 3225 
L 1313 1881 
z
" transform="scale(0.015625)"/>
       <path id="ArialMT-62" d="M 941 0 
L 419 0 
L 419 4581 
L 981 4581 
L 981 2947 
Q 1338 3394 1891 3394 
Q 2197 3394 2470 3270 
Q 2744 3147 2920 2923 
Q 3097 2700 3197 2384 
Q 3297 2069 3297 1709 
Q 3297 856 2875 390 
Q 2453 -75 1863 -75 
Q 1275 -75 941 416 
L 941 0 
z
M 934 1684 
Q 934 1088 1097 822 
Q 1363 388 1816 388 
Q 2184 388 2453 708 
Q 2722 1028 2722 1663 
Q 2722 2313 2464 2622 
Q 2206 2931 1841 2931 
Q 1472 2931 1203 2611 
Q 934 2291 934 1684 
z
" transform="scale(0.015625)"/>
       <path id="ArialMT-73" d="M 197 991 
L 753 1078 
Q 800 744 1014 566 
Q 1228 388 1613 388 
Q 2000 388 2187 545 
Q 2375 703 2375 916 
Q 2375 1106 2209 1216 
Q 2094 1291 1634 1406 
Q 1016 1563 777 1677 
Q 538 1791 414 1992 
Q 291 2194 291 2438 
Q 291 2659 392 2848 
Q 494 3038 669 3163 
Q 800 3259 1026 3326 
Q 1253 3394 1513 3394 
Q 1903 3394 2198 3281 
Q 2494 3169 2634 2976 
Q 2775 2784 2828 2463 
L 2278 2388 
Q 2241 2644 2061 2787 
Q 1881 2931 1553 2931 
Q 1166 2931 1000 2803 
Q 834 2675 834 2503 
Q 834 2394 903 2306 
Q 972 2216 1119 2156 
Q 1203 2125 1616 2013 
Q 2213 1853 2448 1751 
Q 2684 1650 2818 1456 
Q 2953 1263 2953 975 
Q 2953 694 2789 445 
Q 2625 197 2315 61 
Q 2006 -75 1616 -75 
Q 969 -75 630 194 
Q 291 463 197 991 
z
" transform="scale(0.015625)"/>
       <path id="ArialMT-6f" d="M 213 1659 
Q 213 2581 725 3025 
Q 1153 3394 1769 3394 
Q 2453 3394 2887 2945 
Q 3322 2497 3322 1706 
Q 3322 1066 3130 698 
Q 2938 331 2570 128 
Q 2203 -75 1769 -75 
Q 1072 -75 642 372 
Q 213 819 213 1659 
z
M 791 1659 
Q 791 1022 1069 705 
Q 1347 388 1769 388 
Q 2188 388 2466 706 
Q 2744 1025 2744 1678 
Q 2744 2294 2464 2611 
Q 2184 2928 1769 2928 
Q 1347 2928 1069 2612 
Q 791 2297 791 1659 
z
" transform="scale(0.015625)"/>
       <path id="ArialMT-72" d="M 416 0 
L 416 3319 
L 922 3319 
L 922 2816 
Q 1116 3169 1280 3281 
Q 1444 3394 1641 3394 
Q 1925 3394 2219 3213 
L 2025 2691 
Q 1819 2813 1613 2813 
Q 1428 2813 1281 2702 
Q 1134 2591 1072 2394 
Q 978 2094 978 1738 
L 978 0 
L 416 0 
z
" transform="scale(0.015625)"/>
       <path id="ArialMT-63" d="M 2588 1216 
L 3141 1144 
Q 3050 572 2676 248 
Q 2303 -75 1759 -75 
Q 1078 -75 664 370 
Q 250 816 250 1647 
Q 250 2184 428 2587 
Q 606 2991 970 3192 
Q 1334 3394 1763 3394 
Q 2303 3394 2647 3120 
Q 2991 2847 3088 2344 
L 2541 2259 
Q 2463 2594 2264 2762 
Q 2066 2931 1784 2931 
Q 1359 2931 1093 2626 
Q 828 2322 828 1663 
Q 828 994 1084 691 
Q 1341 388 1753 388 
Q 2084 388 2306 591 
Q 2528 794 2588 1216 
z
" transform="scale(0.015625)"/>
       <path id="ArialMT-75" d="M 2597 0 
L 2597 488 
Q 2209 -75 1544 -75 
Q 1250 -75 995 37 
Q 741 150 617 320 
Q 494 491 444 738 
Q 409 903 409 1263 
L 409 3319 
L 972 3319 
L 972 1478 
Q 972 1038 1006 884 
Q 1059 663 1231 536 
Q 1403 409 1656 409 
Q 1909 409 2131 539 
Q 2353 669 2445 892 
Q 2538 1116 2538 1541 
L 2538 3319 
L 3100 3319 
L 3100 0 
L 2597 0 
z
" transform="scale(0.015625)"/>
      </defs>
      <use xlink:href="#ArialMT-41"/>
      <use xlink:href="#ArialMT-62" x="66.699219"/>
      <use xlink:href="#ArialMT-73" x="122.314453"/>
      <use xlink:href="#ArialMT-6f" x="172.314453"/>
      <use xlink:href="#ArialMT-72" x="227.929688"/>
      <use xlink:href="#ArialMT-62" x="261.230469"/>
      <use xlink:href="#ArialMT-61" x="316.845703"/>
      <use xlink:href="#ArialMT-6e" x="372.460938"/>
      <use xlink:href="#ArialMT-63" x="428.076172"/>
      <use xlink:href="#ArialMT-65" x="478.076172"/>
      <use xlink:href="#ArialMT-20" x="533.691406"/>
      <use xlink:href="#ArialMT-28" x="561.474609"/>
      <use xlink:href="#ArialMT-61" x="594.775391"/>
      <use xlink:href="#ArialMT-2e" x="650.390625"/>
      <use xlink:href="#ArialMT-75" x="678.173828"/>
      <use xlink:href="#ArialMT-2e" x="733.789062"/>
      <use xlink:href="#ArialMT-29" x="761.572266"/>
     </g>
    </g>
   </g>
   <g id="PolyCollection_1"/>
   <g id="PolyCollection_2"/>
   <g id="PolyCollection_3"/>
   <g id="PolyCollection_4"/>
   <g id="PolyCollection_5"/>
   <g id="line2d_27">
    <path d="M 41.591359 220.947233 
L 42.951827 217.798651 
L 44.312279 214.037344 
L 46.352964 207.186805 
L 48.733759 197.723066 
L 50.434336 189.907877 
L 53.155255 176.062697 
L 57.576736 152.79482 
L 60.637764 137.518114 
L 62.338341 130.326109 
L 63.358684 126.67601 
L 64.719136 122.820204 
L 65.739479 120.585761 
L 66.759821 118.824641 
L 67.440055 117.892 
L 68.460398 116.816019 
L 69.480741 116.167743 
L 70.160959 116.010524 
L 70.841193 116.032079 
L 71.861536 116.621208 
L 72.881879 117.76541 
L 73.902221 119.503038 
L 74.582455 120.937442 
L 75.602798 123.441118 
L 77.983593 130.345856 
L 80.024279 136.279632 
L 81.384731 139.657087 
L 82.745198 142.365281 
L 83.765541 143.88272 
L 84.785884 144.89631 
L 85.466118 145.302809 
L 86.48646 145.575262 
L 87.166679 145.495891 
L 88.187021 145.029492 
L 89.207364 144.179235 
L 90.227707 142.976203 
L 91.24805 141.452055 
L 92.268393 139.667064 
L 93.968969 136.084963 
L 96.009655 130.908337 
L 97.710232 125.947427 
L 99.750918 119.356208 
L 102.131712 110.805585 
L 105.872975 96.187632 
L 109.614221 80.657008 
L 117.436855 48.22515 
L 119.477541 40.818554 
L 120.837993 36.360422 
L 122.538569 31.454758 
L 123.899021 28.173884 
L 125.259489 25.373391 
L 126.619941 23.165279 
L 127.980393 21.504626 
L 129.000736 20.628151 
L 130.021079 20.050934 
L 131.041421 19.849002 
L 131.721655 19.93919 
L 132.401889 20.174829 
L 133.082107 20.606944 
L 134.10245 21.648474 
L 134.782684 22.606176 
L 136.143136 25.237966 
L 137.163479 27.881588 
L 138.183821 31.072432 
L 139.544289 36.166151 
L 140.904741 42.203216 
L 142.605318 51.009718 
L 144.305879 60.793209 
L 147.366907 80.034745 
L 152.128497 111.973722 
L 155.189525 134.10578 
L 158.250554 158.153734 
L 165.05286 213.312857 
L 167.093546 227.593634 
L 168.794107 237.930716 
L 170.154575 244.966279 
L 171.515011 250.96793 
L 172.875479 255.951369 
L 174.235946 260.061321 
L 175.256289 262.64475 
L 176.616756 265.452923 
L 178.317318 268.208148 
L 180.017879 270.257127 
L 181.718471 271.778686 
L 183.078907 272.70378 
L 185.459718 273.861175 
L 188.520746 274.78942 
L 191.24165 275.298475 
L 196.683489 275.848346 
L 201.104985 276.071113 
L 204.846232 276.157276 
L 218.790907 276.427961 
L 222.872279 276.466154 
L 228.654242 276.509651 
L 231.035021 276.50511 
L 312.66245 276.705453 
L 313.002575 276.656684 
L 313.682793 276.681504 
L 318.104289 276.755094 
L 318.784507 276.617391 
L 319.124632 276.762026 
L 319.80485 276.650737 
L 320.485099 276.730276 
L 320.825193 276.632621 
L 321.505442 276.721281 
L 322.865879 276.709987 
L 323.206003 276.84592 
L 323.546128 276.705827 
L 323.886221 276.854146 
L 324.566471 276.809153 
L 324.906564 276.901305 
L 325.246689 276.697944 
L 325.586814 276.808067 
L 326.607156 276.775549 
L 326.94725 276.87524 
L 328.647842 276.832875 
L 329.32806 276.844814 
L 329.668185 276.686038 
L 330.008279 276.828444 
L 330.348403 276.759515 
L 330.688528 276.820624 
L 331.368746 276.61994 
L 331.708871 276.748847 
L 332.048964 276.756734 
L 332.389089 276.878149 
L 332.729214 276.729979 
L 334.08965 276.724595 
L 334.769899 276.92992 
L 335.109993 276.88477 
L 335.450118 276.989047 
L 335.790242 276.840957 
L 336.130336 276.893849 
L 336.47046 276.700477 
L 336.810585 276.921561 
L 337.490803 276.580905 
L 337.830928 276.738033 
L 338.171021 276.682238 
L 338.511146 276.45851 
L 339.191364 276.888854 
L 339.871614 276.847807 
L 340.211707 276.832267 
L 340.551832 276.61539 
L 340.891956 276.685775 
L 341.23205 276.352455 
L 341.912299 276.677185 
L 342.252393 276.483928 
L 342.592518 276.694974 
L 343.61286 276.360125 
L 344.293079 276.862171 
L 344.633203 276.678943 
L 344.973328 276.92925 
L 345.313421 276.017724 
L 345.653546 276.93403 
L 345.993671 276.406702 
L 346.673889 277.096025 
L 347.013982 277.239318 
L 353.13604 277.238753 
L 359.598221 277.240744 
L 398.711344 277.222934 
L 398.711344 277.222934 
" clip-path="url(#p2ddcffe552)" style="fill: none; stroke: #f6ab83; stroke-linecap: round"/>
   </g>
   <g id="line2d_28">
    <path d="M 41.591359 198.701879 
L 44.652388 188.102028 
L 45.332621 184.665552 
L 46.352964 178.210726 
L 47.713416 167.416928 
L 49.754102 150.834416 
L 52.815131 127.932638 
L 53.835473 117.960427 
L 55.53605 97.87582 
L 56.896502 81.993958 
L 57.916845 72.563322 
L 58.937188 65.806541 
L 59.617421 62.457827 
L 60.637764 58.611585 
L 60.977873 57.475044 
L 61.317998 56.727539 
L 62.338341 53.114159 
L 63.358684 48.578021 
L 64.379027 43.226966 
L 65.739479 35.890953 
L 66.419712 33.067017 
L 67.099931 31.537555 
L 67.440055 31.303281 
L 67.780164 31.499218 
L 68.120273 32.109268 
L 68.800507 34.462434 
L 69.480741 38.183386 
L 70.501084 45.560606 
L 72.541769 63.063832 
L 75.602798 89.614574 
L 77.303359 103.076556 
L 79.003936 115.075186 
L 80.364388 123.378164 
L 81.724855 130.346935 
L 82.745198 134.81628 
L 83.765541 138.63559 
L 85.125993 142.903304 
L 90.567832 158.138991 
L 92.608518 165.520494 
L 94.649203 173.635672 
L 97.370107 184.062093 
L 99.070684 189.65349 
L 100.77126 194.385225 
L 102.131712 197.473921 
L 103.152055 199.434531 
L 104.852632 202.058437 
L 106.553193 203.986134 
L 107.91366 205.142827 
L 109.954346 206.328411 
L 111.654907 206.958653 
L 114.035718 207.351733 
L 116.416512 207.334055 
L 119.81765 206.836115 
L 123.218803 205.951922 
L 135.462918 202.06747 
L 138.864055 201.468135 
L 140.564632 201.290565 
L 144.305879 201.206547 
L 147.707032 201.483989 
L 151.108154 202.23488 
L 154.509307 203.349485 
L 157.230211 204.519779 
L 163.692393 208.257774 
L 170.834793 213.487163 
L 173.895821 215.95134 
L 178.317318 219.865105 
L 178.657442 220.008889 
L 190.901556 232.392043 
L 197.023614 238.555636 
L 207.227042 247.83023 
L 210.288071 250.440246 
L 213.008975 252.610356 
L 218.790907 256.922153 
L 223.212403 259.858198 
L 225.933307 261.498614 
L 228.994336 263.13845 
L 232.055364 264.610856 
L 238.177421 266.929334 
L 241.918699 268.008392 
L 244.299479 268.609046 
L 246.340164 269.042064 
L 249.741318 269.703067 
L 256.543593 270.796853 
L 257.223842 270.862253 
L 260.624964 271.331837 
L 268.447614 272.291021 
L 270.828393 272.553665 
L 272.528985 272.76299 
L 274.909764 273.020978 
L 275.930107 273.139606 
L 289.194564 274.456046 
L 290.555032 274.536328 
L 291.915499 274.649474 
L 292.935842 274.703892 
L 293.956185 274.810838 
L 301.438679 275.292603 
L 302.118928 275.295609 
L 306.880518 275.544271 
L 307.560736 275.573957 
L 311.302014 275.711184 
L 314.022918 275.78162 
L 315.383385 275.89545 
L 324.566471 276.139271 
L 324.906564 276.255139 
L 325.246689 276.07192 
L 325.586814 276.134521 
L 325.926907 276.076214 
L 326.267032 276.191888 
L 326.607156 276.188753 
L 326.94725 276.303516 
L 327.287375 276.120888 
L 328.307718 276.247858 
L 328.647842 276.101973 
L 329.32806 276.262796 
L 329.668185 276.167109 
L 330.008279 276.285624 
L 330.348403 276.198304 
L 330.688528 276.238129 
L 331.028621 276.065469 
L 332.389089 276.342131 
L 332.729214 276.184109 
L 333.069307 276.180396 
L 333.409432 276.383385 
L 333.749556 276.206889 
L 334.08965 276.378193 
L 334.429775 276.272675 
L 335.109993 276.387563 
L 335.450118 276.11542 
L 335.790242 276.394308 
L 336.130336 276.207994 
L 336.810585 276.33766 
L 337.150679 276.480467 
L 337.830928 276.38673 
L 338.171021 275.977301 
L 338.511146 276.265019 
L 338.851271 276.2266 
L 339.191364 276.069227 
L 339.531489 276.518178 
L 339.871614 276.008568 
L 340.211707 276.41661 
L 340.551832 276.25541 
L 341.572175 276.098584 
L 341.912299 276.503418 
L 342.252393 276.048869 
L 342.592518 276.407479 
L 342.932642 276.183121 
L 343.272736 276.185902 
L 343.61286 276.357724 
L 344.293079 276.115295 
L 344.633203 276.469108 
L 344.973328 276.333563 
L 345.313421 275.80349 
L 345.653546 276.385668 
L 345.993671 276.198582 
L 346.333764 276.58969 
L 347.013982 276.700996 
L 352.115697 276.749366 
L 392.929411 276.872773 
L 398.711344 276.870423 
L 398.711344 276.870423 
" clip-path="url(#p2ddcffe552)" style="fill: none; stroke: #f06043; stroke-linecap: round"/>
   </g>
   <g id="line2d_29">
    <path d="M 41.591359 198.147742 
L 44.652388 189.716793 
L 45.332621 186.669345 
L 46.352964 180.658705 
L 48.053541 167.767142 
L 49.413993 157.596583 
L 50.774445 148.93477 
L 52.134912 140.455349 
L 53.155255 132.556031 
L 54.175598 122.322009 
L 55.53605 106.473965 
L 56.556393 94.710243 
L 57.576736 85.224869 
L 58.256969 80.64186 
L 58.937188 77.314987 
L 59.617421 75.102512 
L 60.297655 73.478785 
L 61.998216 69.956515 
L 62.67845 67.664828 
L 63.698793 62.991456 
L 66.419712 48.021932 
L 66.759821 47.022594 
L 67.099931 46.380139 
L 67.440055 46.209311 
L 67.780164 46.499751 
L 68.120273 47.196372 
L 68.460398 48.371948 
L 69.140616 51.937473 
L 69.82085 56.712549 
L 71.521427 71.346792 
L 73.562112 88.578246 
L 75.262673 100.888349 
L 77.303359 113.211205 
L 79.003936 121.866324 
L 80.364388 127.819482 
L 81.724855 132.884919 
L 83.085307 137.306411 
L 85.125993 142.960611 
L 87.166679 148.435267 
L 88.867255 153.725208 
L 90.227707 158.71478 
L 91.928284 165.93348 
L 94.989312 180.420211 
L 97.370107 191.104517 
L 99.070684 197.614755 
L 100.77126 203.087873 
L 102.131712 206.628162 
L 103.492164 209.510453 
L 104.512507 211.279935 
L 105.53285 212.746875 
L 106.893318 214.28836 
L 107.91366 215.17329 
L 109.614221 216.189315 
L 110.974689 216.68072 
L 111.995032 216.883105 
L 113.355484 216.940464 
L 115.05606 216.793702 
L 116.416512 216.472914 
L 118.797307 215.594559 
L 121.178118 214.405672 
L 123.558912 212.991507 
L 125.599598 211.661321 
L 133.422232 206.467279 
L 135.462918 205.255348 
L 138.183821 203.844118 
L 140.904741 202.714636 
L 142.945427 202.019227 
L 146.006455 201.281104 
L 148.727375 201.049248 
L 151.108154 201.062984 
L 154.169182 201.457024 
L 156.549993 202.062593 
L 159.611021 203.151263 
L 166.073203 206.602697 
L 169.134232 208.664733 
L 172.875479 211.529619 
L 177.637099 215.683777 
L 178.657442 216.573159 
L 185.119593 223.168514 
L 196.003271 234.579258 
L 200.424736 238.874444 
L 206.886918 244.679557 
L 214.029318 250.643838 
L 221.171718 255.786322 
L 223.892621 257.5257 
L 227.293775 259.480643 
L 233.075707 262.229577 
L 235.796642 263.32894 
L 245.319821 266.197241 
L 258.584279 269.024403 
L 279.33126 272.917869 
L 291.23525 274.468727 
L 295.316621 274.846059 
L 295.996871 274.876537 
L 297.357307 274.961741 
L 298.717775 275.086214 
L 306.880518 275.569288 
L 307.90086 275.616052 
L 309.261328 275.654262 
L 313.342699 275.791331 
L 318.784507 275.903039 
L 319.124632 276.096894 
L 319.80485 275.974215 
L 320.485099 275.990338 
L 320.825193 275.94204 
L 321.165318 276.103809 
L 321.505442 276.013414 
L 322.525785 276.111747 
L 322.865879 276.020412 
L 323.206003 276.23036 
L 323.546128 276.082929 
L 324.226346 276.166358 
L 324.566471 276.114871 
L 324.906564 276.288944 
L 325.246689 276.121556 
L 325.586814 276.249095 
L 326.607156 276.186278 
L 326.94725 276.280532 
L 327.967593 276.223355 
L 328.307718 276.324384 
L 328.987936 276.247045 
L 329.668185 276.317294 
L 330.348403 276.242931 
L 331.028621 276.349171 
L 331.368746 276.160774 
L 332.729214 276.435884 
L 333.069307 276.187487 
L 333.409432 276.345387 
L 333.749556 276.280705 
L 334.08965 276.633819 
L 334.429775 276.677808 
L 334.769899 276.434926 
L 335.109993 276.472936 
L 335.450118 276.353656 
L 335.790242 276.540816 
L 336.130336 276.495646 
L 336.47046 276.684578 
L 336.810585 276.397251 
L 337.150679 276.421169 
L 337.490803 276.243369 
L 337.830928 276.469781 
L 338.171021 276.363673 
L 338.851271 276.572874 
L 339.191364 276.278642 
L 339.531489 276.768189 
L 339.871614 276.443001 
L 340.211707 276.562584 
L 340.551832 276.233779 
L 341.572175 276.502676 
L 341.912299 276.717378 
L 342.252393 276.446754 
L 342.592518 276.377305 
L 342.932642 276.507349 
L 343.272736 276.162749 
L 343.61286 276.209447 
L 343.952985 275.967577 
L 344.293079 276.441711 
L 344.633203 276.240298 
L 344.973328 276.621831 
L 345.313421 276.030541 
L 345.653546 276.402802 
L 345.993671 276.474143 
L 346.333764 276.859185 
L 347.013982 276.927177 
L 361.979001 277.056515 
L 373.542897 277.117205 
L 377.284144 277.113557 
L 381.025421 277.129046 
L 387.487572 277.150124 
L 391.22885 277.143733 
L 398.711344 277.150076 
L 398.711344 277.150076 
" clip-path="url(#p2ddcffe552)" style="fill: none; stroke: #ca1a50; stroke-linecap: round"/>
   </g>
   <g id="line2d_30">
    <path d="M 41.591359 225.613963 
L 43.291936 220.482193 
L 44.652388 215.82613 
L 46.352964 208.745642 
L 48.053541 200.066683 
L 50.094227 187.979998 
L 53.155255 167.615165 
L 55.53605 150.067758 
L 58.256969 129.478263 
L 60.977873 110.371265 
L 64.038902 94.114136 
L 65.399369 88.806747 
L 66.419712 85.691959 
L 67.440055 83.379826 
L 68.120273 82.214354 
L 68.800507 81.459917 
L 69.480741 80.986166 
L 70.160959 80.866776 
L 70.841193 81.116008 
L 71.181302 81.354042 
L 71.861536 82.216004 
L 72.541769 83.571402 
L 73.221988 85.489851 
L 73.902221 87.901245 
L 74.922564 92.479337 
L 76.283016 100.068325 
L 78.323702 113.538951 
L 80.704512 129.230348 
L 82.064964 136.690714 
L 83.085307 141.112793 
L 84.10565 144.390392 
L 84.785884 145.907268 
L 85.466118 146.944365 
L 86.146336 147.555977 
L 86.826569 147.788792 
L 87.506803 147.625958 
L 88.527146 146.961915 
L 89.547489 145.800559 
L 90.907941 143.873869 
L 96.689889 135.014137 
L 98.050341 133.24442 
L 100.091027 130.991578 
L 101.791603 129.462275 
L 103.492164 128.311253 
L 104.852632 127.671288 
L 105.872975 127.352044 
L 107.233427 127.209528 
L 108.593879 127.271515 
L 111.314798 128.388514 
L 113.355484 129.889061 
L 114.375827 130.889351 
L 116.076403 132.791352 
L 117.776964 135.060389 
L 119.477541 137.596534 
L 121.858336 141.576948 
L 124.239146 145.992722 
L 126.96005 151.441127 
L 131.041421 160.278915 
L 137.843712 176.602409 
L 148.38725 202.920708 
L 153.488964 214.646374 
L 158.250554 224.611317 
L 160.631364 229.123798 
L 163.352268 233.809253 
L 166.073203 237.972158 
L 168.794107 241.594685 
L 171.515011 244.599999 
L 173.555728 246.527086 
L 175.936507 248.460265 
L 178.317318 250.079529 
L 178.657442 250.185765 
L 180.017879 251.025266 
L 187.500403 254.62826 
L 194.302679 257.373409 
L 199.744518 259.460189 
L 203.825889 260.961397 
L 211.648507 263.71403 
L 215.389785 264.910128 
L 230.014679 269.246163 
L 234.436175 270.355295 
L 238.517546 271.247324 
L 241.23845 271.7498 
L 244.299479 272.26514 
L 247.020414 272.671427 
L 252.122128 273.252437 
L 253.482564 273.384875 
L 257.90406 273.761511 
L 260.624964 273.980504 
L 261.645307 274.037519 
L 265.726679 274.307343 
L 267.767364 274.402916 
L 269.80805 274.526313 
L 270.488299 274.570237 
L 272.869079 274.673573 
L 274.569671 274.763748 
L 298.037556 275.656979 
L 302.799146 275.773771 
L 303.819489 275.827573 
L 304.839832 275.849203 
L 323.546128 276.203629 
L 324.906564 276.398937 
L 325.246689 276.212193 
L 325.586814 276.183226 
L 325.926907 276.308356 
L 327.287375 276.321849 
L 327.967593 276.241931 
L 328.307718 276.446081 
L 328.987936 276.402448 
L 330.008279 276.468699 
L 330.348403 276.33389 
L 330.688528 276.462915 
L 331.028621 276.453364 
L 331.368746 276.310509 
L 331.708871 276.386126 
L 332.048964 276.29448 
L 332.389089 276.567726 
L 332.729214 276.426809 
L 333.069307 276.504243 
L 333.409432 276.334029 
L 333.749556 276.291187 
L 334.08965 276.616962 
L 335.450118 276.604231 
L 335.790242 276.407687 
L 336.130336 276.462554 
L 336.47046 276.366789 
L 336.810585 276.404038 
L 337.150679 276.557879 
L 337.490803 276.396328 
L 337.830928 276.425214 
L 338.171021 276.324592 
L 338.851271 276.428308 
L 339.191364 276.193251 
L 339.531489 277.25023 
L 339.871614 276.287027 
L 340.211707 276.2243 
L 340.551832 276.627801 
L 340.891956 276.545405 
L 341.572175 275.875717 
L 341.912299 276.891279 
L 342.252393 276.592108 
L 342.592518 276.081384 
L 344.293079 276.694995 
L 344.633203 276.446754 
L 344.973328 276.632843 
L 345.313421 275.884381 
L 345.993671 276.743845 
L 346.333764 276.382261 
L 346.673889 276.707087 
L 347.013982 276.874604 
L 350.415136 276.887928 
L 364.699936 276.945799 
L 398.711344 276.997332 
L 398.711344 276.997332 
" clip-path="url(#p2ddcffe552)" style="fill: none; stroke: #841e5a; stroke-linecap: round"/>
   </g>
   <g id="line2d_31">
    <path d="M 41.591359 240.02944 
L 42.951827 237.952387 
L 44.992512 234.29358 
L 47.033198 230.128577 
L 49.073884 225.274812 
L 50.434336 221.630566 
L 52.134912 216.541496 
L 55.53605 205.069118 
L 59.617421 189.596381 
L 61.658107 181.043782 
L 66.419712 160.586422 
L 72.881879 135.127451 
L 75.602798 124.591395 
L 77.643484 117.879946 
L 79.003936 114.036622 
L 82.064964 105.948679 
L 83.085307 102.913706 
L 84.785884 96.82812 
L 86.48646 89.602852 
L 88.867255 77.731447 
L 94.649203 47.681148 
L 96.349764 40.118522 
L 98.050341 33.500925 
L 99.750918 28.049117 
L 101.111369 24.483275 
L 102.131712 22.379357 
L 102.811946 21.171534 
L 104.512507 19.130665 
L 105.192741 18.638911 
L 106.213084 18.311403 
L 106.893318 18.27692 
L 107.91366 18.599416 
L 108.593879 18.96063 
L 110.294455 20.765353 
L 111.654907 22.917538 
L 113.015375 25.59623 
L 114.035718 27.90289 
L 115.736279 32.386479 
L 117.096746 36.376014 
L 119.137432 43.088542 
L 121.178118 50.444889 
L 124.919364 65.333059 
L 128.320518 79.834176 
L 131.381546 93.396545 
L 136.823369 118.783909 
L 144.986112 157.187165 
L 150.087811 179.836111 
L 154.509307 197.943993 
L 157.570336 209.526988 
L 160.29124 218.990164 
L 163.352268 228.45313 
L 165.733079 234.969106 
L 167.773764 239.925463 
L 169.474325 243.598482 
L 171.515011 247.43465 
L 173.215603 250.19119 
L 174.916164 252.599213 
L 176.276632 254.281053 
L 178.317318 256.443937 
L 179.33766 257.371845 
L 181.378346 259.001036 
L 183.759156 260.5422 
L 186.48006 261.981502 
L 191.24165 263.832885 
L 194.642803 264.867297 
L 202.125328 266.618555 
L 206.546793 267.429352 
L 210.968289 268.236421 
L 213.349099 268.584591 
L 215.389785 268.904382 
L 221.171718 269.683704 
L 241.23845 272.125169 
L 251.441879 273.06502 
L 252.462221 273.13658 
L 259.604621 273.59952 
L 267.427271 274.02336 
L 268.787707 274.078641 
L 293.275936 275.359549 
L 294.296279 275.355915 
L 295.996871 275.426945 
L 297.357307 275.460167 
L 302.118928 275.590912 
L 303.139271 275.647194 
L 304.159614 275.635578 
L 305.52005 275.676191 
L 308.240985 275.733828 
L 309.261328 275.737457 
L 310.961889 275.785185 
L 311.302014 275.846603 
L 311.982232 275.791484 
L 313.342699 275.802583 
L 317.083946 275.87824 
L 317.424071 275.830725 
L 317.764164 275.968399 
L 322.18566 275.973407 
L 322.525785 276.100233 
L 322.865879 276.019959 
L 323.206003 276.169723 
L 323.546128 276.035386 
L 324.906564 276.153841 
L 325.246689 276.028564 
L 325.586814 276.135696 
L 325.926907 276.074474 
L 326.94725 276.199695 
L 327.627499 276.157715 
L 328.307718 276.296591 
L 328.987936 276.165009 
L 330.008279 276.308967 
L 331.028621 276.236086 
L 331.368746 276.167234 
L 331.708871 276.31244 
L 332.048964 276.284971 
L 332.389089 276.414709 
L 332.729214 276.265797 
L 333.749556 276.482548 
L 334.08965 276.330522 
L 334.429775 276.585886 
L 334.769899 276.545245 
L 335.109993 276.370704 
L 336.47046 276.468525 
L 336.810585 276.367164 
L 337.490803 276.533282 
L 337.830928 276.32203 
L 338.511146 276.207605 
L 338.851271 276.648078 
L 339.191364 275.91205 
L 339.531489 276.458726 
L 339.871614 276.112575 
L 340.211707 276.467971 
L 340.551832 276.571419 
L 340.891956 276.118112 
L 341.912299 276.60261 
L 342.252393 276.257446 
L 342.592518 276.207341 
L 342.932642 276.429945 
L 343.272736 276.155072 
L 343.61286 276.406716 
L 344.293079 276.216001 
L 344.633203 276.767505 
L 344.973328 276.670815 
L 345.313421 275.847628 
L 345.993671 276.641721 
L 346.333764 276.216585 
L 346.673889 276.371662 
L 347.013982 276.83206 
L 354.836601 276.885765 
L 359.938315 276.914826 
L 366.400497 276.935045 
L 377.284144 276.997822 
L 388.84804 277.016184 
L 391.568944 276.987501 
L 398.711344 276.961801 
L 398.711344 276.961801 
" clip-path="url(#p2ddcffe552)" style="fill: none; stroke: #3f1b43; stroke-linecap: round"/>
   </g>
   <g id="line2d_32"/>
   <g id="line2d_33"/>
   <g id="line2d_34"/>
   <g id="line2d_35"/>
   <g id="line2d_36"/>
   <g id="patch_3">
    <path d="M 41.25125 277.248797 
L 41.25125 11.136797 
" style="fill: none; stroke: #262626; stroke-width: 1.25; stroke-linejoin: miter; stroke-linecap: square"/>
   </g>
   <g id="patch_4">
    <path d="M 41.25125 277.248797 
L 398.37125 277.248797 
" style="fill: none; stroke: #262626; stroke-width: 1.25; stroke-linejoin: miter; stroke-linecap: square"/>
   </g>
   <g id="legend_1">
    <g id="line2d_37">
     <path d="M 293.872063 45.415809 
L 299.872063 45.415809 
L 305.872063 45.415809 
" style="fill: none; stroke: #f6ab83; stroke-width: 1.5; stroke-linecap: round"/>
    </g>
    <g id="text_17">
     <!-- 0.0% TFA_Abs -->
     <g style="fill: #262626" transform="translate(310.672063 47.515809) scale(0.06 -0.06)">
      <defs>
       <path id="ArialMT-25" d="M 372 3481 
Q 372 3972 619 4315 
Q 866 4659 1334 4659 
Q 1766 4659 2048 4351 
Q 2331 4044 2331 3447 
Q 2331 2866 2045 2552 
Q 1759 2238 1341 2238 
Q 925 2238 648 2547 
Q 372 2856 372 3481 
z
M 1350 4272 
Q 1141 4272 1002 4090 
Q 863 3909 863 3425 
Q 863 2984 1003 2804 
Q 1144 2625 1350 2625 
Q 1563 2625 1702 2806 
Q 1841 2988 1841 3469 
Q 1841 3913 1700 4092 
Q 1559 4272 1350 4272 
z
M 1353 -169 
L 3859 4659 
L 4316 4659 
L 1819 -169 
L 1353 -169 
z
M 3334 1075 
Q 3334 1569 3581 1911 
Q 3828 2253 4300 2253 
Q 4731 2253 5014 1945 
Q 5297 1638 5297 1041 
Q 5297 459 5011 145 
Q 4725 -169 4303 -169 
Q 3888 -169 3611 142 
Q 3334 453 3334 1075 
z
M 4316 1866 
Q 4103 1866 3964 1684 
Q 3825 1503 3825 1019 
Q 3825 581 3965 400 
Q 4106 219 4313 219 
Q 4528 219 4667 400 
Q 4806 581 4806 1063 
Q 4806 1506 4665 1686 
Q 4525 1866 4316 1866 
z
" transform="scale(0.015625)"/>
       <path id="ArialMT-54" d="M 1659 0 
L 1659 4041 
L 150 4041 
L 150 4581 
L 3781 4581 
L 3781 4041 
L 2266 4041 
L 2266 0 
L 1659 0 
z
" transform="scale(0.015625)"/>
       <path id="ArialMT-46" d="M 525 0 
L 525 4581 
L 3616 4581 
L 3616 4041 
L 1131 4041 
L 1131 2622 
L 3281 2622 
L 3281 2081 
L 1131 2081 
L 1131 0 
L 525 0 
z
" transform="scale(0.015625)"/>
       <path id="ArialMT-5f" d="M -97 -1272 
L -97 -866 
L 3631 -866 
L 3631 -1272 
L -97 -1272 
z
" transform="scale(0.015625)"/>
      </defs>
      <use xlink:href="#ArialMT-30"/>
      <use xlink:href="#ArialMT-2e" x="55.615234"/>
      <use xlink:href="#ArialMT-30" x="83.398438"/>
      <use xlink:href="#ArialMT-25" x="139.013672"/>
      <use xlink:href="#ArialMT-20" x="227.929688"/>
      <use xlink:href="#ArialMT-54" x="253.962891"/>
      <use xlink:href="#ArialMT-46" x="315.046875"/>
      <use xlink:href="#ArialMT-41" x="370.630859"/>
      <use xlink:href="#ArialMT-5f" x="437.330078"/>
      <use xlink:href="#ArialMT-41" x="492.945312"/>
      <use xlink:href="#ArialMT-62" x="559.644531"/>
      <use xlink:href="#ArialMT-73" x="615.259766"/>
     </g>
    </g>
    <g id="line2d_38">
     <path d="M 293.872063 53.976122 
L 299.872063 53.976122 
L 305.872063 53.976122 
" style="fill: none; stroke: #f06043; stroke-width: 1.5; stroke-linecap: round"/>
    </g>
    <g id="text_18">
     <!-- 0.017% TFA_Abs -->
     <g style="fill: #262626" transform="translate(310.672063 56.076122) scale(0.06 -0.06)">
      <use xlink:href="#ArialMT-30"/>
      <use xlink:href="#ArialMT-2e" x="55.615234"/>
      <use xlink:href="#ArialMT-30" x="83.398438"/>
      <use xlink:href="#ArialMT-31" x="139.013672"/>
      <use xlink:href="#ArialMT-37" x="194.628906"/>
      <use xlink:href="#ArialMT-25" x="250.244141"/>
      <use xlink:href="#ArialMT-20" x="339.160156"/>
      <use xlink:href="#ArialMT-54" x="365.193359"/>
      <use xlink:href="#ArialMT-46" x="426.277344"/>
      <use xlink:href="#ArialMT-41" x="481.861328"/>
      <use xlink:href="#ArialMT-5f" x="548.560547"/>
      <use xlink:href="#ArialMT-41" x="604.175781"/>
      <use xlink:href="#ArialMT-62" x="670.875"/>
      <use xlink:href="#ArialMT-73" x="726.490234"/>
     </g>
    </g>
    <g id="line2d_39">
     <path d="M 293.872063 62.536434 
L 299.872063 62.536434 
L 305.872063 62.536434 
" style="fill: none; stroke: #ca1a50; stroke-width: 1.5; stroke-linecap: round"/>
    </g>
    <g id="text_19">
     <!-- 0.05% TFA_Abs -->
     <g style="fill: #262626" transform="translate(310.672063 64.636434) scale(0.06 -0.06)">
      <use xlink:href="#ArialMT-30"/>
      <use xlink:href="#ArialMT-2e" x="55.615234"/>
      <use xlink:href="#ArialMT-30" x="83.398438"/>
      <use xlink:href="#ArialMT-35" x="139.013672"/>
      <use xlink:href="#ArialMT-25" x="194.628906"/>
      <use xlink:href="#ArialMT-20" x="283.544922"/>
      <use xlink:href="#ArialMT-54" x="309.578125"/>
      <use xlink:href="#ArialMT-46" x="370.662109"/>
      <use xlink:href="#ArialMT-41" x="426.246094"/>
      <use xlink:href="#ArialMT-5f" x="492.945312"/>
      <use xlink:href="#ArialMT-41" x="548.560547"/>
      <use xlink:href="#ArialMT-62" x="615.259766"/>
      <use xlink:href="#ArialMT-73" x="670.875"/>
     </g>
    </g>
    <g id="line2d_40">
     <path d="M 293.872063 71.096747 
L 299.872063 71.096747 
L 305.872063 71.096747 
" style="fill: none; stroke: #841e5a; stroke-width: 1.5; stroke-linecap: round"/>
    </g>
    <g id="text_20">
     <!-- 0.25% TFA_Abs -->
     <g style="fill: #262626" transform="translate(310.672063 73.196747) scale(0.06 -0.06)">
      <use xlink:href="#ArialMT-30"/>
      <use xlink:href="#ArialMT-2e" x="55.615234"/>
      <use xlink:href="#ArialMT-32" x="83.398438"/>
      <use xlink:href="#ArialMT-35" x="139.013672"/>
      <use xlink:href="#ArialMT-25" x="194.628906"/>
      <use xlink:href="#ArialMT-20" x="283.544922"/>
      <use xlink:href="#ArialMT-54" x="309.578125"/>
      <use xlink:href="#ArialMT-46" x="370.662109"/>
      <use xlink:href="#ArialMT-41" x="426.246094"/>
      <use xlink:href="#ArialMT-5f" x="492.945312"/>
      <use xlink:href="#ArialMT-41" x="548.560547"/>
      <use xlink:href="#ArialMT-62" x="615.259766"/>
      <use xlink:href="#ArialMT-73" x="670.875"/>
     </g>
    </g>
    <g id="line2d_41">
     <path d="M 293.872063 79.657059 
L 299.872063 79.657059 
L 305.872063 79.657059 
" style="fill: none; stroke: #3f1b43; stroke-width: 1.5; stroke-linecap: round"/>
    </g>
    <g id="text_21">
     <!-- 1.00% TFA_Abs -->
     <g style="fill: #262626" transform="translate(310.672063 81.757059) scale(0.06 -0.06)">
      <use xlink:href="#ArialMT-31"/>
      <use xlink:href="#ArialMT-2e" x="55.615234"/>
      <use xlink:href="#ArialMT-30" x="83.398438"/>
      <use xlink:href="#ArialMT-30" x="139.013672"/>
      <use xlink:href="#ArialMT-25" x="194.628906"/>
      <use xlink:href="#ArialMT-20" x="283.544922"/>
      <use xlink:href="#ArialMT-54" x="309.578125"/>
      <use xlink:href="#ArialMT-46" x="370.662109"/>
      <use xlink:href="#ArialMT-41" x="426.246094"/>
      <use xlink:href="#ArialMT-5f" x="492.945312"/>
      <use xlink:href="#ArialMT-41" x="548.560547"/>
      <use xlink:href="#ArialMT-62" x="615.259766"/>
      <use xlink:href="#ArialMT-73" x="670.875"/>
     </g>
    </g>
   </g>
  </g>
 </g>
 <defs>
  <clipPath id="p2ddcffe552">
   <rect x="41.25125" y="11.136797" width="357.12" height="266.112"/>
  </clipPath>
 </defs>
</svg>
