<?xml version="1.0" encoding="utf-8" standalone="no"?>
<!DOCTYPE svg PUBLIC "-//W3C//DTD SVG 1.1//EN"
  "http://www.w3.org/Graphics/SVG/1.1/DTD/svg11.dtd">
<svg xmlns:xlink="http://www.w3.org/1999/xlink" width="417.805313pt" height="309.333094pt" viewBox="0 0 417.805313 309.333094" xmlns="http://www.w3.org/2000/svg" version="1.1">
 <metadata>
  <rdf:RDF xmlns:dc="http://purl.org/dc/elements/1.1/" xmlns:cc="http://creativecommons.org/ns#" xmlns:rdf="http://www.w3.org/1999/02/22-rdf-syntax-ns#">
   <cc:Work>
    <dc:type rdf:resource="http://purl.org/dc/dcmitype/StillImage"/>
    <dc:date>2024-09-10T14:48:47.394669</dc:date>
    <dc:format>image/svg+xml</dc:format>
    <dc:creator>
     <cc:Agent>
      <dc:title>Matplotlib v3.7.1, https://matplotlib.org/</dc:title>
     </cc:Agent>
    </dc:creator>
   </cc:Work>
  </rdf:RDF>
 </metadata>
 <defs>
  <style type="text/css">*{stroke-linejoin: round; stroke-linecap: butt}</style>
 </defs>
 <g id="figure_1">
  <g id="patch_1">
   <path d="M 0 309.333094 
L 417.805313 309.333094 
L 417.805313 0 
L 0 0 
z
" style="fill: #ffffff"/>
  </g>
  <g id="axes_1">
   <g id="patch_2">
    <path d="M 41.25125 273.312 
L 398.37125 273.312 
L 398.37125 7.2 
L 41.25125 7.2 
z
" style="fill: #ffffff"/>
   </g>
   <g id="matplotlib.axis_1">
    <g id="xtick_1">
     <g id="line2d_1">
      <defs>
       <path id="mbb6aac2321" d="M 0 0 
L 0 -6 
" style="stroke: #262626; stroke-width: 1.25"/>
      </defs>
      <g>
       <use xlink:href="#mbb6aac2321" x="73.716705" y="273.312" style="fill: #262626; stroke: #262626; stroke-width: 1.25"/>
      </g>
     </g>
     <g id="text_1">
      <!-- 400 -->
      <g style="fill: #262626" transform="translate(64.541158 284.685594) scale(0.11 -0.11)">
       <defs>
        <path id="ArialMT-34" d="M 2069 0 
L 2069 1097 
L 81 1097 
L 81 1613 
L 2172 4581 
L 2631 4581 
L 2631 1613 
L 3250 1613 
L 3250 1097 
L 2631 1097 
L 2631 0 
L 2069 0 
z
M 2069 1613 
L 2069 3678 
L 634 1613 
L 2069 1613 
z
" transform="scale(0.015625)"/>
        <path id="ArialMT-30" d="M 266 2259 
Q 266 3072 433 3567 
Q 600 4063 929 4331 
Q 1259 4600 1759 4600 
Q 2128 4600 2406 4451 
Q 2684 4303 2865 4023 
Q 3047 3744 3150 3342 
Q 3253 2941 3253 2259 
Q 3253 1453 3087 958 
Q 2922 463 2592 192 
Q 2263 -78 1759 -78 
Q 1097 -78 719 397 
Q 266 969 266 2259 
z
M 844 2259 
Q 844 1131 1108 757 
Q 1372 384 1759 384 
Q 2147 384 2411 759 
Q 2675 1134 2675 2259 
Q 2675 3391 2411 3762 
Q 2147 4134 1753 4134 
Q 1366 4134 1134 3806 
Q 844 3388 844 2259 
z
" transform="scale(0.015625)"/>
       </defs>
       <use xlink:href="#ArialMT-34"/>
       <use xlink:href="#ArialMT-30" x="55.615234"/>
       <use xlink:href="#ArialMT-30" x="111.230469"/>
      </g>
     </g>
    </g>
    <g id="xtick_2">
     <g id="line2d_2">
      <g>
       <use xlink:href="#mbb6aac2321" x="138.647614" y="273.312" style="fill: #262626; stroke: #262626; stroke-width: 1.25"/>
      </g>
     </g>
     <g id="text_2">
      <!-- 600 -->
      <g style="fill: #262626" transform="translate(129.472067 284.685594) scale(0.11 -0.11)">
       <defs>
        <path id="ArialMT-36" d="M 3184 3459 
L 2625 3416 
Q 2550 3747 2413 3897 
Q 2184 4138 1850 4138 
Q 1581 4138 1378 3988 
Q 1113 3794 959 3422 
Q 806 3050 800 2363 
Q 1003 2672 1297 2822 
Q 1591 2972 1913 2972 
Q 2475 2972 2870 2558 
Q 3266 2144 3266 1488 
Q 3266 1056 3080 686 
Q 2894 316 2569 119 
Q 2244 -78 1831 -78 
Q 1128 -78 684 439 
Q 241 956 241 2144 
Q 241 3472 731 4075 
Q 1159 4600 1884 4600 
Q 2425 4600 2770 4297 
Q 3116 3994 3184 3459 
z
M 888 1484 
Q 888 1194 1011 928 
Q 1134 663 1356 523 
Q 1578 384 1822 384 
Q 2178 384 2434 671 
Q 2691 959 2691 1453 
Q 2691 1928 2437 2201 
Q 2184 2475 1800 2475 
Q 1419 2475 1153 2201 
Q 888 1928 888 1484 
z
" transform="scale(0.015625)"/>
       </defs>
       <use xlink:href="#ArialMT-36"/>
       <use xlink:href="#ArialMT-30" x="55.615234"/>
       <use xlink:href="#ArialMT-30" x="111.230469"/>
      </g>
     </g>
    </g>
    <g id="xtick_3">
     <g id="line2d_3">
      <g>
       <use xlink:href="#mbb6aac2321" x="203.578523" y="273.312" style="fill: #262626; stroke: #262626; stroke-width: 1.25"/>
      </g>
     </g>
     <g id="text_3">
      <!-- 800 -->
      <g style="fill: #262626" transform="translate(194.402976 284.685594) scale(0.11 -0.11)">
       <defs>
        <path id="ArialMT-38" d="M 1131 2484 
Q 781 2613 612 2850 
Q 444 3088 444 3419 
Q 444 3919 803 4259 
Q 1163 4600 1759 4600 
Q 2359 4600 2725 4251 
Q 3091 3903 3091 3403 
Q 3091 3084 2923 2848 
Q 2756 2613 2416 2484 
Q 2838 2347 3058 2040 
Q 3278 1734 3278 1309 
Q 3278 722 2862 322 
Q 2447 -78 1769 -78 
Q 1091 -78 675 323 
Q 259 725 259 1325 
Q 259 1772 486 2073 
Q 713 2375 1131 2484 
z
M 1019 3438 
Q 1019 3113 1228 2906 
Q 1438 2700 1772 2700 
Q 2097 2700 2305 2904 
Q 2513 3109 2513 3406 
Q 2513 3716 2298 3927 
Q 2084 4138 1766 4138 
Q 1444 4138 1231 3931 
Q 1019 3725 1019 3438 
z
M 838 1322 
Q 838 1081 952 856 
Q 1066 631 1291 507 
Q 1516 384 1775 384 
Q 2178 384 2440 643 
Q 2703 903 2703 1303 
Q 2703 1709 2433 1975 
Q 2163 2241 1756 2241 
Q 1359 2241 1098 1978 
Q 838 1716 838 1322 
z
" transform="scale(0.015625)"/>
       </defs>
       <use xlink:href="#ArialMT-38"/>
       <use xlink:href="#ArialMT-30" x="55.615234"/>
       <use xlink:href="#ArialMT-30" x="111.230469"/>
      </g>
     </g>
    </g>
    <g id="xtick_4">
     <g id="line2d_4">
      <g>
       <use xlink:href="#mbb6aac2321" x="268.509432" y="273.312" style="fill: #262626; stroke: #262626; stroke-width: 1.25"/>
      </g>
     </g>
     <g id="text_4">
      <!-- 1000 -->
      <g style="fill: #262626" transform="translate(256.275369 284.685594) scale(0.11 -0.11)">
       <defs>
        <path id="ArialMT-31" d="M 2384 0 
L 1822 0 
L 1822 3584 
Q 1619 3391 1289 3197 
Q 959 3003 697 2906 
L 697 3450 
Q 1169 3672 1522 3987 
Q 1875 4303 2022 4600 
L 2384 4600 
L 2384 0 
z
" transform="scale(0.015625)"/>
       </defs>
       <use xlink:href="#ArialMT-31"/>
       <use xlink:href="#ArialMT-30" x="55.615234"/>
       <use xlink:href="#ArialMT-30" x="111.230469"/>
       <use xlink:href="#ArialMT-30" x="166.845703"/>
      </g>
     </g>
    </g>
    <g id="xtick_5">
     <g id="line2d_5">
      <g>
       <use xlink:href="#mbb6aac2321" x="333.440341" y="273.312" style="fill: #262626; stroke: #262626; stroke-width: 1.25"/>
      </g>
     </g>
     <g id="text_5">
      <!-- 1200 -->
      <g style="fill: #262626" transform="translate(321.206278 284.685594) scale(0.11 -0.11)">
       <defs>
        <path id="ArialMT-32" d="M 3222 541 
L 3222 0 
L 194 0 
Q 188 203 259 391 
Q 375 700 629 1000 
Q 884 1300 1366 1694 
Q 2113 2306 2375 2664 
Q 2638 3022 2638 3341 
Q 2638 3675 2398 3904 
Q 2159 4134 1775 4134 
Q 1369 4134 1125 3890 
Q 881 3647 878 3216 
L 300 3275 
Q 359 3922 746 4261 
Q 1134 4600 1788 4600 
Q 2447 4600 2831 4234 
Q 3216 3869 3216 3328 
Q 3216 3053 3103 2787 
Q 2991 2522 2730 2228 
Q 2469 1934 1863 1422 
Q 1356 997 1212 845 
Q 1069 694 975 541 
L 3222 541 
z
" transform="scale(0.015625)"/>
       </defs>
       <use xlink:href="#ArialMT-31"/>
       <use xlink:href="#ArialMT-32" x="55.615234"/>
       <use xlink:href="#ArialMT-30" x="111.230469"/>
       <use xlink:href="#ArialMT-30" x="166.845703"/>
      </g>
     </g>
    </g>
    <g id="xtick_6">
     <g id="line2d_6">
      <g>
       <use xlink:href="#mbb6aac2321" x="398.37125" y="273.312" style="fill: #262626; stroke: #262626; stroke-width: 1.25"/>
      </g>
     </g>
     <g id="text_6">
      <!-- 1400 -->
      <g style="fill: #262626" transform="translate(386.137188 284.685594) scale(0.11 -0.11)">
       <use xlink:href="#ArialMT-31"/>
       <use xlink:href="#ArialMT-34" x="55.615234"/>
       <use xlink:href="#ArialMT-30" x="111.230469"/>
       <use xlink:href="#ArialMT-30" x="166.845703"/>
      </g>
     </g>
    </g>
    <g id="xtick_7">
     <g id="line2d_7">
      <defs>
       <path id="m7bd69484c4" d="M 0 0 
L 0 -4 
" style="stroke: #262626"/>
      </defs>
      <g>
       <use xlink:href="#m7bd69484c4" x="106.182159" y="273.312" style="fill: #262626; stroke: #262626"/>
      </g>
     </g>
    </g>
    <g id="xtick_8">
     <g id="line2d_8">
      <g>
       <use xlink:href="#m7bd69484c4" x="171.113068" y="273.312" style="fill: #262626; stroke: #262626"/>
      </g>
     </g>
    </g>
    <g id="xtick_9">
     <g id="line2d_9">
      <g>
       <use xlink:href="#m7bd69484c4" x="236.043977" y="273.312" style="fill: #262626; stroke: #262626"/>
      </g>
     </g>
    </g>
    <g id="xtick_10">
     <g id="line2d_10">
      <g>
       <use xlink:href="#m7bd69484c4" x="300.974886" y="273.312" style="fill: #262626; stroke: #262626"/>
      </g>
     </g>
    </g>
    <g id="xtick_11">
     <g id="line2d_11">
      <g>
       <use xlink:href="#m7bd69484c4" x="365.905795" y="273.312" style="fill: #262626; stroke: #262626"/>
      </g>
     </g>
    </g>
    <g id="text_7">
     <!-- Wavelength (nm) -->
     <g style="fill: #262626" transform="translate(174.356562 299.607469) scale(0.12 -0.12)">
      <defs>
       <path id="ArialMT-57" d="M 1294 0 
L 78 4581 
L 700 4581 
L 1397 1578 
Q 1509 1106 1591 641 
Q 1766 1375 1797 1488 
L 2669 4581 
L 3400 4581 
L 4056 2263 
Q 4303 1400 4413 641 
Q 4500 1075 4641 1638 
L 5359 4581 
L 5969 4581 
L 4713 0 
L 4128 0 
L 3163 3491 
Q 3041 3928 3019 4028 
Q 2947 3713 2884 3491 
L 1913 0 
L 1294 0 
z
" transform="scale(0.015625)"/>
       <path id="ArialMT-61" d="M 2588 409 
Q 2275 144 1986 34 
Q 1697 -75 1366 -75 
Q 819 -75 525 192 
Q 231 459 231 875 
Q 231 1119 342 1320 
Q 453 1522 633 1644 
Q 813 1766 1038 1828 
Q 1203 1872 1538 1913 
Q 2219 1994 2541 2106 
Q 2544 2222 2544 2253 
Q 2544 2597 2384 2738 
Q 2169 2928 1744 2928 
Q 1347 2928 1158 2789 
Q 969 2650 878 2297 
L 328 2372 
Q 403 2725 575 2942 
Q 747 3159 1072 3276 
Q 1397 3394 1825 3394 
Q 2250 3394 2515 3294 
Q 2781 3194 2906 3042 
Q 3031 2891 3081 2659 
Q 3109 2516 3109 2141 
L 3109 1391 
Q 3109 606 3145 398 
Q 3181 191 3288 0 
L 2700 0 
Q 2613 175 2588 409 
z
M 2541 1666 
Q 2234 1541 1622 1453 
Q 1275 1403 1131 1340 
Q 988 1278 909 1158 
Q 831 1038 831 891 
Q 831 666 1001 516 
Q 1172 366 1500 366 
Q 1825 366 2078 508 
Q 2331 650 2450 897 
Q 2541 1088 2541 1459 
L 2541 1666 
z
" transform="scale(0.015625)"/>
       <path id="ArialMT-76" d="M 1344 0 
L 81 3319 
L 675 3319 
L 1388 1331 
Q 1503 1009 1600 663 
Q 1675 925 1809 1294 
L 2547 3319 
L 3125 3319 
L 1869 0 
L 1344 0 
z
" transform="scale(0.015625)"/>
       <path id="ArialMT-65" d="M 2694 1069 
L 3275 997 
Q 3138 488 2766 206 
Q 2394 -75 1816 -75 
Q 1088 -75 661 373 
Q 234 822 234 1631 
Q 234 2469 665 2931 
Q 1097 3394 1784 3394 
Q 2450 3394 2872 2941 
Q 3294 2488 3294 1666 
Q 3294 1616 3291 1516 
L 816 1516 
Q 847 969 1125 678 
Q 1403 388 1819 388 
Q 2128 388 2347 550 
Q 2566 713 2694 1069 
z
M 847 1978 
L 2700 1978 
Q 2663 2397 2488 2606 
Q 2219 2931 1791 2931 
Q 1403 2931 1139 2672 
Q 875 2413 847 1978 
z
" transform="scale(0.015625)"/>
       <path id="ArialMT-6c" d="M 409 0 
L 409 4581 
L 972 4581 
L 972 0 
L 409 0 
z
" transform="scale(0.015625)"/>
       <path id="ArialMT-6e" d="M 422 0 
L 422 3319 
L 928 3319 
L 928 2847 
Q 1294 3394 1984 3394 
Q 2284 3394 2536 3286 
Q 2788 3178 2913 3003 
Q 3038 2828 3088 2588 
Q 3119 2431 3119 2041 
L 3119 0 
L 2556 0 
L 2556 2019 
Q 2556 2363 2490 2533 
Q 2425 2703 2258 2804 
Q 2091 2906 1866 2906 
Q 1506 2906 1245 2678 
Q 984 2450 984 1813 
L 984 0 
L 422 0 
z
" transform="scale(0.015625)"/>
       <path id="ArialMT-67" d="M 319 -275 
L 866 -356 
Q 900 -609 1056 -725 
Q 1266 -881 1628 -881 
Q 2019 -881 2231 -725 
Q 2444 -569 2519 -288 
Q 2563 -116 2559 434 
Q 2191 0 1641 0 
Q 956 0 581 494 
Q 206 988 206 1678 
Q 206 2153 378 2554 
Q 550 2956 876 3175 
Q 1203 3394 1644 3394 
Q 2231 3394 2613 2919 
L 2613 3319 
L 3131 3319 
L 3131 450 
Q 3131 -325 2973 -648 
Q 2816 -972 2473 -1159 
Q 2131 -1347 1631 -1347 
Q 1038 -1347 672 -1080 
Q 306 -813 319 -275 
z
M 784 1719 
Q 784 1066 1043 766 
Q 1303 466 1694 466 
Q 2081 466 2343 764 
Q 2606 1063 2606 1700 
Q 2606 2309 2336 2618 
Q 2066 2928 1684 2928 
Q 1309 2928 1046 2623 
Q 784 2319 784 1719 
z
" transform="scale(0.015625)"/>
       <path id="ArialMT-74" d="M 1650 503 
L 1731 6 
Q 1494 -44 1306 -44 
Q 1000 -44 831 53 
Q 663 150 594 308 
Q 525 466 525 972 
L 525 2881 
L 113 2881 
L 113 3319 
L 525 3319 
L 525 4141 
L 1084 4478 
L 1084 3319 
L 1650 3319 
L 1650 2881 
L 1084 2881 
L 1084 941 
Q 1084 700 1114 631 
Q 1144 563 1211 522 
Q 1278 481 1403 481 
Q 1497 481 1650 503 
z
" transform="scale(0.015625)"/>
       <path id="ArialMT-68" d="M 422 0 
L 422 4581 
L 984 4581 
L 984 2938 
Q 1378 3394 1978 3394 
Q 2347 3394 2619 3248 
Q 2891 3103 3008 2847 
Q 3125 2591 3125 2103 
L 3125 0 
L 2563 0 
L 2563 2103 
Q 2563 2525 2380 2717 
Q 2197 2909 1863 2909 
Q 1613 2909 1392 2779 
Q 1172 2650 1078 2428 
Q 984 2206 984 1816 
L 984 0 
L 422 0 
z
" transform="scale(0.015625)"/>
       <path id="ArialMT-20" transform="scale(0.015625)"/>
       <path id="ArialMT-28" d="M 1497 -1347 
Q 1031 -759 709 28 
Q 388 816 388 1659 
Q 388 2403 628 3084 
Q 909 3875 1497 4659 
L 1900 4659 
Q 1522 4009 1400 3731 
Q 1209 3300 1100 2831 
Q 966 2247 966 1656 
Q 966 153 1900 -1347 
L 1497 -1347 
z
" transform="scale(0.015625)"/>
       <path id="ArialMT-6d" d="M 422 0 
L 422 3319 
L 925 3319 
L 925 2853 
Q 1081 3097 1340 3245 
Q 1600 3394 1931 3394 
Q 2300 3394 2536 3241 
Q 2772 3088 2869 2813 
Q 3263 3394 3894 3394 
Q 4388 3394 4653 3120 
Q 4919 2847 4919 2278 
L 4919 0 
L 4359 0 
L 4359 2091 
Q 4359 2428 4304 2576 
Q 4250 2725 4106 2815 
Q 3963 2906 3769 2906 
Q 3419 2906 3187 2673 
Q 2956 2441 2956 1928 
L 2956 0 
L 2394 0 
L 2394 2156 
Q 2394 2531 2256 2718 
Q 2119 2906 1806 2906 
Q 1569 2906 1367 2781 
Q 1166 2656 1075 2415 
Q 984 2175 984 1722 
L 984 0 
L 422 0 
z
" transform="scale(0.015625)"/>
       <path id="ArialMT-29" d="M 791 -1347 
L 388 -1347 
Q 1322 153 1322 1656 
Q 1322 2244 1188 2822 
Q 1081 3291 891 3722 
Q 769 4003 388 4659 
L 791 4659 
Q 1378 3875 1659 3084 
Q 1900 2403 1900 1659 
Q 1900 816 1576 28 
Q 1253 -759 791 -1347 
z
" transform="scale(0.015625)"/>
      </defs>
      <use xlink:href="#ArialMT-57"/>
      <use xlink:href="#ArialMT-61" x="90.634766"/>
      <use xlink:href="#ArialMT-76" x="146.25"/>
      <use xlink:href="#ArialMT-65" x="196.25"/>
      <use xlink:href="#ArialMT-6c" x="251.865234"/>
      <use xlink:href="#ArialMT-65" x="274.082031"/>
      <use xlink:href="#ArialMT-6e" x="329.697266"/>
      <use xlink:href="#ArialMT-67" x="385.3125"/>
      <use xlink:href="#ArialMT-74" x="440.927734"/>
      <use xlink:href="#ArialMT-68" x="468.710938"/>
      <use xlink:href="#ArialMT-20" x="524.326172"/>
      <use xlink:href="#ArialMT-28" x="552.109375"/>
      <use xlink:href="#ArialMT-6e" x="585.410156"/>
      <use xlink:href="#ArialMT-6d" x="641.025391"/>
      <use xlink:href="#ArialMT-29" x="724.326172"/>
     </g>
    </g>
   </g>
   <g id="matplotlib.axis_2">
    <g id="ytick_1">
     <g id="line2d_12">
      <defs>
       <path id="m54faa6e5da" d="M 0 0 
L 6 0 
" style="stroke: #262626; stroke-width: 1.25"/>
      </defs>
      <g>
       <use xlink:href="#m54faa6e5da" x="41.25125" y="273.312" style="fill: #262626; stroke: #262626; stroke-width: 1.25"/>
      </g>
     </g>
     <g id="text_8">
      <!-- 0.0 -->
      <g style="fill: #262626" transform="translate(22.46125 277.248797) scale(0.11 -0.11)">
       <defs>
        <path id="ArialMT-2e" d="M 581 0 
L 581 641 
L 1222 641 
L 1222 0 
L 581 0 
z
" transform="scale(0.015625)"/>
       </defs>
       <use xlink:href="#ArialMT-30"/>
       <use xlink:href="#ArialMT-2e" x="55.615234"/>
       <use xlink:href="#ArialMT-30" x="83.398438"/>
      </g>
     </g>
    </g>
    <g id="ytick_2">
     <g id="line2d_13">
      <g>
       <use xlink:href="#m54faa6e5da" x="41.25125" y="237.8304" style="fill: #262626; stroke: #262626; stroke-width: 1.25"/>
      </g>
     </g>
     <g id="text_9">
      <!-- 0.2 -->
      <g style="fill: #262626" transform="translate(22.46125 241.767197) scale(0.11 -0.11)">
       <use xlink:href="#ArialMT-30"/>
       <use xlink:href="#ArialMT-2e" x="55.615234"/>
       <use xlink:href="#ArialMT-32" x="83.398438"/>
      </g>
     </g>
    </g>
    <g id="ytick_3">
     <g id="line2d_14">
      <g>
       <use xlink:href="#m54faa6e5da" x="41.25125" y="202.3488" style="fill: #262626; stroke: #262626; stroke-width: 1.25"/>
      </g>
     </g>
     <g id="text_10">
      <!-- 0.4 -->
      <g style="fill: #262626" transform="translate(22.46125 206.285597) scale(0.11 -0.11)">
       <use xlink:href="#ArialMT-30"/>
       <use xlink:href="#ArialMT-2e" x="55.615234"/>
       <use xlink:href="#ArialMT-34" x="83.398438"/>
      </g>
     </g>
    </g>
    <g id="ytick_4">
     <g id="line2d_15">
      <g>
       <use xlink:href="#m54faa6e5da" x="41.25125" y="166.8672" style="fill: #262626; stroke: #262626; stroke-width: 1.25"/>
      </g>
     </g>
     <g id="text_11">
      <!-- 0.6 -->
      <g style="fill: #262626" transform="translate(22.46125 170.803997) scale(0.11 -0.11)">
       <use xlink:href="#ArialMT-30"/>
       <use xlink:href="#ArialMT-2e" x="55.615234"/>
       <use xlink:href="#ArialMT-36" x="83.398438"/>
      </g>
     </g>
    </g>
    <g id="ytick_5">
     <g id="line2d_16">
      <g>
       <use xlink:href="#m54faa6e5da" x="41.25125" y="131.3856" style="fill: #262626; stroke: #262626; stroke-width: 1.25"/>
      </g>
     </g>
     <g id="text_12">
      <!-- 0.8 -->
      <g style="fill: #262626" transform="translate(22.46125 135.322397) scale(0.11 -0.11)">
       <use xlink:href="#ArialMT-30"/>
       <use xlink:href="#ArialMT-2e" x="55.615234"/>
       <use xlink:href="#ArialMT-38" x="83.398438"/>
      </g>
     </g>
    </g>
    <g id="ytick_6">
     <g id="line2d_17">
      <g>
       <use xlink:href="#m54faa6e5da" x="41.25125" y="95.904" style="fill: #262626; stroke: #262626; stroke-width: 1.25"/>
      </g>
     </g>
     <g id="text_13">
      <!-- 1.0 -->
      <g style="fill: #262626" transform="translate(22.46125 99.840797) scale(0.11 -0.11)">
       <use xlink:href="#ArialMT-31"/>
       <use xlink:href="#ArialMT-2e" x="55.615234"/>
       <use xlink:href="#ArialMT-30" x="83.398438"/>
      </g>
     </g>
    </g>
    <g id="ytick_7">
     <g id="line2d_18">
      <g>
       <use xlink:href="#m54faa6e5da" x="41.25125" y="60.4224" style="fill: #262626; stroke: #262626; stroke-width: 1.25"/>
      </g>
     </g>
     <g id="text_14">
      <!-- 1.2 -->
      <g style="fill: #262626" transform="translate(22.46125 64.359197) scale(0.11 -0.11)">
       <use xlink:href="#ArialMT-31"/>
       <use xlink:href="#ArialMT-2e" x="55.615234"/>
       <use xlink:href="#ArialMT-32" x="83.398438"/>
      </g>
     </g>
    </g>
    <g id="ytick_8">
     <g id="line2d_19">
      <g>
       <use xlink:href="#m54faa6e5da" x="41.25125" y="24.9408" style="fill: #262626; stroke: #262626; stroke-width: 1.25"/>
      </g>
     </g>
     <g id="text_15">
      <!-- 1.4 -->
      <g style="fill: #262626" transform="translate(22.46125 28.877597) scale(0.11 -0.11)">
       <use xlink:href="#ArialMT-31"/>
       <use xlink:href="#ArialMT-2e" x="55.615234"/>
       <use xlink:href="#ArialMT-34" x="83.398438"/>
      </g>
     </g>
    </g>
    <g id="ytick_9">
     <g id="line2d_20">
      <defs>
       <path id="m57c2f2f5b0" d="M 0 0 
L 4 0 
" style="stroke: #262626"/>
      </defs>
      <g>
       <use xlink:href="#m57c2f2f5b0" x="41.25125" y="255.5712" style="fill: #262626; stroke: #262626"/>
      </g>
     </g>
    </g>
    <g id="ytick_10">
     <g id="line2d_21">
      <g>
       <use xlink:href="#m57c2f2f5b0" x="41.25125" y="220.0896" style="fill: #262626; stroke: #262626"/>
      </g>
     </g>
    </g>
    <g id="ytick_11">
     <g id="line2d_22">
      <g>
       <use xlink:href="#m57c2f2f5b0" x="41.25125" y="184.608" style="fill: #262626; stroke: #262626"/>
      </g>
     </g>
    </g>
    <g id="ytick_12">
     <g id="line2d_23">
      <g>
       <use xlink:href="#m57c2f2f5b0" x="41.25125" y="149.1264" style="fill: #262626; stroke: #262626"/>
      </g>
     </g>
    </g>
    <g id="ytick_13">
     <g id="line2d_24">
      <g>
       <use xlink:href="#m57c2f2f5b0" x="41.25125" y="113.6448" style="fill: #262626; stroke: #262626"/>
      </g>
     </g>
    </g>
    <g id="ytick_14">
     <g id="line2d_25">
      <g>
       <use xlink:href="#m57c2f2f5b0" x="41.25125" y="78.1632" style="fill: #262626; stroke: #262626"/>
      </g>
     </g>
    </g>
    <g id="ytick_15">
     <g id="line2d_26">
      <g>
       <use xlink:href="#m57c2f2f5b0" x="41.25125" y="42.6816" style="fill: #262626; stroke: #262626"/>
      </g>
     </g>
    </g>
    <g id="text_16">
     <!-- Absorbance (a.u.) -->
     <g style="fill: #262626" transform="translate(15.935625 187.94475) rotate(-90) scale(0.12 -0.12)">
      <defs>
       <path id="ArialMT-41" d="M -9 0 
L 1750 4581 
L 2403 4581 
L 4278 0 
L 3588 0 
L 3053 1388 
L 1138 1388 
L 634 0 
L -9 0 
z
M 1313 1881 
L 2866 1881 
L 2388 3150 
Q 2169 3728 2063 4100 
Q 1975 3659 1816 3225 
L 1313 1881 
z
" transform="scale(0.015625)"/>
       <path id="ArialMT-62" d="M 941 0 
L 419 0 
L 419 4581 
L 981 4581 
L 981 2947 
Q 1338 3394 1891 3394 
Q 2197 3394 2470 3270 
Q 2744 3147 2920 2923 
Q 3097 2700 3197 2384 
Q 3297 2069 3297 1709 
Q 3297 856 2875 390 
Q 2453 -75 1863 -75 
Q 1275 -75 941 416 
L 941 0 
z
M 934 1684 
Q 934 1088 1097 822 
Q 1363 388 1816 388 
Q 2184 388 2453 708 
Q 2722 1028 2722 1663 
Q 2722 2313 2464 2622 
Q 2206 2931 1841 2931 
Q 1472 2931 1203 2611 
Q 934 2291 934 1684 
z
" transform="scale(0.015625)"/>
       <path id="ArialMT-73" d="M 197 991 
L 753 1078 
Q 800 744 1014 566 
Q 1228 388 1613 388 
Q 2000 388 2187 545 
Q 2375 703 2375 916 
Q 2375 1106 2209 1216 
Q 2094 1291 1634 1406 
Q 1016 1563 777 1677 
Q 538 1791 414 1992 
Q 291 2194 291 2438 
Q 291 2659 392 2848 
Q 494 3038 669 3163 
Q 800 3259 1026 3326 
Q 1253 3394 1513 3394 
Q 1903 3394 2198 3281 
Q 2494 3169 2634 2976 
Q 2775 2784 2828 2463 
L 2278 2388 
Q 2241 2644 2061 2787 
Q 1881 2931 1553 2931 
Q 1166 2931 1000 2803 
Q 834 2675 834 2503 
Q 834 2394 903 2306 
Q 972 2216 1119 2156 
Q 1203 2125 1616 2013 
Q 2213 1853 2448 1751 
Q 2684 1650 2818 1456 
Q 2953 1263 2953 975 
Q 2953 694 2789 445 
Q 2625 197 2315 61 
Q 2006 -75 1616 -75 
Q 969 -75 630 194 
Q 291 463 197 991 
z
" transform="scale(0.015625)"/>
       <path id="ArialMT-6f" d="M 213 1659 
Q 213 2581 725 3025 
Q 1153 3394 1769 3394 
Q 2453 3394 2887 2945 
Q 3322 2497 3322 1706 
Q 3322 1066 3130 698 
Q 2938 331 2570 128 
Q 2203 -75 1769 -75 
Q 1072 -75 642 372 
Q 213 819 213 1659 
z
M 791 1659 
Q 791 1022 1069 705 
Q 1347 388 1769 388 
Q 2188 388 2466 706 
Q 2744 1025 2744 1678 
Q 2744 2294 2464 2611 
Q 2184 2928 1769 2928 
Q 1347 2928 1069 2612 
Q 791 2297 791 1659 
z
" transform="scale(0.015625)"/>
       <path id="ArialMT-72" d="M 416 0 
L 416 3319 
L 922 3319 
L 922 2816 
Q 1116 3169 1280 3281 
Q 1444 3394 1641 3394 
Q 1925 3394 2219 3213 
L 2025 2691 
Q 1819 2813 1613 2813 
Q 1428 2813 1281 2702 
Q 1134 2591 1072 2394 
Q 978 2094 978 1738 
L 978 0 
L 416 0 
z
" transform="scale(0.015625)"/>
       <path id="ArialMT-63" d="M 2588 1216 
L 3141 1144 
Q 3050 572 2676 248 
Q 2303 -75 1759 -75 
Q 1078 -75 664 370 
Q 250 816 250 1647 
Q 250 2184 428 2587 
Q 606 2991 970 3192 
Q 1334 3394 1763 3394 
Q 2303 3394 2647 3120 
Q 2991 2847 3088 2344 
L 2541 2259 
Q 2463 2594 2264 2762 
Q 2066 2931 1784 2931 
Q 1359 2931 1093 2626 
Q 828 2322 828 1663 
Q 828 994 1084 691 
Q 1341 388 1753 388 
Q 2084 388 2306 591 
Q 2528 794 2588 1216 
z
" transform="scale(0.015625)"/>
       <path id="ArialMT-75" d="M 2597 0 
L 2597 488 
Q 2209 -75 1544 -75 
Q 1250 -75 995 37 
Q 741 150 617 320 
Q 494 491 444 738 
Q 409 903 409 1263 
L 409 3319 
L 972 3319 
L 972 1478 
Q 972 1038 1006 884 
Q 1059 663 1231 536 
Q 1403 409 1656 409 
Q 1909 409 2131 539 
Q 2353 669 2445 892 
Q 2538 1116 2538 1541 
L 2538 3319 
L 3100 3319 
L 3100 0 
L 2597 0 
z
" transform="scale(0.015625)"/>
      </defs>
      <use xlink:href="#ArialMT-41"/>
      <use xlink:href="#ArialMT-62" x="66.699219"/>
      <use xlink:href="#ArialMT-73" x="122.314453"/>
      <use xlink:href="#ArialMT-6f" x="172.314453"/>
      <use xlink:href="#ArialMT-72" x="227.929688"/>
      <use xlink:href="#ArialMT-62" x="261.230469"/>
      <use xlink:href="#ArialMT-61" x="316.845703"/>
      <use xlink:href="#ArialMT-6e" x="372.460938"/>
      <use xlink:href="#ArialMT-63" x="428.076172"/>
      <use xlink:href="#ArialMT-65" x="478.076172"/>
      <use xlink:href="#ArialMT-20" x="533.691406"/>
      <use xlink:href="#ArialMT-28" x="561.474609"/>
      <use xlink:href="#ArialMT-61" x="594.775391"/>
      <use xlink:href="#ArialMT-2e" x="650.390625"/>
      <use xlink:href="#ArialMT-75" x="678.173828"/>
      <use xlink:href="#ArialMT-2e" x="733.789062"/>
      <use xlink:href="#ArialMT-29" x="761.572266"/>
     </g>
    </g>
   </g>
   <g id="PolyCollection_1"/>
   <g id="PolyCollection_2"/>
   <g id="PolyCollection_3"/>
   <g id="PolyCollection_4"/>
   <g id="PolyCollection_5"/>
   <g id="line2d_27">
    <path d="M 41.467683 237.309233 
L 42.333435 235.2643 
L 43.632053 231.329855 
L 44.930671 226.509624 
L 46.22929 220.898096 
L 48.39365 209.755448 
L 52.289505 188.209145 
L 54.020999 179.47144 
L 54.886741 175.8459 
L 55.752483 172.917453 
L 56.618235 170.644149 
L 57.70041 168.661947 
L 58.349719 167.850768 
L 58.999029 167.34633 
L 59.648338 167.138269 
L 60.297647 167.317166 
L 60.730523 167.618841 
L 61.379832 168.393221 
L 62.029141 169.559095 
L 63.111326 172.177408 
L 67.223614 183.859051 
L 68.089356 185.336086 
L 68.738665 186.112433 
L 69.387984 186.57045 
L 70.037293 186.709819 
L 70.686602 186.582203 
L 71.552344 185.970276 
L 72.418086 184.958481 
L 73.283838 183.550714 
L 74.149581 181.849736 
L 75.448199 178.69302 
L 76.530384 175.662975 
L 78.478311 169.223561 
L 79.993362 163.595474 
L 83.456341 149.326818 
L 89.516566 123.211484 
L 91.24805 116.747432 
L 92.763111 112.004301 
L 94.061729 108.780533 
L 94.927471 107.072587 
L 96.009657 105.461311 
L 96.875399 104.582668 
L 97.524708 104.165849 
L 98.39045 103.985683 
L 99.039759 104.138641 
L 99.689068 104.547561 
L 100.338377 105.267209 
L 100.987686 106.321069 
L 101.636995 107.692508 
L 102.502748 110.110447 
L 103.36849 113.226325 
L 104.450675 117.974891 
L 105.749293 124.858554 
L 107.264344 134.124077 
L 109.861581 151.517324 
L 113.108116 174.770215 
L 115.488929 193.790789 
L 120.899825 238.443095 
L 122.198443 246.924697 
L 123.497062 253.837603 
L 124.579257 258.45935 
L 125.661432 262.066363 
L 126.743627 264.871945 
L 127.825802 267.000213 
L 128.907977 268.597792 
L 129.990172 269.764057 
L 131.28879 270.751417 
L 132.587409 271.44421 
L 134.10245 271.989251 
L 137.348995 272.590272 
L 139.513366 272.775936 
L 143.192777 272.964571 
L 152.499548 273.113321 
L 219.378384 273.222861 
L 219.594827 273.294556 
L 220.244136 273.209908 
L 222.408486 273.176981 
L 222.624929 273.293128 
L 223.057795 273.253554 
L 224.356414 273.091913 
L 224.572857 273.291791 
L 224.7893 273.335004 
L 225.005723 273.208736 
L 225.222166 273.311219 
L 225.871475 273.138861 
L 226.087918 273.333636 
L 226.304341 273.256256 
L 226.520784 273.330037 
L 226.95365 273.065445 
L 227.170093 273.232299 
L 227.386536 273.242302 
L 227.602959 273.074806 
L 228.035845 273.138111 
L 228.252268 273.391774 
L 229.11802 273.128794 
L 229.550886 273.38882 
L 229.767329 273.146929 
L 229.983772 273.361352 
L 230.416638 273.186871 
L 230.633081 273.460714 
L 231.065948 273.136551 
L 231.28239 273.322415 
L 231.498814 273.293247 
L 231.715257 273.428393 
L 231.9317 273.384305 
L 232.364566 273.06404 
L 232.581009 273.276621 
L 233.230318 273.368823 
L 233.446741 273.083227 
L 233.663184 273.451299 
L 233.879627 273.152783 
L 234.09605 273.284726 
L 234.312493 273.065639 
L 234.745359 273.203125 
L 234.961802 273.570887 
L 235.611111 272.835277 
L 235.827534 273.259684 
L 239.939832 273.259726 
L 246.649346 273.25086 
L 252.709571 273.275179 
L 266.345062 273.248185 
L 280.846305 273.249284 
L 305.087164 273.25064 
L 312.229564 273.335463 
L 321.103468 273.215527 
L 323.700705 273.219008 
L 328.895177 273.211104 
L 336.90331 273.225495 
L 353.3525 273.21029 
L 358.546972 273.202104 
L 362.009941 273.208736 
L 384.519336 273.228401 
L 386.034377 273.218194 
L 387.549419 273.253471 
L 388.41519 273.238593 
L 398.37125 273.255332 
L 398.37125 273.255332 
" clip-path="url(#pe19a6c2220)" style="fill: none; stroke: #f6ab83; stroke-linecap: round"/>
   </g>
   <g id="line2d_28">
    <path d="M 41.467683 178.955074 
L 42.116992 174.722218 
L 42.982744 169.446182 
L 43.41561 165.671904 
L 43.848486 160.249319 
L 44.497795 148.973582 
L 46.22929 114.820206 
L 46.662156 109.504675 
L 47.095032 105.817497 
L 48.177217 98.66403 
L 48.610083 93.755569 
L 49.042959 86.444787 
L 49.692268 70.572553 
L 51.207319 29.21011 
L 51.640195 23.415752 
L 51.856629 22.137145 
L 52.073071 21.922951 
L 52.289505 22.659792 
L 52.722381 26.718478 
L 53.588123 39.958208 
L 54.237432 49.179012 
L 54.670308 52.860152 
L 54.886741 53.727078 
L 55.103174 53.930804 
L 55.319617 53.393796 
L 55.53605 52.354466 
L 55.968926 48.539201 
L 57.051101 37.816079 
L 57.267544 37.148056 
L 57.483977 37.467951 
L 57.70041 38.982239 
L 57.916853 41.65945 
L 58.349719 51.154151 
L 58.999029 73.916858 
L 60.081214 124.994054 
L 61.163399 173.105169 
L 62.029141 202.145708 
L 62.894883 221.970895 
L 63.544192 232.146945 
L 64.193501 239.51684 
L 64.84281 244.757074 
L 65.492119 248.489925 
L 66.357871 251.966137 
L 67.223614 254.355958 
L 68.089356 256.061774 
L 68.955108 257.396089 
L 70.253726 258.836538 
L 71.552344 259.889088 
L 73.283838 260.934712 
L 75.231766 261.844203 
L 78.694744 262.888252 
L 83.672784 263.742013 
L 99.256202 265.570287 
L 102.069871 265.921357 
L 105.965726 266.526245 
L 110.078014 267.005402 
L 112.891693 267.272569 
L 115.272486 267.473825 
L 137.132572 268.627109 
L 151.200929 268.593554 
L 161.806318 267.944672 
L 167.00079 267.524215 
L 169.598027 267.414728 
L 171.97882 267.419561 
L 176.740427 267.697036 
L 179.337663 267.95925 
L 181.502014 268.144502 
L 182.367766 268.248397 
L 185.614311 268.564059 
L 191.458093 269.089482 
L 194.055329 269.291285 
L 204.660718 269.874431 
L 205.52645 269.913811 
L 206.825068 269.955613 
L 224.572857 271.079099 
L 225.438609 271.229657 
L 225.655032 271.064986 
L 226.737227 271.215227 
L 226.95365 271.095898 
L 227.386536 271.256169 
L 227.819402 271.102676 
L 228.252268 271.504449 
L 228.468711 271.276518 
L 228.685154 271.291247 
L 228.901577 271.458315 
L 229.334463 271.253428 
L 229.550886 271.299521 
L 229.767329 271.206742 
L 229.983772 271.500086 
L 230.416638 271.253584 
L 230.849505 271.601265 
L 231.28239 271.352468 
L 231.715257 271.647924 
L 231.9317 271.261192 
L 232.148123 271.621673 
L 232.364566 271.416911 
L 232.581009 271.410015 
L 232.797432 271.637219 
L 233.013875 271.489342 
L 233.230318 271.858711 
L 233.446741 271.508511 
L 233.879627 271.727386 
L 234.09605 271.446704 
L 234.528936 271.33571 
L 234.961802 272.073705 
L 235.178245 272.064749 
L 235.611111 271.369669 
L 235.827534 271.786706 
L 240.372698 271.9733 
L 249.246582 272.23944 
L 269.158741 272.645611 
L 272.188843 272.7095 
L 282.794232 272.907989 
L 292.533868 273.042605 
L 299.459845 273.134861 
L 311.580255 273.390737 
L 312.229564 273.422789 
L 313.961068 273.360875 
L 321.319891 273.155724 
L 335.604691 273.167825 
L 338.201928 273.177818 
L 343.179977 273.190206 
L 352.270305 273.226599 
L 365.256486 273.26802 
L 369.80165 273.268916 
L 375.212546 273.274071 
L 381.489214 273.241213 
L 388.198728 273.056774 
L 390.363118 273.071752 
L 395.341128 273.008932 
L 398.37125 272.59481 
L 398.37125 272.59481 
" clip-path="url(#pe19a6c2220)" style="fill: none; stroke: #f06043; stroke-linecap: round"/>
   </g>
   <g id="line2d_29">
    <path d="M 41.467683 199.230574 
L 43.41561 189.379513 
L 44.064919 183.518653 
L 45.147105 170.259138 
L 46.22929 157.446315 
L 46.878599 151.924256 
L 48.610083 139.159504 
L 49.259392 131.24221 
L 51.423762 98.979653 
L 51.856629 96.34772 
L 52.073071 95.731046 
L 52.289505 95.6109 
L 52.505938 95.899791 
L 52.938814 97.378275 
L 54.453865 104.110418 
L 54.670308 104.52048 
L 54.886741 104.613588 
L 55.103174 104.48493 
L 55.319617 104.058139 
L 55.752483 102.569652 
L 56.834668 97.730675 
L 57.051101 97.280346 
L 57.267544 97.219046 
L 57.483977 97.662185 
L 57.70041 98.628183 
L 58.133286 102.348257 
L 58.566162 108.386893 
L 59.215471 120.944388 
L 61.812708 177.898856 
L 62.67845 190.656882 
L 63.544192 200.258003 
L 64.409944 207.511018 
L 65.275686 212.900104 
L 66.141429 216.891346 
L 67.007181 219.798222 
L 67.65649 221.386895 
L 68.522232 222.871284 
L 69.387984 223.737285 
L 70.253726 224.124951 
L 70.903035 224.182211 
L 71.552344 224.115572 
L 72.850962 223.662678 
L 74.149581 222.940763 
L 75.231766 222.135574 
L 76.530384 220.909321 
L 77.829002 219.304342 
L 79.776929 216.445072 
L 81.94129 213.487625 
L 83.239908 212.234798 
L 84.322093 211.516446 
L 85.404268 211.035303 
L 86.486453 210.69161 
L 88.217948 210.326901 
L 89.949432 210.220634 
L 90.598741 210.285804 
L 91.464493 210.52039 
L 92.330235 210.973348 
L 92.979544 211.467904 
L 94.061729 212.589355 
L 95.360348 214.446929 
L 96.658966 216.69276 
L 98.823326 220.97319 
L 103.36849 230.905943 
L 106.831468 239.047889 
L 112.025941 251.677819 
L 114.190311 256.475393 
L 115.921795 259.880603 
L 117.869723 263.113094 
L 119.601207 265.477927 
L 121.332711 267.385427 
L 123.064195 268.863396 
L 124.579257 269.853895 
L 126.527184 270.798394 
L 129.340863 271.684842 
L 131.072348 272.034635 
L 134.751759 272.47546 
L 142.110602 272.807325 
L 144.058529 272.839408 
L 146.439323 272.884169 
L 152.499548 272.945018 
L 190.375918 273.105406 
L 192.323845 273.106276 
L 196.436123 273.143335 
L 197.301875 273.115932 
L 198.167627 273.127018 
L 204.877141 273.133747 
L 205.52645 273.156221 
L 207.474377 273.155038 
L 209.205881 273.146188 
L 210.288057 273.16431 
L 211.803118 273.156092 
L 217.863323 273.167163 
L 218.079766 273.217748 
L 218.512632 273.179078 
L 219.594827 273.217224 
L 220.244136 273.225753 
L 221.326311 273.178678 
L 221.97562 273.217964 
L 222.408486 273.205668 
L 222.841372 273.19716 
L 223.923548 273.175941 
L 224.356414 273.088966 
L 224.572857 273.370237 
L 225.005723 273.216245 
L 225.222166 273.202077 
L 225.655032 273.349529 
L 225.871475 273.206064 
L 226.520784 273.454498 
L 226.95365 273.193793 
L 228.035845 273.114343 
L 228.468711 273.382892 
L 228.685154 273.232212 
L 229.11802 273.099249 
L 229.334463 273.315508 
L 229.550886 273.32831 
L 229.767329 273.106184 
L 230.200195 273.416626 
L 230.416638 273.217091 
L 230.633081 273.427962 
L 230.849505 273.278271 
L 231.28239 273.389334 
L 231.498814 273.233017 
L 231.715257 273.360719 
L 231.9317 273.074977 
L 232.364566 273.326988 
L 232.797432 273.19791 
L 233.230318 273.350043 
L 233.446741 273.105047 
L 233.663184 273.420937 
L 233.879627 273.238625 
L 234.312493 273.183554 
L 234.528936 272.929499 
L 234.961802 273.198885 
L 235.178245 273.060649 
L 235.394668 273.469413 
L 235.611111 272.979876 
L 235.827534 273.29977 
L 250.112334 273.331056 
L 254.657498 273.33337 
L 259.202662 273.357506 
L 279.980572 273.339972 
L 289.720209 273.335197 
L 299.243382 273.341046 
L 311.363832 273.565111 
L 313.528182 273.536955 
L 318.939118 273.287946 
L 321.752777 273.281436 
L 325.865055 273.187193 
L 331.059528 273.241842 
L 338.634814 273.283788 
L 356.382582 273.311729 
L 367.420837 273.343993 
L 371.316691 273.347142 
L 375.645432 273.371962 
L 378.459091 273.35836 
L 381.489214 273.318346 
L 388.848037 273.127179 
L 392.311045 273.11042 
L 397.938364 272.765817 
L 398.37125 272.665957 
L 398.37125 272.665957 
" clip-path="url(#pe19a6c2220)" style="fill: none; stroke: #ca1a50; stroke-linecap: round"/>
   </g>
   <g id="line2d_30">
    <path d="M 41.467683 208.065409 
L 43.199177 198.798512 
L 43.848486 193.411398 
L 44.714229 183.532431 
L 46.22929 165.21965 
L 46.878599 159.837226 
L 48.610083 148.007711 
L 49.259392 140.56955 
L 50.341577 123.69931 
L 50.990886 114.130695 
L 51.423762 109.661693 
L 51.856629 107.158683 
L 52.073071 106.635306 
L 52.289505 106.524953 
L 52.505938 106.80844 
L 52.938814 108.379977 
L 54.453865 115.31905 
L 54.670308 115.707107 
L 54.886741 115.756743 
L 55.103174 115.534872 
L 55.319617 115.068734 
L 55.752483 113.390164 
L 57.051101 107.028767 
L 57.267544 106.727293 
L 57.483977 106.945737 
L 57.70041 107.668874 
L 57.916853 108.926089 
L 58.349719 113.30559 
L 58.999029 123.803827 
L 60.081214 147.495225 
L 61.163399 170.466585 
L 62.029141 184.998992 
L 62.894883 195.63423 
L 63.760635 203.325329 
L 64.626377 208.923512 
L 65.492119 213.054203 
L 66.357871 216.126446 
L 67.223614 218.390375 
L 68.089356 219.995396 
L 68.955108 221.098443 
L 69.604417 221.592788 
L 70.470159 221.978038 
L 71.335911 222.0288 
L 72.201653 221.848883 
L 73.283838 221.339427 
L 74.366014 220.603252 
L 75.664632 219.417546 
L 78.045435 216.410949 
L 79.560486 214.061774 
L 86.053577 203.647962 
L 91.464493 196.2986 
L 92.979544 194.968136 
L 94.061729 194.372272 
L 95.143905 194.089435 
L 96.009657 194.048148 
L 97.091832 194.250049 
L 97.957584 194.57651 
L 99.256202 195.330609 
L 100.55482 196.491777 
L 101.636995 197.787578 
L 102.719181 199.427458 
L 104.017799 201.905671 
L 105.316417 204.915704 
L 106.615035 208.385383 
L 108.562962 214.208118 
L 111.160189 222.388238 
L 115.488929 236.9098 
L 121.116268 256.608209 
L 122.631329 260.809737 
L 123.929948 263.748622 
L 125.228566 266.078171 
L 126.310741 267.584114 
L 127.392936 268.770285 
L 128.475111 269.69552 
L 130.423038 270.827701 
L 132.587409 271.569752 
L 134.10245 271.911018 
L 139.729809 272.489985 
L 144.274972 272.683331 
L 187.562238 273.093009 
L 191.890959 273.132744 
L 202.929214 273.175154 
L 203.794966 273.152162 
L 204.660718 273.152659 
L 213.101736 273.162175 
L 213.967468 273.197914 
L 215.266086 273.17595 
L 216.781148 273.159778 
L 217.430457 273.156699 
L 222.192063 273.219647 
L 223.057795 273.206436 
L 223.707105 273.249881 
L 224.356414 273.123593 
L 224.572857 273.365685 
L 224.7893 273.252221 
L 225.655032 273.297744 
L 225.871475 273.14802 
L 226.087918 273.376487 
L 226.304341 273.329881 
L 226.520784 273.505986 
L 226.737227 273.188444 
L 227.170093 273.282419 
L 227.386536 273.312992 
L 227.602959 273.150781 
L 227.819402 273.164669 
L 228.035845 273.335096 
L 228.252268 273.162603 
L 228.685154 273.399729 
L 228.901577 273.183798 
L 229.334463 273.238685 
L 229.550886 273.28762 
L 229.767329 272.996806 
L 229.983772 273.381057 
L 230.200195 273.333499 
L 230.416638 273.042213 
L 230.633081 273.383801 
L 230.849505 273.262276 
L 231.28239 273.274094 
L 231.498814 273.177362 
L 231.715257 273.357736 
L 231.9317 273.074742 
L 232.148123 273.222295 
L 232.364566 272.963741 
L 232.581009 273.289724 
L 232.797432 273.323453 
L 233.013875 273.042835 
L 233.230318 273.289857 
L 233.663184 273.257226 
L 234.09605 273.225128 
L 234.312493 272.873306 
L 234.528936 273.085037 
L 234.745359 272.977215 
L 234.961802 273.145756 
L 235.178245 273.134153 
L 235.394668 273.287941 
L 235.611111 273.113252 
L 236.2604 273.140946 
L 241.454873 273.137421 
L 244.268552 273.142902 
L 292.533868 273.238101 
L 307.900863 273.456368 
L 309.632328 273.672182 
L 310.4981 273.890128 
L 312.446027 274.23 
L 313.311759 274.182236 
L 315.908995 273.462465 
L 318.506232 273.171423 
L 321.9692 272.972137 
L 327.596559 272.559068 
L 333.007455 272.948927 
L 335.388268 273.037719 
L 350.322377 273.186241 
L 355.51685 273.156584 
L 359.196281 273.168975 
L 365.040063 273.237237 
L 369.80165 273.265185 
L 381.056328 273.174234 
L 386.034377 272.782359 
L 386.90011 272.731755 
L 387.982305 272.634742 
L 393.3932 272.400935 
L 394.691819 272.289405 
L 398.37125 271.946561 
L 398.37125 271.946561 
" clip-path="url(#pe19a6c2220)" style="fill: none; stroke: #841e5a; stroke-linecap: round"/>
   </g>
   <g id="line2d_31">
    <path d="M 41.467683 181.94941 
L 42.333435 175.670398 
L 42.982744 170.885043 
L 43.632053 163.746169 
L 44.281362 152.931314 
L 46.662156 107.356318 
L 47.311465 102.059197 
L 48.177217 95.966864 
L 48.610083 90.819159 
L 49.042959 83.324764 
L 49.692268 67.198831 
L 51.207319 25.841188 
L 51.640195 20.188188 
L 51.856629 19.14615 
L 52.073071 19.081647 
L 52.289505 19.970589 
L 52.722381 24.2422 
L 53.588123 37.982689 
L 54.237432 47.30378 
L 54.670308 50.953704 
L 54.886741 51.820165 
L 55.103174 51.990433 
L 55.319617 51.438453 
L 55.752483 48.626968 
L 57.051101 36.052808 
L 57.267544 35.497296 
L 57.483977 35.948756 
L 57.70041 37.632784 
L 58.133286 44.834904 
L 58.566162 57.158452 
L 59.215471 83.218133 
L 61.379832 182.112783 
L 62.245574 208.697099 
L 62.894883 222.761607 
L 63.544192 232.786833 
L 64.193501 239.985559 
L 64.84281 245.028409 
L 65.492119 248.58715 
L 66.357871 251.870629 
L 67.223614 254.086168 
L 68.305799 256.017233 
L 69.387984 257.413973 
L 71.119468 259.057765 
L 73.067395 260.456963 
L 76.530384 262.362318 
L 81.724857 264.38881 
L 87.135762 265.678418 
L 93.195977 266.48978 
L 97.741141 266.954298 
L 98.823326 267.032037 
L 102.286305 267.350365 
L 123.713505 269.133105 
L 125.877875 269.270428 
L 128.475111 269.429051 
L 143.842086 270.162831 
L 145.357148 270.172514 
L 150.768063 270.247982 
L 159.641948 270.1492 
L 162.022741 270.050877 
L 167.6501 269.955315 
L 169.598027 269.981809 
L 171.545954 270.002919 
L 173.060995 270.073654 
L 182.584209 270.541764 
L 189.943032 270.941124 
L 193.189577 271.072854 
L 198.38405 271.247603 
L 199.682668 271.253905 
L 200.981286 271.296079 
L 203.3621 271.341265 
L 206.608645 271.362925 
L 221.326311 271.878583 
L 221.542754 271.981505 
L 222.408486 271.952825 
L 223.274238 272.123764 
L 223.490681 271.961897 
L 223.707105 272.126222 
L 224.356414 271.993208 
L 224.572857 272.168322 
L 225.222166 272.302039 
L 225.438609 272.43336 
L 225.655032 272.242672 
L 225.871475 272.214197 
L 226.087918 272.384204 
L 226.304341 272.2736 
L 226.520784 272.36315 
L 226.737227 272.237089 
L 227.170093 272.295539 
L 227.602959 272.262842 
L 227.819402 272.06565 
L 228.252268 272.379965 
L 228.901577 272.26854 
L 229.11802 272.143176 
L 229.334463 272.377032 
L 229.767329 272.147676 
L 230.200195 272.472085 
L 230.416638 272.279511 
L 230.633081 272.570318 
L 230.849505 272.305878 
L 231.28239 272.24359 
L 231.9317 272.313136 
L 232.364566 272.203547 
L 232.581009 272.424552 
L 233.013875 272.393067 
L 233.230318 272.701784 
L 233.446741 272.204041 
L 233.663184 272.429411 
L 233.879627 272.301979 
L 234.09605 272.606907 
L 234.312493 272.214984 
L 234.528936 272.185352 
L 234.961802 272.658432 
L 235.178245 272.695859 
L 235.394668 272.589503 
L 235.611111 272.288679 
L 235.827534 272.557074 
L 237.775462 272.622918 
L 242.969934 272.795189 
L 249.895891 272.926707 
L 290.802364 273.269647 
L 294.265372 273.28547 
L 306.169359 273.391728 
L 307.6844 273.511125 
L 308.550172 273.629633 
L 310.4981 274.270767 
L 311.363832 274.679995 
L 312.66245 275.21275 
L 313.311759 275.213682 
L 313.961068 274.933452 
L 315.908995 273.872176 
L 317.207614 273.501615 
L 320.237736 272.941682 
L 323.484281 272.5669 
L 326.730827 272.189821 
L 330.193795 272.93746 
L 333.007455 273.105162 
L 339.284123 273.233881 
L 349.673068 273.279709 
L 377.376936 273.259248 
L 381.056328 273.018282 
L 383.220718 272.679696 
L 386.2508 272.5536 
L 388.848037 272.38445 
L 390.579541 272.469114 
L 395.990437 272.296772 
L 398.154827 272.227854 
L 398.37125 272.17763 
L 398.37125 272.17763 
" clip-path="url(#pe19a6c2220)" style="fill: none; stroke: #3f1b43; stroke-linecap: round"/>
   </g>
   <g id="line2d_32"/>
   <g id="line2d_33"/>
   <g id="line2d_34"/>
   <g id="line2d_35"/>
   <g id="line2d_36"/>
   <g id="patch_3">
    <path d="M 41.25125 273.312 
L 41.25125 7.2 
" style="fill: none; stroke: #262626; stroke-width: 1.25; stroke-linejoin: miter; stroke-linecap: square"/>
   </g>
   <g id="patch_4">
    <path d="M 41.25125 273.312 
L 398.37125 273.312 
" style="fill: none; stroke: #262626; stroke-width: 1.25; stroke-linejoin: miter; stroke-linecap: square"/>
   </g>
   <g id="legend_1">
    <g id="line2d_37">
     <path d="M 254.862688 41.479012 
L 260.862688 41.479012 
L 266.862688 41.479012 
" style="fill: none; stroke: #f6ab83; stroke-width: 1.5; stroke-linecap: round"/>
    </g>
    <g id="text_17">
     <!-- imine polymer 0% TFA_Abs -->
     <g style="fill: #262626" transform="translate(271.662688 43.579012) scale(0.06 -0.06)">
      <defs>
       <path id="ArialMT-69" d="M 425 3934 
L 425 4581 
L 988 4581 
L 988 3934 
L 425 3934 
z
M 425 0 
L 425 3319 
L 988 3319 
L 988 0 
L 425 0 
z
" transform="scale(0.015625)"/>
       <path id="ArialMT-70" d="M 422 -1272 
L 422 3319 
L 934 3319 
L 934 2888 
Q 1116 3141 1344 3267 
Q 1572 3394 1897 3394 
Q 2322 3394 2647 3175 
Q 2972 2956 3137 2557 
Q 3303 2159 3303 1684 
Q 3303 1175 3120 767 
Q 2938 359 2589 142 
Q 2241 -75 1856 -75 
Q 1575 -75 1351 44 
Q 1128 163 984 344 
L 984 -1272 
L 422 -1272 
z
M 931 1641 
Q 931 1000 1190 694 
Q 1450 388 1819 388 
Q 2194 388 2461 705 
Q 2728 1022 2728 1688 
Q 2728 2322 2467 2637 
Q 2206 2953 1844 2953 
Q 1484 2953 1207 2617 
Q 931 2281 931 1641 
z
" transform="scale(0.015625)"/>
       <path id="ArialMT-79" d="M 397 -1278 
L 334 -750 
Q 519 -800 656 -800 
Q 844 -800 956 -737 
Q 1069 -675 1141 -563 
Q 1194 -478 1313 -144 
Q 1328 -97 1363 -6 
L 103 3319 
L 709 3319 
L 1400 1397 
Q 1534 1031 1641 628 
Q 1738 1016 1872 1384 
L 2581 3319 
L 3144 3319 
L 1881 -56 
Q 1678 -603 1566 -809 
Q 1416 -1088 1222 -1217 
Q 1028 -1347 759 -1347 
Q 597 -1347 397 -1278 
z
" transform="scale(0.015625)"/>
       <path id="ArialMT-25" d="M 372 3481 
Q 372 3972 619 4315 
Q 866 4659 1334 4659 
Q 1766 4659 2048 4351 
Q 2331 4044 2331 3447 
Q 2331 2866 2045 2552 
Q 1759 2238 1341 2238 
Q 925 2238 648 2547 
Q 372 2856 372 3481 
z
M 1350 4272 
Q 1141 4272 1002 4090 
Q 863 3909 863 3425 
Q 863 2984 1003 2804 
Q 1144 2625 1350 2625 
Q 1563 2625 1702 2806 
Q 1841 2988 1841 3469 
Q 1841 3913 1700 4092 
Q 1559 4272 1350 4272 
z
M 1353 -169 
L 3859 4659 
L 4316 4659 
L 1819 -169 
L 1353 -169 
z
M 3334 1075 
Q 3334 1569 3581 1911 
Q 3828 2253 4300 2253 
Q 4731 2253 5014 1945 
Q 5297 1638 5297 1041 
Q 5297 459 5011 145 
Q 4725 -169 4303 -169 
Q 3888 -169 3611 142 
Q 3334 453 3334 1075 
z
M 4316 1866 
Q 4103 1866 3964 1684 
Q 3825 1503 3825 1019 
Q 3825 581 3965 400 
Q 4106 219 4313 219 
Q 4528 219 4667 400 
Q 4806 581 4806 1063 
Q 4806 1506 4665 1686 
Q 4525 1866 4316 1866 
z
" transform="scale(0.015625)"/>
       <path id="ArialMT-54" d="M 1659 0 
L 1659 4041 
L 150 4041 
L 150 4581 
L 3781 4581 
L 3781 4041 
L 2266 4041 
L 2266 0 
L 1659 0 
z
" transform="scale(0.015625)"/>
       <path id="ArialMT-46" d="M 525 0 
L 525 4581 
L 3616 4581 
L 3616 4041 
L 1131 4041 
L 1131 2622 
L 3281 2622 
L 3281 2081 
L 1131 2081 
L 1131 0 
L 525 0 
z
" transform="scale(0.015625)"/>
       <path id="ArialMT-5f" d="M -97 -1272 
L -97 -866 
L 3631 -866 
L 3631 -1272 
L -97 -1272 
z
" transform="scale(0.015625)"/>
      </defs>
      <use xlink:href="#ArialMT-69"/>
      <use xlink:href="#ArialMT-6d" x="22.216797"/>
      <use xlink:href="#ArialMT-69" x="105.517578"/>
      <use xlink:href="#ArialMT-6e" x="127.734375"/>
      <use xlink:href="#ArialMT-65" x="183.349609"/>
      <use xlink:href="#ArialMT-20" x="238.964844"/>
      <use xlink:href="#ArialMT-70" x="266.748047"/>
      <use xlink:href="#ArialMT-6f" x="322.363281"/>
      <use xlink:href="#ArialMT-6c" x="377.978516"/>
      <use xlink:href="#ArialMT-79" x="400.195312"/>
      <use xlink:href="#ArialMT-6d" x="450.195312"/>
      <use xlink:href="#ArialMT-65" x="533.496094"/>
      <use xlink:href="#ArialMT-72" x="589.111328"/>
      <use xlink:href="#ArialMT-20" x="622.412109"/>
      <use xlink:href="#ArialMT-30" x="650.195312"/>
      <use xlink:href="#ArialMT-25" x="705.810547"/>
      <use xlink:href="#ArialMT-20" x="794.726562"/>
      <use xlink:href="#ArialMT-54" x="820.759766"/>
      <use xlink:href="#ArialMT-46" x="881.84375"/>
      <use xlink:href="#ArialMT-41" x="937.427734"/>
      <use xlink:href="#ArialMT-5f" x="1004.126953"/>
      <use xlink:href="#ArialMT-41" x="1059.742188"/>
      <use xlink:href="#ArialMT-62" x="1126.441406"/>
      <use xlink:href="#ArialMT-73" x="1182.056641"/>
     </g>
    </g>
    <g id="line2d_38">
     <path d="M 254.862688 50.109637 
L 260.862688 50.109637 
L 266.862688 50.109637 
" style="fill: none; stroke: #f06043; stroke-width: 1.5; stroke-linecap: round"/>
    </g>
    <g id="text_18">
     <!-- imine polymer 0.017% TFA_Abs -->
     <g style="fill: #262626" transform="translate(271.662688 52.209637) scale(0.06 -0.06)">
      <defs>
       <path id="ArialMT-37" d="M 303 3981 
L 303 4522 
L 3269 4522 
L 3269 4084 
Q 2831 3619 2401 2847 
Q 1972 2075 1738 1259 
Q 1569 684 1522 0 
L 944 0 
Q 953 541 1156 1306 
Q 1359 2072 1739 2783 
Q 2119 3494 2547 3981 
L 303 3981 
z
" transform="scale(0.015625)"/>
      </defs>
      <use xlink:href="#ArialMT-69"/>
      <use xlink:href="#ArialMT-6d" x="22.216797"/>
      <use xlink:href="#ArialMT-69" x="105.517578"/>
      <use xlink:href="#ArialMT-6e" x="127.734375"/>
      <use xlink:href="#ArialMT-65" x="183.349609"/>
      <use xlink:href="#ArialMT-20" x="238.964844"/>
      <use xlink:href="#ArialMT-70" x="266.748047"/>
      <use xlink:href="#ArialMT-6f" x="322.363281"/>
      <use xlink:href="#ArialMT-6c" x="377.978516"/>
      <use xlink:href="#ArialMT-79" x="400.195312"/>
      <use xlink:href="#ArialMT-6d" x="450.195312"/>
      <use xlink:href="#ArialMT-65" x="533.496094"/>
      <use xlink:href="#ArialMT-72" x="589.111328"/>
      <use xlink:href="#ArialMT-20" x="622.412109"/>
      <use xlink:href="#ArialMT-30" x="650.195312"/>
      <use xlink:href="#ArialMT-2e" x="705.810547"/>
      <use xlink:href="#ArialMT-30" x="733.59375"/>
      <use xlink:href="#ArialMT-31" x="789.208984"/>
      <use xlink:href="#ArialMT-37" x="844.824219"/>
      <use xlink:href="#ArialMT-25" x="900.439453"/>
      <use xlink:href="#ArialMT-20" x="989.355469"/>
      <use xlink:href="#ArialMT-54" x="1015.388672"/>
      <use xlink:href="#ArialMT-46" x="1076.472656"/>
      <use xlink:href="#ArialMT-41" x="1132.056641"/>
      <use xlink:href="#ArialMT-5f" x="1198.755859"/>
      <use xlink:href="#ArialMT-41" x="1254.371094"/>
      <use xlink:href="#ArialMT-62" x="1321.070312"/>
      <use xlink:href="#ArialMT-73" x="1376.685547"/>
     </g>
    </g>
    <g id="line2d_39">
     <path d="M 254.862688 58.740262 
L 260.862688 58.740262 
L 266.862688 58.740262 
" style="fill: none; stroke: #ca1a50; stroke-width: 1.5; stroke-linecap: round"/>
    </g>
    <g id="text_19">
     <!-- imine polymer 0.05% TFA_Abs -->
     <g style="fill: #262626" transform="translate(271.662688 60.840262) scale(0.06 -0.06)">
      <defs>
       <path id="ArialMT-35" d="M 266 1200 
L 856 1250 
Q 922 819 1161 601 
Q 1400 384 1738 384 
Q 2144 384 2425 690 
Q 2706 997 2706 1503 
Q 2706 1984 2436 2262 
Q 2166 2541 1728 2541 
Q 1456 2541 1237 2417 
Q 1019 2294 894 2097 
L 366 2166 
L 809 4519 
L 3088 4519 
L 3088 3981 
L 1259 3981 
L 1013 2750 
Q 1425 3038 1878 3038 
Q 2478 3038 2890 2622 
Q 3303 2206 3303 1553 
Q 3303 931 2941 478 
Q 2500 -78 1738 -78 
Q 1113 -78 717 272 
Q 322 622 266 1200 
z
" transform="scale(0.015625)"/>
      </defs>
      <use xlink:href="#ArialMT-69"/>
      <use xlink:href="#ArialMT-6d" x="22.216797"/>
      <use xlink:href="#ArialMT-69" x="105.517578"/>
      <use xlink:href="#ArialMT-6e" x="127.734375"/>
      <use xlink:href="#ArialMT-65" x="183.349609"/>
      <use xlink:href="#ArialMT-20" x="238.964844"/>
      <use xlink:href="#ArialMT-70" x="266.748047"/>
      <use xlink:href="#ArialMT-6f" x="322.363281"/>
      <use xlink:href="#ArialMT-6c" x="377.978516"/>
      <use xlink:href="#ArialMT-79" x="400.195312"/>
      <use xlink:href="#ArialMT-6d" x="450.195312"/>
      <use xlink:href="#ArialMT-65" x="533.496094"/>
      <use xlink:href="#ArialMT-72" x="589.111328"/>
      <use xlink:href="#ArialMT-20" x="622.412109"/>
      <use xlink:href="#ArialMT-30" x="650.195312"/>
      <use xlink:href="#ArialMT-2e" x="705.810547"/>
      <use xlink:href="#ArialMT-30" x="733.59375"/>
      <use xlink:href="#ArialMT-35" x="789.208984"/>
      <use xlink:href="#ArialMT-25" x="844.824219"/>
      <use xlink:href="#ArialMT-20" x="933.740234"/>
      <use xlink:href="#ArialMT-54" x="959.773438"/>
      <use xlink:href="#ArialMT-46" x="1020.857422"/>
      <use xlink:href="#ArialMT-41" x="1076.441406"/>
      <use xlink:href="#ArialMT-5f" x="1143.140625"/>
      <use xlink:href="#ArialMT-41" x="1198.755859"/>
      <use xlink:href="#ArialMT-62" x="1265.455078"/>
      <use xlink:href="#ArialMT-73" x="1321.070312"/>
     </g>
    </g>
    <g id="line2d_40">
     <path d="M 254.862688 67.370887 
L 260.862688 67.370887 
L 266.862688 67.370887 
" style="fill: none; stroke: #841e5a; stroke-width: 1.5; stroke-linecap: round"/>
    </g>
    <g id="text_20">
     <!-- imine polymer 0.25% TFA_Abs -->
     <g style="fill: #262626" transform="translate(271.662688 69.470887) scale(0.06 -0.06)">
      <use xlink:href="#ArialMT-69"/>
      <use xlink:href="#ArialMT-6d" x="22.216797"/>
      <use xlink:href="#ArialMT-69" x="105.517578"/>
      <use xlink:href="#ArialMT-6e" x="127.734375"/>
      <use xlink:href="#ArialMT-65" x="183.349609"/>
      <use xlink:href="#ArialMT-20" x="238.964844"/>
      <use xlink:href="#ArialMT-70" x="266.748047"/>
      <use xlink:href="#ArialMT-6f" x="322.363281"/>
      <use xlink:href="#ArialMT-6c" x="377.978516"/>
      <use xlink:href="#ArialMT-79" x="400.195312"/>
      <use xlink:href="#ArialMT-6d" x="450.195312"/>
      <use xlink:href="#ArialMT-65" x="533.496094"/>
      <use xlink:href="#ArialMT-72" x="589.111328"/>
      <use xlink:href="#ArialMT-20" x="622.412109"/>
      <use xlink:href="#ArialMT-30" x="650.195312"/>
      <use xlink:href="#ArialMT-2e" x="705.810547"/>
      <use xlink:href="#ArialMT-32" x="733.59375"/>
      <use xlink:href="#ArialMT-35" x="789.208984"/>
      <use xlink:href="#ArialMT-25" x="844.824219"/>
      <use xlink:href="#ArialMT-20" x="933.740234"/>
      <use xlink:href="#ArialMT-54" x="959.773438"/>
      <use xlink:href="#ArialMT-46" x="1020.857422"/>
      <use xlink:href="#ArialMT-41" x="1076.441406"/>
      <use xlink:href="#ArialMT-5f" x="1143.140625"/>
      <use xlink:href="#ArialMT-41" x="1198.755859"/>
      <use xlink:href="#ArialMT-62" x="1265.455078"/>
      <use xlink:href="#ArialMT-73" x="1321.070312"/>
     </g>
    </g>
    <g id="line2d_41">
     <path d="M 254.862688 76.001512 
L 260.862688 76.001512 
L 266.862688 76.001512 
" style="fill: none; stroke: #3f1b43; stroke-width: 1.5; stroke-linecap: round"/>
    </g>
    <g id="text_21">
     <!-- imine polymer 1.0% TFA_Abs -->
     <g style="fill: #262626" transform="translate(271.662688 78.101512) scale(0.06 -0.06)">
      <use xlink:href="#ArialMT-69"/>
      <use xlink:href="#ArialMT-6d" x="22.216797"/>
      <use xlink:href="#ArialMT-69" x="105.517578"/>
      <use xlink:href="#ArialMT-6e" x="127.734375"/>
      <use xlink:href="#ArialMT-65" x="183.349609"/>
      <use xlink:href="#ArialMT-20" x="238.964844"/>
      <use xlink:href="#ArialMT-70" x="266.748047"/>
      <use xlink:href="#ArialMT-6f" x="322.363281"/>
      <use xlink:href="#ArialMT-6c" x="377.978516"/>
      <use xlink:href="#ArialMT-79" x="400.195312"/>
      <use xlink:href="#ArialMT-6d" x="450.195312"/>
      <use xlink:href="#ArialMT-65" x="533.496094"/>
      <use xlink:href="#ArialMT-72" x="589.111328"/>
      <use xlink:href="#ArialMT-20" x="622.412109"/>
      <use xlink:href="#ArialMT-31" x="650.195312"/>
      <use xlink:href="#ArialMT-2e" x="705.810547"/>
      <use xlink:href="#ArialMT-30" x="733.59375"/>
      <use xlink:href="#ArialMT-25" x="789.208984"/>
      <use xlink:href="#ArialMT-20" x="878.125"/>
      <use xlink:href="#ArialMT-54" x="904.158203"/>
      <use xlink:href="#ArialMT-46" x="965.242188"/>
      <use xlink:href="#ArialMT-41" x="1020.826172"/>
      <use xlink:href="#ArialMT-5f" x="1087.525391"/>
      <use xlink:href="#ArialMT-41" x="1143.140625"/>
      <use xlink:href="#ArialMT-62" x="1209.839844"/>
      <use xlink:href="#ArialMT-73" x="1265.455078"/>
     </g>
    </g>
   </g>
  </g>
 </g>
 <defs>
  <clipPath id="pe19a6c2220">
   <rect x="41.25125" y="7.2" width="357.12" height="266.112"/>
  </clipPath>
 </defs>
</svg>
