<?xml version="1.0" encoding="utf-8" standalone="no"?>
<!DOCTYPE svg PUBLIC "-//W3C//DTD SVG 1.1//EN"
  "http://www.w3.org/Graphics/SVG/1.1/DTD/svg11.dtd">
<svg xmlns:xlink="http://www.w3.org/1999/xlink" width="417.805313pt" height="313.269891pt" viewBox="0 0 417.805313 313.269891" xmlns="http://www.w3.org/2000/svg" version="1.1">
 <metadata>
  <rdf:RDF xmlns:dc="http://purl.org/dc/elements/1.1/" xmlns:cc="http://creativecommons.org/ns#" xmlns:rdf="http://www.w3.org/1999/02/22-rdf-syntax-ns#">
   <cc:Work>
    <dc:type rdf:resource="http://purl.org/dc/dcmitype/StillImage"/>
    <dc:date>2024-09-05T10:18:53.023679</dc:date>
    <dc:format>image/svg+xml</dc:format>
    <dc:creator>
     <cc:Agent>
      <dc:title>Matplotlib v3.7.1, https://matplotlib.org/</dc:title>
     </cc:Agent>
    </dc:creator>
   </cc:Work>
  </rdf:RDF>
 </metadata>
 <defs>
  <style type="text/css">*{stroke-linejoin: round; stroke-linecap: butt}</style>
 </defs>
 <g id="figure_1">
  <g id="patch_1">
   <path d="M 0 313.269891 
L 417.805313 313.269891 
L 417.805313 0 
L 0 0 
z
" style="fill: #ffffff"/>
  </g>
  <g id="axes_1">
   <g id="patch_2">
    <path d="M 41.25125 277.248797 
L 398.37125 277.248797 
L 398.37125 11.136797 
L 41.25125 11.136797 
z
" style="fill: #ffffff"/>
   </g>
   <g id="matplotlib.axis_1">
    <g id="xtick_1">
     <g id="line2d_1">
      <defs>
       <path id="m7331c9fda9" d="M 0 0 
L 0 -6 
" style="stroke: #262626; stroke-width: 1.25"/>
      </defs>
      <g>
       <use xlink:href="#m7331c9fda9" x="73.716705" y="277.248797" style="fill: #262626; stroke: #262626; stroke-width: 1.25"/>
      </g>
     </g>
     <g id="text_1">
      <!-- 400 -->
      <g style="fill: #262626" transform="translate(64.541158 288.622391) scale(0.11 -0.11)">
       <defs>
        <path id="ArialMT-34" d="M 2069 0 
L 2069 1097 
L 81 1097 
L 81 1613 
L 2172 4581 
L 2631 4581 
L 2631 1613 
L 3250 1613 
L 3250 1097 
L 2631 1097 
L 2631 0 
L 2069 0 
z
M 2069 1613 
L 2069 3678 
L 634 1613 
L 2069 1613 
z
" transform="scale(0.015625)"/>
        <path id="ArialMT-30" d="M 266 2259 
Q 266 3072 433 3567 
Q 600 4063 929 4331 
Q 1259 4600 1759 4600 
Q 2128 4600 2406 4451 
Q 2684 4303 2865 4023 
Q 3047 3744 3150 3342 
Q 3253 2941 3253 2259 
Q 3253 1453 3087 958 
Q 2922 463 2592 192 
Q 2263 -78 1759 -78 
Q 1097 -78 719 397 
Q 266 969 266 2259 
z
M 844 2259 
Q 844 1131 1108 757 
Q 1372 384 1759 384 
Q 2147 384 2411 759 
Q 2675 1134 2675 2259 
Q 2675 3391 2411 3762 
Q 2147 4134 1753 4134 
Q 1366 4134 1134 3806 
Q 844 3388 844 2259 
z
" transform="scale(0.015625)"/>
       </defs>
       <use xlink:href="#ArialMT-34"/>
       <use xlink:href="#ArialMT-30" x="55.615234"/>
       <use xlink:href="#ArialMT-30" x="111.230469"/>
      </g>
     </g>
    </g>
    <g id="xtick_2">
     <g id="line2d_2">
      <g>
       <use xlink:href="#m7331c9fda9" x="138.647614" y="277.248797" style="fill: #262626; stroke: #262626; stroke-width: 1.25"/>
      </g>
     </g>
     <g id="text_2">
      <!-- 600 -->
      <g style="fill: #262626" transform="translate(129.472067 288.622391) scale(0.11 -0.11)">
       <defs>
        <path id="ArialMT-36" d="M 3184 3459 
L 2625 3416 
Q 2550 3747 2413 3897 
Q 2184 4138 1850 4138 
Q 1581 4138 1378 3988 
Q 1113 3794 959 3422 
Q 806 3050 800 2363 
Q 1003 2672 1297 2822 
Q 1591 2972 1913 2972 
Q 2475 2972 2870 2558 
Q 3266 2144 3266 1488 
Q 3266 1056 3080 686 
Q 2894 316 2569 119 
Q 2244 -78 1831 -78 
Q 1128 -78 684 439 
Q 241 956 241 2144 
Q 241 3472 731 4075 
Q 1159 4600 1884 4600 
Q 2425 4600 2770 4297 
Q 3116 3994 3184 3459 
z
M 888 1484 
Q 888 1194 1011 928 
Q 1134 663 1356 523 
Q 1578 384 1822 384 
Q 2178 384 2434 671 
Q 2691 959 2691 1453 
Q 2691 1928 2437 2201 
Q 2184 2475 1800 2475 
Q 1419 2475 1153 2201 
Q 888 1928 888 1484 
z
" transform="scale(0.015625)"/>
       </defs>
       <use xlink:href="#ArialMT-36"/>
       <use xlink:href="#ArialMT-30" x="55.615234"/>
       <use xlink:href="#ArialMT-30" x="111.230469"/>
      </g>
     </g>
    </g>
    <g id="xtick_3">
     <g id="line2d_3">
      <g>
       <use xlink:href="#m7331c9fda9" x="203.578523" y="277.248797" style="fill: #262626; stroke: #262626; stroke-width: 1.25"/>
      </g>
     </g>
     <g id="text_3">
      <!-- 800 -->
      <g style="fill: #262626" transform="translate(194.402976 288.622391) scale(0.11 -0.11)">
       <defs>
        <path id="ArialMT-38" d="M 1131 2484 
Q 781 2613 612 2850 
Q 444 3088 444 3419 
Q 444 3919 803 4259 
Q 1163 4600 1759 4600 
Q 2359 4600 2725 4251 
Q 3091 3903 3091 3403 
Q 3091 3084 2923 2848 
Q 2756 2613 2416 2484 
Q 2838 2347 3058 2040 
Q 3278 1734 3278 1309 
Q 3278 722 2862 322 
Q 2447 -78 1769 -78 
Q 1091 -78 675 323 
Q 259 725 259 1325 
Q 259 1772 486 2073 
Q 713 2375 1131 2484 
z
M 1019 3438 
Q 1019 3113 1228 2906 
Q 1438 2700 1772 2700 
Q 2097 2700 2305 2904 
Q 2513 3109 2513 3406 
Q 2513 3716 2298 3927 
Q 2084 4138 1766 4138 
Q 1444 4138 1231 3931 
Q 1019 3725 1019 3438 
z
M 838 1322 
Q 838 1081 952 856 
Q 1066 631 1291 507 
Q 1516 384 1775 384 
Q 2178 384 2440 643 
Q 2703 903 2703 1303 
Q 2703 1709 2433 1975 
Q 2163 2241 1756 2241 
Q 1359 2241 1098 1978 
Q 838 1716 838 1322 
z
" transform="scale(0.015625)"/>
       </defs>
       <use xlink:href="#ArialMT-38"/>
       <use xlink:href="#ArialMT-30" x="55.615234"/>
       <use xlink:href="#ArialMT-30" x="111.230469"/>
      </g>
     </g>
    </g>
    <g id="xtick_4">
     <g id="line2d_4">
      <g>
       <use xlink:href="#m7331c9fda9" x="268.509432" y="277.248797" style="fill: #262626; stroke: #262626; stroke-width: 1.25"/>
      </g>
     </g>
     <g id="text_4">
      <!-- 1000 -->
      <g style="fill: #262626" transform="translate(256.275369 288.622391) scale(0.11 -0.11)">
       <defs>
        <path id="ArialMT-31" d="M 2384 0 
L 1822 0 
L 1822 3584 
Q 1619 3391 1289 3197 
Q 959 3003 697 2906 
L 697 3450 
Q 1169 3672 1522 3987 
Q 1875 4303 2022 4600 
L 2384 4600 
L 2384 0 
z
" transform="scale(0.015625)"/>
       </defs>
       <use xlink:href="#ArialMT-31"/>
       <use xlink:href="#ArialMT-30" x="55.615234"/>
       <use xlink:href="#ArialMT-30" x="111.230469"/>
       <use xlink:href="#ArialMT-30" x="166.845703"/>
      </g>
     </g>
    </g>
    <g id="xtick_5">
     <g id="line2d_5">
      <g>
       <use xlink:href="#m7331c9fda9" x="333.440341" y="277.248797" style="fill: #262626; stroke: #262626; stroke-width: 1.25"/>
      </g>
     </g>
     <g id="text_5">
      <!-- 1200 -->
      <g style="fill: #262626" transform="translate(321.206278 288.622391) scale(0.11 -0.11)">
       <defs>
        <path id="ArialMT-32" d="M 3222 541 
L 3222 0 
L 194 0 
Q 188 203 259 391 
Q 375 700 629 1000 
Q 884 1300 1366 1694 
Q 2113 2306 2375 2664 
Q 2638 3022 2638 3341 
Q 2638 3675 2398 3904 
Q 2159 4134 1775 4134 
Q 1369 4134 1125 3890 
Q 881 3647 878 3216 
L 300 3275 
Q 359 3922 746 4261 
Q 1134 4600 1788 4600 
Q 2447 4600 2831 4234 
Q 3216 3869 3216 3328 
Q 3216 3053 3103 2787 
Q 2991 2522 2730 2228 
Q 2469 1934 1863 1422 
Q 1356 997 1212 845 
Q 1069 694 975 541 
L 3222 541 
z
" transform="scale(0.015625)"/>
       </defs>
       <use xlink:href="#ArialMT-31"/>
       <use xlink:href="#ArialMT-32" x="55.615234"/>
       <use xlink:href="#ArialMT-30" x="111.230469"/>
       <use xlink:href="#ArialMT-30" x="166.845703"/>
      </g>
     </g>
    </g>
    <g id="xtick_6">
     <g id="line2d_6">
      <g>
       <use xlink:href="#m7331c9fda9" x="398.37125" y="277.248797" style="fill: #262626; stroke: #262626; stroke-width: 1.25"/>
      </g>
     </g>
     <g id="text_6">
      <!-- 1400 -->
      <g style="fill: #262626" transform="translate(386.137188 288.622391) scale(0.11 -0.11)">
       <use xlink:href="#ArialMT-31"/>
       <use xlink:href="#ArialMT-34" x="55.615234"/>
       <use xlink:href="#ArialMT-30" x="111.230469"/>
       <use xlink:href="#ArialMT-30" x="166.845703"/>
      </g>
     </g>
    </g>
    <g id="xtick_7">
     <g id="line2d_7">
      <defs>
       <path id="ma9f03d3b09" d="M 0 0 
L 0 -4 
" style="stroke: #262626"/>
      </defs>
      <g>
       <use xlink:href="#ma9f03d3b09" x="106.182159" y="277.248797" style="fill: #262626; stroke: #262626"/>
      </g>
     </g>
    </g>
    <g id="xtick_8">
     <g id="line2d_8">
      <g>
       <use xlink:href="#ma9f03d3b09" x="171.113068" y="277.248797" style="fill: #262626; stroke: #262626"/>
      </g>
     </g>
    </g>
    <g id="xtick_9">
     <g id="line2d_9">
      <g>
       <use xlink:href="#ma9f03d3b09" x="236.043977" y="277.248797" style="fill: #262626; stroke: #262626"/>
      </g>
     </g>
    </g>
    <g id="xtick_10">
     <g id="line2d_10">
      <g>
       <use xlink:href="#ma9f03d3b09" x="300.974886" y="277.248797" style="fill: #262626; stroke: #262626"/>
      </g>
     </g>
    </g>
    <g id="xtick_11">
     <g id="line2d_11">
      <g>
       <use xlink:href="#ma9f03d3b09" x="365.905795" y="277.248797" style="fill: #262626; stroke: #262626"/>
      </g>
     </g>
    </g>
    <g id="text_7">
     <!-- Wavelength (nm) -->
     <g style="fill: #262626" transform="translate(174.356562 303.544266) scale(0.12 -0.12)">
      <defs>
       <path id="ArialMT-57" d="M 1294 0 
L 78 4581 
L 700 4581 
L 1397 1578 
Q 1509 1106 1591 641 
Q 1766 1375 1797 1488 
L 2669 4581 
L 3400 4581 
L 4056 2263 
Q 4303 1400 4413 641 
Q 4500 1075 4641 1638 
L 5359 4581 
L 5969 4581 
L 4713 0 
L 4128 0 
L 3163 3491 
Q 3041 3928 3019 4028 
Q 2947 3713 2884 3491 
L 1913 0 
L 1294 0 
z
" transform="scale(0.015625)"/>
       <path id="ArialMT-61" d="M 2588 409 
Q 2275 144 1986 34 
Q 1697 -75 1366 -75 
Q 819 -75 525 192 
Q 231 459 231 875 
Q 231 1119 342 1320 
Q 453 1522 633 1644 
Q 813 1766 1038 1828 
Q 1203 1872 1538 1913 
Q 2219 1994 2541 2106 
Q 2544 2222 2544 2253 
Q 2544 2597 2384 2738 
Q 2169 2928 1744 2928 
Q 1347 2928 1158 2789 
Q 969 2650 878 2297 
L 328 2372 
Q 403 2725 575 2942 
Q 747 3159 1072 3276 
Q 1397 3394 1825 3394 
Q 2250 3394 2515 3294 
Q 2781 3194 2906 3042 
Q 3031 2891 3081 2659 
Q 3109 2516 3109 2141 
L 3109 1391 
Q 3109 606 3145 398 
Q 3181 191 3288 0 
L 2700 0 
Q 2613 175 2588 409 
z
M 2541 1666 
Q 2234 1541 1622 1453 
Q 1275 1403 1131 1340 
Q 988 1278 909 1158 
Q 831 1038 831 891 
Q 831 666 1001 516 
Q 1172 366 1500 366 
Q 1825 366 2078 508 
Q 2331 650 2450 897 
Q 2541 1088 2541 1459 
L 2541 1666 
z
" transform="scale(0.015625)"/>
       <path id="ArialMT-76" d="M 1344 0 
L 81 3319 
L 675 3319 
L 1388 1331 
Q 1503 1009 1600 663 
Q 1675 925 1809 1294 
L 2547 3319 
L 3125 3319 
L 1869 0 
L 1344 0 
z
" transform="scale(0.015625)"/>
       <path id="ArialMT-65" d="M 2694 1069 
L 3275 997 
Q 3138 488 2766 206 
Q 2394 -75 1816 -75 
Q 1088 -75 661 373 
Q 234 822 234 1631 
Q 234 2469 665 2931 
Q 1097 3394 1784 3394 
Q 2450 3394 2872 2941 
Q 3294 2488 3294 1666 
Q 3294 1616 3291 1516 
L 816 1516 
Q 847 969 1125 678 
Q 1403 388 1819 388 
Q 2128 388 2347 550 
Q 2566 713 2694 1069 
z
M 847 1978 
L 2700 1978 
Q 2663 2397 2488 2606 
Q 2219 2931 1791 2931 
Q 1403 2931 1139 2672 
Q 875 2413 847 1978 
z
" transform="scale(0.015625)"/>
       <path id="ArialMT-6c" d="M 409 0 
L 409 4581 
L 972 4581 
L 972 0 
L 409 0 
z
" transform="scale(0.015625)"/>
       <path id="ArialMT-6e" d="M 422 0 
L 422 3319 
L 928 3319 
L 928 2847 
Q 1294 3394 1984 3394 
Q 2284 3394 2536 3286 
Q 2788 3178 2913 3003 
Q 3038 2828 3088 2588 
Q 3119 2431 3119 2041 
L 3119 0 
L 2556 0 
L 2556 2019 
Q 2556 2363 2490 2533 
Q 2425 2703 2258 2804 
Q 2091 2906 1866 2906 
Q 1506 2906 1245 2678 
Q 984 2450 984 1813 
L 984 0 
L 422 0 
z
" transform="scale(0.015625)"/>
       <path id="ArialMT-67" d="M 319 -275 
L 866 -356 
Q 900 -609 1056 -725 
Q 1266 -881 1628 -881 
Q 2019 -881 2231 -725 
Q 2444 -569 2519 -288 
Q 2563 -116 2559 434 
Q 2191 0 1641 0 
Q 956 0 581 494 
Q 206 988 206 1678 
Q 206 2153 378 2554 
Q 550 2956 876 3175 
Q 1203 3394 1644 3394 
Q 2231 3394 2613 2919 
L 2613 3319 
L 3131 3319 
L 3131 450 
Q 3131 -325 2973 -648 
Q 2816 -972 2473 -1159 
Q 2131 -1347 1631 -1347 
Q 1038 -1347 672 -1080 
Q 306 -813 319 -275 
z
M 784 1719 
Q 784 1066 1043 766 
Q 1303 466 1694 466 
Q 2081 466 2343 764 
Q 2606 1063 2606 1700 
Q 2606 2309 2336 2618 
Q 2066 2928 1684 2928 
Q 1309 2928 1046 2623 
Q 784 2319 784 1719 
z
" transform="scale(0.015625)"/>
       <path id="ArialMT-74" d="M 1650 503 
L 1731 6 
Q 1494 -44 1306 -44 
Q 1000 -44 831 53 
Q 663 150 594 308 
Q 525 466 525 972 
L 525 2881 
L 113 2881 
L 113 3319 
L 525 3319 
L 525 4141 
L 1084 4478 
L 1084 3319 
L 1650 3319 
L 1650 2881 
L 1084 2881 
L 1084 941 
Q 1084 700 1114 631 
Q 1144 563 1211 522 
Q 1278 481 1403 481 
Q 1497 481 1650 503 
z
" transform="scale(0.015625)"/>
       <path id="ArialMT-68" d="M 422 0 
L 422 4581 
L 984 4581 
L 984 2938 
Q 1378 3394 1978 3394 
Q 2347 3394 2619 3248 
Q 2891 3103 3008 2847 
Q 3125 2591 3125 2103 
L 3125 0 
L 2563 0 
L 2563 2103 
Q 2563 2525 2380 2717 
Q 2197 2909 1863 2909 
Q 1613 2909 1392 2779 
Q 1172 2650 1078 2428 
Q 984 2206 984 1816 
L 984 0 
L 422 0 
z
" transform="scale(0.015625)"/>
       <path id="ArialMT-20" transform="scale(0.015625)"/>
       <path id="ArialMT-28" d="M 1497 -1347 
Q 1031 -759 709 28 
Q 388 816 388 1659 
Q 388 2403 628 3084 
Q 909 3875 1497 4659 
L 1900 4659 
Q 1522 4009 1400 3731 
Q 1209 3300 1100 2831 
Q 966 2247 966 1656 
Q 966 153 1900 -1347 
L 1497 -1347 
z
" transform="scale(0.015625)"/>
       <path id="ArialMT-6d" d="M 422 0 
L 422 3319 
L 925 3319 
L 925 2853 
Q 1081 3097 1340 3245 
Q 1600 3394 1931 3394 
Q 2300 3394 2536 3241 
Q 2772 3088 2869 2813 
Q 3263 3394 3894 3394 
Q 4388 3394 4653 3120 
Q 4919 2847 4919 2278 
L 4919 0 
L 4359 0 
L 4359 2091 
Q 4359 2428 4304 2576 
Q 4250 2725 4106 2815 
Q 3963 2906 3769 2906 
Q 3419 2906 3187 2673 
Q 2956 2441 2956 1928 
L 2956 0 
L 2394 0 
L 2394 2156 
Q 2394 2531 2256 2718 
Q 2119 2906 1806 2906 
Q 1569 2906 1367 2781 
Q 1166 2656 1075 2415 
Q 984 2175 984 1722 
L 984 0 
L 422 0 
z
" transform="scale(0.015625)"/>
       <path id="ArialMT-29" d="M 791 -1347 
L 388 -1347 
Q 1322 153 1322 1656 
Q 1322 2244 1188 2822 
Q 1081 3291 891 3722 
Q 769 4003 388 4659 
L 791 4659 
Q 1378 3875 1659 3084 
Q 1900 2403 1900 1659 
Q 1900 816 1576 28 
Q 1253 -759 791 -1347 
z
" transform="scale(0.015625)"/>
      </defs>
      <use xlink:href="#ArialMT-57"/>
      <use xlink:href="#ArialMT-61" x="90.634766"/>
      <use xlink:href="#ArialMT-76" x="146.25"/>
      <use xlink:href="#ArialMT-65" x="196.25"/>
      <use xlink:href="#ArialMT-6c" x="251.865234"/>
      <use xlink:href="#ArialMT-65" x="274.082031"/>
      <use xlink:href="#ArialMT-6e" x="329.697266"/>
      <use xlink:href="#ArialMT-67" x="385.3125"/>
      <use xlink:href="#ArialMT-74" x="440.927734"/>
      <use xlink:href="#ArialMT-68" x="468.710938"/>
      <use xlink:href="#ArialMT-20" x="524.326172"/>
      <use xlink:href="#ArialMT-28" x="552.109375"/>
      <use xlink:href="#ArialMT-6e" x="585.410156"/>
      <use xlink:href="#ArialMT-6d" x="641.025391"/>
      <use xlink:href="#ArialMT-29" x="724.326172"/>
     </g>
    </g>
   </g>
   <g id="matplotlib.axis_2">
    <g id="ytick_1">
     <g id="line2d_12">
      <defs>
       <path id="m87707e3113" d="M 0 0 
L 6 0 
" style="stroke: #262626; stroke-width: 1.25"/>
      </defs>
      <g>
       <use xlink:href="#m87707e3113" x="41.25125" y="277.248797" style="fill: #262626; stroke: #262626; stroke-width: 1.25"/>
      </g>
     </g>
     <g id="text_8">
      <!-- 0.0 -->
      <g style="fill: #262626" transform="translate(22.46125 281.185594) scale(0.11 -0.11)">
       <defs>
        <path id="ArialMT-2e" d="M 581 0 
L 581 641 
L 1222 641 
L 1222 0 
L 581 0 
z
" transform="scale(0.015625)"/>
       </defs>
       <use xlink:href="#ArialMT-30"/>
       <use xlink:href="#ArialMT-2e" x="55.615234"/>
       <use xlink:href="#ArialMT-30" x="83.398438"/>
      </g>
     </g>
    </g>
    <g id="ytick_2">
     <g id="line2d_13">
      <g>
       <use xlink:href="#m87707e3113" x="41.25125" y="232.896797" style="fill: #262626; stroke: #262626; stroke-width: 1.25"/>
      </g>
     </g>
     <g id="text_9">
      <!-- 0.2 -->
      <g style="fill: #262626" transform="translate(22.46125 236.833594) scale(0.11 -0.11)">
       <use xlink:href="#ArialMT-30"/>
       <use xlink:href="#ArialMT-2e" x="55.615234"/>
       <use xlink:href="#ArialMT-32" x="83.398438"/>
      </g>
     </g>
    </g>
    <g id="ytick_3">
     <g id="line2d_14">
      <g>
       <use xlink:href="#m87707e3113" x="41.25125" y="188.544797" style="fill: #262626; stroke: #262626; stroke-width: 1.25"/>
      </g>
     </g>
     <g id="text_10">
      <!-- 0.4 -->
      <g style="fill: #262626" transform="translate(22.46125 192.481594) scale(0.11 -0.11)">
       <use xlink:href="#ArialMT-30"/>
       <use xlink:href="#ArialMT-2e" x="55.615234"/>
       <use xlink:href="#ArialMT-34" x="83.398438"/>
      </g>
     </g>
    </g>
    <g id="ytick_4">
     <g id="line2d_15">
      <g>
       <use xlink:href="#m87707e3113" x="41.25125" y="144.192797" style="fill: #262626; stroke: #262626; stroke-width: 1.25"/>
      </g>
     </g>
     <g id="text_11">
      <!-- 0.6 -->
      <g style="fill: #262626" transform="translate(22.46125 148.129594) scale(0.11 -0.11)">
       <use xlink:href="#ArialMT-30"/>
       <use xlink:href="#ArialMT-2e" x="55.615234"/>
       <use xlink:href="#ArialMT-36" x="83.398438"/>
      </g>
     </g>
    </g>
    <g id="ytick_5">
     <g id="line2d_16">
      <g>
       <use xlink:href="#m87707e3113" x="41.25125" y="99.840797" style="fill: #262626; stroke: #262626; stroke-width: 1.25"/>
      </g>
     </g>
     <g id="text_12">
      <!-- 0.8 -->
      <g style="fill: #262626" transform="translate(22.46125 103.777594) scale(0.11 -0.11)">
       <use xlink:href="#ArialMT-30"/>
       <use xlink:href="#ArialMT-2e" x="55.615234"/>
       <use xlink:href="#ArialMT-38" x="83.398438"/>
      </g>
     </g>
    </g>
    <g id="ytick_6">
     <g id="line2d_17">
      <g>
       <use xlink:href="#m87707e3113" x="41.25125" y="55.488797" style="fill: #262626; stroke: #262626; stroke-width: 1.25"/>
      </g>
     </g>
     <g id="text_13">
      <!-- 1.0 -->
      <g style="fill: #262626" transform="translate(22.46125 59.425594) scale(0.11 -0.11)">
       <use xlink:href="#ArialMT-31"/>
       <use xlink:href="#ArialMT-2e" x="55.615234"/>
       <use xlink:href="#ArialMT-30" x="83.398438"/>
      </g>
     </g>
    </g>
    <g id="ytick_7">
     <g id="line2d_18">
      <g>
       <use xlink:href="#m87707e3113" x="41.25125" y="11.136797" style="fill: #262626; stroke: #262626; stroke-width: 1.25"/>
      </g>
     </g>
     <g id="text_14">
      <!-- 1.2 -->
      <g style="fill: #262626" transform="translate(22.46125 15.073594) scale(0.11 -0.11)">
       <use xlink:href="#ArialMT-31"/>
       <use xlink:href="#ArialMT-2e" x="55.615234"/>
       <use xlink:href="#ArialMT-32" x="83.398438"/>
      </g>
     </g>
    </g>
    <g id="ytick_8">
     <g id="line2d_19">
      <defs>
       <path id="ma44244d0c4" d="M 0 0 
L 4 0 
" style="stroke: #262626"/>
      </defs>
      <g>
       <use xlink:href="#ma44244d0c4" x="41.25125" y="255.072797" style="fill: #262626; stroke: #262626"/>
      </g>
     </g>
    </g>
    <g id="ytick_9">
     <g id="line2d_20">
      <g>
       <use xlink:href="#ma44244d0c4" x="41.25125" y="210.720797" style="fill: #262626; stroke: #262626"/>
      </g>
     </g>
    </g>
    <g id="ytick_10">
     <g id="line2d_21">
      <g>
       <use xlink:href="#ma44244d0c4" x="41.25125" y="166.368797" style="fill: #262626; stroke: #262626"/>
      </g>
     </g>
    </g>
    <g id="ytick_11">
     <g id="line2d_22">
      <g>
       <use xlink:href="#ma44244d0c4" x="41.25125" y="122.016797" style="fill: #262626; stroke: #262626"/>
      </g>
     </g>
    </g>
    <g id="ytick_12">
     <g id="line2d_23">
      <g>
       <use xlink:href="#ma44244d0c4" x="41.25125" y="77.664797" style="fill: #262626; stroke: #262626"/>
      </g>
     </g>
    </g>
    <g id="ytick_13">
     <g id="line2d_24">
      <g>
       <use xlink:href="#ma44244d0c4" x="41.25125" y="33.312797" style="fill: #262626; stroke: #262626"/>
      </g>
     </g>
    </g>
    <g id="text_15">
     <!-- Absorbance (a.u.) -->
     <g style="fill: #262626" transform="translate(15.935625 191.881547) rotate(-90) scale(0.12 -0.12)">
      <defs>
       <path id="ArialMT-41" d="M -9 0 
L 1750 4581 
L 2403 4581 
L 4278 0 
L 3588 0 
L 3053 1388 
L 1138 1388 
L 634 0 
L -9 0 
z
M 1313 1881 
L 2866 1881 
L 2388 3150 
Q 2169 3728 2063 4100 
Q 1975 3659 1816 3225 
L 1313 1881 
z
" transform="scale(0.015625)"/>
       <path id="ArialMT-62" d="M 941 0 
L 419 0 
L 419 4581 
L 981 4581 
L 981 2947 
Q 1338 3394 1891 3394 
Q 2197 3394 2470 3270 
Q 2744 3147 2920 2923 
Q 3097 2700 3197 2384 
Q 3297 2069 3297 1709 
Q 3297 856 2875 390 
Q 2453 -75 1863 -75 
Q 1275 -75 941 416 
L 941 0 
z
M 934 1684 
Q 934 1088 1097 822 
Q 1363 388 1816 388 
Q 2184 388 2453 708 
Q 2722 1028 2722 1663 
Q 2722 2313 2464 2622 
Q 2206 2931 1841 2931 
Q 1472 2931 1203 2611 
Q 934 2291 934 1684 
z
" transform="scale(0.015625)"/>
       <path id="ArialMT-73" d="M 197 991 
L 753 1078 
Q 800 744 1014 566 
Q 1228 388 1613 388 
Q 2000 388 2187 545 
Q 2375 703 2375 916 
Q 2375 1106 2209 1216 
Q 2094 1291 1634 1406 
Q 1016 1563 777 1677 
Q 538 1791 414 1992 
Q 291 2194 291 2438 
Q 291 2659 392 2848 
Q 494 3038 669 3163 
Q 800 3259 1026 3326 
Q 1253 3394 1513 3394 
Q 1903 3394 2198 3281 
Q 2494 3169 2634 2976 
Q 2775 2784 2828 2463 
L 2278 2388 
Q 2241 2644 2061 2787 
Q 1881 2931 1553 2931 
Q 1166 2931 1000 2803 
Q 834 2675 834 2503 
Q 834 2394 903 2306 
Q 972 2216 1119 2156 
Q 1203 2125 1616 2013 
Q 2213 1853 2448 1751 
Q 2684 1650 2818 1456 
Q 2953 1263 2953 975 
Q 2953 694 2789 445 
Q 2625 197 2315 61 
Q 2006 -75 1616 -75 
Q 969 -75 630 194 
Q 291 463 197 991 
z
" transform="scale(0.015625)"/>
       <path id="ArialMT-6f" d="M 213 1659 
Q 213 2581 725 3025 
Q 1153 3394 1769 3394 
Q 2453 3394 2887 2945 
Q 3322 2497 3322 1706 
Q 3322 1066 3130 698 
Q 2938 331 2570 128 
Q 2203 -75 1769 -75 
Q 1072 -75 642 372 
Q 213 819 213 1659 
z
M 791 1659 
Q 791 1022 1069 705 
Q 1347 388 1769 388 
Q 2188 388 2466 706 
Q 2744 1025 2744 1678 
Q 2744 2294 2464 2611 
Q 2184 2928 1769 2928 
Q 1347 2928 1069 2612 
Q 791 2297 791 1659 
z
" transform="scale(0.015625)"/>
       <path id="ArialMT-72" d="M 416 0 
L 416 3319 
L 922 3319 
L 922 2816 
Q 1116 3169 1280 3281 
Q 1444 3394 1641 3394 
Q 1925 3394 2219 3213 
L 2025 2691 
Q 1819 2813 1613 2813 
Q 1428 2813 1281 2702 
Q 1134 2591 1072 2394 
Q 978 2094 978 1738 
L 978 0 
L 416 0 
z
" transform="scale(0.015625)"/>
       <path id="ArialMT-63" d="M 2588 1216 
L 3141 1144 
Q 3050 572 2676 248 
Q 2303 -75 1759 -75 
Q 1078 -75 664 370 
Q 250 816 250 1647 
Q 250 2184 428 2587 
Q 606 2991 970 3192 
Q 1334 3394 1763 3394 
Q 2303 3394 2647 3120 
Q 2991 2847 3088 2344 
L 2541 2259 
Q 2463 2594 2264 2762 
Q 2066 2931 1784 2931 
Q 1359 2931 1093 2626 
Q 828 2322 828 1663 
Q 828 994 1084 691 
Q 1341 388 1753 388 
Q 2084 388 2306 591 
Q 2528 794 2588 1216 
z
" transform="scale(0.015625)"/>
       <path id="ArialMT-75" d="M 2597 0 
L 2597 488 
Q 2209 -75 1544 -75 
Q 1250 -75 995 37 
Q 741 150 617 320 
Q 494 491 444 738 
Q 409 903 409 1263 
L 409 3319 
L 972 3319 
L 972 1478 
Q 972 1038 1006 884 
Q 1059 663 1231 536 
Q 1403 409 1656 409 
Q 1909 409 2131 539 
Q 2353 669 2445 892 
Q 2538 1116 2538 1541 
L 2538 3319 
L 3100 3319 
L 3100 0 
L 2597 0 
z
" transform="scale(0.015625)"/>
      </defs>
      <use xlink:href="#ArialMT-41"/>
      <use xlink:href="#ArialMT-62" x="66.699219"/>
      <use xlink:href="#ArialMT-73" x="122.314453"/>
      <use xlink:href="#ArialMT-6f" x="172.314453"/>
      <use xlink:href="#ArialMT-72" x="227.929688"/>
      <use xlink:href="#ArialMT-62" x="261.230469"/>
      <use xlink:href="#ArialMT-61" x="316.845703"/>
      <use xlink:href="#ArialMT-6e" x="372.460938"/>
      <use xlink:href="#ArialMT-63" x="428.076172"/>
      <use xlink:href="#ArialMT-65" x="478.076172"/>
      <use xlink:href="#ArialMT-20" x="533.691406"/>
      <use xlink:href="#ArialMT-28" x="561.474609"/>
      <use xlink:href="#ArialMT-61" x="594.775391"/>
      <use xlink:href="#ArialMT-2e" x="650.390625"/>
      <use xlink:href="#ArialMT-75" x="678.173828"/>
      <use xlink:href="#ArialMT-2e" x="733.789062"/>
      <use xlink:href="#ArialMT-29" x="761.572266"/>
     </g>
    </g>
   </g>
   <g id="PolyCollection_1"/>
   <g id="PolyCollection_2"/>
   <g id="PolyCollection_3"/>
   <g id="line2d_25">
    <path d="M 41.467683 232.823205 
L 42.116992 233.221534 
L 43.41561 233.504087 
L 44.714229 233.284422 
L 46.22929 232.721741 
L 48.177217 231.566243 
L 50.55801 229.938998 
L 54.237432 227.13607 
L 55.53605 225.946992 
L 57.051101 224.45914 
L 58.349719 222.890565 
L 62.67845 217.239928 
L 64.409944 215.158938 
L 65.492119 213.402282 
L 66.574305 211.107756 
L 67.872923 207.621581 
L 68.955108 204.12423 
L 70.470159 198.375238 
L 72.418086 189.873316 
L 75.881075 174.407034 
L 78.478311 162.906943 
L 80.426238 152.864875 
L 82.807032 139.183356 
L 86.919329 113.733509 
L 89.732999 94.670193 
L 93.41242 69.811583 
L 95.576781 56.762873 
L 97.308275 47.726596 
L 98.606893 41.925301 
L 99.689068 37.831049 
L 100.771253 34.463835 
L 101.853438 31.869976 
L 102.935614 30.096209 
L 103.584923 29.466375 
L 104.234232 29.152 
L 104.883541 29.221949 
L 105.316417 29.479355 
L 105.749293 29.917741 
L 106.398602 30.947972 
L 107.047911 32.44448 
L 107.913653 35.212816 
L 108.779395 38.842828 
L 109.861581 44.797848 
L 110.943766 51.971031 
L 112.242384 62.070888 
L 114.406734 81.352974 
L 117.003971 106.655944 
L 118.951898 127.546175 
L 120.683402 148.420175 
L 122.631329 174.626696 
L 126.310741 224.595149 
L 127.825802 241.299521 
L 128.907977 250.873767 
L 129.990172 258.311592 
L 130.855905 262.933094 
L 131.721657 266.449802 
L 132.587409 269.118308 
L 133.453141 271.082769 
L 134.318893 272.514935 
L 135.184645 273.566734 
L 136.26682 274.487224 
L 137.565438 275.207356 
L 139.0805 275.740028 
L 142.327045 276.381809 
L 145.790014 276.663942 
L 152.71599 276.942366 
L 223.707105 277.071253 
L 224.13999 277.000258 
L 225.005723 277.010474 
L 226.087918 277.166242 
L 226.304341 277.057789 
L 226.520784 277.12543 
L 226.95365 276.953871 
L 228.035845 277.058467 
L 228.468711 276.900335 
L 228.901577 277.129861 
L 229.11802 276.91177 
L 229.334463 277.208421 
L 229.767329 277.013305 
L 229.983772 277.185792 
L 230.200195 277.142091 
L 230.416638 276.982174 
L 230.633081 277.074347 
L 230.849505 276.720865 
L 231.065948 277.017546 
L 231.28239 277.108564 
L 231.498814 276.86115 
L 232.581009 277.231103 
L 232.797432 277.314193 
L 233.013875 277.27598 
L 233.446741 276.86802 
L 233.663184 277.3137 
L 233.879627 277.077964 
L 234.09605 277.140672 
L 234.312493 276.998319 
L 234.528936 277.12197 
L 234.745359 276.795699 
L 234.961802 277.2439 
L 235.178245 277.126033 
L 235.394668 276.668822 
L 235.611111 277.254526 
L 236.476843 277.288168 
L 243.835686 277.276978 
L 246.432923 277.285276 
L 262.232764 277.268634 
L 265.695752 277.284278 
L 272.188843 277.281145 
L 285.391468 277.273202 
L 366.98799 277.245766 
L 368.503032 277.254032 
L 381.056328 277.261701 
L 384.952182 277.189945 
L 386.90011 277.152872 
L 388.631614 277.12716 
L 391.012427 277.133534 
L 394.691819 277.106558 
L 395.990437 277.044196 
L 397.938364 276.7998 
L 398.37125 276.689466 
L 398.37125 276.689466 
" clip-path="url(#p572112f9f2)" style="fill: none; stroke: #f4865e; stroke-linecap: round"/>
   </g>
   <g id="line2d_26">
    <path d="M 41.467683 226.21801 
L 41.900559 226.198166 
L 44.064919 225.296148 
L 46.22929 224.037038 
L 47.527908 223.136495 
L 48.177217 222.730579 
L 50.125144 221.46215 
L 50.774453 221.031325 
L 53.588123 218.898058 
L 54.670308 217.833711 
L 57.267544 215.09678 
L 58.999029 212.872164 
L 61.379832 209.479895 
L 63.111326 206.858807 
L 63.977068 205.256715 
L 65.492119 201.962821 
L 66.790738 198.514112 
L 68.522232 193.260872 
L 70.037293 188.007923 
L 72.201653 179.363836 
L 75.664632 165.077207 
L 83.456341 135.229306 
L 84.971402 130.562149 
L 87.135762 124.462869 
L 90.165875 117.202236 
L 91.464493 114.989925 
L 92.330235 113.919947 
L 93.41242 113.122166 
L 94.494595 112.8641 
L 95.143905 112.93163 
L 96.22609 113.333124 
L 97.308275 114.089996 
L 98.174017 114.904181 
L 99.472635 116.591515 
L 100.55482 118.427776 
L 101.853438 121.224425 
L 103.152057 124.681137 
L 104.883541 130.366299 
L 106.398602 136.233062 
L 108.130086 143.942166 
L 110.294457 154.749116 
L 112.891693 169.00122 
L 115.705352 185.496729 
L 121.765577 221.068514 
L 123.713505 231.187514 
L 125.228566 237.998109 
L 126.527184 242.898312 
L 127.825802 246.914707 
L 128.907977 249.581371 
L 129.990172 251.699245 
L 130.855905 253.068366 
L 132.154523 254.630916 
L 133.236718 255.645951 
L 135.401068 257.005158 
L 136.699686 257.558152 
L 139.0805 258.31329 
L 142.976354 259.038102 
L 145.357148 259.284849 
L 153.3653 259.568805 
L 156.611845 259.56955 
L 158.126886 259.555347 
L 175.225366 259.016738 
L 177.822602 258.796409 
L 179.337663 258.663463 
L 182.800632 258.239149 
L 183.449941 258.099859 
L 184.315693 257.956185 
L 185.830754 257.670608 
L 191.24165 256.46975 
L 192.540268 256.13356 
L 206.392202 252.003979 
L 207.69082 251.507175 
L 208.556572 251.237472 
L 211.370232 250.293051 
L 214.183911 249.353573 
L 215.049663 249.05891 
L 215.915395 248.745942 
L 216.348281 248.620435 
L 217.6469 248.196532 
L 218.296209 248.043446 
L 220.244136 247.339654 
L 220.460559 247.358354 
L 220.893445 247.130183 
L 221.109868 247.19235 
L 221.326311 246.982423 
L 221.759177 246.968683 
L 223.057795 246.494285 
L 223.490681 246.402242 
L 224.7893 245.955486 
L 225.222166 246.060486 
L 225.655032 245.781548 
L 225.871475 245.836495 
L 226.304341 245.539657 
L 226.520784 245.535314 
L 226.737227 245.285301 
L 226.95365 245.350997 
L 227.170093 245.183232 
L 227.386536 245.330169 
L 227.602959 245.258273 
L 227.819402 245.05903 
L 228.252268 245.014997 
L 228.468711 244.881903 
L 228.685154 244.566586 
L 228.901577 244.664197 
L 229.11802 244.548444 
L 229.334463 244.784335 
L 229.550886 244.69862 
L 229.767329 244.467587 
L 230.200195 244.459719 
L 230.416638 244.261073 
L 230.633081 244.340454 
L 230.849505 243.812054 
L 231.065948 244.346263 
L 231.28239 243.979459 
L 231.498814 244.195023 
L 231.9317 243.934743 
L 232.148123 244.287242 
L 232.364566 243.589401 
L 232.797432 244.041983 
L 233.013875 243.655167 
L 233.879627 243.261028 
L 234.09605 243.707956 
L 234.312493 242.890127 
L 234.528936 243.432924 
L 234.961802 242.770722 
L 235.178245 243.286337 
L 235.394668 242.479062 
L 235.611111 243.581014 
L 236.043977 243.297721 
L 243.619243 240.79689 
L 249.679468 238.339793 
L 259.635528 234.279894 
L 271.9724 229.973844 
L 285.391468 225.959576 
L 291.018827 223.980786 
L 292.317445 223.466335 
L 297.295455 221.381494 
L 305.952936 217.577038 
L 308.983019 216.527264 
L 310.4981 216.222062 
L 312.446027 215.965707 
L 313.528182 215.641498 
L 317.424037 214.020332 
L 321.103468 213.178859 
L 324.350014 213.111527 
L 326.94725 213.320873 
L 328.895177 213.594385 
L 331.27599 214.094472 
L 336.470463 215.682718 
L 339.500546 216.92975 
L 344.04571 219.064161 
L 354.434655 224.54577 
L 357.897663 226.397337 
L 363.741445 229.399442 
L 365.256486 230.135063 
L 367.204414 231.127408 
L 370.234536 232.49284 
L 372.831772 233.673686 
L 382.354946 237.43914 
L 384.519336 238.243447 
L 385.817954 238.750946 
L 386.90011 239.161151 
L 389.280923 239.924929 
L 390.363118 240.187328 
L 393.176777 240.956602 
L 394.475395 241.316946 
L 395.990437 241.844883 
L 398.37125 242.810416 
L 398.37125 242.810416 
" clip-path="url(#p572112f9f2)" style="fill: none; stroke: #ca1a50; stroke-linecap: round"/>
   </g>
   <g id="line2d_27">
    <path d="M 41.467683 218.164747 
L 42.116992 218.741604 
L 42.766301 219.061722 
L 42.982744 219.049694 
L 43.41561 219.172072 
L 44.281362 219.071252 
L 45.363538 218.730811 
L 46.012847 218.430784 
L 47.960774 217.497936 
L 48.610083 217.108238 
L 49.908701 216.380155 
L 51.856629 215.251602 
L 53.804556 214.107875 
L 57.051101 211.041045 
L 57.916853 209.965522 
L 59.215471 208.066906 
L 61.379832 204.835057 
L 63.760635 201.524336 
L 65.059253 199.033577 
L 66.141429 196.291168 
L 67.223614 192.926479 
L 68.305799 188.963632 
L 69.82085 182.501514 
L 71.552344 173.819715 
L 81.508414 120.690777 
L 84.971402 101.790756 
L 91.680926 67.274204 
L 93.195977 61.073001 
L 94.711038 56.135074 
L 96.009657 52.785334 
L 97.091832 50.546826 
L 98.174017 48.811101 
L 99.256202 47.607476 
L 100.121944 47.081509 
L 100.987686 46.989433 
L 101.420562 47.122088 
L 102.069871 47.538161 
L 102.719181 48.213069 
L 103.584923 49.585539 
L 104.667108 52.046823 
L 105.53285 54.665214 
L 106.398602 57.860291 
L 107.480777 62.778576 
L 108.562962 68.617594 
L 109.861581 76.897317 
L 111.593075 89.780697 
L 113.324559 104.272091 
L 116.571105 134.313555 
L 119.81765 167.249289 
L 122.847752 200.619523 
L 125.012123 223.684338 
L 126.743627 239.541623 
L 128.042245 249.340858 
L 129.12442 255.862389 
L 129.990172 260.042662 
L 130.855905 263.423828 
L 131.721657 266.03127 
L 132.803832 268.489371 
L 133.669584 269.965735 
L 134.968202 271.50172 
L 136.050377 272.411561 
L 137.781881 273.382778 
L 139.729809 274.117672 
L 142.543468 274.837901 
L 144.707838 275.190303 
L 148.603693 275.561489 
L 154.014609 275.784166 
L 156.611845 275.832372 
L 158.343329 275.84849 
L 163.321359 275.842106 
L 172.195263 276.042869 
L 178.039045 276.084781 
L 192.756711 276.184997 
L 194.921081 276.168146 
L 197.734741 276.220919 
L 200.115554 276.196849 
L 201.630595 276.222085 
L 202.496348 276.220536 
L 204.227832 276.246659 
L 205.52645 276.252425 
L 208.556572 276.253132 
L 209.638748 276.300925 
L 210.720923 276.295951 
L 211.370232 276.306612 
L 212.885293 276.360844 
L 216.781148 276.409203 
L 217.214014 276.409771 
L 220.893445 276.391968 
L 221.326311 276.510002 
L 221.759177 276.500387 
L 222.841372 276.45656 
L 223.274238 276.441203 
L 223.707105 276.527551 
L 224.572857 276.402428 
L 225.222166 276.686977 
L 225.438609 276.483151 
L 225.655032 276.655348 
L 225.871475 276.676173 
L 226.087918 276.407367 
L 226.304341 276.527279 
L 226.95365 276.431917 
L 227.170093 276.616231 
L 228.035845 276.407975 
L 228.252268 276.610181 
L 228.468711 276.429127 
L 228.901577 276.434627 
L 229.11802 276.360815 
L 229.550886 276.538412 
L 229.767329 276.154207 
L 229.983772 276.418358 
L 230.200195 276.459384 
L 230.416638 276.203128 
L 230.633081 276.540615 
L 230.849505 276.00135 
L 231.065948 276.444225 
L 231.28239 276.299852 
L 231.498814 276.410691 
L 231.9317 276.403673 
L 232.148123 276.495215 
L 232.364566 276.156012 
L 232.581009 276.692821 
L 233.013875 276.59753 
L 233.230318 276.34148 
L 233.663184 276.654793 
L 233.879627 276.061386 
L 234.09605 276.408966 
L 234.312493 276.175902 
L 234.528936 276.361076 
L 234.745359 275.88123 
L 235.178245 276.611348 
L 235.394668 276.144905 
L 235.611111 276.51873 
L 235.827534 276.66698 
L 253.575323 276.848671 
L 256.172559 276.856798 
L 260.717723 276.884409 
L 263.531382 276.896538 
L 270.890225 276.898474 
L 273.054595 276.908187 
L 278.681954 276.950163 
L 284.309273 276.953549 
L 287.555819 276.962801 
L 289.936632 276.957694 
L 292.317445 276.976728 
L 299.243382 277.010238 
L 308.117286 277.232619 
L 309.84879 277.624146 
L 312.013141 278.381127 
L 312.878873 278.550952 
L 313.311759 278.475871 
L 316.558305 277.207491 
L 319.155541 276.751839 
L 325.648632 275.908784 
L 326.514364 275.852224 
L 327.380136 276.031975 
L 329.1116 276.501949 
L 331.059528 276.685805 
L 335.821154 276.920923 
L 338.634814 276.958932 
L 354.867541 277.031971 
L 358.546972 277.023553 
L 371.966 277.06151 
L 374.13039 277.066807 
L 379.75771 276.956094 
L 380.839905 276.840802 
L 383.870027 276.438309 
L 385.168645 276.367501 
L 387.982305 276.001571 
L 389.0645 276.065786 
L 390.579541 276.14613 
L 398.37125 275.506074 
L 398.37125 275.506074 
" clip-path="url(#p572112f9f2)" style="fill: none; stroke: #601f52; stroke-linecap: round"/>
   </g>
   <g id="line2d_28"/>
   <g id="line2d_29"/>
   <g id="line2d_30"/>
   <g id="patch_3">
    <path d="M 41.25125 277.248797 
L 41.25125 11.136797 
" style="fill: none; stroke: #262626; stroke-width: 1.25; stroke-linejoin: miter; stroke-linecap: square"/>
   </g>
   <g id="patch_4">
    <path d="M 41.25125 277.248797 
L 398.37125 277.248797 
" style="fill: none; stroke: #262626; stroke-width: 1.25; stroke-linejoin: miter; stroke-linecap: square"/>
   </g>
   <g id="legend_1">
    <g id="line2d_31">
     <path d="M 260.0255 45.415809 
L 266.0255 45.415809 
L 272.0255 45.415809 
" style="fill: none; stroke: #f4865e; stroke-width: 1.5; stroke-linecap: round"/>
    </g>
    <g id="text_16">
     <!-- 0.0% TFA_Abs -->
     <g style="fill: #262626" transform="translate(276.8255 47.515809) scale(0.06 -0.06)">
      <defs>
       <path id="ArialMT-25" d="M 372 3481 
Q 372 3972 619 4315 
Q 866 4659 1334 4659 
Q 1766 4659 2048 4351 
Q 2331 4044 2331 3447 
Q 2331 2866 2045 2552 
Q 1759 2238 1341 2238 
Q 925 2238 648 2547 
Q 372 2856 372 3481 
z
M 1350 4272 
Q 1141 4272 1002 4090 
Q 863 3909 863 3425 
Q 863 2984 1003 2804 
Q 1144 2625 1350 2625 
Q 1563 2625 1702 2806 
Q 1841 2988 1841 3469 
Q 1841 3913 1700 4092 
Q 1559 4272 1350 4272 
z
M 1353 -169 
L 3859 4659 
L 4316 4659 
L 1819 -169 
L 1353 -169 
z
M 3334 1075 
Q 3334 1569 3581 1911 
Q 3828 2253 4300 2253 
Q 4731 2253 5014 1945 
Q 5297 1638 5297 1041 
Q 5297 459 5011 145 
Q 4725 -169 4303 -169 
Q 3888 -169 3611 142 
Q 3334 453 3334 1075 
z
M 4316 1866 
Q 4103 1866 3964 1684 
Q 3825 1503 3825 1019 
Q 3825 581 3965 400 
Q 4106 219 4313 219 
Q 4528 219 4667 400 
Q 4806 581 4806 1063 
Q 4806 1506 4665 1686 
Q 4525 1866 4316 1866 
z
" transform="scale(0.015625)"/>
       <path id="ArialMT-54" d="M 1659 0 
L 1659 4041 
L 150 4041 
L 150 4581 
L 3781 4581 
L 3781 4041 
L 2266 4041 
L 2266 0 
L 1659 0 
z
" transform="scale(0.015625)"/>
       <path id="ArialMT-46" d="M 525 0 
L 525 4581 
L 3616 4581 
L 3616 4041 
L 1131 4041 
L 1131 2622 
L 3281 2622 
L 3281 2081 
L 1131 2081 
L 1131 0 
L 525 0 
z
" transform="scale(0.015625)"/>
       <path id="ArialMT-5f" d="M -97 -1272 
L -97 -866 
L 3631 -866 
L 3631 -1272 
L -97 -1272 
z
" transform="scale(0.015625)"/>
      </defs>
      <use xlink:href="#ArialMT-30"/>
      <use xlink:href="#ArialMT-2e" x="55.615234"/>
      <use xlink:href="#ArialMT-30" x="83.398438"/>
      <use xlink:href="#ArialMT-25" x="139.013672"/>
      <use xlink:href="#ArialMT-20" x="227.929688"/>
      <use xlink:href="#ArialMT-54" x="253.962891"/>
      <use xlink:href="#ArialMT-46" x="315.046875"/>
      <use xlink:href="#ArialMT-41" x="370.630859"/>
      <use xlink:href="#ArialMT-5f" x="437.330078"/>
      <use xlink:href="#ArialMT-41" x="492.945312"/>
      <use xlink:href="#ArialMT-62" x="559.644531"/>
      <use xlink:href="#ArialMT-73" x="615.259766"/>
     </g>
    </g>
    <g id="line2d_32">
     <path d="M 260.0255 53.976122 
L 266.0255 53.976122 
L 272.0255 53.976122 
" style="fill: none; stroke: #ca1a50; stroke-width: 1.5; stroke-linecap: round"/>
    </g>
    <g id="text_17">
     <!-- 0.5% TFA_Abs -->
     <g style="fill: #262626" transform="translate(276.8255 56.076122) scale(0.06 -0.06)">
      <defs>
       <path id="ArialMT-35" d="M 266 1200 
L 856 1250 
Q 922 819 1161 601 
Q 1400 384 1738 384 
Q 2144 384 2425 690 
Q 2706 997 2706 1503 
Q 2706 1984 2436 2262 
Q 2166 2541 1728 2541 
Q 1456 2541 1237 2417 
Q 1019 2294 894 2097 
L 366 2166 
L 809 4519 
L 3088 4519 
L 3088 3981 
L 1259 3981 
L 1013 2750 
Q 1425 3038 1878 3038 
Q 2478 3038 2890 2622 
Q 3303 2206 3303 1553 
Q 3303 931 2941 478 
Q 2500 -78 1738 -78 
Q 1113 -78 717 272 
Q 322 622 266 1200 
z
" transform="scale(0.015625)"/>
      </defs>
      <use xlink:href="#ArialMT-30"/>
      <use xlink:href="#ArialMT-2e" x="55.615234"/>
      <use xlink:href="#ArialMT-35" x="83.398438"/>
      <use xlink:href="#ArialMT-25" x="139.013672"/>
      <use xlink:href="#ArialMT-20" x="227.929688"/>
      <use xlink:href="#ArialMT-54" x="253.962891"/>
      <use xlink:href="#ArialMT-46" x="315.046875"/>
      <use xlink:href="#ArialMT-41" x="370.630859"/>
      <use xlink:href="#ArialMT-5f" x="437.330078"/>
      <use xlink:href="#ArialMT-41" x="492.945312"/>
      <use xlink:href="#ArialMT-62" x="559.644531"/>
      <use xlink:href="#ArialMT-73" x="615.259766"/>
     </g>
    </g>
    <g id="line2d_33">
     <path d="M 260.0255 62.536434 
L 266.0255 62.536434 
L 272.0255 62.536434 
" style="fill: none; stroke: #601f52; stroke-width: 1.5; stroke-linecap: round"/>
    </g>
    <g id="text_18">
     <!-- 0.5% TFA + triethylamine_Abs -->
     <g style="fill: #262626" transform="translate(276.8255 64.636434) scale(0.06 -0.06)">
      <defs>
       <path id="ArialMT-2b" d="M 1603 741 
L 1603 1997 
L 356 1997 
L 356 2522 
L 1603 2522 
L 1603 3769 
L 2134 3769 
L 2134 2522 
L 3381 2522 
L 3381 1997 
L 2134 1997 
L 2134 741 
L 1603 741 
z
" transform="scale(0.015625)"/>
       <path id="ArialMT-69" d="M 425 3934 
L 425 4581 
L 988 4581 
L 988 3934 
L 425 3934 
z
M 425 0 
L 425 3319 
L 988 3319 
L 988 0 
L 425 0 
z
" transform="scale(0.015625)"/>
       <path id="ArialMT-79" d="M 397 -1278 
L 334 -750 
Q 519 -800 656 -800 
Q 844 -800 956 -737 
Q 1069 -675 1141 -563 
Q 1194 -478 1313 -144 
Q 1328 -97 1363 -6 
L 103 3319 
L 709 3319 
L 1400 1397 
Q 1534 1031 1641 628 
Q 1738 1016 1872 1384 
L 2581 3319 
L 3144 3319 
L 1881 -56 
Q 1678 -603 1566 -809 
Q 1416 -1088 1222 -1217 
Q 1028 -1347 759 -1347 
Q 597 -1347 397 -1278 
z
" transform="scale(0.015625)"/>
      </defs>
      <use xlink:href="#ArialMT-30"/>
      <use xlink:href="#ArialMT-2e" x="55.615234"/>
      <use xlink:href="#ArialMT-35" x="83.398438"/>
      <use xlink:href="#ArialMT-25" x="139.013672"/>
      <use xlink:href="#ArialMT-20" x="227.929688"/>
      <use xlink:href="#ArialMT-54" x="253.962891"/>
      <use xlink:href="#ArialMT-46" x="315.046875"/>
      <use xlink:href="#ArialMT-41" x="370.630859"/>
      <use xlink:href="#ArialMT-20" x="431.830078"/>
      <use xlink:href="#ArialMT-2b" x="459.613281"/>
      <use xlink:href="#ArialMT-20" x="518.011719"/>
      <use xlink:href="#ArialMT-74" x="545.794922"/>
      <use xlink:href="#ArialMT-72" x="573.578125"/>
      <use xlink:href="#ArialMT-69" x="606.878906"/>
      <use xlink:href="#ArialMT-65" x="629.095703"/>
      <use xlink:href="#ArialMT-74" x="684.710938"/>
      <use xlink:href="#ArialMT-68" x="712.494141"/>
      <use xlink:href="#ArialMT-79" x="768.109375"/>
      <use xlink:href="#ArialMT-6c" x="818.109375"/>
      <use xlink:href="#ArialMT-61" x="840.326172"/>
      <use xlink:href="#ArialMT-6d" x="895.941406"/>
      <use xlink:href="#ArialMT-69" x="979.242188"/>
      <use xlink:href="#ArialMT-6e" x="1001.458984"/>
      <use xlink:href="#ArialMT-65" x="1057.074219"/>
      <use xlink:href="#ArialMT-5f" x="1112.689453"/>
      <use xlink:href="#ArialMT-41" x="1168.304688"/>
      <use xlink:href="#ArialMT-62" x="1235.003906"/>
      <use xlink:href="#ArialMT-73" x="1290.619141"/>
     </g>
    </g>
   </g>
  </g>
 </g>
 <defs>
  <clipPath id="p572112f9f2">
   <rect x="41.25125" y="11.136797" width="357.12" height="266.112"/>
  </clipPath>
 </defs>
</svg>
