<?xml version="1.0" encoding="utf-8" standalone="no"?>
<!DOCTYPE svg PUBLIC "-//W3C//DTD SVG 1.1//EN"
  "http://www.w3.org/Graphics/SVG/1.1/DTD/svg11.dtd">
<svg xmlns:xlink="http://www.w3.org/1999/xlink" width="405.57125pt" height="313.269891pt" viewBox="0 0 405.57125 313.269891" xmlns="http://www.w3.org/2000/svg" version="1.1">
 <metadata>
  <rdf:RDF xmlns:dc="http://purl.org/dc/elements/1.1/" xmlns:cc="http://creativecommons.org/ns#" xmlns:rdf="http://www.w3.org/1999/02/22-rdf-syntax-ns#">
   <cc:Work>
    <dc:type rdf:resource="http://purl.org/dc/dcmitype/StillImage"/>
    <dc:date>2024-09-13T09:24:39.208622</dc:date>
    <dc:format>image/svg+xml</dc:format>
    <dc:creator>
     <cc:Agent>
      <dc:title>Matplotlib v3.7.1, https://matplotlib.org/</dc:title>
     </cc:Agent>
    </dc:creator>
   </cc:Work>
  </rdf:RDF>
 </metadata>
 <defs>
  <style type="text/css">*{stroke-linejoin: round; stroke-linecap: butt}</style>
 </defs>
 <g id="figure_1">
  <g id="patch_1">
   <path d="M 0 313.269891 
L 405.57125 313.269891 
L 405.57125 0 
L 0 0 
z
" style="fill: #ffffff"/>
  </g>
  <g id="axes_1">
   <g id="patch_2">
    <path d="M 41.25125 277.248797 
L 398.37125 277.248797 
L 398.37125 11.136797 
L 41.25125 11.136797 
z
" style="fill: #ffffff"/>
   </g>
   <g id="matplotlib.axis_1">
    <g id="xtick_1">
     <g id="line2d_1">
      <defs>
       <path id="m9730662e38" d="M 0 0 
L 0 -6 
" style="stroke: #262626; stroke-width: 1.25"/>
      </defs>
      <g>
       <use xlink:href="#m9730662e38" x="74.014553" y="277.248797" style="fill: #262626; stroke: #262626; stroke-width: 1.25"/>
      </g>
     </g>
     <g id="text_1">
      <!-- 400 -->
      <g style="fill: #262626" transform="translate(64.839006 288.622391) scale(0.11 -0.11)">
       <defs>
        <path id="ArialMT-34" d="M 2069 0 
L 2069 1097 
L 81 1097 
L 81 1613 
L 2172 4581 
L 2631 4581 
L 2631 1613 
L 3250 1613 
L 3250 1097 
L 2631 1097 
L 2631 0 
L 2069 0 
z
M 2069 1613 
L 2069 3678 
L 634 1613 
L 2069 1613 
z
" transform="scale(0.015625)"/>
        <path id="ArialMT-30" d="M 266 2259 
Q 266 3072 433 3567 
Q 600 4063 929 4331 
Q 1259 4600 1759 4600 
Q 2128 4600 2406 4451 
Q 2684 4303 2865 4023 
Q 3047 3744 3150 3342 
Q 3253 2941 3253 2259 
Q 3253 1453 3087 958 
Q 2922 463 2592 192 
Q 2263 -78 1759 -78 
Q 1097 -78 719 397 
Q 266 969 266 2259 
z
M 844 2259 
Q 844 1131 1108 757 
Q 1372 384 1759 384 
Q 2147 384 2411 759 
Q 2675 1134 2675 2259 
Q 2675 3391 2411 3762 
Q 2147 4134 1753 4134 
Q 1366 4134 1134 3806 
Q 844 3388 844 2259 
z
" transform="scale(0.015625)"/>
       </defs>
       <use xlink:href="#ArialMT-34"/>
       <use xlink:href="#ArialMT-30" x="55.615234"/>
       <use xlink:href="#ArialMT-30" x="111.230469"/>
      </g>
     </g>
    </g>
    <g id="xtick_2">
     <g id="line2d_2">
      <g>
       <use xlink:href="#m9730662e38" x="139.541158" y="277.248797" style="fill: #262626; stroke: #262626; stroke-width: 1.25"/>
      </g>
     </g>
     <g id="text_2">
      <!-- 600 -->
      <g style="fill: #262626" transform="translate(130.365611 288.622391) scale(0.11 -0.11)">
       <defs>
        <path id="ArialMT-36" d="M 3184 3459 
L 2625 3416 
Q 2550 3747 2413 3897 
Q 2184 4138 1850 4138 
Q 1581 4138 1378 3988 
Q 1113 3794 959 3422 
Q 806 3050 800 2363 
Q 1003 2672 1297 2822 
Q 1591 2972 1913 2972 
Q 2475 2972 2870 2558 
Q 3266 2144 3266 1488 
Q 3266 1056 3080 686 
Q 2894 316 2569 119 
Q 2244 -78 1831 -78 
Q 1128 -78 684 439 
Q 241 956 241 2144 
Q 241 3472 731 4075 
Q 1159 4600 1884 4600 
Q 2425 4600 2770 4297 
Q 3116 3994 3184 3459 
z
M 888 1484 
Q 888 1194 1011 928 
Q 1134 663 1356 523 
Q 1578 384 1822 384 
Q 2178 384 2434 671 
Q 2691 959 2691 1453 
Q 2691 1928 2437 2201 
Q 2184 2475 1800 2475 
Q 1419 2475 1153 2201 
Q 888 1928 888 1484 
z
" transform="scale(0.015625)"/>
       </defs>
       <use xlink:href="#ArialMT-36"/>
       <use xlink:href="#ArialMT-30" x="55.615234"/>
       <use xlink:href="#ArialMT-30" x="111.230469"/>
      </g>
     </g>
    </g>
    <g id="xtick_3">
     <g id="line2d_3">
      <g>
       <use xlink:href="#m9730662e38" x="205.067764" y="277.248797" style="fill: #262626; stroke: #262626; stroke-width: 1.25"/>
      </g>
     </g>
     <g id="text_3">
      <!-- 800 -->
      <g style="fill: #262626" transform="translate(195.892217 288.622391) scale(0.11 -0.11)">
       <defs>
        <path id="ArialMT-38" d="M 1131 2484 
Q 781 2613 612 2850 
Q 444 3088 444 3419 
Q 444 3919 803 4259 
Q 1163 4600 1759 4600 
Q 2359 4600 2725 4251 
Q 3091 3903 3091 3403 
Q 3091 3084 2923 2848 
Q 2756 2613 2416 2484 
Q 2838 2347 3058 2040 
Q 3278 1734 3278 1309 
Q 3278 722 2862 322 
Q 2447 -78 1769 -78 
Q 1091 -78 675 323 
Q 259 725 259 1325 
Q 259 1772 486 2073 
Q 713 2375 1131 2484 
z
M 1019 3438 
Q 1019 3113 1228 2906 
Q 1438 2700 1772 2700 
Q 2097 2700 2305 2904 
Q 2513 3109 2513 3406 
Q 2513 3716 2298 3927 
Q 2084 4138 1766 4138 
Q 1444 4138 1231 3931 
Q 1019 3725 1019 3438 
z
M 838 1322 
Q 838 1081 952 856 
Q 1066 631 1291 507 
Q 1516 384 1775 384 
Q 2178 384 2440 643 
Q 2703 903 2703 1303 
Q 2703 1709 2433 1975 
Q 2163 2241 1756 2241 
Q 1359 2241 1098 1978 
Q 838 1716 838 1322 
z
" transform="scale(0.015625)"/>
       </defs>
       <use xlink:href="#ArialMT-38"/>
       <use xlink:href="#ArialMT-30" x="55.615234"/>
       <use xlink:href="#ArialMT-30" x="111.230469"/>
      </g>
     </g>
    </g>
    <g id="xtick_4">
     <g id="line2d_4">
      <g>
       <use xlink:href="#m9730662e38" x="270.594369" y="277.248797" style="fill: #262626; stroke: #262626; stroke-width: 1.25"/>
      </g>
     </g>
     <g id="text_4">
      <!-- 1000 -->
      <g style="fill: #262626" transform="translate(258.360307 288.622391) scale(0.11 -0.11)">
       <defs>
        <path id="ArialMT-31" d="M 2384 0 
L 1822 0 
L 1822 3584 
Q 1619 3391 1289 3197 
Q 959 3003 697 2906 
L 697 3450 
Q 1169 3672 1522 3987 
Q 1875 4303 2022 4600 
L 2384 4600 
L 2384 0 
z
" transform="scale(0.015625)"/>
       </defs>
       <use xlink:href="#ArialMT-31"/>
       <use xlink:href="#ArialMT-30" x="55.615234"/>
       <use xlink:href="#ArialMT-30" x="111.230469"/>
       <use xlink:href="#ArialMT-30" x="166.845703"/>
      </g>
     </g>
    </g>
    <g id="xtick_5">
     <g id="line2d_5">
      <g>
       <use xlink:href="#m9730662e38" x="336.120975" y="277.248797" style="fill: #262626; stroke: #262626; stroke-width: 1.25"/>
      </g>
     </g>
     <g id="text_5">
      <!-- 1200 -->
      <g style="fill: #262626" transform="translate(323.886912 288.622391) scale(0.11 -0.11)">
       <defs>
        <path id="ArialMT-32" d="M 3222 541 
L 3222 0 
L 194 0 
Q 188 203 259 391 
Q 375 700 629 1000 
Q 884 1300 1366 1694 
Q 2113 2306 2375 2664 
Q 2638 3022 2638 3341 
Q 2638 3675 2398 3904 
Q 2159 4134 1775 4134 
Q 1369 4134 1125 3890 
Q 881 3647 878 3216 
L 300 3275 
Q 359 3922 746 4261 
Q 1134 4600 1788 4600 
Q 2447 4600 2831 4234 
Q 3216 3869 3216 3328 
Q 3216 3053 3103 2787 
Q 2991 2522 2730 2228 
Q 2469 1934 1863 1422 
Q 1356 997 1212 845 
Q 1069 694 975 541 
L 3222 541 
z
" transform="scale(0.015625)"/>
       </defs>
       <use xlink:href="#ArialMT-31"/>
       <use xlink:href="#ArialMT-32" x="55.615234"/>
       <use xlink:href="#ArialMT-30" x="111.230469"/>
       <use xlink:href="#ArialMT-30" x="166.845703"/>
      </g>
     </g>
    </g>
    <g id="xtick_6">
     <g id="line2d_6">
      <defs>
       <path id="m563e170c23" d="M 0 0 
L 0 -4 
" style="stroke: #262626"/>
      </defs>
      <g>
       <use xlink:href="#m563e170c23" x="106.777856" y="277.248797" style="fill: #262626; stroke: #262626"/>
      </g>
     </g>
    </g>
    <g id="xtick_7">
     <g id="line2d_7">
      <g>
       <use xlink:href="#m563e170c23" x="172.304461" y="277.248797" style="fill: #262626; stroke: #262626"/>
      </g>
     </g>
    </g>
    <g id="xtick_8">
     <g id="line2d_8">
      <g>
       <use xlink:href="#m563e170c23" x="237.831067" y="277.248797" style="fill: #262626; stroke: #262626"/>
      </g>
     </g>
    </g>
    <g id="xtick_9">
     <g id="line2d_9">
      <g>
       <use xlink:href="#m563e170c23" x="303.357672" y="277.248797" style="fill: #262626; stroke: #262626"/>
      </g>
     </g>
    </g>
    <g id="xtick_10">
     <g id="line2d_10">
      <g>
       <use xlink:href="#m563e170c23" x="368.884278" y="277.248797" style="fill: #262626; stroke: #262626"/>
      </g>
     </g>
    </g>
    <g id="text_6">
     <!-- Wavelength (nm) -->
     <g style="fill: #262626" transform="translate(174.356562 303.544266) scale(0.12 -0.12)">
      <defs>
       <path id="ArialMT-57" d="M 1294 0 
L 78 4581 
L 700 4581 
L 1397 1578 
Q 1509 1106 1591 641 
Q 1766 1375 1797 1488 
L 2669 4581 
L 3400 4581 
L 4056 2263 
Q 4303 1400 4413 641 
Q 4500 1075 4641 1638 
L 5359 4581 
L 5969 4581 
L 4713 0 
L 4128 0 
L 3163 3491 
Q 3041 3928 3019 4028 
Q 2947 3713 2884 3491 
L 1913 0 
L 1294 0 
z
" transform="scale(0.015625)"/>
       <path id="ArialMT-61" d="M 2588 409 
Q 2275 144 1986 34 
Q 1697 -75 1366 -75 
Q 819 -75 525 192 
Q 231 459 231 875 
Q 231 1119 342 1320 
Q 453 1522 633 1644 
Q 813 1766 1038 1828 
Q 1203 1872 1538 1913 
Q 2219 1994 2541 2106 
Q 2544 2222 2544 2253 
Q 2544 2597 2384 2738 
Q 2169 2928 1744 2928 
Q 1347 2928 1158 2789 
Q 969 2650 878 2297 
L 328 2372 
Q 403 2725 575 2942 
Q 747 3159 1072 3276 
Q 1397 3394 1825 3394 
Q 2250 3394 2515 3294 
Q 2781 3194 2906 3042 
Q 3031 2891 3081 2659 
Q 3109 2516 3109 2141 
L 3109 1391 
Q 3109 606 3145 398 
Q 3181 191 3288 0 
L 2700 0 
Q 2613 175 2588 409 
z
M 2541 1666 
Q 2234 1541 1622 1453 
Q 1275 1403 1131 1340 
Q 988 1278 909 1158 
Q 831 1038 831 891 
Q 831 666 1001 516 
Q 1172 366 1500 366 
Q 1825 366 2078 508 
Q 2331 650 2450 897 
Q 2541 1088 2541 1459 
L 2541 1666 
z
" transform="scale(0.015625)"/>
       <path id="ArialMT-76" d="M 1344 0 
L 81 3319 
L 675 3319 
L 1388 1331 
Q 1503 1009 1600 663 
Q 1675 925 1809 1294 
L 2547 3319 
L 3125 3319 
L 1869 0 
L 1344 0 
z
" transform="scale(0.015625)"/>
       <path id="ArialMT-65" d="M 2694 1069 
L 3275 997 
Q 3138 488 2766 206 
Q 2394 -75 1816 -75 
Q 1088 -75 661 373 
Q 234 822 234 1631 
Q 234 2469 665 2931 
Q 1097 3394 1784 3394 
Q 2450 3394 2872 2941 
Q 3294 2488 3294 1666 
Q 3294 1616 3291 1516 
L 816 1516 
Q 847 969 1125 678 
Q 1403 388 1819 388 
Q 2128 388 2347 550 
Q 2566 713 2694 1069 
z
M 847 1978 
L 2700 1978 
Q 2663 2397 2488 2606 
Q 2219 2931 1791 2931 
Q 1403 2931 1139 2672 
Q 875 2413 847 1978 
z
" transform="scale(0.015625)"/>
       <path id="ArialMT-6c" d="M 409 0 
L 409 4581 
L 972 4581 
L 972 0 
L 409 0 
z
" transform="scale(0.015625)"/>
       <path id="ArialMT-6e" d="M 422 0 
L 422 3319 
L 928 3319 
L 928 2847 
Q 1294 3394 1984 3394 
Q 2284 3394 2536 3286 
Q 2788 3178 2913 3003 
Q 3038 2828 3088 2588 
Q 3119 2431 3119 2041 
L 3119 0 
L 2556 0 
L 2556 2019 
Q 2556 2363 2490 2533 
Q 2425 2703 2258 2804 
Q 2091 2906 1866 2906 
Q 1506 2906 1245 2678 
Q 984 2450 984 1813 
L 984 0 
L 422 0 
z
" transform="scale(0.015625)"/>
       <path id="ArialMT-67" d="M 319 -275 
L 866 -356 
Q 900 -609 1056 -725 
Q 1266 -881 1628 -881 
Q 2019 -881 2231 -725 
Q 2444 -569 2519 -288 
Q 2563 -116 2559 434 
Q 2191 0 1641 0 
Q 956 0 581 494 
Q 206 988 206 1678 
Q 206 2153 378 2554 
Q 550 2956 876 3175 
Q 1203 3394 1644 3394 
Q 2231 3394 2613 2919 
L 2613 3319 
L 3131 3319 
L 3131 450 
Q 3131 -325 2973 -648 
Q 2816 -972 2473 -1159 
Q 2131 -1347 1631 -1347 
Q 1038 -1347 672 -1080 
Q 306 -813 319 -275 
z
M 784 1719 
Q 784 1066 1043 766 
Q 1303 466 1694 466 
Q 2081 466 2343 764 
Q 2606 1063 2606 1700 
Q 2606 2309 2336 2618 
Q 2066 2928 1684 2928 
Q 1309 2928 1046 2623 
Q 784 2319 784 1719 
z
" transform="scale(0.015625)"/>
       <path id="ArialMT-74" d="M 1650 503 
L 1731 6 
Q 1494 -44 1306 -44 
Q 1000 -44 831 53 
Q 663 150 594 308 
Q 525 466 525 972 
L 525 2881 
L 113 2881 
L 113 3319 
L 525 3319 
L 525 4141 
L 1084 4478 
L 1084 3319 
L 1650 3319 
L 1650 2881 
L 1084 2881 
L 1084 941 
Q 1084 700 1114 631 
Q 1144 563 1211 522 
Q 1278 481 1403 481 
Q 1497 481 1650 503 
z
" transform="scale(0.015625)"/>
       <path id="ArialMT-68" d="M 422 0 
L 422 4581 
L 984 4581 
L 984 2938 
Q 1378 3394 1978 3394 
Q 2347 3394 2619 3248 
Q 2891 3103 3008 2847 
Q 3125 2591 3125 2103 
L 3125 0 
L 2563 0 
L 2563 2103 
Q 2563 2525 2380 2717 
Q 2197 2909 1863 2909 
Q 1613 2909 1392 2779 
Q 1172 2650 1078 2428 
Q 984 2206 984 1816 
L 984 0 
L 422 0 
z
" transform="scale(0.015625)"/>
       <path id="ArialMT-20" transform="scale(0.015625)"/>
       <path id="ArialMT-28" d="M 1497 -1347 
Q 1031 -759 709 28 
Q 388 816 388 1659 
Q 388 2403 628 3084 
Q 909 3875 1497 4659 
L 1900 4659 
Q 1522 4009 1400 3731 
Q 1209 3300 1100 2831 
Q 966 2247 966 1656 
Q 966 153 1900 -1347 
L 1497 -1347 
z
" transform="scale(0.015625)"/>
       <path id="ArialMT-6d" d="M 422 0 
L 422 3319 
L 925 3319 
L 925 2853 
Q 1081 3097 1340 3245 
Q 1600 3394 1931 3394 
Q 2300 3394 2536 3241 
Q 2772 3088 2869 2813 
Q 3263 3394 3894 3394 
Q 4388 3394 4653 3120 
Q 4919 2847 4919 2278 
L 4919 0 
L 4359 0 
L 4359 2091 
Q 4359 2428 4304 2576 
Q 4250 2725 4106 2815 
Q 3963 2906 3769 2906 
Q 3419 2906 3187 2673 
Q 2956 2441 2956 1928 
L 2956 0 
L 2394 0 
L 2394 2156 
Q 2394 2531 2256 2718 
Q 2119 2906 1806 2906 
Q 1569 2906 1367 2781 
Q 1166 2656 1075 2415 
Q 984 2175 984 1722 
L 984 0 
L 422 0 
z
" transform="scale(0.015625)"/>
       <path id="ArialMT-29" d="M 791 -1347 
L 388 -1347 
Q 1322 153 1322 1656 
Q 1322 2244 1188 2822 
Q 1081 3291 891 3722 
Q 769 4003 388 4659 
L 791 4659 
Q 1378 3875 1659 3084 
Q 1900 2403 1900 1659 
Q 1900 816 1576 28 
Q 1253 -759 791 -1347 
z
" transform="scale(0.015625)"/>
      </defs>
      <use xlink:href="#ArialMT-57"/>
      <use xlink:href="#ArialMT-61" x="90.634766"/>
      <use xlink:href="#ArialMT-76" x="146.25"/>
      <use xlink:href="#ArialMT-65" x="196.25"/>
      <use xlink:href="#ArialMT-6c" x="251.865234"/>
      <use xlink:href="#ArialMT-65" x="274.082031"/>
      <use xlink:href="#ArialMT-6e" x="329.697266"/>
      <use xlink:href="#ArialMT-67" x="385.3125"/>
      <use xlink:href="#ArialMT-74" x="440.927734"/>
      <use xlink:href="#ArialMT-68" x="468.710938"/>
      <use xlink:href="#ArialMT-20" x="524.326172"/>
      <use xlink:href="#ArialMT-28" x="552.109375"/>
      <use xlink:href="#ArialMT-6e" x="585.410156"/>
      <use xlink:href="#ArialMT-6d" x="641.025391"/>
      <use xlink:href="#ArialMT-29" x="724.326172"/>
     </g>
    </g>
   </g>
   <g id="matplotlib.axis_2">
    <g id="ytick_1">
     <g id="line2d_11">
      <defs>
       <path id="mc5bdeb7b59" d="M 0 0 
L 6 0 
" style="stroke: #262626; stroke-width: 1.25"/>
      </defs>
      <g>
       <use xlink:href="#mc5bdeb7b59" x="41.25125" y="277.248797" style="fill: #262626; stroke: #262626; stroke-width: 1.25"/>
      </g>
     </g>
     <g id="text_7">
      <!-- 0.0 -->
      <g style="fill: #262626" transform="translate(22.46125 281.185594) scale(0.11 -0.11)">
       <defs>
        <path id="ArialMT-2e" d="M 581 0 
L 581 641 
L 1222 641 
L 1222 0 
L 581 0 
z
" transform="scale(0.015625)"/>
       </defs>
       <use xlink:href="#ArialMT-30"/>
       <use xlink:href="#ArialMT-2e" x="55.615234"/>
       <use xlink:href="#ArialMT-30" x="83.398438"/>
      </g>
     </g>
    </g>
    <g id="ytick_2">
     <g id="line2d_12">
      <g>
       <use xlink:href="#mc5bdeb7b59" x="41.25125" y="247.680797" style="fill: #262626; stroke: #262626; stroke-width: 1.25"/>
      </g>
     </g>
     <g id="text_8">
      <!-- 0.1 -->
      <g style="fill: #262626" transform="translate(22.46125 251.617594) scale(0.11 -0.11)">
       <use xlink:href="#ArialMT-30"/>
       <use xlink:href="#ArialMT-2e" x="55.615234"/>
       <use xlink:href="#ArialMT-31" x="83.398438"/>
      </g>
     </g>
    </g>
    <g id="ytick_3">
     <g id="line2d_13">
      <g>
       <use xlink:href="#mc5bdeb7b59" x="41.25125" y="218.112797" style="fill: #262626; stroke: #262626; stroke-width: 1.25"/>
      </g>
     </g>
     <g id="text_9">
      <!-- 0.2 -->
      <g style="fill: #262626" transform="translate(22.46125 222.049594) scale(0.11 -0.11)">
       <use xlink:href="#ArialMT-30"/>
       <use xlink:href="#ArialMT-2e" x="55.615234"/>
       <use xlink:href="#ArialMT-32" x="83.398438"/>
      </g>
     </g>
    </g>
    <g id="ytick_4">
     <g id="line2d_14">
      <g>
       <use xlink:href="#mc5bdeb7b59" x="41.25125" y="188.544797" style="fill: #262626; stroke: #262626; stroke-width: 1.25"/>
      </g>
     </g>
     <g id="text_10">
      <!-- 0.3 -->
      <g style="fill: #262626" transform="translate(22.46125 192.481594) scale(0.11 -0.11)">
       <defs>
        <path id="ArialMT-33" d="M 269 1209 
L 831 1284 
Q 928 806 1161 595 
Q 1394 384 1728 384 
Q 2125 384 2398 659 
Q 2672 934 2672 1341 
Q 2672 1728 2419 1979 
Q 2166 2231 1775 2231 
Q 1616 2231 1378 2169 
L 1441 2663 
Q 1497 2656 1531 2656 
Q 1891 2656 2178 2843 
Q 2466 3031 2466 3422 
Q 2466 3731 2256 3934 
Q 2047 4138 1716 4138 
Q 1388 4138 1169 3931 
Q 950 3725 888 3313 
L 325 3413 
Q 428 3978 793 4289 
Q 1159 4600 1703 4600 
Q 2078 4600 2393 4439 
Q 2709 4278 2876 4000 
Q 3044 3722 3044 3409 
Q 3044 3113 2884 2869 
Q 2725 2625 2413 2481 
Q 2819 2388 3044 2092 
Q 3269 1797 3269 1353 
Q 3269 753 2831 336 
Q 2394 -81 1725 -81 
Q 1122 -81 723 278 
Q 325 638 269 1209 
z
" transform="scale(0.015625)"/>
       </defs>
       <use xlink:href="#ArialMT-30"/>
       <use xlink:href="#ArialMT-2e" x="55.615234"/>
       <use xlink:href="#ArialMT-33" x="83.398438"/>
      </g>
     </g>
    </g>
    <g id="ytick_5">
     <g id="line2d_15">
      <g>
       <use xlink:href="#mc5bdeb7b59" x="41.25125" y="158.976797" style="fill: #262626; stroke: #262626; stroke-width: 1.25"/>
      </g>
     </g>
     <g id="text_11">
      <!-- 0.4 -->
      <g style="fill: #262626" transform="translate(22.46125 162.913594) scale(0.11 -0.11)">
       <use xlink:href="#ArialMT-30"/>
       <use xlink:href="#ArialMT-2e" x="55.615234"/>
       <use xlink:href="#ArialMT-34" x="83.398438"/>
      </g>
     </g>
    </g>
    <g id="ytick_6">
     <g id="line2d_16">
      <g>
       <use xlink:href="#mc5bdeb7b59" x="41.25125" y="129.408797" style="fill: #262626; stroke: #262626; stroke-width: 1.25"/>
      </g>
     </g>
     <g id="text_12">
      <!-- 0.5 -->
      <g style="fill: #262626" transform="translate(22.46125 133.345594) scale(0.11 -0.11)">
       <defs>
        <path id="ArialMT-35" d="M 266 1200 
L 856 1250 
Q 922 819 1161 601 
Q 1400 384 1738 384 
Q 2144 384 2425 690 
Q 2706 997 2706 1503 
Q 2706 1984 2436 2262 
Q 2166 2541 1728 2541 
Q 1456 2541 1237 2417 
Q 1019 2294 894 2097 
L 366 2166 
L 809 4519 
L 3088 4519 
L 3088 3981 
L 1259 3981 
L 1013 2750 
Q 1425 3038 1878 3038 
Q 2478 3038 2890 2622 
Q 3303 2206 3303 1553 
Q 3303 931 2941 478 
Q 2500 -78 1738 -78 
Q 1113 -78 717 272 
Q 322 622 266 1200 
z
" transform="scale(0.015625)"/>
       </defs>
       <use xlink:href="#ArialMT-30"/>
       <use xlink:href="#ArialMT-2e" x="55.615234"/>
       <use xlink:href="#ArialMT-35" x="83.398438"/>
      </g>
     </g>
    </g>
    <g id="ytick_7">
     <g id="line2d_17">
      <g>
       <use xlink:href="#mc5bdeb7b59" x="41.25125" y="99.840797" style="fill: #262626; stroke: #262626; stroke-width: 1.25"/>
      </g>
     </g>
     <g id="text_13">
      <!-- 0.6 -->
      <g style="fill: #262626" transform="translate(22.46125 103.777594) scale(0.11 -0.11)">
       <use xlink:href="#ArialMT-30"/>
       <use xlink:href="#ArialMT-2e" x="55.615234"/>
       <use xlink:href="#ArialMT-36" x="83.398438"/>
      </g>
     </g>
    </g>
    <g id="ytick_8">
     <g id="line2d_18">
      <g>
       <use xlink:href="#mc5bdeb7b59" x="41.25125" y="70.272797" style="fill: #262626; stroke: #262626; stroke-width: 1.25"/>
      </g>
     </g>
     <g id="text_14">
      <!-- 0.7 -->
      <g style="fill: #262626" transform="translate(22.46125 74.209594) scale(0.11 -0.11)">
       <defs>
        <path id="ArialMT-37" d="M 303 3981 
L 303 4522 
L 3269 4522 
L 3269 4084 
Q 2831 3619 2401 2847 
Q 1972 2075 1738 1259 
Q 1569 684 1522 0 
L 944 0 
Q 953 541 1156 1306 
Q 1359 2072 1739 2783 
Q 2119 3494 2547 3981 
L 303 3981 
z
" transform="scale(0.015625)"/>
       </defs>
       <use xlink:href="#ArialMT-30"/>
       <use xlink:href="#ArialMT-2e" x="55.615234"/>
       <use xlink:href="#ArialMT-37" x="83.398438"/>
      </g>
     </g>
    </g>
    <g id="ytick_9">
     <g id="line2d_19">
      <g>
       <use xlink:href="#mc5bdeb7b59" x="41.25125" y="40.704797" style="fill: #262626; stroke: #262626; stroke-width: 1.25"/>
      </g>
     </g>
     <g id="text_15">
      <!-- 0.8 -->
      <g style="fill: #262626" transform="translate(22.46125 44.641594) scale(0.11 -0.11)">
       <use xlink:href="#ArialMT-30"/>
       <use xlink:href="#ArialMT-2e" x="55.615234"/>
       <use xlink:href="#ArialMT-38" x="83.398438"/>
      </g>
     </g>
    </g>
    <g id="ytick_10">
     <g id="line2d_20">
      <g>
       <use xlink:href="#mc5bdeb7b59" x="41.25125" y="11.136797" style="fill: #262626; stroke: #262626; stroke-width: 1.25"/>
      </g>
     </g>
     <g id="text_16">
      <!-- 0.9 -->
      <g style="fill: #262626" transform="translate(22.46125 15.073594) scale(0.11 -0.11)">
       <defs>
        <path id="ArialMT-39" d="M 350 1059 
L 891 1109 
Q 959 728 1153 556 
Q 1347 384 1650 384 
Q 1909 384 2104 503 
Q 2300 622 2425 820 
Q 2550 1019 2634 1356 
Q 2719 1694 2719 2044 
Q 2719 2081 2716 2156 
Q 2547 1888 2255 1720 
Q 1963 1553 1622 1553 
Q 1053 1553 659 1965 
Q 266 2378 266 3053 
Q 266 3750 677 4175 
Q 1088 4600 1706 4600 
Q 2153 4600 2523 4359 
Q 2894 4119 3086 3673 
Q 3278 3228 3278 2384 
Q 3278 1506 3087 986 
Q 2897 466 2520 194 
Q 2144 -78 1638 -78 
Q 1100 -78 759 220 
Q 419 519 350 1059 
z
M 2653 3081 
Q 2653 3566 2395 3850 
Q 2138 4134 1775 4134 
Q 1400 4134 1122 3828 
Q 844 3522 844 3034 
Q 844 2597 1108 2323 
Q 1372 2050 1759 2050 
Q 2150 2050 2401 2323 
Q 2653 2597 2653 3081 
z
" transform="scale(0.015625)"/>
       </defs>
       <use xlink:href="#ArialMT-30"/>
       <use xlink:href="#ArialMT-2e" x="55.615234"/>
       <use xlink:href="#ArialMT-39" x="83.398438"/>
      </g>
     </g>
    </g>
    <g id="ytick_11">
     <g id="line2d_21">
      <defs>
       <path id="m8462c06d39" d="M 0 0 
L 4 0 
" style="stroke: #262626"/>
      </defs>
      <g>
       <use xlink:href="#m8462c06d39" x="41.25125" y="262.464797" style="fill: #262626; stroke: #262626"/>
      </g>
     </g>
    </g>
    <g id="ytick_12">
     <g id="line2d_22">
      <g>
       <use xlink:href="#m8462c06d39" x="41.25125" y="232.896797" style="fill: #262626; stroke: #262626"/>
      </g>
     </g>
    </g>
    <g id="ytick_13">
     <g id="line2d_23">
      <g>
       <use xlink:href="#m8462c06d39" x="41.25125" y="203.328797" style="fill: #262626; stroke: #262626"/>
      </g>
     </g>
    </g>
    <g id="ytick_14">
     <g id="line2d_24">
      <g>
       <use xlink:href="#m8462c06d39" x="41.25125" y="173.760797" style="fill: #262626; stroke: #262626"/>
      </g>
     </g>
    </g>
    <g id="ytick_15">
     <g id="line2d_25">
      <g>
       <use xlink:href="#m8462c06d39" x="41.25125" y="144.192797" style="fill: #262626; stroke: #262626"/>
      </g>
     </g>
    </g>
    <g id="ytick_16">
     <g id="line2d_26">
      <g>
       <use xlink:href="#m8462c06d39" x="41.25125" y="114.624797" style="fill: #262626; stroke: #262626"/>
      </g>
     </g>
    </g>
    <g id="ytick_17">
     <g id="line2d_27">
      <g>
       <use xlink:href="#m8462c06d39" x="41.25125" y="85.056797" style="fill: #262626; stroke: #262626"/>
      </g>
     </g>
    </g>
    <g id="ytick_18">
     <g id="line2d_28">
      <g>
       <use xlink:href="#m8462c06d39" x="41.25125" y="55.488797" style="fill: #262626; stroke: #262626"/>
      </g>
     </g>
    </g>
    <g id="ytick_19">
     <g id="line2d_29">
      <g>
       <use xlink:href="#m8462c06d39" x="41.25125" y="25.920797" style="fill: #262626; stroke: #262626"/>
      </g>
     </g>
    </g>
    <g id="text_17">
     <!-- Absorbance (a.u.) -->
     <g style="fill: #262626" transform="translate(15.935625 191.881547) rotate(-90) scale(0.12 -0.12)">
      <defs>
       <path id="ArialMT-41" d="M -9 0 
L 1750 4581 
L 2403 4581 
L 4278 0 
L 3588 0 
L 3053 1388 
L 1138 1388 
L 634 0 
L -9 0 
z
M 1313 1881 
L 2866 1881 
L 2388 3150 
Q 2169 3728 2063 4100 
Q 1975 3659 1816 3225 
L 1313 1881 
z
" transform="scale(0.015625)"/>
       <path id="ArialMT-62" d="M 941 0 
L 419 0 
L 419 4581 
L 981 4581 
L 981 2947 
Q 1338 3394 1891 3394 
Q 2197 3394 2470 3270 
Q 2744 3147 2920 2923 
Q 3097 2700 3197 2384 
Q 3297 2069 3297 1709 
Q 3297 856 2875 390 
Q 2453 -75 1863 -75 
Q 1275 -75 941 416 
L 941 0 
z
M 934 1684 
Q 934 1088 1097 822 
Q 1363 388 1816 388 
Q 2184 388 2453 708 
Q 2722 1028 2722 1663 
Q 2722 2313 2464 2622 
Q 2206 2931 1841 2931 
Q 1472 2931 1203 2611 
Q 934 2291 934 1684 
z
" transform="scale(0.015625)"/>
       <path id="ArialMT-73" d="M 197 991 
L 753 1078 
Q 800 744 1014 566 
Q 1228 388 1613 388 
Q 2000 388 2187 545 
Q 2375 703 2375 916 
Q 2375 1106 2209 1216 
Q 2094 1291 1634 1406 
Q 1016 1563 777 1677 
Q 538 1791 414 1992 
Q 291 2194 291 2438 
Q 291 2659 392 2848 
Q 494 3038 669 3163 
Q 800 3259 1026 3326 
Q 1253 3394 1513 3394 
Q 1903 3394 2198 3281 
Q 2494 3169 2634 2976 
Q 2775 2784 2828 2463 
L 2278 2388 
Q 2241 2644 2061 2787 
Q 1881 2931 1553 2931 
Q 1166 2931 1000 2803 
Q 834 2675 834 2503 
Q 834 2394 903 2306 
Q 972 2216 1119 2156 
Q 1203 2125 1616 2013 
Q 2213 1853 2448 1751 
Q 2684 1650 2818 1456 
Q 2953 1263 2953 975 
Q 2953 694 2789 445 
Q 2625 197 2315 61 
Q 2006 -75 1616 -75 
Q 969 -75 630 194 
Q 291 463 197 991 
z
" transform="scale(0.015625)"/>
       <path id="ArialMT-6f" d="M 213 1659 
Q 213 2581 725 3025 
Q 1153 3394 1769 3394 
Q 2453 3394 2887 2945 
Q 3322 2497 3322 1706 
Q 3322 1066 3130 698 
Q 2938 331 2570 128 
Q 2203 -75 1769 -75 
Q 1072 -75 642 372 
Q 213 819 213 1659 
z
M 791 1659 
Q 791 1022 1069 705 
Q 1347 388 1769 388 
Q 2188 388 2466 706 
Q 2744 1025 2744 1678 
Q 2744 2294 2464 2611 
Q 2184 2928 1769 2928 
Q 1347 2928 1069 2612 
Q 791 2297 791 1659 
z
" transform="scale(0.015625)"/>
       <path id="ArialMT-72" d="M 416 0 
L 416 3319 
L 922 3319 
L 922 2816 
Q 1116 3169 1280 3281 
Q 1444 3394 1641 3394 
Q 1925 3394 2219 3213 
L 2025 2691 
Q 1819 2813 1613 2813 
Q 1428 2813 1281 2702 
Q 1134 2591 1072 2394 
Q 978 2094 978 1738 
L 978 0 
L 416 0 
z
" transform="scale(0.015625)"/>
       <path id="ArialMT-63" d="M 2588 1216 
L 3141 1144 
Q 3050 572 2676 248 
Q 2303 -75 1759 -75 
Q 1078 -75 664 370 
Q 250 816 250 1647 
Q 250 2184 428 2587 
Q 606 2991 970 3192 
Q 1334 3394 1763 3394 
Q 2303 3394 2647 3120 
Q 2991 2847 3088 2344 
L 2541 2259 
Q 2463 2594 2264 2762 
Q 2066 2931 1784 2931 
Q 1359 2931 1093 2626 
Q 828 2322 828 1663 
Q 828 994 1084 691 
Q 1341 388 1753 388 
Q 2084 388 2306 591 
Q 2528 794 2588 1216 
z
" transform="scale(0.015625)"/>
       <path id="ArialMT-75" d="M 2597 0 
L 2597 488 
Q 2209 -75 1544 -75 
Q 1250 -75 995 37 
Q 741 150 617 320 
Q 494 491 444 738 
Q 409 903 409 1263 
L 409 3319 
L 972 3319 
L 972 1478 
Q 972 1038 1006 884 
Q 1059 663 1231 536 
Q 1403 409 1656 409 
Q 1909 409 2131 539 
Q 2353 669 2445 892 
Q 2538 1116 2538 1541 
L 2538 3319 
L 3100 3319 
L 3100 0 
L 2597 0 
z
" transform="scale(0.015625)"/>
      </defs>
      <use xlink:href="#ArialMT-41"/>
      <use xlink:href="#ArialMT-62" x="66.699219"/>
      <use xlink:href="#ArialMT-73" x="122.314453"/>
      <use xlink:href="#ArialMT-6f" x="172.314453"/>
      <use xlink:href="#ArialMT-72" x="227.929688"/>
      <use xlink:href="#ArialMT-62" x="261.230469"/>
      <use xlink:href="#ArialMT-61" x="316.845703"/>
      <use xlink:href="#ArialMT-6e" x="372.460938"/>
      <use xlink:href="#ArialMT-63" x="428.076172"/>
      <use xlink:href="#ArialMT-65" x="478.076172"/>
      <use xlink:href="#ArialMT-20" x="533.691406"/>
      <use xlink:href="#ArialMT-28" x="561.474609"/>
      <use xlink:href="#ArialMT-61" x="594.775391"/>
      <use xlink:href="#ArialMT-2e" x="650.390625"/>
      <use xlink:href="#ArialMT-75" x="678.173828"/>
      <use xlink:href="#ArialMT-2e" x="733.789062"/>
      <use xlink:href="#ArialMT-29" x="761.572266"/>
     </g>
    </g>
   </g>
   <g id="PolyCollection_1"/>
   <g id="PolyCollection_2"/>
   <g id="PolyCollection_3"/>
   <g id="PolyCollection_4"/>
   <g id="PolyCollection_5"/>
   <g id="PolyCollection_6"/>
   <g id="line2d_30">
    <path d="M 41.469669 233.633179 
L 42.780201 233.362753 
L 45.401265 232.150745 
L 46.27496 231.677759 
L 46.930226 231.252058 
L 48.240758 230.424611 
L 48.677595 230.159742 
L 50.206556 229.06565 
L 50.861822 228.658577 
L 51.29866 228.326384 
L 54.138152 226.333879 
L 54.793418 225.801315 
L 56.322369 224.448871 
L 62.438182 218.123247 
L 63.093449 217.510376 
L 64.840828 215.116424 
L 65.714513 213.392472 
L 67.025045 210.112937 
L 68.554006 205.180095 
L 70.082956 199.500233 
L 73.140868 186.466133 
L 75.761932 175.379669 
L 77.509312 167.763279 
L 78.601415 162.478039 
L 79.911947 155.690396 
L 83.843544 133.185246 
L 86.246189 118.177648 
L 89.085672 98.969834 
L 93.017268 71.682131 
L 95.638333 55.027808 
L 97.385712 45.333834 
L 98.696244 39.075393 
L 100.006776 33.771392 
L 101.317308 29.481558 
L 102.409422 26.839506 
L 103.064688 25.694182 
L 103.719954 24.840286 
L 104.156791 24.50374 
L 104.812057 24.299356 
L 105.467323 24.597852 
L 105.904171 25.02049 
L 106.559437 26.08871 
L 107.214703 27.711907 
L 107.869969 29.892724 
L 108.743654 33.672557 
L 109.617348 38.413563 
L 110.709452 45.637353 
L 112.019984 55.741453 
L 113.985782 72.960304 
L 116.606846 98.623295 
L 118.354216 117.857933 
L 120.320014 142.680458 
L 122.285812 171.086724 
L 125.562162 219.028309 
L 126.872695 234.838491 
L 127.964798 245.681352 
L 129.056901 254.290674 
L 129.712167 258.336119 
L 130.585862 262.689299 
L 131.459557 265.962247 
L 132.333232 268.432785 
L 133.425355 270.553806 
L 134.29903 271.771624 
L 135.391153 272.809396 
L 136.264828 273.438815 
L 137.138523 273.902261 
L 138.230626 274.350256 
L 139.32275 274.689323 
L 140.414853 274.951203 
L 146.967514 275.82717 
L 158.762303 276.09238 
L 160.291263 276.07691 
L 160.728101 276.100698 
L 161.383367 276.06428 
L 161.820204 276.104204 
L 162.693899 276.099903 
L 165.314963 276.112776 
L 167.936027 276.185195 
L 168.591293 276.192936 
L 172.086052 276.201988 
L 174.488688 276.226362 
L 175.362383 276.238366 
L 179.512388 276.20874 
L 179.949245 276.257065 
L 185.846639 276.266945 
L 186.065048 276.197497 
L 186.720314 276.283503 
L 188.467704 276.246968 
L 189.12297 276.259934 
L 189.559807 276.237379 
L 190.215073 276.239261 
L 191.088768 276.246775 
L 191.962443 276.244553 
L 192.3993 276.212166 
L 194.365098 276.251642 
L 195.020364 276.23957 
L 195.894039 276.258823 
L 196.767734 276.25951 
L 198.296695 276.280449 
L 201.573025 276.208709 
L 202.4467 276.272845 
L 203.757232 276.229633 
L 204.412498 276.254697 
L 205.286192 276.174699 
L 206.378296 276.200923 
L 210.74675 276.244977 
L 210.965158 276.161106 
L 211.183587 276.276154 
L 211.838853 276.160558 
L 212.057282 276.326805 
L 212.494119 276.262364 
L 213.367814 276.195629 
L 214.896755 276.241637 
L 215.115183 276.158513 
L 215.333612 276.268449 
L 216.425715 276.240796 
L 216.862553 276.19157 
L 217.517819 276.264963 
L 217.954676 276.283658 
L 218.173085 276.173178 
L 218.828351 276.301517 
L 219.920474 276.300823 
L 220.138883 276.43649 
L 220.357312 276.273138 
L 221.231006 276.25111 
L 221.449415 276.323467 
L 221.667844 276.238459 
L 221.886273 276.311448 
L 222.104681 276.208547 
L 222.32311 276.365468 
L 222.759947 276.285084 
L 222.978376 276.149211 
L 223.196805 276.429349 
L 223.415213 276.279547 
L 223.852071 276.318386 
L 224.070479 276.509035 
L 224.725745 276.29012 
L 224.944174 276.306004 
L 225.162603 276.520912 
L 225.381011 276.239608 
L 226.254706 276.377829 
L 226.473135 276.277126 
L 226.691544 276.689938 
L 226.909972 276.433555 
L 227.34681 276.342407 
L 227.565238 276.281329 
L 227.783667 276.340526 
L 228.002076 275.968642 
L 228.220504 276.394843 
L 228.657342 276.59741 
L 228.87577 276.271241 
L 229.094199 276.405984 
L 229.312608 276.267408 
L 229.531036 276.52149 
L 229.749465 276.36748 
L 229.967874 276.5814 
L 230.186303 276.378654 
L 230.404731 276.417502 
L 230.62314 276.175486 
L 230.841569 276.45214 
L 231.059997 276.91333 
L 231.496835 276.229479 
L 231.715263 276.411308 
L 231.933672 276.349946 
L 232.152101 276.14657 
L 232.370529 276.571698 
L 232.588938 276.426576 
L 232.807367 276.899831 
L 233.025795 276.527371 
L 233.244204 276.438931 
L 233.462633 276.146756 
L 233.681061 276.59868 
L 234.117899 275.932967 
L 234.554736 276.859662 
L 234.991594 275.586597 
L 235.210002 276.555762 
L 235.428431 276.324315 
L 235.64686 276.764253 
L 235.865268 276.500728 
L 236.083697 276.423834 
L 236.302126 276.21384 
L 236.520534 277.082353 
L 236.738963 275.767557 
L 236.957392 277.191525 
L 237.1758 276.381382 
L 237.394229 276.942311 
L 237.831067 277.041498 
L 241.544234 277.044833 
L 243.073195 277.026157 
L 255.52325 276.937424 
L 256.833782 276.928378 
L 261.420644 277.046167 
L 283.262833 277.051824 
L 289.378676 277.060678 
L 290.47076 277.078682 
L 291.99974 277.054408 
L 296.368154 277.071462 
L 297.678686 277.039543 
L 298.989218 277.055404 
L 312.094539 277.055527 
L 312.749805 277.025666 
L 318.428791 276.808061 
L 319.302466 276.65321 
L 320.176181 276.786101 
L 320.831447 276.923797 
L 321.049856 276.868191 
L 321.486713 277.072551 
L 322.578796 277.03206 
L 329.131457 277.123256 
L 331.534112 277.115135 
L 333.063053 277.127233 
L 337.649916 277.08784 
L 340.27098 277.089128 
L 351.84736 277.037719 
L 353.376301 277.042265 
L 358.618429 277.002609 
L 360.14741 277.011665 
L 368.884278 276.976916 
L 369.976401 276.962848 
L 386.576461 276.672994 
L 387.450136 276.624556 
L 387.668584 276.704389 
L 387.886993 276.569644 
L 388.105402 276.676807 
L 388.32385 276.444169 
L 388.542259 276.523514 
L 388.760668 276.388979 
L 389.634383 276.488479 
L 390.289649 276.312781 
L 390.508057 276.350115 
L 390.726466 276.244839 
L 391.818589 276.375571 
L 392.036998 276.182726 
L 392.255447 276.341382 
L 392.473856 276.275552 
L 392.910713 276.326913 
L 397.060718 276.181691 
L 398.589659 275.665025 
L 398.589659 275.665025 
" clip-path="url(#p9c5264bb45)" style="fill: none; stroke: #f6b48f; stroke-linecap: round"/>
   </g>
   <g id="line2d_31">
    <path d="M 41.469669 144.992476 
L 43.217048 139.024071 
L 45.838112 128.095763 
L 48.240758 116.40664 
L 50.206556 106.676572 
L 51.517088 101.164451 
L 52.390773 98.365105 
L 53.264458 96.334162 
L 54.138152 94.893214 
L 54.57499 94.468848 
L 55.667103 94.159901 
L 56.322369 94.438007 
L 56.977635 95.026398 
L 57.632901 95.919489 
L 58.069749 96.723069 
L 59.161852 99.45243 
L 60.035547 102.506722 
L 60.909232 106.263997 
L 62.001345 111.942594 
L 63.311877 119.945537 
L 65.714513 136.987638 
L 68.772424 158.781223 
L 70.519804 169.214431 
L 72.485602 179.01503 
L 74.232981 186.339779 
L 75.980351 192.497288 
L 77.290883 196.20934 
L 78.382996 198.718349 
L 79.693529 201.128197 
L 81.004061 203.101678 
L 83.406706 206.315599 
L 84.935657 208.504822 
L 86.683036 211.196895 
L 88.430406 213.992165 
L 91.706736 219.608713 
L 97.604131 231.050295 
L 99.569929 234.610618 
L 104.593639 242.820669 
L 107.65155 246.88502 
L 110.709452 250.091773 
L 111.801555 251.066128 
L 113.330516 252.256318 
L 116.388418 254.025412 
L 117.043684 254.300347 
L 120.97528 255.468197 
L 121.848975 255.585656 
L 122.504241 255.695177 
L 123.814773 255.800672 
L 124.906876 255.879938 
L 126.217428 255.88539 
L 127.964798 255.850376 
L 133.425355 255.326181 
L 136.483257 254.887161 
L 137.138523 254.793305 
L 139.104321 254.472026 
L 143.691183 253.576558 
L 144.564878 253.414579 
L 145.87541 253.14314 
L 147.185942 252.850054 
L 148.496474 252.532612 
L 151.117539 251.904679 
L 153.957011 251.144347 
L 154.830706 250.931344 
L 173.178156 245.466318 
L 179.293979 243.382239 
L 179.730816 243.231598 
L 181.478186 242.589198 
L 191.088768 238.793475 
L 192.180871 238.345978 
L 197.423 236.063185 
L 198.078266 235.838744 
L 200.262493 234.813676 
L 202.228291 233.91966 
L 202.665128 233.762186 
L 203.320394 233.427288 
L 210.309892 230.16324 
L 210.74675 229.983128 
L 211.183587 229.76023 
L 214.02308 228.385513 
L 214.896755 227.894815 
L 219.483617 225.714038 
L 219.920474 225.563851 
L 220.57574 225.164696 
L 220.794149 225.170243 
L 221.012578 224.901629 
L 221.231006 224.910361 
L 222.541539 224.215451 
L 222.759947 224.174995 
L 222.978376 223.907103 
L 223.196805 223.987944 
L 223.852071 223.693567 
L 224.070479 223.628112 
L 224.288908 223.309194 
L 225.817869 222.710982 
L 226.036278 222.713511 
L 226.473135 222.086858 
L 226.691544 222.454431 
L 227.34681 221.953397 
L 227.783667 221.918109 
L 228.002076 221.27541 
L 228.220504 221.38255 
L 228.438933 221.271175 
L 228.657342 221.731115 
L 228.87577 221.24448 
L 229.094199 221.270228 
L 229.312608 220.963237 
L 229.531036 221.16745 
L 229.749465 220.719878 
L 229.967874 220.945151 
L 230.186303 220.23074 
L 230.404731 220.26942 
L 230.62314 219.950599 
L 230.841569 220.253602 
L 231.059997 220.228713 
L 231.278406 220.429489 
L 231.496835 219.902578 
L 231.715263 220.008264 
L 231.933672 219.564305 
L 232.152101 219.511244 
L 232.370529 219.887778 
L 232.588938 219.074153 
L 232.807367 219.672952 
L 233.025795 219.153236 
L 233.244204 219.048652 
L 233.462633 219.449705 
L 233.89947 218.320749 
L 234.117899 218.617271 
L 234.336328 218.082456 
L 234.554736 218.651968 
L 234.991594 218.253488 
L 235.428431 217.561564 
L 235.64686 218.002959 
L 235.865268 217.849041 
L 236.302126 217.863162 
L 236.520534 218.212574 
L 236.738963 216.86283 
L 236.957392 217.659514 
L 237.1758 216.939648 
L 237.394229 217.498757 
L 237.612638 219.626839 
L 241.107397 217.937332 
L 245.038993 216.096309 
L 257.052191 210.642385 
L 258.144314 210.361183 
L 259.454846 209.977264 
L 263.386443 208.037538 
L 266.881182 206.625638 
L 268.628571 205.956996 
L 269.283837 205.699934 
L 273.215433 204.176943 
L 276.710172 202.888781 
L 281.952301 201.046281 
L 283.044424 200.708255 
L 284.791814 200.167025 
L 288.068144 199.168957 
L 288.941819 198.943574 
L 290.47076 198.504457 
L 292.218149 198.00555 
L 298.77081 196.420148 
L 300.955016 195.966562 
L 301.391874 195.847565 
L 310.34719 193.904398 
L 310.784007 193.83993 
L 311.220865 193.684469 
L 311.657722 193.565684 
L 312.094539 193.505322 
L 312.531397 193.340512 
L 313.62352 193.133837 
L 314.715604 192.893183 
L 315.152461 192.924403 
L 315.37087 192.757346 
L 316.244584 192.603895 
L 317.336668 192.323111 
L 319.084057 191.660796 
L 319.739323 191.247577 
L 320.176181 191.290615 
L 321.268264 191.927058 
L 321.705122 191.742871 
L 322.360388 191.447423 
L 323.67092 191.17991 
L 332.189378 190.231506 
L 335.902566 189.572813 
L 336.120975 189.269321 
L 340.052571 188.686111 
L 341.581512 188.46375 
L 345.076291 188.002568 
L 345.949966 187.905046 
L 347.697355 187.67812 
L 350.973685 187.178077 
L 353.813158 186.805931 
L 355.560548 186.54523 
L 357.307897 186.284255 
L 358.618429 186.064555 
L 360.802676 185.684452 
L 363.205292 185.203407 
L 363.860558 185.108291 
L 365.826356 184.684075 
L 368.229011 184.168717 
L 369.976401 183.749876 
L 376.310613 182.895143 
L 377.839594 182.790369 
L 381.552741 182.385064 
L 383.081722 182.13061 
L 383.955397 182.278227 
L 384.173805 182.116405 
L 384.392254 182.219161 
L 384.829072 182.61465 
L 385.04752 182.557593 
L 385.265929 182.375573 
L 386.139604 182.361721 
L 386.576461 181.949595 
L 386.79487 182.151767 
L 387.013318 182.015702 
L 387.231727 182.225814 
L 387.450136 181.886598 
L 387.668584 182.023553 
L 387.886993 181.7375 
L 388.105402 181.998571 
L 388.760668 181.16853 
L 389.197525 181.6051 
L 389.415934 181.601752 
L 389.852791 181.017616 
L 390.0712 181.128021 
L 390.289649 181.485689 
L 390.508057 181.199513 
L 390.726466 180.653462 
L 390.944915 180.581248 
L 391.381732 181.218758 
L 391.600181 180.846805 
L 391.818589 180.792145 
L 392.036998 180.425189 
L 392.255447 180.812095 
L 392.473856 180.920341 
L 393.129122 180.528051 
L 393.784388 180.647091 
L 394.002796 180.342762 
L 394.221245 180.637425 
L 394.439654 180.615932 
L 394.658062 180.320371 
L 395.09492 180.342136 
L 395.531777 180.246024 
L 395.968594 180.416157 
L 396.187043 180.232974 
L 396.405452 180.560232 
L 396.623861 180.016156 
L 396.842309 180.188509 
L 397.497575 179.572051 
L 397.715984 179.613873 
L 398.152841 179.919453 
L 398.37125 179.502525 
L 398.589659 178.771626 
L 398.589659 178.771626 
" clip-path="url(#p9c5264bb45)" style="fill: none; stroke: #f37651; stroke-linecap: round"/>
   </g>
   <g id="line2d_32">
    <path d="M 41.469669 143.550444 
L 43.217048 138.523006 
L 46.493378 126.513243 
L 49.114443 114.025228 
L 51.080241 104.657138 
L 52.172354 100.559634 
L 53.046039 98.034869 
L 54.356571 95.867146 
L 55.011837 95.442076 
L 55.448685 95.344157 
L 55.667103 95.333953 
L 56.540788 95.844835 
L 57.414483 97.02123 
L 57.85132 97.817989 
L 58.506586 99.364116 
L 59.161852 101.232179 
L 60.035547 104.316485 
L 61.12765 109.058443 
L 62.438182 115.827466 
L 64.840828 130.160844 
L 67.025045 143.770629 
L 69.42769 157.251609 
L 70.956651 164.306095 
L 73.140868 172.6626 
L 76.417198 183.467356 
L 77.509312 186.443073 
L 78.819844 189.465325 
L 80.348795 192.374361 
L 82.969859 196.934326 
L 83.843544 198.60115 
L 86.246189 203.983864 
L 91.925165 218.352292 
L 96.512027 230.153811 
L 100.006776 238.319458 
L 103.283107 245.115142 
L 106.122589 250.165399 
L 109.180501 254.681495 
L 111.801555 257.619857 
L 113.330516 258.990927 
L 117.043684 261.211511 
L 120.320014 262.248609 
L 121.848975 262.47411 
L 122.504241 262.591453 
L 124.25161 262.711569 
L 126.654266 262.788234 
L 129.493759 262.653605 
L 132.988498 262.443682 
L 134.080621 262.34981 
L 136.701685 262.109149 
L 139.104321 261.82122 
L 147.62278 260.73667 
L 148.496474 260.604462 
L 152.646479 259.993102 
L 153.520174 259.831948 
L 155.485972 259.488897 
L 156.578076 259.278196 
L 163.349165 257.960869 
L 165.533392 257.597845 
L 166.843924 257.397756 
L 167.717599 257.22439 
L 168.591293 257.092751 
L 170.338663 256.732461 
L 170.77552 256.660969 
L 173.178156 256.143331 
L 174.707117 255.871749 
L 176.236057 255.503804 
L 177.109752 255.339082 
L 178.420284 254.998965 
L 179.07555 254.890067 
L 180.82292 254.446297 
L 182.570309 254.043734 
L 185.409782 253.361083 
L 187.594009 252.804712 
L 189.778236 252.297113 
L 190.215073 252.11992 
L 191.088768 251.892213 
L 197.859837 250.029344 
L 198.296695 249.934327 
L 198.951961 249.757465 
L 200.917759 249.16068 
L 202.009862 248.851228 
L 204.194089 248.223075 
L 204.630926 248.110071 
L 204.849355 247.965947 
L 205.286192 247.888421 
L 209.654626 246.574141 
L 210.091484 246.443301 
L 211.183587 246.112846 
L 211.402016 246.120154 
L 211.838853 245.868489 
L 212.057282 245.914987 
L 212.494119 245.711804 
L 214.241489 245.180672 
L 215.115183 244.851706 
L 216.207287 244.536056 
L 216.862553 244.283104 
L 217.736247 244.140421 
L 218.391514 243.861875 
L 218.609942 243.867017 
L 218.828351 243.732924 
L 219.265208 243.66471 
L 219.483617 243.52269 
L 220.138883 243.534324 
L 220.357312 243.323498 
L 221.667844 243.003765 
L 222.32311 242.684436 
L 222.759947 242.68737 
L 222.978376 242.506952 
L 223.196805 242.711652 
L 223.633642 242.330109 
L 224.944174 242.059483 
L 225.59944 241.742154 
L 225.817869 241.847298 
L 226.036278 241.679074 
L 226.254706 241.680103 
L 226.473135 241.447983 
L 226.691544 241.668341 
L 227.128401 241.371054 
L 227.34681 241.485665 
L 227.783667 241.398479 
L 228.002076 241.09079 
L 228.220504 241.170065 
L 228.438933 241.125831 
L 228.657342 241.206806 
L 228.87577 240.843251 
L 229.094199 241.062458 
L 229.312608 240.446993 
L 229.531036 241.158528 
L 229.967874 240.584848 
L 230.186303 240.4129 
L 230.404731 240.777613 
L 230.62314 240.240622 
L 230.841569 240.455986 
L 231.059997 240.199629 
L 231.278406 240.37687 
L 231.715263 240.258233 
L 231.933672 240.07542 
L 232.152101 239.177376 
L 232.370529 240.648384 
L 232.588938 239.769663 
L 233.025795 239.763486 
L 233.462633 239.077638 
L 233.681061 239.750788 
L 233.89947 239.787507 
L 234.117899 239.673287 
L 234.336328 238.771538 
L 234.554736 239.502484 
L 234.991594 239.080863 
L 235.210002 239.174217 
L 235.428431 238.443834 
L 235.64686 239.094822 
L 235.865268 238.862517 
L 236.083697 239.643132 
L 236.302126 238.873765 
L 236.520534 239.343993 
L 236.738963 239.457548 
L 237.1758 237.923185 
L 237.394229 238.246742 
L 237.612638 240.462397 
L 240.452131 239.605642 
L 243.728461 238.657031 
L 245.038993 238.267556 
L 246.567934 237.81712 
L 247.878466 237.448511 
L 250.717959 236.663732 
L 256.833782 234.888243 
L 260.110112 234.435613 
L 261.857482 233.831091 
L 264.041709 233.289645 
L 265.789078 232.960977 
L 269.502246 232.198342 
L 270.157512 232.071084 
L 271.031207 231.889796 
L 272.341739 231.621151 
L 289.378676 228.783791 
L 305.32347 226.902122 
L 308.162943 226.68496 
L 309.473475 226.540493 
L 309.910333 226.539277 
L 314.934052 226.06711 
L 316.462993 225.918166 
L 316.89985 225.85313 
L 317.555117 225.763935 
L 318.210383 225.622138 
L 319.084057 225.423516 
L 319.739323 225.189898 
L 320.394589 225.339389 
L 320.831447 225.570478 
L 321.268264 225.651913 
L 321.486713 225.74335 
L 322.578796 225.631003 
L 324.981452 225.578056 
L 326.291984 225.514381 
L 327.602516 225.492734 
L 328.913048 225.473802 
L 342.018369 224.883044 
L 343.328901 224.805909 
L 345.949966 224.728769 
L 348.134172 224.632935 
L 349.444705 224.542123 
L 352.284217 224.444843 
L 355.12369 224.310307 
L 357.089489 224.258929 
L 364.734273 223.959909 
L 365.826356 223.947277 
L 371.942199 223.65613 
L 372.379016 223.683033 
L 374.344815 223.580726 
L 376.74747 223.500687 
L 378.276411 223.451789 
L 381.989599 223.263227 
L 382.644865 223.236258 
L 383.736988 223.208201 
L 384.392254 223.032429 
L 384.610663 223.201283 
L 385.265929 222.965806 
L 385.702786 222.97549 
L 385.921195 222.94404 
L 386.139604 223.114662 
L 386.576461 222.754526 
L 386.79487 222.983712 
L 387.013318 222.886538 
L 387.231727 223.040461 
L 387.450136 222.712586 
L 387.668584 223.042408 
L 387.886993 222.720706 
L 388.105402 222.968295 
L 388.32385 222.74845 
L 388.542259 222.775032 
L 388.760668 222.353838 
L 388.979117 222.321983 
L 389.197525 222.779433 
L 389.634383 222.510827 
L 389.852791 222.230145 
L 390.289649 222.733532 
L 390.508057 222.57478 
L 390.726466 222.00314 
L 391.163323 222.306707 
L 391.381732 222.606961 
L 391.600181 222.308589 
L 391.818589 222.381041 
L 392.036998 222.02458 
L 392.255447 222.388152 
L 392.910713 222.373824 
L 393.129122 222.144065 
L 393.34753 222.31129 
L 393.565979 222.171334 
L 393.784388 222.354287 
L 394.002796 222.112144 
L 394.439654 222.376432 
L 394.876511 222.070913 
L 395.09492 222.287559 
L 395.313328 222.018944 
L 395.531777 222.201488 
L 395.750186 222.043076 
L 395.968594 222.057783 
L 396.405452 222.348828 
L 396.623861 221.735675 
L 396.842309 222.244759 
L 397.715984 221.660152 
L 397.934393 221.816424 
L 398.37125 221.678455 
L 398.589659 221.121363 
L 398.589659 221.121363 
" clip-path="url(#p9c5264bb45)" style="fill: none; stroke: #e13342; stroke-linecap: round"/>
   </g>
   <g id="line2d_33">
    <path d="M 41.469669 132.358307 
L 44.52758 124.595709 
L 46.056531 118.919139 
L 46.930226 115.024345 
L 48.677595 105.828669 
L 51.517088 89.883568 
L 52.390773 86.185756 
L 53.264458 83.483606 
L 53.919724 82.130602 
L 54.356571 81.576013 
L 55.011837 81.209577 
L 55.667103 81.378431 
L 56.322369 82.144489 
L 56.759217 82.858469 
L 57.414483 84.46984 
L 58.069749 86.434024 
L 59.380281 91.760795 
L 60.253966 96.043297 
L 61.346079 102.183923 
L 62.87503 111.678324 
L 67.025045 137.992897 
L 68.990843 148.862473 
L 70.519804 155.950348 
L 72.048755 161.91863 
L 77.946149 181.785093 
L 79.47511 185.865625 
L 84.49881 197.763442 
L 86.246189 203.071417 
L 90.833051 218.091511 
L 95.638333 232.269961 
L 100.662042 245.05241 
L 103.938373 252.102056 
L 105.904171 255.771407 
L 107.433122 258.340331 
L 109.180501 260.912436 
L 110.491033 262.583414 
L 112.238413 264.390889 
L 114.422619 266.096751 
L 116.170009 267.085592 
L 119.227911 268.157114 
L 122.941078 268.752989 
L 125.562162 268.917047 
L 126.435837 268.941611 
L 128.620064 268.933421 
L 129.712167 268.909623 
L 131.896394 268.840319 
L 132.55166 268.78791 
L 134.080621 268.776677 
L 134.517459 268.732993 
L 136.046419 268.635081 
L 139.104321 268.431974 
L 140.633282 268.299911 
L 141.070119 268.261811 
L 142.162222 268.176263 
L 144.128021 268.007463 
L 159.19914 266.648038 
L 160.946529 266.436989 
L 161.383367 266.428963 
L 162.257061 266.309409 
L 164.659697 266.120258 
L 165.533392 266.048873 
L 167.717599 265.921834 
L 170.557092 265.661924 
L 171.867624 265.585121 
L 172.304461 265.534846 
L 174.270259 265.36539 
L 175.79922 265.196645 
L 177.328181 265.071737 
L 187.37558 264.209665 
L 188.030846 264.101958 
L 190.433502 263.864452 
L 193.491403 263.551547 
L 197.859837 263.151966 
L 198.296695 263.055764 
L 198.515103 263.091054 
L 198.733532 262.993267 
L 199.388798 263.028482 
L 199.607227 262.887659 
L 200.69933 262.853741 
L 201.136167 262.797442 
L 204.194089 262.439542 
L 204.412498 262.488021 
L 205.067764 262.361903 
L 209.873055 261.867388 
L 210.091484 261.785138 
L 210.528321 261.785432 
L 210.965158 261.75294 
L 211.838853 261.648484 
L 212.057282 261.678159 
L 212.712548 261.502019 
L 212.930956 261.556156 
L 213.149385 261.469923 
L 213.367814 261.520379 
L 213.804651 261.381027 
L 214.459917 261.367021 
L 215.333612 261.210983 
L 215.770449 261.162227 
L 218.173085 260.883721 
L 218.609942 260.834763 
L 218.828351 260.903196 
L 219.702046 260.753084 
L 220.138883 260.739402 
L 220.357312 260.627777 
L 220.57574 260.704955 
L 221.231006 260.48453 
L 221.667844 260.538311 
L 222.32311 260.411005 
L 222.541539 260.563112 
L 224.288908 260.165911 
L 224.507337 260.258658 
L 224.725745 259.917508 
L 225.162603 260.317469 
L 225.381011 260.034593 
L 225.59944 260.091416 
L 225.817869 259.962351 
L 226.254706 259.948865 
L 227.783667 259.88667 
L 228.002076 259.487306 
L 228.220504 259.863825 
L 228.438933 259.629132 
L 228.657342 259.569355 
L 228.87577 259.864368 
L 229.531036 259.530103 
L 230.186303 259.458905 
L 230.404731 259.340097 
L 230.62314 259.950389 
L 230.841569 259.300167 
L 231.278406 259.432686 
L 231.496835 259.436116 
L 231.715263 258.92839 
L 231.933672 259.309022 
L 232.152101 259.126974 
L 232.370529 259.090629 
L 232.588938 259.236917 
L 232.807367 258.952929 
L 233.025795 259.210962 
L 233.244204 258.905656 
L 233.462633 259.439993 
L 233.681061 259.291163 
L 234.117899 258.697773 
L 234.336328 259.290494 
L 234.554736 258.886204 
L 234.773165 259.223328 
L 234.991594 258.259482 
L 235.210002 259.306091 
L 235.428431 258.27611 
L 235.64686 258.617048 
L 235.865268 258.335659 
L 236.083697 259.870442 
L 236.302126 258.36007 
L 236.738963 259.126463 
L 236.957392 258.675086 
L 237.1758 259.327883 
L 237.394229 258.599552 
L 237.612638 259.833061 
L 239.360007 259.627358 
L 246.131097 258.877515 
L 247.004791 258.771453 
L 248.752161 258.567935 
L 255.304821 257.832155 
L 256.396925 257.687474 
L 257.489048 257.732979 
L 259.017989 257.853281 
L 260.54695 257.615709 
L 262.294319 257.277938 
L 274.962803 256.298519 
L 276.491764 256.182368 
L 278.239133 255.972761 
L 279.986503 255.926429 
L 281.297035 255.842471 
L 283.69969 255.72446 
L 284.573365 255.653184 
L 285.883897 255.609519 
L 287.194429 255.535642 
L 302.04714 255.085494 
L 303.139263 255.048642 
L 314.715604 254.571497 
L 315.152461 254.627167 
L 315.807727 254.593432 
L 317.118259 254.574841 
L 318.6472 254.370814 
L 319.302466 254.2497 
L 319.520915 254.349445 
L 319.739323 254.246103 
L 320.612998 254.416365 
L 321.268264 254.511248 
L 321.705122 254.61077 
L 328.039373 254.680345 
L 329.131457 254.714777 
L 333.281502 254.732666 
L 335.028851 254.676029 
L 336.120975 254.641515 
L 336.557832 254.658006 
L 342.892044 254.530843 
L 349.226296 254.480353 
L 351.628951 254.427565 
L 359.928961 254.401779 
L 361.239494 254.388702 
L 366.263213 254.326336 
L 368.44742 254.308996 
L 377.402736 254.274737 
L 379.150126 254.268238 
L 381.77119 254.265502 
L 382.426456 254.244014 
L 385.921195 254.120574 
L 386.139604 254.24852 
L 386.576461 254.020828 
L 387.231727 254.141595 
L 387.450136 254.003939 
L 387.668584 254.211417 
L 387.886993 254.018349 
L 388.105402 254.112263 
L 388.32385 254.002307 
L 388.542259 254.131957 
L 388.760668 253.787408 
L 388.979117 253.681378 
L 389.415934 253.890001 
L 389.852791 253.681407 
L 390.289649 253.884189 
L 390.944915 253.623505 
L 391.163323 253.700982 
L 391.381732 253.981299 
L 391.600181 253.716436 
L 391.818589 253.829309 
L 392.036998 253.598773 
L 392.255447 253.779581 
L 393.129122 253.720739 
L 393.784388 253.748133 
L 394.221245 253.751385 
L 394.439654 253.801209 
L 394.876511 253.720446 
L 395.531777 253.762184 
L 395.750186 253.658368 
L 396.405452 253.814465 
L 396.623861 253.530588 
L 397.060718 253.750402 
L 397.497575 253.459125 
L 397.715984 253.389207 
L 397.934393 253.477961 
L 398.37125 253.354122 
L 398.589659 253.027307 
L 398.589659 253.027307 
" clip-path="url(#p9c5264bb45)" style="fill: none; stroke: #ad1759; stroke-linecap: round"/>
   </g>
   <g id="line2d_34">
    <path d="M 41.469669 105.074489 
L 42.780201 102.670607 
L 43.653896 101.146721 
L 44.309162 99.75764 
L 44.745999 98.872321 
L 46.056531 95.41 
L 48.022329 87.931773 
L 49.988127 78.951902 
L 51.080241 73.895993 
L 51.953926 70.605593 
L 52.82762 68.167185 
L 53.482886 67.001804 
L 53.919724 66.455974 
L 54.138152 66.28 
L 54.57499 66.155469 
L 54.793418 66.091424 
L 55.448685 66.376755 
L 55.885522 66.803712 
L 56.977635 68.92288 
L 57.85132 71.568915 
L 59.161852 76.853495 
L 60.472384 83.553802 
L 62.219764 94.258401 
L 67.461892 128.228436 
L 69.864538 140.967071 
L 71.830336 149.47768 
L 74.669819 159.915647 
L 76.417198 166.57467 
L 78.382996 173.918929 
L 80.130376 179.654795 
L 83.625125 190.596119 
L 85.590923 198.26812 
L 90.396204 218.850215 
L 92.362002 225.969082 
L 94.546229 233.045237 
L 97.385712 241.165502 
L 100.006776 247.749402 
L 101.754156 251.699304 
L 103.938373 256.143142 
L 106.341018 260.460413 
L 108.525235 263.889712 
L 110.272614 266.152632 
L 111.801555 267.727398 
L 113.112087 268.793722 
L 115.514743 270.19618 
L 116.606846 270.631338 
L 118.135807 271.101951 
L 122.067403 271.677241 
L 129.930596 271.761759 
L 131.241128 271.739191 
L 138.012217 271.41938 
L 139.32275 271.32586 
L 146.312247 270.949747 
L 148.278046 270.853897 
L 155.704401 270.611923 
L 156.578076 270.618065 
L 160.728101 270.553282 
L 161.601795 270.568868 
L 165.533392 270.664487 
L 167.717599 270.756575 
L 168.372865 270.812419 
L 172.304461 270.978876 
L 173.614993 271.068151 
L 174.05185 271.087803 
L 182.133452 271.577141 
L 182.570309 271.577829 
L 184.536107 271.707788 
L 191.962443 272.286598 
L 192.3993 272.32559 
L 197.641428 272.761966 
L 199.170369 272.877786 
L 199.607227 272.933729 
L 207.251991 273.555128 
L 207.907257 273.579806 
L 208.344094 273.627115 
L 208.562523 273.615234 
L 208.780951 273.724655 
L 209.436217 273.720705 
L 209.654626 273.794525 
L 210.091484 273.731971 
L 210.528321 273.83395 
L 211.620424 273.843901 
L 212.057282 273.942989 
L 212.494119 273.919716 
L 212.930956 274.006744 
L 213.367814 273.978733 
L 213.804651 273.990557 
L 215.333612 274.05829 
L 215.552021 274.196181 
L 216.644144 274.128309 
L 216.862553 274.19209 
L 217.29941 274.172233 
L 218.609942 274.36693 
L 219.265208 274.328091 
L 219.483617 274.400765 
L 219.920474 274.340885 
L 221.012578 274.379391 
L 221.231006 274.558596 
L 221.449415 274.524608 
L 221.667844 274.718795 
L 221.886273 274.473061 
L 222.104681 274.466546 
L 222.541539 274.717148 
L 223.415213 274.567577 
L 223.852071 274.806554 
L 224.070479 274.69368 
L 224.725745 274.688581 
L 224.944174 274.644879 
L 225.162603 274.822436 
L 225.381011 274.78531 
L 225.817869 274.991973 
L 226.036278 274.677446 
L 226.254706 274.93914 
L 226.691544 275.053637 
L 226.909972 274.784405 
L 227.128401 275.123115 
L 227.34681 274.652151 
L 227.565238 275.205349 
L 227.783667 275.007364 
L 228.002076 275.104531 
L 228.220504 275.049004 
L 228.438933 275.349612 
L 228.657342 274.994318 
L 228.87577 275.060348 
L 229.094199 274.814612 
L 229.312608 275.525072 
L 229.531036 275.033205 
L 229.749465 275.275041 
L 229.967874 274.918994 
L 230.404731 275.254551 
L 230.62314 274.761816 
L 230.841569 275.228802 
L 231.059997 275.340989 
L 231.496835 275.035642 
L 231.933672 275.553554 
L 232.152101 275.446381 
L 232.588938 275.046279 
L 232.807367 275.356028 
L 233.025795 274.976213 
L 233.244204 275.708396 
L 233.462633 275.213499 
L 233.681061 275.717374 
L 233.89947 274.846184 
L 234.117899 275.416454 
L 234.554736 275.435932 
L 234.773165 275.689757 
L 234.991594 275.553997 
L 235.210002 274.914481 
L 235.64686 275.897608 
L 235.865268 275.148637 
L 236.083697 275.164756 
L 236.302126 275.781764 
L 236.520534 275.95004 
L 236.738963 275.343817 
L 236.957392 275.683613 
L 237.1758 275.436833 
L 237.394229 275.644318 
L 237.612638 276.13804 
L 240.888968 276.29032 
L 243.291604 276.41452 
L 245.912668 276.470399 
L 249.188998 276.556247 
L 256.615353 276.539816 
L 257.707457 276.799213 
L 259.017989 277.132802 
L 259.891684 277.141658 
L 262.294319 276.84542 
L 276.054906 277.185667 
L 285.228631 277.282914 
L 286.539163 277.2574 
L 287.412878 277.278185 
L 289.160227 277.296778 
L 293.965539 277.400699 
L 295.057622 277.388299 
L 309.036658 277.261134 
L 312.531397 276.912447 
L 314.278786 276.666651 
L 315.807727 276.707925 
L 317.118259 276.972421 
L 318.428791 277.007539 
L 319.302466 276.984394 
L 320.831447 277.33229 
L 321.049856 277.262742 
L 321.268264 277.385195 
L 322.141979 277.301507 
L 323.234062 277.420972 
L 324.544594 277.485927 
L 325.418309 277.500473 
L 328.257782 277.614167 
L 329.568314 277.676232 
L 331.097255 277.775898 
L 336.339383 277.726479 
L 337.868364 277.743147 
L 339.397305 277.681297 
L 343.110493 277.585573 
L 345.2947 277.574351 
L 366.700071 277.449067 
L 369.757952 277.396816 
L 370.413218 277.403757 
L 385.921195 277.335548 
L 386.358052 277.357605 
L 386.79487 277.297237 
L 387.668584 277.357468 
L 388.32385 277.161872 
L 388.979117 277.065913 
L 390.944915 276.929598 
L 391.818589 277.002862 
L 392.036998 276.917167 
L 392.473856 277.005277 
L 393.784388 277.056531 
L 397.279127 276.979332 
L 398.589659 276.542625 
L 398.589659 276.542625 
" clip-path="url(#p9c5264bb45)" style="fill: none; stroke: #701f57; stroke-linecap: round"/>
   </g>
   <g id="line2d_35">
    <path d="M 41.25124 113.413379 
L 43.217038 110.547997 
L 43.872304 109.805608 
L 47.585472 104.605235 
L 49.988117 100.924078 
L 51.080231 99.362512 
L 51.517068 98.865659 
L 52.390763 98.193061 
L 54.138132 98.32739 
L 54.356561 98.454212 
L 54.793398 98.514644 
L 55.230246 98.719134 
L 55.667093 98.856231 
L 56.322359 99.286888 
L 57.196044 100.076668 
L 58.288157 101.622831 
L 59.380261 103.823439 
L 60.253956 106.089009 
L 60.909222 108.070094 
L 61.782906 111.203254 
L 63.311857 117.647451 
L 65.059237 125.684814 
L 67.025035 134.439901 
L 69.864528 146.158306 
L 72.048745 153.763583 
L 76.635607 168.198598 
L 79.693519 178.803191 
L 83.625115 191.249833 
L 85.154066 197.477741 
L 87.119864 206.54222 
L 88.867243 214.677809 
L 91.269879 224.439807 
L 93.454106 231.90223 
L 95.201475 237.161991 
L 98.696234 246.27142 
L 100.880451 251.077436 
L 103.501515 256.105292 
L 105.685732 259.818729 
L 107.65153 262.819763 
L 109.617328 265.406214 
L 111.146289 267.050312 
L 112.67523 268.35338 
L 114.641028 269.568648 
L 116.169989 270.248494 
L 119.664748 271.093344 
L 123.814753 271.461335 
L 124.906876 271.50069 
L 127.091103 271.520492 
L 128.401635 271.471135 
L 129.27531 271.449933 
L 130.804271 271.336536 
L 131.677966 271.307576 
L 133.206906 271.215033 
L 135.609562 271.112421 
L 138.885892 270.869583 
L 141.070099 270.786182 
L 142.380631 270.695583 
L 143.254326 270.645972 
L 146.967494 270.432835 
L 155.267544 270.117971 
L 158.543874 270.128344 
L 164.22284 270.233128 
L 166.625475 270.346178 
L 167.717599 270.365173 
L 168.809702 270.432068 
L 173.178136 270.619878 
L 174.05183 270.662876 
L 174.925525 270.732991 
L 176.017629 270.766928 
L 177.546589 270.868143 
L 178.201856 270.889466 
L 179.949225 271.004543 
L 182.133452 271.144154 
L 182.788718 271.239491 
L 183.443984 271.269974 
L 186.938723 271.618644 
L 187.37558 271.60153 
L 194.365078 272.365429 
L 194.801916 272.368896 
L 195.67561 272.442145 
L 200.044044 272.930666 
L 200.69931 273.014364 
L 201.791433 273.0739 
L 202.665108 273.211194 
L 204.194069 273.331123 
L 204.630906 273.365058 
L 206.159867 273.513001 
L 206.815133 273.572245 
L 207.688828 273.660177 
L 208.344094 273.752988 
L 208.780931 273.749968 
L 210.74673 273.87873 
L 211.183567 273.926715 
L 212.712528 274.066089 
L 213.149365 274.065681 
L 213.367794 274.141122 
L 213.586222 274.09452 
L 213.804631 274.198023 
L 214.459897 274.188625 
L 214.678326 274.288097 
L 215.115163 274.242386 
L 215.552021 274.298811 
L 216.644124 274.290995 
L 216.862553 274.470769 
L 217.080961 274.366414 
L 218.173085 274.522583 
L 219.702026 274.605765 
L 219.920454 274.505499 
L 220.138883 274.645278 
L 220.357292 274.571031 
L 220.794149 274.729278 
L 221.012558 274.680375 
L 221.230986 274.821554 
L 221.449415 274.674948 
L 221.667824 274.809979 
L 222.759947 274.794322 
L 222.978356 274.657782 
L 223.196785 274.974141 
L 223.415213 274.99681 
L 223.633622 274.805649 
L 224.288888 275.067215 
L 224.507317 274.782267 
L 224.725745 275.154371 
L 224.944154 274.919579 
L 225.59942 275.042347 
L 226.473115 275.075864 
L 226.691544 275.369839 
L 226.909952 275.124064 
L 227.34681 275.145361 
L 227.783647 275.456812 
L 228.002076 275.464822 
L 228.220484 275.184584 
L 228.438913 275.087594 
L 228.657342 275.340881 
L 228.87575 275.340228 
L 229.094179 274.929773 
L 229.749445 275.136087 
L 229.967874 275.433875 
L 230.404711 275.418729 
L 230.62314 275.170699 
L 231.059977 275.087882 
L 231.278406 275.539314 
L 231.496815 275.363027 
L 231.715243 275.33141 
L 231.933672 274.688027 
L 232.152081 275.706646 
L 232.370509 275.647108 
L 232.588938 275.986521 
L 232.807347 275.154121 
L 233.244204 275.094133 
L 233.462613 275.811041 
L 233.681041 275.994436 
L 233.89947 275.063509 
L 234.117879 275.380712 
L 234.336308 276.012753 
L 234.554736 275.418915 
L 234.773145 276.158984 
L 234.991574 275.830513 
L 235.210002 275.23503 
L 235.428411 276.175942 
L 235.64684 276.046234 
L 235.865268 275.679422 
L 236.083677 275.806636 
L 236.302106 275.651719 
L 236.738943 276.177609 
L 236.957372 275.947767 
L 237.1758 275.975576 
L 237.394209 275.33991 
L 237.612638 276.003023 
L 237.831067 276.284236 
L 241.544234 276.462568 
L 242.854766 276.487085 
L 245.47583 276.575114 
L 247.004791 276.621787 
L 254.649555 276.72823 
L 256.615353 276.748494 
L 259.891684 277.318062 
L 262.949605 276.922531 
L 264.478546 276.89554 
L 265.352241 276.881563 
L 268.847 276.954778 
L 271.249635 277.051219 
L 272.997005 277.083227 
L 273.8707 277.125149 
L 276.710192 277.162454 
L 279.112828 277.133063 
L 280.204951 277.14355 
L 281.297035 277.148031 
L 285.883897 277.197773 
L 286.976021 277.22052 
L 289.815494 277.300145 
L 310.34719 277.1969 
L 311.439273 277.046673 
L 313.186663 276.668012 
L 315.152461 276.467951 
L 316.681402 276.822991 
L 317.773525 277.120552 
L 320.176181 277.575496 
L 320.831447 277.612488 
L 322.360388 277.439224 
L 329.349906 277.78381 
L 331.097255 277.943806 
L 336.120975 277.946729 
L 336.120975 277.946729 
" clip-path="url(#p9c5264bb45)" style="fill: none; stroke: #35193e; stroke-linecap: round"/>
   </g>
   <g id="line2d_36"/>
   <g id="line2d_37"/>
   <g id="line2d_38"/>
   <g id="line2d_39"/>
   <g id="line2d_40"/>
   <g id="line2d_41"/>
   <g id="patch_3">
    <path d="M 41.25125 277.248797 
L 41.25125 11.136797 
" style="fill: none; stroke: #262626; stroke-width: 1.25; stroke-linejoin: miter; stroke-linecap: square"/>
   </g>
   <g id="patch_4">
    <path d="M 41.25125 277.248797 
L 398.37125 277.248797 
" style="fill: none; stroke: #262626; stroke-width: 1.25; stroke-linejoin: miter; stroke-linecap: square"/>
   </g>
   <g id="legend_1">
    <g id="line2d_42">
     <path d="M 217.906438 45.415809 
L 223.906438 45.415809 
L 229.906438 45.415809 
" style="fill: none; stroke: #f6b48f; stroke-width: 1.5; stroke-linecap: round"/>
    </g>
    <g id="text_18">
     <!-- FeCl3 0 uM_Abs -->
     <g style="fill: #262626" transform="translate(234.706438 47.515809) scale(0.06 -0.06)">
      <defs>
       <path id="ArialMT-46" d="M 525 0 
L 525 4581 
L 3616 4581 
L 3616 4041 
L 1131 4041 
L 1131 2622 
L 3281 2622 
L 3281 2081 
L 1131 2081 
L 1131 0 
L 525 0 
z
" transform="scale(0.015625)"/>
       <path id="ArialMT-43" d="M 3763 1606 
L 4369 1453 
Q 4178 706 3683 314 
Q 3188 -78 2472 -78 
Q 1731 -78 1267 223 
Q 803 525 561 1097 
Q 319 1669 319 2325 
Q 319 3041 592 3573 
Q 866 4106 1370 4382 
Q 1875 4659 2481 4659 
Q 3169 4659 3637 4309 
Q 4106 3959 4291 3325 
L 3694 3184 
Q 3534 3684 3231 3912 
Q 2928 4141 2469 4141 
Q 1941 4141 1586 3887 
Q 1231 3634 1087 3207 
Q 944 2781 944 2328 
Q 944 1744 1114 1308 
Q 1284 872 1643 656 
Q 2003 441 2422 441 
Q 2931 441 3284 734 
Q 3638 1028 3763 1606 
z
" transform="scale(0.015625)"/>
       <path id="ArialMT-4d" d="M 475 0 
L 475 4581 
L 1388 4581 
L 2472 1338 
Q 2622 884 2691 659 
Q 2769 909 2934 1394 
L 4031 4581 
L 4847 4581 
L 4847 0 
L 4263 0 
L 4263 3834 
L 2931 0 
L 2384 0 
L 1059 3900 
L 1059 0 
L 475 0 
z
" transform="scale(0.015625)"/>
       <path id="ArialMT-5f" d="M -97 -1272 
L -97 -866 
L 3631 -866 
L 3631 -1272 
L -97 -1272 
z
" transform="scale(0.015625)"/>
      </defs>
      <use xlink:href="#ArialMT-46"/>
      <use xlink:href="#ArialMT-65" x="61.083984"/>
      <use xlink:href="#ArialMT-43" x="116.699219"/>
      <use xlink:href="#ArialMT-6c" x="188.916016"/>
      <use xlink:href="#ArialMT-33" x="211.132812"/>
      <use xlink:href="#ArialMT-20" x="266.748047"/>
      <use xlink:href="#ArialMT-30" x="294.53125"/>
      <use xlink:href="#ArialMT-20" x="350.146484"/>
      <use xlink:href="#ArialMT-75" x="377.929688"/>
      <use xlink:href="#ArialMT-4d" x="433.544922"/>
      <use xlink:href="#ArialMT-5f" x="516.845703"/>
      <use xlink:href="#ArialMT-41" x="572.460938"/>
      <use xlink:href="#ArialMT-62" x="639.160156"/>
      <use xlink:href="#ArialMT-73" x="694.775391"/>
     </g>
    </g>
    <g id="line2d_43">
     <path d="M 217.906438 53.976122 
L 223.906438 53.976122 
L 229.906438 53.976122 
" style="fill: none; stroke: #f37651; stroke-width: 1.5; stroke-linecap: round"/>
    </g>
    <g id="text_19">
     <!-- FeCl3 100 uM_Abs -->
     <g style="fill: #262626" transform="translate(234.706438 56.076122) scale(0.06 -0.06)">
      <use xlink:href="#ArialMT-46"/>
      <use xlink:href="#ArialMT-65" x="61.083984"/>
      <use xlink:href="#ArialMT-43" x="116.699219"/>
      <use xlink:href="#ArialMT-6c" x="188.916016"/>
      <use xlink:href="#ArialMT-33" x="211.132812"/>
      <use xlink:href="#ArialMT-20" x="266.748047"/>
      <use xlink:href="#ArialMT-31" x="294.53125"/>
      <use xlink:href="#ArialMT-30" x="350.146484"/>
      <use xlink:href="#ArialMT-30" x="405.761719"/>
      <use xlink:href="#ArialMT-20" x="461.376953"/>
      <use xlink:href="#ArialMT-75" x="489.160156"/>
      <use xlink:href="#ArialMT-4d" x="544.775391"/>
      <use xlink:href="#ArialMT-5f" x="628.076172"/>
      <use xlink:href="#ArialMT-41" x="683.691406"/>
      <use xlink:href="#ArialMT-62" x="750.390625"/>
      <use xlink:href="#ArialMT-73" x="806.005859"/>
     </g>
    </g>
    <g id="line2d_44">
     <path d="M 217.906438 62.536434 
L 223.906438 62.536434 
L 229.906438 62.536434 
" style="fill: none; stroke: #e13342; stroke-width: 1.5; stroke-linecap: round"/>
    </g>
    <g id="text_20">
     <!-- t=1hr FeCl3 100 uM_Abs -->
     <g style="fill: #262626" transform="translate(234.706438 64.636434) scale(0.06 -0.06)">
      <defs>
       <path id="ArialMT-3d" d="M 3381 2694 
L 356 2694 
L 356 3219 
L 3381 3219 
L 3381 2694 
z
M 3381 1303 
L 356 1303 
L 356 1828 
L 3381 1828 
L 3381 1303 
z
" transform="scale(0.015625)"/>
      </defs>
      <use xlink:href="#ArialMT-74"/>
      <use xlink:href="#ArialMT-3d" x="27.783203"/>
      <use xlink:href="#ArialMT-31" x="86.181641"/>
      <use xlink:href="#ArialMT-68" x="141.796875"/>
      <use xlink:href="#ArialMT-72" x="197.412109"/>
      <use xlink:href="#ArialMT-20" x="230.712891"/>
      <use xlink:href="#ArialMT-46" x="258.496094"/>
      <use xlink:href="#ArialMT-65" x="319.580078"/>
      <use xlink:href="#ArialMT-43" x="375.195312"/>
      <use xlink:href="#ArialMT-6c" x="447.412109"/>
      <use xlink:href="#ArialMT-33" x="469.628906"/>
      <use xlink:href="#ArialMT-20" x="525.244141"/>
      <use xlink:href="#ArialMT-31" x="553.027344"/>
      <use xlink:href="#ArialMT-30" x="608.642578"/>
      <use xlink:href="#ArialMT-30" x="664.257812"/>
      <use xlink:href="#ArialMT-20" x="719.873047"/>
      <use xlink:href="#ArialMT-75" x="747.65625"/>
      <use xlink:href="#ArialMT-4d" x="803.271484"/>
      <use xlink:href="#ArialMT-5f" x="886.572266"/>
      <use xlink:href="#ArialMT-41" x="942.1875"/>
      <use xlink:href="#ArialMT-62" x="1008.886719"/>
      <use xlink:href="#ArialMT-73" x="1064.501953"/>
     </g>
    </g>
    <g id="line2d_45">
     <path d="M 217.906438 71.096747 
L 223.906438 71.096747 
L 229.906438 71.096747 
" style="fill: none; stroke: #ad1759; stroke-width: 1.5; stroke-linecap: round"/>
    </g>
    <g id="text_21">
     <!-- t=4hrs FeCl3 100 uM_Abs -->
     <g style="fill: #262626" transform="translate(234.706438 73.196747) scale(0.06 -0.06)">
      <use xlink:href="#ArialMT-74"/>
      <use xlink:href="#ArialMT-3d" x="27.783203"/>
      <use xlink:href="#ArialMT-34" x="86.181641"/>
      <use xlink:href="#ArialMT-68" x="141.796875"/>
      <use xlink:href="#ArialMT-72" x="197.412109"/>
      <use xlink:href="#ArialMT-73" x="230.712891"/>
      <use xlink:href="#ArialMT-20" x="280.712891"/>
      <use xlink:href="#ArialMT-46" x="308.496094"/>
      <use xlink:href="#ArialMT-65" x="369.580078"/>
      <use xlink:href="#ArialMT-43" x="425.195312"/>
      <use xlink:href="#ArialMT-6c" x="497.412109"/>
      <use xlink:href="#ArialMT-33" x="519.628906"/>
      <use xlink:href="#ArialMT-20" x="575.244141"/>
      <use xlink:href="#ArialMT-31" x="603.027344"/>
      <use xlink:href="#ArialMT-30" x="658.642578"/>
      <use xlink:href="#ArialMT-30" x="714.257812"/>
      <use xlink:href="#ArialMT-20" x="769.873047"/>
      <use xlink:href="#ArialMT-75" x="797.65625"/>
      <use xlink:href="#ArialMT-4d" x="853.271484"/>
      <use xlink:href="#ArialMT-5f" x="936.572266"/>
      <use xlink:href="#ArialMT-41" x="992.1875"/>
      <use xlink:href="#ArialMT-62" x="1058.886719"/>
      <use xlink:href="#ArialMT-73" x="1114.501953"/>
     </g>
    </g>
    <g id="line2d_46">
     <path d="M 217.906438 79.657059 
L 223.906438 79.657059 
L 229.906438 79.657059 
" style="fill: none; stroke: #701f57; stroke-width: 1.5; stroke-linecap: round"/>
    </g>
    <g id="text_22">
     <!-- t=24hrs FeCl3 100uM_Abs -->
     <g style="fill: #262626" transform="translate(234.706438 81.757059) scale(0.06 -0.06)">
      <use xlink:href="#ArialMT-74"/>
      <use xlink:href="#ArialMT-3d" x="27.783203"/>
      <use xlink:href="#ArialMT-32" x="86.181641"/>
      <use xlink:href="#ArialMT-34" x="141.796875"/>
      <use xlink:href="#ArialMT-68" x="197.412109"/>
      <use xlink:href="#ArialMT-72" x="253.027344"/>
      <use xlink:href="#ArialMT-73" x="286.328125"/>
      <use xlink:href="#ArialMT-20" x="336.328125"/>
      <use xlink:href="#ArialMT-46" x="364.111328"/>
      <use xlink:href="#ArialMT-65" x="425.195312"/>
      <use xlink:href="#ArialMT-43" x="480.810547"/>
      <use xlink:href="#ArialMT-6c" x="553.027344"/>
      <use xlink:href="#ArialMT-33" x="575.244141"/>
      <use xlink:href="#ArialMT-20" x="630.859375"/>
      <use xlink:href="#ArialMT-31" x="658.642578"/>
      <use xlink:href="#ArialMT-30" x="714.257812"/>
      <use xlink:href="#ArialMT-30" x="769.873047"/>
      <use xlink:href="#ArialMT-75" x="825.488281"/>
      <use xlink:href="#ArialMT-4d" x="881.103516"/>
      <use xlink:href="#ArialMT-5f" x="964.404297"/>
      <use xlink:href="#ArialMT-41" x="1020.019531"/>
      <use xlink:href="#ArialMT-62" x="1086.71875"/>
      <use xlink:href="#ArialMT-73" x="1142.333984"/>
     </g>
    </g>
    <g id="line2d_47">
     <path d="M 217.906438 88.217372 
L 223.906438 88.217372 
L 229.906438 88.217372 
" style="fill: none; stroke: #35193e; stroke-width: 1.5; stroke-linecap: round"/>
    </g>
    <g id="text_23">
     <!-- non-imine polymer t=48hrs FeCl3 100uM_Abs -->
     <g style="fill: #262626" transform="translate(234.706438 90.317372) scale(0.06 -0.06)">
      <defs>
       <path id="ArialMT-2d" d="M 203 1375 
L 203 1941 
L 1931 1941 
L 1931 1375 
L 203 1375 
z
" transform="scale(0.015625)"/>
       <path id="ArialMT-69" d="M 425 3934 
L 425 4581 
L 988 4581 
L 988 3934 
L 425 3934 
z
M 425 0 
L 425 3319 
L 988 3319 
L 988 0 
L 425 0 
z
" transform="scale(0.015625)"/>
       <path id="ArialMT-70" d="M 422 -1272 
L 422 3319 
L 934 3319 
L 934 2888 
Q 1116 3141 1344 3267 
Q 1572 3394 1897 3394 
Q 2322 3394 2647 3175 
Q 2972 2956 3137 2557 
Q 3303 2159 3303 1684 
Q 3303 1175 3120 767 
Q 2938 359 2589 142 
Q 2241 -75 1856 -75 
Q 1575 -75 1351 44 
Q 1128 163 984 344 
L 984 -1272 
L 422 -1272 
z
M 931 1641 
Q 931 1000 1190 694 
Q 1450 388 1819 388 
Q 2194 388 2461 705 
Q 2728 1022 2728 1688 
Q 2728 2322 2467 2637 
Q 2206 2953 1844 2953 
Q 1484 2953 1207 2617 
Q 931 2281 931 1641 
z
" transform="scale(0.015625)"/>
       <path id="ArialMT-79" d="M 397 -1278 
L 334 -750 
Q 519 -800 656 -800 
Q 844 -800 956 -737 
Q 1069 -675 1141 -563 
Q 1194 -478 1313 -144 
Q 1328 -97 1363 -6 
L 103 3319 
L 709 3319 
L 1400 1397 
Q 1534 1031 1641 628 
Q 1738 1016 1872 1384 
L 2581 3319 
L 3144 3319 
L 1881 -56 
Q 1678 -603 1566 -809 
Q 1416 -1088 1222 -1217 
Q 1028 -1347 759 -1347 
Q 597 -1347 397 -1278 
z
" transform="scale(0.015625)"/>
      </defs>
      <use xlink:href="#ArialMT-6e"/>
      <use xlink:href="#ArialMT-6f" x="55.615234"/>
      <use xlink:href="#ArialMT-6e" x="111.230469"/>
      <use xlink:href="#ArialMT-2d" x="166.845703"/>
      <use xlink:href="#ArialMT-69" x="200.146484"/>
      <use xlink:href="#ArialMT-6d" x="222.363281"/>
      <use xlink:href="#ArialMT-69" x="305.664062"/>
      <use xlink:href="#ArialMT-6e" x="327.880859"/>
      <use xlink:href="#ArialMT-65" x="383.496094"/>
      <use xlink:href="#ArialMT-20" x="439.111328"/>
      <use xlink:href="#ArialMT-70" x="466.894531"/>
      <use xlink:href="#ArialMT-6f" x="522.509766"/>
      <use xlink:href="#ArialMT-6c" x="578.125"/>
      <use xlink:href="#ArialMT-79" x="600.341797"/>
      <use xlink:href="#ArialMT-6d" x="650.341797"/>
      <use xlink:href="#ArialMT-65" x="733.642578"/>
      <use xlink:href="#ArialMT-72" x="789.257812"/>
      <use xlink:href="#ArialMT-20" x="822.558594"/>
      <use xlink:href="#ArialMT-74" x="850.341797"/>
      <use xlink:href="#ArialMT-3d" x="878.125"/>
      <use xlink:href="#ArialMT-34" x="936.523438"/>
      <use xlink:href="#ArialMT-38" x="992.138672"/>
      <use xlink:href="#ArialMT-68" x="1047.753906"/>
      <use xlink:href="#ArialMT-72" x="1103.369141"/>
      <use xlink:href="#ArialMT-73" x="1136.669922"/>
      <use xlink:href="#ArialMT-20" x="1186.669922"/>
      <use xlink:href="#ArialMT-46" x="1214.453125"/>
      <use xlink:href="#ArialMT-65" x="1275.537109"/>
      <use xlink:href="#ArialMT-43" x="1331.152344"/>
      <use xlink:href="#ArialMT-6c" x="1403.369141"/>
      <use xlink:href="#ArialMT-33" x="1425.585938"/>
      <use xlink:href="#ArialMT-20" x="1481.201172"/>
      <use xlink:href="#ArialMT-31" x="1508.984375"/>
      <use xlink:href="#ArialMT-30" x="1564.599609"/>
      <use xlink:href="#ArialMT-30" x="1620.214844"/>
      <use xlink:href="#ArialMT-75" x="1675.830078"/>
      <use xlink:href="#ArialMT-4d" x="1731.445312"/>
      <use xlink:href="#ArialMT-5f" x="1814.746094"/>
      <use xlink:href="#ArialMT-41" x="1870.361328"/>
      <use xlink:href="#ArialMT-62" x="1937.060547"/>
      <use xlink:href="#ArialMT-73" x="1992.675781"/>
     </g>
    </g>
   </g>
  </g>
 </g>
 <defs>
  <clipPath id="p9c5264bb45">
   <rect x="41.25125" y="11.136797" width="357.12" height="266.112"/>
  </clipPath>
 </defs>
</svg>
