<?xml version="1.0" encoding="utf-8" standalone="no"?>
<!DOCTYPE svg PUBLIC "-//W3C//DTD SVG 1.1//EN"
  "http://www.w3.org/Graphics/SVG/1.1/DTD/svg11.dtd">
<svg xmlns:xlink="http://www.w3.org/1999/xlink" width="417.805313pt" height="309.333094pt" viewBox="0 0 417.805313 309.333094" xmlns="http://www.w3.org/2000/svg" version="1.1">
 <metadata>
  <rdf:RDF xmlns:dc="http://purl.org/dc/elements/1.1/" xmlns:cc="http://creativecommons.org/ns#" xmlns:rdf="http://www.w3.org/1999/02/22-rdf-syntax-ns#">
   <cc:Work>
    <dc:type rdf:resource="http://purl.org/dc/dcmitype/StillImage"/>
    <dc:date>2024-09-10T14:45:43.296339</dc:date>
    <dc:format>image/svg+xml</dc:format>
    <dc:creator>
     <cc:Agent>
      <dc:title>Matplotlib v3.7.1, https://matplotlib.org/</dc:title>
     </cc:Agent>
    </dc:creator>
   </cc:Work>
  </rdf:RDF>
 </metadata>
 <defs>
  <style type="text/css">*{stroke-linejoin: round; stroke-linecap: butt}</style>
 </defs>
 <g id="figure_1">
  <g id="patch_1">
   <path d="M 0 309.333094 
L 417.805313 309.333094 
L 417.805313 0 
L 0 0 
z
" style="fill: #ffffff"/>
  </g>
  <g id="axes_1">
   <g id="patch_2">
    <path d="M 41.25125 273.312 
L 398.37125 273.312 
L 398.37125 7.2 
L 41.25125 7.2 
z
" style="fill: #ffffff"/>
   </g>
   <g id="matplotlib.axis_1">
    <g id="xtick_1">
     <g id="line2d_1">
      <defs>
       <path id="m81beee35dc" d="M 0 0 
L 0 -6 
" style="stroke: #262626; stroke-width: 1.25"/>
      </defs>
      <g>
       <use xlink:href="#m81beee35dc" x="73.716705" y="273.312" style="fill: #262626; stroke: #262626; stroke-width: 1.25"/>
      </g>
     </g>
     <g id="text_1">
      <!-- 400 -->
      <g style="fill: #262626" transform="translate(64.541158 284.685594) scale(0.11 -0.11)">
       <defs>
        <path id="ArialMT-34" d="M 2069 0 
L 2069 1097 
L 81 1097 
L 81 1613 
L 2172 4581 
L 2631 4581 
L 2631 1613 
L 3250 1613 
L 3250 1097 
L 2631 1097 
L 2631 0 
L 2069 0 
z
M 2069 1613 
L 2069 3678 
L 634 1613 
L 2069 1613 
z
" transform="scale(0.015625)"/>
        <path id="ArialMT-30" d="M 266 2259 
Q 266 3072 433 3567 
Q 600 4063 929 4331 
Q 1259 4600 1759 4600 
Q 2128 4600 2406 4451 
Q 2684 4303 2865 4023 
Q 3047 3744 3150 3342 
Q 3253 2941 3253 2259 
Q 3253 1453 3087 958 
Q 2922 463 2592 192 
Q 2263 -78 1759 -78 
Q 1097 -78 719 397 
Q 266 969 266 2259 
z
M 844 2259 
Q 844 1131 1108 757 
Q 1372 384 1759 384 
Q 2147 384 2411 759 
Q 2675 1134 2675 2259 
Q 2675 3391 2411 3762 
Q 2147 4134 1753 4134 
Q 1366 4134 1134 3806 
Q 844 3388 844 2259 
z
" transform="scale(0.015625)"/>
       </defs>
       <use xlink:href="#ArialMT-34"/>
       <use xlink:href="#ArialMT-30" x="55.615234"/>
       <use xlink:href="#ArialMT-30" x="111.230469"/>
      </g>
     </g>
    </g>
    <g id="xtick_2">
     <g id="line2d_2">
      <g>
       <use xlink:href="#m81beee35dc" x="138.647614" y="273.312" style="fill: #262626; stroke: #262626; stroke-width: 1.25"/>
      </g>
     </g>
     <g id="text_2">
      <!-- 600 -->
      <g style="fill: #262626" transform="translate(129.472067 284.685594) scale(0.11 -0.11)">
       <defs>
        <path id="ArialMT-36" d="M 3184 3459 
L 2625 3416 
Q 2550 3747 2413 3897 
Q 2184 4138 1850 4138 
Q 1581 4138 1378 3988 
Q 1113 3794 959 3422 
Q 806 3050 800 2363 
Q 1003 2672 1297 2822 
Q 1591 2972 1913 2972 
Q 2475 2972 2870 2558 
Q 3266 2144 3266 1488 
Q 3266 1056 3080 686 
Q 2894 316 2569 119 
Q 2244 -78 1831 -78 
Q 1128 -78 684 439 
Q 241 956 241 2144 
Q 241 3472 731 4075 
Q 1159 4600 1884 4600 
Q 2425 4600 2770 4297 
Q 3116 3994 3184 3459 
z
M 888 1484 
Q 888 1194 1011 928 
Q 1134 663 1356 523 
Q 1578 384 1822 384 
Q 2178 384 2434 671 
Q 2691 959 2691 1453 
Q 2691 1928 2437 2201 
Q 2184 2475 1800 2475 
Q 1419 2475 1153 2201 
Q 888 1928 888 1484 
z
" transform="scale(0.015625)"/>
       </defs>
       <use xlink:href="#ArialMT-36"/>
       <use xlink:href="#ArialMT-30" x="55.615234"/>
       <use xlink:href="#ArialMT-30" x="111.230469"/>
      </g>
     </g>
    </g>
    <g id="xtick_3">
     <g id="line2d_3">
      <g>
       <use xlink:href="#m81beee35dc" x="203.578523" y="273.312" style="fill: #262626; stroke: #262626; stroke-width: 1.25"/>
      </g>
     </g>
     <g id="text_3">
      <!-- 800 -->
      <g style="fill: #262626" transform="translate(194.402976 284.685594) scale(0.11 -0.11)">
       <defs>
        <path id="ArialMT-38" d="M 1131 2484 
Q 781 2613 612 2850 
Q 444 3088 444 3419 
Q 444 3919 803 4259 
Q 1163 4600 1759 4600 
Q 2359 4600 2725 4251 
Q 3091 3903 3091 3403 
Q 3091 3084 2923 2848 
Q 2756 2613 2416 2484 
Q 2838 2347 3058 2040 
Q 3278 1734 3278 1309 
Q 3278 722 2862 322 
Q 2447 -78 1769 -78 
Q 1091 -78 675 323 
Q 259 725 259 1325 
Q 259 1772 486 2073 
Q 713 2375 1131 2484 
z
M 1019 3438 
Q 1019 3113 1228 2906 
Q 1438 2700 1772 2700 
Q 2097 2700 2305 2904 
Q 2513 3109 2513 3406 
Q 2513 3716 2298 3927 
Q 2084 4138 1766 4138 
Q 1444 4138 1231 3931 
Q 1019 3725 1019 3438 
z
M 838 1322 
Q 838 1081 952 856 
Q 1066 631 1291 507 
Q 1516 384 1775 384 
Q 2178 384 2440 643 
Q 2703 903 2703 1303 
Q 2703 1709 2433 1975 
Q 2163 2241 1756 2241 
Q 1359 2241 1098 1978 
Q 838 1716 838 1322 
z
" transform="scale(0.015625)"/>
       </defs>
       <use xlink:href="#ArialMT-38"/>
       <use xlink:href="#ArialMT-30" x="55.615234"/>
       <use xlink:href="#ArialMT-30" x="111.230469"/>
      </g>
     </g>
    </g>
    <g id="xtick_4">
     <g id="line2d_4">
      <g>
       <use xlink:href="#m81beee35dc" x="268.509432" y="273.312" style="fill: #262626; stroke: #262626; stroke-width: 1.25"/>
      </g>
     </g>
     <g id="text_4">
      <!-- 1000 -->
      <g style="fill: #262626" transform="translate(256.275369 284.685594) scale(0.11 -0.11)">
       <defs>
        <path id="ArialMT-31" d="M 2384 0 
L 1822 0 
L 1822 3584 
Q 1619 3391 1289 3197 
Q 959 3003 697 2906 
L 697 3450 
Q 1169 3672 1522 3987 
Q 1875 4303 2022 4600 
L 2384 4600 
L 2384 0 
z
" transform="scale(0.015625)"/>
       </defs>
       <use xlink:href="#ArialMT-31"/>
       <use xlink:href="#ArialMT-30" x="55.615234"/>
       <use xlink:href="#ArialMT-30" x="111.230469"/>
       <use xlink:href="#ArialMT-30" x="166.845703"/>
      </g>
     </g>
    </g>
    <g id="xtick_5">
     <g id="line2d_5">
      <g>
       <use xlink:href="#m81beee35dc" x="333.440341" y="273.312" style="fill: #262626; stroke: #262626; stroke-width: 1.25"/>
      </g>
     </g>
     <g id="text_5">
      <!-- 1200 -->
      <g style="fill: #262626" transform="translate(321.206278 284.685594) scale(0.11 -0.11)">
       <defs>
        <path id="ArialMT-32" d="M 3222 541 
L 3222 0 
L 194 0 
Q 188 203 259 391 
Q 375 700 629 1000 
Q 884 1300 1366 1694 
Q 2113 2306 2375 2664 
Q 2638 3022 2638 3341 
Q 2638 3675 2398 3904 
Q 2159 4134 1775 4134 
Q 1369 4134 1125 3890 
Q 881 3647 878 3216 
L 300 3275 
Q 359 3922 746 4261 
Q 1134 4600 1788 4600 
Q 2447 4600 2831 4234 
Q 3216 3869 3216 3328 
Q 3216 3053 3103 2787 
Q 2991 2522 2730 2228 
Q 2469 1934 1863 1422 
Q 1356 997 1212 845 
Q 1069 694 975 541 
L 3222 541 
z
" transform="scale(0.015625)"/>
       </defs>
       <use xlink:href="#ArialMT-31"/>
       <use xlink:href="#ArialMT-32" x="55.615234"/>
       <use xlink:href="#ArialMT-30" x="111.230469"/>
       <use xlink:href="#ArialMT-30" x="166.845703"/>
      </g>
     </g>
    </g>
    <g id="xtick_6">
     <g id="line2d_6">
      <g>
       <use xlink:href="#m81beee35dc" x="398.37125" y="273.312" style="fill: #262626; stroke: #262626; stroke-width: 1.25"/>
      </g>
     </g>
     <g id="text_6">
      <!-- 1400 -->
      <g style="fill: #262626" transform="translate(386.137188 284.685594) scale(0.11 -0.11)">
       <use xlink:href="#ArialMT-31"/>
       <use xlink:href="#ArialMT-34" x="55.615234"/>
       <use xlink:href="#ArialMT-30" x="111.230469"/>
       <use xlink:href="#ArialMT-30" x="166.845703"/>
      </g>
     </g>
    </g>
    <g id="xtick_7">
     <g id="line2d_7">
      <defs>
       <path id="m6aeddb587d" d="M 0 0 
L 0 -4 
" style="stroke: #262626"/>
      </defs>
      <g>
       <use xlink:href="#m6aeddb587d" x="106.182159" y="273.312" style="fill: #262626; stroke: #262626"/>
      </g>
     </g>
    </g>
    <g id="xtick_8">
     <g id="line2d_8">
      <g>
       <use xlink:href="#m6aeddb587d" x="171.113068" y="273.312" style="fill: #262626; stroke: #262626"/>
      </g>
     </g>
    </g>
    <g id="xtick_9">
     <g id="line2d_9">
      <g>
       <use xlink:href="#m6aeddb587d" x="236.043977" y="273.312" style="fill: #262626; stroke: #262626"/>
      </g>
     </g>
    </g>
    <g id="xtick_10">
     <g id="line2d_10">
      <g>
       <use xlink:href="#m6aeddb587d" x="300.974886" y="273.312" style="fill: #262626; stroke: #262626"/>
      </g>
     </g>
    </g>
    <g id="xtick_11">
     <g id="line2d_11">
      <g>
       <use xlink:href="#m6aeddb587d" x="365.905795" y="273.312" style="fill: #262626; stroke: #262626"/>
      </g>
     </g>
    </g>
    <g id="text_7">
     <!-- Wavelength (nm) -->
     <g style="fill: #262626" transform="translate(174.356562 299.607469) scale(0.12 -0.12)">
      <defs>
       <path id="ArialMT-57" d="M 1294 0 
L 78 4581 
L 700 4581 
L 1397 1578 
Q 1509 1106 1591 641 
Q 1766 1375 1797 1488 
L 2669 4581 
L 3400 4581 
L 4056 2263 
Q 4303 1400 4413 641 
Q 4500 1075 4641 1638 
L 5359 4581 
L 5969 4581 
L 4713 0 
L 4128 0 
L 3163 3491 
Q 3041 3928 3019 4028 
Q 2947 3713 2884 3491 
L 1913 0 
L 1294 0 
z
" transform="scale(0.015625)"/>
       <path id="ArialMT-61" d="M 2588 409 
Q 2275 144 1986 34 
Q 1697 -75 1366 -75 
Q 819 -75 525 192 
Q 231 459 231 875 
Q 231 1119 342 1320 
Q 453 1522 633 1644 
Q 813 1766 1038 1828 
Q 1203 1872 1538 1913 
Q 2219 1994 2541 2106 
Q 2544 2222 2544 2253 
Q 2544 2597 2384 2738 
Q 2169 2928 1744 2928 
Q 1347 2928 1158 2789 
Q 969 2650 878 2297 
L 328 2372 
Q 403 2725 575 2942 
Q 747 3159 1072 3276 
Q 1397 3394 1825 3394 
Q 2250 3394 2515 3294 
Q 2781 3194 2906 3042 
Q 3031 2891 3081 2659 
Q 3109 2516 3109 2141 
L 3109 1391 
Q 3109 606 3145 398 
Q 3181 191 3288 0 
L 2700 0 
Q 2613 175 2588 409 
z
M 2541 1666 
Q 2234 1541 1622 1453 
Q 1275 1403 1131 1340 
Q 988 1278 909 1158 
Q 831 1038 831 891 
Q 831 666 1001 516 
Q 1172 366 1500 366 
Q 1825 366 2078 508 
Q 2331 650 2450 897 
Q 2541 1088 2541 1459 
L 2541 1666 
z
" transform="scale(0.015625)"/>
       <path id="ArialMT-76" d="M 1344 0 
L 81 3319 
L 675 3319 
L 1388 1331 
Q 1503 1009 1600 663 
Q 1675 925 1809 1294 
L 2547 3319 
L 3125 3319 
L 1869 0 
L 1344 0 
z
" transform="scale(0.015625)"/>
       <path id="ArialMT-65" d="M 2694 1069 
L 3275 997 
Q 3138 488 2766 206 
Q 2394 -75 1816 -75 
Q 1088 -75 661 373 
Q 234 822 234 1631 
Q 234 2469 665 2931 
Q 1097 3394 1784 3394 
Q 2450 3394 2872 2941 
Q 3294 2488 3294 1666 
Q 3294 1616 3291 1516 
L 816 1516 
Q 847 969 1125 678 
Q 1403 388 1819 388 
Q 2128 388 2347 550 
Q 2566 713 2694 1069 
z
M 847 1978 
L 2700 1978 
Q 2663 2397 2488 2606 
Q 2219 2931 1791 2931 
Q 1403 2931 1139 2672 
Q 875 2413 847 1978 
z
" transform="scale(0.015625)"/>
       <path id="ArialMT-6c" d="M 409 0 
L 409 4581 
L 972 4581 
L 972 0 
L 409 0 
z
" transform="scale(0.015625)"/>
       <path id="ArialMT-6e" d="M 422 0 
L 422 3319 
L 928 3319 
L 928 2847 
Q 1294 3394 1984 3394 
Q 2284 3394 2536 3286 
Q 2788 3178 2913 3003 
Q 3038 2828 3088 2588 
Q 3119 2431 3119 2041 
L 3119 0 
L 2556 0 
L 2556 2019 
Q 2556 2363 2490 2533 
Q 2425 2703 2258 2804 
Q 2091 2906 1866 2906 
Q 1506 2906 1245 2678 
Q 984 2450 984 1813 
L 984 0 
L 422 0 
z
" transform="scale(0.015625)"/>
       <path id="ArialMT-67" d="M 319 -275 
L 866 -356 
Q 900 -609 1056 -725 
Q 1266 -881 1628 -881 
Q 2019 -881 2231 -725 
Q 2444 -569 2519 -288 
Q 2563 -116 2559 434 
Q 2191 0 1641 0 
Q 956 0 581 494 
Q 206 988 206 1678 
Q 206 2153 378 2554 
Q 550 2956 876 3175 
Q 1203 3394 1644 3394 
Q 2231 3394 2613 2919 
L 2613 3319 
L 3131 3319 
L 3131 450 
Q 3131 -325 2973 -648 
Q 2816 -972 2473 -1159 
Q 2131 -1347 1631 -1347 
Q 1038 -1347 672 -1080 
Q 306 -813 319 -275 
z
M 784 1719 
Q 784 1066 1043 766 
Q 1303 466 1694 466 
Q 2081 466 2343 764 
Q 2606 1063 2606 1700 
Q 2606 2309 2336 2618 
Q 2066 2928 1684 2928 
Q 1309 2928 1046 2623 
Q 784 2319 784 1719 
z
" transform="scale(0.015625)"/>
       <path id="ArialMT-74" d="M 1650 503 
L 1731 6 
Q 1494 -44 1306 -44 
Q 1000 -44 831 53 
Q 663 150 594 308 
Q 525 466 525 972 
L 525 2881 
L 113 2881 
L 113 3319 
L 525 3319 
L 525 4141 
L 1084 4478 
L 1084 3319 
L 1650 3319 
L 1650 2881 
L 1084 2881 
L 1084 941 
Q 1084 700 1114 631 
Q 1144 563 1211 522 
Q 1278 481 1403 481 
Q 1497 481 1650 503 
z
" transform="scale(0.015625)"/>
       <path id="ArialMT-68" d="M 422 0 
L 422 4581 
L 984 4581 
L 984 2938 
Q 1378 3394 1978 3394 
Q 2347 3394 2619 3248 
Q 2891 3103 3008 2847 
Q 3125 2591 3125 2103 
L 3125 0 
L 2563 0 
L 2563 2103 
Q 2563 2525 2380 2717 
Q 2197 2909 1863 2909 
Q 1613 2909 1392 2779 
Q 1172 2650 1078 2428 
Q 984 2206 984 1816 
L 984 0 
L 422 0 
z
" transform="scale(0.015625)"/>
       <path id="ArialMT-20" transform="scale(0.015625)"/>
       <path id="ArialMT-28" d="M 1497 -1347 
Q 1031 -759 709 28 
Q 388 816 388 1659 
Q 388 2403 628 3084 
Q 909 3875 1497 4659 
L 1900 4659 
Q 1522 4009 1400 3731 
Q 1209 3300 1100 2831 
Q 966 2247 966 1656 
Q 966 153 1900 -1347 
L 1497 -1347 
z
" transform="scale(0.015625)"/>
       <path id="ArialMT-6d" d="M 422 0 
L 422 3319 
L 925 3319 
L 925 2853 
Q 1081 3097 1340 3245 
Q 1600 3394 1931 3394 
Q 2300 3394 2536 3241 
Q 2772 3088 2869 2813 
Q 3263 3394 3894 3394 
Q 4388 3394 4653 3120 
Q 4919 2847 4919 2278 
L 4919 0 
L 4359 0 
L 4359 2091 
Q 4359 2428 4304 2576 
Q 4250 2725 4106 2815 
Q 3963 2906 3769 2906 
Q 3419 2906 3187 2673 
Q 2956 2441 2956 1928 
L 2956 0 
L 2394 0 
L 2394 2156 
Q 2394 2531 2256 2718 
Q 2119 2906 1806 2906 
Q 1569 2906 1367 2781 
Q 1166 2656 1075 2415 
Q 984 2175 984 1722 
L 984 0 
L 422 0 
z
" transform="scale(0.015625)"/>
       <path id="ArialMT-29" d="M 791 -1347 
L 388 -1347 
Q 1322 153 1322 1656 
Q 1322 2244 1188 2822 
Q 1081 3291 891 3722 
Q 769 4003 388 4659 
L 791 4659 
Q 1378 3875 1659 3084 
Q 1900 2403 1900 1659 
Q 1900 816 1576 28 
Q 1253 -759 791 -1347 
z
" transform="scale(0.015625)"/>
      </defs>
      <use xlink:href="#ArialMT-57"/>
      <use xlink:href="#ArialMT-61" x="90.634766"/>
      <use xlink:href="#ArialMT-76" x="146.25"/>
      <use xlink:href="#ArialMT-65" x="196.25"/>
      <use xlink:href="#ArialMT-6c" x="251.865234"/>
      <use xlink:href="#ArialMT-65" x="274.082031"/>
      <use xlink:href="#ArialMT-6e" x="329.697266"/>
      <use xlink:href="#ArialMT-67" x="385.3125"/>
      <use xlink:href="#ArialMT-74" x="440.927734"/>
      <use xlink:href="#ArialMT-68" x="468.710938"/>
      <use xlink:href="#ArialMT-20" x="524.326172"/>
      <use xlink:href="#ArialMT-28" x="552.109375"/>
      <use xlink:href="#ArialMT-6e" x="585.410156"/>
      <use xlink:href="#ArialMT-6d" x="641.025391"/>
      <use xlink:href="#ArialMT-29" x="724.326172"/>
     </g>
    </g>
   </g>
   <g id="matplotlib.axis_2">
    <g id="ytick_1">
     <g id="line2d_12">
      <defs>
       <path id="mbc44070e1c" d="M 0 0 
L 6 0 
" style="stroke: #262626; stroke-width: 1.25"/>
      </defs>
      <g>
       <use xlink:href="#mbc44070e1c" x="41.25125" y="273.312" style="fill: #262626; stroke: #262626; stroke-width: 1.25"/>
      </g>
     </g>
     <g id="text_8">
      <!-- 0.0 -->
      <g style="fill: #262626" transform="translate(22.46125 277.248797) scale(0.11 -0.11)">
       <defs>
        <path id="ArialMT-2e" d="M 581 0 
L 581 641 
L 1222 641 
L 1222 0 
L 581 0 
z
" transform="scale(0.015625)"/>
       </defs>
       <use xlink:href="#ArialMT-30"/>
       <use xlink:href="#ArialMT-2e" x="55.615234"/>
       <use xlink:href="#ArialMT-30" x="83.398438"/>
      </g>
     </g>
    </g>
    <g id="ytick_2">
     <g id="line2d_13">
      <g>
       <use xlink:href="#mbc44070e1c" x="41.25125" y="224.928" style="fill: #262626; stroke: #262626; stroke-width: 1.25"/>
      </g>
     </g>
     <g id="text_9">
      <!-- 0.2 -->
      <g style="fill: #262626" transform="translate(22.46125 228.864797) scale(0.11 -0.11)">
       <use xlink:href="#ArialMT-30"/>
       <use xlink:href="#ArialMT-2e" x="55.615234"/>
       <use xlink:href="#ArialMT-32" x="83.398438"/>
      </g>
     </g>
    </g>
    <g id="ytick_3">
     <g id="line2d_14">
      <g>
       <use xlink:href="#mbc44070e1c" x="41.25125" y="176.544" style="fill: #262626; stroke: #262626; stroke-width: 1.25"/>
      </g>
     </g>
     <g id="text_10">
      <!-- 0.4 -->
      <g style="fill: #262626" transform="translate(22.46125 180.480797) scale(0.11 -0.11)">
       <use xlink:href="#ArialMT-30"/>
       <use xlink:href="#ArialMT-2e" x="55.615234"/>
       <use xlink:href="#ArialMT-34" x="83.398438"/>
      </g>
     </g>
    </g>
    <g id="ytick_4">
     <g id="line2d_15">
      <g>
       <use xlink:href="#mbc44070e1c" x="41.25125" y="128.16" style="fill: #262626; stroke: #262626; stroke-width: 1.25"/>
      </g>
     </g>
     <g id="text_11">
      <!-- 0.6 -->
      <g style="fill: #262626" transform="translate(22.46125 132.096797) scale(0.11 -0.11)">
       <use xlink:href="#ArialMT-30"/>
       <use xlink:href="#ArialMT-2e" x="55.615234"/>
       <use xlink:href="#ArialMT-36" x="83.398438"/>
      </g>
     </g>
    </g>
    <g id="ytick_5">
     <g id="line2d_16">
      <g>
       <use xlink:href="#mbc44070e1c" x="41.25125" y="79.776" style="fill: #262626; stroke: #262626; stroke-width: 1.25"/>
      </g>
     </g>
     <g id="text_12">
      <!-- 0.8 -->
      <g style="fill: #262626" transform="translate(22.46125 83.712797) scale(0.11 -0.11)">
       <use xlink:href="#ArialMT-30"/>
       <use xlink:href="#ArialMT-2e" x="55.615234"/>
       <use xlink:href="#ArialMT-38" x="83.398438"/>
      </g>
     </g>
    </g>
    <g id="ytick_6">
     <g id="line2d_17">
      <g>
       <use xlink:href="#mbc44070e1c" x="41.25125" y="31.392" style="fill: #262626; stroke: #262626; stroke-width: 1.25"/>
      </g>
     </g>
     <g id="text_13">
      <!-- 1.0 -->
      <g style="fill: #262626" transform="translate(22.46125 35.328797) scale(0.11 -0.11)">
       <use xlink:href="#ArialMT-31"/>
       <use xlink:href="#ArialMT-2e" x="55.615234"/>
       <use xlink:href="#ArialMT-30" x="83.398438"/>
      </g>
     </g>
    </g>
    <g id="ytick_7">
     <g id="line2d_18">
      <defs>
       <path id="mfccec2e01f" d="M 0 0 
L 4 0 
" style="stroke: #262626"/>
      </defs>
      <g>
       <use xlink:href="#mfccec2e01f" x="41.25125" y="249.12" style="fill: #262626; stroke: #262626"/>
      </g>
     </g>
    </g>
    <g id="ytick_8">
     <g id="line2d_19">
      <g>
       <use xlink:href="#mfccec2e01f" x="41.25125" y="200.736" style="fill: #262626; stroke: #262626"/>
      </g>
     </g>
    </g>
    <g id="ytick_9">
     <g id="line2d_20">
      <g>
       <use xlink:href="#mfccec2e01f" x="41.25125" y="152.352" style="fill: #262626; stroke: #262626"/>
      </g>
     </g>
    </g>
    <g id="ytick_10">
     <g id="line2d_21">
      <g>
       <use xlink:href="#mfccec2e01f" x="41.25125" y="103.968" style="fill: #262626; stroke: #262626"/>
      </g>
     </g>
    </g>
    <g id="ytick_11">
     <g id="line2d_22">
      <g>
       <use xlink:href="#mfccec2e01f" x="41.25125" y="55.584" style="fill: #262626; stroke: #262626"/>
      </g>
     </g>
    </g>
    <g id="ytick_12">
     <g id="line2d_23">
      <g>
       <use xlink:href="#mfccec2e01f" x="41.25125" y="7.2" style="fill: #262626; stroke: #262626"/>
      </g>
     </g>
    </g>
    <g id="text_14">
     <!-- Absorbance (a.u.) -->
     <g style="fill: #262626" transform="translate(15.935625 187.94475) rotate(-90) scale(0.12 -0.12)">
      <defs>
       <path id="ArialMT-41" d="M -9 0 
L 1750 4581 
L 2403 4581 
L 4278 0 
L 3588 0 
L 3053 1388 
L 1138 1388 
L 634 0 
L -9 0 
z
M 1313 1881 
L 2866 1881 
L 2388 3150 
Q 2169 3728 2063 4100 
Q 1975 3659 1816 3225 
L 1313 1881 
z
" transform="scale(0.015625)"/>
       <path id="ArialMT-62" d="M 941 0 
L 419 0 
L 419 4581 
L 981 4581 
L 981 2947 
Q 1338 3394 1891 3394 
Q 2197 3394 2470 3270 
Q 2744 3147 2920 2923 
Q 3097 2700 3197 2384 
Q 3297 2069 3297 1709 
Q 3297 856 2875 390 
Q 2453 -75 1863 -75 
Q 1275 -75 941 416 
L 941 0 
z
M 934 1684 
Q 934 1088 1097 822 
Q 1363 388 1816 388 
Q 2184 388 2453 708 
Q 2722 1028 2722 1663 
Q 2722 2313 2464 2622 
Q 2206 2931 1841 2931 
Q 1472 2931 1203 2611 
Q 934 2291 934 1684 
z
" transform="scale(0.015625)"/>
       <path id="ArialMT-73" d="M 197 991 
L 753 1078 
Q 800 744 1014 566 
Q 1228 388 1613 388 
Q 2000 388 2187 545 
Q 2375 703 2375 916 
Q 2375 1106 2209 1216 
Q 2094 1291 1634 1406 
Q 1016 1563 777 1677 
Q 538 1791 414 1992 
Q 291 2194 291 2438 
Q 291 2659 392 2848 
Q 494 3038 669 3163 
Q 800 3259 1026 3326 
Q 1253 3394 1513 3394 
Q 1903 3394 2198 3281 
Q 2494 3169 2634 2976 
Q 2775 2784 2828 2463 
L 2278 2388 
Q 2241 2644 2061 2787 
Q 1881 2931 1553 2931 
Q 1166 2931 1000 2803 
Q 834 2675 834 2503 
Q 834 2394 903 2306 
Q 972 2216 1119 2156 
Q 1203 2125 1616 2013 
Q 2213 1853 2448 1751 
Q 2684 1650 2818 1456 
Q 2953 1263 2953 975 
Q 2953 694 2789 445 
Q 2625 197 2315 61 
Q 2006 -75 1616 -75 
Q 969 -75 630 194 
Q 291 463 197 991 
z
" transform="scale(0.015625)"/>
       <path id="ArialMT-6f" d="M 213 1659 
Q 213 2581 725 3025 
Q 1153 3394 1769 3394 
Q 2453 3394 2887 2945 
Q 3322 2497 3322 1706 
Q 3322 1066 3130 698 
Q 2938 331 2570 128 
Q 2203 -75 1769 -75 
Q 1072 -75 642 372 
Q 213 819 213 1659 
z
M 791 1659 
Q 791 1022 1069 705 
Q 1347 388 1769 388 
Q 2188 388 2466 706 
Q 2744 1025 2744 1678 
Q 2744 2294 2464 2611 
Q 2184 2928 1769 2928 
Q 1347 2928 1069 2612 
Q 791 2297 791 1659 
z
" transform="scale(0.015625)"/>
       <path id="ArialMT-72" d="M 416 0 
L 416 3319 
L 922 3319 
L 922 2816 
Q 1116 3169 1280 3281 
Q 1444 3394 1641 3394 
Q 1925 3394 2219 3213 
L 2025 2691 
Q 1819 2813 1613 2813 
Q 1428 2813 1281 2702 
Q 1134 2591 1072 2394 
Q 978 2094 978 1738 
L 978 0 
L 416 0 
z
" transform="scale(0.015625)"/>
       <path id="ArialMT-63" d="M 2588 1216 
L 3141 1144 
Q 3050 572 2676 248 
Q 2303 -75 1759 -75 
Q 1078 -75 664 370 
Q 250 816 250 1647 
Q 250 2184 428 2587 
Q 606 2991 970 3192 
Q 1334 3394 1763 3394 
Q 2303 3394 2647 3120 
Q 2991 2847 3088 2344 
L 2541 2259 
Q 2463 2594 2264 2762 
Q 2066 2931 1784 2931 
Q 1359 2931 1093 2626 
Q 828 2322 828 1663 
Q 828 994 1084 691 
Q 1341 388 1753 388 
Q 2084 388 2306 591 
Q 2528 794 2588 1216 
z
" transform="scale(0.015625)"/>
       <path id="ArialMT-75" d="M 2597 0 
L 2597 488 
Q 2209 -75 1544 -75 
Q 1250 -75 995 37 
Q 741 150 617 320 
Q 494 491 444 738 
Q 409 903 409 1263 
L 409 3319 
L 972 3319 
L 972 1478 
Q 972 1038 1006 884 
Q 1059 663 1231 536 
Q 1403 409 1656 409 
Q 1909 409 2131 539 
Q 2353 669 2445 892 
Q 2538 1116 2538 1541 
L 2538 3319 
L 3100 3319 
L 3100 0 
L 2597 0 
z
" transform="scale(0.015625)"/>
      </defs>
      <use xlink:href="#ArialMT-41"/>
      <use xlink:href="#ArialMT-62" x="66.699219"/>
      <use xlink:href="#ArialMT-73" x="122.314453"/>
      <use xlink:href="#ArialMT-6f" x="172.314453"/>
      <use xlink:href="#ArialMT-72" x="227.929688"/>
      <use xlink:href="#ArialMT-62" x="261.230469"/>
      <use xlink:href="#ArialMT-61" x="316.845703"/>
      <use xlink:href="#ArialMT-6e" x="372.460938"/>
      <use xlink:href="#ArialMT-63" x="428.076172"/>
      <use xlink:href="#ArialMT-65" x="478.076172"/>
      <use xlink:href="#ArialMT-20" x="533.691406"/>
      <use xlink:href="#ArialMT-28" x="561.474609"/>
      <use xlink:href="#ArialMT-61" x="594.775391"/>
      <use xlink:href="#ArialMT-2e" x="650.390625"/>
      <use xlink:href="#ArialMT-75" x="678.173828"/>
      <use xlink:href="#ArialMT-2e" x="733.789062"/>
      <use xlink:href="#ArialMT-29" x="761.572266"/>
     </g>
    </g>
   </g>
   <g id="PolyCollection_1"/>
   <g id="PolyCollection_2"/>
   <g id="PolyCollection_3"/>
   <g id="PolyCollection_4"/>
   <g id="PolyCollection_5"/>
   <g id="PolyCollection_6"/>
   <g id="PolyCollection_7"/>
   <g id="line2d_24">
    <path d="M 41.467683 226.990717 
L 42.333435 227.661832 
L 43.199177 228.130882 
L 44.281362 228.328466 
L 46.662156 227.906733 
L 48.177217 227.226808 
L 48.826526 226.796107 
L 50.774453 225.343452 
L 51.856629 224.562453 
L 52.505938 224.054614 
L 53.155247 223.596973 
L 56.401792 220.787442 
L 58.566162 218.479235 
L 61.163399 215.338213 
L 63.977068 212.474121 
L 65.059253 211.036484 
L 66.141429 209.117955 
L 67.007181 207.217587 
L 67.872923 204.985058 
L 69.171541 200.962644 
L 70.470159 196.229215 
L 72.201653 189.0192 
L 79.344053 157.596991 
L 81.508414 146.396118 
L 87.135762 114.916151 
L 93.845286 75.449309 
L 95.576781 66.960502 
L 97.308275 59.710955 
L 98.606893 55.178557 
L 99.472635 52.617644 
L 100.338377 50.473917 
L 101.420562 48.453838 
L 102.286305 47.370454 
L 102.935614 46.871061 
L 103.584923 46.685684 
L 104.234232 46.809432 
L 104.883541 47.267426 
L 105.53285 48.05818 
L 106.182159 49.23372 
L 107.047911 51.44108 
L 107.913653 54.392936 
L 108.779395 58.095445 
L 109.861581 63.882316 
L 111.160189 72.17767 
L 112.891693 85.291333 
L 114.623177 99.892402 
L 117.436857 125.596168 
L 119.81765 149.865449 
L 121.98202 175.007069 
L 125.877875 222.280457 
L 127.392936 237.796894 
L 128.691554 248.459914 
L 129.773729 255.319143 
L 130.855905 260.548808 
L 131.721657 263.637089 
L 132.587409 265.969596 
L 133.453141 267.714104 
L 134.535336 269.227464 
L 135.401068 270.083682 
L 136.26682 270.739026 
L 137.781881 271.448579 
L 139.729809 271.990525 
L 141.677736 272.348589 
L 143.192777 272.521684 
L 147.305075 272.840014 
L 148.820136 272.882492 
L 151.200929 272.944655 
L 153.798166 272.985683 
L 154.663918 273.018406 
L 166.351481 273.061942 
L 174.576057 273.126427 
L 176.740427 273.128736 
L 178.688354 273.133121 
L 180.636281 273.126189 
L 181.718457 273.154152 
L 186.480063 273.141834 
L 188.644414 273.144512 
L 190.375918 273.143051 
L 192.107402 273.149956 
L 196.652566 273.127688 
L 197.085432 273.14243 
L 198.600493 273.159872 
L 199.682668 273.144399 
L 200.331977 273.167962 
L 201.847038 273.157501 
L 204.660718 273.141181 
L 205.52645 273.119363 
L 206.392202 273.161471 
L 207.041511 273.160286 
L 223.274238 273.21734 
L 223.490681 273.080176 
L 223.707105 273.361824 
L 224.13999 273.126484 
L 224.356414 273.061628 
L 224.572857 273.222755 
L 224.7893 273.162042 
L 225.005723 273.338299 
L 225.222166 273.187807 
L 225.438609 273.301523 
L 225.871475 272.943851 
L 226.087918 273.377997 
L 226.304341 273.261839 
L 226.520784 273.450231 
L 226.95365 272.992204 
L 227.170093 273.31473 
L 227.386536 273.266776 
L 227.819402 273.001977 
L 228.252268 273.27571 
L 229.550886 273.247885 
L 229.767329 272.979232 
L 229.983772 273.281567 
L 230.200195 273.350131 
L 230.416638 273.065125 
L 230.633081 273.541127 
L 230.849505 273.288157 
L 231.28239 273.257999 
L 231.498814 273.611314 
L 231.9317 273.093807 
L 232.148123 273.287342 
L 232.364566 272.992725 
L 232.581009 273.594514 
L 233.013875 273.104161 
L 233.230318 273.588743 
L 233.446741 273.281504 
L 234.09605 273.254765 
L 234.528936 272.853047 
L 234.745359 273.321105 
L 234.961802 273.263612 
L 235.178245 273.344709 
L 235.394668 273.278585 
L 235.611111 272.913015 
L 235.827534 273.382503 
L 242.753491 273.397258 
L 257.6876 273.447179 
L 267.64368 273.418906 
L 271.323091 273.430417 
L 282.361346 273.420345 
L 284.958582 273.423886 
L 289.503746 273.432656 
L 292.533868 273.425988 
L 298.594073 273.432681 
L 308.766595 273.484573 
L 309.632328 273.475057 
L 312.446027 273.556285 
L 318.289809 273.377121 
L 323.917128 273.39831 
L 328.245868 273.379273 
L 330.843105 273.392841 
L 335.604691 273.380525 
L 337.769081 273.384042 
L 354.434655 273.405931 
L 365.47291 273.414026 
L 367.420837 273.405505 
L 395.774014 273.237245 
L 398.154827 272.966679 
L 398.37125 272.928924 
L 398.37125 272.928924 
" clip-path="url(#p5c567526ea)" style="fill: none; stroke: #f6bb97; stroke-linecap: round"/>
   </g>
   <g id="line2d_25">
    <path d="M 41.467683 214.451648 
L 43.199177 217.021396 
L 44.281362 217.950841 
L 46.662156 218.81653 
L 47.311465 218.817446 
L 48.610083 218.458496 
L 51.207319 216.933967 
L 54.453865 214.574931 
L 56.185359 212.900868 
L 57.267544 211.70341 
L 58.566162 210.007497 
L 60.297647 207.389735 
L 61.379832 205.844067 
L 62.67845 204.226207 
L 63.977068 202.564772 
L 65.275686 200.335061 
L 65.924995 198.931375 
L 67.223614 195.36857 
L 68.522232 190.88876 
L 70.253726 183.640799 
L 72.634529 171.601436 
L 75.664632 155.696573 
L 79.560486 134.80963 
L 82.374166 117.423842 
L 91.897359 57.353112 
L 93.628853 47.850164 
L 95.576781 38.911495 
L 97.091832 33.284264 
L 98.39045 29.407898 
L 99.472635 26.865384 
L 100.55482 25.037244 
L 101.420562 24.162842 
L 102.069871 23.851495 
L 102.502748 23.809938 
L 103.152057 23.995229 
L 103.801366 24.565955 
L 104.450675 25.478886 
L 105.099984 26.778204 
L 105.749293 28.471232 
L 106.398602 30.595954 
L 107.480777 35.143622 
L 108.346529 39.634752 
L 109.428705 46.362051 
L 110.727323 55.866499 
L 112.242384 68.580899 
L 114.406734 88.993583 
L 116.787548 113.43447 
L 119.168341 140.223106 
L 120.899825 161.725951 
L 125.445009 219.866663 
L 126.96005 235.891205 
L 128.042245 245.357085 
L 128.907977 251.598968 
L 129.990172 257.747447 
L 130.855905 261.54949 
L 131.721657 264.442287 
L 132.587409 266.59662 
L 133.453141 268.221985 
L 134.535336 269.636307 
L 135.617511 270.600603 
L 136.699686 271.252472 
L 138.214748 271.834203 
L 140.162675 272.279982 
L 141.677736 272.53477 
L 143.625663 272.740199 
L 144.491395 272.821619 
L 146.655766 272.974778 
L 149.036559 273.063919 
L 152.932414 273.143766 
L 155.52965 273.16963 
L 157.261154 273.186221 
L 162.888493 273.077703 
L 171.329511 273.260705 
L 172.628129 273.253099 
L 174.359614 273.270955 
L 176.307541 273.260793 
L 176.95685 273.272916 
L 178.471911 273.258249 
L 181.718457 273.265229 
L 184.532136 273.276505 
L 185.830754 273.257341 
L 189.510166 273.266219 
L 197.734741 273.266582 
L 198.600493 273.249183 
L 220.460559 273.199449 
L 220.677002 273.342431 
L 220.893445 273.20143 
L 221.109868 273.320704 
L 221.326311 273.257065 
L 221.542754 273.321481 
L 221.759177 273.245805 
L 221.97562 273.29623 
L 222.408486 273.135065 
L 222.624929 273.328306 
L 223.057795 273.274106 
L 223.274238 273.286183 
L 223.490681 273.183725 
L 223.923548 273.352685 
L 224.13999 273.085178 
L 224.356414 273.02814 
L 224.7893 273.398059 
L 225.005723 273.201311 
L 225.222166 273.404617 
L 225.438609 273.367407 
L 225.655032 273.176107 
L 226.520784 273.438648 
L 226.737227 273.173072 
L 227.170093 273.130323 
L 227.386536 273.369485 
L 227.602959 273.052036 
L 227.819402 273.279669 
L 228.035845 273.275804 
L 228.468711 273.550837 
L 228.901577 273.253343 
L 229.11802 273.134338 
L 229.334463 273.408433 
L 229.767329 273.058207 
L 229.983772 273.569892 
L 230.416638 273.362475 
L 231.065948 273.47003 
L 231.28239 273.223163 
L 231.498814 273.288269 
L 231.715257 273.508278 
L 231.9317 273.189187 
L 232.148123 273.573902 
L 232.364566 273.15858 
L 232.581009 273.537465 
L 233.013875 273.127964 
L 233.230318 273.650659 
L 233.446741 273.137374 
L 233.663184 273.439874 
L 233.879627 273.294176 
L 234.312493 273.473582 
L 234.528936 273.053718 
L 234.961802 273.416003 
L 235.178245 273.126779 
L 235.394668 273.599748 
L 235.611111 273.138572 
L 235.827534 273.411136 
L 306.169359 273.446204 
L 307.6844 273.465015 
L 308.766595 273.49884 
L 310.4981 273.599149 
L 312.446027 273.671606 
L 314.610377 273.498402 
L 315.908995 273.429241 
L 318.722655 273.348178 
L 339.717009 273.374392 
L 344.695019 273.396245 
L 348.37445 273.389099 
L 357.6812 273.379349 
L 386.90011 273.163434 
L 387.332995 273.134024 
L 388.198728 273.121076 
L 391.22885 273.136671 
L 392.527468 273.106162 
L 396.2069 272.970524 
L 398.154827 272.590386 
L 398.37125 272.490681 
L 398.37125 272.490681 
" clip-path="url(#p5c567526ea)" style="fill: none; stroke: #f4865e; stroke-linecap: round"/>
   </g>
   <g id="line2d_26">
    <path d="M 41.467683 220.810225 
L 42.333435 221.455554 
L 42.982744 221.830023 
L 44.714229 222.001096 
L 46.445723 221.630993 
L 46.878599 221.503798 
L 50.125144 219.680716 
L 52.073071 218.440147 
L 53.37169 217.558968 
L 56.185359 215.053744 
L 57.70041 213.358436 
L 61.163399 208.430878 
L 64.626377 204.047023 
L 65.492119 202.436445 
L 66.574305 199.818272 
L 67.65649 196.541262 
L 68.738665 192.679662 
L 69.82085 188.29443 
L 71.335911 181.254666 
L 79.776929 138.089502 
L 82.157723 124.099217 
L 92.113802 65.57856 
L 93.845286 57.162774 
L 94.927471 52.558624 
L 96.442523 47.051796 
L 97.524708 43.783849 
L 99.039759 40.225838 
L 99.905511 38.734668 
L 100.771253 37.703699 
L 101.420562 37.247493 
L 102.069871 37.087551 
L 102.719181 37.230781 
L 103.36849 37.679907 
L 104.017799 38.450733 
L 104.667108 39.578285 
L 105.53285 41.6623 
L 106.398602 44.428288 
L 107.264344 47.924064 
L 108.346529 53.289927 
L 109.428705 59.850089 
L 110.727323 69.009102 
L 112.242384 81.214752 
L 114.623177 102.82942 
L 117.436857 130.778557 
L 120.034093 159.45087 
L 126.310741 232.818553 
L 127.609359 244.305663 
L 128.691554 252.027413 
L 129.773729 258.028529 
L 130.855905 262.517236 
L 131.721657 265.172754 
L 132.587409 267.162963 
L 133.453141 268.651911 
L 134.535336 269.974871 
L 135.833954 271.00747 
L 136.699686 271.471473 
L 138.864057 272.180627 
L 140.811984 272.541047 
L 142.327045 272.737825 
L 144.707838 272.970185 
L 149.036559 273.174684 
L 159.209081 273.261025 
L 162.022741 273.208796 
L 162.888493 273.20427 
L 166.351481 273.291909 
L 170.463759 273.335569 
L 172.628129 273.327792 
L 173.493881 273.352134 
L 174.359614 273.356416 
L 202.496348 273.319565 
L 203.578523 273.346212 
L 204.877141 273.277013 
L 205.310027 273.302212 
L 211.586675 273.289929 
L 212.66885 273.290593 
L 216.781148 273.289842 
L 217.863323 273.318613 
L 218.729075 273.24291 
L 218.945518 273.379549 
L 219.378384 273.306082 
L 219.594827 273.359896 
L 220.027693 273.299118 
L 220.677002 273.305343 
L 220.893445 273.24239 
L 221.759177 273.384092 
L 223.057795 273.299055 
L 223.490681 273.351858 
L 223.923548 273.377784 
L 224.13999 273.165165 
L 224.356414 273.189375 
L 224.7893 273.392152 
L 225.438609 273.435708 
L 225.871475 273.300013 
L 226.520784 273.504491 
L 226.95365 273.119413 
L 227.170093 273.260417 
L 227.819402 273.06009 
L 228.035845 273.46474 
L 228.252268 273.574265 
L 228.468711 273.364102 
L 228.685154 273.506841 
L 228.901577 273.204458 
L 229.334463 273.516041 
L 229.767329 273.173204 
L 229.983772 273.492213 
L 230.200195 273.534878 
L 230.416638 273.307197 
L 230.633081 273.393592 
L 230.849505 273.356491 
L 231.065948 273.507578 
L 231.28239 273.124953 
L 231.498814 273.393441 
L 231.715257 273.345072 
L 231.9317 273.097992 
L 232.148123 273.669509 
L 232.364566 273.229092 
L 232.581009 273.46065 
L 233.446741 273.285263 
L 233.663184 273.773059 
L 233.879627 273.514441 
L 234.09605 273.530791 
L 234.312493 273.23341 
L 234.961802 273.579687 
L 235.178245 273.376107 
L 235.394668 273.50149 
L 235.611111 273.002699 
L 235.827534 273.436859 
L 249.895891 273.445403 
L 253.791746 273.454484 
L 277.816182 273.4606 
L 279.76411 273.454959 
L 282.794232 273.455435 
L 287.555819 273.446867 
L 289.720209 273.453096 
L 294.04891 273.451958 
L 297.511918 273.472844 
L 309.415905 273.577888 
L 310.714523 273.737115 
L 311.580255 273.778484 
L 312.446027 273.805451 
L 313.961068 273.682789 
L 314.393954 273.612675 
L 322.402086 273.343345 
L 325.432209 273.260279 
L 328.245868 273.267428 
L 329.544486 273.2968 
L 333.873227 273.358544 
L 335.821154 273.367883 
L 340.366318 273.385069 
L 345.127905 273.406794 
L 348.807336 273.398134 
L 363.092136 273.414402 
L 368.070146 273.421058 
L 375.861855 273.429666 
L 378.242668 273.42849 
L 382.571409 273.328519 
L 387.549419 273.162023 
L 387.982305 273.130423 
L 396.2069 272.956563 
L 398.154827 272.646225 
L 398.37125 272.561358 
L 398.37125 272.561358 
" clip-path="url(#p5c567526ea)" style="fill: none; stroke: #ec4a3e; stroke-linecap: round"/>
   </g>
   <g id="line2d_27">
    <path d="M 41.467683 217.079702 
L 42.549868 218.339542 
L 43.199177 218.74976 
L 43.848486 218.913999 
L 44.930671 218.881342 
L 46.012847 218.659566 
L 47.311465 218.155062 
L 47.960774 217.818016 
L 48.610083 217.460584 
L 51.640195 215.46234 
L 52.722381 214.744696 
L 54.670308 213.155888 
L 56.834668 210.882022 
L 58.782595 208.299191 
L 60.730523 205.271603 
L 62.462017 202.995203 
L 63.977068 200.883632 
L 64.84281 199.319535 
L 65.924995 196.813647 
L 67.007181 193.645246 
L 68.305799 189.001702 
L 70.037293 181.525371 
L 71.552344 173.872682 
L 76.746817 146.084583 
L 78.911177 134.518427 
L 82.807032 111.468594 
L 86.702886 89.065536 
L 91.464493 62.170412 
L 92.979544 54.972545 
L 94.061729 50.59706 
L 95.143905 46.832532 
L 96.442523 43.104082 
L 97.524708 40.587509 
L 98.823326 38.333041 
L 99.689068 37.312237 
L 100.338377 36.844827 
L 100.987686 36.636724 
L 101.636995 36.696955 
L 102.286305 37.0943 
L 102.935614 37.771442 
L 103.584923 38.769578 
L 104.234232 40.114231 
L 105.099984 42.422902 
L 105.965726 45.395624 
L 107.047911 50.099499 
L 108.130086 55.854531 
L 109.212271 62.612501 
L 110.727323 73.785883 
L 112.242384 86.3944 
L 114.406734 106.378059 
L 116.787548 130.101833 
L 119.384784 157.95908 
L 122.198443 190.898493 
L 125.012123 223.015022 
L 126.527184 237.654119 
L 127.825802 247.984887 
L 128.907977 254.813123 
L 129.990172 260.04721 
L 130.855905 263.302756 
L 131.721657 265.752975 
L 132.587409 267.589366 
L 133.453141 268.974928 
L 134.535336 270.179897 
L 135.617511 271.005467 
L 136.699686 271.574767 
L 138.43119 272.141689 
L 141.028427 272.614426 
L 147.954384 273.165641 
L 149.902311 273.199832 
L 154.880341 273.283653 
L 166.135038 273.293293 
L 168.948718 273.33746 
L 169.81445 273.342919 
L 172.411686 273.337923 
L 174.359614 273.355402 
L 187.562238 273.326202 
L 188.860857 273.323234 
L 193.838886 273.30818 
L 194.488195 273.326603 
L 221.542754 273.310773 
L 221.759177 273.386057 
L 222.408486 273.272978 
L 222.624929 273.442439 
L 222.841372 273.337485 
L 223.057795 273.374342 
L 223.490681 273.302713 
L 223.707105 273.454572 
L 224.356414 273.168576 
L 224.572857 273.497827 
L 225.005723 273.380212 
L 225.438609 273.518079 
L 225.871475 273.23037 
L 226.087918 273.485974 
L 226.304341 273.348991 
L 226.520784 273.604757 
L 226.737227 273.231279 
L 226.95365 273.199362 
L 227.170093 273.364378 
L 227.819402 273.208765 
L 228.035845 273.317248 
L 228.252268 273.616109 
L 228.468711 273.359045 
L 229.11802 273.296174 
L 229.334463 273.486611 
L 229.550886 273.503053 
L 229.767329 273.093662 
L 229.983772 273.648874 
L 230.416638 273.222479 
L 230.633081 273.74198 
L 230.849505 273.125003 
L 231.065948 273.628247 
L 231.498814 273.0183 
L 231.715257 273.591104 
L 231.9317 273.207379 
L 232.148123 273.435696 
L 232.364566 273.050655 
L 232.581009 273.413313 
L 232.797432 272.982995 
L 233.013875 273.609777 
L 233.446741 273.140397 
L 233.663184 273.771164 
L 234.09605 273.131603 
L 234.745359 273.060718 
L 234.961802 273.312 
L 235.394668 273.473494 
L 235.611111 272.761794 
L 235.827534 273.389186 
L 239.723389 273.373904 
L 243.4028 273.423773 
L 249.895891 273.467504 
L 256.172559 273.479159 
L 260.068414 273.477458 
L 268.725855 273.434107 
L 270.240916 273.436784 
L 306.385782 273.566243 
L 310.065214 274.0346 
L 312.229564 274.502822 
L 313.095336 274.452149 
L 314.393954 274.044613 
L 315.692572 273.620268 
L 317.856923 273.264627 
L 320.237736 273.156034 
L 323.484281 272.871984 
L 328.895177 272.335335 
L 330.410219 272.414916 
L 333.223918 272.83271 
L 340.799164 273.167811 
L 345.344328 273.227437 
L 354.218232 273.184653 
L 369.152341 273.352822 
L 372.182463 273.369585 
L 378.675554 273.344446 
L 381.489214 273.196704 
L 385.385068 272.715293 
L 386.034377 272.727315 
L 387.982305 272.612976 
L 390.795964 272.434392 
L 394.258972 272.167105 
L 395.990437 271.862753 
L 397.072632 271.795467 
L 397.938364 271.764833 
L 398.37125 271.737546 
L 398.37125 271.737546 
" clip-path="url(#p5c567526ea)" style="fill: none; stroke: #ca1a50; stroke-linecap: round"/>
   </g>
   <g id="line2d_28">
    <path d="M 41.467683 206.741446 
L 42.549868 208.661901 
L 43.41561 209.790209 
L 44.497795 210.603011 
L 45.363538 211.031055 
L 46.662156 211.2698 
L 47.527908 211.185907 
L 48.177217 211.081026 
L 49.259392 210.636976 
L 53.588123 208.260727 
L 55.752483 206.477432 
L 59.215471 202.442905 
L 60.946956 199.958026 
L 64.626377 195.061585 
L 65.924995 192.18732 
L 67.223614 188.34192 
L 68.522232 183.597411 
L 70.253726 176.078607 
L 72.634529 163.74045 
L 75.231766 149.872471 
L 79.560486 127.678655 
L 85.187835 97.312585 
L 91.464493 66.191867 
L 92.763111 61.066205 
L 94.061729 56.909091 
L 95.143905 54.108813 
L 96.442523 51.51697 
L 97.524708 49.864705 
L 98.606893 48.757586 
L 99.256202 48.365403 
L 100.121944 48.190566 
L 100.55482 48.250393 
L 101.204129 48.566686 
L 101.853438 49.13881 
L 102.502748 49.978086 
L 103.152057 51.119567 
L 104.234232 53.69242 
L 105.099984 56.311631 
L 106.182159 60.436806 
L 107.480777 66.60555 
L 108.562962 72.719557 
L 109.645148 79.727201 
L 111.160189 90.781305 
L 113.324559 108.667293 
L 116.571105 138.408347 
L 119.601207 168.451643 
L 125.661432 230.931527 
L 126.96005 241.542312 
L 128.042245 248.938182 
L 129.12442 254.902485 
L 130.206595 259.489592 
L 131.072348 262.331051 
L 131.9381 264.493263 
L 132.803832 266.149414 
L 133.886027 267.656605 
L 134.968202 268.742944 
L 136.483263 269.782268 
L 138.647614 270.722801 
L 140.379118 271.257837 
L 141.461293 271.519661 
L 143.192777 271.866099 
L 146.006457 272.240265 
L 155.962536 272.619211 
L 182.151323 272.651878 
L 182.800632 272.665949 
L 184.532136 272.672048 
L 191.674536 272.648419 
L 196.436123 272.683893 
L 197.085432 272.701109 
L 200.115554 272.725212 
L 201.630595 272.764777 
L 202.279905 272.746344 
L 206.608645 272.856425 
L 207.257954 272.864783 
L 208.989438 272.883938 
L 209.85519 272.890823 
L 210.288057 272.918088 
L 210.937366 272.873663 
L 211.803118 272.949814 
L 213.318159 272.953453 
L 214.400354 272.977737 
L 215.049663 272.926963 
L 215.915395 272.933318 
L 216.348281 272.959824 
L 218.512632 272.992907 
L 221.326311 272.978943 
L 221.759177 273.084764 
L 221.97562 273.108735 
L 222.192063 272.975513 
L 222.408486 272.982304 
L 222.624929 273.174119 
L 222.841372 272.991174 
L 223.274238 273.042726 
L 223.490681 273.001016 
L 223.707105 273.206778 
L 224.13999 272.998516 
L 224.356414 272.903171 
L 224.572857 273.210319 
L 224.7893 273.218562 
L 225.005723 273.035587 
L 225.438609 273.300433 
L 225.655032 273.051289 
L 226.304341 273.218186 
L 226.95365 273.065162 
L 227.386536 272.939948 
L 227.602959 272.797532 
L 228.252268 273.115887 
L 228.468711 273.18639 
L 228.685154 272.990916 
L 228.901577 273.237095 
L 229.11802 273.091052 
L 229.550886 273.318174 
L 229.767329 272.875845 
L 229.983772 273.184954 
L 230.200195 273.193017 
L 230.416638 273.034626 
L 230.633081 273.43781 
L 230.849505 272.929685 
L 231.498814 273.104016 
L 231.715257 273.605481 
L 231.9317 273.058489 
L 232.148123 273.05132 
L 232.364566 272.914147 
L 232.581009 272.941023 
L 232.797432 273.394205 
L 233.013875 272.990162 
L 233.230318 273.291332 
L 233.446741 272.710425 
L 233.663184 273.220649 
L 233.879627 272.901838 
L 234.09605 273.163798 
L 234.312493 273.034588 
L 235.178245 273.426776 
L 235.394668 272.767352 
L 235.611111 272.840354 
L 235.827534 273.188804 
L 239.07408 273.20491 
L 241.022007 273.221802 
L 243.186377 273.227926 
L 258.553352 273.273336 
L 267.64368 273.241531 
L 268.942298 273.267942 
L 271.539534 273.266933 
L 281.27919 273.275252 
L 287.339395 273.261714 
L 291.23525 273.24259 
L 297.944764 273.229706 
L 302.273505 273.238511 
L 303.788546 273.235114 
L 308.33371 273.359783 
L 310.281637 273.668685 
L 311.147409 273.863526 
L 313.311759 274.064685 
L 315.908995 273.441588 
L 317.207614 273.276305 
L 320.021273 273.093349 
L 323.051395 272.94485 
L 324.566437 272.844392 
L 325.865055 272.703698 
L 327.163673 272.749158 
L 329.977372 273.072964 
L 333.873227 273.220348 
L 335.604691 273.245467 
L 338.201928 273.280214 
L 345.56079 273.319352 
L 378.026245 273.343006 
L 385.168645 272.955476 
L 386.2508 272.946452 
L 388.848037 272.815786 
L 391.878159 272.8039 
L 392.960354 272.700844 
L 394.258972 272.67828 
L 395.124705 272.627777 
L 397.505518 272.490687 
L 398.37125 272.334298 
L 398.37125 272.334298 
" clip-path="url(#p5c567526ea)" style="fill: none; stroke: #951c5b; stroke-linecap: round"/>
   </g>
   <g id="line2d_29">
    <path d="M 41.467683 204.261586 
L 42.116992 205.389707 
L 43.199177 206.699954 
L 44.281362 207.303787 
L 46.012847 207.462165 
L 47.095032 207.29851 
L 47.960774 207.058172 
L 48.826526 206.668974 
L 50.774453 205.583434 
L 53.155247 204.31266 
L 54.886741 203.162246 
L 56.834668 201.395966 
L 58.566162 199.314914 
L 59.864781 197.436514 
L 62.029141 194.54605 
L 63.111326 193.231267 
L 64.193501 191.583682 
L 65.059253 189.857163 
L 65.924995 187.717071 
L 67.223614 183.624159 
L 68.522232 178.572462 
L 70.253726 170.503921 
L 71.98522 160.96178 
L 82.374166 102.202746 
L 83.889217 93.622448 
L 87.352195 74.937775 
L 91.031617 55.565952 
L 92.546668 48.943382 
L 93.628853 44.989641 
L 94.927471 41.174861 
L 96.009657 38.624157 
L 97.091832 36.594576 
L 97.957584 35.318128 
L 99.039759 34.251614 
L 99.689068 33.902401 
L 100.55482 33.83088 
L 100.987686 33.958378 
L 101.636995 34.398074 
L 102.286305 35.165612 
L 102.935614 36.156452 
L 103.801366 37.993994 
L 104.667108 40.387813 
L 105.749293 44.230942 
L 106.831468 49.01946 
L 108.130086 56.038654 
L 109.428705 64.428384 
L 111.160189 77.487051 
L 113.541002 98.323266 
L 117.003971 132.202257 
L 119.81765 162.072057 
L 125.661432 226.296844 
L 126.96005 237.781195 
L 128.258668 247.289839 
L 129.12442 252.404034 
L 129.990172 256.588648 
L 130.855905 259.965883 
L 131.9381 263.126392 
L 133.020275 265.38045 
L 134.10245 266.992833 
L 135.184645 268.127347 
L 136.26682 268.976951 
L 137.565438 269.680158 
L 139.296923 270.323919 
L 141.677736 270.972827 
L 146.2229 271.686711 
L 151.200929 271.997862 
L 155.962536 272.139264 
L 167.00079 272.310643 
L 170.030893 272.369291 
L 171.329511 272.391076 
L 172.628129 272.40654 
L 173.926748 272.424598 
L 176.95685 272.456423 
L 178.688354 272.456764 
L 184.315693 272.503763 
L 186.26362 272.532032 
L 191.24165 272.550231 
L 192.107402 272.583135 
L 193.40602 272.567974 
L 196.2197 272.594756 
L 197.085432 272.592461 
L 198.38405 272.59811 
L 200.331977 272.671733 
L 200.981286 272.639532 
L 212.235984 272.687471 
L 213.318159 272.69658 
L 214.616777 272.725647 
L 215.049663 272.680062 
L 219.594827 272.785436 
L 219.81125 272.698123 
L 220.244136 272.812118 
L 220.460559 272.699232 
L 220.677002 272.774755 
L 220.893445 272.665578 
L 221.326311 272.79504 
L 221.97562 272.747742 
L 222.192063 272.651248 
L 222.624929 272.845159 
L 222.841372 272.78699 
L 223.274238 272.840385 
L 224.356414 272.627469 
L 224.572857 272.846701 
L 225.438609 273.13536 
L 225.871475 272.842429 
L 226.087918 272.967119 
L 226.304341 272.900273 
L 226.520784 273.124144 
L 226.737227 272.905773 
L 227.170093 272.823443 
L 227.386536 272.952284 
L 227.819402 272.792717 
L 228.252268 272.946641 
L 228.685154 272.745431 
L 228.901577 272.868632 
L 229.11802 272.562058 
L 229.334463 272.799017 
L 229.767329 272.553505 
L 229.983772 272.879272 
L 230.200195 272.790861 
L 230.633081 272.854311 
L 230.849505 272.778065 
L 231.065948 273.103031 
L 231.28239 272.851179 
L 231.498814 272.951285 
L 231.9317 272.646087 
L 232.148123 273.270322 
L 232.364566 272.523489 
L 233.013875 273.009727 
L 233.446741 272.516857 
L 233.663184 272.877631 
L 233.879627 273.019719 
L 234.09605 272.726226 
L 234.312493 272.916862 
L 234.528936 272.566851 
L 234.961802 272.963267 
L 235.178245 272.869909 
L 235.394668 273.149643 
L 235.611111 272.593306 
L 235.827534 272.934506 
L 238.424771 272.963425 
L 243.186377 273.029 
L 282.794232 273.09033 
L 284.958582 273.100873 
L 288.854437 273.110015 
L 306.385782 273.227324 
L 308.766595 273.465816 
L 311.147409 274.266328 
L 312.446027 274.70003 
L 313.095336 274.739328 
L 313.528182 274.603303 
L 316.125419 273.39224 
L 318.073346 272.918189 
L 324.566437 272.108711 
L 326.297941 271.765958 
L 326.94725 271.837804 
L 330.193795 272.635675 
L 333.656764 272.884309 
L 345.344328 273.104863 
L 362.226364 273.120185 
L 367.853723 273.133453 
L 380.623481 272.912412 
L 385.168645 272.32194 
L 386.90011 272.158557 
L 387.765881 271.959009 
L 391.878159 271.928613 
L 395.55759 271.609161 
L 397.072632 271.55185 
L 398.37125 271.227908 
L 398.37125 271.227908 
" clip-path="url(#p5c567526ea)" style="fill: none; stroke: #601f52; stroke-linecap: round"/>
   </g>
   <g id="line2d_30">
    <path d="M 41.467683 215.416226 
L 42.333435 216.699772 
L 42.982744 217.322718 
L 43.41561 217.628424 
L 44.714229 217.989918 
L 46.445723 217.922337 
L 48.39365 217.386485 
L 51.207319 215.86878 
L 52.289505 215.202694 
L 53.155247 214.698694 
L 55.53605 212.739773 
L 57.70041 210.39051 
L 59.648338 207.61998 
L 62.462017 203.689829 
L 63.760635 201.704775 
L 64.84281 199.54624 
L 65.924995 196.854491 
L 67.440047 192.069412 
L 69.171541 185.419956 
L 70.903035 177.494673 
L 72.418086 169.77998 
L 74.582457 158.513325 
L 76.313941 150.19283 
L 78.911177 137.836295 
L 83.889217 113.470822 
L 88.217948 95.404373 
L 90.815184 85.358975 
L 92.113802 81.332069 
L 92.979544 79.193678 
L 94.061729 77.158372 
L 95.143905 75.745818 
L 96.22609 74.844048 
L 96.875399 74.4618 
L 97.741141 74.205045 
L 98.606893 74.170626 
L 99.256202 74.330755 
L 99.905511 74.697314 
L 100.771253 75.478955 
L 101.420562 76.33415 
L 102.502748 78.268144 
L 103.36849 80.359571 
L 104.234232 82.809987 
L 105.316417 86.57737 
L 106.398602 91.048744 
L 107.69722 97.364827 
L 108.995838 104.680329 
L 110.943766 117.375738 
L 112.67525 129.974782 
L 115.705352 153.992354 
L 120.899825 198.769667 
L 123.713505 223.59768 
L 125.445009 237.347624 
L 126.96005 247.500617 
L 128.042245 253.506645 
L 129.12442 258.355261 
L 129.990172 261.447972 
L 131.072348 264.439922 
L 131.9381 266.265988 
L 133.020275 267.954826 
L 133.886027 268.940529 
L 134.968202 269.905271 
L 138.214748 271.417811 
L 140.811984 272.025145 
L 142.543468 272.318805 
L 144.274972 272.538593 
L 152.71599 272.992442 
L 161.373432 272.998742 
L 164.403554 273.032014 
L 169.81445 273.138616 
L 179.554086 273.163961 
L 181.502014 273.151524 
L 206.392202 273.162945 
L 206.825068 273.106514 
L 207.474377 273.163904 
L 209.205881 273.128334 
L 210.288057 273.164287 
L 210.937366 273.098281 
L 211.370232 273.103357 
L 215.049663 273.126841 
L 215.482529 273.101619 
L 215.915395 273.159345 
L 216.131838 273.063003 
L 216.781148 273.162418 
L 218.729075 273.133635 
L 219.161941 273.117494 
L 220.027693 273.140222 
L 221.109868 273.138014 
L 221.326311 273.244383 
L 222.192063 273.12469 
L 222.408486 273.224115 
L 222.841372 273.194252 
L 223.274238 273.246275 
L 223.490681 273.162631 
L 223.707105 273.271832 
L 223.923548 273.123096 
L 224.356414 273.154873 
L 224.572857 273.402264 
L 225.222166 273.33751 
L 225.438609 273.552074 
L 225.871475 273.268468 
L 226.087918 273.459612 
L 226.304341 273.28706 
L 226.520784 273.619981 
L 226.737227 273.253807 
L 227.170093 273.135793 
L 227.386536 273.340314 
L 228.035845 273.135373 
L 228.685154 273.405305 
L 229.334463 273.331487 
L 229.550886 273.442789 
L 229.767329 273.030124 
L 229.983772 273.292598 
L 230.200195 273.338474 
L 230.416638 273.207198 
L 230.633081 273.425625 
L 230.849505 273.254866 
L 231.065948 273.412988 
L 231.28239 273.431743 
L 231.498814 273.202998 
L 231.715257 273.332401 
L 231.9317 273.056908 
L 232.148123 273.283678 
L 232.364566 272.755404 
L 232.581009 273.259797 
L 232.797432 273.246852 
L 233.013875 273.048922 
L 233.230318 273.212426 
L 233.446741 272.707534 
L 233.663184 273.500302 
L 233.879627 273.263944 
L 234.09605 273.276017 
L 234.312493 272.965416 
L 234.745359 273.03629 
L 234.961802 273.39692 
L 235.178245 273.27222 
L 235.611111 272.58456 
L 235.827534 273.255693 
L 237.559019 273.272408 
L 253.142437 273.383254 
L 288.42159 273.387534 
L 295.131105 273.399423 
L 296.862609 273.400575 
L 301.19131 273.406569 
L 304.870741 273.394643 
L 306.169359 273.474807 
L 307.467977 273.613312 
L 308.550172 273.768832 
L 310.281637 274.475055 
L 310.930946 274.872907 
L 312.66245 275.801667 
L 313.095336 275.854921 
L 313.528182 275.714813 
L 313.961068 275.467526 
L 315.47611 274.266514 
L 316.99119 273.660309 
L 319.371964 273.013207 
L 324.999323 272.050646 
L 325.865055 271.857648 
L 326.730827 271.931081 
L 329.977372 272.856211 
L 333.873227 273.119614 
L 335.821154 273.186309 
L 341.015627 273.255329 
L 349.889491 273.278522 
L 367.853723 273.310935 
L 371.749577 273.270999 
L 373.697505 273.28976 
L 375.861855 273.268261 
L 376.94405 273.260191 
L 378.675554 273.168971 
L 380.190595 273.091887 
L 381.27279 272.85889 
L 382.354946 272.556426 
L 383.653564 272.426985 
L 384.519336 272.383678 
L 388.631614 271.986454 
L 390.363118 272.132506 
L 394.691819 271.812048 
L 397.289055 271.657362 
L 398.37125 271.34992 
L 398.37125 271.34992 
" clip-path="url(#p5c567526ea)" style="fill: none; stroke: #2e1739; stroke-linecap: round"/>
   </g>
   <g id="line2d_31"/>
   <g id="line2d_32"/>
   <g id="line2d_33"/>
   <g id="line2d_34"/>
   <g id="line2d_35"/>
   <g id="line2d_36"/>
   <g id="line2d_37"/>
   <g id="patch_3">
    <path d="M 41.25125 273.312 
L 41.25125 7.2 
" style="fill: none; stroke: #262626; stroke-width: 1.25; stroke-linejoin: miter; stroke-linecap: square"/>
   </g>
   <g id="patch_4">
    <path d="M 41.25125 273.312 
L 398.37125 273.312 
" style="fill: none; stroke: #262626; stroke-width: 1.25; stroke-linejoin: miter; stroke-linecap: square"/>
   </g>
   <g id="legend_1">
    <g id="line2d_38">
     <path d="M 242.855188 41.479012 
L 248.855188 41.479012 
L 254.855188 41.479012 
" style="fill: none; stroke: #f6bb97; stroke-width: 1.5; stroke-linecap: round"/>
    </g>
    <g id="text_15">
     <!-- non-imine polymer 0.0% TFA_Abs -->
     <g style="fill: #262626" transform="translate(259.655188 43.579012) scale(0.06 -0.06)">
      <defs>
       <path id="ArialMT-2d" d="M 203 1375 
L 203 1941 
L 1931 1941 
L 1931 1375 
L 203 1375 
z
" transform="scale(0.015625)"/>
       <path id="ArialMT-69" d="M 425 3934 
L 425 4581 
L 988 4581 
L 988 3934 
L 425 3934 
z
M 425 0 
L 425 3319 
L 988 3319 
L 988 0 
L 425 0 
z
" transform="scale(0.015625)"/>
       <path id="ArialMT-70" d="M 422 -1272 
L 422 3319 
L 934 3319 
L 934 2888 
Q 1116 3141 1344 3267 
Q 1572 3394 1897 3394 
Q 2322 3394 2647 3175 
Q 2972 2956 3137 2557 
Q 3303 2159 3303 1684 
Q 3303 1175 3120 767 
Q 2938 359 2589 142 
Q 2241 -75 1856 -75 
Q 1575 -75 1351 44 
Q 1128 163 984 344 
L 984 -1272 
L 422 -1272 
z
M 931 1641 
Q 931 1000 1190 694 
Q 1450 388 1819 388 
Q 2194 388 2461 705 
Q 2728 1022 2728 1688 
Q 2728 2322 2467 2637 
Q 2206 2953 1844 2953 
Q 1484 2953 1207 2617 
Q 931 2281 931 1641 
z
" transform="scale(0.015625)"/>
       <path id="ArialMT-79" d="M 397 -1278 
L 334 -750 
Q 519 -800 656 -800 
Q 844 -800 956 -737 
Q 1069 -675 1141 -563 
Q 1194 -478 1313 -144 
Q 1328 -97 1363 -6 
L 103 3319 
L 709 3319 
L 1400 1397 
Q 1534 1031 1641 628 
Q 1738 1016 1872 1384 
L 2581 3319 
L 3144 3319 
L 1881 -56 
Q 1678 -603 1566 -809 
Q 1416 -1088 1222 -1217 
Q 1028 -1347 759 -1347 
Q 597 -1347 397 -1278 
z
" transform="scale(0.015625)"/>
       <path id="ArialMT-25" d="M 372 3481 
Q 372 3972 619 4315 
Q 866 4659 1334 4659 
Q 1766 4659 2048 4351 
Q 2331 4044 2331 3447 
Q 2331 2866 2045 2552 
Q 1759 2238 1341 2238 
Q 925 2238 648 2547 
Q 372 2856 372 3481 
z
M 1350 4272 
Q 1141 4272 1002 4090 
Q 863 3909 863 3425 
Q 863 2984 1003 2804 
Q 1144 2625 1350 2625 
Q 1563 2625 1702 2806 
Q 1841 2988 1841 3469 
Q 1841 3913 1700 4092 
Q 1559 4272 1350 4272 
z
M 1353 -169 
L 3859 4659 
L 4316 4659 
L 1819 -169 
L 1353 -169 
z
M 3334 1075 
Q 3334 1569 3581 1911 
Q 3828 2253 4300 2253 
Q 4731 2253 5014 1945 
Q 5297 1638 5297 1041 
Q 5297 459 5011 145 
Q 4725 -169 4303 -169 
Q 3888 -169 3611 142 
Q 3334 453 3334 1075 
z
M 4316 1866 
Q 4103 1866 3964 1684 
Q 3825 1503 3825 1019 
Q 3825 581 3965 400 
Q 4106 219 4313 219 
Q 4528 219 4667 400 
Q 4806 581 4806 1063 
Q 4806 1506 4665 1686 
Q 4525 1866 4316 1866 
z
" transform="scale(0.015625)"/>
       <path id="ArialMT-54" d="M 1659 0 
L 1659 4041 
L 150 4041 
L 150 4581 
L 3781 4581 
L 3781 4041 
L 2266 4041 
L 2266 0 
L 1659 0 
z
" transform="scale(0.015625)"/>
       <path id="ArialMT-46" d="M 525 0 
L 525 4581 
L 3616 4581 
L 3616 4041 
L 1131 4041 
L 1131 2622 
L 3281 2622 
L 3281 2081 
L 1131 2081 
L 1131 0 
L 525 0 
z
" transform="scale(0.015625)"/>
       <path id="ArialMT-5f" d="M -97 -1272 
L -97 -866 
L 3631 -866 
L 3631 -1272 
L -97 -1272 
z
" transform="scale(0.015625)"/>
      </defs>
      <use xlink:href="#ArialMT-6e"/>
      <use xlink:href="#ArialMT-6f" x="55.615234"/>
      <use xlink:href="#ArialMT-6e" x="111.230469"/>
      <use xlink:href="#ArialMT-2d" x="166.845703"/>
      <use xlink:href="#ArialMT-69" x="200.146484"/>
      <use xlink:href="#ArialMT-6d" x="222.363281"/>
      <use xlink:href="#ArialMT-69" x="305.664062"/>
      <use xlink:href="#ArialMT-6e" x="327.880859"/>
      <use xlink:href="#ArialMT-65" x="383.496094"/>
      <use xlink:href="#ArialMT-20" x="439.111328"/>
      <use xlink:href="#ArialMT-70" x="466.894531"/>
      <use xlink:href="#ArialMT-6f" x="522.509766"/>
      <use xlink:href="#ArialMT-6c" x="578.125"/>
      <use xlink:href="#ArialMT-79" x="600.341797"/>
      <use xlink:href="#ArialMT-6d" x="650.341797"/>
      <use xlink:href="#ArialMT-65" x="733.642578"/>
      <use xlink:href="#ArialMT-72" x="789.257812"/>
      <use xlink:href="#ArialMT-20" x="822.558594"/>
      <use xlink:href="#ArialMT-30" x="850.341797"/>
      <use xlink:href="#ArialMT-2e" x="905.957031"/>
      <use xlink:href="#ArialMT-30" x="933.740234"/>
      <use xlink:href="#ArialMT-25" x="989.355469"/>
      <use xlink:href="#ArialMT-20" x="1078.271484"/>
      <use xlink:href="#ArialMT-54" x="1104.304688"/>
      <use xlink:href="#ArialMT-46" x="1165.388672"/>
      <use xlink:href="#ArialMT-41" x="1220.972656"/>
      <use xlink:href="#ArialMT-5f" x="1287.671875"/>
      <use xlink:href="#ArialMT-41" x="1343.287109"/>
      <use xlink:href="#ArialMT-62" x="1409.986328"/>
      <use xlink:href="#ArialMT-73" x="1465.601562"/>
     </g>
    </g>
    <g id="line2d_39">
     <path d="M 242.855188 50.109637 
L 248.855188 50.109637 
L 254.855188 50.109637 
" style="fill: none; stroke: #f4865e; stroke-width: 1.5; stroke-linecap: round"/>
    </g>
    <g id="text_16">
     <!-- non-imine polymer 0.017% TFA_Abs -->
     <g style="fill: #262626" transform="translate(259.655188 52.209637) scale(0.06 -0.06)">
      <defs>
       <path id="ArialMT-37" d="M 303 3981 
L 303 4522 
L 3269 4522 
L 3269 4084 
Q 2831 3619 2401 2847 
Q 1972 2075 1738 1259 
Q 1569 684 1522 0 
L 944 0 
Q 953 541 1156 1306 
Q 1359 2072 1739 2783 
Q 2119 3494 2547 3981 
L 303 3981 
z
" transform="scale(0.015625)"/>
      </defs>
      <use xlink:href="#ArialMT-6e"/>
      <use xlink:href="#ArialMT-6f" x="55.615234"/>
      <use xlink:href="#ArialMT-6e" x="111.230469"/>
      <use xlink:href="#ArialMT-2d" x="166.845703"/>
      <use xlink:href="#ArialMT-69" x="200.146484"/>
      <use xlink:href="#ArialMT-6d" x="222.363281"/>
      <use xlink:href="#ArialMT-69" x="305.664062"/>
      <use xlink:href="#ArialMT-6e" x="327.880859"/>
      <use xlink:href="#ArialMT-65" x="383.496094"/>
      <use xlink:href="#ArialMT-20" x="439.111328"/>
      <use xlink:href="#ArialMT-70" x="466.894531"/>
      <use xlink:href="#ArialMT-6f" x="522.509766"/>
      <use xlink:href="#ArialMT-6c" x="578.125"/>
      <use xlink:href="#ArialMT-79" x="600.341797"/>
      <use xlink:href="#ArialMT-6d" x="650.341797"/>
      <use xlink:href="#ArialMT-65" x="733.642578"/>
      <use xlink:href="#ArialMT-72" x="789.257812"/>
      <use xlink:href="#ArialMT-20" x="822.558594"/>
      <use xlink:href="#ArialMT-30" x="850.341797"/>
      <use xlink:href="#ArialMT-2e" x="905.957031"/>
      <use xlink:href="#ArialMT-30" x="933.740234"/>
      <use xlink:href="#ArialMT-31" x="989.355469"/>
      <use xlink:href="#ArialMT-37" x="1044.970703"/>
      <use xlink:href="#ArialMT-25" x="1100.585938"/>
      <use xlink:href="#ArialMT-20" x="1189.501953"/>
      <use xlink:href="#ArialMT-54" x="1215.535156"/>
      <use xlink:href="#ArialMT-46" x="1276.619141"/>
      <use xlink:href="#ArialMT-41" x="1332.203125"/>
      <use xlink:href="#ArialMT-5f" x="1398.902344"/>
      <use xlink:href="#ArialMT-41" x="1454.517578"/>
      <use xlink:href="#ArialMT-62" x="1521.216797"/>
      <use xlink:href="#ArialMT-73" x="1576.832031"/>
     </g>
    </g>
    <g id="line2d_40">
     <path d="M 242.855188 58.740262 
L 248.855188 58.740262 
L 254.855188 58.740262 
" style="fill: none; stroke: #ec4a3e; stroke-width: 1.5; stroke-linecap: round"/>
    </g>
    <g id="text_17">
     <!-- non-imine polymer 0.05% TFA_Abs -->
     <g style="fill: #262626" transform="translate(259.655188 60.840262) scale(0.06 -0.06)">
      <defs>
       <path id="ArialMT-35" d="M 266 1200 
L 856 1250 
Q 922 819 1161 601 
Q 1400 384 1738 384 
Q 2144 384 2425 690 
Q 2706 997 2706 1503 
Q 2706 1984 2436 2262 
Q 2166 2541 1728 2541 
Q 1456 2541 1237 2417 
Q 1019 2294 894 2097 
L 366 2166 
L 809 4519 
L 3088 4519 
L 3088 3981 
L 1259 3981 
L 1013 2750 
Q 1425 3038 1878 3038 
Q 2478 3038 2890 2622 
Q 3303 2206 3303 1553 
Q 3303 931 2941 478 
Q 2500 -78 1738 -78 
Q 1113 -78 717 272 
Q 322 622 266 1200 
z
" transform="scale(0.015625)"/>
      </defs>
      <use xlink:href="#ArialMT-6e"/>
      <use xlink:href="#ArialMT-6f" x="55.615234"/>
      <use xlink:href="#ArialMT-6e" x="111.230469"/>
      <use xlink:href="#ArialMT-2d" x="166.845703"/>
      <use xlink:href="#ArialMT-69" x="200.146484"/>
      <use xlink:href="#ArialMT-6d" x="222.363281"/>
      <use xlink:href="#ArialMT-69" x="305.664062"/>
      <use xlink:href="#ArialMT-6e" x="327.880859"/>
      <use xlink:href="#ArialMT-65" x="383.496094"/>
      <use xlink:href="#ArialMT-20" x="439.111328"/>
      <use xlink:href="#ArialMT-70" x="466.894531"/>
      <use xlink:href="#ArialMT-6f" x="522.509766"/>
      <use xlink:href="#ArialMT-6c" x="578.125"/>
      <use xlink:href="#ArialMT-79" x="600.341797"/>
      <use xlink:href="#ArialMT-6d" x="650.341797"/>
      <use xlink:href="#ArialMT-65" x="733.642578"/>
      <use xlink:href="#ArialMT-72" x="789.257812"/>
      <use xlink:href="#ArialMT-20" x="822.558594"/>
      <use xlink:href="#ArialMT-30" x="850.341797"/>
      <use xlink:href="#ArialMT-2e" x="905.957031"/>
      <use xlink:href="#ArialMT-30" x="933.740234"/>
      <use xlink:href="#ArialMT-35" x="989.355469"/>
      <use xlink:href="#ArialMT-25" x="1044.970703"/>
      <use xlink:href="#ArialMT-20" x="1133.886719"/>
      <use xlink:href="#ArialMT-54" x="1159.919922"/>
      <use xlink:href="#ArialMT-46" x="1221.003906"/>
      <use xlink:href="#ArialMT-41" x="1276.587891"/>
      <use xlink:href="#ArialMT-5f" x="1343.287109"/>
      <use xlink:href="#ArialMT-41" x="1398.902344"/>
      <use xlink:href="#ArialMT-62" x="1465.601562"/>
      <use xlink:href="#ArialMT-73" x="1521.216797"/>
     </g>
    </g>
    <g id="line2d_41">
     <path d="M 242.855188 67.370887 
L 248.855188 67.370887 
L 254.855188 67.370887 
" style="fill: none; stroke: #ca1a50; stroke-width: 1.5; stroke-linecap: round"/>
    </g>
    <g id="text_18">
     <!-- non-imine polymer 0.1% TFA_Abs -->
     <g style="fill: #262626" transform="translate(259.655188 69.470887) scale(0.06 -0.06)">
      <use xlink:href="#ArialMT-6e"/>
      <use xlink:href="#ArialMT-6f" x="55.615234"/>
      <use xlink:href="#ArialMT-6e" x="111.230469"/>
      <use xlink:href="#ArialMT-2d" x="166.845703"/>
      <use xlink:href="#ArialMT-69" x="200.146484"/>
      <use xlink:href="#ArialMT-6d" x="222.363281"/>
      <use xlink:href="#ArialMT-69" x="305.664062"/>
      <use xlink:href="#ArialMT-6e" x="327.880859"/>
      <use xlink:href="#ArialMT-65" x="383.496094"/>
      <use xlink:href="#ArialMT-20" x="439.111328"/>
      <use xlink:href="#ArialMT-70" x="466.894531"/>
      <use xlink:href="#ArialMT-6f" x="522.509766"/>
      <use xlink:href="#ArialMT-6c" x="578.125"/>
      <use xlink:href="#ArialMT-79" x="600.341797"/>
      <use xlink:href="#ArialMT-6d" x="650.341797"/>
      <use xlink:href="#ArialMT-65" x="733.642578"/>
      <use xlink:href="#ArialMT-72" x="789.257812"/>
      <use xlink:href="#ArialMT-20" x="822.558594"/>
      <use xlink:href="#ArialMT-30" x="850.341797"/>
      <use xlink:href="#ArialMT-2e" x="905.957031"/>
      <use xlink:href="#ArialMT-31" x="933.740234"/>
      <use xlink:href="#ArialMT-25" x="989.355469"/>
      <use xlink:href="#ArialMT-20" x="1078.271484"/>
      <use xlink:href="#ArialMT-54" x="1104.304688"/>
      <use xlink:href="#ArialMT-46" x="1165.388672"/>
      <use xlink:href="#ArialMT-41" x="1220.972656"/>
      <use xlink:href="#ArialMT-5f" x="1287.671875"/>
      <use xlink:href="#ArialMT-41" x="1343.287109"/>
      <use xlink:href="#ArialMT-62" x="1409.986328"/>
      <use xlink:href="#ArialMT-73" x="1465.601562"/>
     </g>
    </g>
    <g id="line2d_42">
     <path d="M 242.855188 76.001512 
L 248.855188 76.001512 
L 254.855188 76.001512 
" style="fill: none; stroke: #951c5b; stroke-width: 1.5; stroke-linecap: round"/>
    </g>
    <g id="text_19">
     <!-- non-imine polymer 0.25% TFA_Abs -->
     <g style="fill: #262626" transform="translate(259.655188 78.101512) scale(0.06 -0.06)">
      <use xlink:href="#ArialMT-6e"/>
      <use xlink:href="#ArialMT-6f" x="55.615234"/>
      <use xlink:href="#ArialMT-6e" x="111.230469"/>
      <use xlink:href="#ArialMT-2d" x="166.845703"/>
      <use xlink:href="#ArialMT-69" x="200.146484"/>
      <use xlink:href="#ArialMT-6d" x="222.363281"/>
      <use xlink:href="#ArialMT-69" x="305.664062"/>
      <use xlink:href="#ArialMT-6e" x="327.880859"/>
      <use xlink:href="#ArialMT-65" x="383.496094"/>
      <use xlink:href="#ArialMT-20" x="439.111328"/>
      <use xlink:href="#ArialMT-70" x="466.894531"/>
      <use xlink:href="#ArialMT-6f" x="522.509766"/>
      <use xlink:href="#ArialMT-6c" x="578.125"/>
      <use xlink:href="#ArialMT-79" x="600.341797"/>
      <use xlink:href="#ArialMT-6d" x="650.341797"/>
      <use xlink:href="#ArialMT-65" x="733.642578"/>
      <use xlink:href="#ArialMT-72" x="789.257812"/>
      <use xlink:href="#ArialMT-20" x="822.558594"/>
      <use xlink:href="#ArialMT-30" x="850.341797"/>
      <use xlink:href="#ArialMT-2e" x="905.957031"/>
      <use xlink:href="#ArialMT-32" x="933.740234"/>
      <use xlink:href="#ArialMT-35" x="989.355469"/>
      <use xlink:href="#ArialMT-25" x="1044.970703"/>
      <use xlink:href="#ArialMT-20" x="1133.886719"/>
      <use xlink:href="#ArialMT-54" x="1159.919922"/>
      <use xlink:href="#ArialMT-46" x="1221.003906"/>
      <use xlink:href="#ArialMT-41" x="1276.587891"/>
      <use xlink:href="#ArialMT-5f" x="1343.287109"/>
      <use xlink:href="#ArialMT-41" x="1398.902344"/>
      <use xlink:href="#ArialMT-62" x="1465.601562"/>
      <use xlink:href="#ArialMT-73" x="1521.216797"/>
     </g>
    </g>
    <g id="line2d_43">
     <path d="M 242.855188 84.632137 
L 248.855188 84.632137 
L 254.855188 84.632137 
" style="fill: none; stroke: #601f52; stroke-width: 1.5; stroke-linecap: round"/>
    </g>
    <g id="text_20">
     <!-- non-imine polymer 0.5% TFA_Abs -->
     <g style="fill: #262626" transform="translate(259.655188 86.732137) scale(0.06 -0.06)">
      <use xlink:href="#ArialMT-6e"/>
      <use xlink:href="#ArialMT-6f" x="55.615234"/>
      <use xlink:href="#ArialMT-6e" x="111.230469"/>
      <use xlink:href="#ArialMT-2d" x="166.845703"/>
      <use xlink:href="#ArialMT-69" x="200.146484"/>
      <use xlink:href="#ArialMT-6d" x="222.363281"/>
      <use xlink:href="#ArialMT-69" x="305.664062"/>
      <use xlink:href="#ArialMT-6e" x="327.880859"/>
      <use xlink:href="#ArialMT-65" x="383.496094"/>
      <use xlink:href="#ArialMT-20" x="439.111328"/>
      <use xlink:href="#ArialMT-70" x="466.894531"/>
      <use xlink:href="#ArialMT-6f" x="522.509766"/>
      <use xlink:href="#ArialMT-6c" x="578.125"/>
      <use xlink:href="#ArialMT-79" x="600.341797"/>
      <use xlink:href="#ArialMT-6d" x="650.341797"/>
      <use xlink:href="#ArialMT-65" x="733.642578"/>
      <use xlink:href="#ArialMT-72" x="789.257812"/>
      <use xlink:href="#ArialMT-20" x="822.558594"/>
      <use xlink:href="#ArialMT-30" x="850.341797"/>
      <use xlink:href="#ArialMT-2e" x="905.957031"/>
      <use xlink:href="#ArialMT-35" x="933.740234"/>
      <use xlink:href="#ArialMT-25" x="989.355469"/>
      <use xlink:href="#ArialMT-20" x="1078.271484"/>
      <use xlink:href="#ArialMT-54" x="1104.304688"/>
      <use xlink:href="#ArialMT-46" x="1165.388672"/>
      <use xlink:href="#ArialMT-41" x="1220.972656"/>
      <use xlink:href="#ArialMT-5f" x="1287.671875"/>
      <use xlink:href="#ArialMT-41" x="1343.287109"/>
      <use xlink:href="#ArialMT-62" x="1409.986328"/>
      <use xlink:href="#ArialMT-73" x="1465.601562"/>
     </g>
    </g>
    <g id="line2d_44">
     <path d="M 242.855188 93.262762 
L 248.855188 93.262762 
L 254.855188 93.262762 
" style="fill: none; stroke: #2e1739; stroke-width: 1.5; stroke-linecap: round"/>
    </g>
    <g id="text_21">
     <!-- non-imine polymer 1.0% TFA_Abs -->
     <g style="fill: #262626" transform="translate(259.655188 95.362762) scale(0.06 -0.06)">
      <use xlink:href="#ArialMT-6e"/>
      <use xlink:href="#ArialMT-6f" x="55.615234"/>
      <use xlink:href="#ArialMT-6e" x="111.230469"/>
      <use xlink:href="#ArialMT-2d" x="166.845703"/>
      <use xlink:href="#ArialMT-69" x="200.146484"/>
      <use xlink:href="#ArialMT-6d" x="222.363281"/>
      <use xlink:href="#ArialMT-69" x="305.664062"/>
      <use xlink:href="#ArialMT-6e" x="327.880859"/>
      <use xlink:href="#ArialMT-65" x="383.496094"/>
      <use xlink:href="#ArialMT-20" x="439.111328"/>
      <use xlink:href="#ArialMT-70" x="466.894531"/>
      <use xlink:href="#ArialMT-6f" x="522.509766"/>
      <use xlink:href="#ArialMT-6c" x="578.125"/>
      <use xlink:href="#ArialMT-79" x="600.341797"/>
      <use xlink:href="#ArialMT-6d" x="650.341797"/>
      <use xlink:href="#ArialMT-65" x="733.642578"/>
      <use xlink:href="#ArialMT-72" x="789.257812"/>
      <use xlink:href="#ArialMT-20" x="822.558594"/>
      <use xlink:href="#ArialMT-31" x="850.341797"/>
      <use xlink:href="#ArialMT-2e" x="905.957031"/>
      <use xlink:href="#ArialMT-30" x="933.740234"/>
      <use xlink:href="#ArialMT-25" x="989.355469"/>
      <use xlink:href="#ArialMT-20" x="1078.271484"/>
      <use xlink:href="#ArialMT-54" x="1104.304688"/>
      <use xlink:href="#ArialMT-46" x="1165.388672"/>
      <use xlink:href="#ArialMT-41" x="1220.972656"/>
      <use xlink:href="#ArialMT-5f" x="1287.671875"/>
      <use xlink:href="#ArialMT-41" x="1343.287109"/>
      <use xlink:href="#ArialMT-62" x="1409.986328"/>
      <use xlink:href="#ArialMT-73" x="1465.601562"/>
     </g>
    </g>
   </g>
  </g>
 </g>
 <defs>
  <clipPath id="p5c567526ea">
   <rect x="41.25125" y="7.2" width="357.12" height="266.112"/>
  </clipPath>
 </defs>
</svg>
