<?xml version="1.0" encoding="utf-8" standalone="no"?>
<!DOCTYPE svg PUBLIC "-//W3C//DTD SVG 1.1//EN"
  "http://www.w3.org/Graphics/SVG/1.1/DTD/svg11.dtd">
<svg xmlns:xlink="http://www.w3.org/1999/xlink" width="417.805313pt" height="313.269891pt" viewBox="0 0 417.805313 313.269891" xmlns="http://www.w3.org/2000/svg" version="1.1">
 <metadata>
  <rdf:RDF xmlns:dc="http://purl.org/dc/elements/1.1/" xmlns:cc="http://creativecommons.org/ns#" xmlns:rdf="http://www.w3.org/1999/02/22-rdf-syntax-ns#">
   <cc:Work>
    <dc:type rdf:resource="http://purl.org/dc/dcmitype/StillImage"/>
    <dc:date>2024-11-04T14:35:01.305419</dc:date>
    <dc:format>image/svg+xml</dc:format>
    <dc:creator>
     <cc:Agent>
      <dc:title>Matplotlib v3.7.1, https://matplotlib.org/</dc:title>
     </cc:Agent>
    </dc:creator>
   </cc:Work>
  </rdf:RDF>
 </metadata>
 <defs>
  <style type="text/css">*{stroke-linejoin: round; stroke-linecap: butt}</style>
 </defs>
 <g id="figure_1">
  <g id="patch_1">
   <path d="M 0 313.269891 
L 417.805313 313.269891 
L 417.805313 0 
L 0 0 
z
" style="fill: #ffffff"/>
  </g>
  <g id="axes_1">
   <g id="patch_2">
    <path d="M 41.25125 277.248797 
L 398.37125 277.248797 
L 398.37125 11.136797 
L 41.25125 11.136797 
z
" style="fill: #ffffff"/>
   </g>
   <g id="matplotlib.axis_1">
    <g id="xtick_1">
     <g id="line2d_1">
      <defs>
       <path id="m2d4ea47e28" d="M 0 0 
L 0 -6 
" style="stroke: #262626; stroke-width: 1.25"/>
      </defs>
      <g>
       <use xlink:href="#m2d4ea47e28" x="41.25125" y="277.248797" style="fill: #262626; stroke: #262626; stroke-width: 1.25"/>
      </g>
     </g>
     <g id="text_1">
      <!-- 300 -->
      <g style="fill: #262626" transform="translate(32.075703 288.622391) scale(0.11 -0.11)">
       <defs>
        <path id="ArialMT-33" d="M 269 1209 
L 831 1284 
Q 928 806 1161 595 
Q 1394 384 1728 384 
Q 2125 384 2398 659 
Q 2672 934 2672 1341 
Q 2672 1728 2419 1979 
Q 2166 2231 1775 2231 
Q 1616 2231 1378 2169 
L 1441 2663 
Q 1497 2656 1531 2656 
Q 1891 2656 2178 2843 
Q 2466 3031 2466 3422 
Q 2466 3731 2256 3934 
Q 2047 4138 1716 4138 
Q 1388 4138 1169 3931 
Q 950 3725 888 3313 
L 325 3413 
Q 428 3978 793 4289 
Q 1159 4600 1703 4600 
Q 2078 4600 2393 4439 
Q 2709 4278 2876 4000 
Q 3044 3722 3044 3409 
Q 3044 3113 2884 2869 
Q 2725 2625 2413 2481 
Q 2819 2388 3044 2092 
Q 3269 1797 3269 1353 
Q 3269 753 2831 336 
Q 2394 -81 1725 -81 
Q 1122 -81 723 278 
Q 325 638 269 1209 
z
" transform="scale(0.015625)"/>
        <path id="ArialMT-30" d="M 266 2259 
Q 266 3072 433 3567 
Q 600 4063 929 4331 
Q 1259 4600 1759 4600 
Q 2128 4600 2406 4451 
Q 2684 4303 2865 4023 
Q 3047 3744 3150 3342 
Q 3253 2941 3253 2259 
Q 3253 1453 3087 958 
Q 2922 463 2592 192 
Q 2263 -78 1759 -78 
Q 1097 -78 719 397 
Q 266 969 266 2259 
z
M 844 2259 
Q 844 1131 1108 757 
Q 1372 384 1759 384 
Q 2147 384 2411 759 
Q 2675 1134 2675 2259 
Q 2675 3391 2411 3762 
Q 2147 4134 1753 4134 
Q 1366 4134 1134 3806 
Q 844 3388 844 2259 
z
" transform="scale(0.015625)"/>
       </defs>
       <use xlink:href="#ArialMT-33"/>
       <use xlink:href="#ArialMT-30" x="55.615234"/>
       <use xlink:href="#ArialMT-30" x="111.230469"/>
      </g>
     </g>
    </g>
    <g id="xtick_2">
     <g id="line2d_2">
      <g>
       <use xlink:href="#m2d4ea47e28" x="92.268393" y="277.248797" style="fill: #262626; stroke: #262626; stroke-width: 1.25"/>
      </g>
     </g>
     <g id="text_2">
      <!-- 400 -->
      <g style="fill: #262626" transform="translate(83.092846 288.622391) scale(0.11 -0.11)">
       <defs>
        <path id="ArialMT-34" d="M 2069 0 
L 2069 1097 
L 81 1097 
L 81 1613 
L 2172 4581 
L 2631 4581 
L 2631 1613 
L 3250 1613 
L 3250 1097 
L 2631 1097 
L 2631 0 
L 2069 0 
z
M 2069 1613 
L 2069 3678 
L 634 1613 
L 2069 1613 
z
" transform="scale(0.015625)"/>
       </defs>
       <use xlink:href="#ArialMT-34"/>
       <use xlink:href="#ArialMT-30" x="55.615234"/>
       <use xlink:href="#ArialMT-30" x="111.230469"/>
      </g>
     </g>
    </g>
    <g id="xtick_3">
     <g id="line2d_3">
      <g>
       <use xlink:href="#m2d4ea47e28" x="143.285536" y="277.248797" style="fill: #262626; stroke: #262626; stroke-width: 1.25"/>
      </g>
     </g>
     <g id="text_3">
      <!-- 500 -->
      <g style="fill: #262626" transform="translate(134.109989 288.622391) scale(0.11 -0.11)">
       <defs>
        <path id="ArialMT-35" d="M 266 1200 
L 856 1250 
Q 922 819 1161 601 
Q 1400 384 1738 384 
Q 2144 384 2425 690 
Q 2706 997 2706 1503 
Q 2706 1984 2436 2262 
Q 2166 2541 1728 2541 
Q 1456 2541 1237 2417 
Q 1019 2294 894 2097 
L 366 2166 
L 809 4519 
L 3088 4519 
L 3088 3981 
L 1259 3981 
L 1013 2750 
Q 1425 3038 1878 3038 
Q 2478 3038 2890 2622 
Q 3303 2206 3303 1553 
Q 3303 931 2941 478 
Q 2500 -78 1738 -78 
Q 1113 -78 717 272 
Q 322 622 266 1200 
z
" transform="scale(0.015625)"/>
       </defs>
       <use xlink:href="#ArialMT-35"/>
       <use xlink:href="#ArialMT-30" x="55.615234"/>
       <use xlink:href="#ArialMT-30" x="111.230469"/>
      </g>
     </g>
    </g>
    <g id="xtick_4">
     <g id="line2d_4">
      <g>
       <use xlink:href="#m2d4ea47e28" x="194.302679" y="277.248797" style="fill: #262626; stroke: #262626; stroke-width: 1.25"/>
      </g>
     </g>
     <g id="text_4">
      <!-- 600 -->
      <g style="fill: #262626" transform="translate(185.127132 288.622391) scale(0.11 -0.11)">
       <defs>
        <path id="ArialMT-36" d="M 3184 3459 
L 2625 3416 
Q 2550 3747 2413 3897 
Q 2184 4138 1850 4138 
Q 1581 4138 1378 3988 
Q 1113 3794 959 3422 
Q 806 3050 800 2363 
Q 1003 2672 1297 2822 
Q 1591 2972 1913 2972 
Q 2475 2972 2870 2558 
Q 3266 2144 3266 1488 
Q 3266 1056 3080 686 
Q 2894 316 2569 119 
Q 2244 -78 1831 -78 
Q 1128 -78 684 439 
Q 241 956 241 2144 
Q 241 3472 731 4075 
Q 1159 4600 1884 4600 
Q 2425 4600 2770 4297 
Q 3116 3994 3184 3459 
z
M 888 1484 
Q 888 1194 1011 928 
Q 1134 663 1356 523 
Q 1578 384 1822 384 
Q 2178 384 2434 671 
Q 2691 959 2691 1453 
Q 2691 1928 2437 2201 
Q 2184 2475 1800 2475 
Q 1419 2475 1153 2201 
Q 888 1928 888 1484 
z
" transform="scale(0.015625)"/>
       </defs>
       <use xlink:href="#ArialMT-36"/>
       <use xlink:href="#ArialMT-30" x="55.615234"/>
       <use xlink:href="#ArialMT-30" x="111.230469"/>
      </g>
     </g>
    </g>
    <g id="xtick_5">
     <g id="line2d_5">
      <g>
       <use xlink:href="#m2d4ea47e28" x="245.319821" y="277.248797" style="fill: #262626; stroke: #262626; stroke-width: 1.25"/>
      </g>
     </g>
     <g id="text_5">
      <!-- 700 -->
      <g style="fill: #262626" transform="translate(236.144275 288.622391) scale(0.11 -0.11)">
       <defs>
        <path id="ArialMT-37" d="M 303 3981 
L 303 4522 
L 3269 4522 
L 3269 4084 
Q 2831 3619 2401 2847 
Q 1972 2075 1738 1259 
Q 1569 684 1522 0 
L 944 0 
Q 953 541 1156 1306 
Q 1359 2072 1739 2783 
Q 2119 3494 2547 3981 
L 303 3981 
z
" transform="scale(0.015625)"/>
       </defs>
       <use xlink:href="#ArialMT-37"/>
       <use xlink:href="#ArialMT-30" x="55.615234"/>
       <use xlink:href="#ArialMT-30" x="111.230469"/>
      </g>
     </g>
    </g>
    <g id="xtick_6">
     <g id="line2d_6">
      <g>
       <use xlink:href="#m2d4ea47e28" x="296.336964" y="277.248797" style="fill: #262626; stroke: #262626; stroke-width: 1.25"/>
      </g>
     </g>
     <g id="text_6">
      <!-- 800 -->
      <g style="fill: #262626" transform="translate(287.161417 288.622391) scale(0.11 -0.11)">
       <defs>
        <path id="ArialMT-38" d="M 1131 2484 
Q 781 2613 612 2850 
Q 444 3088 444 3419 
Q 444 3919 803 4259 
Q 1163 4600 1759 4600 
Q 2359 4600 2725 4251 
Q 3091 3903 3091 3403 
Q 3091 3084 2923 2848 
Q 2756 2613 2416 2484 
Q 2838 2347 3058 2040 
Q 3278 1734 3278 1309 
Q 3278 722 2862 322 
Q 2447 -78 1769 -78 
Q 1091 -78 675 323 
Q 259 725 259 1325 
Q 259 1772 486 2073 
Q 713 2375 1131 2484 
z
M 1019 3438 
Q 1019 3113 1228 2906 
Q 1438 2700 1772 2700 
Q 2097 2700 2305 2904 
Q 2513 3109 2513 3406 
Q 2513 3716 2298 3927 
Q 2084 4138 1766 4138 
Q 1444 4138 1231 3931 
Q 1019 3725 1019 3438 
z
M 838 1322 
Q 838 1081 952 856 
Q 1066 631 1291 507 
Q 1516 384 1775 384 
Q 2178 384 2440 643 
Q 2703 903 2703 1303 
Q 2703 1709 2433 1975 
Q 2163 2241 1756 2241 
Q 1359 2241 1098 1978 
Q 838 1716 838 1322 
z
" transform="scale(0.015625)"/>
       </defs>
       <use xlink:href="#ArialMT-38"/>
       <use xlink:href="#ArialMT-30" x="55.615234"/>
       <use xlink:href="#ArialMT-30" x="111.230469"/>
      </g>
     </g>
    </g>
    <g id="xtick_7">
     <g id="line2d_7">
      <g>
       <use xlink:href="#m2d4ea47e28" x="347.354107" y="277.248797" style="fill: #262626; stroke: #262626; stroke-width: 1.25"/>
      </g>
     </g>
     <g id="text_7">
      <!-- 900 -->
      <g style="fill: #262626" transform="translate(338.17856 288.622391) scale(0.11 -0.11)">
       <defs>
        <path id="ArialMT-39" d="M 350 1059 
L 891 1109 
Q 959 728 1153 556 
Q 1347 384 1650 384 
Q 1909 384 2104 503 
Q 2300 622 2425 820 
Q 2550 1019 2634 1356 
Q 2719 1694 2719 2044 
Q 2719 2081 2716 2156 
Q 2547 1888 2255 1720 
Q 1963 1553 1622 1553 
Q 1053 1553 659 1965 
Q 266 2378 266 3053 
Q 266 3750 677 4175 
Q 1088 4600 1706 4600 
Q 2153 4600 2523 4359 
Q 2894 4119 3086 3673 
Q 3278 3228 3278 2384 
Q 3278 1506 3087 986 
Q 2897 466 2520 194 
Q 2144 -78 1638 -78 
Q 1100 -78 759 220 
Q 419 519 350 1059 
z
M 2653 3081 
Q 2653 3566 2395 3850 
Q 2138 4134 1775 4134 
Q 1400 4134 1122 3828 
Q 844 3522 844 3034 
Q 844 2597 1108 2323 
Q 1372 2050 1759 2050 
Q 2150 2050 2401 2323 
Q 2653 2597 2653 3081 
z
" transform="scale(0.015625)"/>
       </defs>
       <use xlink:href="#ArialMT-39"/>
       <use xlink:href="#ArialMT-30" x="55.615234"/>
       <use xlink:href="#ArialMT-30" x="111.230469"/>
      </g>
     </g>
    </g>
    <g id="xtick_8">
     <g id="line2d_8">
      <g>
       <use xlink:href="#m2d4ea47e28" x="398.37125" y="277.248797" style="fill: #262626; stroke: #262626; stroke-width: 1.25"/>
      </g>
     </g>
     <g id="text_8">
      <!-- 1000 -->
      <g style="fill: #262626" transform="translate(386.137188 288.622391) scale(0.11 -0.11)">
       <defs>
        <path id="ArialMT-31" d="M 2384 0 
L 1822 0 
L 1822 3584 
Q 1619 3391 1289 3197 
Q 959 3003 697 2906 
L 697 3450 
Q 1169 3672 1522 3987 
Q 1875 4303 2022 4600 
L 2384 4600 
L 2384 0 
z
" transform="scale(0.015625)"/>
       </defs>
       <use xlink:href="#ArialMT-31"/>
       <use xlink:href="#ArialMT-30" x="55.615234"/>
       <use xlink:href="#ArialMT-30" x="111.230469"/>
       <use xlink:href="#ArialMT-30" x="166.845703"/>
      </g>
     </g>
    </g>
    <g id="xtick_9">
     <g id="line2d_9">
      <defs>
       <path id="mc8fb7401d5" d="M 0 0 
L 0 -4 
" style="stroke: #262626"/>
      </defs>
      <g>
       <use xlink:href="#mc8fb7401d5" x="66.759821" y="277.248797" style="fill: #262626; stroke: #262626"/>
      </g>
     </g>
    </g>
    <g id="xtick_10">
     <g id="line2d_10">
      <g>
       <use xlink:href="#mc8fb7401d5" x="117.776964" y="277.248797" style="fill: #262626; stroke: #262626"/>
      </g>
     </g>
    </g>
    <g id="xtick_11">
     <g id="line2d_11">
      <g>
       <use xlink:href="#mc8fb7401d5" x="168.794107" y="277.248797" style="fill: #262626; stroke: #262626"/>
      </g>
     </g>
    </g>
    <g id="xtick_12">
     <g id="line2d_12">
      <g>
       <use xlink:href="#mc8fb7401d5" x="219.81125" y="277.248797" style="fill: #262626; stroke: #262626"/>
      </g>
     </g>
    </g>
    <g id="xtick_13">
     <g id="line2d_13">
      <g>
       <use xlink:href="#mc8fb7401d5" x="270.828393" y="277.248797" style="fill: #262626; stroke: #262626"/>
      </g>
     </g>
    </g>
    <g id="xtick_14">
     <g id="line2d_14">
      <g>
       <use xlink:href="#mc8fb7401d5" x="321.845536" y="277.248797" style="fill: #262626; stroke: #262626"/>
      </g>
     </g>
    </g>
    <g id="xtick_15">
     <g id="line2d_15">
      <g>
       <use xlink:href="#mc8fb7401d5" x="372.862679" y="277.248797" style="fill: #262626; stroke: #262626"/>
      </g>
     </g>
    </g>
    <g id="text_9">
     <!-- Wavelength (nm) -->
     <g style="fill: #262626" transform="translate(174.356562 303.544266) scale(0.12 -0.12)">
      <defs>
       <path id="ArialMT-57" d="M 1294 0 
L 78 4581 
L 700 4581 
L 1397 1578 
Q 1509 1106 1591 641 
Q 1766 1375 1797 1488 
L 2669 4581 
L 3400 4581 
L 4056 2263 
Q 4303 1400 4413 641 
Q 4500 1075 4641 1638 
L 5359 4581 
L 5969 4581 
L 4713 0 
L 4128 0 
L 3163 3491 
Q 3041 3928 3019 4028 
Q 2947 3713 2884 3491 
L 1913 0 
L 1294 0 
z
" transform="scale(0.015625)"/>
       <path id="ArialMT-61" d="M 2588 409 
Q 2275 144 1986 34 
Q 1697 -75 1366 -75 
Q 819 -75 525 192 
Q 231 459 231 875 
Q 231 1119 342 1320 
Q 453 1522 633 1644 
Q 813 1766 1038 1828 
Q 1203 1872 1538 1913 
Q 2219 1994 2541 2106 
Q 2544 2222 2544 2253 
Q 2544 2597 2384 2738 
Q 2169 2928 1744 2928 
Q 1347 2928 1158 2789 
Q 969 2650 878 2297 
L 328 2372 
Q 403 2725 575 2942 
Q 747 3159 1072 3276 
Q 1397 3394 1825 3394 
Q 2250 3394 2515 3294 
Q 2781 3194 2906 3042 
Q 3031 2891 3081 2659 
Q 3109 2516 3109 2141 
L 3109 1391 
Q 3109 606 3145 398 
Q 3181 191 3288 0 
L 2700 0 
Q 2613 175 2588 409 
z
M 2541 1666 
Q 2234 1541 1622 1453 
Q 1275 1403 1131 1340 
Q 988 1278 909 1158 
Q 831 1038 831 891 
Q 831 666 1001 516 
Q 1172 366 1500 366 
Q 1825 366 2078 508 
Q 2331 650 2450 897 
Q 2541 1088 2541 1459 
L 2541 1666 
z
" transform="scale(0.015625)"/>
       <path id="ArialMT-76" d="M 1344 0 
L 81 3319 
L 675 3319 
L 1388 1331 
Q 1503 1009 1600 663 
Q 1675 925 1809 1294 
L 2547 3319 
L 3125 3319 
L 1869 0 
L 1344 0 
z
" transform="scale(0.015625)"/>
       <path id="ArialMT-65" d="M 2694 1069 
L 3275 997 
Q 3138 488 2766 206 
Q 2394 -75 1816 -75 
Q 1088 -75 661 373 
Q 234 822 234 1631 
Q 234 2469 665 2931 
Q 1097 3394 1784 3394 
Q 2450 3394 2872 2941 
Q 3294 2488 3294 1666 
Q 3294 1616 3291 1516 
L 816 1516 
Q 847 969 1125 678 
Q 1403 388 1819 388 
Q 2128 388 2347 550 
Q 2566 713 2694 1069 
z
M 847 1978 
L 2700 1978 
Q 2663 2397 2488 2606 
Q 2219 2931 1791 2931 
Q 1403 2931 1139 2672 
Q 875 2413 847 1978 
z
" transform="scale(0.015625)"/>
       <path id="ArialMT-6c" d="M 409 0 
L 409 4581 
L 972 4581 
L 972 0 
L 409 0 
z
" transform="scale(0.015625)"/>
       <path id="ArialMT-6e" d="M 422 0 
L 422 3319 
L 928 3319 
L 928 2847 
Q 1294 3394 1984 3394 
Q 2284 3394 2536 3286 
Q 2788 3178 2913 3003 
Q 3038 2828 3088 2588 
Q 3119 2431 3119 2041 
L 3119 0 
L 2556 0 
L 2556 2019 
Q 2556 2363 2490 2533 
Q 2425 2703 2258 2804 
Q 2091 2906 1866 2906 
Q 1506 2906 1245 2678 
Q 984 2450 984 1813 
L 984 0 
L 422 0 
z
" transform="scale(0.015625)"/>
       <path id="ArialMT-67" d="M 319 -275 
L 866 -356 
Q 900 -609 1056 -725 
Q 1266 -881 1628 -881 
Q 2019 -881 2231 -725 
Q 2444 -569 2519 -288 
Q 2563 -116 2559 434 
Q 2191 0 1641 0 
Q 956 0 581 494 
Q 206 988 206 1678 
Q 206 2153 378 2554 
Q 550 2956 876 3175 
Q 1203 3394 1644 3394 
Q 2231 3394 2613 2919 
L 2613 3319 
L 3131 3319 
L 3131 450 
Q 3131 -325 2973 -648 
Q 2816 -972 2473 -1159 
Q 2131 -1347 1631 -1347 
Q 1038 -1347 672 -1080 
Q 306 -813 319 -275 
z
M 784 1719 
Q 784 1066 1043 766 
Q 1303 466 1694 466 
Q 2081 466 2343 764 
Q 2606 1063 2606 1700 
Q 2606 2309 2336 2618 
Q 2066 2928 1684 2928 
Q 1309 2928 1046 2623 
Q 784 2319 784 1719 
z
" transform="scale(0.015625)"/>
       <path id="ArialMT-74" d="M 1650 503 
L 1731 6 
Q 1494 -44 1306 -44 
Q 1000 -44 831 53 
Q 663 150 594 308 
Q 525 466 525 972 
L 525 2881 
L 113 2881 
L 113 3319 
L 525 3319 
L 525 4141 
L 1084 4478 
L 1084 3319 
L 1650 3319 
L 1650 2881 
L 1084 2881 
L 1084 941 
Q 1084 700 1114 631 
Q 1144 563 1211 522 
Q 1278 481 1403 481 
Q 1497 481 1650 503 
z
" transform="scale(0.015625)"/>
       <path id="ArialMT-68" d="M 422 0 
L 422 4581 
L 984 4581 
L 984 2938 
Q 1378 3394 1978 3394 
Q 2347 3394 2619 3248 
Q 2891 3103 3008 2847 
Q 3125 2591 3125 2103 
L 3125 0 
L 2563 0 
L 2563 2103 
Q 2563 2525 2380 2717 
Q 2197 2909 1863 2909 
Q 1613 2909 1392 2779 
Q 1172 2650 1078 2428 
Q 984 2206 984 1816 
L 984 0 
L 422 0 
z
" transform="scale(0.015625)"/>
       <path id="ArialMT-20" transform="scale(0.015625)"/>
       <path id="ArialMT-28" d="M 1497 -1347 
Q 1031 -759 709 28 
Q 388 816 388 1659 
Q 388 2403 628 3084 
Q 909 3875 1497 4659 
L 1900 4659 
Q 1522 4009 1400 3731 
Q 1209 3300 1100 2831 
Q 966 2247 966 1656 
Q 966 153 1900 -1347 
L 1497 -1347 
z
" transform="scale(0.015625)"/>
       <path id="ArialMT-6d" d="M 422 0 
L 422 3319 
L 925 3319 
L 925 2853 
Q 1081 3097 1340 3245 
Q 1600 3394 1931 3394 
Q 2300 3394 2536 3241 
Q 2772 3088 2869 2813 
Q 3263 3394 3894 3394 
Q 4388 3394 4653 3120 
Q 4919 2847 4919 2278 
L 4919 0 
L 4359 0 
L 4359 2091 
Q 4359 2428 4304 2576 
Q 4250 2725 4106 2815 
Q 3963 2906 3769 2906 
Q 3419 2906 3187 2673 
Q 2956 2441 2956 1928 
L 2956 0 
L 2394 0 
L 2394 2156 
Q 2394 2531 2256 2718 
Q 2119 2906 1806 2906 
Q 1569 2906 1367 2781 
Q 1166 2656 1075 2415 
Q 984 2175 984 1722 
L 984 0 
L 422 0 
z
" transform="scale(0.015625)"/>
       <path id="ArialMT-29" d="M 791 -1347 
L 388 -1347 
Q 1322 153 1322 1656 
Q 1322 2244 1188 2822 
Q 1081 3291 891 3722 
Q 769 4003 388 4659 
L 791 4659 
Q 1378 3875 1659 3084 
Q 1900 2403 1900 1659 
Q 1900 816 1576 28 
Q 1253 -759 791 -1347 
z
" transform="scale(0.015625)"/>
      </defs>
      <use xlink:href="#ArialMT-57"/>
      <use xlink:href="#ArialMT-61" x="90.634766"/>
      <use xlink:href="#ArialMT-76" x="146.25"/>
      <use xlink:href="#ArialMT-65" x="196.25"/>
      <use xlink:href="#ArialMT-6c" x="251.865234"/>
      <use xlink:href="#ArialMT-65" x="274.082031"/>
      <use xlink:href="#ArialMT-6e" x="329.697266"/>
      <use xlink:href="#ArialMT-67" x="385.3125"/>
      <use xlink:href="#ArialMT-74" x="440.927734"/>
      <use xlink:href="#ArialMT-68" x="468.710938"/>
      <use xlink:href="#ArialMT-20" x="524.326172"/>
      <use xlink:href="#ArialMT-28" x="552.109375"/>
      <use xlink:href="#ArialMT-6e" x="585.410156"/>
      <use xlink:href="#ArialMT-6d" x="641.025391"/>
      <use xlink:href="#ArialMT-29" x="724.326172"/>
     </g>
    </g>
   </g>
   <g id="matplotlib.axis_2">
    <g id="ytick_1">
     <g id="line2d_16">
      <defs>
       <path id="mae357bc965" d="M 0 0 
L 6 0 
" style="stroke: #262626; stroke-width: 1.25"/>
      </defs>
      <g>
       <use xlink:href="#mae357bc965" x="41.25125" y="277.248797" style="fill: #262626; stroke: #262626; stroke-width: 1.25"/>
      </g>
     </g>
     <g id="text_10">
      <!-- 0.0 -->
      <g style="fill: #262626" transform="translate(22.46125 281.185594) scale(0.11 -0.11)">
       <defs>
        <path id="ArialMT-2e" d="M 581 0 
L 581 641 
L 1222 641 
L 1222 0 
L 581 0 
z
" transform="scale(0.015625)"/>
       </defs>
       <use xlink:href="#ArialMT-30"/>
       <use xlink:href="#ArialMT-2e" x="55.615234"/>
       <use xlink:href="#ArialMT-30" x="83.398438"/>
      </g>
     </g>
    </g>
    <g id="ytick_2">
     <g id="line2d_17">
      <g>
       <use xlink:href="#mae357bc965" x="41.25125" y="224.026397" style="fill: #262626; stroke: #262626; stroke-width: 1.25"/>
      </g>
     </g>
     <g id="text_11">
      <!-- 0.2 -->
      <g style="fill: #262626" transform="translate(22.46125 227.963194) scale(0.11 -0.11)">
       <defs>
        <path id="ArialMT-32" d="M 3222 541 
L 3222 0 
L 194 0 
Q 188 203 259 391 
Q 375 700 629 1000 
Q 884 1300 1366 1694 
Q 2113 2306 2375 2664 
Q 2638 3022 2638 3341 
Q 2638 3675 2398 3904 
Q 2159 4134 1775 4134 
Q 1369 4134 1125 3890 
Q 881 3647 878 3216 
L 300 3275 
Q 359 3922 746 4261 
Q 1134 4600 1788 4600 
Q 2447 4600 2831 4234 
Q 3216 3869 3216 3328 
Q 3216 3053 3103 2787 
Q 2991 2522 2730 2228 
Q 2469 1934 1863 1422 
Q 1356 997 1212 845 
Q 1069 694 975 541 
L 3222 541 
z
" transform="scale(0.015625)"/>
       </defs>
       <use xlink:href="#ArialMT-30"/>
       <use xlink:href="#ArialMT-2e" x="55.615234"/>
       <use xlink:href="#ArialMT-32" x="83.398438"/>
      </g>
     </g>
    </g>
    <g id="ytick_3">
     <g id="line2d_18">
      <g>
       <use xlink:href="#mae357bc965" x="41.25125" y="170.803997" style="fill: #262626; stroke: #262626; stroke-width: 1.25"/>
      </g>
     </g>
     <g id="text_12">
      <!-- 0.4 -->
      <g style="fill: #262626" transform="translate(22.46125 174.740794) scale(0.11 -0.11)">
       <use xlink:href="#ArialMT-30"/>
       <use xlink:href="#ArialMT-2e" x="55.615234"/>
       <use xlink:href="#ArialMT-34" x="83.398438"/>
      </g>
     </g>
    </g>
    <g id="ytick_4">
     <g id="line2d_19">
      <g>
       <use xlink:href="#mae357bc965" x="41.25125" y="117.581597" style="fill: #262626; stroke: #262626; stroke-width: 1.25"/>
      </g>
     </g>
     <g id="text_13">
      <!-- 0.6 -->
      <g style="fill: #262626" transform="translate(22.46125 121.518394) scale(0.11 -0.11)">
       <use xlink:href="#ArialMT-30"/>
       <use xlink:href="#ArialMT-2e" x="55.615234"/>
       <use xlink:href="#ArialMT-36" x="83.398438"/>
      </g>
     </g>
    </g>
    <g id="ytick_5">
     <g id="line2d_20">
      <g>
       <use xlink:href="#mae357bc965" x="41.25125" y="64.359197" style="fill: #262626; stroke: #262626; stroke-width: 1.25"/>
      </g>
     </g>
     <g id="text_14">
      <!-- 0.8 -->
      <g style="fill: #262626" transform="translate(22.46125 68.295994) scale(0.11 -0.11)">
       <use xlink:href="#ArialMT-30"/>
       <use xlink:href="#ArialMT-2e" x="55.615234"/>
       <use xlink:href="#ArialMT-38" x="83.398438"/>
      </g>
     </g>
    </g>
    <g id="ytick_6">
     <g id="line2d_21">
      <g>
       <use xlink:href="#mae357bc965" x="41.25125" y="11.136797" style="fill: #262626; stroke: #262626; stroke-width: 1.25"/>
      </g>
     </g>
     <g id="text_15">
      <!-- 1.0 -->
      <g style="fill: #262626" transform="translate(22.46125 15.073594) scale(0.11 -0.11)">
       <use xlink:href="#ArialMT-31"/>
       <use xlink:href="#ArialMT-2e" x="55.615234"/>
       <use xlink:href="#ArialMT-30" x="83.398438"/>
      </g>
     </g>
    </g>
    <g id="ytick_7">
     <g id="line2d_22">
      <defs>
       <path id="m94086d9ab8" d="M 0 0 
L 4 0 
" style="stroke: #262626"/>
      </defs>
      <g>
       <use xlink:href="#m94086d9ab8" x="41.25125" y="250.637597" style="fill: #262626; stroke: #262626"/>
      </g>
     </g>
    </g>
    <g id="ytick_8">
     <g id="line2d_23">
      <g>
       <use xlink:href="#m94086d9ab8" x="41.25125" y="197.415197" style="fill: #262626; stroke: #262626"/>
      </g>
     </g>
    </g>
    <g id="ytick_9">
     <g id="line2d_24">
      <g>
       <use xlink:href="#m94086d9ab8" x="41.25125" y="144.192797" style="fill: #262626; stroke: #262626"/>
      </g>
     </g>
    </g>
    <g id="ytick_10">
     <g id="line2d_25">
      <g>
       <use xlink:href="#m94086d9ab8" x="41.25125" y="90.970397" style="fill: #262626; stroke: #262626"/>
      </g>
     </g>
    </g>
    <g id="ytick_11">
     <g id="line2d_26">
      <g>
       <use xlink:href="#m94086d9ab8" x="41.25125" y="37.747997" style="fill: #262626; stroke: #262626"/>
      </g>
     </g>
    </g>
    <g id="text_16">
     <!-- Absorbance (a.u.) -->
     <g style="fill: #262626" transform="translate(15.935625 191.881547) rotate(-90) scale(0.12 -0.12)">
      <defs>
       <path id="ArialMT-41" d="M -9 0 
L 1750 4581 
L 2403 4581 
L 4278 0 
L 3588 0 
L 3053 1388 
L 1138 1388 
L 634 0 
L -9 0 
z
M 1313 1881 
L 2866 1881 
L 2388 3150 
Q 2169 3728 2063 4100 
Q 1975 3659 1816 3225 
L 1313 1881 
z
" transform="scale(0.015625)"/>
       <path id="ArialMT-62" d="M 941 0 
L 419 0 
L 419 4581 
L 981 4581 
L 981 2947 
Q 1338 3394 1891 3394 
Q 2197 3394 2470 3270 
Q 2744 3147 2920 2923 
Q 3097 2700 3197 2384 
Q 3297 2069 3297 1709 
Q 3297 856 2875 390 
Q 2453 -75 1863 -75 
Q 1275 -75 941 416 
L 941 0 
z
M 934 1684 
Q 934 1088 1097 822 
Q 1363 388 1816 388 
Q 2184 388 2453 708 
Q 2722 1028 2722 1663 
Q 2722 2313 2464 2622 
Q 2206 2931 1841 2931 
Q 1472 2931 1203 2611 
Q 934 2291 934 1684 
z
" transform="scale(0.015625)"/>
       <path id="ArialMT-73" d="M 197 991 
L 753 1078 
Q 800 744 1014 566 
Q 1228 388 1613 388 
Q 2000 388 2187 545 
Q 2375 703 2375 916 
Q 2375 1106 2209 1216 
Q 2094 1291 1634 1406 
Q 1016 1563 777 1677 
Q 538 1791 414 1992 
Q 291 2194 291 2438 
Q 291 2659 392 2848 
Q 494 3038 669 3163 
Q 800 3259 1026 3326 
Q 1253 3394 1513 3394 
Q 1903 3394 2198 3281 
Q 2494 3169 2634 2976 
Q 2775 2784 2828 2463 
L 2278 2388 
Q 2241 2644 2061 2787 
Q 1881 2931 1553 2931 
Q 1166 2931 1000 2803 
Q 834 2675 834 2503 
Q 834 2394 903 2306 
Q 972 2216 1119 2156 
Q 1203 2125 1616 2013 
Q 2213 1853 2448 1751 
Q 2684 1650 2818 1456 
Q 2953 1263 2953 975 
Q 2953 694 2789 445 
Q 2625 197 2315 61 
Q 2006 -75 1616 -75 
Q 969 -75 630 194 
Q 291 463 197 991 
z
" transform="scale(0.015625)"/>
       <path id="ArialMT-6f" d="M 213 1659 
Q 213 2581 725 3025 
Q 1153 3394 1769 3394 
Q 2453 3394 2887 2945 
Q 3322 2497 3322 1706 
Q 3322 1066 3130 698 
Q 2938 331 2570 128 
Q 2203 -75 1769 -75 
Q 1072 -75 642 372 
Q 213 819 213 1659 
z
M 791 1659 
Q 791 1022 1069 705 
Q 1347 388 1769 388 
Q 2188 388 2466 706 
Q 2744 1025 2744 1678 
Q 2744 2294 2464 2611 
Q 2184 2928 1769 2928 
Q 1347 2928 1069 2612 
Q 791 2297 791 1659 
z
" transform="scale(0.015625)"/>
       <path id="ArialMT-72" d="M 416 0 
L 416 3319 
L 922 3319 
L 922 2816 
Q 1116 3169 1280 3281 
Q 1444 3394 1641 3394 
Q 1925 3394 2219 3213 
L 2025 2691 
Q 1819 2813 1613 2813 
Q 1428 2813 1281 2702 
Q 1134 2591 1072 2394 
Q 978 2094 978 1738 
L 978 0 
L 416 0 
z
" transform="scale(0.015625)"/>
       <path id="ArialMT-63" d="M 2588 1216 
L 3141 1144 
Q 3050 572 2676 248 
Q 2303 -75 1759 -75 
Q 1078 -75 664 370 
Q 250 816 250 1647 
Q 250 2184 428 2587 
Q 606 2991 970 3192 
Q 1334 3394 1763 3394 
Q 2303 3394 2647 3120 
Q 2991 2847 3088 2344 
L 2541 2259 
Q 2463 2594 2264 2762 
Q 2066 2931 1784 2931 
Q 1359 2931 1093 2626 
Q 828 2322 828 1663 
Q 828 994 1084 691 
Q 1341 388 1753 388 
Q 2084 388 2306 591 
Q 2528 794 2588 1216 
z
" transform="scale(0.015625)"/>
       <path id="ArialMT-75" d="M 2597 0 
L 2597 488 
Q 2209 -75 1544 -75 
Q 1250 -75 995 37 
Q 741 150 617 320 
Q 494 491 444 738 
Q 409 903 409 1263 
L 409 3319 
L 972 3319 
L 972 1478 
Q 972 1038 1006 884 
Q 1059 663 1231 536 
Q 1403 409 1656 409 
Q 1909 409 2131 539 
Q 2353 669 2445 892 
Q 2538 1116 2538 1541 
L 2538 3319 
L 3100 3319 
L 3100 0 
L 2597 0 
z
" transform="scale(0.015625)"/>
      </defs>
      <use xlink:href="#ArialMT-41"/>
      <use xlink:href="#ArialMT-62" x="66.699219"/>
      <use xlink:href="#ArialMT-73" x="122.314453"/>
      <use xlink:href="#ArialMT-6f" x="172.314453"/>
      <use xlink:href="#ArialMT-72" x="227.929688"/>
      <use xlink:href="#ArialMT-62" x="261.230469"/>
      <use xlink:href="#ArialMT-61" x="316.845703"/>
      <use xlink:href="#ArialMT-6e" x="372.460938"/>
      <use xlink:href="#ArialMT-63" x="428.076172"/>
      <use xlink:href="#ArialMT-65" x="478.076172"/>
      <use xlink:href="#ArialMT-20" x="533.691406"/>
      <use xlink:href="#ArialMT-28" x="561.474609"/>
      <use xlink:href="#ArialMT-61" x="594.775391"/>
      <use xlink:href="#ArialMT-2e" x="650.390625"/>
      <use xlink:href="#ArialMT-75" x="678.173828"/>
      <use xlink:href="#ArialMT-2e" x="733.789062"/>
      <use xlink:href="#ArialMT-29" x="761.572266"/>
     </g>
    </g>
   </g>
   <g id="PolyCollection_1"/>
   <g id="PolyCollection_2"/>
   <g id="PolyCollection_3"/>
   <g id="PolyCollection_4"/>
   <g id="PolyCollection_5"/>
   <g id="PolyCollection_6"/>
   <g id="line2d_27">
    <path d="M 41.591359 217.338477 
L 42.611702 214.41233 
L 44.652388 207.307003 
L 47.033198 197.106521 
L 50.434336 179.596443 
L 59.277312 128.954405 
L 60.637764 122.101392 
L 61.998216 116.211949 
L 63.018559 112.4742 
L 64.038902 109.45531 
L 65.399369 106.292905 
L 66.419712 104.544935 
L 67.440055 103.316889 
L 68.460398 102.501687 
L 69.480741 102.260655 
L 70.501084 102.58956 
L 71.181302 103.115956 
L 72.201645 104.409954 
L 72.881879 105.668882 
L 74.242331 108.906058 
L 75.262673 111.952388 
L 77.983593 121.247868 
L 79.344045 125.693818 
L 81.044621 130.402307 
L 82.064964 132.541724 
L 83.085307 134.233798 
L 84.10565 135.280214 
L 85.125993 135.887028 
L 85.806227 135.983688 
L 86.48646 135.864108 
L 87.166679 135.608182 
L 87.846912 135.1334 
L 88.527146 134.483553 
L 89.207364 133.699884 
L 90.227707 132.252045 
L 91.24805 130.476936 
L 92.948627 126.994446 
L 94.309079 123.7327 
L 97.029998 116.011729 
L 100.091027 105.918399 
L 103.492164 93.400146 
L 108.934003 72.157775 
L 113.695593 54.218295 
L 116.076403 46.257307 
L 117.776964 41.427382 
L 118.797307 38.832471 
L 120.157775 35.821607 
L 121.518227 33.325735 
L 122.878679 31.406349 
L 123.899021 30.351019 
L 124.919364 29.598549 
L 125.939707 29.237097 
L 126.619941 29.117041 
L 127.300175 29.221822 
L 128.320518 29.70498 
L 129.34086 30.53606 
L 130.361203 31.855293 
L 131.381546 33.616809 
L 132.401889 35.898694 
L 133.422232 38.723978 
L 134.442575 42.007517 
L 135.803027 47.306404 
L 137.163479 53.423491 
L 138.864055 62.258606 
L 140.904741 73.983039 
L 143.62566 91.200376 
L 146.686689 111.743444 
L 151.108154 143.206433 
L 154.849432 171.900002 
L 158.930803 203.768205 
L 161.311582 220.74484 
L 163.012175 231.538424 
L 164.712736 240.837052 
L 166.073203 247.2899 
L 167.773764 254.017679 
L 169.134232 258.440556 
L 170.494668 262.042059 
L 171.855136 264.977642 
L 172.875479 266.811255 
L 174.235946 268.767491 
L 175.596414 270.367118 
L 177.296975 271.868217 
L 178.997536 273.067205 
L 181.378346 274.143597 
L 183.078907 274.687653 
L 185.459718 275.227778 
L 188.520746 275.657321 
L 199.064299 276.225349 
L 201.785203 276.292264 
L 215.389785 276.43657 
L 216.410128 276.434357 
L 218.790907 276.464877 
L 220.151375 276.440226 
L 223.212403 276.462006 
L 224.572871 276.436043 
L 225.593214 276.455264 
L 230.354803 276.443861 
L 232.395489 276.463962 
L 234.776299 276.478692 
L 249.401193 276.526697 
L 250.76166 276.490071 
L 251.441879 276.497088 
L 253.142471 276.512632 
L 258.244185 276.50816 
L 266.406928 276.544483 
L 276.95045 276.543852 
L 277.970793 276.558212 
L 280.011479 276.55298 
L 280.691728 276.567185 
L 306.200299 276.61309 
L 306.540393 276.536838 
L 307.220642 276.682425 
L 307.90086 276.619386 
L 308.581079 276.651699 
L 308.921203 276.584577 
L 309.601421 276.617246 
L 312.322356 276.60227 
L 312.66245 276.686744 
L 314.022918 276.585484 
L 316.403728 276.633944 
L 317.083946 276.62537 
L 317.424071 276.712956 
L 318.104289 276.642434 
L 318.784507 276.624498 
L 319.80485 276.72436 
L 320.144975 276.526753 
L 320.485099 276.733079 
L 320.825193 276.614178 
L 321.845536 276.723966 
L 322.525785 276.565252 
L 322.865879 276.703945 
L 323.546128 276.605858 
L 323.886221 276.782168 
L 324.226346 276.636458 
L 325.926907 276.697099 
L 326.267032 276.67778 
L 326.607156 276.538522 
L 326.94725 276.729778 
L 327.287375 276.561642 
L 327.627499 276.78721 
L 327.967593 276.64267 
L 328.647842 276.772907 
L 328.987936 276.565966 
L 329.668185 276.765478 
L 330.688528 276.652904 
L 331.028621 276.402809 
L 331.708871 276.787397 
L 332.048964 276.906003 
L 332.389089 276.661718 
L 332.729214 276.731723 
L 333.069307 276.927923 
L 333.409432 276.704471 
L 334.08965 276.727197 
L 334.429775 276.577434 
L 334.769899 276.866152 
L 335.109993 276.294209 
L 335.450118 276.877431 
L 335.790242 276.872102 
L 336.130336 276.622821 
L 336.47046 276.596313 
L 336.810585 276.81828 
L 337.830928 276.531411 
L 338.171021 276.770016 
L 338.851271 276.675821 
L 339.191364 276.37339 
L 339.531489 276.585845 
L 339.871614 276.458927 
L 340.551832 276.856842 
L 340.891956 276.924718 
L 341.23205 276.398701 
L 341.572175 276.786062 
L 341.912299 276.836007 
L 342.252393 276.488934 
L 342.592518 277.02036 
L 343.272736 276.930679 
L 343.61286 277.290314 
L 343.952985 277.033342 
L 344.293079 277.065119 
L 344.633203 276.079846 
L 344.973328 276.93968 
L 345.313421 277.139706 
L 345.653546 277.137472 
L 345.993671 276.693078 
L 346.673889 276.60937 
L 347.013982 276.984456 
L 354.156382 276.984988 
L 357.897629 276.990842 
L 367.080715 277.019739 
L 371.502211 277.002309 
L 378.984736 276.98824 
L 381.365515 276.987487 
L 391.22885 277.008909 
L 394.970097 277.035005 
L 398.711344 277.072591 
L 398.711344 277.072591 
" clip-path="url(#pf03539f95f)" style="fill: none; stroke: #f6b48f; stroke-linecap: round"/>
   </g>
   <g id="line2d_28">
    <path d="M 41.591359 214.532952 
L 42.951827 210.388498 
L 43.972169 206.849525 
L 45.332621 201.59467 
L 47.373307 192.807028 
L 49.073884 184.866676 
L 53.155255 163.826413 
L 56.896502 144.349731 
L 59.957531 129.133989 
L 61.998216 120.45779 
L 63.358684 115.747127 
L 64.719136 111.966917 
L 66.079588 108.973358 
L 67.099931 107.160942 
L 68.460398 105.423774 
L 69.480741 104.663214 
L 70.160959 104.42591 
L 70.841193 104.480902 
L 71.521427 104.803747 
L 72.201645 105.380234 
L 72.881879 106.288306 
L 73.902221 108.203266 
L 74.922564 110.602288 
L 76.623141 115.586038 
L 80.704512 127.761651 
L 82.405073 131.320863 
L 83.425416 132.926603 
L 84.445759 134.034689 
L 85.466118 134.736434 
L 86.48646 135.001797 
L 87.166679 134.976593 
L 88.187021 134.672305 
L 88.867255 134.275435 
L 90.227707 133.10476 
L 91.24805 131.868752 
L 92.608518 129.904335 
L 94.309079 126.876214 
L 96.349764 122.496994 
L 98.050341 118.388053 
L 100.431136 112.023384 
L 105.192741 97.928068 
L 106.893318 92.690898 
L 109.954346 83.285308 
L 114.035718 71.529771 
L 116.416512 65.600325 
L 118.117089 62.032437 
L 119.81765 59.088429 
L 121.178118 57.198451 
L 122.538569 55.742761 
L 123.899021 54.753066 
L 124.919364 54.284279 
L 126.279832 54.08812 
L 127.300175 54.289164 
L 128.320518 54.799905 
L 129.34086 55.618644 
L 130.361203 56.783942 
L 131.381546 58.312627 
L 132.741998 60.964465 
L 134.10245 64.397912 
L 135.122793 67.427143 
L 136.48326 72.047268 
L 138.523946 80.185413 
L 140.904741 90.939946 
L 144.305879 107.875281 
L 150.087811 138.968491 
L 153.14884 156.549763 
L 160.631364 200.121247 
L 162.331925 208.608741 
L 164.032518 216.066265 
L 165.733079 222.414002 
L 167.093546 226.715228 
L 168.453982 230.393992 
L 169.81445 233.426812 
L 171.174918 235.975761 
L 173.215603 238.922326 
L 175.596414 241.413709 
L 177.637099 242.97543 
L 180.017879 244.369948 
L 183.078907 245.730382 
L 185.459718 246.626181 
L 201.104985 251.899885 
L 211.648507 256.072073 
L 213.008975 256.676819 
L 215.04966 257.508827 
L 220.831593 259.925655 
L 223.892621 261.165467 
L 231.715271 264.244706 
L 232.735614 264.602987 
L 237.157079 266.23915 
L 239.878014 267.164979 
L 241.23845 267.609894 
L 243.959385 268.458738 
L 246.340164 269.188573 
L 247.020414 269.388962 
L 250.76166 270.358586 
L 251.782003 270.643071 
L 253.482564 271.055199 
L 255.863375 271.572199 
L 267.427271 273.613724 
L 269.80805 273.876248 
L 271.168518 274.034098 
L 274.909764 274.483022 
L 275.930107 274.558054 
L 277.290575 274.646881 
L 278.651042 274.786908 
L 280.351603 274.921551 
L 282.052164 275.08227 
L 287.153879 275.375898 
L 287.834128 275.472011 
L 288.514346 275.459517 
L 291.915499 275.69142 
L 292.255593 275.629109 
L 293.275936 275.753989 
L 293.956185 275.714402 
L 294.296279 275.798572 
L 294.976528 275.804724 
L 295.656746 275.850479 
L 295.996871 275.792461 
L 297.017214 275.891372 
L 302.799146 276.003457 
L 303.479364 276.087702 
L 322.865879 276.502364 
L 323.206003 276.691652 
L 323.546128 276.569486 
L 323.886221 276.64294 
L 324.226346 276.555183 
L 324.566471 276.582505 
L 325.246689 276.468262 
L 325.586814 276.787113 
L 325.926907 276.574288 
L 328.647842 276.712354 
L 329.32806 276.549216 
L 330.688528 276.655584 
L 331.028621 276.426629 
L 331.368746 276.960765 
L 332.048964 276.946165 
L 332.389089 276.653077 
L 332.729214 276.647233 
L 333.069307 276.896772 
L 333.749556 276.671639 
L 334.429775 276.62652 
L 334.769899 276.88242 
L 335.109993 276.679164 
L 335.450118 276.721246 
L 335.790242 276.892516 
L 336.130336 276.730546 
L 336.47046 276.97789 
L 338.171021 276.963044 
L 338.511146 277.241419 
L 338.851271 276.759148 
L 339.191364 276.827379 
L 339.531489 277.098135 
L 339.871614 276.710312 
L 340.211707 276.589343 
L 340.891956 277.25428 
L 341.572175 276.577371 
L 341.912299 276.943527 
L 342.252393 276.551316 
L 342.592518 277.229914 
L 342.932642 277.235584 
L 343.272736 276.79015 
L 343.61286 277.220723 
L 343.952985 277.15353 
L 344.293079 277.455709 
L 344.633203 276.695404 
L 344.973328 277.206879 
L 345.313421 276.790903 
L 345.993671 276.644034 
L 346.333764 277.098218 
L 346.673889 276.809596 
L 347.013982 277.47184 
L 356.197068 277.527558 
L 359.258097 277.550563 
L 364.019686 277.574278 
L 366.740621 277.579347 
L 377.624268 277.591971 
L 380.685297 277.653878 
L 394.289879 277.672754 
L 397.350907 277.678848 
L 398.711344 277.68755 
L 398.711344 277.68755 
" clip-path="url(#pf03539f95f)" style="fill: none; stroke: #f37651; stroke-linecap: round"/>
   </g>
   <g id="line2d_29">
    <path d="M 41.591359 212.731045 
L 42.611702 209.661026 
L 44.652388 202.461343 
L 47.033198 192.330691 
L 49.073884 182.743383 
L 52.475021 164.791111 
L 58.597079 132.569196 
L 60.977873 121.244584 
L 62.338341 115.839997 
L 63.698793 111.477478 
L 65.059245 108.034436 
L 66.079588 106.000118 
L 67.099931 104.364495 
L 68.460398 102.867358 
L 69.140616 102.379395 
L 69.82085 102.163837 
L 70.501084 102.193641 
L 71.181302 102.470408 
L 71.861536 103.029209 
L 72.541769 103.879894 
L 73.221988 105.019274 
L 73.902221 106.459515 
L 74.922564 109.011315 
L 75.942907 112.008649 
L 80.704512 126.571768 
L 82.745198 130.70431 
L 83.765541 132.101995 
L 84.785884 133.050513 
L 86.146336 133.695617 
L 87.166679 133.718918 
L 87.846912 133.542316 
L 89.207364 132.748669 
L 90.567832 131.473832 
L 91.588175 130.165368 
L 92.608518 128.70557 
L 94.309079 125.740149 
L 97.029998 119.918102 
L 99.750918 113.091942 
L 102.131712 106.529036 
L 106.893318 92.731424 
L 110.634564 82.025602 
L 112.335141 77.40397 
L 116.076403 68.640691 
L 117.436855 66.095395 
L 118.117089 64.951336 
L 120.157775 62.225012 
L 121.518227 60.926588 
L 122.878679 60.117159 
L 123.899021 59.776993 
L 124.579255 59.702698 
L 125.259489 59.716751 
L 126.619941 60.17074 
L 127.980393 61.171204 
L 129.000736 62.280701 
L 130.021079 63.742371 
L 131.041421 65.524364 
L 132.401889 68.534911 
L 133.762341 72.29355 
L 135.122793 76.700925 
L 136.823369 83.170661 
L 138.183821 88.979352 
L 140.564632 100.230858 
L 143.62566 115.948029 
L 147.366907 136.132484 
L 153.488964 171.282466 
L 159.270897 205.411965 
L 161.651707 217.766663 
L 163.012175 224.019302 
L 164.712736 230.837646 
L 166.073203 235.567565 
L 167.773764 240.520175 
L 169.134232 243.739312 
L 170.494668 246.445913 
L 171.855136 248.65045 
L 173.215603 250.466199 
L 175.256289 252.54946 
L 176.616756 253.630923 
L 178.657442 254.951543 
L 180.017879 255.637684 
L 182.738814 256.720918 
L 188.520746 258.399393 
L 189.881214 258.709167 
L 196.003271 260.10792 
L 198.38405 260.676327 
L 199.404393 260.890535 
L 202.805546 261.73398 
L 204.166014 262.066916 
L 207.567136 262.921814 
L 209.607821 263.499992 
L 210.628164 263.723245 
L 211.648507 264.016557 
L 224.912964 267.47323 
L 226.273432 267.751325 
L 227.293775 268.029 
L 230.354803 268.705611 
L 231.715271 269.076042 
L 233.415832 269.458656 
L 236.816985 270.266443 
L 238.177421 270.552082 
L 238.857671 270.696515 
L 241.918699 271.328234 
L 243.61926 271.667602 
L 248.720975 272.6015 
L 249.741318 272.732429 
L 264.366242 274.593267 
L 265.04646 274.615489 
L 266.066803 274.742701 
L 266.747021 274.789033 
L 267.767364 274.910079 
L 269.467956 274.968978 
L 270.148175 275.061709 
L 284.432975 275.889588 
L 285.793442 275.916092 
L 289.534689 276.096873 
L 290.555032 276.130292 
L 293.956185 276.192465 
L 298.037556 276.322301 
L 299.057899 276.32478 
L 301.438679 276.411115 
L 301.778803 276.356182 
L 302.118928 276.451401 
L 302.459021 276.375209 
L 303.819489 276.452462 
L 313.342699 276.535071 
L 314.363042 276.534461 
L 314.703136 276.612245 
L 315.04326 276.533615 
L 316.063603 276.595509 
L 317.083946 276.537892 
L 317.764164 276.616124 
L 318.104289 276.54153 
L 318.444414 276.647018 
L 320.144975 276.535078 
L 320.485099 276.72126 
L 320.825193 276.605277 
L 322.18566 276.808545 
L 322.525785 276.567684 
L 323.206003 276.773765 
L 323.546128 276.707011 
L 324.226346 276.809471 
L 324.566471 276.773377 
L 324.906564 276.599804 
L 325.246689 276.732643 
L 325.586814 277.008032 
L 326.267032 276.766778 
L 326.94725 276.813821 
L 328.647842 276.819864 
L 328.987936 276.736961 
L 329.668185 276.997146 
L 330.008279 277.017475 
L 330.688528 276.745851 
L 331.028621 276.565613 
L 331.368746 276.91828 
L 332.048964 277.050443 
L 332.389089 276.851969 
L 332.729214 277.123426 
L 333.069307 276.830988 
L 333.409432 276.910563 
L 333.749556 276.809817 
L 334.429775 277.072529 
L 334.769899 276.919758 
L 335.109993 276.936095 
L 335.450118 276.768736 
L 335.790242 276.968016 
L 336.130336 276.605671 
L 336.810585 277.156433 
L 337.150679 276.774947 
L 337.830928 276.726498 
L 338.171021 277.063822 
L 338.511146 277.19138 
L 338.851271 276.486937 
L 339.191364 276.411074 
L 339.531489 276.899308 
L 339.871614 276.950378 
L 340.211707 277.205218 
L 340.551832 277.316175 
L 340.891956 277.574539 
L 341.23205 277.104012 
L 341.572175 276.944818 
L 341.912299 277.241426 
L 342.932642 277.238829 
L 343.272736 277.500314 
L 343.61286 276.706582 
L 343.952985 277.260424 
L 344.293079 277.432355 
L 344.633203 276.775653 
L 344.973328 277.236087 
L 345.313421 277.377638 
L 345.653546 277.800053 
L 346.333764 276.645689 
L 346.673889 276.955717 
L 347.013982 277.623849 
L 349.394793 277.611104 
L 351.775572 277.609484 
L 371.842336 277.687728 
L 376.263801 277.640134 
L 398.711344 277.704636 
L 398.711344 277.704636 
" clip-path="url(#pf03539f95f)" style="fill: none; stroke: #e13342; stroke-linecap: round"/>
   </g>
   <g id="line2d_30">
    <path d="M 41.591359 209.537084 
L 42.951827 207.233017 
L 43.972169 205.306557 
L 45.332621 202.27386 
L 47.713416 196.021014 
L 50.094227 188.660861 
L 53.155255 177.207335 
L 57.236627 162.067166 
L 59.617421 153.098663 
L 60.977873 148.211715 
L 61.998216 145.076957 
L 63.018559 142.606646 
L 64.038902 140.671938 
L 64.719136 139.578271 
L 66.759821 137.208371 
L 68.460398 135.861062 
L 69.480741 135.359585 
L 70.160959 135.265637 
L 70.841193 135.389293 
L 71.521427 135.828023 
L 72.201645 136.54647 
L 72.541769 136.966959 
L 73.902221 139.564598 
L 74.922564 142.005225 
L 78.663827 152.155204 
L 80.364388 156.21453 
L 82.064964 159.633399 
L 83.765541 162.572474 
L 85.466118 164.977808 
L 87.166679 166.996233 
L 89.207364 169.031654 
L 92.608518 172.126068 
L 93.62886 172.986301 
L 94.989312 174.160846 
L 97.370107 176.031212 
L 98.730575 176.937182 
L 100.77126 178.140484 
L 101.451479 178.519819 
L 104.172398 179.887486 
L 105.192741 180.421107 
L 109.274112 182.736927 
L 113.015375 185.317016 
L 115.396169 187.291362 
L 117.436855 189.182332 
L 121.518227 193.707454 
L 126.96005 200.918811 
L 131.041421 207.392957 
L 134.442575 213.491577 
L 139.884398 223.936501 
L 147.366907 238.146206 
L 154.509307 250.968527 
L 156.549993 254.323011 
L 159.611021 258.703619 
L 161.311582 260.845013 
L 164.032518 263.691623 
L 167.093546 266.134577 
L 168.794107 267.224713 
L 170.834793 268.278587 
L 172.19526 268.889765 
L 177.977193 270.729179 
L 180.017879 271.208238 
L 182.058564 271.559689 
L 186.139936 272.18338 
L 187.840528 272.38362 
L 190.901556 272.737465 
L 197.703832 273.408086 
L 198.724175 273.503864 
L 201.104985 273.750414 
L 201.445079 273.710894 
L 202.125328 273.806606 
L 204.846232 273.992514 
L 209.947946 274.353349 
L 210.628164 274.349111 
L 223.892621 274.864527 
L 226.273432 274.864548 
L 228.654242 274.894705 
L 229.674585 274.878091 
L 237.837328 275.086298 
L 240.218107 275.117338 
L 241.578575 275.178031 
L 244.979728 275.16986 
L 246.680289 275.216541 
L 250.081442 275.257834 
L 268.107489 275.435553 
L 271.168518 275.505346 
L 272.18886 275.497422 
L 282.052164 275.683285 
L 282.732414 275.656798 
L 284.773099 275.756725 
L 286.813785 275.75937 
L 287.834128 275.760605 
L 307.220642 276.181766 
L 307.90086 276.162339 
L 308.921203 276.252909 
L 309.601421 276.271966 
L 310.961889 276.249178 
L 314.363042 276.371037 
L 314.703136 276.240867 
L 315.383385 276.358446 
L 315.723479 276.293452 
L 316.743821 276.350261 
L 317.083946 276.262629 
L 317.424071 276.427475 
L 317.764164 276.360709 
L 318.444414 276.443604 
L 319.464756 276.400228 
L 320.485099 276.528999 
L 320.825193 276.429966 
L 321.505442 276.473928 
L 321.845536 276.372974 
L 322.525785 276.488733 
L 326.94725 276.565599 
L 327.287375 276.708346 
L 327.967593 276.397792 
L 328.647842 276.674381 
L 328.987936 276.452046 
L 330.008279 276.623459 
L 330.348403 276.413835 
L 330.688528 276.512507 
L 331.368746 276.369378 
L 331.708871 276.742752 
L 332.048964 276.836111 
L 332.389089 276.739493 
L 332.729214 276.505678 
L 333.069307 276.735722 
L 333.409432 276.769808 
L 334.429775 276.569216 
L 334.769899 276.775598 
L 335.109993 276.714084 
L 335.450118 276.51162 
L 335.790242 276.67625 
L 336.130336 276.580926 
L 336.47046 276.738248 
L 336.810585 276.71099 
L 337.150679 276.294716 
L 337.490803 276.116791 
L 337.830928 276.695847 
L 338.511146 276.331078 
L 338.851271 276.812977 
L 339.191364 276.974955 
L 339.531489 276.564199 
L 340.211707 276.641063 
L 340.551832 277.091589 
L 340.891956 276.623701 
L 341.23205 276.614295 
L 341.572175 276.943244 
L 341.912299 276.846618 
L 342.252393 276.375042 
L 342.592518 276.719412 
L 342.932642 276.619019 
L 343.272736 277.322798 
L 343.61286 276.827303 
L 343.952985 277.183564 
L 344.633203 276.188989 
L 344.973328 276.619691 
L 345.313421 276.755876 
L 345.653546 276.647434 
L 345.993671 277.241488 
L 346.333764 277.390779 
L 346.673889 276.438381 
L 347.013982 277.000763 
L 350.075011 277.016833 
L 360.618564 277.075964 
L 384.426544 277.177437 
L 387.147479 277.172398 
L 398.711344 277.212261 
L 398.711344 277.212261 
" clip-path="url(#pf03539f95f)" style="fill: none; stroke: #ad1759; stroke-linecap: round"/>
   </g>
   <g id="line2d_31">
    <path d="M 41.761421 207.73773 
L 42.271593 207.056526 
L 44.312279 203.333385 
L 45.842793 199.912033 
L 47.373307 196.07622 
L 49.924164 188.616282 
L 51.96485 181.248063 
L 57.576736 160.422906 
L 61.658107 146.374326 
L 62.67845 143.878453 
L 63.698793 142.059804 
L 64.719136 140.803557 
L 65.739479 139.946924 
L 66.759821 139.320347 
L 68.290336 138.89372 
L 69.310679 138.897939 
L 70.331021 139.305278 
L 71.351364 140.283696 
L 72.371707 141.878444 
L 73.39205 144.127225 
L 74.922564 148.36462 
L 78.493764 159.242056 
L 80.024279 163.081414 
L 81.044621 165.337024 
L 83.085307 168.966883 
L 84.615821 171.071634 
L 86.146336 172.836688 
L 88.697193 175.129477 
L 91.24805 176.808799 
L 92.778564 177.725594 
L 96.349764 179.74478 
L 101.96165 182.895209 
L 105.53285 185.263397 
L 109.10405 188.155347 
L 111.654907 190.500875 
L 114.205764 193.345693 
L 116.756621 196.344272 
L 119.307479 199.569964 
L 123.38885 205.329755 
L 126.96005 210.912372 
L 132.061764 219.745049 
L 136.143136 227.362302 
L 138.693993 232.193143 
L 141.755021 237.831811 
L 146.856736 246.829141 
L 153.488964 257.388878 
L 156.039821 261.00968 
L 159.10085 264.802442 
L 161.141536 266.945572 
L 163.182221 268.746117 
L 165.222907 270.210721 
L 167.773764 271.651834 
L 171.344964 273.049326 
L 173.895821 273.703401 
L 176.95685 274.283811 
L 180.52805 274.645 
L 182.568736 274.779505 
L 184.609421 274.86061 
L 205.52645 275.390641 
L 216.750221 275.40653 
L 219.301079 275.404508 
L 227.973993 275.286375 
L 232.565536 275.226509 
L 234.606221 275.297515 
L 236.136736 275.319924 
L 241.23845 275.396507 
L 244.299479 275.419485 
L 252.462221 275.440661 
L 256.033421 275.441081 
L 264.706336 275.492477 
L 267.257193 275.478579 
L 268.787707 275.544466 
L 269.80805 275.503325 
L 272.358907 275.534504 
L 274.399593 275.546815 
L 277.460621 275.580415 
L 282.052164 275.613684 
L 285.113193 275.689541 
L 286.133536 275.686295 
L 287.66405 275.7611 
L 289.194564 275.758197 
L 291.23525 275.798432 
L 292.255593 275.814036 
L 295.826793 275.833333 
L 299.908164 275.912872 
L 313.172621 276.050909 
L 313.682793 276.159439 
L 314.192964 276.093853 
L 314.703136 276.191262 
L 315.213307 276.079345 
L 316.23365 276.216842 
L 317.253993 276.117229 
L 318.274336 276.179138 
L 321.335364 276.150886 
L 321.845536 276.250352 
L 322.355707 276.174535 
L 322.865879 276.252444 
L 323.886221 276.208397 
L 324.906564 276.32839 
L 325.926907 276.300328 
L 326.437079 276.400325 
L 326.94725 276.230617 
L 327.967593 276.326536 
L 328.477764 276.474753 
L 328.987936 276.445554 
L 329.498107 276.302488 
L 330.51845 276.234773 
L 331.028621 276.205972 
L 331.538793 276.42409 
L 333.069307 276.44153 
L 333.579479 276.166768 
L 334.599821 276.434933 
L 335.109993 276.813399 
L 335.620164 276.668434 
L 336.130336 276.17879 
L 336.640507 276.459579 
L 337.150679 276.103406 
L 337.66085 276.485765 
L 338.171021 276.29141 
L 338.681193 276.544871 
L 339.191364 276.320585 
L 340.211707 276.727585 
L 340.721879 276.572098 
L 341.23205 277.043211 
L 341.742221 276.04037 
L 342.252393 276.494058 
L 342.762564 276.708554 
L 343.272736 276.681989 
L 343.782907 276.393753 
L 344.293079 276.910093 
L 344.80325 276.67463 
L 345.313421 276.830338 
L 345.823593 277.220447 
L 346.333764 275.701075 
L 346.843936 276.745851 
L 347.354107 276.901982 
L 398.881421 277.067237 
L 398.881421 277.067237 
" clip-path="url(#pf03539f95f)" style="fill: none; stroke: #701f57; stroke-linecap: round"/>
   </g>
   <g id="line2d_32">
    <path d="M 41.251234 257.421676 
L 42.951795 254.216283 
L 45.332606 247.943233 
L 46.693058 243.724133 
L 48.393634 238.241272 
L 49.413977 234.653922 
L 51.114538 227.913283 
L 53.155224 218.949388 
L 56.556377 204.362496 
L 61.317967 185.754398 
L 63.018544 181.189923 
L 64.038886 179.272829 
L 64.71912 178.252878 
L 66.079572 176.855693 
L 67.440024 176.14317 
L 68.120258 175.891551 
L 69.48071 175.825456 
L 70.501053 176.23573 
L 71.521395 177.310895 
L 72.201629 178.29944 
L 72.881863 179.613867 
L 73.562081 181.208171 
L 74.922549 184.82385 
L 77.303344 191.845154 
L 78.663795 195.45797 
L 80.024263 198.576685 
L 82.064949 202.127958 
L 83.425401 203.841223 
L 84.445744 204.896624 
L 85.466086 205.742923 
L 87.166663 206.830262 
L 89.547458 207.903198 
L 90.907925 208.30263 
L 92.948611 208.896858 
L 95.329406 209.549472 
L 96.349749 209.779662 
L 97.370092 210.09307 
L 98.730544 210.496904 
L 99.750886 210.820431 
L 100.43112 211.03591 
L 105.192725 212.98264 
L 106.213068 213.550812 
L 107.233411 214.12733 
L 108.933972 215.217246 
L 110.974658 216.683432 
L 114.375811 219.681234 
L 118.117058 223.789683 
L 120.837977 227.135704 
L 124.57924 232.30557 
L 127.980377 237.550757 
L 131.381515 243.378804 
L 134.442544 248.995647 
L 144.986097 268.946889 
L 148.387234 274.939543 
L 153.829058 283.774242 
L 156.549962 287.669168 
L 158.590647 290.276007 
L 160.971458 292.846299 
L 162.331925 294.095758 
L 164.712705 295.861134 
L 167.43364 297.402574 
L 169.814419 298.252527 
L 173.895821 299.039147 
L 178.997536 299.286632 
L 180.357972 299.261513 
L 182.058564 299.215761 
L 185.459686 299.069208 
L 186.480029 298.988146 
L 189.881182 298.717196 
L 192.942211 298.407609 
L 195.323021 298.11856 
L 202.805515 297.339267 
L 206.546793 297.08807 
L 207.567136 297.014349 
L 214.029286 296.50985 
L 215.729879 296.352924 
L 218.450782 296.101561 
L 228.994336 294.910175 
L 233.075707 294.536585 
L 238.517515 294.22444 
L 239.877982 294.116965 
L 244.639572 293.820707 
L 245.319821 293.728673 
L 248.040725 293.576809 
L 251.781972 293.304102 
L 252.802315 293.281595 
L 254.162782 293.167754 
L 255.183125 293.127989 
L 258.924372 292.899217 
L 264.366211 292.621962 
L 284.773068 291.505097 
L 286.473629 291.436964 
L 287.153879 291.369986 
L 288.174221 291.375911 
L 288.85444 291.293429 
L 301.098554 290.724837 
L 302.118897 290.63855 
L 310.961858 290.179763 
L 311.301982 290.214029 
L 311.982201 290.090886 
L 315.723479 289.875472 
L 316.743821 289.85089 
L 318.444382 289.659841 
L 326.607125 289.255522 
L 326.94725 289.115913 
L 327.287344 289.257074 
L 327.627468 289.075636 
L 327.967593 289.186223 
L 328.307686 289.062216 
L 328.647811 289.171945 
L 329.328029 288.684054 
L 329.668154 289.038593 
L 330.348372 289.084777 
L 330.688497 288.942085 
L 331.028621 288.959752 
L 331.368715 288.842456 
L 331.70884 288.919347 
L 332.048964 288.764242 
L 332.389058 288.839528 
L 332.729182 288.779605 
L 333.069307 288.98481 
L 333.409401 288.769018 
L 334.08965 288.831153 
L 334.429744 289.176009 
L 334.769868 288.573547 
L 335.109993 288.578918 
L 335.450086 289.064617 
L 335.790211 288.930667 
L 336.130336 288.544102 
L 336.470429 288.393947 
L 336.810554 288.840649 
L 337.490772 289.009266 
L 337.830897 288.384564 
L 338.171021 288.261873 
L 338.511115 288.518386 
L 339.191364 288.54845 
L 339.531458 288.931339 
L 339.871582 288.748429 
L 340.211707 288.346724 
L 340.551801 288.907727 
L 341.572144 288.773034 
L 341.912268 288.372015 
L 342.252393 289.184024 
L 342.592486 288.410949 
L 342.932611 287.983134 
L 343.272736 288.347011 
L 343.612829 289.003156 
L 343.952954 288.141747 
L 344.293079 288.981362 
L 344.633172 288.902695 
L 344.973297 288.573036 
L 345.653515 288.137885 
L 345.99364 288.506188 
L 346.333764 287.841501 
L 346.673858 287.540535 
L 347.013982 288.73754 
L 347.354107 290.397403 
L 349.734918 290.302627 
L 352.455821 290.185997 
L 355.51685 290.059729 
L 365.04006 289.701189 
L 374.56324 289.499891 
L 377.284175 289.651401 
L 378.644611 289.832655 
L 380.005079 289.728733 
L 383.406232 289.269976 
L 392.249193 288.856725 
L 394.630003 288.770552 
L 398.711375 288.610029 
L 398.711375 288.610029 
" clip-path="url(#pf03539f95f)" style="fill: none; stroke: #35193e; stroke-linecap: round"/>
   </g>
   <g id="line2d_33"/>
   <g id="line2d_34"/>
   <g id="line2d_35"/>
   <g id="line2d_36"/>
   <g id="line2d_37"/>
   <g id="line2d_38"/>
   <g id="patch_3">
    <path d="M 41.25125 277.248797 
L 41.25125 11.136797 
" style="fill: none; stroke: #262626; stroke-width: 1.25; stroke-linejoin: miter; stroke-linecap: square"/>
   </g>
   <g id="patch_4">
    <path d="M 41.25125 277.248797 
L 398.37125 277.248797 
" style="fill: none; stroke: #262626; stroke-width: 1.25; stroke-linejoin: miter; stroke-linecap: square"/>
   </g>
   <g id="legend_1">
    <g id="line2d_39">
     <path d="M 259.592375 45.415809 
L 265.592375 45.415809 
L 271.592375 45.415809 
" style="fill: none; stroke: #f6b48f; stroke-width: 1.5; stroke-linecap: round"/>
    </g>
    <g id="text_17">
     <!-- t=0hrs FeCl3 0uM_Abs -->
     <g style="fill: #262626" transform="translate(276.392375 47.515809) scale(0.06 -0.06)">
      <defs>
       <path id="ArialMT-3d" d="M 3381 2694 
L 356 2694 
L 356 3219 
L 3381 3219 
L 3381 2694 
z
M 3381 1303 
L 356 1303 
L 356 1828 
L 3381 1828 
L 3381 1303 
z
" transform="scale(0.015625)"/>
       <path id="ArialMT-46" d="M 525 0 
L 525 4581 
L 3616 4581 
L 3616 4041 
L 1131 4041 
L 1131 2622 
L 3281 2622 
L 3281 2081 
L 1131 2081 
L 1131 0 
L 525 0 
z
" transform="scale(0.015625)"/>
       <path id="ArialMT-43" d="M 3763 1606 
L 4369 1453 
Q 4178 706 3683 314 
Q 3188 -78 2472 -78 
Q 1731 -78 1267 223 
Q 803 525 561 1097 
Q 319 1669 319 2325 
Q 319 3041 592 3573 
Q 866 4106 1370 4382 
Q 1875 4659 2481 4659 
Q 3169 4659 3637 4309 
Q 4106 3959 4291 3325 
L 3694 3184 
Q 3534 3684 3231 3912 
Q 2928 4141 2469 4141 
Q 1941 4141 1586 3887 
Q 1231 3634 1087 3207 
Q 944 2781 944 2328 
Q 944 1744 1114 1308 
Q 1284 872 1643 656 
Q 2003 441 2422 441 
Q 2931 441 3284 734 
Q 3638 1028 3763 1606 
z
" transform="scale(0.015625)"/>
       <path id="ArialMT-4d" d="M 475 0 
L 475 4581 
L 1388 4581 
L 2472 1338 
Q 2622 884 2691 659 
Q 2769 909 2934 1394 
L 4031 4581 
L 4847 4581 
L 4847 0 
L 4263 0 
L 4263 3834 
L 2931 0 
L 2384 0 
L 1059 3900 
L 1059 0 
L 475 0 
z
" transform="scale(0.015625)"/>
       <path id="ArialMT-5f" d="M -97 -1272 
L -97 -866 
L 3631 -866 
L 3631 -1272 
L -97 -1272 
z
" transform="scale(0.015625)"/>
      </defs>
      <use xlink:href="#ArialMT-74"/>
      <use xlink:href="#ArialMT-3d" x="27.783203"/>
      <use xlink:href="#ArialMT-30" x="86.181641"/>
      <use xlink:href="#ArialMT-68" x="141.796875"/>
      <use xlink:href="#ArialMT-72" x="197.412109"/>
      <use xlink:href="#ArialMT-73" x="230.712891"/>
      <use xlink:href="#ArialMT-20" x="280.712891"/>
      <use xlink:href="#ArialMT-46" x="308.496094"/>
      <use xlink:href="#ArialMT-65" x="369.580078"/>
      <use xlink:href="#ArialMT-43" x="425.195312"/>
      <use xlink:href="#ArialMT-6c" x="497.412109"/>
      <use xlink:href="#ArialMT-33" x="519.628906"/>
      <use xlink:href="#ArialMT-20" x="575.244141"/>
      <use xlink:href="#ArialMT-30" x="603.027344"/>
      <use xlink:href="#ArialMT-75" x="658.642578"/>
      <use xlink:href="#ArialMT-4d" x="714.257812"/>
      <use xlink:href="#ArialMT-5f" x="797.558594"/>
      <use xlink:href="#ArialMT-41" x="853.173828"/>
      <use xlink:href="#ArialMT-62" x="919.873047"/>
      <use xlink:href="#ArialMT-73" x="975.488281"/>
     </g>
    </g>
    <g id="line2d_40">
     <path d="M 259.592375 53.976122 
L 265.592375 53.976122 
L 271.592375 53.976122 
" style="fill: none; stroke: #f37651; stroke-width: 1.5; stroke-linecap: round"/>
    </g>
    <g id="text_18">
     <!-- t=0hrs FeCl3 5uM repeat_Abs -->
     <g style="fill: #262626" transform="translate(276.392375 56.076122) scale(0.06 -0.06)">
      <defs>
       <path id="ArialMT-70" d="M 422 -1272 
L 422 3319 
L 934 3319 
L 934 2888 
Q 1116 3141 1344 3267 
Q 1572 3394 1897 3394 
Q 2322 3394 2647 3175 
Q 2972 2956 3137 2557 
Q 3303 2159 3303 1684 
Q 3303 1175 3120 767 
Q 2938 359 2589 142 
Q 2241 -75 1856 -75 
Q 1575 -75 1351 44 
Q 1128 163 984 344 
L 984 -1272 
L 422 -1272 
z
M 931 1641 
Q 931 1000 1190 694 
Q 1450 388 1819 388 
Q 2194 388 2461 705 
Q 2728 1022 2728 1688 
Q 2728 2322 2467 2637 
Q 2206 2953 1844 2953 
Q 1484 2953 1207 2617 
Q 931 2281 931 1641 
z
" transform="scale(0.015625)"/>
      </defs>
      <use xlink:href="#ArialMT-74"/>
      <use xlink:href="#ArialMT-3d" x="27.783203"/>
      <use xlink:href="#ArialMT-30" x="86.181641"/>
      <use xlink:href="#ArialMT-68" x="141.796875"/>
      <use xlink:href="#ArialMT-72" x="197.412109"/>
      <use xlink:href="#ArialMT-73" x="230.712891"/>
      <use xlink:href="#ArialMT-20" x="280.712891"/>
      <use xlink:href="#ArialMT-46" x="308.496094"/>
      <use xlink:href="#ArialMT-65" x="369.580078"/>
      <use xlink:href="#ArialMT-43" x="425.195312"/>
      <use xlink:href="#ArialMT-6c" x="497.412109"/>
      <use xlink:href="#ArialMT-33" x="519.628906"/>
      <use xlink:href="#ArialMT-20" x="575.244141"/>
      <use xlink:href="#ArialMT-35" x="603.027344"/>
      <use xlink:href="#ArialMT-75" x="658.642578"/>
      <use xlink:href="#ArialMT-4d" x="714.257812"/>
      <use xlink:href="#ArialMT-20" x="797.558594"/>
      <use xlink:href="#ArialMT-72" x="825.341797"/>
      <use xlink:href="#ArialMT-65" x="858.642578"/>
      <use xlink:href="#ArialMT-70" x="914.257812"/>
      <use xlink:href="#ArialMT-65" x="969.873047"/>
      <use xlink:href="#ArialMT-61" x="1025.488281"/>
      <use xlink:href="#ArialMT-74" x="1081.103516"/>
      <use xlink:href="#ArialMT-5f" x="1108.886719"/>
      <use xlink:href="#ArialMT-41" x="1164.501953"/>
      <use xlink:href="#ArialMT-62" x="1231.201172"/>
      <use xlink:href="#ArialMT-73" x="1286.816406"/>
     </g>
    </g>
    <g id="line2d_41">
     <path d="M 259.592375 62.536434 
L 265.592375 62.536434 
L 271.592375 62.536434 
" style="fill: none; stroke: #e13342; stroke-width: 1.5; stroke-linecap: round"/>
    </g>
    <g id="text_19">
     <!-- t=1hrs FeCl3 5uM_Abs -->
     <g style="fill: #262626" transform="translate(276.392375 64.636434) scale(0.06 -0.06)">
      <use xlink:href="#ArialMT-74"/>
      <use xlink:href="#ArialMT-3d" x="27.783203"/>
      <use xlink:href="#ArialMT-31" x="86.181641"/>
      <use xlink:href="#ArialMT-68" x="141.796875"/>
      <use xlink:href="#ArialMT-72" x="197.412109"/>
      <use xlink:href="#ArialMT-73" x="230.712891"/>
      <use xlink:href="#ArialMT-20" x="280.712891"/>
      <use xlink:href="#ArialMT-46" x="308.496094"/>
      <use xlink:href="#ArialMT-65" x="369.580078"/>
      <use xlink:href="#ArialMT-43" x="425.195312"/>
      <use xlink:href="#ArialMT-6c" x="497.412109"/>
      <use xlink:href="#ArialMT-33" x="519.628906"/>
      <use xlink:href="#ArialMT-20" x="575.244141"/>
      <use xlink:href="#ArialMT-35" x="603.027344"/>
      <use xlink:href="#ArialMT-75" x="658.642578"/>
      <use xlink:href="#ArialMT-4d" x="714.257812"/>
      <use xlink:href="#ArialMT-5f" x="797.558594"/>
      <use xlink:href="#ArialMT-41" x="853.173828"/>
      <use xlink:href="#ArialMT-62" x="919.873047"/>
      <use xlink:href="#ArialMT-73" x="975.488281"/>
     </g>
    </g>
    <g id="line2d_42">
     <path d="M 259.592375 71.096747 
L 265.592375 71.096747 
L 271.592375 71.096747 
" style="fill: none; stroke: #ad1759; stroke-width: 1.5; stroke-linecap: round"/>
    </g>
    <g id="text_20">
     <!-- t=3hrs FeCl3 5uM_Abs -->
     <g style="fill: #262626" transform="translate(276.392375 73.196747) scale(0.06 -0.06)">
      <use xlink:href="#ArialMT-74"/>
      <use xlink:href="#ArialMT-3d" x="27.783203"/>
      <use xlink:href="#ArialMT-33" x="86.181641"/>
      <use xlink:href="#ArialMT-68" x="141.796875"/>
      <use xlink:href="#ArialMT-72" x="197.412109"/>
      <use xlink:href="#ArialMT-73" x="230.712891"/>
      <use xlink:href="#ArialMT-20" x="280.712891"/>
      <use xlink:href="#ArialMT-46" x="308.496094"/>
      <use xlink:href="#ArialMT-65" x="369.580078"/>
      <use xlink:href="#ArialMT-43" x="425.195312"/>
      <use xlink:href="#ArialMT-6c" x="497.412109"/>
      <use xlink:href="#ArialMT-33" x="519.628906"/>
      <use xlink:href="#ArialMT-20" x="575.244141"/>
      <use xlink:href="#ArialMT-35" x="603.027344"/>
      <use xlink:href="#ArialMT-75" x="658.642578"/>
      <use xlink:href="#ArialMT-4d" x="714.257812"/>
      <use xlink:href="#ArialMT-5f" x="797.558594"/>
      <use xlink:href="#ArialMT-41" x="853.173828"/>
      <use xlink:href="#ArialMT-62" x="919.873047"/>
      <use xlink:href="#ArialMT-73" x="975.488281"/>
     </g>
    </g>
    <g id="line2d_43">
     <path d="M 259.592375 79.657059 
L 265.592375 79.657059 
L 271.592375 79.657059 
" style="fill: none; stroke: #701f57; stroke-width: 1.5; stroke-linecap: round"/>
    </g>
    <g id="text_21">
     <!-- t=5hrs FeCl3 5uM_Abs -->
     <g style="fill: #262626" transform="translate(276.392375 81.757059) scale(0.06 -0.06)">
      <use xlink:href="#ArialMT-74"/>
      <use xlink:href="#ArialMT-3d" x="27.783203"/>
      <use xlink:href="#ArialMT-35" x="86.181641"/>
      <use xlink:href="#ArialMT-68" x="141.796875"/>
      <use xlink:href="#ArialMT-72" x="197.412109"/>
      <use xlink:href="#ArialMT-73" x="230.712891"/>
      <use xlink:href="#ArialMT-20" x="280.712891"/>
      <use xlink:href="#ArialMT-46" x="308.496094"/>
      <use xlink:href="#ArialMT-65" x="369.580078"/>
      <use xlink:href="#ArialMT-43" x="425.195312"/>
      <use xlink:href="#ArialMT-6c" x="497.412109"/>
      <use xlink:href="#ArialMT-33" x="519.628906"/>
      <use xlink:href="#ArialMT-20" x="575.244141"/>
      <use xlink:href="#ArialMT-35" x="603.027344"/>
      <use xlink:href="#ArialMT-75" x="658.642578"/>
      <use xlink:href="#ArialMT-4d" x="714.257812"/>
      <use xlink:href="#ArialMT-5f" x="797.558594"/>
      <use xlink:href="#ArialMT-41" x="853.173828"/>
      <use xlink:href="#ArialMT-62" x="919.873047"/>
      <use xlink:href="#ArialMT-73" x="975.488281"/>
     </g>
    </g>
    <g id="line2d_44">
     <path d="M 259.592375 88.217372 
L 265.592375 88.217372 
L 271.592375 88.217372 
" style="fill: none; stroke: #35193e; stroke-width: 1.5; stroke-linecap: round"/>
    </g>
    <g id="text_22">
     <!-- imine t=24hrs FeCl3 5uM_Abs -->
     <g style="fill: #262626" transform="translate(276.392375 90.317372) scale(0.06 -0.06)">
      <defs>
       <path id="ArialMT-69" d="M 425 3934 
L 425 4581 
L 988 4581 
L 988 3934 
L 425 3934 
z
M 425 0 
L 425 3319 
L 988 3319 
L 988 0 
L 425 0 
z
" transform="scale(0.015625)"/>
      </defs>
      <use xlink:href="#ArialMT-69"/>
      <use xlink:href="#ArialMT-6d" x="22.216797"/>
      <use xlink:href="#ArialMT-69" x="105.517578"/>
      <use xlink:href="#ArialMT-6e" x="127.734375"/>
      <use xlink:href="#ArialMT-65" x="183.349609"/>
      <use xlink:href="#ArialMT-20" x="238.964844"/>
      <use xlink:href="#ArialMT-74" x="266.748047"/>
      <use xlink:href="#ArialMT-3d" x="294.53125"/>
      <use xlink:href="#ArialMT-32" x="352.929688"/>
      <use xlink:href="#ArialMT-34" x="408.544922"/>
      <use xlink:href="#ArialMT-68" x="464.160156"/>
      <use xlink:href="#ArialMT-72" x="519.775391"/>
      <use xlink:href="#ArialMT-73" x="553.076172"/>
      <use xlink:href="#ArialMT-20" x="603.076172"/>
      <use xlink:href="#ArialMT-46" x="630.859375"/>
      <use xlink:href="#ArialMT-65" x="691.943359"/>
      <use xlink:href="#ArialMT-43" x="747.558594"/>
      <use xlink:href="#ArialMT-6c" x="819.775391"/>
      <use xlink:href="#ArialMT-33" x="841.992188"/>
      <use xlink:href="#ArialMT-20" x="897.607422"/>
      <use xlink:href="#ArialMT-35" x="925.390625"/>
      <use xlink:href="#ArialMT-75" x="981.005859"/>
      <use xlink:href="#ArialMT-4d" x="1036.621094"/>
      <use xlink:href="#ArialMT-5f" x="1119.921875"/>
      <use xlink:href="#ArialMT-41" x="1175.537109"/>
      <use xlink:href="#ArialMT-62" x="1242.236328"/>
      <use xlink:href="#ArialMT-73" x="1297.851562"/>
     </g>
    </g>
   </g>
  </g>
 </g>
 <defs>
  <clipPath id="pf03539f95f">
   <rect x="41.25125" y="11.136797" width="357.12" height="266.112"/>
  </clipPath>
 </defs>
</svg>
