<?xml version="1.0" encoding="utf-8" standalone="no"?>
<!DOCTYPE svg PUBLIC "-//W3C//DTD SVG 1.1//EN"
  "http://www.w3.org/Graphics/SVG/1.1/DTD/svg11.dtd">
<svg xmlns:xlink="http://www.w3.org/1999/xlink" width="417.805313pt" height="313.269891pt" viewBox="0 0 417.805313 313.269891" xmlns="http://www.w3.org/2000/svg" version="1.1">
 <metadata>
  <rdf:RDF xmlns:dc="http://purl.org/dc/elements/1.1/" xmlns:cc="http://creativecommons.org/ns#" xmlns:rdf="http://www.w3.org/1999/02/22-rdf-syntax-ns#">
   <cc:Work>
    <dc:type rdf:resource="http://purl.org/dc/dcmitype/StillImage"/>
    <dc:date>2024-11-04T14:35:00.538595</dc:date>
    <dc:format>image/svg+xml</dc:format>
    <dc:creator>
     <cc:Agent>
      <dc:title>Matplotlib v3.7.1, https://matplotlib.org/</dc:title>
     </cc:Agent>
    </dc:creator>
   </cc:Work>
  </rdf:RDF>
 </metadata>
 <defs>
  <style type="text/css">*{stroke-linejoin: round; stroke-linecap: butt}</style>
 </defs>
 <g id="figure_1">
  <g id="patch_1">
   <path d="M 0 313.269891 
L 417.805313 313.269891 
L 417.805313 0 
L 0 0 
z
" style="fill: #ffffff"/>
  </g>
  <g id="axes_1">
   <g id="patch_2">
    <path d="M 41.25125 277.248797 
L 398.37125 277.248797 
L 398.37125 11.136797 
L 41.25125 11.136797 
z
" style="fill: #ffffff"/>
   </g>
   <g id="matplotlib.axis_1">
    <g id="xtick_1">
     <g id="line2d_1">
      <defs>
       <path id="mfa1b0f6490" d="M 0 0 
L 0 -6 
" style="stroke: #262626; stroke-width: 1.25"/>
      </defs>
      <g>
       <use xlink:href="#mfa1b0f6490" x="73.716705" y="277.248797" style="fill: #262626; stroke: #262626; stroke-width: 1.25"/>
      </g>
     </g>
     <g id="text_1">
      <!-- 400 -->
      <g style="fill: #262626" transform="translate(64.541158 288.622391) scale(0.11 -0.11)">
       <defs>
        <path id="ArialMT-34" d="M 2069 0 
L 2069 1097 
L 81 1097 
L 81 1613 
L 2172 4581 
L 2631 4581 
L 2631 1613 
L 3250 1613 
L 3250 1097 
L 2631 1097 
L 2631 0 
L 2069 0 
z
M 2069 1613 
L 2069 3678 
L 634 1613 
L 2069 1613 
z
" transform="scale(0.015625)"/>
        <path id="ArialMT-30" d="M 266 2259 
Q 266 3072 433 3567 
Q 600 4063 929 4331 
Q 1259 4600 1759 4600 
Q 2128 4600 2406 4451 
Q 2684 4303 2865 4023 
Q 3047 3744 3150 3342 
Q 3253 2941 3253 2259 
Q 3253 1453 3087 958 
Q 2922 463 2592 192 
Q 2263 -78 1759 -78 
Q 1097 -78 719 397 
Q 266 969 266 2259 
z
M 844 2259 
Q 844 1131 1108 757 
Q 1372 384 1759 384 
Q 2147 384 2411 759 
Q 2675 1134 2675 2259 
Q 2675 3391 2411 3762 
Q 2147 4134 1753 4134 
Q 1366 4134 1134 3806 
Q 844 3388 844 2259 
z
" transform="scale(0.015625)"/>
       </defs>
       <use xlink:href="#ArialMT-34"/>
       <use xlink:href="#ArialMT-30" x="55.615234"/>
       <use xlink:href="#ArialMT-30" x="111.230469"/>
      </g>
     </g>
    </g>
    <g id="xtick_2">
     <g id="line2d_2">
      <g>
       <use xlink:href="#mfa1b0f6490" x="138.647614" y="277.248797" style="fill: #262626; stroke: #262626; stroke-width: 1.25"/>
      </g>
     </g>
     <g id="text_2">
      <!-- 600 -->
      <g style="fill: #262626" transform="translate(129.472067 288.622391) scale(0.11 -0.11)">
       <defs>
        <path id="ArialMT-36" d="M 3184 3459 
L 2625 3416 
Q 2550 3747 2413 3897 
Q 2184 4138 1850 4138 
Q 1581 4138 1378 3988 
Q 1113 3794 959 3422 
Q 806 3050 800 2363 
Q 1003 2672 1297 2822 
Q 1591 2972 1913 2972 
Q 2475 2972 2870 2558 
Q 3266 2144 3266 1488 
Q 3266 1056 3080 686 
Q 2894 316 2569 119 
Q 2244 -78 1831 -78 
Q 1128 -78 684 439 
Q 241 956 241 2144 
Q 241 3472 731 4075 
Q 1159 4600 1884 4600 
Q 2425 4600 2770 4297 
Q 3116 3994 3184 3459 
z
M 888 1484 
Q 888 1194 1011 928 
Q 1134 663 1356 523 
Q 1578 384 1822 384 
Q 2178 384 2434 671 
Q 2691 959 2691 1453 
Q 2691 1928 2437 2201 
Q 2184 2475 1800 2475 
Q 1419 2475 1153 2201 
Q 888 1928 888 1484 
z
" transform="scale(0.015625)"/>
       </defs>
       <use xlink:href="#ArialMT-36"/>
       <use xlink:href="#ArialMT-30" x="55.615234"/>
       <use xlink:href="#ArialMT-30" x="111.230469"/>
      </g>
     </g>
    </g>
    <g id="xtick_3">
     <g id="line2d_3">
      <g>
       <use xlink:href="#mfa1b0f6490" x="203.578523" y="277.248797" style="fill: #262626; stroke: #262626; stroke-width: 1.25"/>
      </g>
     </g>
     <g id="text_3">
      <!-- 800 -->
      <g style="fill: #262626" transform="translate(194.402976 288.622391) scale(0.11 -0.11)">
       <defs>
        <path id="ArialMT-38" d="M 1131 2484 
Q 781 2613 612 2850 
Q 444 3088 444 3419 
Q 444 3919 803 4259 
Q 1163 4600 1759 4600 
Q 2359 4600 2725 4251 
Q 3091 3903 3091 3403 
Q 3091 3084 2923 2848 
Q 2756 2613 2416 2484 
Q 2838 2347 3058 2040 
Q 3278 1734 3278 1309 
Q 3278 722 2862 322 
Q 2447 -78 1769 -78 
Q 1091 -78 675 323 
Q 259 725 259 1325 
Q 259 1772 486 2073 
Q 713 2375 1131 2484 
z
M 1019 3438 
Q 1019 3113 1228 2906 
Q 1438 2700 1772 2700 
Q 2097 2700 2305 2904 
Q 2513 3109 2513 3406 
Q 2513 3716 2298 3927 
Q 2084 4138 1766 4138 
Q 1444 4138 1231 3931 
Q 1019 3725 1019 3438 
z
M 838 1322 
Q 838 1081 952 856 
Q 1066 631 1291 507 
Q 1516 384 1775 384 
Q 2178 384 2440 643 
Q 2703 903 2703 1303 
Q 2703 1709 2433 1975 
Q 2163 2241 1756 2241 
Q 1359 2241 1098 1978 
Q 838 1716 838 1322 
z
" transform="scale(0.015625)"/>
       </defs>
       <use xlink:href="#ArialMT-38"/>
       <use xlink:href="#ArialMT-30" x="55.615234"/>
       <use xlink:href="#ArialMT-30" x="111.230469"/>
      </g>
     </g>
    </g>
    <g id="xtick_4">
     <g id="line2d_4">
      <g>
       <use xlink:href="#mfa1b0f6490" x="268.509432" y="277.248797" style="fill: #262626; stroke: #262626; stroke-width: 1.25"/>
      </g>
     </g>
     <g id="text_4">
      <!-- 1000 -->
      <g style="fill: #262626" transform="translate(256.275369 288.622391) scale(0.11 -0.11)">
       <defs>
        <path id="ArialMT-31" d="M 2384 0 
L 1822 0 
L 1822 3584 
Q 1619 3391 1289 3197 
Q 959 3003 697 2906 
L 697 3450 
Q 1169 3672 1522 3987 
Q 1875 4303 2022 4600 
L 2384 4600 
L 2384 0 
z
" transform="scale(0.015625)"/>
       </defs>
       <use xlink:href="#ArialMT-31"/>
       <use xlink:href="#ArialMT-30" x="55.615234"/>
       <use xlink:href="#ArialMT-30" x="111.230469"/>
       <use xlink:href="#ArialMT-30" x="166.845703"/>
      </g>
     </g>
    </g>
    <g id="xtick_5">
     <g id="line2d_5">
      <g>
       <use xlink:href="#mfa1b0f6490" x="333.440341" y="277.248797" style="fill: #262626; stroke: #262626; stroke-width: 1.25"/>
      </g>
     </g>
     <g id="text_5">
      <!-- 1200 -->
      <g style="fill: #262626" transform="translate(321.206278 288.622391) scale(0.11 -0.11)">
       <defs>
        <path id="ArialMT-32" d="M 3222 541 
L 3222 0 
L 194 0 
Q 188 203 259 391 
Q 375 700 629 1000 
Q 884 1300 1366 1694 
Q 2113 2306 2375 2664 
Q 2638 3022 2638 3341 
Q 2638 3675 2398 3904 
Q 2159 4134 1775 4134 
Q 1369 4134 1125 3890 
Q 881 3647 878 3216 
L 300 3275 
Q 359 3922 746 4261 
Q 1134 4600 1788 4600 
Q 2447 4600 2831 4234 
Q 3216 3869 3216 3328 
Q 3216 3053 3103 2787 
Q 2991 2522 2730 2228 
Q 2469 1934 1863 1422 
Q 1356 997 1212 845 
Q 1069 694 975 541 
L 3222 541 
z
" transform="scale(0.015625)"/>
       </defs>
       <use xlink:href="#ArialMT-31"/>
       <use xlink:href="#ArialMT-32" x="55.615234"/>
       <use xlink:href="#ArialMT-30" x="111.230469"/>
       <use xlink:href="#ArialMT-30" x="166.845703"/>
      </g>
     </g>
    </g>
    <g id="xtick_6">
     <g id="line2d_6">
      <g>
       <use xlink:href="#mfa1b0f6490" x="398.37125" y="277.248797" style="fill: #262626; stroke: #262626; stroke-width: 1.25"/>
      </g>
     </g>
     <g id="text_6">
      <!-- 1400 -->
      <g style="fill: #262626" transform="translate(386.137188 288.622391) scale(0.11 -0.11)">
       <use xlink:href="#ArialMT-31"/>
       <use xlink:href="#ArialMT-34" x="55.615234"/>
       <use xlink:href="#ArialMT-30" x="111.230469"/>
       <use xlink:href="#ArialMT-30" x="166.845703"/>
      </g>
     </g>
    </g>
    <g id="xtick_7">
     <g id="line2d_7">
      <defs>
       <path id="m2e823cb181" d="M 0 0 
L 0 -4 
" style="stroke: #262626"/>
      </defs>
      <g>
       <use xlink:href="#m2e823cb181" x="106.182159" y="277.248797" style="fill: #262626; stroke: #262626"/>
      </g>
     </g>
    </g>
    <g id="xtick_8">
     <g id="line2d_8">
      <g>
       <use xlink:href="#m2e823cb181" x="171.113068" y="277.248797" style="fill: #262626; stroke: #262626"/>
      </g>
     </g>
    </g>
    <g id="xtick_9">
     <g id="line2d_9">
      <g>
       <use xlink:href="#m2e823cb181" x="236.043977" y="277.248797" style="fill: #262626; stroke: #262626"/>
      </g>
     </g>
    </g>
    <g id="xtick_10">
     <g id="line2d_10">
      <g>
       <use xlink:href="#m2e823cb181" x="300.974886" y="277.248797" style="fill: #262626; stroke: #262626"/>
      </g>
     </g>
    </g>
    <g id="xtick_11">
     <g id="line2d_11">
      <g>
       <use xlink:href="#m2e823cb181" x="365.905795" y="277.248797" style="fill: #262626; stroke: #262626"/>
      </g>
     </g>
    </g>
    <g id="text_7">
     <!-- Wavelength (nm) -->
     <g style="fill: #262626" transform="translate(174.356562 303.544266) scale(0.12 -0.12)">
      <defs>
       <path id="ArialMT-57" d="M 1294 0 
L 78 4581 
L 700 4581 
L 1397 1578 
Q 1509 1106 1591 641 
Q 1766 1375 1797 1488 
L 2669 4581 
L 3400 4581 
L 4056 2263 
Q 4303 1400 4413 641 
Q 4500 1075 4641 1638 
L 5359 4581 
L 5969 4581 
L 4713 0 
L 4128 0 
L 3163 3491 
Q 3041 3928 3019 4028 
Q 2947 3713 2884 3491 
L 1913 0 
L 1294 0 
z
" transform="scale(0.015625)"/>
       <path id="ArialMT-61" d="M 2588 409 
Q 2275 144 1986 34 
Q 1697 -75 1366 -75 
Q 819 -75 525 192 
Q 231 459 231 875 
Q 231 1119 342 1320 
Q 453 1522 633 1644 
Q 813 1766 1038 1828 
Q 1203 1872 1538 1913 
Q 2219 1994 2541 2106 
Q 2544 2222 2544 2253 
Q 2544 2597 2384 2738 
Q 2169 2928 1744 2928 
Q 1347 2928 1158 2789 
Q 969 2650 878 2297 
L 328 2372 
Q 403 2725 575 2942 
Q 747 3159 1072 3276 
Q 1397 3394 1825 3394 
Q 2250 3394 2515 3294 
Q 2781 3194 2906 3042 
Q 3031 2891 3081 2659 
Q 3109 2516 3109 2141 
L 3109 1391 
Q 3109 606 3145 398 
Q 3181 191 3288 0 
L 2700 0 
Q 2613 175 2588 409 
z
M 2541 1666 
Q 2234 1541 1622 1453 
Q 1275 1403 1131 1340 
Q 988 1278 909 1158 
Q 831 1038 831 891 
Q 831 666 1001 516 
Q 1172 366 1500 366 
Q 1825 366 2078 508 
Q 2331 650 2450 897 
Q 2541 1088 2541 1459 
L 2541 1666 
z
" transform="scale(0.015625)"/>
       <path id="ArialMT-76" d="M 1344 0 
L 81 3319 
L 675 3319 
L 1388 1331 
Q 1503 1009 1600 663 
Q 1675 925 1809 1294 
L 2547 3319 
L 3125 3319 
L 1869 0 
L 1344 0 
z
" transform="scale(0.015625)"/>
       <path id="ArialMT-65" d="M 2694 1069 
L 3275 997 
Q 3138 488 2766 206 
Q 2394 -75 1816 -75 
Q 1088 -75 661 373 
Q 234 822 234 1631 
Q 234 2469 665 2931 
Q 1097 3394 1784 3394 
Q 2450 3394 2872 2941 
Q 3294 2488 3294 1666 
Q 3294 1616 3291 1516 
L 816 1516 
Q 847 969 1125 678 
Q 1403 388 1819 388 
Q 2128 388 2347 550 
Q 2566 713 2694 1069 
z
M 847 1978 
L 2700 1978 
Q 2663 2397 2488 2606 
Q 2219 2931 1791 2931 
Q 1403 2931 1139 2672 
Q 875 2413 847 1978 
z
" transform="scale(0.015625)"/>
       <path id="ArialMT-6c" d="M 409 0 
L 409 4581 
L 972 4581 
L 972 0 
L 409 0 
z
" transform="scale(0.015625)"/>
       <path id="ArialMT-6e" d="M 422 0 
L 422 3319 
L 928 3319 
L 928 2847 
Q 1294 3394 1984 3394 
Q 2284 3394 2536 3286 
Q 2788 3178 2913 3003 
Q 3038 2828 3088 2588 
Q 3119 2431 3119 2041 
L 3119 0 
L 2556 0 
L 2556 2019 
Q 2556 2363 2490 2533 
Q 2425 2703 2258 2804 
Q 2091 2906 1866 2906 
Q 1506 2906 1245 2678 
Q 984 2450 984 1813 
L 984 0 
L 422 0 
z
" transform="scale(0.015625)"/>
       <path id="ArialMT-67" d="M 319 -275 
L 866 -356 
Q 900 -609 1056 -725 
Q 1266 -881 1628 -881 
Q 2019 -881 2231 -725 
Q 2444 -569 2519 -288 
Q 2563 -116 2559 434 
Q 2191 0 1641 0 
Q 956 0 581 494 
Q 206 988 206 1678 
Q 206 2153 378 2554 
Q 550 2956 876 3175 
Q 1203 3394 1644 3394 
Q 2231 3394 2613 2919 
L 2613 3319 
L 3131 3319 
L 3131 450 
Q 3131 -325 2973 -648 
Q 2816 -972 2473 -1159 
Q 2131 -1347 1631 -1347 
Q 1038 -1347 672 -1080 
Q 306 -813 319 -275 
z
M 784 1719 
Q 784 1066 1043 766 
Q 1303 466 1694 466 
Q 2081 466 2343 764 
Q 2606 1063 2606 1700 
Q 2606 2309 2336 2618 
Q 2066 2928 1684 2928 
Q 1309 2928 1046 2623 
Q 784 2319 784 1719 
z
" transform="scale(0.015625)"/>
       <path id="ArialMT-74" d="M 1650 503 
L 1731 6 
Q 1494 -44 1306 -44 
Q 1000 -44 831 53 
Q 663 150 594 308 
Q 525 466 525 972 
L 525 2881 
L 113 2881 
L 113 3319 
L 525 3319 
L 525 4141 
L 1084 4478 
L 1084 3319 
L 1650 3319 
L 1650 2881 
L 1084 2881 
L 1084 941 
Q 1084 700 1114 631 
Q 1144 563 1211 522 
Q 1278 481 1403 481 
Q 1497 481 1650 503 
z
" transform="scale(0.015625)"/>
       <path id="ArialMT-68" d="M 422 0 
L 422 4581 
L 984 4581 
L 984 2938 
Q 1378 3394 1978 3394 
Q 2347 3394 2619 3248 
Q 2891 3103 3008 2847 
Q 3125 2591 3125 2103 
L 3125 0 
L 2563 0 
L 2563 2103 
Q 2563 2525 2380 2717 
Q 2197 2909 1863 2909 
Q 1613 2909 1392 2779 
Q 1172 2650 1078 2428 
Q 984 2206 984 1816 
L 984 0 
L 422 0 
z
" transform="scale(0.015625)"/>
       <path id="ArialMT-20" transform="scale(0.015625)"/>
       <path id="ArialMT-28" d="M 1497 -1347 
Q 1031 -759 709 28 
Q 388 816 388 1659 
Q 388 2403 628 3084 
Q 909 3875 1497 4659 
L 1900 4659 
Q 1522 4009 1400 3731 
Q 1209 3300 1100 2831 
Q 966 2247 966 1656 
Q 966 153 1900 -1347 
L 1497 -1347 
z
" transform="scale(0.015625)"/>
       <path id="ArialMT-6d" d="M 422 0 
L 422 3319 
L 925 3319 
L 925 2853 
Q 1081 3097 1340 3245 
Q 1600 3394 1931 3394 
Q 2300 3394 2536 3241 
Q 2772 3088 2869 2813 
Q 3263 3394 3894 3394 
Q 4388 3394 4653 3120 
Q 4919 2847 4919 2278 
L 4919 0 
L 4359 0 
L 4359 2091 
Q 4359 2428 4304 2576 
Q 4250 2725 4106 2815 
Q 3963 2906 3769 2906 
Q 3419 2906 3187 2673 
Q 2956 2441 2956 1928 
L 2956 0 
L 2394 0 
L 2394 2156 
Q 2394 2531 2256 2718 
Q 2119 2906 1806 2906 
Q 1569 2906 1367 2781 
Q 1166 2656 1075 2415 
Q 984 2175 984 1722 
L 984 0 
L 422 0 
z
" transform="scale(0.015625)"/>
       <path id="ArialMT-29" d="M 791 -1347 
L 388 -1347 
Q 1322 153 1322 1656 
Q 1322 2244 1188 2822 
Q 1081 3291 891 3722 
Q 769 4003 388 4659 
L 791 4659 
Q 1378 3875 1659 3084 
Q 1900 2403 1900 1659 
Q 1900 816 1576 28 
Q 1253 -759 791 -1347 
z
" transform="scale(0.015625)"/>
      </defs>
      <use xlink:href="#ArialMT-57"/>
      <use xlink:href="#ArialMT-61" x="90.634766"/>
      <use xlink:href="#ArialMT-76" x="146.25"/>
      <use xlink:href="#ArialMT-65" x="196.25"/>
      <use xlink:href="#ArialMT-6c" x="251.865234"/>
      <use xlink:href="#ArialMT-65" x="274.082031"/>
      <use xlink:href="#ArialMT-6e" x="329.697266"/>
      <use xlink:href="#ArialMT-67" x="385.3125"/>
      <use xlink:href="#ArialMT-74" x="440.927734"/>
      <use xlink:href="#ArialMT-68" x="468.710938"/>
      <use xlink:href="#ArialMT-20" x="524.326172"/>
      <use xlink:href="#ArialMT-28" x="552.109375"/>
      <use xlink:href="#ArialMT-6e" x="585.410156"/>
      <use xlink:href="#ArialMT-6d" x="641.025391"/>
      <use xlink:href="#ArialMT-29" x="724.326172"/>
     </g>
    </g>
   </g>
   <g id="matplotlib.axis_2">
    <g id="ytick_1">
     <g id="line2d_12">
      <defs>
       <path id="ma4246a4989" d="M 0 0 
L 6 0 
" style="stroke: #262626; stroke-width: 1.25"/>
      </defs>
      <g>
       <use xlink:href="#ma4246a4989" x="41.25125" y="277.248797" style="fill: #262626; stroke: #262626; stroke-width: 1.25"/>
      </g>
     </g>
     <g id="text_8">
      <!-- 0.0 -->
      <g style="fill: #262626" transform="translate(22.46125 281.185594) scale(0.11 -0.11)">
       <defs>
        <path id="ArialMT-2e" d="M 581 0 
L 581 641 
L 1222 641 
L 1222 0 
L 581 0 
z
" transform="scale(0.015625)"/>
       </defs>
       <use xlink:href="#ArialMT-30"/>
       <use xlink:href="#ArialMT-2e" x="55.615234"/>
       <use xlink:href="#ArialMT-30" x="83.398438"/>
      </g>
     </g>
    </g>
    <g id="ytick_2">
     <g id="line2d_13">
      <g>
       <use xlink:href="#ma4246a4989" x="41.25125" y="224.026397" style="fill: #262626; stroke: #262626; stroke-width: 1.25"/>
      </g>
     </g>
     <g id="text_9">
      <!-- 0.2 -->
      <g style="fill: #262626" transform="translate(22.46125 227.963194) scale(0.11 -0.11)">
       <use xlink:href="#ArialMT-30"/>
       <use xlink:href="#ArialMT-2e" x="55.615234"/>
       <use xlink:href="#ArialMT-32" x="83.398438"/>
      </g>
     </g>
    </g>
    <g id="ytick_3">
     <g id="line2d_14">
      <g>
       <use xlink:href="#ma4246a4989" x="41.25125" y="170.803997" style="fill: #262626; stroke: #262626; stroke-width: 1.25"/>
      </g>
     </g>
     <g id="text_10">
      <!-- 0.4 -->
      <g style="fill: #262626" transform="translate(22.46125 174.740794) scale(0.11 -0.11)">
       <use xlink:href="#ArialMT-30"/>
       <use xlink:href="#ArialMT-2e" x="55.615234"/>
       <use xlink:href="#ArialMT-34" x="83.398438"/>
      </g>
     </g>
    </g>
    <g id="ytick_4">
     <g id="line2d_15">
      <g>
       <use xlink:href="#ma4246a4989" x="41.25125" y="117.581597" style="fill: #262626; stroke: #262626; stroke-width: 1.25"/>
      </g>
     </g>
     <g id="text_11">
      <!-- 0.6 -->
      <g style="fill: #262626" transform="translate(22.46125 121.518394) scale(0.11 -0.11)">
       <use xlink:href="#ArialMT-30"/>
       <use xlink:href="#ArialMT-2e" x="55.615234"/>
       <use xlink:href="#ArialMT-36" x="83.398438"/>
      </g>
     </g>
    </g>
    <g id="ytick_5">
     <g id="line2d_16">
      <g>
       <use xlink:href="#ma4246a4989" x="41.25125" y="64.359197" style="fill: #262626; stroke: #262626; stroke-width: 1.25"/>
      </g>
     </g>
     <g id="text_12">
      <!-- 0.8 -->
      <g style="fill: #262626" transform="translate(22.46125 68.295994) scale(0.11 -0.11)">
       <use xlink:href="#ArialMT-30"/>
       <use xlink:href="#ArialMT-2e" x="55.615234"/>
       <use xlink:href="#ArialMT-38" x="83.398438"/>
      </g>
     </g>
    </g>
    <g id="ytick_6">
     <g id="line2d_17">
      <g>
       <use xlink:href="#ma4246a4989" x="41.25125" y="11.136797" style="fill: #262626; stroke: #262626; stroke-width: 1.25"/>
      </g>
     </g>
     <g id="text_13">
      <!-- 1.0 -->
      <g style="fill: #262626" transform="translate(22.46125 15.073594) scale(0.11 -0.11)">
       <use xlink:href="#ArialMT-31"/>
       <use xlink:href="#ArialMT-2e" x="55.615234"/>
       <use xlink:href="#ArialMT-30" x="83.398438"/>
      </g>
     </g>
    </g>
    <g id="ytick_7">
     <g id="line2d_18">
      <defs>
       <path id="md8e35a471b" d="M 0 0 
L 4 0 
" style="stroke: #262626"/>
      </defs>
      <g>
       <use xlink:href="#md8e35a471b" x="41.25125" y="250.637597" style="fill: #262626; stroke: #262626"/>
      </g>
     </g>
    </g>
    <g id="ytick_8">
     <g id="line2d_19">
      <g>
       <use xlink:href="#md8e35a471b" x="41.25125" y="197.415197" style="fill: #262626; stroke: #262626"/>
      </g>
     </g>
    </g>
    <g id="ytick_9">
     <g id="line2d_20">
      <g>
       <use xlink:href="#md8e35a471b" x="41.25125" y="144.192797" style="fill: #262626; stroke: #262626"/>
      </g>
     </g>
    </g>
    <g id="ytick_10">
     <g id="line2d_21">
      <g>
       <use xlink:href="#md8e35a471b" x="41.25125" y="90.970397" style="fill: #262626; stroke: #262626"/>
      </g>
     </g>
    </g>
    <g id="ytick_11">
     <g id="line2d_22">
      <g>
       <use xlink:href="#md8e35a471b" x="41.25125" y="37.747997" style="fill: #262626; stroke: #262626"/>
      </g>
     </g>
    </g>
    <g id="text_14">
     <!-- Absorbance (a.u.) -->
     <g style="fill: #262626" transform="translate(15.935625 191.881547) rotate(-90) scale(0.12 -0.12)">
      <defs>
       <path id="ArialMT-41" d="M -9 0 
L 1750 4581 
L 2403 4581 
L 4278 0 
L 3588 0 
L 3053 1388 
L 1138 1388 
L 634 0 
L -9 0 
z
M 1313 1881 
L 2866 1881 
L 2388 3150 
Q 2169 3728 2063 4100 
Q 1975 3659 1816 3225 
L 1313 1881 
z
" transform="scale(0.015625)"/>
       <path id="ArialMT-62" d="M 941 0 
L 419 0 
L 419 4581 
L 981 4581 
L 981 2947 
Q 1338 3394 1891 3394 
Q 2197 3394 2470 3270 
Q 2744 3147 2920 2923 
Q 3097 2700 3197 2384 
Q 3297 2069 3297 1709 
Q 3297 856 2875 390 
Q 2453 -75 1863 -75 
Q 1275 -75 941 416 
L 941 0 
z
M 934 1684 
Q 934 1088 1097 822 
Q 1363 388 1816 388 
Q 2184 388 2453 708 
Q 2722 1028 2722 1663 
Q 2722 2313 2464 2622 
Q 2206 2931 1841 2931 
Q 1472 2931 1203 2611 
Q 934 2291 934 1684 
z
" transform="scale(0.015625)"/>
       <path id="ArialMT-73" d="M 197 991 
L 753 1078 
Q 800 744 1014 566 
Q 1228 388 1613 388 
Q 2000 388 2187 545 
Q 2375 703 2375 916 
Q 2375 1106 2209 1216 
Q 2094 1291 1634 1406 
Q 1016 1563 777 1677 
Q 538 1791 414 1992 
Q 291 2194 291 2438 
Q 291 2659 392 2848 
Q 494 3038 669 3163 
Q 800 3259 1026 3326 
Q 1253 3394 1513 3394 
Q 1903 3394 2198 3281 
Q 2494 3169 2634 2976 
Q 2775 2784 2828 2463 
L 2278 2388 
Q 2241 2644 2061 2787 
Q 1881 2931 1553 2931 
Q 1166 2931 1000 2803 
Q 834 2675 834 2503 
Q 834 2394 903 2306 
Q 972 2216 1119 2156 
Q 1203 2125 1616 2013 
Q 2213 1853 2448 1751 
Q 2684 1650 2818 1456 
Q 2953 1263 2953 975 
Q 2953 694 2789 445 
Q 2625 197 2315 61 
Q 2006 -75 1616 -75 
Q 969 -75 630 194 
Q 291 463 197 991 
z
" transform="scale(0.015625)"/>
       <path id="ArialMT-6f" d="M 213 1659 
Q 213 2581 725 3025 
Q 1153 3394 1769 3394 
Q 2453 3394 2887 2945 
Q 3322 2497 3322 1706 
Q 3322 1066 3130 698 
Q 2938 331 2570 128 
Q 2203 -75 1769 -75 
Q 1072 -75 642 372 
Q 213 819 213 1659 
z
M 791 1659 
Q 791 1022 1069 705 
Q 1347 388 1769 388 
Q 2188 388 2466 706 
Q 2744 1025 2744 1678 
Q 2744 2294 2464 2611 
Q 2184 2928 1769 2928 
Q 1347 2928 1069 2612 
Q 791 2297 791 1659 
z
" transform="scale(0.015625)"/>
       <path id="ArialMT-72" d="M 416 0 
L 416 3319 
L 922 3319 
L 922 2816 
Q 1116 3169 1280 3281 
Q 1444 3394 1641 3394 
Q 1925 3394 2219 3213 
L 2025 2691 
Q 1819 2813 1613 2813 
Q 1428 2813 1281 2702 
Q 1134 2591 1072 2394 
Q 978 2094 978 1738 
L 978 0 
L 416 0 
z
" transform="scale(0.015625)"/>
       <path id="ArialMT-63" d="M 2588 1216 
L 3141 1144 
Q 3050 572 2676 248 
Q 2303 -75 1759 -75 
Q 1078 -75 664 370 
Q 250 816 250 1647 
Q 250 2184 428 2587 
Q 606 2991 970 3192 
Q 1334 3394 1763 3394 
Q 2303 3394 2647 3120 
Q 2991 2847 3088 2344 
L 2541 2259 
Q 2463 2594 2264 2762 
Q 2066 2931 1784 2931 
Q 1359 2931 1093 2626 
Q 828 2322 828 1663 
Q 828 994 1084 691 
Q 1341 388 1753 388 
Q 2084 388 2306 591 
Q 2528 794 2588 1216 
z
" transform="scale(0.015625)"/>
       <path id="ArialMT-75" d="M 2597 0 
L 2597 488 
Q 2209 -75 1544 -75 
Q 1250 -75 995 37 
Q 741 150 617 320 
Q 494 491 444 738 
Q 409 903 409 1263 
L 409 3319 
L 972 3319 
L 972 1478 
Q 972 1038 1006 884 
Q 1059 663 1231 536 
Q 1403 409 1656 409 
Q 1909 409 2131 539 
Q 2353 669 2445 892 
Q 2538 1116 2538 1541 
L 2538 3319 
L 3100 3319 
L 3100 0 
L 2597 0 
z
" transform="scale(0.015625)"/>
      </defs>
      <use xlink:href="#ArialMT-41"/>
      <use xlink:href="#ArialMT-62" x="66.699219"/>
      <use xlink:href="#ArialMT-73" x="122.314453"/>
      <use xlink:href="#ArialMT-6f" x="172.314453"/>
      <use xlink:href="#ArialMT-72" x="227.929688"/>
      <use xlink:href="#ArialMT-62" x="261.230469"/>
      <use xlink:href="#ArialMT-61" x="316.845703"/>
      <use xlink:href="#ArialMT-6e" x="372.460938"/>
      <use xlink:href="#ArialMT-63" x="428.076172"/>
      <use xlink:href="#ArialMT-65" x="478.076172"/>
      <use xlink:href="#ArialMT-20" x="533.691406"/>
      <use xlink:href="#ArialMT-28" x="561.474609"/>
      <use xlink:href="#ArialMT-61" x="594.775391"/>
      <use xlink:href="#ArialMT-2e" x="650.390625"/>
      <use xlink:href="#ArialMT-75" x="678.173828"/>
      <use xlink:href="#ArialMT-2e" x="733.789062"/>
      <use xlink:href="#ArialMT-29" x="761.572266"/>
     </g>
    </g>
   </g>
   <g id="PolyCollection_1"/>
   <g id="PolyCollection_2"/>
   <g id="PolyCollection_3"/>
   <g id="PolyCollection_4"/>
   <g id="PolyCollection_5"/>
   <g id="line2d_23">
    <path d="M 41.467683 217.338477 
L 42.333435 213.281927 
L 43.41561 207.307003 
L 45.147105 195.409823 
L 47.311465 177.627776 
L 49.475835 157.934354 
L 53.37169 123.756842 
L 54.453865 116.211949 
L 55.319617 111.398504 
L 56.185359 107.751625 
L 57.051101 105.051298 
L 57.70041 103.646174 
L 58.566162 102.501687 
L 59.215471 102.260655 
L 59.864781 102.58956 
L 60.297647 103.115956 
L 60.946956 104.409954 
L 61.596265 106.446984 
L 62.245574 108.906058 
L 63.111326 113.069562 
L 66.574305 130.402307 
L 67.440047 133.175486 
L 68.089356 134.610382 
L 68.522232 135.280214 
L 69.171541 135.887028 
L 69.604417 135.983688 
L 70.037293 135.864108 
L 70.470159 135.608182 
L 70.903035 135.1334 
L 71.552344 134.134283 
L 72.634529 131.7161 
L 73.716705 128.513201 
L 75.231766 122.799552 
L 76.530384 117.038778 
L 78.045435 109.405711 
L 80.859105 93.400146 
L 85.837144 62.902552 
L 88.217948 49.539371 
L 89.732999 42.338737 
L 91.031617 37.256217 
L 91.897359 34.512398 
L 92.763111 32.292262 
L 93.628853 30.679559 
L 94.278162 29.833522 
L 94.711038 29.438348 
L 95.360348 29.166085 
L 95.793214 29.14924 
L 96.442523 29.481364 
L 97.091832 30.218972 
L 97.524708 30.93964 
L 98.174017 32.384925 
L 98.823326 34.326802 
L 99.689068 37.69436 
L 100.771253 43.259165 
L 101.853438 50.259547 
L 103.152057 60.400652 
L 104.883541 76.0569 
L 107.69722 104.7945 
L 110.727323 138.214308 
L 113.108116 166.480631 
L 116.571105 208.812602 
L 118.086166 225.251103 
L 119.601207 239.072285 
L 120.683402 247.2899 
L 121.98202 255.194418 
L 122.847752 259.399719 
L 123.929948 263.610781 
L 125.012123 266.811255 
L 126.094318 269.208019 
L 126.96005 270.688736 
L 127.825802 271.868217 
L 128.907977 273.067205 
L 130.423038 274.143597 
L 131.505214 274.687653 
L 133.020275 275.227778 
L 134.968202 275.657321 
L 141.677736 276.225349 
L 143.40922 276.292264 
L 152.066681 276.43657 
L 152.71599 276.434357 
L 154.231032 276.464877 
L 155.096784 276.440226 
L 157.044711 276.462006 
L 157.910463 276.436043 
L 158.559772 276.455264 
L 161.589875 276.443861 
L 162.888493 276.463962 
L 164.403554 276.478692 
L 173.710305 276.526697 
L 174.576057 276.490071 
L 175.008923 276.497088 
L 176.091118 276.512632 
L 179.337663 276.50816 
L 184.532136 276.544483 
L 191.24165 276.543852 
L 191.890959 276.558212 
L 193.189577 276.55298 
L 193.622463 276.567185 
L 209.85519 276.61309 
L 210.071614 276.536838 
L 210.5045 276.682425 
L 210.937366 276.619386 
L 211.370232 276.651699 
L 211.803118 276.632213 
L 212.885293 276.6408 
L 214.400354 276.669251 
L 214.83322 276.585484 
L 216.348281 276.633944 
L 216.781148 276.62537 
L 216.99759 276.712956 
L 217.430457 276.642434 
L 217.863323 276.624498 
L 218.512632 276.72436 
L 218.729075 276.526753 
L 218.945518 276.733079 
L 219.161941 276.614178 
L 219.81125 276.723966 
L 220.244136 276.565252 
L 220.460559 276.703945 
L 220.893445 276.605858 
L 221.109868 276.782168 
L 221.326311 276.636458 
L 222.408486 276.697099 
L 222.624929 276.67778 
L 222.841372 276.538522 
L 223.057795 276.729778 
L 223.274238 276.561642 
L 223.490681 276.78721 
L 223.707105 276.64267 
L 224.13999 276.772907 
L 224.356414 276.565966 
L 224.7893 276.765478 
L 225.438609 276.652904 
L 225.655032 276.402809 
L 226.087918 276.787397 
L 226.304341 276.906003 
L 226.520784 276.661718 
L 226.737227 276.731723 
L 226.95365 276.927923 
L 227.170093 276.704471 
L 227.602959 276.727197 
L 227.819402 276.577434 
L 228.035845 276.866152 
L 228.252268 276.294209 
L 228.468711 276.877431 
L 228.685154 276.872102 
L 228.901577 276.622821 
L 229.11802 276.596313 
L 229.334463 276.81828 
L 229.983772 276.531411 
L 230.200195 276.770016 
L 230.633081 276.675821 
L 230.849505 276.37339 
L 231.065948 276.585845 
L 231.28239 276.458927 
L 231.715257 276.856842 
L 231.9317 276.924718 
L 232.148123 276.398701 
L 232.364566 276.786062 
L 232.581009 276.836007 
L 232.797432 276.488934 
L 233.013875 277.02036 
L 233.446741 276.930679 
L 233.663184 277.290314 
L 233.879627 277.033342 
L 234.09605 277.065119 
L 234.312493 276.079846 
L 234.528936 276.93968 
L 234.745359 277.139706 
L 234.961802 277.137472 
L 235.178245 276.693078 
L 235.611111 276.60937 
L 235.827534 276.984456 
L 240.372698 276.984988 
L 242.753491 276.990842 
L 248.597273 277.019739 
L 251.410952 277.002309 
L 256.172559 276.98824 
L 257.6876 276.987487 
L 263.964268 277.008909 
L 266.345062 277.035005 
L 268.942298 277.06554 
L 270.457359 277.092796 
L 271.539534 277.086609 
L 280.196995 277.127274 
L 286.473663 277.132163 
L 287.772281 277.103805 
L 289.287323 277.118833 
L 292.100982 277.096749 
L 295.347528 277.109123 
L 297.295455 277.095956 
L 300.325577 277.09559 
L 316.125419 277.039836 
L 316.774728 277.052354 
L 317.424037 277.058288 
L 317.6405 277.02123 
L 318.073346 277.091355 
L 318.506232 277.040181 
L 318.722655 277.212268 
L 319.155541 277.164822 
L 320.670582 277.105805 
L 321.536354 277.10844 
L 333.223918 277.001336 
L 333.873227 277.065623 
L 335.604691 277.029788 
L 336.90331 277.028905 
L 340.149855 277.051043 
L 346.859409 277.084339 
L 348.158027 277.065319 
L 349.456645 277.103639 
L 357.897663 277.120854 
L 361.144209 277.108171 
L 366.98799 277.124867 
L 368.070146 277.117999 
L 381.9221 277.008978 
L 383.004255 277.005761 
L 395.341128 276.649864 
L 396.639746 276.324537 
L 398.37125 275.621984 
L 398.37125 275.621984 
" clip-path="url(#p1bf615ce7e)" style="fill: none; stroke: #f6ab83; stroke-linecap: round"/>
   </g>
   <g id="line2d_24">
    <path d="M 41.467683 214.532952 
L 42.549868 209.313191 
L 43.848486 201.59467 
L 45.579981 189.709481 
L 46.662156 181.471322 
L 47.960774 170.983302 
L 52.289505 135.716072 
L 54.020999 123.19214 
L 55.103174 116.869583 
L 55.968926 112.89675 
L 56.834668 109.632737 
L 57.70041 107.160942 
L 58.566162 105.423774 
L 59.215471 104.663214 
L 59.864781 104.426307 
L 60.297647 104.612347 
L 60.730523 105.075947 
L 61.163399 105.782181 
L 61.812708 107.451002 
L 62.894883 111.535849 
L 64.626377 119.882588 
L 65.924995 125.932073 
L 66.790738 129.326833 
L 67.872923 132.46635 
L 68.522232 133.69806 
L 69.171541 134.555263 
L 69.82085 134.976609 
L 70.470159 134.976593 
L 71.119468 134.672305 
L 71.552344 134.275435 
L 72.634529 132.738914 
L 73.716705 130.455999 
L 75.015323 126.876214 
L 76.530384 121.729756 
L 78.478311 113.91433 
L 80.642671 104.094976 
L 82.807032 93.74139 
L 86.919329 74.300031 
L 88.867257 66.391846 
L 90.165875 62.032437 
L 91.24805 59.088429 
L 92.330235 56.793697 
L 93.41242 55.179947 
L 94.278162 54.396356 
L 94.927471 54.130962 
L 95.793214 54.19114 
L 96.442523 54.586837 
L 97.091832 55.311074 
L 97.741141 56.355237 
L 98.606893 58.312627 
L 99.689068 61.762775 
L 100.55482 65.311487 
L 101.853438 72.047268 
L 103.36849 81.670495 
L 105.099984 94.244089 
L 108.995838 125.825008 
L 111.593075 148.605025 
L 118.086166 207.02945 
L 119.601207 217.411194 
L 120.899825 224.635795 
L 121.98202 229.536867 
L 123.064195 233.426812 
L 124.146371 236.497137 
L 125.228566 238.922326 
L 126.743627 241.413709 
L 128.258668 243.188874 
L 129.12442 244.002818 
L 131.721657 245.872525 
L 136.26682 248.359521 
L 137.998305 249.246475 
L 143.40922 252.169186 
L 154.663918 259.329284 
L 155.52965 259.925655 
L 157.910463 261.414508 
L 158.992638 262.112925 
L 168.082966 267.413676 
L 169.381584 268.04586 
L 170.030893 268.356498 
L 174.359614 270.282796 
L 181.718457 272.761601 
L 182.367766 272.920158 
L 184.965002 273.536007 
L 185.830754 273.73198 
L 188.42799 274.195531 
L 188.860857 274.305337 
L 189.293723 274.3815 
L 190.808784 274.553224 
L 192.107402 274.79234 
L 192.756711 274.87113 
L 193.838886 274.994036 
L 194.271772 275.057588 
L 199.899111 275.615144 
L 200.331977 275.657126 
L 200.764863 275.69142 
L 201.197729 275.68235 
L 202.279905 275.798572 
L 202.71279 275.804724 
L 203.145657 275.850479 
L 203.3621 275.792461 
L 204.011409 275.891372 
L 207.69082 276.003457 
L 208.123686 276.087702 
L 220.460559 276.502364 
L 220.677002 276.691652 
L 220.893445 276.569486 
L 221.109868 276.64294 
L 221.759177 276.478976 
L 221.97562 276.468262 
L 222.192063 276.787113 
L 222.408486 276.574288 
L 224.13999 276.712354 
L 224.572857 276.549216 
L 225.438609 276.655584 
L 225.655032 276.426629 
L 225.871475 276.960765 
L 226.304341 276.946165 
L 226.520784 276.653077 
L 226.737227 276.647233 
L 226.95365 276.896772 
L 227.386536 276.671639 
L 227.819402 276.62652 
L 228.035845 276.88242 
L 228.252268 276.679164 
L 228.468711 276.721246 
L 228.685154 276.892516 
L 228.901577 276.730546 
L 229.11802 276.97789 
L 230.200195 276.963044 
L 230.416638 277.241419 
L 230.633081 276.759148 
L 230.849505 276.827379 
L 231.065948 277.098135 
L 231.28239 276.710312 
L 231.498814 276.589343 
L 231.9317 277.25428 
L 232.364566 276.577371 
L 232.581009 276.943527 
L 232.797432 276.551316 
L 233.013875 277.229914 
L 233.230318 277.235584 
L 233.446741 276.79015 
L 233.663184 277.220723 
L 233.879627 277.15353 
L 234.09605 277.455709 
L 234.312493 276.695404 
L 234.528936 277.206879 
L 234.745359 276.790903 
L 235.178245 276.644034 
L 235.394668 277.098218 
L 235.611111 276.809596 
L 235.827534 277.47184 
L 241.671316 277.527558 
L 243.619243 277.550563 
L 246.649346 277.574278 
L 248.38085 277.579347 
L 255.306807 277.591971 
L 257.254734 277.653878 
L 265.912195 277.672754 
L 267.860123 277.678848 
L 269.80805 277.689005 
L 271.106668 277.684558 
L 284.525736 277.695606 
L 287.772281 277.705556 
L 290.802364 277.721994 
L 292.317445 277.713199 
L 294.265372 277.735385 
L 296.429723 277.744001 
L 299.892691 277.76363 
L 302.273505 277.742834 
L 303.3557 277.755633 
L 312.013141 277.70255 
L 313.311759 277.698131 
L 314.177491 277.701 
L 315.043263 277.700272 
L 317.207614 277.610335 
L 317.6405 277.619372 
L 319.371964 277.777578 
L 319.80485 277.730844 
L 325.215746 277.719003 
L 326.514364 277.709535 
L 350.971686 277.716328 
L 353.136037 277.719278 
L 357.248354 277.723737 
L 366.338681 277.743589 
L 366.771528 277.719346 
L 366.98799 277.778648 
L 367.420837 277.738335 
L 383.437141 277.702564 
L 384.302873 277.702303 
L 384.519336 277.743891 
L 384.735759 277.670653 
L 384.952182 277.736483 
L 385.168645 277.614977 
L 385.385068 277.654688 
L 385.817954 277.605803 
L 388.631614 277.608509 
L 388.848037 277.504191 
L 389.0645 277.605817 
L 389.713809 277.572931 
L 390.795964 277.600419 
L 395.55759 277.404635 
L 395.774014 277.289102 
L 396.2069 277.343655 
L 398.37125 276.614046 
L 398.37125 276.614046 
" clip-path="url(#p1bf615ce7e)" style="fill: none; stroke: #f06043; stroke-linecap: round"/>
   </g>
   <g id="line2d_25">
    <path d="M 41.467683 203.200569 
L 42.549868 197.732733 
L 44.714229 185.039686 
L 49.908701 153.861863 
L 52.722381 138.703635 
L 55.103174 126.268496 
L 56.618235 119.557871 
L 57.916853 114.317593 
L 58.999029 110.597751 
L 59.864781 108.522685 
L 60.51409 107.68369 
L 60.946956 107.45998 
L 61.379832 107.620308 
L 62.029141 108.426755 
L 62.462017 109.286528 
L 63.327759 111.784256 
L 64.409944 115.749602 
L 66.790738 124.609255 
L 68.305799 128.783307 
L 69.604417 131.072567 
L 70.253726 131.855396 
L 70.903035 132.380777 
L 71.552344 132.680258 
L 72.634529 132.708079 
L 73.067395 132.549464 
L 74.366014 131.734325 
L 75.881075 130.030894 
L 77.396126 127.685072 
L 79.560486 123.52179 
L 83.672784 114.061334 
L 87.785071 104.172142 
L 89.949432 99.452375 
L 91.464493 96.635593 
L 92.979544 94.281253 
L 94.711038 92.189421 
L 95.793214 91.245074 
L 97.091832 90.600954 
L 97.741141 90.516951 
L 98.39045 90.536255 
L 99.472635 90.972668 
L 100.55482 91.932654 
L 101.853438 93.692727 
L 103.152057 96.017136 
L 105.099984 100.264389 
L 109.428705 111.418267 
L 111.376632 117.09055 
L 113.541002 123.908525 
L 116.138238 132.143695 
L 118.086166 137.618248 
L 119.81765 141.484745 
L 120.683402 143.100589 
L 122.198443 145.358134 
L 123.497062 146.825522 
L 125.877875 148.851759 
L 127.176493 149.81422 
L 131.721657 153.610323 
L 134.535336 156.851663 
L 137.132572 160.625378 
L 140.379118 166.338774 
L 143.625663 173.07848 
L 145.57359 177.461984 
L 153.3653 196.6911 
L 154.663918 200.039758 
L 164.187111 223.853236 
L 170.463759 237.650213 
L 175.008923 245.936247 
L 178.039045 250.655526 
L 179.986972 253.272915 
L 183.233518 257.128113 
L 186.696486 260.462518 
L 187.995105 261.574556 
L 192.107402 264.533307 
L 192.973154 265.087116 
L 194.704638 266.102751 
L 200.54842 268.965562 
L 202.496348 269.691677 
L 204.444275 270.402155 
L 204.877141 270.473221 
L 205.52645 270.71455 
L 206.825068 271.13535 
L 207.041511 271.143128 
L 207.257954 271.310272 
L 207.69082 271.350766 
L 208.989438 271.814591 
L 209.638748 271.909778 
L 212.019541 272.579784 
L 212.885293 272.758887 
L 213.318159 272.83093 
L 219.161941 274.084708 
L 219.378384 274.059813 
L 219.81125 274.268473 
L 220.244136 274.270749 
L 220.460559 274.404003 
L 221.97562 274.453689 
L 222.192063 274.827159 
L 222.408486 274.579 
L 222.841372 274.718672 
L 223.274238 274.835234 
L 223.490681 274.913257 
L 223.707105 274.765141 
L 223.923548 274.752394 
L 224.13999 274.914487 
L 224.356414 274.791447 
L 224.572857 274.95716 
L 224.7893 274.96491 
L 225.005723 275.177379 
L 225.222166 275.017326 
L 225.438609 275.128627 
L 225.655032 274.943401 
L 226.304341 275.501891 
L 226.520784 275.159227 
L 226.737227 275.721041 
L 226.95365 275.221651 
L 227.170093 275.385545 
L 227.386536 275.206613 
L 227.602959 275.422173 
L 227.819402 275.456809 
L 228.035845 275.100475 
L 228.252268 275.388968 
L 228.468711 275.310867 
L 228.685154 275.668244 
L 228.901577 275.473361 
L 229.334463 275.714891 
L 229.983772 275.50673 
L 230.200195 275.69461 
L 230.416638 275.65869 
L 230.633081 275.938898 
L 230.849505 275.646328 
L 231.065948 276.016805 
L 231.28239 275.263286 
L 231.498814 275.786448 
L 231.715257 275.71094 
L 231.9317 276.407535 
L 232.148123 275.730673 
L 232.364566 275.634069 
L 232.581009 276.119406 
L 232.797432 275.842196 
L 233.230318 276.574045 
L 233.446741 275.88482 
L 233.879627 276.251367 
L 234.09605 276.830926 
L 234.312493 275.585293 
L 234.528936 276.823846 
L 234.961802 275.892954 
L 235.394668 276.36715 
L 235.611111 276.265985 
L 235.827534 276.491735 
L 250.328777 277.041568 
L 252.060262 277.061745 
L 270.457359 277.19289 
L 272.62171 277.207713 
L 313.961068 277.353057 
L 317.856923 277.310516 
L 319.371964 277.446096 
L 319.588427 277.355107 
L 320.454159 277.393449 
L 328.678754 277.408322 
L 330.626681 277.422066 
L 338.851237 277.393752 
L 349.456645 277.381284 
L 353.3525 277.441929 
L 354.651118 277.425904 
L 366.771528 277.367123 
L 366.98799 277.430911 
L 367.420837 277.384064 
L 376.078318 277.426633 
L 377.809782 277.433181 
L 382.787832 277.37417 
L 383.220718 277.397728 
L 384.302873 277.347922 
L 385.168645 277.29618 
L 395.124705 277.013996 
L 396.639746 276.541717 
L 397.289055 276.132107 
L 397.505518 276.077334 
L 397.938364 275.777497 
L 398.37125 275.630849 
L 398.37125 275.630849 
" clip-path="url(#p1bf615ce7e)" style="fill: none; stroke: #ca1a50; stroke-linecap: round"/>
   </g>
   <g id="line2d_26">
    <path d="M 41.467683 181.00324 
L 45.579981 159.333926 
L 47.311465 152.984634 
L 48.39365 150.657592 
L 49.259392 149.646857 
L 50.125144 149.167585 
L 51.423762 148.873878 
L 51.856629 148.714105 
L 52.505938 148.15225 
L 52.938814 147.698104 
L 54.237432 145.16111 
L 55.103174 142.417624 
L 56.185359 137.92593 
L 57.051101 133.402449 
L 59.864781 118.21337 
L 60.730523 115.134175 
L 61.163399 114.12808 
L 61.596265 113.43214 
L 62.029141 113.06558 
L 62.462017 113.066516 
L 62.894883 113.407523 
L 63.544192 114.404181 
L 64.193501 115.892451 
L 65.492119 119.9871 
L 66.574305 123.965056 
L 69.604417 134.985475 
L 71.552344 140.937507 
L 73.716705 146.475839 
L 75.448199 150.168066 
L 77.829002 154.122928 
L 78.911177 155.497708 
L 81.075548 157.157727 
L 82.157723 157.485156 
L 82.807032 157.575313 
L 83.889217 157.299679 
L 85.187835 156.549263 
L 85.837144 155.89354 
L 86.702886 154.920222 
L 88.001505 152.864158 
L 88.867257 151.178595 
L 90.815184 146.455148 
L 92.546668 141.383358 
L 95.360348 131.465631 
L 98.823326 117.456618 
L 106.831468 82.55314 
L 109.645148 71.131329 
L 111.593075 63.929283 
L 114.406734 54.80755 
L 116.571105 48.956604 
L 118.302589 45.051737 
L 119.81765 42.224344 
L 121.549134 39.741303 
L 123.280638 38.124968 
L 124.146371 37.630723 
L 124.7957 37.445921 
L 125.877875 37.395576 
L 126.743627 37.655483 
L 127.392936 37.990193 
L 128.258668 38.698837 
L 129.340863 39.886833 
L 131.072348 42.796754 
L 131.9381 44.567882 
L 133.453141 48.298541 
L 134.968202 52.748742 
L 137.132572 60.282135 
L 139.296923 68.84613 
L 141.894159 80.36192 
L 144.491395 92.852416 
L 147.737941 109.248508 
L 159.85839 171.586721 
L 164.187111 192.279363 
L 168.299409 210.004126 
L 170.896645 219.916127 
L 172.844572 226.641039 
L 174.576057 232.052265 
L 176.307541 236.980536 
L 178.255468 241.889305 
L 179.986972 245.71346 
L 181.718457 249.138789 
L 184.532136 253.743758 
L 186.480063 256.402108 
L 187.345795 257.510673 
L 191.24165 261.518687 
L 195.353948 264.68111 
L 196.2197 265.20044 
L 197.518318 266.016663 
L 200.54842 267.610455 
L 202.279905 268.392566 
L 203.145657 268.744322 
L 204.011409 269.055634 
L 204.877141 269.411073 
L 205.093584 269.433732 
L 205.742893 269.725574 
L 207.69082 270.395833 
L 208.556572 270.657133 
L 208.989438 270.881201 
L 209.85519 271.08527 
L 210.937366 271.400268 
L 211.370232 271.564993 
L 212.235984 271.721954 
L 212.885293 271.995827 
L 213.751045 272.122605 
L 213.967468 272.266168 
L 214.183911 272.245281 
L 214.616777 272.357047 
L 216.781148 272.856671 
L 216.99759 273.025665 
L 217.430457 273.046176 
L 217.6469 273.162738 
L 218.296209 273.186022 
L 218.512632 273.382283 
L 218.729075 273.283581 
L 218.945518 273.405993 
L 219.161941 273.362159 
L 220.244136 273.665016 
L 223.057795 274.195093 
L 223.274238 274.124001 
L 224.13999 274.434549 
L 224.356414 274.329677 
L 224.572857 274.434542 
L 224.7893 274.694942 
L 225.005723 274.584992 
L 225.222166 274.752282 
L 225.438609 274.43097 
L 225.655032 274.55127 
L 225.871475 274.862931 
L 226.087918 274.864773 
L 226.520784 274.690815 
L 226.737227 274.989021 
L 226.95365 275.009994 
L 227.170093 274.693153 
L 227.602959 274.57852 
L 227.819402 275.022586 
L 228.252268 274.68828 
L 228.685154 275.221308 
L 228.901577 274.91616 
L 229.11802 274.810128 
L 229.334463 275.522737 
L 229.550886 275.297368 
L 229.767329 275.447504 
L 229.983772 274.929359 
L 230.416638 275.235931 
L 230.633081 275.664312 
L 230.849505 275.406341 
L 231.065948 275.611832 
L 231.28239 274.689822 
L 231.498814 275.331768 
L 231.9317 275.574803 
L 232.148123 274.905848 
L 232.364566 275.721403 
L 232.581009 275.434566 
L 232.797432 275.513723 
L 233.230318 275.988075 
L 233.446741 275.560055 
L 233.663184 275.658383 
L 233.879627 275.341419 
L 234.09605 276.09194 
L 234.312493 275.146468 
L 234.528936 275.805798 
L 234.745359 275.371305 
L 234.961802 276.326606 
L 235.178245 276.303099 
L 235.394668 275.925764 
L 235.611111 275.870579 
L 235.827534 276.301668 
L 240.156255 276.596264 
L 246.21648 276.825907 
L 251.627395 276.946013 
L 256.388982 277.029029 
L 258.33691 277.078041 
L 261.799898 277.107012 
L 263.531382 277.119067 
L 270.457359 277.221935 
L 271.106668 277.2108 
L 274.136771 277.223933 
L 277.166873 277.278194 
L 278.465491 277.262601 
L 280.196995 277.293633 
L 282.144923 277.306151 
L 288.638014 277.344784 
L 289.503746 277.341315 
L 292.533868 277.346009 
L 295.131105 277.344302 
L 296.646146 277.366118 
L 299.026959 277.326639 
L 300.325577 277.339222 
L 302.922814 277.353635 
L 307.251554 277.370165 
L 313.744645 277.346078 
L 316.125419 277.231581 
L 316.774728 277.249871 
L 318.289809 277.328897 
L 318.506232 277.271183 
L 318.722655 277.429577 
L 321.103468 277.382853 
L 328.245868 277.407662 
L 332.791032 277.44853 
L 337.985505 277.444322 
L 348.37445 277.440622 
L 349.456645 277.424817 
L 350.755263 277.395348 
L 350.971686 277.563149 
L 351.18811 277.441021 
L 354.001809 277.456328 
L 356.166159 277.397632 
L 366.555105 277.467385 
L 367.6373 277.473559 
L 368.719455 277.471702 
L 378.026245 277.413344 
L 379.75771 277.367674 
L 384.952182 277.374706 
L 385.601491 277.274158 
L 387.332995 277.272946 
L 387.982305 277.255506 
L 388.631614 277.270508 
L 388.848037 277.201249 
L 389.280923 277.232229 
L 391.661736 277.230382 
L 392.960354 277.219041 
L 394.691819 277.082132 
L 396.639746 276.639893 
L 397.289055 276.292167 
L 397.721941 276.080953 
L 398.154827 275.891114 
L 398.37125 275.887748 
L 398.37125 275.887748 
" clip-path="url(#p1bf615ce7e)" style="fill: none; stroke: #841e5a; stroke-linecap: round"/>
   </g>
   <g id="line2d_27">
    <path d="M 41.467683 136.638958 
L 43.632053 122.708253 
L 45.579981 109.180589 
L 47.311465 99.452296 
L 49.475835 89.844027 
L 50.55801 86.077933 
L 51.207319 84.387001 
L 51.856629 83.270287 
L 52.505938 82.286112 
L 53.37169 81.0597 
L 54.453865 78.784144 
L 55.752483 74.466498 
L 57.916853 66.689773 
L 58.566162 65.066744 
L 59.215471 64.114895 
L 59.648338 63.750413 
L 60.081214 63.683763 
L 60.51409 63.85908 
L 61.163399 64.645986 
L 61.596265 65.571473 
L 62.245574 67.486322 
L 62.894883 70.111402 
L 63.760635 74.534559 
L 64.626377 79.73547 
L 67.65649 100.738458 
L 69.604417 113.512875 
L 71.552344 124.560878 
L 73.283838 132.970048 
L 74.582457 138.59289 
L 75.881075 143.589044 
L 77.396126 148.463905 
L 78.694744 151.845976 
L 79.993362 154.346686 
L 80.642671 155.333478 
L 81.508414 156.305083 
L 82.157723 156.753694 
L 82.807032 157.078102 
L 83.456341 157.117985 
L 83.889217 157.053738 
L 85.187835 156.394153 
L 85.837144 155.714741 
L 87.135762 153.913572 
L 88.001505 152.281882 
L 89.08369 149.774518 
L 90.598741 145.541255 
L 92.330235 139.76458 
L 93.628853 134.903011 
L 95.360348 127.656125 
L 98.174017 114.711165 
L 106.831468 72.4124 
L 110.078014 58.257191 
L 112.242384 49.956704 
L 114.406734 42.702315 
L 116.138238 37.812306 
L 117.65328 34.206128 
L 118.735475 32.055243 
L 119.81765 30.196956 
L 121.116268 28.463341 
L 122.198443 27.430772 
L 123.064195 26.854 
L 123.713505 26.57663 
L 124.579257 26.45134 
L 125.445009 26.580341 
L 126.094318 26.849321 
L 126.96005 27.437085 
L 127.609359 28.063313 
L 128.691554 29.384149 
L 129.773729 31.187746 
L 131.28879 34.466383 
L 132.587409 37.905334 
L 134.318893 43.388325 
L 136.699686 52.458635 
L 139.0805 62.866927 
L 140.595541 70.030366 
L 143.842086 86.595938 
L 149.253002 115.812096 
L 157.477577 160.38897 
L 162.022741 183.680061 
L 165.269286 199.225547 
L 167.866523 210.618514 
L 170.463759 220.958736 
L 173.710305 232.133861 
L 176.091118 239.098504 
L 177.606159 243.027884 
L 179.986972 248.320553 
L 181.28559 250.863621 
L 184.09925 255.526642 
L 185.830754 257.920505 
L 188.644414 261.179266 
L 189.943032 262.48981 
L 190.592341 263.041657 
L 191.674536 263.968457 
L 194.921081 266.363371 
L 198.167627 268.28187 
L 199.466245 268.863251 
L 200.115554 269.200973 
L 205.093584 271.133324 
L 211.370232 272.907513 
L 212.235984 273.062713 
L 213.101736 273.285634 
L 213.967468 273.433977 
L 214.400354 273.52459 
L 215.049663 273.581944 
L 215.482529 273.691531 
L 218.512632 274.285457 
L 218.729075 274.204379 
L 219.161941 274.360144 
L 220.027693 274.54962 
L 220.244136 274.411826 
L 221.109868 274.619513 
L 221.97562 274.653715 
L 222.192063 274.869836 
L 222.624929 274.797069 
L 223.057795 274.777704 
L 223.490681 275.016806 
L 223.707105 274.934258 
L 224.13999 275.151687 
L 224.356414 274.843654 
L 224.7893 275.259782 
L 225.655032 274.972694 
L 225.871475 275.427442 
L 226.087918 275.327461 
L 226.304341 275.5294 
L 226.520784 275.279851 
L 226.737227 275.358155 
L 226.95365 275.288631 
L 227.170093 275.350411 
L 227.386536 275.243235 
L 227.602959 275.459279 
L 227.819402 275.505702 
L 228.252268 275.190773 
L 228.468711 275.306797 
L 228.685154 275.700615 
L 228.901577 275.294495 
L 229.11802 275.654842 
L 229.550886 275.43973 
L 229.767329 275.782583 
L 229.983772 275.425392 
L 230.200195 275.508535 
L 230.416638 275.885615 
L 230.633081 275.394764 
L 230.849505 275.805931 
L 231.065948 275.885483 
L 231.28239 275.133138 
L 231.498814 275.452562 
L 231.715257 275.512807 
L 231.9317 275.936835 
L 232.148123 275.483832 
L 232.364566 275.866438 
L 232.581009 275.467926 
L 233.013875 276.236538 
L 233.230318 276.121319 
L 233.446741 275.767478 
L 233.663184 275.897624 
L 234.09605 276.384606 
L 234.312493 275.88933 
L 234.745359 276.491278 
L 234.961802 276.298202 
L 235.394668 275.50201 
L 235.611111 276.120923 
L 235.827534 276.357647 
L 239.506946 276.53794 
L 241.23845 276.608996 
L 243.4028 276.698553 
L 245.567171 276.7591 
L 254.873941 276.879614 
L 262.882073 277.04003 
L 263.964268 277.051167 
L 266.128619 277.066533 
L 267.860123 277.067458 
L 269.375164 277.09359 
L 286.90651 277.175583 
L 297.511918 277.267326 
L 298.810536 277.287559 
L 302.489928 277.346532 
L 304.654318 277.336978 
L 310.4981 277.337088 
L 311.363832 277.323197 
L 313.095336 277.326956 
L 316.774728 277.208037 
L 318.506232 277.328291 
L 318.722655 277.482372 
L 319.588427 277.279309 
L 320.021273 277.342609 
L 322.185663 277.290148 
L 333.223918 277.299059 
L 333.656764 277.207575 
L 334.955382 277.191683 
L 336.254 277.160059 
L 356.599045 277.121385 
L 357.6812 277.120736 
L 362.226364 277.232511 
L 372.398886 277.428311 
L 373.264619 277.429247 
L 374.346814 277.488917 
L 375.861855 277.500424 
L 379.1084 277.478674 
L 381.27279 277.473985 
L 384.952182 277.482991 
L 385.168645 277.304016 
L 385.385068 277.348142 
L 385.817954 277.251718 
L 386.90011 277.291595 
L 387.765881 277.158404 
L 388.631614 277.22022 
L 388.848037 277.022541 
L 389.0645 277.165105 
L 389.497346 277.181145 
L 390.363118 277.175707 
L 391.22885 277.305614 
L 392.743891 277.238236 
L 393.826086 277.267904 
L 394.908281 277.10984 
L 395.124705 277.171502 
L 395.774014 276.844821 
L 396.2069 276.87401 
L 396.423323 276.786221 
L 396.856209 276.407611 
L 397.505518 276.252798 
L 398.154827 275.724014 
L 398.37125 275.797058 
L 398.37125 275.797058 
" clip-path="url(#p1bf615ce7e)" style="fill: none; stroke: #3f1b43; stroke-linecap: round"/>
   </g>
   <g id="line2d_28"/>
   <g id="line2d_29"/>
   <g id="line2d_30"/>
   <g id="line2d_31"/>
   <g id="line2d_32"/>
   <g id="patch_3">
    <path d="M 41.25125 277.248797 
L 41.25125 11.136797 
" style="fill: none; stroke: #262626; stroke-width: 1.25; stroke-linejoin: miter; stroke-linecap: square"/>
   </g>
   <g id="patch_4">
    <path d="M 41.25125 277.248797 
L 398.37125 277.248797 
" style="fill: none; stroke: #262626; stroke-width: 1.25; stroke-linejoin: miter; stroke-linecap: square"/>
   </g>
   <g id="legend_1">
    <g id="line2d_33">
     <path d="M 260.255188 45.415809 
L 266.255188 45.415809 
L 272.255188 45.415809 
" style="fill: none; stroke: #f6ab83; stroke-width: 1.5; stroke-linecap: round"/>
    </g>
    <g id="text_15">
     <!-- t=0hrs FeCl3 0uM_Abs -->
     <g style="fill: #262626" transform="translate(277.055188 47.515809) scale(0.06 -0.06)">
      <defs>
       <path id="ArialMT-3d" d="M 3381 2694 
L 356 2694 
L 356 3219 
L 3381 3219 
L 3381 2694 
z
M 3381 1303 
L 356 1303 
L 356 1828 
L 3381 1828 
L 3381 1303 
z
" transform="scale(0.015625)"/>
       <path id="ArialMT-46" d="M 525 0 
L 525 4581 
L 3616 4581 
L 3616 4041 
L 1131 4041 
L 1131 2622 
L 3281 2622 
L 3281 2081 
L 1131 2081 
L 1131 0 
L 525 0 
z
" transform="scale(0.015625)"/>
       <path id="ArialMT-43" d="M 3763 1606 
L 4369 1453 
Q 4178 706 3683 314 
Q 3188 -78 2472 -78 
Q 1731 -78 1267 223 
Q 803 525 561 1097 
Q 319 1669 319 2325 
Q 319 3041 592 3573 
Q 866 4106 1370 4382 
Q 1875 4659 2481 4659 
Q 3169 4659 3637 4309 
Q 4106 3959 4291 3325 
L 3694 3184 
Q 3534 3684 3231 3912 
Q 2928 4141 2469 4141 
Q 1941 4141 1586 3887 
Q 1231 3634 1087 3207 
Q 944 2781 944 2328 
Q 944 1744 1114 1308 
Q 1284 872 1643 656 
Q 2003 441 2422 441 
Q 2931 441 3284 734 
Q 3638 1028 3763 1606 
z
" transform="scale(0.015625)"/>
       <path id="ArialMT-33" d="M 269 1209 
L 831 1284 
Q 928 806 1161 595 
Q 1394 384 1728 384 
Q 2125 384 2398 659 
Q 2672 934 2672 1341 
Q 2672 1728 2419 1979 
Q 2166 2231 1775 2231 
Q 1616 2231 1378 2169 
L 1441 2663 
Q 1497 2656 1531 2656 
Q 1891 2656 2178 2843 
Q 2466 3031 2466 3422 
Q 2466 3731 2256 3934 
Q 2047 4138 1716 4138 
Q 1388 4138 1169 3931 
Q 950 3725 888 3313 
L 325 3413 
Q 428 3978 793 4289 
Q 1159 4600 1703 4600 
Q 2078 4600 2393 4439 
Q 2709 4278 2876 4000 
Q 3044 3722 3044 3409 
Q 3044 3113 2884 2869 
Q 2725 2625 2413 2481 
Q 2819 2388 3044 2092 
Q 3269 1797 3269 1353 
Q 3269 753 2831 336 
Q 2394 -81 1725 -81 
Q 1122 -81 723 278 
Q 325 638 269 1209 
z
" transform="scale(0.015625)"/>
       <path id="ArialMT-4d" d="M 475 0 
L 475 4581 
L 1388 4581 
L 2472 1338 
Q 2622 884 2691 659 
Q 2769 909 2934 1394 
L 4031 4581 
L 4847 4581 
L 4847 0 
L 4263 0 
L 4263 3834 
L 2931 0 
L 2384 0 
L 1059 3900 
L 1059 0 
L 475 0 
z
" transform="scale(0.015625)"/>
       <path id="ArialMT-5f" d="M -97 -1272 
L -97 -866 
L 3631 -866 
L 3631 -1272 
L -97 -1272 
z
" transform="scale(0.015625)"/>
      </defs>
      <use xlink:href="#ArialMT-74"/>
      <use xlink:href="#ArialMT-3d" x="27.783203"/>
      <use xlink:href="#ArialMT-30" x="86.181641"/>
      <use xlink:href="#ArialMT-68" x="141.796875"/>
      <use xlink:href="#ArialMT-72" x="197.412109"/>
      <use xlink:href="#ArialMT-73" x="230.712891"/>
      <use xlink:href="#ArialMT-20" x="280.712891"/>
      <use xlink:href="#ArialMT-46" x="308.496094"/>
      <use xlink:href="#ArialMT-65" x="369.580078"/>
      <use xlink:href="#ArialMT-43" x="425.195312"/>
      <use xlink:href="#ArialMT-6c" x="497.412109"/>
      <use xlink:href="#ArialMT-33" x="519.628906"/>
      <use xlink:href="#ArialMT-20" x="575.244141"/>
      <use xlink:href="#ArialMT-30" x="603.027344"/>
      <use xlink:href="#ArialMT-75" x="658.642578"/>
      <use xlink:href="#ArialMT-4d" x="714.257812"/>
      <use xlink:href="#ArialMT-5f" x="797.558594"/>
      <use xlink:href="#ArialMT-41" x="853.173828"/>
      <use xlink:href="#ArialMT-62" x="919.873047"/>
      <use xlink:href="#ArialMT-73" x="975.488281"/>
     </g>
    </g>
    <g id="line2d_34">
     <path d="M 260.255188 53.976122 
L 266.255188 53.976122 
L 272.255188 53.976122 
" style="fill: none; stroke: #f06043; stroke-width: 1.5; stroke-linecap: round"/>
    </g>
    <g id="text_16">
     <!-- t=0hrs FeCl3 5uM repeat_Abs -->
     <g style="fill: #262626" transform="translate(277.055188 56.076122) scale(0.06 -0.06)">
      <defs>
       <path id="ArialMT-35" d="M 266 1200 
L 856 1250 
Q 922 819 1161 601 
Q 1400 384 1738 384 
Q 2144 384 2425 690 
Q 2706 997 2706 1503 
Q 2706 1984 2436 2262 
Q 2166 2541 1728 2541 
Q 1456 2541 1237 2417 
Q 1019 2294 894 2097 
L 366 2166 
L 809 4519 
L 3088 4519 
L 3088 3981 
L 1259 3981 
L 1013 2750 
Q 1425 3038 1878 3038 
Q 2478 3038 2890 2622 
Q 3303 2206 3303 1553 
Q 3303 931 2941 478 
Q 2500 -78 1738 -78 
Q 1113 -78 717 272 
Q 322 622 266 1200 
z
" transform="scale(0.015625)"/>
       <path id="ArialMT-70" d="M 422 -1272 
L 422 3319 
L 934 3319 
L 934 2888 
Q 1116 3141 1344 3267 
Q 1572 3394 1897 3394 
Q 2322 3394 2647 3175 
Q 2972 2956 3137 2557 
Q 3303 2159 3303 1684 
Q 3303 1175 3120 767 
Q 2938 359 2589 142 
Q 2241 -75 1856 -75 
Q 1575 -75 1351 44 
Q 1128 163 984 344 
L 984 -1272 
L 422 -1272 
z
M 931 1641 
Q 931 1000 1190 694 
Q 1450 388 1819 388 
Q 2194 388 2461 705 
Q 2728 1022 2728 1688 
Q 2728 2322 2467 2637 
Q 2206 2953 1844 2953 
Q 1484 2953 1207 2617 
Q 931 2281 931 1641 
z
" transform="scale(0.015625)"/>
      </defs>
      <use xlink:href="#ArialMT-74"/>
      <use xlink:href="#ArialMT-3d" x="27.783203"/>
      <use xlink:href="#ArialMT-30" x="86.181641"/>
      <use xlink:href="#ArialMT-68" x="141.796875"/>
      <use xlink:href="#ArialMT-72" x="197.412109"/>
      <use xlink:href="#ArialMT-73" x="230.712891"/>
      <use xlink:href="#ArialMT-20" x="280.712891"/>
      <use xlink:href="#ArialMT-46" x="308.496094"/>
      <use xlink:href="#ArialMT-65" x="369.580078"/>
      <use xlink:href="#ArialMT-43" x="425.195312"/>
      <use xlink:href="#ArialMT-6c" x="497.412109"/>
      <use xlink:href="#ArialMT-33" x="519.628906"/>
      <use xlink:href="#ArialMT-20" x="575.244141"/>
      <use xlink:href="#ArialMT-35" x="603.027344"/>
      <use xlink:href="#ArialMT-75" x="658.642578"/>
      <use xlink:href="#ArialMT-4d" x="714.257812"/>
      <use xlink:href="#ArialMT-20" x="797.558594"/>
      <use xlink:href="#ArialMT-72" x="825.341797"/>
      <use xlink:href="#ArialMT-65" x="858.642578"/>
      <use xlink:href="#ArialMT-70" x="914.257812"/>
      <use xlink:href="#ArialMT-65" x="969.873047"/>
      <use xlink:href="#ArialMT-61" x="1025.488281"/>
      <use xlink:href="#ArialMT-74" x="1081.103516"/>
      <use xlink:href="#ArialMT-5f" x="1108.886719"/>
      <use xlink:href="#ArialMT-41" x="1164.501953"/>
      <use xlink:href="#ArialMT-62" x="1231.201172"/>
      <use xlink:href="#ArialMT-73" x="1286.816406"/>
     </g>
    </g>
    <g id="line2d_35">
     <path d="M 260.255188 62.536434 
L 266.255188 62.536434 
L 272.255188 62.536434 
" style="fill: none; stroke: #ca1a50; stroke-width: 1.5; stroke-linecap: round"/>
    </g>
    <g id="text_17">
     <!-- t=0hrs FeCl3 20uM_Abs -->
     <g style="fill: #262626" transform="translate(277.055188 64.636434) scale(0.06 -0.06)">
      <use xlink:href="#ArialMT-74"/>
      <use xlink:href="#ArialMT-3d" x="27.783203"/>
      <use xlink:href="#ArialMT-30" x="86.181641"/>
      <use xlink:href="#ArialMT-68" x="141.796875"/>
      <use xlink:href="#ArialMT-72" x="197.412109"/>
      <use xlink:href="#ArialMT-73" x="230.712891"/>
      <use xlink:href="#ArialMT-20" x="280.712891"/>
      <use xlink:href="#ArialMT-46" x="308.496094"/>
      <use xlink:href="#ArialMT-65" x="369.580078"/>
      <use xlink:href="#ArialMT-43" x="425.195312"/>
      <use xlink:href="#ArialMT-6c" x="497.412109"/>
      <use xlink:href="#ArialMT-33" x="519.628906"/>
      <use xlink:href="#ArialMT-20" x="575.244141"/>
      <use xlink:href="#ArialMT-32" x="603.027344"/>
      <use xlink:href="#ArialMT-30" x="658.642578"/>
      <use xlink:href="#ArialMT-75" x="714.257812"/>
      <use xlink:href="#ArialMT-4d" x="769.873047"/>
      <use xlink:href="#ArialMT-5f" x="853.173828"/>
      <use xlink:href="#ArialMT-41" x="908.789062"/>
      <use xlink:href="#ArialMT-62" x="975.488281"/>
      <use xlink:href="#ArialMT-73" x="1031.103516"/>
     </g>
    </g>
    <g id="line2d_36">
     <path d="M 260.255188 71.096747 
L 266.255188 71.096747 
L 272.255188 71.096747 
" style="fill: none; stroke: #841e5a; stroke-width: 1.5; stroke-linecap: round"/>
    </g>
    <g id="text_18">
     <!-- t=0hrs FeCl3 50uM_Abs -->
     <g style="fill: #262626" transform="translate(277.055188 73.196747) scale(0.06 -0.06)">
      <use xlink:href="#ArialMT-74"/>
      <use xlink:href="#ArialMT-3d" x="27.783203"/>
      <use xlink:href="#ArialMT-30" x="86.181641"/>
      <use xlink:href="#ArialMT-68" x="141.796875"/>
      <use xlink:href="#ArialMT-72" x="197.412109"/>
      <use xlink:href="#ArialMT-73" x="230.712891"/>
      <use xlink:href="#ArialMT-20" x="280.712891"/>
      <use xlink:href="#ArialMT-46" x="308.496094"/>
      <use xlink:href="#ArialMT-65" x="369.580078"/>
      <use xlink:href="#ArialMT-43" x="425.195312"/>
      <use xlink:href="#ArialMT-6c" x="497.412109"/>
      <use xlink:href="#ArialMT-33" x="519.628906"/>
      <use xlink:href="#ArialMT-20" x="575.244141"/>
      <use xlink:href="#ArialMT-35" x="603.027344"/>
      <use xlink:href="#ArialMT-30" x="658.642578"/>
      <use xlink:href="#ArialMT-75" x="714.257812"/>
      <use xlink:href="#ArialMT-4d" x="769.873047"/>
      <use xlink:href="#ArialMT-5f" x="853.173828"/>
      <use xlink:href="#ArialMT-41" x="908.789062"/>
      <use xlink:href="#ArialMT-62" x="975.488281"/>
      <use xlink:href="#ArialMT-73" x="1031.103516"/>
     </g>
    </g>
    <g id="line2d_37">
     <path d="M 260.255188 79.657059 
L 266.255188 79.657059 
L 272.255188 79.657059 
" style="fill: none; stroke: #3f1b43; stroke-width: 1.5; stroke-linecap: round"/>
    </g>
    <g id="text_19">
     <!-- t=0hrs FeCl3 100uM_Abs -->
     <g style="fill: #262626" transform="translate(277.055188 81.757059) scale(0.06 -0.06)">
      <use xlink:href="#ArialMT-74"/>
      <use xlink:href="#ArialMT-3d" x="27.783203"/>
      <use xlink:href="#ArialMT-30" x="86.181641"/>
      <use xlink:href="#ArialMT-68" x="141.796875"/>
      <use xlink:href="#ArialMT-72" x="197.412109"/>
      <use xlink:href="#ArialMT-73" x="230.712891"/>
      <use xlink:href="#ArialMT-20" x="280.712891"/>
      <use xlink:href="#ArialMT-46" x="308.496094"/>
      <use xlink:href="#ArialMT-65" x="369.580078"/>
      <use xlink:href="#ArialMT-43" x="425.195312"/>
      <use xlink:href="#ArialMT-6c" x="497.412109"/>
      <use xlink:href="#ArialMT-33" x="519.628906"/>
      <use xlink:href="#ArialMT-20" x="575.244141"/>
      <use xlink:href="#ArialMT-31" x="603.027344"/>
      <use xlink:href="#ArialMT-30" x="658.642578"/>
      <use xlink:href="#ArialMT-30" x="714.257812"/>
      <use xlink:href="#ArialMT-75" x="769.873047"/>
      <use xlink:href="#ArialMT-4d" x="825.488281"/>
      <use xlink:href="#ArialMT-5f" x="908.789062"/>
      <use xlink:href="#ArialMT-41" x="964.404297"/>
      <use xlink:href="#ArialMT-62" x="1031.103516"/>
      <use xlink:href="#ArialMT-73" x="1086.71875"/>
     </g>
    </g>
   </g>
  </g>
 </g>
 <defs>
  <clipPath id="p1bf615ce7e">
   <rect x="41.25125" y="11.136797" width="357.12" height="266.112"/>
  </clipPath>
 </defs>
</svg>
