<?xml version="1.0" encoding="utf-8" standalone="no"?>
<!DOCTYPE svg PUBLIC "-//W3C//DTD SVG 1.1//EN"
  "http://www.w3.org/Graphics/SVG/1.1/DTD/svg11.dtd">
<svg xmlns:xlink="http://www.w3.org/1999/xlink" width="417.805313pt" height="313.269891pt" viewBox="0 0 417.805313 313.269891" xmlns="http://www.w3.org/2000/svg" version="1.1">
 <metadata>
  <rdf:RDF xmlns:dc="http://purl.org/dc/elements/1.1/" xmlns:cc="http://creativecommons.org/ns#" xmlns:rdf="http://www.w3.org/1999/02/22-rdf-syntax-ns#">
   <cc:Work>
    <dc:type rdf:resource="http://purl.org/dc/dcmitype/StillImage"/>
    <dc:date>2024-09-13T09:24:08.433344</dc:date>
    <dc:format>image/svg+xml</dc:format>
    <dc:creator>
     <cc:Agent>
      <dc:title>Matplotlib v3.7.1, https://matplotlib.org/</dc:title>
     </cc:Agent>
    </dc:creator>
   </cc:Work>
  </rdf:RDF>
 </metadata>
 <defs>
  <style type="text/css">*{stroke-linejoin: round; stroke-linecap: butt}</style>
 </defs>
 <g id="figure_1">
  <g id="patch_1">
   <path d="M 0 313.269891 
L 417.805313 313.269891 
L 417.805313 0 
L 0 0 
z
" style="fill: #ffffff"/>
  </g>
  <g id="axes_1">
   <g id="patch_2">
    <path d="M 41.25125 277.248797 
L 398.37125 277.248797 
L 398.37125 11.136797 
L 41.25125 11.136797 
z
" style="fill: #ffffff"/>
   </g>
   <g id="matplotlib.axis_1">
    <g id="xtick_1">
     <g id="line2d_1">
      <defs>
       <path id="m6f4f135934" d="M 0 0 
L 0 -6 
" style="stroke: #262626; stroke-width: 1.25"/>
      </defs>
      <g>
       <use xlink:href="#m6f4f135934" x="73.716705" y="277.248797" style="fill: #262626; stroke: #262626; stroke-width: 1.25"/>
      </g>
     </g>
     <g id="text_1">
      <!-- 400 -->
      <g style="fill: #262626" transform="translate(64.541158 288.622391) scale(0.11 -0.11)">
       <defs>
        <path id="ArialMT-34" d="M 2069 0 
L 2069 1097 
L 81 1097 
L 81 1613 
L 2172 4581 
L 2631 4581 
L 2631 1613 
L 3250 1613 
L 3250 1097 
L 2631 1097 
L 2631 0 
L 2069 0 
z
M 2069 1613 
L 2069 3678 
L 634 1613 
L 2069 1613 
z
" transform="scale(0.015625)"/>
        <path id="ArialMT-30" d="M 266 2259 
Q 266 3072 433 3567 
Q 600 4063 929 4331 
Q 1259 4600 1759 4600 
Q 2128 4600 2406 4451 
Q 2684 4303 2865 4023 
Q 3047 3744 3150 3342 
Q 3253 2941 3253 2259 
Q 3253 1453 3087 958 
Q 2922 463 2592 192 
Q 2263 -78 1759 -78 
Q 1097 -78 719 397 
Q 266 969 266 2259 
z
M 844 2259 
Q 844 1131 1108 757 
Q 1372 384 1759 384 
Q 2147 384 2411 759 
Q 2675 1134 2675 2259 
Q 2675 3391 2411 3762 
Q 2147 4134 1753 4134 
Q 1366 4134 1134 3806 
Q 844 3388 844 2259 
z
" transform="scale(0.015625)"/>
       </defs>
       <use xlink:href="#ArialMT-34"/>
       <use xlink:href="#ArialMT-30" x="55.615234"/>
       <use xlink:href="#ArialMT-30" x="111.230469"/>
      </g>
     </g>
    </g>
    <g id="xtick_2">
     <g id="line2d_2">
      <g>
       <use xlink:href="#m6f4f135934" x="138.647614" y="277.248797" style="fill: #262626; stroke: #262626; stroke-width: 1.25"/>
      </g>
     </g>
     <g id="text_2">
      <!-- 600 -->
      <g style="fill: #262626" transform="translate(129.472067 288.622391) scale(0.11 -0.11)">
       <defs>
        <path id="ArialMT-36" d="M 3184 3459 
L 2625 3416 
Q 2550 3747 2413 3897 
Q 2184 4138 1850 4138 
Q 1581 4138 1378 3988 
Q 1113 3794 959 3422 
Q 806 3050 800 2363 
Q 1003 2672 1297 2822 
Q 1591 2972 1913 2972 
Q 2475 2972 2870 2558 
Q 3266 2144 3266 1488 
Q 3266 1056 3080 686 
Q 2894 316 2569 119 
Q 2244 -78 1831 -78 
Q 1128 -78 684 439 
Q 241 956 241 2144 
Q 241 3472 731 4075 
Q 1159 4600 1884 4600 
Q 2425 4600 2770 4297 
Q 3116 3994 3184 3459 
z
M 888 1484 
Q 888 1194 1011 928 
Q 1134 663 1356 523 
Q 1578 384 1822 384 
Q 2178 384 2434 671 
Q 2691 959 2691 1453 
Q 2691 1928 2437 2201 
Q 2184 2475 1800 2475 
Q 1419 2475 1153 2201 
Q 888 1928 888 1484 
z
" transform="scale(0.015625)"/>
       </defs>
       <use xlink:href="#ArialMT-36"/>
       <use xlink:href="#ArialMT-30" x="55.615234"/>
       <use xlink:href="#ArialMT-30" x="111.230469"/>
      </g>
     </g>
    </g>
    <g id="xtick_3">
     <g id="line2d_3">
      <g>
       <use xlink:href="#m6f4f135934" x="203.578523" y="277.248797" style="fill: #262626; stroke: #262626; stroke-width: 1.25"/>
      </g>
     </g>
     <g id="text_3">
      <!-- 800 -->
      <g style="fill: #262626" transform="translate(194.402976 288.622391) scale(0.11 -0.11)">
       <defs>
        <path id="ArialMT-38" d="M 1131 2484 
Q 781 2613 612 2850 
Q 444 3088 444 3419 
Q 444 3919 803 4259 
Q 1163 4600 1759 4600 
Q 2359 4600 2725 4251 
Q 3091 3903 3091 3403 
Q 3091 3084 2923 2848 
Q 2756 2613 2416 2484 
Q 2838 2347 3058 2040 
Q 3278 1734 3278 1309 
Q 3278 722 2862 322 
Q 2447 -78 1769 -78 
Q 1091 -78 675 323 
Q 259 725 259 1325 
Q 259 1772 486 2073 
Q 713 2375 1131 2484 
z
M 1019 3438 
Q 1019 3113 1228 2906 
Q 1438 2700 1772 2700 
Q 2097 2700 2305 2904 
Q 2513 3109 2513 3406 
Q 2513 3716 2298 3927 
Q 2084 4138 1766 4138 
Q 1444 4138 1231 3931 
Q 1019 3725 1019 3438 
z
M 838 1322 
Q 838 1081 952 856 
Q 1066 631 1291 507 
Q 1516 384 1775 384 
Q 2178 384 2440 643 
Q 2703 903 2703 1303 
Q 2703 1709 2433 1975 
Q 2163 2241 1756 2241 
Q 1359 2241 1098 1978 
Q 838 1716 838 1322 
z
" transform="scale(0.015625)"/>
       </defs>
       <use xlink:href="#ArialMT-38"/>
       <use xlink:href="#ArialMT-30" x="55.615234"/>
       <use xlink:href="#ArialMT-30" x="111.230469"/>
      </g>
     </g>
    </g>
    <g id="xtick_4">
     <g id="line2d_4">
      <g>
       <use xlink:href="#m6f4f135934" x="268.509432" y="277.248797" style="fill: #262626; stroke: #262626; stroke-width: 1.25"/>
      </g>
     </g>
     <g id="text_4">
      <!-- 1000 -->
      <g style="fill: #262626" transform="translate(256.275369 288.622391) scale(0.11 -0.11)">
       <defs>
        <path id="ArialMT-31" d="M 2384 0 
L 1822 0 
L 1822 3584 
Q 1619 3391 1289 3197 
Q 959 3003 697 2906 
L 697 3450 
Q 1169 3672 1522 3987 
Q 1875 4303 2022 4600 
L 2384 4600 
L 2384 0 
z
" transform="scale(0.015625)"/>
       </defs>
       <use xlink:href="#ArialMT-31"/>
       <use xlink:href="#ArialMT-30" x="55.615234"/>
       <use xlink:href="#ArialMT-30" x="111.230469"/>
       <use xlink:href="#ArialMT-30" x="166.845703"/>
      </g>
     </g>
    </g>
    <g id="xtick_5">
     <g id="line2d_5">
      <g>
       <use xlink:href="#m6f4f135934" x="333.440341" y="277.248797" style="fill: #262626; stroke: #262626; stroke-width: 1.25"/>
      </g>
     </g>
     <g id="text_5">
      <!-- 1200 -->
      <g style="fill: #262626" transform="translate(321.206278 288.622391) scale(0.11 -0.11)">
       <defs>
        <path id="ArialMT-32" d="M 3222 541 
L 3222 0 
L 194 0 
Q 188 203 259 391 
Q 375 700 629 1000 
Q 884 1300 1366 1694 
Q 2113 2306 2375 2664 
Q 2638 3022 2638 3341 
Q 2638 3675 2398 3904 
Q 2159 4134 1775 4134 
Q 1369 4134 1125 3890 
Q 881 3647 878 3216 
L 300 3275 
Q 359 3922 746 4261 
Q 1134 4600 1788 4600 
Q 2447 4600 2831 4234 
Q 3216 3869 3216 3328 
Q 3216 3053 3103 2787 
Q 2991 2522 2730 2228 
Q 2469 1934 1863 1422 
Q 1356 997 1212 845 
Q 1069 694 975 541 
L 3222 541 
z
" transform="scale(0.015625)"/>
       </defs>
       <use xlink:href="#ArialMT-31"/>
       <use xlink:href="#ArialMT-32" x="55.615234"/>
       <use xlink:href="#ArialMT-30" x="111.230469"/>
       <use xlink:href="#ArialMT-30" x="166.845703"/>
      </g>
     </g>
    </g>
    <g id="xtick_6">
     <g id="line2d_6">
      <g>
       <use xlink:href="#m6f4f135934" x="398.37125" y="277.248797" style="fill: #262626; stroke: #262626; stroke-width: 1.25"/>
      </g>
     </g>
     <g id="text_6">
      <!-- 1400 -->
      <g style="fill: #262626" transform="translate(386.137188 288.622391) scale(0.11 -0.11)">
       <use xlink:href="#ArialMT-31"/>
       <use xlink:href="#ArialMT-34" x="55.615234"/>
       <use xlink:href="#ArialMT-30" x="111.230469"/>
       <use xlink:href="#ArialMT-30" x="166.845703"/>
      </g>
     </g>
    </g>
    <g id="xtick_7">
     <g id="line2d_7">
      <defs>
       <path id="mb832d23257" d="M 0 0 
L 0 -4 
" style="stroke: #262626"/>
      </defs>
      <g>
       <use xlink:href="#mb832d23257" x="106.182159" y="277.248797" style="fill: #262626; stroke: #262626"/>
      </g>
     </g>
    </g>
    <g id="xtick_8">
     <g id="line2d_8">
      <g>
       <use xlink:href="#mb832d23257" x="171.113068" y="277.248797" style="fill: #262626; stroke: #262626"/>
      </g>
     </g>
    </g>
    <g id="xtick_9">
     <g id="line2d_9">
      <g>
       <use xlink:href="#mb832d23257" x="236.043977" y="277.248797" style="fill: #262626; stroke: #262626"/>
      </g>
     </g>
    </g>
    <g id="xtick_10">
     <g id="line2d_10">
      <g>
       <use xlink:href="#mb832d23257" x="300.974886" y="277.248797" style="fill: #262626; stroke: #262626"/>
      </g>
     </g>
    </g>
    <g id="xtick_11">
     <g id="line2d_11">
      <g>
       <use xlink:href="#mb832d23257" x="365.905795" y="277.248797" style="fill: #262626; stroke: #262626"/>
      </g>
     </g>
    </g>
    <g id="text_7">
     <!-- Wavelength (nm) -->
     <g style="fill: #262626" transform="translate(174.356562 303.544266) scale(0.12 -0.12)">
      <defs>
       <path id="ArialMT-57" d="M 1294 0 
L 78 4581 
L 700 4581 
L 1397 1578 
Q 1509 1106 1591 641 
Q 1766 1375 1797 1488 
L 2669 4581 
L 3400 4581 
L 4056 2263 
Q 4303 1400 4413 641 
Q 4500 1075 4641 1638 
L 5359 4581 
L 5969 4581 
L 4713 0 
L 4128 0 
L 3163 3491 
Q 3041 3928 3019 4028 
Q 2947 3713 2884 3491 
L 1913 0 
L 1294 0 
z
" transform="scale(0.015625)"/>
       <path id="ArialMT-61" d="M 2588 409 
Q 2275 144 1986 34 
Q 1697 -75 1366 -75 
Q 819 -75 525 192 
Q 231 459 231 875 
Q 231 1119 342 1320 
Q 453 1522 633 1644 
Q 813 1766 1038 1828 
Q 1203 1872 1538 1913 
Q 2219 1994 2541 2106 
Q 2544 2222 2544 2253 
Q 2544 2597 2384 2738 
Q 2169 2928 1744 2928 
Q 1347 2928 1158 2789 
Q 969 2650 878 2297 
L 328 2372 
Q 403 2725 575 2942 
Q 747 3159 1072 3276 
Q 1397 3394 1825 3394 
Q 2250 3394 2515 3294 
Q 2781 3194 2906 3042 
Q 3031 2891 3081 2659 
Q 3109 2516 3109 2141 
L 3109 1391 
Q 3109 606 3145 398 
Q 3181 191 3288 0 
L 2700 0 
Q 2613 175 2588 409 
z
M 2541 1666 
Q 2234 1541 1622 1453 
Q 1275 1403 1131 1340 
Q 988 1278 909 1158 
Q 831 1038 831 891 
Q 831 666 1001 516 
Q 1172 366 1500 366 
Q 1825 366 2078 508 
Q 2331 650 2450 897 
Q 2541 1088 2541 1459 
L 2541 1666 
z
" transform="scale(0.015625)"/>
       <path id="ArialMT-76" d="M 1344 0 
L 81 3319 
L 675 3319 
L 1388 1331 
Q 1503 1009 1600 663 
Q 1675 925 1809 1294 
L 2547 3319 
L 3125 3319 
L 1869 0 
L 1344 0 
z
" transform="scale(0.015625)"/>
       <path id="ArialMT-65" d="M 2694 1069 
L 3275 997 
Q 3138 488 2766 206 
Q 2394 -75 1816 -75 
Q 1088 -75 661 373 
Q 234 822 234 1631 
Q 234 2469 665 2931 
Q 1097 3394 1784 3394 
Q 2450 3394 2872 2941 
Q 3294 2488 3294 1666 
Q 3294 1616 3291 1516 
L 816 1516 
Q 847 969 1125 678 
Q 1403 388 1819 388 
Q 2128 388 2347 550 
Q 2566 713 2694 1069 
z
M 847 1978 
L 2700 1978 
Q 2663 2397 2488 2606 
Q 2219 2931 1791 2931 
Q 1403 2931 1139 2672 
Q 875 2413 847 1978 
z
" transform="scale(0.015625)"/>
       <path id="ArialMT-6c" d="M 409 0 
L 409 4581 
L 972 4581 
L 972 0 
L 409 0 
z
" transform="scale(0.015625)"/>
       <path id="ArialMT-6e" d="M 422 0 
L 422 3319 
L 928 3319 
L 928 2847 
Q 1294 3394 1984 3394 
Q 2284 3394 2536 3286 
Q 2788 3178 2913 3003 
Q 3038 2828 3088 2588 
Q 3119 2431 3119 2041 
L 3119 0 
L 2556 0 
L 2556 2019 
Q 2556 2363 2490 2533 
Q 2425 2703 2258 2804 
Q 2091 2906 1866 2906 
Q 1506 2906 1245 2678 
Q 984 2450 984 1813 
L 984 0 
L 422 0 
z
" transform="scale(0.015625)"/>
       <path id="ArialMT-67" d="M 319 -275 
L 866 -356 
Q 900 -609 1056 -725 
Q 1266 -881 1628 -881 
Q 2019 -881 2231 -725 
Q 2444 -569 2519 -288 
Q 2563 -116 2559 434 
Q 2191 0 1641 0 
Q 956 0 581 494 
Q 206 988 206 1678 
Q 206 2153 378 2554 
Q 550 2956 876 3175 
Q 1203 3394 1644 3394 
Q 2231 3394 2613 2919 
L 2613 3319 
L 3131 3319 
L 3131 450 
Q 3131 -325 2973 -648 
Q 2816 -972 2473 -1159 
Q 2131 -1347 1631 -1347 
Q 1038 -1347 672 -1080 
Q 306 -813 319 -275 
z
M 784 1719 
Q 784 1066 1043 766 
Q 1303 466 1694 466 
Q 2081 466 2343 764 
Q 2606 1063 2606 1700 
Q 2606 2309 2336 2618 
Q 2066 2928 1684 2928 
Q 1309 2928 1046 2623 
Q 784 2319 784 1719 
z
" transform="scale(0.015625)"/>
       <path id="ArialMT-74" d="M 1650 503 
L 1731 6 
Q 1494 -44 1306 -44 
Q 1000 -44 831 53 
Q 663 150 594 308 
Q 525 466 525 972 
L 525 2881 
L 113 2881 
L 113 3319 
L 525 3319 
L 525 4141 
L 1084 4478 
L 1084 3319 
L 1650 3319 
L 1650 2881 
L 1084 2881 
L 1084 941 
Q 1084 700 1114 631 
Q 1144 563 1211 522 
Q 1278 481 1403 481 
Q 1497 481 1650 503 
z
" transform="scale(0.015625)"/>
       <path id="ArialMT-68" d="M 422 0 
L 422 4581 
L 984 4581 
L 984 2938 
Q 1378 3394 1978 3394 
Q 2347 3394 2619 3248 
Q 2891 3103 3008 2847 
Q 3125 2591 3125 2103 
L 3125 0 
L 2563 0 
L 2563 2103 
Q 2563 2525 2380 2717 
Q 2197 2909 1863 2909 
Q 1613 2909 1392 2779 
Q 1172 2650 1078 2428 
Q 984 2206 984 1816 
L 984 0 
L 422 0 
z
" transform="scale(0.015625)"/>
       <path id="ArialMT-20" transform="scale(0.015625)"/>
       <path id="ArialMT-28" d="M 1497 -1347 
Q 1031 -759 709 28 
Q 388 816 388 1659 
Q 388 2403 628 3084 
Q 909 3875 1497 4659 
L 1900 4659 
Q 1522 4009 1400 3731 
Q 1209 3300 1100 2831 
Q 966 2247 966 1656 
Q 966 153 1900 -1347 
L 1497 -1347 
z
" transform="scale(0.015625)"/>
       <path id="ArialMT-6d" d="M 422 0 
L 422 3319 
L 925 3319 
L 925 2853 
Q 1081 3097 1340 3245 
Q 1600 3394 1931 3394 
Q 2300 3394 2536 3241 
Q 2772 3088 2869 2813 
Q 3263 3394 3894 3394 
Q 4388 3394 4653 3120 
Q 4919 2847 4919 2278 
L 4919 0 
L 4359 0 
L 4359 2091 
Q 4359 2428 4304 2576 
Q 4250 2725 4106 2815 
Q 3963 2906 3769 2906 
Q 3419 2906 3187 2673 
Q 2956 2441 2956 1928 
L 2956 0 
L 2394 0 
L 2394 2156 
Q 2394 2531 2256 2718 
Q 2119 2906 1806 2906 
Q 1569 2906 1367 2781 
Q 1166 2656 1075 2415 
Q 984 2175 984 1722 
L 984 0 
L 422 0 
z
" transform="scale(0.015625)"/>
       <path id="ArialMT-29" d="M 791 -1347 
L 388 -1347 
Q 1322 153 1322 1656 
Q 1322 2244 1188 2822 
Q 1081 3291 891 3722 
Q 769 4003 388 4659 
L 791 4659 
Q 1378 3875 1659 3084 
Q 1900 2403 1900 1659 
Q 1900 816 1576 28 
Q 1253 -759 791 -1347 
z
" transform="scale(0.015625)"/>
      </defs>
      <use xlink:href="#ArialMT-57"/>
      <use xlink:href="#ArialMT-61" x="90.634766"/>
      <use xlink:href="#ArialMT-76" x="146.25"/>
      <use xlink:href="#ArialMT-65" x="196.25"/>
      <use xlink:href="#ArialMT-6c" x="251.865234"/>
      <use xlink:href="#ArialMT-65" x="274.082031"/>
      <use xlink:href="#ArialMT-6e" x="329.697266"/>
      <use xlink:href="#ArialMT-67" x="385.3125"/>
      <use xlink:href="#ArialMT-74" x="440.927734"/>
      <use xlink:href="#ArialMT-68" x="468.710938"/>
      <use xlink:href="#ArialMT-20" x="524.326172"/>
      <use xlink:href="#ArialMT-28" x="552.109375"/>
      <use xlink:href="#ArialMT-6e" x="585.410156"/>
      <use xlink:href="#ArialMT-6d" x="641.025391"/>
      <use xlink:href="#ArialMT-29" x="724.326172"/>
     </g>
    </g>
   </g>
   <g id="matplotlib.axis_2">
    <g id="ytick_1">
     <g id="line2d_12">
      <defs>
       <path id="m3bad841fa1" d="M 0 0 
L 6 0 
" style="stroke: #262626; stroke-width: 1.25"/>
      </defs>
      <g>
       <use xlink:href="#m3bad841fa1" x="41.25125" y="277.248797" style="fill: #262626; stroke: #262626; stroke-width: 1.25"/>
      </g>
     </g>
     <g id="text_8">
      <!-- 0.0 -->
      <g style="fill: #262626" transform="translate(22.46125 281.185594) scale(0.11 -0.11)">
       <defs>
        <path id="ArialMT-2e" d="M 581 0 
L 581 641 
L 1222 641 
L 1222 0 
L 581 0 
z
" transform="scale(0.015625)"/>
       </defs>
       <use xlink:href="#ArialMT-30"/>
       <use xlink:href="#ArialMT-2e" x="55.615234"/>
       <use xlink:href="#ArialMT-30" x="83.398438"/>
      </g>
     </g>
    </g>
    <g id="ytick_2">
     <g id="line2d_13">
      <g>
       <use xlink:href="#m3bad841fa1" x="41.25125" y="247.680797" style="fill: #262626; stroke: #262626; stroke-width: 1.25"/>
      </g>
     </g>
     <g id="text_9">
      <!-- 0.1 -->
      <g style="fill: #262626" transform="translate(22.46125 251.617594) scale(0.11 -0.11)">
       <use xlink:href="#ArialMT-30"/>
       <use xlink:href="#ArialMT-2e" x="55.615234"/>
       <use xlink:href="#ArialMT-31" x="83.398438"/>
      </g>
     </g>
    </g>
    <g id="ytick_3">
     <g id="line2d_14">
      <g>
       <use xlink:href="#m3bad841fa1" x="41.25125" y="218.112797" style="fill: #262626; stroke: #262626; stroke-width: 1.25"/>
      </g>
     </g>
     <g id="text_10">
      <!-- 0.2 -->
      <g style="fill: #262626" transform="translate(22.46125 222.049594) scale(0.11 -0.11)">
       <use xlink:href="#ArialMT-30"/>
       <use xlink:href="#ArialMT-2e" x="55.615234"/>
       <use xlink:href="#ArialMT-32" x="83.398438"/>
      </g>
     </g>
    </g>
    <g id="ytick_4">
     <g id="line2d_15">
      <g>
       <use xlink:href="#m3bad841fa1" x="41.25125" y="188.544797" style="fill: #262626; stroke: #262626; stroke-width: 1.25"/>
      </g>
     </g>
     <g id="text_11">
      <!-- 0.3 -->
      <g style="fill: #262626" transform="translate(22.46125 192.481594) scale(0.11 -0.11)">
       <defs>
        <path id="ArialMT-33" d="M 269 1209 
L 831 1284 
Q 928 806 1161 595 
Q 1394 384 1728 384 
Q 2125 384 2398 659 
Q 2672 934 2672 1341 
Q 2672 1728 2419 1979 
Q 2166 2231 1775 2231 
Q 1616 2231 1378 2169 
L 1441 2663 
Q 1497 2656 1531 2656 
Q 1891 2656 2178 2843 
Q 2466 3031 2466 3422 
Q 2466 3731 2256 3934 
Q 2047 4138 1716 4138 
Q 1388 4138 1169 3931 
Q 950 3725 888 3313 
L 325 3413 
Q 428 3978 793 4289 
Q 1159 4600 1703 4600 
Q 2078 4600 2393 4439 
Q 2709 4278 2876 4000 
Q 3044 3722 3044 3409 
Q 3044 3113 2884 2869 
Q 2725 2625 2413 2481 
Q 2819 2388 3044 2092 
Q 3269 1797 3269 1353 
Q 3269 753 2831 336 
Q 2394 -81 1725 -81 
Q 1122 -81 723 278 
Q 325 638 269 1209 
z
" transform="scale(0.015625)"/>
       </defs>
       <use xlink:href="#ArialMT-30"/>
       <use xlink:href="#ArialMT-2e" x="55.615234"/>
       <use xlink:href="#ArialMT-33" x="83.398438"/>
      </g>
     </g>
    </g>
    <g id="ytick_5">
     <g id="line2d_16">
      <g>
       <use xlink:href="#m3bad841fa1" x="41.25125" y="158.976797" style="fill: #262626; stroke: #262626; stroke-width: 1.25"/>
      </g>
     </g>
     <g id="text_12">
      <!-- 0.4 -->
      <g style="fill: #262626" transform="translate(22.46125 162.913594) scale(0.11 -0.11)">
       <use xlink:href="#ArialMT-30"/>
       <use xlink:href="#ArialMT-2e" x="55.615234"/>
       <use xlink:href="#ArialMT-34" x="83.398438"/>
      </g>
     </g>
    </g>
    <g id="ytick_6">
     <g id="line2d_17">
      <g>
       <use xlink:href="#m3bad841fa1" x="41.25125" y="129.408797" style="fill: #262626; stroke: #262626; stroke-width: 1.25"/>
      </g>
     </g>
     <g id="text_13">
      <!-- 0.5 -->
      <g style="fill: #262626" transform="translate(22.46125 133.345594) scale(0.11 -0.11)">
       <defs>
        <path id="ArialMT-35" d="M 266 1200 
L 856 1250 
Q 922 819 1161 601 
Q 1400 384 1738 384 
Q 2144 384 2425 690 
Q 2706 997 2706 1503 
Q 2706 1984 2436 2262 
Q 2166 2541 1728 2541 
Q 1456 2541 1237 2417 
Q 1019 2294 894 2097 
L 366 2166 
L 809 4519 
L 3088 4519 
L 3088 3981 
L 1259 3981 
L 1013 2750 
Q 1425 3038 1878 3038 
Q 2478 3038 2890 2622 
Q 3303 2206 3303 1553 
Q 3303 931 2941 478 
Q 2500 -78 1738 -78 
Q 1113 -78 717 272 
Q 322 622 266 1200 
z
" transform="scale(0.015625)"/>
       </defs>
       <use xlink:href="#ArialMT-30"/>
       <use xlink:href="#ArialMT-2e" x="55.615234"/>
       <use xlink:href="#ArialMT-35" x="83.398438"/>
      </g>
     </g>
    </g>
    <g id="ytick_7">
     <g id="line2d_18">
      <g>
       <use xlink:href="#m3bad841fa1" x="41.25125" y="99.840797" style="fill: #262626; stroke: #262626; stroke-width: 1.25"/>
      </g>
     </g>
     <g id="text_14">
      <!-- 0.6 -->
      <g style="fill: #262626" transform="translate(22.46125 103.777594) scale(0.11 -0.11)">
       <use xlink:href="#ArialMT-30"/>
       <use xlink:href="#ArialMT-2e" x="55.615234"/>
       <use xlink:href="#ArialMT-36" x="83.398438"/>
      </g>
     </g>
    </g>
    <g id="ytick_8">
     <g id="line2d_19">
      <g>
       <use xlink:href="#m3bad841fa1" x="41.25125" y="70.272797" style="fill: #262626; stroke: #262626; stroke-width: 1.25"/>
      </g>
     </g>
     <g id="text_15">
      <!-- 0.7 -->
      <g style="fill: #262626" transform="translate(22.46125 74.209594) scale(0.11 -0.11)">
       <defs>
        <path id="ArialMT-37" d="M 303 3981 
L 303 4522 
L 3269 4522 
L 3269 4084 
Q 2831 3619 2401 2847 
Q 1972 2075 1738 1259 
Q 1569 684 1522 0 
L 944 0 
Q 953 541 1156 1306 
Q 1359 2072 1739 2783 
Q 2119 3494 2547 3981 
L 303 3981 
z
" transform="scale(0.015625)"/>
       </defs>
       <use xlink:href="#ArialMT-30"/>
       <use xlink:href="#ArialMT-2e" x="55.615234"/>
       <use xlink:href="#ArialMT-37" x="83.398438"/>
      </g>
     </g>
    </g>
    <g id="ytick_9">
     <g id="line2d_20">
      <g>
       <use xlink:href="#m3bad841fa1" x="41.25125" y="40.704797" style="fill: #262626; stroke: #262626; stroke-width: 1.25"/>
      </g>
     </g>
     <g id="text_16">
      <!-- 0.8 -->
      <g style="fill: #262626" transform="translate(22.46125 44.641594) scale(0.11 -0.11)">
       <use xlink:href="#ArialMT-30"/>
       <use xlink:href="#ArialMT-2e" x="55.615234"/>
       <use xlink:href="#ArialMT-38" x="83.398438"/>
      </g>
     </g>
    </g>
    <g id="ytick_10">
     <g id="line2d_21">
      <g>
       <use xlink:href="#m3bad841fa1" x="41.25125" y="11.136797" style="fill: #262626; stroke: #262626; stroke-width: 1.25"/>
      </g>
     </g>
     <g id="text_17">
      <!-- 0.9 -->
      <g style="fill: #262626" transform="translate(22.46125 15.073594) scale(0.11 -0.11)">
       <defs>
        <path id="ArialMT-39" d="M 350 1059 
L 891 1109 
Q 959 728 1153 556 
Q 1347 384 1650 384 
Q 1909 384 2104 503 
Q 2300 622 2425 820 
Q 2550 1019 2634 1356 
Q 2719 1694 2719 2044 
Q 2719 2081 2716 2156 
Q 2547 1888 2255 1720 
Q 1963 1553 1622 1553 
Q 1053 1553 659 1965 
Q 266 2378 266 3053 
Q 266 3750 677 4175 
Q 1088 4600 1706 4600 
Q 2153 4600 2523 4359 
Q 2894 4119 3086 3673 
Q 3278 3228 3278 2384 
Q 3278 1506 3087 986 
Q 2897 466 2520 194 
Q 2144 -78 1638 -78 
Q 1100 -78 759 220 
Q 419 519 350 1059 
z
M 2653 3081 
Q 2653 3566 2395 3850 
Q 2138 4134 1775 4134 
Q 1400 4134 1122 3828 
Q 844 3522 844 3034 
Q 844 2597 1108 2323 
Q 1372 2050 1759 2050 
Q 2150 2050 2401 2323 
Q 2653 2597 2653 3081 
z
" transform="scale(0.015625)"/>
       </defs>
       <use xlink:href="#ArialMT-30"/>
       <use xlink:href="#ArialMT-2e" x="55.615234"/>
       <use xlink:href="#ArialMT-39" x="83.398438"/>
      </g>
     </g>
    </g>
    <g id="ytick_11">
     <g id="line2d_22">
      <defs>
       <path id="ma2258e033a" d="M 0 0 
L 4 0 
" style="stroke: #262626"/>
      </defs>
      <g>
       <use xlink:href="#ma2258e033a" x="41.25125" y="262.464797" style="fill: #262626; stroke: #262626"/>
      </g>
     </g>
    </g>
    <g id="ytick_12">
     <g id="line2d_23">
      <g>
       <use xlink:href="#ma2258e033a" x="41.25125" y="232.896797" style="fill: #262626; stroke: #262626"/>
      </g>
     </g>
    </g>
    <g id="ytick_13">
     <g id="line2d_24">
      <g>
       <use xlink:href="#ma2258e033a" x="41.25125" y="203.328797" style="fill: #262626; stroke: #262626"/>
      </g>
     </g>
    </g>
    <g id="ytick_14">
     <g id="line2d_25">
      <g>
       <use xlink:href="#ma2258e033a" x="41.25125" y="173.760797" style="fill: #262626; stroke: #262626"/>
      </g>
     </g>
    </g>
    <g id="ytick_15">
     <g id="line2d_26">
      <g>
       <use xlink:href="#ma2258e033a" x="41.25125" y="144.192797" style="fill: #262626; stroke: #262626"/>
      </g>
     </g>
    </g>
    <g id="ytick_16">
     <g id="line2d_27">
      <g>
       <use xlink:href="#ma2258e033a" x="41.25125" y="114.624797" style="fill: #262626; stroke: #262626"/>
      </g>
     </g>
    </g>
    <g id="ytick_17">
     <g id="line2d_28">
      <g>
       <use xlink:href="#ma2258e033a" x="41.25125" y="85.056797" style="fill: #262626; stroke: #262626"/>
      </g>
     </g>
    </g>
    <g id="ytick_18">
     <g id="line2d_29">
      <g>
       <use xlink:href="#ma2258e033a" x="41.25125" y="55.488797" style="fill: #262626; stroke: #262626"/>
      </g>
     </g>
    </g>
    <g id="ytick_19">
     <g id="line2d_30">
      <g>
       <use xlink:href="#ma2258e033a" x="41.25125" y="25.920797" style="fill: #262626; stroke: #262626"/>
      </g>
     </g>
    </g>
    <g id="text_18">
     <!-- Absorbance (a.u.) -->
     <g style="fill: #262626" transform="translate(15.935625 191.881547) rotate(-90) scale(0.12 -0.12)">
      <defs>
       <path id="ArialMT-41" d="M -9 0 
L 1750 4581 
L 2403 4581 
L 4278 0 
L 3588 0 
L 3053 1388 
L 1138 1388 
L 634 0 
L -9 0 
z
M 1313 1881 
L 2866 1881 
L 2388 3150 
Q 2169 3728 2063 4100 
Q 1975 3659 1816 3225 
L 1313 1881 
z
" transform="scale(0.015625)"/>
       <path id="ArialMT-62" d="M 941 0 
L 419 0 
L 419 4581 
L 981 4581 
L 981 2947 
Q 1338 3394 1891 3394 
Q 2197 3394 2470 3270 
Q 2744 3147 2920 2923 
Q 3097 2700 3197 2384 
Q 3297 2069 3297 1709 
Q 3297 856 2875 390 
Q 2453 -75 1863 -75 
Q 1275 -75 941 416 
L 941 0 
z
M 934 1684 
Q 934 1088 1097 822 
Q 1363 388 1816 388 
Q 2184 388 2453 708 
Q 2722 1028 2722 1663 
Q 2722 2313 2464 2622 
Q 2206 2931 1841 2931 
Q 1472 2931 1203 2611 
Q 934 2291 934 1684 
z
" transform="scale(0.015625)"/>
       <path id="ArialMT-73" d="M 197 991 
L 753 1078 
Q 800 744 1014 566 
Q 1228 388 1613 388 
Q 2000 388 2187 545 
Q 2375 703 2375 916 
Q 2375 1106 2209 1216 
Q 2094 1291 1634 1406 
Q 1016 1563 777 1677 
Q 538 1791 414 1992 
Q 291 2194 291 2438 
Q 291 2659 392 2848 
Q 494 3038 669 3163 
Q 800 3259 1026 3326 
Q 1253 3394 1513 3394 
Q 1903 3394 2198 3281 
Q 2494 3169 2634 2976 
Q 2775 2784 2828 2463 
L 2278 2388 
Q 2241 2644 2061 2787 
Q 1881 2931 1553 2931 
Q 1166 2931 1000 2803 
Q 834 2675 834 2503 
Q 834 2394 903 2306 
Q 972 2216 1119 2156 
Q 1203 2125 1616 2013 
Q 2213 1853 2448 1751 
Q 2684 1650 2818 1456 
Q 2953 1263 2953 975 
Q 2953 694 2789 445 
Q 2625 197 2315 61 
Q 2006 -75 1616 -75 
Q 969 -75 630 194 
Q 291 463 197 991 
z
" transform="scale(0.015625)"/>
       <path id="ArialMT-6f" d="M 213 1659 
Q 213 2581 725 3025 
Q 1153 3394 1769 3394 
Q 2453 3394 2887 2945 
Q 3322 2497 3322 1706 
Q 3322 1066 3130 698 
Q 2938 331 2570 128 
Q 2203 -75 1769 -75 
Q 1072 -75 642 372 
Q 213 819 213 1659 
z
M 791 1659 
Q 791 1022 1069 705 
Q 1347 388 1769 388 
Q 2188 388 2466 706 
Q 2744 1025 2744 1678 
Q 2744 2294 2464 2611 
Q 2184 2928 1769 2928 
Q 1347 2928 1069 2612 
Q 791 2297 791 1659 
z
" transform="scale(0.015625)"/>
       <path id="ArialMT-72" d="M 416 0 
L 416 3319 
L 922 3319 
L 922 2816 
Q 1116 3169 1280 3281 
Q 1444 3394 1641 3394 
Q 1925 3394 2219 3213 
L 2025 2691 
Q 1819 2813 1613 2813 
Q 1428 2813 1281 2702 
Q 1134 2591 1072 2394 
Q 978 2094 978 1738 
L 978 0 
L 416 0 
z
" transform="scale(0.015625)"/>
       <path id="ArialMT-63" d="M 2588 1216 
L 3141 1144 
Q 3050 572 2676 248 
Q 2303 -75 1759 -75 
Q 1078 -75 664 370 
Q 250 816 250 1647 
Q 250 2184 428 2587 
Q 606 2991 970 3192 
Q 1334 3394 1763 3394 
Q 2303 3394 2647 3120 
Q 2991 2847 3088 2344 
L 2541 2259 
Q 2463 2594 2264 2762 
Q 2066 2931 1784 2931 
Q 1359 2931 1093 2626 
Q 828 2322 828 1663 
Q 828 994 1084 691 
Q 1341 388 1753 388 
Q 2084 388 2306 591 
Q 2528 794 2588 1216 
z
" transform="scale(0.015625)"/>
       <path id="ArialMT-75" d="M 2597 0 
L 2597 488 
Q 2209 -75 1544 -75 
Q 1250 -75 995 37 
Q 741 150 617 320 
Q 494 491 444 738 
Q 409 903 409 1263 
L 409 3319 
L 972 3319 
L 972 1478 
Q 972 1038 1006 884 
Q 1059 663 1231 536 
Q 1403 409 1656 409 
Q 1909 409 2131 539 
Q 2353 669 2445 892 
Q 2538 1116 2538 1541 
L 2538 3319 
L 3100 3319 
L 3100 0 
L 2597 0 
z
" transform="scale(0.015625)"/>
      </defs>
      <use xlink:href="#ArialMT-41"/>
      <use xlink:href="#ArialMT-62" x="66.699219"/>
      <use xlink:href="#ArialMT-73" x="122.314453"/>
      <use xlink:href="#ArialMT-6f" x="172.314453"/>
      <use xlink:href="#ArialMT-72" x="227.929688"/>
      <use xlink:href="#ArialMT-62" x="261.230469"/>
      <use xlink:href="#ArialMT-61" x="316.845703"/>
      <use xlink:href="#ArialMT-6e" x="372.460938"/>
      <use xlink:href="#ArialMT-63" x="428.076172"/>
      <use xlink:href="#ArialMT-65" x="478.076172"/>
      <use xlink:href="#ArialMT-20" x="533.691406"/>
      <use xlink:href="#ArialMT-28" x="561.474609"/>
      <use xlink:href="#ArialMT-61" x="594.775391"/>
      <use xlink:href="#ArialMT-2e" x="650.390625"/>
      <use xlink:href="#ArialMT-75" x="678.173828"/>
      <use xlink:href="#ArialMT-2e" x="733.789062"/>
      <use xlink:href="#ArialMT-29" x="761.572266"/>
     </g>
    </g>
   </g>
   <g id="PolyCollection_1"/>
   <g id="PolyCollection_2"/>
   <g id="PolyCollection_3"/>
   <g id="PolyCollection_4"/>
   <g id="PolyCollection_5"/>
   <g id="line2d_31">
    <path d="M 41.467683 233.633179 
L 42.766301 233.362753 
L 45.363538 232.150745 
L 46.22929 231.677759 
L 46.878599 231.252058 
L 48.177217 230.424611 
L 48.610083 230.159742 
L 50.125144 229.06565 
L 50.774453 228.658577 
L 51.207319 228.326384 
L 54.020999 226.333879 
L 54.670308 225.801315 
L 56.185359 224.448871 
L 62.245574 218.123247 
L 62.894883 217.510376 
L 64.626377 215.116424 
L 65.492119 213.392472 
L 66.790738 210.112937 
L 68.305799 205.180095 
L 69.82085 199.500233 
L 72.850962 186.466133 
L 75.448199 175.379669 
L 77.179693 167.763279 
L 78.261868 162.478039 
L 79.560486 155.690396 
L 83.456341 133.185246 
L 85.837144 118.177648 
L 88.650814 98.969834 
L 92.546668 71.682131 
L 95.143905 55.027808 
L 96.875399 45.333834 
L 98.174017 39.075393 
L 99.472635 33.771392 
L 100.771253 29.481558 
L 101.853438 26.839506 
L 102.502748 25.694182 
L 103.152057 24.840286 
L 103.584923 24.50374 
L 104.234232 24.299356 
L 104.883541 24.597852 
L 105.316417 25.02049 
L 105.965726 26.08871 
L 106.615035 27.711907 
L 107.264344 29.892724 
L 108.130086 33.672557 
L 108.995838 38.413563 
L 110.078014 45.637353 
L 111.376632 55.741453 
L 113.324559 72.960304 
L 115.921795 98.623295 
L 117.65328 117.857933 
L 119.601207 142.680458 
L 121.549134 171.086724 
L 124.7957 219.028309 
L 126.094318 234.838491 
L 127.176493 245.681352 
L 128.258668 254.290674 
L 128.907977 258.336119 
L 129.773729 262.689299 
L 130.639481 265.962247 
L 131.505214 268.432785 
L 132.587409 270.553806 
L 133.453141 271.771624 
L 134.535336 272.809396 
L 135.401068 273.438815 
L 136.26682 273.902261 
L 137.348995 274.350256 
L 138.43119 274.689323 
L 139.513366 274.951203 
L 146.006457 275.82717 
L 157.69402 276.09238 
L 159.209081 276.07691 
L 159.641948 276.100698 
L 160.291257 276.06428 
L 160.724123 276.104204 
L 161.589875 276.099903 
L 164.187111 276.112776 
L 166.784348 276.185195 
L 167.433657 276.192936 
L 170.896645 276.201988 
L 173.277438 276.226362 
L 174.14319 276.238366 
L 178.255468 276.20874 
L 178.688354 276.257065 
L 184.532136 276.266945 
L 184.748559 276.197497 
L 185.397868 276.283503 
L 187.129372 276.246968 
L 187.778681 276.259934 
L 188.211548 276.237379 
L 188.860857 276.239261 
L 189.726609 276.246775 
L 190.592341 276.244553 
L 191.025227 276.212166 
L 192.973154 276.251642 
L 193.622463 276.23957 
L 194.488195 276.258823 
L 195.353948 276.25951 
L 196.869009 276.280449 
L 200.115554 276.208709 
L 200.981286 276.272845 
L 202.279905 276.229633 
L 202.929214 276.254697 
L 203.794966 276.174699 
L 204.877141 276.200923 
L 209.205881 276.244977 
L 209.422305 276.161106 
L 209.638748 276.276154 
L 210.288057 276.160558 
L 210.5045 276.326805 
L 210.937366 276.262364 
L 211.803118 276.195629 
L 213.318159 276.241637 
L 213.534602 276.158513 
L 213.751045 276.268449 
L 214.83322 276.240796 
L 215.266086 276.19157 
L 215.915395 276.264963 
L 216.348281 276.283658 
L 216.564705 276.173178 
L 217.214014 276.301517 
L 218.296209 276.300823 
L 218.512632 276.43649 
L 218.729075 276.273138 
L 219.594827 276.25111 
L 219.81125 276.323467 
L 220.027693 276.238459 
L 220.244136 276.311448 
L 220.460559 276.208547 
L 220.677002 276.365468 
L 221.109868 276.285084 
L 221.326311 276.149211 
L 221.542754 276.429349 
L 221.759177 276.279547 
L 222.192063 276.318386 
L 222.408486 276.509035 
L 223.057795 276.29012 
L 223.274238 276.306004 
L 223.490681 276.520912 
L 223.707105 276.239608 
L 224.572857 276.377829 
L 224.7893 276.277126 
L 225.005723 276.689938 
L 225.222166 276.433555 
L 225.655032 276.342407 
L 225.871475 276.281329 
L 226.087918 276.340526 
L 226.304341 275.968642 
L 226.520784 276.394843 
L 226.95365 276.59741 
L 227.170093 276.271241 
L 227.386536 276.405984 
L 227.602959 276.267408 
L 227.819402 276.52149 
L 228.035845 276.36748 
L 228.252268 276.5814 
L 228.468711 276.378654 
L 228.685154 276.417502 
L 228.901577 276.175486 
L 229.11802 276.45214 
L 229.334463 276.91333 
L 229.767329 276.229479 
L 229.983772 276.411308 
L 230.200195 276.349946 
L 230.416638 276.14657 
L 230.633081 276.571698 
L 230.849505 276.426576 
L 231.065948 276.899831 
L 231.28239 276.527371 
L 231.498814 276.438931 
L 231.715257 276.146756 
L 231.9317 276.59868 
L 232.364566 275.932967 
L 232.797432 276.859662 
L 233.230318 275.586597 
L 233.446741 276.555762 
L 233.663184 276.324315 
L 233.879627 276.764253 
L 234.09605 276.500728 
L 234.312493 276.423834 
L 234.528936 276.21384 
L 234.745359 277.082353 
L 234.961802 275.767557 
L 235.178245 277.191525 
L 235.394668 276.381382 
L 235.611111 276.942311 
L 236.043977 277.041498 
L 239.723389 277.044833 
L 241.23845 277.026157 
L 253.575323 276.937424 
L 254.873941 276.928378 
L 259.419105 277.046167 
L 281.062728 277.051824 
L 287.122972 277.060678 
L 288.205128 277.078682 
L 289.720209 277.054408 
L 294.04891 277.071462 
L 295.347528 277.039543 
L 296.646146 277.055404 
L 309.632328 277.055527 
L 310.281637 277.025666 
L 315.908995 276.808061 
L 316.774728 276.65321 
L 317.6405 276.786101 
L 318.289809 276.923797 
L 318.506232 276.868191 
L 318.939118 277.072551 
L 320.021273 277.03206 
L 326.514364 277.123256 
L 328.895177 277.115135 
L 330.410219 277.127233 
L 334.955382 277.08784 
L 337.552619 277.089128 
L 349.023759 277.037719 
L 350.5388 277.042265 
L 355.733273 277.002609 
L 357.248354 277.011665 
L 365.905795 276.976916 
L 366.98799 276.962848 
L 383.437141 276.672994 
L 384.302873 276.624556 
L 384.519336 276.704389 
L 384.735759 276.569644 
L 384.952182 276.676807 
L 385.168645 276.444169 
L 385.385068 276.523514 
L 385.601491 276.388979 
L 386.467263 276.488479 
L 387.116572 276.312781 
L 387.332995 276.350115 
L 387.549419 276.244839 
L 388.631614 276.375571 
L 388.848037 276.182726 
L 389.0645 276.341382 
L 389.280923 276.275552 
L 389.713809 276.326913 
L 393.826086 276.181691 
L 395.55759 275.550786 
L 395.990437 275.241763 
L 396.423323 274.87431 
L 398.154827 272.348119 
L 398.37125 272.333169 
L 398.37125 272.333169 
" clip-path="url(#p85d131dbe7)" style="fill: none; stroke: #f6ab83; stroke-linecap: round"/>
   </g>
   <g id="line2d_32">
    <path d="M 41.467683 195.080309 
L 42.333435 193.646692 
L 43.848486 190.86557 
L 45.147105 188.041508 
L 47.095032 183.316989 
L 50.990886 173.550827 
L 52.289505 171.314055 
L 53.804556 169.662678 
L 54.453865 169.20413 
L 54.886741 169.028587 
L 55.53605 168.814316 
L 57.051101 168.776372 
L 58.133286 169.14361 
L 58.782595 169.465731 
L 60.081214 170.687869 
L 60.51409 171.20817 
L 62.029141 173.601258 
L 63.327759 176.045006 
L 65.059253 179.569733 
L 66.790738 182.634248 
L 68.738665 185.182259 
L 69.387984 185.774113 
L 70.037293 186.151899 
L 70.686602 186.370762 
L 71.98522 186.316471 
L 73.283838 185.844336 
L 75.015323 184.718627 
L 77.179693 182.385707 
L 78.261868 180.774953 
L 82.374166 173.805105 
L 83.889217 171.645516 
L 86.919329 168.150723 
L 87.785071 167.323448 
L 88.867257 166.368321 
L 89.516566 165.901367 
L 90.598741 165.414189 
L 91.24805 165.309133 
L 92.113802 165.417626 
L 92.979544 165.8604 
L 93.628853 166.306831 
L 95.143905 167.817605 
L 96.658966 169.745889 
L 99.256202 173.874799 
L 101.636995 178.755192 
L 104.017799 184.999085 
L 105.965726 190.790378 
L 110.943766 207.186409 
L 120.034093 236.867892 
L 121.98202 242.024938 
L 123.280638 244.889162 
L 125.012123 247.942494 
L 126.094318 249.389874 
L 126.96005 250.3459 
L 128.475111 251.619767 
L 131.505214 253.046964 
L 133.886027 253.576227 
L 136.916129 253.906424 
L 137.781881 253.898888 
L 138.647614 253.949836 
L 139.946232 253.926747 
L 146.2229 253.524834 
L 146.872209 253.42651 
L 148.603693 253.247707 
L 149.902311 253.030153 
L 157.69402 251.628365 
L 158.559772 251.456056 
L 161.806318 250.761382 
L 168.948718 249.169501 
L 169.598027 249.018091 
L 173.277438 248.073851 
L 175.441809 247.531139 
L 176.307541 247.247416 
L 183.882827 244.985406 
L 184.965002 244.621829 
L 186.480063 244.157785 
L 186.696486 244.018768 
L 187.129372 243.964605 
L 187.778681 243.711557 
L 188.211548 243.589696 
L 189.0773 243.306172 
L 193.622463 241.70506 
L 194.055329 241.611993 
L 198.167627 240.173651 
L 199.033359 239.843309 
L 200.54842 239.314081 
L 201.630595 238.917049 
L 202.71279 238.554393 
L 204.444275 237.826848 
L 205.093584 237.582726 
L 208.123686 236.471266 
L 208.772995 236.250267 
L 209.85519 235.873485 
L 210.288057 235.593345 
L 210.5045 235.672657 
L 212.235984 234.944344 
L 212.885293 234.622351 
L 215.266086 233.769971 
L 215.482529 233.584475 
L 216.131838 233.517377 
L 216.781148 233.189925 
L 216.99759 233.230609 
L 217.214014 233.012329 
L 217.6469 232.900047 
L 219.161941 232.47506 
L 219.378384 232.136258 
L 220.027693 231.987838 
L 221.97562 231.271559 
L 222.408486 231.260033 
L 223.274238 230.61925 
L 223.707105 230.664988 
L 224.356414 230.536563 
L 224.572857 230.129367 
L 224.7893 230.324551 
L 225.005723 230.294666 
L 225.222166 230.498433 
L 225.438609 230.111302 
L 226.087918 229.872498 
L 226.304341 229.525585 
L 226.520784 229.5903 
L 226.737227 229.520426 
L 226.95365 229.816331 
L 227.170093 229.013219 
L 227.386536 229.429077 
L 227.602959 229.285587 
L 227.819402 229.344376 
L 228.035845 228.995154 
L 228.468711 228.902972 
L 228.685154 229.113926 
L 228.901577 228.13683 
L 229.11802 228.523781 
L 229.550886 228.488705 
L 229.767329 228.344612 
L 229.983772 228.338272 
L 230.416638 227.66095 
L 230.633081 228.340118 
L 230.849505 227.710614 
L 231.065948 228.202048 
L 231.28239 228.19617 
L 231.498814 228.051465 
L 231.715257 227.527907 
L 231.9317 227.496056 
L 232.148123 228.120383 
L 232.581009 227.186946 
L 232.797432 227.562635 
L 233.230318 226.484035 
L 233.446741 226.984069 
L 233.663184 226.611099 
L 233.879627 227.136833 
L 234.09605 226.506091 
L 234.312493 226.792576 
L 234.528936 226.377168 
L 234.745359 226.928694 
L 234.961802 226.301288 
L 235.178245 227.160136 
L 235.394668 225.931807 
L 235.611111 226.533778 
L 235.827534 228.543273 
L 238.641214 227.506877 
L 240.372698 226.890261 
L 255.52325 221.777783 
L 259.851971 220.612566 
L 262.449207 219.882729 
L 269.80805 218.030506 
L 270.890225 217.80696 
L 272.405286 217.479512 
L 281.495614 215.703265 
L 285.824354 215.038298 
L 287.339395 214.84903 
L 297.728341 213.723607 
L 300.974886 213.476274 
L 301.407772 213.430575 
L 306.818668 213.195155 
L 307.035091 213.128625 
L 307.467977 213.155492 
L 310.714523 212.96166 
L 316.341881 212.897082 
L 316.99119 212.771859 
L 317.424037 212.750195 
L 317.856923 212.980866 
L 318.289809 213.394071 
L 323.267819 213.440977 
L 324.7829 213.561441 
L 329.977372 213.930433 
L 333.223918 214.039617 
L 333.440341 213.838286 
L 335.604691 213.968461 
L 337.119772 214.110946 
L 338.201928 214.255034 
L 342.963554 214.764012 
L 356.166159 215.526823 
L 359.196281 215.702005 
L 362.009941 215.898785 
L 365.256486 216.00373 
L 366.771528 216.02124 
L 367.853723 216.024531 
L 369.368764 216.065436 
L 370.018073 216.080029 
L 372.182463 216.176158 
L 373.697505 216.207917 
L 378.675554 216.003902 
L 379.541286 215.968262 
L 383.220718 215.684896 
L 383.437141 215.480684 
L 383.653564 215.718915 
L 383.870027 215.605629 
L 384.08645 215.774342 
L 384.302873 215.428112 
L 384.519336 215.760653 
L 384.735759 215.440559 
L 384.952182 215.712808 
L 385.168645 215.503428 
L 385.385068 215.518738 
L 385.601491 215.101312 
L 385.817954 215.152787 
L 386.034377 215.59264 
L 386.467263 215.263681 
L 386.683686 215.005389 
L 386.90011 215.184003 
L 387.116572 215.523739 
L 387.332995 215.368415 
L 387.549419 214.746195 
L 387.982305 215.08612 
L 388.198728 215.359097 
L 388.41519 215.063218 
L 388.631614 215.086918 
L 388.848037 214.752909 
L 389.0645 215.125188 
L 389.713809 215.088134 
L 389.930232 214.853581 
L 390.146655 215.030829 
L 390.363118 214.851916 
L 390.579541 215.045713 
L 390.795964 214.848109 
L 391.22885 215.062011 
L 391.661736 214.753905 
L 391.878159 214.992898 
L 392.094582 214.693944 
L 392.311045 214.876338 
L 392.527468 214.753619 
L 392.960354 214.823828 
L 393.176777 215.000023 
L 393.3932 214.33595 
L 393.609663 214.893517 
L 394.258972 214.356323 
L 394.475395 214.317009 
L 394.691819 214.460256 
L 395.124705 214.284484 
L 395.341128 213.809189 
L 395.55759 213.765138 
L 395.774014 213.496506 
L 395.990437 213.761776 
L 396.423323 213.145244 
L 396.639746 212.291696 
L 396.856209 212.268071 
L 397.072632 212.031206 
L 397.289055 212.013935 
L 398.154827 210.198514 
L 398.37125 210.241807 
L 398.37125 210.241807 
" clip-path="url(#p85d131dbe7)" style="fill: none; stroke: #f06043; stroke-linecap: round"/>
   </g>
   <g id="line2d_33">
    <path d="M 41.467683 195.574412 
L 43.199177 192.967318 
L 43.632053 192.177899 
L 44.064919 191.465832 
L 46.012847 187.616639 
L 47.744341 183.859356 
L 48.39365 182.523535 
L 49.475835 180.011283 
L 51.856629 175.512826 
L 54.237432 172.957475 
L 54.886741 172.571547 
L 55.53605 172.126772 
L 56.185359 171.805779 
L 56.834668 171.484601 
L 58.133286 171.071294 
L 58.782595 170.947257 
L 60.51409 171.259165 
L 61.163399 171.636854 
L 63.111326 172.888777 
L 63.977068 173.504538 
L 65.708562 174.849277 
L 66.357871 175.36616 
L 66.790738 175.720277 
L 68.738665 176.725641 
L 69.82085 176.765383 
L 71.119468 176.181812 
L 72.201653 175.35296 
L 73.283838 174.454114 
L 75.231766 172.978518 
L 76.530384 171.868397 
L 78.694744 169.479971 
L 80.426238 167.336129 
L 82.374166 165.704023 
L 83.672784 165.404197 
L 84.10565 165.376871 
L 84.754959 165.560045 
L 86.27002 166.248752 
L 87.352195 166.989264 
L 88.650814 168.163315 
L 89.300123 168.898805 
L 89.949432 169.752533 
L 91.24805 172.012199 
L 92.546668 175.120826 
L 93.845286 178.865764 
L 96.22609 186.700302 
L 102.502748 208.024165 
L 103.801366 212.536898 
L 108.995838 228.789294 
L 110.943766 233.994892 
L 113.973868 241.121359 
L 115.705352 244.709968 
L 118.086166 248.9176 
L 119.81765 251.36652 
L 121.98202 253.81385 
L 122.847752 254.595442 
L 125.228566 256.25337 
L 127.176493 257.177947 
L 128.907977 257.728808 
L 133.453141 258.578736 
L 134.968202 258.676086 
L 135.833954 258.749957 
L 136.699686 258.750424 
L 137.132572 258.743493 
L 141.028427 258.69664 
L 143.625663 258.580188 
L 146.655766 258.364247 
L 155.52965 257.223496 
L 156.178959 257.086761 
L 156.828268 257.003754 
L 159.641948 256.492384 
L 160.5077 256.328664 
L 163.537802 255.79186 
L 166.135038 255.360649 
L 167.00079 255.199743 
L 178.039045 252.848869 
L 178.688354 252.710211 
L 188.211548 250.30146 
L 188.42799 250.328827 
L 188.860857 250.154934 
L 190.159475 249.834144 
L 190.592341 249.666318 
L 191.025227 249.555887 
L 197.518318 247.817404 
L 198.38405 247.54752 
L 200.981286 246.840277 
L 201.414172 246.703448 
L 202.929214 246.278112 
L 203.794966 245.89496 
L 205.310027 245.443993 
L 205.742893 245.341862 
L 210.288057 243.937643 
L 210.5045 243.990649 
L 210.937366 243.781295 
L 212.66885 243.268432 
L 213.534602 242.916864 
L 213.967468 242.895784 
L 214.183911 242.759018 
L 214.400354 242.756394 
L 214.83322 242.528751 
L 215.049663 242.544506 
L 215.482529 242.346965 
L 215.915395 242.380247 
L 216.781148 241.992519 
L 217.214014 241.96366 
L 220.893445 240.989887 
L 221.326311 240.604765 
L 221.542754 240.779098 
L 222.624929 240.471702 
L 222.841372 240.524182 
L 223.274238 240.211979 
L 223.707105 240.232158 
L 223.923548 240.102235 
L 224.13999 240.249125 
L 224.356414 239.937795 
L 224.572857 239.971395 
L 224.7893 239.88814 
L 225.005723 240.127274 
L 225.222166 240.037343 
L 225.438609 239.6542 
L 225.655032 239.784573 
L 226.087918 239.730604 
L 226.304341 239.279344 
L 226.520784 239.615626 
L 226.737227 239.197965 
L 226.95365 239.640414 
L 227.170093 239.090795 
L 227.386536 239.196556 
L 227.602959 238.882445 
L 227.819402 239.045175 
L 228.035845 238.938291 
L 228.252268 239.227054 
L 228.468711 238.807979 
L 229.334463 238.675047 
L 229.550886 238.99741 
L 229.767329 238.634027 
L 229.983772 238.529015 
L 230.200195 238.12968 
L 230.633081 238.786337 
L 230.849505 237.894198 
L 231.065948 238.288859 
L 231.28239 238.039749 
L 231.498814 238.041507 
L 231.715257 237.908993 
L 232.148123 237.95667 
L 232.364566 238.390562 
L 232.581009 237.331929 
L 232.797432 237.98586 
L 233.013875 237.775708 
L 233.230318 236.880427 
L 233.446741 237.25352 
L 233.663184 236.708021 
L 233.879627 237.387982 
L 234.09605 237.128404 
L 234.312493 237.733622 
L 234.528936 237.340252 
L 234.745359 237.871243 
L 234.961802 237.076096 
L 235.178245 237.970223 
L 235.394668 236.967485 
L 235.611111 237.245585 
L 235.827534 239.26632 
L 238.641214 238.470204 
L 239.506946 238.263418 
L 241.671316 237.65709 
L 244.701419 236.844514 
L 255.306807 234.227241 
L 257.038291 234.026628 
L 258.986219 233.575536 
L 260.284837 233.247308 
L 263.531382 232.645126 
L 271.539534 231.348086 
L 291.23525 229.132832 
L 301.624195 228.695424 
L 301.840619 228.732395 
L 302.057081 228.63341 
L 302.922814 228.67955 
L 303.788546 228.699839 
L 305.52005 228.722358 
L 306.169359 228.734118 
L 307.035091 228.704963 
L 307.467977 228.746816 
L 310.4981 228.648858 
L 311.147409 228.667931 
L 311.580255 228.747463 
L 311.796718 228.611759 
L 312.66245 228.785245 
L 313.311759 228.716 
L 314.610377 228.739176 
L 315.259686 228.63141 
L 315.908995 228.616174 
L 317.424037 228.451809 
L 317.856923 228.6524 
L 318.289809 228.929783 
L 319.588427 228.937978 
L 321.9692 229.02979 
L 323.484281 229.100942 
L 324.7829 229.143354 
L 328.678754 229.324201 
L 336.254 229.650323 
L 337.769081 229.784137 
L 338.634814 229.822054 
L 345.777214 230.22703 
L 356.599045 230.773371 
L 357.897663 230.799353 
L 361.577055 230.943454 
L 369.152341 231.158854 
L 369.585227 231.112106 
L 373.481081 231.165582 
L 374.346814 231.145045 
L 376.94405 231.122751 
L 382.787832 230.836094 
L 383.004255 231.012558 
L 383.437141 230.664098 
L 383.653564 230.856859 
L 383.870027 230.783231 
L 384.08645 230.914974 
L 384.302873 230.624004 
L 384.519336 230.948601 
L 384.735759 230.62889 
L 384.952182 230.871708 
L 385.168645 230.659666 
L 385.385068 230.718895 
L 385.601491 230.283611 
L 385.817954 230.292591 
L 386.034377 230.675232 
L 386.467263 230.472799 
L 386.683686 230.204652 
L 387.116572 230.675496 
L 387.332995 230.485722 
L 387.549419 230.005435 
L 387.982305 230.272398 
L 388.198728 230.536034 
L 388.41519 230.241666 
L 388.631614 230.342805 
L 388.848037 230.0696 
L 389.0645 230.356138 
L 389.713809 230.286722 
L 389.930232 230.092264 
L 390.146655 230.252968 
L 390.363118 230.115047 
L 390.579541 230.232581 
L 390.795964 230.073332 
L 391.22885 230.203206 
L 391.661736 229.99965 
L 391.878159 230.103997 
L 392.094582 229.899613 
L 392.311045 230.044627 
L 392.527468 229.870683 
L 392.960354 230.033352 
L 393.176777 230.136456 
L 393.3932 229.531802 
L 393.609663 229.981824 
L 393.826086 229.888523 
L 394.258972 229.527017 
L 394.475395 229.498947 
L 394.691819 229.622199 
L 395.124705 229.445436 
L 395.341128 228.985479 
L 395.55759 228.909687 
L 395.774014 228.644196 
L 395.990437 228.874964 
L 396.423323 228.299314 
L 396.639746 227.491633 
L 397.289055 227.013069 
L 397.721941 226.200422 
L 397.938364 225.543244 
L 398.154827 225.249767 
L 398.37125 225.280318 
L 398.37125 225.280318 
" clip-path="url(#p85d131dbe7)" style="fill: none; stroke: #ca1a50; stroke-linecap: round"/>
   </g>
   <g id="line2d_34">
    <path d="M 41.467683 186.581323 
L 43.199177 183.762195 
L 43.632053 183.253763 
L 44.281362 182.133297 
L 44.497795 181.865599 
L 44.930671 181.038289 
L 48.177217 175.109168 
L 48.826526 173.850487 
L 50.125144 171.388172 
L 51.423762 169.192586 
L 52.073071 168.310202 
L 53.37169 167.007452 
L 53.804556 166.706726 
L 54.237432 166.309246 
L 54.886741 165.908487 
L 55.752483 165.382757 
L 58.349719 164.187495 
L 59.431905 164.034123 
L 61.379832 164.620215 
L 63.111326 165.67304 
L 63.977068 166.364867 
L 65.275686 167.389882 
L 67.007181 169.152395 
L 68.738665 170.862504 
L 70.686602 171.660708 
L 72.634529 171.671573 
L 73.716705 171.827421 
L 75.448199 172.756509 
L 77.396126 173.954697 
L 79.560486 174.685146 
L 80.426238 174.924655 
L 81.94129 175.781141 
L 83.023475 176.872545 
L 84.538526 179.437686 
L 86.27002 182.959471 
L 89.949432 192.156477 
L 91.897359 198.141624 
L 94.061729 205.844732 
L 98.174017 220.285391 
L 102.069871 232.586108 
L 104.234232 238.663389 
L 105.965726 243.076645 
L 107.480777 246.493289 
L 109.212271 249.984793 
L 110.51088 252.302094 
L 112.025941 254.671914 
L 114.190311 257.489086 
L 116.138238 259.482859 
L 118.519032 261.271085 
L 120.899825 262.460799 
L 122.198443 262.94894 
L 125.661432 263.723037 
L 126.96005 263.909406 
L 127.825802 263.984266 
L 129.557286 264.088552 
L 133.453141 264.161324 
L 142.327045 263.778242 
L 143.192777 263.695889 
L 144.274972 263.647073 
L 145.357148 263.557048 
L 155.52965 262.501801 
L 164.619977 261.228907 
L 165.269286 261.183524 
L 179.12122 259.048593 
L 180.636281 258.736049 
L 180.852705 258.780034 
L 181.502014 258.618961 
L 182.151323 258.48273 
L 182.800632 258.395082 
L 184.532136 258.033942 
L 184.748559 258.062297 
L 185.181445 257.968883 
L 186.26362 257.730839 
L 186.912929 257.611107 
L 187.345795 257.52388 
L 187.995105 257.396452 
L 188.644414 257.253113 
L 189.943032 256.990823 
L 190.375918 256.928811 
L 191.674536 256.665516 
L 194.271772 256.123068 
L 194.921081 256.018235 
L 195.57039 255.833763 
L 196.2197 255.732732 
L 197.951184 255.308877 
L 198.600493 255.212928 
L 215.698972 251.513999 
L 215.915395 251.307192 
L 216.131838 251.341481 
L 216.781148 251.050519 
L 217.214014 251.155556 
L 217.6469 250.989503 
L 218.729075 250.67311 
L 218.945518 250.745443 
L 219.161941 250.586548 
L 219.378384 250.649073 
L 219.594827 250.406987 
L 219.81125 250.599123 
L 220.244136 250.321342 
L 220.677002 250.300818 
L 220.893445 250.16487 
L 221.109868 250.306936 
L 221.542754 250.042778 
L 221.759177 250.126681 
L 222.624929 249.826885 
L 222.841372 249.933948 
L 223.057795 249.684372 
L 223.274238 249.630355 
L 223.490681 249.778274 
L 223.707105 249.600264 
L 224.13999 249.505187 
L 225.222166 249.222066 
L 225.655032 249.094603 
L 225.871475 249.178663 
L 226.304341 248.839542 
L 226.520784 248.988003 
L 226.95365 248.829848 
L 227.170093 249.071653 
L 227.602959 248.540704 
L 227.819402 248.777428 
L 228.035845 248.516504 
L 228.468711 248.724087 
L 228.685154 248.432299 
L 228.901577 248.753799 
L 229.11802 248.120923 
L 229.550886 248.324571 
L 230.200195 247.794609 
L 230.849505 247.883667 
L 231.065948 247.619842 
L 231.28239 247.879272 
L 231.9317 247.991605 
L 232.148123 247.733364 
L 232.364566 247.722422 
L 232.581009 247.425644 
L 233.013875 247.777818 
L 233.446741 247.346962 
L 233.663184 247.412243 
L 233.879627 246.554827 
L 234.312493 247.524666 
L 234.528936 247.380946 
L 234.745359 246.866248 
L 234.961802 247.984769 
L 235.178245 246.861748 
L 235.394668 247.015505 
L 235.611111 246.110527 
L 235.827534 248.286186 
L 246.865789 245.867579 
L 247.731541 245.713145 
L 248.813716 245.485814 
L 250.761643 245.074202 
L 253.575323 244.437243 
L 254.657498 244.210205 
L 257.254734 243.994218 
L 258.986219 243.61507 
L 260.50128 243.289522 
L 262.449207 242.936173 
L 263.531382 242.801273 
L 265.046443 242.558667 
L 268.292989 242.024244 
L 270.890225 241.666462 
L 271.9724 241.511539 
L 282.361346 240.225457 
L 309.199481 238.355151 
L 309.632328 238.35772 
L 310.4981 238.297058 
L 311.580255 238.323987 
L 312.229564 238.289088 
L 313.095336 238.310153 
L 313.961068 238.294415 
L 315.043263 238.291546 
L 316.558305 238.140734 
L 317.207614 238.094863 
L 318.939118 238.473685 
L 320.237736 238.43838 
L 325.432209 238.490463 
L 328.678754 238.540219 
L 329.328063 238.56232 
L 330.410219 238.552292 
L 344.478595 238.481448 
L 347.508718 238.469812 
L 349.673068 238.461251 
L 353.568923 238.482907 
L 363.092136 238.361244 
L 369.368764 238.161085 
L 369.80165 238.158067 
L 372.831772 238.103191 
L 373.481081 238.075028 
L 383.220718 237.612995 
L 383.437141 237.507692 
L 383.653564 237.666061 
L 383.870027 237.592609 
L 384.08645 237.691122 
L 384.302873 237.458297 
L 384.519336 237.726268 
L 384.735759 237.480164 
L 384.952182 237.626522 
L 385.168645 237.508225 
L 385.385068 237.603042 
L 385.601491 237.199917 
L 385.817954 237.098461 
L 386.034377 237.388713 
L 386.467263 237.282631 
L 386.683686 237.099853 
L 387.116572 237.438712 
L 387.765881 237.034755 
L 387.982305 237.117755 
L 388.198728 237.386418 
L 388.41519 237.095668 
L 388.631614 237.209408 
L 388.848037 236.930809 
L 389.0645 237.174949 
L 389.713809 237.114124 
L 389.930232 237.027666 
L 390.146655 237.088424 
L 390.363118 237.008716 
L 390.579541 237.090235 
L 390.795964 236.930466 
L 391.22885 237.09569 
L 391.661736 236.957399 
L 391.878159 237.098752 
L 392.094582 236.904519 
L 392.311045 237.04673 
L 392.527468 236.877325 
L 392.960354 237.014999 
L 393.176777 237.096923 
L 393.3932 236.65214 
L 393.609663 236.966656 
L 393.826086 236.949341 
L 394.258972 236.638702 
L 394.475395 236.528623 
L 394.691819 236.634133 
L 395.124705 236.537558 
L 395.341128 236.100318 
L 395.55759 236.075327 
L 395.774014 235.845296 
L 395.990437 236.028003 
L 396.423323 235.558846 
L 396.639746 234.865442 
L 397.289055 234.333993 
L 397.721941 233.741522 
L 398.154827 232.965894 
L 398.587673 233.186757 
L 398.587673 233.186757 
" clip-path="url(#p85d131dbe7)" style="fill: none; stroke: #841e5a; stroke-linecap: round"/>
   </g>
   <g id="line2d_35">
    <path d="M 41.467683 172.787316 
L 42.982744 171.866414 
L 44.064919 171.45353 
L 44.714229 171.319571 
L 45.579981 171.046092 
L 45.796414 171.08542 
L 46.662156 170.711388 
L 46.878599 170.767212 
L 47.311465 170.62808 
L 47.744341 170.773838 
L 48.177217 170.732034 
L 50.990886 171.029631 
L 51.423762 171.047449 
L 54.020999 171.726516 
L 54.453865 171.724004 
L 55.53605 171.222737 
L 56.834668 170.121824 
L 61.379832 165.763821 
L 66.141429 163.209898 
L 67.440047 162.850432 
L 67.872923 162.868761 
L 68.955108 162.68786 
L 69.82085 162.430243 
L 73.067395 161.010849 
L 73.500271 160.982563 
L 74.79889 161.632973 
L 76.746817 164.051844 
L 79.560486 168.300667 
L 80.426238 169.552563 
L 82.157723 172.604979 
L 83.239908 175.132264 
L 84.322093 178.322613 
L 85.620711 183.048559 
L 87.785071 191.922493 
L 91.464493 207.139446 
L 97.524708 229.674639 
L 99.905511 237.718681 
L 104.234232 250.800425 
L 107.264344 258.409069 
L 108.562962 261.188199 
L 110.294457 264.370812 
L 111.376632 266.046158 
L 113.973868 269.176448 
L 115.272486 270.396365 
L 118.302589 272.271792 
L 119.168341 272.665255 
L 120.683402 273.161321 
L 126.094318 274.140111 
L 127.825802 274.252564 
L 128.907977 274.371181 
L 129.557286 274.344838 
L 130.855905 274.430999 
L 136.050377 274.501636 
L 136.699686 274.536389 
L 137.998305 274.514827 
L 148.603693 274.505953 
L 149.469445 274.508947 
L 150.335177 274.530409 
L 151.850238 274.540462 
L 153.3653 274.529314 
L 156.611845 274.515742 
L 157.261154 274.49775 
L 159.85839 274.418496 
L 160.724123 274.375885 
L 164.83642 274.450197 
L 169.81445 274.623593 
L 170.896645 274.59635 
L 172.844572 274.64855 
L 183.017075 274.825173 
L 183.449941 274.835547 
L 183.882827 274.874802 
L 185.397868 274.930022 
L 186.480063 274.867184 
L 187.129372 274.941798 
L 201.847038 275.209331 
L 203.578523 275.247648 
L 204.444275 275.312414 
L 204.877141 275.257894 
L 205.959336 275.302584 
L 206.825068 275.295854 
L 208.340129 275.380378 
L 208.556572 275.331084 
L 208.989438 275.425903 
L 210.071614 275.353395 
L 210.288057 275.471365 
L 211.153809 275.469797 
L 211.370232 275.535227 
L 211.803118 275.426733 
L 213.318159 275.417145 
L 213.967468 275.498136 
L 216.564705 275.532178 
L 216.99759 275.566452 
L 217.430457 275.558239 
L 218.729075 275.517043 
L 218.945518 275.726545 
L 219.378384 275.620872 
L 220.027693 275.721092 
L 220.244136 275.589009 
L 220.893445 275.684101 
L 221.109868 275.849496 
L 221.759177 275.682893 
L 221.97562 275.63625 
L 222.192063 275.982997 
L 222.408486 275.692608 
L 223.057795 275.800723 
L 223.490681 275.947976 
L 223.707105 275.793028 
L 224.13999 275.85208 
L 225.005723 275.854285 
L 225.222166 276.057784 
L 225.655032 275.635994 
L 225.871475 276.042657 
L 226.304341 275.994776 
L 226.520784 275.874858 
L 226.737227 276.153758 
L 226.95365 275.986699 
L 227.170093 276.149658 
L 227.386536 275.729178 
L 227.602959 275.878169 
L 227.819402 275.750274 
L 228.035845 276.041498 
L 228.252268 275.629266 
L 228.468711 275.991066 
L 228.685154 275.877798 
L 228.901577 275.539012 
L 229.334463 276.341405 
L 229.767329 276.267061 
L 229.983772 275.926031 
L 230.200195 276.04689 
L 230.416638 276.327314 
L 230.849505 276.247978 
L 231.065948 276.413087 
L 231.28239 275.542192 
L 231.498814 275.832046 
L 231.715257 275.922667 
L 231.9317 276.530418 
L 232.581009 275.808285 
L 232.797432 276.538092 
L 233.013875 276.363141 
L 233.230318 276.782729 
L 233.663184 275.918815 
L 234.09605 277.025405 
L 234.312493 275.608089 
L 234.528936 276.330567 
L 234.745359 275.968124 
L 234.961802 276.803875 
L 235.394668 276.660992 
L 235.611111 276.379763 
L 235.827534 276.883083 
L 245.350728 276.989157 
L 246.432923 277.006021 
L 247.947964 277.017002 
L 249.463025 277.027583 
L 255.306807 277.145526 
L 257.6876 277.567327 
L 258.986219 277.387672 
L 260.284837 277.26539 
L 263.098516 277.257017 
L 267.427237 277.323922 
L 305.52005 277.286158 
L 308.983019 277.061874 
L 310.065214 276.903039 
L 312.66245 276.67048 
L 315.259686 277.019425 
L 316.774728 276.994311 
L 317.424037 277.211991 
L 318.722655 277.431092 
L 318.939118 277.258502 
L 320.021273 277.314206 
L 320.670582 277.321565 
L 322.185663 277.358875 
L 324.7829 277.441211 
L 331.059528 277.649392 
L 331.708837 277.619738 
L 335.821154 277.659143 
L 338.201928 277.636893 
L 341.881359 277.687857 
L 342.963554 277.688559 
L 344.04571 277.700244 
L 348.158027 277.596962 
L 352.919614 277.5871 
L 355.51685 277.554209 
L 363.524982 277.517231 
L 371.100268 277.445796 
L 374.13039 277.490267 
L 383.220718 277.478348 
L 383.653564 277.424381 
L 384.519336 277.460301 
L 385.168645 277.26741 
L 386.467263 277.141237 
L 386.90011 277.100124 
L 388.41519 277.016588 
L 388.631614 277.050214 
L 388.848037 276.963048 
L 389.0645 277.059053 
L 390.146655 276.99974 
L 391.445273 277.049946 
L 391.878159 276.985529 
L 392.311045 277.027974 
L 394.04251 276.866341 
L 395.124705 276.543695 
L 395.774014 276.004259 
L 396.2069 275.717103 
L 396.639746 275.103044 
L 397.721941 273.422193 
L 398.154827 272.990084 
L 398.37125 273.032129 
L 398.37125 273.032129 
" clip-path="url(#p85d131dbe7)" style="fill: none; stroke: #3f1b43; stroke-linecap: round"/>
   </g>
   <g id="line2d_36"/>
   <g id="line2d_37"/>
   <g id="line2d_38"/>
   <g id="line2d_39"/>
   <g id="line2d_40"/>
   <g id="patch_3">
    <path d="M 41.25125 277.248797 
L 41.25125 11.136797 
" style="fill: none; stroke: #262626; stroke-width: 1.25; stroke-linejoin: miter; stroke-linecap: square"/>
   </g>
   <g id="patch_4">
    <path d="M 41.25125 277.248797 
L 398.37125 277.248797 
" style="fill: none; stroke: #262626; stroke-width: 1.25; stroke-linejoin: miter; stroke-linecap: square"/>
   </g>
   <g id="legend_1">
    <g id="line2d_41">
     <path d="M 272.259875 45.415809 
L 278.259875 45.415809 
L 284.259875 45.415809 
" style="fill: none; stroke: #f6ab83; stroke-width: 1.5; stroke-linecap: round"/>
    </g>
    <g id="text_19">
     <!-- FeCl3 0 uM_Abs -->
     <g style="fill: #262626" transform="translate(289.059875 47.515809) scale(0.06 -0.06)">
      <defs>
       <path id="ArialMT-46" d="M 525 0 
L 525 4581 
L 3616 4581 
L 3616 4041 
L 1131 4041 
L 1131 2622 
L 3281 2622 
L 3281 2081 
L 1131 2081 
L 1131 0 
L 525 0 
z
" transform="scale(0.015625)"/>
       <path id="ArialMT-43" d="M 3763 1606 
L 4369 1453 
Q 4178 706 3683 314 
Q 3188 -78 2472 -78 
Q 1731 -78 1267 223 
Q 803 525 561 1097 
Q 319 1669 319 2325 
Q 319 3041 592 3573 
Q 866 4106 1370 4382 
Q 1875 4659 2481 4659 
Q 3169 4659 3637 4309 
Q 4106 3959 4291 3325 
L 3694 3184 
Q 3534 3684 3231 3912 
Q 2928 4141 2469 4141 
Q 1941 4141 1586 3887 
Q 1231 3634 1087 3207 
Q 944 2781 944 2328 
Q 944 1744 1114 1308 
Q 1284 872 1643 656 
Q 2003 441 2422 441 
Q 2931 441 3284 734 
Q 3638 1028 3763 1606 
z
" transform="scale(0.015625)"/>
       <path id="ArialMT-4d" d="M 475 0 
L 475 4581 
L 1388 4581 
L 2472 1338 
Q 2622 884 2691 659 
Q 2769 909 2934 1394 
L 4031 4581 
L 4847 4581 
L 4847 0 
L 4263 0 
L 4263 3834 
L 2931 0 
L 2384 0 
L 1059 3900 
L 1059 0 
L 475 0 
z
" transform="scale(0.015625)"/>
       <path id="ArialMT-5f" d="M -97 -1272 
L -97 -866 
L 3631 -866 
L 3631 -1272 
L -97 -1272 
z
" transform="scale(0.015625)"/>
      </defs>
      <use xlink:href="#ArialMT-46"/>
      <use xlink:href="#ArialMT-65" x="61.083984"/>
      <use xlink:href="#ArialMT-43" x="116.699219"/>
      <use xlink:href="#ArialMT-6c" x="188.916016"/>
      <use xlink:href="#ArialMT-33" x="211.132812"/>
      <use xlink:href="#ArialMT-20" x="266.748047"/>
      <use xlink:href="#ArialMT-30" x="294.53125"/>
      <use xlink:href="#ArialMT-20" x="350.146484"/>
      <use xlink:href="#ArialMT-75" x="377.929688"/>
      <use xlink:href="#ArialMT-4d" x="433.544922"/>
      <use xlink:href="#ArialMT-5f" x="516.845703"/>
      <use xlink:href="#ArialMT-41" x="572.460938"/>
      <use xlink:href="#ArialMT-62" x="639.160156"/>
      <use xlink:href="#ArialMT-73" x="694.775391"/>
     </g>
    </g>
    <g id="line2d_42">
     <path d="M 272.259875 53.976122 
L 278.259875 53.976122 
L 284.259875 53.976122 
" style="fill: none; stroke: #f06043; stroke-width: 1.5; stroke-linecap: round"/>
    </g>
    <g id="text_20">
     <!-- FeCl3 50 uM_Abs -->
     <g style="fill: #262626" transform="translate(289.059875 56.076122) scale(0.06 -0.06)">
      <use xlink:href="#ArialMT-46"/>
      <use xlink:href="#ArialMT-65" x="61.083984"/>
      <use xlink:href="#ArialMT-43" x="116.699219"/>
      <use xlink:href="#ArialMT-6c" x="188.916016"/>
      <use xlink:href="#ArialMT-33" x="211.132812"/>
      <use xlink:href="#ArialMT-20" x="266.748047"/>
      <use xlink:href="#ArialMT-35" x="294.53125"/>
      <use xlink:href="#ArialMT-30" x="350.146484"/>
      <use xlink:href="#ArialMT-20" x="405.761719"/>
      <use xlink:href="#ArialMT-75" x="433.544922"/>
      <use xlink:href="#ArialMT-4d" x="489.160156"/>
      <use xlink:href="#ArialMT-5f" x="572.460938"/>
      <use xlink:href="#ArialMT-41" x="628.076172"/>
      <use xlink:href="#ArialMT-62" x="694.775391"/>
      <use xlink:href="#ArialMT-73" x="750.390625"/>
     </g>
    </g>
    <g id="line2d_43">
     <path d="M 272.259875 62.536434 
L 278.259875 62.536434 
L 284.259875 62.536434 
" style="fill: none; stroke: #ca1a50; stroke-width: 1.5; stroke-linecap: round"/>
    </g>
    <g id="text_21">
     <!-- t=1hr FeCl3 50 uM_Abs -->
     <g style="fill: #262626" transform="translate(289.059875 64.636434) scale(0.06 -0.06)">
      <defs>
       <path id="ArialMT-3d" d="M 3381 2694 
L 356 2694 
L 356 3219 
L 3381 3219 
L 3381 2694 
z
M 3381 1303 
L 356 1303 
L 356 1828 
L 3381 1828 
L 3381 1303 
z
" transform="scale(0.015625)"/>
      </defs>
      <use xlink:href="#ArialMT-74"/>
      <use xlink:href="#ArialMT-3d" x="27.783203"/>
      <use xlink:href="#ArialMT-31" x="86.181641"/>
      <use xlink:href="#ArialMT-68" x="141.796875"/>
      <use xlink:href="#ArialMT-72" x="197.412109"/>
      <use xlink:href="#ArialMT-20" x="230.712891"/>
      <use xlink:href="#ArialMT-46" x="258.496094"/>
      <use xlink:href="#ArialMT-65" x="319.580078"/>
      <use xlink:href="#ArialMT-43" x="375.195312"/>
      <use xlink:href="#ArialMT-6c" x="447.412109"/>
      <use xlink:href="#ArialMT-33" x="469.628906"/>
      <use xlink:href="#ArialMT-20" x="525.244141"/>
      <use xlink:href="#ArialMT-35" x="553.027344"/>
      <use xlink:href="#ArialMT-30" x="608.642578"/>
      <use xlink:href="#ArialMT-20" x="664.257812"/>
      <use xlink:href="#ArialMT-75" x="692.041016"/>
      <use xlink:href="#ArialMT-4d" x="747.65625"/>
      <use xlink:href="#ArialMT-5f" x="830.957031"/>
      <use xlink:href="#ArialMT-41" x="886.572266"/>
      <use xlink:href="#ArialMT-62" x="953.271484"/>
      <use xlink:href="#ArialMT-73" x="1008.886719"/>
     </g>
    </g>
    <g id="line2d_44">
     <path d="M 272.259875 71.096747 
L 278.259875 71.096747 
L 284.259875 71.096747 
" style="fill: none; stroke: #841e5a; stroke-width: 1.5; stroke-linecap: round"/>
    </g>
    <g id="text_22">
     <!-- t=4hrs FeCl3 50 uM_Abs -->
     <g style="fill: #262626" transform="translate(289.059875 73.196747) scale(0.06 -0.06)">
      <use xlink:href="#ArialMT-74"/>
      <use xlink:href="#ArialMT-3d" x="27.783203"/>
      <use xlink:href="#ArialMT-34" x="86.181641"/>
      <use xlink:href="#ArialMT-68" x="141.796875"/>
      <use xlink:href="#ArialMT-72" x="197.412109"/>
      <use xlink:href="#ArialMT-73" x="230.712891"/>
      <use xlink:href="#ArialMT-20" x="280.712891"/>
      <use xlink:href="#ArialMT-46" x="308.496094"/>
      <use xlink:href="#ArialMT-65" x="369.580078"/>
      <use xlink:href="#ArialMT-43" x="425.195312"/>
      <use xlink:href="#ArialMT-6c" x="497.412109"/>
      <use xlink:href="#ArialMT-33" x="519.628906"/>
      <use xlink:href="#ArialMT-20" x="575.244141"/>
      <use xlink:href="#ArialMT-35" x="603.027344"/>
      <use xlink:href="#ArialMT-30" x="658.642578"/>
      <use xlink:href="#ArialMT-20" x="714.257812"/>
      <use xlink:href="#ArialMT-75" x="742.041016"/>
      <use xlink:href="#ArialMT-4d" x="797.65625"/>
      <use xlink:href="#ArialMT-5f" x="880.957031"/>
      <use xlink:href="#ArialMT-41" x="936.572266"/>
      <use xlink:href="#ArialMT-62" x="1003.271484"/>
      <use xlink:href="#ArialMT-73" x="1058.886719"/>
     </g>
    </g>
    <g id="line2d_45">
     <path d="M 272.259875 79.657059 
L 278.259875 79.657059 
L 284.259875 79.657059 
" style="fill: none; stroke: #3f1b43; stroke-width: 1.5; stroke-linecap: round"/>
    </g>
    <g id="text_23">
     <!-- t=24hrs FeCl3 50uM_Abs -->
     <g style="fill: #262626" transform="translate(289.059875 81.757059) scale(0.06 -0.06)">
      <use xlink:href="#ArialMT-74"/>
      <use xlink:href="#ArialMT-3d" x="27.783203"/>
      <use xlink:href="#ArialMT-32" x="86.181641"/>
      <use xlink:href="#ArialMT-34" x="141.796875"/>
      <use xlink:href="#ArialMT-68" x="197.412109"/>
      <use xlink:href="#ArialMT-72" x="253.027344"/>
      <use xlink:href="#ArialMT-73" x="286.328125"/>
      <use xlink:href="#ArialMT-20" x="336.328125"/>
      <use xlink:href="#ArialMT-46" x="364.111328"/>
      <use xlink:href="#ArialMT-65" x="425.195312"/>
      <use xlink:href="#ArialMT-43" x="480.810547"/>
      <use xlink:href="#ArialMT-6c" x="553.027344"/>
      <use xlink:href="#ArialMT-33" x="575.244141"/>
      <use xlink:href="#ArialMT-20" x="630.859375"/>
      <use xlink:href="#ArialMT-35" x="658.642578"/>
      <use xlink:href="#ArialMT-30" x="714.257812"/>
      <use xlink:href="#ArialMT-75" x="769.873047"/>
      <use xlink:href="#ArialMT-4d" x="825.488281"/>
      <use xlink:href="#ArialMT-5f" x="908.789062"/>
      <use xlink:href="#ArialMT-41" x="964.404297"/>
      <use xlink:href="#ArialMT-62" x="1031.103516"/>
      <use xlink:href="#ArialMT-73" x="1086.71875"/>
     </g>
    </g>
   </g>
  </g>
 </g>
 <defs>
  <clipPath id="p85d131dbe7">
   <rect x="41.25125" y="11.136797" width="357.12" height="266.112"/>
  </clipPath>
 </defs>
</svg>
