<?xml version="1.0" encoding="utf-8" standalone="no"?>
<!DOCTYPE svg PUBLIC "-//W3C//DTD SVG 1.1//EN"
  "http://www.w3.org/Graphics/SVG/1.1/DTD/svg11.dtd">
<svg xmlns:xlink="http://www.w3.org/1999/xlink" width="417.805313pt" height="313.269891pt" viewBox="0 0 417.805313 313.269891" xmlns="http://www.w3.org/2000/svg" version="1.1">
 <metadata>
  <rdf:RDF xmlns:dc="http://purl.org/dc/elements/1.1/" xmlns:cc="http://creativecommons.org/ns#" xmlns:rdf="http://www.w3.org/1999/02/22-rdf-syntax-ns#">
   <cc:Work>
    <dc:type rdf:resource="http://purl.org/dc/dcmitype/StillImage"/>
    <dc:date>2024-11-04T15:35:51.904603</dc:date>
    <dc:format>image/svg+xml</dc:format>
    <dc:creator>
     <cc:Agent>
      <dc:title>Matplotlib v3.7.1, https://matplotlib.org/</dc:title>
     </cc:Agent>
    </dc:creator>
   </cc:Work>
  </rdf:RDF>
 </metadata>
 <defs>
  <style type="text/css">*{stroke-linejoin: round; stroke-linecap: butt}</style>
 </defs>
 <g id="figure_1">
  <g id="patch_1">
   <path d="M 0 313.269891 
L 417.805313 313.269891 
L 417.805313 0 
L 0 0 
z
" style="fill: #ffffff"/>
  </g>
  <g id="axes_1">
   <g id="patch_2">
    <path d="M 41.25125 277.248797 
L 398.37125 277.248797 
L 398.37125 11.136797 
L 41.25125 11.136797 
z
" style="fill: #ffffff"/>
   </g>
   <g id="matplotlib.axis_1">
    <g id="xtick_1">
     <g id="line2d_1">
      <defs>
       <path id="md34b65b95c" d="M 0 0 
L 0 -6 
" style="stroke: #262626; stroke-width: 1.25"/>
      </defs>
      <g>
       <use xlink:href="#md34b65b95c" x="73.716705" y="277.248797" style="fill: #262626; stroke: #262626; stroke-width: 1.25"/>
      </g>
     </g>
     <g id="text_1">
      <!-- 400 -->
      <g style="fill: #262626" transform="translate(64.541158 288.622391) scale(0.11 -0.11)">
       <defs>
        <path id="ArialMT-34" d="M 2069 0 
L 2069 1097 
L 81 1097 
L 81 1613 
L 2172 4581 
L 2631 4581 
L 2631 1613 
L 3250 1613 
L 3250 1097 
L 2631 1097 
L 2631 0 
L 2069 0 
z
M 2069 1613 
L 2069 3678 
L 634 1613 
L 2069 1613 
z
" transform="scale(0.015625)"/>
        <path id="ArialMT-30" d="M 266 2259 
Q 266 3072 433 3567 
Q 600 4063 929 4331 
Q 1259 4600 1759 4600 
Q 2128 4600 2406 4451 
Q 2684 4303 2865 4023 
Q 3047 3744 3150 3342 
Q 3253 2941 3253 2259 
Q 3253 1453 3087 958 
Q 2922 463 2592 192 
Q 2263 -78 1759 -78 
Q 1097 -78 719 397 
Q 266 969 266 2259 
z
M 844 2259 
Q 844 1131 1108 757 
Q 1372 384 1759 384 
Q 2147 384 2411 759 
Q 2675 1134 2675 2259 
Q 2675 3391 2411 3762 
Q 2147 4134 1753 4134 
Q 1366 4134 1134 3806 
Q 844 3388 844 2259 
z
" transform="scale(0.015625)"/>
       </defs>
       <use xlink:href="#ArialMT-34"/>
       <use xlink:href="#ArialMT-30" x="55.615234"/>
       <use xlink:href="#ArialMT-30" x="111.230469"/>
      </g>
     </g>
    </g>
    <g id="xtick_2">
     <g id="line2d_2">
      <g>
       <use xlink:href="#md34b65b95c" x="138.647614" y="277.248797" style="fill: #262626; stroke: #262626; stroke-width: 1.25"/>
      </g>
     </g>
     <g id="text_2">
      <!-- 600 -->
      <g style="fill: #262626" transform="translate(129.472067 288.622391) scale(0.11 -0.11)">
       <defs>
        <path id="ArialMT-36" d="M 3184 3459 
L 2625 3416 
Q 2550 3747 2413 3897 
Q 2184 4138 1850 4138 
Q 1581 4138 1378 3988 
Q 1113 3794 959 3422 
Q 806 3050 800 2363 
Q 1003 2672 1297 2822 
Q 1591 2972 1913 2972 
Q 2475 2972 2870 2558 
Q 3266 2144 3266 1488 
Q 3266 1056 3080 686 
Q 2894 316 2569 119 
Q 2244 -78 1831 -78 
Q 1128 -78 684 439 
Q 241 956 241 2144 
Q 241 3472 731 4075 
Q 1159 4600 1884 4600 
Q 2425 4600 2770 4297 
Q 3116 3994 3184 3459 
z
M 888 1484 
Q 888 1194 1011 928 
Q 1134 663 1356 523 
Q 1578 384 1822 384 
Q 2178 384 2434 671 
Q 2691 959 2691 1453 
Q 2691 1928 2437 2201 
Q 2184 2475 1800 2475 
Q 1419 2475 1153 2201 
Q 888 1928 888 1484 
z
" transform="scale(0.015625)"/>
       </defs>
       <use xlink:href="#ArialMT-36"/>
       <use xlink:href="#ArialMT-30" x="55.615234"/>
       <use xlink:href="#ArialMT-30" x="111.230469"/>
      </g>
     </g>
    </g>
    <g id="xtick_3">
     <g id="line2d_3">
      <g>
       <use xlink:href="#md34b65b95c" x="203.578523" y="277.248797" style="fill: #262626; stroke: #262626; stroke-width: 1.25"/>
      </g>
     </g>
     <g id="text_3">
      <!-- 800 -->
      <g style="fill: #262626" transform="translate(194.402976 288.622391) scale(0.11 -0.11)">
       <defs>
        <path id="ArialMT-38" d="M 1131 2484 
Q 781 2613 612 2850 
Q 444 3088 444 3419 
Q 444 3919 803 4259 
Q 1163 4600 1759 4600 
Q 2359 4600 2725 4251 
Q 3091 3903 3091 3403 
Q 3091 3084 2923 2848 
Q 2756 2613 2416 2484 
Q 2838 2347 3058 2040 
Q 3278 1734 3278 1309 
Q 3278 722 2862 322 
Q 2447 -78 1769 -78 
Q 1091 -78 675 323 
Q 259 725 259 1325 
Q 259 1772 486 2073 
Q 713 2375 1131 2484 
z
M 1019 3438 
Q 1019 3113 1228 2906 
Q 1438 2700 1772 2700 
Q 2097 2700 2305 2904 
Q 2513 3109 2513 3406 
Q 2513 3716 2298 3927 
Q 2084 4138 1766 4138 
Q 1444 4138 1231 3931 
Q 1019 3725 1019 3438 
z
M 838 1322 
Q 838 1081 952 856 
Q 1066 631 1291 507 
Q 1516 384 1775 384 
Q 2178 384 2440 643 
Q 2703 903 2703 1303 
Q 2703 1709 2433 1975 
Q 2163 2241 1756 2241 
Q 1359 2241 1098 1978 
Q 838 1716 838 1322 
z
" transform="scale(0.015625)"/>
       </defs>
       <use xlink:href="#ArialMT-38"/>
       <use xlink:href="#ArialMT-30" x="55.615234"/>
       <use xlink:href="#ArialMT-30" x="111.230469"/>
      </g>
     </g>
    </g>
    <g id="xtick_4">
     <g id="line2d_4">
      <g>
       <use xlink:href="#md34b65b95c" x="268.509432" y="277.248797" style="fill: #262626; stroke: #262626; stroke-width: 1.25"/>
      </g>
     </g>
     <g id="text_4">
      <!-- 1000 -->
      <g style="fill: #262626" transform="translate(256.275369 288.622391) scale(0.11 -0.11)">
       <defs>
        <path id="ArialMT-31" d="M 2384 0 
L 1822 0 
L 1822 3584 
Q 1619 3391 1289 3197 
Q 959 3003 697 2906 
L 697 3450 
Q 1169 3672 1522 3987 
Q 1875 4303 2022 4600 
L 2384 4600 
L 2384 0 
z
" transform="scale(0.015625)"/>
       </defs>
       <use xlink:href="#ArialMT-31"/>
       <use xlink:href="#ArialMT-30" x="55.615234"/>
       <use xlink:href="#ArialMT-30" x="111.230469"/>
       <use xlink:href="#ArialMT-30" x="166.845703"/>
      </g>
     </g>
    </g>
    <g id="xtick_5">
     <g id="line2d_5">
      <g>
       <use xlink:href="#md34b65b95c" x="333.440341" y="277.248797" style="fill: #262626; stroke: #262626; stroke-width: 1.25"/>
      </g>
     </g>
     <g id="text_5">
      <!-- 1200 -->
      <g style="fill: #262626" transform="translate(321.206278 288.622391) scale(0.11 -0.11)">
       <defs>
        <path id="ArialMT-32" d="M 3222 541 
L 3222 0 
L 194 0 
Q 188 203 259 391 
Q 375 700 629 1000 
Q 884 1300 1366 1694 
Q 2113 2306 2375 2664 
Q 2638 3022 2638 3341 
Q 2638 3675 2398 3904 
Q 2159 4134 1775 4134 
Q 1369 4134 1125 3890 
Q 881 3647 878 3216 
L 300 3275 
Q 359 3922 746 4261 
Q 1134 4600 1788 4600 
Q 2447 4600 2831 4234 
Q 3216 3869 3216 3328 
Q 3216 3053 3103 2787 
Q 2991 2522 2730 2228 
Q 2469 1934 1863 1422 
Q 1356 997 1212 845 
Q 1069 694 975 541 
L 3222 541 
z
" transform="scale(0.015625)"/>
       </defs>
       <use xlink:href="#ArialMT-31"/>
       <use xlink:href="#ArialMT-32" x="55.615234"/>
       <use xlink:href="#ArialMT-30" x="111.230469"/>
       <use xlink:href="#ArialMT-30" x="166.845703"/>
      </g>
     </g>
    </g>
    <g id="xtick_6">
     <g id="line2d_6">
      <g>
       <use xlink:href="#md34b65b95c" x="398.37125" y="277.248797" style="fill: #262626; stroke: #262626; stroke-width: 1.25"/>
      </g>
     </g>
     <g id="text_6">
      <!-- 1400 -->
      <g style="fill: #262626" transform="translate(386.137188 288.622391) scale(0.11 -0.11)">
       <use xlink:href="#ArialMT-31"/>
       <use xlink:href="#ArialMT-34" x="55.615234"/>
       <use xlink:href="#ArialMT-30" x="111.230469"/>
       <use xlink:href="#ArialMT-30" x="166.845703"/>
      </g>
     </g>
    </g>
    <g id="xtick_7">
     <g id="line2d_7">
      <defs>
       <path id="ma8c9748254" d="M 0 0 
L 0 -4 
" style="stroke: #262626"/>
      </defs>
      <g>
       <use xlink:href="#ma8c9748254" x="106.182159" y="277.248797" style="fill: #262626; stroke: #262626"/>
      </g>
     </g>
    </g>
    <g id="xtick_8">
     <g id="line2d_8">
      <g>
       <use xlink:href="#ma8c9748254" x="171.113068" y="277.248797" style="fill: #262626; stroke: #262626"/>
      </g>
     </g>
    </g>
    <g id="xtick_9">
     <g id="line2d_9">
      <g>
       <use xlink:href="#ma8c9748254" x="236.043977" y="277.248797" style="fill: #262626; stroke: #262626"/>
      </g>
     </g>
    </g>
    <g id="xtick_10">
     <g id="line2d_10">
      <g>
       <use xlink:href="#ma8c9748254" x="300.974886" y="277.248797" style="fill: #262626; stroke: #262626"/>
      </g>
     </g>
    </g>
    <g id="xtick_11">
     <g id="line2d_11">
      <g>
       <use xlink:href="#ma8c9748254" x="365.905795" y="277.248797" style="fill: #262626; stroke: #262626"/>
      </g>
     </g>
    </g>
    <g id="text_7">
     <!-- Wavelength (nm) -->
     <g style="fill: #262626" transform="translate(174.356562 303.544266) scale(0.12 -0.12)">
      <defs>
       <path id="ArialMT-57" d="M 1294 0 
L 78 4581 
L 700 4581 
L 1397 1578 
Q 1509 1106 1591 641 
Q 1766 1375 1797 1488 
L 2669 4581 
L 3400 4581 
L 4056 2263 
Q 4303 1400 4413 641 
Q 4500 1075 4641 1638 
L 5359 4581 
L 5969 4581 
L 4713 0 
L 4128 0 
L 3163 3491 
Q 3041 3928 3019 4028 
Q 2947 3713 2884 3491 
L 1913 0 
L 1294 0 
z
" transform="scale(0.015625)"/>
       <path id="ArialMT-61" d="M 2588 409 
Q 2275 144 1986 34 
Q 1697 -75 1366 -75 
Q 819 -75 525 192 
Q 231 459 231 875 
Q 231 1119 342 1320 
Q 453 1522 633 1644 
Q 813 1766 1038 1828 
Q 1203 1872 1538 1913 
Q 2219 1994 2541 2106 
Q 2544 2222 2544 2253 
Q 2544 2597 2384 2738 
Q 2169 2928 1744 2928 
Q 1347 2928 1158 2789 
Q 969 2650 878 2297 
L 328 2372 
Q 403 2725 575 2942 
Q 747 3159 1072 3276 
Q 1397 3394 1825 3394 
Q 2250 3394 2515 3294 
Q 2781 3194 2906 3042 
Q 3031 2891 3081 2659 
Q 3109 2516 3109 2141 
L 3109 1391 
Q 3109 606 3145 398 
Q 3181 191 3288 0 
L 2700 0 
Q 2613 175 2588 409 
z
M 2541 1666 
Q 2234 1541 1622 1453 
Q 1275 1403 1131 1340 
Q 988 1278 909 1158 
Q 831 1038 831 891 
Q 831 666 1001 516 
Q 1172 366 1500 366 
Q 1825 366 2078 508 
Q 2331 650 2450 897 
Q 2541 1088 2541 1459 
L 2541 1666 
z
" transform="scale(0.015625)"/>
       <path id="ArialMT-76" d="M 1344 0 
L 81 3319 
L 675 3319 
L 1388 1331 
Q 1503 1009 1600 663 
Q 1675 925 1809 1294 
L 2547 3319 
L 3125 3319 
L 1869 0 
L 1344 0 
z
" transform="scale(0.015625)"/>
       <path id="ArialMT-65" d="M 2694 1069 
L 3275 997 
Q 3138 488 2766 206 
Q 2394 -75 1816 -75 
Q 1088 -75 661 373 
Q 234 822 234 1631 
Q 234 2469 665 2931 
Q 1097 3394 1784 3394 
Q 2450 3394 2872 2941 
Q 3294 2488 3294 1666 
Q 3294 1616 3291 1516 
L 816 1516 
Q 847 969 1125 678 
Q 1403 388 1819 388 
Q 2128 388 2347 550 
Q 2566 713 2694 1069 
z
M 847 1978 
L 2700 1978 
Q 2663 2397 2488 2606 
Q 2219 2931 1791 2931 
Q 1403 2931 1139 2672 
Q 875 2413 847 1978 
z
" transform="scale(0.015625)"/>
       <path id="ArialMT-6c" d="M 409 0 
L 409 4581 
L 972 4581 
L 972 0 
L 409 0 
z
" transform="scale(0.015625)"/>
       <path id="ArialMT-6e" d="M 422 0 
L 422 3319 
L 928 3319 
L 928 2847 
Q 1294 3394 1984 3394 
Q 2284 3394 2536 3286 
Q 2788 3178 2913 3003 
Q 3038 2828 3088 2588 
Q 3119 2431 3119 2041 
L 3119 0 
L 2556 0 
L 2556 2019 
Q 2556 2363 2490 2533 
Q 2425 2703 2258 2804 
Q 2091 2906 1866 2906 
Q 1506 2906 1245 2678 
Q 984 2450 984 1813 
L 984 0 
L 422 0 
z
" transform="scale(0.015625)"/>
       <path id="ArialMT-67" d="M 319 -275 
L 866 -356 
Q 900 -609 1056 -725 
Q 1266 -881 1628 -881 
Q 2019 -881 2231 -725 
Q 2444 -569 2519 -288 
Q 2563 -116 2559 434 
Q 2191 0 1641 0 
Q 956 0 581 494 
Q 206 988 206 1678 
Q 206 2153 378 2554 
Q 550 2956 876 3175 
Q 1203 3394 1644 3394 
Q 2231 3394 2613 2919 
L 2613 3319 
L 3131 3319 
L 3131 450 
Q 3131 -325 2973 -648 
Q 2816 -972 2473 -1159 
Q 2131 -1347 1631 -1347 
Q 1038 -1347 672 -1080 
Q 306 -813 319 -275 
z
M 784 1719 
Q 784 1066 1043 766 
Q 1303 466 1694 466 
Q 2081 466 2343 764 
Q 2606 1063 2606 1700 
Q 2606 2309 2336 2618 
Q 2066 2928 1684 2928 
Q 1309 2928 1046 2623 
Q 784 2319 784 1719 
z
" transform="scale(0.015625)"/>
       <path id="ArialMT-74" d="M 1650 503 
L 1731 6 
Q 1494 -44 1306 -44 
Q 1000 -44 831 53 
Q 663 150 594 308 
Q 525 466 525 972 
L 525 2881 
L 113 2881 
L 113 3319 
L 525 3319 
L 525 4141 
L 1084 4478 
L 1084 3319 
L 1650 3319 
L 1650 2881 
L 1084 2881 
L 1084 941 
Q 1084 700 1114 631 
Q 1144 563 1211 522 
Q 1278 481 1403 481 
Q 1497 481 1650 503 
z
" transform="scale(0.015625)"/>
       <path id="ArialMT-68" d="M 422 0 
L 422 4581 
L 984 4581 
L 984 2938 
Q 1378 3394 1978 3394 
Q 2347 3394 2619 3248 
Q 2891 3103 3008 2847 
Q 3125 2591 3125 2103 
L 3125 0 
L 2563 0 
L 2563 2103 
Q 2563 2525 2380 2717 
Q 2197 2909 1863 2909 
Q 1613 2909 1392 2779 
Q 1172 2650 1078 2428 
Q 984 2206 984 1816 
L 984 0 
L 422 0 
z
" transform="scale(0.015625)"/>
       <path id="ArialMT-20" transform="scale(0.015625)"/>
       <path id="ArialMT-28" d="M 1497 -1347 
Q 1031 -759 709 28 
Q 388 816 388 1659 
Q 388 2403 628 3084 
Q 909 3875 1497 4659 
L 1900 4659 
Q 1522 4009 1400 3731 
Q 1209 3300 1100 2831 
Q 966 2247 966 1656 
Q 966 153 1900 -1347 
L 1497 -1347 
z
" transform="scale(0.015625)"/>
       <path id="ArialMT-6d" d="M 422 0 
L 422 3319 
L 925 3319 
L 925 2853 
Q 1081 3097 1340 3245 
Q 1600 3394 1931 3394 
Q 2300 3394 2536 3241 
Q 2772 3088 2869 2813 
Q 3263 3394 3894 3394 
Q 4388 3394 4653 3120 
Q 4919 2847 4919 2278 
L 4919 0 
L 4359 0 
L 4359 2091 
Q 4359 2428 4304 2576 
Q 4250 2725 4106 2815 
Q 3963 2906 3769 2906 
Q 3419 2906 3187 2673 
Q 2956 2441 2956 1928 
L 2956 0 
L 2394 0 
L 2394 2156 
Q 2394 2531 2256 2718 
Q 2119 2906 1806 2906 
Q 1569 2906 1367 2781 
Q 1166 2656 1075 2415 
Q 984 2175 984 1722 
L 984 0 
L 422 0 
z
" transform="scale(0.015625)"/>
       <path id="ArialMT-29" d="M 791 -1347 
L 388 -1347 
Q 1322 153 1322 1656 
Q 1322 2244 1188 2822 
Q 1081 3291 891 3722 
Q 769 4003 388 4659 
L 791 4659 
Q 1378 3875 1659 3084 
Q 1900 2403 1900 1659 
Q 1900 816 1576 28 
Q 1253 -759 791 -1347 
z
" transform="scale(0.015625)"/>
      </defs>
      <use xlink:href="#ArialMT-57"/>
      <use xlink:href="#ArialMT-61" x="90.634766"/>
      <use xlink:href="#ArialMT-76" x="146.25"/>
      <use xlink:href="#ArialMT-65" x="196.25"/>
      <use xlink:href="#ArialMT-6c" x="251.865234"/>
      <use xlink:href="#ArialMT-65" x="274.082031"/>
      <use xlink:href="#ArialMT-6e" x="329.697266"/>
      <use xlink:href="#ArialMT-67" x="385.3125"/>
      <use xlink:href="#ArialMT-74" x="440.927734"/>
      <use xlink:href="#ArialMT-68" x="468.710938"/>
      <use xlink:href="#ArialMT-20" x="524.326172"/>
      <use xlink:href="#ArialMT-28" x="552.109375"/>
      <use xlink:href="#ArialMT-6e" x="585.410156"/>
      <use xlink:href="#ArialMT-6d" x="641.025391"/>
      <use xlink:href="#ArialMT-29" x="724.326172"/>
     </g>
    </g>
   </g>
   <g id="matplotlib.axis_2">
    <g id="ytick_1">
     <g id="line2d_12">
      <defs>
       <path id="mda91aaa5ed" d="M 0 0 
L 6 0 
" style="stroke: #262626; stroke-width: 1.25"/>
      </defs>
      <g>
       <use xlink:href="#mda91aaa5ed" x="41.25125" y="277.248797" style="fill: #262626; stroke: #262626; stroke-width: 1.25"/>
      </g>
     </g>
     <g id="text_8">
      <!-- 0.0 -->
      <g style="fill: #262626" transform="translate(22.46125 281.185594) scale(0.11 -0.11)">
       <defs>
        <path id="ArialMT-2e" d="M 581 0 
L 581 641 
L 1222 641 
L 1222 0 
L 581 0 
z
" transform="scale(0.015625)"/>
       </defs>
       <use xlink:href="#ArialMT-30"/>
       <use xlink:href="#ArialMT-2e" x="55.615234"/>
       <use xlink:href="#ArialMT-30" x="83.398438"/>
      </g>
     </g>
    </g>
    <g id="ytick_2">
     <g id="line2d_13">
      <g>
       <use xlink:href="#mda91aaa5ed" x="41.25125" y="224.026397" style="fill: #262626; stroke: #262626; stroke-width: 1.25"/>
      </g>
     </g>
     <g id="text_9">
      <!-- 0.2 -->
      <g style="fill: #262626" transform="translate(22.46125 227.963194) scale(0.11 -0.11)">
       <use xlink:href="#ArialMT-30"/>
       <use xlink:href="#ArialMT-2e" x="55.615234"/>
       <use xlink:href="#ArialMT-32" x="83.398438"/>
      </g>
     </g>
    </g>
    <g id="ytick_3">
     <g id="line2d_14">
      <g>
       <use xlink:href="#mda91aaa5ed" x="41.25125" y="170.803997" style="fill: #262626; stroke: #262626; stroke-width: 1.25"/>
      </g>
     </g>
     <g id="text_10">
      <!-- 0.4 -->
      <g style="fill: #262626" transform="translate(22.46125 174.740794) scale(0.11 -0.11)">
       <use xlink:href="#ArialMT-30"/>
       <use xlink:href="#ArialMT-2e" x="55.615234"/>
       <use xlink:href="#ArialMT-34" x="83.398438"/>
      </g>
     </g>
    </g>
    <g id="ytick_4">
     <g id="line2d_15">
      <g>
       <use xlink:href="#mda91aaa5ed" x="41.25125" y="117.581597" style="fill: #262626; stroke: #262626; stroke-width: 1.25"/>
      </g>
     </g>
     <g id="text_11">
      <!-- 0.6 -->
      <g style="fill: #262626" transform="translate(22.46125 121.518394) scale(0.11 -0.11)">
       <use xlink:href="#ArialMT-30"/>
       <use xlink:href="#ArialMT-2e" x="55.615234"/>
       <use xlink:href="#ArialMT-36" x="83.398438"/>
      </g>
     </g>
    </g>
    <g id="ytick_5">
     <g id="line2d_16">
      <g>
       <use xlink:href="#mda91aaa5ed" x="41.25125" y="64.359197" style="fill: #262626; stroke: #262626; stroke-width: 1.25"/>
      </g>
     </g>
     <g id="text_12">
      <!-- 0.8 -->
      <g style="fill: #262626" transform="translate(22.46125 68.295994) scale(0.11 -0.11)">
       <use xlink:href="#ArialMT-30"/>
       <use xlink:href="#ArialMT-2e" x="55.615234"/>
       <use xlink:href="#ArialMT-38" x="83.398438"/>
      </g>
     </g>
    </g>
    <g id="ytick_6">
     <g id="line2d_17">
      <g>
       <use xlink:href="#mda91aaa5ed" x="41.25125" y="11.136797" style="fill: #262626; stroke: #262626; stroke-width: 1.25"/>
      </g>
     </g>
     <g id="text_13">
      <!-- 1.0 -->
      <g style="fill: #262626" transform="translate(22.46125 15.073594) scale(0.11 -0.11)">
       <use xlink:href="#ArialMT-31"/>
       <use xlink:href="#ArialMT-2e" x="55.615234"/>
       <use xlink:href="#ArialMT-30" x="83.398438"/>
      </g>
     </g>
    </g>
    <g id="ytick_7">
     <g id="line2d_18">
      <defs>
       <path id="m275512a256" d="M 0 0 
L 4 0 
" style="stroke: #262626"/>
      </defs>
      <g>
       <use xlink:href="#m275512a256" x="41.25125" y="250.637597" style="fill: #262626; stroke: #262626"/>
      </g>
     </g>
    </g>
    <g id="ytick_8">
     <g id="line2d_19">
      <g>
       <use xlink:href="#m275512a256" x="41.25125" y="197.415197" style="fill: #262626; stroke: #262626"/>
      </g>
     </g>
    </g>
    <g id="ytick_9">
     <g id="line2d_20">
      <g>
       <use xlink:href="#m275512a256" x="41.25125" y="144.192797" style="fill: #262626; stroke: #262626"/>
      </g>
     </g>
    </g>
    <g id="ytick_10">
     <g id="line2d_21">
      <g>
       <use xlink:href="#m275512a256" x="41.25125" y="90.970397" style="fill: #262626; stroke: #262626"/>
      </g>
     </g>
    </g>
    <g id="ytick_11">
     <g id="line2d_22">
      <g>
       <use xlink:href="#m275512a256" x="41.25125" y="37.747997" style="fill: #262626; stroke: #262626"/>
      </g>
     </g>
    </g>
    <g id="text_14">
     <!-- Absorbance (a.u.) -->
     <g style="fill: #262626" transform="translate(15.935625 191.881547) rotate(-90) scale(0.12 -0.12)">
      <defs>
       <path id="ArialMT-41" d="M -9 0 
L 1750 4581 
L 2403 4581 
L 4278 0 
L 3588 0 
L 3053 1388 
L 1138 1388 
L 634 0 
L -9 0 
z
M 1313 1881 
L 2866 1881 
L 2388 3150 
Q 2169 3728 2063 4100 
Q 1975 3659 1816 3225 
L 1313 1881 
z
" transform="scale(0.015625)"/>
       <path id="ArialMT-62" d="M 941 0 
L 419 0 
L 419 4581 
L 981 4581 
L 981 2947 
Q 1338 3394 1891 3394 
Q 2197 3394 2470 3270 
Q 2744 3147 2920 2923 
Q 3097 2700 3197 2384 
Q 3297 2069 3297 1709 
Q 3297 856 2875 390 
Q 2453 -75 1863 -75 
Q 1275 -75 941 416 
L 941 0 
z
M 934 1684 
Q 934 1088 1097 822 
Q 1363 388 1816 388 
Q 2184 388 2453 708 
Q 2722 1028 2722 1663 
Q 2722 2313 2464 2622 
Q 2206 2931 1841 2931 
Q 1472 2931 1203 2611 
Q 934 2291 934 1684 
z
" transform="scale(0.015625)"/>
       <path id="ArialMT-73" d="M 197 991 
L 753 1078 
Q 800 744 1014 566 
Q 1228 388 1613 388 
Q 2000 388 2187 545 
Q 2375 703 2375 916 
Q 2375 1106 2209 1216 
Q 2094 1291 1634 1406 
Q 1016 1563 777 1677 
Q 538 1791 414 1992 
Q 291 2194 291 2438 
Q 291 2659 392 2848 
Q 494 3038 669 3163 
Q 800 3259 1026 3326 
Q 1253 3394 1513 3394 
Q 1903 3394 2198 3281 
Q 2494 3169 2634 2976 
Q 2775 2784 2828 2463 
L 2278 2388 
Q 2241 2644 2061 2787 
Q 1881 2931 1553 2931 
Q 1166 2931 1000 2803 
Q 834 2675 834 2503 
Q 834 2394 903 2306 
Q 972 2216 1119 2156 
Q 1203 2125 1616 2013 
Q 2213 1853 2448 1751 
Q 2684 1650 2818 1456 
Q 2953 1263 2953 975 
Q 2953 694 2789 445 
Q 2625 197 2315 61 
Q 2006 -75 1616 -75 
Q 969 -75 630 194 
Q 291 463 197 991 
z
" transform="scale(0.015625)"/>
       <path id="ArialMT-6f" d="M 213 1659 
Q 213 2581 725 3025 
Q 1153 3394 1769 3394 
Q 2453 3394 2887 2945 
Q 3322 2497 3322 1706 
Q 3322 1066 3130 698 
Q 2938 331 2570 128 
Q 2203 -75 1769 -75 
Q 1072 -75 642 372 
Q 213 819 213 1659 
z
M 791 1659 
Q 791 1022 1069 705 
Q 1347 388 1769 388 
Q 2188 388 2466 706 
Q 2744 1025 2744 1678 
Q 2744 2294 2464 2611 
Q 2184 2928 1769 2928 
Q 1347 2928 1069 2612 
Q 791 2297 791 1659 
z
" transform="scale(0.015625)"/>
       <path id="ArialMT-72" d="M 416 0 
L 416 3319 
L 922 3319 
L 922 2816 
Q 1116 3169 1280 3281 
Q 1444 3394 1641 3394 
Q 1925 3394 2219 3213 
L 2025 2691 
Q 1819 2813 1613 2813 
Q 1428 2813 1281 2702 
Q 1134 2591 1072 2394 
Q 978 2094 978 1738 
L 978 0 
L 416 0 
z
" transform="scale(0.015625)"/>
       <path id="ArialMT-63" d="M 2588 1216 
L 3141 1144 
Q 3050 572 2676 248 
Q 2303 -75 1759 -75 
Q 1078 -75 664 370 
Q 250 816 250 1647 
Q 250 2184 428 2587 
Q 606 2991 970 3192 
Q 1334 3394 1763 3394 
Q 2303 3394 2647 3120 
Q 2991 2847 3088 2344 
L 2541 2259 
Q 2463 2594 2264 2762 
Q 2066 2931 1784 2931 
Q 1359 2931 1093 2626 
Q 828 2322 828 1663 
Q 828 994 1084 691 
Q 1341 388 1753 388 
Q 2084 388 2306 591 
Q 2528 794 2588 1216 
z
" transform="scale(0.015625)"/>
       <path id="ArialMT-75" d="M 2597 0 
L 2597 488 
Q 2209 -75 1544 -75 
Q 1250 -75 995 37 
Q 741 150 617 320 
Q 494 491 444 738 
Q 409 903 409 1263 
L 409 3319 
L 972 3319 
L 972 1478 
Q 972 1038 1006 884 
Q 1059 663 1231 536 
Q 1403 409 1656 409 
Q 1909 409 2131 539 
Q 2353 669 2445 892 
Q 2538 1116 2538 1541 
L 2538 3319 
L 3100 3319 
L 3100 0 
L 2597 0 
z
" transform="scale(0.015625)"/>
      </defs>
      <use xlink:href="#ArialMT-41"/>
      <use xlink:href="#ArialMT-62" x="66.699219"/>
      <use xlink:href="#ArialMT-73" x="122.314453"/>
      <use xlink:href="#ArialMT-6f" x="172.314453"/>
      <use xlink:href="#ArialMT-72" x="227.929688"/>
      <use xlink:href="#ArialMT-62" x="261.230469"/>
      <use xlink:href="#ArialMT-61" x="316.845703"/>
      <use xlink:href="#ArialMT-6e" x="372.460938"/>
      <use xlink:href="#ArialMT-63" x="428.076172"/>
      <use xlink:href="#ArialMT-65" x="478.076172"/>
      <use xlink:href="#ArialMT-20" x="533.691406"/>
      <use xlink:href="#ArialMT-28" x="561.474609"/>
      <use xlink:href="#ArialMT-61" x="594.775391"/>
      <use xlink:href="#ArialMT-2e" x="650.390625"/>
      <use xlink:href="#ArialMT-75" x="678.173828"/>
      <use xlink:href="#ArialMT-2e" x="733.789062"/>
      <use xlink:href="#ArialMT-29" x="761.572266"/>
     </g>
    </g>
   </g>
   <g id="PolyCollection_1"/>
   <g id="PolyCollection_2"/>
   <g id="PolyCollection_3"/>
   <g id="line2d_23">
    <path d="M 41.467683 220.947233 
L 42.549868 216.895425 
L 43.632053 211.812898 
L 45.147105 203.339706 
L 46.445723 194.752744 
L 48.39365 179.576109 
L 53.588123 137.518114 
L 54.886741 129.040041 
L 55.752483 124.633 
L 56.618235 121.238652 
L 57.70041 118.30716 
L 58.566162 116.816019 
L 59.215471 116.167743 
L 59.648338 116.010524 
L 60.081214 116.032079 
L 60.730523 116.621208 
L 61.379832 117.76541 
L 62.245574 120.148808 
L 63.327759 124.389288 
L 64.626377 130.345856 
L 66.141429 137.169843 
L 67.007181 140.368317 
L 67.65649 142.365281 
L 68.305799 143.88272 
L 68.955108 144.89631 
L 69.387984 145.302809 
L 70.037293 145.575262 
L 70.470159 145.495891 
L 71.119468 145.029492 
L 71.768777 144.179235 
L 72.634529 142.519344 
L 73.716705 139.667064 
L 75.015323 135.261307 
L 76.097508 130.908337 
L 77.396126 124.890813 
L 78.911177 116.970145 
L 81.075548 104.33366 
L 83.889217 86.360585 
L 89.949432 46.930756 
L 91.464493 38.518222 
L 92.763111 32.380626 
L 93.845286 28.173884 
L 94.711038 25.373391 
L 95.793214 22.706104 
L 96.658966 21.161573 
L 97.524708 20.220526 
L 97.957584 19.953624 
L 98.606893 19.857789 
L 99.256202 20.174829 
L 99.689068 20.606944 
L 100.338377 21.648474 
L 100.987686 23.20839 
L 101.636995 25.237966 
L 102.502748 28.853026 
L 103.36849 33.50589 
L 104.234232 39.07945 
L 105.316417 47.363695 
L 106.831468 60.793209 
L 109.212271 84.503519 
L 113.324559 128.995645 
L 115.921795 160.949056 
L 121.116268 225.395486 
L 122.631329 239.799777 
L 123.713505 248.093012 
L 124.7957 254.799542 
L 125.877875 260.061321 
L 126.743627 263.397073 
L 127.609359 266.041364 
L 128.691554 268.642342 
L 129.557286 270.257127 
L 130.855905 272.034806 
L 132.154523 273.232669 
L 133.020275 273.861175 
L 134.968202 274.78942 
L 136.699686 275.298475 
L 140.162675 275.848346 
L 142.976354 276.071113 
L 145.357148 276.157276 
L 154.231032 276.427961 
L 156.828268 276.466154 
L 160.5077 276.509651 
L 162.022741 276.50511 
L 213.967468 276.705453 
L 214.183911 276.656684 
L 214.616777 276.681504 
L 217.430457 276.755094 
L 217.863323 276.617391 
L 218.079766 276.762026 
L 218.512632 276.650737 
L 219.594827 276.721281 
L 220.460559 276.709987 
L 220.677002 276.84592 
L 220.893445 276.705827 
L 221.109868 276.854146 
L 221.542754 276.809153 
L 221.759177 276.901305 
L 221.97562 276.697944 
L 222.192063 276.808067 
L 222.841372 276.775549 
L 223.057795 276.87524 
L 224.13999 276.832875 
L 224.572857 276.844814 
L 224.7893 276.686038 
L 225.005723 276.828444 
L 225.222166 276.759515 
L 225.438609 276.820624 
L 225.871475 276.61994 
L 226.520784 276.878149 
L 226.737227 276.729979 
L 227.602959 276.724595 
L 228.035845 276.92992 
L 228.252268 276.88477 
L 228.468711 276.989047 
L 228.685154 276.840957 
L 228.901577 276.893849 
L 229.11802 276.700477 
L 229.334463 276.921561 
L 229.767329 276.580905 
L 229.983772 276.738033 
L 230.200195 276.682238 
L 230.416638 276.45851 
L 230.849505 276.888854 
L 231.28239 276.847807 
L 231.498814 276.832267 
L 231.715257 276.61539 
L 231.9317 276.685775 
L 232.148123 276.352455 
L 232.581009 276.677185 
L 232.797432 276.483928 
L 233.013875 276.694974 
L 233.663184 276.360125 
L 234.09605 276.862171 
L 234.312493 276.678943 
L 234.528936 276.92925 
L 234.745359 276.017724 
L 234.961802 276.93403 
L 235.178245 276.406702 
L 235.611111 277.096025 
L 235.827534 277.239318 
L 239.723389 277.238753 
L 243.835686 277.240744 
L 397.505518 277.041803 
L 398.37125 276.985209 
L 398.37125 276.985209 
" clip-path="url(#p86fb3aa354)" style="fill: none; stroke: #f4865e; stroke-linecap: round"/>
   </g>
   <g id="line2d_24">
    <path d="M 41.467683 225.613963 
L 42.766301 219.375579 
L 43.632053 214.481811 
L 44.930671 205.460335 
L 46.445723 192.192712 
L 48.610083 169.953977 
L 50.341577 150.067758 
L 52.722381 122.061865 
L 54.020999 108.51753 
L 55.103174 98.850002 
L 56.185359 91.282174 
L 57.051101 86.690584 
L 57.70041 84.00615 
L 58.566162 81.780526 
L 59.215471 80.986166 
L 59.648338 80.866776 
L 60.081214 81.116008 
L 60.51409 81.73107 
L 60.946956 82.866231 
L 61.379832 84.478839 
L 62.029141 87.901245 
L 62.894883 94.232621 
L 63.977068 104.373536 
L 67.223614 136.690714 
L 68.089356 142.339379 
L 68.738665 145.202763 
L 69.387984 146.944365 
L 70.037293 147.722451 
L 70.253726 147.788792 
L 70.686602 147.625958 
L 71.335911 146.961915 
L 72.201653 145.355454 
L 73.067395 143.342461 
L 76.96325 134.111902 
L 78.045435 132.056837 
L 78.694744 130.991578 
L 79.993362 129.214677 
L 80.642671 128.506127 
L 81.724857 127.671288 
L 82.374166 127.352044 
L 83.239908 127.209528 
L 84.10565 127.271515 
L 85.837144 128.388514 
L 87.135762 129.889061 
L 88.001505 131.246108 
L 89.08369 133.218154 
L 90.382308 136.012064 
L 92.113802 140.39065 
L 94.494595 147.32631 
L 96.442523 153.592828 
L 99.689068 165.000744 
L 103.152057 178.299844 
L 109.861581 204.523443 
L 112.242384 213.143365 
L 114.406734 220.489216 
L 117.003971 228.53262 
L 119.81765 235.957004 
L 121.332711 239.380117 
L 122.631329 241.985985 
L 123.929948 244.256411 
L 125.661432 246.819092 
L 126.96005 248.460265 
L 128.475111 250.079529 
L 128.691554 250.185765 
L 129.557286 251.025266 
L 134.535336 254.770971 
L 137.348995 256.577268 
L 148.603693 263.157268 
L 152.932414 265.33945 
L 156.395402 266.974351 
L 163.321359 270.014047 
L 166.351481 271.112695 
L 174.14319 273.033781 
L 179.337663 273.800787 
L 184.748559 274.352961 
L 185.830754 274.448488 
L 186.912929 274.501661 
L 187.562238 274.598025 
L 204.227832 275.648591 
L 205.52645 275.703589 
L 208.340129 275.827573 
L 208.989438 275.849203 
L 220.893445 276.203629 
L 221.759177 276.398937 
L 221.97562 276.212193 
L 222.192063 276.183226 
L 222.408486 276.308356 
L 223.274238 276.321849 
L 223.707105 276.241931 
L 223.923548 276.446081 
L 224.356414 276.402448 
L 225.005723 276.468699 
L 225.222166 276.33389 
L 225.438609 276.462915 
L 225.655032 276.453364 
L 225.871475 276.310509 
L 226.087918 276.386126 
L 226.304341 276.29448 
L 226.520784 276.567726 
L 226.737227 276.426809 
L 226.95365 276.504243 
L 227.386536 276.291187 
L 227.602959 276.616962 
L 228.468711 276.604231 
L 228.685154 276.407687 
L 228.901577 276.462554 
L 229.11802 276.366789 
L 229.334463 276.404038 
L 229.550886 276.557879 
L 229.767329 276.396328 
L 229.983772 276.425214 
L 230.200195 276.324592 
L 230.633081 276.428308 
L 230.849505 276.193251 
L 231.065948 277.25023 
L 231.28239 276.287027 
L 231.498814 276.2243 
L 231.715257 276.627801 
L 231.9317 276.545405 
L 232.364566 275.875717 
L 232.581009 276.891279 
L 232.797432 276.592108 
L 233.013875 276.081384 
L 234.09605 276.694995 
L 234.312493 276.446754 
L 234.528936 276.632843 
L 234.745359 275.884381 
L 235.178245 276.743845 
L 235.394668 276.382261 
L 235.827534 276.874604 
L 237.991905 276.887928 
L 247.082232 276.945799 
L 310.4981 277.427321 
L 312.66245 277.748733 
L 313.961068 277.716369 
L 316.341881 277.44197 
L 320.887045 277.180732 
L 326.730827 277.207734 
L 328.462291 277.225745 
L 337.985505 277.171419 
L 340.149855 277.180132 
L 347.075832 277.12928 
L 350.105954 277.097625 
L 359.84559 277.096597 
L 365.040063 277.11504 
L 385.385068 276.970336 
L 386.467263 277.011359 
L 387.765881 277.071825 
L 389.713809 276.980348 
L 391.445273 276.903861 
L 395.341128 276.85163 
L 397.505518 277.079048 
L 398.37125 277.218759 
L 398.37125 277.218759 
" clip-path="url(#p86fb3aa354)" style="fill: none; stroke: #ca1a50; stroke-linecap: round"/>
   </g>
   <g id="line2d_25">
    <path d="M 41.467683 180.019621 
L 42.982744 167.079284 
L 43.632053 159.240454 
L 44.497795 144.620249 
L 46.22929 111.52381 
L 46.878599 103.263325 
L 48.610083 84.99456 
L 49.259392 73.416672 
L 51.423762 25.799067 
L 51.856629 22.082128 
L 52.073071 21.330023 
L 52.289505 21.328262 
L 52.505938 21.911807 
L 52.938814 24.555826 
L 54.453865 35.905784 
L 54.670308 36.485554 
L 54.886741 36.574394 
L 55.103174 36.183027 
L 55.53605 34.285007 
L 56.185359 28.917868 
L 56.834668 23.648468 
L 57.267544 22.158691 
L 57.483977 22.518605 
L 57.70041 23.669516 
L 58.133286 28.773624 
L 58.566162 37.522278 
L 59.215471 56.193164 
L 61.596265 133.844699 
L 62.462017 152.863928 
L 63.327759 166.55549 
L 64.193501 176.328203 
L 65.059253 183.486241 
L 65.924995 188.744943 
L 66.790738 192.622345 
L 67.65649 195.524969 
L 68.305799 197.082316 
L 69.171541 198.559729 
L 70.037293 199.414125 
L 70.686602 199.679639 
L 71.552344 199.729253 
L 72.418086 199.421294 
L 73.500271 198.62193 
L 74.366014 197.738174 
L 75.231766 196.647092 
L 76.530384 194.575182 
L 78.045435 191.543397 
L 81.724857 182.526794 
L 84.754959 175.120468 
L 88.217948 167.164008 
L 90.815184 161.795053 
L 91.897359 159.972526 
L 92.979544 158.546489 
L 93.845286 157.735522 
L 94.711038 157.1942 
L 95.576781 156.96098 
L 96.22609 156.954882 
L 97.091832 157.152437 
L 97.741141 157.43769 
L 98.823326 158.212779 
L 99.905511 159.391059 
L 100.771253 160.627686 
L 101.853438 162.592713 
L 102.935614 165.135274 
L 104.234232 168.923185 
L 105.316417 172.713111 
L 107.047911 179.721115 
L 110.078014 193.785683 
L 114.190311 214.002817 
L 117.436857 231.425577 
L 119.81765 244.190435 
L 121.549134 252.491494 
L 123.064195 258.531087 
L 124.362814 262.708092 
L 125.445009 265.467417 
L 126.743627 268.075918 
L 127.825802 269.695934 
L 128.907977 271.02286 
L 129.773729 271.826099 
L 130.639481 272.500571 
L 131.721657 273.168347 
L 133.669584 274.000967 
L 136.26682 274.674742 
L 141.028427 275.286445 
L 154.880341 275.98781 
L 194.921081 276.631984 
L 195.57039 276.605062 
L 196.003257 276.606364 
L 198.167627 276.650107 
L 199.033359 276.645696 
L 202.063481 276.666301 
L 220.893445 276.76608 
L 221.109868 276.829177 
L 221.542754 276.805343 
L 221.759177 276.92152 
L 221.97562 276.747214 
L 222.192063 276.89434 
L 222.408486 276.833892 
L 222.624929 276.916408 
L 222.841372 276.772935 
L 223.707105 276.776545 
L 223.923548 277.033853 
L 224.13999 276.864293 
L 224.572857 276.886995 
L 224.7893 276.825955 
L 225.005723 276.954922 
L 225.222166 276.852847 
L 225.438609 277.002786 
L 225.871475 276.696802 
L 226.087918 276.904165 
L 226.737227 276.961518 
L 226.95365 276.756941 
L 227.386536 276.906887 
L 228.252268 277.07128 
L 228.468711 276.885385 
L 228.685154 276.965295 
L 228.901577 276.808794 
L 229.11802 276.824641 
L 229.334463 277.003552 
L 229.550886 276.736199 
L 230.200195 276.790744 
L 230.416638 276.720755 
L 230.633081 276.874597 
L 230.849505 276.631084 
L 231.065948 277.021506 
L 231.28239 276.648805 
L 231.498814 277.0003 
L 231.715257 276.82339 
L 232.148123 276.943955 
L 232.364566 276.282456 
L 232.581009 277.159059 
L 232.797432 277.167738 
L 233.230318 276.66887 
L 233.446741 277.008239 
L 233.879627 277.037966 
L 234.09605 276.949874 
L 234.312493 276.561053 
L 234.528936 276.969051 
L 234.745359 276.086805 
L 234.961802 276.614295 
L 235.394668 276.568322 
L 235.827534 277.210842 
L 238.208328 277.205046 
L 263.098516 277.317676 
L 267.427237 277.309552 
L 273.703905 277.317813 
L 283.876427 277.362554 
L 286.473663 277.357021 
L 291.668136 277.355672 
L 294.914681 277.380321 
L 297.079032 277.375876 
L 306.385782 277.506899 
L 310.065214 278.069336 
L 312.013141 278.690418 
L 312.66245 278.802806 
L 313.311759 278.690458 
L 314.8268 278.025553 
L 315.692572 277.693012 
L 318.506232 277.168221 
L 321.103468 276.945129 
L 327.163673 276.217044 
L 330.193795 276.438506 
L 332.358146 276.747429 
L 333.440341 276.813966 
L 341.015627 277.110281 
L 351.620995 277.108509 
L 362.875673 277.116337 
L 368.070146 277.178857 
L 378.891977 277.09499 
L 382.354946 276.770804 
L 383.220718 276.675101 
L 394.475395 275.882694 
L 395.774014 275.730254 
L 397.938364 275.56817 
L 398.37125 275.492512 
L 398.37125 275.492512 
" clip-path="url(#p86fb3aa354)" style="fill: none; stroke: #601f52; stroke-linecap: round"/>
   </g>
   <g id="line2d_26"/>
   <g id="line2d_27"/>
   <g id="line2d_28"/>
   <g id="patch_3">
    <path d="M 41.25125 277.248797 
L 41.25125 11.136797 
" style="fill: none; stroke: #262626; stroke-width: 1.25; stroke-linejoin: miter; stroke-linecap: square"/>
   </g>
   <g id="patch_4">
    <path d="M 41.25125 277.248797 
L 398.37125 277.248797 
" style="fill: none; stroke: #262626; stroke-width: 1.25; stroke-linejoin: miter; stroke-linecap: square"/>
   </g>
   <g id="legend_1">
    <g id="line2d_29">
     <path d="M 256.688938 45.415809 
L 262.688938 45.415809 
L 268.688938 45.415809 
" style="fill: none; stroke: #f4865e; stroke-width: 1.5; stroke-linecap: round"/>
    </g>
    <g id="text_15">
     <!-- 0.0% TFA_Abs -->
     <g style="fill: #262626" transform="translate(273.488938 47.515809) scale(0.06 -0.06)">
      <defs>
       <path id="ArialMT-25" d="M 372 3481 
Q 372 3972 619 4315 
Q 866 4659 1334 4659 
Q 1766 4659 2048 4351 
Q 2331 4044 2331 3447 
Q 2331 2866 2045 2552 
Q 1759 2238 1341 2238 
Q 925 2238 648 2547 
Q 372 2856 372 3481 
z
M 1350 4272 
Q 1141 4272 1002 4090 
Q 863 3909 863 3425 
Q 863 2984 1003 2804 
Q 1144 2625 1350 2625 
Q 1563 2625 1702 2806 
Q 1841 2988 1841 3469 
Q 1841 3913 1700 4092 
Q 1559 4272 1350 4272 
z
M 1353 -169 
L 3859 4659 
L 4316 4659 
L 1819 -169 
L 1353 -169 
z
M 3334 1075 
Q 3334 1569 3581 1911 
Q 3828 2253 4300 2253 
Q 4731 2253 5014 1945 
Q 5297 1638 5297 1041 
Q 5297 459 5011 145 
Q 4725 -169 4303 -169 
Q 3888 -169 3611 142 
Q 3334 453 3334 1075 
z
M 4316 1866 
Q 4103 1866 3964 1684 
Q 3825 1503 3825 1019 
Q 3825 581 3965 400 
Q 4106 219 4313 219 
Q 4528 219 4667 400 
Q 4806 581 4806 1063 
Q 4806 1506 4665 1686 
Q 4525 1866 4316 1866 
z
" transform="scale(0.015625)"/>
       <path id="ArialMT-54" d="M 1659 0 
L 1659 4041 
L 150 4041 
L 150 4581 
L 3781 4581 
L 3781 4041 
L 2266 4041 
L 2266 0 
L 1659 0 
z
" transform="scale(0.015625)"/>
       <path id="ArialMT-46" d="M 525 0 
L 525 4581 
L 3616 4581 
L 3616 4041 
L 1131 4041 
L 1131 2622 
L 3281 2622 
L 3281 2081 
L 1131 2081 
L 1131 0 
L 525 0 
z
" transform="scale(0.015625)"/>
       <path id="ArialMT-5f" d="M -97 -1272 
L -97 -866 
L 3631 -866 
L 3631 -1272 
L -97 -1272 
z
" transform="scale(0.015625)"/>
      </defs>
      <use xlink:href="#ArialMT-30"/>
      <use xlink:href="#ArialMT-2e" x="55.615234"/>
      <use xlink:href="#ArialMT-30" x="83.398438"/>
      <use xlink:href="#ArialMT-25" x="139.013672"/>
      <use xlink:href="#ArialMT-20" x="227.929688"/>
      <use xlink:href="#ArialMT-54" x="253.962891"/>
      <use xlink:href="#ArialMT-46" x="315.046875"/>
      <use xlink:href="#ArialMT-41" x="370.630859"/>
      <use xlink:href="#ArialMT-5f" x="437.330078"/>
      <use xlink:href="#ArialMT-41" x="492.945312"/>
      <use xlink:href="#ArialMT-62" x="559.644531"/>
      <use xlink:href="#ArialMT-73" x="615.259766"/>
     </g>
    </g>
    <g id="line2d_30">
     <path d="M 256.688938 53.976122 
L 262.688938 53.976122 
L 268.688938 53.976122 
" style="fill: none; stroke: #ca1a50; stroke-width: 1.5; stroke-linecap: round"/>
    </g>
    <g id="text_16">
     <!-- 0.25% TFA_Abs -->
     <g style="fill: #262626" transform="translate(273.488938 56.076122) scale(0.06 -0.06)">
      <defs>
       <path id="ArialMT-35" d="M 266 1200 
L 856 1250 
Q 922 819 1161 601 
Q 1400 384 1738 384 
Q 2144 384 2425 690 
Q 2706 997 2706 1503 
Q 2706 1984 2436 2262 
Q 2166 2541 1728 2541 
Q 1456 2541 1237 2417 
Q 1019 2294 894 2097 
L 366 2166 
L 809 4519 
L 3088 4519 
L 3088 3981 
L 1259 3981 
L 1013 2750 
Q 1425 3038 1878 3038 
Q 2478 3038 2890 2622 
Q 3303 2206 3303 1553 
Q 3303 931 2941 478 
Q 2500 -78 1738 -78 
Q 1113 -78 717 272 
Q 322 622 266 1200 
z
" transform="scale(0.015625)"/>
      </defs>
      <use xlink:href="#ArialMT-30"/>
      <use xlink:href="#ArialMT-2e" x="55.615234"/>
      <use xlink:href="#ArialMT-32" x="83.398438"/>
      <use xlink:href="#ArialMT-35" x="139.013672"/>
      <use xlink:href="#ArialMT-25" x="194.628906"/>
      <use xlink:href="#ArialMT-20" x="283.544922"/>
      <use xlink:href="#ArialMT-54" x="309.578125"/>
      <use xlink:href="#ArialMT-46" x="370.662109"/>
      <use xlink:href="#ArialMT-41" x="426.246094"/>
      <use xlink:href="#ArialMT-5f" x="492.945312"/>
      <use xlink:href="#ArialMT-41" x="548.560547"/>
      <use xlink:href="#ArialMT-62" x="615.259766"/>
      <use xlink:href="#ArialMT-73" x="670.875"/>
     </g>
    </g>
    <g id="line2d_31">
     <path d="M 256.688938 62.536434 
L 262.688938 62.536434 
L 268.688938 62.536434 
" style="fill: none; stroke: #601f52; stroke-width: 1.5; stroke-linecap: round"/>
    </g>
    <g id="text_17">
     <!-- 0.25% TFA + triethylamine_Abs -->
     <g style="fill: #262626" transform="translate(273.488938 64.636434) scale(0.06 -0.06)">
      <defs>
       <path id="ArialMT-2b" d="M 1603 741 
L 1603 1997 
L 356 1997 
L 356 2522 
L 1603 2522 
L 1603 3769 
L 2134 3769 
L 2134 2522 
L 3381 2522 
L 3381 1997 
L 2134 1997 
L 2134 741 
L 1603 741 
z
" transform="scale(0.015625)"/>
       <path id="ArialMT-69" d="M 425 3934 
L 425 4581 
L 988 4581 
L 988 3934 
L 425 3934 
z
M 425 0 
L 425 3319 
L 988 3319 
L 988 0 
L 425 0 
z
" transform="scale(0.015625)"/>
       <path id="ArialMT-79" d="M 397 -1278 
L 334 -750 
Q 519 -800 656 -800 
Q 844 -800 956 -737 
Q 1069 -675 1141 -563 
Q 1194 -478 1313 -144 
Q 1328 -97 1363 -6 
L 103 3319 
L 709 3319 
L 1400 1397 
Q 1534 1031 1641 628 
Q 1738 1016 1872 1384 
L 2581 3319 
L 3144 3319 
L 1881 -56 
Q 1678 -603 1566 -809 
Q 1416 -1088 1222 -1217 
Q 1028 -1347 759 -1347 
Q 597 -1347 397 -1278 
z
" transform="scale(0.015625)"/>
      </defs>
      <use xlink:href="#ArialMT-30"/>
      <use xlink:href="#ArialMT-2e" x="55.615234"/>
      <use xlink:href="#ArialMT-32" x="83.398438"/>
      <use xlink:href="#ArialMT-35" x="139.013672"/>
      <use xlink:href="#ArialMT-25" x="194.628906"/>
      <use xlink:href="#ArialMT-20" x="283.544922"/>
      <use xlink:href="#ArialMT-54" x="309.578125"/>
      <use xlink:href="#ArialMT-46" x="370.662109"/>
      <use xlink:href="#ArialMT-41" x="426.246094"/>
      <use xlink:href="#ArialMT-20" x="487.445312"/>
      <use xlink:href="#ArialMT-2b" x="515.228516"/>
      <use xlink:href="#ArialMT-20" x="573.626953"/>
      <use xlink:href="#ArialMT-74" x="601.410156"/>
      <use xlink:href="#ArialMT-72" x="629.193359"/>
      <use xlink:href="#ArialMT-69" x="662.494141"/>
      <use xlink:href="#ArialMT-65" x="684.710938"/>
      <use xlink:href="#ArialMT-74" x="740.326172"/>
      <use xlink:href="#ArialMT-68" x="768.109375"/>
      <use xlink:href="#ArialMT-79" x="823.724609"/>
      <use xlink:href="#ArialMT-6c" x="873.724609"/>
      <use xlink:href="#ArialMT-61" x="895.941406"/>
      <use xlink:href="#ArialMT-6d" x="951.556641"/>
      <use xlink:href="#ArialMT-69" x="1034.857422"/>
      <use xlink:href="#ArialMT-6e" x="1057.074219"/>
      <use xlink:href="#ArialMT-65" x="1112.689453"/>
      <use xlink:href="#ArialMT-5f" x="1168.304688"/>
      <use xlink:href="#ArialMT-41" x="1223.919922"/>
      <use xlink:href="#ArialMT-62" x="1290.619141"/>
      <use xlink:href="#ArialMT-73" x="1346.234375"/>
     </g>
    </g>
   </g>
  </g>
 </g>
 <defs>
  <clipPath id="p86fb3aa354">
   <rect x="41.25125" y="11.136797" width="357.12" height="266.112"/>
  </clipPath>
 </defs>
</svg>
