<?xml version="1.0" encoding="utf-8" standalone="no"?>
<!DOCTYPE svg PUBLIC "-//W3C//DTD SVG 1.1//EN"
  "http://www.w3.org/Graphics/SVG/1.1/DTD/svg11.dtd">
<svg xmlns:xlink="http://www.w3.org/1999/xlink" width="417.805313pt" height="313.269891pt" viewBox="0 0 417.805313 313.269891" xmlns="http://www.w3.org/2000/svg" version="1.1">
 <metadata>
  <rdf:RDF xmlns:dc="http://purl.org/dc/elements/1.1/" xmlns:cc="http://creativecommons.org/ns#" xmlns:rdf="http://www.w3.org/1999/02/22-rdf-syntax-ns#">
   <cc:Work>
    <dc:type rdf:resource="http://purl.org/dc/dcmitype/StillImage"/>
    <dc:date>2024-11-04T14:35:02.382053</dc:date>
    <dc:format>image/svg+xml</dc:format>
    <dc:creator>
     <cc:Agent>
      <dc:title>Matplotlib v3.7.1, https://matplotlib.org/</dc:title>
     </cc:Agent>
    </dc:creator>
   </cc:Work>
  </rdf:RDF>
 </metadata>
 <defs>
  <style type="text/css">*{stroke-linejoin: round; stroke-linecap: butt}</style>
 </defs>
 <g id="figure_1">
  <g id="patch_1">
   <path d="M 0 313.269891 
L 417.805313 313.269891 
L 417.805313 0 
L 0 0 
z
" style="fill: #ffffff"/>
  </g>
  <g id="axes_1">
   <g id="patch_2">
    <path d="M 41.25125 277.248797 
L 398.37125 277.248797 
L 398.37125 11.136797 
L 41.25125 11.136797 
z
" style="fill: #ffffff"/>
   </g>
   <g id="matplotlib.axis_1">
    <g id="xtick_1">
     <g id="line2d_1">
      <defs>
       <path id="mc2cfb07451" d="M 0 0 
L 0 -6 
" style="stroke: #262626; stroke-width: 1.25"/>
      </defs>
      <g>
       <use xlink:href="#mc2cfb07451" x="73.716705" y="277.248797" style="fill: #262626; stroke: #262626; stroke-width: 1.25"/>
      </g>
     </g>
     <g id="text_1">
      <!-- 400 -->
      <g style="fill: #262626" transform="translate(64.541158 288.622391) scale(0.11 -0.11)">
       <defs>
        <path id="ArialMT-34" d="M 2069 0 
L 2069 1097 
L 81 1097 
L 81 1613 
L 2172 4581 
L 2631 4581 
L 2631 1613 
L 3250 1613 
L 3250 1097 
L 2631 1097 
L 2631 0 
L 2069 0 
z
M 2069 1613 
L 2069 3678 
L 634 1613 
L 2069 1613 
z
" transform="scale(0.015625)"/>
        <path id="ArialMT-30" d="M 266 2259 
Q 266 3072 433 3567 
Q 600 4063 929 4331 
Q 1259 4600 1759 4600 
Q 2128 4600 2406 4451 
Q 2684 4303 2865 4023 
Q 3047 3744 3150 3342 
Q 3253 2941 3253 2259 
Q 3253 1453 3087 958 
Q 2922 463 2592 192 
Q 2263 -78 1759 -78 
Q 1097 -78 719 397 
Q 266 969 266 2259 
z
M 844 2259 
Q 844 1131 1108 757 
Q 1372 384 1759 384 
Q 2147 384 2411 759 
Q 2675 1134 2675 2259 
Q 2675 3391 2411 3762 
Q 2147 4134 1753 4134 
Q 1366 4134 1134 3806 
Q 844 3388 844 2259 
z
" transform="scale(0.015625)"/>
       </defs>
       <use xlink:href="#ArialMT-34"/>
       <use xlink:href="#ArialMT-30" x="55.615234"/>
       <use xlink:href="#ArialMT-30" x="111.230469"/>
      </g>
     </g>
    </g>
    <g id="xtick_2">
     <g id="line2d_2">
      <g>
       <use xlink:href="#mc2cfb07451" x="138.647614" y="277.248797" style="fill: #262626; stroke: #262626; stroke-width: 1.25"/>
      </g>
     </g>
     <g id="text_2">
      <!-- 600 -->
      <g style="fill: #262626" transform="translate(129.472067 288.622391) scale(0.11 -0.11)">
       <defs>
        <path id="ArialMT-36" d="M 3184 3459 
L 2625 3416 
Q 2550 3747 2413 3897 
Q 2184 4138 1850 4138 
Q 1581 4138 1378 3988 
Q 1113 3794 959 3422 
Q 806 3050 800 2363 
Q 1003 2672 1297 2822 
Q 1591 2972 1913 2972 
Q 2475 2972 2870 2558 
Q 3266 2144 3266 1488 
Q 3266 1056 3080 686 
Q 2894 316 2569 119 
Q 2244 -78 1831 -78 
Q 1128 -78 684 439 
Q 241 956 241 2144 
Q 241 3472 731 4075 
Q 1159 4600 1884 4600 
Q 2425 4600 2770 4297 
Q 3116 3994 3184 3459 
z
M 888 1484 
Q 888 1194 1011 928 
Q 1134 663 1356 523 
Q 1578 384 1822 384 
Q 2178 384 2434 671 
Q 2691 959 2691 1453 
Q 2691 1928 2437 2201 
Q 2184 2475 1800 2475 
Q 1419 2475 1153 2201 
Q 888 1928 888 1484 
z
" transform="scale(0.015625)"/>
       </defs>
       <use xlink:href="#ArialMT-36"/>
       <use xlink:href="#ArialMT-30" x="55.615234"/>
       <use xlink:href="#ArialMT-30" x="111.230469"/>
      </g>
     </g>
    </g>
    <g id="xtick_3">
     <g id="line2d_3">
      <g>
       <use xlink:href="#mc2cfb07451" x="203.578523" y="277.248797" style="fill: #262626; stroke: #262626; stroke-width: 1.25"/>
      </g>
     </g>
     <g id="text_3">
      <!-- 800 -->
      <g style="fill: #262626" transform="translate(194.402976 288.622391) scale(0.11 -0.11)">
       <defs>
        <path id="ArialMT-38" d="M 1131 2484 
Q 781 2613 612 2850 
Q 444 3088 444 3419 
Q 444 3919 803 4259 
Q 1163 4600 1759 4600 
Q 2359 4600 2725 4251 
Q 3091 3903 3091 3403 
Q 3091 3084 2923 2848 
Q 2756 2613 2416 2484 
Q 2838 2347 3058 2040 
Q 3278 1734 3278 1309 
Q 3278 722 2862 322 
Q 2447 -78 1769 -78 
Q 1091 -78 675 323 
Q 259 725 259 1325 
Q 259 1772 486 2073 
Q 713 2375 1131 2484 
z
M 1019 3438 
Q 1019 3113 1228 2906 
Q 1438 2700 1772 2700 
Q 2097 2700 2305 2904 
Q 2513 3109 2513 3406 
Q 2513 3716 2298 3927 
Q 2084 4138 1766 4138 
Q 1444 4138 1231 3931 
Q 1019 3725 1019 3438 
z
M 838 1322 
Q 838 1081 952 856 
Q 1066 631 1291 507 
Q 1516 384 1775 384 
Q 2178 384 2440 643 
Q 2703 903 2703 1303 
Q 2703 1709 2433 1975 
Q 2163 2241 1756 2241 
Q 1359 2241 1098 1978 
Q 838 1716 838 1322 
z
" transform="scale(0.015625)"/>
       </defs>
       <use xlink:href="#ArialMT-38"/>
       <use xlink:href="#ArialMT-30" x="55.615234"/>
       <use xlink:href="#ArialMT-30" x="111.230469"/>
      </g>
     </g>
    </g>
    <g id="xtick_4">
     <g id="line2d_4">
      <g>
       <use xlink:href="#mc2cfb07451" x="268.509432" y="277.248797" style="fill: #262626; stroke: #262626; stroke-width: 1.25"/>
      </g>
     </g>
     <g id="text_4">
      <!-- 1000 -->
      <g style="fill: #262626" transform="translate(256.275369 288.622391) scale(0.11 -0.11)">
       <defs>
        <path id="ArialMT-31" d="M 2384 0 
L 1822 0 
L 1822 3584 
Q 1619 3391 1289 3197 
Q 959 3003 697 2906 
L 697 3450 
Q 1169 3672 1522 3987 
Q 1875 4303 2022 4600 
L 2384 4600 
L 2384 0 
z
" transform="scale(0.015625)"/>
       </defs>
       <use xlink:href="#ArialMT-31"/>
       <use xlink:href="#ArialMT-30" x="55.615234"/>
       <use xlink:href="#ArialMT-30" x="111.230469"/>
       <use xlink:href="#ArialMT-30" x="166.845703"/>
      </g>
     </g>
    </g>
    <g id="xtick_5">
     <g id="line2d_5">
      <g>
       <use xlink:href="#mc2cfb07451" x="333.440341" y="277.248797" style="fill: #262626; stroke: #262626; stroke-width: 1.25"/>
      </g>
     </g>
     <g id="text_5">
      <!-- 1200 -->
      <g style="fill: #262626" transform="translate(321.206278 288.622391) scale(0.11 -0.11)">
       <defs>
        <path id="ArialMT-32" d="M 3222 541 
L 3222 0 
L 194 0 
Q 188 203 259 391 
Q 375 700 629 1000 
Q 884 1300 1366 1694 
Q 2113 2306 2375 2664 
Q 2638 3022 2638 3341 
Q 2638 3675 2398 3904 
Q 2159 4134 1775 4134 
Q 1369 4134 1125 3890 
Q 881 3647 878 3216 
L 300 3275 
Q 359 3922 746 4261 
Q 1134 4600 1788 4600 
Q 2447 4600 2831 4234 
Q 3216 3869 3216 3328 
Q 3216 3053 3103 2787 
Q 2991 2522 2730 2228 
Q 2469 1934 1863 1422 
Q 1356 997 1212 845 
Q 1069 694 975 541 
L 3222 541 
z
" transform="scale(0.015625)"/>
       </defs>
       <use xlink:href="#ArialMT-31"/>
       <use xlink:href="#ArialMT-32" x="55.615234"/>
       <use xlink:href="#ArialMT-30" x="111.230469"/>
       <use xlink:href="#ArialMT-30" x="166.845703"/>
      </g>
     </g>
    </g>
    <g id="xtick_6">
     <g id="line2d_6">
      <g>
       <use xlink:href="#mc2cfb07451" x="398.37125" y="277.248797" style="fill: #262626; stroke: #262626; stroke-width: 1.25"/>
      </g>
     </g>
     <g id="text_6">
      <!-- 1400 -->
      <g style="fill: #262626" transform="translate(386.137188 288.622391) scale(0.11 -0.11)">
       <use xlink:href="#ArialMT-31"/>
       <use xlink:href="#ArialMT-34" x="55.615234"/>
       <use xlink:href="#ArialMT-30" x="111.230469"/>
       <use xlink:href="#ArialMT-30" x="166.845703"/>
      </g>
     </g>
    </g>
    <g id="xtick_7">
     <g id="line2d_7">
      <defs>
       <path id="m98972c637b" d="M 0 0 
L 0 -4 
" style="stroke: #262626"/>
      </defs>
      <g>
       <use xlink:href="#m98972c637b" x="106.182159" y="277.248797" style="fill: #262626; stroke: #262626"/>
      </g>
     </g>
    </g>
    <g id="xtick_8">
     <g id="line2d_8">
      <g>
       <use xlink:href="#m98972c637b" x="171.113068" y="277.248797" style="fill: #262626; stroke: #262626"/>
      </g>
     </g>
    </g>
    <g id="xtick_9">
     <g id="line2d_9">
      <g>
       <use xlink:href="#m98972c637b" x="236.043977" y="277.248797" style="fill: #262626; stroke: #262626"/>
      </g>
     </g>
    </g>
    <g id="xtick_10">
     <g id="line2d_10">
      <g>
       <use xlink:href="#m98972c637b" x="300.974886" y="277.248797" style="fill: #262626; stroke: #262626"/>
      </g>
     </g>
    </g>
    <g id="xtick_11">
     <g id="line2d_11">
      <g>
       <use xlink:href="#m98972c637b" x="365.905795" y="277.248797" style="fill: #262626; stroke: #262626"/>
      </g>
     </g>
    </g>
    <g id="text_7">
     <!-- Wavelength (nm) -->
     <g style="fill: #262626" transform="translate(174.356562 303.544266) scale(0.12 -0.12)">
      <defs>
       <path id="ArialMT-57" d="M 1294 0 
L 78 4581 
L 700 4581 
L 1397 1578 
Q 1509 1106 1591 641 
Q 1766 1375 1797 1488 
L 2669 4581 
L 3400 4581 
L 4056 2263 
Q 4303 1400 4413 641 
Q 4500 1075 4641 1638 
L 5359 4581 
L 5969 4581 
L 4713 0 
L 4128 0 
L 3163 3491 
Q 3041 3928 3019 4028 
Q 2947 3713 2884 3491 
L 1913 0 
L 1294 0 
z
" transform="scale(0.015625)"/>
       <path id="ArialMT-61" d="M 2588 409 
Q 2275 144 1986 34 
Q 1697 -75 1366 -75 
Q 819 -75 525 192 
Q 231 459 231 875 
Q 231 1119 342 1320 
Q 453 1522 633 1644 
Q 813 1766 1038 1828 
Q 1203 1872 1538 1913 
Q 2219 1994 2541 2106 
Q 2544 2222 2544 2253 
Q 2544 2597 2384 2738 
Q 2169 2928 1744 2928 
Q 1347 2928 1158 2789 
Q 969 2650 878 2297 
L 328 2372 
Q 403 2725 575 2942 
Q 747 3159 1072 3276 
Q 1397 3394 1825 3394 
Q 2250 3394 2515 3294 
Q 2781 3194 2906 3042 
Q 3031 2891 3081 2659 
Q 3109 2516 3109 2141 
L 3109 1391 
Q 3109 606 3145 398 
Q 3181 191 3288 0 
L 2700 0 
Q 2613 175 2588 409 
z
M 2541 1666 
Q 2234 1541 1622 1453 
Q 1275 1403 1131 1340 
Q 988 1278 909 1158 
Q 831 1038 831 891 
Q 831 666 1001 516 
Q 1172 366 1500 366 
Q 1825 366 2078 508 
Q 2331 650 2450 897 
Q 2541 1088 2541 1459 
L 2541 1666 
z
" transform="scale(0.015625)"/>
       <path id="ArialMT-76" d="M 1344 0 
L 81 3319 
L 675 3319 
L 1388 1331 
Q 1503 1009 1600 663 
Q 1675 925 1809 1294 
L 2547 3319 
L 3125 3319 
L 1869 0 
L 1344 0 
z
" transform="scale(0.015625)"/>
       <path id="ArialMT-65" d="M 2694 1069 
L 3275 997 
Q 3138 488 2766 206 
Q 2394 -75 1816 -75 
Q 1088 -75 661 373 
Q 234 822 234 1631 
Q 234 2469 665 2931 
Q 1097 3394 1784 3394 
Q 2450 3394 2872 2941 
Q 3294 2488 3294 1666 
Q 3294 1616 3291 1516 
L 816 1516 
Q 847 969 1125 678 
Q 1403 388 1819 388 
Q 2128 388 2347 550 
Q 2566 713 2694 1069 
z
M 847 1978 
L 2700 1978 
Q 2663 2397 2488 2606 
Q 2219 2931 1791 2931 
Q 1403 2931 1139 2672 
Q 875 2413 847 1978 
z
" transform="scale(0.015625)"/>
       <path id="ArialMT-6c" d="M 409 0 
L 409 4581 
L 972 4581 
L 972 0 
L 409 0 
z
" transform="scale(0.015625)"/>
       <path id="ArialMT-6e" d="M 422 0 
L 422 3319 
L 928 3319 
L 928 2847 
Q 1294 3394 1984 3394 
Q 2284 3394 2536 3286 
Q 2788 3178 2913 3003 
Q 3038 2828 3088 2588 
Q 3119 2431 3119 2041 
L 3119 0 
L 2556 0 
L 2556 2019 
Q 2556 2363 2490 2533 
Q 2425 2703 2258 2804 
Q 2091 2906 1866 2906 
Q 1506 2906 1245 2678 
Q 984 2450 984 1813 
L 984 0 
L 422 0 
z
" transform="scale(0.015625)"/>
       <path id="ArialMT-67" d="M 319 -275 
L 866 -356 
Q 900 -609 1056 -725 
Q 1266 -881 1628 -881 
Q 2019 -881 2231 -725 
Q 2444 -569 2519 -288 
Q 2563 -116 2559 434 
Q 2191 0 1641 0 
Q 956 0 581 494 
Q 206 988 206 1678 
Q 206 2153 378 2554 
Q 550 2956 876 3175 
Q 1203 3394 1644 3394 
Q 2231 3394 2613 2919 
L 2613 3319 
L 3131 3319 
L 3131 450 
Q 3131 -325 2973 -648 
Q 2816 -972 2473 -1159 
Q 2131 -1347 1631 -1347 
Q 1038 -1347 672 -1080 
Q 306 -813 319 -275 
z
M 784 1719 
Q 784 1066 1043 766 
Q 1303 466 1694 466 
Q 2081 466 2343 764 
Q 2606 1063 2606 1700 
Q 2606 2309 2336 2618 
Q 2066 2928 1684 2928 
Q 1309 2928 1046 2623 
Q 784 2319 784 1719 
z
" transform="scale(0.015625)"/>
       <path id="ArialMT-74" d="M 1650 503 
L 1731 6 
Q 1494 -44 1306 -44 
Q 1000 -44 831 53 
Q 663 150 594 308 
Q 525 466 525 972 
L 525 2881 
L 113 2881 
L 113 3319 
L 525 3319 
L 525 4141 
L 1084 4478 
L 1084 3319 
L 1650 3319 
L 1650 2881 
L 1084 2881 
L 1084 941 
Q 1084 700 1114 631 
Q 1144 563 1211 522 
Q 1278 481 1403 481 
Q 1497 481 1650 503 
z
" transform="scale(0.015625)"/>
       <path id="ArialMT-68" d="M 422 0 
L 422 4581 
L 984 4581 
L 984 2938 
Q 1378 3394 1978 3394 
Q 2347 3394 2619 3248 
Q 2891 3103 3008 2847 
Q 3125 2591 3125 2103 
L 3125 0 
L 2563 0 
L 2563 2103 
Q 2563 2525 2380 2717 
Q 2197 2909 1863 2909 
Q 1613 2909 1392 2779 
Q 1172 2650 1078 2428 
Q 984 2206 984 1816 
L 984 0 
L 422 0 
z
" transform="scale(0.015625)"/>
       <path id="ArialMT-20" transform="scale(0.015625)"/>
       <path id="ArialMT-28" d="M 1497 -1347 
Q 1031 -759 709 28 
Q 388 816 388 1659 
Q 388 2403 628 3084 
Q 909 3875 1497 4659 
L 1900 4659 
Q 1522 4009 1400 3731 
Q 1209 3300 1100 2831 
Q 966 2247 966 1656 
Q 966 153 1900 -1347 
L 1497 -1347 
z
" transform="scale(0.015625)"/>
       <path id="ArialMT-6d" d="M 422 0 
L 422 3319 
L 925 3319 
L 925 2853 
Q 1081 3097 1340 3245 
Q 1600 3394 1931 3394 
Q 2300 3394 2536 3241 
Q 2772 3088 2869 2813 
Q 3263 3394 3894 3394 
Q 4388 3394 4653 3120 
Q 4919 2847 4919 2278 
L 4919 0 
L 4359 0 
L 4359 2091 
Q 4359 2428 4304 2576 
Q 4250 2725 4106 2815 
Q 3963 2906 3769 2906 
Q 3419 2906 3187 2673 
Q 2956 2441 2956 1928 
L 2956 0 
L 2394 0 
L 2394 2156 
Q 2394 2531 2256 2718 
Q 2119 2906 1806 2906 
Q 1569 2906 1367 2781 
Q 1166 2656 1075 2415 
Q 984 2175 984 1722 
L 984 0 
L 422 0 
z
" transform="scale(0.015625)"/>
       <path id="ArialMT-29" d="M 791 -1347 
L 388 -1347 
Q 1322 153 1322 1656 
Q 1322 2244 1188 2822 
Q 1081 3291 891 3722 
Q 769 4003 388 4659 
L 791 4659 
Q 1378 3875 1659 3084 
Q 1900 2403 1900 1659 
Q 1900 816 1576 28 
Q 1253 -759 791 -1347 
z
" transform="scale(0.015625)"/>
      </defs>
      <use xlink:href="#ArialMT-57"/>
      <use xlink:href="#ArialMT-61" x="90.634766"/>
      <use xlink:href="#ArialMT-76" x="146.25"/>
      <use xlink:href="#ArialMT-65" x="196.25"/>
      <use xlink:href="#ArialMT-6c" x="251.865234"/>
      <use xlink:href="#ArialMT-65" x="274.082031"/>
      <use xlink:href="#ArialMT-6e" x="329.697266"/>
      <use xlink:href="#ArialMT-67" x="385.3125"/>
      <use xlink:href="#ArialMT-74" x="440.927734"/>
      <use xlink:href="#ArialMT-68" x="468.710938"/>
      <use xlink:href="#ArialMT-20" x="524.326172"/>
      <use xlink:href="#ArialMT-28" x="552.109375"/>
      <use xlink:href="#ArialMT-6e" x="585.410156"/>
      <use xlink:href="#ArialMT-6d" x="641.025391"/>
      <use xlink:href="#ArialMT-29" x="724.326172"/>
     </g>
    </g>
   </g>
   <g id="matplotlib.axis_2">
    <g id="ytick_1">
     <g id="line2d_12">
      <defs>
       <path id="m2cdbaf80d3" d="M 0 0 
L 6 0 
" style="stroke: #262626; stroke-width: 1.25"/>
      </defs>
      <g>
       <use xlink:href="#m2cdbaf80d3" x="41.25125" y="277.248797" style="fill: #262626; stroke: #262626; stroke-width: 1.25"/>
      </g>
     </g>
     <g id="text_8">
      <!-- 0.0 -->
      <g style="fill: #262626" transform="translate(22.46125 281.185594) scale(0.11 -0.11)">
       <defs>
        <path id="ArialMT-2e" d="M 581 0 
L 581 641 
L 1222 641 
L 1222 0 
L 581 0 
z
" transform="scale(0.015625)"/>
       </defs>
       <use xlink:href="#ArialMT-30"/>
       <use xlink:href="#ArialMT-2e" x="55.615234"/>
       <use xlink:href="#ArialMT-30" x="83.398438"/>
      </g>
     </g>
    </g>
    <g id="ytick_2">
     <g id="line2d_13">
      <g>
       <use xlink:href="#m2cdbaf80d3" x="41.25125" y="224.026397" style="fill: #262626; stroke: #262626; stroke-width: 1.25"/>
      </g>
     </g>
     <g id="text_9">
      <!-- 0.2 -->
      <g style="fill: #262626" transform="translate(22.46125 227.963194) scale(0.11 -0.11)">
       <use xlink:href="#ArialMT-30"/>
       <use xlink:href="#ArialMT-2e" x="55.615234"/>
       <use xlink:href="#ArialMT-32" x="83.398438"/>
      </g>
     </g>
    </g>
    <g id="ytick_3">
     <g id="line2d_14">
      <g>
       <use xlink:href="#m2cdbaf80d3" x="41.25125" y="170.803997" style="fill: #262626; stroke: #262626; stroke-width: 1.25"/>
      </g>
     </g>
     <g id="text_10">
      <!-- 0.4 -->
      <g style="fill: #262626" transform="translate(22.46125 174.740794) scale(0.11 -0.11)">
       <use xlink:href="#ArialMT-30"/>
       <use xlink:href="#ArialMT-2e" x="55.615234"/>
       <use xlink:href="#ArialMT-34" x="83.398438"/>
      </g>
     </g>
    </g>
    <g id="ytick_4">
     <g id="line2d_15">
      <g>
       <use xlink:href="#m2cdbaf80d3" x="41.25125" y="117.581597" style="fill: #262626; stroke: #262626; stroke-width: 1.25"/>
      </g>
     </g>
     <g id="text_11">
      <!-- 0.6 -->
      <g style="fill: #262626" transform="translate(22.46125 121.518394) scale(0.11 -0.11)">
       <use xlink:href="#ArialMT-30"/>
       <use xlink:href="#ArialMT-2e" x="55.615234"/>
       <use xlink:href="#ArialMT-36" x="83.398438"/>
      </g>
     </g>
    </g>
    <g id="ytick_5">
     <g id="line2d_16">
      <g>
       <use xlink:href="#m2cdbaf80d3" x="41.25125" y="64.359197" style="fill: #262626; stroke: #262626; stroke-width: 1.25"/>
      </g>
     </g>
     <g id="text_12">
      <!-- 0.8 -->
      <g style="fill: #262626" transform="translate(22.46125 68.295994) scale(0.11 -0.11)">
       <use xlink:href="#ArialMT-30"/>
       <use xlink:href="#ArialMT-2e" x="55.615234"/>
       <use xlink:href="#ArialMT-38" x="83.398438"/>
      </g>
     </g>
    </g>
    <g id="ytick_6">
     <g id="line2d_17">
      <g>
       <use xlink:href="#m2cdbaf80d3" x="41.25125" y="11.136797" style="fill: #262626; stroke: #262626; stroke-width: 1.25"/>
      </g>
     </g>
     <g id="text_13">
      <!-- 1.0 -->
      <g style="fill: #262626" transform="translate(22.46125 15.073594) scale(0.11 -0.11)">
       <use xlink:href="#ArialMT-31"/>
       <use xlink:href="#ArialMT-2e" x="55.615234"/>
       <use xlink:href="#ArialMT-30" x="83.398438"/>
      </g>
     </g>
    </g>
    <g id="ytick_7">
     <g id="line2d_18">
      <defs>
       <path id="me5613b98b7" d="M 0 0 
L 4 0 
" style="stroke: #262626"/>
      </defs>
      <g>
       <use xlink:href="#me5613b98b7" x="41.25125" y="250.637597" style="fill: #262626; stroke: #262626"/>
      </g>
     </g>
    </g>
    <g id="ytick_8">
     <g id="line2d_19">
      <g>
       <use xlink:href="#me5613b98b7" x="41.25125" y="197.415197" style="fill: #262626; stroke: #262626"/>
      </g>
     </g>
    </g>
    <g id="ytick_9">
     <g id="line2d_20">
      <g>
       <use xlink:href="#me5613b98b7" x="41.25125" y="144.192797" style="fill: #262626; stroke: #262626"/>
      </g>
     </g>
    </g>
    <g id="ytick_10">
     <g id="line2d_21">
      <g>
       <use xlink:href="#me5613b98b7" x="41.25125" y="90.970397" style="fill: #262626; stroke: #262626"/>
      </g>
     </g>
    </g>
    <g id="ytick_11">
     <g id="line2d_22">
      <g>
       <use xlink:href="#me5613b98b7" x="41.25125" y="37.747997" style="fill: #262626; stroke: #262626"/>
      </g>
     </g>
    </g>
    <g id="text_14">
     <!-- Absorbance (a.u.) -->
     <g style="fill: #262626" transform="translate(15.935625 191.881547) rotate(-90) scale(0.12 -0.12)">
      <defs>
       <path id="ArialMT-41" d="M -9 0 
L 1750 4581 
L 2403 4581 
L 4278 0 
L 3588 0 
L 3053 1388 
L 1138 1388 
L 634 0 
L -9 0 
z
M 1313 1881 
L 2866 1881 
L 2388 3150 
Q 2169 3728 2063 4100 
Q 1975 3659 1816 3225 
L 1313 1881 
z
" transform="scale(0.015625)"/>
       <path id="ArialMT-62" d="M 941 0 
L 419 0 
L 419 4581 
L 981 4581 
L 981 2947 
Q 1338 3394 1891 3394 
Q 2197 3394 2470 3270 
Q 2744 3147 2920 2923 
Q 3097 2700 3197 2384 
Q 3297 2069 3297 1709 
Q 3297 856 2875 390 
Q 2453 -75 1863 -75 
Q 1275 -75 941 416 
L 941 0 
z
M 934 1684 
Q 934 1088 1097 822 
Q 1363 388 1816 388 
Q 2184 388 2453 708 
Q 2722 1028 2722 1663 
Q 2722 2313 2464 2622 
Q 2206 2931 1841 2931 
Q 1472 2931 1203 2611 
Q 934 2291 934 1684 
z
" transform="scale(0.015625)"/>
       <path id="ArialMT-73" d="M 197 991 
L 753 1078 
Q 800 744 1014 566 
Q 1228 388 1613 388 
Q 2000 388 2187 545 
Q 2375 703 2375 916 
Q 2375 1106 2209 1216 
Q 2094 1291 1634 1406 
Q 1016 1563 777 1677 
Q 538 1791 414 1992 
Q 291 2194 291 2438 
Q 291 2659 392 2848 
Q 494 3038 669 3163 
Q 800 3259 1026 3326 
Q 1253 3394 1513 3394 
Q 1903 3394 2198 3281 
Q 2494 3169 2634 2976 
Q 2775 2784 2828 2463 
L 2278 2388 
Q 2241 2644 2061 2787 
Q 1881 2931 1553 2931 
Q 1166 2931 1000 2803 
Q 834 2675 834 2503 
Q 834 2394 903 2306 
Q 972 2216 1119 2156 
Q 1203 2125 1616 2013 
Q 2213 1853 2448 1751 
Q 2684 1650 2818 1456 
Q 2953 1263 2953 975 
Q 2953 694 2789 445 
Q 2625 197 2315 61 
Q 2006 -75 1616 -75 
Q 969 -75 630 194 
Q 291 463 197 991 
z
" transform="scale(0.015625)"/>
       <path id="ArialMT-6f" d="M 213 1659 
Q 213 2581 725 3025 
Q 1153 3394 1769 3394 
Q 2453 3394 2887 2945 
Q 3322 2497 3322 1706 
Q 3322 1066 3130 698 
Q 2938 331 2570 128 
Q 2203 -75 1769 -75 
Q 1072 -75 642 372 
Q 213 819 213 1659 
z
M 791 1659 
Q 791 1022 1069 705 
Q 1347 388 1769 388 
Q 2188 388 2466 706 
Q 2744 1025 2744 1678 
Q 2744 2294 2464 2611 
Q 2184 2928 1769 2928 
Q 1347 2928 1069 2612 
Q 791 2297 791 1659 
z
" transform="scale(0.015625)"/>
       <path id="ArialMT-72" d="M 416 0 
L 416 3319 
L 922 3319 
L 922 2816 
Q 1116 3169 1280 3281 
Q 1444 3394 1641 3394 
Q 1925 3394 2219 3213 
L 2025 2691 
Q 1819 2813 1613 2813 
Q 1428 2813 1281 2702 
Q 1134 2591 1072 2394 
Q 978 2094 978 1738 
L 978 0 
L 416 0 
z
" transform="scale(0.015625)"/>
       <path id="ArialMT-63" d="M 2588 1216 
L 3141 1144 
Q 3050 572 2676 248 
Q 2303 -75 1759 -75 
Q 1078 -75 664 370 
Q 250 816 250 1647 
Q 250 2184 428 2587 
Q 606 2991 970 3192 
Q 1334 3394 1763 3394 
Q 2303 3394 2647 3120 
Q 2991 2847 3088 2344 
L 2541 2259 
Q 2463 2594 2264 2762 
Q 2066 2931 1784 2931 
Q 1359 2931 1093 2626 
Q 828 2322 828 1663 
Q 828 994 1084 691 
Q 1341 388 1753 388 
Q 2084 388 2306 591 
Q 2528 794 2588 1216 
z
" transform="scale(0.015625)"/>
       <path id="ArialMT-75" d="M 2597 0 
L 2597 488 
Q 2209 -75 1544 -75 
Q 1250 -75 995 37 
Q 741 150 617 320 
Q 494 491 444 738 
Q 409 903 409 1263 
L 409 3319 
L 972 3319 
L 972 1478 
Q 972 1038 1006 884 
Q 1059 663 1231 536 
Q 1403 409 1656 409 
Q 1909 409 2131 539 
Q 2353 669 2445 892 
Q 2538 1116 2538 1541 
L 2538 3319 
L 3100 3319 
L 3100 0 
L 2597 0 
z
" transform="scale(0.015625)"/>
      </defs>
      <use xlink:href="#ArialMT-41"/>
      <use xlink:href="#ArialMT-62" x="66.699219"/>
      <use xlink:href="#ArialMT-73" x="122.314453"/>
      <use xlink:href="#ArialMT-6f" x="172.314453"/>
      <use xlink:href="#ArialMT-72" x="227.929688"/>
      <use xlink:href="#ArialMT-62" x="261.230469"/>
      <use xlink:href="#ArialMT-61" x="316.845703"/>
      <use xlink:href="#ArialMT-6e" x="372.460938"/>
      <use xlink:href="#ArialMT-63" x="428.076172"/>
      <use xlink:href="#ArialMT-65" x="478.076172"/>
      <use xlink:href="#ArialMT-20" x="533.691406"/>
      <use xlink:href="#ArialMT-28" x="561.474609"/>
      <use xlink:href="#ArialMT-61" x="594.775391"/>
      <use xlink:href="#ArialMT-2e" x="650.390625"/>
      <use xlink:href="#ArialMT-75" x="678.173828"/>
      <use xlink:href="#ArialMT-2e" x="733.789062"/>
      <use xlink:href="#ArialMT-29" x="761.572266"/>
     </g>
    </g>
   </g>
   <g id="PolyCollection_1"/>
   <g id="PolyCollection_2"/>
   <g id="PolyCollection_3"/>
   <g id="PolyCollection_4"/>
   <g id="PolyCollection_5"/>
   <g id="PolyCollection_6"/>
   <g id="line2d_23">
    <path d="M 41.467683 217.338477 
L 42.333435 213.281927 
L 43.41561 207.307003 
L 45.147105 195.409823 
L 47.311465 177.627776 
L 49.475835 157.934354 
L 53.37169 123.756842 
L 54.453865 116.211949 
L 55.319617 111.398504 
L 56.185359 107.751625 
L 57.051101 105.051298 
L 57.70041 103.646174 
L 58.566162 102.501687 
L 59.215471 102.260655 
L 59.864781 102.58956 
L 60.297647 103.115956 
L 60.946956 104.409954 
L 61.596265 106.446984 
L 62.245574 108.906058 
L 63.111326 113.069562 
L 66.574305 130.402307 
L 67.440047 133.175486 
L 68.089356 134.610382 
L 68.522232 135.280214 
L 69.171541 135.887028 
L 69.604417 135.983688 
L 70.037293 135.864108 
L 70.470159 135.608182 
L 70.903035 135.1334 
L 71.552344 134.134283 
L 72.634529 131.7161 
L 73.716705 128.513201 
L 75.231766 122.799552 
L 76.530384 117.038778 
L 78.045435 109.405711 
L 80.859105 93.400146 
L 85.837144 62.902552 
L 88.217948 49.539371 
L 89.732999 42.338737 
L 91.031617 37.256217 
L 91.897359 34.512398 
L 92.763111 32.292262 
L 93.628853 30.679559 
L 94.278162 29.833522 
L 94.711038 29.438348 
L 95.360348 29.166085 
L 95.793214 29.14924 
L 96.442523 29.481364 
L 97.091832 30.218972 
L 97.524708 30.93964 
L 98.174017 32.384925 
L 98.823326 34.326802 
L 99.689068 37.69436 
L 100.771253 43.259165 
L 101.853438 50.259547 
L 103.152057 60.400652 
L 104.883541 76.0569 
L 107.69722 104.7945 
L 110.727323 138.214308 
L 113.108116 166.480631 
L 116.571105 208.812602 
L 118.086166 225.251103 
L 119.601207 239.072285 
L 120.683402 247.2899 
L 121.98202 255.194418 
L 122.847752 259.399719 
L 123.929948 263.610781 
L 125.012123 266.811255 
L 126.094318 269.208019 
L 126.96005 270.688736 
L 127.825802 271.868217 
L 128.907977 273.067205 
L 130.423038 274.143597 
L 131.505214 274.687653 
L 133.020275 275.227778 
L 134.968202 275.657321 
L 141.677736 276.225349 
L 143.40922 276.292264 
L 152.066681 276.43657 
L 152.71599 276.434357 
L 154.231032 276.464877 
L 155.096784 276.440226 
L 157.044711 276.462006 
L 157.910463 276.436043 
L 158.559772 276.455264 
L 161.589875 276.443861 
L 162.888493 276.463962 
L 164.403554 276.478692 
L 173.710305 276.526697 
L 174.576057 276.490071 
L 175.008923 276.497088 
L 176.091118 276.512632 
L 179.337663 276.50816 
L 184.532136 276.544483 
L 191.24165 276.543852 
L 191.890959 276.558212 
L 193.189577 276.55298 
L 193.622463 276.567185 
L 209.85519 276.61309 
L 210.071614 276.536838 
L 210.5045 276.682425 
L 210.937366 276.619386 
L 211.370232 276.651699 
L 211.803118 276.632213 
L 212.885293 276.6408 
L 214.400354 276.669251 
L 214.83322 276.585484 
L 216.348281 276.633944 
L 216.781148 276.62537 
L 216.99759 276.712956 
L 217.430457 276.642434 
L 217.863323 276.624498 
L 218.512632 276.72436 
L 218.729075 276.526753 
L 218.945518 276.733079 
L 219.161941 276.614178 
L 219.81125 276.723966 
L 220.244136 276.565252 
L 220.460559 276.703945 
L 220.893445 276.605858 
L 221.109868 276.782168 
L 221.326311 276.636458 
L 222.408486 276.697099 
L 222.624929 276.67778 
L 222.841372 276.538522 
L 223.057795 276.729778 
L 223.274238 276.561642 
L 223.490681 276.78721 
L 223.707105 276.64267 
L 224.13999 276.772907 
L 224.356414 276.565966 
L 224.7893 276.765478 
L 225.438609 276.652904 
L 225.655032 276.402809 
L 226.087918 276.787397 
L 226.304341 276.906003 
L 226.520784 276.661718 
L 226.737227 276.731723 
L 226.95365 276.927923 
L 227.170093 276.704471 
L 227.602959 276.727197 
L 227.819402 276.577434 
L 228.035845 276.866152 
L 228.252268 276.294209 
L 228.468711 276.877431 
L 228.685154 276.872102 
L 228.901577 276.622821 
L 229.11802 276.596313 
L 229.334463 276.81828 
L 229.983772 276.531411 
L 230.200195 276.770016 
L 230.633081 276.675821 
L 230.849505 276.37339 
L 231.065948 276.585845 
L 231.28239 276.458927 
L 231.715257 276.856842 
L 231.9317 276.924718 
L 232.148123 276.398701 
L 232.364566 276.786062 
L 232.581009 276.836007 
L 232.797432 276.488934 
L 233.013875 277.02036 
L 233.446741 276.930679 
L 233.663184 277.290314 
L 233.879627 277.033342 
L 234.09605 277.065119 
L 234.312493 276.079846 
L 234.528936 276.93968 
L 234.745359 277.139706 
L 234.961802 277.137472 
L 235.178245 276.693078 
L 235.611111 276.60937 
L 235.827534 276.984456 
L 240.372698 276.984988 
L 242.753491 276.990842 
L 248.597273 277.019739 
L 251.410952 277.002309 
L 256.172559 276.98824 
L 257.6876 276.987487 
L 263.964268 277.008909 
L 266.345062 277.035005 
L 268.942298 277.06554 
L 270.457359 277.092796 
L 271.539534 277.086609 
L 280.196995 277.127274 
L 286.473663 277.132163 
L 287.772281 277.103805 
L 289.287323 277.118833 
L 292.100982 277.096749 
L 295.347528 277.109123 
L 297.295455 277.095956 
L 300.325577 277.09559 
L 316.125419 277.039836 
L 316.774728 277.052354 
L 317.424037 277.058288 
L 317.6405 277.02123 
L 318.073346 277.091355 
L 318.506232 277.040181 
L 318.722655 277.212268 
L 319.155541 277.164822 
L 320.670582 277.105805 
L 321.536354 277.10844 
L 333.223918 277.001336 
L 333.873227 277.065623 
L 335.604691 277.029788 
L 336.90331 277.028905 
L 340.149855 277.051043 
L 346.859409 277.084339 
L 348.158027 277.065319 
L 349.456645 277.103639 
L 357.897663 277.120854 
L 361.144209 277.108171 
L 366.98799 277.124867 
L 368.070146 277.117999 
L 381.9221 277.008978 
L 383.004255 277.005761 
L 395.341128 276.649864 
L 396.639746 276.324537 
L 398.37125 275.621984 
L 398.37125 275.621984 
" clip-path="url(#pbbeee96d1c)" style="fill: none; stroke: #f6b48f; stroke-linecap: round"/>
   </g>
   <g id="line2d_24">
    <path d="M 41.467683 181.00324 
L 45.579981 159.333926 
L 47.311465 152.984634 
L 48.39365 150.657592 
L 49.259392 149.646857 
L 50.125144 149.167585 
L 51.423762 148.873878 
L 51.856629 148.714105 
L 52.505938 148.15225 
L 52.938814 147.698104 
L 54.237432 145.16111 
L 55.103174 142.417624 
L 56.185359 137.92593 
L 57.051101 133.402449 
L 59.864781 118.21337 
L 60.730523 115.134175 
L 61.163399 114.12808 
L 61.596265 113.43214 
L 62.029141 113.06558 
L 62.462017 113.066516 
L 62.894883 113.407523 
L 63.544192 114.404181 
L 64.193501 115.892451 
L 65.492119 119.9871 
L 66.574305 123.965056 
L 69.604417 134.985475 
L 71.552344 140.937507 
L 73.716705 146.475839 
L 75.448199 150.168066 
L 77.829002 154.122928 
L 78.911177 155.497708 
L 81.075548 157.157727 
L 82.157723 157.485156 
L 82.807032 157.575313 
L 83.889217 157.299679 
L 85.187835 156.549263 
L 85.837144 155.89354 
L 86.702886 154.920222 
L 88.001505 152.864158 
L 88.867257 151.178595 
L 90.815184 146.455148 
L 92.546668 141.383358 
L 95.360348 131.465631 
L 98.823326 117.456618 
L 106.831468 82.55314 
L 109.645148 71.131329 
L 111.593075 63.929283 
L 114.406734 54.80755 
L 116.571105 48.956604 
L 118.302589 45.051737 
L 119.81765 42.224344 
L 121.549134 39.741303 
L 123.280638 38.124968 
L 124.146371 37.630723 
L 124.7957 37.445921 
L 125.877875 37.395576 
L 126.743627 37.655483 
L 127.392936 37.990193 
L 128.258668 38.698837 
L 129.340863 39.886833 
L 131.072348 42.796754 
L 131.9381 44.567882 
L 133.453141 48.298541 
L 134.968202 52.748742 
L 137.132572 60.282135 
L 139.296923 68.84613 
L 141.894159 80.36192 
L 144.491395 92.852416 
L 147.737941 109.248508 
L 159.85839 171.586721 
L 164.187111 192.279363 
L 168.299409 210.004126 
L 170.896645 219.916127 
L 172.844572 226.641039 
L 174.576057 232.052265 
L 176.307541 236.980536 
L 178.255468 241.889305 
L 179.986972 245.71346 
L 181.718457 249.138789 
L 184.532136 253.743758 
L 186.480063 256.402108 
L 187.345795 257.510673 
L 191.24165 261.518687 
L 195.353948 264.68111 
L 196.2197 265.20044 
L 197.518318 266.016663 
L 200.54842 267.610455 
L 202.279905 268.392566 
L 203.145657 268.744322 
L 204.011409 269.055634 
L 204.877141 269.411073 
L 205.093584 269.433732 
L 205.742893 269.725574 
L 207.69082 270.395833 
L 208.556572 270.657133 
L 208.989438 270.881201 
L 209.85519 271.08527 
L 210.937366 271.400268 
L 211.370232 271.564993 
L 212.235984 271.721954 
L 212.885293 271.995827 
L 213.751045 272.122605 
L 213.967468 272.266168 
L 214.183911 272.245281 
L 214.616777 272.357047 
L 216.781148 272.856671 
L 216.99759 273.025665 
L 217.430457 273.046176 
L 217.6469 273.162738 
L 218.296209 273.186022 
L 218.512632 273.382283 
L 218.729075 273.283581 
L 218.945518 273.405993 
L 219.161941 273.362159 
L 220.244136 273.665016 
L 223.057795 274.195093 
L 223.274238 274.124001 
L 224.13999 274.434549 
L 224.356414 274.329677 
L 224.572857 274.434542 
L 224.7893 274.694942 
L 225.005723 274.584992 
L 225.222166 274.752282 
L 225.438609 274.43097 
L 225.655032 274.55127 
L 225.871475 274.862931 
L 226.087918 274.864773 
L 226.520784 274.690815 
L 226.737227 274.989021 
L 226.95365 275.009994 
L 227.170093 274.693153 
L 227.602959 274.57852 
L 227.819402 275.022586 
L 228.252268 274.68828 
L 228.685154 275.221308 
L 228.901577 274.91616 
L 229.11802 274.810128 
L 229.334463 275.522737 
L 229.550886 275.297368 
L 229.767329 275.447504 
L 229.983772 274.929359 
L 230.416638 275.235931 
L 230.633081 275.664312 
L 230.849505 275.406341 
L 231.065948 275.611832 
L 231.28239 274.689822 
L 231.498814 275.331768 
L 231.9317 275.574803 
L 232.148123 274.905848 
L 232.364566 275.721403 
L 232.581009 275.434566 
L 232.797432 275.513723 
L 233.230318 275.988075 
L 233.446741 275.560055 
L 233.663184 275.658383 
L 233.879627 275.341419 
L 234.09605 276.09194 
L 234.312493 275.146468 
L 234.528936 275.805798 
L 234.745359 275.371305 
L 234.961802 276.326606 
L 235.178245 276.303099 
L 235.394668 275.925764 
L 235.611111 275.870579 
L 235.827534 276.301668 
L 240.156255 276.596264 
L 246.21648 276.825907 
L 251.627395 276.946013 
L 256.388982 277.029029 
L 258.33691 277.078041 
L 261.799898 277.107012 
L 263.531382 277.119067 
L 270.457359 277.221935 
L 271.106668 277.2108 
L 274.136771 277.223933 
L 277.166873 277.278194 
L 278.465491 277.262601 
L 280.196995 277.293633 
L 282.144923 277.306151 
L 288.638014 277.344784 
L 289.503746 277.341315 
L 292.533868 277.346009 
L 295.131105 277.344302 
L 296.646146 277.366118 
L 299.026959 277.326639 
L 300.325577 277.339222 
L 302.922814 277.353635 
L 307.251554 277.370165 
L 313.744645 277.346078 
L 316.125419 277.231581 
L 316.774728 277.249871 
L 318.289809 277.328897 
L 318.506232 277.271183 
L 318.722655 277.429577 
L 321.103468 277.382853 
L 328.245868 277.407662 
L 332.791032 277.44853 
L 337.985505 277.444322 
L 348.37445 277.440622 
L 349.456645 277.424817 
L 350.755263 277.395348 
L 350.971686 277.563149 
L 351.18811 277.441021 
L 354.001809 277.456328 
L 356.166159 277.397632 
L 366.555105 277.467385 
L 367.6373 277.473559 
L 368.719455 277.471702 
L 378.026245 277.413344 
L 379.75771 277.367674 
L 384.952182 277.374706 
L 385.601491 277.274158 
L 387.332995 277.272946 
L 387.982305 277.255506 
L 388.631614 277.270508 
L 388.848037 277.201249 
L 389.280923 277.232229 
L 391.661736 277.230382 
L 392.960354 277.219041 
L 394.691819 277.082132 
L 396.639746 276.639893 
L 397.289055 276.292167 
L 397.721941 276.080953 
L 398.154827 275.891114 
L 398.37125 275.887748 
L 398.37125 275.887748 
" clip-path="url(#pbbeee96d1c)" style="fill: none; stroke: #f37651; stroke-linecap: round"/>
   </g>
   <g id="line2d_25">
    <path d="M 41.467683 177.96814 
L 44.064919 161.55062 
L 45.796414 150.665491 
L 46.662156 146.991299 
L 48.39365 142.234979 
L 50.341577 137.04587 
L 50.990886 136.344521 
L 51.423762 136.371359 
L 52.073071 136.91866 
L 52.938814 137.717811 
L 53.37169 137.727121 
L 53.804556 137.417394 
L 54.237432 136.713698 
L 54.886741 134.702791 
L 55.968926 129.509098 
L 57.051101 123.846221 
L 57.70041 121.213528 
L 58.349719 119.446397 
L 58.999029 118.384326 
L 59.431905 117.921534 
L 59.864781 117.672096 
L 60.946956 117.423261 
L 61.379832 117.551057 
L 62.029141 118.024428 
L 62.67845 118.928233 
L 63.327759 120.26171 
L 64.193501 122.587595 
L 65.708562 127.911019 
L 69.604417 143.122843 
L 72.418086 152.375013 
L 73.716705 156.121058 
L 75.448199 160.651835 
L 77.396126 164.956792 
L 78.911177 167.58169 
L 80.642671 169.736444 
L 81.508414 170.441131 
L 81.94129 170.693678 
L 83.239908 171.088107 
L 83.889217 171.081373 
L 85.187835 170.673376 
L 85.837144 170.208832 
L 86.702886 169.450969 
L 87.785071 168.095674 
L 89.08369 165.885087 
L 90.165875 163.627772 
L 91.24805 161.074933 
L 92.763111 157.002601 
L 94.711038 150.940704 
L 96.442523 144.929556 
L 99.472635 133.538509 
L 106.831468 105.016894 
L 109.428705 95.963255 
L 111.160189 90.501899 
L 113.324559 84.371472 
L 114.83962 80.620954 
L 117.869723 74.550326 
L 119.601207 71.996797 
L 120.683402 70.754254 
L 121.332711 70.103361 
L 122.198443 69.427089 
L 123.497062 68.723695 
L 125.012123 68.470466 
L 126.527184 68.837105 
L 127.392936 69.309555 
L 128.691554 70.454487 
L 130.206595 72.449405 
L 131.28879 74.276937 
L 132.803832 77.419499 
L 134.535336 81.816579 
L 136.916129 89.078249 
L 139.0805 96.66132 
L 140.379118 101.537561 
L 144.274972 117.560003 
L 147.737941 132.607406 
L 155.962536 169.215838 
L 160.940566 190.763106 
L 164.83642 206.588929 
L 167.217214 215.443423 
L 168.515832 220.012391 
L 171.762377 230.472336 
L 176.523984 242.962039 
L 178.255468 246.668164 
L 179.554086 249.146335 
L 181.28559 252.17604 
L 182.800632 254.548248 
L 183.882827 256.018172 
L 185.397868 258.002489 
L 187.995105 260.847212 
L 189.0773 261.817578 
L 189.943032 262.644804 
L 193.838886 265.586357 
L 195.57039 266.643875 
L 196.003257 266.936233 
L 196.436123 267.133826 
L 198.167627 268.093449 
L 199.682668 268.843065 
L 200.331977 269.152198 
L 201.197729 269.528802 
L 202.279905 269.988509 
L 205.52645 271.221992 
L 208.340129 272.017488 
L 208.556572 272.012132 
L 208.989438 272.185604 
L 210.720923 272.504655 
L 211.370232 272.79398 
L 211.586675 272.691076 
L 212.019541 272.777147 
L 212.452427 272.894381 
L 213.967468 273.214309 
L 214.616777 273.188655 
L 215.266086 273.395929 
L 215.482529 273.354457 
L 216.131838 273.531035 
L 216.348281 273.499303 
L 216.781148 273.650641 
L 218.079766 273.811063 
L 218.512632 273.965246 
L 218.729075 273.886843 
L 218.945518 274.097104 
L 219.378384 274.024401 
L 219.594827 274.200836 
L 220.460559 274.245548 
L 221.542754 274.433645 
L 221.759177 274.341906 
L 222.192063 274.641435 
L 222.408486 274.499827 
L 223.274238 274.567988 
L 223.490681 274.727157 
L 223.923548 274.688322 
L 224.13999 274.808376 
L 224.572857 274.775684 
L 224.7893 274.997885 
L 225.005723 274.979354 
L 225.222166 274.818605 
L 225.438609 274.821982 
L 225.655032 274.552589 
L 225.871475 275.144412 
L 226.087918 274.852361 
L 226.304341 275.135804 
L 226.520784 275.025669 
L 226.737227 275.259011 
L 227.386536 274.976024 
L 227.602959 275.217845 
L 227.819402 275.112622 
L 228.035845 275.330872 
L 228.252268 275.010402 
L 228.468711 274.990067 
L 228.685154 275.16446 
L 229.11802 275.074415 
L 229.550886 275.674389 
L 230.200195 275.37559 
L 231.065948 275.689046 
L 231.28239 275.338695 
L 231.498814 275.6963 
L 231.715257 275.396766 
L 231.9317 275.828347 
L 232.148123 275.369541 
L 232.797432 275.947801 
L 233.013875 275.788513 
L 233.230318 275.490274 
L 233.446741 275.754373 
L 233.663184 275.816407 
L 233.879627 276.011047 
L 234.09605 275.632015 
L 234.312493 275.755015 
L 234.528936 275.454199 
L 234.961802 275.791031 
L 235.611111 275.316219 
L 235.827534 276.546507 
L 242.753491 276.874583 
L 245.134305 276.964038 
L 248.164407 277.033563 
L 249.679468 277.085409 
L 254.008189 277.097887 
L 258.120486 277.234275 
L 259.635528 277.248556 
L 261.799898 277.30268 
L 268.292989 277.371816 
L 274.353214 277.430196 
L 276.084698 277.423951 
L 284.09285 277.502293 
L 285.175045 277.489384 
L 292.533868 277.561459 
L 294.04891 277.559068 
L 296.646146 277.560181 
L 301.840619 277.560126 
L 306.818668 277.48185 
L 308.766595 277.41688 
L 318.073346 277.542386 
L 318.939118 277.735152 
L 319.588427 277.582534 
L 320.021273 277.616433 
L 322.402086 277.603276 
L 323.917128 277.64656 
L 326.730827 277.650638 
L 328.895177 277.685587 
L 331.492414 277.713103 
L 333.223918 277.707326 
L 334.955382 277.722365 
L 383.220718 277.723202 
L 383.653564 277.652162 
L 384.519336 277.783242 
L 384.735759 277.637045 
L 384.952182 277.768938 
L 385.168645 277.571351 
L 385.385068 277.628751 
L 385.817954 277.54306 
L 386.90011 277.623313 
L 387.765881 277.51762 
L 388.41519 277.603386 
L 388.631614 277.61815 
L 388.848037 277.42904 
L 389.0645 277.588427 
L 389.280923 277.518349 
L 389.930232 277.59035 
L 390.146655 277.489838 
L 390.579541 277.580886 
L 391.012427 277.576915 
L 391.445273 277.575912 
L 391.878159 277.510473 
L 392.094582 277.593386 
L 392.743891 277.53234 
L 394.258972 277.459601 
L 394.691819 277.423208 
L 395.124705 277.461857 
L 395.341128 277.281155 
L 395.55759 277.245718 
L 395.774014 277.08892 
L 395.990437 277.191945 
L 396.423323 277.050036 
L 396.856209 276.659634 
L 397.505518 276.57011 
L 397.938364 276.206403 
L 398.154827 276.015461 
L 398.37125 276.05134 
L 398.37125 276.05134 
" clip-path="url(#pbbeee96d1c)" style="fill: none; stroke: #e13342; stroke-linecap: round"/>
   </g>
   <g id="line2d_26">
    <path d="M 41.467683 167.975943 
L 42.982744 158.125406 
L 43.848486 150.906435 
L 45.579981 135.701908 
L 46.22929 131.959273 
L 47.095032 128.681777 
L 47.744341 126.793306 
L 48.610083 122.921463 
L 49.475835 117.514132 
L 50.341577 112.544101 
L 50.774453 111.092535 
L 50.990886 110.710162 
L 51.207319 110.615643 
L 51.423762 110.798495 
L 51.856629 111.672083 
L 53.37169 116.323281 
L 53.804556 116.754111 
L 54.020999 116.610089 
L 54.237432 116.290733 
L 54.670308 114.985727 
L 55.103174 112.959324 
L 55.968926 107.489641 
L 56.618235 103.607742 
L 57.051101 101.842562 
L 57.483977 101.14556 
L 57.70041 101.141737 
L 58.133286 101.955908 
L 58.566162 103.642019 
L 59.431905 108.471452 
L 60.730523 115.713612 
L 61.812708 120.359147 
L 64.193501 129.276727 
L 66.141429 137.535927 
L 69.82085 152.69026 
L 71.98522 160.199806 
L 73.500271 164.826045 
L 75.015323 168.924382 
L 77.179693 173.755418 
L 79.560486 177.388283 
L 80.642671 178.529471 
L 81.508414 179.215037 
L 82.374166 179.64168 
L 83.023475 179.886527 
L 83.889217 179.971108 
L 85.187835 179.801771 
L 86.486453 179.121827 
L 87.568638 178.145591 
L 88.650814 176.850483 
L 89.732999 175.193637 
L 90.598741 173.738192 
L 92.113802 170.762391 
L 93.845286 166.806863 
L 95.793214 161.738729 
L 98.39045 154.272867 
L 101.204129 145.72256 
L 104.450675 135.844566 
L 107.913653 125.982608 
L 110.51088 119.427902 
L 112.025941 116.021167 
L 113.757425 112.514853 
L 115.272486 109.837652 
L 116.787548 107.497476 
L 118.086166 105.765574 
L 120.034093 103.725228 
L 121.98202 102.322864 
L 123.280638 101.73491 
L 124.579257 101.513166 
L 125.228566 101.514498 
L 126.094318 101.662217 
L 127.176493 102.084053 
L 128.042245 102.616429 
L 129.12442 103.528466 
L 129.990172 104.464819 
L 131.28879 106.198228 
L 132.803832 108.737815 
L 134.318893 111.770345 
L 135.401068 114.245026 
L 136.916129 118.058403 
L 140.162675 127.484249 
L 146.655766 149.707051 
L 155.096784 180.530869 
L 159.425505 196.240022 
L 162.239184 206.125217 
L 167.00079 221.571276 
L 169.165141 227.965876 
L 171.329511 233.888774 
L 174.14319 240.745658 
L 176.523984 245.794915 
L 178.255468 249.036843 
L 181.9349 254.763917 
L 184.532136 258.035812 
L 188.860857 262.24565 
L 192.973154 265.255627 
L 194.055329 265.901144 
L 194.704638 266.259114 
L 200.54842 269.021385 
L 200.981286 269.139067 
L 201.197729 269.291578 
L 201.630595 269.413528 
L 202.496348 269.652951 
L 202.71279 269.82224 
L 203.578523 270.025399 
L 207.907263 271.268139 
L 208.340129 271.333389 
L 208.556572 271.346997 
L 208.989438 271.508004 
L 209.638748 271.61577 
L 210.720923 271.886445 
L 211.586675 272.110629 
L 212.885293 272.325869 
L 213.318159 272.388915 
L 213.534602 272.379883 
L 213.967468 272.508983 
L 214.400354 272.675433 
L 214.616777 272.599054 
L 215.266086 272.770832 
L 216.131838 272.870251 
L 217.6469 273.18137 
L 217.863323 273.104647 
L 219.161941 273.377874 
L 220.027693 273.449055 
L 220.244136 273.618544 
L 220.460559 273.443339 
L 220.677002 273.638232 
L 221.326311 273.653647 
L 221.542754 273.775525 
L 222.408486 273.669642 
L 223.490681 273.92911 
L 223.923548 273.871311 
L 224.13999 274.153043 
L 224.356414 273.947711 
L 224.572857 274.074824 
L 224.7893 273.917228 
L 225.222166 274.105344 
L 225.871475 274.217597 
L 226.087918 274.277365 
L 226.304341 274.45328 
L 226.737227 274.085218 
L 227.170093 274.506924 
L 227.386536 274.264804 
L 227.602959 274.425888 
L 227.819402 274.422824 
L 228.035845 274.699512 
L 228.468711 274.119507 
L 228.685154 274.470428 
L 228.901577 274.354338 
L 229.11802 274.367729 
L 229.334463 274.648438 
L 229.550886 274.402393 
L 229.767329 273.785328 
L 229.983772 274.51828 
L 230.200195 274.205419 
L 230.416638 274.364826 
L 230.633081 274.703625 
L 231.065948 274.151232 
L 231.28239 274.166861 
L 231.715257 275.189714 
L 231.9317 274.46201 
L 232.364566 274.922521 
L 232.581009 274.938285 
L 232.797432 274.379 
L 233.013875 274.986787 
L 233.230318 274.6934 
L 233.446741 275.043097 
L 233.663184 274.786514 
L 234.312493 274.941792 
L 234.528936 274.883175 
L 234.745359 275.722367 
L 234.961802 274.287302 
L 235.394668 275.115183 
L 235.611111 275.283201 
L 236.043977 275.235678 
L 247.298655 275.737059 
L 254.873941 275.931436 
L 300.758463 276.771074 
L 302.057081 276.776587 
L 302.922814 276.787335 
L 308.33371 276.792321 
L 312.446027 276.740828 
L 313.311759 276.775404 
L 315.908995 276.86215 
L 316.341881 276.839761 
L 316.99119 276.835378 
L 317.424037 276.94564 
L 317.6405 276.866649 
L 318.289809 276.968464 
L 329.977372 276.933601 
L 333.007455 276.935915 
L 334.522536 276.942125 
L 335.604691 276.938271 
L 338.41839 276.93443 
L 346.2101 276.913513 
L 349.889491 276.890844 
L 354.651118 276.923903 
L 355.51685 276.929415 
L 357.464777 276.948762 
L 368.935918 276.944563 
L 369.368764 276.964411 
L 373.913928 276.884231 
L 375.429009 276.861618 
L 377.160473 276.821917 
L 380.623481 276.739514 
L 381.489214 276.7729 
L 382.571409 276.728643 
L 383.220718 276.772443 
L 383.653564 276.702872 
L 384.519336 276.889952 
L 384.735759 276.704671 
L 384.952182 276.912698 
L 385.168645 276.673751 
L 385.385068 276.811559 
L 385.817954 276.637171 
L 386.034377 276.618908 
L 386.2508 276.810425 
L 386.683686 276.81557 
L 387.765881 276.663816 
L 388.631614 276.809208 
L 388.848037 276.550159 
L 389.0645 276.74426 
L 389.280923 276.669161 
L 389.497346 276.764994 
L 390.146655 276.669098 
L 390.579541 276.756236 
L 390.795964 276.693549 
L 391.22885 276.819767 
L 391.878159 276.780827 
L 392.094582 276.866642 
L 392.743891 276.725488 
L 393.176777 276.815286 
L 393.3932 276.725391 
L 393.826086 276.814374 
L 394.258972 276.727675 
L 394.475395 276.631402 
L 395.124705 276.764267 
L 395.341128 276.596008 
L 396.423323 276.497358 
L 396.639746 276.161915 
L 397.938364 275.707317 
L 398.154827 275.510576 
L 398.37125 275.582225 
L 398.37125 275.582225 
" clip-path="url(#pbbeee96d1c)" style="fill: none; stroke: #ad1759; stroke-linecap: round"/>
   </g>
   <g id="line2d_27">
    <path d="M 41.575905 163.200217 
L 42.874523 153.460765 
L 43.848486 143.778351 
L 45.796414 122.203 
L 46.770377 114.681044 
L 48.068995 105.31019 
L 48.718305 99.231519 
L 50.666232 78.327602 
L 51.315541 74.682674 
L 51.640195 73.83973 
L 51.96485 73.421779 
L 52.289505 73.347008 
L 52.938814 73.649852 
L 53.263468 73.541296 
L 53.588123 73.244971 
L 53.912777 72.600724 
L 54.237432 71.592011 
L 54.886741 68.379817 
L 56.510014 58.320653 
L 56.834668 57.228778 
L 57.159323 56.648247 
L 57.483977 56.876732 
L 57.808632 57.854737 
L 58.133286 59.52616 
L 58.782595 64.592929 
L 62.029141 93.691347 
L 64.626377 111.957527 
L 66.24965 122.367215 
L 67.872923 131.174985 
L 69.171541 136.853438 
L 70.145505 140.357119 
L 71.119468 143.297875 
L 72.093432 145.612973 
L 72.742741 146.92173 
L 73.716705 148.378031 
L 74.690668 149.363427 
L 75.339977 149.798874 
L 75.989286 150.013083 
L 76.96325 150.016287 
L 77.612559 149.805147 
L 78.911177 148.936674 
L 79.885141 148.071055 
L 81.508414 146.169855 
L 83.131686 143.946468 
L 89.624777 134.831698 
L 90.923395 133.506849 
L 92.222014 132.570735 
L 93.520632 132.049985 
L 94.494595 131.909738 
L 95.468559 132.032744 
L 96.767177 132.625774 
L 97.416486 133.11894 
L 98.39045 134.094931 
L 99.364414 135.420287 
L 100.663032 137.73621 
L 101.96165 140.720998 
L 103.260268 144.230706 
L 105.53285 151.348971 
L 108.130086 160.385615 
L 111.376632 172.577082 
L 114.623177 185.651425 
L 116.895759 194.61923 
L 118.519032 200.179974 
L 120.142305 204.84724 
L 121.765577 208.59836 
L 123.064195 210.88906 
L 124.362814 212.746094 
L 126.310741 214.833314 
L 128.583323 216.737088 
L 130.206595 217.823788 
L 131.180559 218.521437 
L 137.024341 223.0235 
L 139.621577 225.384332 
L 143.192777 229.069536 
L 145.465359 231.604146 
L 151.633795 238.564038 
L 154.880341 242.173583 
L 162.347395 250.157102 
L 167.541868 255.323519 
L 169.81445 257.362469 
L 171.437723 258.790812 
L 177.606159 263.360964 
L 179.554086 264.576285 
L 181.502014 265.628907 
L 185.397868 267.421994 
L 189.293723 268.83107 
L 193.189577 270.005393 
L 193.838886 270.168609 
L 196.111468 270.747952 
L 199.358014 271.519471 
L 201.95525 272.008759 
L 202.929214 272.175492 
L 205.52645 272.695727 
L 206.175759 272.75676 
L 216.24005 273.976146 
L 216.889359 273.982665 
L 217.538668 274.122423 
L 218.187977 274.17506 
L 222.083832 274.488638 
L 222.408486 274.435883 
L 222.733141 274.741525 
L 223.38245 274.563814 
L 223.707105 274.801213 
L 224.356414 274.810367 
L 224.681068 274.788126 
L 225.005723 274.640392 
L 226.304341 274.960982 
L 226.628995 274.835544 
L 226.95365 274.933829 
L 227.278305 274.480701 
L 227.602959 274.885945 
L 227.927614 274.74325 
L 228.252268 275.146398 
L 228.576923 275.013077 
L 228.901577 274.71154 
L 229.226232 274.89692 
L 229.550886 274.627244 
L 229.875541 275.089071 
L 230.52485 275.205204 
L 230.849505 275.220929 
L 231.498814 274.736422 
L 232.148123 275.630821 
L 232.472777 274.837872 
L 233.122086 275.216611 
L 233.446741 275.830411 
L 233.771395 274.706301 
L 234.09605 275.365248 
L 234.420705 275.130507 
L 235.070014 275.541516 
L 235.394668 275.210728 
L 235.719323 275.170793 
L 236.043977 275.987093 
L 240.589141 276.120067 
L 243.186377 276.175105 
L 245.134305 276.222952 
L 252.276705 276.337729 
L 253.575323 276.334049 
L 291.559905 276.989558 
L 293.183177 276.991774 
L 311.039177 276.824344 
L 312.66245 276.793324 
L 315.908995 276.937207 
L 318.506232 277.084643 
L 319.155541 277.00516 
L 320.129505 277.03248 
L 322.077432 277.022175 
L 324.025359 277.057853 
L 343.504632 277.130404 
L 345.127905 277.090589 
L 347.075832 277.096735 
L 349.348414 277.097859 
L 353.244268 277.114874 
L 377.593359 276.934403 
L 383.761795 276.963479 
L 387.65765 276.919841 
L 388.306959 276.895798 
L 389.930232 276.917927 
L 391.878159 276.917734 
L 395.449359 276.763866 
L 396.098668 276.61451 
L 396.747977 276.422078 
L 397.397286 276.056115 
L 398.37125 275.758581 
L 398.37125 275.758581 
" clip-path="url(#pbbeee96d1c)" style="fill: none; stroke: #701f57; stroke-linecap: round"/>
   </g>
   <g id="line2d_28">
    <path d="M 41.25124 198.94985 
L 42.982724 183.629018 
L 43.632033 174.757049 
L 44.714219 155.096063 
L 45.579961 140.756876 
L 46.22927 133.304821 
L 46.878579 128.391845 
L 47.527888 123.756334 
L 47.960764 119.425142 
L 48.39364 113.494634 
L 49.042949 101.272214 
L 50.558 69.161694 
L 50.990876 64.115037 
L 51.20731 62.873335 
L 51.423743 62.377393 
L 51.640186 62.600866 
L 51.856619 63.353003 
L 52.289495 66.295694 
L 53.37167 75.371889 
L 53.804546 77.392661 
L 54.020979 77.779269 
L 54.237422 77.767532 
L 54.453855 77.259139 
L 54.886731 75.017796 
L 55.752473 67.316335 
L 56.401782 62.380312 
L 56.618215 61.627128 
L 56.834658 61.513623 
L 57.051091 62.207485 
L 57.483967 66.17429 
L 57.916833 73.61751 
L 58.566143 90.015141 
L 61.163379 162.734142 
L 62.029131 177.857015 
L 62.894873 188.691529 
L 63.760615 196.780059 
L 64.8428 204.655609 
L 65.924986 210.908569 
L 67.223604 217.038627 
L 68.738655 222.939058 
L 70.037273 227.206062 
L 72.63451 234.404052 
L 75.448189 240.235485 
L 76.746807 242.318022 
L 78.911167 245.031268 
L 86.486443 251.930058 
L 87.352186 252.599971 
L 90.815164 255.432502 
L 92.979534 257.466023 
L 98.39044 263.038681 
L 99.039749 263.751933 
L 100.121934 264.847513 
L 102.286295 267.153365 
L 103.584913 268.474153 
L 108.130076 272.72546 
L 112.025921 275.656881 
L 113.973848 276.807404 
L 115.705352 277.648523 
L 117.65328 278.374591 
L 120.034073 278.946437 
L 121.116248 279.114741 
L 121.765557 279.248412 
L 125.228546 279.355943 
L 127.609359 279.212225 
L 128.042225 279.187069 
L 141.028407 277.704746 
L 143.192777 277.764014 
L 144.707819 277.900611 
L 145.573571 277.962339 
L 150.335177 278.167433 
L 157.477577 277.761325 
L 158.34331 277.614675 
L 167.217214 275.910859 
L 168.299389 275.797902 
L 168.732255 275.753271 
L 169.81445 275.645092 
L 173.926728 275.786008 
L 178.255468 276.58087 
L 178.904777 276.741285 
L 193.189577 280.49535 
L 193.838886 280.66805 
L 196.21968 281.1788 
L 198.38405 281.664881 
L 199.249782 281.787384 
L 202.496328 282.363167 
L 202.929214 282.376123 
L 203.578523 282.577182 
L 208.34011 283.223834 
L 208.556552 283.199693 
L 208.772995 283.321835 
L 209.422305 283.348329 
L 211.370232 283.480406 
L 212.019541 283.607912 
L 212.885273 283.664985 
L 213.101716 283.74752 
L 213.318159 283.64456 
L 214.183891 283.76419 
L 215.049643 283.780375 
L 216.564705 283.977396 
L 216.997571 283.914807 
L 218.079746 283.913208 
L 218.945498 284.016461 
L 219.161941 283.960797 
L 219.594807 284.083385 
L 220.244116 284.097694 
L 220.460559 284.175938 
L 220.893425 284.152865 
L 221.326291 284.131631 
L 222.408486 284.262673 
L 222.841352 284.206906 
L 223.057795 284.114884 
L 223.274219 284.183048 
L 223.490662 284.117351 
L 223.707105 284.336438 
L 223.923528 284.37866 
L 224.356414 283.981478 
L 224.572837 283.982426 
L 224.78928 284.211719 
L 225.005723 284.20064 
L 225.222146 284.367274 
L 225.438589 284.199019 
L 225.655032 284.199434 
L 226.087898 284.329247 
L 226.95365 284.21408 
L 227.170073 284.560401 
L 227.386516 284.230059 
L 227.819382 284.537573 
L 228.035825 284.134278 
L 228.252268 284.468556 
L 228.685134 284.702623 
L 229.118 284.293463 
L 229.550886 284.581259 
L 229.76731 285.170715 
L 229.983752 284.352012 
L 230.416619 284.118052 
L 230.633062 284.15803 
L 230.849505 284.403138 
L 231.065928 284.989145 
L 231.282371 284.916453 
L 231.498814 284.215455 
L 231.715237 284.842657 
L 231.93168 284.923415 
L 232.148123 284.448843 
L 232.364546 284.844205 
L 232.580989 284.021412 
L 232.797432 284.99408 
L 233.013855 284.259899 
L 233.230298 284.505424 
L 233.446741 284.206322 
L 233.663164 284.796024 
L 233.879607 283.871922 
L 234.09605 284.834375 
L 234.312473 284.728221 
L 234.528916 284.225909 
L 234.745359 284.309017 
L 235.178225 284.744207 
L 235.394668 284.023477 
L 235.827534 284.350367 
L 236.043977 286.807514 
L 239.290523 286.829442 
L 241.887759 286.826537 
L 242.969934 286.832815 
L 248.597293 286.804736 
L 249.679468 286.750907 
L 254.657498 286.853609 
L 256.389002 287.089757 
L 257.471177 286.859949 
L 258.986238 286.598732 
L 273.487462 286.044753 
L 274.569657 286.028244 
L 277.166873 285.884501 
L 278.465491 285.847353 
L 301.407772 284.758577 
L 301.840619 284.750482 
L 302.273505 284.723623 
L 307.035091 284.45037 
L 313.095336 283.736124 
L 316.558305 284.162494 
L 317.6405 284.139834 
L 318.722655 284.44725 
L 319.588427 284.168931 
L 321.103468 284.015357 
L 323.267819 283.928423 
L 324.566437 283.869294 
L 326.730827 283.759996 
L 329.1116 283.720245 
L 330.193795 283.727683 
L 331.27599 283.678109 
L 332.574609 283.586669 
L 333.440341 283.582939 
L 333.440341 283.582939 
" clip-path="url(#pbbeee96d1c)" style="fill: none; stroke: #35193e; stroke-linecap: round"/>
   </g>
   <g id="line2d_29"/>
   <g id="line2d_30"/>
   <g id="line2d_31"/>
   <g id="line2d_32"/>
   <g id="line2d_33"/>
   <g id="line2d_34"/>
   <g id="patch_3">
    <path d="M 41.25125 277.248797 
L 41.25125 11.136797 
" style="fill: none; stroke: #262626; stroke-width: 1.25; stroke-linejoin: miter; stroke-linecap: square"/>
   </g>
   <g id="patch_4">
    <path d="M 41.25125 277.248797 
L 398.37125 277.248797 
" style="fill: none; stroke: #262626; stroke-width: 1.25; stroke-linejoin: miter; stroke-linecap: square"/>
   </g>
   <g id="legend_1">
    <g id="line2d_35">
     <path d="M 256.255813 45.415809 
L 262.255813 45.415809 
L 268.255813 45.415809 
" style="fill: none; stroke: #f6b48f; stroke-width: 1.5; stroke-linecap: round"/>
    </g>
    <g id="text_15">
     <!-- t=0hrs FeCl3 0uM_Abs -->
     <g style="fill: #262626" transform="translate(273.055813 47.515809) scale(0.06 -0.06)">
      <defs>
       <path id="ArialMT-3d" d="M 3381 2694 
L 356 2694 
L 356 3219 
L 3381 3219 
L 3381 2694 
z
M 3381 1303 
L 356 1303 
L 356 1828 
L 3381 1828 
L 3381 1303 
z
" transform="scale(0.015625)"/>
       <path id="ArialMT-46" d="M 525 0 
L 525 4581 
L 3616 4581 
L 3616 4041 
L 1131 4041 
L 1131 2622 
L 3281 2622 
L 3281 2081 
L 1131 2081 
L 1131 0 
L 525 0 
z
" transform="scale(0.015625)"/>
       <path id="ArialMT-43" d="M 3763 1606 
L 4369 1453 
Q 4178 706 3683 314 
Q 3188 -78 2472 -78 
Q 1731 -78 1267 223 
Q 803 525 561 1097 
Q 319 1669 319 2325 
Q 319 3041 592 3573 
Q 866 4106 1370 4382 
Q 1875 4659 2481 4659 
Q 3169 4659 3637 4309 
Q 4106 3959 4291 3325 
L 3694 3184 
Q 3534 3684 3231 3912 
Q 2928 4141 2469 4141 
Q 1941 4141 1586 3887 
Q 1231 3634 1087 3207 
Q 944 2781 944 2328 
Q 944 1744 1114 1308 
Q 1284 872 1643 656 
Q 2003 441 2422 441 
Q 2931 441 3284 734 
Q 3638 1028 3763 1606 
z
" transform="scale(0.015625)"/>
       <path id="ArialMT-33" d="M 269 1209 
L 831 1284 
Q 928 806 1161 595 
Q 1394 384 1728 384 
Q 2125 384 2398 659 
Q 2672 934 2672 1341 
Q 2672 1728 2419 1979 
Q 2166 2231 1775 2231 
Q 1616 2231 1378 2169 
L 1441 2663 
Q 1497 2656 1531 2656 
Q 1891 2656 2178 2843 
Q 2466 3031 2466 3422 
Q 2466 3731 2256 3934 
Q 2047 4138 1716 4138 
Q 1388 4138 1169 3931 
Q 950 3725 888 3313 
L 325 3413 
Q 428 3978 793 4289 
Q 1159 4600 1703 4600 
Q 2078 4600 2393 4439 
Q 2709 4278 2876 4000 
Q 3044 3722 3044 3409 
Q 3044 3113 2884 2869 
Q 2725 2625 2413 2481 
Q 2819 2388 3044 2092 
Q 3269 1797 3269 1353 
Q 3269 753 2831 336 
Q 2394 -81 1725 -81 
Q 1122 -81 723 278 
Q 325 638 269 1209 
z
" transform="scale(0.015625)"/>
       <path id="ArialMT-4d" d="M 475 0 
L 475 4581 
L 1388 4581 
L 2472 1338 
Q 2622 884 2691 659 
Q 2769 909 2934 1394 
L 4031 4581 
L 4847 4581 
L 4847 0 
L 4263 0 
L 4263 3834 
L 2931 0 
L 2384 0 
L 1059 3900 
L 1059 0 
L 475 0 
z
" transform="scale(0.015625)"/>
       <path id="ArialMT-5f" d="M -97 -1272 
L -97 -866 
L 3631 -866 
L 3631 -1272 
L -97 -1272 
z
" transform="scale(0.015625)"/>
      </defs>
      <use xlink:href="#ArialMT-74"/>
      <use xlink:href="#ArialMT-3d" x="27.783203"/>
      <use xlink:href="#ArialMT-30" x="86.181641"/>
      <use xlink:href="#ArialMT-68" x="141.796875"/>
      <use xlink:href="#ArialMT-72" x="197.412109"/>
      <use xlink:href="#ArialMT-73" x="230.712891"/>
      <use xlink:href="#ArialMT-20" x="280.712891"/>
      <use xlink:href="#ArialMT-46" x="308.496094"/>
      <use xlink:href="#ArialMT-65" x="369.580078"/>
      <use xlink:href="#ArialMT-43" x="425.195312"/>
      <use xlink:href="#ArialMT-6c" x="497.412109"/>
      <use xlink:href="#ArialMT-33" x="519.628906"/>
      <use xlink:href="#ArialMT-20" x="575.244141"/>
      <use xlink:href="#ArialMT-30" x="603.027344"/>
      <use xlink:href="#ArialMT-75" x="658.642578"/>
      <use xlink:href="#ArialMT-4d" x="714.257812"/>
      <use xlink:href="#ArialMT-5f" x="797.558594"/>
      <use xlink:href="#ArialMT-41" x="853.173828"/>
      <use xlink:href="#ArialMT-62" x="919.873047"/>
      <use xlink:href="#ArialMT-73" x="975.488281"/>
     </g>
    </g>
    <g id="line2d_36">
     <path d="M 256.255813 53.976122 
L 262.255813 53.976122 
L 268.255813 53.976122 
" style="fill: none; stroke: #f37651; stroke-width: 1.5; stroke-linecap: round"/>
    </g>
    <g id="text_16">
     <!-- t=0hrs FeCl3 50uM_Abs -->
     <g style="fill: #262626" transform="translate(273.055813 56.076122) scale(0.06 -0.06)">
      <defs>
       <path id="ArialMT-35" d="M 266 1200 
L 856 1250 
Q 922 819 1161 601 
Q 1400 384 1738 384 
Q 2144 384 2425 690 
Q 2706 997 2706 1503 
Q 2706 1984 2436 2262 
Q 2166 2541 1728 2541 
Q 1456 2541 1237 2417 
Q 1019 2294 894 2097 
L 366 2166 
L 809 4519 
L 3088 4519 
L 3088 3981 
L 1259 3981 
L 1013 2750 
Q 1425 3038 1878 3038 
Q 2478 3038 2890 2622 
Q 3303 2206 3303 1553 
Q 3303 931 2941 478 
Q 2500 -78 1738 -78 
Q 1113 -78 717 272 
Q 322 622 266 1200 
z
" transform="scale(0.015625)"/>
      </defs>
      <use xlink:href="#ArialMT-74"/>
      <use xlink:href="#ArialMT-3d" x="27.783203"/>
      <use xlink:href="#ArialMT-30" x="86.181641"/>
      <use xlink:href="#ArialMT-68" x="141.796875"/>
      <use xlink:href="#ArialMT-72" x="197.412109"/>
      <use xlink:href="#ArialMT-73" x="230.712891"/>
      <use xlink:href="#ArialMT-20" x="280.712891"/>
      <use xlink:href="#ArialMT-46" x="308.496094"/>
      <use xlink:href="#ArialMT-65" x="369.580078"/>
      <use xlink:href="#ArialMT-43" x="425.195312"/>
      <use xlink:href="#ArialMT-6c" x="497.412109"/>
      <use xlink:href="#ArialMT-33" x="519.628906"/>
      <use xlink:href="#ArialMT-20" x="575.244141"/>
      <use xlink:href="#ArialMT-35" x="603.027344"/>
      <use xlink:href="#ArialMT-30" x="658.642578"/>
      <use xlink:href="#ArialMT-75" x="714.257812"/>
      <use xlink:href="#ArialMT-4d" x="769.873047"/>
      <use xlink:href="#ArialMT-5f" x="853.173828"/>
      <use xlink:href="#ArialMT-41" x="908.789062"/>
      <use xlink:href="#ArialMT-62" x="975.488281"/>
      <use xlink:href="#ArialMT-73" x="1031.103516"/>
     </g>
    </g>
    <g id="line2d_37">
     <path d="M 256.255813 62.536434 
L 262.255813 62.536434 
L 268.255813 62.536434 
" style="fill: none; stroke: #e13342; stroke-width: 1.5; stroke-linecap: round"/>
    </g>
    <g id="text_17">
     <!-- t=1hrs FeCl3 50uM_Abs -->
     <g style="fill: #262626" transform="translate(273.055813 64.636434) scale(0.06 -0.06)">
      <use xlink:href="#ArialMT-74"/>
      <use xlink:href="#ArialMT-3d" x="27.783203"/>
      <use xlink:href="#ArialMT-31" x="86.181641"/>
      <use xlink:href="#ArialMT-68" x="141.796875"/>
      <use xlink:href="#ArialMT-72" x="197.412109"/>
      <use xlink:href="#ArialMT-73" x="230.712891"/>
      <use xlink:href="#ArialMT-20" x="280.712891"/>
      <use xlink:href="#ArialMT-46" x="308.496094"/>
      <use xlink:href="#ArialMT-65" x="369.580078"/>
      <use xlink:href="#ArialMT-43" x="425.195312"/>
      <use xlink:href="#ArialMT-6c" x="497.412109"/>
      <use xlink:href="#ArialMT-33" x="519.628906"/>
      <use xlink:href="#ArialMT-20" x="575.244141"/>
      <use xlink:href="#ArialMT-35" x="603.027344"/>
      <use xlink:href="#ArialMT-30" x="658.642578"/>
      <use xlink:href="#ArialMT-75" x="714.257812"/>
      <use xlink:href="#ArialMT-4d" x="769.873047"/>
      <use xlink:href="#ArialMT-5f" x="853.173828"/>
      <use xlink:href="#ArialMT-41" x="908.789062"/>
      <use xlink:href="#ArialMT-62" x="975.488281"/>
      <use xlink:href="#ArialMT-73" x="1031.103516"/>
     </g>
    </g>
    <g id="line2d_38">
     <path d="M 256.255813 71.096747 
L 262.255813 71.096747 
L 268.255813 71.096747 
" style="fill: none; stroke: #ad1759; stroke-width: 1.5; stroke-linecap: round"/>
    </g>
    <g id="text_18">
     <!-- t=3hrs FeCl3 50uM_Abs -->
     <g style="fill: #262626" transform="translate(273.055813 73.196747) scale(0.06 -0.06)">
      <use xlink:href="#ArialMT-74"/>
      <use xlink:href="#ArialMT-3d" x="27.783203"/>
      <use xlink:href="#ArialMT-33" x="86.181641"/>
      <use xlink:href="#ArialMT-68" x="141.796875"/>
      <use xlink:href="#ArialMT-72" x="197.412109"/>
      <use xlink:href="#ArialMT-73" x="230.712891"/>
      <use xlink:href="#ArialMT-20" x="280.712891"/>
      <use xlink:href="#ArialMT-46" x="308.496094"/>
      <use xlink:href="#ArialMT-65" x="369.580078"/>
      <use xlink:href="#ArialMT-43" x="425.195312"/>
      <use xlink:href="#ArialMT-6c" x="497.412109"/>
      <use xlink:href="#ArialMT-33" x="519.628906"/>
      <use xlink:href="#ArialMT-20" x="575.244141"/>
      <use xlink:href="#ArialMT-35" x="603.027344"/>
      <use xlink:href="#ArialMT-30" x="658.642578"/>
      <use xlink:href="#ArialMT-75" x="714.257812"/>
      <use xlink:href="#ArialMT-4d" x="769.873047"/>
      <use xlink:href="#ArialMT-5f" x="853.173828"/>
      <use xlink:href="#ArialMT-41" x="908.789062"/>
      <use xlink:href="#ArialMT-62" x="975.488281"/>
      <use xlink:href="#ArialMT-73" x="1031.103516"/>
     </g>
    </g>
    <g id="line2d_39">
     <path d="M 256.255813 79.657059 
L 262.255813 79.657059 
L 268.255813 79.657059 
" style="fill: none; stroke: #701f57; stroke-width: 1.5; stroke-linecap: round"/>
    </g>
    <g id="text_19">
     <!-- t=5hrs FeCl3 50uM_Abs -->
     <g style="fill: #262626" transform="translate(273.055813 81.757059) scale(0.06 -0.06)">
      <use xlink:href="#ArialMT-74"/>
      <use xlink:href="#ArialMT-3d" x="27.783203"/>
      <use xlink:href="#ArialMT-35" x="86.181641"/>
      <use xlink:href="#ArialMT-68" x="141.796875"/>
      <use xlink:href="#ArialMT-72" x="197.412109"/>
      <use xlink:href="#ArialMT-73" x="230.712891"/>
      <use xlink:href="#ArialMT-20" x="280.712891"/>
      <use xlink:href="#ArialMT-46" x="308.496094"/>
      <use xlink:href="#ArialMT-65" x="369.580078"/>
      <use xlink:href="#ArialMT-43" x="425.195312"/>
      <use xlink:href="#ArialMT-6c" x="497.412109"/>
      <use xlink:href="#ArialMT-33" x="519.628906"/>
      <use xlink:href="#ArialMT-20" x="575.244141"/>
      <use xlink:href="#ArialMT-35" x="603.027344"/>
      <use xlink:href="#ArialMT-30" x="658.642578"/>
      <use xlink:href="#ArialMT-75" x="714.257812"/>
      <use xlink:href="#ArialMT-4d" x="769.873047"/>
      <use xlink:href="#ArialMT-5f" x="853.173828"/>
      <use xlink:href="#ArialMT-41" x="908.789062"/>
      <use xlink:href="#ArialMT-62" x="975.488281"/>
      <use xlink:href="#ArialMT-73" x="1031.103516"/>
     </g>
    </g>
    <g id="line2d_40">
     <path d="M 256.255813 88.217372 
L 262.255813 88.217372 
L 268.255813 88.217372 
" style="fill: none; stroke: #35193e; stroke-width: 1.5; stroke-linecap: round"/>
    </g>
    <g id="text_20">
     <!-- imine t=24hrs FeCl3 50uM_Abs -->
     <g style="fill: #262626" transform="translate(273.055813 90.317372) scale(0.06 -0.06)">
      <defs>
       <path id="ArialMT-69" d="M 425 3934 
L 425 4581 
L 988 4581 
L 988 3934 
L 425 3934 
z
M 425 0 
L 425 3319 
L 988 3319 
L 988 0 
L 425 0 
z
" transform="scale(0.015625)"/>
      </defs>
      <use xlink:href="#ArialMT-69"/>
      <use xlink:href="#ArialMT-6d" x="22.216797"/>
      <use xlink:href="#ArialMT-69" x="105.517578"/>
      <use xlink:href="#ArialMT-6e" x="127.734375"/>
      <use xlink:href="#ArialMT-65" x="183.349609"/>
      <use xlink:href="#ArialMT-20" x="238.964844"/>
      <use xlink:href="#ArialMT-74" x="266.748047"/>
      <use xlink:href="#ArialMT-3d" x="294.53125"/>
      <use xlink:href="#ArialMT-32" x="352.929688"/>
      <use xlink:href="#ArialMT-34" x="408.544922"/>
      <use xlink:href="#ArialMT-68" x="464.160156"/>
      <use xlink:href="#ArialMT-72" x="519.775391"/>
      <use xlink:href="#ArialMT-73" x="553.076172"/>
      <use xlink:href="#ArialMT-20" x="603.076172"/>
      <use xlink:href="#ArialMT-46" x="630.859375"/>
      <use xlink:href="#ArialMT-65" x="691.943359"/>
      <use xlink:href="#ArialMT-43" x="747.558594"/>
      <use xlink:href="#ArialMT-6c" x="819.775391"/>
      <use xlink:href="#ArialMT-33" x="841.992188"/>
      <use xlink:href="#ArialMT-20" x="897.607422"/>
      <use xlink:href="#ArialMT-35" x="925.390625"/>
      <use xlink:href="#ArialMT-30" x="981.005859"/>
      <use xlink:href="#ArialMT-75" x="1036.621094"/>
      <use xlink:href="#ArialMT-4d" x="1092.236328"/>
      <use xlink:href="#ArialMT-5f" x="1175.537109"/>
      <use xlink:href="#ArialMT-41" x="1231.152344"/>
      <use xlink:href="#ArialMT-62" x="1297.851562"/>
      <use xlink:href="#ArialMT-73" x="1353.466797"/>
     </g>
    </g>
   </g>
  </g>
 </g>
 <defs>
  <clipPath id="pbbeee96d1c">
   <rect x="41.25125" y="11.136797" width="357.12" height="266.112"/>
  </clipPath>
 </defs>
</svg>
