<?xml version="1.0" encoding="utf-8" standalone="no"?>
<!DOCTYPE svg PUBLIC "-//W3C//DTD SVG 1.1//EN"
  "http://www.w3.org/Graphics/SVG/1.1/DTD/svg11.dtd">
<svg xmlns:xlink="http://www.w3.org/1999/xlink" width="417.805313pt" height="313.269891pt" viewBox="0 0 417.805313 313.269891" xmlns="http://www.w3.org/2000/svg" version="1.1">
 <metadata>
  <rdf:RDF xmlns:dc="http://purl.org/dc/elements/1.1/" xmlns:cc="http://creativecommons.org/ns#" xmlns:rdf="http://www.w3.org/1999/02/22-rdf-syntax-ns#">
   <cc:Work>
    <dc:type rdf:resource="http://purl.org/dc/dcmitype/StillImage"/>
    <dc:date>2024-09-05T10:16:34.442431</dc:date>
    <dc:format>image/svg+xml</dc:format>
    <dc:creator>
     <cc:Agent>
      <dc:title>Matplotlib v3.7.1, https://matplotlib.org/</dc:title>
     </cc:Agent>
    </dc:creator>
   </cc:Work>
  </rdf:RDF>
 </metadata>
 <defs>
  <style type="text/css">*{stroke-linejoin: round; stroke-linecap: butt}</style>
 </defs>
 <g id="figure_1">
  <g id="patch_1">
   <path d="M 0 313.269891 
L 417.805313 313.269891 
L 417.805313 0 
L 0 0 
z
" style="fill: #ffffff"/>
  </g>
  <g id="axes_1">
   <g id="patch_2">
    <path d="M 41.25125 277.248797 
L 398.37125 277.248797 
L 398.37125 11.136797 
L 41.25125 11.136797 
z
" style="fill: #ffffff"/>
   </g>
   <g id="matplotlib.axis_1">
    <g id="xtick_1">
     <g id="line2d_1">
      <defs>
       <path id="m7fcf924cc2" d="M 0 0 
L 0 -6 
" style="stroke: #262626; stroke-width: 1.25"/>
      </defs>
      <g>
       <use xlink:href="#m7fcf924cc2" x="73.716705" y="277.248797" style="fill: #262626; stroke: #262626; stroke-width: 1.25"/>
      </g>
     </g>
     <g id="text_1">
      <!-- 400 -->
      <g style="fill: #262626" transform="translate(64.541158 288.622391) scale(0.11 -0.11)">
       <defs>
        <path id="ArialMT-34" d="M 2069 0 
L 2069 1097 
L 81 1097 
L 81 1613 
L 2172 4581 
L 2631 4581 
L 2631 1613 
L 3250 1613 
L 3250 1097 
L 2631 1097 
L 2631 0 
L 2069 0 
z
M 2069 1613 
L 2069 3678 
L 634 1613 
L 2069 1613 
z
" transform="scale(0.015625)"/>
        <path id="ArialMT-30" d="M 266 2259 
Q 266 3072 433 3567 
Q 600 4063 929 4331 
Q 1259 4600 1759 4600 
Q 2128 4600 2406 4451 
Q 2684 4303 2865 4023 
Q 3047 3744 3150 3342 
Q 3253 2941 3253 2259 
Q 3253 1453 3087 958 
Q 2922 463 2592 192 
Q 2263 -78 1759 -78 
Q 1097 -78 719 397 
Q 266 969 266 2259 
z
M 844 2259 
Q 844 1131 1108 757 
Q 1372 384 1759 384 
Q 2147 384 2411 759 
Q 2675 1134 2675 2259 
Q 2675 3391 2411 3762 
Q 2147 4134 1753 4134 
Q 1366 4134 1134 3806 
Q 844 3388 844 2259 
z
" transform="scale(0.015625)"/>
       </defs>
       <use xlink:href="#ArialMT-34"/>
       <use xlink:href="#ArialMT-30" x="55.615234"/>
       <use xlink:href="#ArialMT-30" x="111.230469"/>
      </g>
     </g>
    </g>
    <g id="xtick_2">
     <g id="line2d_2">
      <g>
       <use xlink:href="#m7fcf924cc2" x="138.647614" y="277.248797" style="fill: #262626; stroke: #262626; stroke-width: 1.25"/>
      </g>
     </g>
     <g id="text_2">
      <!-- 600 -->
      <g style="fill: #262626" transform="translate(129.472067 288.622391) scale(0.11 -0.11)">
       <defs>
        <path id="ArialMT-36" d="M 3184 3459 
L 2625 3416 
Q 2550 3747 2413 3897 
Q 2184 4138 1850 4138 
Q 1581 4138 1378 3988 
Q 1113 3794 959 3422 
Q 806 3050 800 2363 
Q 1003 2672 1297 2822 
Q 1591 2972 1913 2972 
Q 2475 2972 2870 2558 
Q 3266 2144 3266 1488 
Q 3266 1056 3080 686 
Q 2894 316 2569 119 
Q 2244 -78 1831 -78 
Q 1128 -78 684 439 
Q 241 956 241 2144 
Q 241 3472 731 4075 
Q 1159 4600 1884 4600 
Q 2425 4600 2770 4297 
Q 3116 3994 3184 3459 
z
M 888 1484 
Q 888 1194 1011 928 
Q 1134 663 1356 523 
Q 1578 384 1822 384 
Q 2178 384 2434 671 
Q 2691 959 2691 1453 
Q 2691 1928 2437 2201 
Q 2184 2475 1800 2475 
Q 1419 2475 1153 2201 
Q 888 1928 888 1484 
z
" transform="scale(0.015625)"/>
       </defs>
       <use xlink:href="#ArialMT-36"/>
       <use xlink:href="#ArialMT-30" x="55.615234"/>
       <use xlink:href="#ArialMT-30" x="111.230469"/>
      </g>
     </g>
    </g>
    <g id="xtick_3">
     <g id="line2d_3">
      <g>
       <use xlink:href="#m7fcf924cc2" x="203.578523" y="277.248797" style="fill: #262626; stroke: #262626; stroke-width: 1.25"/>
      </g>
     </g>
     <g id="text_3">
      <!-- 800 -->
      <g style="fill: #262626" transform="translate(194.402976 288.622391) scale(0.11 -0.11)">
       <defs>
        <path id="ArialMT-38" d="M 1131 2484 
Q 781 2613 612 2850 
Q 444 3088 444 3419 
Q 444 3919 803 4259 
Q 1163 4600 1759 4600 
Q 2359 4600 2725 4251 
Q 3091 3903 3091 3403 
Q 3091 3084 2923 2848 
Q 2756 2613 2416 2484 
Q 2838 2347 3058 2040 
Q 3278 1734 3278 1309 
Q 3278 722 2862 322 
Q 2447 -78 1769 -78 
Q 1091 -78 675 323 
Q 259 725 259 1325 
Q 259 1772 486 2073 
Q 713 2375 1131 2484 
z
M 1019 3438 
Q 1019 3113 1228 2906 
Q 1438 2700 1772 2700 
Q 2097 2700 2305 2904 
Q 2513 3109 2513 3406 
Q 2513 3716 2298 3927 
Q 2084 4138 1766 4138 
Q 1444 4138 1231 3931 
Q 1019 3725 1019 3438 
z
M 838 1322 
Q 838 1081 952 856 
Q 1066 631 1291 507 
Q 1516 384 1775 384 
Q 2178 384 2440 643 
Q 2703 903 2703 1303 
Q 2703 1709 2433 1975 
Q 2163 2241 1756 2241 
Q 1359 2241 1098 1978 
Q 838 1716 838 1322 
z
" transform="scale(0.015625)"/>
       </defs>
       <use xlink:href="#ArialMT-38"/>
       <use xlink:href="#ArialMT-30" x="55.615234"/>
       <use xlink:href="#ArialMT-30" x="111.230469"/>
      </g>
     </g>
    </g>
    <g id="xtick_4">
     <g id="line2d_4">
      <g>
       <use xlink:href="#m7fcf924cc2" x="268.509432" y="277.248797" style="fill: #262626; stroke: #262626; stroke-width: 1.25"/>
      </g>
     </g>
     <g id="text_4">
      <!-- 1000 -->
      <g style="fill: #262626" transform="translate(256.275369 288.622391) scale(0.11 -0.11)">
       <defs>
        <path id="ArialMT-31" d="M 2384 0 
L 1822 0 
L 1822 3584 
Q 1619 3391 1289 3197 
Q 959 3003 697 2906 
L 697 3450 
Q 1169 3672 1522 3987 
Q 1875 4303 2022 4600 
L 2384 4600 
L 2384 0 
z
" transform="scale(0.015625)"/>
       </defs>
       <use xlink:href="#ArialMT-31"/>
       <use xlink:href="#ArialMT-30" x="55.615234"/>
       <use xlink:href="#ArialMT-30" x="111.230469"/>
       <use xlink:href="#ArialMT-30" x="166.845703"/>
      </g>
     </g>
    </g>
    <g id="xtick_5">
     <g id="line2d_5">
      <g>
       <use xlink:href="#m7fcf924cc2" x="333.440341" y="277.248797" style="fill: #262626; stroke: #262626; stroke-width: 1.25"/>
      </g>
     </g>
     <g id="text_5">
      <!-- 1200 -->
      <g style="fill: #262626" transform="translate(321.206278 288.622391) scale(0.11 -0.11)">
       <defs>
        <path id="ArialMT-32" d="M 3222 541 
L 3222 0 
L 194 0 
Q 188 203 259 391 
Q 375 700 629 1000 
Q 884 1300 1366 1694 
Q 2113 2306 2375 2664 
Q 2638 3022 2638 3341 
Q 2638 3675 2398 3904 
Q 2159 4134 1775 4134 
Q 1369 4134 1125 3890 
Q 881 3647 878 3216 
L 300 3275 
Q 359 3922 746 4261 
Q 1134 4600 1788 4600 
Q 2447 4600 2831 4234 
Q 3216 3869 3216 3328 
Q 3216 3053 3103 2787 
Q 2991 2522 2730 2228 
Q 2469 1934 1863 1422 
Q 1356 997 1212 845 
Q 1069 694 975 541 
L 3222 541 
z
" transform="scale(0.015625)"/>
       </defs>
       <use xlink:href="#ArialMT-31"/>
       <use xlink:href="#ArialMT-32" x="55.615234"/>
       <use xlink:href="#ArialMT-30" x="111.230469"/>
       <use xlink:href="#ArialMT-30" x="166.845703"/>
      </g>
     </g>
    </g>
    <g id="xtick_6">
     <g id="line2d_6">
      <g>
       <use xlink:href="#m7fcf924cc2" x="398.37125" y="277.248797" style="fill: #262626; stroke: #262626; stroke-width: 1.25"/>
      </g>
     </g>
     <g id="text_6">
      <!-- 1400 -->
      <g style="fill: #262626" transform="translate(386.137188 288.622391) scale(0.11 -0.11)">
       <use xlink:href="#ArialMT-31"/>
       <use xlink:href="#ArialMT-34" x="55.615234"/>
       <use xlink:href="#ArialMT-30" x="111.230469"/>
       <use xlink:href="#ArialMT-30" x="166.845703"/>
      </g>
     </g>
    </g>
    <g id="xtick_7">
     <g id="line2d_7">
      <defs>
       <path id="md3c2febfb7" d="M 0 0 
L 0 -4 
" style="stroke: #262626"/>
      </defs>
      <g>
       <use xlink:href="#md3c2febfb7" x="106.182159" y="277.248797" style="fill: #262626; stroke: #262626"/>
      </g>
     </g>
    </g>
    <g id="xtick_8">
     <g id="line2d_8">
      <g>
       <use xlink:href="#md3c2febfb7" x="171.113068" y="277.248797" style="fill: #262626; stroke: #262626"/>
      </g>
     </g>
    </g>
    <g id="xtick_9">
     <g id="line2d_9">
      <g>
       <use xlink:href="#md3c2febfb7" x="236.043977" y="277.248797" style="fill: #262626; stroke: #262626"/>
      </g>
     </g>
    </g>
    <g id="xtick_10">
     <g id="line2d_10">
      <g>
       <use xlink:href="#md3c2febfb7" x="300.974886" y="277.248797" style="fill: #262626; stroke: #262626"/>
      </g>
     </g>
    </g>
    <g id="xtick_11">
     <g id="line2d_11">
      <g>
       <use xlink:href="#md3c2febfb7" x="365.905795" y="277.248797" style="fill: #262626; stroke: #262626"/>
      </g>
     </g>
    </g>
    <g id="text_7">
     <!-- Wavelength (nm) -->
     <g style="fill: #262626" transform="translate(174.356562 303.544266) scale(0.12 -0.12)">
      <defs>
       <path id="ArialMT-57" d="M 1294 0 
L 78 4581 
L 700 4581 
L 1397 1578 
Q 1509 1106 1591 641 
Q 1766 1375 1797 1488 
L 2669 4581 
L 3400 4581 
L 4056 2263 
Q 4303 1400 4413 641 
Q 4500 1075 4641 1638 
L 5359 4581 
L 5969 4581 
L 4713 0 
L 4128 0 
L 3163 3491 
Q 3041 3928 3019 4028 
Q 2947 3713 2884 3491 
L 1913 0 
L 1294 0 
z
" transform="scale(0.015625)"/>
       <path id="ArialMT-61" d="M 2588 409 
Q 2275 144 1986 34 
Q 1697 -75 1366 -75 
Q 819 -75 525 192 
Q 231 459 231 875 
Q 231 1119 342 1320 
Q 453 1522 633 1644 
Q 813 1766 1038 1828 
Q 1203 1872 1538 1913 
Q 2219 1994 2541 2106 
Q 2544 2222 2544 2253 
Q 2544 2597 2384 2738 
Q 2169 2928 1744 2928 
Q 1347 2928 1158 2789 
Q 969 2650 878 2297 
L 328 2372 
Q 403 2725 575 2942 
Q 747 3159 1072 3276 
Q 1397 3394 1825 3394 
Q 2250 3394 2515 3294 
Q 2781 3194 2906 3042 
Q 3031 2891 3081 2659 
Q 3109 2516 3109 2141 
L 3109 1391 
Q 3109 606 3145 398 
Q 3181 191 3288 0 
L 2700 0 
Q 2613 175 2588 409 
z
M 2541 1666 
Q 2234 1541 1622 1453 
Q 1275 1403 1131 1340 
Q 988 1278 909 1158 
Q 831 1038 831 891 
Q 831 666 1001 516 
Q 1172 366 1500 366 
Q 1825 366 2078 508 
Q 2331 650 2450 897 
Q 2541 1088 2541 1459 
L 2541 1666 
z
" transform="scale(0.015625)"/>
       <path id="ArialMT-76" d="M 1344 0 
L 81 3319 
L 675 3319 
L 1388 1331 
Q 1503 1009 1600 663 
Q 1675 925 1809 1294 
L 2547 3319 
L 3125 3319 
L 1869 0 
L 1344 0 
z
" transform="scale(0.015625)"/>
       <path id="ArialMT-65" d="M 2694 1069 
L 3275 997 
Q 3138 488 2766 206 
Q 2394 -75 1816 -75 
Q 1088 -75 661 373 
Q 234 822 234 1631 
Q 234 2469 665 2931 
Q 1097 3394 1784 3394 
Q 2450 3394 2872 2941 
Q 3294 2488 3294 1666 
Q 3294 1616 3291 1516 
L 816 1516 
Q 847 969 1125 678 
Q 1403 388 1819 388 
Q 2128 388 2347 550 
Q 2566 713 2694 1069 
z
M 847 1978 
L 2700 1978 
Q 2663 2397 2488 2606 
Q 2219 2931 1791 2931 
Q 1403 2931 1139 2672 
Q 875 2413 847 1978 
z
" transform="scale(0.015625)"/>
       <path id="ArialMT-6c" d="M 409 0 
L 409 4581 
L 972 4581 
L 972 0 
L 409 0 
z
" transform="scale(0.015625)"/>
       <path id="ArialMT-6e" d="M 422 0 
L 422 3319 
L 928 3319 
L 928 2847 
Q 1294 3394 1984 3394 
Q 2284 3394 2536 3286 
Q 2788 3178 2913 3003 
Q 3038 2828 3088 2588 
Q 3119 2431 3119 2041 
L 3119 0 
L 2556 0 
L 2556 2019 
Q 2556 2363 2490 2533 
Q 2425 2703 2258 2804 
Q 2091 2906 1866 2906 
Q 1506 2906 1245 2678 
Q 984 2450 984 1813 
L 984 0 
L 422 0 
z
" transform="scale(0.015625)"/>
       <path id="ArialMT-67" d="M 319 -275 
L 866 -356 
Q 900 -609 1056 -725 
Q 1266 -881 1628 -881 
Q 2019 -881 2231 -725 
Q 2444 -569 2519 -288 
Q 2563 -116 2559 434 
Q 2191 0 1641 0 
Q 956 0 581 494 
Q 206 988 206 1678 
Q 206 2153 378 2554 
Q 550 2956 876 3175 
Q 1203 3394 1644 3394 
Q 2231 3394 2613 2919 
L 2613 3319 
L 3131 3319 
L 3131 450 
Q 3131 -325 2973 -648 
Q 2816 -972 2473 -1159 
Q 2131 -1347 1631 -1347 
Q 1038 -1347 672 -1080 
Q 306 -813 319 -275 
z
M 784 1719 
Q 784 1066 1043 766 
Q 1303 466 1694 466 
Q 2081 466 2343 764 
Q 2606 1063 2606 1700 
Q 2606 2309 2336 2618 
Q 2066 2928 1684 2928 
Q 1309 2928 1046 2623 
Q 784 2319 784 1719 
z
" transform="scale(0.015625)"/>
       <path id="ArialMT-74" d="M 1650 503 
L 1731 6 
Q 1494 -44 1306 -44 
Q 1000 -44 831 53 
Q 663 150 594 308 
Q 525 466 525 972 
L 525 2881 
L 113 2881 
L 113 3319 
L 525 3319 
L 525 4141 
L 1084 4478 
L 1084 3319 
L 1650 3319 
L 1650 2881 
L 1084 2881 
L 1084 941 
Q 1084 700 1114 631 
Q 1144 563 1211 522 
Q 1278 481 1403 481 
Q 1497 481 1650 503 
z
" transform="scale(0.015625)"/>
       <path id="ArialMT-68" d="M 422 0 
L 422 4581 
L 984 4581 
L 984 2938 
Q 1378 3394 1978 3394 
Q 2347 3394 2619 3248 
Q 2891 3103 3008 2847 
Q 3125 2591 3125 2103 
L 3125 0 
L 2563 0 
L 2563 2103 
Q 2563 2525 2380 2717 
Q 2197 2909 1863 2909 
Q 1613 2909 1392 2779 
Q 1172 2650 1078 2428 
Q 984 2206 984 1816 
L 984 0 
L 422 0 
z
" transform="scale(0.015625)"/>
       <path id="ArialMT-20" transform="scale(0.015625)"/>
       <path id="ArialMT-28" d="M 1497 -1347 
Q 1031 -759 709 28 
Q 388 816 388 1659 
Q 388 2403 628 3084 
Q 909 3875 1497 4659 
L 1900 4659 
Q 1522 4009 1400 3731 
Q 1209 3300 1100 2831 
Q 966 2247 966 1656 
Q 966 153 1900 -1347 
L 1497 -1347 
z
" transform="scale(0.015625)"/>
       <path id="ArialMT-6d" d="M 422 0 
L 422 3319 
L 925 3319 
L 925 2853 
Q 1081 3097 1340 3245 
Q 1600 3394 1931 3394 
Q 2300 3394 2536 3241 
Q 2772 3088 2869 2813 
Q 3263 3394 3894 3394 
Q 4388 3394 4653 3120 
Q 4919 2847 4919 2278 
L 4919 0 
L 4359 0 
L 4359 2091 
Q 4359 2428 4304 2576 
Q 4250 2725 4106 2815 
Q 3963 2906 3769 2906 
Q 3419 2906 3187 2673 
Q 2956 2441 2956 1928 
L 2956 0 
L 2394 0 
L 2394 2156 
Q 2394 2531 2256 2718 
Q 2119 2906 1806 2906 
Q 1569 2906 1367 2781 
Q 1166 2656 1075 2415 
Q 984 2175 984 1722 
L 984 0 
L 422 0 
z
" transform="scale(0.015625)"/>
       <path id="ArialMT-29" d="M 791 -1347 
L 388 -1347 
Q 1322 153 1322 1656 
Q 1322 2244 1188 2822 
Q 1081 3291 891 3722 
Q 769 4003 388 4659 
L 791 4659 
Q 1378 3875 1659 3084 
Q 1900 2403 1900 1659 
Q 1900 816 1576 28 
Q 1253 -759 791 -1347 
z
" transform="scale(0.015625)"/>
      </defs>
      <use xlink:href="#ArialMT-57"/>
      <use xlink:href="#ArialMT-61" x="90.634766"/>
      <use xlink:href="#ArialMT-76" x="146.25"/>
      <use xlink:href="#ArialMT-65" x="196.25"/>
      <use xlink:href="#ArialMT-6c" x="251.865234"/>
      <use xlink:href="#ArialMT-65" x="274.082031"/>
      <use xlink:href="#ArialMT-6e" x="329.697266"/>
      <use xlink:href="#ArialMT-67" x="385.3125"/>
      <use xlink:href="#ArialMT-74" x="440.927734"/>
      <use xlink:href="#ArialMT-68" x="468.710938"/>
      <use xlink:href="#ArialMT-20" x="524.326172"/>
      <use xlink:href="#ArialMT-28" x="552.109375"/>
      <use xlink:href="#ArialMT-6e" x="585.410156"/>
      <use xlink:href="#ArialMT-6d" x="641.025391"/>
      <use xlink:href="#ArialMT-29" x="724.326172"/>
     </g>
    </g>
   </g>
   <g id="matplotlib.axis_2">
    <g id="ytick_1">
     <g id="line2d_12">
      <defs>
       <path id="ma974433d5e" d="M 0 0 
L 6 0 
" style="stroke: #262626; stroke-width: 1.25"/>
      </defs>
      <g>
       <use xlink:href="#ma974433d5e" x="41.25125" y="277.248797" style="fill: #262626; stroke: #262626; stroke-width: 1.25"/>
      </g>
     </g>
     <g id="text_8">
      <!-- 0.0 -->
      <g style="fill: #262626" transform="translate(22.46125 281.185594) scale(0.11 -0.11)">
       <defs>
        <path id="ArialMT-2e" d="M 581 0 
L 581 641 
L 1222 641 
L 1222 0 
L 581 0 
z
" transform="scale(0.015625)"/>
       </defs>
       <use xlink:href="#ArialMT-30"/>
       <use xlink:href="#ArialMT-2e" x="55.615234"/>
       <use xlink:href="#ArialMT-30" x="83.398438"/>
      </g>
     </g>
    </g>
    <g id="ytick_2">
     <g id="line2d_13">
      <g>
       <use xlink:href="#ma974433d5e" x="41.25125" y="232.896797" style="fill: #262626; stroke: #262626; stroke-width: 1.25"/>
      </g>
     </g>
     <g id="text_9">
      <!-- 0.2 -->
      <g style="fill: #262626" transform="translate(22.46125 236.833594) scale(0.11 -0.11)">
       <use xlink:href="#ArialMT-30"/>
       <use xlink:href="#ArialMT-2e" x="55.615234"/>
       <use xlink:href="#ArialMT-32" x="83.398438"/>
      </g>
     </g>
    </g>
    <g id="ytick_3">
     <g id="line2d_14">
      <g>
       <use xlink:href="#ma974433d5e" x="41.25125" y="188.544797" style="fill: #262626; stroke: #262626; stroke-width: 1.25"/>
      </g>
     </g>
     <g id="text_10">
      <!-- 0.4 -->
      <g style="fill: #262626" transform="translate(22.46125 192.481594) scale(0.11 -0.11)">
       <use xlink:href="#ArialMT-30"/>
       <use xlink:href="#ArialMT-2e" x="55.615234"/>
       <use xlink:href="#ArialMT-34" x="83.398438"/>
      </g>
     </g>
    </g>
    <g id="ytick_4">
     <g id="line2d_15">
      <g>
       <use xlink:href="#ma974433d5e" x="41.25125" y="144.192797" style="fill: #262626; stroke: #262626; stroke-width: 1.25"/>
      </g>
     </g>
     <g id="text_11">
      <!-- 0.6 -->
      <g style="fill: #262626" transform="translate(22.46125 148.129594) scale(0.11 -0.11)">
       <use xlink:href="#ArialMT-30"/>
       <use xlink:href="#ArialMT-2e" x="55.615234"/>
       <use xlink:href="#ArialMT-36" x="83.398438"/>
      </g>
     </g>
    </g>
    <g id="ytick_5">
     <g id="line2d_16">
      <g>
       <use xlink:href="#ma974433d5e" x="41.25125" y="99.840797" style="fill: #262626; stroke: #262626; stroke-width: 1.25"/>
      </g>
     </g>
     <g id="text_12">
      <!-- 0.8 -->
      <g style="fill: #262626" transform="translate(22.46125 103.777594) scale(0.11 -0.11)">
       <use xlink:href="#ArialMT-30"/>
       <use xlink:href="#ArialMT-2e" x="55.615234"/>
       <use xlink:href="#ArialMT-38" x="83.398438"/>
      </g>
     </g>
    </g>
    <g id="ytick_6">
     <g id="line2d_17">
      <g>
       <use xlink:href="#ma974433d5e" x="41.25125" y="55.488797" style="fill: #262626; stroke: #262626; stroke-width: 1.25"/>
      </g>
     </g>
     <g id="text_13">
      <!-- 1.0 -->
      <g style="fill: #262626" transform="translate(22.46125 59.425594) scale(0.11 -0.11)">
       <use xlink:href="#ArialMT-31"/>
       <use xlink:href="#ArialMT-2e" x="55.615234"/>
       <use xlink:href="#ArialMT-30" x="83.398438"/>
      </g>
     </g>
    </g>
    <g id="ytick_7">
     <g id="line2d_18">
      <g>
       <use xlink:href="#ma974433d5e" x="41.25125" y="11.136797" style="fill: #262626; stroke: #262626; stroke-width: 1.25"/>
      </g>
     </g>
     <g id="text_14">
      <!-- 1.2 -->
      <g style="fill: #262626" transform="translate(22.46125 15.073594) scale(0.11 -0.11)">
       <use xlink:href="#ArialMT-31"/>
       <use xlink:href="#ArialMT-2e" x="55.615234"/>
       <use xlink:href="#ArialMT-32" x="83.398438"/>
      </g>
     </g>
    </g>
    <g id="ytick_8">
     <g id="line2d_19">
      <defs>
       <path id="mdc1d332858" d="M 0 0 
L 4 0 
" style="stroke: #262626"/>
      </defs>
      <g>
       <use xlink:href="#mdc1d332858" x="41.25125" y="255.072797" style="fill: #262626; stroke: #262626"/>
      </g>
     </g>
    </g>
    <g id="ytick_9">
     <g id="line2d_20">
      <g>
       <use xlink:href="#mdc1d332858" x="41.25125" y="210.720797" style="fill: #262626; stroke: #262626"/>
      </g>
     </g>
    </g>
    <g id="ytick_10">
     <g id="line2d_21">
      <g>
       <use xlink:href="#mdc1d332858" x="41.25125" y="166.368797" style="fill: #262626; stroke: #262626"/>
      </g>
     </g>
    </g>
    <g id="ytick_11">
     <g id="line2d_22">
      <g>
       <use xlink:href="#mdc1d332858" x="41.25125" y="122.016797" style="fill: #262626; stroke: #262626"/>
      </g>
     </g>
    </g>
    <g id="ytick_12">
     <g id="line2d_23">
      <g>
       <use xlink:href="#mdc1d332858" x="41.25125" y="77.664797" style="fill: #262626; stroke: #262626"/>
      </g>
     </g>
    </g>
    <g id="ytick_13">
     <g id="line2d_24">
      <g>
       <use xlink:href="#mdc1d332858" x="41.25125" y="33.312797" style="fill: #262626; stroke: #262626"/>
      </g>
     </g>
    </g>
    <g id="text_15">
     <!-- Absorbance (a.u.) -->
     <g style="fill: #262626" transform="translate(15.935625 191.881547) rotate(-90) scale(0.12 -0.12)">
      <defs>
       <path id="ArialMT-41" d="M -9 0 
L 1750 4581 
L 2403 4581 
L 4278 0 
L 3588 0 
L 3053 1388 
L 1138 1388 
L 634 0 
L -9 0 
z
M 1313 1881 
L 2866 1881 
L 2388 3150 
Q 2169 3728 2063 4100 
Q 1975 3659 1816 3225 
L 1313 1881 
z
" transform="scale(0.015625)"/>
       <path id="ArialMT-62" d="M 941 0 
L 419 0 
L 419 4581 
L 981 4581 
L 981 2947 
Q 1338 3394 1891 3394 
Q 2197 3394 2470 3270 
Q 2744 3147 2920 2923 
Q 3097 2700 3197 2384 
Q 3297 2069 3297 1709 
Q 3297 856 2875 390 
Q 2453 -75 1863 -75 
Q 1275 -75 941 416 
L 941 0 
z
M 934 1684 
Q 934 1088 1097 822 
Q 1363 388 1816 388 
Q 2184 388 2453 708 
Q 2722 1028 2722 1663 
Q 2722 2313 2464 2622 
Q 2206 2931 1841 2931 
Q 1472 2931 1203 2611 
Q 934 2291 934 1684 
z
" transform="scale(0.015625)"/>
       <path id="ArialMT-73" d="M 197 991 
L 753 1078 
Q 800 744 1014 566 
Q 1228 388 1613 388 
Q 2000 388 2187 545 
Q 2375 703 2375 916 
Q 2375 1106 2209 1216 
Q 2094 1291 1634 1406 
Q 1016 1563 777 1677 
Q 538 1791 414 1992 
Q 291 2194 291 2438 
Q 291 2659 392 2848 
Q 494 3038 669 3163 
Q 800 3259 1026 3326 
Q 1253 3394 1513 3394 
Q 1903 3394 2198 3281 
Q 2494 3169 2634 2976 
Q 2775 2784 2828 2463 
L 2278 2388 
Q 2241 2644 2061 2787 
Q 1881 2931 1553 2931 
Q 1166 2931 1000 2803 
Q 834 2675 834 2503 
Q 834 2394 903 2306 
Q 972 2216 1119 2156 
Q 1203 2125 1616 2013 
Q 2213 1853 2448 1751 
Q 2684 1650 2818 1456 
Q 2953 1263 2953 975 
Q 2953 694 2789 445 
Q 2625 197 2315 61 
Q 2006 -75 1616 -75 
Q 969 -75 630 194 
Q 291 463 197 991 
z
" transform="scale(0.015625)"/>
       <path id="ArialMT-6f" d="M 213 1659 
Q 213 2581 725 3025 
Q 1153 3394 1769 3394 
Q 2453 3394 2887 2945 
Q 3322 2497 3322 1706 
Q 3322 1066 3130 698 
Q 2938 331 2570 128 
Q 2203 -75 1769 -75 
Q 1072 -75 642 372 
Q 213 819 213 1659 
z
M 791 1659 
Q 791 1022 1069 705 
Q 1347 388 1769 388 
Q 2188 388 2466 706 
Q 2744 1025 2744 1678 
Q 2744 2294 2464 2611 
Q 2184 2928 1769 2928 
Q 1347 2928 1069 2612 
Q 791 2297 791 1659 
z
" transform="scale(0.015625)"/>
       <path id="ArialMT-72" d="M 416 0 
L 416 3319 
L 922 3319 
L 922 2816 
Q 1116 3169 1280 3281 
Q 1444 3394 1641 3394 
Q 1925 3394 2219 3213 
L 2025 2691 
Q 1819 2813 1613 2813 
Q 1428 2813 1281 2702 
Q 1134 2591 1072 2394 
Q 978 2094 978 1738 
L 978 0 
L 416 0 
z
" transform="scale(0.015625)"/>
       <path id="ArialMT-63" d="M 2588 1216 
L 3141 1144 
Q 3050 572 2676 248 
Q 2303 -75 1759 -75 
Q 1078 -75 664 370 
Q 250 816 250 1647 
Q 250 2184 428 2587 
Q 606 2991 970 3192 
Q 1334 3394 1763 3394 
Q 2303 3394 2647 3120 
Q 2991 2847 3088 2344 
L 2541 2259 
Q 2463 2594 2264 2762 
Q 2066 2931 1784 2931 
Q 1359 2931 1093 2626 
Q 828 2322 828 1663 
Q 828 994 1084 691 
Q 1341 388 1753 388 
Q 2084 388 2306 591 
Q 2528 794 2588 1216 
z
" transform="scale(0.015625)"/>
       <path id="ArialMT-75" d="M 2597 0 
L 2597 488 
Q 2209 -75 1544 -75 
Q 1250 -75 995 37 
Q 741 150 617 320 
Q 494 491 444 738 
Q 409 903 409 1263 
L 409 3319 
L 972 3319 
L 972 1478 
Q 972 1038 1006 884 
Q 1059 663 1231 536 
Q 1403 409 1656 409 
Q 1909 409 2131 539 
Q 2353 669 2445 892 
Q 2538 1116 2538 1541 
L 2538 3319 
L 3100 3319 
L 3100 0 
L 2597 0 
z
" transform="scale(0.015625)"/>
      </defs>
      <use xlink:href="#ArialMT-41"/>
      <use xlink:href="#ArialMT-62" x="66.699219"/>
      <use xlink:href="#ArialMT-73" x="122.314453"/>
      <use xlink:href="#ArialMT-6f" x="172.314453"/>
      <use xlink:href="#ArialMT-72" x="227.929688"/>
      <use xlink:href="#ArialMT-62" x="261.230469"/>
      <use xlink:href="#ArialMT-61" x="316.845703"/>
      <use xlink:href="#ArialMT-6e" x="372.460938"/>
      <use xlink:href="#ArialMT-63" x="428.076172"/>
      <use xlink:href="#ArialMT-65" x="478.076172"/>
      <use xlink:href="#ArialMT-20" x="533.691406"/>
      <use xlink:href="#ArialMT-28" x="561.474609"/>
      <use xlink:href="#ArialMT-61" x="594.775391"/>
      <use xlink:href="#ArialMT-2e" x="650.390625"/>
      <use xlink:href="#ArialMT-75" x="678.173828"/>
      <use xlink:href="#ArialMT-2e" x="733.789062"/>
      <use xlink:href="#ArialMT-29" x="761.572266"/>
     </g>
    </g>
   </g>
   <g id="PolyCollection_1"/>
   <g id="PolyCollection_2"/>
   <g id="PolyCollection_3"/>
   <g id="PolyCollection_4"/>
   <g id="PolyCollection_5"/>
   <g id="PolyCollection_6"/>
   <g id="PolyCollection_7"/>
   <g id="line2d_25">
    <path d="M 41.467683 232.823205 
L 42.116992 233.221534 
L 43.41561 233.504087 
L 44.714229 233.284422 
L 46.22929 232.721741 
L 48.177217 231.566243 
L 50.55801 229.938998 
L 54.237432 227.13607 
L 55.53605 225.946992 
L 57.051101 224.45914 
L 58.349719 222.890565 
L 62.67845 217.239928 
L 64.409944 215.158938 
L 65.492119 213.402282 
L 66.574305 211.107756 
L 67.872923 207.621581 
L 68.955108 204.12423 
L 70.470159 198.375238 
L 72.418086 189.873316 
L 75.881075 174.407034 
L 78.478311 162.906943 
L 80.426238 152.864875 
L 82.807032 139.183356 
L 86.919329 113.733509 
L 89.732999 94.670193 
L 93.41242 69.811583 
L 95.576781 56.762873 
L 97.308275 47.726596 
L 98.606893 41.925301 
L 99.689068 37.831049 
L 100.771253 34.463835 
L 101.853438 31.869976 
L 102.935614 30.096209 
L 103.584923 29.466375 
L 104.234232 29.152 
L 104.883541 29.221949 
L 105.316417 29.479355 
L 105.749293 29.917741 
L 106.398602 30.947972 
L 107.047911 32.44448 
L 107.913653 35.212816 
L 108.779395 38.842828 
L 109.861581 44.797848 
L 110.943766 51.971031 
L 112.242384 62.070888 
L 114.406734 81.352974 
L 117.003971 106.655944 
L 118.951898 127.546175 
L 120.683402 148.420175 
L 122.631329 174.626696 
L 126.310741 224.595149 
L 127.825802 241.299521 
L 128.907977 250.873767 
L 129.990172 258.311592 
L 130.855905 262.933094 
L 131.721657 266.449802 
L 132.587409 269.118308 
L 133.453141 271.082769 
L 134.318893 272.514935 
L 135.184645 273.566734 
L 136.26682 274.487224 
L 137.565438 275.207356 
L 139.0805 275.740028 
L 142.327045 276.381809 
L 145.790014 276.663942 
L 152.71599 276.942366 
L 223.707105 277.071253 
L 224.13999 277.000258 
L 225.005723 277.010474 
L 226.087918 277.166242 
L 226.304341 277.057789 
L 226.520784 277.12543 
L 226.95365 276.953871 
L 228.035845 277.058467 
L 228.468711 276.900335 
L 228.901577 277.129861 
L 229.11802 276.91177 
L 229.334463 277.208421 
L 229.767329 277.013305 
L 229.983772 277.185792 
L 230.200195 277.142091 
L 230.416638 276.982174 
L 230.633081 277.074347 
L 230.849505 276.720865 
L 231.065948 277.017546 
L 231.28239 277.108564 
L 231.498814 276.86115 
L 232.581009 277.231103 
L 232.797432 277.314193 
L 233.013875 277.27598 
L 233.446741 276.86802 
L 233.663184 277.3137 
L 233.879627 277.077964 
L 234.09605 277.140672 
L 234.312493 276.998319 
L 234.528936 277.12197 
L 234.745359 276.795699 
L 234.961802 277.2439 
L 235.178245 277.126033 
L 235.394668 276.668822 
L 235.611111 277.254526 
L 236.476843 277.288168 
L 243.835686 277.276978 
L 246.432923 277.285276 
L 262.232764 277.268634 
L 265.695752 277.284278 
L 272.188843 277.281145 
L 285.391468 277.273202 
L 366.98799 277.245766 
L 368.503032 277.254032 
L 381.056328 277.261701 
L 384.952182 277.189945 
L 386.90011 277.152872 
L 388.631614 277.12716 
L 391.012427 277.133534 
L 394.691819 277.106558 
L 395.990437 277.044196 
L 397.938364 276.7998 
L 398.37125 276.689466 
L 398.37125 276.689466 
" clip-path="url(#pfef8917ded)" style="fill: none; stroke: #f6bb97; stroke-linecap: round"/>
   </g>
   <g id="line2d_26">
    <path d="M 41.467683 227.046056 
L 41.900559 227.197316 
L 42.982744 227.164724 
L 43.41561 227.096721 
L 44.064919 226.889513 
L 46.445723 225.616614 
L 47.960774 224.62323 
L 49.042959 223.836618 
L 51.856629 221.890338 
L 54.453865 219.825526 
L 56.618235 217.627128 
L 58.349719 215.409364 
L 61.379832 210.892482 
L 64.626377 206.524479 
L 65.708562 204.387405 
L 66.790738 201.62702 
L 68.305799 196.747893 
L 69.82085 190.722277 
L 71.768777 181.495021 
L 79.993362 138.970164 
L 84.322093 112.484996 
L 89.516566 79.525371 
L 91.897359 64.956546 
L 93.845286 54.451877 
L 95.360348 47.404423 
L 96.442523 42.997566 
L 97.524708 39.16947 
L 98.823326 35.414891 
L 99.905511 33.017318 
L 100.771253 31.606992 
L 101.636995 30.713619 
L 102.069871 30.488517 
L 102.719181 30.351236 
L 103.152057 30.460442 
L 103.801366 30.888994 
L 104.450675 31.690608 
L 104.883541 32.407417 
L 105.749293 34.414056 
L 106.615035 37.131635 
L 107.69722 41.671649 
L 108.779395 47.346607 
L 109.861581 54.324139 
L 111.376632 65.785535 
L 113.324559 82.769446 
L 116.354662 112.479286 
L 118.302589 133.379048 
L 120.466959 159.017383 
L 126.310741 231.463861 
L 127.609359 243.78192 
L 128.691554 252.094033 
L 129.557286 257.41993 
L 130.423038 261.688388 
L 131.505214 265.710321 
L 132.370966 268.056379 
L 133.236718 269.803197 
L 134.10245 271.125336 
L 134.968202 272.094116 
L 136.26682 273.091069 
L 137.781881 273.841208 
L 139.513366 274.382593 
L 142.543468 274.934354 
L 146.439323 275.321912 
L 155.746093 275.625513 
L 161.806318 275.595834 
L 169.165141 275.718311 
L 170.463759 275.744163 
L 171.97882 275.73092 
L 175.008923 275.719454 
L 177.606159 275.706441 
L 180.203395 275.689809 
L 182.367766 275.678917 
L 183.666384 275.69027 
L 202.063481 275.497142 
L 204.227832 275.470634 
L 205.093584 275.480878 
L 205.742893 275.468347 
L 207.474377 275.453388 
L 208.123686 275.420684 
L 208.772995 275.433846 
L 210.288057 275.409169 
L 211.153809 275.387927 
L 211.586675 275.403148 
L 212.66885 275.399865 
L 214.400354 275.371024 
L 214.83322 275.358321 
L 216.348281 275.326919 
L 216.781148 275.349767 
L 217.6469 275.365164 
L 218.945518 275.379306 
L 219.161941 275.29703 
L 219.594827 275.296333 
L 220.460559 275.380828 
L 220.893445 275.220102 
L 221.109868 275.429857 
L 221.542754 275.31701 
L 221.97562 275.37611 
L 222.408486 275.304312 
L 224.13999 275.349024 
L 224.356414 275.211929 
L 224.572857 275.278863 
L 224.7893 275.189447 
L 225.655032 275.389033 
L 226.520784 275.383391 
L 226.737227 275.069237 
L 227.170093 275.206271 
L 227.386536 275.348626 
L 227.819402 275.234376 
L 228.035845 275.421029 
L 228.468711 275.184996 
L 228.685154 275.184092 
L 228.901577 275.31971 
L 229.11802 274.929032 
L 229.334463 275.428622 
L 229.550886 275.365246 
L 229.767329 275.16981 
L 229.983772 275.336482 
L 230.200195 275.288442 
L 230.416638 275.103029 
L 230.633081 275.202647 
L 230.849505 275.13221 
L 231.065948 275.449575 
L 231.28239 274.974947 
L 231.498814 275.296462 
L 231.715257 275.043879 
L 231.9317 275.063054 
L 232.148123 275.470926 
L 232.364566 275.242278 
L 232.581009 275.578044 
L 233.013875 275.369537 
L 233.230318 274.915077 
L 233.446741 275.359691 
L 233.663184 275.30102 
L 233.879627 275.084573 
L 234.09605 275.366938 
L 234.312493 274.94636 
L 234.528936 275.590946 
L 234.745359 275.155767 
L 235.178245 275.511978 
L 235.394668 274.607407 
L 235.611111 275.71207 
L 235.827534 276.11783 
L 238.641214 276.112498 
L 244.484995 276.063682 
L 255.306807 275.919291 
L 329.76091 275.060763 
L 331.27599 275.079359 
L 352.270305 275.386464 
L 360.711323 275.554882 
L 363.308559 275.584037 
L 383.220718 275.924191 
L 386.683686 275.893841 
L 388.198728 275.905705 
L 395.55759 275.931989 
L 397.721941 275.729928 
L 398.37125 275.578733 
L 398.37125 275.578733 
" clip-path="url(#pfef8917ded)" style="fill: none; stroke: #f4865e; stroke-linecap: round"/>
   </g>
   <g id="line2d_27">
    <path d="M 41.467683 228.940506 
L 42.333435 228.947633 
L 42.766301 228.900141 
L 43.41561 228.676468 
L 44.064919 228.410906 
L 44.930671 227.911223 
L 47.960774 225.901176 
L 49.475835 224.802251 
L 51.640195 223.332672 
L 52.505938 222.689732 
L 54.453865 221.006634 
L 56.401792 219.043091 
L 57.916853 217.192496 
L 61.596265 211.927921 
L 64.626377 207.91866 
L 65.492119 206.258733 
L 66.574305 203.621367 
L 67.65649 200.419496 
L 68.955108 195.772787 
L 70.253726 190.369444 
L 71.98522 182.154371 
L 80.209795 140.97235 
L 85.187835 112.846057 
L 89.516566 87.993395 
L 91.464493 77.371139 
L 93.195977 68.991292 
L 94.711038 62.735168 
L 96.009657 58.180231 
L 97.091832 54.927326 
L 98.39045 51.813526 
L 99.256202 50.172283 
L 100.121944 48.974606 
L 100.771253 48.3439 
L 101.420562 48.00827 
L 102.069871 47.940515 
L 102.719181 48.169132 
L 103.36849 48.704591 
L 104.017799 49.549137 
L 104.667108 50.688125 
L 105.53285 52.825411 
L 106.398602 55.579525 
L 107.264344 59.047697 
L 108.346529 64.329752 
L 109.428705 70.653446 
L 110.727323 79.539117 
L 112.242384 91.33605 
L 114.623177 112.148124 
L 117.436857 139.086178 
L 120.034093 166.627914 
L 123.497062 206.750275 
L 125.445009 227.929166 
L 126.96005 241.924458 
L 128.258668 251.703774 
L 129.12442 256.857251 
L 129.990172 261.050389 
L 130.855905 264.391593 
L 131.721657 266.940701 
L 132.587409 268.897128 
L 133.669584 270.688273 
L 134.968202 272.120426 
L 136.26682 273.071593 
L 137.998305 273.890189 
L 139.513366 274.364176 
L 142.110602 274.881854 
L 144.491395 275.184567 
L 149.469445 275.519354 
L 152.283105 275.613941 
L 172.411686 275.801346 
L 199.033359 275.423275 
L 200.115554 275.38074 
L 201.414172 275.375695 
L 202.496348 275.322181 
L 205.093584 275.265539 
L 208.556572 275.187177 
L 209.638748 275.169077 
L 223.923548 274.909231 
L 224.13999 274.799287 
L 225.222166 274.94686 
L 225.438609 274.828118 
L 225.655032 274.952404 
L 225.871475 274.84726 
L 226.520784 274.92077 
L 226.737227 274.699422 
L 227.819402 274.961933 
L 228.252268 274.718448 
L 228.901577 274.80222 
L 229.11802 274.53498 
L 229.550886 274.902943 
L 229.767329 274.573977 
L 230.200195 274.992002 
L 230.416638 274.652037 
L 230.849505 274.426659 
L 231.065948 274.884125 
L 231.28239 274.553636 
L 231.498814 274.768451 
L 231.715257 274.656707 
L 232.581009 274.839814 
L 232.797432 275.024254 
L 233.013875 274.655564 
L 233.663184 274.869163 
L 234.09605 274.526034 
L 234.312493 274.402681 
L 234.745359 274.374521 
L 234.961802 274.347033 
L 235.178245 274.807643 
L 235.394668 274.259707 
L 235.611111 274.946601 
L 237.991905 274.88103 
L 242.537068 274.767921 
L 250.112334 274.537566 
L 282.361346 273.477074 
L 284.958582 273.412203 
L 293.832486 273.137185 
L 308.983019 272.602271 
L 313.095336 272.552896 
L 315.043263 272.36719 
L 325.648632 272.059523 
L 334.955382 272.095103 
L 339.717009 272.210262 
L 382.787832 274.049932 
L 386.683686 274.139243 
L 387.982305 274.18415 
L 396.423323 274.339318 
L 398.37125 274.173056 
L 398.37125 274.173056 
" clip-path="url(#pfef8917ded)" style="fill: none; stroke: #ec4a3e; stroke-linecap: round"/>
   </g>
   <g id="line2d_28">
    <path d="M 41.467683 225.189741 
L 42.116992 225.154588 
L 42.766301 225.014795 
L 43.199177 224.767193 
L 43.632053 224.56334 
L 44.930671 223.740045 
L 48.177217 221.35151 
L 53.37169 217.494221 
L 56.401792 214.308073 
L 57.916853 212.365772 
L 59.431905 210.02374 
L 62.462017 205.690151 
L 63.760635 203.860862 
L 65.275686 200.924672 
L 66.141429 198.793995 
L 67.223614 195.590168 
L 68.305799 191.832365 
L 69.82085 185.670306 
L 71.552344 177.374564 
L 79.776929 135.960932 
L 85.837144 103.909787 
L 91.031617 78.247594 
L 92.546668 72.103505 
L 93.845286 67.707382 
L 94.927471 64.670418 
L 96.009657 62.154042 
L 97.091832 60.120741 
L 98.39045 58.40253 
L 99.256202 57.671499 
L 99.905511 57.40151 
L 100.55482 57.358618 
L 101.204129 57.572259 
L 101.853438 58.053762 
L 102.502748 58.791613 
L 103.36849 60.243523 
L 104.017799 61.62814 
L 105.099984 64.680186 
L 106.182159 68.593036 
L 107.047911 72.370283 
L 108.346529 79.143743 
L 109.645148 87.135896 
L 111.376632 99.507914 
L 113.324559 115.167997 
L 116.787548 145.948251 
L 118.951898 166.654456 
L 122.414886 202.119936 
L 124.579257 223.553613 
L 126.094318 236.633325 
L 127.392936 246.005992 
L 128.475111 252.447627 
L 129.773729 258.262811 
L 130.855905 261.899692 
L 131.9381 264.542761 
L 132.803832 266.132411 
L 133.669584 267.374492 
L 135.184645 268.859852 
L 136.26682 269.594682 
L 137.998305 270.404615 
L 139.296923 270.851209 
L 142.327045 271.514028 
L 148.170827 272.120777 
L 151.417372 272.273662 
L 152.71599 272.328231 
L 159.209081 272.460501 
L 161.373432 272.492278 
L 167.433657 272.506734 
L 171.113068 272.525402 
L 173.277438 272.49682 
L 174.7925 272.480686 
L 182.800632 272.405488 
L 183.449941 272.364104 
L 185.181445 272.303586 
L 186.26362 272.245139 
L 187.345795 272.205641 
L 197.301875 271.673956 
L 199.249802 271.530794 
L 200.764863 271.473375 
L 201.414172 271.391994 
L 206.175759 271.047419 
L 206.825068 270.970787 
L 207.474377 270.969261 
L 207.907263 270.900581 
L 209.85519 270.78781 
L 210.720923 270.697478 
L 213.534602 270.511112 
L 215.915395 270.265249 
L 216.348281 270.317643 
L 216.564705 270.265181 
L 216.99759 270.288818 
L 220.027693 270.018997 
L 220.460559 270.085909 
L 220.893445 269.896744 
L 221.109868 270.015946 
L 221.542754 269.918173 
L 222.192063 269.904563 
L 223.057795 269.760916 
L 223.490681 269.820797 
L 224.356414 269.598914 
L 224.572857 269.752725 
L 225.005723 269.616209 
L 225.871475 269.761604 
L 226.304341 269.612891 
L 226.737227 269.411653 
L 226.95365 269.549672 
L 227.170093 269.508723 
L 227.386536 269.620925 
L 228.035845 269.336419 
L 228.252268 269.396109 
L 228.468711 269.26642 
L 228.901577 269.420477 
L 229.11802 269.226448 
L 229.334463 269.44421 
L 229.550886 269.502396 
L 229.767329 269.308452 
L 230.416638 269.246686 
L 230.633081 269.390423 
L 230.849505 269.028446 
L 231.065948 269.20459 
L 231.498814 269.098318 
L 231.715257 269.414406 
L 231.9317 268.982627 
L 232.148123 269.198537 
L 232.364566 268.845998 
L 232.581009 269.203155 
L 233.013875 269.125553 
L 233.230318 269.175867 
L 233.879627 268.748459 
L 234.09605 269.21324 
L 234.312493 268.75217 
L 234.528936 269.023082 
L 234.745359 268.484801 
L 234.961802 268.632478 
L 235.178245 269.331059 
L 235.394668 268.70945 
L 235.611111 269.032323 
L 235.827534 269.594172 
L 239.07408 269.390224 
L 251.627395 268.230293 
L 259.419105 267.308615 
L 265.912195 266.564648 
L 277.383336 265.37372 
L 285.824354 264.576665 
L 302.70639 262.502581 
L 305.52005 262.121191 
L 310.281637 261.628977 
L 313.528182 261.286879 
L 320.887045 260.349589 
L 323.267819 260.218998 
L 328.245868 260.151857 
L 331.27599 260.205132 
L 333.656764 260.228691 
L 337.552619 260.496535 
L 341.448473 260.880598 
L 345.344328 261.337578 
L 368.503032 264.753129 
L 376.294741 265.860198 
L 380.407019 266.365461 
L 384.735759 266.939998 
L 386.683686 267.197871 
L 388.198728 267.415717 
L 398.37125 268.460013 
L 398.37125 268.460013 
" clip-path="url(#pfef8917ded)" style="fill: none; stroke: #ca1a50; stroke-linecap: round"/>
   </g>
   <g id="line2d_29">
    <path d="M 41.467683 230.62517 
L 42.549868 230.42632 
L 45.363538 228.943698 
L 46.012847 228.431523 
L 46.878599 227.857234 
L 47.744341 227.21133 
L 48.610083 226.610473 
L 51.640195 224.532056 
L 54.886741 221.711414 
L 57.051101 219.32612 
L 58.349719 217.70582 
L 60.51409 214.590593 
L 64.409944 209.000065 
L 65.492119 206.831056 
L 66.574305 204.112624 
L 67.872923 200.253697 
L 69.387984 194.913364 
L 71.335911 186.899098 
L 83.239908 134.320851 
L 85.837144 124.047879 
L 89.732999 109.65907 
L 91.24805 104.941975 
L 92.330235 102.122697 
L 93.628853 99.521053 
L 94.711038 97.925504 
L 95.793214 96.811708 
L 96.658966 96.206631 
L 97.524708 95.855775 
L 98.39045 95.784252 
L 99.039759 95.869534 
L 99.689068 96.181504 
L 100.338377 96.632685 
L 101.204129 97.577145 
L 102.069871 98.875185 
L 102.935614 100.550888 
L 104.017799 103.223433 
L 105.099984 106.496337 
L 106.398602 111.273322 
L 107.69722 116.986136 
L 109.212271 124.67462 
L 111.160189 136.128667 
L 113.541002 151.816706 
L 116.571105 173.382367 
L 125.012123 236.127548 
L 126.527184 244.81767 
L 127.825802 250.921887 
L 128.907977 254.984045 
L 129.990172 258.151921 
L 130.855905 260.164649 
L 131.9381 262.080452 
L 133.020275 263.514265 
L 134.10245 264.595416 
L 135.401068 265.538735 
L 137.565438 266.588197 
L 139.729809 267.262658 
L 142.327045 267.801209 
L 146.655766 268.280768 
L 147.954384 268.36074 
L 152.499548 268.526779 
L 171.545954 268.402621 
L 172.411686 268.359822 
L 177.822602 268.115511 
L 178.688354 268.079844 
L 182.800632 267.841492 
L 183.666384 267.751153 
L 185.181445 267.604421 
L 186.047177 267.493851 
L 194.704638 266.378232 
L 214.400354 263.020233 
L 215.482529 262.794838 
L 215.698972 262.802975 
L 216.131838 262.693187 
L 217.430457 262.470838 
L 218.512632 262.313973 
L 219.81125 262.08654 
L 222.841372 261.583408 
L 223.057795 261.408182 
L 223.274238 261.560312 
L 223.707105 261.479428 
L 224.13999 261.282745 
L 224.7893 261.171643 
L 225.005723 261.273524 
L 225.222166 261.133893 
L 225.438609 261.164269 
L 225.655032 261.33405 
L 226.087918 261.13519 
L 226.520784 260.919759 
L 226.95365 260.998009 
L 227.170093 260.824136 
L 227.386536 260.878761 
L 227.602959 261.117585 
L 228.035845 260.772941 
L 228.252268 260.729937 
L 228.468711 260.573552 
L 228.685154 260.615194 
L 229.11802 260.492675 
L 229.550886 260.689682 
L 229.767329 260.073206 
L 229.983772 260.520203 
L 230.200195 260.627514 
L 230.416638 260.212126 
L 230.633081 260.478895 
L 230.849505 259.861711 
L 231.065948 260.183402 
L 231.28239 260.036334 
L 231.498814 260.273961 
L 231.715257 260.232227 
L 231.9317 259.881141 
L 232.148123 260.260725 
L 232.364566 259.835647 
L 232.797432 260.091304 
L 233.013875 260.220752 
L 233.230318 259.945998 
L 233.446741 260.091613 
L 233.663184 259.995747 
L 234.09605 259.584033 
L 234.745359 259.779931 
L 234.961802 259.535562 
L 235.178245 259.580509 
L 235.394668 259.038338 
L 235.611111 259.553285 
L 235.827534 259.71329 
L 239.07408 259.156671 
L 243.835686 258.247281 
L 248.38085 257.288263 
L 251.410952 256.585489 
L 253.791746 256.025256 
L 258.120486 254.960981 
L 260.50128 254.423484 
L 262.016341 254.07038 
L 275.435389 251.350634 
L 276.734027 251.143428 
L 279.980572 250.569951 
L 290.802364 248.529244 
L 295.131105 247.542476 
L 302.057081 245.810522 
L 304.654318 245.135978 
L 311.147409 243.99959 
L 312.446027 243.858849 
L 313.311759 243.669981 
L 317.424037 242.613508 
L 321.536354 241.986982 
L 328.678754 242.034887 
L 332.791032 242.449405 
L 333.223918 242.511202 
L 333.656764 242.454315 
L 341.448473 244.005257 
L 344.04571 244.645008 
L 351.620995 246.780694 
L 354.434655 247.628955 
L 360.062014 249.26464 
L 371.100268 252.483387 
L 376.078318 253.743004 
L 383.653564 255.4496 
L 389.713809 256.759054 
L 392.094582 257.122902 
L 398.37125 258.423946 
L 398.37125 258.423946 
" clip-path="url(#pfef8917ded)" style="fill: none; stroke: #951c5b; stroke-linecap: round"/>
   </g>
   <g id="line2d_30">
    <path d="M 41.467683 226.21801 
L 41.900559 226.198166 
L 44.064919 225.296148 
L 46.22929 224.037038 
L 47.527908 223.136495 
L 48.177217 222.730579 
L 50.125144 221.46215 
L 50.774453 221.031325 
L 53.588123 218.898058 
L 54.670308 217.833711 
L 57.267544 215.09678 
L 58.999029 212.872164 
L 61.379832 209.479895 
L 63.111326 206.858807 
L 63.977068 205.256715 
L 65.492119 201.962821 
L 66.790738 198.514112 
L 68.522232 193.260872 
L 70.037293 188.007923 
L 72.201653 179.363836 
L 75.664632 165.077207 
L 83.456341 135.229306 
L 84.971402 130.562149 
L 87.135762 124.462869 
L 90.165875 117.202236 
L 91.464493 114.989925 
L 92.330235 113.919947 
L 93.41242 113.122166 
L 94.494595 112.8641 
L 95.143905 112.93163 
L 96.22609 113.333124 
L 97.308275 114.089996 
L 98.174017 114.904181 
L 99.472635 116.591515 
L 100.55482 118.427776 
L 101.853438 121.224425 
L 103.152057 124.681137 
L 104.883541 130.366299 
L 106.398602 136.233062 
L 108.130086 143.942166 
L 110.294457 154.749116 
L 112.891693 169.00122 
L 115.705352 185.496729 
L 121.765577 221.068514 
L 123.713505 231.187514 
L 125.228566 237.998109 
L 126.527184 242.898312 
L 127.825802 246.914707 
L 128.907977 249.581371 
L 129.990172 251.699245 
L 130.855905 253.068366 
L 132.154523 254.630916 
L 133.236718 255.645951 
L 135.401068 257.005158 
L 136.699686 257.558152 
L 139.0805 258.31329 
L 142.976354 259.038102 
L 145.357148 259.284849 
L 153.3653 259.568805 
L 156.611845 259.56955 
L 158.126886 259.555347 
L 175.225366 259.016738 
L 177.822602 258.796409 
L 179.337663 258.663463 
L 182.800632 258.239149 
L 183.449941 258.099859 
L 184.315693 257.956185 
L 185.830754 257.670608 
L 191.24165 256.46975 
L 192.540268 256.13356 
L 206.392202 252.003979 
L 207.69082 251.507175 
L 208.556572 251.237472 
L 211.370232 250.293051 
L 214.183911 249.353573 
L 215.049663 249.05891 
L 215.915395 248.745942 
L 216.348281 248.620435 
L 217.6469 248.196532 
L 218.296209 248.043446 
L 220.244136 247.339654 
L 220.460559 247.358354 
L 220.893445 247.130183 
L 221.109868 247.19235 
L 221.326311 246.982423 
L 221.759177 246.968683 
L 223.057795 246.494285 
L 223.490681 246.402242 
L 224.7893 245.955486 
L 225.222166 246.060486 
L 225.655032 245.781548 
L 225.871475 245.836495 
L 226.304341 245.539657 
L 226.520784 245.535314 
L 226.737227 245.285301 
L 226.95365 245.350997 
L 227.170093 245.183232 
L 227.386536 245.330169 
L 227.602959 245.258273 
L 227.819402 245.05903 
L 228.252268 245.014997 
L 228.468711 244.881903 
L 228.685154 244.566586 
L 228.901577 244.664197 
L 229.11802 244.548444 
L 229.334463 244.784335 
L 229.550886 244.69862 
L 229.767329 244.467587 
L 230.200195 244.459719 
L 230.416638 244.261073 
L 230.633081 244.340454 
L 230.849505 243.812054 
L 231.065948 244.346263 
L 231.28239 243.979459 
L 231.498814 244.195023 
L 231.9317 243.934743 
L 232.148123 244.287242 
L 232.364566 243.589401 
L 232.797432 244.041983 
L 233.013875 243.655167 
L 233.879627 243.261028 
L 234.09605 243.707956 
L 234.312493 242.890127 
L 234.528936 243.432924 
L 234.961802 242.770722 
L 235.178245 243.286337 
L 235.394668 242.479062 
L 235.611111 243.581014 
L 236.043977 243.297721 
L 243.619243 240.79689 
L 249.679468 238.339793 
L 259.635528 234.279894 
L 271.9724 229.973844 
L 285.391468 225.959576 
L 291.018827 223.980786 
L 292.317445 223.466335 
L 297.295455 221.381494 
L 305.952936 217.577038 
L 308.983019 216.527264 
L 310.4981 216.222062 
L 312.446027 215.965707 
L 313.528182 215.641498 
L 317.424037 214.020332 
L 321.103468 213.178859 
L 324.350014 213.111527 
L 326.94725 213.320873 
L 328.895177 213.594385 
L 331.27599 214.094472 
L 336.470463 215.682718 
L 339.500546 216.92975 
L 344.04571 219.064161 
L 354.434655 224.54577 
L 357.897663 226.397337 
L 363.741445 229.399442 
L 365.256486 230.135063 
L 367.204414 231.127408 
L 370.234536 232.49284 
L 372.831772 233.673686 
L 382.354946 237.43914 
L 384.519336 238.243447 
L 385.817954 238.750946 
L 386.90011 239.161151 
L 389.280923 239.924929 
L 390.363118 240.187328 
L 393.176777 240.956602 
L 394.475395 241.316946 
L 395.990437 241.844883 
L 398.37125 242.810416 
L 398.37125 242.810416 
" clip-path="url(#pfef8917ded)" style="fill: none; stroke: #601f52; stroke-linecap: round"/>
   </g>
   <g id="line2d_31">
    <path d="M 41.467683 236.629423 
L 42.116992 236.511975 
L 45.796414 234.899543 
L 51.640195 231.455566 
L 52.505938 230.837618 
L 54.453865 229.274533 
L 57.916853 225.841606 
L 60.297647 222.806079 
L 63.327759 218.172268 
L 64.626377 215.662481 
L 66.141429 212.348952 
L 68.089356 207.701139 
L 70.470159 201.45711 
L 78.261868 179.323785 
L 81.291981 171.951229 
L 82.374166 169.79873 
L 83.672784 167.752403 
L 84.971402 166.232044 
L 86.27002 165.068616 
L 87.135762 164.372771 
L 89.516566 163.266589 
L 90.382308 163.182166 
L 91.24805 163.394882 
L 92.113802 163.900997 
L 92.763111 164.484396 
L 93.845286 165.855003 
L 94.927471 167.61306 
L 96.658966 170.897172 
L 98.823326 175.489318 
L 100.55482 179.631168 
L 102.286305 184.255519 
L 104.234232 189.936987 
L 106.831468 198.096578 
L 117.869723 232.884117 
L 119.81765 238.087866 
L 121.549134 242.211849 
L 123.064195 245.319182 
L 124.7957 248.294514 
L 126.094318 250.120007 
L 127.825802 252.06167 
L 128.907977 253.001868 
L 130.423038 254.020638 
L 132.587409 255.024138 
L 133.886027 255.427828 
L 135.184645 255.744579 
L 136.916129 256.04521 
L 138.864057 256.287861 
L 145.140705 256.508916 
L 152.499548 256.194017 
L 173.710305 254.407214 
L 175.441809 254.155344 
L 182.367766 252.925872 
L 183.449941 252.648454 
L 184.965002 252.293909 
L 186.480063 251.851799 
L 188.644414 251.227875 
L 198.167627 247.911716 
L 199.033359 247.553246 
L 203.145657 245.895377 
L 203.578523 245.66597 
L 205.310027 244.905308 
L 205.959336 244.651333 
L 206.825068 244.256212 
L 207.474377 243.974059 
L 208.556572 243.479038 
L 209.638748 243.040305 
L 211.153809 242.362956 
L 212.019541 242.017482 
L 212.235984 241.862988 
L 212.452427 241.855844 
L 212.885293 241.6368 
L 214.400354 240.958307 
L 214.83322 240.799688 
L 215.915395 240.28444 
L 216.131838 240.280445 
L 216.99759 239.90802 
L 218.079766 239.443718 
L 218.296209 239.417949 
L 218.729075 239.157295 
L 218.945518 239.148251 
L 219.378384 238.899089 
L 223.057795 237.404687 
L 223.274238 237.59643 
L 223.707105 237.268579 
L 223.923548 237.125842 
L 224.13999 237.186235 
L 224.572857 236.829972 
L 225.005723 236.813043 
L 225.222166 236.872121 
L 225.438609 236.678719 
L 226.087918 236.476138 
L 226.304341 236.330275 
L 226.520784 236.327833 
L 227.170093 235.925195 
L 227.386536 236.047629 
L 227.819402 235.830538 
L 228.252268 235.621156 
L 228.468711 235.417894 
L 228.685154 235.505608 
L 229.11802 235.108178 
L 229.550886 235.186623 
L 229.767329 234.884957 
L 229.983772 234.881025 
L 230.200195 235.248242 
L 230.416638 234.619697 
L 231.065948 234.3284 
L 231.498814 234.388948 
L 231.9317 234.12037 
L 232.148123 234.236763 
L 232.364566 233.936647 
L 232.581009 234.106299 
L 232.797432 233.764147 
L 233.013875 234.117528 
L 233.446741 233.626548 
L 233.663184 233.842539 
L 233.879627 233.169627 
L 234.09605 233.842747 
L 234.312493 233.162615 
L 234.528936 233.457659 
L 234.961802 232.955292 
L 235.178245 233.050544 
L 235.394668 232.885564 
L 235.611111 233.214469 
L 236.043977 233.153369 
L 243.619243 230.235344 
L 247.515098 228.648938 
L 251.19451 227.165533 
L 253.575323 226.212415 
L 259.419105 223.976722 
L 262.66565 222.869978 
L 271.106668 220.321271 
L 273.920328 219.607127 
L 286.690086 216.124025 
L 288.42159 215.53508 
L 290.153055 214.93422 
L 292.317445 214.128937 
L 294.698219 213.230158 
L 301.407772 210.625989 
L 306.169359 208.996192 
L 309.199481 208.498788 
L 310.065214 208.49968 
L 310.930946 208.676768 
L 312.878873 208.976722 
L 313.311759 208.932819 
L 314.177491 208.560093 
L 315.043263 208.070296 
L 315.908995 207.652504 
L 316.774728 207.401918 
L 318.073346 207.105249 
L 319.155541 206.878991 
L 320.887045 206.779506 
L 324.999323 207.276632 
L 328.462291 208.040311 
L 334.08965 209.841201 
L 337.336195 211.131687 
L 345.127905 214.574824 
L 352.270305 217.740286 
L 355.300427 219.036099 
L 357.031891 219.756152 
L 368.719455 223.835379 
L 374.346814 225.318209 
L 376.511164 225.806083 
L 380.190595 226.530706 
L 383.220718 226.985515 
L 384.735759 227.251694 
L 386.034377 227.470735 
L 386.90011 227.641395 
L 389.0645 227.884516 
L 395.990437 228.317697 
L 398.154827 228.773682 
L 398.37125 228.822404 
L 398.37125 228.822404 
" clip-path="url(#pfef8917ded)" style="fill: none; stroke: #2e1739; stroke-linecap: round"/>
   </g>
   <g id="line2d_32"/>
   <g id="line2d_33"/>
   <g id="line2d_34"/>
   <g id="line2d_35"/>
   <g id="line2d_36"/>
   <g id="line2d_37"/>
   <g id="line2d_38"/>
   <g id="patch_3">
    <path d="M 41.25125 277.248797 
L 41.25125 11.136797 
" style="fill: none; stroke: #262626; stroke-width: 1.25; stroke-linejoin: miter; stroke-linecap: square"/>
   </g>
   <g id="patch_4">
    <path d="M 41.25125 277.248797 
L 398.37125 277.248797 
" style="fill: none; stroke: #262626; stroke-width: 1.25; stroke-linejoin: miter; stroke-linecap: square"/>
   </g>
   <g id="legend_1">
    <g id="line2d_39">
     <path d="M 293.872063 45.415809 
L 299.872063 45.415809 
L 305.872063 45.415809 
" style="fill: none; stroke: #f6bb97; stroke-width: 1.5; stroke-linecap: round"/>
    </g>
    <g id="text_16">
     <!-- 0.0% TFA_Abs -->
     <g style="fill: #262626" transform="translate(310.672063 47.515809) scale(0.06 -0.06)">
      <defs>
       <path id="ArialMT-25" d="M 372 3481 
Q 372 3972 619 4315 
Q 866 4659 1334 4659 
Q 1766 4659 2048 4351 
Q 2331 4044 2331 3447 
Q 2331 2866 2045 2552 
Q 1759 2238 1341 2238 
Q 925 2238 648 2547 
Q 372 2856 372 3481 
z
M 1350 4272 
Q 1141 4272 1002 4090 
Q 863 3909 863 3425 
Q 863 2984 1003 2804 
Q 1144 2625 1350 2625 
Q 1563 2625 1702 2806 
Q 1841 2988 1841 3469 
Q 1841 3913 1700 4092 
Q 1559 4272 1350 4272 
z
M 1353 -169 
L 3859 4659 
L 4316 4659 
L 1819 -169 
L 1353 -169 
z
M 3334 1075 
Q 3334 1569 3581 1911 
Q 3828 2253 4300 2253 
Q 4731 2253 5014 1945 
Q 5297 1638 5297 1041 
Q 5297 459 5011 145 
Q 4725 -169 4303 -169 
Q 3888 -169 3611 142 
Q 3334 453 3334 1075 
z
M 4316 1866 
Q 4103 1866 3964 1684 
Q 3825 1503 3825 1019 
Q 3825 581 3965 400 
Q 4106 219 4313 219 
Q 4528 219 4667 400 
Q 4806 581 4806 1063 
Q 4806 1506 4665 1686 
Q 4525 1866 4316 1866 
z
" transform="scale(0.015625)"/>
       <path id="ArialMT-54" d="M 1659 0 
L 1659 4041 
L 150 4041 
L 150 4581 
L 3781 4581 
L 3781 4041 
L 2266 4041 
L 2266 0 
L 1659 0 
z
" transform="scale(0.015625)"/>
       <path id="ArialMT-46" d="M 525 0 
L 525 4581 
L 3616 4581 
L 3616 4041 
L 1131 4041 
L 1131 2622 
L 3281 2622 
L 3281 2081 
L 1131 2081 
L 1131 0 
L 525 0 
z
" transform="scale(0.015625)"/>
       <path id="ArialMT-5f" d="M -97 -1272 
L -97 -866 
L 3631 -866 
L 3631 -1272 
L -97 -1272 
z
" transform="scale(0.015625)"/>
      </defs>
      <use xlink:href="#ArialMT-30"/>
      <use xlink:href="#ArialMT-2e" x="55.615234"/>
      <use xlink:href="#ArialMT-30" x="83.398438"/>
      <use xlink:href="#ArialMT-25" x="139.013672"/>
      <use xlink:href="#ArialMT-20" x="227.929688"/>
      <use xlink:href="#ArialMT-54" x="253.962891"/>
      <use xlink:href="#ArialMT-46" x="315.046875"/>
      <use xlink:href="#ArialMT-41" x="370.630859"/>
      <use xlink:href="#ArialMT-5f" x="437.330078"/>
      <use xlink:href="#ArialMT-41" x="492.945312"/>
      <use xlink:href="#ArialMT-62" x="559.644531"/>
      <use xlink:href="#ArialMT-73" x="615.259766"/>
     </g>
    </g>
    <g id="line2d_40">
     <path d="M 293.872063 53.976122 
L 299.872063 53.976122 
L 305.872063 53.976122 
" style="fill: none; stroke: #f4865e; stroke-width: 1.5; stroke-linecap: round"/>
    </g>
    <g id="text_17">
     <!-- 0.017% TFA_Abs -->
     <g style="fill: #262626" transform="translate(310.672063 56.076122) scale(0.06 -0.06)">
      <defs>
       <path id="ArialMT-37" d="M 303 3981 
L 303 4522 
L 3269 4522 
L 3269 4084 
Q 2831 3619 2401 2847 
Q 1972 2075 1738 1259 
Q 1569 684 1522 0 
L 944 0 
Q 953 541 1156 1306 
Q 1359 2072 1739 2783 
Q 2119 3494 2547 3981 
L 303 3981 
z
" transform="scale(0.015625)"/>
      </defs>
      <use xlink:href="#ArialMT-30"/>
      <use xlink:href="#ArialMT-2e" x="55.615234"/>
      <use xlink:href="#ArialMT-30" x="83.398438"/>
      <use xlink:href="#ArialMT-31" x="139.013672"/>
      <use xlink:href="#ArialMT-37" x="194.628906"/>
      <use xlink:href="#ArialMT-25" x="250.244141"/>
      <use xlink:href="#ArialMT-20" x="339.160156"/>
      <use xlink:href="#ArialMT-54" x="365.193359"/>
      <use xlink:href="#ArialMT-46" x="426.277344"/>
      <use xlink:href="#ArialMT-41" x="481.861328"/>
      <use xlink:href="#ArialMT-5f" x="548.560547"/>
      <use xlink:href="#ArialMT-41" x="604.175781"/>
      <use xlink:href="#ArialMT-62" x="670.875"/>
      <use xlink:href="#ArialMT-73" x="726.490234"/>
     </g>
    </g>
    <g id="line2d_41">
     <path d="M 293.872063 62.536434 
L 299.872063 62.536434 
L 305.872063 62.536434 
" style="fill: none; stroke: #ec4a3e; stroke-width: 1.5; stroke-linecap: round"/>
    </g>
    <g id="text_18">
     <!-- 0.05% TFA_Abs -->
     <g style="fill: #262626" transform="translate(310.672063 64.636434) scale(0.06 -0.06)">
      <defs>
       <path id="ArialMT-35" d="M 266 1200 
L 856 1250 
Q 922 819 1161 601 
Q 1400 384 1738 384 
Q 2144 384 2425 690 
Q 2706 997 2706 1503 
Q 2706 1984 2436 2262 
Q 2166 2541 1728 2541 
Q 1456 2541 1237 2417 
Q 1019 2294 894 2097 
L 366 2166 
L 809 4519 
L 3088 4519 
L 3088 3981 
L 1259 3981 
L 1013 2750 
Q 1425 3038 1878 3038 
Q 2478 3038 2890 2622 
Q 3303 2206 3303 1553 
Q 3303 931 2941 478 
Q 2500 -78 1738 -78 
Q 1113 -78 717 272 
Q 322 622 266 1200 
z
" transform="scale(0.015625)"/>
      </defs>
      <use xlink:href="#ArialMT-30"/>
      <use xlink:href="#ArialMT-2e" x="55.615234"/>
      <use xlink:href="#ArialMT-30" x="83.398438"/>
      <use xlink:href="#ArialMT-35" x="139.013672"/>
      <use xlink:href="#ArialMT-25" x="194.628906"/>
      <use xlink:href="#ArialMT-20" x="283.544922"/>
      <use xlink:href="#ArialMT-54" x="309.578125"/>
      <use xlink:href="#ArialMT-46" x="370.662109"/>
      <use xlink:href="#ArialMT-41" x="426.246094"/>
      <use xlink:href="#ArialMT-5f" x="492.945312"/>
      <use xlink:href="#ArialMT-41" x="548.560547"/>
      <use xlink:href="#ArialMT-62" x="615.259766"/>
      <use xlink:href="#ArialMT-73" x="670.875"/>
     </g>
    </g>
    <g id="line2d_42">
     <path d="M 293.872063 71.096747 
L 299.872063 71.096747 
L 305.872063 71.096747 
" style="fill: none; stroke: #ca1a50; stroke-width: 1.5; stroke-linecap: round"/>
    </g>
    <g id="text_19">
     <!-- 0.1% TFA_Abs -->
     <g style="fill: #262626" transform="translate(310.672063 73.196747) scale(0.06 -0.06)">
      <use xlink:href="#ArialMT-30"/>
      <use xlink:href="#ArialMT-2e" x="55.615234"/>
      <use xlink:href="#ArialMT-31" x="83.398438"/>
      <use xlink:href="#ArialMT-25" x="139.013672"/>
      <use xlink:href="#ArialMT-20" x="227.929688"/>
      <use xlink:href="#ArialMT-54" x="253.962891"/>
      <use xlink:href="#ArialMT-46" x="315.046875"/>
      <use xlink:href="#ArialMT-41" x="370.630859"/>
      <use xlink:href="#ArialMT-5f" x="437.330078"/>
      <use xlink:href="#ArialMT-41" x="492.945312"/>
      <use xlink:href="#ArialMT-62" x="559.644531"/>
      <use xlink:href="#ArialMT-73" x="615.259766"/>
     </g>
    </g>
    <g id="line2d_43">
     <path d="M 293.872063 79.657059 
L 299.872063 79.657059 
L 305.872063 79.657059 
" style="fill: none; stroke: #951c5b; stroke-width: 1.5; stroke-linecap: round"/>
    </g>
    <g id="text_20">
     <!-- 0.25% TFA_Abs -->
     <g style="fill: #262626" transform="translate(310.672063 81.757059) scale(0.06 -0.06)">
      <use xlink:href="#ArialMT-30"/>
      <use xlink:href="#ArialMT-2e" x="55.615234"/>
      <use xlink:href="#ArialMT-32" x="83.398438"/>
      <use xlink:href="#ArialMT-35" x="139.013672"/>
      <use xlink:href="#ArialMT-25" x="194.628906"/>
      <use xlink:href="#ArialMT-20" x="283.544922"/>
      <use xlink:href="#ArialMT-54" x="309.578125"/>
      <use xlink:href="#ArialMT-46" x="370.662109"/>
      <use xlink:href="#ArialMT-41" x="426.246094"/>
      <use xlink:href="#ArialMT-5f" x="492.945312"/>
      <use xlink:href="#ArialMT-41" x="548.560547"/>
      <use xlink:href="#ArialMT-62" x="615.259766"/>
      <use xlink:href="#ArialMT-73" x="670.875"/>
     </g>
    </g>
    <g id="line2d_44">
     <path d="M 293.872063 88.217372 
L 299.872063 88.217372 
L 305.872063 88.217372 
" style="fill: none; stroke: #601f52; stroke-width: 1.5; stroke-linecap: round"/>
    </g>
    <g id="text_21">
     <!-- 0.5% TFA_Abs -->
     <g style="fill: #262626" transform="translate(310.672063 90.317372) scale(0.06 -0.06)">
      <use xlink:href="#ArialMT-30"/>
      <use xlink:href="#ArialMT-2e" x="55.615234"/>
      <use xlink:href="#ArialMT-35" x="83.398438"/>
      <use xlink:href="#ArialMT-25" x="139.013672"/>
      <use xlink:href="#ArialMT-20" x="227.929688"/>
      <use xlink:href="#ArialMT-54" x="253.962891"/>
      <use xlink:href="#ArialMT-46" x="315.046875"/>
      <use xlink:href="#ArialMT-41" x="370.630859"/>
      <use xlink:href="#ArialMT-5f" x="437.330078"/>
      <use xlink:href="#ArialMT-41" x="492.945312"/>
      <use xlink:href="#ArialMT-62" x="559.644531"/>
      <use xlink:href="#ArialMT-73" x="615.259766"/>
     </g>
    </g>
    <g id="line2d_45">
     <path d="M 293.872063 96.777684 
L 299.872063 96.777684 
L 305.872063 96.777684 
" style="fill: none; stroke: #2e1739; stroke-width: 1.5; stroke-linecap: round"/>
    </g>
    <g id="text_22">
     <!-- 1.0% TFA_Abs -->
     <g style="fill: #262626" transform="translate(310.672063 98.877684) scale(0.06 -0.06)">
      <use xlink:href="#ArialMT-31"/>
      <use xlink:href="#ArialMT-2e" x="55.615234"/>
      <use xlink:href="#ArialMT-30" x="83.398438"/>
      <use xlink:href="#ArialMT-25" x="139.013672"/>
      <use xlink:href="#ArialMT-20" x="227.929688"/>
      <use xlink:href="#ArialMT-54" x="253.962891"/>
      <use xlink:href="#ArialMT-46" x="315.046875"/>
      <use xlink:href="#ArialMT-41" x="370.630859"/>
      <use xlink:href="#ArialMT-5f" x="437.330078"/>
      <use xlink:href="#ArialMT-41" x="492.945312"/>
      <use xlink:href="#ArialMT-62" x="559.644531"/>
      <use xlink:href="#ArialMT-73" x="615.259766"/>
     </g>
    </g>
   </g>
  </g>
 </g>
 <defs>
  <clipPath id="pfef8917ded">
   <rect x="41.25125" y="11.136797" width="357.12" height="266.112"/>
  </clipPath>
 </defs>
</svg>
