<?xml version="1.0" encoding="utf-8" standalone="no"?>
<!DOCTYPE svg PUBLIC "-//W3C//DTD SVG 1.1//EN"
  "http://www.w3.org/Graphics/SVG/1.1/DTD/svg11.dtd">
<svg xmlns:xlink="http://www.w3.org/1999/xlink" width="417.805313pt" height="313.269891pt" viewBox="0 0 417.805313 313.269891" xmlns="http://www.w3.org/2000/svg" version="1.1">
 <metadata>
  <rdf:RDF xmlns:dc="http://purl.org/dc/elements/1.1/" xmlns:cc="http://creativecommons.org/ns#" xmlns:rdf="http://www.w3.org/1999/02/22-rdf-syntax-ns#">
   <cc:Work>
    <dc:type rdf:resource="http://purl.org/dc/dcmitype/StillImage"/>
    <dc:date>2024-09-13T09:24:07.918668</dc:date>
    <dc:format>image/svg+xml</dc:format>
    <dc:creator>
     <cc:Agent>
      <dc:title>Matplotlib v3.7.1, https://matplotlib.org/</dc:title>
     </cc:Agent>
    </dc:creator>
   </cc:Work>
  </rdf:RDF>
 </metadata>
 <defs>
  <style type="text/css">*{stroke-linejoin: round; stroke-linecap: butt}</style>
 </defs>
 <g id="figure_1">
  <g id="patch_1">
   <path d="M 0 313.269891 
L 417.805313 313.269891 
L 417.805313 0 
L 0 0 
z
" style="fill: #ffffff"/>
  </g>
  <g id="axes_1">
   <g id="patch_2">
    <path d="M 41.25125 277.248797 
L 398.37125 277.248797 
L 398.37125 11.136797 
L 41.25125 11.136797 
z
" style="fill: #ffffff"/>
   </g>
   <g id="matplotlib.axis_1">
    <g id="xtick_1">
     <g id="line2d_1">
      <defs>
       <path id="m5412c60157" d="M 0 0 
L 0 -6 
" style="stroke: #262626; stroke-width: 1.25"/>
      </defs>
      <g>
       <use xlink:href="#m5412c60157" x="73.716705" y="277.248797" style="fill: #262626; stroke: #262626; stroke-width: 1.25"/>
      </g>
     </g>
     <g id="text_1">
      <!-- 400 -->
      <g style="fill: #262626" transform="translate(64.541158 288.622391) scale(0.11 -0.11)">
       <defs>
        <path id="ArialMT-34" d="M 2069 0 
L 2069 1097 
L 81 1097 
L 81 1613 
L 2172 4581 
L 2631 4581 
L 2631 1613 
L 3250 1613 
L 3250 1097 
L 2631 1097 
L 2631 0 
L 2069 0 
z
M 2069 1613 
L 2069 3678 
L 634 1613 
L 2069 1613 
z
" transform="scale(0.015625)"/>
        <path id="ArialMT-30" d="M 266 2259 
Q 266 3072 433 3567 
Q 600 4063 929 4331 
Q 1259 4600 1759 4600 
Q 2128 4600 2406 4451 
Q 2684 4303 2865 4023 
Q 3047 3744 3150 3342 
Q 3253 2941 3253 2259 
Q 3253 1453 3087 958 
Q 2922 463 2592 192 
Q 2263 -78 1759 -78 
Q 1097 -78 719 397 
Q 266 969 266 2259 
z
M 844 2259 
Q 844 1131 1108 757 
Q 1372 384 1759 384 
Q 2147 384 2411 759 
Q 2675 1134 2675 2259 
Q 2675 3391 2411 3762 
Q 2147 4134 1753 4134 
Q 1366 4134 1134 3806 
Q 844 3388 844 2259 
z
" transform="scale(0.015625)"/>
       </defs>
       <use xlink:href="#ArialMT-34"/>
       <use xlink:href="#ArialMT-30" x="55.615234"/>
       <use xlink:href="#ArialMT-30" x="111.230469"/>
      </g>
     </g>
    </g>
    <g id="xtick_2">
     <g id="line2d_2">
      <g>
       <use xlink:href="#m5412c60157" x="138.647614" y="277.248797" style="fill: #262626; stroke: #262626; stroke-width: 1.25"/>
      </g>
     </g>
     <g id="text_2">
      <!-- 600 -->
      <g style="fill: #262626" transform="translate(129.472067 288.622391) scale(0.11 -0.11)">
       <defs>
        <path id="ArialMT-36" d="M 3184 3459 
L 2625 3416 
Q 2550 3747 2413 3897 
Q 2184 4138 1850 4138 
Q 1581 4138 1378 3988 
Q 1113 3794 959 3422 
Q 806 3050 800 2363 
Q 1003 2672 1297 2822 
Q 1591 2972 1913 2972 
Q 2475 2972 2870 2558 
Q 3266 2144 3266 1488 
Q 3266 1056 3080 686 
Q 2894 316 2569 119 
Q 2244 -78 1831 -78 
Q 1128 -78 684 439 
Q 241 956 241 2144 
Q 241 3472 731 4075 
Q 1159 4600 1884 4600 
Q 2425 4600 2770 4297 
Q 3116 3994 3184 3459 
z
M 888 1484 
Q 888 1194 1011 928 
Q 1134 663 1356 523 
Q 1578 384 1822 384 
Q 2178 384 2434 671 
Q 2691 959 2691 1453 
Q 2691 1928 2437 2201 
Q 2184 2475 1800 2475 
Q 1419 2475 1153 2201 
Q 888 1928 888 1484 
z
" transform="scale(0.015625)"/>
       </defs>
       <use xlink:href="#ArialMT-36"/>
       <use xlink:href="#ArialMT-30" x="55.615234"/>
       <use xlink:href="#ArialMT-30" x="111.230469"/>
      </g>
     </g>
    </g>
    <g id="xtick_3">
     <g id="line2d_3">
      <g>
       <use xlink:href="#m5412c60157" x="203.578523" y="277.248797" style="fill: #262626; stroke: #262626; stroke-width: 1.25"/>
      </g>
     </g>
     <g id="text_3">
      <!-- 800 -->
      <g style="fill: #262626" transform="translate(194.402976 288.622391) scale(0.11 -0.11)">
       <defs>
        <path id="ArialMT-38" d="M 1131 2484 
Q 781 2613 612 2850 
Q 444 3088 444 3419 
Q 444 3919 803 4259 
Q 1163 4600 1759 4600 
Q 2359 4600 2725 4251 
Q 3091 3903 3091 3403 
Q 3091 3084 2923 2848 
Q 2756 2613 2416 2484 
Q 2838 2347 3058 2040 
Q 3278 1734 3278 1309 
Q 3278 722 2862 322 
Q 2447 -78 1769 -78 
Q 1091 -78 675 323 
Q 259 725 259 1325 
Q 259 1772 486 2073 
Q 713 2375 1131 2484 
z
M 1019 3438 
Q 1019 3113 1228 2906 
Q 1438 2700 1772 2700 
Q 2097 2700 2305 2904 
Q 2513 3109 2513 3406 
Q 2513 3716 2298 3927 
Q 2084 4138 1766 4138 
Q 1444 4138 1231 3931 
Q 1019 3725 1019 3438 
z
M 838 1322 
Q 838 1081 952 856 
Q 1066 631 1291 507 
Q 1516 384 1775 384 
Q 2178 384 2440 643 
Q 2703 903 2703 1303 
Q 2703 1709 2433 1975 
Q 2163 2241 1756 2241 
Q 1359 2241 1098 1978 
Q 838 1716 838 1322 
z
" transform="scale(0.015625)"/>
       </defs>
       <use xlink:href="#ArialMT-38"/>
       <use xlink:href="#ArialMT-30" x="55.615234"/>
       <use xlink:href="#ArialMT-30" x="111.230469"/>
      </g>
     </g>
    </g>
    <g id="xtick_4">
     <g id="line2d_4">
      <g>
       <use xlink:href="#m5412c60157" x="268.509432" y="277.248797" style="fill: #262626; stroke: #262626; stroke-width: 1.25"/>
      </g>
     </g>
     <g id="text_4">
      <!-- 1000 -->
      <g style="fill: #262626" transform="translate(256.275369 288.622391) scale(0.11 -0.11)">
       <defs>
        <path id="ArialMT-31" d="M 2384 0 
L 1822 0 
L 1822 3584 
Q 1619 3391 1289 3197 
Q 959 3003 697 2906 
L 697 3450 
Q 1169 3672 1522 3987 
Q 1875 4303 2022 4600 
L 2384 4600 
L 2384 0 
z
" transform="scale(0.015625)"/>
       </defs>
       <use xlink:href="#ArialMT-31"/>
       <use xlink:href="#ArialMT-30" x="55.615234"/>
       <use xlink:href="#ArialMT-30" x="111.230469"/>
       <use xlink:href="#ArialMT-30" x="166.845703"/>
      </g>
     </g>
    </g>
    <g id="xtick_5">
     <g id="line2d_5">
      <g>
       <use xlink:href="#m5412c60157" x="333.440341" y="277.248797" style="fill: #262626; stroke: #262626; stroke-width: 1.25"/>
      </g>
     </g>
     <g id="text_5">
      <!-- 1200 -->
      <g style="fill: #262626" transform="translate(321.206278 288.622391) scale(0.11 -0.11)">
       <defs>
        <path id="ArialMT-32" d="M 3222 541 
L 3222 0 
L 194 0 
Q 188 203 259 391 
Q 375 700 629 1000 
Q 884 1300 1366 1694 
Q 2113 2306 2375 2664 
Q 2638 3022 2638 3341 
Q 2638 3675 2398 3904 
Q 2159 4134 1775 4134 
Q 1369 4134 1125 3890 
Q 881 3647 878 3216 
L 300 3275 
Q 359 3922 746 4261 
Q 1134 4600 1788 4600 
Q 2447 4600 2831 4234 
Q 3216 3869 3216 3328 
Q 3216 3053 3103 2787 
Q 2991 2522 2730 2228 
Q 2469 1934 1863 1422 
Q 1356 997 1212 845 
Q 1069 694 975 541 
L 3222 541 
z
" transform="scale(0.015625)"/>
       </defs>
       <use xlink:href="#ArialMT-31"/>
       <use xlink:href="#ArialMT-32" x="55.615234"/>
       <use xlink:href="#ArialMT-30" x="111.230469"/>
       <use xlink:href="#ArialMT-30" x="166.845703"/>
      </g>
     </g>
    </g>
    <g id="xtick_6">
     <g id="line2d_6">
      <g>
       <use xlink:href="#m5412c60157" x="398.37125" y="277.248797" style="fill: #262626; stroke: #262626; stroke-width: 1.25"/>
      </g>
     </g>
     <g id="text_6">
      <!-- 1400 -->
      <g style="fill: #262626" transform="translate(386.137188 288.622391) scale(0.11 -0.11)">
       <use xlink:href="#ArialMT-31"/>
       <use xlink:href="#ArialMT-34" x="55.615234"/>
       <use xlink:href="#ArialMT-30" x="111.230469"/>
       <use xlink:href="#ArialMT-30" x="166.845703"/>
      </g>
     </g>
    </g>
    <g id="xtick_7">
     <g id="line2d_7">
      <defs>
       <path id="m05ec9abdfc" d="M 0 0 
L 0 -4 
" style="stroke: #262626"/>
      </defs>
      <g>
       <use xlink:href="#m05ec9abdfc" x="106.182159" y="277.248797" style="fill: #262626; stroke: #262626"/>
      </g>
     </g>
    </g>
    <g id="xtick_8">
     <g id="line2d_8">
      <g>
       <use xlink:href="#m05ec9abdfc" x="171.113068" y="277.248797" style="fill: #262626; stroke: #262626"/>
      </g>
     </g>
    </g>
    <g id="xtick_9">
     <g id="line2d_9">
      <g>
       <use xlink:href="#m05ec9abdfc" x="236.043977" y="277.248797" style="fill: #262626; stroke: #262626"/>
      </g>
     </g>
    </g>
    <g id="xtick_10">
     <g id="line2d_10">
      <g>
       <use xlink:href="#m05ec9abdfc" x="300.974886" y="277.248797" style="fill: #262626; stroke: #262626"/>
      </g>
     </g>
    </g>
    <g id="xtick_11">
     <g id="line2d_11">
      <g>
       <use xlink:href="#m05ec9abdfc" x="365.905795" y="277.248797" style="fill: #262626; stroke: #262626"/>
      </g>
     </g>
    </g>
    <g id="text_7">
     <!-- Wavelength (nm) -->
     <g style="fill: #262626" transform="translate(174.356562 303.544266) scale(0.12 -0.12)">
      <defs>
       <path id="ArialMT-57" d="M 1294 0 
L 78 4581 
L 700 4581 
L 1397 1578 
Q 1509 1106 1591 641 
Q 1766 1375 1797 1488 
L 2669 4581 
L 3400 4581 
L 4056 2263 
Q 4303 1400 4413 641 
Q 4500 1075 4641 1638 
L 5359 4581 
L 5969 4581 
L 4713 0 
L 4128 0 
L 3163 3491 
Q 3041 3928 3019 4028 
Q 2947 3713 2884 3491 
L 1913 0 
L 1294 0 
z
" transform="scale(0.015625)"/>
       <path id="ArialMT-61" d="M 2588 409 
Q 2275 144 1986 34 
Q 1697 -75 1366 -75 
Q 819 -75 525 192 
Q 231 459 231 875 
Q 231 1119 342 1320 
Q 453 1522 633 1644 
Q 813 1766 1038 1828 
Q 1203 1872 1538 1913 
Q 2219 1994 2541 2106 
Q 2544 2222 2544 2253 
Q 2544 2597 2384 2738 
Q 2169 2928 1744 2928 
Q 1347 2928 1158 2789 
Q 969 2650 878 2297 
L 328 2372 
Q 403 2725 575 2942 
Q 747 3159 1072 3276 
Q 1397 3394 1825 3394 
Q 2250 3394 2515 3294 
Q 2781 3194 2906 3042 
Q 3031 2891 3081 2659 
Q 3109 2516 3109 2141 
L 3109 1391 
Q 3109 606 3145 398 
Q 3181 191 3288 0 
L 2700 0 
Q 2613 175 2588 409 
z
M 2541 1666 
Q 2234 1541 1622 1453 
Q 1275 1403 1131 1340 
Q 988 1278 909 1158 
Q 831 1038 831 891 
Q 831 666 1001 516 
Q 1172 366 1500 366 
Q 1825 366 2078 508 
Q 2331 650 2450 897 
Q 2541 1088 2541 1459 
L 2541 1666 
z
" transform="scale(0.015625)"/>
       <path id="ArialMT-76" d="M 1344 0 
L 81 3319 
L 675 3319 
L 1388 1331 
Q 1503 1009 1600 663 
Q 1675 925 1809 1294 
L 2547 3319 
L 3125 3319 
L 1869 0 
L 1344 0 
z
" transform="scale(0.015625)"/>
       <path id="ArialMT-65" d="M 2694 1069 
L 3275 997 
Q 3138 488 2766 206 
Q 2394 -75 1816 -75 
Q 1088 -75 661 373 
Q 234 822 234 1631 
Q 234 2469 665 2931 
Q 1097 3394 1784 3394 
Q 2450 3394 2872 2941 
Q 3294 2488 3294 1666 
Q 3294 1616 3291 1516 
L 816 1516 
Q 847 969 1125 678 
Q 1403 388 1819 388 
Q 2128 388 2347 550 
Q 2566 713 2694 1069 
z
M 847 1978 
L 2700 1978 
Q 2663 2397 2488 2606 
Q 2219 2931 1791 2931 
Q 1403 2931 1139 2672 
Q 875 2413 847 1978 
z
" transform="scale(0.015625)"/>
       <path id="ArialMT-6c" d="M 409 0 
L 409 4581 
L 972 4581 
L 972 0 
L 409 0 
z
" transform="scale(0.015625)"/>
       <path id="ArialMT-6e" d="M 422 0 
L 422 3319 
L 928 3319 
L 928 2847 
Q 1294 3394 1984 3394 
Q 2284 3394 2536 3286 
Q 2788 3178 2913 3003 
Q 3038 2828 3088 2588 
Q 3119 2431 3119 2041 
L 3119 0 
L 2556 0 
L 2556 2019 
Q 2556 2363 2490 2533 
Q 2425 2703 2258 2804 
Q 2091 2906 1866 2906 
Q 1506 2906 1245 2678 
Q 984 2450 984 1813 
L 984 0 
L 422 0 
z
" transform="scale(0.015625)"/>
       <path id="ArialMT-67" d="M 319 -275 
L 866 -356 
Q 900 -609 1056 -725 
Q 1266 -881 1628 -881 
Q 2019 -881 2231 -725 
Q 2444 -569 2519 -288 
Q 2563 -116 2559 434 
Q 2191 0 1641 0 
Q 956 0 581 494 
Q 206 988 206 1678 
Q 206 2153 378 2554 
Q 550 2956 876 3175 
Q 1203 3394 1644 3394 
Q 2231 3394 2613 2919 
L 2613 3319 
L 3131 3319 
L 3131 450 
Q 3131 -325 2973 -648 
Q 2816 -972 2473 -1159 
Q 2131 -1347 1631 -1347 
Q 1038 -1347 672 -1080 
Q 306 -813 319 -275 
z
M 784 1719 
Q 784 1066 1043 766 
Q 1303 466 1694 466 
Q 2081 466 2343 764 
Q 2606 1063 2606 1700 
Q 2606 2309 2336 2618 
Q 2066 2928 1684 2928 
Q 1309 2928 1046 2623 
Q 784 2319 784 1719 
z
" transform="scale(0.015625)"/>
       <path id="ArialMT-74" d="M 1650 503 
L 1731 6 
Q 1494 -44 1306 -44 
Q 1000 -44 831 53 
Q 663 150 594 308 
Q 525 466 525 972 
L 525 2881 
L 113 2881 
L 113 3319 
L 525 3319 
L 525 4141 
L 1084 4478 
L 1084 3319 
L 1650 3319 
L 1650 2881 
L 1084 2881 
L 1084 941 
Q 1084 700 1114 631 
Q 1144 563 1211 522 
Q 1278 481 1403 481 
Q 1497 481 1650 503 
z
" transform="scale(0.015625)"/>
       <path id="ArialMT-68" d="M 422 0 
L 422 4581 
L 984 4581 
L 984 2938 
Q 1378 3394 1978 3394 
Q 2347 3394 2619 3248 
Q 2891 3103 3008 2847 
Q 3125 2591 3125 2103 
L 3125 0 
L 2563 0 
L 2563 2103 
Q 2563 2525 2380 2717 
Q 2197 2909 1863 2909 
Q 1613 2909 1392 2779 
Q 1172 2650 1078 2428 
Q 984 2206 984 1816 
L 984 0 
L 422 0 
z
" transform="scale(0.015625)"/>
       <path id="ArialMT-20" transform="scale(0.015625)"/>
       <path id="ArialMT-28" d="M 1497 -1347 
Q 1031 -759 709 28 
Q 388 816 388 1659 
Q 388 2403 628 3084 
Q 909 3875 1497 4659 
L 1900 4659 
Q 1522 4009 1400 3731 
Q 1209 3300 1100 2831 
Q 966 2247 966 1656 
Q 966 153 1900 -1347 
L 1497 -1347 
z
" transform="scale(0.015625)"/>
       <path id="ArialMT-6d" d="M 422 0 
L 422 3319 
L 925 3319 
L 925 2853 
Q 1081 3097 1340 3245 
Q 1600 3394 1931 3394 
Q 2300 3394 2536 3241 
Q 2772 3088 2869 2813 
Q 3263 3394 3894 3394 
Q 4388 3394 4653 3120 
Q 4919 2847 4919 2278 
L 4919 0 
L 4359 0 
L 4359 2091 
Q 4359 2428 4304 2576 
Q 4250 2725 4106 2815 
Q 3963 2906 3769 2906 
Q 3419 2906 3187 2673 
Q 2956 2441 2956 1928 
L 2956 0 
L 2394 0 
L 2394 2156 
Q 2394 2531 2256 2718 
Q 2119 2906 1806 2906 
Q 1569 2906 1367 2781 
Q 1166 2656 1075 2415 
Q 984 2175 984 1722 
L 984 0 
L 422 0 
z
" transform="scale(0.015625)"/>
       <path id="ArialMT-29" d="M 791 -1347 
L 388 -1347 
Q 1322 153 1322 1656 
Q 1322 2244 1188 2822 
Q 1081 3291 891 3722 
Q 769 4003 388 4659 
L 791 4659 
Q 1378 3875 1659 3084 
Q 1900 2403 1900 1659 
Q 1900 816 1576 28 
Q 1253 -759 791 -1347 
z
" transform="scale(0.015625)"/>
      </defs>
      <use xlink:href="#ArialMT-57"/>
      <use xlink:href="#ArialMT-61" x="90.634766"/>
      <use xlink:href="#ArialMT-76" x="146.25"/>
      <use xlink:href="#ArialMT-65" x="196.25"/>
      <use xlink:href="#ArialMT-6c" x="251.865234"/>
      <use xlink:href="#ArialMT-65" x="274.082031"/>
      <use xlink:href="#ArialMT-6e" x="329.697266"/>
      <use xlink:href="#ArialMT-67" x="385.3125"/>
      <use xlink:href="#ArialMT-74" x="440.927734"/>
      <use xlink:href="#ArialMT-68" x="468.710938"/>
      <use xlink:href="#ArialMT-20" x="524.326172"/>
      <use xlink:href="#ArialMT-28" x="552.109375"/>
      <use xlink:href="#ArialMT-6e" x="585.410156"/>
      <use xlink:href="#ArialMT-6d" x="641.025391"/>
      <use xlink:href="#ArialMT-29" x="724.326172"/>
     </g>
    </g>
   </g>
   <g id="matplotlib.axis_2">
    <g id="ytick_1">
     <g id="line2d_12">
      <defs>
       <path id="m1d2b94fd0e" d="M 0 0 
L 6 0 
" style="stroke: #262626; stroke-width: 1.25"/>
      </defs>
      <g>
       <use xlink:href="#m1d2b94fd0e" x="41.25125" y="277.248797" style="fill: #262626; stroke: #262626; stroke-width: 1.25"/>
      </g>
     </g>
     <g id="text_8">
      <!-- 0.0 -->
      <g style="fill: #262626" transform="translate(22.46125 281.185594) scale(0.11 -0.11)">
       <defs>
        <path id="ArialMT-2e" d="M 581 0 
L 581 641 
L 1222 641 
L 1222 0 
L 581 0 
z
" transform="scale(0.015625)"/>
       </defs>
       <use xlink:href="#ArialMT-30"/>
       <use xlink:href="#ArialMT-2e" x="55.615234"/>
       <use xlink:href="#ArialMT-30" x="83.398438"/>
      </g>
     </g>
    </g>
    <g id="ytick_2">
     <g id="line2d_13">
      <g>
       <use xlink:href="#m1d2b94fd0e" x="41.25125" y="247.680797" style="fill: #262626; stroke: #262626; stroke-width: 1.25"/>
      </g>
     </g>
     <g id="text_9">
      <!-- 0.1 -->
      <g style="fill: #262626" transform="translate(22.46125 251.617594) scale(0.11 -0.11)">
       <use xlink:href="#ArialMT-30"/>
       <use xlink:href="#ArialMT-2e" x="55.615234"/>
       <use xlink:href="#ArialMT-31" x="83.398438"/>
      </g>
     </g>
    </g>
    <g id="ytick_3">
     <g id="line2d_14">
      <g>
       <use xlink:href="#m1d2b94fd0e" x="41.25125" y="218.112797" style="fill: #262626; stroke: #262626; stroke-width: 1.25"/>
      </g>
     </g>
     <g id="text_10">
      <!-- 0.2 -->
      <g style="fill: #262626" transform="translate(22.46125 222.049594) scale(0.11 -0.11)">
       <use xlink:href="#ArialMT-30"/>
       <use xlink:href="#ArialMT-2e" x="55.615234"/>
       <use xlink:href="#ArialMT-32" x="83.398438"/>
      </g>
     </g>
    </g>
    <g id="ytick_4">
     <g id="line2d_15">
      <g>
       <use xlink:href="#m1d2b94fd0e" x="41.25125" y="188.544797" style="fill: #262626; stroke: #262626; stroke-width: 1.25"/>
      </g>
     </g>
     <g id="text_11">
      <!-- 0.3 -->
      <g style="fill: #262626" transform="translate(22.46125 192.481594) scale(0.11 -0.11)">
       <defs>
        <path id="ArialMT-33" d="M 269 1209 
L 831 1284 
Q 928 806 1161 595 
Q 1394 384 1728 384 
Q 2125 384 2398 659 
Q 2672 934 2672 1341 
Q 2672 1728 2419 1979 
Q 2166 2231 1775 2231 
Q 1616 2231 1378 2169 
L 1441 2663 
Q 1497 2656 1531 2656 
Q 1891 2656 2178 2843 
Q 2466 3031 2466 3422 
Q 2466 3731 2256 3934 
Q 2047 4138 1716 4138 
Q 1388 4138 1169 3931 
Q 950 3725 888 3313 
L 325 3413 
Q 428 3978 793 4289 
Q 1159 4600 1703 4600 
Q 2078 4600 2393 4439 
Q 2709 4278 2876 4000 
Q 3044 3722 3044 3409 
Q 3044 3113 2884 2869 
Q 2725 2625 2413 2481 
Q 2819 2388 3044 2092 
Q 3269 1797 3269 1353 
Q 3269 753 2831 336 
Q 2394 -81 1725 -81 
Q 1122 -81 723 278 
Q 325 638 269 1209 
z
" transform="scale(0.015625)"/>
       </defs>
       <use xlink:href="#ArialMT-30"/>
       <use xlink:href="#ArialMT-2e" x="55.615234"/>
       <use xlink:href="#ArialMT-33" x="83.398438"/>
      </g>
     </g>
    </g>
    <g id="ytick_5">
     <g id="line2d_16">
      <g>
       <use xlink:href="#m1d2b94fd0e" x="41.25125" y="158.976797" style="fill: #262626; stroke: #262626; stroke-width: 1.25"/>
      </g>
     </g>
     <g id="text_12">
      <!-- 0.4 -->
      <g style="fill: #262626" transform="translate(22.46125 162.913594) scale(0.11 -0.11)">
       <use xlink:href="#ArialMT-30"/>
       <use xlink:href="#ArialMT-2e" x="55.615234"/>
       <use xlink:href="#ArialMT-34" x="83.398438"/>
      </g>
     </g>
    </g>
    <g id="ytick_6">
     <g id="line2d_17">
      <g>
       <use xlink:href="#m1d2b94fd0e" x="41.25125" y="129.408797" style="fill: #262626; stroke: #262626; stroke-width: 1.25"/>
      </g>
     </g>
     <g id="text_13">
      <!-- 0.5 -->
      <g style="fill: #262626" transform="translate(22.46125 133.345594) scale(0.11 -0.11)">
       <defs>
        <path id="ArialMT-35" d="M 266 1200 
L 856 1250 
Q 922 819 1161 601 
Q 1400 384 1738 384 
Q 2144 384 2425 690 
Q 2706 997 2706 1503 
Q 2706 1984 2436 2262 
Q 2166 2541 1728 2541 
Q 1456 2541 1237 2417 
Q 1019 2294 894 2097 
L 366 2166 
L 809 4519 
L 3088 4519 
L 3088 3981 
L 1259 3981 
L 1013 2750 
Q 1425 3038 1878 3038 
Q 2478 3038 2890 2622 
Q 3303 2206 3303 1553 
Q 3303 931 2941 478 
Q 2500 -78 1738 -78 
Q 1113 -78 717 272 
Q 322 622 266 1200 
z
" transform="scale(0.015625)"/>
       </defs>
       <use xlink:href="#ArialMT-30"/>
       <use xlink:href="#ArialMT-2e" x="55.615234"/>
       <use xlink:href="#ArialMT-35" x="83.398438"/>
      </g>
     </g>
    </g>
    <g id="ytick_7">
     <g id="line2d_18">
      <g>
       <use xlink:href="#m1d2b94fd0e" x="41.25125" y="99.840797" style="fill: #262626; stroke: #262626; stroke-width: 1.25"/>
      </g>
     </g>
     <g id="text_14">
      <!-- 0.6 -->
      <g style="fill: #262626" transform="translate(22.46125 103.777594) scale(0.11 -0.11)">
       <use xlink:href="#ArialMT-30"/>
       <use xlink:href="#ArialMT-2e" x="55.615234"/>
       <use xlink:href="#ArialMT-36" x="83.398438"/>
      </g>
     </g>
    </g>
    <g id="ytick_8">
     <g id="line2d_19">
      <g>
       <use xlink:href="#m1d2b94fd0e" x="41.25125" y="70.272797" style="fill: #262626; stroke: #262626; stroke-width: 1.25"/>
      </g>
     </g>
     <g id="text_15">
      <!-- 0.7 -->
      <g style="fill: #262626" transform="translate(22.46125 74.209594) scale(0.11 -0.11)">
       <defs>
        <path id="ArialMT-37" d="M 303 3981 
L 303 4522 
L 3269 4522 
L 3269 4084 
Q 2831 3619 2401 2847 
Q 1972 2075 1738 1259 
Q 1569 684 1522 0 
L 944 0 
Q 953 541 1156 1306 
Q 1359 2072 1739 2783 
Q 2119 3494 2547 3981 
L 303 3981 
z
" transform="scale(0.015625)"/>
       </defs>
       <use xlink:href="#ArialMT-30"/>
       <use xlink:href="#ArialMT-2e" x="55.615234"/>
       <use xlink:href="#ArialMT-37" x="83.398438"/>
      </g>
     </g>
    </g>
    <g id="ytick_9">
     <g id="line2d_20">
      <g>
       <use xlink:href="#m1d2b94fd0e" x="41.25125" y="40.704797" style="fill: #262626; stroke: #262626; stroke-width: 1.25"/>
      </g>
     </g>
     <g id="text_16">
      <!-- 0.8 -->
      <g style="fill: #262626" transform="translate(22.46125 44.641594) scale(0.11 -0.11)">
       <use xlink:href="#ArialMT-30"/>
       <use xlink:href="#ArialMT-2e" x="55.615234"/>
       <use xlink:href="#ArialMT-38" x="83.398438"/>
      </g>
     </g>
    </g>
    <g id="ytick_10">
     <g id="line2d_21">
      <g>
       <use xlink:href="#m1d2b94fd0e" x="41.25125" y="11.136797" style="fill: #262626; stroke: #262626; stroke-width: 1.25"/>
      </g>
     </g>
     <g id="text_17">
      <!-- 0.9 -->
      <g style="fill: #262626" transform="translate(22.46125 15.073594) scale(0.11 -0.11)">
       <defs>
        <path id="ArialMT-39" d="M 350 1059 
L 891 1109 
Q 959 728 1153 556 
Q 1347 384 1650 384 
Q 1909 384 2104 503 
Q 2300 622 2425 820 
Q 2550 1019 2634 1356 
Q 2719 1694 2719 2044 
Q 2719 2081 2716 2156 
Q 2547 1888 2255 1720 
Q 1963 1553 1622 1553 
Q 1053 1553 659 1965 
Q 266 2378 266 3053 
Q 266 3750 677 4175 
Q 1088 4600 1706 4600 
Q 2153 4600 2523 4359 
Q 2894 4119 3086 3673 
Q 3278 3228 3278 2384 
Q 3278 1506 3087 986 
Q 2897 466 2520 194 
Q 2144 -78 1638 -78 
Q 1100 -78 759 220 
Q 419 519 350 1059 
z
M 2653 3081 
Q 2653 3566 2395 3850 
Q 2138 4134 1775 4134 
Q 1400 4134 1122 3828 
Q 844 3522 844 3034 
Q 844 2597 1108 2323 
Q 1372 2050 1759 2050 
Q 2150 2050 2401 2323 
Q 2653 2597 2653 3081 
z
" transform="scale(0.015625)"/>
       </defs>
       <use xlink:href="#ArialMT-30"/>
       <use xlink:href="#ArialMT-2e" x="55.615234"/>
       <use xlink:href="#ArialMT-39" x="83.398438"/>
      </g>
     </g>
    </g>
    <g id="ytick_11">
     <g id="line2d_22">
      <defs>
       <path id="m8b62cb3062" d="M 0 0 
L 4 0 
" style="stroke: #262626"/>
      </defs>
      <g>
       <use xlink:href="#m8b62cb3062" x="41.25125" y="262.464797" style="fill: #262626; stroke: #262626"/>
      </g>
     </g>
    </g>
    <g id="ytick_12">
     <g id="line2d_23">
      <g>
       <use xlink:href="#m8b62cb3062" x="41.25125" y="232.896797" style="fill: #262626; stroke: #262626"/>
      </g>
     </g>
    </g>
    <g id="ytick_13">
     <g id="line2d_24">
      <g>
       <use xlink:href="#m8b62cb3062" x="41.25125" y="203.328797" style="fill: #262626; stroke: #262626"/>
      </g>
     </g>
    </g>
    <g id="ytick_14">
     <g id="line2d_25">
      <g>
       <use xlink:href="#m8b62cb3062" x="41.25125" y="173.760797" style="fill: #262626; stroke: #262626"/>
      </g>
     </g>
    </g>
    <g id="ytick_15">
     <g id="line2d_26">
      <g>
       <use xlink:href="#m8b62cb3062" x="41.25125" y="144.192797" style="fill: #262626; stroke: #262626"/>
      </g>
     </g>
    </g>
    <g id="ytick_16">
     <g id="line2d_27">
      <g>
       <use xlink:href="#m8b62cb3062" x="41.25125" y="114.624797" style="fill: #262626; stroke: #262626"/>
      </g>
     </g>
    </g>
    <g id="ytick_17">
     <g id="line2d_28">
      <g>
       <use xlink:href="#m8b62cb3062" x="41.25125" y="85.056797" style="fill: #262626; stroke: #262626"/>
      </g>
     </g>
    </g>
    <g id="ytick_18">
     <g id="line2d_29">
      <g>
       <use xlink:href="#m8b62cb3062" x="41.25125" y="55.488797" style="fill: #262626; stroke: #262626"/>
      </g>
     </g>
    </g>
    <g id="ytick_19">
     <g id="line2d_30">
      <g>
       <use xlink:href="#m8b62cb3062" x="41.25125" y="25.920797" style="fill: #262626; stroke: #262626"/>
      </g>
     </g>
    </g>
    <g id="text_18">
     <!-- Absorbance (a.u.) -->
     <g style="fill: #262626" transform="translate(15.935625 191.881547) rotate(-90) scale(0.12 -0.12)">
      <defs>
       <path id="ArialMT-41" d="M -9 0 
L 1750 4581 
L 2403 4581 
L 4278 0 
L 3588 0 
L 3053 1388 
L 1138 1388 
L 634 0 
L -9 0 
z
M 1313 1881 
L 2866 1881 
L 2388 3150 
Q 2169 3728 2063 4100 
Q 1975 3659 1816 3225 
L 1313 1881 
z
" transform="scale(0.015625)"/>
       <path id="ArialMT-62" d="M 941 0 
L 419 0 
L 419 4581 
L 981 4581 
L 981 2947 
Q 1338 3394 1891 3394 
Q 2197 3394 2470 3270 
Q 2744 3147 2920 2923 
Q 3097 2700 3197 2384 
Q 3297 2069 3297 1709 
Q 3297 856 2875 390 
Q 2453 -75 1863 -75 
Q 1275 -75 941 416 
L 941 0 
z
M 934 1684 
Q 934 1088 1097 822 
Q 1363 388 1816 388 
Q 2184 388 2453 708 
Q 2722 1028 2722 1663 
Q 2722 2313 2464 2622 
Q 2206 2931 1841 2931 
Q 1472 2931 1203 2611 
Q 934 2291 934 1684 
z
" transform="scale(0.015625)"/>
       <path id="ArialMT-73" d="M 197 991 
L 753 1078 
Q 800 744 1014 566 
Q 1228 388 1613 388 
Q 2000 388 2187 545 
Q 2375 703 2375 916 
Q 2375 1106 2209 1216 
Q 2094 1291 1634 1406 
Q 1016 1563 777 1677 
Q 538 1791 414 1992 
Q 291 2194 291 2438 
Q 291 2659 392 2848 
Q 494 3038 669 3163 
Q 800 3259 1026 3326 
Q 1253 3394 1513 3394 
Q 1903 3394 2198 3281 
Q 2494 3169 2634 2976 
Q 2775 2784 2828 2463 
L 2278 2388 
Q 2241 2644 2061 2787 
Q 1881 2931 1553 2931 
Q 1166 2931 1000 2803 
Q 834 2675 834 2503 
Q 834 2394 903 2306 
Q 972 2216 1119 2156 
Q 1203 2125 1616 2013 
Q 2213 1853 2448 1751 
Q 2684 1650 2818 1456 
Q 2953 1263 2953 975 
Q 2953 694 2789 445 
Q 2625 197 2315 61 
Q 2006 -75 1616 -75 
Q 969 -75 630 194 
Q 291 463 197 991 
z
" transform="scale(0.015625)"/>
       <path id="ArialMT-6f" d="M 213 1659 
Q 213 2581 725 3025 
Q 1153 3394 1769 3394 
Q 2453 3394 2887 2945 
Q 3322 2497 3322 1706 
Q 3322 1066 3130 698 
Q 2938 331 2570 128 
Q 2203 -75 1769 -75 
Q 1072 -75 642 372 
Q 213 819 213 1659 
z
M 791 1659 
Q 791 1022 1069 705 
Q 1347 388 1769 388 
Q 2188 388 2466 706 
Q 2744 1025 2744 1678 
Q 2744 2294 2464 2611 
Q 2184 2928 1769 2928 
Q 1347 2928 1069 2612 
Q 791 2297 791 1659 
z
" transform="scale(0.015625)"/>
       <path id="ArialMT-72" d="M 416 0 
L 416 3319 
L 922 3319 
L 922 2816 
Q 1116 3169 1280 3281 
Q 1444 3394 1641 3394 
Q 1925 3394 2219 3213 
L 2025 2691 
Q 1819 2813 1613 2813 
Q 1428 2813 1281 2702 
Q 1134 2591 1072 2394 
Q 978 2094 978 1738 
L 978 0 
L 416 0 
z
" transform="scale(0.015625)"/>
       <path id="ArialMT-63" d="M 2588 1216 
L 3141 1144 
Q 3050 572 2676 248 
Q 2303 -75 1759 -75 
Q 1078 -75 664 370 
Q 250 816 250 1647 
Q 250 2184 428 2587 
Q 606 2991 970 3192 
Q 1334 3394 1763 3394 
Q 2303 3394 2647 3120 
Q 2991 2847 3088 2344 
L 2541 2259 
Q 2463 2594 2264 2762 
Q 2066 2931 1784 2931 
Q 1359 2931 1093 2626 
Q 828 2322 828 1663 
Q 828 994 1084 691 
Q 1341 388 1753 388 
Q 2084 388 2306 591 
Q 2528 794 2588 1216 
z
" transform="scale(0.015625)"/>
       <path id="ArialMT-75" d="M 2597 0 
L 2597 488 
Q 2209 -75 1544 -75 
Q 1250 -75 995 37 
Q 741 150 617 320 
Q 494 491 444 738 
Q 409 903 409 1263 
L 409 3319 
L 972 3319 
L 972 1478 
Q 972 1038 1006 884 
Q 1059 663 1231 536 
Q 1403 409 1656 409 
Q 1909 409 2131 539 
Q 2353 669 2445 892 
Q 2538 1116 2538 1541 
L 2538 3319 
L 3100 3319 
L 3100 0 
L 2597 0 
z
" transform="scale(0.015625)"/>
      </defs>
      <use xlink:href="#ArialMT-41"/>
      <use xlink:href="#ArialMT-62" x="66.699219"/>
      <use xlink:href="#ArialMT-73" x="122.314453"/>
      <use xlink:href="#ArialMT-6f" x="172.314453"/>
      <use xlink:href="#ArialMT-72" x="227.929688"/>
      <use xlink:href="#ArialMT-62" x="261.230469"/>
      <use xlink:href="#ArialMT-61" x="316.845703"/>
      <use xlink:href="#ArialMT-6e" x="372.460938"/>
      <use xlink:href="#ArialMT-63" x="428.076172"/>
      <use xlink:href="#ArialMT-65" x="478.076172"/>
      <use xlink:href="#ArialMT-20" x="533.691406"/>
      <use xlink:href="#ArialMT-28" x="561.474609"/>
      <use xlink:href="#ArialMT-61" x="594.775391"/>
      <use xlink:href="#ArialMT-2e" x="650.390625"/>
      <use xlink:href="#ArialMT-75" x="678.173828"/>
      <use xlink:href="#ArialMT-2e" x="733.789062"/>
      <use xlink:href="#ArialMT-29" x="761.572266"/>
     </g>
    </g>
   </g>
   <g id="PolyCollection_1"/>
   <g id="PolyCollection_2"/>
   <g id="PolyCollection_3"/>
   <g id="PolyCollection_4"/>
   <g id="PolyCollection_5"/>
   <g id="line2d_31">
    <path d="M 41.467683 233.633179 
L 42.766301 233.362753 
L 45.363538 232.150745 
L 46.22929 231.677759 
L 46.878599 231.252058 
L 48.177217 230.424611 
L 48.610083 230.159742 
L 50.125144 229.06565 
L 50.774453 228.658577 
L 51.207319 228.326384 
L 54.020999 226.333879 
L 54.670308 225.801315 
L 56.185359 224.448871 
L 62.245574 218.123247 
L 62.894883 217.510376 
L 64.626377 215.116424 
L 65.492119 213.392472 
L 66.790738 210.112937 
L 68.305799 205.180095 
L 69.82085 199.500233 
L 72.850962 186.466133 
L 75.448199 175.379669 
L 77.179693 167.763279 
L 78.261868 162.478039 
L 79.560486 155.690396 
L 83.456341 133.185246 
L 85.837144 118.177648 
L 88.650814 98.969834 
L 92.546668 71.682131 
L 95.143905 55.027808 
L 96.875399 45.333834 
L 98.174017 39.075393 
L 99.472635 33.771392 
L 100.771253 29.481558 
L 101.853438 26.839506 
L 102.502748 25.694182 
L 103.152057 24.840286 
L 103.584923 24.50374 
L 104.234232 24.299356 
L 104.883541 24.597852 
L 105.316417 25.02049 
L 105.965726 26.08871 
L 106.615035 27.711907 
L 107.264344 29.892724 
L 108.130086 33.672557 
L 108.995838 38.413563 
L 110.078014 45.637353 
L 111.376632 55.741453 
L 113.324559 72.960304 
L 115.921795 98.623295 
L 117.65328 117.857933 
L 119.601207 142.680458 
L 121.549134 171.086724 
L 124.7957 219.028309 
L 126.094318 234.838491 
L 127.176493 245.681352 
L 128.258668 254.290674 
L 128.907977 258.336119 
L 129.773729 262.689299 
L 130.639481 265.962247 
L 131.505214 268.432785 
L 132.587409 270.553806 
L 133.453141 271.771624 
L 134.535336 272.809396 
L 135.401068 273.438815 
L 136.26682 273.902261 
L 137.348995 274.350256 
L 138.43119 274.689323 
L 139.513366 274.951203 
L 146.006457 275.82717 
L 157.69402 276.09238 
L 159.209081 276.07691 
L 159.641948 276.100698 
L 160.291257 276.06428 
L 160.724123 276.104204 
L 161.589875 276.099903 
L 164.187111 276.112776 
L 166.784348 276.185195 
L 167.433657 276.192936 
L 170.896645 276.201988 
L 173.277438 276.226362 
L 174.14319 276.238366 
L 178.255468 276.20874 
L 178.688354 276.257065 
L 184.532136 276.266945 
L 184.748559 276.197497 
L 185.397868 276.283503 
L 187.129372 276.246968 
L 187.778681 276.259934 
L 188.211548 276.237379 
L 188.860857 276.239261 
L 189.726609 276.246775 
L 190.592341 276.244553 
L 191.025227 276.212166 
L 192.973154 276.251642 
L 193.622463 276.23957 
L 194.488195 276.258823 
L 195.353948 276.25951 
L 196.869009 276.280449 
L 200.115554 276.208709 
L 200.981286 276.272845 
L 202.279905 276.229633 
L 202.929214 276.254697 
L 203.794966 276.174699 
L 204.877141 276.200923 
L 209.205881 276.244977 
L 209.422305 276.161106 
L 209.638748 276.276154 
L 210.288057 276.160558 
L 210.5045 276.326805 
L 210.937366 276.262364 
L 211.803118 276.195629 
L 213.318159 276.241637 
L 213.534602 276.158513 
L 213.751045 276.268449 
L 214.83322 276.240796 
L 215.266086 276.19157 
L 215.915395 276.264963 
L 216.348281 276.283658 
L 216.564705 276.173178 
L 217.214014 276.301517 
L 218.296209 276.300823 
L 218.512632 276.43649 
L 218.729075 276.273138 
L 219.594827 276.25111 
L 219.81125 276.323467 
L 220.027693 276.238459 
L 220.244136 276.311448 
L 220.460559 276.208547 
L 220.677002 276.365468 
L 221.109868 276.285084 
L 221.326311 276.149211 
L 221.542754 276.429349 
L 221.759177 276.279547 
L 222.192063 276.318386 
L 222.408486 276.509035 
L 223.057795 276.29012 
L 223.274238 276.306004 
L 223.490681 276.520912 
L 223.707105 276.239608 
L 224.572857 276.377829 
L 224.7893 276.277126 
L 225.005723 276.689938 
L 225.222166 276.433555 
L 225.655032 276.342407 
L 225.871475 276.281329 
L 226.087918 276.340526 
L 226.304341 275.968642 
L 226.520784 276.394843 
L 226.95365 276.59741 
L 227.170093 276.271241 
L 227.386536 276.405984 
L 227.602959 276.267408 
L 227.819402 276.52149 
L 228.035845 276.36748 
L 228.252268 276.5814 
L 228.468711 276.378654 
L 228.685154 276.417502 
L 228.901577 276.175486 
L 229.11802 276.45214 
L 229.334463 276.91333 
L 229.767329 276.229479 
L 229.983772 276.411308 
L 230.200195 276.349946 
L 230.416638 276.14657 
L 230.633081 276.571698 
L 230.849505 276.426576 
L 231.065948 276.899831 
L 231.28239 276.527371 
L 231.498814 276.438931 
L 231.715257 276.146756 
L 231.9317 276.59868 
L 232.364566 275.932967 
L 232.797432 276.859662 
L 233.230318 275.586597 
L 233.446741 276.555762 
L 233.663184 276.324315 
L 233.879627 276.764253 
L 234.09605 276.500728 
L 234.312493 276.423834 
L 234.528936 276.21384 
L 234.745359 277.082353 
L 234.961802 275.767557 
L 235.178245 277.191525 
L 235.394668 276.381382 
L 235.611111 276.942311 
L 236.043977 277.041498 
L 239.723389 277.044833 
L 241.23845 277.026157 
L 253.575323 276.937424 
L 254.873941 276.928378 
L 259.419105 277.046167 
L 281.062728 277.051824 
L 287.122972 277.060678 
L 288.205128 277.078682 
L 289.720209 277.054408 
L 294.04891 277.071462 
L 295.347528 277.039543 
L 296.646146 277.055404 
L 309.632328 277.055527 
L 310.281637 277.025666 
L 315.908995 276.808061 
L 316.774728 276.65321 
L 317.6405 276.786101 
L 318.289809 276.923797 
L 318.506232 276.868191 
L 318.939118 277.072551 
L 320.021273 277.03206 
L 326.514364 277.123256 
L 328.895177 277.115135 
L 330.410219 277.127233 
L 334.955382 277.08784 
L 337.552619 277.089128 
L 349.023759 277.037719 
L 350.5388 277.042265 
L 355.733273 277.002609 
L 357.248354 277.011665 
L 365.905795 276.976916 
L 366.98799 276.962848 
L 383.437141 276.672994 
L 384.302873 276.624556 
L 384.519336 276.704389 
L 384.735759 276.569644 
L 384.952182 276.676807 
L 385.168645 276.444169 
L 385.385068 276.523514 
L 385.601491 276.388979 
L 386.467263 276.488479 
L 387.116572 276.312781 
L 387.332995 276.350115 
L 387.549419 276.244839 
L 388.631614 276.375571 
L 388.848037 276.182726 
L 389.0645 276.341382 
L 389.280923 276.275552 
L 389.713809 276.326913 
L 393.826086 276.181691 
L 395.55759 275.550786 
L 395.990437 275.241763 
L 396.423323 274.87431 
L 398.154827 272.348119 
L 398.37125 272.333169 
L 398.37125 272.333169 
" clip-path="url(#p31ae9b219b)" style="fill: none; stroke: #f6ab83; stroke-linecap: round"/>
   </g>
   <g id="line2d_32">
    <path d="M 41.467683 216.949367 
L 43.848486 214.434754 
L 45.147105 212.825013 
L 45.579981 212.368356 
L 46.22929 211.581709 
L 49.908701 207.991909 
L 52.505938 206.360363 
L 53.37169 205.94065 
L 57.051101 203.296686 
L 60.51409 200.523733 
L 61.596265 200.178278 
L 62.245574 200.04987 
L 62.462017 200.104222 
L 63.111326 199.927084 
L 63.760635 199.810608 
L 65.708562 198.7621 
L 66.574305 197.962116 
L 68.305799 195.448199 
L 69.171541 193.854496 
L 70.253726 191.471321 
L 72.201653 186.365113 
L 76.746817 173.133044 
L 79.12762 164.874096 
L 81.94129 154.146753 
L 90.815184 121.928244 
L 92.330235 117.665181 
L 93.628853 114.663725 
L 94.927471 112.27232 
L 96.009657 110.718103 
L 97.091832 109.561552 
L 98.174017 108.821313 
L 99.039759 108.563387 
L 99.689068 108.570913 
L 100.55482 108.8355 
L 101.204129 109.272397 
L 102.286305 110.51215 
L 103.152057 111.985209 
L 104.017799 113.828457 
L 105.099984 116.838849 
L 106.182159 120.512022 
L 107.480777 125.898169 
L 108.779395 132.1526 
L 110.294457 140.378803 
L 112.458807 153.283729 
L 115.272486 171.667255 
L 117.436857 187.269819 
L 123.280638 230.776622 
L 124.7957 239.644586 
L 125.877875 244.813835 
L 126.96005 248.959937 
L 127.825802 251.640819 
L 128.691554 253.756147 
L 129.557286 255.457958 
L 130.639481 257.101329 
L 131.9381 258.499816 
L 133.669584 259.711791 
L 135.401068 260.579078 
L 140.162675 261.809344 
L 144.274972 262.285206 
L 145.57359 262.320358 
L 147.305075 262.386206 
L 149.253002 262.366484 
L 150.984486 262.327441 
L 154.014609 262.165345 
L 159.641948 261.702567 
L 160.940566 261.537032 
L 163.754245 261.307034 
L 164.187111 261.249689 
L 170.030893 260.629153 
L 180.419838 259.232206 
L 181.718457 259.033872 
L 203.145657 255.262832 
L 204.877141 254.906847 
L 205.742893 254.802229 
L 206.608645 254.577315 
L 207.257954 254.554948 
L 207.69082 254.439085 
L 208.772995 254.261766 
L 209.205881 254.227873 
L 209.638748 254.092171 
L 215.698972 253.0469 
L 215.915395 253.053156 
L 216.564705 252.830106 
L 216.99759 252.858597 
L 217.214014 252.707523 
L 217.430457 252.818747 
L 218.296209 252.657273 
L 218.512632 252.67519 
L 218.729075 252.464276 
L 218.945518 252.559015 
L 219.161941 252.53031 
L 219.378384 252.388502 
L 219.81125 252.408174 
L 220.460559 252.092541 
L 220.677002 252.214087 
L 221.109868 252.132495 
L 221.326311 251.905063 
L 221.542754 252.315081 
L 221.97562 251.87523 
L 222.192063 251.914403 
L 222.408486 252.092028 
L 222.841372 251.899383 
L 223.490681 251.748446 
L 223.707105 251.874941 
L 224.7893 251.62175 
L 225.005723 251.787769 
L 225.438609 251.456927 
L 226.087918 251.61761 
L 226.304341 251.247984 
L 226.520784 251.317654 
L 226.737227 251.129151 
L 226.95365 251.323489 
L 227.170093 251.21772 
L 227.386536 251.324604 
L 227.602959 251.092376 
L 227.819402 251.459284 
L 228.035845 250.886606 
L 228.252268 251.207632 
L 228.468711 250.748276 
L 228.685154 251.047385 
L 229.334463 250.916847 
L 229.550886 251.027324 
L 229.767329 250.566754 
L 229.983772 250.822561 
L 230.200195 250.775659 
L 230.416638 249.927038 
L 230.633081 250.848642 
L 230.849505 250.612903 
L 231.065948 250.997119 
L 231.28239 250.372891 
L 231.498814 250.599859 
L 231.715257 250.441292 
L 231.9317 249.996822 
L 232.364566 250.144662 
L 232.581009 249.788084 
L 232.797432 250.731593 
L 233.013875 249.932869 
L 233.446741 249.596486 
L 233.879627 250.133799 
L 234.09605 249.895938 
L 234.312493 250.162808 
L 234.528936 249.12326 
L 234.745359 250.265399 
L 234.961802 250.058952 
L 235.394668 250.142223 
L 235.611111 250.025077 
L 235.827534 251.37242 
L 237.126152 251.117821 
L 241.022007 250.456334 
L 242.104182 250.234817 
L 242.969934 250.090239 
L 245.783614 249.566646 
L 247.731541 249.22673 
L 250.328777 248.799324 
L 251.410952 248.607027 
L 256.172559 248.04501 
L 257.6876 247.968676 
L 261.367032 247.34531 
L 262.882073 247.179914 
L 264.397134 246.991783 
L 275.435389 245.931633 
L 276.95045 245.784084 
L 286.473663 245.095952 
L 288.638014 244.991832 
L 291.23525 244.853676 
L 292.100982 244.832624 
L 301.19131 244.577267 
L 301.407772 244.508937 
L 301.840619 244.593415 
L 302.70639 244.53567 
L 306.385782 244.598922 
L 306.818668 244.63508 
L 307.035091 244.585548 
L 307.467977 244.650679 
L 311.363832 244.596849 
L 311.580255 244.662507 
L 312.013141 244.606364 
L 315.692572 244.652061 
L 317.6405 244.589595 
L 318.722655 245.144294 
L 319.371964 245.174482 
L 320.021273 245.074006 
L 321.752777 245.158426 
L 323.267819 245.210439 
L 324.566437 245.301407 
L 326.94725 245.441808 
L 328.029445 245.548952 
L 332.358146 245.904036 
L 336.686886 246.10084 
L 339.284123 246.317191 
L 340.582741 246.371433 
L 343.612863 246.589408 
L 345.777214 246.691466 
L 348.37445 246.958977 
L 350.322377 247.166747 
L 351.837419 247.319676 
L 355.300427 247.514865 
L 358.763395 247.674992 
L 360.4949 247.760379 
L 363.957868 247.971406 
L 366.338681 248.223976 
L 368.935918 248.395787 
L 369.368764 248.469396 
L 374.7797 248.934779 
L 376.078318 248.910786 
L 376.727627 248.888882 
L 377.376936 248.82407 
L 378.459091 248.813507 
L 382.787832 248.583902 
L 383.004255 248.782339 
L 383.220718 248.624667 
L 383.870027 248.702646 
L 384.08645 248.802342 
L 384.302873 248.686156 
L 384.519336 248.956551 
L 384.735759 248.719098 
L 384.952182 248.915197 
L 385.168645 248.771247 
L 385.385068 248.902836 
L 385.601491 248.566516 
L 385.817954 248.536291 
L 386.034377 248.837784 
L 386.467263 248.876243 
L 386.683686 248.689434 
L 387.116572 249.001278 
L 387.765881 248.595911 
L 388.198728 249.019865 
L 388.41519 248.74795 
L 388.631614 248.876395 
L 388.848037 248.634164 
L 389.0645 248.860499 
L 391.445273 248.706364 
L 392.094582 248.714328 
L 392.311045 248.804415 
L 392.527468 248.696863 
L 393.176777 248.941811 
L 393.3932 248.569004 
L 393.826086 248.896557 
L 394.04251 248.684339 
L 394.475395 248.567693 
L 394.691819 248.672665 
L 395.124705 248.520201 
L 395.341128 248.204958 
L 395.55759 248.129565 
L 395.774014 247.915315 
L 395.990437 248.052639 
L 396.423323 247.493897 
L 396.639746 246.874888 
L 397.505518 245.923185 
L 398.154827 244.665162 
L 398.37125 244.714073 
L 398.37125 244.714073 
" clip-path="url(#p31ae9b219b)" style="fill: none; stroke: #f06043; stroke-linecap: round"/>
   </g>
   <g id="line2d_33">
    <path d="M 41.467683 215.29755 
L 42.549868 214.160367 
L 47.095032 209.280437 
L 48.177217 208.486326 
L 49.259392 207.743831 
L 49.692268 207.533877 
L 50.341577 207.120654 
L 51.423762 206.648867 
L 53.37169 205.845922 
L 55.319617 204.539317 
L 55.968926 203.892912 
L 57.483977 202.130698 
L 59.648338 199.306494 
L 60.730523 198.101063 
L 64.626377 194.358777 
L 66.574305 191.645155 
L 68.738665 187.490999 
L 69.82085 184.925285 
L 71.119468 181.287641 
L 79.344053 154.842545 
L 82.157723 145.535645 
L 84.10565 140.184191 
L 85.837144 136.041993 
L 87.352195 132.695945 
L 88.867257 129.667225 
L 89.732999 128.232384 
L 90.815184 126.846934 
L 91.464493 126.315785 
L 92.330235 125.942563 
L 92.979544 126.024602 
L 93.41242 126.127121 
L 93.845286 126.339365 
L 94.711038 126.911102 
L 96.658966 129.170416 
L 98.39045 131.975004 
L 99.472635 134.198964 
L 100.771253 137.305882 
L 102.286305 141.777965 
L 103.584923 146.334677 
L 105.099984 152.397202 
L 106.831468 160.202661 
L 109.428705 173.212413 
L 112.891693 191.876636 
L 120.899825 235.549602 
L 122.414886 242.517927 
L 123.929948 248.397972 
L 125.012123 251.798332 
L 126.094318 254.627275 
L 127.176493 256.821979 
L 128.258668 258.506051 
L 129.12442 259.520314 
L 130.206595 260.519131 
L 131.072348 261.143495 
L 133.669584 262.300952 
L 135.184645 262.724974 
L 136.26682 262.920062 
L 138.647614 263.240789 
L 140.379118 263.422813 
L 141.677736 263.483992 
L 142.327045 263.519278 
L 143.40922 263.537947 
L 144.058529 263.573702 
L 146.006457 263.579134 
L 147.737941 263.518894 
L 149.469445 263.465716 
L 150.768063 263.368136 
L 151.633795 263.332161 
L 152.066681 263.271882 
L 159.641948 262.51073 
L 160.291257 262.39247 
L 160.724123 262.354537 
L 161.806318 262.214143 
L 162.455627 262.132122 
L 167.00079 261.704632 
L 170.680202 261.269047 
L 171.97882 261.102336 
L 173.277438 260.933078 
L 175.441809 260.671893 
L 175.874675 260.571095 
L 177.822602 260.268538 
L 178.471911 260.204356 
L 183.233518 259.426698 
L 183.882827 259.355213 
L 184.965002 259.145447 
L 186.480063 258.914919 
L 186.696486 258.800351 
L 187.345795 258.792372 
L 187.778681 258.716987 
L 188.211548 258.628066 
L 189.943032 258.275541 
L 190.159475 258.291813 
L 190.592341 258.167064 
L 191.025227 258.093389 
L 192.756711 257.807525 
L 210.071614 254.560348 
L 210.288057 254.436313 
L 210.720923 254.461158 
L 211.370232 254.298479 
L 212.235984 254.101364 
L 215.266086 253.456896 
L 215.482529 253.368393 
L 215.915395 253.415766 
L 216.131838 253.458138 
L 216.781148 253.171441 
L 216.99759 253.22986 
L 217.863323 253.068033 
L 218.296209 253.065066 
L 218.729075 252.875219 
L 219.378384 252.811619 
L 219.594827 252.711367 
L 220.244136 252.753455 
L 220.893445 252.468741 
L 221.109868 252.526589 
L 221.326311 252.324514 
L 221.542754 252.559451 
L 221.759177 252.5442 
L 221.97562 252.244453 
L 222.408486 252.493924 
L 222.841372 252.278855 
L 223.057795 252.374819 
L 223.274238 252.116411 
L 223.707105 252.193165 
L 223.923548 252.117378 
L 224.13999 252.181936 
L 224.356414 252.039377 
L 224.572857 252.043624 
L 224.7893 251.933151 
L 225.005723 252.120041 
L 226.304341 251.620095 
L 226.95365 251.715311 
L 227.170093 251.287424 
L 227.386536 251.78007 
L 227.602959 251.364254 
L 227.819402 251.795832 
L 228.035845 251.347764 
L 228.252268 251.536789 
L 228.468711 251.124564 
L 228.685154 251.67971 
L 228.901577 251.178989 
L 229.767329 251.110747 
L 229.983772 250.99157 
L 230.200195 251.147854 
L 230.416638 250.794171 
L 230.633081 251.702394 
L 231.065948 250.817558 
L 231.28239 250.93605 
L 231.715257 250.800397 
L 231.9317 251.284296 
L 232.148123 251.224066 
L 232.581009 250.140086 
L 232.797432 250.994134 
L 233.013875 250.540268 
L 233.446741 250.499825 
L 233.663184 249.980524 
L 233.879627 250.23952 
L 234.312493 251.005627 
L 234.528936 250.502691 
L 234.745359 251.222659 
L 234.961802 250.317718 
L 235.178245 250.795788 
L 235.394668 250.313034 
L 235.611111 249.538728 
L 235.827534 252.095297 
L 255.739673 248.811282 
L 256.821868 248.775965 
L 260.284837 248.184593 
L 262.449207 247.898425 
L 268.076546 247.234277 
L 269.375164 247.091004 
L 271.323091 246.896431 
L 273.054595 246.71602 
L 275.002523 246.518185 
L 277.166873 246.288284 
L 279.980572 246.029353 
L 282.144923 245.836733 
L 286.473663 245.508955 
L 299.243382 244.982306 
L 300.974886 244.953253 
L 302.922814 244.942948 
L 305.736473 244.993337 
L 306.385782 244.959878 
L 306.818668 244.994784 
L 307.251554 245.010161 
L 317.6405 244.86386 
L 318.289809 245.21156 
L 318.506232 245.21097 
L 318.939118 245.360515 
L 320.237736 245.284296 
L 322.61851 245.40615 
L 324.350014 245.52043 
L 349.023759 247.077713 
L 349.889491 247.167599 
L 350.971686 247.246856 
L 362.875673 248.055712 
L 364.390754 248.157774 
L 368.503032 248.395615 
L 371.100268 248.536626 
L 372.61531 248.57087 
L 374.996123 248.63603 
L 383.220718 248.565607 
L 383.437141 248.462452 
L 384.08645 248.652574 
L 384.302873 248.488769 
L 384.519336 248.755528 
L 384.735759 248.484268 
L 384.952182 248.680658 
L 385.168645 248.514524 
L 385.385068 248.62329 
L 385.601491 248.246773 
L 385.817954 248.18228 
L 386.034377 248.47494 
L 386.467263 248.414202 
L 386.683686 248.201292 
L 387.116572 248.528433 
L 387.765881 248.091275 
L 388.198728 248.546571 
L 388.41519 248.287894 
L 388.631614 248.406194 
L 388.848037 248.150447 
L 389.0645 248.401823 
L 389.713809 248.372969 
L 389.930232 248.258111 
L 390.146655 248.36372 
L 390.363118 248.291998 
L 390.579541 248.355757 
L 390.795964 248.287442 
L 391.22885 248.389233 
L 391.661736 248.255369 
L 392.311045 248.363769 
L 392.527468 248.241248 
L 393.176777 248.51055 
L 393.3932 248.090228 
L 393.609663 248.334819 
L 393.826086 248.370995 
L 394.258972 248.040108 
L 394.475395 247.986029 
L 394.691819 248.118444 
L 395.124705 247.930954 
L 395.341128 247.567514 
L 395.55759 247.487306 
L 395.774014 247.249535 
L 395.990437 247.435928 
L 396.423323 246.83631 
L 396.639746 246.169496 
L 397.289055 245.518029 
L 397.721941 244.711922 
L 398.154827 243.838614 
L 398.37125 243.897597 
L 398.37125 243.897597 
" clip-path="url(#p31ae9b219b)" style="fill: none; stroke: #ca1a50; stroke-linecap: round"/>
   </g>
   <g id="line2d_34">
    <path d="M 41.467683 211.315808 
L 41.900559 211.015541 
L 42.982744 210.07301 
L 43.632053 209.651253 
L 43.848486 209.311944 
L 44.497795 208.860547 
L 44.714229 208.507228 
L 44.930671 208.429145 
L 45.579981 207.786331 
L 47.744341 206.014195 
L 49.692268 204.867077 
L 54.237432 202.534003 
L 55.319617 201.602809 
L 56.185359 200.669086 
L 57.916853 198.061163 
L 59.215471 195.983093 
L 60.297647 194.287674 
L 62.245574 191.516483 
L 65.492119 185.708094 
L 68.089356 179.715774 
L 69.82085 174.94983 
L 71.552344 169.269823 
L 75.015323 157.207038 
L 76.313941 153.059094 
L 78.694744 145.215277 
L 80.426238 139.540892 
L 82.157723 134.760947 
L 83.023475 132.862244 
L 84.971402 129.945559 
L 87.352195 127.697745 
L 88.217948 127.160533 
L 89.300123 126.803473 
L 89.949432 126.888491 
L 90.598741 127.167777 
L 91.24805 127.72515 
L 91.897359 128.576825 
L 92.763111 130.186892 
L 93.845286 132.825587 
L 96.442523 140.99408 
L 98.823326 149.568302 
L 100.55482 156.567872 
L 102.502748 165.186929 
L 105.53285 180.127063 
L 111.376632 209.47 
L 114.406734 223.821327 
L 116.787548 234.39851 
L 118.951898 243.067615 
L 121.116268 250.41826 
L 123.064195 255.70968 
L 124.146371 258.045071 
L 125.445009 260.338172 
L 126.96005 262.311777 
L 129.12442 264.1401 
L 130.639481 265.003682 
L 132.370966 265.634982 
L 135.401068 266.334777 
L 137.781881 266.663707 
L 138.43119 266.68101 
L 139.296923 266.779444 
L 140.595541 266.803698 
L 141.028427 266.865902 
L 141.894159 266.875951 
L 144.274972 266.959276 
L 146.006457 266.955661 
L 150.984486 266.84903 
L 152.499548 266.752876 
L 153.798166 266.690459 
L 178.039045 264.442832 
L 178.904777 264.341938 
L 179.986972 264.219746 
L 183.233518 263.852312 
L 183.882827 263.781091 
L 184.748559 263.70522 
L 184.965002 263.592389 
L 185.397868 263.563119 
L 186.047177 263.522054 
L 187.129372 263.37379 
L 205.742893 260.991008 
L 206.175759 260.894789 
L 207.257954 260.765912 
L 208.556572 260.536848 
L 208.989438 260.560427 
L 210.071614 260.305391 
L 210.5045 260.339543 
L 210.937366 260.188063 
L 211.370232 260.179251 
L 216.564705 259.47304 
L 216.99759 259.359701 
L 217.430457 259.314814 
L 218.079766 259.197635 
L 218.512632 259.19448 
L 219.161941 259.058242 
L 219.378384 259.118689 
L 219.594827 258.931312 
L 220.244136 259.040232 
L 220.677002 258.854039 
L 220.893445 258.937809 
L 221.759177 258.668336 
L 222.192063 258.733805 
L 222.624929 258.647417 
L 222.841372 258.698718 
L 223.057795 258.478575 
L 223.274238 258.61459 
L 223.490681 258.58718 
L 223.707105 258.343312 
L 223.923548 258.296311 
L 224.13999 258.432271 
L 224.572857 258.27989 
L 224.7893 258.311692 
L 225.005723 258.024974 
L 225.438609 258.309538 
L 225.655032 258.049116 
L 225.871475 258.289169 
L 226.087918 258.297527 
L 226.304341 257.989541 
L 226.520784 258.287059 
L 226.737227 258.316918 
L 226.95365 257.699249 
L 227.170093 258.031792 
L 227.386536 257.889897 
L 227.819402 258.097522 
L 228.035845 257.510226 
L 228.252268 257.91856 
L 228.468711 257.929842 
L 228.685154 257.644121 
L 228.901577 258.055533 
L 229.11802 257.46465 
L 229.550886 257.707776 
L 229.983772 257.408172 
L 230.200195 257.554953 
L 230.416638 257.328243 
L 230.633081 257.381424 
L 230.849505 257.70784 
L 231.065948 257.423875 
L 231.28239 257.341937 
L 231.498814 257.01881 
L 231.715257 257.746904 
L 231.9317 257.712856 
L 232.148123 256.877468 
L 232.364566 257.478419 
L 232.581009 256.67107 
L 233.013875 257.322262 
L 233.230318 256.931527 
L 233.446741 256.975552 
L 233.879627 256.319476 
L 234.09605 256.850233 
L 234.312493 257.052324 
L 234.745359 256.710045 
L 234.961802 257.133865 
L 235.394668 257.329404 
L 235.611111 256.96952 
L 235.827534 257.925509 
L 242.104182 257.126077 
L 243.835686 256.898125 
L 249.895891 256.155888 
L 254.224632 255.558896 
L 256.172559 255.547496 
L 257.038291 255.540327 
L 258.33691 255.382811 
L 262.66565 254.870152 
L 279.1148 253.566351 
L 287.122972 253.206575 
L 291.668136 253.095731 
L 308.766595 252.7618 
L 310.714523 252.720688 
L 317.424037 252.833181 
L 318.722655 253.164313 
L 319.155541 253.113902 
L 320.887045 253.214668 
L 323.700705 253.389612 
L 333.440341 253.814033 
L 334.306073 253.83944 
L 334.955382 253.887291 
L 341.015627 254.099558 
L 343.612863 254.261859 
L 344.911481 254.33498 
L 347.508718 254.458975 
L 348.37445 254.496281 
L 356.599045 254.833538 
L 359.412705 254.927668 
L 362.442827 255.028807 
L 363.741445 255.089825 
L 364.390754 255.11046 
L 378.675554 255.44663 
L 379.1084 255.428896 
L 381.056328 255.358462 
L 382.787832 255.301422 
L 383.004255 255.402856 
L 383.437141 255.189572 
L 384.08645 255.291614 
L 384.302873 255.180985 
L 384.519336 255.343294 
L 384.735759 255.191663 
L 384.952182 255.289334 
L 385.168645 255.170276 
L 385.385068 255.277139 
L 385.601491 254.98228 
L 385.817954 254.884839 
L 386.034377 255.053529 
L 386.467263 255.036751 
L 386.683686 254.885176 
L 387.116572 255.095782 
L 387.765881 254.843754 
L 387.982305 254.932904 
L 388.198728 255.205687 
L 388.41519 254.95077 
L 388.631614 255.049962 
L 388.848037 254.841139 
L 389.0645 255.013408 
L 390.795964 254.95513 
L 391.445273 254.960265 
L 392.743891 254.950387 
L 393.176777 255.038861 
L 393.3932 254.76204 
L 393.609663 254.946926 
L 393.826086 254.965118 
L 394.258972 254.729709 
L 394.475395 254.653471 
L 394.691819 254.731406 
L 395.124705 254.595047 
L 395.341128 254.301061 
L 395.55759 254.2368 
L 395.774014 254.029778 
L 395.990437 254.138692 
L 396.423323 253.608701 
L 396.856209 252.875153 
L 397.721941 251.782495 
L 397.938364 251.339448 
L 398.154827 251.182533 
L 398.587673 251.201006 
L 398.587673 251.201006 
" clip-path="url(#p31ae9b219b)" style="fill: none; stroke: #841e5a; stroke-linecap: round"/>
   </g>
   <g id="line2d_35">
    <path d="M 41.467683 200.314546 
L 43.848486 201.131414 
L 44.714229 201.194586 
L 45.796414 200.935674 
L 46.22929 200.615368 
L 48.610083 199.121919 
L 49.042959 198.703069 
L 51.207319 196.638561 
L 52.505938 195.721361 
L 52.938814 195.421102 
L 53.37169 195.138194 
L 55.752483 192.833587 
L 56.401792 192.021716 
L 58.782595 188.584685 
L 62.029141 182.824075 
L 63.111326 180.311753 
L 64.626377 175.739725 
L 66.141429 170.404767 
L 68.522232 161.346884 
L 70.253726 153.945444 
L 75.015323 131.881192 
L 76.313941 126.970283 
L 81.075548 110.494456 
L 81.94129 108.318415 
L 82.590599 107.00829 
L 83.672784 105.533504 
L 84.322093 104.950065 
L 85.837144 104.427992 
L 86.486453 104.472862 
L 87.568638 104.715755 
L 88.650814 105.344188 
L 89.08369 105.724053 
L 89.949432 106.818692 
L 90.815184 108.525707 
L 91.680926 110.722668 
L 92.546668 113.567606 
L 93.628853 117.910453 
L 94.711038 122.846925 
L 97.091832 134.69402 
L 99.472635 147.28079 
L 102.502748 164.559483 
L 108.130086 197.717355 
L 112.025941 218.66627 
L 116.787548 241.078852 
L 118.951898 249.630857 
L 121.116268 256.936504 
L 123.280638 262.974972 
L 124.7957 266.351601 
L 125.877875 268.385704 
L 127.825802 271.140558 
L 129.12442 272.492449 
L 131.28879 274.00745 
L 132.803832 274.741048 
L 135.401068 275.511853 
L 140.162675 276.171959 
L 145.140705 276.490181 
L 152.932414 276.68654 
L 160.074814 276.590456 
L 160.724123 276.573422 
L 162.022741 276.509135 
L 164.619977 276.594849 
L 166.784348 276.724349 
L 167.6501 276.684518 
L 168.299409 276.751837 
L 168.948718 276.71538 
L 170.247336 276.744537 
L 172.411686 276.762985 
L 173.060995 276.767472 
L 173.710305 276.771298 
L 174.576057 276.752298 
L 175.874675 276.763285 
L 176.740427 276.746366 
L 177.822602 276.767649 
L 179.554086 276.734148 
L 180.419838 276.787745 
L 181.502014 276.768978 
L 182.584209 276.766289 
L 212.452427 276.723811 
L 212.885293 276.724311 
L 213.318159 276.725633 
L 213.751045 276.724503 
L 213.967468 276.775769 
L 214.616777 276.694873 
L 216.781148 276.710215 
L 217.6469 276.758552 
L 218.296209 276.681005 
L 220.027693 276.953029 
L 220.244136 276.67806 
L 220.677002 276.873787 
L 220.893445 276.771382 
L 221.109868 276.878562 
L 221.759177 276.666066 
L 222.192063 276.972705 
L 222.408486 276.765659 
L 222.624929 276.721437 
L 223.057795 276.768094 
L 223.274238 276.762916 
L 223.490681 276.946469 
L 223.707105 276.959726 
L 223.923548 276.778542 
L 224.13999 276.924111 
L 224.356414 276.655209 
L 224.572857 277.005546 
L 224.7893 276.822491 
L 225.222166 276.807316 
L 225.438609 276.603172 
L 226.304341 277.06881 
L 226.520784 276.680151 
L 226.737227 277.085756 
L 227.170093 276.97315 
L 227.386536 276.678975 
L 227.602959 276.886169 
L 227.819402 276.802915 
L 228.035845 277.07393 
L 228.468711 276.693197 
L 228.685154 276.768501 
L 228.901577 276.517603 
L 229.550886 276.911964 
L 229.767329 276.654748 
L 229.983772 276.748771 
L 230.200195 277.244771 
L 230.416638 277.143067 
L 230.849505 276.638438 
L 231.065948 276.853551 
L 231.498814 276.856783 
L 231.715257 276.580192 
L 231.9317 277.605359 
L 232.148123 276.707464 
L 232.581009 276.904919 
L 233.013875 277.203944 
L 233.230318 277.33307 
L 233.446741 277.253527 
L 233.663184 276.796571 
L 234.09605 277.500152 
L 234.312493 276.670826 
L 234.745359 277.074467 
L 234.961802 276.787653 
L 235.178245 276.972191 
L 235.394668 276.884311 
L 235.611111 277.109105 
L 235.827534 277.495675 
L 240.805564 277.508921 
L 242.104182 277.497998 
L 243.835686 277.483437 
L 246.649346 277.471457 
L 248.813716 277.442495 
L 255.090364 277.43554 
L 258.120486 277.799557 
L 260.50128 277.612335 
L 262.232764 277.62563 
L 266.994371 277.686271 
L 306.169359 277.663889 
L 313.095336 276.990944 
L 316.99119 277.597191 
L 318.289809 277.978561 
L 318.506232 277.888115 
L 318.722655 277.946029 
L 318.939118 277.807223 
L 319.371964 277.776249 
L 320.237736 277.754614 
L 321.752777 277.79788 
L 331.059528 278.016547 
L 333.223918 278.008223 
L 334.522536 278.052697 
L 336.90331 278.003034 
L 339.284123 277.968256 
L 340.582741 277.920799 
L 341.448473 277.925611 
L 364.8236 277.725716 
L 370.018073 277.689322 
L 373.048195 277.760957 
L 375.645432 277.752068 
L 380.839905 277.731298 
L 384.952182 277.56412 
L 385.168645 277.421308 
L 385.817954 277.337338 
L 391.012427 277.153079 
L 391.445273 277.16577 
L 392.311045 277.135361 
L 394.258972 276.915517 
L 395.55759 276.31935 
L 395.990437 275.943468 
L 396.423323 275.483005 
L 397.721941 273.302199 
L 398.154827 272.76692 
L 398.37125 272.7906 
L 398.37125 272.7906 
" clip-path="url(#p31ae9b219b)" style="fill: none; stroke: #3f1b43; stroke-linecap: round"/>
   </g>
   <g id="line2d_36"/>
   <g id="line2d_37"/>
   <g id="line2d_38"/>
   <g id="line2d_39"/>
   <g id="line2d_40"/>
   <g id="patch_3">
    <path d="M 41.25125 277.248797 
L 41.25125 11.136797 
" style="fill: none; stroke: #262626; stroke-width: 1.25; stroke-linejoin: miter; stroke-linecap: square"/>
   </g>
   <g id="patch_4">
    <path d="M 41.25125 277.248797 
L 398.37125 277.248797 
" style="fill: none; stroke: #262626; stroke-width: 1.25; stroke-linejoin: miter; stroke-linecap: square"/>
   </g>
   <g id="legend_1">
    <g id="line2d_41">
     <path d="M 272.259875 45.415809 
L 278.259875 45.415809 
L 284.259875 45.415809 
" style="fill: none; stroke: #f6ab83; stroke-width: 1.5; stroke-linecap: round"/>
    </g>
    <g id="text_19">
     <!-- FeCl3 0 uM_Abs -->
     <g style="fill: #262626" transform="translate(289.059875 47.515809) scale(0.06 -0.06)">
      <defs>
       <path id="ArialMT-46" d="M 525 0 
L 525 4581 
L 3616 4581 
L 3616 4041 
L 1131 4041 
L 1131 2622 
L 3281 2622 
L 3281 2081 
L 1131 2081 
L 1131 0 
L 525 0 
z
" transform="scale(0.015625)"/>
       <path id="ArialMT-43" d="M 3763 1606 
L 4369 1453 
Q 4178 706 3683 314 
Q 3188 -78 2472 -78 
Q 1731 -78 1267 223 
Q 803 525 561 1097 
Q 319 1669 319 2325 
Q 319 3041 592 3573 
Q 866 4106 1370 4382 
Q 1875 4659 2481 4659 
Q 3169 4659 3637 4309 
Q 4106 3959 4291 3325 
L 3694 3184 
Q 3534 3684 3231 3912 
Q 2928 4141 2469 4141 
Q 1941 4141 1586 3887 
Q 1231 3634 1087 3207 
Q 944 2781 944 2328 
Q 944 1744 1114 1308 
Q 1284 872 1643 656 
Q 2003 441 2422 441 
Q 2931 441 3284 734 
Q 3638 1028 3763 1606 
z
" transform="scale(0.015625)"/>
       <path id="ArialMT-4d" d="M 475 0 
L 475 4581 
L 1388 4581 
L 2472 1338 
Q 2622 884 2691 659 
Q 2769 909 2934 1394 
L 4031 4581 
L 4847 4581 
L 4847 0 
L 4263 0 
L 4263 3834 
L 2931 0 
L 2384 0 
L 1059 3900 
L 1059 0 
L 475 0 
z
" transform="scale(0.015625)"/>
       <path id="ArialMT-5f" d="M -97 -1272 
L -97 -866 
L 3631 -866 
L 3631 -1272 
L -97 -1272 
z
" transform="scale(0.015625)"/>
      </defs>
      <use xlink:href="#ArialMT-46"/>
      <use xlink:href="#ArialMT-65" x="61.083984"/>
      <use xlink:href="#ArialMT-43" x="116.699219"/>
      <use xlink:href="#ArialMT-6c" x="188.916016"/>
      <use xlink:href="#ArialMT-33" x="211.132812"/>
      <use xlink:href="#ArialMT-20" x="266.748047"/>
      <use xlink:href="#ArialMT-30" x="294.53125"/>
      <use xlink:href="#ArialMT-20" x="350.146484"/>
      <use xlink:href="#ArialMT-75" x="377.929688"/>
      <use xlink:href="#ArialMT-4d" x="433.544922"/>
      <use xlink:href="#ArialMT-5f" x="516.845703"/>
      <use xlink:href="#ArialMT-41" x="572.460938"/>
      <use xlink:href="#ArialMT-62" x="639.160156"/>
      <use xlink:href="#ArialMT-73" x="694.775391"/>
     </g>
    </g>
    <g id="line2d_42">
     <path d="M 272.259875 53.976122 
L 278.259875 53.976122 
L 284.259875 53.976122 
" style="fill: none; stroke: #f06043; stroke-width: 1.5; stroke-linecap: round"/>
    </g>
    <g id="text_20">
     <!-- FeCl3 20 uM_Abs -->
     <g style="fill: #262626" transform="translate(289.059875 56.076122) scale(0.06 -0.06)">
      <use xlink:href="#ArialMT-46"/>
      <use xlink:href="#ArialMT-65" x="61.083984"/>
      <use xlink:href="#ArialMT-43" x="116.699219"/>
      <use xlink:href="#ArialMT-6c" x="188.916016"/>
      <use xlink:href="#ArialMT-33" x="211.132812"/>
      <use xlink:href="#ArialMT-20" x="266.748047"/>
      <use xlink:href="#ArialMT-32" x="294.53125"/>
      <use xlink:href="#ArialMT-30" x="350.146484"/>
      <use xlink:href="#ArialMT-20" x="405.761719"/>
      <use xlink:href="#ArialMT-75" x="433.544922"/>
      <use xlink:href="#ArialMT-4d" x="489.160156"/>
      <use xlink:href="#ArialMT-5f" x="572.460938"/>
      <use xlink:href="#ArialMT-41" x="628.076172"/>
      <use xlink:href="#ArialMT-62" x="694.775391"/>
      <use xlink:href="#ArialMT-73" x="750.390625"/>
     </g>
    </g>
    <g id="line2d_43">
     <path d="M 272.259875 62.536434 
L 278.259875 62.536434 
L 284.259875 62.536434 
" style="fill: none; stroke: #ca1a50; stroke-width: 1.5; stroke-linecap: round"/>
    </g>
    <g id="text_21">
     <!-- t=1hr FeCl3 20 uM_Abs -->
     <g style="fill: #262626" transform="translate(289.059875 64.636434) scale(0.06 -0.06)">
      <defs>
       <path id="ArialMT-3d" d="M 3381 2694 
L 356 2694 
L 356 3219 
L 3381 3219 
L 3381 2694 
z
M 3381 1303 
L 356 1303 
L 356 1828 
L 3381 1828 
L 3381 1303 
z
" transform="scale(0.015625)"/>
      </defs>
      <use xlink:href="#ArialMT-74"/>
      <use xlink:href="#ArialMT-3d" x="27.783203"/>
      <use xlink:href="#ArialMT-31" x="86.181641"/>
      <use xlink:href="#ArialMT-68" x="141.796875"/>
      <use xlink:href="#ArialMT-72" x="197.412109"/>
      <use xlink:href="#ArialMT-20" x="230.712891"/>
      <use xlink:href="#ArialMT-46" x="258.496094"/>
      <use xlink:href="#ArialMT-65" x="319.580078"/>
      <use xlink:href="#ArialMT-43" x="375.195312"/>
      <use xlink:href="#ArialMT-6c" x="447.412109"/>
      <use xlink:href="#ArialMT-33" x="469.628906"/>
      <use xlink:href="#ArialMT-20" x="525.244141"/>
      <use xlink:href="#ArialMT-32" x="553.027344"/>
      <use xlink:href="#ArialMT-30" x="608.642578"/>
      <use xlink:href="#ArialMT-20" x="664.257812"/>
      <use xlink:href="#ArialMT-75" x="692.041016"/>
      <use xlink:href="#ArialMT-4d" x="747.65625"/>
      <use xlink:href="#ArialMT-5f" x="830.957031"/>
      <use xlink:href="#ArialMT-41" x="886.572266"/>
      <use xlink:href="#ArialMT-62" x="953.271484"/>
      <use xlink:href="#ArialMT-73" x="1008.886719"/>
     </g>
    </g>
    <g id="line2d_44">
     <path d="M 272.259875 71.096747 
L 278.259875 71.096747 
L 284.259875 71.096747 
" style="fill: none; stroke: #841e5a; stroke-width: 1.5; stroke-linecap: round"/>
    </g>
    <g id="text_22">
     <!-- t=4hrs FeCl3 20 uM_Abs -->
     <g style="fill: #262626" transform="translate(289.059875 73.196747) scale(0.06 -0.06)">
      <use xlink:href="#ArialMT-74"/>
      <use xlink:href="#ArialMT-3d" x="27.783203"/>
      <use xlink:href="#ArialMT-34" x="86.181641"/>
      <use xlink:href="#ArialMT-68" x="141.796875"/>
      <use xlink:href="#ArialMT-72" x="197.412109"/>
      <use xlink:href="#ArialMT-73" x="230.712891"/>
      <use xlink:href="#ArialMT-20" x="280.712891"/>
      <use xlink:href="#ArialMT-46" x="308.496094"/>
      <use xlink:href="#ArialMT-65" x="369.580078"/>
      <use xlink:href="#ArialMT-43" x="425.195312"/>
      <use xlink:href="#ArialMT-6c" x="497.412109"/>
      <use xlink:href="#ArialMT-33" x="519.628906"/>
      <use xlink:href="#ArialMT-20" x="575.244141"/>
      <use xlink:href="#ArialMT-32" x="603.027344"/>
      <use xlink:href="#ArialMT-30" x="658.642578"/>
      <use xlink:href="#ArialMT-20" x="714.257812"/>
      <use xlink:href="#ArialMT-75" x="742.041016"/>
      <use xlink:href="#ArialMT-4d" x="797.65625"/>
      <use xlink:href="#ArialMT-5f" x="880.957031"/>
      <use xlink:href="#ArialMT-41" x="936.572266"/>
      <use xlink:href="#ArialMT-62" x="1003.271484"/>
      <use xlink:href="#ArialMT-73" x="1058.886719"/>
     </g>
    </g>
    <g id="line2d_45">
     <path d="M 272.259875 79.657059 
L 278.259875 79.657059 
L 284.259875 79.657059 
" style="fill: none; stroke: #3f1b43; stroke-width: 1.5; stroke-linecap: round"/>
    </g>
    <g id="text_23">
     <!-- t=24hrs FeCl3 20uM_Abs -->
     <g style="fill: #262626" transform="translate(289.059875 81.757059) scale(0.06 -0.06)">
      <use xlink:href="#ArialMT-74"/>
      <use xlink:href="#ArialMT-3d" x="27.783203"/>
      <use xlink:href="#ArialMT-32" x="86.181641"/>
      <use xlink:href="#ArialMT-34" x="141.796875"/>
      <use xlink:href="#ArialMT-68" x="197.412109"/>
      <use xlink:href="#ArialMT-72" x="253.027344"/>
      <use xlink:href="#ArialMT-73" x="286.328125"/>
      <use xlink:href="#ArialMT-20" x="336.328125"/>
      <use xlink:href="#ArialMT-46" x="364.111328"/>
      <use xlink:href="#ArialMT-65" x="425.195312"/>
      <use xlink:href="#ArialMT-43" x="480.810547"/>
      <use xlink:href="#ArialMT-6c" x="553.027344"/>
      <use xlink:href="#ArialMT-33" x="575.244141"/>
      <use xlink:href="#ArialMT-20" x="630.859375"/>
      <use xlink:href="#ArialMT-32" x="658.642578"/>
      <use xlink:href="#ArialMT-30" x="714.257812"/>
      <use xlink:href="#ArialMT-75" x="769.873047"/>
      <use xlink:href="#ArialMT-4d" x="825.488281"/>
      <use xlink:href="#ArialMT-5f" x="908.789062"/>
      <use xlink:href="#ArialMT-41" x="964.404297"/>
      <use xlink:href="#ArialMT-62" x="1031.103516"/>
      <use xlink:href="#ArialMT-73" x="1086.71875"/>
     </g>
    </g>
   </g>
  </g>
 </g>
 <defs>
  <clipPath id="p31ae9b219b">
   <rect x="41.25125" y="11.136797" width="357.12" height="266.112"/>
  </clipPath>
 </defs>
</svg>
