<?xml version="1.0" encoding="utf-8" standalone="no"?>
<!DOCTYPE svg PUBLIC "-//W3C//DTD SVG 1.1//EN"
  "http://www.w3.org/Graphics/SVG/1.1/DTD/svg11.dtd">
<svg xmlns:xlink="http://www.w3.org/1999/xlink" width="417.805313pt" height="313.269891pt" viewBox="0 0 417.805313 313.269891" xmlns="http://www.w3.org/2000/svg" version="1.1">
 <metadata>
  <rdf:RDF xmlns:dc="http://purl.org/dc/elements/1.1/" xmlns:cc="http://creativecommons.org/ns#" xmlns:rdf="http://www.w3.org/1999/02/22-rdf-syntax-ns#">
   <cc:Work>
    <dc:type rdf:resource="http://purl.org/dc/dcmitype/StillImage"/>
    <dc:date>2024-11-04T15:35:51.508663</dc:date>
    <dc:format>image/svg+xml</dc:format>
    <dc:creator>
     <cc:Agent>
      <dc:title>Matplotlib v3.7.1, https://matplotlib.org/</dc:title>
     </cc:Agent>
    </dc:creator>
   </cc:Work>
  </rdf:RDF>
 </metadata>
 <defs>
  <style type="text/css">*{stroke-linejoin: round; stroke-linecap: butt}</style>
 </defs>
 <g id="figure_1">
  <g id="patch_1">
   <path d="M 0 313.269891 
L 417.805313 313.269891 
L 417.805313 0 
L 0 0 
z
" style="fill: #ffffff"/>
  </g>
  <g id="axes_1">
   <g id="patch_2">
    <path d="M 41.25125 277.248797 
L 398.37125 277.248797 
L 398.37125 11.136797 
L 41.25125 11.136797 
z
" style="fill: #ffffff"/>
   </g>
   <g id="matplotlib.axis_1">
    <g id="xtick_1">
     <g id="line2d_1">
      <defs>
       <path id="mf748a9f3f7" d="M 0 0 
L 0 -6 
" style="stroke: #262626; stroke-width: 1.25"/>
      </defs>
      <g>
       <use xlink:href="#mf748a9f3f7" x="73.716705" y="277.248797" style="fill: #262626; stroke: #262626; stroke-width: 1.25"/>
      </g>
     </g>
     <g id="text_1">
      <!-- 400 -->
      <g style="fill: #262626" transform="translate(64.541158 288.622391) scale(0.11 -0.11)">
       <defs>
        <path id="ArialMT-34" d="M 2069 0 
L 2069 1097 
L 81 1097 
L 81 1613 
L 2172 4581 
L 2631 4581 
L 2631 1613 
L 3250 1613 
L 3250 1097 
L 2631 1097 
L 2631 0 
L 2069 0 
z
M 2069 1613 
L 2069 3678 
L 634 1613 
L 2069 1613 
z
" transform="scale(0.015625)"/>
        <path id="ArialMT-30" d="M 266 2259 
Q 266 3072 433 3567 
Q 600 4063 929 4331 
Q 1259 4600 1759 4600 
Q 2128 4600 2406 4451 
Q 2684 4303 2865 4023 
Q 3047 3744 3150 3342 
Q 3253 2941 3253 2259 
Q 3253 1453 3087 958 
Q 2922 463 2592 192 
Q 2263 -78 1759 -78 
Q 1097 -78 719 397 
Q 266 969 266 2259 
z
M 844 2259 
Q 844 1131 1108 757 
Q 1372 384 1759 384 
Q 2147 384 2411 759 
Q 2675 1134 2675 2259 
Q 2675 3391 2411 3762 
Q 2147 4134 1753 4134 
Q 1366 4134 1134 3806 
Q 844 3388 844 2259 
z
" transform="scale(0.015625)"/>
       </defs>
       <use xlink:href="#ArialMT-34"/>
       <use xlink:href="#ArialMT-30" x="55.615234"/>
       <use xlink:href="#ArialMT-30" x="111.230469"/>
      </g>
     </g>
    </g>
    <g id="xtick_2">
     <g id="line2d_2">
      <g>
       <use xlink:href="#mf748a9f3f7" x="138.647614" y="277.248797" style="fill: #262626; stroke: #262626; stroke-width: 1.25"/>
      </g>
     </g>
     <g id="text_2">
      <!-- 600 -->
      <g style="fill: #262626" transform="translate(129.472067 288.622391) scale(0.11 -0.11)">
       <defs>
        <path id="ArialMT-36" d="M 3184 3459 
L 2625 3416 
Q 2550 3747 2413 3897 
Q 2184 4138 1850 4138 
Q 1581 4138 1378 3988 
Q 1113 3794 959 3422 
Q 806 3050 800 2363 
Q 1003 2672 1297 2822 
Q 1591 2972 1913 2972 
Q 2475 2972 2870 2558 
Q 3266 2144 3266 1488 
Q 3266 1056 3080 686 
Q 2894 316 2569 119 
Q 2244 -78 1831 -78 
Q 1128 -78 684 439 
Q 241 956 241 2144 
Q 241 3472 731 4075 
Q 1159 4600 1884 4600 
Q 2425 4600 2770 4297 
Q 3116 3994 3184 3459 
z
M 888 1484 
Q 888 1194 1011 928 
Q 1134 663 1356 523 
Q 1578 384 1822 384 
Q 2178 384 2434 671 
Q 2691 959 2691 1453 
Q 2691 1928 2437 2201 
Q 2184 2475 1800 2475 
Q 1419 2475 1153 2201 
Q 888 1928 888 1484 
z
" transform="scale(0.015625)"/>
       </defs>
       <use xlink:href="#ArialMT-36"/>
       <use xlink:href="#ArialMT-30" x="55.615234"/>
       <use xlink:href="#ArialMT-30" x="111.230469"/>
      </g>
     </g>
    </g>
    <g id="xtick_3">
     <g id="line2d_3">
      <g>
       <use xlink:href="#mf748a9f3f7" x="203.578523" y="277.248797" style="fill: #262626; stroke: #262626; stroke-width: 1.25"/>
      </g>
     </g>
     <g id="text_3">
      <!-- 800 -->
      <g style="fill: #262626" transform="translate(194.402976 288.622391) scale(0.11 -0.11)">
       <defs>
        <path id="ArialMT-38" d="M 1131 2484 
Q 781 2613 612 2850 
Q 444 3088 444 3419 
Q 444 3919 803 4259 
Q 1163 4600 1759 4600 
Q 2359 4600 2725 4251 
Q 3091 3903 3091 3403 
Q 3091 3084 2923 2848 
Q 2756 2613 2416 2484 
Q 2838 2347 3058 2040 
Q 3278 1734 3278 1309 
Q 3278 722 2862 322 
Q 2447 -78 1769 -78 
Q 1091 -78 675 323 
Q 259 725 259 1325 
Q 259 1772 486 2073 
Q 713 2375 1131 2484 
z
M 1019 3438 
Q 1019 3113 1228 2906 
Q 1438 2700 1772 2700 
Q 2097 2700 2305 2904 
Q 2513 3109 2513 3406 
Q 2513 3716 2298 3927 
Q 2084 4138 1766 4138 
Q 1444 4138 1231 3931 
Q 1019 3725 1019 3438 
z
M 838 1322 
Q 838 1081 952 856 
Q 1066 631 1291 507 
Q 1516 384 1775 384 
Q 2178 384 2440 643 
Q 2703 903 2703 1303 
Q 2703 1709 2433 1975 
Q 2163 2241 1756 2241 
Q 1359 2241 1098 1978 
Q 838 1716 838 1322 
z
" transform="scale(0.015625)"/>
       </defs>
       <use xlink:href="#ArialMT-38"/>
       <use xlink:href="#ArialMT-30" x="55.615234"/>
       <use xlink:href="#ArialMT-30" x="111.230469"/>
      </g>
     </g>
    </g>
    <g id="xtick_4">
     <g id="line2d_4">
      <g>
       <use xlink:href="#mf748a9f3f7" x="268.509432" y="277.248797" style="fill: #262626; stroke: #262626; stroke-width: 1.25"/>
      </g>
     </g>
     <g id="text_4">
      <!-- 1000 -->
      <g style="fill: #262626" transform="translate(256.275369 288.622391) scale(0.11 -0.11)">
       <defs>
        <path id="ArialMT-31" d="M 2384 0 
L 1822 0 
L 1822 3584 
Q 1619 3391 1289 3197 
Q 959 3003 697 2906 
L 697 3450 
Q 1169 3672 1522 3987 
Q 1875 4303 2022 4600 
L 2384 4600 
L 2384 0 
z
" transform="scale(0.015625)"/>
       </defs>
       <use xlink:href="#ArialMT-31"/>
       <use xlink:href="#ArialMT-30" x="55.615234"/>
       <use xlink:href="#ArialMT-30" x="111.230469"/>
       <use xlink:href="#ArialMT-30" x="166.845703"/>
      </g>
     </g>
    </g>
    <g id="xtick_5">
     <g id="line2d_5">
      <g>
       <use xlink:href="#mf748a9f3f7" x="333.440341" y="277.248797" style="fill: #262626; stroke: #262626; stroke-width: 1.25"/>
      </g>
     </g>
     <g id="text_5">
      <!-- 1200 -->
      <g style="fill: #262626" transform="translate(321.206278 288.622391) scale(0.11 -0.11)">
       <defs>
        <path id="ArialMT-32" d="M 3222 541 
L 3222 0 
L 194 0 
Q 188 203 259 391 
Q 375 700 629 1000 
Q 884 1300 1366 1694 
Q 2113 2306 2375 2664 
Q 2638 3022 2638 3341 
Q 2638 3675 2398 3904 
Q 2159 4134 1775 4134 
Q 1369 4134 1125 3890 
Q 881 3647 878 3216 
L 300 3275 
Q 359 3922 746 4261 
Q 1134 4600 1788 4600 
Q 2447 4600 2831 4234 
Q 3216 3869 3216 3328 
Q 3216 3053 3103 2787 
Q 2991 2522 2730 2228 
Q 2469 1934 1863 1422 
Q 1356 997 1212 845 
Q 1069 694 975 541 
L 3222 541 
z
" transform="scale(0.015625)"/>
       </defs>
       <use xlink:href="#ArialMT-31"/>
       <use xlink:href="#ArialMT-32" x="55.615234"/>
       <use xlink:href="#ArialMT-30" x="111.230469"/>
       <use xlink:href="#ArialMT-30" x="166.845703"/>
      </g>
     </g>
    </g>
    <g id="xtick_6">
     <g id="line2d_6">
      <g>
       <use xlink:href="#mf748a9f3f7" x="398.37125" y="277.248797" style="fill: #262626; stroke: #262626; stroke-width: 1.25"/>
      </g>
     </g>
     <g id="text_6">
      <!-- 1400 -->
      <g style="fill: #262626" transform="translate(386.137188 288.622391) scale(0.11 -0.11)">
       <use xlink:href="#ArialMT-31"/>
       <use xlink:href="#ArialMT-34" x="55.615234"/>
       <use xlink:href="#ArialMT-30" x="111.230469"/>
       <use xlink:href="#ArialMT-30" x="166.845703"/>
      </g>
     </g>
    </g>
    <g id="xtick_7">
     <g id="line2d_7">
      <defs>
       <path id="m3ac5bc84c7" d="M 0 0 
L 0 -4 
" style="stroke: #262626"/>
      </defs>
      <g>
       <use xlink:href="#m3ac5bc84c7" x="106.182159" y="277.248797" style="fill: #262626; stroke: #262626"/>
      </g>
     </g>
    </g>
    <g id="xtick_8">
     <g id="line2d_8">
      <g>
       <use xlink:href="#m3ac5bc84c7" x="171.113068" y="277.248797" style="fill: #262626; stroke: #262626"/>
      </g>
     </g>
    </g>
    <g id="xtick_9">
     <g id="line2d_9">
      <g>
       <use xlink:href="#m3ac5bc84c7" x="236.043977" y="277.248797" style="fill: #262626; stroke: #262626"/>
      </g>
     </g>
    </g>
    <g id="xtick_10">
     <g id="line2d_10">
      <g>
       <use xlink:href="#m3ac5bc84c7" x="300.974886" y="277.248797" style="fill: #262626; stroke: #262626"/>
      </g>
     </g>
    </g>
    <g id="xtick_11">
     <g id="line2d_11">
      <g>
       <use xlink:href="#m3ac5bc84c7" x="365.905795" y="277.248797" style="fill: #262626; stroke: #262626"/>
      </g>
     </g>
    </g>
    <g id="text_7">
     <!-- Wavelength (nm) -->
     <g style="fill: #262626" transform="translate(174.356562 303.544266) scale(0.12 -0.12)">
      <defs>
       <path id="ArialMT-57" d="M 1294 0 
L 78 4581 
L 700 4581 
L 1397 1578 
Q 1509 1106 1591 641 
Q 1766 1375 1797 1488 
L 2669 4581 
L 3400 4581 
L 4056 2263 
Q 4303 1400 4413 641 
Q 4500 1075 4641 1638 
L 5359 4581 
L 5969 4581 
L 4713 0 
L 4128 0 
L 3163 3491 
Q 3041 3928 3019 4028 
Q 2947 3713 2884 3491 
L 1913 0 
L 1294 0 
z
" transform="scale(0.015625)"/>
       <path id="ArialMT-61" d="M 2588 409 
Q 2275 144 1986 34 
Q 1697 -75 1366 -75 
Q 819 -75 525 192 
Q 231 459 231 875 
Q 231 1119 342 1320 
Q 453 1522 633 1644 
Q 813 1766 1038 1828 
Q 1203 1872 1538 1913 
Q 2219 1994 2541 2106 
Q 2544 2222 2544 2253 
Q 2544 2597 2384 2738 
Q 2169 2928 1744 2928 
Q 1347 2928 1158 2789 
Q 969 2650 878 2297 
L 328 2372 
Q 403 2725 575 2942 
Q 747 3159 1072 3276 
Q 1397 3394 1825 3394 
Q 2250 3394 2515 3294 
Q 2781 3194 2906 3042 
Q 3031 2891 3081 2659 
Q 3109 2516 3109 2141 
L 3109 1391 
Q 3109 606 3145 398 
Q 3181 191 3288 0 
L 2700 0 
Q 2613 175 2588 409 
z
M 2541 1666 
Q 2234 1541 1622 1453 
Q 1275 1403 1131 1340 
Q 988 1278 909 1158 
Q 831 1038 831 891 
Q 831 666 1001 516 
Q 1172 366 1500 366 
Q 1825 366 2078 508 
Q 2331 650 2450 897 
Q 2541 1088 2541 1459 
L 2541 1666 
z
" transform="scale(0.015625)"/>
       <path id="ArialMT-76" d="M 1344 0 
L 81 3319 
L 675 3319 
L 1388 1331 
Q 1503 1009 1600 663 
Q 1675 925 1809 1294 
L 2547 3319 
L 3125 3319 
L 1869 0 
L 1344 0 
z
" transform="scale(0.015625)"/>
       <path id="ArialMT-65" d="M 2694 1069 
L 3275 997 
Q 3138 488 2766 206 
Q 2394 -75 1816 -75 
Q 1088 -75 661 373 
Q 234 822 234 1631 
Q 234 2469 665 2931 
Q 1097 3394 1784 3394 
Q 2450 3394 2872 2941 
Q 3294 2488 3294 1666 
Q 3294 1616 3291 1516 
L 816 1516 
Q 847 969 1125 678 
Q 1403 388 1819 388 
Q 2128 388 2347 550 
Q 2566 713 2694 1069 
z
M 847 1978 
L 2700 1978 
Q 2663 2397 2488 2606 
Q 2219 2931 1791 2931 
Q 1403 2931 1139 2672 
Q 875 2413 847 1978 
z
" transform="scale(0.015625)"/>
       <path id="ArialMT-6c" d="M 409 0 
L 409 4581 
L 972 4581 
L 972 0 
L 409 0 
z
" transform="scale(0.015625)"/>
       <path id="ArialMT-6e" d="M 422 0 
L 422 3319 
L 928 3319 
L 928 2847 
Q 1294 3394 1984 3394 
Q 2284 3394 2536 3286 
Q 2788 3178 2913 3003 
Q 3038 2828 3088 2588 
Q 3119 2431 3119 2041 
L 3119 0 
L 2556 0 
L 2556 2019 
Q 2556 2363 2490 2533 
Q 2425 2703 2258 2804 
Q 2091 2906 1866 2906 
Q 1506 2906 1245 2678 
Q 984 2450 984 1813 
L 984 0 
L 422 0 
z
" transform="scale(0.015625)"/>
       <path id="ArialMT-67" d="M 319 -275 
L 866 -356 
Q 900 -609 1056 -725 
Q 1266 -881 1628 -881 
Q 2019 -881 2231 -725 
Q 2444 -569 2519 -288 
Q 2563 -116 2559 434 
Q 2191 0 1641 0 
Q 956 0 581 494 
Q 206 988 206 1678 
Q 206 2153 378 2554 
Q 550 2956 876 3175 
Q 1203 3394 1644 3394 
Q 2231 3394 2613 2919 
L 2613 3319 
L 3131 3319 
L 3131 450 
Q 3131 -325 2973 -648 
Q 2816 -972 2473 -1159 
Q 2131 -1347 1631 -1347 
Q 1038 -1347 672 -1080 
Q 306 -813 319 -275 
z
M 784 1719 
Q 784 1066 1043 766 
Q 1303 466 1694 466 
Q 2081 466 2343 764 
Q 2606 1063 2606 1700 
Q 2606 2309 2336 2618 
Q 2066 2928 1684 2928 
Q 1309 2928 1046 2623 
Q 784 2319 784 1719 
z
" transform="scale(0.015625)"/>
       <path id="ArialMT-74" d="M 1650 503 
L 1731 6 
Q 1494 -44 1306 -44 
Q 1000 -44 831 53 
Q 663 150 594 308 
Q 525 466 525 972 
L 525 2881 
L 113 2881 
L 113 3319 
L 525 3319 
L 525 4141 
L 1084 4478 
L 1084 3319 
L 1650 3319 
L 1650 2881 
L 1084 2881 
L 1084 941 
Q 1084 700 1114 631 
Q 1144 563 1211 522 
Q 1278 481 1403 481 
Q 1497 481 1650 503 
z
" transform="scale(0.015625)"/>
       <path id="ArialMT-68" d="M 422 0 
L 422 4581 
L 984 4581 
L 984 2938 
Q 1378 3394 1978 3394 
Q 2347 3394 2619 3248 
Q 2891 3103 3008 2847 
Q 3125 2591 3125 2103 
L 3125 0 
L 2563 0 
L 2563 2103 
Q 2563 2525 2380 2717 
Q 2197 2909 1863 2909 
Q 1613 2909 1392 2779 
Q 1172 2650 1078 2428 
Q 984 2206 984 1816 
L 984 0 
L 422 0 
z
" transform="scale(0.015625)"/>
       <path id="ArialMT-20" transform="scale(0.015625)"/>
       <path id="ArialMT-28" d="M 1497 -1347 
Q 1031 -759 709 28 
Q 388 816 388 1659 
Q 388 2403 628 3084 
Q 909 3875 1497 4659 
L 1900 4659 
Q 1522 4009 1400 3731 
Q 1209 3300 1100 2831 
Q 966 2247 966 1656 
Q 966 153 1900 -1347 
L 1497 -1347 
z
" transform="scale(0.015625)"/>
       <path id="ArialMT-6d" d="M 422 0 
L 422 3319 
L 925 3319 
L 925 2853 
Q 1081 3097 1340 3245 
Q 1600 3394 1931 3394 
Q 2300 3394 2536 3241 
Q 2772 3088 2869 2813 
Q 3263 3394 3894 3394 
Q 4388 3394 4653 3120 
Q 4919 2847 4919 2278 
L 4919 0 
L 4359 0 
L 4359 2091 
Q 4359 2428 4304 2576 
Q 4250 2725 4106 2815 
Q 3963 2906 3769 2906 
Q 3419 2906 3187 2673 
Q 2956 2441 2956 1928 
L 2956 0 
L 2394 0 
L 2394 2156 
Q 2394 2531 2256 2718 
Q 2119 2906 1806 2906 
Q 1569 2906 1367 2781 
Q 1166 2656 1075 2415 
Q 984 2175 984 1722 
L 984 0 
L 422 0 
z
" transform="scale(0.015625)"/>
       <path id="ArialMT-29" d="M 791 -1347 
L 388 -1347 
Q 1322 153 1322 1656 
Q 1322 2244 1188 2822 
Q 1081 3291 891 3722 
Q 769 4003 388 4659 
L 791 4659 
Q 1378 3875 1659 3084 
Q 1900 2403 1900 1659 
Q 1900 816 1576 28 
Q 1253 -759 791 -1347 
z
" transform="scale(0.015625)"/>
      </defs>
      <use xlink:href="#ArialMT-57"/>
      <use xlink:href="#ArialMT-61" x="90.634766"/>
      <use xlink:href="#ArialMT-76" x="146.25"/>
      <use xlink:href="#ArialMT-65" x="196.25"/>
      <use xlink:href="#ArialMT-6c" x="251.865234"/>
      <use xlink:href="#ArialMT-65" x="274.082031"/>
      <use xlink:href="#ArialMT-6e" x="329.697266"/>
      <use xlink:href="#ArialMT-67" x="385.3125"/>
      <use xlink:href="#ArialMT-74" x="440.927734"/>
      <use xlink:href="#ArialMT-68" x="468.710938"/>
      <use xlink:href="#ArialMT-20" x="524.326172"/>
      <use xlink:href="#ArialMT-28" x="552.109375"/>
      <use xlink:href="#ArialMT-6e" x="585.410156"/>
      <use xlink:href="#ArialMT-6d" x="641.025391"/>
      <use xlink:href="#ArialMT-29" x="724.326172"/>
     </g>
    </g>
   </g>
   <g id="matplotlib.axis_2">
    <g id="ytick_1">
     <g id="line2d_12">
      <defs>
       <path id="meeea063e94" d="M 0 0 
L 6 0 
" style="stroke: #262626; stroke-width: 1.25"/>
      </defs>
      <g>
       <use xlink:href="#meeea063e94" x="41.25125" y="277.248797" style="fill: #262626; stroke: #262626; stroke-width: 1.25"/>
      </g>
     </g>
     <g id="text_8">
      <!-- 0.0 -->
      <g style="fill: #262626" transform="translate(22.46125 281.185594) scale(0.11 -0.11)">
       <defs>
        <path id="ArialMT-2e" d="M 581 0 
L 581 641 
L 1222 641 
L 1222 0 
L 581 0 
z
" transform="scale(0.015625)"/>
       </defs>
       <use xlink:href="#ArialMT-30"/>
       <use xlink:href="#ArialMT-2e" x="55.615234"/>
       <use xlink:href="#ArialMT-30" x="83.398438"/>
      </g>
     </g>
    </g>
    <g id="ytick_2">
     <g id="line2d_13">
      <g>
       <use xlink:href="#meeea063e94" x="41.25125" y="239.232797" style="fill: #262626; stroke: #262626; stroke-width: 1.25"/>
      </g>
     </g>
     <g id="text_9">
      <!-- 0.2 -->
      <g style="fill: #262626" transform="translate(22.46125 243.169594) scale(0.11 -0.11)">
       <use xlink:href="#ArialMT-30"/>
       <use xlink:href="#ArialMT-2e" x="55.615234"/>
       <use xlink:href="#ArialMT-32" x="83.398438"/>
      </g>
     </g>
    </g>
    <g id="ytick_3">
     <g id="line2d_14">
      <g>
       <use xlink:href="#meeea063e94" x="41.25125" y="201.216797" style="fill: #262626; stroke: #262626; stroke-width: 1.25"/>
      </g>
     </g>
     <g id="text_10">
      <!-- 0.4 -->
      <g style="fill: #262626" transform="translate(22.46125 205.153594) scale(0.11 -0.11)">
       <use xlink:href="#ArialMT-30"/>
       <use xlink:href="#ArialMT-2e" x="55.615234"/>
       <use xlink:href="#ArialMT-34" x="83.398438"/>
      </g>
     </g>
    </g>
    <g id="ytick_4">
     <g id="line2d_15">
      <g>
       <use xlink:href="#meeea063e94" x="41.25125" y="163.200797" style="fill: #262626; stroke: #262626; stroke-width: 1.25"/>
      </g>
     </g>
     <g id="text_11">
      <!-- 0.6 -->
      <g style="fill: #262626" transform="translate(22.46125 167.137594) scale(0.11 -0.11)">
       <use xlink:href="#ArialMT-30"/>
       <use xlink:href="#ArialMT-2e" x="55.615234"/>
       <use xlink:href="#ArialMT-36" x="83.398438"/>
      </g>
     </g>
    </g>
    <g id="ytick_5">
     <g id="line2d_16">
      <g>
       <use xlink:href="#meeea063e94" x="41.25125" y="125.184797" style="fill: #262626; stroke: #262626; stroke-width: 1.25"/>
      </g>
     </g>
     <g id="text_12">
      <!-- 0.8 -->
      <g style="fill: #262626" transform="translate(22.46125 129.121594) scale(0.11 -0.11)">
       <use xlink:href="#ArialMT-30"/>
       <use xlink:href="#ArialMT-2e" x="55.615234"/>
       <use xlink:href="#ArialMT-38" x="83.398438"/>
      </g>
     </g>
    </g>
    <g id="ytick_6">
     <g id="line2d_17">
      <g>
       <use xlink:href="#meeea063e94" x="41.25125" y="87.168797" style="fill: #262626; stroke: #262626; stroke-width: 1.25"/>
      </g>
     </g>
     <g id="text_13">
      <!-- 1.0 -->
      <g style="fill: #262626" transform="translate(22.46125 91.105594) scale(0.11 -0.11)">
       <use xlink:href="#ArialMT-31"/>
       <use xlink:href="#ArialMT-2e" x="55.615234"/>
       <use xlink:href="#ArialMT-30" x="83.398438"/>
      </g>
     </g>
    </g>
    <g id="ytick_7">
     <g id="line2d_18">
      <g>
       <use xlink:href="#meeea063e94" x="41.25125" y="49.152797" style="fill: #262626; stroke: #262626; stroke-width: 1.25"/>
      </g>
     </g>
     <g id="text_14">
      <!-- 1.2 -->
      <g style="fill: #262626" transform="translate(22.46125 53.089594) scale(0.11 -0.11)">
       <use xlink:href="#ArialMT-31"/>
       <use xlink:href="#ArialMT-2e" x="55.615234"/>
       <use xlink:href="#ArialMT-32" x="83.398438"/>
      </g>
     </g>
    </g>
    <g id="ytick_8">
     <g id="line2d_19">
      <g>
       <use xlink:href="#meeea063e94" x="41.25125" y="11.136797" style="fill: #262626; stroke: #262626; stroke-width: 1.25"/>
      </g>
     </g>
     <g id="text_15">
      <!-- 1.4 -->
      <g style="fill: #262626" transform="translate(22.46125 15.073594) scale(0.11 -0.11)">
       <use xlink:href="#ArialMT-31"/>
       <use xlink:href="#ArialMT-2e" x="55.615234"/>
       <use xlink:href="#ArialMT-34" x="83.398438"/>
      </g>
     </g>
    </g>
    <g id="ytick_9">
     <g id="line2d_20">
      <defs>
       <path id="mdf4cc0b1a7" d="M 0 0 
L 4 0 
" style="stroke: #262626"/>
      </defs>
      <g>
       <use xlink:href="#mdf4cc0b1a7" x="41.25125" y="258.240797" style="fill: #262626; stroke: #262626"/>
      </g>
     </g>
    </g>
    <g id="ytick_10">
     <g id="line2d_21">
      <g>
       <use xlink:href="#mdf4cc0b1a7" x="41.25125" y="220.224797" style="fill: #262626; stroke: #262626"/>
      </g>
     </g>
    </g>
    <g id="ytick_11">
     <g id="line2d_22">
      <g>
       <use xlink:href="#mdf4cc0b1a7" x="41.25125" y="182.208797" style="fill: #262626; stroke: #262626"/>
      </g>
     </g>
    </g>
    <g id="ytick_12">
     <g id="line2d_23">
      <g>
       <use xlink:href="#mdf4cc0b1a7" x="41.25125" y="144.192797" style="fill: #262626; stroke: #262626"/>
      </g>
     </g>
    </g>
    <g id="ytick_13">
     <g id="line2d_24">
      <g>
       <use xlink:href="#mdf4cc0b1a7" x="41.25125" y="106.176797" style="fill: #262626; stroke: #262626"/>
      </g>
     </g>
    </g>
    <g id="ytick_14">
     <g id="line2d_25">
      <g>
       <use xlink:href="#mdf4cc0b1a7" x="41.25125" y="68.160797" style="fill: #262626; stroke: #262626"/>
      </g>
     </g>
    </g>
    <g id="ytick_15">
     <g id="line2d_26">
      <g>
       <use xlink:href="#mdf4cc0b1a7" x="41.25125" y="30.144797" style="fill: #262626; stroke: #262626"/>
      </g>
     </g>
    </g>
    <g id="text_16">
     <!-- Absorbance (a.u.) -->
     <g style="fill: #262626" transform="translate(15.935625 191.881547) rotate(-90) scale(0.12 -0.12)">
      <defs>
       <path id="ArialMT-41" d="M -9 0 
L 1750 4581 
L 2403 4581 
L 4278 0 
L 3588 0 
L 3053 1388 
L 1138 1388 
L 634 0 
L -9 0 
z
M 1313 1881 
L 2866 1881 
L 2388 3150 
Q 2169 3728 2063 4100 
Q 1975 3659 1816 3225 
L 1313 1881 
z
" transform="scale(0.015625)"/>
       <path id="ArialMT-62" d="M 941 0 
L 419 0 
L 419 4581 
L 981 4581 
L 981 2947 
Q 1338 3394 1891 3394 
Q 2197 3394 2470 3270 
Q 2744 3147 2920 2923 
Q 3097 2700 3197 2384 
Q 3297 2069 3297 1709 
Q 3297 856 2875 390 
Q 2453 -75 1863 -75 
Q 1275 -75 941 416 
L 941 0 
z
M 934 1684 
Q 934 1088 1097 822 
Q 1363 388 1816 388 
Q 2184 388 2453 708 
Q 2722 1028 2722 1663 
Q 2722 2313 2464 2622 
Q 2206 2931 1841 2931 
Q 1472 2931 1203 2611 
Q 934 2291 934 1684 
z
" transform="scale(0.015625)"/>
       <path id="ArialMT-73" d="M 197 991 
L 753 1078 
Q 800 744 1014 566 
Q 1228 388 1613 388 
Q 2000 388 2187 545 
Q 2375 703 2375 916 
Q 2375 1106 2209 1216 
Q 2094 1291 1634 1406 
Q 1016 1563 777 1677 
Q 538 1791 414 1992 
Q 291 2194 291 2438 
Q 291 2659 392 2848 
Q 494 3038 669 3163 
Q 800 3259 1026 3326 
Q 1253 3394 1513 3394 
Q 1903 3394 2198 3281 
Q 2494 3169 2634 2976 
Q 2775 2784 2828 2463 
L 2278 2388 
Q 2241 2644 2061 2787 
Q 1881 2931 1553 2931 
Q 1166 2931 1000 2803 
Q 834 2675 834 2503 
Q 834 2394 903 2306 
Q 972 2216 1119 2156 
Q 1203 2125 1616 2013 
Q 2213 1853 2448 1751 
Q 2684 1650 2818 1456 
Q 2953 1263 2953 975 
Q 2953 694 2789 445 
Q 2625 197 2315 61 
Q 2006 -75 1616 -75 
Q 969 -75 630 194 
Q 291 463 197 991 
z
" transform="scale(0.015625)"/>
       <path id="ArialMT-6f" d="M 213 1659 
Q 213 2581 725 3025 
Q 1153 3394 1769 3394 
Q 2453 3394 2887 2945 
Q 3322 2497 3322 1706 
Q 3322 1066 3130 698 
Q 2938 331 2570 128 
Q 2203 -75 1769 -75 
Q 1072 -75 642 372 
Q 213 819 213 1659 
z
M 791 1659 
Q 791 1022 1069 705 
Q 1347 388 1769 388 
Q 2188 388 2466 706 
Q 2744 1025 2744 1678 
Q 2744 2294 2464 2611 
Q 2184 2928 1769 2928 
Q 1347 2928 1069 2612 
Q 791 2297 791 1659 
z
" transform="scale(0.015625)"/>
       <path id="ArialMT-72" d="M 416 0 
L 416 3319 
L 922 3319 
L 922 2816 
Q 1116 3169 1280 3281 
Q 1444 3394 1641 3394 
Q 1925 3394 2219 3213 
L 2025 2691 
Q 1819 2813 1613 2813 
Q 1428 2813 1281 2702 
Q 1134 2591 1072 2394 
Q 978 2094 978 1738 
L 978 0 
L 416 0 
z
" transform="scale(0.015625)"/>
       <path id="ArialMT-63" d="M 2588 1216 
L 3141 1144 
Q 3050 572 2676 248 
Q 2303 -75 1759 -75 
Q 1078 -75 664 370 
Q 250 816 250 1647 
Q 250 2184 428 2587 
Q 606 2991 970 3192 
Q 1334 3394 1763 3394 
Q 2303 3394 2647 3120 
Q 2991 2847 3088 2344 
L 2541 2259 
Q 2463 2594 2264 2762 
Q 2066 2931 1784 2931 
Q 1359 2931 1093 2626 
Q 828 2322 828 1663 
Q 828 994 1084 691 
Q 1341 388 1753 388 
Q 2084 388 2306 591 
Q 2528 794 2588 1216 
z
" transform="scale(0.015625)"/>
       <path id="ArialMT-75" d="M 2597 0 
L 2597 488 
Q 2209 -75 1544 -75 
Q 1250 -75 995 37 
Q 741 150 617 320 
Q 494 491 444 738 
Q 409 903 409 1263 
L 409 3319 
L 972 3319 
L 972 1478 
Q 972 1038 1006 884 
Q 1059 663 1231 536 
Q 1403 409 1656 409 
Q 1909 409 2131 539 
Q 2353 669 2445 892 
Q 2538 1116 2538 1541 
L 2538 3319 
L 3100 3319 
L 3100 0 
L 2597 0 
z
" transform="scale(0.015625)"/>
      </defs>
      <use xlink:href="#ArialMT-41"/>
      <use xlink:href="#ArialMT-62" x="66.699219"/>
      <use xlink:href="#ArialMT-73" x="122.314453"/>
      <use xlink:href="#ArialMT-6f" x="172.314453"/>
      <use xlink:href="#ArialMT-72" x="227.929688"/>
      <use xlink:href="#ArialMT-62" x="261.230469"/>
      <use xlink:href="#ArialMT-61" x="316.845703"/>
      <use xlink:href="#ArialMT-6e" x="372.460938"/>
      <use xlink:href="#ArialMT-63" x="428.076172"/>
      <use xlink:href="#ArialMT-65" x="478.076172"/>
      <use xlink:href="#ArialMT-20" x="533.691406"/>
      <use xlink:href="#ArialMT-28" x="561.474609"/>
      <use xlink:href="#ArialMT-61" x="594.775391"/>
      <use xlink:href="#ArialMT-2e" x="650.390625"/>
      <use xlink:href="#ArialMT-75" x="678.173828"/>
      <use xlink:href="#ArialMT-2e" x="733.789062"/>
      <use xlink:href="#ArialMT-29" x="761.572266"/>
     </g>
    </g>
   </g>
   <g id="PolyCollection_1"/>
   <g id="PolyCollection_2"/>
   <g id="PolyCollection_3"/>
   <g id="line2d_27">
    <path d="M 41.467683 237.033394 
L 42.549868 234.139246 
L 43.632053 230.508869 
L 45.147105 224.456589 
L 46.445723 218.323045 
L 48.39365 207.482591 
L 53.588123 177.441166 
L 54.886741 171.3854 
L 55.752483 168.237513 
L 56.618235 165.812979 
L 57.70041 163.719056 
L 58.566162 162.653955 
L 59.215471 162.190901 
L 59.648338 162.078602 
L 60.081214 162.093999 
L 60.730523 162.514805 
L 61.379832 163.332092 
L 62.245574 165.034519 
L 63.544192 168.716157 
L 66.357871 177.82284 
L 67.440047 180.474601 
L 68.305799 181.987314 
L 68.955108 182.711307 
L 69.604417 183.080036 
L 70.037293 183.196272 
L 70.470159 183.139579 
L 71.335911 182.628538 
L 71.98522 181.932829 
L 72.634529 181.013473 
L 73.716705 178.97613 
L 75.015323 175.829161 
L 76.097508 172.719897 
L 77.396126 168.421665 
L 78.911177 162.764046 
L 81.075548 153.737985 
L 83.889217 140.900074 
L 89.949432 112.73591 
L 91.464493 106.726958 
L 92.979544 101.681626 
L 94.061729 98.791988 
L 94.927471 96.910835 
L 95.793214 95.432588 
L 96.658966 94.329351 
L 97.524708 93.657175 
L 97.957584 93.466531 
L 98.606893 93.398077 
L 99.256202 93.624534 
L 99.689068 93.933188 
L 100.338377 94.677138 
L 100.987686 95.791364 
L 101.636995 97.24106 
L 102.502748 99.823246 
L 103.36849 103.14672 
L 104.234232 107.127835 
L 105.316417 113.045153 
L 106.831468 122.637662 
L 109.212271 139.573599 
L 113.324559 171.353688 
L 115.921795 194.177553 
L 121.116268 240.210718 
L 122.631329 250.499497 
L 123.713505 256.423236 
L 124.7957 261.213615 
L 125.877875 264.972028 
L 126.743627 267.354708 
L 127.609359 269.243488 
L 128.691554 271.101329 
L 129.557286 272.254747 
L 130.855905 273.524518 
L 132.370966 274.507472 
L 133.669584 275.088346 
L 136.050377 275.737347 
L 137.781881 276.015177 
L 141.677736 276.342182 
L 148.603693 276.578234 
L 152.499548 276.628653 
L 154.231032 276.662486 
L 158.343329 276.701927 
L 162.67205 276.733239 
L 169.381584 276.79053 
L 177.173293 276.821685 
L 183.666384 276.826586 
L 186.696486 276.829331 
L 189.943032 276.828273 
L 192.540268 276.843652 
L 205.959336 276.860942 
L 207.474377 276.87887 
L 208.556572 276.836413 
L 210.5045 276.857323 
L 211.803118 276.854569 
L 216.99759 276.856057 
L 217.430457 276.896152 
L 217.863323 276.797793 
L 218.079766 276.901103 
L 218.512632 276.821611 
L 220.244136 276.896508 
L 220.460559 276.863932 
L 220.677002 276.961028 
L 220.893445 276.860961 
L 221.109868 276.966903 
L 222.408486 276.901059 
L 223.274238 276.96402 
L 223.490681 276.875168 
L 224.356414 276.980208 
L 226.304341 276.897323 
L 226.520784 276.984049 
L 226.95365 276.874328 
L 228.901577 276.995263 
L 229.11802 276.85714 
L 229.334463 277.015057 
L 229.767329 276.771731 
L 229.983772 276.883966 
L 230.200195 276.844112 
L 230.416638 276.684307 
L 230.849505 276.991694 
L 231.28239 276.962376 
L 231.498814 276.951276 
L 231.715257 276.796363 
L 231.9317 276.846639 
L 232.148123 276.608552 
L 232.581009 276.840502 
L 232.797432 276.702462 
L 233.013875 276.853209 
L 233.663184 276.614032 
L 234.09605 276.972635 
L 234.312493 276.841758 
L 234.528936 277.020549 
L 234.745359 276.369459 
L 234.961802 277.023963 
L 235.178245 276.647301 
L 235.611111 277.139674 
L 236.043977 277.237907 
L 251.19451 277.233163 
L 255.956116 277.229418 
L 260.068414 277.226682 
L 263.531382 277.234024 
L 270.240916 277.227735 
L 329.1116 277.219747 
L 333.223918 277.225717 
L 334.522536 277.250795 
L 385.601491 277.20491 
L 390.146655 277.164915 
L 392.960354 277.155118 
L 398.37125 277.06052 
L 398.37125 277.06052 
" clip-path="url(#pccb98c1f01)" style="fill: none; stroke: #f4865e; stroke-linecap: round"/>
   </g>
   <g id="line2d_28">
    <path d="M 41.467683 250.663542 
L 42.549868 248.767961 
L 43.848486 246.092492 
L 45.363538 242.503879 
L 46.878599 238.221109 
L 48.610083 232.306159 
L 50.125144 226.567314 
L 52.722381 215.64552 
L 55.53605 202.114841 
L 57.267544 193.918529 
L 64.193501 164.108354 
L 66.357871 157.529044 
L 67.872923 152.723732 
L 69.171541 147.38963 
L 70.253726 142.053466 
L 72.418086 129.58284 
L 75.015323 114.416539 
L 76.746817 105.850202 
L 78.261868 99.912479 
L 79.560486 96.150672 
L 80.426238 94.336467 
L 81.508414 92.878703 
L 82.157723 92.431465 
L 82.807032 92.26706 
L 83.239908 92.320197 
L 83.889217 92.612116 
L 84.322093 92.999545 
L 84.971402 93.751177 
L 85.620711 94.780238 
L 86.486453 96.487605 
L 87.568638 99.144578 
L 88.867257 103.017766 
L 90.382308 108.325492 
L 92.113802 115.246006 
L 95.143905 128.925777 
L 97.741141 141.556106 
L 101.420562 160.609123 
L 109.645148 203.462825 
L 113.108116 219.634407 
L 115.272486 228.876076 
L 117.436857 237.199506 
L 119.168341 243.092593 
L 120.899825 248.287371 
L 122.414886 252.200417 
L 123.929948 255.531711 
L 125.445009 258.288762 
L 127.176493 260.843266 
L 128.691554 262.576395 
L 129.773729 263.640345 
L 131.072348 264.717307 
L 132.587409 265.738318 
L 136.050377 267.426199 
L 138.647614 268.340513 
L 142.543468 269.397216 
L 149.253002 270.811386 
L 150.984486 271.110642 
L 155.313227 271.78648 
L 159.425505 272.381442 
L 162.455627 272.818382 
L 167.866523 273.510299 
L 173.277438 274.096419 
L 177.389736 274.445118 
L 179.986972 274.611015 
L 181.28559 274.704193 
L 191.458093 275.33777 
L 194.488195 275.542824 
L 195.57039 275.593105 
L 196.436123 275.642312 
L 199.249802 275.78471 
L 200.764863 275.860328 
L 202.929214 275.939486 
L 204.660718 275.984566 
L 209.422305 276.125507 
L 212.019541 276.166511 
L 212.452427 276.187537 
L 215.266086 276.28782 
L 216.348281 276.275613 
L 218.512632 276.31204 
L 219.161941 276.302325 
L 220.244136 276.428394 
L 220.460559 276.371056 
L 220.677002 276.47803 
L 220.893445 276.382075 
L 221.759177 276.466686 
L 221.97562 276.377202 
L 222.192063 276.453725 
L 222.624929 276.462657 
L 223.490681 276.469452 
L 224.13999 276.496394 
L 224.7893 276.513365 
L 225.222166 276.582401 
L 225.655032 276.525432 
L 225.871475 276.476252 
L 226.087918 276.57997 
L 226.304341 276.560349 
L 226.520784 276.65302 
L 226.737227 276.546654 
L 228.035845 276.74626 
L 228.252268 276.621588 
L 229.767329 276.737715 
L 230.200195 276.540491 
L 230.416638 276.505088 
L 230.633081 276.819712 
L 230.849505 276.293978 
L 231.065948 276.68446 
L 231.28239 276.43721 
L 231.498814 276.691064 
L 231.715257 276.764956 
L 231.9317 276.441165 
L 232.581009 276.787235 
L 232.797432 276.540689 
L 233.013875 276.5049 
L 233.230318 276.663903 
L 233.446741 276.467565 
L 233.663184 276.64731 
L 234.09605 276.511086 
L 234.312493 276.905017 
L 234.528936 276.835953 
L 234.745359 276.247962 
L 235.178245 276.815171 
L 235.394668 276.511503 
L 235.611111 276.622272 
L 235.827534 276.951127 
L 243.619243 277.008617 
L 261.583455 277.085371 
L 265.912195 277.057008 
L 295.996837 277.223374 
L 297.295455 277.22646 
L 306.169359 277.257761 
L 310.065214 277.653951 
L 313.311759 278.604347 
L 313.961068 278.529444 
L 316.341881 277.794219 
L 321.536354 277.268161 
L 324.350014 277.267148 
L 329.1116 277.252674 
L 337.769081 277.230973 
L 341.448473 277.231377 
L 385.385068 277.145798 
L 388.41519 277.245234 
L 395.774014 277.024407 
L 398.154827 277.396562 
L 398.37125 277.471636 
L 398.37125 277.471636 
" clip-path="url(#pccb98c1f01)" style="fill: none; stroke: #ca1a50; stroke-linecap: round"/>
   </g>
   <g id="line2d_29">
    <path d="M 41.467683 187.145783 
L 43.41561 171.851298 
L 44.064919 162.557189 
L 44.930671 145.672066 
L 46.012847 124.13764 
L 46.662156 115.122569 
L 47.311465 108.98208 
L 48.177217 101.531429 
L 48.826526 92.544308 
L 49.475835 78.592478 
L 51.207319 35.076059 
L 51.640195 29.627064 
L 51.856629 28.352047 
L 52.073071 27.914383 
L 52.289505 28.334464 
L 52.505938 29.436929 
L 52.938814 33.445994 
L 54.237432 48.092514 
L 54.670308 50.487489 
L 54.886741 50.866171 
L 55.103174 50.692215 
L 55.53605 48.738327 
L 55.968926 44.952909 
L 56.834668 36.632889 
L 57.051101 35.383455 
L 57.267544 34.907429 
L 57.483977 35.287765 
L 57.70041 36.653917 
L 58.133286 42.712946 
L 58.566162 53.161422 
L 59.215471 75.267565 
L 61.379832 159.087427 
L 62.245574 182.320139 
L 62.894883 195.147371 
L 63.760635 207.286356 
L 64.409944 213.743396 
L 65.275686 219.999578 
L 66.141429 224.463648 
L 67.007181 227.763794 
L 67.872923 230.403968 
L 68.955108 232.978855 
L 70.253726 235.458822 
L 72.201653 238.502549 
L 73.716705 240.585695 
L 75.881075 243.05222 
L 77.179693 244.222998 
L 78.694744 245.337464 
L 81.724857 247.000034 
L 86.486453 248.698213 
L 89.516566 249.31816 
L 91.24805 249.753776 
L 93.628853 250.68285 
L 99.256202 253.397089 
L 101.204129 254.665741 
L 103.584923 256.848242 
L 107.047911 260.142225 
L 110.727323 263.119453 
L 112.242384 264.171894 
L 114.623177 265.599031 
L 115.921795 266.278547 
L 116.571105 266.570279 
L 117.65328 267.057357 
L 123.064195 268.641009 
L 125.661432 269.101556 
L 127.392936 269.340296 
L 131.072348 269.751043 
L 134.10245 270.112828 
L 136.699686 270.402377 
L 152.71599 272.548581 
L 154.231032 272.749938 
L 163.321359 273.630663 
L 165.702172 273.802353 
L 166.784348 273.890079 
L 171.97882 274.182444 
L 174.7925 274.332712 
L 193.838886 274.951779 
L 195.137505 275.032131 
L 199.466245 275.305103 
L 201.847038 275.429248 
L 223.707105 276.370265 
L 223.923548 276.467287 
L 224.356414 276.361716 
L 225.655032 276.427043 
L 225.871475 276.357438 
L 226.520784 276.654705 
L 226.95365 276.512893 
L 227.386536 276.510743 
L 227.819402 276.618469 
L 228.901577 276.594151 
L 229.11802 276.430944 
L 229.334463 276.667456 
L 229.550886 276.472115 
L 229.767329 276.549289 
L 229.983772 276.291788 
L 230.200195 276.485112 
L 230.849505 276.528857 
L 231.065948 276.726476 
L 231.498814 276.549632 
L 231.715257 276.690722 
L 231.9317 276.463561 
L 232.148123 276.505744 
L 232.364566 276.250273 
L 232.581009 276.711679 
L 232.797432 276.238005 
L 233.013875 276.576662 
L 233.230318 276.564125 
L 233.446741 276.379827 
L 233.879627 276.507074 
L 234.09605 276.486825 
L 234.745359 275.90477 
L 234.961802 276.688394 
L 235.178245 276.688691 
L 235.394668 276.492909 
L 236.043977 276.827442 
L 239.290523 276.941893 
L 245.350728 277.028986 
L 254.873941 277.137294 
L 267.427237 277.193749 
L 271.539534 277.201483 
L 279.1148 277.254632 
L 306.169359 277.414173 
L 307.6844 277.549476 
L 308.766595 277.756944 
L 310.065214 278.168766 
L 312.66245 279.416543 
L 313.311759 279.391913 
L 313.961068 279.064321 
L 315.908995 277.92242 
L 318.073346 277.29177 
L 320.021273 276.957502 
L 324.7829 276.261393 
L 326.081518 276.043926 
L 326.94725 276.184153 
L 328.895177 276.758769 
L 330.193795 276.932044 
L 337.769081 277.207992 
L 339.0677 277.221051 
L 345.344328 277.247399 
L 352.053881 277.236219 
L 357.464777 277.235801 
L 365.256486 277.229403 
L 367.853723 277.231869 
L 371.533154 277.189012 
L 372.61531 277.227169 
L 378.891977 277.137876 
L 381.705637 276.754863 
L 383.004255 276.566422 
L 384.302873 276.539687 
L 388.41519 276.218921 
L 391.012427 276.296263 
L 392.527468 276.180046 
L 397.721941 276.137741 
L 398.37125 276.062287 
L 398.37125 276.062287 
" clip-path="url(#pccb98c1f01)" style="fill: none; stroke: #601f52; stroke-linecap: round"/>
   </g>
   <g id="line2d_30"/>
   <g id="line2d_31"/>
   <g id="line2d_32"/>
   <g id="patch_3">
    <path d="M 41.25125 277.248797 
L 41.25125 11.136797 
" style="fill: none; stroke: #262626; stroke-width: 1.25; stroke-linejoin: miter; stroke-linecap: square"/>
   </g>
   <g id="patch_4">
    <path d="M 41.25125 277.248797 
L 398.37125 277.248797 
" style="fill: none; stroke: #262626; stroke-width: 1.25; stroke-linejoin: miter; stroke-linecap: square"/>
   </g>
   <g id="legend_1">
    <g id="line2d_33">
     <path d="M 256.688938 45.415809 
L 262.688938 45.415809 
L 268.688938 45.415809 
" style="fill: none; stroke: #f4865e; stroke-width: 1.5; stroke-linecap: round"/>
    </g>
    <g id="text_17">
     <!-- 0.0% TFA_Abs -->
     <g style="fill: #262626" transform="translate(273.488938 47.515809) scale(0.06 -0.06)">
      <defs>
       <path id="ArialMT-25" d="M 372 3481 
Q 372 3972 619 4315 
Q 866 4659 1334 4659 
Q 1766 4659 2048 4351 
Q 2331 4044 2331 3447 
Q 2331 2866 2045 2552 
Q 1759 2238 1341 2238 
Q 925 2238 648 2547 
Q 372 2856 372 3481 
z
M 1350 4272 
Q 1141 4272 1002 4090 
Q 863 3909 863 3425 
Q 863 2984 1003 2804 
Q 1144 2625 1350 2625 
Q 1563 2625 1702 2806 
Q 1841 2988 1841 3469 
Q 1841 3913 1700 4092 
Q 1559 4272 1350 4272 
z
M 1353 -169 
L 3859 4659 
L 4316 4659 
L 1819 -169 
L 1353 -169 
z
M 3334 1075 
Q 3334 1569 3581 1911 
Q 3828 2253 4300 2253 
Q 4731 2253 5014 1945 
Q 5297 1638 5297 1041 
Q 5297 459 5011 145 
Q 4725 -169 4303 -169 
Q 3888 -169 3611 142 
Q 3334 453 3334 1075 
z
M 4316 1866 
Q 4103 1866 3964 1684 
Q 3825 1503 3825 1019 
Q 3825 581 3965 400 
Q 4106 219 4313 219 
Q 4528 219 4667 400 
Q 4806 581 4806 1063 
Q 4806 1506 4665 1686 
Q 4525 1866 4316 1866 
z
" transform="scale(0.015625)"/>
       <path id="ArialMT-54" d="M 1659 0 
L 1659 4041 
L 150 4041 
L 150 4581 
L 3781 4581 
L 3781 4041 
L 2266 4041 
L 2266 0 
L 1659 0 
z
" transform="scale(0.015625)"/>
       <path id="ArialMT-46" d="M 525 0 
L 525 4581 
L 3616 4581 
L 3616 4041 
L 1131 4041 
L 1131 2622 
L 3281 2622 
L 3281 2081 
L 1131 2081 
L 1131 0 
L 525 0 
z
" transform="scale(0.015625)"/>
       <path id="ArialMT-5f" d="M -97 -1272 
L -97 -866 
L 3631 -866 
L 3631 -1272 
L -97 -1272 
z
" transform="scale(0.015625)"/>
      </defs>
      <use xlink:href="#ArialMT-30"/>
      <use xlink:href="#ArialMT-2e" x="55.615234"/>
      <use xlink:href="#ArialMT-30" x="83.398438"/>
      <use xlink:href="#ArialMT-25" x="139.013672"/>
      <use xlink:href="#ArialMT-20" x="227.929688"/>
      <use xlink:href="#ArialMT-54" x="253.962891"/>
      <use xlink:href="#ArialMT-46" x="315.046875"/>
      <use xlink:href="#ArialMT-41" x="370.630859"/>
      <use xlink:href="#ArialMT-5f" x="437.330078"/>
      <use xlink:href="#ArialMT-41" x="492.945312"/>
      <use xlink:href="#ArialMT-62" x="559.644531"/>
      <use xlink:href="#ArialMT-73" x="615.259766"/>
     </g>
    </g>
    <g id="line2d_34">
     <path d="M 256.688938 53.976122 
L 262.688938 53.976122 
L 268.688938 53.976122 
" style="fill: none; stroke: #ca1a50; stroke-width: 1.5; stroke-linecap: round"/>
    </g>
    <g id="text_18">
     <!-- 1.00% TFA_Abs -->
     <g style="fill: #262626" transform="translate(273.488938 56.076122) scale(0.06 -0.06)">
      <use xlink:href="#ArialMT-31"/>
      <use xlink:href="#ArialMT-2e" x="55.615234"/>
      <use xlink:href="#ArialMT-30" x="83.398438"/>
      <use xlink:href="#ArialMT-30" x="139.013672"/>
      <use xlink:href="#ArialMT-25" x="194.628906"/>
      <use xlink:href="#ArialMT-20" x="283.544922"/>
      <use xlink:href="#ArialMT-54" x="309.578125"/>
      <use xlink:href="#ArialMT-46" x="370.662109"/>
      <use xlink:href="#ArialMT-41" x="426.246094"/>
      <use xlink:href="#ArialMT-5f" x="492.945312"/>
      <use xlink:href="#ArialMT-41" x="548.560547"/>
      <use xlink:href="#ArialMT-62" x="615.259766"/>
      <use xlink:href="#ArialMT-73" x="670.875"/>
     </g>
    </g>
    <g id="line2d_35">
     <path d="M 256.688938 62.536434 
L 262.688938 62.536434 
L 268.688938 62.536434 
" style="fill: none; stroke: #601f52; stroke-width: 1.5; stroke-linecap: round"/>
    </g>
    <g id="text_19">
     <!-- 1.00% TFA + triethylamine_Abs -->
     <g style="fill: #262626" transform="translate(273.488938 64.636434) scale(0.06 -0.06)">
      <defs>
       <path id="ArialMT-2b" d="M 1603 741 
L 1603 1997 
L 356 1997 
L 356 2522 
L 1603 2522 
L 1603 3769 
L 2134 3769 
L 2134 2522 
L 3381 2522 
L 3381 1997 
L 2134 1997 
L 2134 741 
L 1603 741 
z
" transform="scale(0.015625)"/>
       <path id="ArialMT-69" d="M 425 3934 
L 425 4581 
L 988 4581 
L 988 3934 
L 425 3934 
z
M 425 0 
L 425 3319 
L 988 3319 
L 988 0 
L 425 0 
z
" transform="scale(0.015625)"/>
       <path id="ArialMT-79" d="M 397 -1278 
L 334 -750 
Q 519 -800 656 -800 
Q 844 -800 956 -737 
Q 1069 -675 1141 -563 
Q 1194 -478 1313 -144 
Q 1328 -97 1363 -6 
L 103 3319 
L 709 3319 
L 1400 1397 
Q 1534 1031 1641 628 
Q 1738 1016 1872 1384 
L 2581 3319 
L 3144 3319 
L 1881 -56 
Q 1678 -603 1566 -809 
Q 1416 -1088 1222 -1217 
Q 1028 -1347 759 -1347 
Q 597 -1347 397 -1278 
z
" transform="scale(0.015625)"/>
      </defs>
      <use xlink:href="#ArialMT-31"/>
      <use xlink:href="#ArialMT-2e" x="55.615234"/>
      <use xlink:href="#ArialMT-30" x="83.398438"/>
      <use xlink:href="#ArialMT-30" x="139.013672"/>
      <use xlink:href="#ArialMT-25" x="194.628906"/>
      <use xlink:href="#ArialMT-20" x="283.544922"/>
      <use xlink:href="#ArialMT-54" x="309.578125"/>
      <use xlink:href="#ArialMT-46" x="370.662109"/>
      <use xlink:href="#ArialMT-41" x="426.246094"/>
      <use xlink:href="#ArialMT-20" x="487.445312"/>
      <use xlink:href="#ArialMT-2b" x="515.228516"/>
      <use xlink:href="#ArialMT-20" x="573.626953"/>
      <use xlink:href="#ArialMT-74" x="601.410156"/>
      <use xlink:href="#ArialMT-72" x="629.193359"/>
      <use xlink:href="#ArialMT-69" x="662.494141"/>
      <use xlink:href="#ArialMT-65" x="684.710938"/>
      <use xlink:href="#ArialMT-74" x="740.326172"/>
      <use xlink:href="#ArialMT-68" x="768.109375"/>
      <use xlink:href="#ArialMT-79" x="823.724609"/>
      <use xlink:href="#ArialMT-6c" x="873.724609"/>
      <use xlink:href="#ArialMT-61" x="895.941406"/>
      <use xlink:href="#ArialMT-6d" x="951.556641"/>
      <use xlink:href="#ArialMT-69" x="1034.857422"/>
      <use xlink:href="#ArialMT-6e" x="1057.074219"/>
      <use xlink:href="#ArialMT-65" x="1112.689453"/>
      <use xlink:href="#ArialMT-5f" x="1168.304688"/>
      <use xlink:href="#ArialMT-41" x="1223.919922"/>
      <use xlink:href="#ArialMT-62" x="1290.619141"/>
      <use xlink:href="#ArialMT-73" x="1346.234375"/>
     </g>
    </g>
   </g>
  </g>
 </g>
 <defs>
  <clipPath id="pccb98c1f01">
   <rect x="41.25125" y="11.136797" width="357.12" height="266.112"/>
  </clipPath>
 </defs>
</svg>
