<?xml version="1.0" encoding="utf-8" standalone="no"?>
<!DOCTYPE svg PUBLIC "-//W3C//DTD SVG 1.1//EN"
  "http://www.w3.org/Graphics/SVG/1.1/DTD/svg11.dtd">
<svg xmlns:xlink="http://www.w3.org/1999/xlink" width="417.805313pt" height="313.269891pt" viewBox="0 0 417.805313 313.269891" xmlns="http://www.w3.org/2000/svg" version="1.1">
 <metadata>
  <rdf:RDF xmlns:dc="http://purl.org/dc/elements/1.1/" xmlns:cc="http://creativecommons.org/ns#" xmlns:rdf="http://www.w3.org/1999/02/22-rdf-syntax-ns#">
   <cc:Work>
    <dc:type rdf:resource="http://purl.org/dc/dcmitype/StillImage"/>
    <dc:date>2024-11-04T14:35:02.914864</dc:date>
    <dc:format>image/svg+xml</dc:format>
    <dc:creator>
     <cc:Agent>
      <dc:title>Matplotlib v3.7.1, https://matplotlib.org/</dc:title>
     </cc:Agent>
    </dc:creator>
   </cc:Work>
  </rdf:RDF>
 </metadata>
 <defs>
  <style type="text/css">*{stroke-linejoin: round; stroke-linecap: butt}</style>
 </defs>
 <g id="figure_1">
  <g id="patch_1">
   <path d="M 0 313.269891 
L 417.805313 313.269891 
L 417.805313 0 
L 0 0 
z
" style="fill: #ffffff"/>
  </g>
  <g id="axes_1">
   <g id="patch_2">
    <path d="M 41.25125 277.248797 
L 398.37125 277.248797 
L 398.37125 11.136797 
L 41.25125 11.136797 
z
" style="fill: #ffffff"/>
   </g>
   <g id="matplotlib.axis_1">
    <g id="xtick_1">
     <g id="line2d_1">
      <defs>
       <path id="md713f30f0d" d="M 0 0 
L 0 -6 
" style="stroke: #262626; stroke-width: 1.25"/>
      </defs>
      <g>
       <use xlink:href="#md713f30f0d" x="41.25125" y="277.248797" style="fill: #262626; stroke: #262626; stroke-width: 1.25"/>
      </g>
     </g>
     <g id="text_1">
      <!-- 300 -->
      <g style="fill: #262626" transform="translate(32.075703 288.622391) scale(0.11 -0.11)">
       <defs>
        <path id="ArialMT-33" d="M 269 1209 
L 831 1284 
Q 928 806 1161 595 
Q 1394 384 1728 384 
Q 2125 384 2398 659 
Q 2672 934 2672 1341 
Q 2672 1728 2419 1979 
Q 2166 2231 1775 2231 
Q 1616 2231 1378 2169 
L 1441 2663 
Q 1497 2656 1531 2656 
Q 1891 2656 2178 2843 
Q 2466 3031 2466 3422 
Q 2466 3731 2256 3934 
Q 2047 4138 1716 4138 
Q 1388 4138 1169 3931 
Q 950 3725 888 3313 
L 325 3413 
Q 428 3978 793 4289 
Q 1159 4600 1703 4600 
Q 2078 4600 2393 4439 
Q 2709 4278 2876 4000 
Q 3044 3722 3044 3409 
Q 3044 3113 2884 2869 
Q 2725 2625 2413 2481 
Q 2819 2388 3044 2092 
Q 3269 1797 3269 1353 
Q 3269 753 2831 336 
Q 2394 -81 1725 -81 
Q 1122 -81 723 278 
Q 325 638 269 1209 
z
" transform="scale(0.015625)"/>
        <path id="ArialMT-30" d="M 266 2259 
Q 266 3072 433 3567 
Q 600 4063 929 4331 
Q 1259 4600 1759 4600 
Q 2128 4600 2406 4451 
Q 2684 4303 2865 4023 
Q 3047 3744 3150 3342 
Q 3253 2941 3253 2259 
Q 3253 1453 3087 958 
Q 2922 463 2592 192 
Q 2263 -78 1759 -78 
Q 1097 -78 719 397 
Q 266 969 266 2259 
z
M 844 2259 
Q 844 1131 1108 757 
Q 1372 384 1759 384 
Q 2147 384 2411 759 
Q 2675 1134 2675 2259 
Q 2675 3391 2411 3762 
Q 2147 4134 1753 4134 
Q 1366 4134 1134 3806 
Q 844 3388 844 2259 
z
" transform="scale(0.015625)"/>
       </defs>
       <use xlink:href="#ArialMT-33"/>
       <use xlink:href="#ArialMT-30" x="55.615234"/>
       <use xlink:href="#ArialMT-30" x="111.230469"/>
      </g>
     </g>
    </g>
    <g id="xtick_2">
     <g id="line2d_2">
      <g>
       <use xlink:href="#md713f30f0d" x="92.268393" y="277.248797" style="fill: #262626; stroke: #262626; stroke-width: 1.25"/>
      </g>
     </g>
     <g id="text_2">
      <!-- 400 -->
      <g style="fill: #262626" transform="translate(83.092846 288.622391) scale(0.11 -0.11)">
       <defs>
        <path id="ArialMT-34" d="M 2069 0 
L 2069 1097 
L 81 1097 
L 81 1613 
L 2172 4581 
L 2631 4581 
L 2631 1613 
L 3250 1613 
L 3250 1097 
L 2631 1097 
L 2631 0 
L 2069 0 
z
M 2069 1613 
L 2069 3678 
L 634 1613 
L 2069 1613 
z
" transform="scale(0.015625)"/>
       </defs>
       <use xlink:href="#ArialMT-34"/>
       <use xlink:href="#ArialMT-30" x="55.615234"/>
       <use xlink:href="#ArialMT-30" x="111.230469"/>
      </g>
     </g>
    </g>
    <g id="xtick_3">
     <g id="line2d_3">
      <g>
       <use xlink:href="#md713f30f0d" x="143.285536" y="277.248797" style="fill: #262626; stroke: #262626; stroke-width: 1.25"/>
      </g>
     </g>
     <g id="text_3">
      <!-- 500 -->
      <g style="fill: #262626" transform="translate(134.109989 288.622391) scale(0.11 -0.11)">
       <defs>
        <path id="ArialMT-35" d="M 266 1200 
L 856 1250 
Q 922 819 1161 601 
Q 1400 384 1738 384 
Q 2144 384 2425 690 
Q 2706 997 2706 1503 
Q 2706 1984 2436 2262 
Q 2166 2541 1728 2541 
Q 1456 2541 1237 2417 
Q 1019 2294 894 2097 
L 366 2166 
L 809 4519 
L 3088 4519 
L 3088 3981 
L 1259 3981 
L 1013 2750 
Q 1425 3038 1878 3038 
Q 2478 3038 2890 2622 
Q 3303 2206 3303 1553 
Q 3303 931 2941 478 
Q 2500 -78 1738 -78 
Q 1113 -78 717 272 
Q 322 622 266 1200 
z
" transform="scale(0.015625)"/>
       </defs>
       <use xlink:href="#ArialMT-35"/>
       <use xlink:href="#ArialMT-30" x="55.615234"/>
       <use xlink:href="#ArialMT-30" x="111.230469"/>
      </g>
     </g>
    </g>
    <g id="xtick_4">
     <g id="line2d_4">
      <g>
       <use xlink:href="#md713f30f0d" x="194.302679" y="277.248797" style="fill: #262626; stroke: #262626; stroke-width: 1.25"/>
      </g>
     </g>
     <g id="text_4">
      <!-- 600 -->
      <g style="fill: #262626" transform="translate(185.127132 288.622391) scale(0.11 -0.11)">
       <defs>
        <path id="ArialMT-36" d="M 3184 3459 
L 2625 3416 
Q 2550 3747 2413 3897 
Q 2184 4138 1850 4138 
Q 1581 4138 1378 3988 
Q 1113 3794 959 3422 
Q 806 3050 800 2363 
Q 1003 2672 1297 2822 
Q 1591 2972 1913 2972 
Q 2475 2972 2870 2558 
Q 3266 2144 3266 1488 
Q 3266 1056 3080 686 
Q 2894 316 2569 119 
Q 2244 -78 1831 -78 
Q 1128 -78 684 439 
Q 241 956 241 2144 
Q 241 3472 731 4075 
Q 1159 4600 1884 4600 
Q 2425 4600 2770 4297 
Q 3116 3994 3184 3459 
z
M 888 1484 
Q 888 1194 1011 928 
Q 1134 663 1356 523 
Q 1578 384 1822 384 
Q 2178 384 2434 671 
Q 2691 959 2691 1453 
Q 2691 1928 2437 2201 
Q 2184 2475 1800 2475 
Q 1419 2475 1153 2201 
Q 888 1928 888 1484 
z
" transform="scale(0.015625)"/>
       </defs>
       <use xlink:href="#ArialMT-36"/>
       <use xlink:href="#ArialMT-30" x="55.615234"/>
       <use xlink:href="#ArialMT-30" x="111.230469"/>
      </g>
     </g>
    </g>
    <g id="xtick_5">
     <g id="line2d_5">
      <g>
       <use xlink:href="#md713f30f0d" x="245.319821" y="277.248797" style="fill: #262626; stroke: #262626; stroke-width: 1.25"/>
      </g>
     </g>
     <g id="text_5">
      <!-- 700 -->
      <g style="fill: #262626" transform="translate(236.144275 288.622391) scale(0.11 -0.11)">
       <defs>
        <path id="ArialMT-37" d="M 303 3981 
L 303 4522 
L 3269 4522 
L 3269 4084 
Q 2831 3619 2401 2847 
Q 1972 2075 1738 1259 
Q 1569 684 1522 0 
L 944 0 
Q 953 541 1156 1306 
Q 1359 2072 1739 2783 
Q 2119 3494 2547 3981 
L 303 3981 
z
" transform="scale(0.015625)"/>
       </defs>
       <use xlink:href="#ArialMT-37"/>
       <use xlink:href="#ArialMT-30" x="55.615234"/>
       <use xlink:href="#ArialMT-30" x="111.230469"/>
      </g>
     </g>
    </g>
    <g id="xtick_6">
     <g id="line2d_6">
      <g>
       <use xlink:href="#md713f30f0d" x="296.336964" y="277.248797" style="fill: #262626; stroke: #262626; stroke-width: 1.25"/>
      </g>
     </g>
     <g id="text_6">
      <!-- 800 -->
      <g style="fill: #262626" transform="translate(287.161417 288.622391) scale(0.11 -0.11)">
       <defs>
        <path id="ArialMT-38" d="M 1131 2484 
Q 781 2613 612 2850 
Q 444 3088 444 3419 
Q 444 3919 803 4259 
Q 1163 4600 1759 4600 
Q 2359 4600 2725 4251 
Q 3091 3903 3091 3403 
Q 3091 3084 2923 2848 
Q 2756 2613 2416 2484 
Q 2838 2347 3058 2040 
Q 3278 1734 3278 1309 
Q 3278 722 2862 322 
Q 2447 -78 1769 -78 
Q 1091 -78 675 323 
Q 259 725 259 1325 
Q 259 1772 486 2073 
Q 713 2375 1131 2484 
z
M 1019 3438 
Q 1019 3113 1228 2906 
Q 1438 2700 1772 2700 
Q 2097 2700 2305 2904 
Q 2513 3109 2513 3406 
Q 2513 3716 2298 3927 
Q 2084 4138 1766 4138 
Q 1444 4138 1231 3931 
Q 1019 3725 1019 3438 
z
M 838 1322 
Q 838 1081 952 856 
Q 1066 631 1291 507 
Q 1516 384 1775 384 
Q 2178 384 2440 643 
Q 2703 903 2703 1303 
Q 2703 1709 2433 1975 
Q 2163 2241 1756 2241 
Q 1359 2241 1098 1978 
Q 838 1716 838 1322 
z
" transform="scale(0.015625)"/>
       </defs>
       <use xlink:href="#ArialMT-38"/>
       <use xlink:href="#ArialMT-30" x="55.615234"/>
       <use xlink:href="#ArialMT-30" x="111.230469"/>
      </g>
     </g>
    </g>
    <g id="xtick_7">
     <g id="line2d_7">
      <g>
       <use xlink:href="#md713f30f0d" x="347.354107" y="277.248797" style="fill: #262626; stroke: #262626; stroke-width: 1.25"/>
      </g>
     </g>
     <g id="text_7">
      <!-- 900 -->
      <g style="fill: #262626" transform="translate(338.17856 288.622391) scale(0.11 -0.11)">
       <defs>
        <path id="ArialMT-39" d="M 350 1059 
L 891 1109 
Q 959 728 1153 556 
Q 1347 384 1650 384 
Q 1909 384 2104 503 
Q 2300 622 2425 820 
Q 2550 1019 2634 1356 
Q 2719 1694 2719 2044 
Q 2719 2081 2716 2156 
Q 2547 1888 2255 1720 
Q 1963 1553 1622 1553 
Q 1053 1553 659 1965 
Q 266 2378 266 3053 
Q 266 3750 677 4175 
Q 1088 4600 1706 4600 
Q 2153 4600 2523 4359 
Q 2894 4119 3086 3673 
Q 3278 3228 3278 2384 
Q 3278 1506 3087 986 
Q 2897 466 2520 194 
Q 2144 -78 1638 -78 
Q 1100 -78 759 220 
Q 419 519 350 1059 
z
M 2653 3081 
Q 2653 3566 2395 3850 
Q 2138 4134 1775 4134 
Q 1400 4134 1122 3828 
Q 844 3522 844 3034 
Q 844 2597 1108 2323 
Q 1372 2050 1759 2050 
Q 2150 2050 2401 2323 
Q 2653 2597 2653 3081 
z
" transform="scale(0.015625)"/>
       </defs>
       <use xlink:href="#ArialMT-39"/>
       <use xlink:href="#ArialMT-30" x="55.615234"/>
       <use xlink:href="#ArialMT-30" x="111.230469"/>
      </g>
     </g>
    </g>
    <g id="xtick_8">
     <g id="line2d_8">
      <g>
       <use xlink:href="#md713f30f0d" x="398.37125" y="277.248797" style="fill: #262626; stroke: #262626; stroke-width: 1.25"/>
      </g>
     </g>
     <g id="text_8">
      <!-- 1000 -->
      <g style="fill: #262626" transform="translate(386.137188 288.622391) scale(0.11 -0.11)">
       <defs>
        <path id="ArialMT-31" d="M 2384 0 
L 1822 0 
L 1822 3584 
Q 1619 3391 1289 3197 
Q 959 3003 697 2906 
L 697 3450 
Q 1169 3672 1522 3987 
Q 1875 4303 2022 4600 
L 2384 4600 
L 2384 0 
z
" transform="scale(0.015625)"/>
       </defs>
       <use xlink:href="#ArialMT-31"/>
       <use xlink:href="#ArialMT-30" x="55.615234"/>
       <use xlink:href="#ArialMT-30" x="111.230469"/>
       <use xlink:href="#ArialMT-30" x="166.845703"/>
      </g>
     </g>
    </g>
    <g id="xtick_9">
     <g id="line2d_9">
      <defs>
       <path id="m53c2dd8dba" d="M 0 0 
L 0 -4 
" style="stroke: #262626"/>
      </defs>
      <g>
       <use xlink:href="#m53c2dd8dba" x="66.759821" y="277.248797" style="fill: #262626; stroke: #262626"/>
      </g>
     </g>
    </g>
    <g id="xtick_10">
     <g id="line2d_10">
      <g>
       <use xlink:href="#m53c2dd8dba" x="117.776964" y="277.248797" style="fill: #262626; stroke: #262626"/>
      </g>
     </g>
    </g>
    <g id="xtick_11">
     <g id="line2d_11">
      <g>
       <use xlink:href="#m53c2dd8dba" x="168.794107" y="277.248797" style="fill: #262626; stroke: #262626"/>
      </g>
     </g>
    </g>
    <g id="xtick_12">
     <g id="line2d_12">
      <g>
       <use xlink:href="#m53c2dd8dba" x="219.81125" y="277.248797" style="fill: #262626; stroke: #262626"/>
      </g>
     </g>
    </g>
    <g id="xtick_13">
     <g id="line2d_13">
      <g>
       <use xlink:href="#m53c2dd8dba" x="270.828393" y="277.248797" style="fill: #262626; stroke: #262626"/>
      </g>
     </g>
    </g>
    <g id="xtick_14">
     <g id="line2d_14">
      <g>
       <use xlink:href="#m53c2dd8dba" x="321.845536" y="277.248797" style="fill: #262626; stroke: #262626"/>
      </g>
     </g>
    </g>
    <g id="xtick_15">
     <g id="line2d_15">
      <g>
       <use xlink:href="#m53c2dd8dba" x="372.862679" y="277.248797" style="fill: #262626; stroke: #262626"/>
      </g>
     </g>
    </g>
    <g id="text_9">
     <!-- Wavelength (nm) -->
     <g style="fill: #262626" transform="translate(174.356562 303.544266) scale(0.12 -0.12)">
      <defs>
       <path id="ArialMT-57" d="M 1294 0 
L 78 4581 
L 700 4581 
L 1397 1578 
Q 1509 1106 1591 641 
Q 1766 1375 1797 1488 
L 2669 4581 
L 3400 4581 
L 4056 2263 
Q 4303 1400 4413 641 
Q 4500 1075 4641 1638 
L 5359 4581 
L 5969 4581 
L 4713 0 
L 4128 0 
L 3163 3491 
Q 3041 3928 3019 4028 
Q 2947 3713 2884 3491 
L 1913 0 
L 1294 0 
z
" transform="scale(0.015625)"/>
       <path id="ArialMT-61" d="M 2588 409 
Q 2275 144 1986 34 
Q 1697 -75 1366 -75 
Q 819 -75 525 192 
Q 231 459 231 875 
Q 231 1119 342 1320 
Q 453 1522 633 1644 
Q 813 1766 1038 1828 
Q 1203 1872 1538 1913 
Q 2219 1994 2541 2106 
Q 2544 2222 2544 2253 
Q 2544 2597 2384 2738 
Q 2169 2928 1744 2928 
Q 1347 2928 1158 2789 
Q 969 2650 878 2297 
L 328 2372 
Q 403 2725 575 2942 
Q 747 3159 1072 3276 
Q 1397 3394 1825 3394 
Q 2250 3394 2515 3294 
Q 2781 3194 2906 3042 
Q 3031 2891 3081 2659 
Q 3109 2516 3109 2141 
L 3109 1391 
Q 3109 606 3145 398 
Q 3181 191 3288 0 
L 2700 0 
Q 2613 175 2588 409 
z
M 2541 1666 
Q 2234 1541 1622 1453 
Q 1275 1403 1131 1340 
Q 988 1278 909 1158 
Q 831 1038 831 891 
Q 831 666 1001 516 
Q 1172 366 1500 366 
Q 1825 366 2078 508 
Q 2331 650 2450 897 
Q 2541 1088 2541 1459 
L 2541 1666 
z
" transform="scale(0.015625)"/>
       <path id="ArialMT-76" d="M 1344 0 
L 81 3319 
L 675 3319 
L 1388 1331 
Q 1503 1009 1600 663 
Q 1675 925 1809 1294 
L 2547 3319 
L 3125 3319 
L 1869 0 
L 1344 0 
z
" transform="scale(0.015625)"/>
       <path id="ArialMT-65" d="M 2694 1069 
L 3275 997 
Q 3138 488 2766 206 
Q 2394 -75 1816 -75 
Q 1088 -75 661 373 
Q 234 822 234 1631 
Q 234 2469 665 2931 
Q 1097 3394 1784 3394 
Q 2450 3394 2872 2941 
Q 3294 2488 3294 1666 
Q 3294 1616 3291 1516 
L 816 1516 
Q 847 969 1125 678 
Q 1403 388 1819 388 
Q 2128 388 2347 550 
Q 2566 713 2694 1069 
z
M 847 1978 
L 2700 1978 
Q 2663 2397 2488 2606 
Q 2219 2931 1791 2931 
Q 1403 2931 1139 2672 
Q 875 2413 847 1978 
z
" transform="scale(0.015625)"/>
       <path id="ArialMT-6c" d="M 409 0 
L 409 4581 
L 972 4581 
L 972 0 
L 409 0 
z
" transform="scale(0.015625)"/>
       <path id="ArialMT-6e" d="M 422 0 
L 422 3319 
L 928 3319 
L 928 2847 
Q 1294 3394 1984 3394 
Q 2284 3394 2536 3286 
Q 2788 3178 2913 3003 
Q 3038 2828 3088 2588 
Q 3119 2431 3119 2041 
L 3119 0 
L 2556 0 
L 2556 2019 
Q 2556 2363 2490 2533 
Q 2425 2703 2258 2804 
Q 2091 2906 1866 2906 
Q 1506 2906 1245 2678 
Q 984 2450 984 1813 
L 984 0 
L 422 0 
z
" transform="scale(0.015625)"/>
       <path id="ArialMT-67" d="M 319 -275 
L 866 -356 
Q 900 -609 1056 -725 
Q 1266 -881 1628 -881 
Q 2019 -881 2231 -725 
Q 2444 -569 2519 -288 
Q 2563 -116 2559 434 
Q 2191 0 1641 0 
Q 956 0 581 494 
Q 206 988 206 1678 
Q 206 2153 378 2554 
Q 550 2956 876 3175 
Q 1203 3394 1644 3394 
Q 2231 3394 2613 2919 
L 2613 3319 
L 3131 3319 
L 3131 450 
Q 3131 -325 2973 -648 
Q 2816 -972 2473 -1159 
Q 2131 -1347 1631 -1347 
Q 1038 -1347 672 -1080 
Q 306 -813 319 -275 
z
M 784 1719 
Q 784 1066 1043 766 
Q 1303 466 1694 466 
Q 2081 466 2343 764 
Q 2606 1063 2606 1700 
Q 2606 2309 2336 2618 
Q 2066 2928 1684 2928 
Q 1309 2928 1046 2623 
Q 784 2319 784 1719 
z
" transform="scale(0.015625)"/>
       <path id="ArialMT-74" d="M 1650 503 
L 1731 6 
Q 1494 -44 1306 -44 
Q 1000 -44 831 53 
Q 663 150 594 308 
Q 525 466 525 972 
L 525 2881 
L 113 2881 
L 113 3319 
L 525 3319 
L 525 4141 
L 1084 4478 
L 1084 3319 
L 1650 3319 
L 1650 2881 
L 1084 2881 
L 1084 941 
Q 1084 700 1114 631 
Q 1144 563 1211 522 
Q 1278 481 1403 481 
Q 1497 481 1650 503 
z
" transform="scale(0.015625)"/>
       <path id="ArialMT-68" d="M 422 0 
L 422 4581 
L 984 4581 
L 984 2938 
Q 1378 3394 1978 3394 
Q 2347 3394 2619 3248 
Q 2891 3103 3008 2847 
Q 3125 2591 3125 2103 
L 3125 0 
L 2563 0 
L 2563 2103 
Q 2563 2525 2380 2717 
Q 2197 2909 1863 2909 
Q 1613 2909 1392 2779 
Q 1172 2650 1078 2428 
Q 984 2206 984 1816 
L 984 0 
L 422 0 
z
" transform="scale(0.015625)"/>
       <path id="ArialMT-20" transform="scale(0.015625)"/>
       <path id="ArialMT-28" d="M 1497 -1347 
Q 1031 -759 709 28 
Q 388 816 388 1659 
Q 388 2403 628 3084 
Q 909 3875 1497 4659 
L 1900 4659 
Q 1522 4009 1400 3731 
Q 1209 3300 1100 2831 
Q 966 2247 966 1656 
Q 966 153 1900 -1347 
L 1497 -1347 
z
" transform="scale(0.015625)"/>
       <path id="ArialMT-6d" d="M 422 0 
L 422 3319 
L 925 3319 
L 925 2853 
Q 1081 3097 1340 3245 
Q 1600 3394 1931 3394 
Q 2300 3394 2536 3241 
Q 2772 3088 2869 2813 
Q 3263 3394 3894 3394 
Q 4388 3394 4653 3120 
Q 4919 2847 4919 2278 
L 4919 0 
L 4359 0 
L 4359 2091 
Q 4359 2428 4304 2576 
Q 4250 2725 4106 2815 
Q 3963 2906 3769 2906 
Q 3419 2906 3187 2673 
Q 2956 2441 2956 1928 
L 2956 0 
L 2394 0 
L 2394 2156 
Q 2394 2531 2256 2718 
Q 2119 2906 1806 2906 
Q 1569 2906 1367 2781 
Q 1166 2656 1075 2415 
Q 984 2175 984 1722 
L 984 0 
L 422 0 
z
" transform="scale(0.015625)"/>
       <path id="ArialMT-29" d="M 791 -1347 
L 388 -1347 
Q 1322 153 1322 1656 
Q 1322 2244 1188 2822 
Q 1081 3291 891 3722 
Q 769 4003 388 4659 
L 791 4659 
Q 1378 3875 1659 3084 
Q 1900 2403 1900 1659 
Q 1900 816 1576 28 
Q 1253 -759 791 -1347 
z
" transform="scale(0.015625)"/>
      </defs>
      <use xlink:href="#ArialMT-57"/>
      <use xlink:href="#ArialMT-61" x="90.634766"/>
      <use xlink:href="#ArialMT-76" x="146.25"/>
      <use xlink:href="#ArialMT-65" x="196.25"/>
      <use xlink:href="#ArialMT-6c" x="251.865234"/>
      <use xlink:href="#ArialMT-65" x="274.082031"/>
      <use xlink:href="#ArialMT-6e" x="329.697266"/>
      <use xlink:href="#ArialMT-67" x="385.3125"/>
      <use xlink:href="#ArialMT-74" x="440.927734"/>
      <use xlink:href="#ArialMT-68" x="468.710938"/>
      <use xlink:href="#ArialMT-20" x="524.326172"/>
      <use xlink:href="#ArialMT-28" x="552.109375"/>
      <use xlink:href="#ArialMT-6e" x="585.410156"/>
      <use xlink:href="#ArialMT-6d" x="641.025391"/>
      <use xlink:href="#ArialMT-29" x="724.326172"/>
     </g>
    </g>
   </g>
   <g id="matplotlib.axis_2">
    <g id="ytick_1">
     <g id="line2d_16">
      <defs>
       <path id="mfb242aa27b" d="M 0 0 
L 6 0 
" style="stroke: #262626; stroke-width: 1.25"/>
      </defs>
      <g>
       <use xlink:href="#mfb242aa27b" x="41.25125" y="277.248797" style="fill: #262626; stroke: #262626; stroke-width: 1.25"/>
      </g>
     </g>
     <g id="text_10">
      <!-- 0.0 -->
      <g style="fill: #262626" transform="translate(22.46125 281.185594) scale(0.11 -0.11)">
       <defs>
        <path id="ArialMT-2e" d="M 581 0 
L 581 641 
L 1222 641 
L 1222 0 
L 581 0 
z
" transform="scale(0.015625)"/>
       </defs>
       <use xlink:href="#ArialMT-30"/>
       <use xlink:href="#ArialMT-2e" x="55.615234"/>
       <use xlink:href="#ArialMT-30" x="83.398438"/>
      </g>
     </g>
    </g>
    <g id="ytick_2">
     <g id="line2d_17">
      <g>
       <use xlink:href="#mfb242aa27b" x="41.25125" y="224.026397" style="fill: #262626; stroke: #262626; stroke-width: 1.25"/>
      </g>
     </g>
     <g id="text_11">
      <!-- 0.2 -->
      <g style="fill: #262626" transform="translate(22.46125 227.963194) scale(0.11 -0.11)">
       <defs>
        <path id="ArialMT-32" d="M 3222 541 
L 3222 0 
L 194 0 
Q 188 203 259 391 
Q 375 700 629 1000 
Q 884 1300 1366 1694 
Q 2113 2306 2375 2664 
Q 2638 3022 2638 3341 
Q 2638 3675 2398 3904 
Q 2159 4134 1775 4134 
Q 1369 4134 1125 3890 
Q 881 3647 878 3216 
L 300 3275 
Q 359 3922 746 4261 
Q 1134 4600 1788 4600 
Q 2447 4600 2831 4234 
Q 3216 3869 3216 3328 
Q 3216 3053 3103 2787 
Q 2991 2522 2730 2228 
Q 2469 1934 1863 1422 
Q 1356 997 1212 845 
Q 1069 694 975 541 
L 3222 541 
z
" transform="scale(0.015625)"/>
       </defs>
       <use xlink:href="#ArialMT-30"/>
       <use xlink:href="#ArialMT-2e" x="55.615234"/>
       <use xlink:href="#ArialMT-32" x="83.398438"/>
      </g>
     </g>
    </g>
    <g id="ytick_3">
     <g id="line2d_18">
      <g>
       <use xlink:href="#mfb242aa27b" x="41.25125" y="170.803997" style="fill: #262626; stroke: #262626; stroke-width: 1.25"/>
      </g>
     </g>
     <g id="text_12">
      <!-- 0.4 -->
      <g style="fill: #262626" transform="translate(22.46125 174.740794) scale(0.11 -0.11)">
       <use xlink:href="#ArialMT-30"/>
       <use xlink:href="#ArialMT-2e" x="55.615234"/>
       <use xlink:href="#ArialMT-34" x="83.398438"/>
      </g>
     </g>
    </g>
    <g id="ytick_4">
     <g id="line2d_19">
      <g>
       <use xlink:href="#mfb242aa27b" x="41.25125" y="117.581597" style="fill: #262626; stroke: #262626; stroke-width: 1.25"/>
      </g>
     </g>
     <g id="text_13">
      <!-- 0.6 -->
      <g style="fill: #262626" transform="translate(22.46125 121.518394) scale(0.11 -0.11)">
       <use xlink:href="#ArialMT-30"/>
       <use xlink:href="#ArialMT-2e" x="55.615234"/>
       <use xlink:href="#ArialMT-36" x="83.398438"/>
      </g>
     </g>
    </g>
    <g id="ytick_5">
     <g id="line2d_20">
      <g>
       <use xlink:href="#mfb242aa27b" x="41.25125" y="64.359197" style="fill: #262626; stroke: #262626; stroke-width: 1.25"/>
      </g>
     </g>
     <g id="text_14">
      <!-- 0.8 -->
      <g style="fill: #262626" transform="translate(22.46125 68.295994) scale(0.11 -0.11)">
       <use xlink:href="#ArialMT-30"/>
       <use xlink:href="#ArialMT-2e" x="55.615234"/>
       <use xlink:href="#ArialMT-38" x="83.398438"/>
      </g>
     </g>
    </g>
    <g id="ytick_6">
     <g id="line2d_21">
      <g>
       <use xlink:href="#mfb242aa27b" x="41.25125" y="11.136797" style="fill: #262626; stroke: #262626; stroke-width: 1.25"/>
      </g>
     </g>
     <g id="text_15">
      <!-- 1.0 -->
      <g style="fill: #262626" transform="translate(22.46125 15.073594) scale(0.11 -0.11)">
       <use xlink:href="#ArialMT-31"/>
       <use xlink:href="#ArialMT-2e" x="55.615234"/>
       <use xlink:href="#ArialMT-30" x="83.398438"/>
      </g>
     </g>
    </g>
    <g id="ytick_7">
     <g id="line2d_22">
      <defs>
       <path id="ma5e4870380" d="M 0 0 
L 4 0 
" style="stroke: #262626"/>
      </defs>
      <g>
       <use xlink:href="#ma5e4870380" x="41.25125" y="250.637597" style="fill: #262626; stroke: #262626"/>
      </g>
     </g>
    </g>
    <g id="ytick_8">
     <g id="line2d_23">
      <g>
       <use xlink:href="#ma5e4870380" x="41.25125" y="197.415197" style="fill: #262626; stroke: #262626"/>
      </g>
     </g>
    </g>
    <g id="ytick_9">
     <g id="line2d_24">
      <g>
       <use xlink:href="#ma5e4870380" x="41.25125" y="144.192797" style="fill: #262626; stroke: #262626"/>
      </g>
     </g>
    </g>
    <g id="ytick_10">
     <g id="line2d_25">
      <g>
       <use xlink:href="#ma5e4870380" x="41.25125" y="90.970397" style="fill: #262626; stroke: #262626"/>
      </g>
     </g>
    </g>
    <g id="ytick_11">
     <g id="line2d_26">
      <g>
       <use xlink:href="#ma5e4870380" x="41.25125" y="37.747997" style="fill: #262626; stroke: #262626"/>
      </g>
     </g>
    </g>
    <g id="text_16">
     <!-- Absorbance (a.u.) -->
     <g style="fill: #262626" transform="translate(15.935625 191.881547) rotate(-90) scale(0.12 -0.12)">
      <defs>
       <path id="ArialMT-41" d="M -9 0 
L 1750 4581 
L 2403 4581 
L 4278 0 
L 3588 0 
L 3053 1388 
L 1138 1388 
L 634 0 
L -9 0 
z
M 1313 1881 
L 2866 1881 
L 2388 3150 
Q 2169 3728 2063 4100 
Q 1975 3659 1816 3225 
L 1313 1881 
z
" transform="scale(0.015625)"/>
       <path id="ArialMT-62" d="M 941 0 
L 419 0 
L 419 4581 
L 981 4581 
L 981 2947 
Q 1338 3394 1891 3394 
Q 2197 3394 2470 3270 
Q 2744 3147 2920 2923 
Q 3097 2700 3197 2384 
Q 3297 2069 3297 1709 
Q 3297 856 2875 390 
Q 2453 -75 1863 -75 
Q 1275 -75 941 416 
L 941 0 
z
M 934 1684 
Q 934 1088 1097 822 
Q 1363 388 1816 388 
Q 2184 388 2453 708 
Q 2722 1028 2722 1663 
Q 2722 2313 2464 2622 
Q 2206 2931 1841 2931 
Q 1472 2931 1203 2611 
Q 934 2291 934 1684 
z
" transform="scale(0.015625)"/>
       <path id="ArialMT-73" d="M 197 991 
L 753 1078 
Q 800 744 1014 566 
Q 1228 388 1613 388 
Q 2000 388 2187 545 
Q 2375 703 2375 916 
Q 2375 1106 2209 1216 
Q 2094 1291 1634 1406 
Q 1016 1563 777 1677 
Q 538 1791 414 1992 
Q 291 2194 291 2438 
Q 291 2659 392 2848 
Q 494 3038 669 3163 
Q 800 3259 1026 3326 
Q 1253 3394 1513 3394 
Q 1903 3394 2198 3281 
Q 2494 3169 2634 2976 
Q 2775 2784 2828 2463 
L 2278 2388 
Q 2241 2644 2061 2787 
Q 1881 2931 1553 2931 
Q 1166 2931 1000 2803 
Q 834 2675 834 2503 
Q 834 2394 903 2306 
Q 972 2216 1119 2156 
Q 1203 2125 1616 2013 
Q 2213 1853 2448 1751 
Q 2684 1650 2818 1456 
Q 2953 1263 2953 975 
Q 2953 694 2789 445 
Q 2625 197 2315 61 
Q 2006 -75 1616 -75 
Q 969 -75 630 194 
Q 291 463 197 991 
z
" transform="scale(0.015625)"/>
       <path id="ArialMT-6f" d="M 213 1659 
Q 213 2581 725 3025 
Q 1153 3394 1769 3394 
Q 2453 3394 2887 2945 
Q 3322 2497 3322 1706 
Q 3322 1066 3130 698 
Q 2938 331 2570 128 
Q 2203 -75 1769 -75 
Q 1072 -75 642 372 
Q 213 819 213 1659 
z
M 791 1659 
Q 791 1022 1069 705 
Q 1347 388 1769 388 
Q 2188 388 2466 706 
Q 2744 1025 2744 1678 
Q 2744 2294 2464 2611 
Q 2184 2928 1769 2928 
Q 1347 2928 1069 2612 
Q 791 2297 791 1659 
z
" transform="scale(0.015625)"/>
       <path id="ArialMT-72" d="M 416 0 
L 416 3319 
L 922 3319 
L 922 2816 
Q 1116 3169 1280 3281 
Q 1444 3394 1641 3394 
Q 1925 3394 2219 3213 
L 2025 2691 
Q 1819 2813 1613 2813 
Q 1428 2813 1281 2702 
Q 1134 2591 1072 2394 
Q 978 2094 978 1738 
L 978 0 
L 416 0 
z
" transform="scale(0.015625)"/>
       <path id="ArialMT-63" d="M 2588 1216 
L 3141 1144 
Q 3050 572 2676 248 
Q 2303 -75 1759 -75 
Q 1078 -75 664 370 
Q 250 816 250 1647 
Q 250 2184 428 2587 
Q 606 2991 970 3192 
Q 1334 3394 1763 3394 
Q 2303 3394 2647 3120 
Q 2991 2847 3088 2344 
L 2541 2259 
Q 2463 2594 2264 2762 
Q 2066 2931 1784 2931 
Q 1359 2931 1093 2626 
Q 828 2322 828 1663 
Q 828 994 1084 691 
Q 1341 388 1753 388 
Q 2084 388 2306 591 
Q 2528 794 2588 1216 
z
" transform="scale(0.015625)"/>
       <path id="ArialMT-75" d="M 2597 0 
L 2597 488 
Q 2209 -75 1544 -75 
Q 1250 -75 995 37 
Q 741 150 617 320 
Q 494 491 444 738 
Q 409 903 409 1263 
L 409 3319 
L 972 3319 
L 972 1478 
Q 972 1038 1006 884 
Q 1059 663 1231 536 
Q 1403 409 1656 409 
Q 1909 409 2131 539 
Q 2353 669 2445 892 
Q 2538 1116 2538 1541 
L 2538 3319 
L 3100 3319 
L 3100 0 
L 2597 0 
z
" transform="scale(0.015625)"/>
      </defs>
      <use xlink:href="#ArialMT-41"/>
      <use xlink:href="#ArialMT-62" x="66.699219"/>
      <use xlink:href="#ArialMT-73" x="122.314453"/>
      <use xlink:href="#ArialMT-6f" x="172.314453"/>
      <use xlink:href="#ArialMT-72" x="227.929688"/>
      <use xlink:href="#ArialMT-62" x="261.230469"/>
      <use xlink:href="#ArialMT-61" x="316.845703"/>
      <use xlink:href="#ArialMT-6e" x="372.460938"/>
      <use xlink:href="#ArialMT-63" x="428.076172"/>
      <use xlink:href="#ArialMT-65" x="478.076172"/>
      <use xlink:href="#ArialMT-20" x="533.691406"/>
      <use xlink:href="#ArialMT-28" x="561.474609"/>
      <use xlink:href="#ArialMT-61" x="594.775391"/>
      <use xlink:href="#ArialMT-2e" x="650.390625"/>
      <use xlink:href="#ArialMT-75" x="678.173828"/>
      <use xlink:href="#ArialMT-2e" x="733.789062"/>
      <use xlink:href="#ArialMT-29" x="761.572266"/>
     </g>
    </g>
   </g>
   <g id="PolyCollection_1"/>
   <g id="PolyCollection_2"/>
   <g id="PolyCollection_3"/>
   <g id="PolyCollection_4"/>
   <g id="PolyCollection_5"/>
   <g id="PolyCollection_6"/>
   <g id="line2d_27">
    <path d="M 41.591359 217.338477 
L 42.611702 214.41233 
L 44.652388 207.307003 
L 47.033198 197.106521 
L 50.434336 179.596443 
L 59.277312 128.954405 
L 60.637764 122.101392 
L 61.998216 116.211949 
L 63.018559 112.4742 
L 64.038902 109.45531 
L 65.399369 106.292905 
L 66.419712 104.544935 
L 67.440055 103.316889 
L 68.460398 102.501687 
L 69.480741 102.260655 
L 70.501084 102.58956 
L 71.181302 103.115956 
L 72.201645 104.409954 
L 72.881879 105.668882 
L 74.242331 108.906058 
L 75.262673 111.952388 
L 77.983593 121.247868 
L 79.344045 125.693818 
L 81.044621 130.402307 
L 82.064964 132.541724 
L 83.085307 134.233798 
L 84.10565 135.280214 
L 85.125993 135.887028 
L 85.806227 135.983688 
L 86.48646 135.864108 
L 87.166679 135.608182 
L 87.846912 135.1334 
L 88.527146 134.483553 
L 89.207364 133.699884 
L 90.227707 132.252045 
L 91.24805 130.476936 
L 92.948627 126.994446 
L 94.309079 123.7327 
L 97.029998 116.011729 
L 100.091027 105.918399 
L 103.492164 93.400146 
L 108.934003 72.157775 
L 113.695593 54.218295 
L 116.076403 46.257307 
L 117.776964 41.427382 
L 118.797307 38.832471 
L 120.157775 35.821607 
L 121.518227 33.325735 
L 122.878679 31.406349 
L 123.899021 30.351019 
L 124.919364 29.598549 
L 125.939707 29.237097 
L 126.619941 29.117041 
L 127.300175 29.221822 
L 128.320518 29.70498 
L 129.34086 30.53606 
L 130.361203 31.855293 
L 131.381546 33.616809 
L 132.401889 35.898694 
L 133.422232 38.723978 
L 134.442575 42.007517 
L 135.803027 47.306404 
L 137.163479 53.423491 
L 138.864055 62.258606 
L 140.904741 73.983039 
L 143.62566 91.200376 
L 146.686689 111.743444 
L 151.108154 143.206433 
L 154.849432 171.900002 
L 158.930803 203.768205 
L 161.311582 220.74484 
L 163.012175 231.538424 
L 164.712736 240.837052 
L 166.073203 247.2899 
L 167.773764 254.017679 
L 169.134232 258.440556 
L 170.494668 262.042059 
L 171.855136 264.977642 
L 172.875479 266.811255 
L 174.235946 268.767491 
L 175.596414 270.367118 
L 177.296975 271.868217 
L 178.997536 273.067205 
L 181.378346 274.143597 
L 183.078907 274.687653 
L 185.459718 275.227778 
L 188.520746 275.657321 
L 199.064299 276.225349 
L 201.785203 276.292264 
L 215.389785 276.43657 
L 216.410128 276.434357 
L 218.790907 276.464877 
L 220.151375 276.440226 
L 223.212403 276.462006 
L 224.572871 276.436043 
L 225.593214 276.455264 
L 230.354803 276.443861 
L 232.395489 276.463962 
L 234.776299 276.478692 
L 249.401193 276.526697 
L 250.76166 276.490071 
L 251.441879 276.497088 
L 253.142471 276.512632 
L 258.244185 276.50816 
L 266.406928 276.544483 
L 276.95045 276.543852 
L 277.970793 276.558212 
L 280.011479 276.55298 
L 280.691728 276.567185 
L 306.200299 276.61309 
L 306.540393 276.536838 
L 307.220642 276.682425 
L 307.90086 276.619386 
L 308.581079 276.651699 
L 308.921203 276.584577 
L 309.601421 276.617246 
L 312.322356 276.60227 
L 312.66245 276.686744 
L 314.022918 276.585484 
L 316.403728 276.633944 
L 317.083946 276.62537 
L 317.424071 276.712956 
L 318.104289 276.642434 
L 318.784507 276.624498 
L 319.80485 276.72436 
L 320.144975 276.526753 
L 320.485099 276.733079 
L 320.825193 276.614178 
L 321.845536 276.723966 
L 322.525785 276.565252 
L 322.865879 276.703945 
L 323.546128 276.605858 
L 323.886221 276.782168 
L 324.226346 276.636458 
L 325.926907 276.697099 
L 326.267032 276.67778 
L 326.607156 276.538522 
L 326.94725 276.729778 
L 327.287375 276.561642 
L 327.627499 276.78721 
L 327.967593 276.64267 
L 328.647842 276.772907 
L 328.987936 276.565966 
L 329.668185 276.765478 
L 330.688528 276.652904 
L 331.028621 276.402809 
L 331.708871 276.787397 
L 332.048964 276.906003 
L 332.389089 276.661718 
L 332.729214 276.731723 
L 333.069307 276.927923 
L 333.409432 276.704471 
L 334.08965 276.727197 
L 334.429775 276.577434 
L 334.769899 276.866152 
L 335.109993 276.294209 
L 335.450118 276.877431 
L 335.790242 276.872102 
L 336.130336 276.622821 
L 336.47046 276.596313 
L 336.810585 276.81828 
L 337.830928 276.531411 
L 338.171021 276.770016 
L 338.851271 276.675821 
L 339.191364 276.37339 
L 339.531489 276.585845 
L 339.871614 276.458927 
L 340.551832 276.856842 
L 340.891956 276.924718 
L 341.23205 276.398701 
L 341.572175 276.786062 
L 341.912299 276.836007 
L 342.252393 276.488934 
L 342.592518 277.02036 
L 343.272736 276.930679 
L 343.61286 277.290314 
L 343.952985 277.033342 
L 344.293079 277.065119 
L 344.633203 276.079846 
L 344.973328 276.93968 
L 345.313421 277.139706 
L 345.653546 277.137472 
L 345.993671 276.693078 
L 346.673889 276.60937 
L 347.013982 276.984456 
L 354.156382 276.984988 
L 357.897629 276.990842 
L 367.080715 277.019739 
L 371.502211 277.002309 
L 378.984736 276.98824 
L 381.365515 276.987487 
L 391.22885 277.008909 
L 394.970097 277.035005 
L 398.711344 277.072591 
L 398.711344 277.072591 
" clip-path="url(#p3430a3aec3)" style="fill: none; stroke: #f6b48f; stroke-linecap: round"/>
   </g>
   <g id="line2d_28">
    <path d="M 41.591359 136.638958 
L 44.652388 124.239365 
L 48.053541 109.180589 
L 50.774445 99.452296 
L 53.835473 90.686336 
L 55.53605 86.671962 
L 56.896502 84.387001 
L 57.576736 83.549703 
L 58.597079 82.612208 
L 60.977873 80.210807 
L 61.998216 78.784144 
L 63.698793 75.252277 
L 65.739479 70.259184 
L 67.099931 67.234917 
L 68.800507 64.716712 
L 69.480741 64.114895 
L 70.160959 63.750413 
L 70.841193 63.683763 
L 71.521427 63.85908 
L 72.541769 64.645986 
L 73.221988 65.571473 
L 73.902221 66.788717 
L 74.582455 68.266836 
L 75.602798 71.107045 
L 76.623141 74.534559 
L 77.643484 78.378517 
L 79.344045 85.53328 
L 82.405073 99.177495 
L 84.10565 106.608629 
L 86.826569 117.345175 
L 88.527146 123.415898 
L 90.567832 130.006103 
L 92.608518 135.927649 
L 94.989312 142.006621 
L 97.370107 147.164118 
L 98.39045 149.069633 
L 100.091027 151.845976 
L 101.791603 154.007234 
L 103.492164 155.622412 
L 105.192741 156.628872 
L 106.553193 157.078102 
L 107.573536 157.117985 
L 108.253769 157.053738 
L 110.294455 156.394153 
L 111.314798 155.714741 
L 113.015375 154.286277 
L 114.715936 152.281882 
L 116.416512 149.774518 
L 118.457198 146.184281 
L 120.157775 142.787641 
L 121.858336 139.018296 
L 124.579255 132.2654 
L 127.640284 123.80073 
L 131.721655 111.559815 
L 140.904741 82.668104 
L 145.326221 69.446345 
L 148.047141 61.847254 
L 150.76806 54.803617 
L 153.829089 47.666174 
L 156.209868 42.702315 
L 158.590679 38.36527 
L 160.971489 34.699024 
L 162.331925 32.873539 
L 164.372611 30.536678 
L 165.733079 29.280272 
L 167.43364 27.982118 
L 169.474325 26.968346 
L 170.834793 26.57663 
L 172.19526 26.45134 
L 173.555728 26.580341 
L 174.576071 26.849321 
L 175.936507 27.437085 
L 176.95685 28.063313 
L 178.657442 29.384149 
L 180.358003 31.187746 
L 182.398689 33.978515 
L 183.759156 36.117281 
L 185.459718 39.212005 
L 187.160279 42.673462 
L 188.860871 46.503272 
L 192.261993 55.187164 
L 194.642803 61.88567 
L 197.363707 70.030366 
L 201.445079 83.187141 
L 206.886918 101.616123 
L 222.19206 154.647024 
L 230.694928 182.612573 
L 235.116393 196.200107 
L 239.878014 209.695152 
L 242.598918 216.777071 
L 244.299479 220.958736 
L 248.720975 230.79028 
L 252.122128 237.304852 
L 256.883718 245.079449 
L 260.284871 249.638335 
L 261.985432 251.631374 
L 264.026118 253.850706 
L 268.447614 257.920505 
L 272.528985 260.935436 
L 274.569671 262.268809 
L 275.930107 263.041657 
L 277.290575 263.783771 
L 280.011479 265.162481 
L 280.691728 265.469354 
L 282.732414 266.363371 
L 287.834128 268.28187 
L 289.874814 268.863251 
L 290.895156 269.200973 
L 297.697432 270.957035 
L 298.37765 271.06916 
L 308.581079 272.907513 
L 309.941546 273.062713 
L 311.302014 273.285634 
L 312.66245 273.433977 
L 313.342699 273.52459 
L 314.363042 273.581944 
L 315.04326 273.691531 
L 319.80485 274.285457 
L 320.144975 274.204379 
L 320.485099 274.347168 
L 321.505442 274.48607 
L 322.18566 274.54962 
L 322.525785 274.411826 
L 323.886221 274.619513 
L 325.246689 274.653715 
L 325.586814 274.869836 
L 326.267032 274.797069 
L 326.94725 274.777704 
L 327.627499 275.016806 
L 327.967593 274.934258 
L 328.647842 275.151687 
L 328.987936 274.843654 
L 329.32806 275.134324 
L 329.668185 275.259782 
L 331.028621 274.972694 
L 331.368746 275.427442 
L 331.708871 275.327461 
L 332.048964 275.5294 
L 332.389089 275.279851 
L 332.729214 275.358155 
L 333.069307 275.288631 
L 333.409432 275.350411 
L 333.749556 275.243235 
L 334.08965 275.459279 
L 334.429775 275.505702 
L 335.109993 275.190773 
L 335.450118 275.306797 
L 335.790242 275.700615 
L 336.130336 275.294495 
L 336.47046 275.654842 
L 337.150679 275.43973 
L 337.490803 275.782583 
L 337.830928 275.425392 
L 338.171021 275.508535 
L 338.511146 275.885615 
L 338.851271 275.394764 
L 339.191364 275.805931 
L 339.531489 275.885483 
L 339.871614 275.133138 
L 340.211707 275.452562 
L 340.551832 275.512807 
L 340.891956 275.936835 
L 341.23205 275.483832 
L 341.572175 275.866438 
L 341.912299 275.467926 
L 342.592518 276.236538 
L 342.932642 276.121319 
L 343.272736 275.767478 
L 343.61286 275.897624 
L 344.293079 276.384606 
L 344.633203 275.88933 
L 344.973328 276.275857 
L 345.313421 276.491278 
L 345.653546 276.298202 
L 346.333764 275.50201 
L 346.673889 276.120923 
L 347.013982 276.357647 
L 352.795915 276.53794 
L 355.51685 276.608996 
L 358.917972 276.698553 
L 362.319125 276.7591 
L 376.94405 276.879614 
L 389.528258 277.04003 
L 391.22885 277.051167 
L 394.629972 277.066533 
L 397.350907 277.067458 
L 398.711344 277.080159 
L 398.711344 277.080159 
" clip-path="url(#p3430a3aec3)" style="fill: none; stroke: #f37651; stroke-linecap: round"/>
   </g>
   <g id="line2d_29">
    <path d="M 41.591359 139.524865 
L 43.632045 130.199676 
L 44.652388 124.701125 
L 46.693073 111.604053 
L 48.053541 103.747656 
L 49.073884 99.206331 
L 50.094227 95.995263 
L 52.475021 88.642977 
L 53.495364 84.155502 
L 55.195941 76.034979 
L 55.876159 73.661256 
L 56.216284 72.777469 
L 56.556393 72.20555 
L 56.896502 71.901168 
L 57.236627 71.863655 
L 57.576736 72.011041 
L 58.597079 73.484099 
L 59.617421 75.466471 
L 60.297655 76.351083 
L 60.637764 76.569163 
L 60.977873 76.654577 
L 61.317998 76.556331 
L 61.658107 76.253249 
L 62.338341 74.853661 
L 63.018559 72.728933 
L 65.739479 62.216351 
L 66.419712 60.940848 
L 66.759821 60.725496 
L 67.099931 60.809625 
L 67.440055 61.184449 
L 67.780164 61.74647 
L 68.460398 63.600807 
L 69.480741 67.406793 
L 72.201645 78.096738 
L 74.242331 84.353025 
L 76.623141 91.786935 
L 77.983593 96.573955 
L 80.704512 107.308042 
L 86.826569 131.290314 
L 89.207364 139.538617 
L 91.588175 147.137986 
L 94.309079 155.343534 
L 97.710232 164.032129 
L 99.410793 167.534264 
L 100.77126 169.935141 
L 101.791603 171.456181 
L 103.152055 173.123464 
L 104.172398 174.074076 
L 104.852632 174.668986 
L 106.893318 175.63189 
L 108.253769 175.795208 
L 109.954346 175.606425 
L 110.974689 175.188981 
L 112.335141 174.436773 
L 113.355484 173.641612 
L 114.715936 172.321387 
L 116.416512 170.199569 
L 117.776964 168.238158 
L 120.157775 164.227551 
L 121.858336 160.970802 
L 124.239146 155.801195 
L 127.640284 147.470539 
L 132.401889 134.657015 
L 136.48326 123.215869 
L 139.204164 115.741814 
L 142.605318 106.659972 
L 146.686689 96.362553 
L 149.747718 89.286939 
L 152.128497 84.22791 
L 155.869775 77.165159 
L 157.570336 74.432015 
L 159.270897 71.893031 
L 161.651707 68.886926 
L 164.372611 66.201048 
L 165.733079 65.120816 
L 167.43364 64.028323 
L 169.474325 63.059533 
L 171.515011 62.510788 
L 172.875479 62.349429 
L 175.256289 62.596647 
L 177.296975 63.317537 
L 179.33766 64.499663 
L 180.698128 65.641946 
L 181.718471 66.645662 
L 183.078907 68.172349 
L 185.119593 70.956282 
L 187.160279 74.248164 
L 189.541089 78.756037 
L 191.921899 83.817858 
L 194.982928 90.99351 
L 197.023614 96.032617 
L 201.785203 108.628783 
L 210.288071 132.431804 
L 220.491499 162.116868 
L 227.293775 181.767266 
L 234.436175 201.19891 
L 240.218107 215.321436 
L 244.299479 224.213368 
L 249.061099 233.269795 
L 250.76166 236.147335 
L 252.122128 238.351054 
L 253.482564 240.412642 
L 255.863375 243.681838 
L 257.90406 246.236711 
L 260.624964 249.312968 
L 262.325556 251.050545 
L 263.685993 252.320094 
L 265.726679 254.205368 
L 268.787707 256.69031 
L 272.18886 259.177847 
L 273.549328 260.058739 
L 274.569671 260.779124 
L 281.031821 264.448875 
L 282.392289 265.106752 
L 288.174221 267.497516 
L 292.255593 268.866629 
L 293.956185 269.330742 
L 294.976528 269.651671 
L 295.316621 269.676725 
L 295.996871 269.853536 
L 297.357307 270.241568 
L 307.220642 272.136063 
L 307.90086 272.213604 
L 308.240985 272.356027 
L 309.601421 272.433055 
L 312.322356 272.81814 
L 312.66245 272.909258 
L 313.002575 272.874787 
L 313.342699 272.968663 
L 313.682793 272.903987 
L 314.022918 273.032181 
L 314.363042 272.979592 
L 314.703136 273.112793 
L 315.04326 273.072998 
L 315.723479 273.172786 
L 319.464756 273.644884 
L 320.144975 273.656972 
L 320.485099 273.864211 
L 320.825193 273.740978 
L 321.165318 273.778393 
L 321.505442 273.961355 
L 321.845536 273.973013 
L 322.18566 274.137384 
L 322.525785 273.895878 
L 322.865879 274.078881 
L 323.206003 274.058999 
L 323.886221 274.189342 
L 327.287375 274.387947 
L 327.627499 274.676616 
L 327.967593 274.423332 
L 328.647842 274.654701 
L 328.987936 274.545256 
L 329.32806 274.729128 
L 330.688528 274.703216 
L 331.028621 274.625722 
L 331.368746 274.98057 
L 331.708871 274.776993 
L 332.048964 275.266804 
L 332.389089 274.955248 
L 332.729214 275.061337 
L 334.429775 275.076465 
L 335.109993 274.659139 
L 335.450118 274.704984 
L 335.790242 274.985283 
L 336.47046 274.868507 
L 336.810585 275.154619 
L 337.490803 274.873359 
L 337.830928 275.25358 
L 338.511146 275.3616 
L 338.851271 275.224357 
L 339.191364 275.265073 
L 339.531489 275.58045 
L 339.871614 275.051923 
L 340.551832 275.124305 
L 340.891956 275.722981 
L 341.23205 275.236197 
L 341.572175 275.334023 
L 341.912299 275.18261 
L 342.252393 275.595342 
L 342.932642 275.466764 
L 343.272736 275.35714 
L 343.952985 275.679871 
L 344.293079 276.136225 
L 344.633203 275.489169 
L 344.973328 276.064411 
L 345.653546 275.075721 
L 345.993671 275.680227 
L 346.333764 275.593581 
L 347.013982 276.306683 
L 375.243458 276.964632 
L 379.664954 277.067016 
L 383.406201 277.130646 
L 388.167821 277.174073 
L 397.350907 277.267794 
L 398.711344 277.29501 
L 398.711344 277.29501 
" clip-path="url(#p3430a3aec3)" style="fill: none; stroke: #e13342; stroke-linecap: round"/>
   </g>
   <g id="line2d_30">
    <path d="M 41.591359 131.142104 
L 43.972169 118.710867 
L 44.992512 111.659505 
L 48.053541 87.159513 
L 48.733759 83.316079 
L 49.413993 80.37748 
L 50.434336 77.03086 
L 51.454679 73.818539 
L 52.134912 70.853864 
L 52.815131 67.184652 
L 53.835473 60.004559 
L 55.195941 50.001734 
L 55.876159 46.180569 
L 56.556393 44.027163 
L 56.896502 43.624693 
L 57.236627 43.683793 
L 57.576736 44.130295 
L 57.916845 44.883019 
L 58.597079 47.121268 
L 59.957531 52.467089 
L 60.637764 54.342507 
L 60.977873 54.881084 
L 61.317998 55.10968 
L 61.658107 55.037796 
L 61.998216 54.650918 
L 62.338341 53.942495 
L 63.018559 51.695585 
L 64.038902 47.006447 
L 64.719136 43.745558 
L 65.399369 41.313512 
L 65.739479 40.543404 
L 66.079588 40.193309 
L 66.419712 40.388437 
L 66.759821 40.911645 
L 67.099931 41.991497 
L 67.780164 45.467103 
L 68.460398 50.445302 
L 69.82085 62.776754 
L 71.521427 77.50588 
L 72.541769 84.496239 
L 73.562112 90.390662 
L 75.602798 99.530525 
L 84.785884 137.482267 
L 87.166679 146.367394 
L 89.887598 155.471592 
L 92.268393 162.755412 
L 95.329421 171.104793 
L 96.689889 174.309707 
L 98.39045 177.850369 
L 99.750918 180.279329 
L 100.77126 181.809092 
L 101.791603 183.119951 
L 102.811946 184.230225 
L 104.172398 185.369573 
L 105.192741 185.984619 
L 106.553193 186.517439 
L 107.91366 186.755529 
L 110.634564 186.317727 
L 112.67525 185.250525 
L 114.035718 184.21089 
L 115.396169 182.95128 
L 117.436855 180.526332 
L 119.477541 177.679151 
L 121.178118 174.990768 
L 124.919364 168.058185 
L 127.640284 162.42543 
L 133.082107 150.298067 
L 137.503603 140.135327 
L 142.945427 128.04738 
L 145.326221 122.999946 
L 149.067484 115.643298 
L 151.108154 111.966124 
L 154.169182 106.950492 
L 156.549993 103.514762 
L 158.250554 101.297576 
L 160.971489 98.293803 
L 163.012175 96.395211 
L 165.05286 94.853219 
L 167.43364 93.466732 
L 169.81445 92.478433 
L 171.855136 91.985235 
L 174.235946 91.874395 
L 175.936507 92.078723 
L 177.296975 92.472755 
L 177.977193 92.699416 
L 180.017879 93.75814 
L 181.378346 94.695936 
L 183.419032 96.515759 
L 184.779499 97.955857 
L 187.500403 101.436015 
L 189.200964 103.976776 
L 190.901556 106.782693 
L 195.323021 115.048031 
L 201.785203 128.857475 
L 208.927603 145.212716 
L 228.654242 192.337052 
L 235.116393 206.767466 
L 240.898356 218.310502 
L 243.959385 223.859886 
L 248.38085 230.98845 
L 251.782003 235.737814 
L 256.203499 240.976864 
L 257.563936 242.349229 
L 260.284871 244.941603 
L 265.04646 249.058242 
L 268.107489 251.526105 
L 269.80805 252.838042 
L 272.869079 255.25333 
L 273.889421 256.002552 
L 274.569671 256.581593 
L 278.651042 259.672482 
L 284.09285 263.31203 
L 286.47366 264.640399 
L 290.214907 266.35263 
L 291.23525 266.773106 
L 292.935842 267.381037 
L 296.677089 268.611963 
L 297.357307 268.737382 
L 297.697432 268.941804 
L 299.057899 269.231552 
L 300.078242 269.513924 
L 307.220642 271.032725 
L 307.90086 271.142954 
L 309.941546 271.506853 
L 315.383385 272.306229 
L 316.063603 272.371879 
L 317.424071 272.640469 
L 317.764164 272.529938 
L 318.444414 272.694194 
L 318.784507 272.663987 
L 319.80485 272.890168 
L 320.144975 272.814167 
L 320.485099 272.990685 
L 321.165318 273.019878 
L 321.845536 273.010874 
L 323.546128 273.260802 
L 324.226346 273.258869 
L 324.566471 273.464979 
L 324.906564 273.357856 
L 325.246689 273.458807 
L 325.586814 273.347268 
L 326.607156 273.449155 
L 326.94725 273.641466 
L 327.287375 273.703557 
L 327.967593 273.457975 
L 328.307718 273.512381 
L 328.987936 273.817322 
L 329.32806 273.707208 
L 330.008279 274.020477 
L 330.348403 273.819721 
L 330.688528 273.918469 
L 331.028621 273.816662 
L 331.368746 273.85306 
L 332.048964 274.181611 
L 332.729214 273.785711 
L 333.409432 274.229434 
L 333.749556 273.978271 
L 334.08965 274.204344 
L 334.769899 274.313017 
L 335.790242 274.20085 
L 336.130336 274.333626 
L 336.47046 274.164385 
L 336.810585 274.562679 
L 337.490803 274.015419 
L 337.830928 273.93934 
L 338.171021 274.145373 
L 338.511146 273.996864 
L 338.851271 274.419443 
L 339.191364 274.627279 
L 339.531489 273.984479 
L 340.211707 274.666754 
L 340.551832 274.956654 
L 340.891956 274.516432 
L 341.23205 274.556079 
L 341.912299 274.941644 
L 342.252393 273.905125 
L 342.592518 274.381006 
L 343.272736 274.590525 
L 343.61286 274.352621 
L 343.952985 274.531553 
L 344.293079 274.288956 
L 344.633203 274.568051 
L 344.973328 274.237558 
L 345.313421 274.840735 
L 345.653546 274.059331 
L 345.993671 274.960118 
L 346.333764 274.650234 
L 346.673889 275.061541 
L 348.714544 275.116341 
L 353.476164 275.282927 
L 370.821993 275.491582 
L 376.94405 275.460986 
L 379.324829 275.515017 
L 388.507915 275.712448 
L 398.711344 276.043684 
L 398.711344 276.043684 
" clip-path="url(#p3430a3aec3)" style="fill: none; stroke: #ad1759; stroke-linecap: round"/>
   </g>
   <g id="line2d_31">
    <path d="M 41.761421 127.662453 
L 43.291936 119.585534 
L 44.312279 112.990571 
L 45.332621 104.627907 
L 47.883479 81.632903 
L 48.903821 75.358597 
L 49.924164 71.297288 
L 51.454679 66.29425 
L 52.475021 61.108678 
L 53.495364 53.478816 
L 55.53605 36.378727 
L 56.046221 33.487252 
L 56.556393 31.834784 
L 57.066564 31.415739 
L 57.576736 32.151713 
L 58.086907 33.855113 
L 59.10725 38.744963 
L 60.127593 43.675244 
L 60.637764 45.561971 
L 61.147936 46.631623 
L 61.658107 46.922539 
L 62.168279 46.35438 
L 62.67845 44.929493 
L 63.188621 42.90558 
L 65.229307 33.323926 
L 65.739479 32.242504 
L 66.24965 32.217411 
L 66.759821 33.447345 
L 67.269993 36.119597 
L 67.780164 39.918159 
L 68.800507 50.279343 
L 71.351364 79.524083 
L 72.371707 88.779307 
L 73.39205 96.197973 
L 74.412393 102.135936 
L 75.942907 109.518439 
L 79.003936 122.569211 
L 84.615821 145.548758 
L 87.166679 154.815576 
L 89.207364 161.496746 
L 92.268393 170.475622 
L 94.81925 177.159544 
L 96.859936 181.751111 
L 98.39045 184.684483 
L 99.920964 187.18214 
L 101.96165 189.725501 
L 103.492164 191.182579 
L 104.512507 191.867004 
L 105.53285 192.344253 
L 106.553193 192.671959 
L 108.083707 192.858467 
L 109.614221 192.652949 
L 111.144736 192.146523 
L 112.67525 191.46543 
L 114.205764 190.456852 
L 115.736279 189.159 
L 117.776964 186.983538 
L 119.81765 184.427915 
L 121.858336 181.520096 
L 123.899021 178.247969 
L 126.449879 173.790298 
L 129.000736 169.190832 
L 136.143136 155.538774 
L 141.24485 145.833543 
L 144.81605 139.335399 
L 148.38725 133.341112 
L 151.95845 127.961554 
L 155.52965 123.31697 
L 157.060164 121.560578 
L 159.611021 118.981543 
L 161.651707 117.18518 
L 163.182221 116.042738 
L 166.24325 114.198314 
L 168.794107 113.154437 
L 170.324621 112.680035 
L 172.365307 112.276946 
L 174.405993 112.214245 
L 176.95685 112.541262 
L 178.997536 113.141113 
L 181.038221 114.116199 
L 184.09925 116.33459 
L 185.629764 117.74563 
L 188.180621 120.553657 
L 189.711136 122.514172 
L 192.261993 126.139939 
L 195.833193 131.818201 
L 198.38405 136.210793 
L 203.485764 145.77963 
L 208.077307 154.707512 
L 211.648507 161.844184 
L 220.321421 179.637009 
L 226.95365 193.311115 
L 235.116393 209.280001 
L 239.707936 217.47899 
L 245.829993 227.138544 
L 249.401193 232.027299 
L 253.482564 236.871258 
L 258.584279 241.787224 
L 260.624964 243.488153 
L 264.196164 246.317599 
L 268.787707 249.886253 
L 270.828393 251.503229 
L 274.909764 254.747163 
L 280.011479 258.932836 
L 281.541993 260.010386 
L 283.582679 261.485382 
L 286.643707 263.387404 
L 288.174221 264.169157 
L 289.704736 264.962841 
L 291.745421 265.795641 
L 293.786107 266.651735 
L 294.80645 266.901673 
L 296.336964 267.496849 
L 297.867479 267.974062 
L 298.37765 268.062986 
L 299.397993 268.399438 
L 300.928507 268.741134 
L 301.94885 269.020024 
L 302.969193 269.232143 
L 303.989536 269.493477 
L 310.111593 270.630058 
L 314.192964 271.295608 
L 314.703136 271.42283 
L 315.723479 271.526485 
L 316.743821 271.568799 
L 319.294679 271.93253 
L 321.845536 272.234447 
L 323.886221 272.465181 
L 324.906564 272.665672 
L 325.926907 272.619319 
L 326.437079 272.803737 
L 327.457421 272.713639 
L 328.477764 273.064027 
L 329.498107 272.973059 
L 333.579479 273.099327 
L 335.109993 273.731789 
L 335.620164 273.599506 
L 336.130336 273.243773 
L 336.640507 273.604347 
L 337.150679 272.881111 
L 337.66085 273.447581 
L 338.171021 273.452657 
L 338.681193 273.604724 
L 339.191364 273.528068 
L 339.701536 273.18904 
L 340.211707 273.787365 
L 340.721879 273.912506 
L 341.23205 274.270127 
L 341.742221 273.551371 
L 342.252393 273.792419 
L 342.762564 273.832131 
L 343.782907 273.723813 
L 344.293079 274.109322 
L 345.313421 274.352636 
L 345.823593 274.648241 
L 346.333764 274.033942 
L 346.843936 274.073033 
L 347.354107 274.78194 
L 351.435479 274.950421 
L 366.740621 275.405978 
L 374.393193 275.583546 
L 377.964393 275.667169 
L 382.045764 275.788708 
L 389.188164 275.829079 
L 395.310221 275.90959 
L 398.881421 275.952754 
L 398.881421 275.952754 
" clip-path="url(#p3430a3aec3)" style="fill: none; stroke: #701f57; stroke-linecap: round"/>
   </g>
   <g id="line2d_32">
    <path d="M 41.251234 188.281818 
L 43.972138 170.46168 
L 44.992481 160.355891 
L 46.352949 143.230209 
L 47.373292 130.311326 
L 48.393634 120.337163 
L 49.073853 115.847927 
L 49.754086 112.94654 
L 51.454663 107.093468 
L 52.134881 102.979801 
L 52.815115 97.04087 
L 53.495349 89.347878 
L 55.536034 63.316791 
L 56.216253 58.164211 
L 56.556377 56.737801 
L 56.896486 56.339058 
L 57.236595 56.697719 
L 57.57672 57.875341 
L 58.256938 62.051042 
L 60.637749 81.757225 
L 61.317967 84.436282 
L 61.658092 84.940298 
L 61.998201 84.834993 
L 62.33831 84.168207 
L 63.018544 81.196378 
L 64.038886 74.491416 
L 64.71912 70.00421 
L 65.399338 67.171456 
L 65.739463 66.683555 
L 66.079572 67.057966 
L 66.419681 68.345207 
L 66.759806 70.544216 
L 67.440024 77.831597 
L 68.120258 88.405023 
L 69.48071 114.984125 
L 70.841177 141.996263 
L 71.86152 158.793009 
L 72.881863 171.767876 
L 73.902206 181.471774 
L 74.922549 188.492713 
L 75.942892 193.93111 
L 77.303344 199.669789 
L 78.663795 204.446824 
L 80.704481 210.912372 
L 83.76551 219.766811 
L 86.826554 227.509635 
L 88.86724 232.16259 
L 90.907925 236.106039 
L 92.608486 239.0325 
L 94.649172 242.112738 
L 96.00964 243.823164 
L 97.029982 244.985989 
L 98.730544 246.509688 
L 99.750886 247.297202 
L 102.131697 248.444417 
L 103.15204 248.765448 
L 105.872944 249.048931 
L 109.614206 248.479378 
L 110.974658 248.002666 
L 112.675234 247.289364 
L 113.695577 246.735665 
L 115.056029 245.92717 
L 117.096715 244.443553 
L 120.157744 241.879475 
L 122.538554 239.575662 
L 123.899006 238.10961 
L 126.960034 234.790719 
L 135.803011 224.570605 
L 146.346549 211.892522 
L 152.128497 205.824507 
L 155.529619 202.720425 
L 159.61099 199.516503 
L 161.991801 197.870911 
L 166.073172 195.571515 
L 166.75339 195.287071 
L 167.773733 194.89595 
L 169.814419 194.111431 
L 171.855105 193.506441 
L 174.57604 192.959013 
L 178.657411 192.802476 
L 179.677754 192.94902 
L 181.378315 193.175594 
L 185.119593 194.307789 
L 187.500372 195.391122 
L 192.261993 198.321869 
L 197.363707 202.304314 
L 198.724144 203.54106 
L 204.165982 209.064014 
L 206.206668 211.308529 
L 208.247354 213.594958 
L 209.267697 214.83814 
L 215.389754 221.903864 
L 225.253058 233.412215 
L 238.177421 247.75949 
L 240.218107 249.835125 
L 244.639572 254.05324 
L 247.020382 256.111739 
L 249.401193 258.056584 
L 255.183125 262.067638 
L 256.543593 262.830537 
L 257.563936 263.417029 
L 260.965058 265.16798 
L 263.005744 266.145953 
L 264.026086 266.661489 
L 271.508611 270.260311 
L 272.869079 270.978208 
L 275.589982 272.467127 
L 283.412601 276.826328 
L 285.793411 277.916611 
L 286.473629 278.277886 
L 287.153879 278.502456 
L 290.214907 279.597507 
L 291.23525 279.87068 
L 293.956154 280.622082 
L 300.758429 282.066431 
L 302.459021 282.305869 
L 310.28164 283.273656 
L 310.961858 283.291779 
L 311.642107 283.30169 
L 312.322325 283.397889 
L 312.66245 283.506341 
L 313.002544 283.390861 
L 315.043229 283.656357 
L 315.723479 283.586708 
L 316.063572 283.691283 
L 316.743821 283.689016 
L 317.083915 283.77126 
L 317.764164 283.703439 
L 318.104258 283.809835 
L 318.444382 283.739198 
L 318.784507 283.812321 
L 319.464725 283.801947 
L 320.144944 283.861995 
L 320.825193 283.872741 
L 324.226315 284.05889 
L 324.56644 284.215844 
L 325.586782 284.186993 
L 326.607125 284.134694 
L 326.94725 284.02236 
L 327.967593 284.280163 
L 328.307686 284.1739 
L 328.647811 284.312801 
L 328.987936 284.015422 
L 329.328029 284.195464 
L 329.668154 284.185747 
L 330.348372 284.367209 
L 330.688497 284.177572 
L 332.729182 284.282898 
L 333.069307 284.177131 
L 333.409401 284.464842 
L 333.749525 284.142495 
L 334.08965 284.523447 
L 334.769868 284.318581 
L 335.109993 284.392997 
L 335.450086 284.254569 
L 335.790211 284.828452 
L 336.130336 284.072943 
L 336.470429 284.089306 
L 337.150679 284.462654 
L 337.490772 284.840787 
L 337.830897 284.263321 
L 338.171021 284.411801 
L 338.85124 284.383245 
L 339.531458 284.482572 
L 339.871582 285.033447 
L 340.211707 284.06732 
L 340.551801 285.02295 
L 340.891925 284.628199 
L 341.23205 284.468634 
L 341.572144 284.517522 
L 341.912268 284.043965 
L 342.252393 284.600007 
L 342.592486 284.099097 
L 343.272736 284.567992 
L 343.612829 284.564436 
L 343.952954 284.439612 
L 344.293079 284.775695 
L 344.633172 284.891967 
L 344.973297 284.490893 
L 345.313421 284.721053 
L 345.653515 284.617872 
L 345.99364 285.256193 
L 346.333764 284.256021 
L 347.013982 284.60404 
L 347.354107 286.884642 
L 350.075011 286.887418 
L 353.816289 286.859073 
L 355.51685 286.84855 
L 363.679593 286.733838 
L 365.04006 286.725765 
L 375.583582 286.615555 
L 377.624268 286.835528 
L 379.32486 286.951154 
L 381.025421 286.714151 
L 384.426575 286.347469 
L 398.711375 285.906463 
L 398.711375 285.906463 
" clip-path="url(#p3430a3aec3)" style="fill: none; stroke: #35193e; stroke-linecap: round"/>
   </g>
   <g id="line2d_33"/>
   <g id="line2d_34"/>
   <g id="line2d_35"/>
   <g id="line2d_36"/>
   <g id="line2d_37"/>
   <g id="line2d_38"/>
   <g id="patch_3">
    <path d="M 41.25125 277.248797 
L 41.25125 11.136797 
" style="fill: none; stroke: #262626; stroke-width: 1.25; stroke-linejoin: miter; stroke-linecap: square"/>
   </g>
   <g id="patch_4">
    <path d="M 41.25125 277.248797 
L 398.37125 277.248797 
" style="fill: none; stroke: #262626; stroke-width: 1.25; stroke-linejoin: miter; stroke-linecap: square"/>
   </g>
   <g id="legend_1">
    <g id="line2d_39">
     <path d="M 252.91925 45.415809 
L 258.91925 45.415809 
L 264.91925 45.415809 
" style="fill: none; stroke: #f6b48f; stroke-width: 1.5; stroke-linecap: round"/>
    </g>
    <g id="text_17">
     <!-- t=0hrs FeCl3 0uM_Abs -->
     <g style="fill: #262626" transform="translate(269.71925 47.515809) scale(0.06 -0.06)">
      <defs>
       <path id="ArialMT-3d" d="M 3381 2694 
L 356 2694 
L 356 3219 
L 3381 3219 
L 3381 2694 
z
M 3381 1303 
L 356 1303 
L 356 1828 
L 3381 1828 
L 3381 1303 
z
" transform="scale(0.015625)"/>
       <path id="ArialMT-46" d="M 525 0 
L 525 4581 
L 3616 4581 
L 3616 4041 
L 1131 4041 
L 1131 2622 
L 3281 2622 
L 3281 2081 
L 1131 2081 
L 1131 0 
L 525 0 
z
" transform="scale(0.015625)"/>
       <path id="ArialMT-43" d="M 3763 1606 
L 4369 1453 
Q 4178 706 3683 314 
Q 3188 -78 2472 -78 
Q 1731 -78 1267 223 
Q 803 525 561 1097 
Q 319 1669 319 2325 
Q 319 3041 592 3573 
Q 866 4106 1370 4382 
Q 1875 4659 2481 4659 
Q 3169 4659 3637 4309 
Q 4106 3959 4291 3325 
L 3694 3184 
Q 3534 3684 3231 3912 
Q 2928 4141 2469 4141 
Q 1941 4141 1586 3887 
Q 1231 3634 1087 3207 
Q 944 2781 944 2328 
Q 944 1744 1114 1308 
Q 1284 872 1643 656 
Q 2003 441 2422 441 
Q 2931 441 3284 734 
Q 3638 1028 3763 1606 
z
" transform="scale(0.015625)"/>
       <path id="ArialMT-4d" d="M 475 0 
L 475 4581 
L 1388 4581 
L 2472 1338 
Q 2622 884 2691 659 
Q 2769 909 2934 1394 
L 4031 4581 
L 4847 4581 
L 4847 0 
L 4263 0 
L 4263 3834 
L 2931 0 
L 2384 0 
L 1059 3900 
L 1059 0 
L 475 0 
z
" transform="scale(0.015625)"/>
       <path id="ArialMT-5f" d="M -97 -1272 
L -97 -866 
L 3631 -866 
L 3631 -1272 
L -97 -1272 
z
" transform="scale(0.015625)"/>
      </defs>
      <use xlink:href="#ArialMT-74"/>
      <use xlink:href="#ArialMT-3d" x="27.783203"/>
      <use xlink:href="#ArialMT-30" x="86.181641"/>
      <use xlink:href="#ArialMT-68" x="141.796875"/>
      <use xlink:href="#ArialMT-72" x="197.412109"/>
      <use xlink:href="#ArialMT-73" x="230.712891"/>
      <use xlink:href="#ArialMT-20" x="280.712891"/>
      <use xlink:href="#ArialMT-46" x="308.496094"/>
      <use xlink:href="#ArialMT-65" x="369.580078"/>
      <use xlink:href="#ArialMT-43" x="425.195312"/>
      <use xlink:href="#ArialMT-6c" x="497.412109"/>
      <use xlink:href="#ArialMT-33" x="519.628906"/>
      <use xlink:href="#ArialMT-20" x="575.244141"/>
      <use xlink:href="#ArialMT-30" x="603.027344"/>
      <use xlink:href="#ArialMT-75" x="658.642578"/>
      <use xlink:href="#ArialMT-4d" x="714.257812"/>
      <use xlink:href="#ArialMT-5f" x="797.558594"/>
      <use xlink:href="#ArialMT-41" x="853.173828"/>
      <use xlink:href="#ArialMT-62" x="919.873047"/>
      <use xlink:href="#ArialMT-73" x="975.488281"/>
     </g>
    </g>
    <g id="line2d_40">
     <path d="M 252.91925 53.976122 
L 258.91925 53.976122 
L 264.91925 53.976122 
" style="fill: none; stroke: #f37651; stroke-width: 1.5; stroke-linecap: round"/>
    </g>
    <g id="text_18">
     <!-- t=0hrs FeCl3 100uM_Abs -->
     <g style="fill: #262626" transform="translate(269.71925 56.076122) scale(0.06 -0.06)">
      <use xlink:href="#ArialMT-74"/>
      <use xlink:href="#ArialMT-3d" x="27.783203"/>
      <use xlink:href="#ArialMT-30" x="86.181641"/>
      <use xlink:href="#ArialMT-68" x="141.796875"/>
      <use xlink:href="#ArialMT-72" x="197.412109"/>
      <use xlink:href="#ArialMT-73" x="230.712891"/>
      <use xlink:href="#ArialMT-20" x="280.712891"/>
      <use xlink:href="#ArialMT-46" x="308.496094"/>
      <use xlink:href="#ArialMT-65" x="369.580078"/>
      <use xlink:href="#ArialMT-43" x="425.195312"/>
      <use xlink:href="#ArialMT-6c" x="497.412109"/>
      <use xlink:href="#ArialMT-33" x="519.628906"/>
      <use xlink:href="#ArialMT-20" x="575.244141"/>
      <use xlink:href="#ArialMT-31" x="603.027344"/>
      <use xlink:href="#ArialMT-30" x="658.642578"/>
      <use xlink:href="#ArialMT-30" x="714.257812"/>
      <use xlink:href="#ArialMT-75" x="769.873047"/>
      <use xlink:href="#ArialMT-4d" x="825.488281"/>
      <use xlink:href="#ArialMT-5f" x="908.789062"/>
      <use xlink:href="#ArialMT-41" x="964.404297"/>
      <use xlink:href="#ArialMT-62" x="1031.103516"/>
      <use xlink:href="#ArialMT-73" x="1086.71875"/>
     </g>
    </g>
    <g id="line2d_41">
     <path d="M 252.91925 62.536434 
L 258.91925 62.536434 
L 264.91925 62.536434 
" style="fill: none; stroke: #e13342; stroke-width: 1.5; stroke-linecap: round"/>
    </g>
    <g id="text_19">
     <!-- t=1hrs FeCl3 100uM_Abs -->
     <g style="fill: #262626" transform="translate(269.71925 64.636434) scale(0.06 -0.06)">
      <use xlink:href="#ArialMT-74"/>
      <use xlink:href="#ArialMT-3d" x="27.783203"/>
      <use xlink:href="#ArialMT-31" x="86.181641"/>
      <use xlink:href="#ArialMT-68" x="141.796875"/>
      <use xlink:href="#ArialMT-72" x="197.412109"/>
      <use xlink:href="#ArialMT-73" x="230.712891"/>
      <use xlink:href="#ArialMT-20" x="280.712891"/>
      <use xlink:href="#ArialMT-46" x="308.496094"/>
      <use xlink:href="#ArialMT-65" x="369.580078"/>
      <use xlink:href="#ArialMT-43" x="425.195312"/>
      <use xlink:href="#ArialMT-6c" x="497.412109"/>
      <use xlink:href="#ArialMT-33" x="519.628906"/>
      <use xlink:href="#ArialMT-20" x="575.244141"/>
      <use xlink:href="#ArialMT-31" x="603.027344"/>
      <use xlink:href="#ArialMT-30" x="658.642578"/>
      <use xlink:href="#ArialMT-30" x="714.257812"/>
      <use xlink:href="#ArialMT-75" x="769.873047"/>
      <use xlink:href="#ArialMT-4d" x="825.488281"/>
      <use xlink:href="#ArialMT-5f" x="908.789062"/>
      <use xlink:href="#ArialMT-41" x="964.404297"/>
      <use xlink:href="#ArialMT-62" x="1031.103516"/>
      <use xlink:href="#ArialMT-73" x="1086.71875"/>
     </g>
    </g>
    <g id="line2d_42">
     <path d="M 252.91925 71.096747 
L 258.91925 71.096747 
L 264.91925 71.096747 
" style="fill: none; stroke: #ad1759; stroke-width: 1.5; stroke-linecap: round"/>
    </g>
    <g id="text_20">
     <!-- t=3hrs FeCl3 100uM_Abs -->
     <g style="fill: #262626" transform="translate(269.71925 73.196747) scale(0.06 -0.06)">
      <use xlink:href="#ArialMT-74"/>
      <use xlink:href="#ArialMT-3d" x="27.783203"/>
      <use xlink:href="#ArialMT-33" x="86.181641"/>
      <use xlink:href="#ArialMT-68" x="141.796875"/>
      <use xlink:href="#ArialMT-72" x="197.412109"/>
      <use xlink:href="#ArialMT-73" x="230.712891"/>
      <use xlink:href="#ArialMT-20" x="280.712891"/>
      <use xlink:href="#ArialMT-46" x="308.496094"/>
      <use xlink:href="#ArialMT-65" x="369.580078"/>
      <use xlink:href="#ArialMT-43" x="425.195312"/>
      <use xlink:href="#ArialMT-6c" x="497.412109"/>
      <use xlink:href="#ArialMT-33" x="519.628906"/>
      <use xlink:href="#ArialMT-20" x="575.244141"/>
      <use xlink:href="#ArialMT-31" x="603.027344"/>
      <use xlink:href="#ArialMT-30" x="658.642578"/>
      <use xlink:href="#ArialMT-30" x="714.257812"/>
      <use xlink:href="#ArialMT-75" x="769.873047"/>
      <use xlink:href="#ArialMT-4d" x="825.488281"/>
      <use xlink:href="#ArialMT-5f" x="908.789062"/>
      <use xlink:href="#ArialMT-41" x="964.404297"/>
      <use xlink:href="#ArialMT-62" x="1031.103516"/>
      <use xlink:href="#ArialMT-73" x="1086.71875"/>
     </g>
    </g>
    <g id="line2d_43">
     <path d="M 252.91925 79.657059 
L 258.91925 79.657059 
L 264.91925 79.657059 
" style="fill: none; stroke: #701f57; stroke-width: 1.5; stroke-linecap: round"/>
    </g>
    <g id="text_21">
     <!-- t=5hrs FeCl3 100uM_Abs -->
     <g style="fill: #262626" transform="translate(269.71925 81.757059) scale(0.06 -0.06)">
      <use xlink:href="#ArialMT-74"/>
      <use xlink:href="#ArialMT-3d" x="27.783203"/>
      <use xlink:href="#ArialMT-35" x="86.181641"/>
      <use xlink:href="#ArialMT-68" x="141.796875"/>
      <use xlink:href="#ArialMT-72" x="197.412109"/>
      <use xlink:href="#ArialMT-73" x="230.712891"/>
      <use xlink:href="#ArialMT-20" x="280.712891"/>
      <use xlink:href="#ArialMT-46" x="308.496094"/>
      <use xlink:href="#ArialMT-65" x="369.580078"/>
      <use xlink:href="#ArialMT-43" x="425.195312"/>
      <use xlink:href="#ArialMT-6c" x="497.412109"/>
      <use xlink:href="#ArialMT-33" x="519.628906"/>
      <use xlink:href="#ArialMT-20" x="575.244141"/>
      <use xlink:href="#ArialMT-31" x="603.027344"/>
      <use xlink:href="#ArialMT-30" x="658.642578"/>
      <use xlink:href="#ArialMT-30" x="714.257812"/>
      <use xlink:href="#ArialMT-75" x="769.873047"/>
      <use xlink:href="#ArialMT-4d" x="825.488281"/>
      <use xlink:href="#ArialMT-5f" x="908.789062"/>
      <use xlink:href="#ArialMT-41" x="964.404297"/>
      <use xlink:href="#ArialMT-62" x="1031.103516"/>
      <use xlink:href="#ArialMT-73" x="1086.71875"/>
     </g>
    </g>
    <g id="line2d_44">
     <path d="M 252.91925 88.217372 
L 258.91925 88.217372 
L 264.91925 88.217372 
" style="fill: none; stroke: #35193e; stroke-width: 1.5; stroke-linecap: round"/>
    </g>
    <g id="text_22">
     <!-- imine t=24hrs FeCl3 100uM_Abs -->
     <g style="fill: #262626" transform="translate(269.71925 90.317372) scale(0.06 -0.06)">
      <defs>
       <path id="ArialMT-69" d="M 425 3934 
L 425 4581 
L 988 4581 
L 988 3934 
L 425 3934 
z
M 425 0 
L 425 3319 
L 988 3319 
L 988 0 
L 425 0 
z
" transform="scale(0.015625)"/>
      </defs>
      <use xlink:href="#ArialMT-69"/>
      <use xlink:href="#ArialMT-6d" x="22.216797"/>
      <use xlink:href="#ArialMT-69" x="105.517578"/>
      <use xlink:href="#ArialMT-6e" x="127.734375"/>
      <use xlink:href="#ArialMT-65" x="183.349609"/>
      <use xlink:href="#ArialMT-20" x="238.964844"/>
      <use xlink:href="#ArialMT-74" x="266.748047"/>
      <use xlink:href="#ArialMT-3d" x="294.53125"/>
      <use xlink:href="#ArialMT-32" x="352.929688"/>
      <use xlink:href="#ArialMT-34" x="408.544922"/>
      <use xlink:href="#ArialMT-68" x="464.160156"/>
      <use xlink:href="#ArialMT-72" x="519.775391"/>
      <use xlink:href="#ArialMT-73" x="553.076172"/>
      <use xlink:href="#ArialMT-20" x="603.076172"/>
      <use xlink:href="#ArialMT-46" x="630.859375"/>
      <use xlink:href="#ArialMT-65" x="691.943359"/>
      <use xlink:href="#ArialMT-43" x="747.558594"/>
      <use xlink:href="#ArialMT-6c" x="819.775391"/>
      <use xlink:href="#ArialMT-33" x="841.992188"/>
      <use xlink:href="#ArialMT-20" x="897.607422"/>
      <use xlink:href="#ArialMT-31" x="925.390625"/>
      <use xlink:href="#ArialMT-30" x="981.005859"/>
      <use xlink:href="#ArialMT-30" x="1036.621094"/>
      <use xlink:href="#ArialMT-75" x="1092.236328"/>
      <use xlink:href="#ArialMT-4d" x="1147.851562"/>
      <use xlink:href="#ArialMT-5f" x="1231.152344"/>
      <use xlink:href="#ArialMT-41" x="1286.767578"/>
      <use xlink:href="#ArialMT-62" x="1353.466797"/>
      <use xlink:href="#ArialMT-73" x="1409.082031"/>
     </g>
    </g>
   </g>
  </g>
 </g>
 <defs>
  <clipPath id="p3430a3aec3">
   <rect x="41.25125" y="11.136797" width="357.12" height="266.112"/>
  </clipPath>
 </defs>
</svg>
