<?xml version="1.0" encoding="utf-8" standalone="no"?>
<!DOCTYPE svg PUBLIC "-//W3C//DTD SVG 1.1//EN"
  "http://www.w3.org/Graphics/SVG/1.1/DTD/svg11.dtd">
<svg xmlns:xlink="http://www.w3.org/1999/xlink" width="417.805313pt" height="313.269891pt" viewBox="0 0 417.805313 313.269891" xmlns="http://www.w3.org/2000/svg" version="1.1">
 <metadata>
  <rdf:RDF xmlns:dc="http://purl.org/dc/elements/1.1/" xmlns:cc="http://creativecommons.org/ns#" xmlns:rdf="http://www.w3.org/1999/02/22-rdf-syntax-ns#">
   <cc:Work>
    <dc:type rdf:resource="http://purl.org/dc/dcmitype/StillImage"/>
    <dc:date>2024-11-04T14:35:01.866262</dc:date>
    <dc:format>image/svg+xml</dc:format>
    <dc:creator>
     <cc:Agent>
      <dc:title>Matplotlib v3.7.1, https://matplotlib.org/</dc:title>
     </cc:Agent>
    </dc:creator>
   </cc:Work>
  </rdf:RDF>
 </metadata>
 <defs>
  <style type="text/css">*{stroke-linejoin: round; stroke-linecap: butt}</style>
 </defs>
 <g id="figure_1">
  <g id="patch_1">
   <path d="M 0 313.269891 
L 417.805313 313.269891 
L 417.805313 0 
L 0 0 
z
" style="fill: #ffffff"/>
  </g>
  <g id="axes_1">
   <g id="patch_2">
    <path d="M 41.25125 277.248797 
L 398.37125 277.248797 
L 398.37125 11.136797 
L 41.25125 11.136797 
z
" style="fill: #ffffff"/>
   </g>
   <g id="matplotlib.axis_1">
    <g id="xtick_1">
     <g id="line2d_1">
      <defs>
       <path id="ma9318fd5cb" d="M 0 0 
L 0 -6 
" style="stroke: #262626; stroke-width: 1.25"/>
      </defs>
      <g>
       <use xlink:href="#ma9318fd5cb" x="73.716705" y="277.248797" style="fill: #262626; stroke: #262626; stroke-width: 1.25"/>
      </g>
     </g>
     <g id="text_1">
      <!-- 400 -->
      <g style="fill: #262626" transform="translate(64.541158 288.622391) scale(0.11 -0.11)">
       <defs>
        <path id="ArialMT-34" d="M 2069 0 
L 2069 1097 
L 81 1097 
L 81 1613 
L 2172 4581 
L 2631 4581 
L 2631 1613 
L 3250 1613 
L 3250 1097 
L 2631 1097 
L 2631 0 
L 2069 0 
z
M 2069 1613 
L 2069 3678 
L 634 1613 
L 2069 1613 
z
" transform="scale(0.015625)"/>
        <path id="ArialMT-30" d="M 266 2259 
Q 266 3072 433 3567 
Q 600 4063 929 4331 
Q 1259 4600 1759 4600 
Q 2128 4600 2406 4451 
Q 2684 4303 2865 4023 
Q 3047 3744 3150 3342 
Q 3253 2941 3253 2259 
Q 3253 1453 3087 958 
Q 2922 463 2592 192 
Q 2263 -78 1759 -78 
Q 1097 -78 719 397 
Q 266 969 266 2259 
z
M 844 2259 
Q 844 1131 1108 757 
Q 1372 384 1759 384 
Q 2147 384 2411 759 
Q 2675 1134 2675 2259 
Q 2675 3391 2411 3762 
Q 2147 4134 1753 4134 
Q 1366 4134 1134 3806 
Q 844 3388 844 2259 
z
" transform="scale(0.015625)"/>
       </defs>
       <use xlink:href="#ArialMT-34"/>
       <use xlink:href="#ArialMT-30" x="55.615234"/>
       <use xlink:href="#ArialMT-30" x="111.230469"/>
      </g>
     </g>
    </g>
    <g id="xtick_2">
     <g id="line2d_2">
      <g>
       <use xlink:href="#ma9318fd5cb" x="138.647614" y="277.248797" style="fill: #262626; stroke: #262626; stroke-width: 1.25"/>
      </g>
     </g>
     <g id="text_2">
      <!-- 600 -->
      <g style="fill: #262626" transform="translate(129.472067 288.622391) scale(0.11 -0.11)">
       <defs>
        <path id="ArialMT-36" d="M 3184 3459 
L 2625 3416 
Q 2550 3747 2413 3897 
Q 2184 4138 1850 4138 
Q 1581 4138 1378 3988 
Q 1113 3794 959 3422 
Q 806 3050 800 2363 
Q 1003 2672 1297 2822 
Q 1591 2972 1913 2972 
Q 2475 2972 2870 2558 
Q 3266 2144 3266 1488 
Q 3266 1056 3080 686 
Q 2894 316 2569 119 
Q 2244 -78 1831 -78 
Q 1128 -78 684 439 
Q 241 956 241 2144 
Q 241 3472 731 4075 
Q 1159 4600 1884 4600 
Q 2425 4600 2770 4297 
Q 3116 3994 3184 3459 
z
M 888 1484 
Q 888 1194 1011 928 
Q 1134 663 1356 523 
Q 1578 384 1822 384 
Q 2178 384 2434 671 
Q 2691 959 2691 1453 
Q 2691 1928 2437 2201 
Q 2184 2475 1800 2475 
Q 1419 2475 1153 2201 
Q 888 1928 888 1484 
z
" transform="scale(0.015625)"/>
       </defs>
       <use xlink:href="#ArialMT-36"/>
       <use xlink:href="#ArialMT-30" x="55.615234"/>
       <use xlink:href="#ArialMT-30" x="111.230469"/>
      </g>
     </g>
    </g>
    <g id="xtick_3">
     <g id="line2d_3">
      <g>
       <use xlink:href="#ma9318fd5cb" x="203.578523" y="277.248797" style="fill: #262626; stroke: #262626; stroke-width: 1.25"/>
      </g>
     </g>
     <g id="text_3">
      <!-- 800 -->
      <g style="fill: #262626" transform="translate(194.402976 288.622391) scale(0.11 -0.11)">
       <defs>
        <path id="ArialMT-38" d="M 1131 2484 
Q 781 2613 612 2850 
Q 444 3088 444 3419 
Q 444 3919 803 4259 
Q 1163 4600 1759 4600 
Q 2359 4600 2725 4251 
Q 3091 3903 3091 3403 
Q 3091 3084 2923 2848 
Q 2756 2613 2416 2484 
Q 2838 2347 3058 2040 
Q 3278 1734 3278 1309 
Q 3278 722 2862 322 
Q 2447 -78 1769 -78 
Q 1091 -78 675 323 
Q 259 725 259 1325 
Q 259 1772 486 2073 
Q 713 2375 1131 2484 
z
M 1019 3438 
Q 1019 3113 1228 2906 
Q 1438 2700 1772 2700 
Q 2097 2700 2305 2904 
Q 2513 3109 2513 3406 
Q 2513 3716 2298 3927 
Q 2084 4138 1766 4138 
Q 1444 4138 1231 3931 
Q 1019 3725 1019 3438 
z
M 838 1322 
Q 838 1081 952 856 
Q 1066 631 1291 507 
Q 1516 384 1775 384 
Q 2178 384 2440 643 
Q 2703 903 2703 1303 
Q 2703 1709 2433 1975 
Q 2163 2241 1756 2241 
Q 1359 2241 1098 1978 
Q 838 1716 838 1322 
z
" transform="scale(0.015625)"/>
       </defs>
       <use xlink:href="#ArialMT-38"/>
       <use xlink:href="#ArialMT-30" x="55.615234"/>
       <use xlink:href="#ArialMT-30" x="111.230469"/>
      </g>
     </g>
    </g>
    <g id="xtick_4">
     <g id="line2d_4">
      <g>
       <use xlink:href="#ma9318fd5cb" x="268.509432" y="277.248797" style="fill: #262626; stroke: #262626; stroke-width: 1.25"/>
      </g>
     </g>
     <g id="text_4">
      <!-- 1000 -->
      <g style="fill: #262626" transform="translate(256.275369 288.622391) scale(0.11 -0.11)">
       <defs>
        <path id="ArialMT-31" d="M 2384 0 
L 1822 0 
L 1822 3584 
Q 1619 3391 1289 3197 
Q 959 3003 697 2906 
L 697 3450 
Q 1169 3672 1522 3987 
Q 1875 4303 2022 4600 
L 2384 4600 
L 2384 0 
z
" transform="scale(0.015625)"/>
       </defs>
       <use xlink:href="#ArialMT-31"/>
       <use xlink:href="#ArialMT-30" x="55.615234"/>
       <use xlink:href="#ArialMT-30" x="111.230469"/>
       <use xlink:href="#ArialMT-30" x="166.845703"/>
      </g>
     </g>
    </g>
    <g id="xtick_5">
     <g id="line2d_5">
      <g>
       <use xlink:href="#ma9318fd5cb" x="333.440341" y="277.248797" style="fill: #262626; stroke: #262626; stroke-width: 1.25"/>
      </g>
     </g>
     <g id="text_5">
      <!-- 1200 -->
      <g style="fill: #262626" transform="translate(321.206278 288.622391) scale(0.11 -0.11)">
       <defs>
        <path id="ArialMT-32" d="M 3222 541 
L 3222 0 
L 194 0 
Q 188 203 259 391 
Q 375 700 629 1000 
Q 884 1300 1366 1694 
Q 2113 2306 2375 2664 
Q 2638 3022 2638 3341 
Q 2638 3675 2398 3904 
Q 2159 4134 1775 4134 
Q 1369 4134 1125 3890 
Q 881 3647 878 3216 
L 300 3275 
Q 359 3922 746 4261 
Q 1134 4600 1788 4600 
Q 2447 4600 2831 4234 
Q 3216 3869 3216 3328 
Q 3216 3053 3103 2787 
Q 2991 2522 2730 2228 
Q 2469 1934 1863 1422 
Q 1356 997 1212 845 
Q 1069 694 975 541 
L 3222 541 
z
" transform="scale(0.015625)"/>
       </defs>
       <use xlink:href="#ArialMT-31"/>
       <use xlink:href="#ArialMT-32" x="55.615234"/>
       <use xlink:href="#ArialMT-30" x="111.230469"/>
       <use xlink:href="#ArialMT-30" x="166.845703"/>
      </g>
     </g>
    </g>
    <g id="xtick_6">
     <g id="line2d_6">
      <g>
       <use xlink:href="#ma9318fd5cb" x="398.37125" y="277.248797" style="fill: #262626; stroke: #262626; stroke-width: 1.25"/>
      </g>
     </g>
     <g id="text_6">
      <!-- 1400 -->
      <g style="fill: #262626" transform="translate(386.137188 288.622391) scale(0.11 -0.11)">
       <use xlink:href="#ArialMT-31"/>
       <use xlink:href="#ArialMT-34" x="55.615234"/>
       <use xlink:href="#ArialMT-30" x="111.230469"/>
       <use xlink:href="#ArialMT-30" x="166.845703"/>
      </g>
     </g>
    </g>
    <g id="xtick_7">
     <g id="line2d_7">
      <defs>
       <path id="m7909dbfbaa" d="M 0 0 
L 0 -4 
" style="stroke: #262626"/>
      </defs>
      <g>
       <use xlink:href="#m7909dbfbaa" x="106.182159" y="277.248797" style="fill: #262626; stroke: #262626"/>
      </g>
     </g>
    </g>
    <g id="xtick_8">
     <g id="line2d_8">
      <g>
       <use xlink:href="#m7909dbfbaa" x="171.113068" y="277.248797" style="fill: #262626; stroke: #262626"/>
      </g>
     </g>
    </g>
    <g id="xtick_9">
     <g id="line2d_9">
      <g>
       <use xlink:href="#m7909dbfbaa" x="236.043977" y="277.248797" style="fill: #262626; stroke: #262626"/>
      </g>
     </g>
    </g>
    <g id="xtick_10">
     <g id="line2d_10">
      <g>
       <use xlink:href="#m7909dbfbaa" x="300.974886" y="277.248797" style="fill: #262626; stroke: #262626"/>
      </g>
     </g>
    </g>
    <g id="xtick_11">
     <g id="line2d_11">
      <g>
       <use xlink:href="#m7909dbfbaa" x="365.905795" y="277.248797" style="fill: #262626; stroke: #262626"/>
      </g>
     </g>
    </g>
    <g id="text_7">
     <!-- Wavelength (nm) -->
     <g style="fill: #262626" transform="translate(174.356562 303.544266) scale(0.12 -0.12)">
      <defs>
       <path id="ArialMT-57" d="M 1294 0 
L 78 4581 
L 700 4581 
L 1397 1578 
Q 1509 1106 1591 641 
Q 1766 1375 1797 1488 
L 2669 4581 
L 3400 4581 
L 4056 2263 
Q 4303 1400 4413 641 
Q 4500 1075 4641 1638 
L 5359 4581 
L 5969 4581 
L 4713 0 
L 4128 0 
L 3163 3491 
Q 3041 3928 3019 4028 
Q 2947 3713 2884 3491 
L 1913 0 
L 1294 0 
z
" transform="scale(0.015625)"/>
       <path id="ArialMT-61" d="M 2588 409 
Q 2275 144 1986 34 
Q 1697 -75 1366 -75 
Q 819 -75 525 192 
Q 231 459 231 875 
Q 231 1119 342 1320 
Q 453 1522 633 1644 
Q 813 1766 1038 1828 
Q 1203 1872 1538 1913 
Q 2219 1994 2541 2106 
Q 2544 2222 2544 2253 
Q 2544 2597 2384 2738 
Q 2169 2928 1744 2928 
Q 1347 2928 1158 2789 
Q 969 2650 878 2297 
L 328 2372 
Q 403 2725 575 2942 
Q 747 3159 1072 3276 
Q 1397 3394 1825 3394 
Q 2250 3394 2515 3294 
Q 2781 3194 2906 3042 
Q 3031 2891 3081 2659 
Q 3109 2516 3109 2141 
L 3109 1391 
Q 3109 606 3145 398 
Q 3181 191 3288 0 
L 2700 0 
Q 2613 175 2588 409 
z
M 2541 1666 
Q 2234 1541 1622 1453 
Q 1275 1403 1131 1340 
Q 988 1278 909 1158 
Q 831 1038 831 891 
Q 831 666 1001 516 
Q 1172 366 1500 366 
Q 1825 366 2078 508 
Q 2331 650 2450 897 
Q 2541 1088 2541 1459 
L 2541 1666 
z
" transform="scale(0.015625)"/>
       <path id="ArialMT-76" d="M 1344 0 
L 81 3319 
L 675 3319 
L 1388 1331 
Q 1503 1009 1600 663 
Q 1675 925 1809 1294 
L 2547 3319 
L 3125 3319 
L 1869 0 
L 1344 0 
z
" transform="scale(0.015625)"/>
       <path id="ArialMT-65" d="M 2694 1069 
L 3275 997 
Q 3138 488 2766 206 
Q 2394 -75 1816 -75 
Q 1088 -75 661 373 
Q 234 822 234 1631 
Q 234 2469 665 2931 
Q 1097 3394 1784 3394 
Q 2450 3394 2872 2941 
Q 3294 2488 3294 1666 
Q 3294 1616 3291 1516 
L 816 1516 
Q 847 969 1125 678 
Q 1403 388 1819 388 
Q 2128 388 2347 550 
Q 2566 713 2694 1069 
z
M 847 1978 
L 2700 1978 
Q 2663 2397 2488 2606 
Q 2219 2931 1791 2931 
Q 1403 2931 1139 2672 
Q 875 2413 847 1978 
z
" transform="scale(0.015625)"/>
       <path id="ArialMT-6c" d="M 409 0 
L 409 4581 
L 972 4581 
L 972 0 
L 409 0 
z
" transform="scale(0.015625)"/>
       <path id="ArialMT-6e" d="M 422 0 
L 422 3319 
L 928 3319 
L 928 2847 
Q 1294 3394 1984 3394 
Q 2284 3394 2536 3286 
Q 2788 3178 2913 3003 
Q 3038 2828 3088 2588 
Q 3119 2431 3119 2041 
L 3119 0 
L 2556 0 
L 2556 2019 
Q 2556 2363 2490 2533 
Q 2425 2703 2258 2804 
Q 2091 2906 1866 2906 
Q 1506 2906 1245 2678 
Q 984 2450 984 1813 
L 984 0 
L 422 0 
z
" transform="scale(0.015625)"/>
       <path id="ArialMT-67" d="M 319 -275 
L 866 -356 
Q 900 -609 1056 -725 
Q 1266 -881 1628 -881 
Q 2019 -881 2231 -725 
Q 2444 -569 2519 -288 
Q 2563 -116 2559 434 
Q 2191 0 1641 0 
Q 956 0 581 494 
Q 206 988 206 1678 
Q 206 2153 378 2554 
Q 550 2956 876 3175 
Q 1203 3394 1644 3394 
Q 2231 3394 2613 2919 
L 2613 3319 
L 3131 3319 
L 3131 450 
Q 3131 -325 2973 -648 
Q 2816 -972 2473 -1159 
Q 2131 -1347 1631 -1347 
Q 1038 -1347 672 -1080 
Q 306 -813 319 -275 
z
M 784 1719 
Q 784 1066 1043 766 
Q 1303 466 1694 466 
Q 2081 466 2343 764 
Q 2606 1063 2606 1700 
Q 2606 2309 2336 2618 
Q 2066 2928 1684 2928 
Q 1309 2928 1046 2623 
Q 784 2319 784 1719 
z
" transform="scale(0.015625)"/>
       <path id="ArialMT-74" d="M 1650 503 
L 1731 6 
Q 1494 -44 1306 -44 
Q 1000 -44 831 53 
Q 663 150 594 308 
Q 525 466 525 972 
L 525 2881 
L 113 2881 
L 113 3319 
L 525 3319 
L 525 4141 
L 1084 4478 
L 1084 3319 
L 1650 3319 
L 1650 2881 
L 1084 2881 
L 1084 941 
Q 1084 700 1114 631 
Q 1144 563 1211 522 
Q 1278 481 1403 481 
Q 1497 481 1650 503 
z
" transform="scale(0.015625)"/>
       <path id="ArialMT-68" d="M 422 0 
L 422 4581 
L 984 4581 
L 984 2938 
Q 1378 3394 1978 3394 
Q 2347 3394 2619 3248 
Q 2891 3103 3008 2847 
Q 3125 2591 3125 2103 
L 3125 0 
L 2563 0 
L 2563 2103 
Q 2563 2525 2380 2717 
Q 2197 2909 1863 2909 
Q 1613 2909 1392 2779 
Q 1172 2650 1078 2428 
Q 984 2206 984 1816 
L 984 0 
L 422 0 
z
" transform="scale(0.015625)"/>
       <path id="ArialMT-20" transform="scale(0.015625)"/>
       <path id="ArialMT-28" d="M 1497 -1347 
Q 1031 -759 709 28 
Q 388 816 388 1659 
Q 388 2403 628 3084 
Q 909 3875 1497 4659 
L 1900 4659 
Q 1522 4009 1400 3731 
Q 1209 3300 1100 2831 
Q 966 2247 966 1656 
Q 966 153 1900 -1347 
L 1497 -1347 
z
" transform="scale(0.015625)"/>
       <path id="ArialMT-6d" d="M 422 0 
L 422 3319 
L 925 3319 
L 925 2853 
Q 1081 3097 1340 3245 
Q 1600 3394 1931 3394 
Q 2300 3394 2536 3241 
Q 2772 3088 2869 2813 
Q 3263 3394 3894 3394 
Q 4388 3394 4653 3120 
Q 4919 2847 4919 2278 
L 4919 0 
L 4359 0 
L 4359 2091 
Q 4359 2428 4304 2576 
Q 4250 2725 4106 2815 
Q 3963 2906 3769 2906 
Q 3419 2906 3187 2673 
Q 2956 2441 2956 1928 
L 2956 0 
L 2394 0 
L 2394 2156 
Q 2394 2531 2256 2718 
Q 2119 2906 1806 2906 
Q 1569 2906 1367 2781 
Q 1166 2656 1075 2415 
Q 984 2175 984 1722 
L 984 0 
L 422 0 
z
" transform="scale(0.015625)"/>
       <path id="ArialMT-29" d="M 791 -1347 
L 388 -1347 
Q 1322 153 1322 1656 
Q 1322 2244 1188 2822 
Q 1081 3291 891 3722 
Q 769 4003 388 4659 
L 791 4659 
Q 1378 3875 1659 3084 
Q 1900 2403 1900 1659 
Q 1900 816 1576 28 
Q 1253 -759 791 -1347 
z
" transform="scale(0.015625)"/>
      </defs>
      <use xlink:href="#ArialMT-57"/>
      <use xlink:href="#ArialMT-61" x="90.634766"/>
      <use xlink:href="#ArialMT-76" x="146.25"/>
      <use xlink:href="#ArialMT-65" x="196.25"/>
      <use xlink:href="#ArialMT-6c" x="251.865234"/>
      <use xlink:href="#ArialMT-65" x="274.082031"/>
      <use xlink:href="#ArialMT-6e" x="329.697266"/>
      <use xlink:href="#ArialMT-67" x="385.3125"/>
      <use xlink:href="#ArialMT-74" x="440.927734"/>
      <use xlink:href="#ArialMT-68" x="468.710938"/>
      <use xlink:href="#ArialMT-20" x="524.326172"/>
      <use xlink:href="#ArialMT-28" x="552.109375"/>
      <use xlink:href="#ArialMT-6e" x="585.410156"/>
      <use xlink:href="#ArialMT-6d" x="641.025391"/>
      <use xlink:href="#ArialMT-29" x="724.326172"/>
     </g>
    </g>
   </g>
   <g id="matplotlib.axis_2">
    <g id="ytick_1">
     <g id="line2d_12">
      <defs>
       <path id="m7c5c52e84a" d="M 0 0 
L 6 0 
" style="stroke: #262626; stroke-width: 1.25"/>
      </defs>
      <g>
       <use xlink:href="#m7c5c52e84a" x="41.25125" y="277.248797" style="fill: #262626; stroke: #262626; stroke-width: 1.25"/>
      </g>
     </g>
     <g id="text_8">
      <!-- 0.0 -->
      <g style="fill: #262626" transform="translate(22.46125 281.185594) scale(0.11 -0.11)">
       <defs>
        <path id="ArialMT-2e" d="M 581 0 
L 581 641 
L 1222 641 
L 1222 0 
L 581 0 
z
" transform="scale(0.015625)"/>
       </defs>
       <use xlink:href="#ArialMT-30"/>
       <use xlink:href="#ArialMT-2e" x="55.615234"/>
       <use xlink:href="#ArialMT-30" x="83.398438"/>
      </g>
     </g>
    </g>
    <g id="ytick_2">
     <g id="line2d_13">
      <g>
       <use xlink:href="#m7c5c52e84a" x="41.25125" y="224.026397" style="fill: #262626; stroke: #262626; stroke-width: 1.25"/>
      </g>
     </g>
     <g id="text_9">
      <!-- 0.2 -->
      <g style="fill: #262626" transform="translate(22.46125 227.963194) scale(0.11 -0.11)">
       <use xlink:href="#ArialMT-30"/>
       <use xlink:href="#ArialMT-2e" x="55.615234"/>
       <use xlink:href="#ArialMT-32" x="83.398438"/>
      </g>
     </g>
    </g>
    <g id="ytick_3">
     <g id="line2d_14">
      <g>
       <use xlink:href="#m7c5c52e84a" x="41.25125" y="170.803997" style="fill: #262626; stroke: #262626; stroke-width: 1.25"/>
      </g>
     </g>
     <g id="text_10">
      <!-- 0.4 -->
      <g style="fill: #262626" transform="translate(22.46125 174.740794) scale(0.11 -0.11)">
       <use xlink:href="#ArialMT-30"/>
       <use xlink:href="#ArialMT-2e" x="55.615234"/>
       <use xlink:href="#ArialMT-34" x="83.398438"/>
      </g>
     </g>
    </g>
    <g id="ytick_4">
     <g id="line2d_15">
      <g>
       <use xlink:href="#m7c5c52e84a" x="41.25125" y="117.581597" style="fill: #262626; stroke: #262626; stroke-width: 1.25"/>
      </g>
     </g>
     <g id="text_11">
      <!-- 0.6 -->
      <g style="fill: #262626" transform="translate(22.46125 121.518394) scale(0.11 -0.11)">
       <use xlink:href="#ArialMT-30"/>
       <use xlink:href="#ArialMT-2e" x="55.615234"/>
       <use xlink:href="#ArialMT-36" x="83.398438"/>
      </g>
     </g>
    </g>
    <g id="ytick_5">
     <g id="line2d_16">
      <g>
       <use xlink:href="#m7c5c52e84a" x="41.25125" y="64.359197" style="fill: #262626; stroke: #262626; stroke-width: 1.25"/>
      </g>
     </g>
     <g id="text_12">
      <!-- 0.8 -->
      <g style="fill: #262626" transform="translate(22.46125 68.295994) scale(0.11 -0.11)">
       <use xlink:href="#ArialMT-30"/>
       <use xlink:href="#ArialMT-2e" x="55.615234"/>
       <use xlink:href="#ArialMT-38" x="83.398438"/>
      </g>
     </g>
    </g>
    <g id="ytick_6">
     <g id="line2d_17">
      <g>
       <use xlink:href="#m7c5c52e84a" x="41.25125" y="11.136797" style="fill: #262626; stroke: #262626; stroke-width: 1.25"/>
      </g>
     </g>
     <g id="text_13">
      <!-- 1.0 -->
      <g style="fill: #262626" transform="translate(22.46125 15.073594) scale(0.11 -0.11)">
       <use xlink:href="#ArialMT-31"/>
       <use xlink:href="#ArialMT-2e" x="55.615234"/>
       <use xlink:href="#ArialMT-30" x="83.398438"/>
      </g>
     </g>
    </g>
    <g id="ytick_7">
     <g id="line2d_18">
      <defs>
       <path id="m514a224d52" d="M 0 0 
L 4 0 
" style="stroke: #262626"/>
      </defs>
      <g>
       <use xlink:href="#m514a224d52" x="41.25125" y="250.637597" style="fill: #262626; stroke: #262626"/>
      </g>
     </g>
    </g>
    <g id="ytick_8">
     <g id="line2d_19">
      <g>
       <use xlink:href="#m514a224d52" x="41.25125" y="197.415197" style="fill: #262626; stroke: #262626"/>
      </g>
     </g>
    </g>
    <g id="ytick_9">
     <g id="line2d_20">
      <g>
       <use xlink:href="#m514a224d52" x="41.25125" y="144.192797" style="fill: #262626; stroke: #262626"/>
      </g>
     </g>
    </g>
    <g id="ytick_10">
     <g id="line2d_21">
      <g>
       <use xlink:href="#m514a224d52" x="41.25125" y="90.970397" style="fill: #262626; stroke: #262626"/>
      </g>
     </g>
    </g>
    <g id="ytick_11">
     <g id="line2d_22">
      <g>
       <use xlink:href="#m514a224d52" x="41.25125" y="37.747997" style="fill: #262626; stroke: #262626"/>
      </g>
     </g>
    </g>
    <g id="text_14">
     <!-- Absorbance (a.u.) -->
     <g style="fill: #262626" transform="translate(15.935625 191.881547) rotate(-90) scale(0.12 -0.12)">
      <defs>
       <path id="ArialMT-41" d="M -9 0 
L 1750 4581 
L 2403 4581 
L 4278 0 
L 3588 0 
L 3053 1388 
L 1138 1388 
L 634 0 
L -9 0 
z
M 1313 1881 
L 2866 1881 
L 2388 3150 
Q 2169 3728 2063 4100 
Q 1975 3659 1816 3225 
L 1313 1881 
z
" transform="scale(0.015625)"/>
       <path id="ArialMT-62" d="M 941 0 
L 419 0 
L 419 4581 
L 981 4581 
L 981 2947 
Q 1338 3394 1891 3394 
Q 2197 3394 2470 3270 
Q 2744 3147 2920 2923 
Q 3097 2700 3197 2384 
Q 3297 2069 3297 1709 
Q 3297 856 2875 390 
Q 2453 -75 1863 -75 
Q 1275 -75 941 416 
L 941 0 
z
M 934 1684 
Q 934 1088 1097 822 
Q 1363 388 1816 388 
Q 2184 388 2453 708 
Q 2722 1028 2722 1663 
Q 2722 2313 2464 2622 
Q 2206 2931 1841 2931 
Q 1472 2931 1203 2611 
Q 934 2291 934 1684 
z
" transform="scale(0.015625)"/>
       <path id="ArialMT-73" d="M 197 991 
L 753 1078 
Q 800 744 1014 566 
Q 1228 388 1613 388 
Q 2000 388 2187 545 
Q 2375 703 2375 916 
Q 2375 1106 2209 1216 
Q 2094 1291 1634 1406 
Q 1016 1563 777 1677 
Q 538 1791 414 1992 
Q 291 2194 291 2438 
Q 291 2659 392 2848 
Q 494 3038 669 3163 
Q 800 3259 1026 3326 
Q 1253 3394 1513 3394 
Q 1903 3394 2198 3281 
Q 2494 3169 2634 2976 
Q 2775 2784 2828 2463 
L 2278 2388 
Q 2241 2644 2061 2787 
Q 1881 2931 1553 2931 
Q 1166 2931 1000 2803 
Q 834 2675 834 2503 
Q 834 2394 903 2306 
Q 972 2216 1119 2156 
Q 1203 2125 1616 2013 
Q 2213 1853 2448 1751 
Q 2684 1650 2818 1456 
Q 2953 1263 2953 975 
Q 2953 694 2789 445 
Q 2625 197 2315 61 
Q 2006 -75 1616 -75 
Q 969 -75 630 194 
Q 291 463 197 991 
z
" transform="scale(0.015625)"/>
       <path id="ArialMT-6f" d="M 213 1659 
Q 213 2581 725 3025 
Q 1153 3394 1769 3394 
Q 2453 3394 2887 2945 
Q 3322 2497 3322 1706 
Q 3322 1066 3130 698 
Q 2938 331 2570 128 
Q 2203 -75 1769 -75 
Q 1072 -75 642 372 
Q 213 819 213 1659 
z
M 791 1659 
Q 791 1022 1069 705 
Q 1347 388 1769 388 
Q 2188 388 2466 706 
Q 2744 1025 2744 1678 
Q 2744 2294 2464 2611 
Q 2184 2928 1769 2928 
Q 1347 2928 1069 2612 
Q 791 2297 791 1659 
z
" transform="scale(0.015625)"/>
       <path id="ArialMT-72" d="M 416 0 
L 416 3319 
L 922 3319 
L 922 2816 
Q 1116 3169 1280 3281 
Q 1444 3394 1641 3394 
Q 1925 3394 2219 3213 
L 2025 2691 
Q 1819 2813 1613 2813 
Q 1428 2813 1281 2702 
Q 1134 2591 1072 2394 
Q 978 2094 978 1738 
L 978 0 
L 416 0 
z
" transform="scale(0.015625)"/>
       <path id="ArialMT-63" d="M 2588 1216 
L 3141 1144 
Q 3050 572 2676 248 
Q 2303 -75 1759 -75 
Q 1078 -75 664 370 
Q 250 816 250 1647 
Q 250 2184 428 2587 
Q 606 2991 970 3192 
Q 1334 3394 1763 3394 
Q 2303 3394 2647 3120 
Q 2991 2847 3088 2344 
L 2541 2259 
Q 2463 2594 2264 2762 
Q 2066 2931 1784 2931 
Q 1359 2931 1093 2626 
Q 828 2322 828 1663 
Q 828 994 1084 691 
Q 1341 388 1753 388 
Q 2084 388 2306 591 
Q 2528 794 2588 1216 
z
" transform="scale(0.015625)"/>
       <path id="ArialMT-75" d="M 2597 0 
L 2597 488 
Q 2209 -75 1544 -75 
Q 1250 -75 995 37 
Q 741 150 617 320 
Q 494 491 444 738 
Q 409 903 409 1263 
L 409 3319 
L 972 3319 
L 972 1478 
Q 972 1038 1006 884 
Q 1059 663 1231 536 
Q 1403 409 1656 409 
Q 1909 409 2131 539 
Q 2353 669 2445 892 
Q 2538 1116 2538 1541 
L 2538 3319 
L 3100 3319 
L 3100 0 
L 2597 0 
z
" transform="scale(0.015625)"/>
      </defs>
      <use xlink:href="#ArialMT-41"/>
      <use xlink:href="#ArialMT-62" x="66.699219"/>
      <use xlink:href="#ArialMT-73" x="122.314453"/>
      <use xlink:href="#ArialMT-6f" x="172.314453"/>
      <use xlink:href="#ArialMT-72" x="227.929688"/>
      <use xlink:href="#ArialMT-62" x="261.230469"/>
      <use xlink:href="#ArialMT-61" x="316.845703"/>
      <use xlink:href="#ArialMT-6e" x="372.460938"/>
      <use xlink:href="#ArialMT-63" x="428.076172"/>
      <use xlink:href="#ArialMT-65" x="478.076172"/>
      <use xlink:href="#ArialMT-20" x="533.691406"/>
      <use xlink:href="#ArialMT-28" x="561.474609"/>
      <use xlink:href="#ArialMT-61" x="594.775391"/>
      <use xlink:href="#ArialMT-2e" x="650.390625"/>
      <use xlink:href="#ArialMT-75" x="678.173828"/>
      <use xlink:href="#ArialMT-2e" x="733.789062"/>
      <use xlink:href="#ArialMT-29" x="761.572266"/>
     </g>
    </g>
   </g>
   <g id="PolyCollection_1"/>
   <g id="PolyCollection_2"/>
   <g id="PolyCollection_3"/>
   <g id="PolyCollection_4"/>
   <g id="PolyCollection_5"/>
   <g id="PolyCollection_6"/>
   <g id="line2d_23">
    <path d="M 41.467683 217.338477 
L 42.333435 213.281927 
L 43.41561 207.307003 
L 45.147105 195.409823 
L 47.311465 177.627776 
L 49.475835 157.934354 
L 53.37169 123.756842 
L 54.453865 116.211949 
L 55.319617 111.398504 
L 56.185359 107.751625 
L 57.051101 105.051298 
L 57.70041 103.646174 
L 58.566162 102.501687 
L 59.215471 102.260655 
L 59.864781 102.58956 
L 60.297647 103.115956 
L 60.946956 104.409954 
L 61.596265 106.446984 
L 62.245574 108.906058 
L 63.111326 113.069562 
L 66.574305 130.402307 
L 67.440047 133.175486 
L 68.089356 134.610382 
L 68.522232 135.280214 
L 69.171541 135.887028 
L 69.604417 135.983688 
L 70.037293 135.864108 
L 70.470159 135.608182 
L 70.903035 135.1334 
L 71.552344 134.134283 
L 72.634529 131.7161 
L 73.716705 128.513201 
L 75.231766 122.799552 
L 76.530384 117.038778 
L 78.045435 109.405711 
L 80.859105 93.400146 
L 85.837144 62.902552 
L 88.217948 49.539371 
L 89.732999 42.338737 
L 91.031617 37.256217 
L 91.897359 34.512398 
L 92.763111 32.292262 
L 93.628853 30.679559 
L 94.278162 29.833522 
L 94.711038 29.438348 
L 95.360348 29.166085 
L 95.793214 29.14924 
L 96.442523 29.481364 
L 97.091832 30.218972 
L 97.524708 30.93964 
L 98.174017 32.384925 
L 98.823326 34.326802 
L 99.689068 37.69436 
L 100.771253 43.259165 
L 101.853438 50.259547 
L 103.152057 60.400652 
L 104.883541 76.0569 
L 107.69722 104.7945 
L 110.727323 138.214308 
L 113.108116 166.480631 
L 116.571105 208.812602 
L 118.086166 225.251103 
L 119.601207 239.072285 
L 120.683402 247.2899 
L 121.98202 255.194418 
L 122.847752 259.399719 
L 123.929948 263.610781 
L 125.012123 266.811255 
L 126.094318 269.208019 
L 126.96005 270.688736 
L 127.825802 271.868217 
L 128.907977 273.067205 
L 130.423038 274.143597 
L 131.505214 274.687653 
L 133.020275 275.227778 
L 134.968202 275.657321 
L 141.677736 276.225349 
L 143.40922 276.292264 
L 152.066681 276.43657 
L 152.71599 276.434357 
L 154.231032 276.464877 
L 155.096784 276.440226 
L 157.044711 276.462006 
L 157.910463 276.436043 
L 158.559772 276.455264 
L 161.589875 276.443861 
L 162.888493 276.463962 
L 164.403554 276.478692 
L 173.710305 276.526697 
L 174.576057 276.490071 
L 175.008923 276.497088 
L 176.091118 276.512632 
L 179.337663 276.50816 
L 184.532136 276.544483 
L 191.24165 276.543852 
L 191.890959 276.558212 
L 193.189577 276.55298 
L 193.622463 276.567185 
L 209.85519 276.61309 
L 210.071614 276.536838 
L 210.5045 276.682425 
L 210.937366 276.619386 
L 211.370232 276.651699 
L 211.803118 276.632213 
L 212.885293 276.6408 
L 214.400354 276.669251 
L 214.83322 276.585484 
L 216.348281 276.633944 
L 216.781148 276.62537 
L 216.99759 276.712956 
L 217.430457 276.642434 
L 217.863323 276.624498 
L 218.512632 276.72436 
L 218.729075 276.526753 
L 218.945518 276.733079 
L 219.161941 276.614178 
L 219.81125 276.723966 
L 220.244136 276.565252 
L 220.460559 276.703945 
L 220.893445 276.605858 
L 221.109868 276.782168 
L 221.326311 276.636458 
L 222.408486 276.697099 
L 222.624929 276.67778 
L 222.841372 276.538522 
L 223.057795 276.729778 
L 223.274238 276.561642 
L 223.490681 276.78721 
L 223.707105 276.64267 
L 224.13999 276.772907 
L 224.356414 276.565966 
L 224.7893 276.765478 
L 225.438609 276.652904 
L 225.655032 276.402809 
L 226.087918 276.787397 
L 226.304341 276.906003 
L 226.520784 276.661718 
L 226.737227 276.731723 
L 226.95365 276.927923 
L 227.170093 276.704471 
L 227.602959 276.727197 
L 227.819402 276.577434 
L 228.035845 276.866152 
L 228.252268 276.294209 
L 228.468711 276.877431 
L 228.685154 276.872102 
L 228.901577 276.622821 
L 229.11802 276.596313 
L 229.334463 276.81828 
L 229.983772 276.531411 
L 230.200195 276.770016 
L 230.633081 276.675821 
L 230.849505 276.37339 
L 231.065948 276.585845 
L 231.28239 276.458927 
L 231.715257 276.856842 
L 231.9317 276.924718 
L 232.148123 276.398701 
L 232.364566 276.786062 
L 232.581009 276.836007 
L 232.797432 276.488934 
L 233.013875 277.02036 
L 233.446741 276.930679 
L 233.663184 277.290314 
L 233.879627 277.033342 
L 234.09605 277.065119 
L 234.312493 276.079846 
L 234.528936 276.93968 
L 234.745359 277.139706 
L 234.961802 277.137472 
L 235.178245 276.693078 
L 235.611111 276.60937 
L 235.827534 276.984456 
L 240.372698 276.984988 
L 242.753491 276.990842 
L 248.597273 277.019739 
L 251.410952 277.002309 
L 256.172559 276.98824 
L 257.6876 276.987487 
L 263.964268 277.008909 
L 266.345062 277.035005 
L 268.942298 277.06554 
L 270.457359 277.092796 
L 271.539534 277.086609 
L 280.196995 277.127274 
L 286.473663 277.132163 
L 287.772281 277.103805 
L 289.287323 277.118833 
L 292.100982 277.096749 
L 295.347528 277.109123 
L 297.295455 277.095956 
L 300.325577 277.09559 
L 316.125419 277.039836 
L 316.774728 277.052354 
L 317.424037 277.058288 
L 317.6405 277.02123 
L 318.073346 277.091355 
L 318.506232 277.040181 
L 318.722655 277.212268 
L 319.155541 277.164822 
L 320.670582 277.105805 
L 321.536354 277.10844 
L 333.223918 277.001336 
L 333.873227 277.065623 
L 335.604691 277.029788 
L 336.90331 277.028905 
L 340.149855 277.051043 
L 346.859409 277.084339 
L 348.158027 277.065319 
L 349.456645 277.103639 
L 357.897663 277.120854 
L 361.144209 277.108171 
L 366.98799 277.124867 
L 368.070146 277.117999 
L 381.9221 277.008978 
L 383.004255 277.005761 
L 395.341128 276.649864 
L 396.639746 276.324537 
L 398.37125 275.621984 
L 398.37125 275.621984 
" clip-path="url(#p0e1f2b4b94)" style="fill: none; stroke: #f6b48f; stroke-linecap: round"/>
   </g>
   <g id="line2d_24">
    <path d="M 41.467683 203.200569 
L 42.549868 197.732733 
L 44.714229 185.039686 
L 49.908701 153.861863 
L 52.722381 138.703635 
L 55.103174 126.268496 
L 56.618235 119.557871 
L 57.916853 114.317593 
L 58.999029 110.597751 
L 59.864781 108.522685 
L 60.51409 107.68369 
L 60.946956 107.45998 
L 61.379832 107.620308 
L 62.029141 108.426755 
L 62.462017 109.286528 
L 63.327759 111.784256 
L 64.409944 115.749602 
L 66.790738 124.609255 
L 68.305799 128.783307 
L 69.604417 131.072567 
L 70.253726 131.855396 
L 70.903035 132.380777 
L 71.552344 132.680258 
L 72.634529 132.708079 
L 73.067395 132.549464 
L 74.366014 131.734325 
L 75.881075 130.030894 
L 77.396126 127.685072 
L 79.560486 123.52179 
L 83.672784 114.061334 
L 87.785071 104.172142 
L 89.949432 99.452375 
L 91.464493 96.635593 
L 92.979544 94.281253 
L 94.711038 92.189421 
L 95.793214 91.245074 
L 97.091832 90.600954 
L 97.741141 90.516951 
L 98.39045 90.536255 
L 99.472635 90.972668 
L 100.55482 91.932654 
L 101.853438 93.692727 
L 103.152057 96.017136 
L 105.099984 100.264389 
L 109.428705 111.418267 
L 111.376632 117.09055 
L 113.541002 123.908525 
L 116.138238 132.143695 
L 118.086166 137.618248 
L 119.81765 141.484745 
L 120.683402 143.100589 
L 122.198443 145.358134 
L 123.497062 146.825522 
L 125.877875 148.851759 
L 127.176493 149.81422 
L 131.721657 153.610323 
L 134.535336 156.851663 
L 137.132572 160.625378 
L 140.379118 166.338774 
L 143.625663 173.07848 
L 145.57359 177.461984 
L 153.3653 196.6911 
L 154.663918 200.039758 
L 164.187111 223.853236 
L 170.463759 237.650213 
L 175.008923 245.936247 
L 178.039045 250.655526 
L 179.986972 253.272915 
L 183.233518 257.128113 
L 186.696486 260.462518 
L 187.995105 261.574556 
L 192.107402 264.533307 
L 192.973154 265.087116 
L 194.704638 266.102751 
L 200.54842 268.965562 
L 202.496348 269.691677 
L 204.444275 270.402155 
L 204.877141 270.473221 
L 205.52645 270.71455 
L 206.825068 271.13535 
L 207.041511 271.143128 
L 207.257954 271.310272 
L 207.69082 271.350766 
L 208.989438 271.814591 
L 209.638748 271.909778 
L 212.019541 272.579784 
L 212.885293 272.758887 
L 213.318159 272.83093 
L 219.161941 274.084708 
L 219.378384 274.059813 
L 219.81125 274.268473 
L 220.244136 274.270749 
L 220.460559 274.404003 
L 221.97562 274.453689 
L 222.192063 274.827159 
L 222.408486 274.579 
L 222.841372 274.718672 
L 223.274238 274.835234 
L 223.490681 274.913257 
L 223.707105 274.765141 
L 223.923548 274.752394 
L 224.13999 274.914487 
L 224.356414 274.791447 
L 224.572857 274.95716 
L 224.7893 274.96491 
L 225.005723 275.177379 
L 225.222166 275.017326 
L 225.438609 275.128627 
L 225.655032 274.943401 
L 226.304341 275.501891 
L 226.520784 275.159227 
L 226.737227 275.721041 
L 226.95365 275.221651 
L 227.170093 275.385545 
L 227.386536 275.206613 
L 227.602959 275.422173 
L 227.819402 275.456809 
L 228.035845 275.100475 
L 228.252268 275.388968 
L 228.468711 275.310867 
L 228.685154 275.668244 
L 228.901577 275.473361 
L 229.334463 275.714891 
L 229.983772 275.50673 
L 230.200195 275.69461 
L 230.416638 275.65869 
L 230.633081 275.938898 
L 230.849505 275.646328 
L 231.065948 276.016805 
L 231.28239 275.263286 
L 231.498814 275.786448 
L 231.715257 275.71094 
L 231.9317 276.407535 
L 232.148123 275.730673 
L 232.364566 275.634069 
L 232.581009 276.119406 
L 232.797432 275.842196 
L 233.230318 276.574045 
L 233.446741 275.88482 
L 233.879627 276.251367 
L 234.09605 276.830926 
L 234.312493 275.585293 
L 234.528936 276.823846 
L 234.961802 275.892954 
L 235.394668 276.36715 
L 235.611111 276.265985 
L 235.827534 276.491735 
L 250.328777 277.041568 
L 252.060262 277.061745 
L 270.457359 277.19289 
L 272.62171 277.207713 
L 313.961068 277.353057 
L 317.856923 277.310516 
L 319.371964 277.446096 
L 319.588427 277.355107 
L 320.454159 277.393449 
L 328.678754 277.408322 
L 330.626681 277.422066 
L 338.851237 277.393752 
L 349.456645 277.381284 
L 353.3525 277.441929 
L 354.651118 277.425904 
L 366.771528 277.367123 
L 366.98799 277.430911 
L 367.420837 277.384064 
L 376.078318 277.426633 
L 377.809782 277.433181 
L 382.787832 277.37417 
L 383.220718 277.397728 
L 384.302873 277.347922 
L 385.168645 277.29618 
L 395.124705 277.013996 
L 396.639746 276.541717 
L 397.289055 276.132107 
L 397.505518 276.077334 
L 397.938364 275.777497 
L 398.37125 275.630849 
L 398.37125 275.630849 
" clip-path="url(#p0e1f2b4b94)" style="fill: none; stroke: #f37651; stroke-linecap: round"/>
   </g>
   <g id="line2d_25">
    <path d="M 41.467683 200.4469 
L 42.333435 196.106912 
L 44.497795 183.623039 
L 46.445723 171.252424 
L 49.259392 153.517073 
L 51.423762 141.320087 
L 55.103174 122.180303 
L 56.185359 117.765854 
L 57.70041 112.614844 
L 59.215471 108.764287 
L 59.648338 108.062606 
L 60.081214 107.653093 
L 60.51409 107.544839 
L 60.730523 107.524393 
L 61.163399 107.855026 
L 61.812708 108.934688 
L 62.67845 111.384403 
L 63.760635 115.547701 
L 66.790738 127.730769 
L 68.305799 132.078171 
L 69.387984 134.281541 
L 70.470159 135.781374 
L 71.335911 136.583633 
L 71.98522 136.939153 
L 73.067395 137.177377 
L 74.366014 136.962692 
L 75.448199 136.456376 
L 78.478311 133.689257 
L 80.859105 130.697395 
L 82.374166 128.597156 
L 88.001505 121.248201 
L 89.300123 119.879876 
L 91.24805 118.369337 
L 92.546668 117.751927 
L 93.195977 117.537971 
L 94.494595 117.36432 
L 95.793214 117.587634 
L 96.875399 118.089143 
L 97.741141 118.713706 
L 98.606893 119.575446 
L 99.689068 120.950369 
L 101.204129 123.480296 
L 102.935614 127.03743 
L 107.913653 139.29749 
L 110.51088 146.249083 
L 112.891693 152.900116 
L 116.138238 161.782515 
L 118.086166 166.258483 
L 119.81765 169.383399 
L 121.116268 171.245469 
L 122.414886 172.73557 
L 124.579257 174.612788 
L 128.475111 177.369947 
L 129.773729 178.389216 
L 131.505214 179.869872 
L 133.453141 181.824208 
L 135.617511 184.379316 
L 139.513366 189.982434 
L 142.759911 195.60185 
L 144.491395 198.889355 
L 146.2229 202.205838 
L 153.798166 217.461206 
L 156.611845 223.153854 
L 161.373432 232.440119 
L 165.485729 240.099972 
L 171.329511 249.602044 
L 176.523984 256.396679 
L 177.822602 257.848844 
L 178.904777 258.970759 
L 180.852705 260.829047 
L 181.502014 261.369809 
L 182.800632 262.452814 
L 185.397868 264.390114 
L 188.211548 266.119743 
L 189.726609 266.920266 
L 190.375918 267.271568 
L 191.24165 267.660956 
L 196.003257 269.680248 
L 196.436123 269.800701 
L 197.518318 270.17895 
L 201.414172 271.354906 
L 202.063481 271.522004 
L 202.71279 271.685493 
L 204.444275 272.101389 
L 205.310027 272.292632 
L 209.205881 273.105047 
L 210.071614 273.208438 
L 210.5045 273.375124 
L 210.937366 273.392055 
L 211.803118 273.513939 
L 212.66885 273.660767 
L 213.101736 273.710994 
L 215.266086 273.996255 
L 216.564705 274.206197 
L 217.863323 274.368294 
L 221.97562 275.016069 
L 222.192063 275.160315 
L 222.624929 274.967369 
L 222.841372 275.114187 
L 223.490681 275.120165 
L 223.923548 275.271233 
L 224.13999 275.343128 
L 224.356414 275.06901 
L 224.572857 275.359038 
L 224.7893 275.296261 
L 225.005723 275.411479 
L 225.438609 275.271184 
L 225.655032 275.16197 
L 225.871475 275.676889 
L 226.087918 275.464407 
L 226.304341 275.872092 
L 226.520784 275.511374 
L 226.737227 275.686609 
L 227.386536 275.302671 
L 227.602959 275.622521 
L 227.819402 275.730687 
L 228.035845 275.402793 
L 228.252268 275.369975 
L 228.468711 275.815445 
L 228.685154 275.810346 
L 228.901577 275.489211 
L 229.334463 275.846895 
L 229.767329 275.801585 
L 230.200195 276.207688 
L 230.416638 275.481021 
L 230.633081 275.795551 
L 230.849505 275.405089 
L 231.065948 276.023739 
L 231.28239 275.547871 
L 231.498814 276.178616 
L 231.715257 276.005922 
L 231.9317 276.087111 
L 232.364566 275.445377 
L 232.581009 275.868892 
L 232.797432 276.009021 
L 233.230318 276.511031 
L 233.663184 275.846205 
L 234.09605 277.02223 
L 234.312493 275.611643 
L 234.528936 276.483692 
L 234.745359 276.34999 
L 235.178245 275.575788 
L 235.394668 276.10232 
L 235.611111 275.831422 
L 235.827534 276.826259 
L 238.857637 276.945212 
L 241.887759 277.097059 
L 243.186377 277.15495 
L 245.567171 277.258799 
L 256.388982 277.527516 
L 257.6876 277.580432 
L 300.974886 277.723655 
L 302.273505 277.721116 
L 312.013141 277.694659 
L 312.446027 277.704389 
L 316.125419 277.593729 
L 316.774728 277.586463 
L 317.424037 277.531708 
L 318.289809 277.793622 
L 318.506232 277.747252 
L 318.722655 277.919474 
L 319.371964 277.82177 
L 319.588427 277.744714 
L 320.237736 277.785491 
L 321.536354 277.763506 
L 325.432209 277.796173 
L 333.223918 277.810981 
L 335.171845 277.842963 
L 336.90331 277.836205 
L 349.023759 277.841386 
L 350.322377 277.819604 
L 353.785346 277.803824 
L 376.94405 277.838508 
L 383.220718 277.759693 
L 383.653564 277.666618 
L 384.08645 277.710619 
L 384.302873 277.674195 
L 384.519336 277.783365 
L 384.735759 277.62124 
L 384.952182 277.753287 
L 385.168645 277.567697 
L 385.385068 277.620622 
L 385.601491 277.494526 
L 387.332995 277.516768 
L 387.765881 277.436523 
L 388.41519 277.517497 
L 388.631614 277.544214 
L 388.848037 277.324904 
L 389.0645 277.509125 
L 389.497346 277.491474 
L 391.012427 277.456356 
L 391.445273 277.468155 
L 391.878159 277.393903 
L 392.094582 277.49091 
L 392.960354 277.434281 
L 394.04251 277.350772 
L 395.55759 276.999534 
L 395.774014 276.794963 
L 395.990437 276.863594 
L 396.423323 276.666516 
L 396.856209 276.124408 
L 397.505518 275.796409 
L 397.938364 275.305501 
L 398.154827 275.121863 
L 398.37125 275.123828 
L 398.37125 275.123828 
" clip-path="url(#p0e1f2b4b94)" style="fill: none; stroke: #e13342; stroke-linecap: round"/>
   </g>
   <g id="line2d_26">
    <path d="M 41.467683 194.422983 
L 42.549868 190.472055 
L 43.632053 185.55302 
L 45.796414 173.682519 
L 47.960774 162.324106 
L 50.774453 145.345374 
L 51.856629 140.857708 
L 56.185359 125.849816 
L 57.051101 124.204691 
L 57.483977 123.892854 
L 57.70041 123.829154 
L 58.349719 124.107651 
L 59.215471 125.453183 
L 60.081214 127.605368 
L 60.730523 129.721404 
L 61.596265 133.367014 
L 62.67845 138.831812 
L 65.059253 151.681159 
L 66.574305 158.499602 
L 67.872923 163.339433 
L 69.171541 167.419077 
L 70.686602 171.509848 
L 72.850962 176.442945 
L 77.396126 185.077761 
L 79.776929 188.880487 
L 81.508414 191.470862 
L 82.157723 192.448844 
L 83.672784 194.576459 
L 84.538526 195.668627 
L 85.404268 196.814209 
L 88.001505 199.890256 
L 91.897359 203.573005 
L 96.009657 206.771915 
L 100.121944 209.596636 
L 101.853438 210.64375 
L 112.67525 216.484719 
L 113.541002 216.894323 
L 116.138238 218.031046 
L 118.735475 218.891065 
L 120.034093 219.252747 
L 126.743627 221.070088 
L 127.825802 221.483479 
L 131.505214 223.221167 
L 134.968202 225.444903 
L 137.348995 227.34552 
L 138.43119 228.317851 
L 140.811984 230.535302 
L 142.327045 232.068071 
L 146.439323 236.376462 
L 147.737941 237.811655 
L 153.3653 243.858464 
L 154.880341 245.495701 
L 156.395402 247.07545 
L 160.074814 250.812604 
L 167.6501 257.957206 
L 168.948718 259.021638 
L 169.81445 259.74856 
L 173.060995 262.198258 
L 176.091118 264.189527 
L 180.203395 266.453988 
L 184.748559 268.406636 
L 193.189577 270.912976 
L 194.055329 271.122545 
L 194.271772 271.235649 
L 194.704638 271.227021 
L 196.2197 271.625939 
L 196.652566 271.662527 
L 197.951184 271.965978 
L 203.794966 272.980593 
L 204.660718 273.124316 
L 205.52645 273.270349 
L 205.742893 273.233474 
L 206.392202 273.406313 
L 210.071614 273.830037 
L 210.5045 273.908259 
L 211.370232 273.987299 
L 211.586675 274.079412 
L 212.019541 274.117292 
L 213.751045 274.272163 
L 214.400354 274.285344 
L 214.616777 274.262832 
L 215.049663 274.429488 
L 215.482529 274.437188 
L 216.781148 274.521778 
L 216.99759 274.684019 
L 217.214014 274.584942 
L 217.6469 274.704681 
L 218.296209 274.654264 
L 218.729075 274.776768 
L 218.945518 274.867671 
L 219.161941 274.740646 
L 219.81125 274.882261 
L 220.027693 274.791588 
L 220.244136 274.904132 
L 220.460559 274.853986 
L 220.677002 275.009552 
L 220.893445 274.879744 
L 221.109868 274.993474 
L 221.326311 274.908779 
L 221.542754 275.139866 
L 221.759177 275.020002 
L 221.97562 275.103051 
L 222.624929 274.992863 
L 223.274238 275.270203 
L 223.707105 275.021062 
L 224.13999 275.271737 
L 224.572857 275.148853 
L 224.7893 275.34644 
L 225.005723 275.183698 
L 225.222166 275.179357 
L 225.438609 275.356216 
L 225.655032 275.293977 
L 225.871475 275.514583 
L 226.737227 275.354962 
L 226.95365 275.627244 
L 227.386536 275.475222 
L 227.602959 275.751289 
L 227.819402 275.408126 
L 228.035845 275.763179 
L 228.252268 275.265655 
L 228.468711 275.37895 
L 228.685154 275.897087 
L 229.11802 275.532798 
L 229.334463 275.792677 
L 229.983772 275.567199 
L 230.200195 275.241153 
L 230.633081 275.65596 
L 230.849505 275.810911 
L 231.28239 275.623073 
L 231.498814 275.462714 
L 231.715257 276.035874 
L 231.9317 275.289233 
L 232.364566 275.662036 
L 232.581009 276.072164 
L 232.797432 275.360795 
L 233.013875 275.700684 
L 233.230318 275.520499 
L 233.446741 275.940451 
L 233.663184 275.454843 
L 233.879627 275.987009 
L 234.09605 275.325269 
L 234.528936 276.193661 
L 234.745359 276.177226 
L 234.961802 276.566472 
L 235.178245 276.272738 
L 235.394668 275.464854 
L 235.827534 276.151331 
L 236.90971 276.188329 
L 238.641214 276.24002 
L 240.156255 276.313405 
L 271.106668 276.738358 
L 273.703905 276.728664 
L 282.144923 276.852314 
L 284.09285 276.887223 
L 288.205128 276.996621 
L 289.287323 277.003234 
L 290.369518 277.023528 
L 295.347528 277.062221 
L 299.026959 277.050643 
L 300.325577 277.063877 
L 302.489928 277.031879 
L 303.788546 277.033453 
L 304.870741 277.025605 
L 307.467977 276.985202 
L 308.766595 276.957298 
L 318.073346 277.105598 
L 318.506232 277.167311 
L 318.939118 277.267477 
L 319.155541 277.129901 
L 319.588427 277.14918 
L 322.185663 277.091513 
L 322.834972 277.112226 
L 344.04571 277.057667 
L 347.292255 277.0067 
L 349.456645 276.991174 
L 351.620995 276.95823 
L 354.218232 276.961966 
L 357.464777 276.969314 
L 358.763395 276.981957 
L 365.47291 277.016005 
L 368.719455 277.019711 
L 372.182463 276.997615 
L 377.593359 276.993935 
L 378.891977 276.994018 
L 381.489214 277.014596 
L 382.787832 276.975984 
L 383.220718 276.982392 
L 383.653564 276.910867 
L 384.519336 276.997781 
L 384.735759 276.870796 
L 384.952182 277.006375 
L 385.168645 276.815521 
L 385.385068 276.905547 
L 386.034377 276.772305 
L 386.2508 276.888342 
L 387.982305 276.741679 
L 388.41519 276.765837 
L 388.631614 276.769303 
L 388.848037 276.614205 
L 389.0645 276.734705 
L 389.497346 276.717585 
L 392.527468 276.706222 
L 395.341128 276.336834 
L 396.2069 276.06336 
L 396.423323 275.954447 
L 397.072632 275.349549 
L 398.37125 274.50995 
L 398.37125 274.50995 
" clip-path="url(#p0e1f2b4b94)" style="fill: none; stroke: #ad1759; stroke-linecap: round"/>
   </g>
   <g id="line2d_27">
    <path d="M 41.575905 190.060512 
L 42.549868 186.158707 
L 43.523832 181.202207 
L 48.718305 148.144851 
L 50.341577 135.41667 
L 51.315541 129.67907 
L 52.289505 125.816094 
L 53.588123 121.286966 
L 56.185359 111.812251 
L 56.834668 110.478774 
L 57.159323 110.224292 
L 57.483977 110.253556 
L 57.808632 110.583936 
L 58.457941 112.068811 
L 59.431905 115.7388 
L 60.405868 120.37125 
L 61.704486 127.631539 
L 66.24965 154.308698 
L 67.872923 161.189215 
L 69.496195 166.781841 
L 71.119468 171.390038 
L 72.418086 174.616484 
L 74.041359 178.108689 
L 76.313941 182.427612 
L 78.586523 186.04249 
L 84.754959 194.282815 
L 87.027541 197.02508 
L 92.546668 203.241238 
L 94.81925 205.872448 
L 96.767177 208.296389 
L 106.506814 221.076183 
L 109.10405 224.534472 
L 113.973868 230.581804 
L 116.895759 233.659956 
L 118.519032 235.088309 
L 121.440923 236.999827 
L 122.739541 237.681698 
L 125.336777 238.809606 
L 128.258668 239.886115 
L 128.907977 240.055072 
L 129.881941 240.364748 
L 131.829868 241.089131 
L 135.725723 242.802682 
L 137.998305 243.973523 
L 142.543468 246.652977 
L 144.81605 248.176217 
L 149.361214 251.117003 
L 150.659832 251.980721 
L 153.906377 254.032602 
L 155.52965 255.095068 
L 156.503614 255.705448 
L 158.126886 256.737414 
L 160.724123 258.261386 
L 162.67205 259.410628 
L 164.944632 260.756466 
L 166.567905 261.739873 
L 175.658232 266.223359 
L 179.554086 267.719388 
L 184.423905 269.207487 
L 191.566305 270.87695 
L 192.215614 270.996279 
L 192.864923 271.119378 
L 202.279905 272.849408 
L 202.929214 272.941395 
L 206.825068 273.458729 
L 207.149723 273.588407 
L 207.799032 273.600679 
L 208.448341 273.653469 
L 209.422305 273.817875 
L 209.746959 273.883893 
L 210.071614 273.814334 
L 210.720923 273.935314 
L 212.344195 274.13669 
L 212.993505 274.156835 
L 216.24005 274.538761 
L 216.564705 274.427194 
L 217.863323 274.643069 
L 219.161941 274.594155 
L 219.81125 274.82948 
L 220.785214 274.770849 
L 222.733141 274.897138 
L 223.38245 275.142553 
L 223.707105 274.974942 
L 224.031759 275.172448 
L 224.681068 275.329282 
L 225.005723 275.004628 
L 225.979686 275.123884 
L 226.304341 275.25707 
L 226.628995 275.189925 
L 226.95365 275.309018 
L 227.278305 275.153903 
L 227.927614 275.315574 
L 228.252268 275.625931 
L 228.576923 275.668167 
L 228.901577 275.001987 
L 229.226232 275.199019 
L 229.550886 274.924911 
L 229.875541 275.338646 
L 230.200195 275.244069 
L 230.52485 275.430451 
L 231.498814 274.831352 
L 231.823468 275.99148 
L 232.148123 275.867365 
L 232.472777 275.278815 
L 233.122086 275.796877 
L 233.446741 275.832217 
L 234.09605 275.542942 
L 234.420705 275.804926 
L 234.745359 275.419212 
L 235.070014 275.955116 
L 235.394668 275.491932 
L 235.719323 275.607619 
L 236.043977 275.947662 
L 237.991905 276.016617 
L 244.160341 276.176141 
L 249.030159 276.290444 
L 255.198595 276.434392 
L 258.120486 276.585651 
L 261.691686 276.605041 
L 291.559905 276.897325 
L 293.507832 276.896551 
L 302.598159 276.940322 
L 310.065214 276.885295 
L 311.363832 276.856807 
L 314.285723 276.896054 
L 315.584341 276.877292 
L 317.856923 276.969576 
L 320.129505 276.986306 
L 354.867541 277.184619 
L 358.763395 277.162375 
L 361.685286 277.158887 
L 363.308559 277.0925 
L 366.23045 276.903571 
L 370.126305 276.67292 
L 374.022159 276.617121 
L 378.567323 276.721841 
L 380.839905 276.755246 
L 383.112486 276.806754 
L 384.735759 276.758892 
L 385.385068 276.748792 
L 386.034377 276.692621 
L 387.65765 276.755841 
L 388.306959 276.716478 
L 388.631614 276.75176 
L 389.280923 276.677856 
L 390.254886 276.802999 
L 390.904195 276.743603 
L 391.553505 276.801305 
L 392.202814 276.764343 
L 394.150741 276.703765 
L 394.80005 276.607909 
L 395.124705 276.611483 
L 396.747977 275.830801 
L 397.397286 275.248947 
L 398.37125 274.657871 
L 398.37125 274.657871 
" clip-path="url(#p0e1f2b4b94)" style="fill: none; stroke: #701f57; stroke-linecap: round"/>
   </g>
   <g id="line2d_28">
    <path d="M 41.25124 234.865348 
L 42.549858 227.977483 
L 43.199167 223.365185 
L 43.848476 217.109818 
L 46.012837 193.961302 
L 46.878579 188.076118 
L 47.744331 182.046198 
L 48.39364 175.459515 
L 49.042949 166.850395 
L 50.558 144.798445 
L 50.990876 140.736288 
L 51.423743 138.469646 
L 51.856619 137.603053 
L 52.073052 137.570759 
L 52.505928 138.018767 
L 52.938804 138.754519 
L 53.37167 139.150169 
L 53.588113 139.154578 
L 53.804546 139.017297 
L 54.237422 138.128846 
L 54.670288 136.479217 
L 55.752473 129.819698 
L 56.401782 126.612263 
L 56.618215 125.954153 
L 56.834658 125.815872 
L 57.051091 125.978056 
L 57.267524 126.698359 
L 57.7004 129.487479 
L 58.34971 136.997809 
L 59.431895 154.351865 
L 60.51407 171.525179 
L 61.596255 185.018273 
L 62.461997 193.271231 
L 63.544182 201.506694 
L 64.626367 208.149234 
L 65.924986 214.485249 
L 67.440037 220.426376 
L 69.171531 225.968012 
L 70.903025 230.797445 
L 72.850952 235.396494 
L 75.231746 240.379011 
L 76.746807 243.14606 
L 79.1276 246.831381 
L 83.889207 253.308292 
L 88.434371 258.995068 
L 92.546658 263.840018 
L 99.472625 272.16211 
L 100.338367 273.100898 
L 101.853419 274.721728 
L 106.398582 278.946925 
L 108.779386 280.829032 
L 111.809498 282.904627 
L 113.973848 284.032637 
L 116.354662 284.982548 
L 119.384764 285.761595 
L 120.899825 286.04566 
L 121.549134 286.290509 
L 122.414867 286.435441 
L 123.713485 286.627407 
L 128.475091 286.945644 
L 128.691534 286.938967 
L 128.907977 287.173083 
L 129.77371 287.126609 
L 131.072328 287.029769 
L 131.721637 287.010171 
L 132.803832 286.930175 
L 138.214728 286.498397 
L 139.08048 286.427654 
L 142.543468 286.257392 
L 143.4092 286.302166 
L 144.924262 286.334646 
L 145.790014 286.395467 
L 154.231032 286.455557 
L 157.044691 286.264146 
L 157.694 286.224432 
L 160.074814 285.970091 
L 160.724123 285.885024 
L 165.918595 285.510427 
L 167.433637 285.437279 
L 169.165141 285.333052 
L 170.030873 285.336007 
L 170.680182 285.29042 
L 173.060995 285.289032 
L 175.008923 285.347028 
L 176.307541 285.366319 
L 186.480043 285.742702 
L 187.562219 285.757946 
L 188.427971 285.777912 
L 191.458073 285.897617 
L 192.756691 285.929648 
L 194.271752 286.011783 
L 194.704619 286.045724 
L 197.301855 286.149834 
L 197.518298 286.069801 
L 197.951164 286.178135 
L 198.600473 286.184206 
L 202.279905 286.357873 
L 202.712771 286.359745 
L 203.145637 286.386989 
L 204.444255 286.489151 
L 217.430437 286.553031 
L 218.296189 286.487358 
L 218.729055 286.521121 
L 218.945498 286.431001 
L 219.594807 286.566632 
L 220.893425 286.477793 
L 221.109868 286.506943 
L 221.326291 286.399235 
L 221.759177 286.498385 
L 221.9756 286.388937 
L 222.192043 286.543854 
L 222.62491 286.451308 
L 222.841352 286.44487 
L 223.057795 286.315158 
L 223.490662 286.392985 
L 224.139971 286.386544 
L 224.572837 286.129983 
L 224.78928 286.357822 
L 225.005723 286.29707 
L 225.222146 286.453776 
L 225.655032 286.397364 
L 225.871455 286.162142 
L 226.087898 286.098875 
L 226.304341 286.45146 
L 226.520764 286.487002 
L 226.737207 286.364787 
L 226.95365 286.416595 
L 227.170073 286.350767 
L 227.386516 286.469092 
L 227.602959 286.38802 
L 227.819382 286.4702 
L 228.035825 286.17158 
L 228.685134 286.362979 
L 228.901577 286.220505 
L 229.118 285.860793 
L 229.334443 286.347253 
L 229.550886 286.219854 
L 229.76731 286.757416 
L 229.983752 286.132152 
L 230.200195 285.908048 
L 230.416619 286.171414 
L 230.633062 285.730208 
L 230.849505 286.435594 
L 231.065928 286.352551 
L 231.282371 286.748571 
L 231.498814 285.925815 
L 231.715237 286.466154 
L 231.93168 286.596928 
L 232.148123 286.139399 
L 232.364546 286.436612 
L 232.580989 285.954069 
L 232.797432 286.448547 
L 233.013855 285.976773 
L 233.230298 286.381388 
L 233.446741 286.149604 
L 233.663164 286.938384 
L 233.879607 285.85105 
L 234.09605 286.766577 
L 234.312473 286.733508 
L 234.528916 286.039582 
L 234.745359 286.558739 
L 234.961782 286.265802 
L 235.178225 286.161275 
L 235.394668 285.769492 
L 235.827534 286.187049 
L 236.043977 288.465886 
L 237.559038 288.469074 
L 247.082232 288.286494 
L 248.813716 288.24961 
L 250.328777 288.2015 
L 252.493148 288.177612 
L 254.441075 288.22433 
L 255.52325 288.453157 
L 256.172559 288.56223 
L 257.254734 288.388806 
L 258.769795 288.088437 
L 260.284857 287.947359 
L 262.66565 287.833782 
L 263.964268 287.785247 
L 266.777948 287.697555 
L 268.292989 287.631773 
L 269.375184 287.599365 
L 272.188843 287.492443 
L 279.331263 287.218224 
L 280.413419 287.137448 
L 282.794232 287.013361 
L 290.369518 286.684812 
L 291.451673 286.671251 
L 292.533868 286.581273 
L 293.183177 286.584894 
L 294.698219 286.50309 
L 308.550172 285.80619 
L 310.4981 285.543348 
L 311.363832 285.446289 
L 312.013141 285.369055 
L 312.66245 285.383245 
L 313.311759 285.377762 
L 315.47611 285.481217 
L 316.558305 285.286436 
L 317.207614 285.034478 
L 317.6405 285.076213 
L 318.722655 285.77365 
L 319.80485 285.614392 
L 322.185663 285.526433 
L 323.484281 285.513813 
L 325.865055 285.485489 
L 329.977372 285.508054 
L 333.440341 285.239197 
L 333.440341 285.239197 
" clip-path="url(#p0e1f2b4b94)" style="fill: none; stroke: #35193e; stroke-linecap: round"/>
   </g>
   <g id="line2d_29"/>
   <g id="line2d_30"/>
   <g id="line2d_31"/>
   <g id="line2d_32"/>
   <g id="line2d_33"/>
   <g id="line2d_34"/>
   <g id="patch_3">
    <path d="M 41.25125 277.248797 
L 41.25125 11.136797 
" style="fill: none; stroke: #262626; stroke-width: 1.25; stroke-linejoin: miter; stroke-linecap: square"/>
   </g>
   <g id="patch_4">
    <path d="M 41.25125 277.248797 
L 398.37125 277.248797 
" style="fill: none; stroke: #262626; stroke-width: 1.25; stroke-linejoin: miter; stroke-linecap: square"/>
   </g>
   <g id="legend_1">
    <g id="line2d_35">
     <path d="M 256.255813 45.415809 
L 262.255813 45.415809 
L 268.255813 45.415809 
" style="fill: none; stroke: #f6b48f; stroke-width: 1.5; stroke-linecap: round"/>
    </g>
    <g id="text_15">
     <!-- t=0hrs FeCl3 0uM_Abs -->
     <g style="fill: #262626" transform="translate(273.055813 47.515809) scale(0.06 -0.06)">
      <defs>
       <path id="ArialMT-3d" d="M 3381 2694 
L 356 2694 
L 356 3219 
L 3381 3219 
L 3381 2694 
z
M 3381 1303 
L 356 1303 
L 356 1828 
L 3381 1828 
L 3381 1303 
z
" transform="scale(0.015625)"/>
       <path id="ArialMT-46" d="M 525 0 
L 525 4581 
L 3616 4581 
L 3616 4041 
L 1131 4041 
L 1131 2622 
L 3281 2622 
L 3281 2081 
L 1131 2081 
L 1131 0 
L 525 0 
z
" transform="scale(0.015625)"/>
       <path id="ArialMT-43" d="M 3763 1606 
L 4369 1453 
Q 4178 706 3683 314 
Q 3188 -78 2472 -78 
Q 1731 -78 1267 223 
Q 803 525 561 1097 
Q 319 1669 319 2325 
Q 319 3041 592 3573 
Q 866 4106 1370 4382 
Q 1875 4659 2481 4659 
Q 3169 4659 3637 4309 
Q 4106 3959 4291 3325 
L 3694 3184 
Q 3534 3684 3231 3912 
Q 2928 4141 2469 4141 
Q 1941 4141 1586 3887 
Q 1231 3634 1087 3207 
Q 944 2781 944 2328 
Q 944 1744 1114 1308 
Q 1284 872 1643 656 
Q 2003 441 2422 441 
Q 2931 441 3284 734 
Q 3638 1028 3763 1606 
z
" transform="scale(0.015625)"/>
       <path id="ArialMT-33" d="M 269 1209 
L 831 1284 
Q 928 806 1161 595 
Q 1394 384 1728 384 
Q 2125 384 2398 659 
Q 2672 934 2672 1341 
Q 2672 1728 2419 1979 
Q 2166 2231 1775 2231 
Q 1616 2231 1378 2169 
L 1441 2663 
Q 1497 2656 1531 2656 
Q 1891 2656 2178 2843 
Q 2466 3031 2466 3422 
Q 2466 3731 2256 3934 
Q 2047 4138 1716 4138 
Q 1388 4138 1169 3931 
Q 950 3725 888 3313 
L 325 3413 
Q 428 3978 793 4289 
Q 1159 4600 1703 4600 
Q 2078 4600 2393 4439 
Q 2709 4278 2876 4000 
Q 3044 3722 3044 3409 
Q 3044 3113 2884 2869 
Q 2725 2625 2413 2481 
Q 2819 2388 3044 2092 
Q 3269 1797 3269 1353 
Q 3269 753 2831 336 
Q 2394 -81 1725 -81 
Q 1122 -81 723 278 
Q 325 638 269 1209 
z
" transform="scale(0.015625)"/>
       <path id="ArialMT-4d" d="M 475 0 
L 475 4581 
L 1388 4581 
L 2472 1338 
Q 2622 884 2691 659 
Q 2769 909 2934 1394 
L 4031 4581 
L 4847 4581 
L 4847 0 
L 4263 0 
L 4263 3834 
L 2931 0 
L 2384 0 
L 1059 3900 
L 1059 0 
L 475 0 
z
" transform="scale(0.015625)"/>
       <path id="ArialMT-5f" d="M -97 -1272 
L -97 -866 
L 3631 -866 
L 3631 -1272 
L -97 -1272 
z
" transform="scale(0.015625)"/>
      </defs>
      <use xlink:href="#ArialMT-74"/>
      <use xlink:href="#ArialMT-3d" x="27.783203"/>
      <use xlink:href="#ArialMT-30" x="86.181641"/>
      <use xlink:href="#ArialMT-68" x="141.796875"/>
      <use xlink:href="#ArialMT-72" x="197.412109"/>
      <use xlink:href="#ArialMT-73" x="230.712891"/>
      <use xlink:href="#ArialMT-20" x="280.712891"/>
      <use xlink:href="#ArialMT-46" x="308.496094"/>
      <use xlink:href="#ArialMT-65" x="369.580078"/>
      <use xlink:href="#ArialMT-43" x="425.195312"/>
      <use xlink:href="#ArialMT-6c" x="497.412109"/>
      <use xlink:href="#ArialMT-33" x="519.628906"/>
      <use xlink:href="#ArialMT-20" x="575.244141"/>
      <use xlink:href="#ArialMT-30" x="603.027344"/>
      <use xlink:href="#ArialMT-75" x="658.642578"/>
      <use xlink:href="#ArialMT-4d" x="714.257812"/>
      <use xlink:href="#ArialMT-5f" x="797.558594"/>
      <use xlink:href="#ArialMT-41" x="853.173828"/>
      <use xlink:href="#ArialMT-62" x="919.873047"/>
      <use xlink:href="#ArialMT-73" x="975.488281"/>
     </g>
    </g>
    <g id="line2d_36">
     <path d="M 256.255813 53.976122 
L 262.255813 53.976122 
L 268.255813 53.976122 
" style="fill: none; stroke: #f37651; stroke-width: 1.5; stroke-linecap: round"/>
    </g>
    <g id="text_16">
     <!-- t=0hrs FeCl3 20uM_Abs -->
     <g style="fill: #262626" transform="translate(273.055813 56.076122) scale(0.06 -0.06)">
      <use xlink:href="#ArialMT-74"/>
      <use xlink:href="#ArialMT-3d" x="27.783203"/>
      <use xlink:href="#ArialMT-30" x="86.181641"/>
      <use xlink:href="#ArialMT-68" x="141.796875"/>
      <use xlink:href="#ArialMT-72" x="197.412109"/>
      <use xlink:href="#ArialMT-73" x="230.712891"/>
      <use xlink:href="#ArialMT-20" x="280.712891"/>
      <use xlink:href="#ArialMT-46" x="308.496094"/>
      <use xlink:href="#ArialMT-65" x="369.580078"/>
      <use xlink:href="#ArialMT-43" x="425.195312"/>
      <use xlink:href="#ArialMT-6c" x="497.412109"/>
      <use xlink:href="#ArialMT-33" x="519.628906"/>
      <use xlink:href="#ArialMT-20" x="575.244141"/>
      <use xlink:href="#ArialMT-32" x="603.027344"/>
      <use xlink:href="#ArialMT-30" x="658.642578"/>
      <use xlink:href="#ArialMT-75" x="714.257812"/>
      <use xlink:href="#ArialMT-4d" x="769.873047"/>
      <use xlink:href="#ArialMT-5f" x="853.173828"/>
      <use xlink:href="#ArialMT-41" x="908.789062"/>
      <use xlink:href="#ArialMT-62" x="975.488281"/>
      <use xlink:href="#ArialMT-73" x="1031.103516"/>
     </g>
    </g>
    <g id="line2d_37">
     <path d="M 256.255813 62.536434 
L 262.255813 62.536434 
L 268.255813 62.536434 
" style="fill: none; stroke: #e13342; stroke-width: 1.5; stroke-linecap: round"/>
    </g>
    <g id="text_17">
     <!-- t=1hrs FeCl3 20uM_Abs -->
     <g style="fill: #262626" transform="translate(273.055813 64.636434) scale(0.06 -0.06)">
      <use xlink:href="#ArialMT-74"/>
      <use xlink:href="#ArialMT-3d" x="27.783203"/>
      <use xlink:href="#ArialMT-31" x="86.181641"/>
      <use xlink:href="#ArialMT-68" x="141.796875"/>
      <use xlink:href="#ArialMT-72" x="197.412109"/>
      <use xlink:href="#ArialMT-73" x="230.712891"/>
      <use xlink:href="#ArialMT-20" x="280.712891"/>
      <use xlink:href="#ArialMT-46" x="308.496094"/>
      <use xlink:href="#ArialMT-65" x="369.580078"/>
      <use xlink:href="#ArialMT-43" x="425.195312"/>
      <use xlink:href="#ArialMT-6c" x="497.412109"/>
      <use xlink:href="#ArialMT-33" x="519.628906"/>
      <use xlink:href="#ArialMT-20" x="575.244141"/>
      <use xlink:href="#ArialMT-32" x="603.027344"/>
      <use xlink:href="#ArialMT-30" x="658.642578"/>
      <use xlink:href="#ArialMT-75" x="714.257812"/>
      <use xlink:href="#ArialMT-4d" x="769.873047"/>
      <use xlink:href="#ArialMT-5f" x="853.173828"/>
      <use xlink:href="#ArialMT-41" x="908.789062"/>
      <use xlink:href="#ArialMT-62" x="975.488281"/>
      <use xlink:href="#ArialMT-73" x="1031.103516"/>
     </g>
    </g>
    <g id="line2d_38">
     <path d="M 256.255813 71.096747 
L 262.255813 71.096747 
L 268.255813 71.096747 
" style="fill: none; stroke: #ad1759; stroke-width: 1.5; stroke-linecap: round"/>
    </g>
    <g id="text_18">
     <!-- t=3hrs FeCl3 20uM_Abs -->
     <g style="fill: #262626" transform="translate(273.055813 73.196747) scale(0.06 -0.06)">
      <use xlink:href="#ArialMT-74"/>
      <use xlink:href="#ArialMT-3d" x="27.783203"/>
      <use xlink:href="#ArialMT-33" x="86.181641"/>
      <use xlink:href="#ArialMT-68" x="141.796875"/>
      <use xlink:href="#ArialMT-72" x="197.412109"/>
      <use xlink:href="#ArialMT-73" x="230.712891"/>
      <use xlink:href="#ArialMT-20" x="280.712891"/>
      <use xlink:href="#ArialMT-46" x="308.496094"/>
      <use xlink:href="#ArialMT-65" x="369.580078"/>
      <use xlink:href="#ArialMT-43" x="425.195312"/>
      <use xlink:href="#ArialMT-6c" x="497.412109"/>
      <use xlink:href="#ArialMT-33" x="519.628906"/>
      <use xlink:href="#ArialMT-20" x="575.244141"/>
      <use xlink:href="#ArialMT-32" x="603.027344"/>
      <use xlink:href="#ArialMT-30" x="658.642578"/>
      <use xlink:href="#ArialMT-75" x="714.257812"/>
      <use xlink:href="#ArialMT-4d" x="769.873047"/>
      <use xlink:href="#ArialMT-5f" x="853.173828"/>
      <use xlink:href="#ArialMT-41" x="908.789062"/>
      <use xlink:href="#ArialMT-62" x="975.488281"/>
      <use xlink:href="#ArialMT-73" x="1031.103516"/>
     </g>
    </g>
    <g id="line2d_39">
     <path d="M 256.255813 79.657059 
L 262.255813 79.657059 
L 268.255813 79.657059 
" style="fill: none; stroke: #701f57; stroke-width: 1.5; stroke-linecap: round"/>
    </g>
    <g id="text_19">
     <!-- t=5hrs FeCl3 20uM_Abs -->
     <g style="fill: #262626" transform="translate(273.055813 81.757059) scale(0.06 -0.06)">
      <defs>
       <path id="ArialMT-35" d="M 266 1200 
L 856 1250 
Q 922 819 1161 601 
Q 1400 384 1738 384 
Q 2144 384 2425 690 
Q 2706 997 2706 1503 
Q 2706 1984 2436 2262 
Q 2166 2541 1728 2541 
Q 1456 2541 1237 2417 
Q 1019 2294 894 2097 
L 366 2166 
L 809 4519 
L 3088 4519 
L 3088 3981 
L 1259 3981 
L 1013 2750 
Q 1425 3038 1878 3038 
Q 2478 3038 2890 2622 
Q 3303 2206 3303 1553 
Q 3303 931 2941 478 
Q 2500 -78 1738 -78 
Q 1113 -78 717 272 
Q 322 622 266 1200 
z
" transform="scale(0.015625)"/>
      </defs>
      <use xlink:href="#ArialMT-74"/>
      <use xlink:href="#ArialMT-3d" x="27.783203"/>
      <use xlink:href="#ArialMT-35" x="86.181641"/>
      <use xlink:href="#ArialMT-68" x="141.796875"/>
      <use xlink:href="#ArialMT-72" x="197.412109"/>
      <use xlink:href="#ArialMT-73" x="230.712891"/>
      <use xlink:href="#ArialMT-20" x="280.712891"/>
      <use xlink:href="#ArialMT-46" x="308.496094"/>
      <use xlink:href="#ArialMT-65" x="369.580078"/>
      <use xlink:href="#ArialMT-43" x="425.195312"/>
      <use xlink:href="#ArialMT-6c" x="497.412109"/>
      <use xlink:href="#ArialMT-33" x="519.628906"/>
      <use xlink:href="#ArialMT-20" x="575.244141"/>
      <use xlink:href="#ArialMT-32" x="603.027344"/>
      <use xlink:href="#ArialMT-30" x="658.642578"/>
      <use xlink:href="#ArialMT-75" x="714.257812"/>
      <use xlink:href="#ArialMT-4d" x="769.873047"/>
      <use xlink:href="#ArialMT-5f" x="853.173828"/>
      <use xlink:href="#ArialMT-41" x="908.789062"/>
      <use xlink:href="#ArialMT-62" x="975.488281"/>
      <use xlink:href="#ArialMT-73" x="1031.103516"/>
     </g>
    </g>
    <g id="line2d_40">
     <path d="M 256.255813 88.217372 
L 262.255813 88.217372 
L 268.255813 88.217372 
" style="fill: none; stroke: #35193e; stroke-width: 1.5; stroke-linecap: round"/>
    </g>
    <g id="text_20">
     <!-- imine t=24hrs FeCl3 20uM_Abs -->
     <g style="fill: #262626" transform="translate(273.055813 90.317372) scale(0.06 -0.06)">
      <defs>
       <path id="ArialMT-69" d="M 425 3934 
L 425 4581 
L 988 4581 
L 988 3934 
L 425 3934 
z
M 425 0 
L 425 3319 
L 988 3319 
L 988 0 
L 425 0 
z
" transform="scale(0.015625)"/>
      </defs>
      <use xlink:href="#ArialMT-69"/>
      <use xlink:href="#ArialMT-6d" x="22.216797"/>
      <use xlink:href="#ArialMT-69" x="105.517578"/>
      <use xlink:href="#ArialMT-6e" x="127.734375"/>
      <use xlink:href="#ArialMT-65" x="183.349609"/>
      <use xlink:href="#ArialMT-20" x="238.964844"/>
      <use xlink:href="#ArialMT-74" x="266.748047"/>
      <use xlink:href="#ArialMT-3d" x="294.53125"/>
      <use xlink:href="#ArialMT-32" x="352.929688"/>
      <use xlink:href="#ArialMT-34" x="408.544922"/>
      <use xlink:href="#ArialMT-68" x="464.160156"/>
      <use xlink:href="#ArialMT-72" x="519.775391"/>
      <use xlink:href="#ArialMT-73" x="553.076172"/>
      <use xlink:href="#ArialMT-20" x="603.076172"/>
      <use xlink:href="#ArialMT-46" x="630.859375"/>
      <use xlink:href="#ArialMT-65" x="691.943359"/>
      <use xlink:href="#ArialMT-43" x="747.558594"/>
      <use xlink:href="#ArialMT-6c" x="819.775391"/>
      <use xlink:href="#ArialMT-33" x="841.992188"/>
      <use xlink:href="#ArialMT-20" x="897.607422"/>
      <use xlink:href="#ArialMT-32" x="925.390625"/>
      <use xlink:href="#ArialMT-30" x="981.005859"/>
      <use xlink:href="#ArialMT-75" x="1036.621094"/>
      <use xlink:href="#ArialMT-4d" x="1092.236328"/>
      <use xlink:href="#ArialMT-5f" x="1175.537109"/>
      <use xlink:href="#ArialMT-41" x="1231.152344"/>
      <use xlink:href="#ArialMT-62" x="1297.851562"/>
      <use xlink:href="#ArialMT-73" x="1353.466797"/>
     </g>
    </g>
   </g>
  </g>
 </g>
 <defs>
  <clipPath id="p0e1f2b4b94">
   <rect x="41.25125" y="11.136797" width="357.12" height="266.112"/>
  </clipPath>
 </defs>
</svg>
