<?xml version="1.0" encoding="utf-8" standalone="no"?>
<!DOCTYPE svg PUBLIC "-//W3C//DTD SVG 1.1//EN"
  "http://www.w3.org/Graphics/SVG/1.1/DTD/svg11.dtd">
<svg xmlns:xlink="http://www.w3.org/1999/xlink" width="417.805313pt" height="313.269891pt" viewBox="0 0 417.805313 313.269891" xmlns="http://www.w3.org/2000/svg" version="1.1">
 <metadata>
  <rdf:RDF xmlns:dc="http://purl.org/dc/elements/1.1/" xmlns:cc="http://creativecommons.org/ns#" xmlns:rdf="http://www.w3.org/1999/02/22-rdf-syntax-ns#">
   <cc:Work>
    <dc:type rdf:resource="http://purl.org/dc/dcmitype/StillImage"/>
    <dc:date>2024-09-13T09:24:07.382318</dc:date>
    <dc:format>image/svg+xml</dc:format>
    <dc:creator>
     <cc:Agent>
      <dc:title>Matplotlib v3.7.1, https://matplotlib.org/</dc:title>
     </cc:Agent>
    </dc:creator>
   </cc:Work>
  </rdf:RDF>
 </metadata>
 <defs>
  <style type="text/css">*{stroke-linejoin: round; stroke-linecap: butt}</style>
 </defs>
 <g id="figure_1">
  <g id="patch_1">
   <path d="M 0 313.269891 
L 417.805313 313.269891 
L 417.805313 0 
L 0 0 
z
" style="fill: #ffffff"/>
  </g>
  <g id="axes_1">
   <g id="patch_2">
    <path d="M 41.25125 277.248797 
L 398.37125 277.248797 
L 398.37125 11.136797 
L 41.25125 11.136797 
z
" style="fill: #ffffff"/>
   </g>
   <g id="matplotlib.axis_1">
    <g id="xtick_1">
     <g id="line2d_1">
      <defs>
       <path id="mcf32dcc761" d="M 0 0 
L 0 -6 
" style="stroke: #262626; stroke-width: 1.25"/>
      </defs>
      <g>
       <use xlink:href="#mcf32dcc761" x="73.716705" y="277.248797" style="fill: #262626; stroke: #262626; stroke-width: 1.25"/>
      </g>
     </g>
     <g id="text_1">
      <!-- 400 -->
      <g style="fill: #262626" transform="translate(64.541158 288.622391) scale(0.11 -0.11)">
       <defs>
        <path id="ArialMT-34" d="M 2069 0 
L 2069 1097 
L 81 1097 
L 81 1613 
L 2172 4581 
L 2631 4581 
L 2631 1613 
L 3250 1613 
L 3250 1097 
L 2631 1097 
L 2631 0 
L 2069 0 
z
M 2069 1613 
L 2069 3678 
L 634 1613 
L 2069 1613 
z
" transform="scale(0.015625)"/>
        <path id="ArialMT-30" d="M 266 2259 
Q 266 3072 433 3567 
Q 600 4063 929 4331 
Q 1259 4600 1759 4600 
Q 2128 4600 2406 4451 
Q 2684 4303 2865 4023 
Q 3047 3744 3150 3342 
Q 3253 2941 3253 2259 
Q 3253 1453 3087 958 
Q 2922 463 2592 192 
Q 2263 -78 1759 -78 
Q 1097 -78 719 397 
Q 266 969 266 2259 
z
M 844 2259 
Q 844 1131 1108 757 
Q 1372 384 1759 384 
Q 2147 384 2411 759 
Q 2675 1134 2675 2259 
Q 2675 3391 2411 3762 
Q 2147 4134 1753 4134 
Q 1366 4134 1134 3806 
Q 844 3388 844 2259 
z
" transform="scale(0.015625)"/>
       </defs>
       <use xlink:href="#ArialMT-34"/>
       <use xlink:href="#ArialMT-30" x="55.615234"/>
       <use xlink:href="#ArialMT-30" x="111.230469"/>
      </g>
     </g>
    </g>
    <g id="xtick_2">
     <g id="line2d_2">
      <g>
       <use xlink:href="#mcf32dcc761" x="138.647614" y="277.248797" style="fill: #262626; stroke: #262626; stroke-width: 1.25"/>
      </g>
     </g>
     <g id="text_2">
      <!-- 600 -->
      <g style="fill: #262626" transform="translate(129.472067 288.622391) scale(0.11 -0.11)">
       <defs>
        <path id="ArialMT-36" d="M 3184 3459 
L 2625 3416 
Q 2550 3747 2413 3897 
Q 2184 4138 1850 4138 
Q 1581 4138 1378 3988 
Q 1113 3794 959 3422 
Q 806 3050 800 2363 
Q 1003 2672 1297 2822 
Q 1591 2972 1913 2972 
Q 2475 2972 2870 2558 
Q 3266 2144 3266 1488 
Q 3266 1056 3080 686 
Q 2894 316 2569 119 
Q 2244 -78 1831 -78 
Q 1128 -78 684 439 
Q 241 956 241 2144 
Q 241 3472 731 4075 
Q 1159 4600 1884 4600 
Q 2425 4600 2770 4297 
Q 3116 3994 3184 3459 
z
M 888 1484 
Q 888 1194 1011 928 
Q 1134 663 1356 523 
Q 1578 384 1822 384 
Q 2178 384 2434 671 
Q 2691 959 2691 1453 
Q 2691 1928 2437 2201 
Q 2184 2475 1800 2475 
Q 1419 2475 1153 2201 
Q 888 1928 888 1484 
z
" transform="scale(0.015625)"/>
       </defs>
       <use xlink:href="#ArialMT-36"/>
       <use xlink:href="#ArialMT-30" x="55.615234"/>
       <use xlink:href="#ArialMT-30" x="111.230469"/>
      </g>
     </g>
    </g>
    <g id="xtick_3">
     <g id="line2d_3">
      <g>
       <use xlink:href="#mcf32dcc761" x="203.578523" y="277.248797" style="fill: #262626; stroke: #262626; stroke-width: 1.25"/>
      </g>
     </g>
     <g id="text_3">
      <!-- 800 -->
      <g style="fill: #262626" transform="translate(194.402976 288.622391) scale(0.11 -0.11)">
       <defs>
        <path id="ArialMT-38" d="M 1131 2484 
Q 781 2613 612 2850 
Q 444 3088 444 3419 
Q 444 3919 803 4259 
Q 1163 4600 1759 4600 
Q 2359 4600 2725 4251 
Q 3091 3903 3091 3403 
Q 3091 3084 2923 2848 
Q 2756 2613 2416 2484 
Q 2838 2347 3058 2040 
Q 3278 1734 3278 1309 
Q 3278 722 2862 322 
Q 2447 -78 1769 -78 
Q 1091 -78 675 323 
Q 259 725 259 1325 
Q 259 1772 486 2073 
Q 713 2375 1131 2484 
z
M 1019 3438 
Q 1019 3113 1228 2906 
Q 1438 2700 1772 2700 
Q 2097 2700 2305 2904 
Q 2513 3109 2513 3406 
Q 2513 3716 2298 3927 
Q 2084 4138 1766 4138 
Q 1444 4138 1231 3931 
Q 1019 3725 1019 3438 
z
M 838 1322 
Q 838 1081 952 856 
Q 1066 631 1291 507 
Q 1516 384 1775 384 
Q 2178 384 2440 643 
Q 2703 903 2703 1303 
Q 2703 1709 2433 1975 
Q 2163 2241 1756 2241 
Q 1359 2241 1098 1978 
Q 838 1716 838 1322 
z
" transform="scale(0.015625)"/>
       </defs>
       <use xlink:href="#ArialMT-38"/>
       <use xlink:href="#ArialMT-30" x="55.615234"/>
       <use xlink:href="#ArialMT-30" x="111.230469"/>
      </g>
     </g>
    </g>
    <g id="xtick_4">
     <g id="line2d_4">
      <g>
       <use xlink:href="#mcf32dcc761" x="268.509432" y="277.248797" style="fill: #262626; stroke: #262626; stroke-width: 1.25"/>
      </g>
     </g>
     <g id="text_4">
      <!-- 1000 -->
      <g style="fill: #262626" transform="translate(256.275369 288.622391) scale(0.11 -0.11)">
       <defs>
        <path id="ArialMT-31" d="M 2384 0 
L 1822 0 
L 1822 3584 
Q 1619 3391 1289 3197 
Q 959 3003 697 2906 
L 697 3450 
Q 1169 3672 1522 3987 
Q 1875 4303 2022 4600 
L 2384 4600 
L 2384 0 
z
" transform="scale(0.015625)"/>
       </defs>
       <use xlink:href="#ArialMT-31"/>
       <use xlink:href="#ArialMT-30" x="55.615234"/>
       <use xlink:href="#ArialMT-30" x="111.230469"/>
       <use xlink:href="#ArialMT-30" x="166.845703"/>
      </g>
     </g>
    </g>
    <g id="xtick_5">
     <g id="line2d_5">
      <g>
       <use xlink:href="#mcf32dcc761" x="333.440341" y="277.248797" style="fill: #262626; stroke: #262626; stroke-width: 1.25"/>
      </g>
     </g>
     <g id="text_5">
      <!-- 1200 -->
      <g style="fill: #262626" transform="translate(321.206278 288.622391) scale(0.11 -0.11)">
       <defs>
        <path id="ArialMT-32" d="M 3222 541 
L 3222 0 
L 194 0 
Q 188 203 259 391 
Q 375 700 629 1000 
Q 884 1300 1366 1694 
Q 2113 2306 2375 2664 
Q 2638 3022 2638 3341 
Q 2638 3675 2398 3904 
Q 2159 4134 1775 4134 
Q 1369 4134 1125 3890 
Q 881 3647 878 3216 
L 300 3275 
Q 359 3922 746 4261 
Q 1134 4600 1788 4600 
Q 2447 4600 2831 4234 
Q 3216 3869 3216 3328 
Q 3216 3053 3103 2787 
Q 2991 2522 2730 2228 
Q 2469 1934 1863 1422 
Q 1356 997 1212 845 
Q 1069 694 975 541 
L 3222 541 
z
" transform="scale(0.015625)"/>
       </defs>
       <use xlink:href="#ArialMT-31"/>
       <use xlink:href="#ArialMT-32" x="55.615234"/>
       <use xlink:href="#ArialMT-30" x="111.230469"/>
       <use xlink:href="#ArialMT-30" x="166.845703"/>
      </g>
     </g>
    </g>
    <g id="xtick_6">
     <g id="line2d_6">
      <g>
       <use xlink:href="#mcf32dcc761" x="398.37125" y="277.248797" style="fill: #262626; stroke: #262626; stroke-width: 1.25"/>
      </g>
     </g>
     <g id="text_6">
      <!-- 1400 -->
      <g style="fill: #262626" transform="translate(386.137188 288.622391) scale(0.11 -0.11)">
       <use xlink:href="#ArialMT-31"/>
       <use xlink:href="#ArialMT-34" x="55.615234"/>
       <use xlink:href="#ArialMT-30" x="111.230469"/>
       <use xlink:href="#ArialMT-30" x="166.845703"/>
      </g>
     </g>
    </g>
    <g id="xtick_7">
     <g id="line2d_7">
      <defs>
       <path id="mcc8da23675" d="M 0 0 
L 0 -4 
" style="stroke: #262626"/>
      </defs>
      <g>
       <use xlink:href="#mcc8da23675" x="106.182159" y="277.248797" style="fill: #262626; stroke: #262626"/>
      </g>
     </g>
    </g>
    <g id="xtick_8">
     <g id="line2d_8">
      <g>
       <use xlink:href="#mcc8da23675" x="171.113068" y="277.248797" style="fill: #262626; stroke: #262626"/>
      </g>
     </g>
    </g>
    <g id="xtick_9">
     <g id="line2d_9">
      <g>
       <use xlink:href="#mcc8da23675" x="236.043977" y="277.248797" style="fill: #262626; stroke: #262626"/>
      </g>
     </g>
    </g>
    <g id="xtick_10">
     <g id="line2d_10">
      <g>
       <use xlink:href="#mcc8da23675" x="300.974886" y="277.248797" style="fill: #262626; stroke: #262626"/>
      </g>
     </g>
    </g>
    <g id="xtick_11">
     <g id="line2d_11">
      <g>
       <use xlink:href="#mcc8da23675" x="365.905795" y="277.248797" style="fill: #262626; stroke: #262626"/>
      </g>
     </g>
    </g>
    <g id="text_7">
     <!-- Wavelength (nm) -->
     <g style="fill: #262626" transform="translate(174.356562 303.544266) scale(0.12 -0.12)">
      <defs>
       <path id="ArialMT-57" d="M 1294 0 
L 78 4581 
L 700 4581 
L 1397 1578 
Q 1509 1106 1591 641 
Q 1766 1375 1797 1488 
L 2669 4581 
L 3400 4581 
L 4056 2263 
Q 4303 1400 4413 641 
Q 4500 1075 4641 1638 
L 5359 4581 
L 5969 4581 
L 4713 0 
L 4128 0 
L 3163 3491 
Q 3041 3928 3019 4028 
Q 2947 3713 2884 3491 
L 1913 0 
L 1294 0 
z
" transform="scale(0.015625)"/>
       <path id="ArialMT-61" d="M 2588 409 
Q 2275 144 1986 34 
Q 1697 -75 1366 -75 
Q 819 -75 525 192 
Q 231 459 231 875 
Q 231 1119 342 1320 
Q 453 1522 633 1644 
Q 813 1766 1038 1828 
Q 1203 1872 1538 1913 
Q 2219 1994 2541 2106 
Q 2544 2222 2544 2253 
Q 2544 2597 2384 2738 
Q 2169 2928 1744 2928 
Q 1347 2928 1158 2789 
Q 969 2650 878 2297 
L 328 2372 
Q 403 2725 575 2942 
Q 747 3159 1072 3276 
Q 1397 3394 1825 3394 
Q 2250 3394 2515 3294 
Q 2781 3194 2906 3042 
Q 3031 2891 3081 2659 
Q 3109 2516 3109 2141 
L 3109 1391 
Q 3109 606 3145 398 
Q 3181 191 3288 0 
L 2700 0 
Q 2613 175 2588 409 
z
M 2541 1666 
Q 2234 1541 1622 1453 
Q 1275 1403 1131 1340 
Q 988 1278 909 1158 
Q 831 1038 831 891 
Q 831 666 1001 516 
Q 1172 366 1500 366 
Q 1825 366 2078 508 
Q 2331 650 2450 897 
Q 2541 1088 2541 1459 
L 2541 1666 
z
" transform="scale(0.015625)"/>
       <path id="ArialMT-76" d="M 1344 0 
L 81 3319 
L 675 3319 
L 1388 1331 
Q 1503 1009 1600 663 
Q 1675 925 1809 1294 
L 2547 3319 
L 3125 3319 
L 1869 0 
L 1344 0 
z
" transform="scale(0.015625)"/>
       <path id="ArialMT-65" d="M 2694 1069 
L 3275 997 
Q 3138 488 2766 206 
Q 2394 -75 1816 -75 
Q 1088 -75 661 373 
Q 234 822 234 1631 
Q 234 2469 665 2931 
Q 1097 3394 1784 3394 
Q 2450 3394 2872 2941 
Q 3294 2488 3294 1666 
Q 3294 1616 3291 1516 
L 816 1516 
Q 847 969 1125 678 
Q 1403 388 1819 388 
Q 2128 388 2347 550 
Q 2566 713 2694 1069 
z
M 847 1978 
L 2700 1978 
Q 2663 2397 2488 2606 
Q 2219 2931 1791 2931 
Q 1403 2931 1139 2672 
Q 875 2413 847 1978 
z
" transform="scale(0.015625)"/>
       <path id="ArialMT-6c" d="M 409 0 
L 409 4581 
L 972 4581 
L 972 0 
L 409 0 
z
" transform="scale(0.015625)"/>
       <path id="ArialMT-6e" d="M 422 0 
L 422 3319 
L 928 3319 
L 928 2847 
Q 1294 3394 1984 3394 
Q 2284 3394 2536 3286 
Q 2788 3178 2913 3003 
Q 3038 2828 3088 2588 
Q 3119 2431 3119 2041 
L 3119 0 
L 2556 0 
L 2556 2019 
Q 2556 2363 2490 2533 
Q 2425 2703 2258 2804 
Q 2091 2906 1866 2906 
Q 1506 2906 1245 2678 
Q 984 2450 984 1813 
L 984 0 
L 422 0 
z
" transform="scale(0.015625)"/>
       <path id="ArialMT-67" d="M 319 -275 
L 866 -356 
Q 900 -609 1056 -725 
Q 1266 -881 1628 -881 
Q 2019 -881 2231 -725 
Q 2444 -569 2519 -288 
Q 2563 -116 2559 434 
Q 2191 0 1641 0 
Q 956 0 581 494 
Q 206 988 206 1678 
Q 206 2153 378 2554 
Q 550 2956 876 3175 
Q 1203 3394 1644 3394 
Q 2231 3394 2613 2919 
L 2613 3319 
L 3131 3319 
L 3131 450 
Q 3131 -325 2973 -648 
Q 2816 -972 2473 -1159 
Q 2131 -1347 1631 -1347 
Q 1038 -1347 672 -1080 
Q 306 -813 319 -275 
z
M 784 1719 
Q 784 1066 1043 766 
Q 1303 466 1694 466 
Q 2081 466 2343 764 
Q 2606 1063 2606 1700 
Q 2606 2309 2336 2618 
Q 2066 2928 1684 2928 
Q 1309 2928 1046 2623 
Q 784 2319 784 1719 
z
" transform="scale(0.015625)"/>
       <path id="ArialMT-74" d="M 1650 503 
L 1731 6 
Q 1494 -44 1306 -44 
Q 1000 -44 831 53 
Q 663 150 594 308 
Q 525 466 525 972 
L 525 2881 
L 113 2881 
L 113 3319 
L 525 3319 
L 525 4141 
L 1084 4478 
L 1084 3319 
L 1650 3319 
L 1650 2881 
L 1084 2881 
L 1084 941 
Q 1084 700 1114 631 
Q 1144 563 1211 522 
Q 1278 481 1403 481 
Q 1497 481 1650 503 
z
" transform="scale(0.015625)"/>
       <path id="ArialMT-68" d="M 422 0 
L 422 4581 
L 984 4581 
L 984 2938 
Q 1378 3394 1978 3394 
Q 2347 3394 2619 3248 
Q 2891 3103 3008 2847 
Q 3125 2591 3125 2103 
L 3125 0 
L 2563 0 
L 2563 2103 
Q 2563 2525 2380 2717 
Q 2197 2909 1863 2909 
Q 1613 2909 1392 2779 
Q 1172 2650 1078 2428 
Q 984 2206 984 1816 
L 984 0 
L 422 0 
z
" transform="scale(0.015625)"/>
       <path id="ArialMT-20" transform="scale(0.015625)"/>
       <path id="ArialMT-28" d="M 1497 -1347 
Q 1031 -759 709 28 
Q 388 816 388 1659 
Q 388 2403 628 3084 
Q 909 3875 1497 4659 
L 1900 4659 
Q 1522 4009 1400 3731 
Q 1209 3300 1100 2831 
Q 966 2247 966 1656 
Q 966 153 1900 -1347 
L 1497 -1347 
z
" transform="scale(0.015625)"/>
       <path id="ArialMT-6d" d="M 422 0 
L 422 3319 
L 925 3319 
L 925 2853 
Q 1081 3097 1340 3245 
Q 1600 3394 1931 3394 
Q 2300 3394 2536 3241 
Q 2772 3088 2869 2813 
Q 3263 3394 3894 3394 
Q 4388 3394 4653 3120 
Q 4919 2847 4919 2278 
L 4919 0 
L 4359 0 
L 4359 2091 
Q 4359 2428 4304 2576 
Q 4250 2725 4106 2815 
Q 3963 2906 3769 2906 
Q 3419 2906 3187 2673 
Q 2956 2441 2956 1928 
L 2956 0 
L 2394 0 
L 2394 2156 
Q 2394 2531 2256 2718 
Q 2119 2906 1806 2906 
Q 1569 2906 1367 2781 
Q 1166 2656 1075 2415 
Q 984 2175 984 1722 
L 984 0 
L 422 0 
z
" transform="scale(0.015625)"/>
       <path id="ArialMT-29" d="M 791 -1347 
L 388 -1347 
Q 1322 153 1322 1656 
Q 1322 2244 1188 2822 
Q 1081 3291 891 3722 
Q 769 4003 388 4659 
L 791 4659 
Q 1378 3875 1659 3084 
Q 1900 2403 1900 1659 
Q 1900 816 1576 28 
Q 1253 -759 791 -1347 
z
" transform="scale(0.015625)"/>
      </defs>
      <use xlink:href="#ArialMT-57"/>
      <use xlink:href="#ArialMT-61" x="90.634766"/>
      <use xlink:href="#ArialMT-76" x="146.25"/>
      <use xlink:href="#ArialMT-65" x="196.25"/>
      <use xlink:href="#ArialMT-6c" x="251.865234"/>
      <use xlink:href="#ArialMT-65" x="274.082031"/>
      <use xlink:href="#ArialMT-6e" x="329.697266"/>
      <use xlink:href="#ArialMT-67" x="385.3125"/>
      <use xlink:href="#ArialMT-74" x="440.927734"/>
      <use xlink:href="#ArialMT-68" x="468.710938"/>
      <use xlink:href="#ArialMT-20" x="524.326172"/>
      <use xlink:href="#ArialMT-28" x="552.109375"/>
      <use xlink:href="#ArialMT-6e" x="585.410156"/>
      <use xlink:href="#ArialMT-6d" x="641.025391"/>
      <use xlink:href="#ArialMT-29" x="724.326172"/>
     </g>
    </g>
   </g>
   <g id="matplotlib.axis_2">
    <g id="ytick_1">
     <g id="line2d_12">
      <defs>
       <path id="m4f695e20c9" d="M 0 0 
L 6 0 
" style="stroke: #262626; stroke-width: 1.25"/>
      </defs>
      <g>
       <use xlink:href="#m4f695e20c9" x="41.25125" y="277.248797" style="fill: #262626; stroke: #262626; stroke-width: 1.25"/>
      </g>
     </g>
     <g id="text_8">
      <!-- 0.0 -->
      <g style="fill: #262626" transform="translate(22.46125 281.185594) scale(0.11 -0.11)">
       <defs>
        <path id="ArialMT-2e" d="M 581 0 
L 581 641 
L 1222 641 
L 1222 0 
L 581 0 
z
" transform="scale(0.015625)"/>
       </defs>
       <use xlink:href="#ArialMT-30"/>
       <use xlink:href="#ArialMT-2e" x="55.615234"/>
       <use xlink:href="#ArialMT-30" x="83.398438"/>
      </g>
     </g>
    </g>
    <g id="ytick_2">
     <g id="line2d_13">
      <g>
       <use xlink:href="#m4f695e20c9" x="41.25125" y="247.680797" style="fill: #262626; stroke: #262626; stroke-width: 1.25"/>
      </g>
     </g>
     <g id="text_9">
      <!-- 0.1 -->
      <g style="fill: #262626" transform="translate(22.46125 251.617594) scale(0.11 -0.11)">
       <use xlink:href="#ArialMT-30"/>
       <use xlink:href="#ArialMT-2e" x="55.615234"/>
       <use xlink:href="#ArialMT-31" x="83.398438"/>
      </g>
     </g>
    </g>
    <g id="ytick_3">
     <g id="line2d_14">
      <g>
       <use xlink:href="#m4f695e20c9" x="41.25125" y="218.112797" style="fill: #262626; stroke: #262626; stroke-width: 1.25"/>
      </g>
     </g>
     <g id="text_10">
      <!-- 0.2 -->
      <g style="fill: #262626" transform="translate(22.46125 222.049594) scale(0.11 -0.11)">
       <use xlink:href="#ArialMT-30"/>
       <use xlink:href="#ArialMT-2e" x="55.615234"/>
       <use xlink:href="#ArialMT-32" x="83.398438"/>
      </g>
     </g>
    </g>
    <g id="ytick_4">
     <g id="line2d_15">
      <g>
       <use xlink:href="#m4f695e20c9" x="41.25125" y="188.544797" style="fill: #262626; stroke: #262626; stroke-width: 1.25"/>
      </g>
     </g>
     <g id="text_11">
      <!-- 0.3 -->
      <g style="fill: #262626" transform="translate(22.46125 192.481594) scale(0.11 -0.11)">
       <defs>
        <path id="ArialMT-33" d="M 269 1209 
L 831 1284 
Q 928 806 1161 595 
Q 1394 384 1728 384 
Q 2125 384 2398 659 
Q 2672 934 2672 1341 
Q 2672 1728 2419 1979 
Q 2166 2231 1775 2231 
Q 1616 2231 1378 2169 
L 1441 2663 
Q 1497 2656 1531 2656 
Q 1891 2656 2178 2843 
Q 2466 3031 2466 3422 
Q 2466 3731 2256 3934 
Q 2047 4138 1716 4138 
Q 1388 4138 1169 3931 
Q 950 3725 888 3313 
L 325 3413 
Q 428 3978 793 4289 
Q 1159 4600 1703 4600 
Q 2078 4600 2393 4439 
Q 2709 4278 2876 4000 
Q 3044 3722 3044 3409 
Q 3044 3113 2884 2869 
Q 2725 2625 2413 2481 
Q 2819 2388 3044 2092 
Q 3269 1797 3269 1353 
Q 3269 753 2831 336 
Q 2394 -81 1725 -81 
Q 1122 -81 723 278 
Q 325 638 269 1209 
z
" transform="scale(0.015625)"/>
       </defs>
       <use xlink:href="#ArialMT-30"/>
       <use xlink:href="#ArialMT-2e" x="55.615234"/>
       <use xlink:href="#ArialMT-33" x="83.398438"/>
      </g>
     </g>
    </g>
    <g id="ytick_5">
     <g id="line2d_16">
      <g>
       <use xlink:href="#m4f695e20c9" x="41.25125" y="158.976797" style="fill: #262626; stroke: #262626; stroke-width: 1.25"/>
      </g>
     </g>
     <g id="text_12">
      <!-- 0.4 -->
      <g style="fill: #262626" transform="translate(22.46125 162.913594) scale(0.11 -0.11)">
       <use xlink:href="#ArialMT-30"/>
       <use xlink:href="#ArialMT-2e" x="55.615234"/>
       <use xlink:href="#ArialMT-34" x="83.398438"/>
      </g>
     </g>
    </g>
    <g id="ytick_6">
     <g id="line2d_17">
      <g>
       <use xlink:href="#m4f695e20c9" x="41.25125" y="129.408797" style="fill: #262626; stroke: #262626; stroke-width: 1.25"/>
      </g>
     </g>
     <g id="text_13">
      <!-- 0.5 -->
      <g style="fill: #262626" transform="translate(22.46125 133.345594) scale(0.11 -0.11)">
       <defs>
        <path id="ArialMT-35" d="M 266 1200 
L 856 1250 
Q 922 819 1161 601 
Q 1400 384 1738 384 
Q 2144 384 2425 690 
Q 2706 997 2706 1503 
Q 2706 1984 2436 2262 
Q 2166 2541 1728 2541 
Q 1456 2541 1237 2417 
Q 1019 2294 894 2097 
L 366 2166 
L 809 4519 
L 3088 4519 
L 3088 3981 
L 1259 3981 
L 1013 2750 
Q 1425 3038 1878 3038 
Q 2478 3038 2890 2622 
Q 3303 2206 3303 1553 
Q 3303 931 2941 478 
Q 2500 -78 1738 -78 
Q 1113 -78 717 272 
Q 322 622 266 1200 
z
" transform="scale(0.015625)"/>
       </defs>
       <use xlink:href="#ArialMT-30"/>
       <use xlink:href="#ArialMT-2e" x="55.615234"/>
       <use xlink:href="#ArialMT-35" x="83.398438"/>
      </g>
     </g>
    </g>
    <g id="ytick_7">
     <g id="line2d_18">
      <g>
       <use xlink:href="#m4f695e20c9" x="41.25125" y="99.840797" style="fill: #262626; stroke: #262626; stroke-width: 1.25"/>
      </g>
     </g>
     <g id="text_14">
      <!-- 0.6 -->
      <g style="fill: #262626" transform="translate(22.46125 103.777594) scale(0.11 -0.11)">
       <use xlink:href="#ArialMT-30"/>
       <use xlink:href="#ArialMT-2e" x="55.615234"/>
       <use xlink:href="#ArialMT-36" x="83.398438"/>
      </g>
     </g>
    </g>
    <g id="ytick_8">
     <g id="line2d_19">
      <g>
       <use xlink:href="#m4f695e20c9" x="41.25125" y="70.272797" style="fill: #262626; stroke: #262626; stroke-width: 1.25"/>
      </g>
     </g>
     <g id="text_15">
      <!-- 0.7 -->
      <g style="fill: #262626" transform="translate(22.46125 74.209594) scale(0.11 -0.11)">
       <defs>
        <path id="ArialMT-37" d="M 303 3981 
L 303 4522 
L 3269 4522 
L 3269 4084 
Q 2831 3619 2401 2847 
Q 1972 2075 1738 1259 
Q 1569 684 1522 0 
L 944 0 
Q 953 541 1156 1306 
Q 1359 2072 1739 2783 
Q 2119 3494 2547 3981 
L 303 3981 
z
" transform="scale(0.015625)"/>
       </defs>
       <use xlink:href="#ArialMT-30"/>
       <use xlink:href="#ArialMT-2e" x="55.615234"/>
       <use xlink:href="#ArialMT-37" x="83.398438"/>
      </g>
     </g>
    </g>
    <g id="ytick_9">
     <g id="line2d_20">
      <g>
       <use xlink:href="#m4f695e20c9" x="41.25125" y="40.704797" style="fill: #262626; stroke: #262626; stroke-width: 1.25"/>
      </g>
     </g>
     <g id="text_16">
      <!-- 0.8 -->
      <g style="fill: #262626" transform="translate(22.46125 44.641594) scale(0.11 -0.11)">
       <use xlink:href="#ArialMT-30"/>
       <use xlink:href="#ArialMT-2e" x="55.615234"/>
       <use xlink:href="#ArialMT-38" x="83.398438"/>
      </g>
     </g>
    </g>
    <g id="ytick_10">
     <g id="line2d_21">
      <g>
       <use xlink:href="#m4f695e20c9" x="41.25125" y="11.136797" style="fill: #262626; stroke: #262626; stroke-width: 1.25"/>
      </g>
     </g>
     <g id="text_17">
      <!-- 0.9 -->
      <g style="fill: #262626" transform="translate(22.46125 15.073594) scale(0.11 -0.11)">
       <defs>
        <path id="ArialMT-39" d="M 350 1059 
L 891 1109 
Q 959 728 1153 556 
Q 1347 384 1650 384 
Q 1909 384 2104 503 
Q 2300 622 2425 820 
Q 2550 1019 2634 1356 
Q 2719 1694 2719 2044 
Q 2719 2081 2716 2156 
Q 2547 1888 2255 1720 
Q 1963 1553 1622 1553 
Q 1053 1553 659 1965 
Q 266 2378 266 3053 
Q 266 3750 677 4175 
Q 1088 4600 1706 4600 
Q 2153 4600 2523 4359 
Q 2894 4119 3086 3673 
Q 3278 3228 3278 2384 
Q 3278 1506 3087 986 
Q 2897 466 2520 194 
Q 2144 -78 1638 -78 
Q 1100 -78 759 220 
Q 419 519 350 1059 
z
M 2653 3081 
Q 2653 3566 2395 3850 
Q 2138 4134 1775 4134 
Q 1400 4134 1122 3828 
Q 844 3522 844 3034 
Q 844 2597 1108 2323 
Q 1372 2050 1759 2050 
Q 2150 2050 2401 2323 
Q 2653 2597 2653 3081 
z
" transform="scale(0.015625)"/>
       </defs>
       <use xlink:href="#ArialMT-30"/>
       <use xlink:href="#ArialMT-2e" x="55.615234"/>
       <use xlink:href="#ArialMT-39" x="83.398438"/>
      </g>
     </g>
    </g>
    <g id="ytick_11">
     <g id="line2d_22">
      <defs>
       <path id="mf263210c40" d="M 0 0 
L 4 0 
" style="stroke: #262626"/>
      </defs>
      <g>
       <use xlink:href="#mf263210c40" x="41.25125" y="262.464797" style="fill: #262626; stroke: #262626"/>
      </g>
     </g>
    </g>
    <g id="ytick_12">
     <g id="line2d_23">
      <g>
       <use xlink:href="#mf263210c40" x="41.25125" y="232.896797" style="fill: #262626; stroke: #262626"/>
      </g>
     </g>
    </g>
    <g id="ytick_13">
     <g id="line2d_24">
      <g>
       <use xlink:href="#mf263210c40" x="41.25125" y="203.328797" style="fill: #262626; stroke: #262626"/>
      </g>
     </g>
    </g>
    <g id="ytick_14">
     <g id="line2d_25">
      <g>
       <use xlink:href="#mf263210c40" x="41.25125" y="173.760797" style="fill: #262626; stroke: #262626"/>
      </g>
     </g>
    </g>
    <g id="ytick_15">
     <g id="line2d_26">
      <g>
       <use xlink:href="#mf263210c40" x="41.25125" y="144.192797" style="fill: #262626; stroke: #262626"/>
      </g>
     </g>
    </g>
    <g id="ytick_16">
     <g id="line2d_27">
      <g>
       <use xlink:href="#mf263210c40" x="41.25125" y="114.624797" style="fill: #262626; stroke: #262626"/>
      </g>
     </g>
    </g>
    <g id="ytick_17">
     <g id="line2d_28">
      <g>
       <use xlink:href="#mf263210c40" x="41.25125" y="85.056797" style="fill: #262626; stroke: #262626"/>
      </g>
     </g>
    </g>
    <g id="ytick_18">
     <g id="line2d_29">
      <g>
       <use xlink:href="#mf263210c40" x="41.25125" y="55.488797" style="fill: #262626; stroke: #262626"/>
      </g>
     </g>
    </g>
    <g id="ytick_19">
     <g id="line2d_30">
      <g>
       <use xlink:href="#mf263210c40" x="41.25125" y="25.920797" style="fill: #262626; stroke: #262626"/>
      </g>
     </g>
    </g>
    <g id="text_18">
     <!-- Absorbance (a.u.) -->
     <g style="fill: #262626" transform="translate(15.935625 191.881547) rotate(-90) scale(0.12 -0.12)">
      <defs>
       <path id="ArialMT-41" d="M -9 0 
L 1750 4581 
L 2403 4581 
L 4278 0 
L 3588 0 
L 3053 1388 
L 1138 1388 
L 634 0 
L -9 0 
z
M 1313 1881 
L 2866 1881 
L 2388 3150 
Q 2169 3728 2063 4100 
Q 1975 3659 1816 3225 
L 1313 1881 
z
" transform="scale(0.015625)"/>
       <path id="ArialMT-62" d="M 941 0 
L 419 0 
L 419 4581 
L 981 4581 
L 981 2947 
Q 1338 3394 1891 3394 
Q 2197 3394 2470 3270 
Q 2744 3147 2920 2923 
Q 3097 2700 3197 2384 
Q 3297 2069 3297 1709 
Q 3297 856 2875 390 
Q 2453 -75 1863 -75 
Q 1275 -75 941 416 
L 941 0 
z
M 934 1684 
Q 934 1088 1097 822 
Q 1363 388 1816 388 
Q 2184 388 2453 708 
Q 2722 1028 2722 1663 
Q 2722 2313 2464 2622 
Q 2206 2931 1841 2931 
Q 1472 2931 1203 2611 
Q 934 2291 934 1684 
z
" transform="scale(0.015625)"/>
       <path id="ArialMT-73" d="M 197 991 
L 753 1078 
Q 800 744 1014 566 
Q 1228 388 1613 388 
Q 2000 388 2187 545 
Q 2375 703 2375 916 
Q 2375 1106 2209 1216 
Q 2094 1291 1634 1406 
Q 1016 1563 777 1677 
Q 538 1791 414 1992 
Q 291 2194 291 2438 
Q 291 2659 392 2848 
Q 494 3038 669 3163 
Q 800 3259 1026 3326 
Q 1253 3394 1513 3394 
Q 1903 3394 2198 3281 
Q 2494 3169 2634 2976 
Q 2775 2784 2828 2463 
L 2278 2388 
Q 2241 2644 2061 2787 
Q 1881 2931 1553 2931 
Q 1166 2931 1000 2803 
Q 834 2675 834 2503 
Q 834 2394 903 2306 
Q 972 2216 1119 2156 
Q 1203 2125 1616 2013 
Q 2213 1853 2448 1751 
Q 2684 1650 2818 1456 
Q 2953 1263 2953 975 
Q 2953 694 2789 445 
Q 2625 197 2315 61 
Q 2006 -75 1616 -75 
Q 969 -75 630 194 
Q 291 463 197 991 
z
" transform="scale(0.015625)"/>
       <path id="ArialMT-6f" d="M 213 1659 
Q 213 2581 725 3025 
Q 1153 3394 1769 3394 
Q 2453 3394 2887 2945 
Q 3322 2497 3322 1706 
Q 3322 1066 3130 698 
Q 2938 331 2570 128 
Q 2203 -75 1769 -75 
Q 1072 -75 642 372 
Q 213 819 213 1659 
z
M 791 1659 
Q 791 1022 1069 705 
Q 1347 388 1769 388 
Q 2188 388 2466 706 
Q 2744 1025 2744 1678 
Q 2744 2294 2464 2611 
Q 2184 2928 1769 2928 
Q 1347 2928 1069 2612 
Q 791 2297 791 1659 
z
" transform="scale(0.015625)"/>
       <path id="ArialMT-72" d="M 416 0 
L 416 3319 
L 922 3319 
L 922 2816 
Q 1116 3169 1280 3281 
Q 1444 3394 1641 3394 
Q 1925 3394 2219 3213 
L 2025 2691 
Q 1819 2813 1613 2813 
Q 1428 2813 1281 2702 
Q 1134 2591 1072 2394 
Q 978 2094 978 1738 
L 978 0 
L 416 0 
z
" transform="scale(0.015625)"/>
       <path id="ArialMT-63" d="M 2588 1216 
L 3141 1144 
Q 3050 572 2676 248 
Q 2303 -75 1759 -75 
Q 1078 -75 664 370 
Q 250 816 250 1647 
Q 250 2184 428 2587 
Q 606 2991 970 3192 
Q 1334 3394 1763 3394 
Q 2303 3394 2647 3120 
Q 2991 2847 3088 2344 
L 2541 2259 
Q 2463 2594 2264 2762 
Q 2066 2931 1784 2931 
Q 1359 2931 1093 2626 
Q 828 2322 828 1663 
Q 828 994 1084 691 
Q 1341 388 1753 388 
Q 2084 388 2306 591 
Q 2528 794 2588 1216 
z
" transform="scale(0.015625)"/>
       <path id="ArialMT-75" d="M 2597 0 
L 2597 488 
Q 2209 -75 1544 -75 
Q 1250 -75 995 37 
Q 741 150 617 320 
Q 494 491 444 738 
Q 409 903 409 1263 
L 409 3319 
L 972 3319 
L 972 1478 
Q 972 1038 1006 884 
Q 1059 663 1231 536 
Q 1403 409 1656 409 
Q 1909 409 2131 539 
Q 2353 669 2445 892 
Q 2538 1116 2538 1541 
L 2538 3319 
L 3100 3319 
L 3100 0 
L 2597 0 
z
" transform="scale(0.015625)"/>
      </defs>
      <use xlink:href="#ArialMT-41"/>
      <use xlink:href="#ArialMT-62" x="66.699219"/>
      <use xlink:href="#ArialMT-73" x="122.314453"/>
      <use xlink:href="#ArialMT-6f" x="172.314453"/>
      <use xlink:href="#ArialMT-72" x="227.929688"/>
      <use xlink:href="#ArialMT-62" x="261.230469"/>
      <use xlink:href="#ArialMT-61" x="316.845703"/>
      <use xlink:href="#ArialMT-6e" x="372.460938"/>
      <use xlink:href="#ArialMT-63" x="428.076172"/>
      <use xlink:href="#ArialMT-65" x="478.076172"/>
      <use xlink:href="#ArialMT-20" x="533.691406"/>
      <use xlink:href="#ArialMT-28" x="561.474609"/>
      <use xlink:href="#ArialMT-61" x="594.775391"/>
      <use xlink:href="#ArialMT-2e" x="650.390625"/>
      <use xlink:href="#ArialMT-75" x="678.173828"/>
      <use xlink:href="#ArialMT-2e" x="733.789062"/>
      <use xlink:href="#ArialMT-29" x="761.572266"/>
     </g>
    </g>
   </g>
   <g id="PolyCollection_1"/>
   <g id="PolyCollection_2"/>
   <g id="PolyCollection_3"/>
   <g id="PolyCollection_4"/>
   <g id="PolyCollection_5"/>
   <g id="line2d_31">
    <path d="M 41.467683 233.633179 
L 42.766301 233.362753 
L 45.363538 232.150745 
L 46.22929 231.677759 
L 46.878599 231.252058 
L 48.177217 230.424611 
L 48.610083 230.159742 
L 50.125144 229.06565 
L 50.774453 228.658577 
L 51.207319 228.326384 
L 54.020999 226.333879 
L 54.670308 225.801315 
L 56.185359 224.448871 
L 62.245574 218.123247 
L 62.894883 217.510376 
L 64.626377 215.116424 
L 65.492119 213.392472 
L 66.790738 210.112937 
L 68.305799 205.180095 
L 69.82085 199.500233 
L 72.850962 186.466133 
L 75.448199 175.379669 
L 77.179693 167.763279 
L 78.261868 162.478039 
L 79.560486 155.690396 
L 83.456341 133.185246 
L 85.837144 118.177648 
L 88.650814 98.969834 
L 92.546668 71.682131 
L 95.143905 55.027808 
L 96.875399 45.333834 
L 98.174017 39.075393 
L 99.472635 33.771392 
L 100.771253 29.481558 
L 101.853438 26.839506 
L 102.502748 25.694182 
L 103.152057 24.840286 
L 103.584923 24.50374 
L 104.234232 24.299356 
L 104.883541 24.597852 
L 105.316417 25.02049 
L 105.965726 26.08871 
L 106.615035 27.711907 
L 107.264344 29.892724 
L 108.130086 33.672557 
L 108.995838 38.413563 
L 110.078014 45.637353 
L 111.376632 55.741453 
L 113.324559 72.960304 
L 115.921795 98.623295 
L 117.65328 117.857933 
L 119.601207 142.680458 
L 121.549134 171.086724 
L 124.7957 219.028309 
L 126.094318 234.838491 
L 127.176493 245.681352 
L 128.258668 254.290674 
L 128.907977 258.336119 
L 129.773729 262.689299 
L 130.639481 265.962247 
L 131.505214 268.432785 
L 132.587409 270.553806 
L 133.453141 271.771624 
L 134.535336 272.809396 
L 135.401068 273.438815 
L 136.26682 273.902261 
L 137.348995 274.350256 
L 138.43119 274.689323 
L 139.513366 274.951203 
L 146.006457 275.82717 
L 157.69402 276.09238 
L 159.209081 276.07691 
L 159.641948 276.100698 
L 160.291257 276.06428 
L 160.724123 276.104204 
L 161.589875 276.099903 
L 164.187111 276.112776 
L 166.784348 276.185195 
L 167.433657 276.192936 
L 170.896645 276.201988 
L 173.277438 276.226362 
L 174.14319 276.238366 
L 178.255468 276.20874 
L 178.688354 276.257065 
L 184.532136 276.266945 
L 184.748559 276.197497 
L 185.397868 276.283503 
L 187.129372 276.246968 
L 187.778681 276.259934 
L 188.211548 276.237379 
L 188.860857 276.239261 
L 189.726609 276.246775 
L 190.592341 276.244553 
L 191.025227 276.212166 
L 192.973154 276.251642 
L 193.622463 276.23957 
L 194.488195 276.258823 
L 195.353948 276.25951 
L 196.869009 276.280449 
L 200.115554 276.208709 
L 200.981286 276.272845 
L 202.279905 276.229633 
L 202.929214 276.254697 
L 203.794966 276.174699 
L 204.877141 276.200923 
L 209.205881 276.244977 
L 209.422305 276.161106 
L 209.638748 276.276154 
L 210.288057 276.160558 
L 210.5045 276.326805 
L 210.937366 276.262364 
L 211.803118 276.195629 
L 213.318159 276.241637 
L 213.534602 276.158513 
L 213.751045 276.268449 
L 214.83322 276.240796 
L 215.266086 276.19157 
L 215.915395 276.264963 
L 216.348281 276.283658 
L 216.564705 276.173178 
L 217.214014 276.301517 
L 218.296209 276.300823 
L 218.512632 276.43649 
L 218.729075 276.273138 
L 219.594827 276.25111 
L 219.81125 276.323467 
L 220.027693 276.238459 
L 220.244136 276.311448 
L 220.460559 276.208547 
L 220.677002 276.365468 
L 221.109868 276.285084 
L 221.326311 276.149211 
L 221.542754 276.429349 
L 221.759177 276.279547 
L 222.192063 276.318386 
L 222.408486 276.509035 
L 223.057795 276.29012 
L 223.274238 276.306004 
L 223.490681 276.520912 
L 223.707105 276.239608 
L 224.572857 276.377829 
L 224.7893 276.277126 
L 225.005723 276.689938 
L 225.222166 276.433555 
L 225.655032 276.342407 
L 225.871475 276.281329 
L 226.087918 276.340526 
L 226.304341 275.968642 
L 226.520784 276.394843 
L 226.95365 276.59741 
L 227.170093 276.271241 
L 227.386536 276.405984 
L 227.602959 276.267408 
L 227.819402 276.52149 
L 228.035845 276.36748 
L 228.252268 276.5814 
L 228.468711 276.378654 
L 228.685154 276.417502 
L 228.901577 276.175486 
L 229.11802 276.45214 
L 229.334463 276.91333 
L 229.767329 276.229479 
L 229.983772 276.411308 
L 230.200195 276.349946 
L 230.416638 276.14657 
L 230.633081 276.571698 
L 230.849505 276.426576 
L 231.065948 276.899831 
L 231.28239 276.527371 
L 231.498814 276.438931 
L 231.715257 276.146756 
L 231.9317 276.59868 
L 232.364566 275.932967 
L 232.797432 276.859662 
L 233.230318 275.586597 
L 233.446741 276.555762 
L 233.663184 276.324315 
L 233.879627 276.764253 
L 234.09605 276.500728 
L 234.312493 276.423834 
L 234.528936 276.21384 
L 234.745359 277.082353 
L 234.961802 275.767557 
L 235.178245 277.191525 
L 235.394668 276.381382 
L 235.611111 276.942311 
L 236.043977 277.041498 
L 239.723389 277.044833 
L 241.23845 277.026157 
L 253.575323 276.937424 
L 254.873941 276.928378 
L 259.419105 277.046167 
L 281.062728 277.051824 
L 287.122972 277.060678 
L 288.205128 277.078682 
L 289.720209 277.054408 
L 294.04891 277.071462 
L 295.347528 277.039543 
L 296.646146 277.055404 
L 309.632328 277.055527 
L 310.281637 277.025666 
L 315.908995 276.808061 
L 316.774728 276.65321 
L 317.6405 276.786101 
L 318.289809 276.923797 
L 318.506232 276.868191 
L 318.939118 277.072551 
L 320.021273 277.03206 
L 326.514364 277.123256 
L 328.895177 277.115135 
L 330.410219 277.127233 
L 334.955382 277.08784 
L 337.552619 277.089128 
L 349.023759 277.037719 
L 350.5388 277.042265 
L 355.733273 277.002609 
L 357.248354 277.011665 
L 365.905795 276.976916 
L 366.98799 276.962848 
L 383.437141 276.672994 
L 384.302873 276.624556 
L 384.519336 276.704389 
L 384.735759 276.569644 
L 384.952182 276.676807 
L 385.168645 276.444169 
L 385.385068 276.523514 
L 385.601491 276.388979 
L 386.467263 276.488479 
L 387.116572 276.312781 
L 387.332995 276.350115 
L 387.549419 276.244839 
L 388.631614 276.375571 
L 388.848037 276.182726 
L 389.0645 276.341382 
L 389.280923 276.275552 
L 389.713809 276.326913 
L 393.826086 276.181691 
L 395.55759 275.550786 
L 395.990437 275.241763 
L 396.423323 274.87431 
L 398.154827 272.348119 
L 398.37125 272.333169 
L 398.37125 272.333169 
" clip-path="url(#peafcd59730)" style="fill: none; stroke: #f6ab83; stroke-linecap: round"/>
   </g>
   <g id="line2d_32">
    <path d="M 41.467683 228.037767 
L 42.549868 227.359612 
L 43.848486 226.44012 
L 44.497795 225.857038 
L 46.445723 224.402528 
L 47.095032 223.910081 
L 52.289505 220.87314 
L 52.722381 220.654674 
L 54.670308 219.337375 
L 55.103174 218.971626 
L 58.349719 215.545126 
L 59.431905 214.229819 
L 62.029141 211.776039 
L 62.894883 211.06335 
L 64.193501 209.708253 
L 65.275686 208.093943 
L 65.924995 206.911454 
L 66.790738 204.99482 
L 68.738665 199.499299 
L 70.253726 194.289357 
L 72.634529 185.092016 
L 78.478311 160.840681 
L 80.209795 152.366651 
L 87.568638 114.331567 
L 90.598741 98.427459 
L 92.979544 87.431572 
L 94.278162 82.259027 
L 95.793214 77.090818 
L 97.091832 73.392319 
L 98.39045 70.51846 
L 99.256202 69.017979 
L 100.338377 67.736897 
L 100.987686 67.255359 
L 101.636995 67.035801 
L 102.286305 67.13201 
L 102.935614 67.499468 
L 103.584923 68.203508 
L 104.234232 69.226364 
L 104.883541 70.607355 
L 105.749293 73.007959 
L 106.615035 76.111793 
L 107.69722 80.904895 
L 108.995838 87.926892 
L 110.294457 96.159086 
L 112.458807 111.603281 
L 114.623177 128.760308 
L 116.787548 147.937932 
L 118.519032 164.974658 
L 120.683402 188.190782 
L 123.280638 215.804113 
L 124.7957 229.606849 
L 126.094318 239.239104 
L 127.176493 245.612607 
L 128.258668 250.623951 
L 128.907977 252.941392 
L 129.773729 255.511719 
L 130.639481 257.536642 
L 131.9381 259.732277 
L 133.236718 261.282291 
L 134.10245 262.058321 
L 135.184645 262.908457 
L 137.565438 264.314489 
L 141.028427 265.669581 
L 142.110602 266.001252 
L 145.140705 266.706912 
L 146.439323 266.889741 
L 147.737941 267.080182 
L 149.902311 267.295016 
L 155.313227 267.61191 
L 156.828268 267.636742 
L 158.126886 267.681171 
L 158.559772 267.694363 
L 166.567905 267.984908 
L 167.00079 267.999978 
L 190.375918 268.823705 
L 191.24165 268.827399 
L 191.674536 268.870151 
L 192.107402 268.834868 
L 193.189577 268.876401 
L 193.622463 268.827423 
L 194.055329 268.890681 
L 196.436123 268.897706 
L 197.085432 268.930971 
L 202.063481 268.910285 
L 202.279905 268.844307 
L 202.496348 268.945596 
L 202.71279 268.877259 
L 202.929214 268.972505 
L 203.3621 268.844879 
L 204.011409 268.901577 
L 204.444275 268.835408 
L 205.093584 268.839592 
L 205.959336 268.812368 
L 207.041511 268.893467 
L 207.69082 268.838873 
L 208.772995 268.865037 
L 210.071614 268.812401 
L 210.288057 268.733754 
L 210.720923 268.848753 
L 211.370232 268.823435 
L 213.534602 268.645697 
L 213.751045 268.733615 
L 214.183911 268.671974 
L 214.400354 268.756473 
L 214.83322 268.613364 
L 215.049663 268.670435 
L 215.482529 268.598268 
L 215.698972 268.741671 
L 216.348281 268.696429 
L 216.564705 268.598251 
L 216.99759 268.661262 
L 217.214014 268.5744 
L 217.430457 268.671548 
L 218.079766 268.662137 
L 219.161941 268.685663 
L 219.378384 268.543843 
L 220.460559 268.565465 
L 221.109868 268.584635 
L 221.326311 268.42694 
L 221.542754 268.750241 
L 221.97562 268.486576 
L 222.192063 268.474211 
L 222.408486 268.598349 
L 222.624929 268.493239 
L 222.841372 268.613945 
L 223.057795 268.606856 
L 223.274238 268.392388 
L 223.490681 268.626421 
L 224.13999 268.628852 
L 224.356414 268.398128 
L 225.222166 268.624325 
L 225.438609 268.645254 
L 225.655032 268.316822 
L 226.087918 268.545375 
L 226.304341 268.383654 
L 226.520784 268.677652 
L 226.95365 268.547316 
L 227.170093 268.20882 
L 227.386536 268.746586 
L 227.602959 268.474563 
L 227.819402 268.949197 
L 228.035845 268.457647 
L 228.252268 268.629401 
L 228.468711 268.278326 
L 228.685154 268.50598 
L 228.901577 268.225629 
L 229.11802 268.612022 
L 229.334463 268.349287 
L 229.550886 268.601903 
L 229.767329 268.27382 
L 229.983772 268.308789 
L 230.416638 267.947217 
L 230.633081 268.585462 
L 230.849505 268.560502 
L 231.065948 268.42339 
L 231.28239 269.289967 
L 231.498814 268.160441 
L 231.9317 268.643831 
L 232.148123 268.449459 
L 232.364566 268.432449 
L 232.581009 267.773073 
L 232.797432 268.64194 
L 233.013875 268.446418 
L 233.230318 267.767247 
L 233.446741 268.221598 
L 233.879627 268.172542 
L 234.09605 268.74338 
L 234.312493 268.443778 
L 234.745359 269.065568 
L 234.961802 268.236008 
L 235.178245 269.218001 
L 235.394668 267.978113 
L 235.827534 269.576026 
L 240.156255 269.471842 
L 242.753491 269.347943 
L 246.865789 269.165395 
L 249.679468 269.067901 
L 252.709571 268.948151 
L 254.657498 268.808363 
L 257.471177 268.949213 
L 258.986219 268.848368 
L 262.882073 268.68707 
L 264.83 268.65393 
L 265.695752 268.623179 
L 267.210814 268.567775 
L 269.158741 268.505873 
L 270.457359 268.488052 
L 272.188843 268.445671 
L 274.136771 268.439294 
L 285.824354 268.200986 
L 286.90651 268.212918 
L 289.936632 268.230351 
L 294.698219 268.264988 
L 297.944764 268.280763 
L 305.52005 268.44304 
L 306.818668 268.480119 
L 307.6844 268.472367 
L 310.4981 268.391174 
L 311.580255 268.4075 
L 312.229564 268.38057 
L 313.311759 268.413059 
L 316.125419 268.165501 
L 316.774728 268.069909 
L 317.207614 268.102477 
L 317.856923 268.29941 
L 318.289809 268.490395 
L 318.722655 268.55196 
L 319.155541 268.608755 
L 321.103468 268.550273 
L 326.514364 268.762769 
L 328.895177 268.799085 
L 329.544486 268.817918 
L 335.821154 268.984154 
L 339.500546 269.120001 
L 344.04571 269.320631 
L 354.434655 269.579089 
L 357.6812 269.360063 
L 358.763395 269.302597 
L 360.278437 269.520706 
L 360.927746 269.63397 
L 365.256486 269.919637 
L 366.98799 269.944707 
L 368.503032 270.088776 
L 370.018073 270.119695 
L 383.220718 270.130666 
L 383.870027 270.12323 
L 384.519336 270.184656 
L 384.735759 270.042484 
L 384.952182 270.158606 
L 385.168645 269.959605 
L 385.385068 270.025555 
L 385.817954 269.872409 
L 386.2508 269.971586 
L 386.467263 269.975401 
L 386.683686 269.833557 
L 387.116572 269.935778 
L 387.982305 269.854963 
L 388.198728 269.949527 
L 388.41519 269.865202 
L 388.631614 269.925666 
L 388.848037 269.73842 
L 389.0645 269.908211 
L 389.497346 269.904669 
L 390.795964 269.901719 
L 393.176777 269.907895 
L 393.3932 269.770892 
L 393.826086 269.859332 
L 394.475395 269.572638 
L 394.691819 269.618457 
L 395.124705 269.465817 
L 395.774014 268.878795 
L 395.990437 268.859309 
L 396.423323 268.398735 
L 397.072632 267.360487 
L 397.938364 266.027776 
L 398.154827 265.670334 
L 398.37125 265.638099 
L 398.37125 265.638099 
" clip-path="url(#peafcd59730)" style="fill: none; stroke: #f06043; stroke-linecap: round"/>
   </g>
   <g id="line2d_33">
    <path d="M 41.467683 225.869485 
L 42.116992 225.485724 
L 42.549868 225.20798 
L 43.41561 224.563144 
L 43.848486 224.2215 
L 44.281362 223.886104 
L 44.714229 223.513019 
L 49.475835 219.968646 
L 52.289505 218.274583 
L 52.938814 217.87375 
L 53.804556 217.316504 
L 54.670308 216.578613 
L 54.886741 216.4435 
L 55.53605 215.780136 
L 56.401792 214.877559 
L 57.916853 213.120086 
L 60.081214 210.49004 
L 60.946956 209.564829 
L 61.812708 208.780817 
L 63.760635 206.791422 
L 64.409944 205.911505 
L 65.059253 204.785743 
L 66.357871 201.937566 
L 67.007181 200.223316 
L 68.089356 196.970807 
L 70.903035 186.348591 
L 76.313941 163.267087 
L 79.12762 149.83941 
L 89.949432 93.782891 
L 91.897359 84.832646 
L 93.41242 78.855288 
L 94.711038 74.511701 
L 96.442523 69.848716 
L 97.524708 67.617936 
L 98.606893 65.986703 
L 99.256202 65.2683 
L 100.338377 64.584739 
L 101.204129 64.561705 
L 101.853438 64.866898 
L 102.502748 65.44653 
L 103.36849 66.709159 
L 104.234232 68.526536 
L 105.316417 71.711387 
L 106.182159 74.948069 
L 107.047911 78.866373 
L 108.346529 85.879082 
L 110.078014 97.099392 
L 112.025941 111.565002 
L 113.541002 123.73138 
L 115.921795 144.43149 
L 117.869723 163.148981 
L 120.683402 192.800472 
L 123.064195 217.77421 
L 124.579257 231.539045 
L 125.877875 241.151899 
L 126.743627 246.417945 
L 127.825802 251.749761 
L 128.691554 255.004235 
L 129.557286 257.603126 
L 130.639481 260.020406 
L 131.28879 261.141752 
L 131.9381 262.097281 
L 132.803832 263.116606 
L 134.751759 264.801365 
L 136.699686 265.953421 
L 137.998305 266.577619 
L 143.40922 268.302019 
L 147.088632 268.946224 
L 148.38725 269.056358 
L 149.036559 269.182886 
L 149.902311 269.236617 
L 153.148857 269.452967 
L 154.447475 269.490569 
L 155.962536 269.528233 
L 159.641948 269.605517 
L 160.291257 269.566974 
L 161.157009 269.60048 
L 162.239184 269.609635 
L 164.619977 269.748977 
L 165.485729 269.781406 
L 170.896645 270.009595 
L 172.844572 270.063013 
L 173.710305 270.100631 
L 180.852705 270.289516 
L 181.28559 270.295899 
L 181.718457 270.304698 
L 183.666384 270.381153 
L 184.532136 270.40849 
L 185.181445 270.423424 
L 186.047177 270.466028 
L 186.912929 270.46272 
L 188.42799 270.538113 
L 189.293723 270.49321 
L 189.726609 270.520652 
L 192.540268 270.604516 
L 193.622463 270.541202 
L 194.055329 270.608079 
L 195.786814 270.658284 
L 196.2197 270.626446 
L 197.734741 270.671448 
L 197.951184 270.599196 
L 198.600493 270.644111 
L 199.466245 270.643281 
L 201.847038 270.657655 
L 202.279905 270.581421 
L 202.71279 270.599825 
L 203.3621 270.570884 
L 209.205881 270.465753 
L 209.638748 270.445886 
L 211.586675 270.46719 
L 212.019541 270.326914 
L 213.318159 270.321639 
L 213.967468 270.241551 
L 215.049663 270.324143 
L 215.266086 270.165821 
L 216.564705 270.287011 
L 216.781148 270.177427 
L 216.99759 270.332875 
L 217.430457 270.209828 
L 218.512632 270.301062 
L 218.729075 270.201322 
L 219.161941 270.286647 
L 219.378384 270.1654 
L 220.677002 270.199236 
L 220.893445 270.091163 
L 221.109868 270.167689 
L 221.326311 270.065256 
L 221.542754 270.370607 
L 221.97562 270.167689 
L 222.624929 270.299511 
L 223.274238 270.182885 
L 223.923548 270.343068 
L 224.13999 270.220549 
L 224.356414 270.323012 
L 224.7893 270.1508 
L 225.005723 270.349942 
L 225.222166 270.306556 
L 225.438609 270.076061 
L 225.871475 270.041853 
L 226.304341 270.263842 
L 226.520784 270.386215 
L 226.737227 270.141927 
L 226.95365 270.308261 
L 227.170093 270.021871 
L 227.602959 270.159221 
L 227.819402 270.509513 
L 228.035845 269.925293 
L 228.252268 270.655891 
L 228.468711 270.222408 
L 228.901577 269.983914 
L 229.11802 270.040031 
L 229.550886 270.598599 
L 229.767329 270.401096 
L 230.200195 270.653812 
L 230.416638 270.231786 
L 230.633081 270.648365 
L 230.849505 269.785965 
L 231.065948 270.305837 
L 231.28239 270.043618 
L 231.498814 269.979314 
L 231.9317 270.278357 
L 232.148123 270.113715 
L 232.364566 270.569214 
L 232.581009 270.02094 
L 232.797432 270.401184 
L 233.013875 270.491338 
L 233.230318 269.777066 
L 233.446741 270.051025 
L 233.663184 269.46184 
L 233.879627 269.773934 
L 234.09605 269.646428 
L 234.312493 270.543928 
L 234.528936 270.112283 
L 234.745359 271.398226 
L 234.961802 269.955117 
L 235.178245 270.820145 
L 235.394668 270.40933 
L 235.611111 270.657043 
L 235.827534 271.568566 
L 237.342595 271.521452 
L 241.454873 271.432836 
L 243.186377 271.345512 
L 256.388982 271.009035 
L 257.6876 271.058449 
L 262.016341 270.841475 
L 263.964268 270.844991 
L 270.673782 270.777014 
L 271.9724 270.794239 
L 273.054595 270.784604 
L 274.136771 270.795792 
L 276.734027 270.776724 
L 279.76411 270.766654 
L 281.712037 270.756011 
L 285.175045 270.764722 
L 286.690086 270.776756 
L 290.585941 270.781377 
L 291.23525 270.816757 
L 292.317445 270.807373 
L 293.3996 270.826107 
L 294.265372 270.807607 
L 295.347528 270.800138 
L 297.079032 270.822744 
L 301.19131 270.846222 
L 302.489928 270.875181 
L 304.005009 270.898891 
L 304.870741 270.937109 
L 306.602245 270.978916 
L 307.6844 270.994057 
L 308.550172 270.956121 
L 309.632328 270.956966 
L 310.065214 270.91327 
L 312.229564 270.875729 
L 312.66245 270.943621 
L 314.8268 270.876951 
L 315.908995 270.756003 
L 316.558305 270.617638 
L 316.774728 270.554024 
L 319.155541 271.176232 
L 320.021273 271.099646 
L 321.752777 271.155663 
L 331.059528 271.376218 
L 331.9253 271.396047 
L 333.223918 271.419421 
L 333.873227 271.410009 
L 334.955382 271.462119 
L 336.90331 271.50651 
L 340.799164 271.588892 
L 345.127905 271.667305 
L 365.905795 272.112748 
L 367.204414 272.1812 
L 368.503032 272.210027 
L 370.018073 272.282636 
L 372.398886 272.360905 
L 378.675554 272.448701 
L 379.541286 272.453039 
L 383.220718 272.265347 
L 383.653564 272.191868 
L 384.08645 272.261679 
L 384.302873 272.207488 
L 384.519336 272.320142 
L 384.735759 272.134183 
L 384.952182 272.284848 
L 385.168645 272.021964 
L 385.385068 272.103116 
L 385.601491 271.922212 
L 386.034377 272.030796 
L 386.467263 272.068423 
L 386.683686 271.927342 
L 387.332995 271.955492 
L 387.549419 271.756447 
L 387.982305 271.891333 
L 388.198728 271.987775 
L 388.848037 271.718536 
L 389.0645 271.947811 
L 389.497346 271.936316 
L 390.363118 271.854555 
L 391.012427 271.883033 
L 391.445273 271.909271 
L 391.878159 271.769803 
L 392.094582 271.89561 
L 392.743891 271.832905 
L 395.124705 271.415816 
L 395.341128 271.109217 
L 395.55759 271.020508 
L 395.774014 270.729867 
L 395.990437 270.762452 
L 396.423323 270.263737 
L 396.856209 269.436936 
L 397.505518 268.633182 
L 397.938364 267.730473 
L 398.154827 267.390773 
L 398.37125 267.37635 
L 398.37125 267.37635 
" clip-path="url(#peafcd59730)" style="fill: none; stroke: #ca1a50; stroke-linecap: round"/>
   </g>
   <g id="line2d_34">
    <path d="M 41.467683 224.165236 
L 41.900559 223.971765 
L 44.064919 222.697522 
L 46.445723 220.716802 
L 46.878599 220.462172 
L 50.990886 217.289623 
L 53.155247 215.870014 
L 54.237432 214.950685 
L 54.670308 214.611671 
L 58.566162 210.416989 
L 60.730523 208.111858 
L 61.812708 207.161709 
L 63.544192 205.350928 
L 64.84281 203.198133 
L 66.141429 200.106504 
L 67.007181 197.592596 
L 68.305799 193.209743 
L 70.470159 184.342876 
L 78.045435 148.586122 
L 88.217948 94.242223 
L 91.031617 80.460385 
L 92.330235 75.060897 
L 93.845286 69.803881 
L 95.360348 65.621254 
L 96.442523 63.280535 
L 97.524708 61.526516 
L 98.39045 60.520738 
L 99.256202 59.925649 
L 99.689068 59.767774 
L 100.338377 59.776128 
L 101.204129 60.219352 
L 101.853438 60.872546 
L 102.286305 61.426888 
L 102.935614 62.566186 
L 103.801366 64.600847 
L 104.883541 68.015038 
L 105.749293 71.440719 
L 106.831468 76.607765 
L 108.130086 84.159606 
L 109.645148 94.464478 
L 111.376632 107.765553 
L 113.541002 125.949049 
L 115.921795 147.719308 
L 118.086166 169.444626 
L 121.332711 204.77901 
L 123.064195 222.965348 
L 124.7957 238.492027 
L 125.877875 246.403777 
L 126.96005 252.832514 
L 128.042245 257.845732 
L 128.907977 260.903969 
L 130.206595 264.21563 
L 131.072348 265.789623 
L 132.154523 267.284188 
L 133.236718 268.370901 
L 135.184645 269.711151 
L 137.348995 270.721846 
L 142.327045 272.054429 
L 145.357148 272.564891 
L 152.066681 273.100583 
L 160.940566 273.14223 
L 161.806318 273.098979 
L 162.455627 273.162316 
L 162.67205 273.112551 
L 163.104936 273.171498 
L 179.337663 273.616392 
L 180.419838 273.59043 
L 181.28559 273.675878 
L 183.882827 273.712586 
L 187.129372 273.762796 
L 188.42799 273.770361 
L 189.943032 273.794455 
L 193.622463 273.859156 
L 194.488195 273.864712 
L 196.003257 273.903165 
L 196.869009 273.878879 
L 197.518318 273.899386 
L 198.38405 273.886077 
L 198.816936 273.936808 
L 199.466245 273.891773 
L 199.682668 273.98587 
L 200.331977 273.946782 
L 202.71279 273.930752 
L 203.578523 274.00913 
L 203.794966 273.925356 
L 204.227832 273.98671 
L 204.877141 273.967537 
L 208.556572 273.954172 
L 208.989438 273.988955 
L 215.698972 273.951784 
L 215.915395 273.838619 
L 216.564705 273.940805 
L 216.781148 273.800988 
L 217.430457 273.912309 
L 217.6469 273.870063 
L 218.079766 273.941386 
L 218.729075 273.907234 
L 218.945518 273.974548 
L 219.161941 273.811735 
L 219.378384 273.921829 
L 219.594827 273.818559 
L 219.81125 273.979817 
L 220.244136 273.865914 
L 220.460559 273.997669 
L 221.97562 273.853843 
L 222.192063 273.926165 
L 222.624929 273.875501 
L 222.841372 273.94408 
L 223.057795 273.791121 
L 223.274238 273.842038 
L 223.490681 274.014632 
L 223.707105 273.722499 
L 223.923548 273.893973 
L 224.13999 273.814377 
L 224.356414 274.017693 
L 224.572857 273.82462 
L 224.7893 273.87147 
L 225.222166 273.676838 
L 225.438609 273.925277 
L 226.087918 273.901806 
L 226.304341 273.648472 
L 226.520784 273.80069 
L 226.737227 274.153033 
L 226.95365 273.586374 
L 227.170093 273.599903 
L 227.386536 273.874016 
L 228.035845 273.614494 
L 228.252268 273.968777 
L 228.468711 273.617706 
L 228.901577 274.133328 
L 229.11802 273.695056 
L 229.550886 273.81639 
L 229.767329 274.039551 
L 229.983772 273.938331 
L 230.200195 274.002779 
L 230.416638 273.733269 
L 230.633081 273.878408 
L 230.849505 273.679396 
L 231.065948 273.795862 
L 231.28239 274.07905 
L 231.498814 273.461465 
L 231.715257 274.256802 
L 231.9317 273.588713 
L 232.148123 273.371148 
L 232.364566 273.922591 
L 232.581009 273.94218 
L 232.797432 273.792811 
L 233.013875 273.970387 
L 233.446741 273.701052 
L 233.663184 272.989324 
L 233.879627 273.536836 
L 234.09605 273.65118 
L 234.312493 273.57786 
L 234.528936 273.082914 
L 234.745359 273.302309 
L 234.961802 274.345989 
L 235.178245 273.273837 
L 235.394668 274.248012 
L 235.611111 273.679105 
L 235.827534 274.2913 
L 256.605425 274.11751 
L 257.6876 274.151465 
L 259.419105 274.02701 
L 260.717723 273.980507 
L 262.232764 273.946672 
L 263.747825 273.949271 
L 268.942298 273.963956 
L 270.024473 273.940483 
L 271.539534 273.949452 
L 277.599759 273.898215 
L 279.547686 273.908303 
L 281.27919 273.908954 
L 282.577809 273.90941 
L 289.936632 273.977021 
L 296.2133 274.002984 
L 297.728341 273.947088 
L 300.974886 273.902183 
L 302.922814 273.892928 
L 307.6844 273.782778 
L 317.424037 273.647535 
L 318.289809 273.823936 
L 318.722655 273.778846 
L 319.155541 273.949279 
L 319.588427 273.918436 
L 322.185663 273.98492 
L 322.834972 274.01026 
L 326.730827 273.999341 
L 327.812982 274.03485 
L 331.492414 274.063939 
L 350.5388 274.516367 
L 353.3525 274.586653 
L 354.651118 274.588278 
L 358.763395 274.613867 
L 359.84559 274.659243 
L 361.144209 274.653362 
L 368.935918 274.740081 
L 369.368764 274.736053 
L 370.018073 274.74794 
L 380.190595 274.656736 
L 381.705637 274.575314 
L 382.354946 274.563333 
L 382.787832 274.535803 
L 383.004255 274.594154 
L 383.653564 274.446138 
L 384.952182 274.49567 
L 385.168645 274.265545 
L 385.385068 274.392704 
L 385.817954 274.171943 
L 386.90011 274.2155 
L 387.116572 274.097548 
L 388.198728 274.206511 
L 388.41519 274.129909 
L 388.631614 274.181037 
L 388.848037 273.98375 
L 389.0645 274.147928 
L 389.280923 274.068105 
L 389.713809 274.138339 
L 392.311045 274.174867 
L 395.124705 273.748568 
L 395.774014 273.253254 
L 396.2069 273.005567 
L 396.639746 272.47182 
L 397.289055 271.497977 
L 397.505518 271.266317 
L 397.938364 270.605161 
L 398.37125 270.321009 
L 398.587673 270.293806 
L 398.587673 270.293806 
" clip-path="url(#peafcd59730)" style="fill: none; stroke: #841e5a; stroke-linecap: round"/>
   </g>
   <g id="line2d_35">
    <path d="M 41.467683 219.525999 
L 42.116992 219.547271 
L 42.333435 219.38622 
L 42.549868 219.445639 
L 44.497795 218.474597 
L 45.147105 217.90345 
L 45.796414 217.424191 
L 48.177217 215.344583 
L 50.341577 212.895134 
L 50.774453 212.453321 
L 51.640195 211.693889 
L 55.53605 208.246275 
L 59.215471 204.664283 
L 60.946956 203.424772 
L 61.596265 203.030239 
L 62.029141 202.68504 
L 62.894883 201.993302 
L 63.760635 200.998089 
L 64.84281 199.08371 
L 66.357871 195.266981 
L 67.65649 190.944675 
L 69.171541 184.844417 
L 71.768777 172.384425 
L 78.261868 139.47475 
L 80.426238 127.271652 
L 83.239908 111.552154 
L 88.650814 82.641096 
L 90.165875 75.114051 
L 91.680926 68.58725 
L 93.195977 63.17532 
L 94.494595 59.52104 
L 96.009657 56.343944 
L 97.091832 54.782924 
L 97.741141 54.108105 
L 98.606893 53.57611 
L 99.472635 53.474491 
L 100.338377 53.865072 
L 100.987686 54.459667 
L 101.853438 55.767695 
L 102.719181 57.578815 
L 103.584923 59.968158 
L 104.450675 62.963869 
L 105.53285 67.596347 
L 106.831468 74.48137 
L 108.346529 84.285159 
L 109.861581 95.68992 
L 112.242384 115.819782 
L 115.488929 146.365757 
L 118.735475 180.464843 
L 123.280638 230.416707 
L 124.7957 244.122958 
L 125.877875 252.112613 
L 126.96005 258.624279 
L 128.042245 263.66078 
L 128.907977 266.712137 
L 129.773729 269.032649 
L 130.855905 271.159035 
L 131.721657 272.349813 
L 132.587409 273.252559 
L 133.669584 274.061248 
L 135.833954 275.062684 
L 140.811984 276.014167 
L 147.088632 276.49199 
L 148.170827 276.53282 
L 149.685868 276.558509 
L 150.55162 276.602749 
L 151.200929 276.578831 
L 154.014609 276.649734 
L 155.313227 276.663798 
L 164.403554 276.550575 
L 169.598027 276.770776 
L 170.463759 276.76423 
L 172.411686 276.8077 
L 172.844572 276.769761 
L 178.039045 276.791232 
L 182.800632 276.814528 
L 184.315693 276.858541 
L 185.181445 276.85686 
L 196.003257 276.85858 
L 196.2197 276.790165 
L 196.869009 276.831737 
L 197.951184 276.857359 
L 198.816936 276.851171 
L 200.54842 276.889592 
L 201.197729 276.808944 
L 201.630595 276.871569 
L 202.496348 276.855117 
L 213.751045 276.778573 
L 213.967468 276.898979 
L 214.183911 276.805918 
L 214.400354 276.835392 
L 214.83322 276.759804 
L 218.296209 276.786186 
L 218.512632 276.930641 
L 218.729075 276.759359 
L 218.945518 276.97595 
L 219.378384 276.801494 
L 219.594827 276.990691 
L 219.81125 276.852576 
L 220.027693 276.991864 
L 220.460559 276.835254 
L 220.893445 276.919714 
L 221.326311 276.918402 
L 221.759177 276.931339 
L 221.97562 276.828704 
L 222.192063 277.006711 
L 222.408486 276.896899 
L 223.057795 276.970304 
L 223.274238 276.866909 
L 223.490681 277.045316 
L 223.707105 276.921587 
L 223.923548 276.945119 
L 224.13999 277.114798 
L 224.356414 276.742001 
L 224.572857 276.933749 
L 225.005723 276.999196 
L 225.655032 276.711583 
L 225.871475 277.08338 
L 226.087918 277.048651 
L 226.304341 277.334646 
L 226.520784 276.871669 
L 226.737227 277.072014 
L 226.95365 277.049639 
L 227.170093 277.268757 
L 227.386536 276.801095 
L 227.602959 276.827084 
L 228.035845 277.114737 
L 228.252268 276.969223 
L 228.685154 277.014226 
L 229.11802 276.901365 
L 229.334463 277.314941 
L 229.550886 276.948733 
L 229.767329 277.170871 
L 229.983772 276.781554 
L 230.200195 276.921571 
L 230.416638 277.272002 
L 230.633081 277.19471 
L 230.849505 276.951909 
L 231.065948 277.12036 
L 231.28239 276.672086 
L 231.498814 277.398314 
L 231.715257 277.013605 
L 231.9317 277.159796 
L 232.148123 277.002501 
L 232.364566 277.660425 
L 232.581009 277.539441 
L 232.797432 277.029599 
L 233.013875 277.792926 
L 233.230318 277.541732 
L 233.446741 276.997501 
L 233.663184 277.749094 
L 234.09605 277.494025 
L 234.312493 277.004917 
L 234.961802 277.035787 
L 235.178245 277.662195 
L 235.394668 277.198646 
L 235.611111 277.245789 
L 235.827534 277.730719 
L 239.506946 277.721766 
L 241.671316 277.732961 
L 245.783614 277.727486 
L 248.164407 277.736026 
L 250.978086 277.74609 
L 252.060262 277.732869 
L 255.739673 277.763854 
L 258.769795 277.826822 
L 263.964268 277.749857 
L 266.345062 277.775517 
L 269.375164 277.754873 
L 270.890225 277.766873 
L 272.62171 277.780304 
L 274.78608 277.757526 
L 291.668136 277.826563 
L 292.966754 277.813183 
L 294.914681 277.82091 
L 301.624195 277.821199 
L 302.70639 277.832522 
L 304.437855 277.795898 
L 307.035091 277.714994 
L 313.311759 277.364412 
L 314.8268 277.554484 
L 315.908995 277.55595 
L 316.341881 277.50831 
L 316.774728 277.624424 
L 316.99119 277.738832 
L 317.207614 277.725518 
L 317.856923 277.993629 
L 318.289809 278.017125 
L 318.506232 277.90429 
L 318.722655 277.953032 
L 318.939118 277.862249 
L 319.155541 277.939573 
L 319.80485 277.800532 
L 320.454159 277.835768 
L 322.402086 277.860664 
L 323.917128 277.909925 
L 326.730827 277.92724 
L 331.059528 277.976947 
L 332.358146 277.94918 
L 335.171845 277.988484 
L 343.3964 277.938705 
L 352.053881 277.924286 
L 355.733273 277.914646 
L 361.360632 277.914661 
L 365.256486 277.86266 
L 366.338681 277.878381 
L 367.6373 277.877681 
L 370.018073 277.849344 
L 375.212546 277.83368 
L 376.94405 277.8452 
L 378.026245 277.797194 
L 379.1084 277.786569 
L 384.519336 277.621142 
L 384.735759 277.457886 
L 384.952182 277.566915 
L 385.168645 277.350325 
L 385.385068 277.377579 
L 385.817954 277.238441 
L 386.034377 277.221454 
L 386.467263 277.342157 
L 387.116572 277.186486 
L 387.982305 277.13222 
L 388.198728 277.22803 
L 388.848037 276.939695 
L 389.0645 277.125019 
L 389.280923 277.037128 
L 389.713809 277.096032 
L 389.930232 277.131339 
L 390.146655 277.022507 
L 390.579541 277.128198 
L 391.012427 277.109687 
L 391.445273 277.109044 
L 391.878159 277.040417 
L 392.094582 277.146936 
L 392.960354 277.01954 
L 393.176777 277.051962 
L 393.3932 276.964635 
L 393.826086 276.995139 
L 395.341128 276.390158 
L 395.55759 276.267099 
L 395.774014 275.9981 
L 395.990437 275.955128 
L 396.423323 275.564195 
L 397.072632 274.45967 
L 398.37125 272.845164 
L 398.37125 272.845164 
" clip-path="url(#peafcd59730)" style="fill: none; stroke: #3f1b43; stroke-linecap: round"/>
   </g>
   <g id="line2d_36"/>
   <g id="line2d_37"/>
   <g id="line2d_38"/>
   <g id="line2d_39"/>
   <g id="line2d_40"/>
   <g id="patch_3">
    <path d="M 41.25125 277.248797 
L 41.25125 11.136797 
" style="fill: none; stroke: #262626; stroke-width: 1.25; stroke-linejoin: miter; stroke-linecap: square"/>
   </g>
   <g id="patch_4">
    <path d="M 41.25125 277.248797 
L 398.37125 277.248797 
" style="fill: none; stroke: #262626; stroke-width: 1.25; stroke-linejoin: miter; stroke-linecap: square"/>
   </g>
   <g id="legend_1">
    <g id="line2d_41">
     <path d="M 275.596437 45.415809 
L 281.596437 45.415809 
L 287.596437 45.415809 
" style="fill: none; stroke: #f6ab83; stroke-width: 1.5; stroke-linecap: round"/>
    </g>
    <g id="text_19">
     <!-- FeCl3 0 uM_Abs -->
     <g style="fill: #262626" transform="translate(292.396437 47.515809) scale(0.06 -0.06)">
      <defs>
       <path id="ArialMT-46" d="M 525 0 
L 525 4581 
L 3616 4581 
L 3616 4041 
L 1131 4041 
L 1131 2622 
L 3281 2622 
L 3281 2081 
L 1131 2081 
L 1131 0 
L 525 0 
z
" transform="scale(0.015625)"/>
       <path id="ArialMT-43" d="M 3763 1606 
L 4369 1453 
Q 4178 706 3683 314 
Q 3188 -78 2472 -78 
Q 1731 -78 1267 223 
Q 803 525 561 1097 
Q 319 1669 319 2325 
Q 319 3041 592 3573 
Q 866 4106 1370 4382 
Q 1875 4659 2481 4659 
Q 3169 4659 3637 4309 
Q 4106 3959 4291 3325 
L 3694 3184 
Q 3534 3684 3231 3912 
Q 2928 4141 2469 4141 
Q 1941 4141 1586 3887 
Q 1231 3634 1087 3207 
Q 944 2781 944 2328 
Q 944 1744 1114 1308 
Q 1284 872 1643 656 
Q 2003 441 2422 441 
Q 2931 441 3284 734 
Q 3638 1028 3763 1606 
z
" transform="scale(0.015625)"/>
       <path id="ArialMT-4d" d="M 475 0 
L 475 4581 
L 1388 4581 
L 2472 1338 
Q 2622 884 2691 659 
Q 2769 909 2934 1394 
L 4031 4581 
L 4847 4581 
L 4847 0 
L 4263 0 
L 4263 3834 
L 2931 0 
L 2384 0 
L 1059 3900 
L 1059 0 
L 475 0 
z
" transform="scale(0.015625)"/>
       <path id="ArialMT-5f" d="M -97 -1272 
L -97 -866 
L 3631 -866 
L 3631 -1272 
L -97 -1272 
z
" transform="scale(0.015625)"/>
      </defs>
      <use xlink:href="#ArialMT-46"/>
      <use xlink:href="#ArialMT-65" x="61.083984"/>
      <use xlink:href="#ArialMT-43" x="116.699219"/>
      <use xlink:href="#ArialMT-6c" x="188.916016"/>
      <use xlink:href="#ArialMT-33" x="211.132812"/>
      <use xlink:href="#ArialMT-20" x="266.748047"/>
      <use xlink:href="#ArialMT-30" x="294.53125"/>
      <use xlink:href="#ArialMT-20" x="350.146484"/>
      <use xlink:href="#ArialMT-75" x="377.929688"/>
      <use xlink:href="#ArialMT-4d" x="433.544922"/>
      <use xlink:href="#ArialMT-5f" x="516.845703"/>
      <use xlink:href="#ArialMT-41" x="572.460938"/>
      <use xlink:href="#ArialMT-62" x="639.160156"/>
      <use xlink:href="#ArialMT-73" x="694.775391"/>
     </g>
    </g>
    <g id="line2d_42">
     <path d="M 275.596437 53.976122 
L 281.596437 53.976122 
L 287.596437 53.976122 
" style="fill: none; stroke: #f06043; stroke-width: 1.5; stroke-linecap: round"/>
    </g>
    <g id="text_20">
     <!-- FeCl3 5 uM_Abs -->
     <g style="fill: #262626" transform="translate(292.396437 56.076122) scale(0.06 -0.06)">
      <use xlink:href="#ArialMT-46"/>
      <use xlink:href="#ArialMT-65" x="61.083984"/>
      <use xlink:href="#ArialMT-43" x="116.699219"/>
      <use xlink:href="#ArialMT-6c" x="188.916016"/>
      <use xlink:href="#ArialMT-33" x="211.132812"/>
      <use xlink:href="#ArialMT-20" x="266.748047"/>
      <use xlink:href="#ArialMT-35" x="294.53125"/>
      <use xlink:href="#ArialMT-20" x="350.146484"/>
      <use xlink:href="#ArialMT-75" x="377.929688"/>
      <use xlink:href="#ArialMT-4d" x="433.544922"/>
      <use xlink:href="#ArialMT-5f" x="516.845703"/>
      <use xlink:href="#ArialMT-41" x="572.460938"/>
      <use xlink:href="#ArialMT-62" x="639.160156"/>
      <use xlink:href="#ArialMT-73" x="694.775391"/>
     </g>
    </g>
    <g id="line2d_43">
     <path d="M 275.596437 62.536434 
L 281.596437 62.536434 
L 287.596437 62.536434 
" style="fill: none; stroke: #ca1a50; stroke-width: 1.5; stroke-linecap: round"/>
    </g>
    <g id="text_21">
     <!-- t=1hr FeCl3 5 uM_Abs -->
     <g style="fill: #262626" transform="translate(292.396437 64.636434) scale(0.06 -0.06)">
      <defs>
       <path id="ArialMT-3d" d="M 3381 2694 
L 356 2694 
L 356 3219 
L 3381 3219 
L 3381 2694 
z
M 3381 1303 
L 356 1303 
L 356 1828 
L 3381 1828 
L 3381 1303 
z
" transform="scale(0.015625)"/>
      </defs>
      <use xlink:href="#ArialMT-74"/>
      <use xlink:href="#ArialMT-3d" x="27.783203"/>
      <use xlink:href="#ArialMT-31" x="86.181641"/>
      <use xlink:href="#ArialMT-68" x="141.796875"/>
      <use xlink:href="#ArialMT-72" x="197.412109"/>
      <use xlink:href="#ArialMT-20" x="230.712891"/>
      <use xlink:href="#ArialMT-46" x="258.496094"/>
      <use xlink:href="#ArialMT-65" x="319.580078"/>
      <use xlink:href="#ArialMT-43" x="375.195312"/>
      <use xlink:href="#ArialMT-6c" x="447.412109"/>
      <use xlink:href="#ArialMT-33" x="469.628906"/>
      <use xlink:href="#ArialMT-20" x="525.244141"/>
      <use xlink:href="#ArialMT-35" x="553.027344"/>
      <use xlink:href="#ArialMT-20" x="608.642578"/>
      <use xlink:href="#ArialMT-75" x="636.425781"/>
      <use xlink:href="#ArialMT-4d" x="692.041016"/>
      <use xlink:href="#ArialMT-5f" x="775.341797"/>
      <use xlink:href="#ArialMT-41" x="830.957031"/>
      <use xlink:href="#ArialMT-62" x="897.65625"/>
      <use xlink:href="#ArialMT-73" x="953.271484"/>
     </g>
    </g>
    <g id="line2d_44">
     <path d="M 275.596437 71.096747 
L 281.596437 71.096747 
L 287.596437 71.096747 
" style="fill: none; stroke: #841e5a; stroke-width: 1.5; stroke-linecap: round"/>
    </g>
    <g id="text_22">
     <!-- t=4hrs FeCl3 5 uM_Abs -->
     <g style="fill: #262626" transform="translate(292.396437 73.196747) scale(0.06 -0.06)">
      <use xlink:href="#ArialMT-74"/>
      <use xlink:href="#ArialMT-3d" x="27.783203"/>
      <use xlink:href="#ArialMT-34" x="86.181641"/>
      <use xlink:href="#ArialMT-68" x="141.796875"/>
      <use xlink:href="#ArialMT-72" x="197.412109"/>
      <use xlink:href="#ArialMT-73" x="230.712891"/>
      <use xlink:href="#ArialMT-20" x="280.712891"/>
      <use xlink:href="#ArialMT-46" x="308.496094"/>
      <use xlink:href="#ArialMT-65" x="369.580078"/>
      <use xlink:href="#ArialMT-43" x="425.195312"/>
      <use xlink:href="#ArialMT-6c" x="497.412109"/>
      <use xlink:href="#ArialMT-33" x="519.628906"/>
      <use xlink:href="#ArialMT-20" x="575.244141"/>
      <use xlink:href="#ArialMT-35" x="603.027344"/>
      <use xlink:href="#ArialMT-20" x="658.642578"/>
      <use xlink:href="#ArialMT-75" x="686.425781"/>
      <use xlink:href="#ArialMT-4d" x="742.041016"/>
      <use xlink:href="#ArialMT-5f" x="825.341797"/>
      <use xlink:href="#ArialMT-41" x="880.957031"/>
      <use xlink:href="#ArialMT-62" x="947.65625"/>
      <use xlink:href="#ArialMT-73" x="1003.271484"/>
     </g>
    </g>
    <g id="line2d_45">
     <path d="M 275.596437 79.657059 
L 281.596437 79.657059 
L 287.596437 79.657059 
" style="fill: none; stroke: #3f1b43; stroke-width: 1.5; stroke-linecap: round"/>
    </g>
    <g id="text_23">
     <!-- t=24hrs FeCl3 5uM_Abs -->
     <g style="fill: #262626" transform="translate(292.396437 81.757059) scale(0.06 -0.06)">
      <use xlink:href="#ArialMT-74"/>
      <use xlink:href="#ArialMT-3d" x="27.783203"/>
      <use xlink:href="#ArialMT-32" x="86.181641"/>
      <use xlink:href="#ArialMT-34" x="141.796875"/>
      <use xlink:href="#ArialMT-68" x="197.412109"/>
      <use xlink:href="#ArialMT-72" x="253.027344"/>
      <use xlink:href="#ArialMT-73" x="286.328125"/>
      <use xlink:href="#ArialMT-20" x="336.328125"/>
      <use xlink:href="#ArialMT-46" x="364.111328"/>
      <use xlink:href="#ArialMT-65" x="425.195312"/>
      <use xlink:href="#ArialMT-43" x="480.810547"/>
      <use xlink:href="#ArialMT-6c" x="553.027344"/>
      <use xlink:href="#ArialMT-33" x="575.244141"/>
      <use xlink:href="#ArialMT-20" x="630.859375"/>
      <use xlink:href="#ArialMT-35" x="658.642578"/>
      <use xlink:href="#ArialMT-75" x="714.257812"/>
      <use xlink:href="#ArialMT-4d" x="769.873047"/>
      <use xlink:href="#ArialMT-5f" x="853.173828"/>
      <use xlink:href="#ArialMT-41" x="908.789062"/>
      <use xlink:href="#ArialMT-62" x="975.488281"/>
      <use xlink:href="#ArialMT-73" x="1031.103516"/>
     </g>
    </g>
   </g>
  </g>
 </g>
 <defs>
  <clipPath id="peafcd59730">
   <rect x="41.25125" y="11.136797" width="357.12" height="266.112"/>
  </clipPath>
 </defs>
</svg>
