<?xml version="1.0" encoding="utf-8" standalone="no"?>
<!DOCTYPE svg PUBLIC "-//W3C//DTD SVG 1.1//EN"
  "http://www.w3.org/Graphics/SVG/1.1/DTD/svg11.dtd">
<svg xmlns:xlink="http://www.w3.org/1999/xlink" width="417.805313pt" height="309.333094pt" viewBox="0 0 417.805313 309.333094" xmlns="http://www.w3.org/2000/svg" version="1.1">
 <metadata>
  <rdf:RDF xmlns:dc="http://purl.org/dc/elements/1.1/" xmlns:cc="http://creativecommons.org/ns#" xmlns:rdf="http://www.w3.org/1999/02/22-rdf-syntax-ns#">
   <cc:Work>
    <dc:type rdf:resource="http://purl.org/dc/dcmitype/StillImage"/>
    <dc:date>2024-11-04T15:35:52.339751</dc:date>
    <dc:format>image/svg+xml</dc:format>
    <dc:creator>
     <cc:Agent>
      <dc:title>Matplotlib v3.7.1, https://matplotlib.org/</dc:title>
     </cc:Agent>
    </dc:creator>
   </cc:Work>
  </rdf:RDF>
 </metadata>
 <defs>
  <style type="text/css">*{stroke-linejoin: round; stroke-linecap: butt}</style>
 </defs>
 <g id="figure_1">
  <g id="patch_1">
   <path d="M 0 309.333094 
L 417.805313 309.333094 
L 417.805313 0 
L 0 0 
z
" style="fill: #ffffff"/>
  </g>
  <g id="axes_1">
   <g id="patch_2">
    <path d="M 41.25125 273.312 
L 398.37125 273.312 
L 398.37125 7.2 
L 41.25125 7.2 
z
" style="fill: #ffffff"/>
   </g>
   <g id="matplotlib.axis_1">
    <g id="xtick_1">
     <g id="line2d_1">
      <defs>
       <path id="me3ad25823b" d="M 0 0 
L 0 -6 
" style="stroke: #262626; stroke-width: 1.25"/>
      </defs>
      <g>
       <use xlink:href="#me3ad25823b" x="73.716705" y="273.312" style="fill: #262626; stroke: #262626; stroke-width: 1.25"/>
      </g>
     </g>
     <g id="text_1">
      <!-- 400 -->
      <g style="fill: #262626" transform="translate(64.541158 284.685594) scale(0.11 -0.11)">
       <defs>
        <path id="ArialMT-34" d="M 2069 0 
L 2069 1097 
L 81 1097 
L 81 1613 
L 2172 4581 
L 2631 4581 
L 2631 1613 
L 3250 1613 
L 3250 1097 
L 2631 1097 
L 2631 0 
L 2069 0 
z
M 2069 1613 
L 2069 3678 
L 634 1613 
L 2069 1613 
z
" transform="scale(0.015625)"/>
        <path id="ArialMT-30" d="M 266 2259 
Q 266 3072 433 3567 
Q 600 4063 929 4331 
Q 1259 4600 1759 4600 
Q 2128 4600 2406 4451 
Q 2684 4303 2865 4023 
Q 3047 3744 3150 3342 
Q 3253 2941 3253 2259 
Q 3253 1453 3087 958 
Q 2922 463 2592 192 
Q 2263 -78 1759 -78 
Q 1097 -78 719 397 
Q 266 969 266 2259 
z
M 844 2259 
Q 844 1131 1108 757 
Q 1372 384 1759 384 
Q 2147 384 2411 759 
Q 2675 1134 2675 2259 
Q 2675 3391 2411 3762 
Q 2147 4134 1753 4134 
Q 1366 4134 1134 3806 
Q 844 3388 844 2259 
z
" transform="scale(0.015625)"/>
       </defs>
       <use xlink:href="#ArialMT-34"/>
       <use xlink:href="#ArialMT-30" x="55.615234"/>
       <use xlink:href="#ArialMT-30" x="111.230469"/>
      </g>
     </g>
    </g>
    <g id="xtick_2">
     <g id="line2d_2">
      <g>
       <use xlink:href="#me3ad25823b" x="138.647614" y="273.312" style="fill: #262626; stroke: #262626; stroke-width: 1.25"/>
      </g>
     </g>
     <g id="text_2">
      <!-- 600 -->
      <g style="fill: #262626" transform="translate(129.472067 284.685594) scale(0.11 -0.11)">
       <defs>
        <path id="ArialMT-36" d="M 3184 3459 
L 2625 3416 
Q 2550 3747 2413 3897 
Q 2184 4138 1850 4138 
Q 1581 4138 1378 3988 
Q 1113 3794 959 3422 
Q 806 3050 800 2363 
Q 1003 2672 1297 2822 
Q 1591 2972 1913 2972 
Q 2475 2972 2870 2558 
Q 3266 2144 3266 1488 
Q 3266 1056 3080 686 
Q 2894 316 2569 119 
Q 2244 -78 1831 -78 
Q 1128 -78 684 439 
Q 241 956 241 2144 
Q 241 3472 731 4075 
Q 1159 4600 1884 4600 
Q 2425 4600 2770 4297 
Q 3116 3994 3184 3459 
z
M 888 1484 
Q 888 1194 1011 928 
Q 1134 663 1356 523 
Q 1578 384 1822 384 
Q 2178 384 2434 671 
Q 2691 959 2691 1453 
Q 2691 1928 2437 2201 
Q 2184 2475 1800 2475 
Q 1419 2475 1153 2201 
Q 888 1928 888 1484 
z
" transform="scale(0.015625)"/>
       </defs>
       <use xlink:href="#ArialMT-36"/>
       <use xlink:href="#ArialMT-30" x="55.615234"/>
       <use xlink:href="#ArialMT-30" x="111.230469"/>
      </g>
     </g>
    </g>
    <g id="xtick_3">
     <g id="line2d_3">
      <g>
       <use xlink:href="#me3ad25823b" x="203.578523" y="273.312" style="fill: #262626; stroke: #262626; stroke-width: 1.25"/>
      </g>
     </g>
     <g id="text_3">
      <!-- 800 -->
      <g style="fill: #262626" transform="translate(194.402976 284.685594) scale(0.11 -0.11)">
       <defs>
        <path id="ArialMT-38" d="M 1131 2484 
Q 781 2613 612 2850 
Q 444 3088 444 3419 
Q 444 3919 803 4259 
Q 1163 4600 1759 4600 
Q 2359 4600 2725 4251 
Q 3091 3903 3091 3403 
Q 3091 3084 2923 2848 
Q 2756 2613 2416 2484 
Q 2838 2347 3058 2040 
Q 3278 1734 3278 1309 
Q 3278 722 2862 322 
Q 2447 -78 1769 -78 
Q 1091 -78 675 323 
Q 259 725 259 1325 
Q 259 1772 486 2073 
Q 713 2375 1131 2484 
z
M 1019 3438 
Q 1019 3113 1228 2906 
Q 1438 2700 1772 2700 
Q 2097 2700 2305 2904 
Q 2513 3109 2513 3406 
Q 2513 3716 2298 3927 
Q 2084 4138 1766 4138 
Q 1444 4138 1231 3931 
Q 1019 3725 1019 3438 
z
M 838 1322 
Q 838 1081 952 856 
Q 1066 631 1291 507 
Q 1516 384 1775 384 
Q 2178 384 2440 643 
Q 2703 903 2703 1303 
Q 2703 1709 2433 1975 
Q 2163 2241 1756 2241 
Q 1359 2241 1098 1978 
Q 838 1716 838 1322 
z
" transform="scale(0.015625)"/>
       </defs>
       <use xlink:href="#ArialMT-38"/>
       <use xlink:href="#ArialMT-30" x="55.615234"/>
       <use xlink:href="#ArialMT-30" x="111.230469"/>
      </g>
     </g>
    </g>
    <g id="xtick_4">
     <g id="line2d_4">
      <g>
       <use xlink:href="#me3ad25823b" x="268.509432" y="273.312" style="fill: #262626; stroke: #262626; stroke-width: 1.25"/>
      </g>
     </g>
     <g id="text_4">
      <!-- 1000 -->
      <g style="fill: #262626" transform="translate(256.275369 284.685594) scale(0.11 -0.11)">
       <defs>
        <path id="ArialMT-31" d="M 2384 0 
L 1822 0 
L 1822 3584 
Q 1619 3391 1289 3197 
Q 959 3003 697 2906 
L 697 3450 
Q 1169 3672 1522 3987 
Q 1875 4303 2022 4600 
L 2384 4600 
L 2384 0 
z
" transform="scale(0.015625)"/>
       </defs>
       <use xlink:href="#ArialMT-31"/>
       <use xlink:href="#ArialMT-30" x="55.615234"/>
       <use xlink:href="#ArialMT-30" x="111.230469"/>
       <use xlink:href="#ArialMT-30" x="166.845703"/>
      </g>
     </g>
    </g>
    <g id="xtick_5">
     <g id="line2d_5">
      <g>
       <use xlink:href="#me3ad25823b" x="333.440341" y="273.312" style="fill: #262626; stroke: #262626; stroke-width: 1.25"/>
      </g>
     </g>
     <g id="text_5">
      <!-- 1200 -->
      <g style="fill: #262626" transform="translate(321.206278 284.685594) scale(0.11 -0.11)">
       <defs>
        <path id="ArialMT-32" d="M 3222 541 
L 3222 0 
L 194 0 
Q 188 203 259 391 
Q 375 700 629 1000 
Q 884 1300 1366 1694 
Q 2113 2306 2375 2664 
Q 2638 3022 2638 3341 
Q 2638 3675 2398 3904 
Q 2159 4134 1775 4134 
Q 1369 4134 1125 3890 
Q 881 3647 878 3216 
L 300 3275 
Q 359 3922 746 4261 
Q 1134 4600 1788 4600 
Q 2447 4600 2831 4234 
Q 3216 3869 3216 3328 
Q 3216 3053 3103 2787 
Q 2991 2522 2730 2228 
Q 2469 1934 1863 1422 
Q 1356 997 1212 845 
Q 1069 694 975 541 
L 3222 541 
z
" transform="scale(0.015625)"/>
       </defs>
       <use xlink:href="#ArialMT-31"/>
       <use xlink:href="#ArialMT-32" x="55.615234"/>
       <use xlink:href="#ArialMT-30" x="111.230469"/>
       <use xlink:href="#ArialMT-30" x="166.845703"/>
      </g>
     </g>
    </g>
    <g id="xtick_6">
     <g id="line2d_6">
      <g>
       <use xlink:href="#me3ad25823b" x="398.37125" y="273.312" style="fill: #262626; stroke: #262626; stroke-width: 1.25"/>
      </g>
     </g>
     <g id="text_6">
      <!-- 1400 -->
      <g style="fill: #262626" transform="translate(386.137188 284.685594) scale(0.11 -0.11)">
       <use xlink:href="#ArialMT-31"/>
       <use xlink:href="#ArialMT-34" x="55.615234"/>
       <use xlink:href="#ArialMT-30" x="111.230469"/>
       <use xlink:href="#ArialMT-30" x="166.845703"/>
      </g>
     </g>
    </g>
    <g id="xtick_7">
     <g id="line2d_7">
      <defs>
       <path id="m09f8e3ff1a" d="M 0 0 
L 0 -4 
" style="stroke: #262626"/>
      </defs>
      <g>
       <use xlink:href="#m09f8e3ff1a" x="106.182159" y="273.312" style="fill: #262626; stroke: #262626"/>
      </g>
     </g>
    </g>
    <g id="xtick_8">
     <g id="line2d_8">
      <g>
       <use xlink:href="#m09f8e3ff1a" x="171.113068" y="273.312" style="fill: #262626; stroke: #262626"/>
      </g>
     </g>
    </g>
    <g id="xtick_9">
     <g id="line2d_9">
      <g>
       <use xlink:href="#m09f8e3ff1a" x="236.043977" y="273.312" style="fill: #262626; stroke: #262626"/>
      </g>
     </g>
    </g>
    <g id="xtick_10">
     <g id="line2d_10">
      <g>
       <use xlink:href="#m09f8e3ff1a" x="300.974886" y="273.312" style="fill: #262626; stroke: #262626"/>
      </g>
     </g>
    </g>
    <g id="xtick_11">
     <g id="line2d_11">
      <g>
       <use xlink:href="#m09f8e3ff1a" x="365.905795" y="273.312" style="fill: #262626; stroke: #262626"/>
      </g>
     </g>
    </g>
    <g id="text_7">
     <!-- Wavelength (nm) -->
     <g style="fill: #262626" transform="translate(174.356562 299.607469) scale(0.12 -0.12)">
      <defs>
       <path id="ArialMT-57" d="M 1294 0 
L 78 4581 
L 700 4581 
L 1397 1578 
Q 1509 1106 1591 641 
Q 1766 1375 1797 1488 
L 2669 4581 
L 3400 4581 
L 4056 2263 
Q 4303 1400 4413 641 
Q 4500 1075 4641 1638 
L 5359 4581 
L 5969 4581 
L 4713 0 
L 4128 0 
L 3163 3491 
Q 3041 3928 3019 4028 
Q 2947 3713 2884 3491 
L 1913 0 
L 1294 0 
z
" transform="scale(0.015625)"/>
       <path id="ArialMT-61" d="M 2588 409 
Q 2275 144 1986 34 
Q 1697 -75 1366 -75 
Q 819 -75 525 192 
Q 231 459 231 875 
Q 231 1119 342 1320 
Q 453 1522 633 1644 
Q 813 1766 1038 1828 
Q 1203 1872 1538 1913 
Q 2219 1994 2541 2106 
Q 2544 2222 2544 2253 
Q 2544 2597 2384 2738 
Q 2169 2928 1744 2928 
Q 1347 2928 1158 2789 
Q 969 2650 878 2297 
L 328 2372 
Q 403 2725 575 2942 
Q 747 3159 1072 3276 
Q 1397 3394 1825 3394 
Q 2250 3394 2515 3294 
Q 2781 3194 2906 3042 
Q 3031 2891 3081 2659 
Q 3109 2516 3109 2141 
L 3109 1391 
Q 3109 606 3145 398 
Q 3181 191 3288 0 
L 2700 0 
Q 2613 175 2588 409 
z
M 2541 1666 
Q 2234 1541 1622 1453 
Q 1275 1403 1131 1340 
Q 988 1278 909 1158 
Q 831 1038 831 891 
Q 831 666 1001 516 
Q 1172 366 1500 366 
Q 1825 366 2078 508 
Q 2331 650 2450 897 
Q 2541 1088 2541 1459 
L 2541 1666 
z
" transform="scale(0.015625)"/>
       <path id="ArialMT-76" d="M 1344 0 
L 81 3319 
L 675 3319 
L 1388 1331 
Q 1503 1009 1600 663 
Q 1675 925 1809 1294 
L 2547 3319 
L 3125 3319 
L 1869 0 
L 1344 0 
z
" transform="scale(0.015625)"/>
       <path id="ArialMT-65" d="M 2694 1069 
L 3275 997 
Q 3138 488 2766 206 
Q 2394 -75 1816 -75 
Q 1088 -75 661 373 
Q 234 822 234 1631 
Q 234 2469 665 2931 
Q 1097 3394 1784 3394 
Q 2450 3394 2872 2941 
Q 3294 2488 3294 1666 
Q 3294 1616 3291 1516 
L 816 1516 
Q 847 969 1125 678 
Q 1403 388 1819 388 
Q 2128 388 2347 550 
Q 2566 713 2694 1069 
z
M 847 1978 
L 2700 1978 
Q 2663 2397 2488 2606 
Q 2219 2931 1791 2931 
Q 1403 2931 1139 2672 
Q 875 2413 847 1978 
z
" transform="scale(0.015625)"/>
       <path id="ArialMT-6c" d="M 409 0 
L 409 4581 
L 972 4581 
L 972 0 
L 409 0 
z
" transform="scale(0.015625)"/>
       <path id="ArialMT-6e" d="M 422 0 
L 422 3319 
L 928 3319 
L 928 2847 
Q 1294 3394 1984 3394 
Q 2284 3394 2536 3286 
Q 2788 3178 2913 3003 
Q 3038 2828 3088 2588 
Q 3119 2431 3119 2041 
L 3119 0 
L 2556 0 
L 2556 2019 
Q 2556 2363 2490 2533 
Q 2425 2703 2258 2804 
Q 2091 2906 1866 2906 
Q 1506 2906 1245 2678 
Q 984 2450 984 1813 
L 984 0 
L 422 0 
z
" transform="scale(0.015625)"/>
       <path id="ArialMT-67" d="M 319 -275 
L 866 -356 
Q 900 -609 1056 -725 
Q 1266 -881 1628 -881 
Q 2019 -881 2231 -725 
Q 2444 -569 2519 -288 
Q 2563 -116 2559 434 
Q 2191 0 1641 0 
Q 956 0 581 494 
Q 206 988 206 1678 
Q 206 2153 378 2554 
Q 550 2956 876 3175 
Q 1203 3394 1644 3394 
Q 2231 3394 2613 2919 
L 2613 3319 
L 3131 3319 
L 3131 450 
Q 3131 -325 2973 -648 
Q 2816 -972 2473 -1159 
Q 2131 -1347 1631 -1347 
Q 1038 -1347 672 -1080 
Q 306 -813 319 -275 
z
M 784 1719 
Q 784 1066 1043 766 
Q 1303 466 1694 466 
Q 2081 466 2343 764 
Q 2606 1063 2606 1700 
Q 2606 2309 2336 2618 
Q 2066 2928 1684 2928 
Q 1309 2928 1046 2623 
Q 784 2319 784 1719 
z
" transform="scale(0.015625)"/>
       <path id="ArialMT-74" d="M 1650 503 
L 1731 6 
Q 1494 -44 1306 -44 
Q 1000 -44 831 53 
Q 663 150 594 308 
Q 525 466 525 972 
L 525 2881 
L 113 2881 
L 113 3319 
L 525 3319 
L 525 4141 
L 1084 4478 
L 1084 3319 
L 1650 3319 
L 1650 2881 
L 1084 2881 
L 1084 941 
Q 1084 700 1114 631 
Q 1144 563 1211 522 
Q 1278 481 1403 481 
Q 1497 481 1650 503 
z
" transform="scale(0.015625)"/>
       <path id="ArialMT-68" d="M 422 0 
L 422 4581 
L 984 4581 
L 984 2938 
Q 1378 3394 1978 3394 
Q 2347 3394 2619 3248 
Q 2891 3103 3008 2847 
Q 3125 2591 3125 2103 
L 3125 0 
L 2563 0 
L 2563 2103 
Q 2563 2525 2380 2717 
Q 2197 2909 1863 2909 
Q 1613 2909 1392 2779 
Q 1172 2650 1078 2428 
Q 984 2206 984 1816 
L 984 0 
L 422 0 
z
" transform="scale(0.015625)"/>
       <path id="ArialMT-20" transform="scale(0.015625)"/>
       <path id="ArialMT-28" d="M 1497 -1347 
Q 1031 -759 709 28 
Q 388 816 388 1659 
Q 388 2403 628 3084 
Q 909 3875 1497 4659 
L 1900 4659 
Q 1522 4009 1400 3731 
Q 1209 3300 1100 2831 
Q 966 2247 966 1656 
Q 966 153 1900 -1347 
L 1497 -1347 
z
" transform="scale(0.015625)"/>
       <path id="ArialMT-6d" d="M 422 0 
L 422 3319 
L 925 3319 
L 925 2853 
Q 1081 3097 1340 3245 
Q 1600 3394 1931 3394 
Q 2300 3394 2536 3241 
Q 2772 3088 2869 2813 
Q 3263 3394 3894 3394 
Q 4388 3394 4653 3120 
Q 4919 2847 4919 2278 
L 4919 0 
L 4359 0 
L 4359 2091 
Q 4359 2428 4304 2576 
Q 4250 2725 4106 2815 
Q 3963 2906 3769 2906 
Q 3419 2906 3187 2673 
Q 2956 2441 2956 1928 
L 2956 0 
L 2394 0 
L 2394 2156 
Q 2394 2531 2256 2718 
Q 2119 2906 1806 2906 
Q 1569 2906 1367 2781 
Q 1166 2656 1075 2415 
Q 984 2175 984 1722 
L 984 0 
L 422 0 
z
" transform="scale(0.015625)"/>
       <path id="ArialMT-29" d="M 791 -1347 
L 388 -1347 
Q 1322 153 1322 1656 
Q 1322 2244 1188 2822 
Q 1081 3291 891 3722 
Q 769 4003 388 4659 
L 791 4659 
Q 1378 3875 1659 3084 
Q 1900 2403 1900 1659 
Q 1900 816 1576 28 
Q 1253 -759 791 -1347 
z
" transform="scale(0.015625)"/>
      </defs>
      <use xlink:href="#ArialMT-57"/>
      <use xlink:href="#ArialMT-61" x="90.634766"/>
      <use xlink:href="#ArialMT-76" x="146.25"/>
      <use xlink:href="#ArialMT-65" x="196.25"/>
      <use xlink:href="#ArialMT-6c" x="251.865234"/>
      <use xlink:href="#ArialMT-65" x="274.082031"/>
      <use xlink:href="#ArialMT-6e" x="329.697266"/>
      <use xlink:href="#ArialMT-67" x="385.3125"/>
      <use xlink:href="#ArialMT-74" x="440.927734"/>
      <use xlink:href="#ArialMT-68" x="468.710938"/>
      <use xlink:href="#ArialMT-20" x="524.326172"/>
      <use xlink:href="#ArialMT-28" x="552.109375"/>
      <use xlink:href="#ArialMT-6e" x="585.410156"/>
      <use xlink:href="#ArialMT-6d" x="641.025391"/>
      <use xlink:href="#ArialMT-29" x="724.326172"/>
     </g>
    </g>
   </g>
   <g id="matplotlib.axis_2">
    <g id="ytick_1">
     <g id="line2d_12">
      <defs>
       <path id="m3d836ee9d7" d="M 0 0 
L 6 0 
" style="stroke: #262626; stroke-width: 1.25"/>
      </defs>
      <g>
       <use xlink:href="#m3d836ee9d7" x="41.25125" y="273.312" style="fill: #262626; stroke: #262626; stroke-width: 1.25"/>
      </g>
     </g>
     <g id="text_8">
      <!-- 0.0 -->
      <g style="fill: #262626" transform="translate(22.46125 277.248797) scale(0.11 -0.11)">
       <defs>
        <path id="ArialMT-2e" d="M 581 0 
L 581 641 
L 1222 641 
L 1222 0 
L 581 0 
z
" transform="scale(0.015625)"/>
       </defs>
       <use xlink:href="#ArialMT-30"/>
       <use xlink:href="#ArialMT-2e" x="55.615234"/>
       <use xlink:href="#ArialMT-30" x="83.398438"/>
      </g>
     </g>
    </g>
    <g id="ytick_2">
     <g id="line2d_13">
      <g>
       <use xlink:href="#m3d836ee9d7" x="41.25125" y="224.928" style="fill: #262626; stroke: #262626; stroke-width: 1.25"/>
      </g>
     </g>
     <g id="text_9">
      <!-- 0.2 -->
      <g style="fill: #262626" transform="translate(22.46125 228.864797) scale(0.11 -0.11)">
       <use xlink:href="#ArialMT-30"/>
       <use xlink:href="#ArialMT-2e" x="55.615234"/>
       <use xlink:href="#ArialMT-32" x="83.398438"/>
      </g>
     </g>
    </g>
    <g id="ytick_3">
     <g id="line2d_14">
      <g>
       <use xlink:href="#m3d836ee9d7" x="41.25125" y="176.544" style="fill: #262626; stroke: #262626; stroke-width: 1.25"/>
      </g>
     </g>
     <g id="text_10">
      <!-- 0.4 -->
      <g style="fill: #262626" transform="translate(22.46125 180.480797) scale(0.11 -0.11)">
       <use xlink:href="#ArialMT-30"/>
       <use xlink:href="#ArialMT-2e" x="55.615234"/>
       <use xlink:href="#ArialMT-34" x="83.398438"/>
      </g>
     </g>
    </g>
    <g id="ytick_4">
     <g id="line2d_15">
      <g>
       <use xlink:href="#m3d836ee9d7" x="41.25125" y="128.16" style="fill: #262626; stroke: #262626; stroke-width: 1.25"/>
      </g>
     </g>
     <g id="text_11">
      <!-- 0.6 -->
      <g style="fill: #262626" transform="translate(22.46125 132.096797) scale(0.11 -0.11)">
       <use xlink:href="#ArialMT-30"/>
       <use xlink:href="#ArialMT-2e" x="55.615234"/>
       <use xlink:href="#ArialMT-36" x="83.398438"/>
      </g>
     </g>
    </g>
    <g id="ytick_5">
     <g id="line2d_16">
      <g>
       <use xlink:href="#m3d836ee9d7" x="41.25125" y="79.776" style="fill: #262626; stroke: #262626; stroke-width: 1.25"/>
      </g>
     </g>
     <g id="text_12">
      <!-- 0.8 -->
      <g style="fill: #262626" transform="translate(22.46125 83.712797) scale(0.11 -0.11)">
       <use xlink:href="#ArialMT-30"/>
       <use xlink:href="#ArialMT-2e" x="55.615234"/>
       <use xlink:href="#ArialMT-38" x="83.398438"/>
      </g>
     </g>
    </g>
    <g id="ytick_6">
     <g id="line2d_17">
      <g>
       <use xlink:href="#m3d836ee9d7" x="41.25125" y="31.392" style="fill: #262626; stroke: #262626; stroke-width: 1.25"/>
      </g>
     </g>
     <g id="text_13">
      <!-- 1.0 -->
      <g style="fill: #262626" transform="translate(22.46125 35.328797) scale(0.11 -0.11)">
       <use xlink:href="#ArialMT-31"/>
       <use xlink:href="#ArialMT-2e" x="55.615234"/>
       <use xlink:href="#ArialMT-30" x="83.398438"/>
      </g>
     </g>
    </g>
    <g id="ytick_7">
     <g id="line2d_18">
      <defs>
       <path id="m24b7d4d9f3" d="M 0 0 
L 4 0 
" style="stroke: #262626"/>
      </defs>
      <g>
       <use xlink:href="#m24b7d4d9f3" x="41.25125" y="249.12" style="fill: #262626; stroke: #262626"/>
      </g>
     </g>
    </g>
    <g id="ytick_8">
     <g id="line2d_19">
      <g>
       <use xlink:href="#m24b7d4d9f3" x="41.25125" y="200.736" style="fill: #262626; stroke: #262626"/>
      </g>
     </g>
    </g>
    <g id="ytick_9">
     <g id="line2d_20">
      <g>
       <use xlink:href="#m24b7d4d9f3" x="41.25125" y="152.352" style="fill: #262626; stroke: #262626"/>
      </g>
     </g>
    </g>
    <g id="ytick_10">
     <g id="line2d_21">
      <g>
       <use xlink:href="#m24b7d4d9f3" x="41.25125" y="103.968" style="fill: #262626; stroke: #262626"/>
      </g>
     </g>
    </g>
    <g id="ytick_11">
     <g id="line2d_22">
      <g>
       <use xlink:href="#m24b7d4d9f3" x="41.25125" y="55.584" style="fill: #262626; stroke: #262626"/>
      </g>
     </g>
    </g>
    <g id="ytick_12">
     <g id="line2d_23">
      <g>
       <use xlink:href="#m24b7d4d9f3" x="41.25125" y="7.2" style="fill: #262626; stroke: #262626"/>
      </g>
     </g>
    </g>
    <g id="text_14">
     <!-- Absorbance (a.u.) -->
     <g style="fill: #262626" transform="translate(15.935625 187.94475) rotate(-90) scale(0.12 -0.12)">
      <defs>
       <path id="ArialMT-41" d="M -9 0 
L 1750 4581 
L 2403 4581 
L 4278 0 
L 3588 0 
L 3053 1388 
L 1138 1388 
L 634 0 
L -9 0 
z
M 1313 1881 
L 2866 1881 
L 2388 3150 
Q 2169 3728 2063 4100 
Q 1975 3659 1816 3225 
L 1313 1881 
z
" transform="scale(0.015625)"/>
       <path id="ArialMT-62" d="M 941 0 
L 419 0 
L 419 4581 
L 981 4581 
L 981 2947 
Q 1338 3394 1891 3394 
Q 2197 3394 2470 3270 
Q 2744 3147 2920 2923 
Q 3097 2700 3197 2384 
Q 3297 2069 3297 1709 
Q 3297 856 2875 390 
Q 2453 -75 1863 -75 
Q 1275 -75 941 416 
L 941 0 
z
M 934 1684 
Q 934 1088 1097 822 
Q 1363 388 1816 388 
Q 2184 388 2453 708 
Q 2722 1028 2722 1663 
Q 2722 2313 2464 2622 
Q 2206 2931 1841 2931 
Q 1472 2931 1203 2611 
Q 934 2291 934 1684 
z
" transform="scale(0.015625)"/>
       <path id="ArialMT-73" d="M 197 991 
L 753 1078 
Q 800 744 1014 566 
Q 1228 388 1613 388 
Q 2000 388 2187 545 
Q 2375 703 2375 916 
Q 2375 1106 2209 1216 
Q 2094 1291 1634 1406 
Q 1016 1563 777 1677 
Q 538 1791 414 1992 
Q 291 2194 291 2438 
Q 291 2659 392 2848 
Q 494 3038 669 3163 
Q 800 3259 1026 3326 
Q 1253 3394 1513 3394 
Q 1903 3394 2198 3281 
Q 2494 3169 2634 2976 
Q 2775 2784 2828 2463 
L 2278 2388 
Q 2241 2644 2061 2787 
Q 1881 2931 1553 2931 
Q 1166 2931 1000 2803 
Q 834 2675 834 2503 
Q 834 2394 903 2306 
Q 972 2216 1119 2156 
Q 1203 2125 1616 2013 
Q 2213 1853 2448 1751 
Q 2684 1650 2818 1456 
Q 2953 1263 2953 975 
Q 2953 694 2789 445 
Q 2625 197 2315 61 
Q 2006 -75 1616 -75 
Q 969 -75 630 194 
Q 291 463 197 991 
z
" transform="scale(0.015625)"/>
       <path id="ArialMT-6f" d="M 213 1659 
Q 213 2581 725 3025 
Q 1153 3394 1769 3394 
Q 2453 3394 2887 2945 
Q 3322 2497 3322 1706 
Q 3322 1066 3130 698 
Q 2938 331 2570 128 
Q 2203 -75 1769 -75 
Q 1072 -75 642 372 
Q 213 819 213 1659 
z
M 791 1659 
Q 791 1022 1069 705 
Q 1347 388 1769 388 
Q 2188 388 2466 706 
Q 2744 1025 2744 1678 
Q 2744 2294 2464 2611 
Q 2184 2928 1769 2928 
Q 1347 2928 1069 2612 
Q 791 2297 791 1659 
z
" transform="scale(0.015625)"/>
       <path id="ArialMT-72" d="M 416 0 
L 416 3319 
L 922 3319 
L 922 2816 
Q 1116 3169 1280 3281 
Q 1444 3394 1641 3394 
Q 1925 3394 2219 3213 
L 2025 2691 
Q 1819 2813 1613 2813 
Q 1428 2813 1281 2702 
Q 1134 2591 1072 2394 
Q 978 2094 978 1738 
L 978 0 
L 416 0 
z
" transform="scale(0.015625)"/>
       <path id="ArialMT-63" d="M 2588 1216 
L 3141 1144 
Q 3050 572 2676 248 
Q 2303 -75 1759 -75 
Q 1078 -75 664 370 
Q 250 816 250 1647 
Q 250 2184 428 2587 
Q 606 2991 970 3192 
Q 1334 3394 1763 3394 
Q 2303 3394 2647 3120 
Q 2991 2847 3088 2344 
L 2541 2259 
Q 2463 2594 2264 2762 
Q 2066 2931 1784 2931 
Q 1359 2931 1093 2626 
Q 828 2322 828 1663 
Q 828 994 1084 691 
Q 1341 388 1753 388 
Q 2084 388 2306 591 
Q 2528 794 2588 1216 
z
" transform="scale(0.015625)"/>
       <path id="ArialMT-75" d="M 2597 0 
L 2597 488 
Q 2209 -75 1544 -75 
Q 1250 -75 995 37 
Q 741 150 617 320 
Q 494 491 444 738 
Q 409 903 409 1263 
L 409 3319 
L 972 3319 
L 972 1478 
Q 972 1038 1006 884 
Q 1059 663 1231 536 
Q 1403 409 1656 409 
Q 1909 409 2131 539 
Q 2353 669 2445 892 
Q 2538 1116 2538 1541 
L 2538 3319 
L 3100 3319 
L 3100 0 
L 2597 0 
z
" transform="scale(0.015625)"/>
      </defs>
      <use xlink:href="#ArialMT-41"/>
      <use xlink:href="#ArialMT-62" x="66.699219"/>
      <use xlink:href="#ArialMT-73" x="122.314453"/>
      <use xlink:href="#ArialMT-6f" x="172.314453"/>
      <use xlink:href="#ArialMT-72" x="227.929688"/>
      <use xlink:href="#ArialMT-62" x="261.230469"/>
      <use xlink:href="#ArialMT-61" x="316.845703"/>
      <use xlink:href="#ArialMT-6e" x="372.460938"/>
      <use xlink:href="#ArialMT-63" x="428.076172"/>
      <use xlink:href="#ArialMT-65" x="478.076172"/>
      <use xlink:href="#ArialMT-20" x="533.691406"/>
      <use xlink:href="#ArialMT-28" x="561.474609"/>
      <use xlink:href="#ArialMT-61" x="594.775391"/>
      <use xlink:href="#ArialMT-2e" x="650.390625"/>
      <use xlink:href="#ArialMT-75" x="678.173828"/>
      <use xlink:href="#ArialMT-2e" x="733.789062"/>
      <use xlink:href="#ArialMT-29" x="761.572266"/>
     </g>
    </g>
   </g>
   <g id="PolyCollection_1"/>
   <g id="PolyCollection_2"/>
   <g id="PolyCollection_3"/>
   <g id="line2d_24">
    <path d="M 41.467683 222.12876 
L 42.549868 218.445299 
L 43.632053 213.824819 
L 45.147105 206.121917 
L 46.445723 198.315588 
L 48.39365 184.518647 
L 53.588123 146.284107 
L 54.886741 138.576768 
L 55.752483 134.570366 
L 56.618235 131.484596 
L 57.70041 128.819602 
L 58.566162 127.46402 
L 59.215471 126.874678 
L 59.648338 126.731752 
L 60.081214 126.751348 
L 60.730523 127.286919 
L 61.379832 128.327102 
L 62.245574 130.493828 
L 63.544192 135.179549 
L 66.357871 146.769873 
L 67.440047 150.144842 
L 68.305799 152.070112 
L 68.955108 152.991558 
L 69.387984 153.361102 
L 70.037293 153.608787 
L 70.470159 153.536631 
L 71.119468 153.112632 
L 71.768777 152.339671 
L 72.634529 150.830679 
L 73.716705 148.237697 
L 75.015323 144.232464 
L 76.097508 140.275218 
L 77.396126 134.804742 
L 78.911177 127.604135 
L 81.075548 116.116421 
L 83.889217 99.777262 
L 89.949432 63.931962 
L 91.464493 56.284205 
L 92.979544 49.862874 
L 94.061729 46.185152 
L 94.927471 43.790958 
L 95.793214 41.909552 
L 96.658966 40.505433 
L 97.524708 39.649935 
L 97.957584 39.407297 
L 98.606893 39.320175 
L 99.256202 39.608393 
L 99.689068 40.001225 
L 100.338377 40.94807 
L 100.987686 42.366176 
L 101.636995 44.211245 
L 102.502748 47.497663 
L 103.36849 51.727539 
L 104.234232 56.794412 
L 105.316417 64.325544 
L 106.831468 76.534193 
L 109.212271 98.08902 
L 113.324559 138.536407 
L 115.921795 167.584963 
L 121.116268 226.172627 
L 122.631329 239.267436 
L 123.713505 246.806741 
L 124.7957 252.903587 
L 125.877875 257.687022 
L 126.743627 260.719524 
L 127.609359 263.123425 
L 128.691554 265.48795 
L 129.557286 266.955936 
L 130.855905 268.572009 
L 132.154523 269.660974 
L 133.236718 270.336579 
L 134.318893 270.8374 
L 135.833954 271.33571 
L 138.214748 271.811337 
L 141.028427 272.112841 
L 145.357148 272.319709 
L 154.447475 272.561213 
L 161.157009 272.63785 
L 163.754245 272.659472 
L 165.485729 272.679647 
L 168.299409 272.719116 
L 173.493881 272.759452 
L 174.576057 272.746709 
L 176.091118 272.781263 
L 177.389736 272.763921 
L 205.959336 272.818366 
L 206.825068 272.815887 
L 208.556572 272.787148 
L 210.071614 272.823173 
L 210.937366 272.794681 
L 211.370232 272.83707 
L 211.803118 272.810256 
L 215.698972 272.837668 
L 216.781148 272.824727 
L 217.863323 272.737995 
L 218.079766 272.869481 
L 218.512632 272.768309 
L 219.594827 272.83244 
L 220.460559 272.822172 
L 220.677002 272.945749 
L 220.893445 272.818391 
L 221.109868 272.953227 
L 221.542754 272.912324 
L 221.759177 272.996098 
L 221.97562 272.811225 
L 222.192063 272.911337 
L 222.841372 272.881775 
L 223.274238 272.949557 
L 223.490681 272.836472 
L 224.356414 272.97016 
L 224.572857 272.944743 
L 224.7893 272.800401 
L 225.005723 272.929861 
L 225.222166 272.867198 
L 225.438609 272.922752 
L 225.871475 272.740312 
L 226.520784 272.975048 
L 226.95365 272.835403 
L 228.901577 272.98932 
L 229.11802 272.813528 
L 229.334463 273.014513 
L 229.767329 272.704825 
L 229.983772 272.847669 
L 230.200195 272.796946 
L 230.416638 272.593558 
L 230.849505 272.984779 
L 231.28239 272.947464 
L 231.498814 272.933337 
L 231.715257 272.736175 
L 231.9317 272.800162 
L 232.148123 272.497143 
L 232.581009 272.792352 
L 232.797432 272.616664 
L 233.013875 272.808525 
L 233.663184 272.504117 
L 234.09605 272.960522 
L 234.312493 272.793951 
L 234.528936 273.021502 
L 234.745359 272.192843 
L 234.961802 273.025848 
L 235.178245 272.546459 
L 235.611111 273.173116 
L 235.827534 273.303383 
L 240.156255 273.306301 
L 251.410952 273.298272 
L 255.52325 273.284975 
L 266.128619 273.295178 
L 268.942298 273.285532 
L 271.323091 273.293838 
L 279.331263 273.308831 
L 294.481795 273.298422 
L 301.19131 273.288401 
L 306.385782 273.286115 
L 311.580255 273.313766 
L 314.8268 273.288501 
L 324.566437 273.274964 
L 330.410219 273.27482 
L 339.933432 273.334241 
L 342.963554 273.331925 
L 365.689372 273.299506 
L 367.853723 273.295122 
L 378.459091 273.295228 
L 383.437141 273.26786 
L 385.168645 273.264208 
L 393.3932 273.187538 
L 398.37125 273.072374 
L 398.37125 273.072374 
" clip-path="url(#pf97c878783)" style="fill: none; stroke: #f4865e; stroke-linecap: round"/>
   </g>
   <g id="line2d_25">
    <path d="M 41.467683 201.40195 
L 43.41561 193.737451 
L 44.064919 189.291441 
L 44.930671 181.036498 
L 46.662156 162.417405 
L 48.610083 144.325873 
L 49.259392 135.805055 
L 50.774453 110.743882 
L 51.640195 98.744793 
L 52.289505 92.976048 
L 52.722381 90.465401 
L 53.37169 88.066535 
L 54.453865 84.864471 
L 55.103174 81.458788 
L 55.968926 74.945936 
L 57.051101 66.169416 
L 57.483977 64.015452 
L 57.70041 63.431402 
L 57.916853 63.276103 
L 58.133286 63.54014 
L 58.349719 64.173432 
L 58.782595 66.691534 
L 59.431905 72.824502 
L 63.111326 114.959626 
L 64.193501 124.186916 
L 65.492119 133.491553 
L 66.790738 141.009563 
L 68.305799 147.901476 
L 71.768777 162.084969 
L 72.850962 168.063908 
L 74.366014 177.872126 
L 76.96325 194.999018 
L 78.261868 201.976677 
L 79.344053 206.760538 
L 80.426238 210.499291 
L 81.291981 212.841856 
L 82.157723 214.673889 
L 83.239908 216.370454 
L 83.889217 217.086984 
L 85.187835 218.056713 
L 86.053577 218.39806 
L 87.135762 218.486243 
L 88.217948 218.352822 
L 89.08369 218.061198 
L 90.598741 217.262693 
L 92.113802 216.181886 
L 93.845286 214.713864 
L 99.689068 209.148301 
L 102.502748 206.887271 
L 104.234232 205.789503 
L 105.749293 205.014849 
L 107.480777 204.365976 
L 108.779395 204.092596 
L 110.294457 204.027902 
L 112.025941 204.170577 
L 113.757425 204.643682 
L 115.705352 205.474775 
L 118.086166 206.985022 
L 119.384784 207.978644 
L 120.899825 209.285878 
L 123.497062 211.884477 
L 125.228566 213.829274 
L 127.176493 216.24318 
L 128.907977 218.460396 
L 138.864057 233.276825 
L 142.759911 238.710737 
L 144.274972 240.690809 
L 149.685868 247.390953 
L 152.71599 250.763697 
L 154.663918 252.753191 
L 157.477577 255.381912 
L 160.074814 257.497246 
L 164.187111 260.165244 
L 165.485729 260.849921 
L 169.598027 262.704351 
L 177.606159 265.279304 
L 183.666384 267.007504 
L 184.748559 267.312132 
L 187.995105 268.1992 
L 189.0773 268.448837 
L 192.540268 269.339198 
L 194.921081 269.838298 
L 199.033359 270.580154 
L 200.115554 270.739976 
L 201.630595 270.957599 
L 202.71279 271.092233 
L 204.444275 271.285044 
L 206.392202 271.457847 
L 207.041511 271.535286 
L 209.205881 271.699818 
L 209.85519 271.747577 
L 210.288057 271.785174 
L 211.153809 271.861541 
L 216.781148 272.139625 
L 216.99759 272.080487 
L 217.430457 272.190444 
L 219.161941 272.124039 
L 219.378384 272.271102 
L 219.594827 272.188925 
L 220.244136 272.278318 
L 220.460559 272.195286 
L 220.677002 272.386148 
L 220.893445 272.25212 
L 221.759177 272.439406 
L 221.97562 272.287235 
L 222.192063 272.40318 
L 222.841372 272.346074 
L 223.057795 272.431759 
L 223.707105 272.37978 
L 223.923548 272.471625 
L 224.356414 272.401316 
L 224.7893 272.465179 
L 225.438609 272.481068 
L 225.655032 272.494158 
L 225.871475 272.322889 
L 226.737227 272.572988 
L 226.95365 272.347173 
L 227.170093 272.490718 
L 227.386536 272.431917 
L 227.602959 272.75293 
L 227.819402 272.792919 
L 228.035845 272.572118 
L 228.252268 272.606672 
L 228.468711 272.498235 
L 228.685154 272.668381 
L 228.901577 272.627317 
L 229.11802 272.799073 
L 229.334463 272.537867 
L 229.550886 272.559611 
L 229.767329 272.397975 
L 229.983772 272.603803 
L 230.200195 272.507342 
L 230.633081 272.697525 
L 230.849505 272.430041 
L 231.065948 272.875084 
L 231.28239 272.579458 
L 231.498814 272.68817 
L 231.715257 272.389257 
L 232.364566 272.633709 
L 232.581009 272.828892 
L 232.797432 272.58287 
L 233.013875 272.519735 
L 233.230318 272.637957 
L 233.446741 272.324684 
L 233.663184 272.367137 
L 233.879627 272.147255 
L 234.09605 272.578285 
L 234.312493 272.395182 
L 234.528936 272.742031 
L 234.745359 272.204495 
L 234.961802 272.542914 
L 235.178245 272.607769 
L 235.394668 272.957807 
L 235.827534 273.019618 
L 246.865789 273.148903 
L 252.060262 273.18624 
L 257.038291 273.196384 
L 260.50128 273.224009 
L 276.301141 273.199368 
L 278.249068 273.193149 
L 290.369518 273.217791 
L 300.542 273.284693 
L 308.117286 273.336896 
L 312.446027 273.465478 
L 316.774728 273.317072 
L 325.432209 273.254552 
L 333.440341 273.289397 
L 358.763395 273.228471 
L 366.771528 273.254841 
L 367.6373 273.246156 
L 369.80165 273.257767 
L 379.75771 273.229461 
L 383.220718 273.246808 
L 385.385068 273.252109 
L 387.116572 273.263594 
L 394.04251 273.195431 
L 394.908281 273.188547 
L 398.37125 273.159376 
L 398.37125 273.159376 
" clip-path="url(#pf97c878783)" style="fill: none; stroke: #ca1a50; stroke-linecap: round"/>
   </g>
   <g id="line2d_26">
    <path d="M 41.467683 175.809228 
L 43.199177 161.542325 
L 43.848486 153.379155 
L 44.714229 138.786082 
L 46.22929 111.843214 
L 47.095032 101.631963 
L 48.39365 88.743865 
L 49.042959 78.787479 
L 49.908701 60.367895 
L 50.990886 36.576306 
L 51.423762 30.206049 
L 51.856629 26.657108 
L 52.073071 25.870925 
L 52.289505 25.798308 
L 52.505938 26.223887 
L 52.938814 28.48992 
L 54.453865 38.315809 
L 54.670308 38.850083 
L 54.886741 39.045612 
L 55.103174 38.772303 
L 55.53605 37.338524 
L 56.185359 33.214069 
L 56.834668 29.356305 
L 57.051101 28.726459 
L 57.267544 28.700273 
L 57.483977 29.302116 
L 57.70041 30.643942 
L 58.133286 35.959654 
L 58.566162 44.481597 
L 59.215471 62.263562 
L 61.596265 136.064924 
L 62.462017 154.911572 
L 63.327759 169.151885 
L 64.193501 179.788168 
L 65.059253 187.779435 
L 65.924995 193.672881 
L 66.790738 197.993311 
L 67.65649 201.063573 
L 68.305799 202.671722 
L 68.955108 203.820701 
L 69.604417 204.493286 
L 70.037293 204.817294 
L 70.686602 204.998922 
L 71.98522 204.765542 
L 72.850962 204.344332 
L 73.933148 203.615871 
L 75.231766 202.448521 
L 76.746817 200.503395 
L 77.612559 199.12826 
L 79.560486 195.353429 
L 81.075548 192.407125 
L 82.374166 190.313679 
L 83.456341 189.050923 
L 84.322093 188.29492 
L 85.620711 187.557107 
L 87.135762 187.008349 
L 88.650814 186.690643 
L 89.732999 186.600737 
L 90.598741 186.709007 
L 91.464493 187.041399 
L 92.113802 187.469891 
L 92.979544 188.335929 
L 93.845286 189.555477 
L 94.711038 191.100425 
L 95.793214 193.444006 
L 97.308275 197.272355 
L 99.905511 204.645564 
L 102.719181 213.129407 
L 108.130086 230.625822 
L 112.891693 246.200514 
L 114.83962 251.830389 
L 116.571105 256.152512 
L 117.869723 258.975378 
L 119.168341 261.388446 
L 120.466959 263.471107 
L 121.98202 265.467465 
L 123.280638 266.861024 
L 124.7957 268.146346 
L 126.310741 269.142877 
L 127.609359 269.782306 
L 130.206595 270.802162 
L 132.587409 271.333343 
L 139.946232 272.05017 
L 146.872209 272.244725 
L 148.603693 272.339665 
L 157.044711 272.510263 
L 165.702172 272.588255 
L 166.567905 272.606968 
L 167.866523 272.634887 
L 172.628129 272.662099 
L 181.502014 272.702457 
L 184.315693 272.714292 
L 186.047177 272.727372 
L 186.696486 272.727309 
L 187.778681 272.744946 
L 206.175759 272.832295 
L 209.85519 272.83049 
L 210.288057 272.860764 
L 211.803118 272.818051 
L 214.400354 272.843065 
L 215.266086 272.855488 
L 218.079766 272.927517 
L 218.512632 272.809368 
L 218.945518 272.843977 
L 219.594827 272.843732 
L 220.244136 272.907697 
L 221.542754 272.9472 
L 221.759177 273.005413 
L 221.97562 272.859582 
L 223.707105 272.985752 
L 224.13999 273.005978 
L 224.356414 272.841404 
L 224.572857 273.089445 
L 224.7893 272.934323 
L 225.222166 273.002699 
L 225.438609 272.987128 
L 225.655032 272.817762 
L 226.520784 273.104029 
L 226.737227 273.048301 
L 226.95365 272.86111 
L 228.035845 273.223451 
L 228.252268 272.844379 
L 228.468711 273.15234 
L 230.200195 272.926184 
L 230.633081 273.195813 
L 230.849505 272.832012 
L 231.065948 273.162079 
L 231.28239 272.837517 
L 231.715257 273.066493 
L 231.9317 272.818479 
L 232.148123 273.046336 
L 232.364566 272.767673 
L 232.581009 273.275572 
L 232.797432 273.233397 
L 233.013875 272.903724 
L 233.230318 273.008076 
L 233.446741 272.980413 
L 233.879627 273.10972 
L 234.09605 272.770663 
L 234.312493 273.13021 
L 234.745359 272.640301 
L 234.961802 272.815723 
L 235.178245 272.678361 
L 235.394668 273.087889 
L 235.611111 272.872066 
L 235.827534 273.352635 
L 238.208328 273.355577 
L 308.550172 273.498865 
L 312.66245 273.736317 
L 317.6405 273.356904 
L 322.185663 273.331148 
L 324.566437 273.295153 
L 328.462291 273.297884 
L 333.007455 273.388373 
L 337.552619 273.399173 
L 341.23205 273.404191 
L 349.456645 273.397834 
L 384.08645 273.259922 
L 389.0645 273.111031 
L 390.146655 273.114984 
L 395.341128 272.997097 
L 397.072632 272.858003 
L 398.154827 272.662181 
L 398.37125 272.598249 
L 398.37125 272.598249 
" clip-path="url(#pf97c878783)" style="fill: none; stroke: #601f52; stroke-linecap: round"/>
   </g>
   <g id="line2d_27"/>
   <g id="line2d_28"/>
   <g id="line2d_29"/>
   <g id="patch_3">
    <path d="M 41.25125 273.312 
L 41.25125 7.2 
" style="fill: none; stroke: #262626; stroke-width: 1.25; stroke-linejoin: miter; stroke-linecap: square"/>
   </g>
   <g id="patch_4">
    <path d="M 41.25125 273.312 
L 398.37125 273.312 
" style="fill: none; stroke: #262626; stroke-width: 1.25; stroke-linejoin: miter; stroke-linecap: square"/>
   </g>
   <g id="legend_1">
    <g id="line2d_30">
     <path d="M 256.688938 41.479012 
L 262.688938 41.479012 
L 268.688938 41.479012 
" style="fill: none; stroke: #f4865e; stroke-width: 1.5; stroke-linecap: round"/>
    </g>
    <g id="text_15">
     <!-- 0.0% TFA_Abs -->
     <g style="fill: #262626" transform="translate(273.488938 43.579012) scale(0.06 -0.06)">
      <defs>
       <path id="ArialMT-25" d="M 372 3481 
Q 372 3972 619 4315 
Q 866 4659 1334 4659 
Q 1766 4659 2048 4351 
Q 2331 4044 2331 3447 
Q 2331 2866 2045 2552 
Q 1759 2238 1341 2238 
Q 925 2238 648 2547 
Q 372 2856 372 3481 
z
M 1350 4272 
Q 1141 4272 1002 4090 
Q 863 3909 863 3425 
Q 863 2984 1003 2804 
Q 1144 2625 1350 2625 
Q 1563 2625 1702 2806 
Q 1841 2988 1841 3469 
Q 1841 3913 1700 4092 
Q 1559 4272 1350 4272 
z
M 1353 -169 
L 3859 4659 
L 4316 4659 
L 1819 -169 
L 1353 -169 
z
M 3334 1075 
Q 3334 1569 3581 1911 
Q 3828 2253 4300 2253 
Q 4731 2253 5014 1945 
Q 5297 1638 5297 1041 
Q 5297 459 5011 145 
Q 4725 -169 4303 -169 
Q 3888 -169 3611 142 
Q 3334 453 3334 1075 
z
M 4316 1866 
Q 4103 1866 3964 1684 
Q 3825 1503 3825 1019 
Q 3825 581 3965 400 
Q 4106 219 4313 219 
Q 4528 219 4667 400 
Q 4806 581 4806 1063 
Q 4806 1506 4665 1686 
Q 4525 1866 4316 1866 
z
" transform="scale(0.015625)"/>
       <path id="ArialMT-54" d="M 1659 0 
L 1659 4041 
L 150 4041 
L 150 4581 
L 3781 4581 
L 3781 4041 
L 2266 4041 
L 2266 0 
L 1659 0 
z
" transform="scale(0.015625)"/>
       <path id="ArialMT-46" d="M 525 0 
L 525 4581 
L 3616 4581 
L 3616 4041 
L 1131 4041 
L 1131 2622 
L 3281 2622 
L 3281 2081 
L 1131 2081 
L 1131 0 
L 525 0 
z
" transform="scale(0.015625)"/>
       <path id="ArialMT-5f" d="M -97 -1272 
L -97 -866 
L 3631 -866 
L 3631 -1272 
L -97 -1272 
z
" transform="scale(0.015625)"/>
      </defs>
      <use xlink:href="#ArialMT-30"/>
      <use xlink:href="#ArialMT-2e" x="55.615234"/>
      <use xlink:href="#ArialMT-30" x="83.398438"/>
      <use xlink:href="#ArialMT-25" x="139.013672"/>
      <use xlink:href="#ArialMT-20" x="227.929688"/>
      <use xlink:href="#ArialMT-54" x="253.962891"/>
      <use xlink:href="#ArialMT-46" x="315.046875"/>
      <use xlink:href="#ArialMT-41" x="370.630859"/>
      <use xlink:href="#ArialMT-5f" x="437.330078"/>
      <use xlink:href="#ArialMT-41" x="492.945312"/>
      <use xlink:href="#ArialMT-62" x="559.644531"/>
      <use xlink:href="#ArialMT-73" x="615.259766"/>
     </g>
    </g>
    <g id="line2d_31">
     <path d="M 256.688938 50.039325 
L 262.688938 50.039325 
L 268.688938 50.039325 
" style="fill: none; stroke: #ca1a50; stroke-width: 1.5; stroke-linecap: round"/>
    </g>
    <g id="text_16">
     <!-- 0.05% TFA_Abs -->
     <g style="fill: #262626" transform="translate(273.488938 52.139325) scale(0.06 -0.06)">
      <defs>
       <path id="ArialMT-35" d="M 266 1200 
L 856 1250 
Q 922 819 1161 601 
Q 1400 384 1738 384 
Q 2144 384 2425 690 
Q 2706 997 2706 1503 
Q 2706 1984 2436 2262 
Q 2166 2541 1728 2541 
Q 1456 2541 1237 2417 
Q 1019 2294 894 2097 
L 366 2166 
L 809 4519 
L 3088 4519 
L 3088 3981 
L 1259 3981 
L 1013 2750 
Q 1425 3038 1878 3038 
Q 2478 3038 2890 2622 
Q 3303 2206 3303 1553 
Q 3303 931 2941 478 
Q 2500 -78 1738 -78 
Q 1113 -78 717 272 
Q 322 622 266 1200 
z
" transform="scale(0.015625)"/>
      </defs>
      <use xlink:href="#ArialMT-30"/>
      <use xlink:href="#ArialMT-2e" x="55.615234"/>
      <use xlink:href="#ArialMT-30" x="83.398438"/>
      <use xlink:href="#ArialMT-35" x="139.013672"/>
      <use xlink:href="#ArialMT-25" x="194.628906"/>
      <use xlink:href="#ArialMT-20" x="283.544922"/>
      <use xlink:href="#ArialMT-54" x="309.578125"/>
      <use xlink:href="#ArialMT-46" x="370.662109"/>
      <use xlink:href="#ArialMT-41" x="426.246094"/>
      <use xlink:href="#ArialMT-5f" x="492.945312"/>
      <use xlink:href="#ArialMT-41" x="548.560547"/>
      <use xlink:href="#ArialMT-62" x="615.259766"/>
      <use xlink:href="#ArialMT-73" x="670.875"/>
     </g>
    </g>
    <g id="line2d_32">
     <path d="M 256.688938 58.599637 
L 262.688938 58.599637 
L 268.688938 58.599637 
" style="fill: none; stroke: #601f52; stroke-width: 1.5; stroke-linecap: round"/>
    </g>
    <g id="text_17">
     <!-- 0.05% TFA + triethylamine_Abs -->
     <g style="fill: #262626" transform="translate(273.488938 60.699637) scale(0.06 -0.06)">
      <defs>
       <path id="ArialMT-2b" d="M 1603 741 
L 1603 1997 
L 356 1997 
L 356 2522 
L 1603 2522 
L 1603 3769 
L 2134 3769 
L 2134 2522 
L 3381 2522 
L 3381 1997 
L 2134 1997 
L 2134 741 
L 1603 741 
z
" transform="scale(0.015625)"/>
       <path id="ArialMT-69" d="M 425 3934 
L 425 4581 
L 988 4581 
L 988 3934 
L 425 3934 
z
M 425 0 
L 425 3319 
L 988 3319 
L 988 0 
L 425 0 
z
" transform="scale(0.015625)"/>
       <path id="ArialMT-79" d="M 397 -1278 
L 334 -750 
Q 519 -800 656 -800 
Q 844 -800 956 -737 
Q 1069 -675 1141 -563 
Q 1194 -478 1313 -144 
Q 1328 -97 1363 -6 
L 103 3319 
L 709 3319 
L 1400 1397 
Q 1534 1031 1641 628 
Q 1738 1016 1872 1384 
L 2581 3319 
L 3144 3319 
L 1881 -56 
Q 1678 -603 1566 -809 
Q 1416 -1088 1222 -1217 
Q 1028 -1347 759 -1347 
Q 597 -1347 397 -1278 
z
" transform="scale(0.015625)"/>
      </defs>
      <use xlink:href="#ArialMT-30"/>
      <use xlink:href="#ArialMT-2e" x="55.615234"/>
      <use xlink:href="#ArialMT-30" x="83.398438"/>
      <use xlink:href="#ArialMT-35" x="139.013672"/>
      <use xlink:href="#ArialMT-25" x="194.628906"/>
      <use xlink:href="#ArialMT-20" x="283.544922"/>
      <use xlink:href="#ArialMT-54" x="309.578125"/>
      <use xlink:href="#ArialMT-46" x="370.662109"/>
      <use xlink:href="#ArialMT-41" x="426.246094"/>
      <use xlink:href="#ArialMT-20" x="487.445312"/>
      <use xlink:href="#ArialMT-2b" x="515.228516"/>
      <use xlink:href="#ArialMT-20" x="573.626953"/>
      <use xlink:href="#ArialMT-74" x="601.410156"/>
      <use xlink:href="#ArialMT-72" x="629.193359"/>
      <use xlink:href="#ArialMT-69" x="662.494141"/>
      <use xlink:href="#ArialMT-65" x="684.710938"/>
      <use xlink:href="#ArialMT-74" x="740.326172"/>
      <use xlink:href="#ArialMT-68" x="768.109375"/>
      <use xlink:href="#ArialMT-79" x="823.724609"/>
      <use xlink:href="#ArialMT-6c" x="873.724609"/>
      <use xlink:href="#ArialMT-61" x="895.941406"/>
      <use xlink:href="#ArialMT-6d" x="951.556641"/>
      <use xlink:href="#ArialMT-69" x="1034.857422"/>
      <use xlink:href="#ArialMT-6e" x="1057.074219"/>
      <use xlink:href="#ArialMT-65" x="1112.689453"/>
      <use xlink:href="#ArialMT-5f" x="1168.304688"/>
      <use xlink:href="#ArialMT-41" x="1223.919922"/>
      <use xlink:href="#ArialMT-62" x="1290.619141"/>
      <use xlink:href="#ArialMT-73" x="1346.234375"/>
     </g>
    </g>
   </g>
  </g>
 </g>
 <defs>
  <clipPath id="pf97c878783">
   <rect x="41.25125" y="7.2" width="357.12" height="266.112"/>
  </clipPath>
 </defs>
</svg>
