<?xml version="1.0" encoding="utf-8" standalone="no"?>
<!DOCTYPE svg PUBLIC "-//W3C//DTD SVG 1.1//EN"
  "http://www.w3.org/Graphics/SVG/1.1/DTD/svg11.dtd">
<svg xmlns:xlink="http://www.w3.org/1999/xlink" width="417.805313pt" height="313.269891pt" viewBox="0 0 417.805313 313.269891" xmlns="http://www.w3.org/2000/svg" version="1.1">
 <metadata>
  <rdf:RDF xmlns:dc="http://purl.org/dc/elements/1.1/" xmlns:cc="http://creativecommons.org/ns#" xmlns:rdf="http://www.w3.org/1999/02/22-rdf-syntax-ns#">
   <cc:Work>
    <dc:type rdf:resource="http://purl.org/dc/dcmitype/StillImage"/>
    <dc:date>2024-08-28T16:59:55.493489</dc:date>
    <dc:format>image/svg+xml</dc:format>
    <dc:creator>
     <cc:Agent>
      <dc:title>Matplotlib v3.7.1, https://matplotlib.org/</dc:title>
     </cc:Agent>
    </dc:creator>
   </cc:Work>
  </rdf:RDF>
 </metadata>
 <defs>
  <style type="text/css">*{stroke-linejoin: round; stroke-linecap: butt}</style>
 </defs>
 <g id="figure_1">
  <g id="patch_1">
   <path d="M 0 313.269891 
L 417.805313 313.269891 
L 417.805313 0 
L 0 0 
z
" style="fill: #ffffff"/>
  </g>
  <g id="axes_1">
   <g id="patch_2">
    <path d="M 41.25125 277.248797 
L 398.37125 277.248797 
L 398.37125 11.136797 
L 41.25125 11.136797 
z
" style="fill: #ffffff"/>
   </g>
   <g id="matplotlib.axis_1">
    <g id="xtick_1">
     <g id="line2d_1">
      <defs>
       <path id="m24073bf0cd" d="M 0 0 
L 0 -6 
" style="stroke: #262626; stroke-width: 1.25"/>
      </defs>
      <g>
       <use xlink:href="#m24073bf0cd" x="68.722019" y="277.248797" style="fill: #262626; stroke: #262626; stroke-width: 1.25"/>
      </g>
     </g>
     <g id="text_1">
      <!-- 400 -->
      <g style="fill: #262626" transform="translate(59.546472 288.622391) scale(0.11 -0.11)">
       <defs>
        <path id="ArialMT-34" d="M 2069 0 
L 2069 1097 
L 81 1097 
L 81 1613 
L 2172 4581 
L 2631 4581 
L 2631 1613 
L 3250 1613 
L 3250 1097 
L 2631 1097 
L 2631 0 
L 2069 0 
z
M 2069 1613 
L 2069 3678 
L 634 1613 
L 2069 1613 
z
" transform="scale(0.015625)"/>
        <path id="ArialMT-30" d="M 266 2259 
Q 266 3072 433 3567 
Q 600 4063 929 4331 
Q 1259 4600 1759 4600 
Q 2128 4600 2406 4451 
Q 2684 4303 2865 4023 
Q 3047 3744 3150 3342 
Q 3253 2941 3253 2259 
Q 3253 1453 3087 958 
Q 2922 463 2592 192 
Q 2263 -78 1759 -78 
Q 1097 -78 719 397 
Q 266 969 266 2259 
z
M 844 2259 
Q 844 1131 1108 757 
Q 1372 384 1759 384 
Q 2147 384 2411 759 
Q 2675 1134 2675 2259 
Q 2675 3391 2411 3762 
Q 2147 4134 1753 4134 
Q 1366 4134 1134 3806 
Q 844 3388 844 2259 
z
" transform="scale(0.015625)"/>
       </defs>
       <use xlink:href="#ArialMT-34"/>
       <use xlink:href="#ArialMT-30" x="55.615234"/>
       <use xlink:href="#ArialMT-30" x="111.230469"/>
      </g>
     </g>
    </g>
    <g id="xtick_2">
     <g id="line2d_2">
      <g>
       <use xlink:href="#m24073bf0cd" x="123.663558" y="277.248797" style="fill: #262626; stroke: #262626; stroke-width: 1.25"/>
      </g>
     </g>
     <g id="text_2">
      <!-- 600 -->
      <g style="fill: #262626" transform="translate(114.488011 288.622391) scale(0.11 -0.11)">
       <defs>
        <path id="ArialMT-36" d="M 3184 3459 
L 2625 3416 
Q 2550 3747 2413 3897 
Q 2184 4138 1850 4138 
Q 1581 4138 1378 3988 
Q 1113 3794 959 3422 
Q 806 3050 800 2363 
Q 1003 2672 1297 2822 
Q 1591 2972 1913 2972 
Q 2475 2972 2870 2558 
Q 3266 2144 3266 1488 
Q 3266 1056 3080 686 
Q 2894 316 2569 119 
Q 2244 -78 1831 -78 
Q 1128 -78 684 439 
Q 241 956 241 2144 
Q 241 3472 731 4075 
Q 1159 4600 1884 4600 
Q 2425 4600 2770 4297 
Q 3116 3994 3184 3459 
z
M 888 1484 
Q 888 1194 1011 928 
Q 1134 663 1356 523 
Q 1578 384 1822 384 
Q 2178 384 2434 671 
Q 2691 959 2691 1453 
Q 2691 1928 2437 2201 
Q 2184 2475 1800 2475 
Q 1419 2475 1153 2201 
Q 888 1928 888 1484 
z
" transform="scale(0.015625)"/>
       </defs>
       <use xlink:href="#ArialMT-36"/>
       <use xlink:href="#ArialMT-30" x="55.615234"/>
       <use xlink:href="#ArialMT-30" x="111.230469"/>
      </g>
     </g>
    </g>
    <g id="xtick_3">
     <g id="line2d_3">
      <g>
       <use xlink:href="#m24073bf0cd" x="178.605096" y="277.248797" style="fill: #262626; stroke: #262626; stroke-width: 1.25"/>
      </g>
     </g>
     <g id="text_3">
      <!-- 800 -->
      <g style="fill: #262626" transform="translate(169.429549 288.622391) scale(0.11 -0.11)">
       <defs>
        <path id="ArialMT-38" d="M 1131 2484 
Q 781 2613 612 2850 
Q 444 3088 444 3419 
Q 444 3919 803 4259 
Q 1163 4600 1759 4600 
Q 2359 4600 2725 4251 
Q 3091 3903 3091 3403 
Q 3091 3084 2923 2848 
Q 2756 2613 2416 2484 
Q 2838 2347 3058 2040 
Q 3278 1734 3278 1309 
Q 3278 722 2862 322 
Q 2447 -78 1769 -78 
Q 1091 -78 675 323 
Q 259 725 259 1325 
Q 259 1772 486 2073 
Q 713 2375 1131 2484 
z
M 1019 3438 
Q 1019 3113 1228 2906 
Q 1438 2700 1772 2700 
Q 2097 2700 2305 2904 
Q 2513 3109 2513 3406 
Q 2513 3716 2298 3927 
Q 2084 4138 1766 4138 
Q 1444 4138 1231 3931 
Q 1019 3725 1019 3438 
z
M 838 1322 
Q 838 1081 952 856 
Q 1066 631 1291 507 
Q 1516 384 1775 384 
Q 2178 384 2440 643 
Q 2703 903 2703 1303 
Q 2703 1709 2433 1975 
Q 2163 2241 1756 2241 
Q 1359 2241 1098 1978 
Q 838 1716 838 1322 
z
" transform="scale(0.015625)"/>
       </defs>
       <use xlink:href="#ArialMT-38"/>
       <use xlink:href="#ArialMT-30" x="55.615234"/>
       <use xlink:href="#ArialMT-30" x="111.230469"/>
      </g>
     </g>
    </g>
    <g id="xtick_4">
     <g id="line2d_4">
      <g>
       <use xlink:href="#m24073bf0cd" x="233.546635" y="277.248797" style="fill: #262626; stroke: #262626; stroke-width: 1.25"/>
      </g>
     </g>
     <g id="text_4">
      <!-- 1000 -->
      <g style="fill: #262626" transform="translate(221.312572 288.622391) scale(0.11 -0.11)">
       <defs>
        <path id="ArialMT-31" d="M 2384 0 
L 1822 0 
L 1822 3584 
Q 1619 3391 1289 3197 
Q 959 3003 697 2906 
L 697 3450 
Q 1169 3672 1522 3987 
Q 1875 4303 2022 4600 
L 2384 4600 
L 2384 0 
z
" transform="scale(0.015625)"/>
       </defs>
       <use xlink:href="#ArialMT-31"/>
       <use xlink:href="#ArialMT-30" x="55.615234"/>
       <use xlink:href="#ArialMT-30" x="111.230469"/>
       <use xlink:href="#ArialMT-30" x="166.845703"/>
      </g>
     </g>
    </g>
    <g id="xtick_5">
     <g id="line2d_5">
      <g>
       <use xlink:href="#m24073bf0cd" x="288.488173" y="277.248797" style="fill: #262626; stroke: #262626; stroke-width: 1.25"/>
      </g>
     </g>
     <g id="text_5">
      <!-- 1200 -->
      <g style="fill: #262626" transform="translate(276.254111 288.622391) scale(0.11 -0.11)">
       <defs>
        <path id="ArialMT-32" d="M 3222 541 
L 3222 0 
L 194 0 
Q 188 203 259 391 
Q 375 700 629 1000 
Q 884 1300 1366 1694 
Q 2113 2306 2375 2664 
Q 2638 3022 2638 3341 
Q 2638 3675 2398 3904 
Q 2159 4134 1775 4134 
Q 1369 4134 1125 3890 
Q 881 3647 878 3216 
L 300 3275 
Q 359 3922 746 4261 
Q 1134 4600 1788 4600 
Q 2447 4600 2831 4234 
Q 3216 3869 3216 3328 
Q 3216 3053 3103 2787 
Q 2991 2522 2730 2228 
Q 2469 1934 1863 1422 
Q 1356 997 1212 845 
Q 1069 694 975 541 
L 3222 541 
z
" transform="scale(0.015625)"/>
       </defs>
       <use xlink:href="#ArialMT-31"/>
       <use xlink:href="#ArialMT-32" x="55.615234"/>
       <use xlink:href="#ArialMT-30" x="111.230469"/>
       <use xlink:href="#ArialMT-30" x="166.845703"/>
      </g>
     </g>
    </g>
    <g id="xtick_6">
     <g id="line2d_6">
      <g>
       <use xlink:href="#m24073bf0cd" x="343.429712" y="277.248797" style="fill: #262626; stroke: #262626; stroke-width: 1.25"/>
      </g>
     </g>
     <g id="text_6">
      <!-- 1400 -->
      <g style="fill: #262626" transform="translate(331.195649 288.622391) scale(0.11 -0.11)">
       <use xlink:href="#ArialMT-31"/>
       <use xlink:href="#ArialMT-34" x="55.615234"/>
       <use xlink:href="#ArialMT-30" x="111.230469"/>
       <use xlink:href="#ArialMT-30" x="166.845703"/>
      </g>
     </g>
    </g>
    <g id="xtick_7">
     <g id="line2d_7">
      <g>
       <use xlink:href="#m24073bf0cd" x="398.37125" y="277.248797" style="fill: #262626; stroke: #262626; stroke-width: 1.25"/>
      </g>
     </g>
     <g id="text_7">
      <!-- 1600 -->
      <g style="fill: #262626" transform="translate(386.137188 288.622391) scale(0.11 -0.11)">
       <use xlink:href="#ArialMT-31"/>
       <use xlink:href="#ArialMT-36" x="55.615234"/>
       <use xlink:href="#ArialMT-30" x="111.230469"/>
       <use xlink:href="#ArialMT-30" x="166.845703"/>
      </g>
     </g>
    </g>
    <g id="xtick_8">
     <g id="line2d_8">
      <defs>
       <path id="m97f047e322" d="M 0 0 
L 0 -4 
" style="stroke: #262626"/>
      </defs>
      <g>
       <use xlink:href="#m97f047e322" x="96.192788" y="277.248797" style="fill: #262626; stroke: #262626"/>
      </g>
     </g>
    </g>
    <g id="xtick_9">
     <g id="line2d_9">
      <g>
       <use xlink:href="#m97f047e322" x="151.134327" y="277.248797" style="fill: #262626; stroke: #262626"/>
      </g>
     </g>
    </g>
    <g id="xtick_10">
     <g id="line2d_10">
      <g>
       <use xlink:href="#m97f047e322" x="206.075865" y="277.248797" style="fill: #262626; stroke: #262626"/>
      </g>
     </g>
    </g>
    <g id="xtick_11">
     <g id="line2d_11">
      <g>
       <use xlink:href="#m97f047e322" x="261.017404" y="277.248797" style="fill: #262626; stroke: #262626"/>
      </g>
     </g>
    </g>
    <g id="xtick_12">
     <g id="line2d_12">
      <g>
       <use xlink:href="#m97f047e322" x="315.958942" y="277.248797" style="fill: #262626; stroke: #262626"/>
      </g>
     </g>
    </g>
    <g id="xtick_13">
     <g id="line2d_13">
      <g>
       <use xlink:href="#m97f047e322" x="370.900481" y="277.248797" style="fill: #262626; stroke: #262626"/>
      </g>
     </g>
    </g>
    <g id="text_8">
     <!-- Wavelength (nm) -->
     <g style="fill: #262626" transform="translate(174.356562 303.544266) scale(0.12 -0.12)">
      <defs>
       <path id="ArialMT-57" d="M 1294 0 
L 78 4581 
L 700 4581 
L 1397 1578 
Q 1509 1106 1591 641 
Q 1766 1375 1797 1488 
L 2669 4581 
L 3400 4581 
L 4056 2263 
Q 4303 1400 4413 641 
Q 4500 1075 4641 1638 
L 5359 4581 
L 5969 4581 
L 4713 0 
L 4128 0 
L 3163 3491 
Q 3041 3928 3019 4028 
Q 2947 3713 2884 3491 
L 1913 0 
L 1294 0 
z
" transform="scale(0.015625)"/>
       <path id="ArialMT-61" d="M 2588 409 
Q 2275 144 1986 34 
Q 1697 -75 1366 -75 
Q 819 -75 525 192 
Q 231 459 231 875 
Q 231 1119 342 1320 
Q 453 1522 633 1644 
Q 813 1766 1038 1828 
Q 1203 1872 1538 1913 
Q 2219 1994 2541 2106 
Q 2544 2222 2544 2253 
Q 2544 2597 2384 2738 
Q 2169 2928 1744 2928 
Q 1347 2928 1158 2789 
Q 969 2650 878 2297 
L 328 2372 
Q 403 2725 575 2942 
Q 747 3159 1072 3276 
Q 1397 3394 1825 3394 
Q 2250 3394 2515 3294 
Q 2781 3194 2906 3042 
Q 3031 2891 3081 2659 
Q 3109 2516 3109 2141 
L 3109 1391 
Q 3109 606 3145 398 
Q 3181 191 3288 0 
L 2700 0 
Q 2613 175 2588 409 
z
M 2541 1666 
Q 2234 1541 1622 1453 
Q 1275 1403 1131 1340 
Q 988 1278 909 1158 
Q 831 1038 831 891 
Q 831 666 1001 516 
Q 1172 366 1500 366 
Q 1825 366 2078 508 
Q 2331 650 2450 897 
Q 2541 1088 2541 1459 
L 2541 1666 
z
" transform="scale(0.015625)"/>
       <path id="ArialMT-76" d="M 1344 0 
L 81 3319 
L 675 3319 
L 1388 1331 
Q 1503 1009 1600 663 
Q 1675 925 1809 1294 
L 2547 3319 
L 3125 3319 
L 1869 0 
L 1344 0 
z
" transform="scale(0.015625)"/>
       <path id="ArialMT-65" d="M 2694 1069 
L 3275 997 
Q 3138 488 2766 206 
Q 2394 -75 1816 -75 
Q 1088 -75 661 373 
Q 234 822 234 1631 
Q 234 2469 665 2931 
Q 1097 3394 1784 3394 
Q 2450 3394 2872 2941 
Q 3294 2488 3294 1666 
Q 3294 1616 3291 1516 
L 816 1516 
Q 847 969 1125 678 
Q 1403 388 1819 388 
Q 2128 388 2347 550 
Q 2566 713 2694 1069 
z
M 847 1978 
L 2700 1978 
Q 2663 2397 2488 2606 
Q 2219 2931 1791 2931 
Q 1403 2931 1139 2672 
Q 875 2413 847 1978 
z
" transform="scale(0.015625)"/>
       <path id="ArialMT-6c" d="M 409 0 
L 409 4581 
L 972 4581 
L 972 0 
L 409 0 
z
" transform="scale(0.015625)"/>
       <path id="ArialMT-6e" d="M 422 0 
L 422 3319 
L 928 3319 
L 928 2847 
Q 1294 3394 1984 3394 
Q 2284 3394 2536 3286 
Q 2788 3178 2913 3003 
Q 3038 2828 3088 2588 
Q 3119 2431 3119 2041 
L 3119 0 
L 2556 0 
L 2556 2019 
Q 2556 2363 2490 2533 
Q 2425 2703 2258 2804 
Q 2091 2906 1866 2906 
Q 1506 2906 1245 2678 
Q 984 2450 984 1813 
L 984 0 
L 422 0 
z
" transform="scale(0.015625)"/>
       <path id="ArialMT-67" d="M 319 -275 
L 866 -356 
Q 900 -609 1056 -725 
Q 1266 -881 1628 -881 
Q 2019 -881 2231 -725 
Q 2444 -569 2519 -288 
Q 2563 -116 2559 434 
Q 2191 0 1641 0 
Q 956 0 581 494 
Q 206 988 206 1678 
Q 206 2153 378 2554 
Q 550 2956 876 3175 
Q 1203 3394 1644 3394 
Q 2231 3394 2613 2919 
L 2613 3319 
L 3131 3319 
L 3131 450 
Q 3131 -325 2973 -648 
Q 2816 -972 2473 -1159 
Q 2131 -1347 1631 -1347 
Q 1038 -1347 672 -1080 
Q 306 -813 319 -275 
z
M 784 1719 
Q 784 1066 1043 766 
Q 1303 466 1694 466 
Q 2081 466 2343 764 
Q 2606 1063 2606 1700 
Q 2606 2309 2336 2618 
Q 2066 2928 1684 2928 
Q 1309 2928 1046 2623 
Q 784 2319 784 1719 
z
" transform="scale(0.015625)"/>
       <path id="ArialMT-74" d="M 1650 503 
L 1731 6 
Q 1494 -44 1306 -44 
Q 1000 -44 831 53 
Q 663 150 594 308 
Q 525 466 525 972 
L 525 2881 
L 113 2881 
L 113 3319 
L 525 3319 
L 525 4141 
L 1084 4478 
L 1084 3319 
L 1650 3319 
L 1650 2881 
L 1084 2881 
L 1084 941 
Q 1084 700 1114 631 
Q 1144 563 1211 522 
Q 1278 481 1403 481 
Q 1497 481 1650 503 
z
" transform="scale(0.015625)"/>
       <path id="ArialMT-68" d="M 422 0 
L 422 4581 
L 984 4581 
L 984 2938 
Q 1378 3394 1978 3394 
Q 2347 3394 2619 3248 
Q 2891 3103 3008 2847 
Q 3125 2591 3125 2103 
L 3125 0 
L 2563 0 
L 2563 2103 
Q 2563 2525 2380 2717 
Q 2197 2909 1863 2909 
Q 1613 2909 1392 2779 
Q 1172 2650 1078 2428 
Q 984 2206 984 1816 
L 984 0 
L 422 0 
z
" transform="scale(0.015625)"/>
       <path id="ArialMT-20" transform="scale(0.015625)"/>
       <path id="ArialMT-28" d="M 1497 -1347 
Q 1031 -759 709 28 
Q 388 816 388 1659 
Q 388 2403 628 3084 
Q 909 3875 1497 4659 
L 1900 4659 
Q 1522 4009 1400 3731 
Q 1209 3300 1100 2831 
Q 966 2247 966 1656 
Q 966 153 1900 -1347 
L 1497 -1347 
z
" transform="scale(0.015625)"/>
       <path id="ArialMT-6d" d="M 422 0 
L 422 3319 
L 925 3319 
L 925 2853 
Q 1081 3097 1340 3245 
Q 1600 3394 1931 3394 
Q 2300 3394 2536 3241 
Q 2772 3088 2869 2813 
Q 3263 3394 3894 3394 
Q 4388 3394 4653 3120 
Q 4919 2847 4919 2278 
L 4919 0 
L 4359 0 
L 4359 2091 
Q 4359 2428 4304 2576 
Q 4250 2725 4106 2815 
Q 3963 2906 3769 2906 
Q 3419 2906 3187 2673 
Q 2956 2441 2956 1928 
L 2956 0 
L 2394 0 
L 2394 2156 
Q 2394 2531 2256 2718 
Q 2119 2906 1806 2906 
Q 1569 2906 1367 2781 
Q 1166 2656 1075 2415 
Q 984 2175 984 1722 
L 984 0 
L 422 0 
z
" transform="scale(0.015625)"/>
       <path id="ArialMT-29" d="M 791 -1347 
L 388 -1347 
Q 1322 153 1322 1656 
Q 1322 2244 1188 2822 
Q 1081 3291 891 3722 
Q 769 4003 388 4659 
L 791 4659 
Q 1378 3875 1659 3084 
Q 1900 2403 1900 1659 
Q 1900 816 1576 28 
Q 1253 -759 791 -1347 
z
" transform="scale(0.015625)"/>
      </defs>
      <use xlink:href="#ArialMT-57"/>
      <use xlink:href="#ArialMT-61" x="90.634766"/>
      <use xlink:href="#ArialMT-76" x="146.25"/>
      <use xlink:href="#ArialMT-65" x="196.25"/>
      <use xlink:href="#ArialMT-6c" x="251.865234"/>
      <use xlink:href="#ArialMT-65" x="274.082031"/>
      <use xlink:href="#ArialMT-6e" x="329.697266"/>
      <use xlink:href="#ArialMT-67" x="385.3125"/>
      <use xlink:href="#ArialMT-74" x="440.927734"/>
      <use xlink:href="#ArialMT-68" x="468.710938"/>
      <use xlink:href="#ArialMT-20" x="524.326172"/>
      <use xlink:href="#ArialMT-28" x="552.109375"/>
      <use xlink:href="#ArialMT-6e" x="585.410156"/>
      <use xlink:href="#ArialMT-6d" x="641.025391"/>
      <use xlink:href="#ArialMT-29" x="724.326172"/>
     </g>
    </g>
   </g>
   <g id="matplotlib.axis_2">
    <g id="ytick_1">
     <g id="line2d_14">
      <defs>
       <path id="mb0b9199239" d="M 0 0 
L 6 0 
" style="stroke: #262626; stroke-width: 1.25"/>
      </defs>
      <g>
       <use xlink:href="#mb0b9199239" x="41.25125" y="277.248797" style="fill: #262626; stroke: #262626; stroke-width: 1.25"/>
      </g>
     </g>
     <g id="text_9">
      <!-- 0.0 -->
      <g style="fill: #262626" transform="translate(22.46125 281.185594) scale(0.11 -0.11)">
       <defs>
        <path id="ArialMT-2e" d="M 581 0 
L 581 641 
L 1222 641 
L 1222 0 
L 581 0 
z
" transform="scale(0.015625)"/>
       </defs>
       <use xlink:href="#ArialMT-30"/>
       <use xlink:href="#ArialMT-2e" x="55.615234"/>
       <use xlink:href="#ArialMT-30" x="83.398438"/>
      </g>
     </g>
    </g>
    <g id="ytick_2">
     <g id="line2d_15">
      <g>
       <use xlink:href="#mb0b9199239" x="41.25125" y="239.232797" style="fill: #262626; stroke: #262626; stroke-width: 1.25"/>
      </g>
     </g>
     <g id="text_10">
      <!-- 0.1 -->
      <g style="fill: #262626" transform="translate(22.46125 243.169594) scale(0.11 -0.11)">
       <use xlink:href="#ArialMT-30"/>
       <use xlink:href="#ArialMT-2e" x="55.615234"/>
       <use xlink:href="#ArialMT-31" x="83.398438"/>
      </g>
     </g>
    </g>
    <g id="ytick_3">
     <g id="line2d_16">
      <g>
       <use xlink:href="#mb0b9199239" x="41.25125" y="201.216797" style="fill: #262626; stroke: #262626; stroke-width: 1.25"/>
      </g>
     </g>
     <g id="text_11">
      <!-- 0.2 -->
      <g style="fill: #262626" transform="translate(22.46125 205.153594) scale(0.11 -0.11)">
       <use xlink:href="#ArialMT-30"/>
       <use xlink:href="#ArialMT-2e" x="55.615234"/>
       <use xlink:href="#ArialMT-32" x="83.398438"/>
      </g>
     </g>
    </g>
    <g id="ytick_4">
     <g id="line2d_17">
      <g>
       <use xlink:href="#mb0b9199239" x="41.25125" y="163.200797" style="fill: #262626; stroke: #262626; stroke-width: 1.25"/>
      </g>
     </g>
     <g id="text_12">
      <!-- 0.3 -->
      <g style="fill: #262626" transform="translate(22.46125 167.137594) scale(0.11 -0.11)">
       <defs>
        <path id="ArialMT-33" d="M 269 1209 
L 831 1284 
Q 928 806 1161 595 
Q 1394 384 1728 384 
Q 2125 384 2398 659 
Q 2672 934 2672 1341 
Q 2672 1728 2419 1979 
Q 2166 2231 1775 2231 
Q 1616 2231 1378 2169 
L 1441 2663 
Q 1497 2656 1531 2656 
Q 1891 2656 2178 2843 
Q 2466 3031 2466 3422 
Q 2466 3731 2256 3934 
Q 2047 4138 1716 4138 
Q 1388 4138 1169 3931 
Q 950 3725 888 3313 
L 325 3413 
Q 428 3978 793 4289 
Q 1159 4600 1703 4600 
Q 2078 4600 2393 4439 
Q 2709 4278 2876 4000 
Q 3044 3722 3044 3409 
Q 3044 3113 2884 2869 
Q 2725 2625 2413 2481 
Q 2819 2388 3044 2092 
Q 3269 1797 3269 1353 
Q 3269 753 2831 336 
Q 2394 -81 1725 -81 
Q 1122 -81 723 278 
Q 325 638 269 1209 
z
" transform="scale(0.015625)"/>
       </defs>
       <use xlink:href="#ArialMT-30"/>
       <use xlink:href="#ArialMT-2e" x="55.615234"/>
       <use xlink:href="#ArialMT-33" x="83.398438"/>
      </g>
     </g>
    </g>
    <g id="ytick_5">
     <g id="line2d_18">
      <g>
       <use xlink:href="#mb0b9199239" x="41.25125" y="125.184797" style="fill: #262626; stroke: #262626; stroke-width: 1.25"/>
      </g>
     </g>
     <g id="text_13">
      <!-- 0.4 -->
      <g style="fill: #262626" transform="translate(22.46125 129.121594) scale(0.11 -0.11)">
       <use xlink:href="#ArialMT-30"/>
       <use xlink:href="#ArialMT-2e" x="55.615234"/>
       <use xlink:href="#ArialMT-34" x="83.398438"/>
      </g>
     </g>
    </g>
    <g id="ytick_6">
     <g id="line2d_19">
      <g>
       <use xlink:href="#mb0b9199239" x="41.25125" y="87.168797" style="fill: #262626; stroke: #262626; stroke-width: 1.25"/>
      </g>
     </g>
     <g id="text_14">
      <!-- 0.5 -->
      <g style="fill: #262626" transform="translate(22.46125 91.105594) scale(0.11 -0.11)">
       <defs>
        <path id="ArialMT-35" d="M 266 1200 
L 856 1250 
Q 922 819 1161 601 
Q 1400 384 1738 384 
Q 2144 384 2425 690 
Q 2706 997 2706 1503 
Q 2706 1984 2436 2262 
Q 2166 2541 1728 2541 
Q 1456 2541 1237 2417 
Q 1019 2294 894 2097 
L 366 2166 
L 809 4519 
L 3088 4519 
L 3088 3981 
L 1259 3981 
L 1013 2750 
Q 1425 3038 1878 3038 
Q 2478 3038 2890 2622 
Q 3303 2206 3303 1553 
Q 3303 931 2941 478 
Q 2500 -78 1738 -78 
Q 1113 -78 717 272 
Q 322 622 266 1200 
z
" transform="scale(0.015625)"/>
       </defs>
       <use xlink:href="#ArialMT-30"/>
       <use xlink:href="#ArialMT-2e" x="55.615234"/>
       <use xlink:href="#ArialMT-35" x="83.398438"/>
      </g>
     </g>
    </g>
    <g id="ytick_7">
     <g id="line2d_20">
      <g>
       <use xlink:href="#mb0b9199239" x="41.25125" y="49.152797" style="fill: #262626; stroke: #262626; stroke-width: 1.25"/>
      </g>
     </g>
     <g id="text_15">
      <!-- 0.6 -->
      <g style="fill: #262626" transform="translate(22.46125 53.089594) scale(0.11 -0.11)">
       <use xlink:href="#ArialMT-30"/>
       <use xlink:href="#ArialMT-2e" x="55.615234"/>
       <use xlink:href="#ArialMT-36" x="83.398438"/>
      </g>
     </g>
    </g>
    <g id="ytick_8">
     <g id="line2d_21">
      <g>
       <use xlink:href="#mb0b9199239" x="41.25125" y="11.136797" style="fill: #262626; stroke: #262626; stroke-width: 1.25"/>
      </g>
     </g>
     <g id="text_16">
      <!-- 0.7 -->
      <g style="fill: #262626" transform="translate(22.46125 15.073594) scale(0.11 -0.11)">
       <defs>
        <path id="ArialMT-37" d="M 303 3981 
L 303 4522 
L 3269 4522 
L 3269 4084 
Q 2831 3619 2401 2847 
Q 1972 2075 1738 1259 
Q 1569 684 1522 0 
L 944 0 
Q 953 541 1156 1306 
Q 1359 2072 1739 2783 
Q 2119 3494 2547 3981 
L 303 3981 
z
" transform="scale(0.015625)"/>
       </defs>
       <use xlink:href="#ArialMT-30"/>
       <use xlink:href="#ArialMT-2e" x="55.615234"/>
       <use xlink:href="#ArialMT-37" x="83.398438"/>
      </g>
     </g>
    </g>
    <g id="ytick_9">
     <g id="line2d_22">
      <defs>
       <path id="me42404276c" d="M 0 0 
L 4 0 
" style="stroke: #262626"/>
      </defs>
      <g>
       <use xlink:href="#me42404276c" x="41.25125" y="258.240797" style="fill: #262626; stroke: #262626"/>
      </g>
     </g>
    </g>
    <g id="ytick_10">
     <g id="line2d_23">
      <g>
       <use xlink:href="#me42404276c" x="41.25125" y="220.224797" style="fill: #262626; stroke: #262626"/>
      </g>
     </g>
    </g>
    <g id="ytick_11">
     <g id="line2d_24">
      <g>
       <use xlink:href="#me42404276c" x="41.25125" y="182.208797" style="fill: #262626; stroke: #262626"/>
      </g>
     </g>
    </g>
    <g id="ytick_12">
     <g id="line2d_25">
      <g>
       <use xlink:href="#me42404276c" x="41.25125" y="144.192797" style="fill: #262626; stroke: #262626"/>
      </g>
     </g>
    </g>
    <g id="ytick_13">
     <g id="line2d_26">
      <g>
       <use xlink:href="#me42404276c" x="41.25125" y="106.176797" style="fill: #262626; stroke: #262626"/>
      </g>
     </g>
    </g>
    <g id="ytick_14">
     <g id="line2d_27">
      <g>
       <use xlink:href="#me42404276c" x="41.25125" y="68.160797" style="fill: #262626; stroke: #262626"/>
      </g>
     </g>
    </g>
    <g id="ytick_15">
     <g id="line2d_28">
      <g>
       <use xlink:href="#me42404276c" x="41.25125" y="30.144797" style="fill: #262626; stroke: #262626"/>
      </g>
     </g>
    </g>
    <g id="text_17">
     <!-- Absorbance (a.u.) -->
     <g style="fill: #262626" transform="translate(15.935625 191.881547) rotate(-90) scale(0.12 -0.12)">
      <defs>
       <path id="ArialMT-41" d="M -9 0 
L 1750 4581 
L 2403 4581 
L 4278 0 
L 3588 0 
L 3053 1388 
L 1138 1388 
L 634 0 
L -9 0 
z
M 1313 1881 
L 2866 1881 
L 2388 3150 
Q 2169 3728 2063 4100 
Q 1975 3659 1816 3225 
L 1313 1881 
z
" transform="scale(0.015625)"/>
       <path id="ArialMT-62" d="M 941 0 
L 419 0 
L 419 4581 
L 981 4581 
L 981 2947 
Q 1338 3394 1891 3394 
Q 2197 3394 2470 3270 
Q 2744 3147 2920 2923 
Q 3097 2700 3197 2384 
Q 3297 2069 3297 1709 
Q 3297 856 2875 390 
Q 2453 -75 1863 -75 
Q 1275 -75 941 416 
L 941 0 
z
M 934 1684 
Q 934 1088 1097 822 
Q 1363 388 1816 388 
Q 2184 388 2453 708 
Q 2722 1028 2722 1663 
Q 2722 2313 2464 2622 
Q 2206 2931 1841 2931 
Q 1472 2931 1203 2611 
Q 934 2291 934 1684 
z
" transform="scale(0.015625)"/>
       <path id="ArialMT-73" d="M 197 991 
L 753 1078 
Q 800 744 1014 566 
Q 1228 388 1613 388 
Q 2000 388 2187 545 
Q 2375 703 2375 916 
Q 2375 1106 2209 1216 
Q 2094 1291 1634 1406 
Q 1016 1563 777 1677 
Q 538 1791 414 1992 
Q 291 2194 291 2438 
Q 291 2659 392 2848 
Q 494 3038 669 3163 
Q 800 3259 1026 3326 
Q 1253 3394 1513 3394 
Q 1903 3394 2198 3281 
Q 2494 3169 2634 2976 
Q 2775 2784 2828 2463 
L 2278 2388 
Q 2241 2644 2061 2787 
Q 1881 2931 1553 2931 
Q 1166 2931 1000 2803 
Q 834 2675 834 2503 
Q 834 2394 903 2306 
Q 972 2216 1119 2156 
Q 1203 2125 1616 2013 
Q 2213 1853 2448 1751 
Q 2684 1650 2818 1456 
Q 2953 1263 2953 975 
Q 2953 694 2789 445 
Q 2625 197 2315 61 
Q 2006 -75 1616 -75 
Q 969 -75 630 194 
Q 291 463 197 991 
z
" transform="scale(0.015625)"/>
       <path id="ArialMT-6f" d="M 213 1659 
Q 213 2581 725 3025 
Q 1153 3394 1769 3394 
Q 2453 3394 2887 2945 
Q 3322 2497 3322 1706 
Q 3322 1066 3130 698 
Q 2938 331 2570 128 
Q 2203 -75 1769 -75 
Q 1072 -75 642 372 
Q 213 819 213 1659 
z
M 791 1659 
Q 791 1022 1069 705 
Q 1347 388 1769 388 
Q 2188 388 2466 706 
Q 2744 1025 2744 1678 
Q 2744 2294 2464 2611 
Q 2184 2928 1769 2928 
Q 1347 2928 1069 2612 
Q 791 2297 791 1659 
z
" transform="scale(0.015625)"/>
       <path id="ArialMT-72" d="M 416 0 
L 416 3319 
L 922 3319 
L 922 2816 
Q 1116 3169 1280 3281 
Q 1444 3394 1641 3394 
Q 1925 3394 2219 3213 
L 2025 2691 
Q 1819 2813 1613 2813 
Q 1428 2813 1281 2702 
Q 1134 2591 1072 2394 
Q 978 2094 978 1738 
L 978 0 
L 416 0 
z
" transform="scale(0.015625)"/>
       <path id="ArialMT-63" d="M 2588 1216 
L 3141 1144 
Q 3050 572 2676 248 
Q 2303 -75 1759 -75 
Q 1078 -75 664 370 
Q 250 816 250 1647 
Q 250 2184 428 2587 
Q 606 2991 970 3192 
Q 1334 3394 1763 3394 
Q 2303 3394 2647 3120 
Q 2991 2847 3088 2344 
L 2541 2259 
Q 2463 2594 2264 2762 
Q 2066 2931 1784 2931 
Q 1359 2931 1093 2626 
Q 828 2322 828 1663 
Q 828 994 1084 691 
Q 1341 388 1753 388 
Q 2084 388 2306 591 
Q 2528 794 2588 1216 
z
" transform="scale(0.015625)"/>
       <path id="ArialMT-75" d="M 2597 0 
L 2597 488 
Q 2209 -75 1544 -75 
Q 1250 -75 995 37 
Q 741 150 617 320 
Q 494 491 444 738 
Q 409 903 409 1263 
L 409 3319 
L 972 3319 
L 972 1478 
Q 972 1038 1006 884 
Q 1059 663 1231 536 
Q 1403 409 1656 409 
Q 1909 409 2131 539 
Q 2353 669 2445 892 
Q 2538 1116 2538 1541 
L 2538 3319 
L 3100 3319 
L 3100 0 
L 2597 0 
z
" transform="scale(0.015625)"/>
      </defs>
      <use xlink:href="#ArialMT-41"/>
      <use xlink:href="#ArialMT-62" x="66.699219"/>
      <use xlink:href="#ArialMT-73" x="122.314453"/>
      <use xlink:href="#ArialMT-6f" x="172.314453"/>
      <use xlink:href="#ArialMT-72" x="227.929688"/>
      <use xlink:href="#ArialMT-62" x="261.230469"/>
      <use xlink:href="#ArialMT-61" x="316.845703"/>
      <use xlink:href="#ArialMT-6e" x="372.460938"/>
      <use xlink:href="#ArialMT-63" x="428.076172"/>
      <use xlink:href="#ArialMT-65" x="478.076172"/>
      <use xlink:href="#ArialMT-20" x="533.691406"/>
      <use xlink:href="#ArialMT-28" x="561.474609"/>
      <use xlink:href="#ArialMT-61" x="594.775391"/>
      <use xlink:href="#ArialMT-2e" x="650.390625"/>
      <use xlink:href="#ArialMT-75" x="678.173828"/>
      <use xlink:href="#ArialMT-2e" x="733.789062"/>
      <use xlink:href="#ArialMT-29" x="761.572266"/>
     </g>
    </g>
   </g>
   <g id="PolyCollection_1"/>
   <g id="PolyCollection_2"/>
   <g id="PolyCollection_3"/>
   <g id="PolyCollection_4"/>
   <g id="PolyCollection_5"/>
   <g id="line2d_29">
    <path d="M 41.25125 249.73274 
L 41.85561 250.182544 
L 43.174204 250.804638 
L 45.371865 250.785896 
L 46.800349 250.035689 
L 48.613413 248.578651 
L 48.943065 248.289501 
L 49.712244 247.512075 
L 51.140727 245.939921 
L 51.690142 245.319994 
L 53.173562 243.484545 
L 53.558151 242.986533 
L 54.382274 242.029331 
L 55.151461 241.043232 
L 55.865703 240.106632 
L 56.195347 239.708834 
L 59.821492 233.891169 
L 62.18398 228.561707 
L 64.546459 221.893698 
L 66.689184 214.490462 
L 68.447312 207.745286 
L 71.469096 195.792674 
L 74.106292 186.753607 
L 75.589712 183.076705 
L 77.018195 180.484775 
L 78.062081 179.122657 
L 78.886204 178.441031 
L 79.325738 178.225858 
L 80.149861 178.17492 
L 80.644331 178.490451 
L 81.193747 179.133306 
L 81.743162 180.204978 
L 82.457404 182.254795 
L 83.226582 185.305202 
L 84.160595 190.167446 
L 85.534133 198.887555 
L 88.775681 220.177278 
L 89.984393 226.684095 
L 91.302995 232.669714 
L 92.676533 237.799213 
L 94.269835 242.486777 
L 95.478547 245.375538 
L 96.357615 247.154381 
L 97.676208 249.379838 
L 98.88492 251.051098 
L 101.027637 253.254316 
L 102.016595 254.034175 
L 102.950591 254.618975 
L 104.488964 255.300145 
L 107.236041 255.882892 
L 109.488647 255.822371 
L 112.125835 255.227915 
L 114.872912 254.145257 
L 115.697035 253.734684 
L 118.334222 252.163066 
L 120.147303 250.909678 
L 122.015312 249.452068 
L 127.45452 244.254939 
L 129.047822 242.466287 
L 133.937632 236.107121 
L 138.552718 228.695521 
L 141.464613 223.174837 
L 143.607329 218.674887 
L 145.695118 213.892851 
L 147.288419 209.944893 
L 148.936665 205.610684 
L 152.013395 196.834311 
L 156.793299 181.268277 
L 161.792982 162.527154 
L 165.034529 148.725441 
L 167.671733 136.536754 
L 176.572253 95.065858 
L 182.341114 72.789997 
L 185.637606 62.338258 
L 186.241967 60.599406 
L 187.67045 56.760943 
L 189.263751 53.000768 
L 192.285536 47.824137 
L 192.340481 47.769777 
L 192.505299 46.724345 
L 192.725078 46.629289 
L 192.834951 46.674155 
L 193.164604 46.379539 
L 193.274494 46.34342 
L 193.494256 46.011914 
L 193.604129 45.989867 
L 193.714019 45.789898 
L 193.768964 45.856041 
L 193.933782 45.799415 
L 194.098617 45.630603 
L 194.263435 45.561039 
L 194.593087 45.431405 
L 194.757905 45.482729 
L 195.032613 45.40861 
L 195.142503 45.245894 
L 195.362265 45.437501 
L 195.41721 45.366033 
L 195.472155 45.42608 
L 195.636973 45.406707 
L 195.801791 45.480825 
L 196.021571 45.561424 
L 196.845694 46.025215 
L 196.900622 45.977313 
L 197.120401 46.227472 
L 197.285219 46.359757 
L 197.450037 46.553267 
L 197.559927 46.707985 
L 197.834635 47.133006 
L 198.329105 47.619999 
L 198.38405 47.609349 
L 198.603813 47.992178 
L 199.208173 49.383935 
L 199.592771 50.120295 
L 199.812533 50.47804 
L 202.284903 58.007114 
L 202.834318 60.164121 
L 203.438678 62.624898 
L 205.581395 73.09413 
L 207.449404 83.989516 
L 210.141536 101.758963 
L 214.372041 132.81613 
L 218.932182 166.513888 
L 222.997853 193.702937 
L 226.184472 211.836185 
L 227.942591 220.465436 
L 230.250142 230.352259 
L 232.612622 238.787629 
L 233.98616 242.975283 
L 235.579478 247.285841 
L 237.447487 251.600085 
L 239.425386 255.442591 
L 242.007611 259.531554 
L 242.721878 260.49853 
L 244.864578 263.063278 
L 246.95235 265.141385 
L 249.040155 266.841651 
L 252.171796 268.865432 
L 254.918873 270.23378 
L 259.808683 272.051782 
L 260.577878 272.263417 
L 261.34704 272.471478 
L 263.984227 273.164738 
L 269.423453 274.545008 
L 270.577211 274.331152 
L 271.181588 273.969981 
L 272.280419 273.788444 
L 274.478081 274.552793 
L 275.576912 274.739589 
L 276.785632 274.943757 
L 284.422486 275.627893 
L 285.41146 275.684686 
L 289.367224 275.925289 
L 290.850653 275.9965 
L 294.58667 276.181057 
L 302.553194 276.459843 
L 303.761914 276.493008 
L 305.684868 276.55391 
L 307.113368 276.600274 
L 327.826301 277.025332 
L 328.540568 276.995859 
L 329.914106 277.020057 
L 331.012937 277.101353 
L 331.946917 277.092136 
L 332.990819 277.148714 
L 333.375417 277.166379 
L 333.814942 277.128513 
L 334.858845 277.219434 
L 335.628006 277.218783 
L 350.62704 277.264575 
L 351.396235 277.270652 
L 352.385176 277.22289 
L 353.319188 277.240852 
L 355.29707 277.280698 
L 358.758414 277.307806 
L 360.241809 277.356619 
L 365.186547 277.371047 
L 367.494099 277.463404 
L 368.373183 277.415389 
L 370.405994 277.336694 
L 376.83416 277.376878 
L 382.438204 277.384183 
L 383.811742 277.402129 
L 384.525976 277.409227 
L 394.415453 277.392159 
L 395.074758 277.280468 
L 396.393368 277.644102 
L 396.997712 277.5712 
L 397.437237 277.478827 
L 398.426178 277.526106 
L 398.426178 277.526106 
" clip-path="url(#p853269d9d6)" style="fill: none; stroke: #f6ab83; stroke-linecap: round"/>
   </g>
   <g id="line2d_30">
    <path d="M 41.25125 249.226177 
L 44.492797 251.065999 
L 44.877395 251.236958 
L 45.646573 251.419547 
L 46.745404 251.538273 
L 46.965167 251.54941 
L 47.89918 251.432055 
L 50.646256 250.38669 
L 51.085782 250.08013 
L 51.580261 249.789043 
L 52.019795 249.499171 
L 52.239558 249.310951 
L 52.404384 249.001541 
L 52.624147 248.84575 
L 53.063681 248.454299 
L 54.437219 247.202053 
L 54.93169 246.674125 
L 55.975584 245.506843 
L 56.415118 244.953939 
L 57.459004 243.706901 
L 60.151136 240.127162 
L 60.645615 239.445992 
L 66.799065 229.924579 
L 67.952841 227.806325 
L 68.33743 227.136488 
L 72.732753 218.691989 
L 75.369949 213.202864 
L 79.380674 206.076004 
L 80.809158 204.314339 
L 81.523399 203.660465 
L 82.896938 202.897102 
L 83.556235 202.787618 
L 85.039654 203.104293 
L 85.863778 203.612184 
L 86.907672 204.593377 
L 88.775681 207.120303 
L 91.24805 211.613795 
L 95.42361 220.824688 
L 98.005861 226.467783 
L 100.807874 231.831082 
L 102.07154 233.981648 
L 104.104367 237.049539 
L 106.411918 240.101766 
L 108.005219 241.962916 
L 109.378758 243.424252 
L 111.356656 245.258599 
L 115.092674 247.835856 
L 118.059514 249.022258 
L 119.70776 249.402761 
L 121.465896 249.610366 
L 123.333905 249.640474 
L 127.839118 248.930184 
L 132.234441 247.437259 
L 132.838801 247.173655 
L 134.047505 246.632194 
L 139.761422 243.56875 
L 140.970142 242.809533 
L 141.794265 242.261419 
L 145.695118 239.504954 
L 153.496806 233.019463 
L 162.06769 224.453694 
L 163.111576 223.288128 
L 163.770881 222.546053 
L 165.089474 221.046325 
L 166.792665 219.000303 
L 167.891496 217.669743 
L 176.572253 207.047691 
L 183.330072 198.077814 
L 184.923373 195.792295 
L 187.06609 192.516077 
L 188.055047 190.915979 
L 188.769281 189.795652 
L 189.923056 187.945033 
L 192.340481 183.901651 
L 192.505299 183.394133 
L 193.274494 182.122884 
L 193.604129 181.673528 
L 194.098617 180.759247 
L 196.406151 176.844354 
L 196.790749 176.138778 
L 204.537509 162.264079 
L 205.361632 160.727473 
L 205.911047 159.734882 
L 207.614222 156.470447 
L 212.229324 147.59029 
L 213.602863 144.81056 
L 218.822309 134.261499 
L 219.31678 133.271186 
L 220.250776 131.335787 
L 226.569053 118.508424 
L 227.832718 115.891784 
L 231.074265 109.5108 
L 235.139936 101.788227 
L 241.952683 90.083859 
L 243.655858 87.484713 
L 248.600596 80.796185 
L 250.138986 79.000685 
L 250.963109 78.144549 
L 251.677342 77.376262 
L 252.995919 76.108792 
L 253.655224 75.530572 
L 255.138653 74.312158 
L 255.962776 73.747624 
L 258.160437 72.350157 
L 260.413027 71.404313 
L 263.819409 70.640581 
L 266.951083 71.011242 
L 268.214732 71.410023 
L 268.928965 71.742276 
L 269.643232 71.936172 
L 269.80805 72.014868 
L 270.412394 72.104191 
L 270.632173 72.054023 
L 271.071699 72.094311 
L 271.456296 72.061614 
L 271.785932 72.056289 
L 272.170529 72.206837 
L 272.610055 72.324303 
L 273.104542 72.770238 
L 274.093483 73.39636 
L 274.478081 73.601268 
L 275.467022 74.398853 
L 279.807417 78.867244 
L 282.005078 81.43409 
L 283.103909 82.812546 
L 287.609122 89.455075 
L 292.443971 97.902236 
L 297.388709 107.787912 
L 298.432578 110.009566 
L 303.377317 121.152436 
L 308.322055 133.054869 
L 312.66245 143.892473 
L 315.464455 150.98778 
L 319.200506 160.345414 
L 329.804217 185.890265 
L 333.595163 193.916586 
L 334.803883 196.397128 
L 336.177422 199.364279 
L 338.539901 204.114377 
L 339.144278 205.162477 
L 340.682635 207.819416 
L 342.111101 209.70501 
L 343.100076 210.212142 
L 344.034055 210.853094 
L 344.363724 211.463247 
L 345.077958 213.370129 
L 346.506424 217.174394 
L 348.26456 221.251607 
L 349.528209 223.53371 
L 351.396235 226.533552 
L 352.824701 228.656746 
L 358.813342 236.715376 
L 360.956076 238.973529 
L 361.945017 239.938602 
L 364.91184 243.568331 
L 368.592929 247.164569 
L 369.80165 248.158916 
L 372.933324 250.833113 
L 373.867337 251.540324 
L 376.229817 253.335781 
L 380.680068 256.357408 
L 389.031188 261.078919 
L 390.020129 261.560544 
L 393.041914 262.986219 
L 394.69016 263.519356 
L 395.184647 263.631161 
L 395.788991 264.145023 
L 396.558186 264.667326 
L 398.426178 265.268435 
L 398.426178 265.268435 
" clip-path="url(#p853269d9d6)" style="fill: none; stroke: #f06043; stroke-linecap: round"/>
   </g>
   <g id="line2d_31">
    <path d="M 41.25125 246.615542 
L 43.393967 246.091835 
L 44.382916 245.780635 
L 44.877395 245.696314 
L 45.261984 245.644614 
L 50.646256 245.551549 
L 50.920964 245.55786 
L 51.47038 245.540373 
L 51.745087 245.532541 
L 52.074731 245.463467 
L 52.239558 245.45708 
L 52.404384 245.005375 
L 53.008736 244.785223 
L 54.821808 243.473861 
L 55.316287 242.960835 
L 55.645931 242.490349 
L 56.03052 242.009714 
L 56.250292 241.699731 
L 57.678767 239.436373 
L 64.16187 227.060075 
L 65.150819 225.564907 
L 66.359531 223.999024 
L 67.678133 222.46052 
L 68.007778 222.17806 
L 68.33743 221.94578 
L 69.930731 220.669206 
L 70.590028 220.375723 
L 71.469096 220.200464 
L 72.458046 220.214915 
L 75.095241 220.242667 
L 75.864419 220.01685 
L 77.402784 219.050862 
L 79.655382 216.973287 
L 80.754213 216.021749 
L 82.127751 215.098337 
L 82.787056 214.842111 
L 83.721061 214.673322 
L 84.435303 214.696129 
L 85.259426 214.874424 
L 85.973659 215.202122 
L 87.512024 216.251747 
L 88.555918 217.266011 
L 89.380041 218.233897 
L 90.423927 219.629087 
L 92.951241 223.754581 
L 95.42361 228.48377 
L 97.346564 232.23291 
L 99.818933 236.588022 
L 100.698001 237.909459 
L 102.016595 239.605049 
L 103.170371 240.853608 
L 105.752613 242.930726 
L 107.071206 243.744535 
L 110.312771 245.080836 
L 112.510432 245.492587 
L 114.763022 245.536002 
L 118.169404 245.124441 
L 122.509782 244.029465 
L 125.586512 242.51411 
L 127.894063 240.762333 
L 128.937949 239.795509 
L 129.871945 238.861379 
L 137.508832 230.299797 
L 141.684376 224.821313 
L 145.255576 218.831508 
L 151.683742 207.494 
L 152.837518 205.798104 
L 159.375558 197.157829 
L 160.749096 195.157427 
L 161.683109 193.766803 
L 163.056647 191.642085 
L 164.210406 189.853054 
L 166.408068 186.738403 
L 168.056314 184.986623 
L 169.374924 184.170804 
L 169.92434 184.022158 
L 170.693518 184.02102 
L 172.067056 184.631558 
L 173.715303 186.425534 
L 174.264718 187.253522 
L 175.418494 189.339838 
L 177.671083 194.515715 
L 181.407118 204.218162 
L 182.505949 206.828717 
L 183.824542 209.61073 
L 185.967259 213.261025 
L 187.121035 214.657733 
L 188.824226 216.170388 
L 191.35154 217.116227 
L 191.571303 217.170593 
L 192.010828 217.120793 
L 192.175663 217.142082 
L 192.340481 217.13904 
L 192.505299 217.207845 
L 192.725078 217.227994 
L 193.604129 217.232175 
L 194.373324 217.058067 
L 194.593087 217.039435 
L 194.867795 216.860002 
L 195.142503 216.775607 
L 195.41721 216.734169 
L 195.746863 216.625444 
L 196.351206 216.285197 
L 197.999453 215.305908 
L 198.164287 215.252301 
L 198.548868 214.940951 
L 202.394776 211.760917 
L 202.834318 211.343878 
L 203.328788 210.89225 
L 204.043022 210.152837 
L 206.295628 207.735401 
L 206.625281 207.349536 
L 211.734837 201.144184 
L 212.339197 200.358773 
L 213.053447 199.403055 
L 213.987444 198.153088 
L 214.536859 197.431542 
L 216.075232 195.255887 
L 219.371724 190.462068 
L 220.745263 188.359783 
L 227.173413 178.560785 
L 229.426019 174.98082 
L 231.239083 172.084372 
L 235.579478 165.060917 
L 243.271294 152.81216 
L 244.644832 150.72432 
L 246.128227 148.516353 
L 253.270627 138.674398 
L 255.578178 135.945606 
L 256.677009 134.722253 
L 259.149378 132.166817 
L 261.292112 130.228381 
L 265.412727 127.27226 
L 266.401668 126.692896 
L 266.951083 126.407389 
L 269.862978 125.32356 
L 270.467355 124.959357 
L 271.071699 124.438918 
L 271.456296 123.990717 
L 271.95075 123.506012 
L 275.247242 122.167085 
L 275.686801 122.162905 
L 277.280086 122.373512 
L 279.258001 122.368957 
L 284.31263 122.828567 
L 286.235583 123.246745 
L 287.44427 123.637164 
L 288.433245 123.970188 
L 290.301237 124.768906 
L 293.158204 126.287645 
L 296.949183 128.935079 
L 300.904947 132.576633 
L 304.586037 136.83214 
L 308.047347 141.726697 
L 311.508691 147.407429 
L 314.420586 152.81293 
L 319.969668 164.348497 
L 325.573712 177.138982 
L 328.046081 182.942885 
L 331.507391 190.633525 
L 334.913773 197.547875 
L 336.562019 201.389771 
L 338.594863 205.64908 
L 339.748622 207.813332 
L 340.572745 209.213082 
L 341.671576 210.555425 
L 342.111101 210.713575 
L 342.55066 210.586219 
L 343.209932 210.141434 
L 343.869237 209.836927 
L 344.089017 209.981765 
L 344.363724 210.487379 
L 344.858178 212.049834 
L 346.671276 218.842538 
L 348.37445 224.075817 
L 349.363391 226.251852 
L 352.16543 231.306462 
L 356.670609 238.271753 
L 357.604622 239.547112 
L 359.472647 241.824309 
L 360.296771 242.630972 
L 362.384542 244.598414 
L 365.241509 248.405755 
L 368.318222 251.50459 
L 375.076024 256.880774 
L 380.680068 260.523353 
L 381.559153 261.017827 
L 382.438204 261.515001 
L 383.152437 261.900407 
L 388.866371 264.658164 
L 389.800383 265.051705 
L 390.624506 265.38712 
L 394.195706 266.751667 
L 394.745122 266.777974 
L 395.239576 266.840016 
L 395.953809 267.431925 
L 396.448296 267.763463 
L 396.997712 267.898952 
L 397.711945 268.011441 
L 398.426178 268.267745 
L 398.426178 268.267745 
" clip-path="url(#p853269d9d6)" style="fill: none; stroke: #ca1a50; stroke-linecap: round"/>
   </g>
   <g id="line2d_32">
    <path d="M 41.25125 245.146605 
L 42.73467 244.043989 
L 43.229149 243.630335 
L 44.492797 242.600481 
L 45.481747 242.024655 
L 46.250933 241.777549 
L 46.470696 241.771505 
L 48.39365 241.59108 
L 50.261659 241.95577 
L 51.415435 242.40219 
L 52.239558 242.536463 
L 52.404384 242.404929 
L 52.679092 242.387402 
L 53.228507 242.284684 
L 54.162512 241.756717 
L 55.316287 240.652277 
L 56.634881 238.606292 
L 58.942424 233.86836 
L 60.370907 230.603545 
L 61.579619 227.711666 
L 63.392692 223.373661 
L 64.931056 220.708741 
L 66.359531 219.009803 
L 67.458362 218.119088 
L 67.73307 217.838153 
L 68.007778 217.706236 
L 68.776964 217.472817 
L 69.21649 217.341285 
L 70.095558 217.42568 
L 70.754854 217.827888 
L 71.414151 218.469979 
L 72.183338 219.472081 
L 73.172287 220.94178 
L 75.534767 224.1815 
L 76.303953 224.791658 
L 77.018195 225.062335 
L 77.952199 225.105291 
L 78.44667 225.01177 
L 79.435619 224.695101 
L 80.03998 224.468145 
L 82.732112 223.772448 
L 83.830942 223.882317 
L 86.413193 224.975278 
L 88.940507 226.976819 
L 90.368982 228.484915 
L 92.072173 230.708848 
L 93.610538 233.040372 
L 96.247733 237.532723 
L 98.99481 242.230016 
L 101.137527 245.071979 
L 102.016595 245.933574 
L 102.950591 246.644965 
L 104.324129 247.433798 
L 106.521791 248.164351 
L 108.664524 248.322918 
L 109.818283 248.212176 
L 112.78514 247.272535 
L 114.927856 246.109322 
L 121.905422 241.567815 
L 124.048155 239.855842 
L 126.080982 237.734586 
L 128.553351 234.398301 
L 136.135294 221.608202 
L 140.365782 214.231953 
L 142.838151 208.797947 
L 144.376524 204.950346 
L 151.134327 187.761034 
L 153.826459 182.449059 
L 156.079065 178.728056 
L 159.10085 173.760503 
L 163.496173 165.290161 
L 164.649949 163.067363 
L 165.693835 161.227382 
L 167.067373 159.259683 
L 168.221149 158.249588 
L 169.429853 157.951924 
L 169.81445 158.060269 
L 170.473755 158.410401 
L 171.023171 159.023595 
L 171.682459 159.950044 
L 172.671417 161.991511 
L 173.330705 163.705653 
L 174.539426 167.683641 
L 176.407435 175.340071 
L 178.000736 183.028044 
L 182.670767 206.353138 
L 184.319013 213.318052 
L 186.132094 219.69067 
L 187.78034 224.303531 
L 189.043988 227.067677 
L 189.428586 227.78694 
L 190.362582 229.30568 
L 192.120718 231.503383 
L 192.340481 231.73338 
L 192.395426 231.455863 
L 192.450371 231.54064 
L 192.780006 231.914338 
L 193.823909 232.99247 
L 194.20849 233.22551 
L 194.428253 233.329671 
L 195.966626 234.240915 
L 196.131444 234.276269 
L 196.845694 234.41465 
L 197.010512 234.494481 
L 197.340164 234.646928 
L 197.559927 234.691025 
L 197.999453 234.656051 
L 198.219232 234.736265 
L 198.49394 234.652629 
L 199.098283 234.648449 
L 199.263118 234.577737 
L 200.471822 234.485358 
L 201.35089 234.336336 
L 201.680542 234.212025 
L 202.44972 234.016243 
L 202.944191 233.770279 
L 204.097967 233.325111 
L 206.13081 232.27815 
L 207.009878 231.764933 
L 207.834001 231.265403 
L 212.504032 228.030244 
L 214.426986 226.552178 
L 214.811567 226.227142 
L 215.855453 225.363041 
L 217.174063 224.262478 
L 218.382767 223.201451 
L 219.481597 222.219499 
L 220.745263 221.050505 
L 221.679259 220.127479 
L 222.668217 219.15693 
L 228.492006 213.900453 
L 229.426019 212.995673 
L 231.01932 211.460211 
L 231.898388 210.601429 
L 233.107109 209.404683 
L 246.732604 196.354551 
L 252.116868 191.839771 
L 257.226424 188.221409 
L 261.731637 185.700946 
L 265.083058 184.289414 
L 266.12696 183.94651 
L 267.115901 183.581174 
L 267.665317 183.443938 
L 268.599329 183.216983 
L 270.302504 182.840623 
L 271.456296 182.320564 
L 272.774873 181.640841 
L 273.37925 181.514629 
L 274.093483 181.324925 
L 274.807717 181.025743 
L 275.52195 180.8311 
L 275.961509 180.852003 
L 278.653624 181.267518 
L 282.609422 181.349635 
L 283.598363 181.407417 
L 285.686168 181.645781 
L 291.894555 182.829979 
L 297.333747 184.828099 
L 301.674142 187.140231 
L 305.52005 189.907799 
L 310.519717 194.514576 
L 314.860112 199.512539 
L 318.211532 203.88856 
L 322.442037 209.867335 
L 326.178055 215.43668 
L 331.232683 222.736516 
L 333.86987 225.664885 
L 334.639065 226.470446 
L 335.682968 228.007812 
L 338.430045 231.936767 
L 340.902414 234.462549 
L 341.616647 234.848032 
L 342.056173 234.876922 
L 342.385809 234.702049 
L 342.880296 234.104438 
L 343.814309 232.504726 
L 344.308763 231.869478 
L 344.528542 231.902552 
L 344.80325 232.283092 
L 345.187847 233.279872 
L 347.05584 239.508566 
L 348.48434 243.327043 
L 349.253501 244.788608 
L 350.736929 246.84128 
L 352.16543 248.514366 
L 355.51685 252.05339 
L 359.472647 255.344851 
L 360.681368 256.000209 
L 362.384542 256.675716 
L 363.153737 257.462723 
L 364.472314 258.890566 
L 367.439171 260.940161 
L 369.966468 262.298017 
L 371.724604 263.205192 
L 373.812376 264.243485 
L 375.185914 264.850069 
L 380.240542 266.863776 
L 384.361158 268.270672 
L 385.185281 268.524771 
L 388.042247 269.32535 
L 394.90994 270.899745 
L 395.843953 270.938217 
L 396.997712 271.582588 
L 398.041614 271.632275 
L 398.426178 271.69523 
L 398.426178 271.69523 
" clip-path="url(#p853269d9d6)" style="fill: none; stroke: #841e5a; stroke-linecap: round"/>
   </g>
   <g id="line2d_33">
    <path d="M 41.25125 242.006977 
L 44.987276 235.479858 
L 45.701518 234.814958 
L 46.745404 234.258782 
L 47.184938 234.088852 
L 47.514582 234.063 
L 48.943065 234.180851 
L 50.261659 235.038871 
L 51.745087 236.380075 
L 51.96485 236.537081 
L 52.239558 236.735906 
L 52.349439 236.637066 
L 52.624147 236.734005 
L 53.063681 236.754155 
L 53.558151 236.769742 
L 53.832859 236.635162 
L 55.371224 235.028606 
L 56.360173 233.137311 
L 58.887487 226.457139 
L 61.359856 218.668423 
L 63.557518 211.874581 
L 64.436578 210.030046 
L 65.315646 208.756508 
L 66.24965 207.951712 
L 66.689184 207.757069 
L 67.513307 207.578774 
L 67.788015 207.466628 
L 68.007778 207.566991 
L 68.392367 207.807248 
L 69.21649 208.330349 
L 69.875795 209.161759 
L 70.480147 210.376371 
L 71.469096 213.312728 
L 72.732753 218.126311 
L 74.820533 226.584496 
L 75.809474 229.745525 
L 76.688542 231.890387 
L 77.45772 233.243756 
L 78.171962 234.1569 
L 79.05103 234.872362 
L 80.149861 235.430818 
L 80.589395 235.594667 
L 81.853044 236.05846 
L 83.391408 236.781524 
L 87.896613 239.887509 
L 88.555918 240.384682 
L 90.149219 241.608607 
L 91.412876 242.740266 
L 93.445712 244.965345 
L 95.753254 248.148651 
L 99.159628 253.311148 
L 100.752929 255.059314 
L 101.577053 255.63229 
L 103.225299 256.194851 
L 104.983435 256.057501 
L 106.521791 255.478478 
L 107.455804 254.968949 
L 109.59852 253.28313 
L 112.290653 250.221473 
L 114.488314 247.097129 
L 116.13656 244.576667 
L 121.246133 237.216427 
L 122.344964 235.682863 
L 123.828376 233.427752 
L 126.410635 228.763573 
L 128.223699 224.663542 
L 130.53125 218.617859 
L 133.388217 210.636403 
L 134.816683 206.82682 
L 139.871312 193.62044 
L 141.629447 188.043114 
L 143.332622 181.897821 
L 146.848894 167.792371 
L 149.101483 158.625188 
L 150.804674 152.429342 
L 152.782573 146.328914 
L 154.485764 141.890172 
L 156.683426 136.854573 
L 158.386617 132.968571 
L 160.584278 127.452447 
L 164.485114 116.763488 
L 166.188305 112.860015 
L 167.451971 110.911689 
L 168.276094 110.327759 
L 168.880437 110.244123 
L 169.539742 110.603375 
L 170.30892 111.592556 
L 170.913281 112.90411 
L 171.792349 115.562567 
L 172.616472 118.874145 
L 173.550468 123.632598 
L 174.539426 129.733026 
L 176.022837 140.721553 
L 177.121668 150.017611 
L 181.571936 191.451248 
L 183.385017 207.291755 
L 184.648665 217.153485 
L 186.571619 230.179666 
L 187.67045 236.557231 
L 188.714336 241.817466 
L 190.307637 248.678785 
L 192.340481 255.512693 
L 192.395426 255.287106 
L 192.450371 255.461105 
L 193.878837 259.447462 
L 195.966626 263.892825 
L 196.186388 264.284201 
L 197.010512 265.617117 
L 197.77969 266.747143 
L 198.768647 268.003116 
L 199.537826 268.868321 
L 201.35089 270.521181 
L 201.790432 270.858383 
L 202.339847 271.286976 
L 202.999136 271.726517 
L 203.988094 272.272959 
L 204.647382 272.577239 
L 204.977035 272.735385 
L 205.965976 273.104254 
L 207.394459 273.603469 
L 207.779056 273.712784 
L 208.328472 273.836359 
L 209.042705 273.999896 
L 213.108376 274.640603 
L 214.317096 274.747869 
L 217.833351 274.896903 
L 218.657474 274.905578 
L 220.525483 274.881719 
L 222.008912 274.755746 
L 225.690001 274.893881 
L 227.118468 274.871941 
L 230.689668 274.82771 
L 232.722512 274.768317 
L 234.70041 274.714289 
L 237.612305 274.617968 
L 242.337281 274.461791 
L 246.897422 274.338965 
L 249.259901 274.247704 
L 255.962776 274.062836 
L 257.501132 274.046474 
L 259.424086 274.019554 
L 261.456929 273.984325 
L 263.215065 273.983877 
L 267.500499 274.030758 
L 269.643232 274.132754 
L 270.796991 273.897211 
L 271.456296 273.614437 
L 272.225458 273.320337 
L 274.533009 273.066581 
L 275.192314 272.950024 
L 275.686801 273.017616 
L 278.104209 273.589133 
L 286.839927 273.677308 
L 288.433245 273.695871 
L 294.80645 273.817339 
L 295.685501 273.83664 
L 304.091583 274.147927 
L 307.278186 274.296398 
L 321.672876 275.151644 
L 323.48594 275.232907 
L 327.276886 275.418566 
L 328.925132 275.372966 
L 332.496332 274.919458 
L 333.760014 274.41659 
L 334.474247 274.176549 
L 335.023663 274.164487 
L 335.902714 274.277683 
L 338.869571 274.33909 
L 339.254168 274.276314 
L 340.023329 274.191398 
L 340.957342 273.759875 
L 341.561686 273.23157 
L 342.166063 272.339905 
L 342.770406 270.911074 
L 344.034055 267.692449 
L 344.363724 267.423638 
L 344.58347 267.556504 
L 344.968068 268.121193 
L 345.847153 270.135243 
L 346.616314 271.520546 
L 348.099742 273.775891 
L 348.868937 274.46235 
L 349.69306 274.830725 
L 352.000578 275.411955 
L 353.26426 275.591638 
L 354.088383 275.782238 
L 355.352032 275.96727 
L 356.450863 276.068153 
L 357.494732 276.160536 
L 358.538635 276.182741 
L 360.461588 275.944517 
L 362.219724 275.513386 
L 362.933958 275.814605 
L 364.142678 276.316424 
L 365.845853 276.539186 
L 366.724937 276.608098 
L 369.142345 276.715946 
L 370.515883 276.699987 
L 380.130653 277.005239 
L 382.987619 277.04391 
L 385.514917 277.067651 
L 391.833194 277.132271 
L 394.470414 277.125615 
L 395.569245 276.899897 
L 396.448296 277.338531 
L 396.997712 277.317575 
L 398.041614 277.203845 
L 398.426178 277.228982 
L 398.426178 277.228982 
" clip-path="url(#p853269d9d6)" style="fill: none; stroke: #3f1b43; stroke-linecap: round"/>
   </g>
   <g id="line2d_34"/>
   <g id="line2d_35"/>
   <g id="line2d_36"/>
   <g id="line2d_37"/>
   <g id="line2d_38"/>
   <g id="patch_3">
    <path d="M 41.25125 277.248797 
L 41.25125 11.136797 
" style="fill: none; stroke: #262626; stroke-width: 1.25; stroke-linejoin: miter; stroke-linecap: square"/>
   </g>
   <g id="patch_4">
    <path d="M 41.25125 277.248797 
L 398.37125 277.248797 
" style="fill: none; stroke: #262626; stroke-width: 1.25; stroke-linejoin: miter; stroke-linecap: square"/>
   </g>
   <g id="legend_1">
    <g id="line2d_39">
     <path d="M 321.222688 45.342684 
L 327.222688 45.342684 
L 333.222688 45.342684 
" style="fill: none; stroke: #f6ab83; stroke-width: 1.5; stroke-linecap: round"/>
    </g>
    <g id="text_18">
     <!-- no TFA -->
     <g style="fill: #262626" transform="translate(338.022688 47.442684) scale(0.06 -0.06)">
      <defs>
       <path id="ArialMT-54" d="M 1659 0 
L 1659 4041 
L 150 4041 
L 150 4581 
L 3781 4581 
L 3781 4041 
L 2266 4041 
L 2266 0 
L 1659 0 
z
" transform="scale(0.015625)"/>
       <path id="ArialMT-46" d="M 525 0 
L 525 4581 
L 3616 4581 
L 3616 4041 
L 1131 4041 
L 1131 2622 
L 3281 2622 
L 3281 2081 
L 1131 2081 
L 1131 0 
L 525 0 
z
" transform="scale(0.015625)"/>
      </defs>
      <use xlink:href="#ArialMT-6e"/>
      <use xlink:href="#ArialMT-6f" x="55.615234"/>
      <use xlink:href="#ArialMT-20" x="111.230469"/>
      <use xlink:href="#ArialMT-54" x="137.263672"/>
      <use xlink:href="#ArialMT-46" x="198.347656"/>
      <use xlink:href="#ArialMT-41" x="253.931641"/>
     </g>
    </g>
    <g id="line2d_40">
     <path d="M 321.222688 53.829872 
L 327.222688 53.829872 
L 333.222688 53.829872 
" style="fill: none; stroke: #f06043; stroke-width: 1.5; stroke-linecap: round"/>
    </g>
    <g id="text_19">
     <!-- 0.5 hr -->
     <g style="fill: #262626" transform="translate(338.022688 55.929872) scale(0.06 -0.06)">
      <use xlink:href="#ArialMT-30"/>
      <use xlink:href="#ArialMT-2e" x="55.615234"/>
      <use xlink:href="#ArialMT-35" x="83.398438"/>
      <use xlink:href="#ArialMT-20" x="139.013672"/>
      <use xlink:href="#ArialMT-68" x="166.796875"/>
      <use xlink:href="#ArialMT-72" x="222.412109"/>
     </g>
    </g>
    <g id="line2d_41">
     <path d="M 321.222688 62.334872 
L 327.222688 62.334872 
L 333.222688 62.334872 
" style="fill: none; stroke: #ca1a50; stroke-width: 1.5; stroke-linecap: round"/>
    </g>
    <g id="text_20">
     <!-- 1 day -->
     <g style="fill: #262626" transform="translate(338.022688 64.434872) scale(0.06 -0.06)">
      <defs>
       <path id="ArialMT-64" d="M 2575 0 
L 2575 419 
Q 2259 -75 1647 -75 
Q 1250 -75 917 144 
Q 584 363 401 755 
Q 219 1147 219 1656 
Q 219 2153 384 2558 
Q 550 2963 881 3178 
Q 1213 3394 1622 3394 
Q 1922 3394 2156 3267 
Q 2391 3141 2538 2938 
L 2538 4581 
L 3097 4581 
L 3097 0 
L 2575 0 
z
M 797 1656 
Q 797 1019 1065 703 
Q 1334 388 1700 388 
Q 2069 388 2326 689 
Q 2584 991 2584 1609 
Q 2584 2291 2321 2609 
Q 2059 2928 1675 2928 
Q 1300 2928 1048 2622 
Q 797 2316 797 1656 
z
" transform="scale(0.015625)"/>
       <path id="ArialMT-79" d="M 397 -1278 
L 334 -750 
Q 519 -800 656 -800 
Q 844 -800 956 -737 
Q 1069 -675 1141 -563 
Q 1194 -478 1313 -144 
Q 1328 -97 1363 -6 
L 103 3319 
L 709 3319 
L 1400 1397 
Q 1534 1031 1641 628 
Q 1738 1016 1872 1384 
L 2581 3319 
L 3144 3319 
L 1881 -56 
Q 1678 -603 1566 -809 
Q 1416 -1088 1222 -1217 
Q 1028 -1347 759 -1347 
Q 597 -1347 397 -1278 
z
" transform="scale(0.015625)"/>
      </defs>
      <use xlink:href="#ArialMT-31"/>
      <use xlink:href="#ArialMT-20" x="55.615234"/>
      <use xlink:href="#ArialMT-64" x="83.398438"/>
      <use xlink:href="#ArialMT-61" x="139.013672"/>
      <use xlink:href="#ArialMT-79" x="194.628906"/>
     </g>
    </g>
    <g id="line2d_42">
     <path d="M 321.222688 70.910184 
L 327.222688 70.910184 
L 333.222688 70.910184 
" style="fill: none; stroke: #841e5a; stroke-width: 1.5; stroke-linecap: round"/>
    </g>
    <g id="text_21">
     <!-- 2 days -->
     <g style="fill: #262626" transform="translate(338.022688 73.010184) scale(0.06 -0.06)">
      <use xlink:href="#ArialMT-32"/>
      <use xlink:href="#ArialMT-20" x="55.615234"/>
      <use xlink:href="#ArialMT-64" x="83.398438"/>
      <use xlink:href="#ArialMT-61" x="139.013672"/>
      <use xlink:href="#ArialMT-79" x="194.628906"/>
      <use xlink:href="#ArialMT-73" x="244.628906"/>
     </g>
    </g>
    <g id="line2d_43">
     <path d="M 321.222688 79.467684 
L 327.222688 79.467684 
L 333.222688 79.467684 
" style="fill: none; stroke: #3f1b43; stroke-width: 1.5; stroke-linecap: round"/>
    </g>
    <g id="text_22">
     <!-- 7 days -->
     <g style="fill: #262626" transform="translate(338.022688 81.567684) scale(0.06 -0.06)">
      <use xlink:href="#ArialMT-37"/>
      <use xlink:href="#ArialMT-20" x="55.615234"/>
      <use xlink:href="#ArialMT-64" x="83.398438"/>
      <use xlink:href="#ArialMT-61" x="139.013672"/>
      <use xlink:href="#ArialMT-79" x="194.628906"/>
      <use xlink:href="#ArialMT-73" x="244.628906"/>
     </g>
    </g>
   </g>
  </g>
 </g>
 <defs>
  <clipPath id="p853269d9d6">
   <rect x="41.25125" y="11.136797" width="357.12" height="266.112"/>
  </clipPath>
 </defs>
</svg>
