<?xml version="1.0" encoding="UTF-8"?>
<svg id="Layer_1" data-name="Layer 1" xmlns="http://www.w3.org/2000/svg" version="1.1" xmlns:xlink="http://www.w3.org/1999/xlink" viewBox="0 0 417.8 313.3">
  <defs>
    <style>
      .cls-1 {
        stroke-linecap: square;
      }

      .cls-1, .cls-2, .cls-3, .cls-4, .cls-5, .cls-6, .cls-7, .cls-8, .cls-9, .cls-10, .cls-11, .cls-12, .cls-13, .cls-14 {
        fill: none;
      }

      .cls-1, .cls-15, .cls-16 {
        stroke: #262626;
      }

      .cls-1, .cls-16 {
        stroke-width: 1.2px;
      }

      .cls-2, .cls-3, .cls-4, .cls-5, .cls-6, .cls-8, .cls-9, .cls-10, .cls-11, .cls-12, .cls-15, .cls-13, .cls-16, .cls-14 {
        stroke-linejoin: round;
      }

      .cls-2, .cls-3, .cls-4, .cls-5, .cls-6, .cls-8, .cls-9, .cls-10, .cls-11, .cls-12, .cls-13, .cls-14 {
        stroke-linecap: round;
      }

      .cls-2, .cls-6 {
        stroke: #701f57;
      }

      .cls-3, .cls-12 {
        stroke: #35193e;
      }

      .cls-4, .cls-6, .cls-8, .cls-11, .cls-12, .cls-14 {
        stroke-width: 1.5px;
      }

      .cls-4, .cls-10 {
        stroke: #ad1759;
      }

      .cls-17 {
        clip-path: url(#clippath-2);
      }

      .cls-5, .cls-11 {
        stroke: #f37651;
      }

      .cls-7, .cls-18, .cls-19 {
        stroke-width: 0px;
      }

      .cls-8, .cls-13 {
        stroke: #e13342;
      }

      .cls-20 {
        clip-path: url(#clippath-1);
      }

      .cls-21 {
        clip-path: url(#clippath-4);
      }

      .cls-9, .cls-14 {
        stroke: #f6b48f;
      }

      .cls-22 {
        clip-path: url(#clippath);
      }

      .cls-18, .cls-15, .cls-16 {
        fill: #262626;
      }

      .cls-23 {
        clip-path: url(#clippath-3);
      }

      .cls-19 {
        fill: #fff;
      }

      .cls-24 {
        clip-path: url(#clippath-5);
      }
    </style>
    <clipPath id="clippath">
      <rect class="cls-7" x="41.3" y="11.1" width="357.1" height="266.1"/>
    </clipPath>
    <clipPath id="clippath-1">
      <rect class="cls-7" x="41.3" y="11.1" width="357.1" height="266.1"/>
    </clipPath>
    <clipPath id="clippath-2">
      <rect class="cls-7" x="41.3" y="11.1" width="357.1" height="266.1"/>
    </clipPath>
    <clipPath id="clippath-3">
      <rect class="cls-7" x="41.3" y="11.1" width="357.1" height="266.1"/>
    </clipPath>
    <clipPath id="clippath-4">
      <rect class="cls-7" x="41.3" y="11.1" width="357.1" height="266.1"/>
    </clipPath>
    <clipPath id="clippath-5">
      <rect class="cls-7" x="41.3" y="11.1" width="357.1" height="266.1"/>
    </clipPath>
  </defs>
  <g id="patch_1" data-name="patch 1">
    <path class="cls-19" d="M0,313.3h417.8V0H0v313.3Z"/>
  </g>
  <g id="axes_1" data-name="axes 1">
    <g id="patch_2" data-name="patch 2">
      <path class="cls-19" d="M41.3,277.2h357.1V11.1H41.3v266.1Z"/>
    </g>
    <g id="matplotlib.axis_1" data-name="matplotlib.axis 1">
      <g id="xtick_1" data-name="xtick 1">
        <g id="line2d_1" data-name="line2d 1">
          <path id="m0b0b5d8a98" class="cls-16" d="M68.7,277.2v-6"/>
        </g>
        <g id="text_1" data-name="text 1">
          <g>
            <path id="ArialMT-34" class="cls-18" d="M63.1,288.6v-1.9h-3.4v-.9l3.6-5.1h.8v5.1h1.1v.9h-1.1v1.9h-1ZM63.1,285.9v-3.5l-2.5,3.5h2.5Z"/>
            <path id="ArialMT-30" class="cls-18" d="M66.1,284.7c0-.9,0-1.7.3-2.2.2-.6.5-1,.9-1.3.4-.3.9-.5,1.4-.5s.8,0,1.1.3c.3.2.6.4.8.7.2.3.4.7.5,1.2.1.5.2,1.1.2,1.9s0,1.7-.3,2.2c-.2.6-.5,1-.9,1.3-.4.3-.9.5-1.4.5s-1.4-.3-1.8-.8c-.5-.7-.8-1.7-.8-3.2ZM67.1,284.7c0,1.3.2,2.2.5,2.6.3.4.7.6,1.1.6s.8-.2,1.1-.6.5-1.3.5-2.6-.2-2.2-.5-2.6c-.3-.4-.7-.6-1.1-.6s-.8.2-1.1.6c-.3.5-.5,1.4-.5,2.7Z"/>
            <path id="ArialMT-30-2" data-name="ArialMT-30" class="cls-18" d="M72.2,284.7c0-.9,0-1.7.3-2.2.2-.6.5-1,.9-1.3.4-.3.9-.5,1.4-.5s.8,0,1.1.3c.3.2.6.4.8.7.2.3.4.7.5,1.2.1.5.2,1.1.2,1.9s0,1.7-.3,2.2c-.2.6-.5,1-.9,1.3-.4.3-.9.5-1.4.5s-1.4-.3-1.8-.8c-.5-.7-.8-1.7-.8-3.2ZM73.2,284.7c0,1.3.2,2.2.5,2.6.3.4.7.6,1.1.6s.8-.2,1.1-.6.5-1.3.5-2.6-.2-2.2-.5-2.6c-.3-.4-.7-.6-1.1-.6s-.8.2-1.1.6c-.3.5-.5,1.4-.5,2.7Z"/>
          </g>
        </g>
      </g>
      <g id="xtick_2" data-name="xtick 2">
        <g id="line2d_2" data-name="line2d 2">
          <path id="m0b0b5d8a98-2" data-name="m0b0b5d8a98" class="cls-16" d="M123.7,277.2v-6"/>
        </g>
        <g id="text_2" data-name="text 2">
          <g>
            <path id="ArialMT-36" class="cls-18" d="M120,282.7h-1c0-.3-.2-.6-.4-.8-.3-.3-.6-.4-1-.4s-.6,0-.8.3c-.3.2-.5.5-.7,1-.2.4-.3,1-.3,1.8.2-.4.5-.6.9-.8s.7-.3,1.1-.3c.6,0,1.2.2,1.6.7.5.5.7,1.1.7,1.8s-.1,1-.3,1.4c-.2.4-.5.7-.9,1-.4.2-.8.3-1.3.3-.8,0-1.5-.3-2-.9-.5-.6-.8-1.6-.8-2.9s.3-2.6.8-3.3c.5-.6,1.2-.9,2-.9s1.1.2,1.5.5c.4.3.6.8.7,1.4ZM116,286.1c0,.3,0,.7.2,1,.1.3.3.5.6.7.3.2.5.2.8.2.4,0,.8-.2,1.1-.5.3-.3.4-.8.4-1.3s-.1-1-.4-1.3c-.3-.3-.7-.5-1.1-.5s-.8.2-1.1.5c-.3.3-.5.7-.5,1.2Z"/>
            <path id="ArialMT-30-3" data-name="ArialMT-30" class="cls-18" d="M121.1,284.7c0-.9,0-1.7.3-2.2.2-.6.5-1,.9-1.3.4-.3.9-.5,1.4-.5s.8,0,1.1.3c.3.2.6.4.8.7.2.3.4.7.5,1.2.1.5.2,1.1.2,1.9s0,1.7-.3,2.2c-.2.6-.5,1-.9,1.3-.4.3-.9.5-1.4.5s-1.4-.3-1.8-.8c-.5-.7-.8-1.7-.8-3.2ZM122.1,284.7c0,1.3.2,2.2.5,2.6.3.4.7.6,1.1.6s.8-.2,1.1-.6.5-1.3.5-2.6-.2-2.2-.5-2.6c-.3-.4-.7-.6-1.1-.6s-.8.2-1.1.6c-.3.5-.5,1.4-.5,2.7Z"/>
            <path id="ArialMT-30-4" data-name="ArialMT-30" class="cls-18" d="M127.2,284.7c0-.9,0-1.7.3-2.2.2-.6.5-1,.9-1.3.4-.3.9-.5,1.4-.5s.8,0,1.1.3c.3.2.6.4.8.7.2.3.4.7.5,1.2.1.5.2,1.1.2,1.9s0,1.7-.3,2.2c-.2.6-.5,1-.9,1.3-.4.3-.9.5-1.4.5s-1.4-.3-1.8-.8c-.5-.7-.8-1.7-.8-3.2ZM128.2,284.7c0,1.3.2,2.2.5,2.6.3.4.7.6,1.1.6s.8-.2,1.1-.6.5-1.3.5-2.6-.2-2.2-.5-2.6c-.3-.4-.7-.6-1.1-.6s-.8.2-1.1.6c-.3.5-.5,1.4-.5,2.7Z"/>
          </g>
        </g>
      </g>
      <g id="xtick_3" data-name="xtick 3">
        <g id="line2d_3" data-name="line2d 3">
          <path id="m0b0b5d8a98-3" data-name="m0b0b5d8a98" class="cls-16" d="M178.6,277.2v-6"/>
        </g>
        <g id="text_3" data-name="text 3">
          <g>
            <path id="ArialMT-38" class="cls-18" d="M171.4,284.4c-.4-.1-.7-.4-.9-.6-.2-.3-.3-.6-.3-1,0-.6.2-1.1.6-1.4.4-.4,1-.6,1.6-.6s1.2.2,1.7.6c.4.4.6.9.6,1.5s0,.7-.3,1c-.2.3-.5.5-.9.6.5.2.9.4,1.1.8.3.4.4.8.4,1.3s-.2,1.2-.7,1.7c-.5.5-1.1.7-1.9.7s-1.4-.2-1.9-.7c-.5-.5-.7-1-.7-1.7s.1-.9.4-1.3c.3-.3.6-.6,1.1-.7ZM171.2,282.7c0,.4.1.7.4.9.2.2.6.4.9.4s.7-.1.9-.4c.2-.2.4-.5.4-.9s-.1-.7-.4-.9c-.2-.2-.5-.4-.9-.4s-.7.1-.9.4c-.2.2-.4.5-.4.8ZM170.9,286.4c0,.3,0,.5.2.8s.3.5.6.6c.3.1.5.2.8.2.5,0,.8-.1,1.1-.4.3-.3.5-.7.5-1.1s-.2-.9-.5-1.2c-.3-.3-.7-.5-1.2-.5s-.8.2-1.1.5c-.3.3-.4.7-.4,1.1Z"/>
            <path id="ArialMT-30-5" data-name="ArialMT-30" class="cls-18" d="M176,284.7c0-.9,0-1.7.3-2.2.2-.6.5-1,.9-1.3.4-.3.9-.5,1.4-.5s.8,0,1.1.3c.3.2.6.4.8.7.2.3.4.7.5,1.2.1.5.2,1.1.2,1.9s0,1.7-.3,2.2c-.2.6-.5,1-.9,1.3-.4.3-.9.5-1.4.5s-1.4-.3-1.8-.8c-.5-.7-.8-1.7-.8-3.2ZM177,284.7c0,1.3.2,2.2.5,2.6.3.4.7.6,1.1.6s.8-.2,1.1-.6.5-1.3.5-2.6-.2-2.2-.5-2.6c-.3-.4-.7-.6-1.1-.6s-.8.2-1.1.6c-.3.5-.5,1.4-.5,2.7Z"/>
            <path id="ArialMT-30-6" data-name="ArialMT-30" class="cls-18" d="M182.1,284.7c0-.9,0-1.7.3-2.2.2-.6.5-1,.9-1.3.4-.3.9-.5,1.4-.5s.8,0,1.1.3c.3.2.6.4.8.7.2.3.4.7.5,1.2.1.5.2,1.1.2,1.9s0,1.7-.3,2.2c-.2.6-.5,1-.9,1.3-.4.3-.9.5-1.4.5s-1.4-.3-1.8-.8c-.5-.7-.8-1.7-.8-3.2ZM183.1,284.7c0,1.3.2,2.2.5,2.6.3.4.7.6,1.1.6s.8-.2,1.1-.6.5-1.3.5-2.6-.2-2.2-.5-2.6c-.3-.4-.7-.6-1.1-.6s-.8.2-1.1.6c-.3.5-.5,1.4-.5,2.7Z"/>
          </g>
        </g>
      </g>
      <g id="xtick_4" data-name="xtick 4">
        <g id="line2d_4" data-name="line2d 4">
          <path id="m0b0b5d8a98-4" data-name="m0b0b5d8a98" class="cls-16" d="M233.5,277.2v-6"/>
        </g>
        <g id="text_4" data-name="text 4">
          <g>
            <path id="ArialMT-31" class="cls-18" d="M225.4,288.6h-1v-6.2c-.2.2-.5.4-.9.7s-.7.4-1,.5v-.9c.5-.3,1-.6,1.4-.9.4-.4.7-.7.9-1.1h.6v7.9Z"/>
            <path id="ArialMT-30-7" data-name="ArialMT-30" class="cls-18" d="M227.9,284.7c0-.9,0-1.7.3-2.2.2-.6.5-1,.9-1.3.4-.3.9-.5,1.4-.5s.8,0,1.1.3c.3.2.6.4.8.7.2.3.4.7.5,1.2.1.5.2,1.1.2,1.9s0,1.7-.3,2.2c-.2.6-.5,1-.9,1.3-.4.3-.9.5-1.4.5s-1.4-.3-1.8-.8c-.5-.7-.8-1.7-.8-3.2ZM228.9,284.7c0,1.3.2,2.2.5,2.6.3.4.7.6,1.1.6s.8-.2,1.1-.6.5-1.3.5-2.6-.2-2.2-.5-2.6c-.3-.4-.7-.6-1.1-.6s-.8.2-1.1.6c-.3.5-.5,1.4-.5,2.7Z"/>
            <path id="ArialMT-30-8" data-name="ArialMT-30" class="cls-18" d="M234,284.7c0-.9,0-1.7.3-2.2.2-.6.5-1,.9-1.3.4-.3.9-.5,1.4-.5s.8,0,1.1.3c.3.2.6.4.8.7.2.3.4.7.5,1.2.1.5.2,1.1.2,1.9s0,1.7-.3,2.2c-.2.6-.5,1-.9,1.3-.4.3-.9.5-1.4.5s-1.4-.3-1.8-.8c-.5-.7-.8-1.7-.8-3.2ZM235,284.7c0,1.3.2,2.2.5,2.6.3.4.7.6,1.1.6s.8-.2,1.1-.6.5-1.3.5-2.6-.2-2.2-.5-2.6c-.3-.4-.7-.6-1.1-.6s-.8.2-1.1.6c-.3.5-.5,1.4-.5,2.7Z"/>
            <path id="ArialMT-30-9" data-name="ArialMT-30" class="cls-18" d="M240.1,284.7c0-.9,0-1.7.3-2.2.2-.6.5-1,.9-1.3.4-.3.9-.5,1.4-.5s.8,0,1.1.3c.3.2.6.4.8.7.2.3.4.7.5,1.2.1.5.2,1.1.2,1.9s0,1.7-.3,2.2c-.2.6-.5,1-.9,1.3-.4.3-.9.5-1.4.5s-1.4-.3-1.8-.8c-.5-.7-.8-1.7-.8-3.2ZM241.1,284.7c0,1.3.2,2.2.5,2.6.3.4.7.6,1.1.6s.8-.2,1.1-.6.5-1.3.5-2.6-.2-2.2-.5-2.6c-.3-.4-.7-.6-1.1-.6s-.8.2-1.1.6c-.3.5-.5,1.4-.5,2.7Z"/>
          </g>
        </g>
      </g>
      <g id="xtick_5" data-name="xtick 5">
        <g id="line2d_5" data-name="line2d 5">
          <path id="m0b0b5d8a98-5" data-name="m0b0b5d8a98" class="cls-16" d="M288.5,277.2v-6"/>
        </g>
        <g id="text_5" data-name="text 5">
          <g>
            <path id="ArialMT-31-2" data-name="ArialMT-31" class="cls-18" d="M280.4,288.6h-1v-6.2c-.2.2-.5.4-.9.7s-.7.4-1,.5v-.9c.5-.3,1-.6,1.4-.9.4-.4.7-.7.9-1.1h.6v7.9Z"/>
            <path id="ArialMT-32" class="cls-18" d="M287.9,287.7v.9h-5.2c0-.2,0-.5.1-.7.1-.4.3-.7.6-1,.3-.3.7-.7,1.3-1.2.9-.7,1.4-1.3,1.7-1.7.3-.4.5-.8.5-1.2s-.1-.7-.4-1c-.3-.3-.6-.4-1.1-.4s-.8.1-1.1.4c-.3.3-.4.7-.4,1.2h-1c0-.8.3-1.4.8-1.8.4-.4,1-.6,1.8-.6s1.4.2,1.8.6c.4.4.7.9.7,1.6s0,.6-.2.9c-.1.3-.3.6-.6,1s-.8.8-1.5,1.4c-.6.5-1,.8-1.1,1-.2.2-.3.3-.4.5h3.9Z"/>
            <path id="ArialMT-30-10" data-name="ArialMT-30" class="cls-18" d="M288.9,284.7c0-.9,0-1.7.3-2.2.2-.6.5-1,.9-1.3.4-.3.9-.5,1.4-.5s.8,0,1.1.3c.3.2.6.4.8.7.2.3.4.7.5,1.2.1.5.2,1.1.2,1.9s0,1.7-.3,2.2c-.2.6-.5,1-.9,1.3-.4.3-.9.5-1.4.5s-1.4-.3-1.8-.8c-.5-.7-.8-1.7-.8-3.2ZM289.9,284.7c0,1.3.2,2.2.5,2.6.3.4.7.6,1.1.6s.8-.2,1.1-.6.5-1.3.5-2.6-.2-2.2-.5-2.6c-.3-.4-.7-.6-1.1-.6s-.8.2-1.1.6c-.3.5-.5,1.4-.5,2.7Z"/>
            <path id="ArialMT-30-11" data-name="ArialMT-30" class="cls-18" d="M295.1,284.7c0-.9,0-1.7.3-2.2.2-.6.5-1,.9-1.3.4-.3.9-.5,1.4-.5s.8,0,1.1.3c.3.2.6.4.8.7.2.3.4.7.5,1.2.1.5.2,1.1.2,1.9s0,1.7-.3,2.2c-.2.6-.5,1-.9,1.3-.4.3-.9.5-1.4.5s-1.4-.3-1.8-.8c-.5-.7-.8-1.7-.8-3.2ZM296.1,284.7c0,1.3.2,2.2.5,2.6.3.4.7.6,1.1.6s.8-.2,1.1-.6.5-1.3.5-2.6-.2-2.2-.5-2.6c-.3-.4-.7-.6-1.1-.6s-.8.2-1.1.6c-.3.5-.5,1.4-.5,2.7Z"/>
          </g>
        </g>
      </g>
      <g id="xtick_6" data-name="xtick 6">
        <g id="line2d_6" data-name="line2d 6">
          <path id="m0b0b5d8a98-6" data-name="m0b0b5d8a98" class="cls-16" d="M343.4,277.2v-6"/>
        </g>
        <g id="text_6" data-name="text 6">
          <g>
            <path id="ArialMT-31-3" data-name="ArialMT-31" class="cls-18" d="M335.3,288.6h-1v-6.2c-.2.2-.5.4-.9.7s-.7.4-1,.5v-.9c.5-.3,1-.6,1.4-.9.4-.4.7-.7.9-1.1h.6v7.9Z"/>
            <path id="ArialMT-34-2" data-name="ArialMT-34" class="cls-18" d="M340.9,288.6v-1.9h-3.4v-.9l3.6-5.1h.8v5.1h1.1v.9h-1.1v1.9h-1ZM340.9,285.9v-3.5l-2.5,3.5h2.5Z"/>
            <path id="ArialMT-30-12" data-name="ArialMT-30" class="cls-18" d="M343.9,284.7c0-.9,0-1.7.3-2.2.2-.6.5-1,.9-1.3.4-.3.9-.5,1.4-.5s.8,0,1.1.3c.3.2.6.4.8.7.2.3.4.7.5,1.2.1.5.2,1.1.2,1.9s0,1.7-.3,2.2c-.2.6-.5,1-.9,1.3-.4.3-.9.5-1.4.5s-1.4-.3-1.8-.8c-.5-.7-.8-1.7-.8-3.2ZM344.9,284.7c0,1.3.2,2.2.5,2.6.3.4.7.6,1.1.6s.8-.2,1.1-.6.5-1.3.5-2.6-.2-2.2-.5-2.6c-.3-.4-.7-.6-1.1-.6s-.8.2-1.1.6c-.3.5-.5,1.4-.5,2.7Z"/>
            <path id="ArialMT-30-13" data-name="ArialMT-30" class="cls-18" d="M350,284.7c0-.9,0-1.7.3-2.2.2-.6.5-1,.9-1.3.4-.3.9-.5,1.4-.5s.8,0,1.1.3c.3.2.6.4.8.7.2.3.4.7.5,1.2.1.5.2,1.1.2,1.9s0,1.7-.3,2.2c-.2.6-.5,1-.9,1.3-.4.3-.9.5-1.4.5s-1.4-.3-1.8-.8c-.5-.7-.8-1.7-.8-3.2ZM351,284.7c0,1.3.2,2.2.5,2.6.3.4.7.6,1.1.6s.8-.2,1.1-.6.5-1.3.5-2.6-.2-2.2-.5-2.6c-.3-.4-.7-.6-1.1-.6s-.8.2-1.1.6c-.3.5-.5,1.4-.5,2.7Z"/>
          </g>
        </g>
      </g>
      <g id="xtick_7" data-name="xtick 7">
        <g id="line2d_7" data-name="line2d 7">
          <path id="m0b0b5d8a98-7" data-name="m0b0b5d8a98" class="cls-16" d="M398.4,277.2v-6"/>
        </g>
        <g id="text_7" data-name="text 7">
          <g>
            <path id="ArialMT-31-4" data-name="ArialMT-31" class="cls-18" d="M390.2,288.6h-1v-6.2c-.2.2-.5.4-.9.7s-.7.4-1,.5v-.9c.5-.3,1-.6,1.4-.9.4-.4.7-.7.9-1.1h.6v7.9Z"/>
            <path id="ArialMT-36-2" data-name="ArialMT-36" class="cls-18" d="M397.7,282.7h-1c0-.3-.2-.6-.4-.8-.3-.3-.6-.4-1-.4s-.6,0-.8.3c-.3.2-.5.5-.7,1-.2.4-.3,1-.3,1.8.2-.4.5-.6.9-.8s.7-.3,1.1-.3c.6,0,1.2.2,1.6.7.5.5.7,1.1.7,1.8s-.1,1-.3,1.4c-.2.4-.5.7-.9,1-.4.2-.8.3-1.3.3-.8,0-1.5-.3-2-.9-.5-.6-.8-1.6-.8-2.9s.3-2.6.8-3.3c.5-.6,1.2-.9,2-.9s1.1.2,1.5.5c.4.3.6.8.7,1.4ZM393.8,286.1c0,.3,0,.7.2,1,.1.3.3.5.6.7.3.2.5.2.8.2.4,0,.8-.2,1.1-.5.3-.3.4-.8.4-1.3s-.1-1-.4-1.3c-.3-.3-.7-.5-1.1-.5s-.8.2-1.1.5c-.3.3-.5.7-.5,1.2Z"/>
            <path id="ArialMT-30-14" data-name="ArialMT-30" class="cls-18" d="M398.8,284.7c0-.9,0-1.7.3-2.2.2-.6.5-1,.9-1.3.4-.3.9-.5,1.4-.5s.8,0,1.1.3c.3.2.6.4.8.7.2.3.4.7.5,1.2.1.5.2,1.1.2,1.9s0,1.7-.3,2.2c-.2.6-.5,1-.9,1.3-.4.3-.9.5-1.4.5s-1.4-.3-1.8-.8c-.5-.7-.8-1.7-.8-3.2ZM399.8,284.7c0,1.3.2,2.2.5,2.6.3.4.7.6,1.1.6s.8-.2,1.1-.6.5-1.3.5-2.6-.2-2.2-.5-2.6c-.3-.4-.7-.6-1.1-.6s-.8.2-1.1.6c-.3.5-.5,1.4-.5,2.7Z"/>
            <path id="ArialMT-30-15" data-name="ArialMT-30" class="cls-18" d="M404.9,284.7c0-.9,0-1.7.3-2.2.2-.6.5-1,.9-1.3.4-.3.9-.5,1.4-.5s.8,0,1.1.3c.3.2.6.4.8.7.2.3.4.7.5,1.2.1.5.2,1.1.2,1.9s0,1.7-.3,2.2c-.2.6-.5,1-.9,1.3-.4.3-.9.5-1.4.5s-1.4-.3-1.8-.8c-.5-.7-.8-1.7-.8-3.2ZM405.9,284.7c0,1.3.2,2.2.5,2.6.3.4.7.6,1.1.6s.8-.2,1.1-.6.5-1.3.5-2.6-.2-2.2-.5-2.6c-.3-.4-.7-.6-1.1-.6s-.8.2-1.1.6c-.3.5-.5,1.4-.5,2.7Z"/>
          </g>
        </g>
      </g>
      <g id="xtick_8" data-name="xtick 8">
        <g id="line2d_8" data-name="line2d 8">
          <path id="m962cd8b5a8" class="cls-15" d="M96.2,277.2v-4"/>
        </g>
      </g>
      <g id="xtick_9" data-name="xtick 9">
        <g id="line2d_9" data-name="line2d 9">
          <path id="m962cd8b5a8-2" data-name="m962cd8b5a8" class="cls-15" d="M151.1,277.2v-4"/>
        </g>
      </g>
      <g id="xtick_10" data-name="xtick 10">
        <g id="line2d_10" data-name="line2d 10">
          <path id="m962cd8b5a8-3" data-name="m962cd8b5a8" class="cls-15" d="M206.1,277.2v-4"/>
        </g>
      </g>
      <g id="xtick_11" data-name="xtick 11">
        <g id="line2d_11" data-name="line2d 11">
          <path id="m962cd8b5a8-4" data-name="m962cd8b5a8" class="cls-15" d="M261,277.2v-4"/>
        </g>
      </g>
      <g id="xtick_12" data-name="xtick 12">
        <g id="line2d_12" data-name="line2d 12">
          <path id="m962cd8b5a8-5" data-name="m962cd8b5a8" class="cls-15" d="M316,277.2v-4"/>
        </g>
      </g>
      <g id="xtick_13" data-name="xtick 13">
        <g id="line2d_13" data-name="line2d 13">
          <path id="m962cd8b5a8-6" data-name="m962cd8b5a8" class="cls-15" d="M370.9,277.2v-4"/>
        </g>
      </g>
      <g id="text_8" data-name="text 8">
        <g>
          <path id="ArialMT-57" class="cls-18" d="M176.8,303.5l-2.3-8.6h1.2l1.3,5.6c.1.6.3,1.2.4,1.8.2-.9.3-1.4.4-1.6l1.6-5.8h1.4l1.2,4.3c.3,1.1.5,2.1.7,3,.1-.5.3-1.2.4-1.9l1.3-5.5h1.1l-2.4,8.6h-1.1l-1.8-6.5c-.2-.5-.2-.9-.3-1,0,.4-.2.7-.3,1l-1.8,6.5h-1.2Z"/>
          <path id="ArialMT-61" class="cls-18" d="M190.1,302.8c-.4.3-.8.6-1.1.7-.4.1-.7.2-1.2.2-.7,0-1.2-.2-1.6-.5s-.6-.8-.6-1.3,0-.6.2-.8c.1-.3.3-.5.5-.6s.5-.3.8-.3c.2,0,.5-.1.9-.2.9-.1,1.5-.2,1.9-.4,0-.1,0-.2,0-.3,0-.4,0-.7-.3-.9-.3-.2-.7-.4-1.2-.4s-.9,0-1.1.3-.4.5-.5.9h-1c0-.6.2-.9.5-1.2.2-.3.5-.5.9-.6.4-.1.9-.2,1.4-.2s1,0,1.3.2c.3.1.6.3.7.5.2.2.3.4.3.7,0,.2,0,.5,0,1v1.4c0,1,0,1.6,0,1.9,0,.3.1.5.3.7h-1.1c-.1-.2-.2-.5-.2-.8ZM190,300.4c-.4.2-1,.3-1.7.4-.4,0-.7.1-.9.2-.2,0-.3.2-.4.3,0,.1-.1.3-.1.5,0,.3.1.5.3.7.2.2.5.3.9.3s.8,0,1.1-.3c.3-.2.5-.4.7-.7.1-.2.2-.6.2-1.1v-.4Z"/>
          <path id="ArialMT-76" class="cls-18" d="M194.4,303.5l-2.4-6.2h1.1l1.3,3.7c.1.4.3.8.4,1.3,0-.3.2-.7.4-1.2l1.4-3.8h1.1l-2.4,6.2h-1Z"/>
          <path id="ArialMT-65" class="cls-18" d="M203,301.5h1.1c-.2.8-.5,1.3-1,1.6-.5.4-1.1.5-1.8.5s-1.6-.3-2.2-.8c-.5-.6-.8-1.3-.8-2.4s.3-1.9.8-2.4c.5-.6,1.2-.9,2.1-.9s1.5.3,2,.8.8,1.4.8,2.4,0,.2,0,.3h-4.6c0,.7.2,1.2.6,1.6.3.4.8.5,1.3.5s.7-.1,1-.3c.3-.2.5-.5.7-1ZM199.5,299.8h3.5c0-.5-.2-.9-.4-1.2-.3-.4-.8-.6-1.3-.6s-.9.2-1.2.5-.5.8-.5,1.3Z"/>
          <path id="ArialMT-6c" class="cls-18" d="M205.3,303.5v-8.6h1.1v8.6h-1.1Z"/>
          <path id="ArialMT-65-2" data-name="ArialMT-65" class="cls-18" d="M212.3,301.5h1.1c-.2.8-.5,1.3-1,1.6-.5.4-1.1.5-1.8.5s-1.6-.3-2.2-.8c-.5-.6-.8-1.3-.8-2.4s.3-1.9.8-2.4c.5-.6,1.2-.9,2.1-.9s1.5.3,2,.8.8,1.4.8,2.4,0,.2,0,.3h-4.6c0,.7.2,1.2.6,1.6.3.4.8.5,1.3.5s.7-.1,1-.3c.3-.2.5-.5.7-1ZM208.8,299.8h3.5c0-.5-.2-.9-.4-1.2-.3-.4-.8-.6-1.3-.6s-.9.2-1.2.5-.5.8-.5,1.3Z"/>
          <path id="ArialMT-6e" class="cls-18" d="M214.7,303.5v-6.2h.9v.9c.5-.7,1.1-1,2-1s.7,0,1,.2.6.3.7.5.3.5.3.8c0,.2,0,.5,0,1v3.8h-1.1v-3.8c0-.4,0-.8-.1-1,0-.2-.2-.4-.4-.5-.2-.1-.5-.2-.7-.2-.4,0-.8.1-1.2.4s-.5.8-.5,1.6v3.4h-1.1Z"/>
          <path id="ArialMT-67" class="cls-18" d="M221.2,304.1l1,.2c0,.3.2.5.4.7.3.2.6.3,1.1.3s.9,0,1.1-.3c.3-.2.4-.5.5-.8,0-.2,0-.7,0-1.4-.5.5-1,.8-1.7.8s-1.5-.3-2-.9c-.5-.6-.7-1.4-.7-2.2s.1-1.1.3-1.6c.2-.5.5-.9.9-1.2.4-.3.9-.4,1.4-.4s1.3.3,1.8.9v-.7h1v5.4c0,1,0,1.7-.3,2.1-.2.4-.5.7-.9,1-.4.2-1,.4-1.6.4s-1.3-.2-1.8-.5-.7-.8-.7-1.5ZM222.1,300.3c0,.8.2,1.4.5,1.8.3.4.7.6,1.2.6s.9-.2,1.2-.6c.3-.4.5-1,.5-1.8s-.2-1.3-.5-1.7c-.3-.4-.7-.6-1.2-.6s-.9.2-1.2.6c-.3.4-.5.9-.5,1.7Z"/>
          <path id="ArialMT-74" class="cls-18" d="M230.4,302.6l.2.9c-.3,0-.6,0-.8,0-.4,0-.7,0-.9-.2-.2-.1-.4-.3-.4-.5,0-.2-.1-.6-.1-1.2v-3.6h-.8v-.8h.8v-1.5l1-.6v2.2h1.1v.8h-1.1v3.6c0,.3,0,.5,0,.6,0,0,0,.2.2.2,0,0,.2,0,.4,0s.3,0,.5,0Z"/>
          <path id="ArialMT-68" class="cls-18" d="M231.4,303.5v-8.6h1.1v3.1c.5-.6,1.1-.9,1.9-.9s.9,0,1.2.3c.3.2.6.4.7.8s.2.8.2,1.4v3.9h-1.1v-3.9c0-.5-.1-.9-.3-1.2s-.6-.4-1-.4-.6,0-.9.2c-.3.2-.5.4-.6.7-.1.3-.2.7-.2,1.1v3.4h-1.1Z"/>
          <path id="ArialMT-20" class="cls-18" d="M237.3,303.5"/>
          <path id="ArialMT-28" class="cls-18" d="M243.4,306.1c-.6-.7-1.1-1.6-1.5-2.6-.4-1-.6-2-.6-3.1s.1-1.8.4-2.7c.4-1,.9-2,1.6-3h.8c-.5.8-.8,1.4-.9,1.7-.2.5-.4,1.1-.6,1.7-.2.7-.3,1.5-.3,2.2,0,1.9.6,3.8,1.8,5.6h-.8Z"/>
          <path id="ArialMT-6e-2" data-name="ArialMT-6e" class="cls-18" d="M245.4,303.5v-6.2h.9v.9c.5-.7,1.1-1,2-1s.7,0,1,.2.6.3.7.5.3.5.3.8c0,.2,0,.5,0,1v3.8h-1.1v-3.8c0-.4,0-.8-.1-1,0-.2-.2-.4-.4-.5-.2-.1-.5-.2-.7-.2-.4,0-.8.1-1.2.4s-.5.8-.5,1.6v3.4h-1.1Z"/>
          <path id="ArialMT-6d" class="cls-18" d="M252.1,303.5v-6.2h.9v.9c.2-.3.5-.5.8-.7.3-.2.7-.3,1.1-.3s.8,0,1.1.3.5.5.6.8c.5-.7,1.1-1.1,1.9-1.1s1.1.2,1.4.5c.3.3.5.9.5,1.6v4.3h-1v-3.9c0-.4,0-.7-.1-.9,0-.2-.2-.3-.4-.4-.2-.1-.4-.2-.6-.2-.4,0-.8.1-1.1.4-.3.3-.4.8-.4,1.4v3.6h-1.1v-4c0-.5,0-.8-.3-1.1-.2-.2-.5-.4-.8-.4s-.6,0-.8.2c-.3.2-.4.4-.5.7-.1.3-.2.7-.2,1.3v3.2h-1.1Z"/>
          <path id="ArialMT-29" class="cls-18" d="M262.8,306.1h-.8c1.2-1.9,1.8-3.8,1.8-5.6s0-1.5-.3-2.2c-.1-.6-.3-1.1-.6-1.7-.2-.4-.5-.9-.9-1.8h.8c.7,1,1.3,2,1.6,3,.3.9.5,1.7.5,2.7s-.2,2.1-.6,3.1c-.4,1-.9,1.8-1.5,2.6Z"/>
        </g>
      </g>
    </g>
    <g id="matplotlib.axis_2" data-name="matplotlib.axis 2">
      <g id="ytick_1" data-name="ytick 1">
        <g id="line2d_14" data-name="line2d 14">
          <path id="mf4abc2f409" class="cls-16" d="M41.3,277.2h6"/>
        </g>
        <g id="text_9" data-name="text 9">
          <g>
            <path id="ArialMT-30-16" data-name="ArialMT-30" class="cls-18" d="M22.9,277.3c0-.9,0-1.7.3-2.2.2-.6.5-1,.9-1.3.4-.3.9-.5,1.4-.5s.8,0,1.1.3c.3.2.6.4.8.7.2.3.4.7.5,1.2.1.5.2,1.1.2,1.9s0,1.7-.3,2.2c-.2.6-.5,1-.9,1.3-.4.3-.9.5-1.4.5s-1.4-.3-1.8-.8c-.5-.7-.8-1.7-.8-3.2ZM23.9,277.3c0,1.3.2,2.2.5,2.6.3.4.7.6,1.1.6s.8-.2,1.1-.6.5-1.3.5-2.6-.2-2.2-.5-2.6c-.3-.4-.7-.6-1.1-.6s-.8.2-1.1.6c-.3.5-.5,1.4-.5,2.7Z"/>
            <path id="ArialMT-2e" class="cls-18" d="M29.6,281.2v-1.1h1.1v1.1h-1.1Z"/>
            <path id="ArialMT-30-17" data-name="ArialMT-30" class="cls-18" d="M32.1,277.3c0-.9,0-1.7.3-2.2.2-.6.5-1,.9-1.3.4-.3.9-.5,1.4-.5s.8,0,1.1.3c.3.2.6.4.8.7.2.3.4.7.5,1.2.1.5.2,1.1.2,1.9s0,1.7-.3,2.2c-.2.6-.5,1-.9,1.3-.4.3-.9.5-1.4.5s-1.4-.3-1.8-.8c-.5-.7-.8-1.7-.8-3.2ZM33.1,277.3c0,1.3.2,2.2.5,2.6.3.4.7.6,1.1.6s.8-.2,1.1-.6.5-1.3.5-2.6-.2-2.2-.5-2.6c-.3-.4-.7-.6-1.1-.6s-.8.2-1.1.6c-.3.5-.5,1.4-.5,2.7Z"/>
          </g>
        </g>
      </g>
      <g id="ytick_2" data-name="ytick 2">
        <g id="line2d_15" data-name="line2d 15">
          <path id="mf4abc2f409-2" data-name="mf4abc2f409" class="cls-16" d="M41.3,239.2h6"/>
        </g>
        <g id="text_10" data-name="text 10">
          <g>
            <path id="ArialMT-30-18" data-name="ArialMT-30" class="cls-18" d="M22.9,239.3c0-.9,0-1.7.3-2.2.2-.6.5-1,.9-1.3.4-.3.9-.5,1.4-.5s.8,0,1.1.3c.3.2.6.4.8.7.2.3.4.7.5,1.2.1.5.2,1.1.2,1.9s0,1.7-.3,2.2c-.2.6-.5,1-.9,1.3-.4.3-.9.5-1.4.5s-1.4-.3-1.8-.8c-.5-.7-.8-1.7-.8-3.2ZM23.9,239.3c0,1.3.2,2.2.5,2.6.3.4.7.6,1.1.6s.8-.2,1.1-.6.5-1.3.5-2.6-.2-2.2-.5-2.6c-.3-.4-.7-.6-1.1-.6s-.8.2-1.1.6c-.3.5-.5,1.4-.5,2.7Z"/>
            <path id="ArialMT-2e-2" data-name="ArialMT-2e" class="cls-18" d="M29.6,243.2v-1.1h1.1v1.1h-1.1Z"/>
            <path id="ArialMT-31-5" data-name="ArialMT-31" class="cls-18" d="M35.7,243.2h-1v-6.2c-.2.2-.5.4-.9.7s-.7.4-1,.5v-.9c.5-.3,1-.6,1.4-.9.4-.4.7-.7.9-1.1h.6v7.9Z"/>
          </g>
        </g>
      </g>
      <g id="ytick_3" data-name="ytick 3">
        <g id="line2d_16" data-name="line2d 16">
          <path id="mf4abc2f409-3" data-name="mf4abc2f409" class="cls-16" d="M41.3,201.2h6"/>
        </g>
        <g id="text_11" data-name="text 11">
          <g>
            <path id="ArialMT-30-19" data-name="ArialMT-30" class="cls-18" d="M22.9,201.3c0-.9,0-1.7.3-2.2.2-.6.5-1,.9-1.3.4-.3.9-.5,1.4-.5s.8,0,1.1.3c.3.2.6.4.8.7.2.3.4.7.5,1.2.1.5.2,1.1.2,1.9s0,1.7-.3,2.2c-.2.6-.5,1-.9,1.3-.4.3-.9.5-1.4.5s-1.4-.3-1.8-.8c-.5-.7-.8-1.7-.8-3.2ZM23.9,201.3c0,1.3.2,2.2.5,2.6.3.4.7.6,1.1.6s.8-.2,1.1-.6.5-1.3.5-2.6-.2-2.2-.5-2.6c-.3-.4-.7-.6-1.1-.6s-.8.2-1.1.6c-.3.5-.5,1.4-.5,2.7Z"/>
            <path id="ArialMT-2e-3" data-name="ArialMT-2e" class="cls-18" d="M29.6,205.2v-1.1h1.1v1.1h-1.1Z"/>
            <path id="ArialMT-32-2" data-name="ArialMT-32" class="cls-18" d="M37.2,204.2v.9h-5.2c0-.2,0-.5.1-.7.1-.4.3-.7.6-1,.3-.3.7-.7,1.3-1.2.9-.7,1.4-1.3,1.7-1.7.3-.4.5-.8.5-1.2s-.1-.7-.4-1c-.3-.3-.6-.4-1.1-.4s-.8.1-1.1.4c-.3.3-.4.7-.4,1.2h-1c0-.8.3-1.4.8-1.8.4-.4,1-.6,1.8-.6s1.4.2,1.8.6c.4.4.7.9.7,1.6s0,.6-.2.9c-.1.3-.3.6-.6,1s-.8.8-1.5,1.4c-.6.5-1,.8-1.1,1-.2.2-.3.3-.4.5h3.9Z"/>
          </g>
        </g>
      </g>
      <g id="ytick_4" data-name="ytick 4">
        <g id="line2d_17" data-name="line2d 17">
          <path id="mf4abc2f409-4" data-name="mf4abc2f409" class="cls-16" d="M41.3,163.2h6"/>
        </g>
        <g id="text_12" data-name="text 12">
          <g>
            <path id="ArialMT-30-20" data-name="ArialMT-30" class="cls-18" d="M22.9,163.3c0-.9,0-1.7.3-2.2.2-.6.5-1,.9-1.3.4-.3.9-.5,1.4-.5s.8,0,1.1.3c.3.2.6.4.8.7.2.3.4.7.5,1.2.1.5.2,1.1.2,1.9s0,1.7-.3,2.2c-.2.6-.5,1-.9,1.3-.4.3-.9.5-1.4.5s-1.4-.3-1.8-.8c-.5-.7-.8-1.7-.8-3.2ZM23.9,163.3c0,1.3.2,2.2.5,2.6.3.4.7.6,1.1.6s.8-.2,1.1-.6.5-1.3.5-2.6-.2-2.2-.5-2.6c-.3-.4-.7-.6-1.1-.6s-.8.2-1.1.6c-.3.5-.5,1.4-.5,2.7Z"/>
            <path id="ArialMT-2e-4" data-name="ArialMT-2e" class="cls-18" d="M29.6,167.1v-1.1h1.1v1.1h-1.1Z"/>
            <path id="ArialMT-33" class="cls-18" d="M32.1,165.1h1c.1.4.3.8.6,1.1.3.2.6.4,1,.4s.8-.2,1.2-.5c.3-.3.5-.7.5-1.2s-.1-.8-.4-1.1c-.3-.3-.7-.4-1.1-.4s-.4,0-.7.1v-.8c.2,0,.2,0,.3,0,.4,0,.8-.1,1.1-.3.3-.2.5-.5.5-1s-.1-.6-.4-.9c-.2-.2-.5-.4-.9-.4s-.7.1-.9.4c-.3.2-.4.6-.5,1.1l-1-.2c.1-.6.4-1.1.8-1.5.4-.4.9-.5,1.6-.5s.8,0,1.2.3c.4.2.6.4.8.8.2.3.3.7.3,1s0,.6-.3.9c-.2.3-.5.5-.8.7.5.1.8.3,1.1.7.3.3.4.8.4,1.3s-.3,1.3-.8,1.7c-.5.5-1.1.7-1.9.7s-1.3-.2-1.7-.6c-.5-.4-.7-.9-.8-1.6Z"/>
          </g>
        </g>
      </g>
      <g id="ytick_5" data-name="ytick 5">
        <g id="line2d_18" data-name="line2d 18">
          <path id="mf4abc2f409-5" data-name="mf4abc2f409" class="cls-16" d="M41.3,125.2h6"/>
        </g>
        <g id="text_13" data-name="text 13">
          <g>
            <path id="ArialMT-30-21" data-name="ArialMT-30" class="cls-18" d="M22.9,125.2c0-.9,0-1.7.3-2.2.2-.6.5-1,.9-1.3.4-.3.9-.5,1.4-.5s.8,0,1.1.3c.3.2.6.4.8.7.2.3.4.7.5,1.2.1.5.2,1.1.2,1.9s0,1.7-.3,2.2c-.2.6-.5,1-.9,1.3-.4.3-.9.5-1.4.5s-1.4-.3-1.8-.8c-.5-.7-.8-1.7-.8-3.2ZM23.9,125.2c0,1.3.2,2.2.5,2.6.3.4.7.6,1.1.6s.8-.2,1.1-.6.5-1.3.5-2.6-.2-2.2-.5-2.6c-.3-.4-.7-.6-1.1-.6s-.8.2-1.1.6c-.3.5-.5,1.4-.5,2.7Z"/>
            <path id="ArialMT-2e-5" data-name="ArialMT-2e" class="cls-18" d="M29.6,129.1v-1.1h1.1v1.1h-1.1Z"/>
            <path id="ArialMT-34-3" data-name="ArialMT-34" class="cls-18" d="M35.2,129.1v-1.9h-3.4v-.9l3.6-5.1h.8v5.1h1.1v.9h-1.1v1.9h-1ZM35.2,126.3v-3.5l-2.5,3.5h2.5Z"/>
          </g>
        </g>
      </g>
      <g id="ytick_6" data-name="ytick 6">
        <g id="line2d_19" data-name="line2d 19">
          <path id="mf4abc2f409-6" data-name="mf4abc2f409" class="cls-16" d="M41.3,87.2h6"/>
        </g>
        <g id="text_14" data-name="text 14">
          <g>
            <path id="ArialMT-30-22" data-name="ArialMT-30" class="cls-18" d="M22.9,87.2c0-.9,0-1.7.3-2.2.2-.6.5-1,.9-1.3.4-.3.9-.5,1.4-.5s.8,0,1.1.3c.3.2.6.4.8.7.2.3.4.7.5,1.2.1.5.2,1.1.2,1.9s0,1.7-.3,2.2c-.2.6-.5,1-.9,1.3-.4.3-.9.5-1.4.5s-1.4-.3-1.8-.8c-.5-.7-.8-1.7-.8-3.2ZM23.9,87.2c0,1.3.2,2.2.5,2.6.3.4.7.6,1.1.6s.8-.2,1.1-.6.5-1.3.5-2.6-.2-2.2-.5-2.6c-.3-.4-.7-.6-1.1-.6s-.8.2-1.1.6c-.3.5-.5,1.4-.5,2.7Z"/>
            <path id="ArialMT-2e-6" data-name="ArialMT-2e" class="cls-18" d="M29.6,91.1v-1.1h1.1v1.1h-1.1Z"/>
            <path id="ArialMT-35" class="cls-18" d="M32.1,89h1c0,.4.3.8.5,1,.3.2.6.4,1,.4s.9-.2,1.2-.5c.3-.4.5-.8.5-1.4s-.2-1-.5-1.3c-.3-.3-.7-.5-1.2-.5s-.6,0-.8.2c-.2.1-.4.3-.6.5h-.9c0-.1.8-4.2.8-4.2h3.9v.9h-3.1l-.4,2.1c.5-.3,1-.5,1.5-.5s1.3.2,1.7.7c.5.5.7,1.1.7,1.8s-.2,1.3-.6,1.8c-.5.6-1.2,1-2.1,1s-1.3-.2-1.8-.6c-.5-.4-.7-.9-.8-1.6Z"/>
          </g>
        </g>
      </g>
      <g id="ytick_7" data-name="ytick 7">
        <g id="line2d_20" data-name="line2d 20">
          <path id="mf4abc2f409-7" data-name="mf4abc2f409" class="cls-16" d="M41.3,49.2h6"/>
        </g>
        <g id="text_15" data-name="text 15">
          <g>
            <path id="ArialMT-30-23" data-name="ArialMT-30" class="cls-18" d="M22.9,49.2c0-.9,0-1.7.3-2.2.2-.6.5-1,.9-1.3.4-.3.9-.5,1.4-.5s.8,0,1.1.3c.3.2.6.4.8.7.2.3.4.7.5,1.2.1.5.2,1.1.2,1.9s0,1.7-.3,2.2c-.2.6-.5,1-.9,1.3-.4.3-.9.5-1.4.5s-1.4-.3-1.8-.8c-.5-.7-.8-1.7-.8-3.2ZM23.9,49.2c0,1.3.2,2.2.5,2.6.3.4.7.6,1.1.6s.8-.2,1.1-.6.5-1.3.5-2.6-.2-2.2-.5-2.6c-.3-.4-.7-.6-1.1-.6s-.8.2-1.1.6c-.3.5-.5,1.4-.5,2.7Z"/>
            <path id="ArialMT-2e-7" data-name="ArialMT-2e" class="cls-18" d="M29.6,53.1v-1.1h1.1v1.1h-1.1Z"/>
            <path id="ArialMT-36-3" data-name="ArialMT-36" class="cls-18" d="M37.1,47.1h-1c0-.3-.2-.6-.4-.8-.3-.3-.6-.4-1-.4s-.6,0-.8.3c-.3.2-.5.5-.7,1-.2.4-.3,1-.3,1.8.2-.4.5-.6.9-.8s.7-.3,1.1-.3c.6,0,1.2.2,1.6.7.5.5.7,1.1.7,1.8s-.1,1-.3,1.4c-.2.4-.5.7-.9,1-.4.2-.8.3-1.3.3-.8,0-1.5-.3-2-.9-.5-.6-.8-1.6-.8-2.9s.3-2.6.8-3.3c.5-.6,1.2-.9,2-.9s1.1.2,1.5.5c.4.3.6.8.7,1.4ZM33.2,50.5c0,.3,0,.7.2,1,.1.3.3.5.6.7.3.2.5.2.8.2.4,0,.8-.2,1.1-.5.3-.3.4-.8.4-1.3s-.1-1-.4-1.3c-.3-.3-.7-.5-1.1-.5s-.8.2-1.1.5c-.3.3-.5.7-.5,1.2Z"/>
          </g>
        </g>
      </g>
      <g id="ytick_8" data-name="ytick 8">
        <g id="line2d_21" data-name="line2d 21">
          <path id="mf4abc2f409-8" data-name="mf4abc2f409" class="cls-16" d="M41.3,11.1h6"/>
        </g>
        <g id="text_16" data-name="text 16">
          <g>
            <path id="ArialMT-30-24" data-name="ArialMT-30" class="cls-18" d="M22.9,11.2c0-.9,0-1.7.3-2.2.2-.6.5-1,.9-1.3.4-.3.9-.5,1.4-.5s.8,0,1.1.3c.3.2.6.4.8.7.2.3.4.7.5,1.2.1.5.2,1.1.2,1.9s0,1.7-.3,2.2c-.2.6-.5,1-.9,1.3-.4.3-.9.5-1.4.5s-1.4-.3-1.8-.8c-.5-.7-.8-1.7-.8-3.2ZM23.9,11.2c0,1.3.2,2.2.5,2.6.3.4.7.6,1.1.6s.8-.2,1.1-.6.5-1.3.5-2.6-.2-2.2-.5-2.6c-.3-.4-.7-.6-1.1-.6s-.8.2-1.1.6c-.3.5-.5,1.4-.5,2.7Z"/>
            <path id="ArialMT-2e-8" data-name="ArialMT-2e" class="cls-18" d="M29.6,15.1v-1.1h1.1v1.1h-1.1Z"/>
            <path id="ArialMT-37" class="cls-18" d="M32.2,8.2v-.9h5.1v.8c-.5.5-1,1.2-1.5,2.1-.5.9-.9,1.8-1.1,2.7-.2.7-.3,1.4-.4,2.2h-1c0-.6.1-1.4.4-2.2.2-.9.6-1.7,1-2.5s.9-1.5,1.4-2.1h-3.9Z"/>
          </g>
        </g>
      </g>
      <g id="ytick_9" data-name="ytick 9">
        <g id="line2d_22" data-name="line2d 22">
          <path id="m01267fc63e" class="cls-15" d="M41.3,258.2h4"/>
        </g>
      </g>
      <g id="ytick_10" data-name="ytick 10">
        <g id="line2d_23" data-name="line2d 23">
          <path id="m01267fc63e-2" data-name="m01267fc63e" class="cls-15" d="M41.3,220.2h4"/>
        </g>
      </g>
      <g id="ytick_11" data-name="ytick 11">
        <g id="line2d_24" data-name="line2d 24">
          <path id="m01267fc63e-3" data-name="m01267fc63e" class="cls-15" d="M41.3,182.2h4"/>
        </g>
      </g>
      <g id="ytick_12" data-name="ytick 12">
        <g id="line2d_25" data-name="line2d 25">
          <path id="m01267fc63e-4" data-name="m01267fc63e" class="cls-15" d="M41.3,144.2h4"/>
        </g>
      </g>
      <g id="ytick_13" data-name="ytick 13">
        <g id="line2d_26" data-name="line2d 26">
          <path id="m01267fc63e-5" data-name="m01267fc63e" class="cls-15" d="M41.3,106.2h4"/>
        </g>
      </g>
      <g id="ytick_14" data-name="ytick 14">
        <g id="line2d_27" data-name="line2d 27">
          <path id="m01267fc63e-6" data-name="m01267fc63e" class="cls-15" d="M41.3,68.2h4"/>
        </g>
      </g>
      <g id="ytick_15" data-name="ytick 15">
        <g id="line2d_28" data-name="line2d 28">
          <path id="m01267fc63e-7" data-name="m01267fc63e" class="cls-15" d="M41.3,30.1h4"/>
        </g>
      </g>
      <g id="text_17" data-name="text 17">
        <g>
          <path id="ArialMT-41" class="cls-18" d="M15.9,191.9l-8.6-3.3v-1.2l8.6-3.5v1.3l-2.6,1v3.6l2.6.9v1.2ZM12.4,189.4v-2.9l-2.4.9c-.7.3-1.3.5-1.8.6.6.1,1.1.3,1.6.5l2.5.9Z"/>
          <path id="ArialMT-62" class="cls-18" d="M15.9,182.1v1H7.3v-1.1h3.1c-.6-.4-.8-1-.8-1.7s0-.7.2-1.1c.2-.3.4-.6.7-.8.3-.2.6-.4,1-.5.4-.1.8-.2,1.3-.2,1.1,0,1.9.3,2.5.8.6.5.9,1.2.9,1.9s-.3,1.3-.9,1.7h.8ZM12.8,182.1c.7,0,1.3-.1,1.6-.3.5-.3.8-.8.8-1.3s-.2-.9-.6-1.2c-.4-.3-1-.5-1.8-.5s-1.4.2-1.8.5-.6.7-.6,1.2.2.9.6,1.2c.4.3,1,.5,1.7.5Z"/>
          <path id="ArialMT-73" class="cls-18" d="M14.1,176.8l-.2-1c.4,0,.7-.2,1-.5.2-.3.3-.6.3-1.1s0-.8-.3-1.1c-.2-.2-.4-.4-.7-.4s-.4.1-.6.3c0,.1-.2.5-.4,1.1-.2.8-.4,1.3-.5,1.6s-.3.5-.6.7c-.3.2-.5.2-.8.2s-.5,0-.8-.2c-.2-.1-.4-.3-.6-.5-.1-.2-.2-.4-.3-.7,0-.3-.1-.6-.1-.9,0-.5,0-.9.2-1.3.1-.4.3-.6.6-.8.2-.2.6-.3,1-.4v1c-.2,0-.4.2-.6.4-.2.2-.3.5-.3,1s0,.8.2,1c.2.2.3.3.6.3s.3,0,.4-.1c.1,0,.2-.2.3-.4,0-.1.1-.4.3-.9.2-.7.4-1.3.5-1.6.1-.3.3-.5.6-.7.2-.2.5-.3.9-.3s.7.1,1,.3c.3.2.5.5.7.9.2.4.3.8.3,1.3,0,.8-.2,1.4-.5,1.8-.3.4-.8.7-1.5.8Z"/>
          <path id="ArialMT-6f" class="cls-18" d="M12.8,170.8c-1.2,0-2-.3-2.6-1-.5-.5-.7-1.2-.7-2s.3-1.6.8-2.1c.6-.5,1.3-.8,2.3-.8s1.4.1,1.9.4c.5.2.8.6,1.1,1,.3.5.4,1,.4,1.5,0,.9-.3,1.6-.8,2.1-.6.5-1.4.8-2.4.8ZM12.8,169.7c.8,0,1.4-.2,1.8-.5.4-.3.6-.8.6-1.3s-.2-1-.6-1.3c-.4-.3-1-.5-1.8-.5s-1.4.2-1.7.5-.6.8-.6,1.3.2,1,.6,1.3c.4.3,1,.5,1.8.5Z"/>
          <path id="ArialMT-72" class="cls-18" d="M15.9,163.7h-6.2v-.9h.9c-.4-.2-.7-.5-.9-.7-.1-.2-.2-.4-.2-.7,0-.4.1-.7.3-1.1l1,.4c-.2.3-.2.5-.2.8s0,.4.2.6.3.3.6.4c.4.1.8.2,1.2.2h3.3v1.1Z"/>
          <path id="ArialMT-62-2" data-name="ArialMT-62" class="cls-18" d="M15.9,158.8v1H7.3v-1.1h3.1c-.6-.4-.8-1-.8-1.7s0-.7.2-1.1c.2-.3.4-.6.7-.8.3-.2.6-.4,1-.5.4-.1.8-.2,1.3-.2,1.1,0,1.9.3,2.5.8.6.5.9,1.2.9,1.9s-.3,1.3-.9,1.7h.8ZM12.8,158.8c.7,0,1.3-.1,1.6-.3.5-.3.8-.8.8-1.3s-.2-.9-.6-1.2c-.4-.3-1-.5-1.8-.5s-1.4.2-1.8.5-.6.7-.6,1.2.2.9.6,1.2c.4.3,1,.5,1.7.5Z"/>
          <path id="ArialMT-61-2" data-name="ArialMT-61" class="cls-18" d="M15.2,149c.3.4.6.8.7,1.1.1.4.2.7.2,1.2,0,.7-.2,1.2-.5,1.6s-.8.6-1.3.6-.6,0-.8-.2c-.3-.1-.5-.3-.6-.5s-.3-.5-.3-.8c0-.2-.1-.5-.2-.9-.1-.9-.2-1.5-.4-1.9-.1,0-.2,0-.3,0-.4,0-.7,0-.9.3-.2.3-.4.7-.4,1.2s0,.9.3,1.1.5.4.9.5v1c-.6,0-.9-.2-1.2-.5-.3-.2-.5-.5-.6-.9-.1-.4-.2-.9-.2-1.4s0-1,.2-1.3c.1-.3.3-.6.5-.7.2-.2.4-.3.7-.3.2,0,.5,0,1,0h1.4c1,0,1.6,0,1.9,0,.3,0,.5-.1.7-.3v1.1c-.2.1-.5.2-.8.2ZM12.8,149.1c.2.4.3,1,.4,1.7,0,.4.1.7.2.9,0,.2.2.3.3.4.1,0,.3.1.5.1.3,0,.5-.1.7-.3.2-.2.3-.5.3-.9s0-.8-.3-1.1c-.2-.3-.4-.5-.7-.7-.2-.1-.6-.2-1.1-.2h-.4Z"/>
          <path id="ArialMT-6e-3" data-name="ArialMT-6e" class="cls-18" d="M15.9,146.4h-6.2v-.9h.9c-.7-.5-1-1.1-1-2s0-.7.2-1,.3-.6.5-.7.5-.3.8-.3c.2,0,.5,0,1,0h3.8v1.1h-3.8c-.4,0-.8,0-1,.1-.2,0-.4.2-.5.4-.1.2-.2.5-.2.7,0,.4.1.8.4,1.2s.8.5,1.6.5h3.4v1.1Z"/>
          <path id="ArialMT-63" class="cls-18" d="M13.7,135.7v-1c.8.1,1.4.4,1.8.9.4.5.6,1,.6,1.7s-.3,1.5-.8,2.1c-.6.5-1.4.8-2.4.8s-1.3-.1-1.8-.3c-.5-.2-.9-.6-1.1-1-.3-.5-.4-1-.4-1.5s.2-1.2.5-1.7c.3-.4.8-.7,1.5-.8l.2,1c-.4,0-.7.3-.9.5-.2.2-.3.5-.3.9,0,.5.2,1,.6,1.3.4.3,1,.5,1.8.5s1.4-.2,1.8-.5c.4-.3.6-.7.6-1.3s-.1-.8-.4-1c-.3-.3-.6-.5-1.2-.5Z"/>
          <path id="ArialMT-65-3" data-name="ArialMT-65" class="cls-18" d="M13.9,129.5v-1.1c.8.2,1.3.5,1.6,1,.4.5.5,1.1.5,1.8s-.3,1.6-.8,2.2c-.6.5-1.3.8-2.4.8s-1.9-.3-2.4-.8c-.6-.5-.9-1.2-.9-2.1s.3-1.5.8-2,1.4-.8,2.4-.8.2,0,.3,0v4.6c.7,0,1.2-.2,1.6-.6.4-.3.5-.8.5-1.3s-.1-.7-.3-1c-.2-.3-.5-.5-1-.7ZM12.2,132.9v-3.5c-.5,0-.9.2-1.2.4-.4.3-.6.8-.6,1.3s.2.9.5,1.2.8.5,1.3.5Z"/>
          <path id="ArialMT-20-2" data-name="ArialMT-20" class="cls-18" d="M15.9,127.8"/>
          <path id="ArialMT-28-2" data-name="ArialMT-28" class="cls-18" d="M18.5,121.7c-.7.6-1.6,1.1-2.6,1.5-1,.4-2,.6-3.1.6s-1.8-.1-2.7-.4c-1-.4-2-.9-3-1.6v-.8c.8.5,1.4.8,1.7.9.5.2,1.1.4,1.7.6.7.2,1.5.3,2.2.3,1.9,0,3.8-.6,5.6-1.8v.8Z"/>
          <path id="ArialMT-61-3" data-name="ArialMT-61" class="cls-18" d="M15.2,115.7c.3.4.6.8.7,1.1.1.4.2.7.2,1.2,0,.7-.2,1.2-.5,1.6s-.8.6-1.3.6-.6,0-.8-.2c-.3-.1-.5-.3-.6-.5s-.3-.5-.3-.8c0-.2-.1-.5-.2-.9-.1-.9-.2-1.5-.4-1.9-.1,0-.2,0-.3,0-.4,0-.7,0-.9.3-.2.3-.4.7-.4,1.2s0,.9.3,1.1.5.4.9.5v1c-.6,0-.9-.2-1.2-.5-.3-.2-.5-.5-.6-.9-.1-.4-.2-.9-.2-1.4s0-1,.2-1.3c.1-.3.3-.6.5-.7.2-.2.4-.3.7-.3.2,0,.5,0,1,0h1.4c1,0,1.6,0,1.9,0,.3,0,.5-.1.7-.3v1.1c-.2.1-.5.2-.8.2ZM12.8,115.7c.2.4.3,1,.4,1.7,0,.4.1.7.2.9,0,.2.2.3.3.4.1,0,.3.1.5.1.3,0,.5-.1.7-.3.2-.2.3-.5.3-.9s0-.8-.3-1.1c-.2-.3-.4-.5-.7-.7-.2-.1-.6-.2-1.1-.2h-.4Z"/>
          <path id="ArialMT-2e-9" data-name="ArialMT-2e" class="cls-18" d="M15.9,112.7h-1.2v-1.2h1.2v1.2Z"/>
          <path id="ArialMT-75" class="cls-18" d="M15.9,105.6h-.9c.7.5,1.1,1.1,1.1,2s0,.7-.2,1c-.1.3-.3.6-.5.7-.2.2-.5.3-.8.3-.2,0-.5,0-1,0h-3.9v-1.1h3.5c.6,0,.9,0,1.1,0,.3,0,.5-.2.7-.4.2-.2.2-.5.2-.8s0-.6-.2-.9c-.2-.3-.4-.5-.7-.6-.3-.1-.7-.2-1.2-.2h-3.3v-1.1h6.2v.9Z"/>
          <path id="ArialMT-2e-10" data-name="ArialMT-2e" class="cls-18" d="M15.9,102.7h-1.2v-1.2h1.2v1.2Z"/>
          <path id="ArialMT-29-2" data-name="ArialMT-29" class="cls-18" d="M18.5,99v.8c-1.9-1.2-3.8-1.8-5.6-1.8s-1.5,0-2.2.3c-.6.1-1.1.3-1.7.6-.4.2-.9.5-1.8.9v-.8c1-.7,2-1.3,3-1.6.9-.3,1.7-.5,2.7-.5s2.1.2,3.1.6c1,.4,1.8.9,2.6,1.5Z"/>
        </g>
      </g>
    </g>
    <g id="line2d_29" data-name="line2d 29">
      <g class="cls-22">
        <path class="cls-9" d="M41.3,245.5l.6.4,1.5.5h1.7s1-.3,1-.3l1.3-.5.7-.4,1.1-.7.6-.4,1.3-1,.6-.5.5-.4.2-.4.4-.3,3.7-2.8,1.3-1.3,2.6-3.9,2.5-5.3,2.1-5.7,1.3-4.2,2.1-7.3,4.6-16.7,1-3.3,1.2-3.1,2-4.2,2.1-2.6.4-.2h.6c0-.1.6.1.6.1l.5.6.5.8.7,1.8.7,2.4.7,3.2,1.3,7.4,4.6,27.9,1.4,6.7,1.1,4.3,1.3,4.3,1.9,4.7,1.2,2.4,2,3.1,2.1,2.3,3,1.9,3.6,1,4.1-.2,2.2-.6,1.5-.6,1.1-.5,1.5-.8,3.5-2.3,1.4-1.1,1.7-1.5,3.1-3.1,4.1-4.8,3.7-5.1,2.4-3.8,3.5-6.5,4.2-9.1,2.3-5.5,2.1-5.6,2.3-6.4,5.3-17,2.3-8.4,2-7.9,3.6-15.3,7.6-34.8,3.4-13.6,1.8-6.5,1.7-5.8,5.3-16.3,2.6-6.4.4-1,.5-1.1,1.2-2.3,1.6-2.3.8-.7.2-1,.4-.2h.2c0,0,.3,0,.3,0h.1c0,0,.1.1.1.1h0s.5,0,.5,0h.2c0,.1.1,0,.1,0h.2c0,.1.2.3.2.3h.2c0,0,.6.7.6.7l.3.3h.1c0,0,.5.8.5.8l.3.7.3.4.5,1.1.4,1.4,1.4,4,1.7,6.9,1,4.9,1.6,9.1,2.6,16.3,9.2,64.1,4.3,26.4,2,10.6,1.5,7.5,1.9,8.2,1.8,6.8,1.6,5.4,1.9,5.6,1.6,4.3,1.9,4.3,2.4,4.4,2.5,3.7,2.2,2.7,4,3.8,1.8,1.3,4,2.4,1.4.7,2.4,1,2.4.8,2.1.7,1.6.4,3.4.9,1.3.3,1.1.3,1.3.5.9.2h.9c0-.1.5-.4.5-.4l.7-.4h.7c0,0,.5,0,.5,0l1.2.6,4.5.9,2,.3,5.4.6,1.9.2h.8c0,0,3.1.4,3.1.4h1c0,0,1.7.2,1.7.2l3.1.2h1.5c0,0,2.3.2,2.3.2l23.5,1h.8s1.2,0,1.2,0h3.4s1.5.1,1.5.1h1.1c0,0,.4,0,.4,0h1s1,0,1,0h1.9s1,0,1,0h.7s1,0,1,0h.9s1.4,0,1.4,0h4.1s1,0,1,0h.8s.7,0,.7,0l20.3.2h2s23.4.1,23.4.1l1-.2.5.3.5.2h.8c0-.1.5-.2.5-.2h.9s0,0,0,0h0"/>
      </g>
    </g>
    <g id="line2d_30" data-name="line2d 30">
      <g class="cls-20">
        <path class="cls-5" d="M41.3,245.9l.4.5.6.5,1.1.9,1.9.9h.5c0,.1.4.2.4.2h.3s.7.1.7.1l1.6-.2h.3c0,0,.3-.1.3-.1l1.4-.5,1.5-.7.2-.4.4-.2h.3c0-.1,2.5-2,2.5-2l.5-.5,1.2-1.1.4-.5,1.2-1.3,5.3-6.8,2.3-3.5,3.5-6,2.8-5.6,2.3-4.7,3.7-6.5,1-1.4,1.3-1.4,1.3-1,1.3-.6h.6c0,0,1.2,0,1.2,0l1.4.7,1,.8,1.2,1.3,1.3,1.8,2.6,4.7,2.1,4.3,1.5,3.3,4.1,8.3,2.9,5.1,2.5,3.8,2.3,3,2,2.3,2.7,2.6,2.1,1.6,1.3.8.6.3,1.5.7,1,.4,2.1.5h.7c0,.1.8.2.8.2h1.6c0,0,.5,0,.5,0h1.7c0-.1,1.4-.4,1.4-.4l3.7-1,2.5-1,1.2-.5.6-.3.7-.3.7-.4,2.2-1.2,6.8-4.4,1.8-1.3,1.4-1.1,2.3-1.9,2.5-2.2,3.8-3.7,1-1.1,1.5-1.6,1-1,1.5-1.7,1.2-1.3,3.2-3.8,7.7-10.1.8-1.1.7-1.1,1.3-1.8.8-1.2.9-1.4,6.4-10.5,5.4-9.6.2-.5,3.1-5.6.3-.6.9-1.7v-.2c.1,0,7.3-14.4,7.3-14.4l.7-1.4.7-1.3.6-1.3.8-1.6,4.5-9.8,1.3-3,2.6-6.1,2.4-5.8,1.4-3.4.9-2,1-2.5,4.6-10.7,1.4-3.3,1.2-2.6.9-2.1,1.6-3.7.7-1.4,1.4-2.9.9-1.8.9-1.8,1.8-3.6,5.3-9.5,5.6-8.3,1.2-1.5.8-1,.8-.9,4.9-4.8,1-.8,1.3-.9,2-1.1,3.3-1.1h1c0-.1,1.2-.1,1.2-.1h.7c0,0,1.8.6,1.8.6l2.7,1.3.5.2.4.2h.5s1,.5,1,.5l.9.9,1.4,1.4,1.3,1.6,3.8,6.2,1,1.8,2.4,4.8.8,1.9,1.8,4.4,2.7,7.4.3,1.1,1.3,3.7,1.9,6,2.2,7.2,3.8,13.4,9.2,33.8,3.5,12.3,4,13.4,4,12.3,2.4,6.9,3.1,8.3,3.7,8.9,3.4,6.9,5.8,10.2,1,1.5,1.2,1.6,2.1,2.6.5.4.9.2,1,.2.3.4.9,1.8,1.2,2.4,1.3,2.4,1.2,1.7,2.3,2.5,4.3,3.9,3,2.3,2,1.2,1.6.8,1.3,1.1.9.6,2.3,1.3,1.3.7,1.3.5,1.3.5,1.5.7,4.7,1.8,3.4,1,1.5.4,1.1.3,2,.5.9.2,1.3.3,2.3.5,5.5.8h.5s.4.2.4.2l.7.4h.8s.7,0,.7,0h.5"/>
      </g>
    </g>
    <g id="line2d_31" data-name="line2d 31">
      <g class="cls-17">
        <path class="cls-13" d="M41.3,245.2l.8.2,1.3.2h.4s1.7.2,1.7.2h.5s1.1,0,1.1,0h2.9c0,.1.5.2.5.2h1.9s.5-.1.5-.1l1.7-.5.7-.4,1.1-1,2-2.3.7-1,1.6-2.4,3.4-5.2,3.8-4.4.4-.2.8-.6.9-.7,1.3-.8,1.5-.6,1.2-.4,1.3-.6,1.3-.8,1.3-1.2,3-2.9.9-.7,1.2-.7.7-.3.8-.3,1-.2h1s2,.6,2,.6l1.1.7.7.6,2.7,3.1,2.6,4,3.4,5.6,2.1,2.9,2.1,2.5,2.1,2,2.5,2,2.9,2,4.6,2.2,3.6.9,1.5.2h.9s.8,0,.8,0h1s2.9-.7,2.9-.7l1-.4,1.4-.7.8-.5.8-.5,3.9-3,1.5-1.2,5.5-4.8,2.5-2.9,3.2-4.2,3.5-4.8,4.5-5.2,3.8-3.9,4.3-5.1,2.5-3.1.7-.8.8-.8,1-.9,1-.7.8-.4,1.3-.3h1c0,0,2.1,1.2,2.1,1.2l2.3,2.4,1.2,1.7,1.5,2.3,3.7,5.1,2.9,2.6,1.5.8,2.2.2h.3s.4,0,.4,0l2.4-.9.2-.4h.3c0-.1.4-.3.4-.3l.8-.6.8-.5.4-.3,2.1-1.8,1.5-1.5.3-.3.3-.2.5-.6,2.6-3.1,1.6-2.1,1.8-2.6,6.7-10.5,5.1-9.1,4-7.8,1-2.2,2.7-5.3,8.6-17.4,7.3-13.4,7.7-12.1,2-2.8,2.5-3.4,3.5-4.5,6.3-7.5.5-.6,3.4-3.6.4-.4.5-.5,2.1-2,.4-.4.2-.2,1.3-1.7,3.2-2.5,1.2-.2h.9s2-.2,2-.2l2.7.6,1.2.6,1.9,1.5,1.9,2.1,2.9,4.3,1.2,2.3,1.4,3,1.5,3.5,2.4,6.4,2.5,7.5,2.7,9.1,14.2,51.1,3.5,11.6,5.1,14.9,3.2,8.4,2.3,5.1,1.8,3.6,2.1,3.3.7,1.1,4.1,7,1.5,2,1.1.9h.5c0,0,.4,0,.4,0l.4-.5,1.5-2,.2.2.3.5.5,1.5,1.1,3.7,1.8,4.7.9,1.7.9,1.3,1.8,2,1,.9,4.7,4,1.8,1.1,1.1.5,1.9.4.4.3,1.1,1.1.8.6,1.6.9.9.4,1.9.8.8.3.7.2,1.9.7,1,.3,3.7,1.1,1.5.4.9.2,2.5.5,10.5,1.7h.7c0,0,1.2.2,1.2.2h.4c0,0,.6-.2.6-.2h.3c0,.1.9.6.9.6h.4s1,0,1,0h.3"/>
      </g>
    </g>
    <g id="line2d_32" data-name="line2d 32">
      <g class="cls-23">
        <path class="cls-10" d="M41.3,243.2l1.9-.6,1.5-.6h.3c0,0,1.4-.3,1.4-.3h.4s1.5,0,1.5,0h.7c0,0,.6.2.6.2l.7.3.6.2.5.2h.5c0,.1.2.2.2.2l.2-.3h.8s.9-.3.9-.3l1.9-1.5,2-2.9,2.7-4.9,2.8-5.4,1.3-1.8.6-.7,1.4-1.1,1.2-.7h.4c0,0,.9-.3.9-.3h.6s1,.3,1,.3l.5.4.6.5,1.1,1.2,2.3,2.3,1.2.5h.7c0,0,.8,0,.8,0l1.4-.5,3.9-1.8,1.7-.3h1.4s1.6.4,1.6.4l1.9.9,1.4,1.1,1.4,1.4,2.1,2.7,5.3,7.5,1.2,1.3,1.5,1.4,2,1.3,1,.5.9.4,3.3,1.1,2.3.3h2.1s3.8-.5,3.8-.5h.4c0,0,1-.3,1-.3l2-.5,2.4-.9,2-1.2,2.3-2,1.9-2.1,10.6-13.8,2.4-4,2.3-4.3,6-12.2,4.1-6.3,3.6-4.9.9-1.3,1.1-1.7,5.5-8.5,1-1.1,1.8-1.2h.3s.5,0,.5,0l.7.2.4.2.9.9,1.4,2,1.2,2.6.7,1.6,1.2,3.3,1.5,5.2,1.8,6.2,1.5,5.3,3.5,11.3.9,2.3,1.7,3.8,1.7,2.9,2.4,2.8.2.2.5.4.2.7.8.6.4.3.5.2.3.2.7.2.9.2h.2s1.4,0,1.4,0h.2c0,0,.3,0,.3,0h.3c0,0,1.4-.4,1.4-.4l1.1-.4.3-.2.4-.2.5-.3,2.7-1.8.4-.4.5-.4,4.5-4.3,6.6-7.9.8-1.1,4.1-5.7,1.2-1.7,8.1-12.1,1.9-2.9,2.6-3.7,3.1-4.3,1.2-1.5,5.1-6.2,9.2-9.6,3.1-3,1.4-1.3.9-.9,1.6-1.6,6.2-6,.8-.7.4-.4.6-.5,2-2.6,1-1.4,1-.9,2.2-1.9.9-.5.9-.5,2.9-1.4,2.1-.6h1.1c0,0,1.4,0,1.4,0l1.5.4,1.8,1,1.5,1.2,1.6,1.7,1.2,1.6,1.3,2,2.8,5.1,1.9,4,2.4,5.8,4.2,11.6,12.9,37.5,3.7,9.6,3.9,8.9,2.1,4.3,1.8,3.2,2.3,3.7,7.1,9.3,2.6,2.2.7.2h.5c0-.1.5-.5.5-.5l.8-.5h.4s.3.2.3.2l.5.9,1.4,2.7,1.2,1.9,1.2,1.6,1.8,1.6,4.5,3,2.5,1.2,2.3.9.9.2,1.6.3.5.3,2.3,1.1,3.4,1,2.4.5,3,.7,2.3.4,1.5.2,2.4.3,5.8.7h1.5c0,.1,1.1.2,1.1.2h1.3c0,.1,1.6.2,1.6.2l2.5.2h.7s1-.1,1-.1l1.2.5h1.9"/>
      </g>
    </g>
    <g id="line2d_33" data-name="line2d 33">
      <g class="cls-21">
        <path class="cls-2" d="M41.3,223.7l1.2-1.5.5-.9.5-1,1.7-3.7,1.2-3,1.4-4.3,2.1-8.4,1-5.1,1.4-9,.3-2.1,2.7-19.9.9-9.5,1.6-16.8.9-6.2,1-4.8.9-4.1.8-5,1.6-11.8.3-.9h.2c0,0,.2.1.2.1l.3.8.4,2.4.5,4.3,1.2,11.3.8,7.1.5,3.2.7,2.4,1.2,3.2.4,2.8.5,4.8.7,8.9,1.1,18.7,1.6,27.9.8,10.1.8,6.4.7,3.6.6,2.3.7,1.7.7,1.1.9.9,1.1.5,2.3.3h.5c0,0,1.9.5,1.9.5l1.5.6,1.2.5,1.3.8,1.7,1.3,1.2,1,1.6,1.8,1.6,2,4.6,6.5,2.6,2.7h.2c0,.1.7.6.7.6l.8.3,1,.3h3.4c0-.1,2.2-.8,2.2-.8l1.3-.6,2.6-1.8,2.3-1.9,5.3-4.6,1.3-1.2.9-.9.5-.5,1.9-2.2,2.6-3.9,3.4-6.6,5.5-11.2,1.6-3.3,3.5-8.1,2.7-7.9,6-18.1,2.1-5.3,2.9-6.3,7.3-15.3,1.2-2.6,2.6-4.3,1.4-1.2h.4c0,0,.4-.1.4-.1h.4c0,0,.6.4.6.4l.9,1,.7,1.1.7,1.5,1.2,3.6,1.2,4.6,1.2,5.6,2.9,16.4,6.3,37.1,2.4,10.8,1,4.1,1.7,5.8,3.3,8.8.4.9,1.3,2.4.8,1.4.4.6.4.6.4.6.7.8.5.6.6.6.4.4,1.6,1.3,1.8.8h.3c0,0,1,.4,1,.4l.8.2h.7c0,.1,2.6.2,2.6.2h.5c0,0,1.2-.2,1.2-.2l1.4-.3h.4c0-.1.7-.3.7-.3l4.2-1.5.7-.3.9-.4.7-.4,1-.5,1-.5.7-.4,9.8-5.5,2.1-1.2.8-.4,1.2-.7,6.4-3.4,9.2-4.1.8-.3,2.5-1,10.2-4.1,4.9-1.9,1.3-1,.6-.6.7-.4.7-.3,1.3-.5.6-.3.8-.2,7.7-1.4h2.4s1.9.2,1.9.2l2.3.6,1.3.5,2,1,3.5,2.3,1.7,1.5,3,3.1,3.8,4.3,2.3,2.8,2.9,3.7,4,5.1,5.8,6.8,4,4.1,2.4,2.1,1.2,1,2.1,1.6,2.1,1.3,1.2.6,1.2.4,1.9,1.1,1.4.7.8.4.5.2,1.9.6.8-.2.7-.5.7-.9,1-1.3h.3c0,0,.3,0,.3,0l.4.6,1.4,2.2,2,2.4,1,.7,2.3,1.1,3.9,1.3,2.3.5h.8c0,.1,1,.2,1,.2h1.3c0-.1.8-.1.8-.1l.7.2,1.9.6,3.8.6h1.8c0,.1,1.1.2,1.1.2h.8c0,0,3,.4,3,.4h.7s.9.1.9.1l6.5.4h2.1c0,0,9.3.4,9.3.4l.8-.2.5.3.5.2h.5s1.1-.1,1.1-.1h.3"/>
      </g>
    </g>
    <g id="line2d_34" data-name="line2d 34">
      <g class="cls-24">
        <path class="cls-3" d="M41.3,191.5l.5-1,.7-1.8.8-3,.9-4.1.7-3.7.8-5,1-8.2,1.2-11.4,1-12,1.2-16.7,1-17.6,3.2-64.5,1-24.1.7-19.6M69.6-1l.4,10.5.6,21.6,1,45.5,1.8,80.2.8,25.4.7,16.5.6,9.3.6,6.2.6,4.1.7,2.9.7,1.8,1,1.7.6.6.9.7,1.1.6,1.8.8,1.2.6,1,.5,1.1.7,1,.7,1.9,1.5,2.9,3,1.9,2.5,1.7,2.5,1.4,2.2,2.5,3.7,1,1.1,1,.9.8.4,2,.5h.5s3.1-.9,3.1-.9l1.3-.7,1.6-1.1,2.2-2.1,3-3.4.9-1,4.1-4.7.9-1,1.8-2.2,2.5-3.8,2.4-4.6,1-2.3,2.7-6.5,3.9-9.3,1.6-3.6,2.3-5.6,2.1-6,1.4-4.5,3.8-13.7,2.5-8.7,2.4-7.4,3-7.7,6.8-16.3,1-2.6,1.9-4.4,2-3.5.9-.9.9-.4h.8c0,.1,1.3,1.6,1.3,1.6l.7,1.3.6,1.5.6,1.9.8,3,1.4,6.5,1.7,10.2,1.3,9.1,6.3,46.3,1.6,9.8,1.3,7.1,1.6,7.8,1.2,5.1.7,2.5,3.2,10.4.6,1.6.9,2.1,1.7,3.3,2.3,3.2,1.3,1.5.2.2,1.6,1.4.6.4.5.3.3.2.3.2,1.5.6.5.2h.4c0,.1,2.6.6,2.6.6h.3s.6.1.6.1h1.8s.5,0,.5,0h1.1c0,0,.6-.1.6-.1h.6c0,0,2.5-.5,2.5-.5l1.3-.3,1.4-.4,18.9-5.7.7-.2,5.4-1.5,3.5-.9,1.5-.3,3.1-.7,1.1-.3,1.9-.5,1.2-.3h.5c0,0,2.2-.5,2.2-.5l3-.7.8-.2,3-.5,1.6-.2,1.3-.4,1-.7.7-.6.7-.4.7-.2,2.4-.6h2.9s2.5-.2,2.5-.2h3.7c0-.1,1,0,1,0h.9s1.6.2,1.6.2l2.2.3,3.4,1,2.8,1.2,1.4.7,2.4,1.4,1.1.6,1,.7,4.7,3.3,1.3,1,1.2.9,2.4,1.8,1,.8,2,1.5,3.2,2.3.7.5,3.9,2.5,3.8,2.1,2.5,1.1,3.8,1.1h1.3s1.2.4,1.2.4l.7.3,1.3.4h.5c0,.1.6.3.6.3h.5s1.6.2,1.6.2l.5-.2.4-.2.7-.7.6-1,1.3-2.3.3-.2h.2c0,0,.4.5.4.5l.7,1.3.8,1.3,1.9,2.4.7.6.9.5,1.3.6,4.5,1.3,1.5.2,1.9.2h.9s.9-.2.9-.2l.9-.2h.4s1,.5,1,.5l1.1.4,1.9.3h.6c0,0,2.7.3,2.7.3h1.1c0,0,2.6.4,2.6.4h1.4s1.2.1,1.2.1h1.2c0,0,2.1.3,2.1.3h1.8c0,0,3.9.2,3.9.2h1s3,0,3,0h1.2s2.3.1,2.3.1h1.4s.7,0,.7,0l.6-.2h.5s.4.1.4.1l.6.2h.7c0,0,.7-.1.7-.1h.6"/>
      </g>
    </g>
    <g id="patch_3" data-name="patch 3">
      <path class="cls-1" d="M41.3,277.2V11.1"/>
    </g>
    <g id="patch_4" data-name="patch 4">
      <path class="cls-1" d="M41.3,277.2h357.1"/>
    </g>
    <g id="legend_1" data-name="legend 1">
      <g id="line2d_41" data-name="line2d 41">
        <path class="cls-14" d="M319.4,45.3h12"/>
      </g>
      <g id="text_18" data-name="text 18">
        <g>
          <path id="ArialMT-6e-4" data-name="ArialMT-6e" class="cls-18" d="M336.6,47.4v-3.1h.5v.4c.2-.3.6-.5,1-.5s.4,0,.5.1.3.2.4.3.1.2.2.4c0,0,0,.3,0,.5v1.9h-.5v-1.9c0-.2,0-.4,0-.5,0-.1-.1-.2-.2-.3-.1,0-.2,0-.4,0-.2,0-.4,0-.6.2s-.2.4-.2.8v1.7h-.5Z"/>
          <path id="ArialMT-6f-2" data-name="ArialMT-6f" class="cls-18" d="M339.8,45.9c0-.6.2-1,.5-1.3.3-.2.6-.3,1-.3s.8.1,1,.4c.3.3.4.7.4,1.2s0,.7-.2.9c-.1.2-.3.4-.5.5-.2.1-.5.2-.8.2-.4,0-.8-.1-1.1-.4-.3-.3-.4-.7-.4-1.2ZM340.3,45.9c0,.4,0,.7.3.9.2.2.4.3.7.3s.5,0,.7-.3c.2-.2.3-.5.3-.9s0-.7-.3-.9-.4-.3-.7-.3-.5,0-.7.3c-.2.2-.3.5-.3.9Z"/>
          <path id="ArialMT-20-3" data-name="ArialMT-20" class="cls-18" d="M342.9,47.4"/>
          <path id="ArialMT-54" class="cls-18" d="M346,47.4v-3.8h-1.4v-.5h3.4v.5h-1.4v3.8h-.6Z"/>
          <path id="ArialMT-46" class="cls-18" d="M348.6,47.4v-4.3h2.9v.5h-2.3v1.3h2v.5h-2v2h-.6Z"/>
          <path id="ArialMT-41-2" data-name="ArialMT-41" class="cls-18" d="M351.5,47.4l1.6-4.3h.6l1.8,4.3h-.6l-.5-1.3h-1.8l-.5,1.3h-.6ZM352.7,45.7h1.5l-.4-1.2c-.1-.4-.2-.7-.3-.9,0,.3-.1.5-.2.8l-.5,1.3Z"/>
        </g>
      </g>
      <g id="line2d_42" data-name="line2d 42">
        <path class="cls-11" d="M319.4,53.8h12"/>
      </g>
      <g id="text_19" data-name="text 19">
        <g>
          <path id="ArialMT-30-25" data-name="ArialMT-30" class="cls-18" d="M336.5,53.8c0-.5,0-.9.2-1.2.1-.3.3-.5.5-.7.2-.2.5-.3.8-.3s.4,0,.6.1c.2,0,.3.2.4.4.1.2.2.4.3.6,0,.3,0,.6,0,1s0,.9-.2,1.2c-.1.3-.3.5-.5.7-.2.2-.5.3-.8.3s-.7-.1-1-.4c-.3-.4-.4-.9-.4-1.7ZM337,53.8c0,.7,0,1.2.2,1.4.2.2.4.3.6.3s.4-.1.6-.4.2-.7.2-1.4,0-1.2-.2-1.4c-.2-.2-.4-.3-.6-.3s-.4.1-.6.3c-.2.3-.3.7-.3,1.5Z"/>
          <path id="ArialMT-2e-11" data-name="ArialMT-2e" class="cls-18" d="M340.1,55.9v-.6h.6v.6h-.6Z"/>
          <path id="ArialMT-35-2" data-name="ArialMT-35" class="cls-18" d="M341.5,54.8h.6c0,.2.1.4.3.6.1.1.3.2.5.2s.5,0,.6-.3c.2-.2.3-.4.3-.8s0-.5-.3-.7c-.2-.2-.4-.3-.7-.3s-.3,0-.5.1c-.1,0-.2.2-.3.3h-.5c0,0,.4-2.3.4-2.3h2.1v.5h-1.7l-.2,1.2c.3-.2.5-.3.8-.3s.7.1.9.4c.3.3.4.6.4,1s-.1.7-.3,1c-.3.3-.7.5-1.1.5s-.7-.1-1-.3c-.2-.2-.4-.5-.4-.9Z"/>
          <path id="ArialMT-20-4" data-name="ArialMT-20" class="cls-18" d="M344.6,55.9"/>
          <path id="ArialMT-68-2" data-name="ArialMT-68" class="cls-18" d="M346.6,55.9v-4.3h.5v1.5c.2-.3.6-.4.9-.4s.4,0,.6.1c.2,0,.3.2.4.4s.1.4.1.7v2h-.5v-2c0-.3,0-.5-.2-.6s-.3-.2-.5-.2-.3,0-.4.1c-.1,0-.2.2-.3.3,0,.1,0,.3,0,.6v1.7h-.5Z"/>
          <path id="ArialMT-72-2" data-name="ArialMT-72" class="cls-18" d="M350,55.9v-3.1h.5v.5c.1-.2.2-.4.3-.4.1,0,.2-.1.3-.1.2,0,.4,0,.5.2l-.2.5c-.1,0-.3-.1-.4-.1s-.2,0-.3.1-.2.2-.2.3c0,.2,0,.4,0,.6v1.6h-.5Z"/>
        </g>
      </g>
      <g id="line2d_43" data-name="line2d 43">
        <path class="cls-8" d="M319.4,62.3h12"/>
      </g>
      <g id="text_20" data-name="text 20">
        <g>
          <path id="ArialMT-34-4" data-name="ArialMT-34" class="cls-18" d="M338.2,64.4v-1h-1.9v-.5l2-2.8h.4v2.8h.6v.5h-.6v1h-.5ZM338.2,62.9v-1.9l-1.3,1.9h1.3Z"/>
          <path id="ArialMT-20-5" data-name="ArialMT-20" class="cls-18" d="M339.6,64.4"/>
          <path id="ArialMT-64" class="cls-18" d="M343.7,64.4v-.4c-.2.3-.5.5-.9.5s-.5,0-.7-.2-.4-.3-.5-.6c-.1-.2-.2-.5-.2-.8s0-.6.2-.8c.1-.3.3-.4.5-.6.2-.1.4-.2.7-.2s.4,0,.5.1c.1,0,.3.2.4.3v-1.5h.5v4.3h-.5ZM342,62.9c0,.4,0,.7.3.9.2.2.4.3.6.3s.4,0,.6-.3c.2-.2.2-.5.2-.9s0-.7-.2-.9c-.2-.2-.4-.3-.6-.3s-.4,0-.6.3c-.2.2-.2.5-.2.9Z"/>
          <path id="ArialMT-61-4" data-name="ArialMT-61" class="cls-18" d="M347,64c-.2.2-.4.3-.6.4-.2,0-.4.1-.6.1-.3,0-.6,0-.8-.3s-.3-.4-.3-.6,0-.3.1-.4c0-.1.2-.2.3-.3s.2-.1.4-.2c.1,0,.3,0,.5,0,.4,0,.7-.1.9-.2,0,0,0-.1,0-.1,0-.2,0-.4-.1-.5-.1-.1-.3-.2-.6-.2s-.4,0-.5.1-.2.2-.3.5h-.5c0-.3.1-.5.2-.6.1-.1.3-.2.5-.3.2,0,.4-.1.7-.1s.5,0,.6,0c.2,0,.3.1.4.2,0,0,.1.2.2.4,0,0,0,.3,0,.5v.7c0,.5,0,.8,0,.9,0,.1,0,.3.1.4h-.6c0-.1,0-.2-.1-.4ZM347,62.9c-.2,0-.5.1-.9.2-.2,0-.4,0-.5.1,0,0-.2,0-.2.2,0,0,0,.2,0,.3,0,.1,0,.3.2.4.1,0,.3.1.5.1s.4,0,.5-.1c.2,0,.3-.2.3-.4,0-.1,0-.3,0-.5v-.2Z"/>
          <path id="ArialMT-79" class="cls-18" d="M348.3,65.6v-.5c0,0,.2,0,.2,0s.2,0,.3,0c0,0,.1,0,.2-.2,0,0,0-.2.2-.4,0,0,0,0,0-.1l-1.2-3.1h.6l.6,1.8c0,.2.2.5.2.7,0-.2.1-.5.2-.7l.7-1.8h.5l-1.2,3.2c-.1.3-.2.6-.3.7,0,.2-.2.3-.3.4-.1,0-.3.1-.4.1s-.2,0-.3,0Z"/>
          <path id="ArialMT-73-2" data-name="ArialMT-73" class="cls-18" d="M351.1,63.5h.5c0,.1.1.3.2.4.1.1.3.2.6.2s.4,0,.5-.1c.1,0,.2-.2.2-.3s0-.2-.2-.3c0,0-.3-.1-.5-.2-.4,0-.7-.2-.8-.3s-.3-.2-.3-.3c0-.1-.1-.3-.1-.4s0-.3,0-.4c0-.1.2-.2.3-.3,0,0,.2-.1.3-.2.1,0,.3,0,.5,0,.2,0,.5,0,.6.1.2,0,.3.2.4.3,0,.1.1.3.2.5h-.5c0,0,0-.2-.2-.3-.1,0-.3-.1-.5-.1s-.4,0-.5.1c-.1,0-.2.2-.2.3s0,.1,0,.2c0,0,.1.1.2.1,0,0,.2,0,.5.1.4,0,.6.2.8.2.1,0,.3.2.3.3,0,.1.1.3.1.5s0,.3-.2.5c-.1.2-.3.3-.4.4-.2,0-.4.1-.7.1-.4,0-.7,0-.9-.3-.2-.2-.3-.4-.4-.7Z"/>
        </g>
      </g>
      <g id="line2d_44" data-name="line2d 44">
        <path class="cls-4" d="M319.4,70.9h12"/>
      </g>
      <g id="text_21" data-name="text 21">
        <g>
          <path id="ArialMT-31-6" data-name="ArialMT-31" class="cls-18" d="M338.5,73h-.5v-3.4c-.1.1-.3.2-.5.4s-.4.2-.6.3v-.5c.3-.1.6-.3.8-.5.2-.2.4-.4.5-.6h.3v4.3Z"/>
          <path id="ArialMT-36-4" data-name="ArialMT-36" class="cls-18" d="M342.6,69.7h-.5c0-.2-.1-.3-.2-.4-.1-.2-.3-.2-.5-.2s-.3,0-.4.1c-.2.1-.3.3-.4.5,0,.2-.1.6-.1,1,.1-.2.3-.3.5-.4s.4-.1.6-.1c.4,0,.7.1.9.4.2.3.4.6.4,1s0,.5-.2.8c-.1.2-.3.4-.5.5-.2.1-.4.2-.7.2-.4,0-.8-.2-1.1-.5-.3-.3-.4-.9-.4-1.6s.2-1.4.5-1.8c.3-.3.6-.5,1.1-.5s.6,0,.8.3c.2.2.3.5.4.8ZM340.4,71.6c0,.2,0,.4.1.5,0,.2.2.3.3.4.1,0,.3.1.4.1.2,0,.4,0,.6-.3.2-.2.2-.4.2-.7s0-.5-.2-.7c-.2-.2-.4-.3-.6-.3s-.4,0-.6.3c-.2.2-.2.4-.2.7Z"/>
          <path id="ArialMT-20-6" data-name="ArialMT-20" class="cls-18" d="M342.9,73"/>
          <path id="ArialMT-64-2" data-name="ArialMT-64" class="cls-18" d="M347,73v-.4c-.2.3-.5.5-.9.5s-.5,0-.7-.2-.4-.3-.5-.6c-.1-.2-.2-.5-.2-.8s0-.6.2-.8c.1-.3.3-.4.5-.6.2-.1.4-.2.7-.2s.4,0,.5.1c.1,0,.3.2.4.3v-1.5h.5v4.3h-.5ZM345.3,71.4c0,.4,0,.7.3.9.2.2.4.3.6.3s.4,0,.6-.3c.2-.2.2-.5.2-.9s0-.7-.2-.9c-.2-.2-.4-.3-.6-.3s-.4,0-.6.3c-.2.2-.2.5-.2.9Z"/>
          <path id="ArialMT-61-5" data-name="ArialMT-61" class="cls-18" d="M350.4,72.6c-.2.2-.4.3-.6.4-.2,0-.4.1-.6.1-.3,0-.6,0-.8-.3s-.3-.4-.3-.6,0-.3.1-.4c0-.1.2-.2.3-.3s.2-.1.4-.2c.1,0,.3,0,.5,0,.4,0,.7-.1.9-.2,0,0,0-.1,0-.1,0-.2,0-.4-.1-.5-.1-.1-.3-.2-.6-.2s-.4,0-.5.1-.2.2-.3.5h-.5c0-.3.1-.5.2-.6.1-.1.3-.2.5-.3.2,0,.4-.1.7-.1s.5,0,.6,0c.2,0,.3.1.4.2,0,0,.1.2.2.4,0,0,0,.3,0,.5v.7c0,.5,0,.8,0,.9,0,.1,0,.3.1.4h-.6c0-.1,0-.2-.1-.4ZM350.3,71.4c-.2,0-.5.1-.9.2-.2,0-.4,0-.5.1,0,0-.2,0-.2.2,0,0,0,.2,0,.3,0,.1,0,.3.2.4.1,0,.3.1.5.1s.4,0,.5-.1c.2,0,.3-.2.3-.4,0-.1,0-.3,0-.5v-.2Z"/>
          <path id="ArialMT-79-2" data-name="ArialMT-79" class="cls-18" d="M351.6,74.2v-.5c0,0,.2,0,.2,0s.2,0,.3,0c0,0,.1,0,.2-.2,0,0,0-.2.2-.4,0,0,0,0,0-.1l-1.2-3.1h.6l.6,1.8c0,.2.2.5.2.7,0-.2.1-.5.2-.7l.7-1.8h.5l-1.2,3.2c-.1.3-.2.6-.3.7,0,.2-.2.3-.3.4-.1,0-.3.1-.4.1s-.2,0-.3,0Z"/>
          <path id="ArialMT-73-3" data-name="ArialMT-73" class="cls-18" d="M354.4,72.1h.5c0,.1.1.3.2.4.1.1.3.2.6.2s.4,0,.5-.1c.1,0,.2-.2.2-.3s0-.2-.2-.3c0,0-.3-.1-.5-.2-.4,0-.7-.2-.8-.3s-.3-.2-.3-.3c0-.1-.1-.3-.1-.4s0-.3,0-.4c0-.1.2-.2.3-.3,0,0,.2-.1.3-.2.1,0,.3,0,.5,0,.2,0,.5,0,.6.1.2,0,.3.2.4.3,0,.1.1.3.2.5h-.5c0,0,0-.2-.2-.3-.1,0-.3-.1-.5-.1s-.4,0-.5.1c-.1,0-.2.2-.2.3s0,.1,0,.2c0,0,.1.1.2.1,0,0,.2,0,.5.1.4,0,.6.2.8.2.1,0,.3.2.3.3,0,.1.1.3.1.5s0,.3-.2.5c-.1.2-.3.3-.4.4-.2,0-.4.1-.7.1-.4,0-.7,0-.9-.3-.2-.2-.3-.4-.4-.7Z"/>
        </g>
      </g>
      <g id="line2d_45" data-name="line2d 45">
        <path class="cls-6" d="M319.4,79.5h12"/>
      </g>
      <g id="text_22" data-name="text 22">
        <g>
          <path id="ArialMT-32-3" data-name="ArialMT-32" class="cls-18" d="M339.3,81.1v.5h-2.8c0-.1,0-.2,0-.4,0-.2.2-.4.3-.6.2-.2.4-.4.7-.7.5-.4.8-.7.9-.9.2-.2.2-.4.2-.6s0-.4-.2-.5c-.1-.1-.3-.2-.6-.2s-.5,0-.6.2c-.2.2-.2.4-.2.6h-.5c0-.5.2-.8.4-1,.2-.2.6-.3,1-.3s.7.1,1,.3c.2.2.4.5.4.8s0,.3-.1.5c0,.2-.2.3-.3.5s-.4.4-.8.8c-.3.3-.5.4-.6.5,0,0-.2.2-.2.3h2.1Z"/>
          <path id="ArialMT-32-4" data-name="ArialMT-32" class="cls-18" d="M342.6,81.1v.5h-2.8c0-.1,0-.2,0-.4,0-.2.2-.4.3-.6.2-.2.4-.4.7-.7.5-.4.8-.7.9-.9.2-.2.2-.4.2-.6s0-.4-.2-.5c-.1-.1-.3-.2-.6-.2s-.5,0-.6.2c-.2.2-.2.4-.2.6h-.5c0-.5.2-.8.4-1,.2-.2.6-.3,1-.3s.7.1,1,.3c.2.2.4.5.4.8s0,.3-.1.5c0,.2-.2.3-.3.5s-.4.4-.8.8c-.3.3-.5.4-.6.5,0,0-.2.2-.2.3h2.1Z"/>
          <path id="ArialMT-20-7" data-name="ArialMT-20" class="cls-18" d="M342.9,81.6"/>
          <path id="ArialMT-64-3" data-name="ArialMT-64" class="cls-18" d="M347,81.6v-.4c-.2.3-.5.5-.9.5s-.5,0-.7-.2-.4-.3-.5-.6c-.1-.2-.2-.5-.2-.8s0-.6.2-.8c.1-.3.3-.4.5-.6.2-.1.4-.2.7-.2s.4,0,.5.1c.1,0,.3.2.4.3v-1.5h.5v4.3h-.5ZM345.3,80c0,.4,0,.7.3.9.2.2.4.3.6.3s.4,0,.6-.3c.2-.2.2-.5.2-.9s0-.7-.2-.9c-.2-.2-.4-.3-.6-.3s-.4,0-.6.3c-.2.2-.2.5-.2.9Z"/>
          <path id="ArialMT-61-6" data-name="ArialMT-61" class="cls-18" d="M350.4,81.2c-.2.2-.4.3-.6.4-.2,0-.4.1-.6.1-.3,0-.6,0-.8-.3s-.3-.4-.3-.6,0-.3.1-.4c0-.1.2-.2.3-.3s.2-.1.4-.2c.1,0,.3,0,.5,0,.4,0,.7-.1.9-.2,0,0,0-.1,0-.1,0-.2,0-.4-.1-.5-.1-.1-.3-.2-.6-.2s-.4,0-.5.1-.2.2-.3.5h-.5c0-.3.1-.5.2-.6.1-.1.3-.2.5-.3.2,0,.4-.1.7-.1s.5,0,.6,0c.2,0,.3.1.4.2,0,0,.1.2.2.4,0,0,0,.3,0,.5v.7c0,.5,0,.8,0,.9,0,.1,0,.3.1.4h-.6c0-.1,0-.2-.1-.4ZM350.3,80c-.2,0-.5.1-.9.2-.2,0-.4,0-.5.1,0,0-.2,0-.2.2,0,0,0,.2,0,.3,0,.1,0,.3.2.4.1,0,.3.1.5.1s.4,0,.5-.1c.2,0,.3-.2.3-.4,0-.1,0-.3,0-.5v-.2Z"/>
          <path id="ArialMT-79-3" data-name="ArialMT-79" class="cls-18" d="M351.6,82.8v-.5c0,0,.2,0,.2,0s.2,0,.3,0c0,0,.1,0,.2-.2,0,0,0-.2.2-.4,0,0,0,0,0-.1l-1.2-3.1h.6l.6,1.8c0,.2.2.5.2.7,0-.2.1-.5.2-.7l.7-1.8h.5l-1.2,3.2c-.1.3-.2.6-.3.7,0,.2-.2.3-.3.4-.1,0-.3.1-.4.1s-.2,0-.3,0Z"/>
          <path id="ArialMT-73-4" data-name="ArialMT-73" class="cls-18" d="M354.4,80.6h.5c0,.1.1.3.2.4.1.1.3.2.6.2s.4,0,.5-.1c.1,0,.2-.2.2-.3s0-.2-.2-.3c0,0-.3-.1-.5-.2-.4,0-.7-.2-.8-.3s-.3-.2-.3-.3c0-.1-.1-.3-.1-.4s0-.3,0-.4c0-.1.2-.2.3-.3,0,0,.2-.1.3-.2.1,0,.3,0,.5,0,.2,0,.5,0,.6.1.2,0,.3.2.4.3,0,.1.1.3.2.5h-.5c0,0,0-.2-.2-.3-.1,0-.3-.1-.5-.1s-.4,0-.5.1c-.1,0-.2.2-.2.3s0,.1,0,.2c0,0,.1.1.2.1,0,0,.2,0,.5.1.4,0,.6.2.8.2.1,0,.3.2.3.3,0,.1.1.3.1.5s0,.3-.2.5c-.1.2-.3.3-.4.4-.2,0-.4.1-.7.1-.4,0-.7,0-.9-.3-.2-.2-.3-.4-.4-.7Z"/>
        </g>
      </g>
      <g id="line2d_46" data-name="line2d 46">
        <path class="cls-12" d="M319.4,88h12"/>
      </g>
      <g id="text_23" data-name="text 23">
        <g>
          <path id="ArialMT-33-2" data-name="ArialMT-33" class="cls-18" d="M336.5,89h.5c0,.2.2.4.3.6.1.1.3.2.5.2s.5,0,.6-.3c.2-.2.3-.4.3-.6s0-.4-.2-.6c-.2-.2-.4-.2-.6-.2s-.2,0-.4,0v-.5c0,0,.1,0,.1,0,.2,0,.4,0,.6-.2.2-.1.3-.3.3-.5s0-.4-.2-.5c-.1-.1-.3-.2-.5-.2s-.4,0-.5.2c-.1.1-.2.3-.3.6h-.5c0-.4.2-.7.4-.9.2-.2.5-.3.9-.3s.4,0,.6.2c.2.1.3.2.5.4.1.2.2.4.2.6s0,.4-.1.5c0,.2-.2.3-.4.4.3,0,.5.2.6.4.1.2.2.4.2.7s-.1.7-.4,1c-.3.3-.6.4-1,.4s-.7-.1-.9-.3c-.2-.2-.4-.5-.4-.9Z"/>
          <path id="ArialMT-30-26" data-name="ArialMT-30" class="cls-18" d="M339.8,88c0-.5,0-.9.2-1.2.1-.3.3-.5.5-.7.2-.2.5-.3.8-.3s.4,0,.6.1c.2,0,.3.2.4.4.1.2.2.4.3.6,0,.3,0,.6,0,1s0,.9-.2,1.2c-.1.3-.3.5-.5.7-.2.2-.5.3-.8.3s-.7-.1-1-.4c-.3-.4-.4-.9-.4-1.7ZM340.4,88c0,.7,0,1.2.2,1.4.2.2.4.3.6.3s.4-.1.6-.4.2-.7.2-1.4,0-1.2-.2-1.4c-.2-.2-.4-.3-.6-.3s-.4.1-.6.3c-.2.3-.3.7-.3,1.5Z"/>
          <path id="ArialMT-20-8" data-name="ArialMT-20" class="cls-18" d="M342.9,90.1"/>
          <path id="ArialMT-64-4" data-name="ArialMT-64" class="cls-18" d="M347,90.1v-.4c-.2.3-.5.5-.9.5s-.5,0-.7-.2-.4-.3-.5-.6c-.1-.2-.2-.5-.2-.8s0-.6.2-.8c.1-.3.3-.4.5-.6.2-.1.4-.2.7-.2s.4,0,.5.1c.1,0,.3.2.4.3v-1.5h.5v4.3h-.5ZM345.3,88.6c0,.4,0,.7.3.9.2.2.4.3.6.3s.4,0,.6-.3c.2-.2.2-.5.2-.9s0-.7-.2-.9c-.2-.2-.4-.3-.6-.3s-.4,0-.6.3c-.2.2-.2.5-.2.9Z"/>
          <path id="ArialMT-61-7" data-name="ArialMT-61" class="cls-18" d="M350.4,89.8c-.2.2-.4.3-.6.4-.2,0-.4.1-.6.1-.3,0-.6,0-.8-.3s-.3-.4-.3-.6,0-.3.1-.4c0-.1.2-.2.3-.3s.2-.1.4-.2c.1,0,.3,0,.5,0,.4,0,.7-.1.9-.2,0,0,0-.1,0-.1,0-.2,0-.4-.1-.5-.1-.1-.3-.2-.6-.2s-.4,0-.5.1-.2.2-.3.5h-.5c0-.3.1-.5.2-.6.1-.1.3-.2.5-.3.2,0,.4-.1.7-.1s.5,0,.6,0c.2,0,.3.1.4.2,0,0,.1.2.2.4,0,0,0,.3,0,.5v.7c0,.5,0,.8,0,.9,0,.1,0,.3.1.4h-.6c0-.1,0-.2-.1-.4ZM350.3,88.6c-.2,0-.5.1-.9.2-.2,0-.4,0-.5.1,0,0-.2,0-.2.2,0,0,0,.2,0,.3,0,.1,0,.3.2.4.1,0,.3.1.5.1s.4,0,.5-.1c.2,0,.3-.2.3-.4,0-.1,0-.3,0-.5v-.2Z"/>
          <path id="ArialMT-79-4" data-name="ArialMT-79" class="cls-18" d="M351.6,91.3v-.5c0,0,.2,0,.2,0s.2,0,.3,0c0,0,.1,0,.2-.2,0,0,0-.2.2-.4,0,0,0,0,0-.1l-1.2-3.1h.6l.6,1.8c0,.2.2.5.2.7,0-.2.1-.5.2-.7l.7-1.8h.5l-1.2,3.2c-.1.3-.2.6-.3.7,0,.2-.2.3-.3.4-.1,0-.3.1-.4.1s-.2,0-.3,0Z"/>
          <path id="ArialMT-73-5" data-name="ArialMT-73" class="cls-18" d="M354.4,89.2h.5c0,.1.1.3.2.4.1.1.3.2.6.2s.4,0,.5-.1c.1,0,.2-.2.2-.3s0-.2-.2-.3c0,0-.3-.1-.5-.2-.4,0-.7-.2-.8-.3s-.3-.2-.3-.3c0-.1-.1-.3-.1-.4s0-.3,0-.4c0-.1.2-.2.3-.3,0,0,.2-.1.3-.2.1,0,.3,0,.5,0,.2,0,.5,0,.6.1.2,0,.3.2.4.3,0,.1.1.3.2.5h-.5c0,0,0-.2-.2-.3-.1,0-.3-.1-.5-.1s-.4,0-.5.1c-.1,0-.2.2-.2.3s0,.1,0,.2c0,0,.1.1.2.1,0,0,.2,0,.5.1.4,0,.6.2.8.2.1,0,.3.2.3.3,0,.1.1.3.1.5s0,.3-.2.5c-.1.2-.3.3-.4.4-.2,0-.4.1-.7.1-.4,0-.7,0-.9-.3-.2-.2-.3-.4-.4-.7Z"/>
        </g>
      </g>
    </g>
  </g>
</svg>