<?xml version="1.0" encoding="utf-8" standalone="no"?>
<!DOCTYPE svg PUBLIC "-//W3C//DTD SVG 1.1//EN"
  "http://www.w3.org/Graphics/SVG/1.1/DTD/svg11.dtd">
<svg xmlns:xlink="http://www.w3.org/1999/xlink" width="411.688281pt" height="312.983016pt" viewBox="0 0 411.688281 312.983016" xmlns="http://www.w3.org/2000/svg" version="1.1">
 <metadata>
  <rdf:RDF xmlns:dc="http://purl.org/dc/elements/1.1/" xmlns:cc="http://creativecommons.org/ns#" xmlns:rdf="http://www.w3.org/1999/02/22-rdf-syntax-ns#">
   <cc:Work>
    <dc:type rdf:resource="http://purl.org/dc/dcmitype/StillImage"/>
    <dc:date>2024-02-06T15:21:44.406682</dc:date>
    <dc:format>image/svg+xml</dc:format>
    <dc:creator>
     <cc:Agent>
      <dc:title>Matplotlib v3.7.1, https://matplotlib.org/</dc:title>
     </cc:Agent>
    </dc:creator>
   </cc:Work>
  </rdf:RDF>
 </metadata>
 <defs>
  <style type="text/css">*{stroke-linejoin: round; stroke-linecap: butt}</style>
 </defs>
 <g id="figure_1">
  <g id="patch_1">
   <path d="M 0 312.983016 
L 411.688281 312.983016 
L 411.688281 0 
L 0 0 
z
" style="fill: #ffffff"/>
  </g>
  <g id="axes_1">
   <g id="patch_2">
    <path d="M 41.25125 277.248797 
L 398.37125 277.248797 
L 398.37125 11.136797 
L 41.25125 11.136797 
z
" style="fill: #ffffff"/>
   </g>
   <g id="matplotlib.axis_1">
    <g id="xtick_1">
     <g id="line2d_1">
      <defs>
       <path id="m0905b3b14c" d="M 0 0 
L 0 -6 
" style="stroke: #262626; stroke-width: 1.25"/>
      </defs>
      <g>
       <use xlink:href="#m0905b3b14c" x="41.25125" y="277.248797" style="fill: #262626; stroke: #262626; stroke-width: 1.25"/>
      </g>
     </g>
     <g id="text_1">
      <!-- 4 -->
      <g style="fill: #262626" transform="translate(38.192734 288.622391) scale(0.11 -0.11)">
       <defs>
        <path id="ArialMT-34" d="M 2069 0 
L 2069 1097 
L 81 1097 
L 81 1613 
L 2172 4581 
L 2631 4581 
L 2631 1613 
L 3250 1613 
L 3250 1097 
L 2631 1097 
L 2631 0 
L 2069 0 
z
M 2069 1613 
L 2069 3678 
L 634 1613 
L 2069 1613 
z
" transform="scale(0.015625)"/>
       </defs>
       <use xlink:href="#ArialMT-34"/>
      </g>
     </g>
    </g>
    <g id="xtick_2">
     <g id="line2d_2">
      <g>
       <use xlink:href="#m0905b3b14c" x="100.77125" y="277.248797" style="fill: #262626; stroke: #262626; stroke-width: 1.25"/>
      </g>
     </g>
     <g id="text_2">
      <!-- 5 -->
      <g style="fill: #262626" transform="translate(97.712734 288.622391) scale(0.11 -0.11)">
       <defs>
        <path id="ArialMT-35" d="M 266 1200 
L 856 1250 
Q 922 819 1161 601 
Q 1400 384 1738 384 
Q 2144 384 2425 690 
Q 2706 997 2706 1503 
Q 2706 1984 2436 2262 
Q 2166 2541 1728 2541 
Q 1456 2541 1237 2417 
Q 1019 2294 894 2097 
L 366 2166 
L 809 4519 
L 3088 4519 
L 3088 3981 
L 1259 3981 
L 1013 2750 
Q 1425 3038 1878 3038 
Q 2478 3038 2890 2622 
Q 3303 2206 3303 1553 
Q 3303 931 2941 478 
Q 2500 -78 1738 -78 
Q 1113 -78 717 272 
Q 322 622 266 1200 
z
" transform="scale(0.015625)"/>
       </defs>
       <use xlink:href="#ArialMT-35"/>
      </g>
     </g>
    </g>
    <g id="xtick_3">
     <g id="line2d_3">
      <g>
       <use xlink:href="#m0905b3b14c" x="160.29125" y="277.248797" style="fill: #262626; stroke: #262626; stroke-width: 1.25"/>
      </g>
     </g>
     <g id="text_3">
      <!-- 6 -->
      <g style="fill: #262626" transform="translate(157.232734 288.622391) scale(0.11 -0.11)">
       <defs>
        <path id="ArialMT-36" d="M 3184 3459 
L 2625 3416 
Q 2550 3747 2413 3897 
Q 2184 4138 1850 4138 
Q 1581 4138 1378 3988 
Q 1113 3794 959 3422 
Q 806 3050 800 2363 
Q 1003 2672 1297 2822 
Q 1591 2972 1913 2972 
Q 2475 2972 2870 2558 
Q 3266 2144 3266 1488 
Q 3266 1056 3080 686 
Q 2894 316 2569 119 
Q 2244 -78 1831 -78 
Q 1128 -78 684 439 
Q 241 956 241 2144 
Q 241 3472 731 4075 
Q 1159 4600 1884 4600 
Q 2425 4600 2770 4297 
Q 3116 3994 3184 3459 
z
M 888 1484 
Q 888 1194 1011 928 
Q 1134 663 1356 523 
Q 1578 384 1822 384 
Q 2178 384 2434 671 
Q 2691 959 2691 1453 
Q 2691 1928 2437 2201 
Q 2184 2475 1800 2475 
Q 1419 2475 1153 2201 
Q 888 1928 888 1484 
z
" transform="scale(0.015625)"/>
       </defs>
       <use xlink:href="#ArialMT-36"/>
      </g>
     </g>
    </g>
    <g id="xtick_4">
     <g id="line2d_4">
      <g>
       <use xlink:href="#m0905b3b14c" x="219.81125" y="277.248797" style="fill: #262626; stroke: #262626; stroke-width: 1.25"/>
      </g>
     </g>
     <g id="text_4">
      <!-- 7 -->
      <g style="fill: #262626" transform="translate(216.752734 288.622391) scale(0.11 -0.11)">
       <defs>
        <path id="ArialMT-37" d="M 303 3981 
L 303 4522 
L 3269 4522 
L 3269 4084 
Q 2831 3619 2401 2847 
Q 1972 2075 1738 1259 
Q 1569 684 1522 0 
L 944 0 
Q 953 541 1156 1306 
Q 1359 2072 1739 2783 
Q 2119 3494 2547 3981 
L 303 3981 
z
" transform="scale(0.015625)"/>
       </defs>
       <use xlink:href="#ArialMT-37"/>
      </g>
     </g>
    </g>
    <g id="xtick_5">
     <g id="line2d_5">
      <g>
       <use xlink:href="#m0905b3b14c" x="279.33125" y="277.248797" style="fill: #262626; stroke: #262626; stroke-width: 1.25"/>
      </g>
     </g>
     <g id="text_5">
      <!-- 8 -->
      <g style="fill: #262626" transform="translate(276.272734 288.622391) scale(0.11 -0.11)">
       <defs>
        <path id="ArialMT-38" d="M 1131 2484 
Q 781 2613 612 2850 
Q 444 3088 444 3419 
Q 444 3919 803 4259 
Q 1163 4600 1759 4600 
Q 2359 4600 2725 4251 
Q 3091 3903 3091 3403 
Q 3091 3084 2923 2848 
Q 2756 2613 2416 2484 
Q 2838 2347 3058 2040 
Q 3278 1734 3278 1309 
Q 3278 722 2862 322 
Q 2447 -78 1769 -78 
Q 1091 -78 675 323 
Q 259 725 259 1325 
Q 259 1772 486 2073 
Q 713 2375 1131 2484 
z
M 1019 3438 
Q 1019 3113 1228 2906 
Q 1438 2700 1772 2700 
Q 2097 2700 2305 2904 
Q 2513 3109 2513 3406 
Q 2513 3716 2298 3927 
Q 2084 4138 1766 4138 
Q 1444 4138 1231 3931 
Q 1019 3725 1019 3438 
z
M 838 1322 
Q 838 1081 952 856 
Q 1066 631 1291 507 
Q 1516 384 1775 384 
Q 2178 384 2440 643 
Q 2703 903 2703 1303 
Q 2703 1709 2433 1975 
Q 2163 2241 1756 2241 
Q 1359 2241 1098 1978 
Q 838 1716 838 1322 
z
" transform="scale(0.015625)"/>
       </defs>
       <use xlink:href="#ArialMT-38"/>
      </g>
     </g>
    </g>
    <g id="xtick_6">
     <g id="line2d_6">
      <g>
       <use xlink:href="#m0905b3b14c" x="338.85125" y="277.248797" style="fill: #262626; stroke: #262626; stroke-width: 1.25"/>
      </g>
     </g>
     <g id="text_6">
      <!-- 9 -->
      <g style="fill: #262626" transform="translate(335.792734 288.622391) scale(0.11 -0.11)">
       <defs>
        <path id="ArialMT-39" d="M 350 1059 
L 891 1109 
Q 959 728 1153 556 
Q 1347 384 1650 384 
Q 1909 384 2104 503 
Q 2300 622 2425 820 
Q 2550 1019 2634 1356 
Q 2719 1694 2719 2044 
Q 2719 2081 2716 2156 
Q 2547 1888 2255 1720 
Q 1963 1553 1622 1553 
Q 1053 1553 659 1965 
Q 266 2378 266 3053 
Q 266 3750 677 4175 
Q 1088 4600 1706 4600 
Q 2153 4600 2523 4359 
Q 2894 4119 3086 3673 
Q 3278 3228 3278 2384 
Q 3278 1506 3087 986 
Q 2897 466 2520 194 
Q 2144 -78 1638 -78 
Q 1100 -78 759 220 
Q 419 519 350 1059 
z
M 2653 3081 
Q 2653 3566 2395 3850 
Q 2138 4134 1775 4134 
Q 1400 4134 1122 3828 
Q 844 3522 844 3034 
Q 844 2597 1108 2323 
Q 1372 2050 1759 2050 
Q 2150 2050 2401 2323 
Q 2653 2597 2653 3081 
z
" transform="scale(0.015625)"/>
       </defs>
       <use xlink:href="#ArialMT-39"/>
      </g>
     </g>
    </g>
    <g id="xtick_7">
     <g id="line2d_7">
      <g>
       <use xlink:href="#m0905b3b14c" x="398.37125" y="277.248797" style="fill: #262626; stroke: #262626; stroke-width: 1.25"/>
      </g>
     </g>
     <g id="text_7">
      <!-- 10 -->
      <g style="fill: #262626" transform="translate(392.254219 288.622391) scale(0.11 -0.11)">
       <defs>
        <path id="ArialMT-31" d="M 2384 0 
L 1822 0 
L 1822 3584 
Q 1619 3391 1289 3197 
Q 959 3003 697 2906 
L 697 3450 
Q 1169 3672 1522 3987 
Q 1875 4303 2022 4600 
L 2384 4600 
L 2384 0 
z
" transform="scale(0.015625)"/>
        <path id="ArialMT-30" d="M 266 2259 
Q 266 3072 433 3567 
Q 600 4063 929 4331 
Q 1259 4600 1759 4600 
Q 2128 4600 2406 4451 
Q 2684 4303 2865 4023 
Q 3047 3744 3150 3342 
Q 3253 2941 3253 2259 
Q 3253 1453 3087 958 
Q 2922 463 2592 192 
Q 2263 -78 1759 -78 
Q 1097 -78 719 397 
Q 266 969 266 2259 
z
M 844 2259 
Q 844 1131 1108 757 
Q 1372 384 1759 384 
Q 2147 384 2411 759 
Q 2675 1134 2675 2259 
Q 2675 3391 2411 3762 
Q 2147 4134 1753 4134 
Q 1366 4134 1134 3806 
Q 844 3388 844 2259 
z
" transform="scale(0.015625)"/>
       </defs>
       <use xlink:href="#ArialMT-31"/>
       <use xlink:href="#ArialMT-30" x="55.615234"/>
      </g>
     </g>
    </g>
    <g id="xtick_8">
     <g id="line2d_8">
      <defs>
       <path id="m11cda65fd7" d="M 0 0 
L 0 -4 
" style="stroke: #262626"/>
      </defs>
      <g>
       <use xlink:href="#m11cda65fd7" x="71.01125" y="277.248797" style="fill: #262626; stroke: #262626"/>
      </g>
     </g>
    </g>
    <g id="xtick_9">
     <g id="line2d_9">
      <g>
       <use xlink:href="#m11cda65fd7" x="130.53125" y="277.248797" style="fill: #262626; stroke: #262626"/>
      </g>
     </g>
    </g>
    <g id="xtick_10">
     <g id="line2d_10">
      <g>
       <use xlink:href="#m11cda65fd7" x="190.05125" y="277.248797" style="fill: #262626; stroke: #262626"/>
      </g>
     </g>
    </g>
    <g id="xtick_11">
     <g id="line2d_11">
      <g>
       <use xlink:href="#m11cda65fd7" x="249.57125" y="277.248797" style="fill: #262626; stroke: #262626"/>
      </g>
     </g>
    </g>
    <g id="xtick_12">
     <g id="line2d_12">
      <g>
       <use xlink:href="#m11cda65fd7" x="309.09125" y="277.248797" style="fill: #262626; stroke: #262626"/>
      </g>
     </g>
    </g>
    <g id="xtick_13">
     <g id="line2d_13">
      <g>
       <use xlink:href="#m11cda65fd7" x="368.61125" y="277.248797" style="fill: #262626; stroke: #262626"/>
      </g>
     </g>
    </g>
    <g id="text_8">
     <!-- Time -->
     <g style="fill: #262626" transform="translate(206.704062 303.398016) scale(0.12 -0.12)">
      <defs>
       <path id="ArialMT-54" d="M 1659 0 
L 1659 4041 
L 150 4041 
L 150 4581 
L 3781 4581 
L 3781 4041 
L 2266 4041 
L 2266 0 
L 1659 0 
z
" transform="scale(0.015625)"/>
       <path id="ArialMT-69" d="M 425 3934 
L 425 4581 
L 988 4581 
L 988 3934 
L 425 3934 
z
M 425 0 
L 425 3319 
L 988 3319 
L 988 0 
L 425 0 
z
" transform="scale(0.015625)"/>
       <path id="ArialMT-6d" d="M 422 0 
L 422 3319 
L 925 3319 
L 925 2853 
Q 1081 3097 1340 3245 
Q 1600 3394 1931 3394 
Q 2300 3394 2536 3241 
Q 2772 3088 2869 2813 
Q 3263 3394 3894 3394 
Q 4388 3394 4653 3120 
Q 4919 2847 4919 2278 
L 4919 0 
L 4359 0 
L 4359 2091 
Q 4359 2428 4304 2576 
Q 4250 2725 4106 2815 
Q 3963 2906 3769 2906 
Q 3419 2906 3187 2673 
Q 2956 2441 2956 1928 
L 2956 0 
L 2394 0 
L 2394 2156 
Q 2394 2531 2256 2718 
Q 2119 2906 1806 2906 
Q 1569 2906 1367 2781 
Q 1166 2656 1075 2415 
Q 984 2175 984 1722 
L 984 0 
L 422 0 
z
" transform="scale(0.015625)"/>
       <path id="ArialMT-65" d="M 2694 1069 
L 3275 997 
Q 3138 488 2766 206 
Q 2394 -75 1816 -75 
Q 1088 -75 661 373 
Q 234 822 234 1631 
Q 234 2469 665 2931 
Q 1097 3394 1784 3394 
Q 2450 3394 2872 2941 
Q 3294 2488 3294 1666 
Q 3294 1616 3291 1516 
L 816 1516 
Q 847 969 1125 678 
Q 1403 388 1819 388 
Q 2128 388 2347 550 
Q 2566 713 2694 1069 
z
M 847 1978 
L 2700 1978 
Q 2663 2397 2488 2606 
Q 2219 2931 1791 2931 
Q 1403 2931 1139 2672 
Q 875 2413 847 1978 
z
" transform="scale(0.015625)"/>
      </defs>
      <use xlink:href="#ArialMT-54"/>
      <use xlink:href="#ArialMT-69" x="57.333984"/>
      <use xlink:href="#ArialMT-6d" x="79.550781"/>
      <use xlink:href="#ArialMT-65" x="162.851562"/>
     </g>
    </g>
   </g>
   <g id="matplotlib.axis_2">
    <g id="ytick_1">
     <g id="line2d_14">
      <defs>
       <path id="m178fdb5c16" d="M 0 0 
L 6 0 
" style="stroke: #262626; stroke-width: 1.25"/>
      </defs>
      <g>
       <use xlink:href="#m178fdb5c16" x="41.25125" y="277.248797" style="fill: #262626; stroke: #262626; stroke-width: 1.25"/>
      </g>
     </g>
     <g id="text_9">
      <!-- 0.0 -->
      <g style="fill: #262626" transform="translate(22.46125 281.185594) scale(0.11 -0.11)">
       <defs>
        <path id="ArialMT-2e" d="M 581 0 
L 581 641 
L 1222 641 
L 1222 0 
L 581 0 
z
" transform="scale(0.015625)"/>
       </defs>
       <use xlink:href="#ArialMT-30"/>
       <use xlink:href="#ArialMT-2e" x="55.615234"/>
       <use xlink:href="#ArialMT-30" x="83.398438"/>
      </g>
     </g>
    </g>
    <g id="ytick_2">
     <g id="line2d_15">
      <g>
       <use xlink:href="#m178fdb5c16" x="41.25125" y="224.026397" style="fill: #262626; stroke: #262626; stroke-width: 1.25"/>
      </g>
     </g>
     <g id="text_10">
      <!-- 0.2 -->
      <g style="fill: #262626" transform="translate(22.46125 227.963194) scale(0.11 -0.11)">
       <defs>
        <path id="ArialMT-32" d="M 3222 541 
L 3222 0 
L 194 0 
Q 188 203 259 391 
Q 375 700 629 1000 
Q 884 1300 1366 1694 
Q 2113 2306 2375 2664 
Q 2638 3022 2638 3341 
Q 2638 3675 2398 3904 
Q 2159 4134 1775 4134 
Q 1369 4134 1125 3890 
Q 881 3647 878 3216 
L 300 3275 
Q 359 3922 746 4261 
Q 1134 4600 1788 4600 
Q 2447 4600 2831 4234 
Q 3216 3869 3216 3328 
Q 3216 3053 3103 2787 
Q 2991 2522 2730 2228 
Q 2469 1934 1863 1422 
Q 1356 997 1212 845 
Q 1069 694 975 541 
L 3222 541 
z
" transform="scale(0.015625)"/>
       </defs>
       <use xlink:href="#ArialMT-30"/>
       <use xlink:href="#ArialMT-2e" x="55.615234"/>
       <use xlink:href="#ArialMT-32" x="83.398438"/>
      </g>
     </g>
    </g>
    <g id="ytick_3">
     <g id="line2d_16">
      <g>
       <use xlink:href="#m178fdb5c16" x="41.25125" y="170.803997" style="fill: #262626; stroke: #262626; stroke-width: 1.25"/>
      </g>
     </g>
     <g id="text_11">
      <!-- 0.4 -->
      <g style="fill: #262626" transform="translate(22.46125 174.740794) scale(0.11 -0.11)">
       <use xlink:href="#ArialMT-30"/>
       <use xlink:href="#ArialMT-2e" x="55.615234"/>
       <use xlink:href="#ArialMT-34" x="83.398438"/>
      </g>
     </g>
    </g>
    <g id="ytick_4">
     <g id="line2d_17">
      <g>
       <use xlink:href="#m178fdb5c16" x="41.25125" y="117.581597" style="fill: #262626; stroke: #262626; stroke-width: 1.25"/>
      </g>
     </g>
     <g id="text_12">
      <!-- 0.6 -->
      <g style="fill: #262626" transform="translate(22.46125 121.518394) scale(0.11 -0.11)">
       <use xlink:href="#ArialMT-30"/>
       <use xlink:href="#ArialMT-2e" x="55.615234"/>
       <use xlink:href="#ArialMT-36" x="83.398438"/>
      </g>
     </g>
    </g>
    <g id="ytick_5">
     <g id="line2d_18">
      <g>
       <use xlink:href="#m178fdb5c16" x="41.25125" y="64.359197" style="fill: #262626; stroke: #262626; stroke-width: 1.25"/>
      </g>
     </g>
     <g id="text_13">
      <!-- 0.8 -->
      <g style="fill: #262626" transform="translate(22.46125 68.295994) scale(0.11 -0.11)">
       <use xlink:href="#ArialMT-30"/>
       <use xlink:href="#ArialMT-2e" x="55.615234"/>
       <use xlink:href="#ArialMT-38" x="83.398438"/>
      </g>
     </g>
    </g>
    <g id="ytick_6">
     <g id="line2d_19">
      <g>
       <use xlink:href="#m178fdb5c16" x="41.25125" y="11.136797" style="fill: #262626; stroke: #262626; stroke-width: 1.25"/>
      </g>
     </g>
     <g id="text_14">
      <!-- 1.0 -->
      <g style="fill: #262626" transform="translate(22.46125 15.073594) scale(0.11 -0.11)">
       <use xlink:href="#ArialMT-31"/>
       <use xlink:href="#ArialMT-2e" x="55.615234"/>
       <use xlink:href="#ArialMT-30" x="83.398438"/>
      </g>
     </g>
    </g>
    <g id="ytick_7">
     <g id="line2d_20">
      <defs>
       <path id="me1f26a49af" d="M 0 0 
L 4 0 
" style="stroke: #262626"/>
      </defs>
      <g>
       <use xlink:href="#me1f26a49af" x="41.25125" y="250.637597" style="fill: #262626; stroke: #262626"/>
      </g>
     </g>
    </g>
    <g id="ytick_8">
     <g id="line2d_21">
      <g>
       <use xlink:href="#me1f26a49af" x="41.25125" y="197.415197" style="fill: #262626; stroke: #262626"/>
      </g>
     </g>
    </g>
    <g id="ytick_9">
     <g id="line2d_22">
      <g>
       <use xlink:href="#me1f26a49af" x="41.25125" y="144.192797" style="fill: #262626; stroke: #262626"/>
      </g>
     </g>
    </g>
    <g id="ytick_10">
     <g id="line2d_23">
      <g>
       <use xlink:href="#me1f26a49af" x="41.25125" y="90.970397" style="fill: #262626; stroke: #262626"/>
      </g>
     </g>
    </g>
    <g id="ytick_11">
     <g id="line2d_24">
      <g>
       <use xlink:href="#me1f26a49af" x="41.25125" y="37.747997" style="fill: #262626; stroke: #262626"/>
      </g>
     </g>
    </g>
    <g id="text_15">
     <!-- RI (mV) -->
     <g style="fill: #262626" transform="translate(15.935625 164.855297) rotate(-90) scale(0.12 -0.12)">
      <defs>
       <path id="ArialMT-52" d="M 503 0 
L 503 4581 
L 2534 4581 
Q 3147 4581 3465 4457 
Q 3784 4334 3975 4021 
Q 4166 3709 4166 3331 
Q 4166 2844 3850 2509 
Q 3534 2175 2875 2084 
Q 3116 1969 3241 1856 
Q 3506 1613 3744 1247 
L 4541 0 
L 3778 0 
L 3172 953 
Q 2906 1366 2734 1584 
Q 2563 1803 2427 1890 
Q 2291 1978 2150 2013 
Q 2047 2034 1813 2034 
L 1109 2034 
L 1109 0 
L 503 0 
z
M 1109 2559 
L 2413 2559 
Q 2828 2559 3062 2645 
Q 3297 2731 3419 2920 
Q 3541 3109 3541 3331 
Q 3541 3656 3305 3865 
Q 3069 4075 2559 4075 
L 1109 4075 
L 1109 2559 
z
" transform="scale(0.015625)"/>
       <path id="ArialMT-49" d="M 597 0 
L 597 4581 
L 1203 4581 
L 1203 0 
L 597 0 
z
" transform="scale(0.015625)"/>
       <path id="ArialMT-20" transform="scale(0.015625)"/>
       <path id="ArialMT-28" d="M 1497 -1347 
Q 1031 -759 709 28 
Q 388 816 388 1659 
Q 388 2403 628 3084 
Q 909 3875 1497 4659 
L 1900 4659 
Q 1522 4009 1400 3731 
Q 1209 3300 1100 2831 
Q 966 2247 966 1656 
Q 966 153 1900 -1347 
L 1497 -1347 
z
" transform="scale(0.015625)"/>
       <path id="ArialMT-56" d="M 1803 0 
L 28 4581 
L 684 4581 
L 1875 1253 
Q 2019 853 2116 503 
Q 2222 878 2363 1253 
L 3600 4581 
L 4219 4581 
L 2425 0 
L 1803 0 
z
" transform="scale(0.015625)"/>
       <path id="ArialMT-29" d="M 791 -1347 
L 388 -1347 
Q 1322 153 1322 1656 
Q 1322 2244 1188 2822 
Q 1081 3291 891 3722 
Q 769 4003 388 4659 
L 791 4659 
Q 1378 3875 1659 3084 
Q 1900 2403 1900 1659 
Q 1900 816 1576 28 
Q 1253 -759 791 -1347 
z
" transform="scale(0.015625)"/>
      </defs>
      <use xlink:href="#ArialMT-52"/>
      <use xlink:href="#ArialMT-49" x="72.216797"/>
      <use xlink:href="#ArialMT-20" x="100"/>
      <use xlink:href="#ArialMT-28" x="127.783203"/>
      <use xlink:href="#ArialMT-6d" x="161.083984"/>
      <use xlink:href="#ArialMT-56" x="244.384766"/>
      <use xlink:href="#ArialMT-29" x="311.083984"/>
     </g>
    </g>
   </g>
   <g id="PolyCollection_1"/>
   <g id="PolyCollection_2"/>
   <g id="line2d_25">
    <path d="M 41.151852 256.44868 
L 41.350648 257.743629 
L 41.449452 257.824563 
L 41.54885 257.743629 
L 41.84645 257.01522 
L 42.14405 257.177089 
L 42.342252 256.691483 
L 42.44165 256.44868 
L 42.838648 257.986432 
L 42.937452 257.905498 
L 43.235052 256.853352 
L 43.33445 256.691483 
L 43.433848 256.772417 
L 43.63205 257.338957 
L 43.731448 257.258023 
L 43.92965 257.177089 
L 44.22725 257.824563 
L 44.425452 256.853352 
L 44.624248 256.044009 
L 44.723052 256.367746 
L 44.921848 258.148301 
L 45.020652 258.148301 
L 45.318252 256.853352 
L 45.41765 257.01522 
L 45.615852 257.177089 
L 45.814648 256.44868 
L 45.913452 255.963074 
L 46.01285 256.205877 
L 46.409848 258.229235 
L 46.60805 257.500826 
L 46.90565 256.124943 
L 47.005048 256.529614 
L 47.103852 256.367746 
L 47.302648 256.772417 
L 47.600248 257.500826 
L 47.79845 257.338957 
L 48.195448 256.044009 
L 48.294252 256.044009 
L 48.493048 256.529614 
L 48.591852 256.610549 
L 48.790648 256.205877 
L 48.889452 256.044009 
L 48.98885 256.124943 
L 49.187052 256.691483 
L 49.58405 254.910928 
L 49.88165 256.44868 
L 49.981048 256.286811 
L 50.17925 255.639337 
L 50.278648 255.558403 
L 50.47685 256.124943 
L 50.576248 256.044009 
L 50.77445 254.344388 
L 50.873848 254.506257 
L 51.270252 256.853352 
L 51.469048 256.286811 
L 51.766648 255.072797 
L 52.064248 255.3156 
L 52.163052 255.558403 
L 52.361848 255.3156 
L 52.659448 255.88214 
L 52.758252 255.558403 
L 52.957048 254.425322 
L 53.15525 254.263454 
L 53.254648 254.506257 
L 53.45285 255.639337 
L 53.651052 255.396534 
L 53.849848 255.801206 
L 54.04805 256.367746 
L 54.246252 255.558403 
L 54.445048 254.425322 
L 54.841452 256.934286 
L 55.040248 255.963074 
L 55.23845 255.3156 
L 55.436652 254.991863 
L 55.635448 254.910928 
L 55.734252 254.910928 
L 56.13125 256.44868 
L 56.230648 256.367746 
L 56.42885 255.396534 
L 56.627052 254.587191 
L 56.72645 254.587191 
L 56.924652 254.991863 
L 57.123448 255.558403 
L 57.32165 254.991863 
L 57.61925 255.639337 
L 57.718648 255.396534 
L 58.115052 253.049439 
L 58.412652 255.801206 
L 58.51205 255.558403 
L 58.710252 254.829994 
L 58.80965 255.072797 
L 59.007852 254.829994 
L 59.10725 254.910928 
L 59.305452 253.777848 
L 59.40485 253.777848 
L 59.801848 255.477468 
L 60.198252 253.454111 
L 60.29765 253.535045 
L 60.397048 253.535045 
L 60.59525 253.211308 
L 60.793452 253.373176 
L 60.89285 253.211308 
L 60.992248 253.454111 
L 61.091052 254.020651 
L 61.19045 253.939717 
L 61.388652 253.049439 
L 61.587448 252.078228 
L 61.686252 252.240096 
L 61.983852 253.615979 
L 62.182648 253.211308 
L 62.281452 253.292242 
L 62.480248 253.777848 
L 62.579052 253.696914 
L 62.777848 252.563833 
L 62.97605 251.18795 
L 63.373048 253.130374 
L 63.471852 253.049439 
L 63.769452 252.240096 
L 63.968248 252.563833 
L 64.265848 251.268884 
L 64.46405 251.997293 
L 64.76165 253.535045 
L 64.959852 252.563833 
L 65.05925 252.644768 
L 65.35685 252.563833 
L 65.555052 252.240096 
L 65.65445 252.159162 
L 66.150252 253.049439 
L 66.24965 252.887571 
L 66.646648 251.026082 
L 66.84485 252.563833 
L 67.043052 252.078228 
L 67.14245 252.159162 
L 67.241848 252.32103 
L 67.44005 252.968505 
L 67.638252 252.32103 
L 67.837048 250.864213 
L 68.03525 251.997293 
L 68.233452 253.130374 
L 68.33285 252.968505 
L 68.63045 251.916359 
L 68.729848 251.997293 
L 68.828652 251.916359 
L 68.92805 251.997293 
L 69.027448 251.75449 
L 69.126252 251.18795 
L 69.325048 251.673556 
L 69.52325 252.563833 
L 69.622648 252.725702 
L 70.11845 250.297673 
L 70.217848 250.297673 
L 70.515448 251.430753 
L 70.71365 251.026082 
L 71.01125 252.240096 
L 71.110648 252.159162 
L 71.507052 250.62141 
L 71.804652 252.563833 
L 72.20165 251.511687 
L 72.49925 251.673556 
L 72.79685 249.731133 
L 73.193848 252.401965 
L 73.292652 252.240096 
L 73.590252 250.945147 
L 73.887852 250.864213 
L 73.98725 250.459541 
L 74.185452 250.62141 
L 74.58245 251.997293 
L 74.681848 251.835425 
L 74.979448 250.459541 
L 75.17765 249.973936 
L 75.47525 251.268884 
L 75.673452 251.268884 
L 75.872248 251.75449 
L 75.971052 251.997293 
L 76.467448 250.135804 
L 76.765048 252.482899 
L 76.863852 252.401965 
L 77.062648 251.18795 
L 77.161452 251.107016 
L 77.360248 251.592622 
L 77.459052 251.349819 
L 77.657848 249.893001 
L 77.756652 250.135804 
L 78.054252 251.916359 
L 78.15365 252.159162 
L 78.351852 251.511687 
L 78.45125 251.026082 
L 78.74885 251.349819 
L 78.848248 250.945147 
L 79.244652 251.18795 
L 79.542252 252.482899 
L 79.741048 251.511687 
L 80.038648 250.459541 
L 80.336248 251.268884 
L 80.53445 250.864213 
L 80.633848 250.783279 
L 80.931448 251.349819 
L 81.327852 248.678987 
L 81.72485 251.268884 
L 81.824248 251.107016 
L 82.02245 250.135804 
L 82.121848 250.216738 
L 82.32005 250.702344 
L 82.419448 250.540476 
L 82.518252 250.05487 
L 82.717048 250.62141 
L 83.014648 252.563833 
L 83.113452 252.401965 
L 83.411052 250.62141 
L 83.51045 250.62141 
L 84.006252 251.916359 
L 84.205048 251.75449 
L 84.40325 252.159162 
L 84.601452 251.349819 
L 84.800248 250.62141 
L 84.899052 250.62141 
L 84.99845 250.864213 
L 85.196652 252.32103 
L 85.29605 252.240096 
L 85.59365 251.349819 
L 85.693048 251.349819 
L 85.791852 251.511687 
L 85.89125 251.430753 
L 86.18885 249.893001 
L 86.288248 250.135804 
L 86.684652 251.835425 
L 87.08165 249.893001 
L 87.181048 250.05487 
L 87.279852 249.973936 
L 87.478648 249.650198 
L 87.577452 249.812067 
L 87.97445 251.673556 
L 88.172652 251.268884 
L 88.470252 250.216738 
L 88.56965 250.297673 
L 88.966648 251.835425 
L 89.065452 251.835425 
L 89.264248 251.511687 
L 89.363052 251.75449 
L 89.561848 251.268884 
L 89.859448 249.731133 
L 90.255852 251.997293 
L 90.851052 250.945147 
L 91.148652 249.569264 
L 91.54565 251.673556 
L 91.645048 251.673556 
L 91.942648 250.459541 
L 92.041452 250.540476 
L 92.240248 251.107016 
L 92.339052 251.18795 
L 92.43845 251.430753 
L 92.636652 251.18795 
L 92.835448 251.835425 
L 92.934252 252.401965 
L 93.03365 252.159162 
L 93.430648 250.216738 
L 93.529452 250.459541 
L 93.728248 251.75449 
L 94.025848 251.18795 
L 94.323448 251.997293 
L 94.422252 251.835425 
L 94.719852 250.378607 
L 94.81925 250.62141 
L 95.11685 251.997293 
L 95.612652 250.945147 
L 95.71205 251.107016 
L 95.811448 251.026082 
L 95.910252 250.378607 
L 96.00965 250.459541 
L 96.207852 251.349819 
L 96.505452 252.482899 
L 96.803052 250.945147 
L 96.90245 250.378607 
L 97.100652 250.62141 
L 97.299448 251.349819 
L 97.49765 251.107016 
L 97.79525 252.078228 
L 97.894648 252.078228 
L 98.39045 250.135804 
L 98.68805 251.75449 
L 98.787448 251.592622 
L 98.98565 251.349819 
L 99.085048 251.268884 
L 99.183852 251.430753 
L 99.28325 251.268884 
L 99.481452 250.05487 
L 99.58085 249.407395 
L 99.779052 250.378607 
L 100.076652 252.078228 
L 100.17605 251.997293 
L 100.374252 251.268884 
L 100.47365 251.107016 
L 100.671852 251.592622 
L 100.969452 250.378607 
L 101.168248 250.945147 
L 101.36645 252.806636 
L 101.465848 252.806636 
L 101.862252 250.540476 
L 101.96165 250.540476 
L 102.061048 250.864213 
L 102.25925 251.75449 
L 102.457452 252.240096 
L 102.55685 252.078228 
L 102.656248 252.240096 
L 102.85445 252.725702 
L 102.953848 252.482899 
L 103.251448 250.62141 
L 103.647852 252.887571 
L 103.945452 252.078228 
L 104.144248 252.644768 
L 104.243052 252.644768 
L 104.34245 252.32103 
L 104.540652 250.945147 
L 104.93765 253.535045 
L 105.037048 253.373176 
L 105.433452 251.916359 
L 105.53285 251.835425 
L 105.731052 251.430753 
L 105.83045 251.430753 
L 105.929848 251.592622 
L 106.42565 253.292242 
L 106.822648 251.592622 
L 106.921452 251.75449 
L 107.120248 252.968505 
L 107.516652 252.159162 
L 107.715448 252.968505 
L 108.013048 251.673556 
L 108.21125 251.268884 
L 108.50885 252.968505 
L 108.707052 252.887571 
L 108.905848 252.482899 
L 109.004652 252.482899 
L 109.10405 252.725702 
L 109.599852 251.268884 
L 109.897452 252.644768 
L 110.096248 251.75449 
L 110.29445 251.18795 
L 110.492652 251.268884 
L 110.59205 251.349819 
L 110.790252 251.916359 
L 110.88965 251.916359 
L 111.18725 252.482899 
L 111.286648 252.401965 
L 111.584248 251.18795 
L 111.78245 250.540476 
L 112.179448 252.401965 
L 112.37765 251.75449 
L 112.67525 252.725702 
L 112.873452 251.511687 
L 113.072248 250.135804 
L 113.27045 251.18795 
L 113.468652 251.916359 
L 113.86565 250.783279 
L 114.063852 251.268884 
L 114.262648 250.378607 
L 114.361452 250.459541 
L 114.46085 250.702344 
L 114.857848 252.644768 
L 114.956652 252.32103 
L 115.254252 249.973936 
L 115.453048 249.650198 
L 115.65125 250.62141 
L 115.750648 250.702344 
L 115.849452 250.540476 
L 116.24645 251.835425 
L 116.345848 251.430753 
L 116.643448 249.48833 
L 116.742252 249.650198 
L 117.039852 251.673556 
L 117.238648 251.268884 
L 117.43685 251.511687 
L 117.73445 250.702344 
L 117.932652 249.245527 
L 118.03205 249.48833 
L 118.429048 251.592622 
L 118.825452 249.731133 
L 119.024248 249.731133 
L 119.420652 248.92179 
L 119.718252 249.973936 
L 119.81765 249.973936 
L 120.11525 248.598052 
L 120.214648 248.678987 
L 120.41285 249.650198 
L 120.611052 250.459541 
L 120.71045 250.459541 
L 120.908652 249.893001 
L 121.206252 251.026082 
L 121.60325 248.759921 
L 121.702648 249.083658 
L 121.90085 250.540476 
L 122.000248 250.378607 
L 122.297848 249.245527 
L 122.396652 249.164592 
L 122.49605 249.245527 
L 122.595448 249.164592 
L 122.893048 247.303103 
L 122.991852 247.545906 
L 123.289452 248.840855 
L 123.38885 248.840855 
L 123.68645 247.545906 
L 123.884652 247.707775 
L 124.182252 246.979366 
L 124.381048 246.736563 
L 124.479852 246.898432 
L 124.678648 247.869644 
L 124.777452 247.545906 
L 125.17445 244.875074 
L 125.273848 245.036943 
L 125.47205 246.250957 
L 125.869048 245.684417 
L 125.967852 245.684417 
L 126.166648 246.170023 
L 126.36485 245.441614 
L 126.464248 245.036943 
L 126.66245 245.92722 
L 126.860652 247.384038 
L 126.96005 246.979366 
L 127.25765 245.117877 
L 127.357048 245.036943 
L 127.55525 245.198811 
L 127.85285 244.2276 
L 128.15045 245.522549 
L 128.249848 245.92722 
L 128.348652 245.765352 
L 128.646252 244.2276 
L 128.74565 244.308534 
L 128.943852 244.551337 
L 129.142648 244.632271 
L 129.34085 244.308534 
L 129.539052 244.551337 
L 129.63845 244.713206 
L 129.737848 244.470403 
L 130.035448 242.932651 
L 130.134252 242.851717 
L 130.431852 244.632271 
L 130.53125 244.551337 
L 130.82885 243.580125 
L 131.027052 243.741994 
L 131.12645 243.66106 
L 131.324652 242.527979 
L 131.622252 243.822928 
L 131.72165 244.389468 
L 131.821048 244.308534 
L 132.01925 243.741994 
L 132.217452 243.822928 
L 132.416248 243.418257 
L 132.61445 243.175454 
L 132.812652 243.256388 
L 133.110252 244.389468 
L 133.20965 244.389468 
L 133.705452 241.718636 
L 133.80485 241.961439 
L 134.10245 243.741994 
L 134.201848 243.903863 
L 134.300652 243.741994 
L 134.499448 243.903863 
L 134.598252 243.741994 
L 134.69765 243.337322 
L 134.895852 241.880505 
L 134.99525 241.718636 
L 135.392248 244.065731 
L 135.491052 243.903863 
L 135.788652 243.09452 
L 135.987448 243.66106 
L 136.285048 242.851717 
L 136.78085 245.117877 
L 136.979052 244.308534 
L 137.177848 243.175454 
L 137.276652 243.09452 
L 137.574252 243.741994 
L 137.67365 243.741994 
L 138.070648 245.36068 
L 138.368248 243.903863 
L 138.56645 242.689848 
L 138.665848 242.932651 
L 138.86405 244.389468 
L 139.359852 244.308534 
L 139.558648 244.713206 
L 139.657452 244.389468 
L 139.856248 242.851717 
L 139.955052 243.09452 
L 140.252652 245.279746 
L 140.35205 245.117877 
L 140.550252 244.632271 
L 140.749048 244.389468 
L 141.046648 243.903863 
L 141.145452 243.499191 
L 141.344248 243.903863 
L 141.641848 245.846286 
L 141.740652 245.522549 
L 142.13765 243.418257 
L 142.237048 243.418257 
L 142.534648 244.713206 
L 142.633452 244.551337 
L 142.832248 244.79414 
L 142.931052 244.956009 
L 143.03045 245.36068 
L 143.129848 245.117877 
L 143.526252 243.09452 
L 143.823852 244.551337 
L 144.022648 244.389468 
L 144.320248 244.470403 
L 144.419052 244.875074 
L 144.51845 244.79414 
L 144.81605 243.175454 
L 145.213048 245.846286 
L 145.311852 245.765352 
L 145.609452 244.308534 
L 145.808248 244.551337 
L 146.00645 243.903863 
L 146.204652 244.389468 
L 146.30405 244.632271 
L 146.403448 244.551337 
L 146.60165 245.198811 
L 146.701048 245.036943 
L 147.097452 243.175454 
L 147.19685 243.175454 
L 147.692652 244.2276 
L 147.79205 244.308534 
L 147.990252 245.117877 
L 148.08965 244.875074 
L 148.38725 242.932651 
L 148.784248 245.117877 
L 149.081848 244.308534 
L 149.180652 244.2276 
L 149.478252 244.79414 
L 149.677048 243.66106 
L 149.775852 243.741994 
L 150.073452 245.36068 
L 150.17285 245.441614 
L 150.569848 243.822928 
L 150.76805 243.903863 
L 150.867448 243.903863 
L 151.165048 244.551337 
L 151.36325 244.713206 
L 151.561452 245.765352 
L 151.95845 243.741994 
L 152.057848 243.66106 
L 152.355448 245.198811 
L 152.454252 245.117877 
L 152.55365 244.875074 
L 152.751852 245.117877 
L 152.85125 245.117877 
L 152.950648 245.36068 
L 153.049452 245.036943 
L 153.248248 243.337322 
L 153.347052 243.580125 
L 153.644652 246.008155 
L 153.74405 246.331892 
L 154.141048 245.198811 
L 154.33925 245.765352 
L 154.537452 244.956009 
L 155.033848 247.141235 
L 155.23205 246.170023 
L 155.52965 244.551337 
L 155.629048 244.551337 
L 156.025452 245.522549 
L 156.323052 245.846286 
L 156.42245 246.008155 
L 156.521848 245.765352 
L 156.819448 244.389468 
L 156.918252 244.146665 
L 157.31525 245.765352 
L 157.61285 244.956009 
L 157.91045 245.441614 
L 158.108652 244.470403 
L 158.20805 243.984797 
L 158.406252 245.117877 
L 158.605048 246.089089 
L 158.80325 245.441614 
L 159.10085 244.632271 
L 159.299052 245.198811 
L 159.497848 244.713206 
L 159.596652 244.713206 
L 159.795448 245.36068 
L 159.99365 246.574695 
L 160.191852 246.170023 
L 160.390648 245.198811 
L 160.489452 245.198811 
L 160.58885 244.956009 
L 160.688248 245.198811 
L 160.88645 246.089089 
L 161.084652 245.765352 
L 161.283448 246.331892 
L 161.382252 246.250957 
L 161.581048 245.522549 
L 161.878648 243.822928 
L 162.176248 245.846286 
L 162.275052 246.008155 
L 162.572652 245.279746 
L 162.870252 246.008155 
L 163.069048 244.632271 
L 163.167852 244.713206 
L 163.26725 245.117877 
L 163.56485 246.979366 
L 163.763052 245.92722 
L 163.961848 244.875074 
L 164.16005 245.036943 
L 164.358252 244.308534 
L 164.75525 245.441614 
L 164.953452 246.170023 
L 165.152248 245.522549 
L 165.449848 244.632271 
L 165.548652 244.713206 
L 165.747448 245.522549 
L 165.94565 245.117877 
L 166.342648 245.603483 
L 166.739052 243.013585 
L 166.937848 244.713206 
L 167.13605 245.603483 
L 167.533048 244.389468 
L 167.73125 244.79414 
L 167.830648 244.632271 
L 168.02885 243.741994 
L 168.128248 243.741994 
L 168.32645 244.713206 
L 168.524652 245.846286 
L 169.119852 244.2276 
L 169.21925 244.389468 
L 169.417452 244.2276 
L 169.51685 244.146665 
L 169.616248 244.2276 
L 169.913848 245.603483 
L 170.012652 245.441614 
L 170.310252 243.741994 
L 170.40965 243.822928 
L 170.70725 245.765352 
L 171.00485 244.632271 
L 171.104248 244.551337 
L 171.30245 245.522549 
L 171.401848 245.198811 
L 171.60005 243.984797 
L 171.699448 244.065731 
L 171.997048 246.008155 
L 172.095852 245.92722 
L 172.393452 244.389468 
L 172.49285 244.389468 
L 172.889848 243.580125 
L 173.485048 245.603483 
L 173.881452 243.903863 
L 173.98085 244.146665 
L 174.179052 245.279746 
L 174.27845 245.279746 
L 174.476652 244.79414 
L 174.774252 245.441614 
L 174.87365 245.279746 
L 175.270648 243.580125 
L 175.369452 243.903863 
L 175.667052 245.846286 
L 175.865848 245.441614 
L 176.163448 245.603483 
L 176.262252 245.441614 
L 176.461048 243.984797 
L 176.559852 244.065731 
L 177.056248 246.412826 
L 177.452652 244.632271 
L 177.55205 244.713206 
L 177.750252 244.389468 
L 177.949048 244.875074 
L 178.047852 244.956009 
L 178.246648 245.684417 
L 178.345452 246.008155 
L 178.44485 245.846286 
L 178.841848 243.984797 
L 179.04005 244.713206 
L 179.33765 245.522549 
L 179.535852 245.036943 
L 179.833452 246.008155 
L 180.131052 243.499191 
L 180.23045 243.66106 
L 180.52805 245.684417 
L 180.726252 245.765352 
L 180.925048 245.522549 
L 181.12325 246.008155 
L 181.222648 245.846286 
L 181.42085 244.713206 
L 181.619052 245.279746 
L 181.817848 246.331892 
L 181.916652 246.331892 
L 182.413048 244.308534 
L 182.511852 244.470403 
L 182.61125 244.389468 
L 182.809452 244.713206 
L 182.90885 244.632271 
L 183.107052 245.117877 
L 183.305848 246.170023 
L 183.50405 245.765352 
L 183.80165 244.79414 
L 184.09925 246.008155 
L 184.198648 246.170023 
L 184.39685 245.522549 
L 184.496248 245.441614 
L 184.69445 246.008155 
L 184.793848 245.765352 
L 185.091448 244.146665 
L 185.190252 244.551337 
L 185.389048 246.089089 
L 185.487852 246.170023 
L 185.686648 245.765352 
L 185.88485 245.279746 
L 186.083052 245.279746 
L 186.281848 244.065731 
L 186.380652 244.146665 
L 186.579448 244.875074 
L 186.77765 245.765352 
L 186.877048 245.603483 
L 187.273452 243.499191 
L 187.67045 244.632271 
L 187.769848 244.470403 
L 187.96805 244.956009 
L 188.26565 245.765352 
L 188.463852 244.79414 
L 188.662648 244.065731 
L 188.86085 245.279746 
L 189.059052 245.92722 
L 189.15845 245.441614 
L 189.257848 245.522549 
L 189.356652 245.765352 
L 189.45605 245.522549 
L 189.555448 245.603483 
L 189.654252 245.522549 
L 189.951852 244.065731 
L 190.150648 244.956009 
L 190.34885 245.846286 
L 190.547052 245.198811 
L 190.844652 244.065731 
L 190.94405 244.065731 
L 191.043448 244.2276 
L 191.142252 243.984797 
L 191.53925 244.551337 
L 191.737452 245.846286 
L 191.83685 245.684417 
L 192.233848 243.337322 
L 192.43205 243.984797 
L 192.531448 244.470403 
L 192.630252 244.308534 
L 192.829048 243.499191 
L 193.225452 244.065731 
L 193.523052 241.637702 
L 193.62245 241.718636 
L 193.92005 244.2276 
L 194.317048 243.418257 
L 194.415852 243.418257 
L 194.51525 243.741994 
L 194.614648 243.66106 
L 194.912248 242.447045 
L 195.308652 244.713206 
L 195.507448 243.741994 
L 195.805048 242.527979 
L 195.903852 242.689848 
L 196.102648 242.447045 
L 196.201452 242.366111 
L 196.697848 243.499191 
L 197.19365 241.475833 
L 197.293048 241.637702 
L 197.49125 242.932651 
L 197.78885 242.204242 
L 197.888248 242.123308 
L 197.987052 242.204242 
L 198.08645 242.527979 
L 198.284652 241.799571 
L 198.483448 240.423687 
L 198.781048 242.366111 
L 199.078648 242.123308 
L 199.376248 240.909293 
L 199.57445 240.828359 
L 199.772652 240.261819 
L 200.070252 241.556768 
L 200.16965 241.718636 
L 200.269048 241.556768 
L 200.76485 239.209673 
L 200.864248 239.047804 
L 201.06245 239.695279 
L 201.36005 239.53341 
L 201.65765 240.66649 
L 201.855852 239.776213 
L 202.153452 238.562198 
L 202.352248 240.09995 
L 202.451052 240.09995 
L 202.748652 239.290607 
L 202.947448 239.614344 
L 203.046252 239.53341 
L 203.343852 237.429118 
L 203.44325 237.752855 
L 203.840248 239.614344 
L 203.939052 239.290607 
L 204.236652 237.83379 
L 204.33605 237.590987 
L 204.435448 237.752855 
L 204.63365 237.186315 
L 204.733048 237.267249 
L 204.93125 237.105381 
L 205.129452 238.076592 
L 205.22885 237.995658 
L 205.625848 235.972301 
L 205.724652 235.729498 
L 205.82405 236.134169 
L 206.022252 237.186315 
L 206.319852 236.457906 
L 206.518648 237.105381 
L 206.617452 236.862578 
L 206.915052 234.353614 
L 207.01445 233.948943 
L 207.31205 235.648563 
L 207.411448 235.40576 
L 208.006648 234.434549 
L 208.20485 233.1396 
L 208.403052 233.868009 
L 208.700652 235.243892 
L 208.899448 234.029877 
L 209.197048 232.492125 
L 209.494648 232.734928 
L 209.593452 232.977731 
L 209.792248 232.411191 
L 209.891052 232.492125 
L 210.089848 233.625206 
L 210.188652 233.382403 
L 210.486252 231.035308 
L 210.685048 230.14503 
L 210.982648 230.630636 
L 211.379052 229.57849 
L 211.47845 229.740359 
L 211.577848 229.57849 
L 211.77605 228.44541 
L 211.974252 227.555133 
L 212.271852 228.850082 
L 212.867052 227.231395 
L 212.96645 227.150461 
L 213.26405 226.017381 
L 213.363448 225.936447 
L 213.661048 226.988592 
L 214.15685 223.508417 
L 214.256248 223.508417 
L 214.45445 223.913089 
L 214.553848 223.832155 
L 214.851448 222.941877 
L 214.950252 223.265614 
L 215.04965 223.103746 
L 215.247852 221.646928 
L 215.446648 220.109176 
L 215.545452 219.866374 
L 215.843052 221.242257 
L 215.94245 221.242257 
L 216.140652 220.271045 
L 216.24005 220.190111 
L 216.339448 220.432914 
L 216.438252 220.351979 
L 216.83525 217.600213 
L 217.232248 219.299833 
L 217.72805 215.981527 
L 217.827448 215.981527 
L 218.02565 215.010315 
L 218.125048 215.091249 
L 218.32325 215.495921 
L 218.521452 215.495921 
L 218.62085 215.334052 
L 219.21605 211.772943 
L 219.414252 212.501352 
L 219.51365 212.501352 
L 219.613048 212.258549 
L 220.009452 210.558928 
L 220.208248 209.344914 
L 220.40645 207.645293 
L 220.505848 207.483425 
L 220.70405 208.535571 
L 220.803448 208.292768 
L 221.00165 207.40249 
L 221.497452 205.460067 
L 221.795052 203.032038 
L 222.092652 204.650724 
L 222.19205 204.56979 
L 223.08485 200.037468 
L 223.283052 199.794665 
L 223.481848 199.956534 
L 223.580652 199.794665 
L 223.779448 197.771308 
L 224.077048 195.586082 
L 224.27525 196.31449 
L 224.771052 194.533936 
L 224.969848 194.453001 
L 225.366252 191.215629 
L 225.663852 192.024972 
L 225.76325 191.782169 
L 226.160248 189.111337 
L 226.35845 188.544797 
L 226.755448 186.197702 
L 226.854252 186.278636 
L 226.95365 186.521439 
L 227.151852 186.035833 
L 227.747052 181.503512 
L 227.84645 181.503512 
L 228.243448 180.289498 
L 228.342252 180.289498 
L 228.639852 178.670811 
L 229.03685 175.919045 
L 229.136248 176.161848 
L 229.235052 175.999979 
L 229.433848 174.866899 
L 229.63205 173.57195 
L 229.92965 172.357936 
L 230.326648 169.039629 
L 230.624248 169.525235 
L 230.921848 167.17814 
L 231.12005 166.04506 
L 231.318252 165.235717 
L 231.615852 163.05049 
L 231.814648 162.726753 
L 231.913452 162.564884 
L 232.01285 162.160213 
L 232.60805 157.546957 
L 232.806252 157.142286 
L 233.50085 154.147717 
L 233.897848 150.505673 
L 234.09605 150.586607 
L 234.294252 149.615395 
L 234.98885 145.083074 
L 235.187052 142.816914 
L 235.28645 142.897848 
L 235.484652 143.464388 
L 235.58405 143.221585 
L 236.278648 138.203658 
L 236.972652 135.04722 
L 237.469048 130.838636 
L 237.567852 130.757702 
L 237.66725 130.838636 
L 237.766648 130.514899 
L 238.064248 128.410607 
L 238.56005 125.496972 
L 238.758252 123.635483 
L 238.85765 123.473614 
L 239.055852 124.121089 
L 239.15525 123.797352 
L 240.04805 116.513264 
L 240.445048 116.027658 
L 240.742648 113.518695 
L 241.139052 110.524125 
L 241.635448 108.905439 
L 241.83365 108.17703 
L 242.13125 105.263395 
L 242.42885 102.997235 
L 242.528248 103.240038 
L 242.627052 102.997235 
L 243.123448 100.326403 
L 243.222252 100.0836 
L 243.421048 98.060242 
L 243.718648 95.38941 
L 243.817452 95.38941 
L 244.016248 95.794082 
L 244.21445 94.418198 
L 244.909048 89.157468 
L 245.10725 88.590928 
L 245.305452 88.509994 
L 245.504248 87.457848 
L 245.900652 83.653936 
L 246.099448 83.087395 
L 246.29765 82.60179 
L 246.89285 79.445352 
L 247.091052 77.988534 
L 247.289848 75.884242 
L 247.388652 76.046111 
L 247.48805 76.450782 
L 247.587448 76.369848 
L 248.480248 69.814169 
L 248.67845 68.842957 
L 248.876652 68.842957 
L 248.97605 68.600155 
L 249.769452 62.853819 
L 250.067052 60.99233 
L 250.265848 60.668592 
L 250.364652 60.749527 
L 250.46405 60.344855 
L 250.959852 56.86468 
L 251.05925 57.188417 
L 251.158648 57.107483 
L 251.852652 54.679454 
L 252.24965 51.442082 
L 252.447852 52.089556 
L 252.646648 50.632738 
L 252.944248 48.852184 
L 253.241848 47.233498 
L 253.44005 46.100417 
L 253.73765 46.747892 
L 253.837048 46.747892 
L 253.935852 46.505089 
L 254.432248 42.053702 
L 254.729848 41.001556 
L 254.92805 40.51595 
L 255.22565 40.030344 
L 255.325048 39.94941 
L 255.622648 37.440447 
L 255.82085 36.145498 
L 256.019052 37.035775 
L 256.614252 34.931483 
L 256.813048 34.203074 
L 257.110648 31.613176 
L 257.30885 32.017848 
L 257.507052 32.503454 
L 258.003448 29.99449 
L 258.102252 30.075425 
L 258.399852 28.456738 
L 258.598648 28.699541 
L 258.79685 29.023279 
L 258.896248 28.780476 
L 259.39205 25.624038 
L 259.491448 25.704972 
L 259.68965 25.947775 
L 259.887852 25.219366 
L 260.28485 24.490957 
L 260.780652 21.577322 
L 260.979448 22.710403 
L 261.078252 22.710403 
L 261.375852 21.739191 
L 261.47525 21.658257 
L 261.574648 21.739191 
L 261.673452 21.658257 
L 261.971052 19.715833 
L 262.07045 19.877702 
L 262.36805 21.33452 
L 262.863852 18.33995 
L 262.96325 18.501819 
L 263.062648 18.178082 
L 263.26085 17.20687 
L 263.360248 17.125936 
L 263.459052 17.20687 
L 263.756652 18.097147 
L 263.85605 18.097147 
L 264.054252 17.20687 
L 264.253048 16.235658 
L 264.351852 16.154724 
L 264.550648 17.20687 
L 264.649452 17.125936 
L 265.04645 16.397527 
L 265.145848 16.316592 
L 265.542252 13.322023 
L 265.64165 13.483892 
L 265.93925 15.426315 
L 266.038648 15.669118 
L 266.23685 15.021644 
L 266.435052 14.455103 
L 266.53445 14.536038 
L 266.633848 14.212301 
L 266.83205 12.755483 
L 267.327852 14.374169 
L 267.824248 11.94614 
L 267.923052 12.108009 
L 268.121848 12.593614 
L 268.32005 12.350811 
L 268.61765 13.64576 
L 268.717048 13.726695 
L 269.113452 11.3796 
L 269.21285 11.3796 
L 269.312248 11.622403 
L 269.51045 12.674549 
L 269.708652 12.188943 
L 269.80805 12.188943 
L 269.907448 12.027074 
L 270.10565 12.51268 
L 270.205048 12.431746 
L 270.502648 11.136797 
L 270.70085 12.027074 
L 270.899052 13.241089 
L 271.097848 12.755483 
L 271.29605 12.51268 
L 271.395448 12.593614 
L 271.59365 12.108009 
L 271.693048 11.622403 
L 271.791852 11.703337 
L 272.288248 13.969498 
L 272.48645 13.564826 
L 272.78405 12.593614 
L 272.883448 12.674549 
L 273.279852 13.969498 
L 273.37925 13.807629 
L 273.67685 14.940709 
L 273.875052 14.212301 
L 273.97445 14.050432 
L 274.073848 13.483892 
L 274.172652 13.807629 
L 274.371448 15.183512 
L 274.470252 15.345381 
L 274.669048 15.102578 
L 274.767852 14.940709 
L 275.16485 16.07379 
L 275.363052 15.345381 
L 275.859448 17.77341 
L 276.35525 16.721264 
L 276.454648 16.964067 
L 276.553452 16.64033 
L 276.65285 16.721264 
L 276.851052 17.287804 
L 277.24805 19.311162 
L 277.54565 17.854344 
L 277.645048 17.935279 
L 277.84325 19.230228 
L 278.041452 20.201439 
L 278.43845 21.172651 
L 278.636652 21.820125 
L 278.73605 21.820125 
L 279.03365 21.253585 
L 279.430648 24.652826 
L 279.827052 25.704972 
L 280.025848 26.838052 
L 280.124652 26.838052 
L 280.22405 26.676184 
L 280.323448 27.080855 
L 280.81925 31.451308 
L 281.017452 31.532242 
L 281.11685 31.694111 
L 281.513848 34.12214 
L 281.612652 34.284009 
L 282.30725 38.411658 
L 282.406648 38.24979 
L 282.505452 38.411658 
L 282.704248 39.706607 
L 283.001848 42.620242 
L 283.20005 43.348651 
L 283.49765 45.614811 
L 283.597048 46.019483 
L 283.894648 45.77668 
L 284.39045 51.03741 
L 284.489848 51.03741 
L 284.98565 53.303571 
L 285.085048 52.979833 
L 285.183852 53.141702 
L 285.481452 55.7316 
L 285.680248 57.269352 
L 285.779052 57.107483 
L 285.977848 56.055337 
L 286.275448 57.350286 
L 286.671852 60.102052 
L 286.969452 61.316067 
L 287.168248 62.287279 
L 287.267052 62.206344 
L 287.465848 61.639804 
L 287.564652 62.12541 
L 287.862252 65.362782 
L 287.96165 65.443717 
L 288.25925 66.8196 
L 288.55685 68.681089 
L 288.755052 68.51922 
L 288.85445 69.08576 
L 289.251448 73.456213 
L 289.647852 74.427425 
L 290.144248 77.745731 
L 290.64005 83.330198 
L 291.23525 87.295979 
L 291.53285 90.776155 
L 291.83045 92.880447 
L 292.12805 95.95595 
L 292.326252 96.765293 
L 292.42565 97.331833 
L 293.31845 107.529556 
L 294.310648 114.328038 
L 294.409452 114.489906 
L 294.608248 115.380184 
L 295.599852 123.39268 
L 295.798648 123.635483 
L 295.897452 123.554549 
L 295.99685 123.797352 
L 296.59205 129.381819 
L 296.989048 132.052651 
L 297.18725 131.567045 
L 297.286648 131.647979 
L 297.584248 134.723483 
L 297.78245 136.423103 
L 297.881848 136.584972 
L 297.980652 136.423103 
L 298.08005 136.584972 
L 298.477048 138.04179 
L 298.575852 138.122724 
L 299.072248 143.30252 
L 299.171052 143.626257 
L 299.369848 143.30252 
L 299.667448 144.597468 
L 299.766252 145.00214 
L 300.063852 146.944563 
L 300.262648 147.996709 
L 300.560248 149.777264 
L 300.659052 149.858198 
L 300.75845 149.777264 
L 300.956652 150.424738 
L 301.551852 154.795191 
L 301.65125 155.118928 
L 301.94885 156.899483 
L 302.147052 156.737614 
L 302.24645 157.142286 
L 302.742252 161.593673 
L 302.84165 161.431804 
L 303.833848 166.530665 
L 304.131448 168.230286 
L 304.230252 168.149352 
L 304.32965 167.906549 
L 304.429048 168.068417 
L 305.22245 172.519804 
L 305.420652 173.976622 
L 305.619448 174.219425 
L 305.81765 174.057556 
L 306.015852 175.919045 
L 306.313452 177.537731 
L 306.908652 179.480155 
L 307.107448 178.994549 
L 307.30565 180.370432 
L 307.503852 182.312855 
L 307.60325 182.636592 
L 307.90085 182.150987 
L 308.19845 183.122198 
L 308.297848 182.96033 
L 308.49605 184.09341 
L 308.991852 187.168914 
L 309.09125 187.007045 
L 309.289452 185.873965 
L 309.587052 186.764242 
L 309.785848 188.301994 
L 310.083448 188.706665 
L 310.381048 190.244417 
L 310.678648 189.596943 
L 310.777452 189.839746 
L 311.17445 192.996184 
L 311.47205 192.348709 
L 311.76965 193.48179 
L 311.869048 193.400855 
L 311.967852 193.238987 
L 312.06725 193.319921 
L 312.464248 196.476359 
L 312.563052 196.395425 
L 312.761848 196.152622 
L 312.96005 195.909819 
L 313.654648 198.499717 
L 313.85285 199.147191 
L 314.051052 199.470928 
L 314.348652 198.256914 
L 314.44805 198.74252 
L 314.74565 201.57522 
L 314.845048 201.494286 
L 315.04325 201.737089 
L 315.142648 201.898957 
L 315.34085 202.303629 
L 315.63845 201.656155 
L 315.737848 202.060826 
L 316.035448 204.488855 
L 316.134252 204.407921 
L 316.53125 203.436709 
L 316.729452 203.841381 
L 316.928248 203.436709 
L 317.027052 203.517644 
L 317.42405 205.864738 
L 317.523448 205.945673 
L 317.821048 204.974461 
L 318.01925 205.541001 
L 318.31685 206.916884 
L 318.515052 207.078753 
L 318.61445 207.321556 
L 318.91205 208.535571 
L 319.309048 206.755016 
L 319.705452 209.183045 
L 319.80485 209.263979 
L 320.003052 209.102111 
L 320.300652 209.587717 
L 320.40005 209.263979 
L 320.499448 208.535571 
L 320.598252 208.616505 
L 320.797048 210.316125 
L 320.99525 211.53014 
L 321.29285 210.154257 
L 321.392248 210.073322 
L 321.59045 210.477994 
L 321.88805 210.316125 
L 321.987448 210.316125 
L 322.285048 211.692009 
L 322.48325 212.015746 
L 322.880248 210.720797 
L 322.979052 210.801731 
L 323.276652 212.339483 
L 323.37605 212.177614 
L 323.574252 212.339483 
L 323.773048 212.744155 
L 324.169452 210.801731 
L 324.26885 211.206403 
L 324.56645 213.067892 
L 324.665848 213.067892 
L 325.062252 212.09668 
L 325.16165 212.177614 
L 325.261048 211.934811 
L 325.45925 210.9636 
L 325.558648 211.044534 
L 325.856248 212.906023 
L 325.955052 212.825089 
L 326.252652 211.287337 
L 326.35205 211.287337 
L 326.451448 211.125468 
L 326.550252 211.287337 
L 326.749048 211.206403 
L 326.847852 211.287337 
L 327.046648 211.853877 
L 327.145452 211.772943 
L 327.24485 212.015746 
L 327.344248 211.853877 
L 327.740652 209.668651 
L 327.84005 209.506782 
L 328.038252 210.558928 
L 328.13765 210.558928 
L 328.633452 209.425848 
L 328.73285 209.506782 
L 328.832248 209.263979 
L 329.129848 207.483425 
L 329.427448 209.183045 
L 329.526252 209.021176 
L 329.92325 206.916884 
L 330.022648 206.916884 
L 330.22085 206.512213 
L 330.419052 205.621936 
L 330.617848 206.107541 
L 330.716652 206.107541 
L 330.915448 206.674082 
L 331.213048 205.379133 
L 331.41125 205.13633 
L 331.808248 205.379133 
L 332.105848 205.055395 
L 332.204652 205.460067 
L 332.30405 205.379133 
L 332.701048 202.951103 
L 332.799852 202.951103 
L 332.998648 204.56979 
L 333.097452 204.326987 
L 333.296248 203.760447 
L 333.49445 204.165118 
L 333.593848 204.084184 
L 333.692652 203.922315 
L 333.990252 202.303629 
L 334.38725 204.488855 
L 334.486648 204.407921 
L 334.784248 203.436709 
L 334.883052 203.355775 
L 335.081848 203.517644 
L 335.28005 202.870169 
L 335.478252 203.355775 
L 335.775852 204.246052 
L 335.87525 204.084184 
L 336.272248 202.384563 
L 336.371052 202.546432 
L 336.668652 204.488855 
L 336.76805 204.165118 
L 336.867448 204.246052 
L 337.263852 205.541001 
L 337.66085 203.517644 
L 337.95845 205.945673 
L 338.057848 205.864738 
L 338.355448 205.217264 
L 338.55365 205.621936 
L 338.653048 205.541001 
L 338.950648 204.084184 
L 339.347052 206.350344 
L 339.843448 204.731658 
L 339.942252 204.893527 
L 340.04165 204.812592 
L 340.239852 205.055395 
L 340.537452 205.621936 
L 340.63685 206.026607 
L 340.835052 205.783804 
L 341.033848 204.974461 
L 341.132652 204.731658 
L 341.331448 205.055395 
L 341.52965 205.783804 
L 341.82725 205.055395 
L 342.12485 205.541001 
L 342.224248 205.379133 
L 342.521848 203.679512 
L 342.819448 205.621936 
L 342.918252 205.460067 
L 343.31525 204.003249 
L 343.513452 204.084184 
L 343.811052 203.274841 
L 344.009848 204.003249 
L 344.307448 205.298198 
L 344.80325 203.193906 
L 344.902648 203.274841 
L 345.001452 203.517644 
L 345.200248 203.032038 
L 345.39845 203.436709 
L 345.497848 203.922315 
L 345.596652 203.841381 
L 346.093048 201.57522 
L 346.191852 201.494286 
L 346.489452 202.465498 
L 346.787052 201.413352 
L 346.88645 201.413352 
L 347.084652 201.737089 
L 347.18405 201.413352 
L 347.382252 200.280271 
L 347.581048 201.089614 
L 347.77925 202.384563 
L 348.176248 200.037468 
L 348.37445 200.118403 
L 348.870252 198.904388 
L 348.96965 198.985322 
L 349.167852 199.470928 
L 349.366648 198.823454 
L 349.664248 197.366636 
L 349.763052 197.609439 
L 349.961848 198.74252 
L 350.060652 198.661585 
L 350.16005 198.74252 
L 350.259448 198.580651 
L 350.358252 198.74252 
L 350.557048 199.632797 
L 350.854648 198.418782 
L 351.05285 197.528505 
L 351.35045 199.228125 
L 351.449848 199.066257 
L 351.747448 198.256914 
L 351.94565 198.175979 
L 352.045048 198.014111 
L 352.441452 195.909819 
L 352.739052 197.933176 
L 353.334252 195.586082 
L 353.533048 195.586082 
L 353.73125 195.424213 
L 353.929452 195.667016 
L 354.128248 196.233556 
L 354.227052 195.909819 
L 354.62405 193.48179 
L 354.723448 193.319921 
L 354.92165 194.291133 
L 355.119852 193.643658 
L 355.318648 193.158052 
L 355.616248 193.319921 
L 355.715052 192.915249 
L 355.913848 191.458432 
L 356.012652 191.539366 
L 356.310252 193.077118 
L 356.70725 191.458432 
L 356.806648 191.377498 
L 356.905452 191.458432 
L 357.00485 191.134695 
L 357.203052 189.758811 
L 357.30245 189.677877 
L 357.500652 190.730023 
L 357.699448 191.377498 
L 358.095852 189.192271 
L 358.393452 189.35414 
L 358.79045 188.7876 
L 359.08805 189.596943 
L 359.583852 187.897322 
L 359.98085 189.839746 
L 360.179052 189.435074 
L 360.27845 189.596943 
L 360.476652 190.244417 
L 360.774252 189.192271 
L 360.87365 189.273206 
L 361.369452 191.782169 
L 361.568248 191.296563 
L 361.865848 192.105906 
L 361.964652 192.024972 
L 362.06405 191.863103 
L 362.461048 193.886461 
L 362.65925 194.695804 
L 362.95685 193.805527 
L 363.155052 193.48179 
L 363.25445 193.724592 
L 363.55205 194.857673 
L 363.949048 196.071687 
L 364.047852 196.476359 
L 364.345452 195.909819 
L 364.44485 195.505147 
L 364.544248 195.828884 
L 364.74245 197.447571 
L 364.841848 197.528505 
L 364.940652 197.447571 
L 365.04005 197.528505 
L 365.33765 198.499717 
L 365.437048 198.823454 
L 365.734648 197.771308 
L 365.93285 198.985322 
L 366.23045 200.684943 
L 366.428652 200.037468 
L 366.627448 199.389994 
L 366.82565 200.037468 
L 367.023852 199.551863 
L 367.222648 200.037468 
L 367.520248 200.927746 
L 368.01605 199.30906 
L 368.115448 199.228125 
L 368.413048 200.361206 
L 368.710648 199.713731 
L 368.809452 199.8756 
L 368.90885 200.280271 
L 369.107052 200.037468 
L 369.305848 198.74252 
L 369.404652 198.823454 
L 369.50405 199.228125 
L 369.80165 201.170549 
L 370.198648 199.8756 
L 370.297452 199.956534 
L 370.496248 198.904388 
L 370.595052 198.256914 
L 370.892652 199.066257 
L 371.091448 199.470928 
L 371.190252 199.389994 
L 371.487852 197.771308 
L 371.785452 196.961965 
L 372.18245 197.204768 
L 372.380652 197.285702 
L 372.48005 197.609439 
L 372.579448 197.366636 
L 372.877048 195.100476 
L 372.975852 194.61487 
L 373.07525 194.776738 
L 373.273452 196.152622 
L 373.37285 196.071687 
L 373.67045 194.61487 
L 373.868652 194.291133 
L 373.96805 193.886461 
L 374.26565 191.539366 
L 374.463852 192.105906 
L 374.662648 192.591512 
L 375.75365 186.764242 
L 375.951852 187.087979 
L 376.150648 185.631162 
L 376.64645 180.775103 
L 376.94405 179.39922 
L 377.142252 178.104271 
L 377.341048 177.375863 
L 377.638648 174.13849 
L 377.936248 170.739249 
L 378.13445 170.172709 
L 378.233848 169.687103 
L 379.02725 160.136855 
L 379.225452 157.466023 
L 379.523052 156.494811 
L 379.721848 154.228651 
L 380.118252 149.615395 
L 380.713452 143.86906 
L 381.011052 142.250374 
L 381.507448 135.775629 
L 382.00325 133.266665 
L 382.30085 132.619191 
L 382.400248 132.21452 
L 382.796652 129.139016 
L 382.89605 129.462753 
L 383.094252 130.838636 
L 383.293048 130.110228 
L 383.49125 129.543687 
L 383.78885 130.272096 
L 383.987052 129.705556 
L 384.08645 129.78649 
L 384.483448 133.104797 
L 384.582252 133.023863 
L 384.781048 132.861994 
L 384.879852 133.023863 
L 385.475052 136.342169 
L 385.971448 139.74141 
L 386.070252 139.74141 
L 386.367852 140.550753 
L 386.46725 141.036359 
L 386.665452 143.140651 
L 387.06245 144.354665 
L 387.36005 145.811483 
L 387.65765 144.840271 
L 388.153452 148.563249 
L 388.55045 148.077644 
L 388.748652 148.725118 
L 388.947448 147.753906 
L 389.046252 147.996709 
L 389.343852 150.181936 
L 389.44325 150.343804 
L 389.641452 149.210724 
L 389.939052 147.025498 
L 390.236652 147.106432 
L 390.33605 147.187366 
L 390.534252 146.944563 
L 390.63365 146.782695 
L 390.831852 146.863629 
L 391.129452 144.597468 
L 391.328248 142.816914 
L 391.625848 144.030928 
L 392.12165 142.088505 
L 392.221048 142.088505 
L 392.319852 141.845702 
L 392.617452 139.417673 
L 392.71685 139.498607 
L 392.915052 140.631687 
L 393.01445 140.550753 
L 393.807852 136.504038 
L 394.304248 137.475249 
L 394.998252 134.48068 
L 395.197048 134.966286 
L 395.792248 134.966286 
L 396.188652 132.376388 
L 396.387448 133.509468 
L 396.58565 134.561614 
L 396.982648 133.428534 
L 397.18085 134.076009 
L 397.280248 134.156943 
L 397.47845 133.185731 
L 397.577848 133.428534 
L 397.875448 135.209089 
L 398.07365 134.804417 
L 398.271852 134.076009 
L 398.271852 134.076009 
" clip-path="url(#p5d31530b6e)" style="fill: none; stroke: #ceb5d7; stroke-linecap: round"/>
   </g>
   <g id="line2d_26">
    <path d="M 41.151852 277.86953 
L 41.648248 277.467879 
L 41.945848 277.358338 
L 42.044652 277.394852 
L 42.243448 277.686962 
L 42.44165 277.906044 
L 42.541048 277.833016 
L 42.937452 276.847146 
L 43.03685 276.88366 
L 43.433848 277.613934 
L 43.63205 277.467879 
L 43.830252 277.431365 
L 43.92965 277.321824 
L 44.22725 276.482009 
L 44.326648 276.408981 
L 44.723052 277.358338 
L 44.82245 277.248797 
L 44.921848 277.102742 
L 45.219448 277.358338 
L 45.517048 276.774118 
L 45.71525 277.139256 
L 46.01285 277.86953 
L 46.112248 277.796503 
L 46.508652 276.956687 
L 46.707448 277.029715 
L 46.90565 276.920173 
L 47.401452 277.394852 
L 47.50085 277.358338 
L 47.699052 276.847146 
L 47.897848 276.445495 
L 47.996652 276.555036 
L 48.294252 277.285311 
L 48.69125 277.066228 
L 48.790648 277.248797 
L 48.98885 276.810632 
L 49.187052 276.29944 
L 49.385848 276.847146 
L 49.58405 277.358338 
L 49.683448 277.358338 
L 50.079852 276.810632 
L 50.278648 276.920173 
L 50.47685 276.555036 
L 50.972652 277.759989 
L 51.36965 277.212283 
L 51.567852 277.066228 
L 51.66725 276.920173 
L 52.361848 277.467879 
L 52.85765 276.482009 
L 53.15525 277.102742 
L 53.254648 276.993201 
L 53.552248 277.066228 
L 53.75045 277.175769 
L 53.948652 276.920173 
L 54.147448 276.372468 
L 54.64325 277.431365 
L 54.841452 277.321824 
L 55.139052 277.248797 
L 55.436652 276.920173 
L 55.83365 277.613934 
L 55.933048 277.686962 
L 56.329452 276.810632 
L 56.72645 277.066228 
L 56.924652 277.029715 
L 57.32165 277.467879 
L 57.718648 276.555036 
L 57.817452 276.518522 
L 58.115052 276.993201 
L 58.412652 276.847146 
L 58.611448 276.993201 
L 59.007852 276.226413 
L 59.10725 276.335954 
L 59.504248 277.613934 
L 59.603052 277.540907 
L 59.801848 277.175769 
L 60.00005 277.248797 
L 60.198252 277.066228 
L 60.397048 276.993201 
L 60.89285 277.723475 
L 61.19045 276.88366 
L 61.289848 276.774118 
L 61.48805 276.920173 
L 61.587448 276.810632 
L 61.686252 276.88366 
L 61.983852 277.431365 
L 62.182648 277.540907 
L 62.38085 277.212283 
L 62.777848 276.335954 
L 63.075448 276.88366 
L 63.471852 276.372468 
L 63.670648 276.555036 
L 63.86885 276.226413 
L 63.968248 275.934303 
L 64.067052 276.043844 
L 64.46405 277.066228 
L 64.861048 276.518522 
L 65.158648 276.555036 
L 65.35685 276.226413 
L 65.555052 276.774118 
L 65.753848 277.139256 
L 65.852652 277.139256 
L 66.150252 276.701091 
L 66.54725 276.810632 
L 66.84485 277.139256 
L 67.043052 277.175769 
L 67.14245 277.175769 
L 67.340652 276.774118 
L 67.638252 276.043844 
L 67.73765 276.116872 
L 67.935852 276.737605 
L 68.33285 277.029715 
L 68.63045 276.956687 
L 68.92805 276.226413 
L 69.325048 277.066228 
L 69.52325 276.920173 
L 69.82085 276.482009 
L 70.217848 276.262926 
L 70.614252 276.847146 
L 70.71365 276.920173 
L 70.911852 276.445495 
L 71.110648 275.897789 
L 71.408248 276.043844 
L 71.60645 276.445495 
L 71.804652 276.408981 
L 72.102252 276.555036 
L 72.301048 276.372468 
L 72.598648 275.824762 
L 72.896248 276.737605 
L 72.995052 276.664577 
L 73.193848 276.518522 
L 73.491448 276.810632 
L 73.68965 276.335954 
L 73.887852 275.861275 
L 74.086648 276.482009 
L 74.28485 276.920173 
L 74.58245 276.408981 
L 75.078252 275.897789 
L 75.375852 276.408981 
L 75.673452 276.664577 
L 75.872248 276.29944 
L 76.07045 275.824762 
L 76.66565 276.408981 
L 76.863852 276.408981 
L 77.062648 276.59155 
L 77.55845 275.605679 
L 77.85605 276.29944 
L 78.351852 276.043844 
L 78.45125 276.116872 
L 78.550648 276.043844 
L 78.74885 275.423111 
L 78.848248 275.459625 
L 79.145848 276.29944 
L 79.244652 276.262926 
L 79.64165 275.605679 
L 79.93925 275.423111 
L 80.038648 275.31357 
L 80.53445 275.824762 
L 80.633848 275.788248 
L 80.931448 275.277056 
L 81.12965 275.167515 
L 81.824248 275.459625 
L 82.419448 274.510268 
L 82.518252 274.583295 
L 82.815852 275.240542 
L 83.113452 274.948432 
L 83.411052 275.057974 
L 83.708652 274.43724 
L 83.907448 274.838891 
L 84.10565 275.350083 
L 84.205048 275.277056 
L 84.502648 274.546782 
L 84.800248 274.473754 
L 84.99845 274.181644 
L 85.097848 274.145131 
L 85.29605 274.510268 
L 85.494252 275.02146 
L 85.791852 274.619809 
L 85.990648 274.254672 
L 86.18885 274.400727 
L 86.684652 274.802378 
L 86.982252 274.911919 
L 87.37925 273.524397 
L 87.67685 274.400727 
L 87.875052 274.327699 
L 88.172652 274.072103 
L 88.27205 274.145131 
L 88.669048 273.779993 
L 88.86725 274.254672 
L 89.065452 274.72935 
L 89.363052 274.400727 
L 89.76005 274.108617 
L 90.157048 274.035589 
L 90.454648 274.364213 
L 90.553452 274.218158 
L 90.95045 273.560911 
L 91.049848 273.633938 
L 91.24805 273.999076 
L 91.645048 273.816507 
L 91.942648 273.962562 
L 92.240248 273.524397 
L 92.43845 273.706966 
L 92.636652 274.035589 
L 92.835448 273.889535 
L 92.934252 273.962562 
L 93.33125 273.560911 
L 93.529452 273.013205 
L 93.62885 273.049719 
L 94.124652 274.108617 
L 94.22405 274.145131 
L 94.719852 273.305315 
L 94.81925 273.15926 
L 95.41445 273.926048 
L 96.00965 273.268801 
L 96.207852 273.597425 
L 96.704248 273.670452 
L 96.803052 273.74348 
L 97.001848 273.378342 
L 97.20005 272.940178 
L 97.597048 273.706966 
L 97.993452 273.74348 
L 98.192248 273.816507 
L 98.489848 272.940178 
L 98.588652 273.049719 
L 98.787448 273.414856 
L 98.98565 273.597425 
L 99.183852 273.15926 
L 99.28325 273.15926 
L 99.481452 272.903664 
L 99.58085 273.013205 
L 99.87845 272.794123 
L 100.374252 273.45137 
L 100.47365 273.305315 
L 100.77125 272.86715 
L 100.969452 272.86715 
L 101.168248 273.122746 
L 101.465848 273.049719 
L 101.763448 273.341829 
L 102.159852 272.502013 
L 102.457452 273.45137 
L 102.55685 273.378342 
L 102.85445 273.086233 
L 103.052652 273.013205 
L 103.15205 273.013205 
L 103.44965 272.538527 
L 103.945452 273.524397 
L 104.441848 272.648068 
L 104.838252 272.830637 
L 105.037048 272.903664 
L 105.23525 273.232288 
L 105.334648 273.195774 
L 105.731052 272.392472 
L 105.83045 272.355958 
L 106.12805 273.122746 
L 106.326252 273.013205 
L 106.525048 272.721095 
L 106.72325 272.940178 
L 107.120248 272.209903 
L 107.417848 273.013205 
L 107.61605 272.830637 
L 107.814252 272.721095 
L 108.111852 272.794123 
L 108.310648 272.319445 
L 108.409452 272.465499 
L 108.80645 273.122746 
L 109.302252 272.17339 
L 109.501048 272.282931 
L 109.897452 272.246417 
L 110.29445 272.428986 
L 110.492652 272.246417 
L 110.790252 271.917794 
L 110.989048 272.428986 
L 111.18725 272.538527 
L 111.385452 272.319445 
L 111.584248 272.392472 
L 112.08005 271.771739 
L 112.179448 271.990821 
L 112.37765 272.684582 
L 112.67525 272.502013 
L 112.873452 272.063848 
L 113.072248 272.209903 
L 113.27045 271.58917 
L 113.468652 271.735225 
L 113.766252 272.319445 
L 113.965048 271.990821 
L 114.16325 271.58917 
L 114.361452 271.58917 
L 114.659052 271.844766 
L 114.956652 272.063848 
L 115.155448 272.319445 
L 115.65125 271.260547 
L 115.750648 271.370088 
L 115.94885 271.917794 
L 116.048248 271.808252 
L 116.24645 271.917794 
L 116.444652 271.917794 
L 116.54405 271.990821 
L 116.742252 271.406601 
L 116.941048 270.676327 
L 117.337452 271.662198 
L 117.536248 271.479629 
L 117.833848 271.004951 
L 118.03205 270.822382 
L 118.230252 270.6033 
L 118.527852 271.224033 
L 118.62725 271.516143 
L 118.726648 271.479629 
L 119.123052 270.785868 
L 119.22245 270.749355 
L 119.619448 271.041464 
L 120.015852 270.968437 
L 120.214648 271.077978 
L 120.611052 270.347704 
L 120.809848 271.041464 
L 121.00805 270.895409 
L 121.206252 270.712841 
L 121.30565 270.749355 
L 121.503852 271.041464 
L 121.702648 270.639813 
L 121.90085 270.055594 
L 122.297848 271.004951 
L 122.396652 270.931923 
L 122.694252 270.165135 
L 123.09125 270.055594 
L 123.289452 270.31119 
L 123.68645 270.822382 
L 123.884652 270.493758 
L 124.182252 269.946053 
L 124.28165 269.909539 
L 124.678648 270.31119 
L 125.075052 270.420731 
L 125.273848 269.763484 
L 125.571448 269.106237 
L 125.869048 269.909539 
L 126.166648 269.580915 
L 126.464248 269.544402 
L 126.66245 269.142751 
L 126.761848 268.850641 
L 126.860652 268.960182 
L 127.158252 269.690457 
L 127.25765 269.799998 
L 127.654648 269.03321 
L 127.85285 268.887155 
L 128.051052 268.595045 
L 128.547448 269.507888 
L 129.04325 268.814127 
L 129.539052 269.179264 
L 129.836652 269.069723 
L 130.035448 269.069723 
L 130.431852 268.412476 
L 130.53125 268.558531 
L 130.82885 269.434861 
L 131.324652 268.960182 
L 131.523448 268.558531 
L 131.72165 268.047339 
L 131.919852 268.15688 
L 132.118648 268.558531 
L 132.416248 268.339449 
L 133.011448 268.010825 
L 133.20965 268.339449 
L 133.50725 268.704586 
L 134.10245 267.755229 
L 134.300652 268.120367 
L 134.40005 268.302935 
L 134.69765 268.15688 
L 134.895852 268.375963 
L 134.99525 268.266421 
L 135.29285 267.46312 
L 135.392248 267.390092 
L 135.689848 267.937798 
L 136.18565 267.645688 
L 136.285048 267.718716 
L 136.383852 267.645688 
L 136.681452 266.8789 
L 136.78085 266.951928 
L 136.979052 267.426606 
L 137.177848 267.609174 
L 137.773048 267.097982 
L 137.871852 266.915414 
L 138.368248 267.645688 
L 138.467052 267.755229 
L 138.665848 267.426606 
L 138.963448 266.842386 
L 139.062252 266.8789 
L 139.359852 267.207524 
L 139.558648 267.17101 
L 139.856248 267.499633 
L 140.153848 266.769359 
L 140.35205 266.440735 
L 140.847852 267.353578 
L 141.046648 267.17101 
L 141.344248 267.280551 
L 141.641848 266.550277 
L 141.84005 267.024955 
L 142.038252 267.280551 
L 142.13765 267.353578 
L 142.534648 266.842386 
L 142.633452 266.915414 
L 142.73285 266.842386 
L 142.931052 266.58679 
L 143.427448 267.280551 
L 143.62565 266.915414 
L 143.823852 266.513763 
L 144.022648 266.477249 
L 144.320248 266.951928 
L 144.617848 267.097982 
L 144.81605 267.390092 
L 144.915448 267.317065 
L 145.213048 266.513763 
L 145.311852 266.550277 
L 145.70885 267.572661 
L 146.105848 266.915414 
L 146.204652 266.915414 
L 146.502252 266.148626 
L 146.701048 266.659818 
L 146.89925 267.280551 
L 147.097452 267.17101 
L 147.692652 266.623304 
L 148.08965 266.769359 
L 148.38725 267.244037 
L 148.68485 266.805873 
L 148.98245 266.915414 
L 149.180652 267.499633 
L 149.57765 267.317065 
L 149.775852 267.499633 
L 149.974648 267.207524 
L 150.17285 266.842386 
L 150.569848 267.864771 
L 150.867448 267.572661 
L 151.06565 267.609174 
L 151.36325 267.097982 
L 151.561452 267.280551 
L 151.760248 267.718716 
L 151.95845 268.083853 
L 152.057848 268.083853 
L 152.25605 267.864771 
L 152.355448 267.864771 
L 152.55365 267.718716 
L 152.751852 267.718716 
L 153.049452 268.010825 
L 153.347052 268.412476 
L 153.843448 267.755229 
L 154.04165 268.047339 
L 154.239852 268.193394 
L 154.438648 268.44899 
L 154.537452 268.412476 
L 154.736248 268.631559 
L 154.93445 268.193394 
L 155.132652 267.864771 
L 155.430252 268.595045 
L 155.52965 268.668072 
L 155.82725 268.302935 
L 156.025452 268.558531 
L 156.12485 268.558531 
L 156.323052 268.229908 
L 156.918252 269.288806 
L 157.215852 268.7411 
L 157.513452 268.814127 
L 157.91045 269.215778 
L 158.009848 269.142751 
L 158.307448 269.325319 
L 158.605048 268.7411 
L 158.703852 268.668072 
L 158.80325 268.7411 
L 159.10085 269.617429 
L 159.299052 269.361833 
L 159.69605 269.617429 
L 159.99365 269.03321 
L 160.191852 269.544402 
L 160.489452 270.165135 
L 160.787052 269.799998 
L 161.084652 269.799998 
L 161.283448 269.361833 
L 161.581048 269.799998 
L 161.77925 270.31119 
L 161.977452 270.092108 
L 162.176248 269.836511 
L 162.37445 269.836511 
L 162.473848 269.873025 
L 162.67205 269.799998 
L 163.26725 270.530272 
L 163.56485 269.799998 
L 163.664248 269.909539 
L 164.060652 270.712841 
L 164.358252 270.785868 
L 164.557048 271.004951 
L 164.655852 270.822382 
L 164.953452 269.653943 
L 165.05285 269.763484 
L 165.35045 270.639813 
L 166.143852 270.238162 
L 166.24325 270.165135 
L 166.640248 270.822382 
L 166.83845 270.895409 
L 167.13605 270.6033 
L 167.533048 270.639813 
L 167.830648 270.493758 
L 168.02885 270.6033 
L 168.128248 270.676327 
L 168.524652 269.799998 
L 168.62405 269.873025 
L 168.92165 270.785868 
L 169.021048 270.676327 
L 169.318648 270.530272 
L 169.51685 270.530272 
L 169.715052 270.165135 
L 169.913848 269.617429 
L 170.310252 270.530272 
L 170.70725 269.982566 
L 171.00485 270.092108 
L 171.203052 269.763484 
L 171.500652 270.201649 
L 171.699448 270.31119 
L 172.095852 269.398347 
L 172.294648 269.398347 
L 172.393452 269.471374 
L 172.49285 269.690457 
L 172.79045 269.471374 
L 172.988652 269.836511 
L 173.08805 269.836511 
L 173.38565 269.252292 
L 173.583852 269.106237 
L 173.881452 269.544402 
L 174.377848 269.142751 
L 174.57605 269.069723 
L 174.87365 268.375963 
L 175.17125 269.106237 
L 175.270648 269.106237 
L 175.568248 268.558531 
L 176.06405 268.083853 
L 176.36165 268.44899 
L 176.559852 268.668072 
L 176.65925 268.558531 
L 177.056248 267.280551 
L 177.155052 267.244037 
L 177.25445 267.061469 
L 177.651448 267.317065 
L 177.84965 267.17101 
L 178.047852 267.353578 
L 178.544248 266.075598 
L 178.841848 266.951928 
L 178.940652 266.8789 
L 179.139448 266.550277 
L 179.437048 266.440735 
L 179.734648 265.564406 
L 179.833452 265.673947 
L 180.131052 266.550277 
L 180.82565 265.381837 
L 181.023852 264.943673 
L 181.520248 265.564406 
L 182.115448 264.432481 
L 182.31365 264.32294 
L 182.511852 264.140371 
L 182.710648 263.848261 
L 182.809452 263.994316 
L 183.008248 263.629179 
L 183.404652 262.059089 
L 183.80165 262.862391 
L 183.901048 262.75285 
L 184.297452 262.241657 
L 184.39685 262.132116 
L 184.69445 261.109732 
L 185.091448 261.730465 
L 185.190252 261.58441 
L 185.487852 260.781109 
L 185.88485 260.087348 
L 186.083052 260.196889 
L 186.380652 260.196889 
L 186.579448 260.087348 
L 187.07525 259.101477 
L 187.472248 258.991936 
L 187.67045 258.663313 
L 187.868652 258.663313 
L 188.067448 258.079093 
L 188.26565 257.45836 
L 188.365048 257.421846 
L 188.56325 257.786983 
L 188.761452 257.421846 
L 189.059052 256.983682 
L 189.257848 256.910654 
L 189.555448 256.034325 
L 189.654252 256.070839 
L 190.05125 255.961297 
L 190.547052 254.792858 
L 190.64645 254.756345 
L 190.844652 254.537262 
L 191.043448 254.537262 
L 191.341048 253.989556 
L 191.439852 254.062584 
L 191.53925 253.953043 
L 191.936248 252.821117 
L 192.035052 252.857631 
L 192.233848 253.076713 
L 192.332652 253.113227 
L 192.531448 252.675063 
L 192.72965 252.45598 
L 192.927852 251.981302 
L 193.32485 250.812863 
L 193.523052 251.287541 
L 193.62245 251.251027 
L 194.019448 250.484239 
L 194.21765 250.557267 
L 194.713452 249.680937 
L 194.912248 249.863506 
L 195.11045 249.388828 
L 195.40805 248.256902 
L 195.606252 248.03782 
L 195.70565 247.709196 
L 195.805048 247.74571 
L 195.903852 247.818738 
L 196.499052 247.271032 
L 196.995448 245.627914 
L 197.19365 245.700942 
L 197.391852 245.627914 
L 197.689452 245.299291 
L 197.987052 244.240393 
L 198.185848 243.656173 
L 198.284652 243.583146 
L 198.483448 243.984797 
L 198.582252 243.911769 
L 199.27685 242.524248 
L 199.475052 241.940028 
L 199.673848 241.976542 
L 199.87205 242.122597 
L 199.971448 241.940028 
L 200.367852 240.369938 
L 201.06245 239.493609 
L 201.161848 239.493609 
L 201.36005 239.091958 
L 201.558252 238.434711 
L 201.855852 237.266272 
L 201.95525 237.302786 
L 202.054648 237.485355 
L 202.352248 237.010676 
L 203.14565 234.746825 
L 203.44325 235.075449 
L 203.641452 234.491229 
L 203.939052 233.541873 
L 204.137848 233.286277 
L 204.435448 232.04481 
L 204.733048 232.300406 
L 204.831852 232.154351 
L 205.52645 229.927014 
L 206.41925 227.845732 
L 206.71685 226.567752 
L 206.915052 226.275642 
L 207.01445 226.458211 
L 207.113848 226.312156 
L 207.510252 225.107203 
L 207.709048 224.924634 
L 208.105452 223.135462 
L 208.403052 222.989407 
L 208.700652 221.857482 
L 209.295852 219.630145 
L 209.593452 219.19198 
L 209.891052 218.607761 
L 210.58565 215.613636 
L 210.88325 215.06593 
L 211.379052 213.568867 
L 211.77605 212.035291 
L 211.974252 211.852722 
L 212.173048 211.122448 
L 213.065848 207.069425 
L 213.26405 207.069425 
L 213.462252 206.485205 
L 214.256248 203.162457 
L 214.45445 202.943374 
L 214.75205 202.249614 
L 215.64485 197.831453 
L 215.744248 197.721912 
L 216.140652 196.188336 
L 216.735852 193.340266 
L 216.934648 193.048156 
L 219.414252 181.582847 
L 219.81125 179.976244 
L 220.307052 177.201201 
L 220.604652 176.105789 
L 221.00165 174.353131 
L 221.199852 173.294233 
L 221.59685 170.409649 
L 221.795052 170.22708 
L 221.993848 169.423778 
L 222.886648 163.910206 
L 223.184248 163.435528 
L 223.878252 159.382505 
L 224.27525 157.009113 
L 224.672248 155.365996 
L 225.16805 152.225816 
L 225.565048 150.290588 
L 225.862648 148.939581 
L 226.06085 147.95371 
L 226.65605 144.046742 
L 226.854252 143.24344 
L 228.044652 136.488402 
L 228.243448 135.539045 
L 228.937452 130.755747 
L 229.33445 128.674465 
L 229.731448 126.26456 
L 230.22725 123.160893 
L 230.425452 122.321078 
L 231.219448 117.172643 
L 231.517048 115.346957 
L 231.71525 114.908792 
L 231.913452 113.995949 
L 232.508652 109.723844 
L 232.806252 107.752103 
L 233.005048 107.240911 
L 235.782252 90.481113 
L 235.981048 89.385701 
L 236.377452 86.42809 
L 236.972652 83.433965 
L 237.66725 78.906263 
L 238.064248 77.482228 
L 238.957048 71.567005 
L 241.040248 60.393807 
L 241.337848 58.45858 
L 241.635448 57.691791 
L 242.13125 54.989776 
L 242.825848 51.411431 
L 243.123448 50.02391 
L 243.817452 46.336024 
L 244.611448 43.013275 
L 245.007852 40.566856 
L 245.206648 40.31126 
L 245.504248 38.960252 
L 246.099448 35.8931 
L 246.29765 34.980257 
L 246.495852 35.126312 
L 246.694648 34.542092 
L 247.091052 32.898975 
L 247.388652 31.547967 
L 247.587448 30.781179 
L 247.885048 30.452555 
L 248.67845 27.275862 
L 249.373048 25.450176 
L 249.769452 23.697517 
L 249.968248 23.149811 
L 250.16645 23.04027 
L 250.563448 22.0544 
L 250.662252 21.981372 
L 250.959852 20.776419 
L 251.158648 19.936604 
L 251.257452 19.936604 
L 251.456248 20.155686 
L 252.447852 16.869451 
L 252.646648 16.796424 
L 252.84485 16.978992 
L 253.043052 16.431286 
L 253.241848 15.701012 
L 253.340652 15.627985 
L 253.935852 14.569087 
L 254.33285 14.386518 
L 254.828652 13.108538 
L 255.22565 13.510189 
L 255.423852 13.364134 
L 255.52325 13.364134 
L 255.622648 13.546702 
L 255.82085 12.925969 
L 256.11845 12.159181 
L 256.316652 12.487805 
L 256.41605 12.451291 
L 256.71365 11.903585 
L 256.911852 11.794044 
L 257.110648 11.940099 
L 257.30885 11.538448 
L 257.60645 11.867071 
L 257.804652 12.159181 
L 258.20165 11.319365 
L 258.79685 11.428907 
L 259.09445 11.684503 
L 259.292652 11.903585 
L 259.68965 11.136797 
L 259.789048 11.246338 
L 259.98725 12.04964 
L 260.681848 11.940099 
L 260.88005 11.538448 
L 260.979448 11.538448 
L 261.47525 13.181565 
L 261.673452 12.889455 
L 262.07045 13.108538 
L 262.169848 13.072024 
L 262.268652 13.181565 
L 262.66565 14.678628 
L 262.863852 15.007251 
L 263.161452 14.824683 
L 263.360248 15.116792 
L 264.253048 17.161561 
L 264.351852 17.05202 
L 264.550648 17.198075 
L 264.74885 17.891835 
L 265.04645 19.023761 
L 265.64165 20.812933 
L 265.839852 20.703392 
L 265.93925 20.958988 
L 266.336248 22.821188 
L 266.53445 23.222839 
L 266.633848 23.259352 
L 266.83205 23.734031 
L 267.030252 24.172195 
L 267.12965 24.172195 
L 267.327852 24.90247 
L 267.72485 26.545587 
L 268.02245 26.983752 
L 268.419448 28.152191 
L 269.312248 31.949618 
L 269.51045 32.497324 
L 269.708652 33.73879 
L 270.40325 38.339519 
L 270.99845 42.063919 
L 271.395448 45.31364 
L 271.791852 48.380792 
L 274.966648 74.488103 
L 275.958252 80.476353 
L 276.255852 82.776718 
L 276.95045 86.209008 
L 277.84325 92.343313 
L 278.240248 95.154869 
L 279.03365 102.348072 
L 279.33125 104.2833 
L 279.529452 106.620178 
L 280.025848 112.498887 
L 282.00965 134.808771 
L 282.704248 142.768762 
L 283.100652 146.566189 
L 284.09285 156.242325 
L 286.77125 175.156432 
L 286.969452 176.251844 
L 287.66405 180.852573 
L 287.96165 182.057526 
L 288.953848 188.77605 
L 289.350252 190.674764 
L 289.846648 194.07054 
L 290.838252 200.496955 
L 291.135852 202.541723 
L 291.433452 203.746676 
L 292.525048 210.246118 
L 292.822648 210.903365 
L 293.120248 212.582997 
L 293.715448 215.467581 
L 294.310648 217.293267 
L 294.707052 219.447576 
L 294.905848 219.922255 
L 295.302252 221.419317 
L 295.501048 221.857482 
L 296.29445 224.742066 
L 296.393848 224.888121 
L 297.385452 228.174356 
L 297.78245 228.90463 
L 297.980652 229.671418 
L 298.278252 231.131967 
L 298.97285 232.921139 
L 299.072248 232.994167 
L 299.27045 233.687928 
L 299.56805 235.331045 
L 300.16325 236.864621 
L 300.361452 236.682053 
L 300.560248 237.521868 
L 300.956652 239.347554 
L 301.453048 240.260397 
L 301.94885 241.428836 
L 302.345848 242.925899 
L 302.643448 242.816358 
L 302.84165 243.254522 
L 303.13925 244.240393 
L 303.73445 245.481859 
L 303.932652 245.591401 
L 304.03205 245.554887 
L 304.527852 247.271032 
L 304.726648 247.380573 
L 305.123052 247.928279 
L 305.321848 247.563142 
L 305.52005 248.256902 
L 305.81765 249.388828 
L 305.917048 249.461855 
L 306.11525 249.388828 
L 306.512248 249.717451 
L 307.00805 250.812863 
L 307.405048 250.812863 
L 307.60325 250.666808 
L 307.702648 250.666808 
L 308.099052 251.506623 
L 308.49605 252.017816 
L 308.694252 252.419466 
L 308.79365 252.346439 
L 308.991852 251.871761 
L 309.09125 252.017816 
L 309.289452 252.857631 
L 309.38885 252.821117 
L 309.587052 252.565521 
L 309.785848 252.602035 
L 310.083448 252.894145 
L 310.28165 252.565521 
L 310.777452 253.697447 
L 311.273848 253.076713 
L 311.571448 252.967172 
L 311.967852 253.587906 
L 312.06725 253.770474 
L 312.563052 253.113227 
L 312.66245 253.222768 
L 313.059448 253.989556 
L 313.357048 253.916529 
L 313.55525 254.208639 
L 313.952248 253.332309 
L 314.249848 254.573776 
L 314.348652 254.537262 
L 314.646252 254.245153 
L 314.943852 254.31818 
L 315.04325 254.208639 
L 315.241452 253.880015 
L 315.440248 254.208639 
L 315.737848 254.9024 
L 316.333048 254.099098 
L 316.928248 254.427721 
L 317.027052 254.573776 
L 317.12645 254.464235 
L 317.523448 253.478364 
L 317.622252 253.551392 
L 317.919852 254.427721 
L 318.118648 254.537262 
L 318.217452 254.464235 
L 318.515052 254.683317 
L 318.91205 253.880015 
L 319.20965 254.683317 
L 319.80485 253.989556 
L 320.003052 253.843502 
L 320.10245 253.660933 
L 320.598252 254.537262 
L 320.69765 254.464235 
L 321.094648 253.660933 
L 321.29285 253.697447 
L 321.88805 254.464235 
L 322.086252 254.500749 
L 322.285048 253.989556 
L 322.48325 253.405337 
L 322.979052 254.172125 
L 323.475448 254.245153 
L 323.67365 253.953043 
L 323.871852 253.73396 
L 324.169452 254.500749 
L 324.467052 254.172125 
L 324.665848 253.989556 
L 324.86405 253.916529 
L 325.062252 253.660933 
L 325.558648 254.354694 
L 325.657452 254.172125 
L 325.955052 253.478364 
L 326.05445 253.441851 
L 326.451448 253.73396 
L 326.94725 253.916529 
L 327.443052 252.894145 
L 327.84005 253.880015 
L 328.13765 253.587906 
L 328.43525 253.806988 
L 328.73285 253.368823 
L 328.931052 253.880015 
L 329.129848 254.208639 
L 329.823852 253.368823 
L 329.92325 253.0402 
L 330.022648 253.076713 
L 330.320248 253.514878 
L 330.51845 253.880015 
L 330.617848 253.806988 
L 331.014252 252.894145 
L 331.213048 253.368823 
L 331.41125 253.806988 
L 331.808248 253.916529 
L 332.00645 253.770474 
L 332.30405 253.076713 
L 332.502252 253.405337 
L 332.701048 254.135611 
L 333.097452 254.099098 
L 333.49445 254.02607 
L 333.692652 253.880015 
L 333.990252 254.865886 
L 334.08965 254.829372 
L 334.38725 254.391207 
L 334.585452 254.464235 
L 334.883052 254.391207 
L 335.081848 254.537262 
L 335.379448 255.121482 
L 335.478252 255.121482 
L 335.87525 254.537262 
L 335.974648 254.573776 
L 336.47045 255.267537 
L 336.76805 255.450105 
L 336.966252 255.59616 
L 337.263852 254.938913 
L 337.36325 255.084968 
L 337.561452 255.851756 
L 338.057848 255.924784 
L 338.25605 256.253407 
L 338.454252 255.997811 
L 338.55365 255.669188 
L 338.751852 255.961297 
L 339.049452 256.837627 
L 339.347052 256.691572 
L 339.644652 256.983682 
L 339.843448 256.910654 
L 340.141048 257.385333 
L 340.33925 257.786983 
L 340.537452 257.640929 
L 340.835052 257.202764 
L 341.033848 257.239278 
L 341.331448 257.75047 
L 341.629048 257.933038 
L 341.82725 258.152121 
L 342.224248 257.75047 
L 342.72005 258.73634 
L 342.918252 258.553772 
L 343.117048 258.626799 
L 343.31525 258.73634 
L 343.513452 258.334689 
L 344.009848 259.649183 
L 344.406252 259.247532 
L 344.605048 259.32056 
L 344.80325 259.211019 
L 345.001452 259.466615 
L 345.10085 259.576156 
L 345.299052 260.123862 
L 345.39845 260.160375 
L 345.596652 259.941293 
L 345.894252 259.685697 
L 346.29125 260.269917 
L 346.489452 260.269917 
L 346.787052 260.59854 
L 347.18405 259.685697 
L 347.679852 260.415971 
L 347.977452 260.59854 
L 348.176248 260.452485 
L 348.37445 259.904779 
L 348.473848 260.01432 
L 348.771448 260.635054 
L 348.870252 260.781109 
L 349.167852 260.452485 
L 349.26725 260.342944 
L 349.465452 260.525513 
L 349.664248 260.379458 
L 349.961848 260.89065 
L 350.259448 260.963677 
L 350.358252 261.073218 
L 350.557048 260.89065 
L 350.854648 260.562026 
L 351.152248 261.18276 
L 351.35045 261.401842 
L 351.449848 261.328814 
L 351.64805 261.547897 
L 352.045048 260.963677 
L 352.143852 260.927164 
L 352.441452 261.657438 
L 352.54085 261.58441 
L 352.739052 261.401842 
L 352.83845 261.474869 
L 353.036652 261.87652 
L 353.13605 261.913034 
L 353.334252 261.474869 
L 353.830648 262.570281 
L 353.929452 262.497254 
L 354.227052 261.986061 
L 354.524652 261.986061 
L 354.723448 261.913034 
L 355.21925 263.117987 
L 355.616248 262.716336 
L 355.81445 262.971932 
L 356.012652 263.665693 
L 356.40965 264.03083 
L 356.607852 264.32294 
L 357.00485 263.373583 
L 357.401848 264.870645 
L 357.500652 264.834132 
L 357.60005 264.761104 
L 358.095852 265.0167 
L 358.294648 264.870645 
L 358.393452 264.980187 
L 358.79045 266.331194 
L 359.08805 265.966057 
L 359.68325 266.221653 
L 360.080248 267.061469 
L 360.179052 267.097982 
L 360.57605 266.404222 
L 360.675448 266.513763 
L 360.973048 267.280551 
L 361.17125 267.134496 
L 361.667052 267.061469 
L 361.964652 266.477249 
L 362.163448 267.097982 
L 362.262252 267.499633 
L 362.758648 267.134496 
L 362.95685 267.207524 
L 363.353848 266.58679 
L 363.651448 266.8789 
L 363.84965 266.185139 
L 364.047852 265.527892 
L 364.74245 264.578536 
L 364.940652 264.688077 
L 365.04005 264.615049 
L 365.238252 263.921289 
L 365.63525 261.949548 
L 365.833452 262.132116 
L 366.627448 259.32056 
L 366.925048 257.604415 
L 367.321452 256.691572 
L 367.71845 254.354694 
L 368.90885 248.366443 
L 369.305848 246.212134 
L 369.603448 244.861126 
L 370.198648 242.086083 
L 370.595052 239.858746 
L 370.793848 239.968288 
L 371.389048 238.106088 
L 371.58725 237.3393 
L 371.88485 236.718566 
L 372.18245 237.302786 
L 372.579448 237.083704 
L 372.77765 237.266272 
L 372.877048 237.266272 
L 373.07525 237.04719 
L 373.273452 237.558382 
L 373.67045 238.945903 
L 373.96805 239.238013 
L 374.26565 239.931774 
L 375.059052 242.852872 
L 375.45605 243.656173 
L 375.853048 245.88351 
L 376.249452 247.124977 
L 376.448248 247.782224 
L 376.745848 248.03782 
L 377.439852 251.104973 
L 377.83685 251.908274 
L 377.936248 251.908274 
L 378.233848 253.003686 
L 378.72965 254.9024 
L 379.02725 254.975427 
L 379.32485 255.924784 
L 379.62245 256.87414 
L 379.92005 257.421846 
L 380.118252 257.348819 
L 380.21765 257.275791 
L 380.317048 257.385333 
L 380.51525 258.334689 
L 380.713452 259.284046 
L 381.11045 260.050834 
L 381.308652 260.488999 
L 381.70565 260.01432 
L 382.102648 261.474869 
L 382.201452 261.547897 
L 382.30085 261.474869 
L 382.499052 261.766979 
L 382.796652 262.424226 
L 382.89605 262.424226 
L 383.094252 263.008446 
L 383.49125 264.468994 
L 383.888248 264.724591 
L 384.284652 265.637434 
L 384.97925 267.353578 
L 385.27685 267.353578 
L 385.87205 269.325319 
L 385.971448 269.398347 
L 386.76485 271.406601 
L 387.06245 272.428986 
L 387.260652 272.538527 
L 387.558252 272.86715 
L 388.451052 274.875405 
L 388.84805 274.400727 
L 389.046252 274.43724 
L 389.343852 274.838891 
L 389.542648 275.094487 
L 389.74085 275.31357 
L 389.840248 275.240542 
L 390.236652 274.108617 
L 390.435448 274.546782 
L 390.534252 274.838891 
L 390.63365 274.802378 
L 390.831852 274.583295 
L 391.030648 274.546782 
L 391.22885 274.43724 
L 391.52645 273.45137 
L 391.625848 273.524397 
L 391.923448 274.035589 
L 392.816248 271.662198 
L 393.113848 271.662198 
L 393.212652 271.735225 
L 393.31205 271.662198 
L 393.510252 270.785868 
L 393.90725 269.72697 
L 394.105452 269.507888 
L 394.20485 269.434861 
L 394.998252 267.097982 
L 395.295852 266.075598 
L 395.39525 266.148626 
L 395.494648 266.002571 
L 395.99045 264.286426 
L 396.188652 263.519638 
L 396.58565 261.913034 
L 396.783852 261.657438 
L 396.982648 260.927164 
L 397.875448 255.924784 
L 398.271852 254.500749 
L 398.271852 254.500749 
" clip-path="url(#p5d31530b6e)" style="fill: none; stroke: #b7e2b1; stroke-linecap: round"/>
   </g>
   <g id="line2d_27"/>
   <g id="line2d_28"/>
   <g id="patch_3">
    <path d="M 41.25125 277.248797 
L 41.25125 11.136797 
" style="fill: none; stroke: #262626; stroke-width: 1.25; stroke-linejoin: miter; stroke-linecap: square"/>
   </g>
   <g id="patch_4">
    <path d="M 41.25125 277.248797 
L 398.37125 277.248797 
" style="fill: none; stroke: #262626; stroke-width: 1.25; stroke-linejoin: miter; stroke-linecap: square"/>
   </g>
   <g id="legend_1">
    <g id="line2d_29">
     <path d="M 328.117063 45.342684 
L 334.117063 45.342684 
L 340.117063 45.342684 
" style="fill: none; stroke: #ceb5d7; stroke-width: 1.5; stroke-linecap: round"/>
    </g>
    <g id="text_16">
     <!-- Feb -->
     <g style="fill: #262626" transform="translate(344.917063 47.442684) scale(0.06 -0.06)">
      <defs>
       <path id="ArialMT-46" d="M 525 0 
L 525 4581 
L 3616 4581 
L 3616 4041 
L 1131 4041 
L 1131 2622 
L 3281 2622 
L 3281 2081 
L 1131 2081 
L 1131 0 
L 525 0 
z
" transform="scale(0.015625)"/>
       <path id="ArialMT-62" d="M 941 0 
L 419 0 
L 419 4581 
L 981 4581 
L 981 2947 
Q 1338 3394 1891 3394 
Q 2197 3394 2470 3270 
Q 2744 3147 2920 2923 
Q 3097 2700 3197 2384 
Q 3297 2069 3297 1709 
Q 3297 856 2875 390 
Q 2453 -75 1863 -75 
Q 1275 -75 941 416 
L 941 0 
z
M 934 1684 
Q 934 1088 1097 822 
Q 1363 388 1816 388 
Q 2184 388 2453 708 
Q 2722 1028 2722 1663 
Q 2722 2313 2464 2622 
Q 2206 2931 1841 2931 
Q 1472 2931 1203 2611 
Q 934 2291 934 1684 
z
" transform="scale(0.015625)"/>
      </defs>
      <use xlink:href="#ArialMT-46"/>
      <use xlink:href="#ArialMT-65" x="61.083984"/>
      <use xlink:href="#ArialMT-62" x="116.699219"/>
     </g>
    </g>
    <g id="line2d_30">
     <path d="M 328.117063 53.902997 
L 334.117063 53.902997 
L 340.117063 53.902997 
" style="fill: none; stroke: #b7e2b1; stroke-width: 1.5; stroke-linecap: round"/>
    </g>
    <g id="text_17">
     <!-- Sept -->
     <g style="fill: #262626" transform="translate(344.917063 56.002997) scale(0.06 -0.06)">
      <defs>
       <path id="ArialMT-53" d="M 288 1472 
L 859 1522 
Q 900 1178 1048 958 
Q 1197 738 1509 602 
Q 1822 466 2213 466 
Q 2559 466 2825 569 
Q 3091 672 3220 851 
Q 3350 1031 3350 1244 
Q 3350 1459 3225 1620 
Q 3100 1781 2813 1891 
Q 2628 1963 1997 2114 
Q 1366 2266 1113 2400 
Q 784 2572 623 2826 
Q 463 3081 463 3397 
Q 463 3744 659 4045 
Q 856 4347 1234 4503 
Q 1613 4659 2075 4659 
Q 2584 4659 2973 4495 
Q 3363 4331 3572 4012 
Q 3781 3694 3797 3291 
L 3216 3247 
Q 3169 3681 2898 3903 
Q 2628 4125 2100 4125 
Q 1550 4125 1298 3923 
Q 1047 3722 1047 3438 
Q 1047 3191 1225 3031 
Q 1400 2872 2139 2705 
Q 2878 2538 3153 2413 
Q 3553 2228 3743 1945 
Q 3934 1663 3934 1294 
Q 3934 928 3725 604 
Q 3516 281 3123 101 
Q 2731 -78 2241 -78 
Q 1619 -78 1198 103 
Q 778 284 539 648 
Q 300 1013 288 1472 
z
" transform="scale(0.015625)"/>
       <path id="ArialMT-70" d="M 422 -1272 
L 422 3319 
L 934 3319 
L 934 2888 
Q 1116 3141 1344 3267 
Q 1572 3394 1897 3394 
Q 2322 3394 2647 3175 
Q 2972 2956 3137 2557 
Q 3303 2159 3303 1684 
Q 3303 1175 3120 767 
Q 2938 359 2589 142 
Q 2241 -75 1856 -75 
Q 1575 -75 1351 44 
Q 1128 163 984 344 
L 984 -1272 
L 422 -1272 
z
M 931 1641 
Q 931 1000 1190 694 
Q 1450 388 1819 388 
Q 2194 388 2461 705 
Q 2728 1022 2728 1688 
Q 2728 2322 2467 2637 
Q 2206 2953 1844 2953 
Q 1484 2953 1207 2617 
Q 931 2281 931 1641 
z
" transform="scale(0.015625)"/>
       <path id="ArialMT-74" d="M 1650 503 
L 1731 6 
Q 1494 -44 1306 -44 
Q 1000 -44 831 53 
Q 663 150 594 308 
Q 525 466 525 972 
L 525 2881 
L 113 2881 
L 113 3319 
L 525 3319 
L 525 4141 
L 1084 4478 
L 1084 3319 
L 1650 3319 
L 1650 2881 
L 1084 2881 
L 1084 941 
Q 1084 700 1114 631 
Q 1144 563 1211 522 
Q 1278 481 1403 481 
Q 1497 481 1650 503 
z
" transform="scale(0.015625)"/>
      </defs>
      <use xlink:href="#ArialMT-53"/>
      <use xlink:href="#ArialMT-65" x="66.699219"/>
      <use xlink:href="#ArialMT-70" x="122.314453"/>
      <use xlink:href="#ArialMT-74" x="177.929688"/>
     </g>
    </g>
   </g>
  </g>
 </g>
 <defs>
  <clipPath id="p5d31530b6e">
   <rect x="41.25125" y="11.136797" width="357.12" height="266.112"/>
  </clipPath>
 </defs>
</svg>
