<?xml version="1.0" encoding="utf-8" standalone="no"?>
<!DOCTYPE svg PUBLIC "-//W3C//DTD SVG 1.1//EN"
  "http://www.w3.org/Graphics/SVG/1.1/DTD/svg11.dtd">
<svg xmlns:xlink="http://www.w3.org/1999/xlink" width="414.498125pt" height="319.168641pt" viewBox="0 0 414.498125 319.168641" xmlns="http://www.w3.org/2000/svg" version="1.1">
 <metadata>
  <rdf:RDF xmlns:dc="http://purl.org/dc/elements/1.1/" xmlns:cc="http://creativecommons.org/ns#" xmlns:rdf="http://www.w3.org/1999/02/22-rdf-syntax-ns#">
   <cc:Work>
    <dc:type rdf:resource="http://purl.org/dc/dcmitype/StillImage"/>
    <dc:date>2024-05-21T21:53:48.497155</dc:date>
    <dc:format>image/svg+xml</dc:format>
    <dc:creator>
     <cc:Agent>
      <dc:title>Matplotlib v3.7.1, https://matplotlib.org/</dc:title>
     </cc:Agent>
    </dc:creator>
   </cc:Work>
  </rdf:RDF>
 </metadata>
 <defs>
  <style type="text/css">*{stroke-linejoin: round; stroke-linecap: butt}</style>
 </defs>
 <g id="figure_1">
  <g id="patch_1">
   <path d="M 0 319.168641 
L 414.498125 319.168641 
L 414.498125 0 
L 0 0 
z
" style="fill: #ffffff"/>
  </g>
  <g id="axes_1">
   <g id="patch_2">
    <path d="M 50.178125 277.248797 
L 407.298125 277.248797 
L 407.298125 11.136797 
L 50.178125 11.136797 
z
" style="fill: #ffffff"/>
   </g>
   <g id="matplotlib.axis_1">
    <g id="xtick_1">
     <g id="line2d_1">
      <defs>
       <path id="mc5d187d119" d="M 0 0 
L 0 -6 
" style="stroke: #262626; stroke-width: 1.25"/>
      </defs>
      <g>
       <use xlink:href="#mc5d187d119" x="383.490125" y="277.248797" style="fill: #262626; stroke: #262626; stroke-width: 1.25"/>
      </g>
     </g>
     <g id="text_1">
      <!-- 600 -->
      <g style="fill: #262626" transform="translate(374.314578 288.622391) scale(0.11 -0.11)">
       <defs>
        <path id="ArialMT-36" d="M 3184 3459 
L 2625 3416 
Q 2550 3747 2413 3897 
Q 2184 4138 1850 4138 
Q 1581 4138 1378 3988 
Q 1113 3794 959 3422 
Q 806 3050 800 2363 
Q 1003 2672 1297 2822 
Q 1591 2972 1913 2972 
Q 2475 2972 2870 2558 
Q 3266 2144 3266 1488 
Q 3266 1056 3080 686 
Q 2894 316 2569 119 
Q 2244 -78 1831 -78 
Q 1128 -78 684 439 
Q 241 956 241 2144 
Q 241 3472 731 4075 
Q 1159 4600 1884 4600 
Q 2425 4600 2770 4297 
Q 3116 3994 3184 3459 
z
M 888 1484 
Q 888 1194 1011 928 
Q 1134 663 1356 523 
Q 1578 384 1822 384 
Q 2178 384 2434 671 
Q 2691 959 2691 1453 
Q 2691 1928 2437 2201 
Q 2184 2475 1800 2475 
Q 1419 2475 1153 2201 
Q 888 1928 888 1484 
z
" transform="scale(0.015625)"/>
        <path id="ArialMT-30" d="M 266 2259 
Q 266 3072 433 3567 
Q 600 4063 929 4331 
Q 1259 4600 1759 4600 
Q 2128 4600 2406 4451 
Q 2684 4303 2865 4023 
Q 3047 3744 3150 3342 
Q 3253 2941 3253 2259 
Q 3253 1453 3087 958 
Q 2922 463 2592 192 
Q 2263 -78 1759 -78 
Q 1097 -78 719 397 
Q 266 969 266 2259 
z
M 844 2259 
Q 844 1131 1108 757 
Q 1372 384 1759 384 
Q 2147 384 2411 759 
Q 2675 1134 2675 2259 
Q 2675 3391 2411 3762 
Q 2147 4134 1753 4134 
Q 1366 4134 1134 3806 
Q 844 3388 844 2259 
z
" transform="scale(0.015625)"/>
       </defs>
       <use xlink:href="#ArialMT-36"/>
       <use xlink:href="#ArialMT-30" x="55.615234"/>
       <use xlink:href="#ArialMT-30" x="111.230469"/>
      </g>
     </g>
    </g>
    <g id="xtick_2">
     <g id="line2d_2">
      <g>
       <use xlink:href="#mc5d187d119" x="335.874125" y="277.248797" style="fill: #262626; stroke: #262626; stroke-width: 1.25"/>
      </g>
     </g>
     <g id="text_2">
      <!-- 800 -->
      <g style="fill: #262626" transform="translate(326.698578 288.622391) scale(0.11 -0.11)">
       <defs>
        <path id="ArialMT-38" d="M 1131 2484 
Q 781 2613 612 2850 
Q 444 3088 444 3419 
Q 444 3919 803 4259 
Q 1163 4600 1759 4600 
Q 2359 4600 2725 4251 
Q 3091 3903 3091 3403 
Q 3091 3084 2923 2848 
Q 2756 2613 2416 2484 
Q 2838 2347 3058 2040 
Q 3278 1734 3278 1309 
Q 3278 722 2862 322 
Q 2447 -78 1769 -78 
Q 1091 -78 675 323 
Q 259 725 259 1325 
Q 259 1772 486 2073 
Q 713 2375 1131 2484 
z
M 1019 3438 
Q 1019 3113 1228 2906 
Q 1438 2700 1772 2700 
Q 2097 2700 2305 2904 
Q 2513 3109 2513 3406 
Q 2513 3716 2298 3927 
Q 2084 4138 1766 4138 
Q 1444 4138 1231 3931 
Q 1019 3725 1019 3438 
z
M 838 1322 
Q 838 1081 952 856 
Q 1066 631 1291 507 
Q 1516 384 1775 384 
Q 2178 384 2440 643 
Q 2703 903 2703 1303 
Q 2703 1709 2433 1975 
Q 2163 2241 1756 2241 
Q 1359 2241 1098 1978 
Q 838 1716 838 1322 
z
" transform="scale(0.015625)"/>
       </defs>
       <use xlink:href="#ArialMT-38"/>
       <use xlink:href="#ArialMT-30" x="55.615234"/>
       <use xlink:href="#ArialMT-30" x="111.230469"/>
      </g>
     </g>
    </g>
    <g id="xtick_3">
     <g id="line2d_3">
      <g>
       <use xlink:href="#mc5d187d119" x="288.258125" y="277.248797" style="fill: #262626; stroke: #262626; stroke-width: 1.25"/>
      </g>
     </g>
     <g id="text_3">
      <!-- 1000 -->
      <g style="fill: #262626" transform="translate(276.024063 288.622391) scale(0.11 -0.11)">
       <defs>
        <path id="ArialMT-31" d="M 2384 0 
L 1822 0 
L 1822 3584 
Q 1619 3391 1289 3197 
Q 959 3003 697 2906 
L 697 3450 
Q 1169 3672 1522 3987 
Q 1875 4303 2022 4600 
L 2384 4600 
L 2384 0 
z
" transform="scale(0.015625)"/>
       </defs>
       <use xlink:href="#ArialMT-31"/>
       <use xlink:href="#ArialMT-30" x="55.615234"/>
       <use xlink:href="#ArialMT-30" x="111.230469"/>
       <use xlink:href="#ArialMT-30" x="166.845703"/>
      </g>
     </g>
    </g>
    <g id="xtick_4">
     <g id="line2d_4">
      <g>
       <use xlink:href="#mc5d187d119" x="240.642125" y="277.248797" style="fill: #262626; stroke: #262626; stroke-width: 1.25"/>
      </g>
     </g>
     <g id="text_4">
      <!-- 1200 -->
      <g style="fill: #262626" transform="translate(228.408063 288.622391) scale(0.11 -0.11)">
       <defs>
        <path id="ArialMT-32" d="M 3222 541 
L 3222 0 
L 194 0 
Q 188 203 259 391 
Q 375 700 629 1000 
Q 884 1300 1366 1694 
Q 2113 2306 2375 2664 
Q 2638 3022 2638 3341 
Q 2638 3675 2398 3904 
Q 2159 4134 1775 4134 
Q 1369 4134 1125 3890 
Q 881 3647 878 3216 
L 300 3275 
Q 359 3922 746 4261 
Q 1134 4600 1788 4600 
Q 2447 4600 2831 4234 
Q 3216 3869 3216 3328 
Q 3216 3053 3103 2787 
Q 2991 2522 2730 2228 
Q 2469 1934 1863 1422 
Q 1356 997 1212 845 
Q 1069 694 975 541 
L 3222 541 
z
" transform="scale(0.015625)"/>
       </defs>
       <use xlink:href="#ArialMT-31"/>
       <use xlink:href="#ArialMT-32" x="55.615234"/>
       <use xlink:href="#ArialMT-30" x="111.230469"/>
       <use xlink:href="#ArialMT-30" x="166.845703"/>
      </g>
     </g>
    </g>
    <g id="xtick_5">
     <g id="line2d_5">
      <g>
       <use xlink:href="#mc5d187d119" x="193.026125" y="277.248797" style="fill: #262626; stroke: #262626; stroke-width: 1.25"/>
      </g>
     </g>
     <g id="text_5">
      <!-- 1400 -->
      <g style="fill: #262626" transform="translate(180.792063 288.622391) scale(0.11 -0.11)">
       <defs>
        <path id="ArialMT-34" d="M 2069 0 
L 2069 1097 
L 81 1097 
L 81 1613 
L 2172 4581 
L 2631 4581 
L 2631 1613 
L 3250 1613 
L 3250 1097 
L 2631 1097 
L 2631 0 
L 2069 0 
z
M 2069 1613 
L 2069 3678 
L 634 1613 
L 2069 1613 
z
" transform="scale(0.015625)"/>
       </defs>
       <use xlink:href="#ArialMT-31"/>
       <use xlink:href="#ArialMT-34" x="55.615234"/>
       <use xlink:href="#ArialMT-30" x="111.230469"/>
       <use xlink:href="#ArialMT-30" x="166.845703"/>
      </g>
     </g>
    </g>
    <g id="xtick_6">
     <g id="line2d_6">
      <g>
       <use xlink:href="#mc5d187d119" x="145.410125" y="277.248797" style="fill: #262626; stroke: #262626; stroke-width: 1.25"/>
      </g>
     </g>
     <g id="text_6">
      <!-- 1600 -->
      <g style="fill: #262626" transform="translate(133.176063 288.622391) scale(0.11 -0.11)">
       <use xlink:href="#ArialMT-31"/>
       <use xlink:href="#ArialMT-36" x="55.615234"/>
       <use xlink:href="#ArialMT-30" x="111.230469"/>
       <use xlink:href="#ArialMT-30" x="166.845703"/>
      </g>
     </g>
    </g>
    <g id="xtick_7">
     <g id="line2d_7">
      <g>
       <use xlink:href="#mc5d187d119" x="97.794125" y="277.248797" style="fill: #262626; stroke: #262626; stroke-width: 1.25"/>
      </g>
     </g>
     <g id="text_7">
      <!-- 1800 -->
      <g style="fill: #262626" transform="translate(85.560063 288.622391) scale(0.11 -0.11)">
       <use xlink:href="#ArialMT-31"/>
       <use xlink:href="#ArialMT-38" x="55.615234"/>
       <use xlink:href="#ArialMT-30" x="111.230469"/>
       <use xlink:href="#ArialMT-30" x="166.845703"/>
      </g>
     </g>
    </g>
    <g id="xtick_8">
     <g id="line2d_8">
      <g>
       <use xlink:href="#mc5d187d119" x="50.178125" y="277.248797" style="fill: #262626; stroke: #262626; stroke-width: 1.25"/>
      </g>
     </g>
     <g id="text_8">
      <!-- 2000 -->
      <g style="fill: #262626" transform="translate(37.944063 288.622391) scale(0.11 -0.11)">
       <use xlink:href="#ArialMT-32"/>
       <use xlink:href="#ArialMT-30" x="55.615234"/>
       <use xlink:href="#ArialMT-30" x="111.230469"/>
       <use xlink:href="#ArialMT-30" x="166.845703"/>
      </g>
     </g>
    </g>
    <g id="xtick_9">
     <g id="line2d_9">
      <defs>
       <path id="mb5ee95b965" d="M 0 0 
L 0 -4 
" style="stroke: #262626"/>
      </defs>
      <g>
       <use xlink:href="#mb5ee95b965" x="359.682125" y="277.248797" style="fill: #262626; stroke: #262626"/>
      </g>
     </g>
    </g>
    <g id="xtick_10">
     <g id="line2d_10">
      <g>
       <use xlink:href="#mb5ee95b965" x="312.066125" y="277.248797" style="fill: #262626; stroke: #262626"/>
      </g>
     </g>
    </g>
    <g id="xtick_11">
     <g id="line2d_11">
      <g>
       <use xlink:href="#mb5ee95b965" x="264.450125" y="277.248797" style="fill: #262626; stroke: #262626"/>
      </g>
     </g>
    </g>
    <g id="xtick_12">
     <g id="line2d_12">
      <g>
       <use xlink:href="#mb5ee95b965" x="216.834125" y="277.248797" style="fill: #262626; stroke: #262626"/>
      </g>
     </g>
    </g>
    <g id="xtick_13">
     <g id="line2d_13">
      <g>
       <use xlink:href="#mb5ee95b965" x="169.218125" y="277.248797" style="fill: #262626; stroke: #262626"/>
      </g>
     </g>
    </g>
    <g id="xtick_14">
     <g id="line2d_14">
      <g>
       <use xlink:href="#mb5ee95b965" x="121.602125" y="277.248797" style="fill: #262626; stroke: #262626"/>
      </g>
     </g>
    </g>
    <g id="xtick_15">
     <g id="line2d_15">
      <g>
       <use xlink:href="#mb5ee95b965" x="73.986125" y="277.248797" style="fill: #262626; stroke: #262626"/>
      </g>
     </g>
    </g>
    <g id="text_9">
     <!-- Wavenumber ($\mathregular{cm^{-1}}$) -->
     <g style="fill: #262626" transform="translate(174.198125 309.328641) scale(0.12 -0.12)">
      <defs>
       <path id="ArialMT-57" d="M 1294 0 
L 78 4581 
L 700 4581 
L 1397 1578 
Q 1509 1106 1591 641 
Q 1766 1375 1797 1488 
L 2669 4581 
L 3400 4581 
L 4056 2263 
Q 4303 1400 4413 641 
Q 4500 1075 4641 1638 
L 5359 4581 
L 5969 4581 
L 4713 0 
L 4128 0 
L 3163 3491 
Q 3041 3928 3019 4028 
Q 2947 3713 2884 3491 
L 1913 0 
L 1294 0 
z
" transform="scale(0.015625)"/>
       <path id="ArialMT-61" d="M 2588 409 
Q 2275 144 1986 34 
Q 1697 -75 1366 -75 
Q 819 -75 525 192 
Q 231 459 231 875 
Q 231 1119 342 1320 
Q 453 1522 633 1644 
Q 813 1766 1038 1828 
Q 1203 1872 1538 1913 
Q 2219 1994 2541 2106 
Q 2544 2222 2544 2253 
Q 2544 2597 2384 2738 
Q 2169 2928 1744 2928 
Q 1347 2928 1158 2789 
Q 969 2650 878 2297 
L 328 2372 
Q 403 2725 575 2942 
Q 747 3159 1072 3276 
Q 1397 3394 1825 3394 
Q 2250 3394 2515 3294 
Q 2781 3194 2906 3042 
Q 3031 2891 3081 2659 
Q 3109 2516 3109 2141 
L 3109 1391 
Q 3109 606 3145 398 
Q 3181 191 3288 0 
L 2700 0 
Q 2613 175 2588 409 
z
M 2541 1666 
Q 2234 1541 1622 1453 
Q 1275 1403 1131 1340 
Q 988 1278 909 1158 
Q 831 1038 831 891 
Q 831 666 1001 516 
Q 1172 366 1500 366 
Q 1825 366 2078 508 
Q 2331 650 2450 897 
Q 2541 1088 2541 1459 
L 2541 1666 
z
" transform="scale(0.015625)"/>
       <path id="ArialMT-76" d="M 1344 0 
L 81 3319 
L 675 3319 
L 1388 1331 
Q 1503 1009 1600 663 
Q 1675 925 1809 1294 
L 2547 3319 
L 3125 3319 
L 1869 0 
L 1344 0 
z
" transform="scale(0.015625)"/>
       <path id="ArialMT-65" d="M 2694 1069 
L 3275 997 
Q 3138 488 2766 206 
Q 2394 -75 1816 -75 
Q 1088 -75 661 373 
Q 234 822 234 1631 
Q 234 2469 665 2931 
Q 1097 3394 1784 3394 
Q 2450 3394 2872 2941 
Q 3294 2488 3294 1666 
Q 3294 1616 3291 1516 
L 816 1516 
Q 847 969 1125 678 
Q 1403 388 1819 388 
Q 2128 388 2347 550 
Q 2566 713 2694 1069 
z
M 847 1978 
L 2700 1978 
Q 2663 2397 2488 2606 
Q 2219 2931 1791 2931 
Q 1403 2931 1139 2672 
Q 875 2413 847 1978 
z
" transform="scale(0.015625)"/>
       <path id="ArialMT-6e" d="M 422 0 
L 422 3319 
L 928 3319 
L 928 2847 
Q 1294 3394 1984 3394 
Q 2284 3394 2536 3286 
Q 2788 3178 2913 3003 
Q 3038 2828 3088 2588 
Q 3119 2431 3119 2041 
L 3119 0 
L 2556 0 
L 2556 2019 
Q 2556 2363 2490 2533 
Q 2425 2703 2258 2804 
Q 2091 2906 1866 2906 
Q 1506 2906 1245 2678 
Q 984 2450 984 1813 
L 984 0 
L 422 0 
z
" transform="scale(0.015625)"/>
       <path id="ArialMT-75" d="M 2597 0 
L 2597 488 
Q 2209 -75 1544 -75 
Q 1250 -75 995 37 
Q 741 150 617 320 
Q 494 491 444 738 
Q 409 903 409 1263 
L 409 3319 
L 972 3319 
L 972 1478 
Q 972 1038 1006 884 
Q 1059 663 1231 536 
Q 1403 409 1656 409 
Q 1909 409 2131 539 
Q 2353 669 2445 892 
Q 2538 1116 2538 1541 
L 2538 3319 
L 3100 3319 
L 3100 0 
L 2597 0 
z
" transform="scale(0.015625)"/>
       <path id="ArialMT-6d" d="M 422 0 
L 422 3319 
L 925 3319 
L 925 2853 
Q 1081 3097 1340 3245 
Q 1600 3394 1931 3394 
Q 2300 3394 2536 3241 
Q 2772 3088 2869 2813 
Q 3263 3394 3894 3394 
Q 4388 3394 4653 3120 
Q 4919 2847 4919 2278 
L 4919 0 
L 4359 0 
L 4359 2091 
Q 4359 2428 4304 2576 
Q 4250 2725 4106 2815 
Q 3963 2906 3769 2906 
Q 3419 2906 3187 2673 
Q 2956 2441 2956 1928 
L 2956 0 
L 2394 0 
L 2394 2156 
Q 2394 2531 2256 2718 
Q 2119 2906 1806 2906 
Q 1569 2906 1367 2781 
Q 1166 2656 1075 2415 
Q 984 2175 984 1722 
L 984 0 
L 422 0 
z
" transform="scale(0.015625)"/>
       <path id="ArialMT-62" d="M 941 0 
L 419 0 
L 419 4581 
L 981 4581 
L 981 2947 
Q 1338 3394 1891 3394 
Q 2197 3394 2470 3270 
Q 2744 3147 2920 2923 
Q 3097 2700 3197 2384 
Q 3297 2069 3297 1709 
Q 3297 856 2875 390 
Q 2453 -75 1863 -75 
Q 1275 -75 941 416 
L 941 0 
z
M 934 1684 
Q 934 1088 1097 822 
Q 1363 388 1816 388 
Q 2184 388 2453 708 
Q 2722 1028 2722 1663 
Q 2722 2313 2464 2622 
Q 2206 2931 1841 2931 
Q 1472 2931 1203 2611 
Q 934 2291 934 1684 
z
" transform="scale(0.015625)"/>
       <path id="ArialMT-72" d="M 416 0 
L 416 3319 
L 922 3319 
L 922 2816 
Q 1116 3169 1280 3281 
Q 1444 3394 1641 3394 
Q 1925 3394 2219 3213 
L 2025 2691 
Q 1819 2813 1613 2813 
Q 1428 2813 1281 2702 
Q 1134 2591 1072 2394 
Q 978 2094 978 1738 
L 978 0 
L 416 0 
z
" transform="scale(0.015625)"/>
       <path id="ArialMT-20" transform="scale(0.015625)"/>
       <path id="ArialMT-28" d="M 1497 -1347 
Q 1031 -759 709 28 
Q 388 816 388 1659 
Q 388 2403 628 3084 
Q 909 3875 1497 4659 
L 1900 4659 
Q 1522 4009 1400 3731 
Q 1209 3300 1100 2831 
Q 966 2247 966 1656 
Q 966 153 1900 -1347 
L 1497 -1347 
z
" transform="scale(0.015625)"/>
       <path id="ArialMT-63" d="M 2588 1216 
L 3141 1144 
Q 3050 572 2676 248 
Q 2303 -75 1759 -75 
Q 1078 -75 664 370 
Q 250 816 250 1647 
Q 250 2184 428 2587 
Q 606 2991 970 3192 
Q 1334 3394 1763 3394 
Q 2303 3394 2647 3120 
Q 2991 2847 3088 2344 
L 2541 2259 
Q 2463 2594 2264 2762 
Q 2066 2931 1784 2931 
Q 1359 2931 1093 2626 
Q 828 2322 828 1663 
Q 828 994 1084 691 
Q 1341 388 1753 388 
Q 2084 388 2306 591 
Q 2528 794 2588 1216 
z
" transform="scale(0.015625)"/>
       <path id="ArialMT-2212" d="M 3381 1997 
L 356 1997 
L 356 2522 
L 3381 2522 
L 3381 1997 
z
" transform="scale(0.015625)"/>
       <path id="ArialMT-29" d="M 791 -1347 
L 388 -1347 
Q 1322 153 1322 1656 
Q 1322 2244 1188 2822 
Q 1081 3291 891 3722 
Q 769 4003 388 4659 
L 791 4659 
Q 1378 3875 1659 3084 
Q 1900 2403 1900 1659 
Q 1900 816 1576 28 
Q 1253 -759 791 -1347 
z
" transform="scale(0.015625)"/>
      </defs>
      <use xlink:href="#ArialMT-57" transform="translate(0 0.99375)"/>
      <use xlink:href="#ArialMT-61" transform="translate(94.384766 0.99375)"/>
      <use xlink:href="#ArialMT-76" transform="translate(150 0.99375)"/>
      <use xlink:href="#ArialMT-65" transform="translate(200 0.99375)"/>
      <use xlink:href="#ArialMT-6e" transform="translate(255.615234 0.99375)"/>
      <use xlink:href="#ArialMT-75" transform="translate(311.230469 0.99375)"/>
      <use xlink:href="#ArialMT-6d" transform="translate(366.845703 0.99375)"/>
      <use xlink:href="#ArialMT-62" transform="translate(450.146484 0.99375)"/>
      <use xlink:href="#ArialMT-65" transform="translate(505.761719 0.99375)"/>
      <use xlink:href="#ArialMT-72" transform="translate(561.376953 0.99375)"/>
      <use xlink:href="#ArialMT-20" transform="translate(594.677734 0.99375)"/>
      <use xlink:href="#ArialMT-28" transform="translate(622.460938 0.99375)"/>
      <use xlink:href="#ArialMT-63" transform="translate(655.761719 0.99375)"/>
      <use xlink:href="#ArialMT-6d" transform="translate(705.761719 0.99375)"/>
      <use xlink:href="#ArialMT-2212" transform="translate(790.804844 70.6875) scale(0.7)"/>
      <use xlink:href="#ArialMT-31" transform="translate(831.68375 70.6875) scale(0.7)"/>
      <use xlink:href="#ArialMT-29" transform="translate(875.592539 0.99375)"/>
     </g>
    </g>
   </g>
   <g id="matplotlib.axis_2">
    <g id="ytick_1">
     <g id="line2d_16">
      <defs>
       <path id="me942a64c5f" d="M 0 0 
L 6 0 
" style="stroke: #262626; stroke-width: 1.25"/>
      </defs>
      <g>
       <use xlink:href="#me942a64c5f" x="50.178125" y="272.886305" style="fill: #262626; stroke: #262626; stroke-width: 1.25"/>
      </g>
     </g>
     <g id="text_10">
      <!-- 0 -->
      <g style="fill: #262626" transform="translate(40.561094 276.823102) scale(0.11 -0.11)">
       <use xlink:href="#ArialMT-30"/>
      </g>
     </g>
    </g>
    <g id="ytick_2">
     <g id="line2d_17">
      <g>
       <use xlink:href="#me942a64c5f" x="50.178125" y="229.261387" style="fill: #262626; stroke: #262626; stroke-width: 1.25"/>
      </g>
     </g>
     <g id="text_11">
      <!-- 500 -->
      <g style="fill: #262626" transform="translate(28.327031 233.198184) scale(0.11 -0.11)">
       <defs>
        <path id="ArialMT-35" d="M 266 1200 
L 856 1250 
Q 922 819 1161 601 
Q 1400 384 1738 384 
Q 2144 384 2425 690 
Q 2706 997 2706 1503 
Q 2706 1984 2436 2262 
Q 2166 2541 1728 2541 
Q 1456 2541 1237 2417 
Q 1019 2294 894 2097 
L 366 2166 
L 809 4519 
L 3088 4519 
L 3088 3981 
L 1259 3981 
L 1013 2750 
Q 1425 3038 1878 3038 
Q 2478 3038 2890 2622 
Q 3303 2206 3303 1553 
Q 3303 931 2941 478 
Q 2500 -78 1738 -78 
Q 1113 -78 717 272 
Q 322 622 266 1200 
z
" transform="scale(0.015625)"/>
       </defs>
       <use xlink:href="#ArialMT-35"/>
       <use xlink:href="#ArialMT-30" x="55.615234"/>
       <use xlink:href="#ArialMT-30" x="111.230469"/>
      </g>
     </g>
    </g>
    <g id="ytick_3">
     <g id="line2d_18">
      <g>
       <use xlink:href="#me942a64c5f" x="50.178125" y="185.636469" style="fill: #262626; stroke: #262626; stroke-width: 1.25"/>
      </g>
     </g>
     <g id="text_12">
      <!-- 1000 -->
      <g style="fill: #262626" transform="translate(22.21 189.573266) scale(0.11 -0.11)">
       <use xlink:href="#ArialMT-31"/>
       <use xlink:href="#ArialMT-30" x="55.615234"/>
       <use xlink:href="#ArialMT-30" x="111.230469"/>
       <use xlink:href="#ArialMT-30" x="166.845703"/>
      </g>
     </g>
    </g>
    <g id="ytick_4">
     <g id="line2d_19">
      <g>
       <use xlink:href="#me942a64c5f" x="50.178125" y="142.011551" style="fill: #262626; stroke: #262626; stroke-width: 1.25"/>
      </g>
     </g>
     <g id="text_13">
      <!-- 1500 -->
      <g style="fill: #262626" transform="translate(22.21 145.948348) scale(0.11 -0.11)">
       <use xlink:href="#ArialMT-31"/>
       <use xlink:href="#ArialMT-35" x="55.615234"/>
       <use xlink:href="#ArialMT-30" x="111.230469"/>
       <use xlink:href="#ArialMT-30" x="166.845703"/>
      </g>
     </g>
    </g>
    <g id="ytick_5">
     <g id="line2d_20">
      <g>
       <use xlink:href="#me942a64c5f" x="50.178125" y="98.386633" style="fill: #262626; stroke: #262626; stroke-width: 1.25"/>
      </g>
     </g>
     <g id="text_14">
      <!-- 2000 -->
      <g style="fill: #262626" transform="translate(22.21 102.32343) scale(0.11 -0.11)">
       <use xlink:href="#ArialMT-32"/>
       <use xlink:href="#ArialMT-30" x="55.615234"/>
       <use xlink:href="#ArialMT-30" x="111.230469"/>
       <use xlink:href="#ArialMT-30" x="166.845703"/>
      </g>
     </g>
    </g>
    <g id="ytick_6">
     <g id="line2d_21">
      <g>
       <use xlink:href="#me942a64c5f" x="50.178125" y="54.761715" style="fill: #262626; stroke: #262626; stroke-width: 1.25"/>
      </g>
     </g>
     <g id="text_15">
      <!-- 2500 -->
      <g style="fill: #262626" transform="translate(22.21 58.698512) scale(0.11 -0.11)">
       <use xlink:href="#ArialMT-32"/>
       <use xlink:href="#ArialMT-35" x="55.615234"/>
       <use xlink:href="#ArialMT-30" x="111.230469"/>
       <use xlink:href="#ArialMT-30" x="166.845703"/>
      </g>
     </g>
    </g>
    <g id="ytick_7">
     <g id="line2d_22">
      <g>
       <use xlink:href="#me942a64c5f" x="50.178125" y="11.136797" style="fill: #262626; stroke: #262626; stroke-width: 1.25"/>
      </g>
     </g>
     <g id="text_16">
      <!-- 3000 -->
      <g style="fill: #262626" transform="translate(22.21 15.073594) scale(0.11 -0.11)">
       <defs>
        <path id="ArialMT-33" d="M 269 1209 
L 831 1284 
Q 928 806 1161 595 
Q 1394 384 1728 384 
Q 2125 384 2398 659 
Q 2672 934 2672 1341 
Q 2672 1728 2419 1979 
Q 2166 2231 1775 2231 
Q 1616 2231 1378 2169 
L 1441 2663 
Q 1497 2656 1531 2656 
Q 1891 2656 2178 2843 
Q 2466 3031 2466 3422 
Q 2466 3731 2256 3934 
Q 2047 4138 1716 4138 
Q 1388 4138 1169 3931 
Q 950 3725 888 3313 
L 325 3413 
Q 428 3978 793 4289 
Q 1159 4600 1703 4600 
Q 2078 4600 2393 4439 
Q 2709 4278 2876 4000 
Q 3044 3722 3044 3409 
Q 3044 3113 2884 2869 
Q 2725 2625 2413 2481 
Q 2819 2388 3044 2092 
Q 3269 1797 3269 1353 
Q 3269 753 2831 336 
Q 2394 -81 1725 -81 
Q 1122 -81 723 278 
Q 325 638 269 1209 
z
" transform="scale(0.015625)"/>
       </defs>
       <use xlink:href="#ArialMT-33"/>
       <use xlink:href="#ArialMT-30" x="55.615234"/>
       <use xlink:href="#ArialMT-30" x="111.230469"/>
       <use xlink:href="#ArialMT-30" x="166.845703"/>
      </g>
     </g>
    </g>
    <g id="ytick_8">
     <g id="line2d_23">
      <defs>
       <path id="ma23a5bd319" d="M 0 0 
L 4 0 
" style="stroke: #262626"/>
      </defs>
      <g>
       <use xlink:href="#ma23a5bd319" x="50.178125" y="251.073846" style="fill: #262626; stroke: #262626"/>
      </g>
     </g>
    </g>
    <g id="ytick_9">
     <g id="line2d_24">
      <g>
       <use xlink:href="#ma23a5bd319" x="50.178125" y="207.448928" style="fill: #262626; stroke: #262626"/>
      </g>
     </g>
    </g>
    <g id="ytick_10">
     <g id="line2d_25">
      <g>
       <use xlink:href="#ma23a5bd319" x="50.178125" y="163.82401" style="fill: #262626; stroke: #262626"/>
      </g>
     </g>
    </g>
    <g id="ytick_11">
     <g id="line2d_26">
      <g>
       <use xlink:href="#ma23a5bd319" x="50.178125" y="120.199092" style="fill: #262626; stroke: #262626"/>
      </g>
     </g>
    </g>
    <g id="ytick_12">
     <g id="line2d_27">
      <g>
       <use xlink:href="#ma23a5bd319" x="50.178125" y="76.574174" style="fill: #262626; stroke: #262626"/>
      </g>
     </g>
    </g>
    <g id="ytick_13">
     <g id="line2d_28">
      <g>
       <use xlink:href="#ma23a5bd319" x="50.178125" y="32.949256" style="fill: #262626; stroke: #262626"/>
      </g>
     </g>
    </g>
    <g id="text_17">
     <!-- AU-026-B2-repeat -->
     <g style="fill: #262626" transform="translate(15.825 192.880922) rotate(-90) scale(0.12 -0.12)">
      <defs>
       <path id="ArialMT-41" d="M -9 0 
L 1750 4581 
L 2403 4581 
L 4278 0 
L 3588 0 
L 3053 1388 
L 1138 1388 
L 634 0 
L -9 0 
z
M 1313 1881 
L 2866 1881 
L 2388 3150 
Q 2169 3728 2063 4100 
Q 1975 3659 1816 3225 
L 1313 1881 
z
" transform="scale(0.015625)"/>
       <path id="ArialMT-55" d="M 3500 4581 
L 4106 4581 
L 4106 1934 
Q 4106 1244 3950 837 
Q 3794 431 3386 176 
Q 2978 -78 2316 -78 
Q 1672 -78 1262 144 
Q 853 366 678 786 
Q 503 1206 503 1934 
L 503 4581 
L 1109 4581 
L 1109 1938 
Q 1109 1341 1220 1058 
Q 1331 775 1601 622 
Q 1872 469 2263 469 
Q 2931 469 3215 772 
Q 3500 1075 3500 1938 
L 3500 4581 
z
" transform="scale(0.015625)"/>
       <path id="ArialMT-2d" d="M 203 1375 
L 203 1941 
L 1931 1941 
L 1931 1375 
L 203 1375 
z
" transform="scale(0.015625)"/>
       <path id="ArialMT-42" d="M 469 0 
L 469 4581 
L 2188 4581 
Q 2713 4581 3030 4442 
Q 3347 4303 3526 4014 
Q 3706 3725 3706 3409 
Q 3706 3116 3547 2856 
Q 3388 2597 3066 2438 
Q 3481 2316 3704 2022 
Q 3928 1728 3928 1328 
Q 3928 1006 3792 729 
Q 3656 453 3456 303 
Q 3256 153 2954 76 
Q 2653 0 2216 0 
L 469 0 
z
M 1075 2656 
L 2066 2656 
Q 2469 2656 2644 2709 
Q 2875 2778 2992 2937 
Q 3109 3097 3109 3338 
Q 3109 3566 3000 3739 
Q 2891 3913 2687 3977 
Q 2484 4041 1991 4041 
L 1075 4041 
L 1075 2656 
z
M 1075 541 
L 2216 541 
Q 2509 541 2628 563 
Q 2838 600 2978 687 
Q 3119 775 3209 942 
Q 3300 1109 3300 1328 
Q 3300 1584 3169 1773 
Q 3038 1963 2805 2039 
Q 2572 2116 2134 2116 
L 1075 2116 
L 1075 541 
z
" transform="scale(0.015625)"/>
       <path id="ArialMT-70" d="M 422 -1272 
L 422 3319 
L 934 3319 
L 934 2888 
Q 1116 3141 1344 3267 
Q 1572 3394 1897 3394 
Q 2322 3394 2647 3175 
Q 2972 2956 3137 2557 
Q 3303 2159 3303 1684 
Q 3303 1175 3120 767 
Q 2938 359 2589 142 
Q 2241 -75 1856 -75 
Q 1575 -75 1351 44 
Q 1128 163 984 344 
L 984 -1272 
L 422 -1272 
z
M 931 1641 
Q 931 1000 1190 694 
Q 1450 388 1819 388 
Q 2194 388 2461 705 
Q 2728 1022 2728 1688 
Q 2728 2322 2467 2637 
Q 2206 2953 1844 2953 
Q 1484 2953 1207 2617 
Q 931 2281 931 1641 
z
" transform="scale(0.015625)"/>
       <path id="ArialMT-74" d="M 1650 503 
L 1731 6 
Q 1494 -44 1306 -44 
Q 1000 -44 831 53 
Q 663 150 594 308 
Q 525 466 525 972 
L 525 2881 
L 113 2881 
L 113 3319 
L 525 3319 
L 525 4141 
L 1084 4478 
L 1084 3319 
L 1650 3319 
L 1650 2881 
L 1084 2881 
L 1084 941 
Q 1084 700 1114 631 
Q 1144 563 1211 522 
Q 1278 481 1403 481 
Q 1497 481 1650 503 
z
" transform="scale(0.015625)"/>
      </defs>
      <use xlink:href="#ArialMT-41"/>
      <use xlink:href="#ArialMT-55" x="66.699219"/>
      <use xlink:href="#ArialMT-2d" x="138.916016"/>
      <use xlink:href="#ArialMT-30" x="172.216797"/>
      <use xlink:href="#ArialMT-32" x="227.832031"/>
      <use xlink:href="#ArialMT-36" x="283.447266"/>
      <use xlink:href="#ArialMT-2d" x="339.0625"/>
      <use xlink:href="#ArialMT-42" x="372.363281"/>
      <use xlink:href="#ArialMT-32" x="439.0625"/>
      <use xlink:href="#ArialMT-2d" x="494.677734"/>
      <use xlink:href="#ArialMT-72" x="527.978516"/>
      <use xlink:href="#ArialMT-65" x="561.279297"/>
      <use xlink:href="#ArialMT-70" x="616.894531"/>
      <use xlink:href="#ArialMT-65" x="672.509766"/>
      <use xlink:href="#ArialMT-61" x="728.125"/>
      <use xlink:href="#ArialMT-74" x="783.740234"/>
     </g>
    </g>
   </g>
   <g id="PolyCollection_1"/>
   <g id="line2d_29">
    <path d="M 407.417165 269.958535 
L 407.179085 269.681258 
L 406.941005 269.7767 
L 406.702925 270.322107 
L 406.226765 271.567227 
L 406.107725 271.560163 
L 405.869645 271.085057 
L 405.274445 269.632718 
L 405.036365 269.461648 
L 404.798285 269.493884 
L 404.560205 269.827178 
L 404.203085 271.108817 
L 403.845965 272.206431 
L 403.726925 272.229196 
L 403.488845 271.878605 
L 402.893645 270.991449 
L 402.536525 270.533017 
L 402.298445 270.544498 
L 401.941325 271.02273 
L 401.584205 271.423752 
L 401.227085 271.40902 
L 400.989005 271.446798 
L 400.274765 271.927034 
L 400.036685 272.06825 
L 399.679565 272.507151 
L 399.560525 272.469753 
L 399.322445 271.742711 
L 398.370125 266.850659 
L 398.132045 266.710553 
L 398.013005 266.7712 
L 397.774925 267.304488 
L 397.417805 269.222743 
L 396.941645 271.581694 
L 396.584525 272.281768 
L 396.346445 272.342899 
L 395.989325 272.02733 
L 395.632205 271.34946 
L 395.037005 270.086715 
L 394.798925 270.003771 
L 394.560845 270.201595 
L 393.846605 271.355307 
L 393.489485 271.222418 
L 393.251405 271.172368 
L 392.894285 271.398426 
L 392.180045 272.096453 
L 391.703885 272.750846 
L 391.465805 272.640358 
L 391.108685 272.002836 
L 390.751565 271.400948 
L 390.394445 271.251641 
L 389.680205 271.073055 
L 389.323085 271.398236 
L 389.085005 271.196013 
L 388.608845 270.299056 
L 388.489805 270.271427 
L 388.251725 270.554416 
L 387.894605 271.098142 
L 387.656525 271.0775 
L 387.299405 270.907752 
L 386.942285 271.09096 
L 386.228045 271.608644 
L 385.870925 271.959468 
L 385.751885 271.915296 
L 385.513805 271.474687 
L 384.680525 269.38795 
L 384.085325 268.34195 
L 383.371085 267.787576 
L 383.133005 267.898776 
L 382.894925 268.294925 
L 382.537805 269.521485 
L 381.942605 271.84128 
L 381.823565 271.915191 
L 381.585485 271.661321 
L 380.871245 270.277372 
L 380.276045 268.405865 
L 380.037965 268.317777 
L 379.561805 268.514318 
L 379.085645 268.253497 
L 378.847565 268.626955 
L 378.371405 269.47982 
L 378.133325 269.816388 
L 377.776205 271.149215 
L 377.538125 271.883667 
L 377.419085 271.896101 
L 377.181005 271.125877 
L 375.990605 264.755037 
L 375.752525 264.420397 
L 375.633485 264.524252 
L 375.276365 265.576187 
L 374.800205 266.911161 
L 374.205005 268.009123 
L 373.490765 270.201831 
L 372.776525 270.900584 
L 372.300365 271.444643 
L 372.062285 271.301324 
L 371.705165 270.531086 
L 371.229005 269.136767 
L 370.633805 266.82082 
L 370.514765 266.700939 
L 370.395725 266.771158 
L 370.157645 267.422286 
L 369.205325 270.985279 
L 368.729165 272.13195 
L 368.491085 272.288557 
L 368.253005 272.20569 
L 367.419725 271.643907 
L 367.181645 271.800959 
L 366.943565 271.640469 
L 366.467405 270.935425 
L 365.396045 270.828191 
L 365.157965 271.109714 
L 364.562765 272.325866 
L 364.324685 272.256327 
L 364.086605 272.209767 
L 363.491405 272.536035 
L 363.134285 272.165313 
L 362.301005 271.04671 
L 361.943885 270.477343 
L 361.705805 270.513859 
L 361.229645 270.982137 
L 360.872525 270.88236 
L 360.515405 270.841904 
L 360.158285 271.072248 
L 358.967885 272.453566 
L 358.848845 272.40333 
L 358.610765 271.88598 
L 357.896525 269.669199 
L 357.182285 268.252204 
L 356.944205 268.328538 
L 356.706125 268.726249 
L 356.349005 269.979141 
L 355.991885 271.170586 
L 355.515725 271.813667 
L 355.277645 272.033826 
L 355.039565 271.940285 
L 354.682445 271.267234 
L 353.968205 269.399857 
L 352.896845 268.948867 
L 352.658765 269.262789 
L 352.063565 270.297656 
L 351.587405 270.657642 
L 351.111245 271.788565 
L 350.754125 272.43495 
L 350.516045 272.462587 
L 350.158925 272.39556 
L 349.563725 272.787055 
L 348.492365 271.743162 
L 347.897165 271.216434 
L 347.421005 270.765499 
L 346.944845 270.836934 
L 346.706765 271.001533 
L 345.873485 272.061623 
L 345.516365 272.073738 
L 344.921165 271.757449 
L 344.206925 272.331176 
L 343.968845 272.209989 
L 343.730765 271.863483 
L 343.135565 270.735488 
L 342.302285 270.051882 
L 341.707085 270.13664 
L 341.469005 270.443425 
L 340.873805 271.414325 
L 340.635725 271.415433 
L 340.397645 271.152359 
L 338.850125 268.437072 
L 338.493005 268.200166 
L 338.254925 268.024778 
L 338.135885 268.061368 
L 337.897805 268.507865 
L 337.540685 270.012679 
L 337.064525 272.1903 
L 336.826445 272.511893 
L 336.588365 272.481316 
L 336.350285 272.290732 
L 336.112205 271.726878 
L 335.636045 269.411785 
L 335.278925 268.109437 
L 335.040845 267.823761 
L 334.326605 267.623343 
L 333.969485 268.03723 
L 333.374285 268.767846 
L 332.898125 269.105895 
L 332.660045 269.123275 
L 332.421965 268.855364 
L 331.707725 267.5672 
L 331.469645 267.613736 
L 331.231565 267.962048 
L 330.517325 269.502376 
L 330.279245 269.474373 
L 330.041165 269.034202 
L 329.684045 268.249227 
L 329.565005 268.165839 
L 329.445965 268.219207 
L 329.207885 268.678251 
L 328.136525 271.475426 
L 327.660365 272.128671 
L 327.422285 272.147349 
L 326.350925 271.513267 
L 325.993805 271.009506 
L 325.636685 269.975381 
L 325.279565 268.873695 
L 325.041485 268.804828 
L 323.017805 271.036262 
L 322.422605 271.345085 
L 322.184525 270.818234 
L 321.470285 268.078602 
L 321.113165 267.697769 
L 320.875085 267.722101 
L 320.517965 267.844005 
L 320.279885 267.592819 
L 320.041805 266.789139 
L 319.565645 263.546258 
L 319.208525 261.822537 
L 319.089485 261.698779 
L 318.970445 261.764421 
L 318.494285 262.757778 
L 317.899085 264.088214 
L 317.541965 264.972543 
L 317.422925 265.029088 
L 317.184845 264.767318 
L 316.708685 264.060653 
L 315.756365 263.535397 
L 315.518285 263.916756 
L 315.161165 264.665717 
L 315.042125 264.697753 
L 314.804045 264.3038 
L 314.446925 262.80421 
L 313.494605 257.28745 
L 313.375565 257.21722 
L 313.137485 257.548628 
L 312.066125 260.015892 
L 311.828045 260.104682 
L 311.232845 259.789367 
L 310.994765 259.830297 
L 310.637645 259.549026 
L 310.399565 259.451686 
L 310.042445 259.65709 
L 309.685325 260.099232 
L 309.328205 261.173419 
L 308.375885 265.170545 
L 307.899725 265.935762 
L 307.661645 265.870099 
L 307.304525 265.607305 
L 307.066445 265.735144 
L 306.709325 266.274466 
L 306.114125 267.522082 
L 305.876045 267.838115 
L 305.518925 268.920714 
L 305.280845 269.508531 
L 305.042765 269.586405 
L 304.804685 269.613035 
L 304.090445 270.327662 
L 303.733325 270.036863 
L 303.495245 270.16833 
L 302.900045 271.302644 
L 302.781005 271.237115 
L 302.304845 270.615837 
L 301.828685 271.209508 
L 301.352525 270.249448 
L 301.233485 270.338733 
L 300.876365 270.801759 
L 300.638285 270.269527 
L 300.281165 269.189364 
L 300.162125 269.126719 
L 299.924045 269.481939 
L 299.447885 270.546298 
L 298.971725 270.771455 
L 298.495565 271.825688 
L 298.376525 271.77805 
L 297.900365 271.020631 
L 297.543245 271.133257 
L 297.424205 270.94285 
L 297.186125 269.755215 
L 296.829005 265.984731 
L 295.876685 253.777897 
L 295.757645 253.349717 
L 295.638605 253.464788 
L 295.400525 255.288474 
L 294.329165 268.037305 
L 294.091085 268.78481 
L 293.972045 268.726215 
L 293.733965 267.932249 
L 293.257805 265.919813 
L 292.067405 263.420795 
L 291.829325 263.419514 
L 290.996045 264.249623 
L 290.638925 264.535436 
L 290.519885 264.475611 
L 290.281805 263.805104 
L 289.924685 261.414492 
L 289.210445 256.41884 
L 288.853325 255.086215 
L 288.615245 254.703344 
L 288.496205 254.721235 
L 288.258125 255.30606 
L 287.781965 258.010706 
L 287.186765 261.061867 
L 286.948685 261.459779 
L 286.710605 261.377509 
L 286.472525 261.011983 
L 286.234445 260.24164 
L 285.639245 257.870675 
L 285.282125 257.429272 
L 284.925005 257.179104 
L 284.686925 256.503774 
L 283.139405 248.263183 
L 283.020365 248.217713 
L 282.901325 248.389103 
L 282.663245 249.374304 
L 282.068045 253.72553 
L 281.234765 259.630062 
L 280.163405 263.669998 
L 279.806285 264.435228 
L 279.449165 266.395995 
L 278.973005 268.737352 
L 277.782605 271.515435 
L 277.544525 271.233013 
L 277.187405 270.733863 
L 276.949325 270.719919 
L 276.473165 270.943896 
L 275.877965 270.819959 
L 275.520845 271.708205 
L 275.163725 272.407135 
L 274.925645 272.43948 
L 274.449485 272.146347 
L 274.092365 271.478532 
L 273.497165 269.559384 
L 272.901965 267.671706 
L 272.663885 267.30681 
L 272.425805 267.386944 
L 272.068685 267.659145 
L 271.830605 267.201874 
L 271.354445 266.016099 
L 270.640205 264.795288 
L 270.402125 264.98113 
L 269.687885 266.090911 
L 269.449805 265.326539 
L 268.973645 263.632127 
L 268.378445 262.630925 
L 268.259405 262.712545 
L 268.021325 263.404502 
L 267.664205 264.470148 
L 267.545165 264.564193 
L 267.426125 264.509799 
L 267.188045 264.028401 
L 266.711885 262.828187 
L 266.235725 262.275343 
L 265.759565 261.114993 
L 265.521485 261.174354 
L 265.283405 261.153009 
L 265.045325 260.61376 
L 264.569165 259.371297 
L 264.093005 258.841357 
L 263.735885 258.823454 
L 263.497805 259.076391 
L 263.259725 259.755584 
L 262.783565 261.187536 
L 262.664525 261.11401 
L 262.426445 260.409564 
L 261.831245 258.367347 
L 261.593165 258.194159 
L 261.474125 258.285757 
L 261.236045 258.962364 
L 260.878925 261.524842 
L 260.402765 265.250712 
L 260.045645 266.354132 
L 259.807565 266.532563 
L 259.450445 266.362656 
L 259.212365 266.294566 
L 258.974285 266.442202 
L 258.617165 267.110837 
L 258.260045 267.682999 
L 257.902925 267.679053 
L 257.545805 267.563455 
L 257.307725 267.138689 
L 256.831565 265.924053 
L 256.712525 265.95045 
L 256.474445 266.673649 
L 255.641165 270.512484 
L 255.403085 270.830858 
L 255.165005 270.7473 
L 254.926925 270.212943 
L 254.093645 267.188953 
L 253.974605 267.319283 
L 253.736525 268.079654 
L 252.665165 272.68635 
L 252.546125 272.88672 
L 252.427085 272.861659 
L 252.189005 272.062071 
L 251.593805 268.006354 
L 251.117645 265.158939 
L 250.879565 264.725746 
L 250.760525 264.743082 
L 250.522445 265.135226 
L 250.046285 266.13904 
L 249.927245 265.910568 
L 249.689165 264.42432 
L 249.332045 259.697347 
L 248.498765 245.716358 
L 248.379725 245.292727 
L 248.260685 245.357336 
L 248.022605 246.766261 
L 247.665485 251.59115 
L 246.951245 262.33234 
L 246.713165 263.739065 
L 246.594125 263.871434 
L 246.356045 263.369103 
L 245.879885 261.362198 
L 245.284685 258.347898 
L 244.927565 258.016753 
L 244.689485 257.696226 
L 244.332365 256.739104 
L 244.094285 255.398403 
L 243.737165 251.857179 
L 243.380045 246.153209 
L 242.903885 234.181785 
L 242.546765 218.032322 
L 242.189645 188.677555 
L 241.118285 76.417142 
L 240.999245 74.353968 
L 240.880205 75.797915 
L 240.642125 88.70024 
L 240.285005 127.251364 
L 239.451725 222.806433 
L 239.094605 240.271487 
L 238.737485 248.417724 
L 238.380365 252.520422 
L 238.023245 254.441288 
L 237.428045 256.372203 
L 236.475725 260.755656 
L 236.356685 260.697098 
L 236.118605 260.084321 
L 235.523405 258.125612 
L 235.285325 257.80926 
L 235.047245 257.856017 
L 234.809165 258.457526 
L 234.213965 261.428275 
L 233.618765 264.035129 
L 233.261645 264.909767 
L 232.428365 268.527554 
L 231.952205 269.246807 
L 231.476045 269.527777 
L 231.237965 269.379087 
L 230.999885 269.100903 
L 230.880845 269.103117 
L 230.642765 269.68554 
L 230.047565 272.141017 
L 229.928525 272.232421 
L 229.690445 272.018679 
L 229.214285 271.556917 
L 228.381005 270.780686 
L 228.142925 270.978835 
L 227.785805 271.762131 
L 227.428685 272.393162 
L 226.476365 272.238034 
L 225.881165 271.507553 
L 225.643085 271.660468 
L 225.166925 272.169123 
L 225.047885 272.113595 
L 224.809805 271.62947 
L 224.333645 270.329884 
L 223.976525 270.052135 
L 223.738445 270.108103 
L 223.500365 270.532993 
L 222.905165 272.046327 
L 222.786125 272.062413 
L 222.667085 271.875121 
L 222.429005 270.810871 
L 221.952845 268.325394 
L 221.714765 268.210905 
L 221.357645 268.719484 
L 220.643405 270.122746 
L 220.048205 269.852733 
L 219.810125 269.022312 
L 219.453005 267.665991 
L 219.333965 267.594604 
L 219.095885 267.980453 
L 217.786445 271.058885 
L 217.667405 271.175077 
L 217.548365 271.131946 
L 217.310285 270.320177 
L 216.834125 267.839143 
L 216.715085 267.739661 
L 216.357965 268.139071 
L 216.000845 268.642134 
L 215.643725 269.251878 
L 215.524685 269.168897 
L 215.286605 268.471397 
L 214.453325 265.173338 
L 214.334285 265.208306 
L 214.096205 265.928587 
L 213.501005 268.167351 
L 213.381965 268.296658 
L 213.262925 268.24785 
L 213.024845 267.715375 
L 212.548685 266.616071 
L 211.477325 265.678129 
L 211.001165 265.84593 
L 210.167885 265.454233 
L 209.810765 265.855179 
L 209.453645 266.639376 
L 208.977485 268.66478 
L 208.620365 270.21682 
L 208.501325 270.398266 
L 208.382285 270.293054 
L 208.144205 269.312554 
L 207.787085 267.643331 
L 207.191885 266.351198 
L 207.072845 266.236006 
L 206.953805 266.335552 
L 206.715725 267.246226 
L 206.239565 269.497076 
L 206.001485 269.71277 
L 205.644365 269.414229 
L 205.525325 269.544952 
L 205.049165 270.572124 
L 204.811085 269.948144 
L 204.334925 268.27224 
L 203.858765 267.261177 
L 203.739725 267.206855 
L 203.620685 267.331819 
L 203.263565 268.500481 
L 202.906445 269.449084 
L 202.668365 269.493987 
L 202.192205 269.203498 
L 201.597005 269.679459 
L 201.358925 270.042748 
L 200.882765 271.157535 
L 200.644685 271.019971 
L 200.287565 270.78406 
L 200.049485 270.635763 
L 199.573325 269.934346 
L 199.097165 270.00018 
L 198.859085 269.442408 
L 198.144845 267.397668 
L 197.906765 267.082347 
L 197.549645 266.818882 
L 197.311565 266.014046 
L 196.478285 262.152488 
L 196.240205 261.982097 
L 195.883085 262.322888 
L 195.406925 262.305038 
L 194.930765 263.394359 
L 194.811725 263.273179 
L 194.573645 262.308444 
L 194.335565 261.261085 
L 194.216525 261.114238 
L 194.097485 261.34134 
L 193.740365 263.619812 
L 193.264205 266.14312 
L 192.669005 268.148395 
L 192.549965 268.06717 
L 192.311885 267.355988 
L 191.954765 266.24829 
L 191.835725 266.198359 
L 191.597645 266.551904 
L 191.359565 266.92308 
L 191.121485 266.914831 
L 190.764365 266.548981 
L 190.407245 265.895336 
L 189.812045 264.402014 
L 189.693005 264.510015 
L 188.978765 266.382414 
L 188.621645 266.25972 
L 187.788365 265.724693 
L 187.431245 264.74172 
L 187.193165 264.189083 
L 186.955085 264.077302 
L 186.240845 264.176447 
L 185.764685 265.508104 
L 185.526605 266.007303 
L 185.288525 266.04464 
L 184.693325 265.332642 
L 184.098125 265.876234 
L 182.907725 264.625484 
L 182.669645 264.879026 
L 182.431565 265.523993 
L 181.598285 268.865483 
L 181.479245 268.764427 
L 181.122125 267.771128 
L 180.765005 266.944902 
L 180.526925 266.714237 
L 180.288845 266.725244 
L 180.050765 266.904998 
L 179.812685 267.374024 
L 179.455565 269.031024 
L 179.217485 269.936338 
L 178.979405 270.041019 
L 178.622285 269.860044 
L 178.146125 269.801301 
L 177.669965 269.521567 
L 177.431885 269.677712 
L 177.193805 270.274755 
L 176.717645 271.811145 
L 176.360525 272.207926 
L 176.122445 272.297042 
L 175.884365 271.984928 
L 174.813005 269.687061 
L 174.455885 269.384962 
L 173.979725 269.736719 
L 173.741645 269.126759 
L 173.265485 267.460423 
L 173.027405 267.151514 
L 172.908365 267.160406 
L 172.670285 267.535493 
L 172.313165 268.802782 
L 171.479885 272.583253 
L 171.360845 272.596968 
L 171.122765 272.286525 
L 170.289485 270.973262 
L 169.813325 271.276037 
L 169.099085 271.65475 
L 168.861005 271.187429 
L 167.789645 268.367305 
L 166.956365 267.811777 
L 166.718285 268.190758 
L 165.765965 270.557662 
L 165.646925 270.624332 
L 165.527885 270.54149 
L 165.289805 269.541305 
L 164.456525 263.255815 
L 164.337485 263.119266 
L 164.218445 263.27971 
L 163.861325 264.748086 
L 163.504205 265.835799 
L 163.147085 266.052557 
L 163.028045 266.038471 
L 162.789965 265.595959 
L 162.313805 263.411927 
L 161.956685 262.096784 
L 161.361485 261.083492 
L 161.004365 259.144661 
L 160.052045 251.725307 
L 159.218765 242.949027 
L 158.861645 239.428651 
L 158.385485 232.04267 
L 158.028365 221.972352 
L 157.671245 202.984973 
L 157.195085 160.04628 
L 156.123725 50.123053 
L 155.885645 41.835831 
L 155.766605 40.586024 
L 155.647565 40.999757 
L 155.409485 45.940663 
L 154.933325 65.007606 
L 153.861965 116.867665 
L 152.195405 220.524523 
L 151.600205 242.002752 
L 150.885965 260.248932 
L 150.409805 266.865863 
L 149.933645 270.611355 
L 149.576525 272.21079 
L 149.457485 272.201373 
L 149.219405 271.079305 
L 148.505165 264.966159 
L 147.790925 256.035436 
L 147.552845 255.511768 
L 147.314765 256.271991 
L 146.957645 258.524152 
L 146.600525 261.997491 
L 146.005325 268.373433 
L 145.648205 269.934029 
L 145.291085 270.378842 
L 144.814925 270.662978 
L 144.576845 270.61909 
L 144.338765 270.857314 
L 143.862605 271.582752 
L 142.910285 271.663429 
L 142.672205 271.470841 
L 142.315085 271.129224 
L 141.838925 271.268935 
L 141.481805 270.646581 
L 141.243725 270.368019 
L 141.005645 270.421937 
L 140.648525 270.936037 
L 140.291405 271.408458 
L 139.577165 271.775344 
L 138.981965 271.17812 
L 138.624845 271.476328 
L 138.386765 271.226008 
L 137.791565 270.063283 
L 137.315405 270.344696 
L 136.244045 269.150761 
L 135.767885 268.061551 
L 135.648845 268.094822 
L 135.410765 268.677246 
L 134.934605 269.996403 
L 134.577485 270.476413 
L 134.458445 270.506152 
L 134.220365 270.188227 
L 133.863245 269.587547 
L 133.625165 269.572217 
L 133.387085 269.700643 
L 132.910925 270.244998 
L 132.672845 269.933333 
L 132.315725 269.29957 
L 131.482445 269.076508 
L 130.887245 269.729137 
L 130.649165 269.511786 
L 130.173005 268.817958 
L 129.934925 268.814177 
L 129.577805 269.031265 
L 128.982605 269.598121 
L 128.625485 269.127535 
L 128.268365 268.701398 
L 128.030285 268.716945 
L 127.792205 269.302674 
L 127.435085 270.387252 
L 127.197005 270.459406 
L 126.958925 270.45493 
L 126.601805 270.764215 
L 126.482765 270.678535 
L 125.768525 269.433733 
L 125.530445 269.834991 
L 124.935245 271.293598 
L 124.340045 271.862167 
L 124.101965 272.103265 
L 123.863885 271.923557 
L 123.506765 271.595151 
L 122.554445 272.084729 
L 122.197325 272.198646 
L 121.721165 271.982973 
L 121.483085 271.658609 
L 121.006925 270.805137 
L 120.768845 270.767057 
L 120.411725 271.155335 
L 120.054605 271.530613 
L 119.697485 271.430227 
L 119.221325 271.199498 
L 118.983245 270.563554 
L 118.507085 269.201023 
L 118.388045 269.172148 
L 118.149965 269.480298 
L 117.792845 269.93689 
L 117.554765 269.753539 
L 117.316685 269.630716 
L 117.078605 270.051347 
L 116.721485 270.929448 
L 116.602445 270.987179 
L 116.364365 270.760547 
L 115.888205 270.218726 
L 115.412045 270.129144 
L 115.054925 270.250314 
L 114.340685 270.660053 
L 114.102605 270.553316 
L 113.864525 270.084548 
L 113.388365 269.02048 
L 113.150285 269.15123 
L 112.197965 270.641232 
L 111.840845 270.485933 
L 111.364685 270.146403 
L 111.007565 269.918781 
L 110.650445 270.269577 
L 110.174285 270.754662 
L 109.341005 272.317351 
L 108.983885 272.602617 
L 108.745805 272.467757 
L 108.507725 271.914095 
L 107.793485 268.852247 
L 107.317325 267.430259 
L 107.198285 267.406399 
L 106.960205 267.946664 
L 106.245965 270.736439 
L 106.126925 270.81291 
L 105.888845 270.567222 
L 105.412685 269.399026 
L 104.936525 268.109401 
L 104.817485 268.081137 
L 104.579405 268.527044 
L 104.222285 269.371986 
L 103.984205 269.548597 
L 103.746125 269.403182 
L 103.389005 268.661583 
L 102.555725 266.910543 
L 102.436685 266.8417 
L 102.317645 266.964612 
L 101.960525 268.169096 
L 101.246285 270.474968 
L 100.889165 271.104849 
L 100.770125 271.122092 
L 100.532045 270.787815 
L 99.817805 268.918517 
L 99.460685 268.735111 
L 99.222605 268.813215 
L 98.865485 269.314342 
L 98.270285 270.165713 
L 97.913165 270.241414 
L 97.675085 270.711062 
L 97.437005 271.205558 
L 97.317965 271.154611 
L 96.841805 270.087009 
L 96.365645 270.215798 
L 95.889485 269.771406 
L 95.413325 269.639854 
L 94.937165 270.234523 
L 94.699085 269.602772 
L 94.341965 268.49099 
L 94.103885 268.539228 
L 93.746765 268.909588 
L 93.389645 270.103555 
L 93.032525 270.89734 
L 92.556365 271.438579 
L 92.437325 271.369001 
L 92.199245 270.737264 
L 91.842125 269.664147 
L 91.604045 269.495509 
L 91.365965 269.836579 
L 90.770765 271.26795 
L 90.175565 272.006535 
L 89.937485 271.752701 
L 89.342285 270.765618 
L 89.104205 270.676204 
L 88.628045 271.113107 
L 88.270925 270.866998 
L 88.032845 271.293795 
L 87.675725 272.009308 
L 87.437645 271.804772 
L 86.723405 270.834451 
L 86.485325 270.938614 
L 86.128205 271.291554 
L 85.771085 271.391619 
L 85.533005 271.792606 
L 85.175885 272.45239 
L 85.056845 272.38978 
L 84.580685 271.731601 
L 84.223565 271.622323 
L 83.985485 271.086743 
L 83.152205 268.774404 
L 83.033165 268.70312 
L 82.795085 268.97007 
L 81.723725 270.942302 
L 81.485645 270.563839 
L 81.247565 270.179071 
L 81.128525 270.17724 
L 80.533325 270.667409 
L 80.057165 270.584962 
L 79.223885 269.873521 
L 78.866765 269.354548 
L 78.747725 269.346896 
L 78.509645 269.707065 
L 78.152525 270.306474 
L 77.914445 270.272488 
L 77.438285 269.849766 
L 77.200205 270.139651 
L 76.366925 271.820024 
L 76.009805 272.190222 
L 75.890765 272.10955 
L 75.652685 271.424084 
L 74.938445 268.275149 
L 74.700365 267.841997 
L 74.462285 267.829016 
L 73.867085 268.819394 
L 73.390925 269.764197 
L 73.152845 269.632454 
L 72.914765 269.549698 
L 72.676685 269.966114 
L 72.200525 271.014181 
L 71.843405 271.283723 
L 71.129165 271.283842 
L 70.176845 270.941202 
L 69.700685 270.200579 
L 69.343565 270.169304 
L 69.105485 270.397688 
L 68.748365 270.774124 
L 68.510285 270.786031 
L 68.272205 271.244941 
L 67.915085 272.130675 
L 67.796045 272.152908 
L 67.557965 271.833376 
L 67.081805 271.160772 
L 66.367565 270.394533 
L 66.129485 270.436004 
L 65.891405 270.945104 
L 65.534285 271.67544 
L 64.939085 271.95212 
L 64.343885 271.666462 
L 64.105805 271.324336 
L 63.629645 270.433082 
L 63.153485 270.337909 
L 62.915405 270.271023 
L 62.677325 270.760091 
L 62.320205 271.719181 
L 62.082125 271.98216 
L 61.963085 271.999783 
L 61.725005 271.6581 
L 61.248845 270.395996 
L 61.010765 270.251748 
L 60.772685 270.363254 
L 59.463245 271.695105 
L 59.344205 271.55951 
L 58.629965 269.930692 
L 58.153805 270.010461 
L 57.796685 269.699549 
L 57.558605 269.656321 
L 57.320525 270.130672 
L 56.963405 270.805797 
L 56.368205 270.977899 
L 55.653965 271.778299 
L 55.415885 271.217783 
L 54.820685 269.681968 
L 54.344525 268.668804 
L 54.106445 268.756193 
L 53.511245 269.268232 
L 53.154125 270.052186 
L 53.035085 270.088089 
L 52.677965 269.839994 
L 52.439885 270.019843 
L 51.725645 270.881668 
L 51.130445 271.439513 
L 50.535245 272.21734 
L 50.059085 271.888719 
L 50.059085 271.888719 
" clip-path="url(#p56d9e300c6)" style="fill: none; stroke: #4c72b0; stroke-linecap: round"/>
   </g>
   <g id="patch_3">
    <path d="M 50.178125 277.248797 
L 50.178125 11.136797 
" style="fill: none; stroke: #262626; stroke-width: 1.25; stroke-linejoin: miter; stroke-linecap: square"/>
   </g>
   <g id="patch_4">
    <path d="M 50.178125 277.248797 
L 407.298125 277.248797 
" style="fill: none; stroke: #262626; stroke-width: 1.25; stroke-linejoin: miter; stroke-linecap: square"/>
   </g>
   <g id="legend_1"/>
  </g>
 </g>
 <defs>
  <clipPath id="p56d9e300c6">
   <rect x="50.178125" y="11.136797" width="357.12" height="266.112"/>
  </clipPath>
 </defs>
</svg>
