<?xml version="1.0" encoding="utf-8" standalone="no"?>
<!DOCTYPE svg PUBLIC "-//W3C//DTD SVG 1.1//EN"
  "http://www.w3.org/Graphics/SVG/1.1/DTD/svg11.dtd">
<svg xmlns:xlink="http://www.w3.org/1999/xlink" width="414.498125pt" height="319.168641pt" viewBox="0 0 414.498125 319.168641" xmlns="http://www.w3.org/2000/svg" version="1.1">
 <metadata>
  <rdf:RDF xmlns:dc="http://purl.org/dc/elements/1.1/" xmlns:cc="http://creativecommons.org/ns#" xmlns:rdf="http://www.w3.org/1999/02/22-rdf-syntax-ns#">
   <cc:Work>
    <dc:type rdf:resource="http://purl.org/dc/dcmitype/StillImage"/>
    <dc:date>2024-05-21T21:53:49.254811</dc:date>
    <dc:format>image/svg+xml</dc:format>
    <dc:creator>
     <cc:Agent>
      <dc:title>Matplotlib v3.7.1, https://matplotlib.org/</dc:title>
     </cc:Agent>
    </dc:creator>
   </cc:Work>
  </rdf:RDF>
 </metadata>
 <defs>
  <style type="text/css">*{stroke-linejoin: round; stroke-linecap: butt}</style>
 </defs>
 <g id="figure_1">
  <g id="patch_1">
   <path d="M 0 319.168641 
L 414.498125 319.168641 
L 414.498125 0 
L 0 0 
z
" style="fill: #ffffff"/>
  </g>
  <g id="axes_1">
   <g id="patch_2">
    <path d="M 50.178125 277.248797 
L 407.298125 277.248797 
L 407.298125 11.136797 
L 50.178125 11.136797 
z
" style="fill: #ffffff"/>
   </g>
   <g id="matplotlib.axis_1">
    <g id="xtick_1">
     <g id="line2d_1">
      <defs>
       <path id="me0ecf6ace6" d="M 0 0 
L 0 -6 
" style="stroke: #262626; stroke-width: 1.25"/>
      </defs>
      <g>
       <use xlink:href="#me0ecf6ace6" x="383.490125" y="277.248797" style="fill: #262626; stroke: #262626; stroke-width: 1.25"/>
      </g>
     </g>
     <g id="text_1">
      <!-- 600 -->
      <g style="fill: #262626" transform="translate(374.314578 288.622391) scale(0.11 -0.11)">
       <defs>
        <path id="ArialMT-36" d="M 3184 3459 
L 2625 3416 
Q 2550 3747 2413 3897 
Q 2184 4138 1850 4138 
Q 1581 4138 1378 3988 
Q 1113 3794 959 3422 
Q 806 3050 800 2363 
Q 1003 2672 1297 2822 
Q 1591 2972 1913 2972 
Q 2475 2972 2870 2558 
Q 3266 2144 3266 1488 
Q 3266 1056 3080 686 
Q 2894 316 2569 119 
Q 2244 -78 1831 -78 
Q 1128 -78 684 439 
Q 241 956 241 2144 
Q 241 3472 731 4075 
Q 1159 4600 1884 4600 
Q 2425 4600 2770 4297 
Q 3116 3994 3184 3459 
z
M 888 1484 
Q 888 1194 1011 928 
Q 1134 663 1356 523 
Q 1578 384 1822 384 
Q 2178 384 2434 671 
Q 2691 959 2691 1453 
Q 2691 1928 2437 2201 
Q 2184 2475 1800 2475 
Q 1419 2475 1153 2201 
Q 888 1928 888 1484 
z
" transform="scale(0.015625)"/>
        <path id="ArialMT-30" d="M 266 2259 
Q 266 3072 433 3567 
Q 600 4063 929 4331 
Q 1259 4600 1759 4600 
Q 2128 4600 2406 4451 
Q 2684 4303 2865 4023 
Q 3047 3744 3150 3342 
Q 3253 2941 3253 2259 
Q 3253 1453 3087 958 
Q 2922 463 2592 192 
Q 2263 -78 1759 -78 
Q 1097 -78 719 397 
Q 266 969 266 2259 
z
M 844 2259 
Q 844 1131 1108 757 
Q 1372 384 1759 384 
Q 2147 384 2411 759 
Q 2675 1134 2675 2259 
Q 2675 3391 2411 3762 
Q 2147 4134 1753 4134 
Q 1366 4134 1134 3806 
Q 844 3388 844 2259 
z
" transform="scale(0.015625)"/>
       </defs>
       <use xlink:href="#ArialMT-36"/>
       <use xlink:href="#ArialMT-30" x="55.615234"/>
       <use xlink:href="#ArialMT-30" x="111.230469"/>
      </g>
     </g>
    </g>
    <g id="xtick_2">
     <g id="line2d_2">
      <g>
       <use xlink:href="#me0ecf6ace6" x="335.874125" y="277.248797" style="fill: #262626; stroke: #262626; stroke-width: 1.25"/>
      </g>
     </g>
     <g id="text_2">
      <!-- 800 -->
      <g style="fill: #262626" transform="translate(326.698578 288.622391) scale(0.11 -0.11)">
       <defs>
        <path id="ArialMT-38" d="M 1131 2484 
Q 781 2613 612 2850 
Q 444 3088 444 3419 
Q 444 3919 803 4259 
Q 1163 4600 1759 4600 
Q 2359 4600 2725 4251 
Q 3091 3903 3091 3403 
Q 3091 3084 2923 2848 
Q 2756 2613 2416 2484 
Q 2838 2347 3058 2040 
Q 3278 1734 3278 1309 
Q 3278 722 2862 322 
Q 2447 -78 1769 -78 
Q 1091 -78 675 323 
Q 259 725 259 1325 
Q 259 1772 486 2073 
Q 713 2375 1131 2484 
z
M 1019 3438 
Q 1019 3113 1228 2906 
Q 1438 2700 1772 2700 
Q 2097 2700 2305 2904 
Q 2513 3109 2513 3406 
Q 2513 3716 2298 3927 
Q 2084 4138 1766 4138 
Q 1444 4138 1231 3931 
Q 1019 3725 1019 3438 
z
M 838 1322 
Q 838 1081 952 856 
Q 1066 631 1291 507 
Q 1516 384 1775 384 
Q 2178 384 2440 643 
Q 2703 903 2703 1303 
Q 2703 1709 2433 1975 
Q 2163 2241 1756 2241 
Q 1359 2241 1098 1978 
Q 838 1716 838 1322 
z
" transform="scale(0.015625)"/>
       </defs>
       <use xlink:href="#ArialMT-38"/>
       <use xlink:href="#ArialMT-30" x="55.615234"/>
       <use xlink:href="#ArialMT-30" x="111.230469"/>
      </g>
     </g>
    </g>
    <g id="xtick_3">
     <g id="line2d_3">
      <g>
       <use xlink:href="#me0ecf6ace6" x="288.258125" y="277.248797" style="fill: #262626; stroke: #262626; stroke-width: 1.25"/>
      </g>
     </g>
     <g id="text_3">
      <!-- 1000 -->
      <g style="fill: #262626" transform="translate(276.024063 288.622391) scale(0.11 -0.11)">
       <defs>
        <path id="ArialMT-31" d="M 2384 0 
L 1822 0 
L 1822 3584 
Q 1619 3391 1289 3197 
Q 959 3003 697 2906 
L 697 3450 
Q 1169 3672 1522 3987 
Q 1875 4303 2022 4600 
L 2384 4600 
L 2384 0 
z
" transform="scale(0.015625)"/>
       </defs>
       <use xlink:href="#ArialMT-31"/>
       <use xlink:href="#ArialMT-30" x="55.615234"/>
       <use xlink:href="#ArialMT-30" x="111.230469"/>
       <use xlink:href="#ArialMT-30" x="166.845703"/>
      </g>
     </g>
    </g>
    <g id="xtick_4">
     <g id="line2d_4">
      <g>
       <use xlink:href="#me0ecf6ace6" x="240.642125" y="277.248797" style="fill: #262626; stroke: #262626; stroke-width: 1.25"/>
      </g>
     </g>
     <g id="text_4">
      <!-- 1200 -->
      <g style="fill: #262626" transform="translate(228.408063 288.622391) scale(0.11 -0.11)">
       <defs>
        <path id="ArialMT-32" d="M 3222 541 
L 3222 0 
L 194 0 
Q 188 203 259 391 
Q 375 700 629 1000 
Q 884 1300 1366 1694 
Q 2113 2306 2375 2664 
Q 2638 3022 2638 3341 
Q 2638 3675 2398 3904 
Q 2159 4134 1775 4134 
Q 1369 4134 1125 3890 
Q 881 3647 878 3216 
L 300 3275 
Q 359 3922 746 4261 
Q 1134 4600 1788 4600 
Q 2447 4600 2831 4234 
Q 3216 3869 3216 3328 
Q 3216 3053 3103 2787 
Q 2991 2522 2730 2228 
Q 2469 1934 1863 1422 
Q 1356 997 1212 845 
Q 1069 694 975 541 
L 3222 541 
z
" transform="scale(0.015625)"/>
       </defs>
       <use xlink:href="#ArialMT-31"/>
       <use xlink:href="#ArialMT-32" x="55.615234"/>
       <use xlink:href="#ArialMT-30" x="111.230469"/>
       <use xlink:href="#ArialMT-30" x="166.845703"/>
      </g>
     </g>
    </g>
    <g id="xtick_5">
     <g id="line2d_5">
      <g>
       <use xlink:href="#me0ecf6ace6" x="193.026125" y="277.248797" style="fill: #262626; stroke: #262626; stroke-width: 1.25"/>
      </g>
     </g>
     <g id="text_5">
      <!-- 1400 -->
      <g style="fill: #262626" transform="translate(180.792063 288.622391) scale(0.11 -0.11)">
       <defs>
        <path id="ArialMT-34" d="M 2069 0 
L 2069 1097 
L 81 1097 
L 81 1613 
L 2172 4581 
L 2631 4581 
L 2631 1613 
L 3250 1613 
L 3250 1097 
L 2631 1097 
L 2631 0 
L 2069 0 
z
M 2069 1613 
L 2069 3678 
L 634 1613 
L 2069 1613 
z
" transform="scale(0.015625)"/>
       </defs>
       <use xlink:href="#ArialMT-31"/>
       <use xlink:href="#ArialMT-34" x="55.615234"/>
       <use xlink:href="#ArialMT-30" x="111.230469"/>
       <use xlink:href="#ArialMT-30" x="166.845703"/>
      </g>
     </g>
    </g>
    <g id="xtick_6">
     <g id="line2d_6">
      <g>
       <use xlink:href="#me0ecf6ace6" x="145.410125" y="277.248797" style="fill: #262626; stroke: #262626; stroke-width: 1.25"/>
      </g>
     </g>
     <g id="text_6">
      <!-- 1600 -->
      <g style="fill: #262626" transform="translate(133.176063 288.622391) scale(0.11 -0.11)">
       <use xlink:href="#ArialMT-31"/>
       <use xlink:href="#ArialMT-36" x="55.615234"/>
       <use xlink:href="#ArialMT-30" x="111.230469"/>
       <use xlink:href="#ArialMT-30" x="166.845703"/>
      </g>
     </g>
    </g>
    <g id="xtick_7">
     <g id="line2d_7">
      <g>
       <use xlink:href="#me0ecf6ace6" x="97.794125" y="277.248797" style="fill: #262626; stroke: #262626; stroke-width: 1.25"/>
      </g>
     </g>
     <g id="text_7">
      <!-- 1800 -->
      <g style="fill: #262626" transform="translate(85.560063 288.622391) scale(0.11 -0.11)">
       <use xlink:href="#ArialMT-31"/>
       <use xlink:href="#ArialMT-38" x="55.615234"/>
       <use xlink:href="#ArialMT-30" x="111.230469"/>
       <use xlink:href="#ArialMT-30" x="166.845703"/>
      </g>
     </g>
    </g>
    <g id="xtick_8">
     <g id="line2d_8">
      <g>
       <use xlink:href="#me0ecf6ace6" x="50.178125" y="277.248797" style="fill: #262626; stroke: #262626; stroke-width: 1.25"/>
      </g>
     </g>
     <g id="text_8">
      <!-- 2000 -->
      <g style="fill: #262626" transform="translate(37.944063 288.622391) scale(0.11 -0.11)">
       <use xlink:href="#ArialMT-32"/>
       <use xlink:href="#ArialMT-30" x="55.615234"/>
       <use xlink:href="#ArialMT-30" x="111.230469"/>
       <use xlink:href="#ArialMT-30" x="166.845703"/>
      </g>
     </g>
    </g>
    <g id="xtick_9">
     <g id="line2d_9">
      <defs>
       <path id="m097f7bbf7e" d="M 0 0 
L 0 -4 
" style="stroke: #262626"/>
      </defs>
      <g>
       <use xlink:href="#m097f7bbf7e" x="359.682125" y="277.248797" style="fill: #262626; stroke: #262626"/>
      </g>
     </g>
    </g>
    <g id="xtick_10">
     <g id="line2d_10">
      <g>
       <use xlink:href="#m097f7bbf7e" x="312.066125" y="277.248797" style="fill: #262626; stroke: #262626"/>
      </g>
     </g>
    </g>
    <g id="xtick_11">
     <g id="line2d_11">
      <g>
       <use xlink:href="#m097f7bbf7e" x="264.450125" y="277.248797" style="fill: #262626; stroke: #262626"/>
      </g>
     </g>
    </g>
    <g id="xtick_12">
     <g id="line2d_12">
      <g>
       <use xlink:href="#m097f7bbf7e" x="216.834125" y="277.248797" style="fill: #262626; stroke: #262626"/>
      </g>
     </g>
    </g>
    <g id="xtick_13">
     <g id="line2d_13">
      <g>
       <use xlink:href="#m097f7bbf7e" x="169.218125" y="277.248797" style="fill: #262626; stroke: #262626"/>
      </g>
     </g>
    </g>
    <g id="xtick_14">
     <g id="line2d_14">
      <g>
       <use xlink:href="#m097f7bbf7e" x="121.602125" y="277.248797" style="fill: #262626; stroke: #262626"/>
      </g>
     </g>
    </g>
    <g id="xtick_15">
     <g id="line2d_15">
      <g>
       <use xlink:href="#m097f7bbf7e" x="73.986125" y="277.248797" style="fill: #262626; stroke: #262626"/>
      </g>
     </g>
    </g>
    <g id="text_9">
     <!-- Wavenumber ($\mathregular{cm^{-1}}$) -->
     <g style="fill: #262626" transform="translate(174.198125 309.328641) scale(0.12 -0.12)">
      <defs>
       <path id="ArialMT-57" d="M 1294 0 
L 78 4581 
L 700 4581 
L 1397 1578 
Q 1509 1106 1591 641 
Q 1766 1375 1797 1488 
L 2669 4581 
L 3400 4581 
L 4056 2263 
Q 4303 1400 4413 641 
Q 4500 1075 4641 1638 
L 5359 4581 
L 5969 4581 
L 4713 0 
L 4128 0 
L 3163 3491 
Q 3041 3928 3019 4028 
Q 2947 3713 2884 3491 
L 1913 0 
L 1294 0 
z
" transform="scale(0.015625)"/>
       <path id="ArialMT-61" d="M 2588 409 
Q 2275 144 1986 34 
Q 1697 -75 1366 -75 
Q 819 -75 525 192 
Q 231 459 231 875 
Q 231 1119 342 1320 
Q 453 1522 633 1644 
Q 813 1766 1038 1828 
Q 1203 1872 1538 1913 
Q 2219 1994 2541 2106 
Q 2544 2222 2544 2253 
Q 2544 2597 2384 2738 
Q 2169 2928 1744 2928 
Q 1347 2928 1158 2789 
Q 969 2650 878 2297 
L 328 2372 
Q 403 2725 575 2942 
Q 747 3159 1072 3276 
Q 1397 3394 1825 3394 
Q 2250 3394 2515 3294 
Q 2781 3194 2906 3042 
Q 3031 2891 3081 2659 
Q 3109 2516 3109 2141 
L 3109 1391 
Q 3109 606 3145 398 
Q 3181 191 3288 0 
L 2700 0 
Q 2613 175 2588 409 
z
M 2541 1666 
Q 2234 1541 1622 1453 
Q 1275 1403 1131 1340 
Q 988 1278 909 1158 
Q 831 1038 831 891 
Q 831 666 1001 516 
Q 1172 366 1500 366 
Q 1825 366 2078 508 
Q 2331 650 2450 897 
Q 2541 1088 2541 1459 
L 2541 1666 
z
" transform="scale(0.015625)"/>
       <path id="ArialMT-76" d="M 1344 0 
L 81 3319 
L 675 3319 
L 1388 1331 
Q 1503 1009 1600 663 
Q 1675 925 1809 1294 
L 2547 3319 
L 3125 3319 
L 1869 0 
L 1344 0 
z
" transform="scale(0.015625)"/>
       <path id="ArialMT-65" d="M 2694 1069 
L 3275 997 
Q 3138 488 2766 206 
Q 2394 -75 1816 -75 
Q 1088 -75 661 373 
Q 234 822 234 1631 
Q 234 2469 665 2931 
Q 1097 3394 1784 3394 
Q 2450 3394 2872 2941 
Q 3294 2488 3294 1666 
Q 3294 1616 3291 1516 
L 816 1516 
Q 847 969 1125 678 
Q 1403 388 1819 388 
Q 2128 388 2347 550 
Q 2566 713 2694 1069 
z
M 847 1978 
L 2700 1978 
Q 2663 2397 2488 2606 
Q 2219 2931 1791 2931 
Q 1403 2931 1139 2672 
Q 875 2413 847 1978 
z
" transform="scale(0.015625)"/>
       <path id="ArialMT-6e" d="M 422 0 
L 422 3319 
L 928 3319 
L 928 2847 
Q 1294 3394 1984 3394 
Q 2284 3394 2536 3286 
Q 2788 3178 2913 3003 
Q 3038 2828 3088 2588 
Q 3119 2431 3119 2041 
L 3119 0 
L 2556 0 
L 2556 2019 
Q 2556 2363 2490 2533 
Q 2425 2703 2258 2804 
Q 2091 2906 1866 2906 
Q 1506 2906 1245 2678 
Q 984 2450 984 1813 
L 984 0 
L 422 0 
z
" transform="scale(0.015625)"/>
       <path id="ArialMT-75" d="M 2597 0 
L 2597 488 
Q 2209 -75 1544 -75 
Q 1250 -75 995 37 
Q 741 150 617 320 
Q 494 491 444 738 
Q 409 903 409 1263 
L 409 3319 
L 972 3319 
L 972 1478 
Q 972 1038 1006 884 
Q 1059 663 1231 536 
Q 1403 409 1656 409 
Q 1909 409 2131 539 
Q 2353 669 2445 892 
Q 2538 1116 2538 1541 
L 2538 3319 
L 3100 3319 
L 3100 0 
L 2597 0 
z
" transform="scale(0.015625)"/>
       <path id="ArialMT-6d" d="M 422 0 
L 422 3319 
L 925 3319 
L 925 2853 
Q 1081 3097 1340 3245 
Q 1600 3394 1931 3394 
Q 2300 3394 2536 3241 
Q 2772 3088 2869 2813 
Q 3263 3394 3894 3394 
Q 4388 3394 4653 3120 
Q 4919 2847 4919 2278 
L 4919 0 
L 4359 0 
L 4359 2091 
Q 4359 2428 4304 2576 
Q 4250 2725 4106 2815 
Q 3963 2906 3769 2906 
Q 3419 2906 3187 2673 
Q 2956 2441 2956 1928 
L 2956 0 
L 2394 0 
L 2394 2156 
Q 2394 2531 2256 2718 
Q 2119 2906 1806 2906 
Q 1569 2906 1367 2781 
Q 1166 2656 1075 2415 
Q 984 2175 984 1722 
L 984 0 
L 422 0 
z
" transform="scale(0.015625)"/>
       <path id="ArialMT-62" d="M 941 0 
L 419 0 
L 419 4581 
L 981 4581 
L 981 2947 
Q 1338 3394 1891 3394 
Q 2197 3394 2470 3270 
Q 2744 3147 2920 2923 
Q 3097 2700 3197 2384 
Q 3297 2069 3297 1709 
Q 3297 856 2875 390 
Q 2453 -75 1863 -75 
Q 1275 -75 941 416 
L 941 0 
z
M 934 1684 
Q 934 1088 1097 822 
Q 1363 388 1816 388 
Q 2184 388 2453 708 
Q 2722 1028 2722 1663 
Q 2722 2313 2464 2622 
Q 2206 2931 1841 2931 
Q 1472 2931 1203 2611 
Q 934 2291 934 1684 
z
" transform="scale(0.015625)"/>
       <path id="ArialMT-72" d="M 416 0 
L 416 3319 
L 922 3319 
L 922 2816 
Q 1116 3169 1280 3281 
Q 1444 3394 1641 3394 
Q 1925 3394 2219 3213 
L 2025 2691 
Q 1819 2813 1613 2813 
Q 1428 2813 1281 2702 
Q 1134 2591 1072 2394 
Q 978 2094 978 1738 
L 978 0 
L 416 0 
z
" transform="scale(0.015625)"/>
       <path id="ArialMT-20" transform="scale(0.015625)"/>
       <path id="ArialMT-28" d="M 1497 -1347 
Q 1031 -759 709 28 
Q 388 816 388 1659 
Q 388 2403 628 3084 
Q 909 3875 1497 4659 
L 1900 4659 
Q 1522 4009 1400 3731 
Q 1209 3300 1100 2831 
Q 966 2247 966 1656 
Q 966 153 1900 -1347 
L 1497 -1347 
z
" transform="scale(0.015625)"/>
       <path id="ArialMT-63" d="M 2588 1216 
L 3141 1144 
Q 3050 572 2676 248 
Q 2303 -75 1759 -75 
Q 1078 -75 664 370 
Q 250 816 250 1647 
Q 250 2184 428 2587 
Q 606 2991 970 3192 
Q 1334 3394 1763 3394 
Q 2303 3394 2647 3120 
Q 2991 2847 3088 2344 
L 2541 2259 
Q 2463 2594 2264 2762 
Q 2066 2931 1784 2931 
Q 1359 2931 1093 2626 
Q 828 2322 828 1663 
Q 828 994 1084 691 
Q 1341 388 1753 388 
Q 2084 388 2306 591 
Q 2528 794 2588 1216 
z
" transform="scale(0.015625)"/>
       <path id="ArialMT-2212" d="M 3381 1997 
L 356 1997 
L 356 2522 
L 3381 2522 
L 3381 1997 
z
" transform="scale(0.015625)"/>
       <path id="ArialMT-29" d="M 791 -1347 
L 388 -1347 
Q 1322 153 1322 1656 
Q 1322 2244 1188 2822 
Q 1081 3291 891 3722 
Q 769 4003 388 4659 
L 791 4659 
Q 1378 3875 1659 3084 
Q 1900 2403 1900 1659 
Q 1900 816 1576 28 
Q 1253 -759 791 -1347 
z
" transform="scale(0.015625)"/>
      </defs>
      <use xlink:href="#ArialMT-57" transform="translate(0 0.99375)"/>
      <use xlink:href="#ArialMT-61" transform="translate(94.384766 0.99375)"/>
      <use xlink:href="#ArialMT-76" transform="translate(150 0.99375)"/>
      <use xlink:href="#ArialMT-65" transform="translate(200 0.99375)"/>
      <use xlink:href="#ArialMT-6e" transform="translate(255.615234 0.99375)"/>
      <use xlink:href="#ArialMT-75" transform="translate(311.230469 0.99375)"/>
      <use xlink:href="#ArialMT-6d" transform="translate(366.845703 0.99375)"/>
      <use xlink:href="#ArialMT-62" transform="translate(450.146484 0.99375)"/>
      <use xlink:href="#ArialMT-65" transform="translate(505.761719 0.99375)"/>
      <use xlink:href="#ArialMT-72" transform="translate(561.376953 0.99375)"/>
      <use xlink:href="#ArialMT-20" transform="translate(594.677734 0.99375)"/>
      <use xlink:href="#ArialMT-28" transform="translate(622.460938 0.99375)"/>
      <use xlink:href="#ArialMT-63" transform="translate(655.761719 0.99375)"/>
      <use xlink:href="#ArialMT-6d" transform="translate(705.761719 0.99375)"/>
      <use xlink:href="#ArialMT-2212" transform="translate(790.804844 70.6875) scale(0.7)"/>
      <use xlink:href="#ArialMT-31" transform="translate(831.68375 70.6875) scale(0.7)"/>
      <use xlink:href="#ArialMT-29" transform="translate(875.592539 0.99375)"/>
     </g>
    </g>
   </g>
   <g id="matplotlib.axis_2">
    <g id="ytick_1">
     <g id="line2d_16">
      <defs>
       <path id="meeb7bd815e" d="M 0 0 
L 6 0 
" style="stroke: #262626; stroke-width: 1.25"/>
      </defs>
      <g>
       <use xlink:href="#meeb7bd815e" x="50.178125" y="264.576797" style="fill: #262626; stroke: #262626; stroke-width: 1.25"/>
      </g>
     </g>
     <g id="text_10">
      <!-- 0 -->
      <g style="fill: #262626" transform="translate(40.561094 268.513594) scale(0.11 -0.11)">
       <use xlink:href="#ArialMT-30"/>
      </g>
     </g>
    </g>
    <g id="ytick_2">
     <g id="line2d_17">
      <g>
       <use xlink:href="#meeb7bd815e" x="50.178125" y="213.888797" style="fill: #262626; stroke: #262626; stroke-width: 1.25"/>
      </g>
     </g>
     <g id="text_11">
      <!-- 200 -->
      <g style="fill: #262626" transform="translate(28.327031 217.825594) scale(0.11 -0.11)">
       <use xlink:href="#ArialMT-32"/>
       <use xlink:href="#ArialMT-30" x="55.615234"/>
       <use xlink:href="#ArialMT-30" x="111.230469"/>
      </g>
     </g>
    </g>
    <g id="ytick_3">
     <g id="line2d_18">
      <g>
       <use xlink:href="#meeb7bd815e" x="50.178125" y="163.200797" style="fill: #262626; stroke: #262626; stroke-width: 1.25"/>
      </g>
     </g>
     <g id="text_12">
      <!-- 400 -->
      <g style="fill: #262626" transform="translate(28.327031 167.137594) scale(0.11 -0.11)">
       <use xlink:href="#ArialMT-34"/>
       <use xlink:href="#ArialMT-30" x="55.615234"/>
       <use xlink:href="#ArialMT-30" x="111.230469"/>
      </g>
     </g>
    </g>
    <g id="ytick_4">
     <g id="line2d_19">
      <g>
       <use xlink:href="#meeb7bd815e" x="50.178125" y="112.512797" style="fill: #262626; stroke: #262626; stroke-width: 1.25"/>
      </g>
     </g>
     <g id="text_13">
      <!-- 600 -->
      <g style="fill: #262626" transform="translate(28.327031 116.449594) scale(0.11 -0.11)">
       <use xlink:href="#ArialMT-36"/>
       <use xlink:href="#ArialMT-30" x="55.615234"/>
       <use xlink:href="#ArialMT-30" x="111.230469"/>
      </g>
     </g>
    </g>
    <g id="ytick_5">
     <g id="line2d_20">
      <g>
       <use xlink:href="#meeb7bd815e" x="50.178125" y="61.824797" style="fill: #262626; stroke: #262626; stroke-width: 1.25"/>
      </g>
     </g>
     <g id="text_14">
      <!-- 800 -->
      <g style="fill: #262626" transform="translate(28.327031 65.761594) scale(0.11 -0.11)">
       <use xlink:href="#ArialMT-38"/>
       <use xlink:href="#ArialMT-30" x="55.615234"/>
       <use xlink:href="#ArialMT-30" x="111.230469"/>
      </g>
     </g>
    </g>
    <g id="ytick_6">
     <g id="line2d_21">
      <g>
       <use xlink:href="#meeb7bd815e" x="50.178125" y="11.136797" style="fill: #262626; stroke: #262626; stroke-width: 1.25"/>
      </g>
     </g>
     <g id="text_15">
      <!-- 1000 -->
      <g style="fill: #262626" transform="translate(22.21 15.073594) scale(0.11 -0.11)">
       <use xlink:href="#ArialMT-31"/>
       <use xlink:href="#ArialMT-30" x="55.615234"/>
       <use xlink:href="#ArialMT-30" x="111.230469"/>
       <use xlink:href="#ArialMT-30" x="166.845703"/>
      </g>
     </g>
    </g>
    <g id="ytick_7">
     <g id="line2d_22">
      <defs>
       <path id="mc08c592fe1" d="M 0 0 
L 4 0 
" style="stroke: #262626"/>
      </defs>
      <g>
       <use xlink:href="#mc08c592fe1" x="50.178125" y="239.232797" style="fill: #262626; stroke: #262626"/>
      </g>
     </g>
    </g>
    <g id="ytick_8">
     <g id="line2d_23">
      <g>
       <use xlink:href="#mc08c592fe1" x="50.178125" y="188.544797" style="fill: #262626; stroke: #262626"/>
      </g>
     </g>
    </g>
    <g id="ytick_9">
     <g id="line2d_24">
      <g>
       <use xlink:href="#mc08c592fe1" x="50.178125" y="137.856797" style="fill: #262626; stroke: #262626"/>
      </g>
     </g>
    </g>
    <g id="ytick_10">
     <g id="line2d_25">
      <g>
       <use xlink:href="#mc08c592fe1" x="50.178125" y="87.168797" style="fill: #262626; stroke: #262626"/>
      </g>
     </g>
    </g>
    <g id="ytick_11">
     <g id="line2d_26">
      <g>
       <use xlink:href="#mc08c592fe1" x="50.178125" y="36.480797" style="fill: #262626; stroke: #262626"/>
      </g>
     </g>
    </g>
    <g id="text_16">
     <!-- au-026-b2-ptsa-repeat -->
     <g style="fill: #262626" transform="translate(15.825 203.890922) rotate(-90) scale(0.12 -0.12)">
      <defs>
       <path id="ArialMT-2d" d="M 203 1375 
L 203 1941 
L 1931 1941 
L 1931 1375 
L 203 1375 
z
" transform="scale(0.015625)"/>
       <path id="ArialMT-70" d="M 422 -1272 
L 422 3319 
L 934 3319 
L 934 2888 
Q 1116 3141 1344 3267 
Q 1572 3394 1897 3394 
Q 2322 3394 2647 3175 
Q 2972 2956 3137 2557 
Q 3303 2159 3303 1684 
Q 3303 1175 3120 767 
Q 2938 359 2589 142 
Q 2241 -75 1856 -75 
Q 1575 -75 1351 44 
Q 1128 163 984 344 
L 984 -1272 
L 422 -1272 
z
M 931 1641 
Q 931 1000 1190 694 
Q 1450 388 1819 388 
Q 2194 388 2461 705 
Q 2728 1022 2728 1688 
Q 2728 2322 2467 2637 
Q 2206 2953 1844 2953 
Q 1484 2953 1207 2617 
Q 931 2281 931 1641 
z
" transform="scale(0.015625)"/>
       <path id="ArialMT-74" d="M 1650 503 
L 1731 6 
Q 1494 -44 1306 -44 
Q 1000 -44 831 53 
Q 663 150 594 308 
Q 525 466 525 972 
L 525 2881 
L 113 2881 
L 113 3319 
L 525 3319 
L 525 4141 
L 1084 4478 
L 1084 3319 
L 1650 3319 
L 1650 2881 
L 1084 2881 
L 1084 941 
Q 1084 700 1114 631 
Q 1144 563 1211 522 
Q 1278 481 1403 481 
Q 1497 481 1650 503 
z
" transform="scale(0.015625)"/>
       <path id="ArialMT-73" d="M 197 991 
L 753 1078 
Q 800 744 1014 566 
Q 1228 388 1613 388 
Q 2000 388 2187 545 
Q 2375 703 2375 916 
Q 2375 1106 2209 1216 
Q 2094 1291 1634 1406 
Q 1016 1563 777 1677 
Q 538 1791 414 1992 
Q 291 2194 291 2438 
Q 291 2659 392 2848 
Q 494 3038 669 3163 
Q 800 3259 1026 3326 
Q 1253 3394 1513 3394 
Q 1903 3394 2198 3281 
Q 2494 3169 2634 2976 
Q 2775 2784 2828 2463 
L 2278 2388 
Q 2241 2644 2061 2787 
Q 1881 2931 1553 2931 
Q 1166 2931 1000 2803 
Q 834 2675 834 2503 
Q 834 2394 903 2306 
Q 972 2216 1119 2156 
Q 1203 2125 1616 2013 
Q 2213 1853 2448 1751 
Q 2684 1650 2818 1456 
Q 2953 1263 2953 975 
Q 2953 694 2789 445 
Q 2625 197 2315 61 
Q 2006 -75 1616 -75 
Q 969 -75 630 194 
Q 291 463 197 991 
z
" transform="scale(0.015625)"/>
      </defs>
      <use xlink:href="#ArialMT-61"/>
      <use xlink:href="#ArialMT-75" x="55.615234"/>
      <use xlink:href="#ArialMT-2d" x="111.230469"/>
      <use xlink:href="#ArialMT-30" x="144.53125"/>
      <use xlink:href="#ArialMT-32" x="200.146484"/>
      <use xlink:href="#ArialMT-36" x="255.761719"/>
      <use xlink:href="#ArialMT-2d" x="311.376953"/>
      <use xlink:href="#ArialMT-62" x="344.677734"/>
      <use xlink:href="#ArialMT-32" x="400.292969"/>
      <use xlink:href="#ArialMT-2d" x="455.908203"/>
      <use xlink:href="#ArialMT-70" x="489.208984"/>
      <use xlink:href="#ArialMT-74" x="544.824219"/>
      <use xlink:href="#ArialMT-73" x="572.607422"/>
      <use xlink:href="#ArialMT-61" x="622.607422"/>
      <use xlink:href="#ArialMT-2d" x="678.222656"/>
      <use xlink:href="#ArialMT-72" x="711.523438"/>
      <use xlink:href="#ArialMT-65" x="744.824219"/>
      <use xlink:href="#ArialMT-70" x="800.439453"/>
      <use xlink:href="#ArialMT-65" x="856.054688"/>
      <use xlink:href="#ArialMT-61" x="911.669922"/>
      <use xlink:href="#ArialMT-74" x="967.285156"/>
     </g>
    </g>
   </g>
   <g id="PolyCollection_1"/>
   <g id="line2d_27">
    <path d="M 407.417165 263.904836 
L 406.226765 264.375695 
L 405.869645 264.206709 
L 404.917325 263.596311 
L 404.441165 263.512843 
L 403.369805 263.546072 
L 402.655565 263.317849 
L 402.060365 263.21771 
L 401.584205 263.473375 
L 401.227085 263.593645 
L 400.274765 263.49714 
L 399.917645 263.136814 
L 399.203405 262.327707 
L 398.846285 262.350963 
L 398.013005 262.565852 
L 397.536845 262.969881 
L 396.941645 263.07112 
L 395.275085 264.175797 
L 395.037005 264.165309 
L 394.560845 263.782939 
L 393.489485 263.021271 
L 393.251405 263.116876 
L 392.180045 263.958533 
L 391.822925 263.938255 
L 390.513485 263.533149 
L 390.037325 263.601423 
L 389.085005 263.98342 
L 388.489805 264.294546 
L 388.132685 264.387979 
L 387.656525 264.227443 
L 386.823245 263.747845 
L 385.989965 263.107271 
L 385.751885 263.110312 
L 384.561485 263.602335 
L 383.966285 263.726835 
L 383.133005 264.048524 
L 382.418765 264.021743 
L 382.180685 263.901982 
L 381.228365 263.057634 
L 380.752205 262.978407 
L 379.918925 262.547183 
L 378.847565 263.084702 
L 378.133325 263.815392 
L 376.585805 264.132628 
L 376.109645 263.96298 
L 375.038285 263.339733 
L 374.562125 263.216415 
L 374.205005 263.369396 
L 373.014605 264.170003 
L 372.538445 264.265398 
L 372.062285 264.051195 
L 371.229005 263.670893 
L 370.633805 263.948167 
L 370.157645 264.040095 
L 369.681485 263.820981 
L 369.324365 263.476956 
L 368.372045 262.277343 
L 368.133965 262.353991 
L 367.657805 262.871189 
L 366.705485 264.076392 
L 366.348365 264.194736 
L 365.991245 264.077325 
L 364.800845 263.418515 
L 364.443725 263.477149 
L 363.848525 263.847883 
L 363.372365 264.062458 
L 362.301005 263.91155 
L 361.824845 263.688586 
L 361.348685 263.69315 
L 360.872525 263.732391 
L 360.039245 263.507924 
L 359.325005 263.6922 
L 358.253645 264.205462 
L 357.896525 264.194772 
L 357.301325 263.919406 
L 356.229965 263.13524 
L 355.991885 263.147895 
L 354.920525 263.922506 
L 354.563405 264.080404 
L 354.325325 263.975026 
L 353.849165 263.430234 
L 353.373005 262.91858 
L 353.015885 262.935671 
L 352.420685 263.267447 
L 351.468365 264.302925 
L 351.230285 264.269329 
L 350.992205 264.039387 
L 350.397005 263.315837 
L 349.444685 263.315837 
L 348.611405 263.737751 
L 348.254285 263.495923 
L 347.778125 263.055718 
L 346.587725 262.888233 
L 345.040205 263.309475 
L 344.445005 263.332049 
L 343.849805 263.4607 
L 343.492685 263.46789 
L 343.135565 263.708752 
L 342.659405 264.027494 
L 342.183245 263.994853 
L 340.992845 263.776383 
L 340.516685 263.69037 
L 339.326285 263.806717 
L 338.850125 263.656911 
L 338.016845 263.182079 
L 337.540685 263.24905 
L 336.945485 263.648689 
L 336.350285 263.86714 
L 335.874125 263.844414 
L 335.159885 263.437427 
L 334.683725 263.154613 
L 333.612365 263.210773 
L 333.136205 263.454243 
L 332.302925 263.612671 
L 331.469645 264.266082 
L 331.112525 264.037418 
L 330.279245 263.179202 
L 329.684045 262.574859 
L 329.207885 262.43461 
L 328.731725 262.520945 
L 328.017485 262.805396 
L 327.303245 263.526965 
L 326.946125 263.570714 
L 326.589005 263.401743 
L 326.112845 263.134576 
L 325.636685 263.166771 
L 325.279565 263.463263 
L 324.684365 264.168903 
L 324.327245 264.291763 
L 323.970125 264.133948 
L 323.136845 263.497845 
L 322.779725 263.470166 
L 322.303565 263.488723 
L 321.351245 263.070438 
L 320.041805 261.650333 
L 319.565645 261.451613 
L 319.327565 261.518194 
L 319.089485 261.798833 
L 317.899085 263.759752 
L 317.541965 263.882914 
L 317.184845 263.776641 
L 316.113485 263.054317 
L 315.280205 263.022487 
L 314.923085 263.170922 
L 313.494605 264.331616 
L 313.018445 264.379268 
L 312.542285 264.118347 
L 311.828045 263.420211 
L 311.351885 263.05306 
L 310.875725 262.982971 
L 310.518605 263.171842 
L 309.923405 263.612589 
L 309.447245 263.531735 
L 309.090125 263.574107 
L 308.494925 263.676335 
L 308.018765 263.854969 
L 307.423565 264.192939 
L 307.066445 264.084307 
L 306.709325 264.045685 
L 306.114125 264.233041 
L 305.757005 264.295927 
L 305.280845 264.448212 
L 304.804685 264.342152 
L 303.376205 263.651011 
L 302.900045 263.869258 
L 301.709645 264.489175 
L 301.352525 264.456831 
L 300.995405 264.159265 
L 300.400205 263.183338 
L 299.924045 262.115263 
L 299.209805 260.203292 
L 298.852685 259.939843 
L 298.257485 259.800244 
L 297.900365 260.077162 
L 297.305165 260.667589 
L 297.067085 260.636862 
L 295.995725 259.762785 
L 295.281485 258.225948 
L 294.805325 257.861101 
L 294.448205 257.899634 
L 293.853005 258.162821 
L 293.495885 258.65046 
L 292.543565 260.381229 
L 291.353165 263.322614 
L 290.877005 263.814637 
L 290.638925 263.886959 
L 290.400845 263.710803 
L 290.162765 263.265278 
L 289.805645 261.97543 
L 288.734285 256.843179 
L 288.496205 256.787536 
L 288.258125 257.266427 
L 287.901005 258.810738 
L 287.186765 262.295662 
L 286.948685 262.720121 
L 286.710605 262.744991 
L 286.472525 262.514452 
L 286.115405 261.707258 
L 285.520205 259.525766 
L 284.925005 256.484032 
L 284.091725 250.512968 
L 283.377485 245.704357 
L 283.020365 244.563464 
L 282.901325 244.471105 
L 282.782285 244.542816 
L 282.544205 245.142807 
L 282.068045 247.407446 
L 279.806285 259.6974 
L 279.330125 261.148342 
L 278.615885 262.66775 
L 278.139725 263.101292 
L 277.782605 263.200975 
L 277.306445 263.222016 
L 276.354125 263.610354 
L 275.997005 263.572254 
L 275.044685 263.204913 
L 274.687565 263.327525 
L 273.973325 263.883813 
L 273.378125 263.726399 
L 272.782925 263.550248 
L 272.425805 263.756234 
L 272.068685 263.981182 
L 271.830605 263.959539 
L 270.878285 263.487573 
L 270.283085 263.741945 
L 269.330765 264.190848 
L 268.973645 264.092225 
L 268.497485 263.891652 
L 267.545165 263.834068 
L 267.188045 263.656158 
L 266.711885 263.307171 
L 265.283405 263.384491 
L 264.450125 263.85114 
L 264.093005 263.910062 
L 263.378765 264.229447 
L 262.664525 264.192554 
L 261.712205 264.12541 
L 261.236045 263.888499 
L 260.759885 263.615545 
L 259.807565 263.792656 
L 258.855245 264.63545 
L 258.617165 264.674876 
L 258.260045 264.43039 
L 257.902925 263.976985 
L 257.426765 262.852368 
L 256.355405 260.21811 
L 255.998285 259.838341 
L 255.641165 259.644016 
L 255.045965 259.181756 
L 254.807885 259.299798 
L 254.569805 259.700626 
L 253.141325 263.285477 
L 253.022285 263.256258 
L 252.784205 262.844489 
L 252.189005 261.593235 
L 251.355725 260.536122 
L 250.760525 259.75433 
L 250.403405 258.641521 
L 250.046285 256.612009 
L 249.689165 253.412309 
L 249.213005 246.644016 
L 248.617805 238.1373 
L 248.260685 235.652924 
L 248.141645 235.483907 
L 248.022605 235.688976 
L 247.784525 237.160106 
L 247.308365 242.697443 
L 246.713165 248.827942 
L 246.356045 250.280971 
L 246.117965 250.37277 
L 245.879885 249.812523 
L 243.856205 240.839721 
L 243.499085 238.321574 
L 243.141965 233.315761 
L 242.784845 223.932429 
L 242.427725 208.979968 
L 241.951565 179.57501 
L 240.999245 114.646202 
L 240.761165 108.152899 
L 240.642125 107.283275 
L 240.523085 108.038506 
L 240.285005 114.362767 
L 239.927885 134.228679 
L 238.618445 224.376235 
L 238.142285 240.0009 
L 237.785165 246.128879 
L 237.428045 249.48611 
L 237.070925 251.095953 
L 236.832845 251.424556 
L 236.594765 251.364952 
L 236.356685 250.972363 
L 235.999565 249.68337 
L 235.285325 246.582714 
L 235.047245 246.437105 
L 234.809165 247.016867 
L 234.452045 248.874372 
L 233.975885 252.744555 
L 233.261645 258.821195 
L 232.785485 261.128424 
L 232.190285 263.001396 
L 231.833165 263.602837 
L 231.357005 263.912979 
L 230.999885 263.934225 
L 230.047565 263.652737 
L 229.571405 263.658632 
L 228.976205 263.948684 
L 228.619085 264.176902 
L 228.261965 264.073584 
L 227.904845 263.976408 
L 225.762125 264.089204 
L 225.047885 263.728034 
L 223.500365 264.217394 
L 223.143245 264.413599 
L 222.905165 264.325732 
L 222.429005 264.052171 
L 222.071885 263.900115 
L 221.357645 263.255895 
L 220.881485 263.321597 
L 220.167245 263.624339 
L 219.691085 263.709768 
L 217.786445 264.270249 
L 217.548365 264.123664 
L 216.953165 263.599132 
L 215.762765 263.465617 
L 215.167565 263.509632 
L 214.334285 263.359666 
L 213.739085 263.431147 
L 213.262925 263.489544 
L 212.667725 263.675691 
L 212.310605 263.82165 
L 211.834445 264.167063 
L 211.477325 264.124571 
L 211.001165 263.832238 
L 209.929805 262.807038 
L 209.691725 262.85271 
L 208.858445 263.513031 
L 208.144205 263.820864 
L 207.668045 263.941162 
L 207.191885 263.759676 
L 206.358605 263.17278 
L 205.763405 262.637449 
L 205.049165 262.372614 
L 203.858765 260.536297 
L 203.620685 260.454023 
L 203.382605 260.566692 
L 203.025485 261.010911 
L 202.549325 262.096106 
L 201.954125 263.259406 
L 201.477965 263.957762 
L 201.120845 264.096156 
L 199.573325 264.072013 
L 198.859085 263.998449 
L 198.501965 263.734058 
L 197.430605 262.310372 
L 196.954445 261.02576 
L 196.240205 258.490466 
L 195.764045 257.705727 
L 195.525965 257.617332 
L 195.287885 257.885689 
L 194.811725 258.954223 
L 193.978445 260.918781 
L 192.907085 262.958952 
L 191.597645 264.11746 
L 191.121485 264.331135 
L 190.526285 264.097266 
L 189.812045 263.910853 
L 188.383565 264.280482 
L 187.193165 263.511181 
L 185.883725 263.748142 
L 185.407565 263.675121 
L 185.050445 263.290832 
L 184.455245 262.525383 
L 183.979085 262.030908 
L 183.383885 261.2514 
L 183.026765 261.177082 
L 182.312525 261.526264 
L 181.955405 261.868732 
L 181.241165 262.869701 
L 180.765005 263.259099 
L 180.288845 263.636522 
L 178.741325 264.184272 
L 178.146125 264.343216 
L 177.669965 264.412005 
L 177.312845 264.268411 
L 176.836685 263.749348 
L 176.241485 263.118004 
L 175.646285 262.88861 
L 175.289165 262.952358 
L 174.693965 263.278687 
L 174.455885 262.816717 
L 174.098765 261.269744 
L 173.503565 257.172073 
L 173.027405 254.109758 
L 172.789325 253.395833 
L 172.670285 253.363924 
L 172.551245 253.555006 
L 172.313165 254.544836 
L 171.717965 258.848412 
L 171.122765 262.521695 
L 170.765645 263.489035 
L 170.527565 263.747344 
L 170.170445 263.75353 
L 169.099085 263.720451 
L 168.384845 264.036643 
L 168.146765 263.826551 
L 166.480205 261.693233 
L 166.123085 261.794576 
L 165.765965 261.877585 
L 165.527885 261.673393 
L 164.337485 259.72997 
L 163.742285 258.44233 
L 162.789965 255.551945 
L 162.075725 252.361716 
L 161.361485 248.16731 
L 159.218765 233.100694 
L 158.861645 228.256604 
L 158.385485 218.221237 
L 157.909325 202.294591 
L 157.314125 172.462432 
L 155.766605 84.655435 
L 155.171405 66.916614 
L 154.695245 59.309886 
L 154.457165 57.667167 
L 154.338125 57.500555 
L 154.219085 57.804189 
L 153.981005 59.867381 
L 153.742925 64.091402 
L 153.385805 75.379566 
L 152.790605 104.634006 
L 151.243085 184.96669 
L 150.409805 214.537695 
L 149.695565 231.849388 
L 149.219405 239.24373 
L 148.862285 242.251838 
L 148.505165 243.606781 
L 148.267085 243.757573 
L 148.029005 243.26963 
L 147.195725 240.289393 
L 147.076685 240.329341 
L 146.838605 240.886701 
L 146.600525 242.177519 
L 146.124365 246.516624 
L 145.172045 255.356693 
L 144.576845 258.436962 
L 144.100685 260.018863 
L 143.505485 261.037158 
L 141.481805 263.517625 
L 140.291405 264.160494 
L 139.815245 264.169455 
L 138.505805 264.158289 
L 137.791565 264.183605 
L 137.434445 264.140158 
L 136.958285 263.996931 
L 136.363085 264.071709 
L 135.886925 264.087546 
L 135.410765 264.052186 
L 134.458445 263.917678 
L 133.625165 264.016051 
L 132.791885 263.783005 
L 132.077645 263.369573 
L 130.530125 263.663457 
L 128.982605 262.921365 
L 128.149325 262.939967 
L 127.792205 262.917576 
L 127.435085 263.174288 
L 126.958925 263.733022 
L 126.720845 263.72555 
L 126.363725 263.615142 
L 125.530445 263.823256 
L 124.101965 263.722605 
L 123.506765 263.293331 
L 122.911565 263.163904 
L 122.554445 263.195204 
L 122.078285 263.139354 
L 121.483085 263.378183 
L 120.887885 263.539029 
L 120.530765 263.697264 
L 119.935565 264.110508 
L 119.340365 264.081215 
L 118.983245 264.04987 
L 118.507085 263.879751 
L 117.197645 264.098938 
L 116.602445 263.637095 
L 115.769165 263.487849 
L 115.173965 263.685474 
L 114.816845 263.758074 
L 114.459725 263.924156 
L 112.555085 263.570544 
L 112.078925 263.328656 
L 111.245645 263.297488 
L 110.888525 263.233631 
L 110.650445 263.212694 
L 109.936205 263.540212 
L 109.341005 263.36622 
L 108.983885 263.514658 
L 108.269645 264.009411 
L 107.198285 264.069646 
L 106.603085 263.778595 
L 106.245965 263.702044 
L 105.174605 263.12565 
L 104.817485 263.167204 
L 104.460365 263.286468 
L 104.103245 263.312073 
L 103.389005 263.653586 
L 103.031885 263.851799 
L 102.674765 264.054249 
L 102.198605 264.00736 
L 101.484365 263.822293 
L 101.008205 263.391336 
L 100.532045 262.92413 
L 99.579725 262.867119 
L 98.627405 263.742242 
L 97.437005 263.251579 
L 97.079885 263.004361 
L 96.365645 262.913412 
L 95.651405 262.540026 
L 94.461005 262.549155 
L 93.627725 263.456579 
L 93.270605 263.539393 
L 92.437325 263.280031 
L 91.723085 263.330455 
L 91.246925 263.467338 
L 90.770765 263.399196 
L 90.056525 262.998101 
L 89.699405 263.262873 
L 89.104205 263.841271 
L 88.628045 263.879274 
L 88.270925 263.713687 
L 87.794765 263.217862 
L 87.318605 262.692521 
L 86.723405 262.668254 
L 86.009165 263.05728 
L 85.413965 262.943733 
L 84.937805 263.238892 
L 84.461645 263.461463 
L 84.104525 263.298451 
L 83.271245 262.729407 
L 82.914125 262.484292 
L 82.676045 262.583261 
L 81.842765 263.335519 
L 80.414285 263.394862 
L 79.938125 263.165417 
L 79.223885 262.781278 
L 78.747725 262.720772 
L 78.390605 262.966548 
L 77.914445 263.429677 
L 77.438285 263.495318 
L 76.843085 263.52976 
L 75.533645 264.110097 
L 75.176525 263.999749 
L 73.986125 263.287033 
L 72.914765 263.734007 
L 72.319565 263.669061 
L 71.724365 263.361656 
L 71.248205 263.540493 
L 70.653005 263.829347 
L 68.867405 263.458348 
L 68.391245 263.678142 
L 67.915085 263.651842 
L 66.962765 263.081643 
L 66.605645 262.774423 
L 66.248525 262.793395 
L 65.772365 263.163884 
L 64.820045 264.148177 
L 64.462925 264.319857 
L 63.986765 264.234562 
L 63.391565 263.853203 
L 63.034445 263.758513 
L 62.558285 263.666189 
L 62.082125 263.47653 
L 61.725005 263.641028 
L 61.129805 263.963447 
L 60.177485 264.107487 
L 59.225165 263.746026 
L 58.510925 264.029437 
L 57.915725 264.139463 
L 57.201485 264.015747 
L 56.606285 264.052559 
L 56.011085 264.150384 
L 55.415885 264.051831 
L 54.939725 263.946046 
L 54.344525 263.580719 
L 53.630285 263.246729 
L 52.916045 263.226142 
L 52.320845 263.474845 
L 51.963725 263.556014 
L 51.249485 263.919794 
L 50.773325 263.741408 
L 50.178125 263.392145 
L 50.059085 263.389321 
L 50.059085 263.389321 
" clip-path="url(#p820a706f81)" style="fill: none; stroke: #4c72b0; stroke-linecap: round"/>
   </g>
   <g id="patch_3">
    <path d="M 50.178125 277.248797 
L 50.178125 11.136797 
" style="fill: none; stroke: #262626; stroke-width: 1.25; stroke-linejoin: miter; stroke-linecap: square"/>
   </g>
   <g id="patch_4">
    <path d="M 50.178125 277.248797 
L 407.298125 277.248797 
" style="fill: none; stroke: #262626; stroke-width: 1.25; stroke-linejoin: miter; stroke-linecap: square"/>
   </g>
   <g id="legend_1"/>
  </g>
 </g>
 <defs>
  <clipPath id="p820a706f81">
   <rect x="50.178125" y="11.136797" width="357.12" height="266.112"/>
  </clipPath>
 </defs>
</svg>
