<?xml version="1.0" encoding="utf-8" standalone="no"?>
<!DOCTYPE svg PUBLIC "-//W3C//DTD SVG 1.1//EN"
  "http://www.w3.org/Graphics/SVG/1.1/DTD/svg11.dtd">
<svg xmlns:xlink="http://www.w3.org/1999/xlink" width="411.439609pt" height="319.168641pt" viewBox="0 0 411.439609 319.168641" xmlns="http://www.w3.org/2000/svg" version="1.1">
 <metadata>
  <rdf:RDF xmlns:dc="http://purl.org/dc/elements/1.1/" xmlns:cc="http://creativecommons.org/ns#" xmlns:rdf="http://www.w3.org/1999/02/22-rdf-syntax-ns#">
   <cc:Work>
    <dc:type rdf:resource="http://purl.org/dc/dcmitype/StillImage"/>
    <dc:date>2024-05-21T21:58:44.511218</dc:date>
    <dc:format>image/svg+xml</dc:format>
    <dc:creator>
     <cc:Agent>
      <dc:title>Matplotlib v3.7.1, https://matplotlib.org/</dc:title>
     </cc:Agent>
    </dc:creator>
   </cc:Work>
  </rdf:RDF>
 </metadata>
 <defs>
  <style type="text/css">*{stroke-linejoin: round; stroke-linecap: butt}</style>
 </defs>
 <g id="figure_1">
  <g id="patch_1">
   <path d="M 0 319.168641 
L 411.439609 319.168641 
L 411.439609 0 
L 0 0 
z
" style="fill: #ffffff"/>
  </g>
  <g id="axes_1">
   <g id="patch_2">
    <path d="M 37.944063 277.248797 
L 395.064063 277.248797 
L 395.064063 11.136797 
L 37.944063 11.136797 
z
" style="fill: #ffffff"/>
   </g>
   <g id="matplotlib.axis_1">
    <g id="xtick_1">
     <g id="line2d_1">
      <defs>
       <path id="m2382440887" d="M 0 0 
L 0 -6 
" style="stroke: #262626; stroke-width: 1.25"/>
      </defs>
      <g>
       <use xlink:href="#m2382440887" x="395.064062" y="277.248797" style="fill: #262626; stroke: #262626; stroke-width: 1.25"/>
      </g>
     </g>
     <g id="text_1">
      <!-- 500 -->
      <g style="fill: #262626" transform="translate(385.888516 288.622391) scale(0.11 -0.11)">
       <defs>
        <path id="ArialMT-35" d="M 266 1200 
L 856 1250 
Q 922 819 1161 601 
Q 1400 384 1738 384 
Q 2144 384 2425 690 
Q 2706 997 2706 1503 
Q 2706 1984 2436 2262 
Q 2166 2541 1728 2541 
Q 1456 2541 1237 2417 
Q 1019 2294 894 2097 
L 366 2166 
L 809 4519 
L 3088 4519 
L 3088 3981 
L 1259 3981 
L 1013 2750 
Q 1425 3038 1878 3038 
Q 2478 3038 2890 2622 
Q 3303 2206 3303 1553 
Q 3303 931 2941 478 
Q 2500 -78 1738 -78 
Q 1113 -78 717 272 
Q 322 622 266 1200 
z
" transform="scale(0.015625)"/>
        <path id="ArialMT-30" d="M 266 2259 
Q 266 3072 433 3567 
Q 600 4063 929 4331 
Q 1259 4600 1759 4600 
Q 2128 4600 2406 4451 
Q 2684 4303 2865 4023 
Q 3047 3744 3150 3342 
Q 3253 2941 3253 2259 
Q 3253 1453 3087 958 
Q 2922 463 2592 192 
Q 2263 -78 1759 -78 
Q 1097 -78 719 397 
Q 266 969 266 2259 
z
M 844 2259 
Q 844 1131 1108 757 
Q 1372 384 1759 384 
Q 2147 384 2411 759 
Q 2675 1134 2675 2259 
Q 2675 3391 2411 3762 
Q 2147 4134 1753 4134 
Q 1366 4134 1134 3806 
Q 844 3388 844 2259 
z
" transform="scale(0.015625)"/>
       </defs>
       <use xlink:href="#ArialMT-35"/>
       <use xlink:href="#ArialMT-30" x="55.615234"/>
       <use xlink:href="#ArialMT-30" x="111.230469"/>
      </g>
     </g>
    </g>
    <g id="xtick_2">
     <g id="line2d_2">
      <g>
       <use xlink:href="#m2382440887" x="323.640062" y="277.248797" style="fill: #262626; stroke: #262626; stroke-width: 1.25"/>
      </g>
     </g>
     <g id="text_2">
      <!-- 1000 -->
      <g style="fill: #262626" transform="translate(311.406 288.622391) scale(0.11 -0.11)">
       <defs>
        <path id="ArialMT-31" d="M 2384 0 
L 1822 0 
L 1822 3584 
Q 1619 3391 1289 3197 
Q 959 3003 697 2906 
L 697 3450 
Q 1169 3672 1522 3987 
Q 1875 4303 2022 4600 
L 2384 4600 
L 2384 0 
z
" transform="scale(0.015625)"/>
       </defs>
       <use xlink:href="#ArialMT-31"/>
       <use xlink:href="#ArialMT-30" x="55.615234"/>
       <use xlink:href="#ArialMT-30" x="111.230469"/>
       <use xlink:href="#ArialMT-30" x="166.845703"/>
      </g>
     </g>
    </g>
    <g id="xtick_3">
     <g id="line2d_3">
      <g>
       <use xlink:href="#m2382440887" x="252.216063" y="277.248797" style="fill: #262626; stroke: #262626; stroke-width: 1.25"/>
      </g>
     </g>
     <g id="text_3">
      <!-- 1500 -->
      <g style="fill: #262626" transform="translate(239.982 288.622391) scale(0.11 -0.11)">
       <use xlink:href="#ArialMT-31"/>
       <use xlink:href="#ArialMT-35" x="55.615234"/>
       <use xlink:href="#ArialMT-30" x="111.230469"/>
       <use xlink:href="#ArialMT-30" x="166.845703"/>
      </g>
     </g>
    </g>
    <g id="xtick_4">
     <g id="line2d_4">
      <g>
       <use xlink:href="#m2382440887" x="180.792062" y="277.248797" style="fill: #262626; stroke: #262626; stroke-width: 1.25"/>
      </g>
     </g>
     <g id="text_4">
      <!-- 2000 -->
      <g style="fill: #262626" transform="translate(168.558 288.622391) scale(0.11 -0.11)">
       <defs>
        <path id="ArialMT-32" d="M 3222 541 
L 3222 0 
L 194 0 
Q 188 203 259 391 
Q 375 700 629 1000 
Q 884 1300 1366 1694 
Q 2113 2306 2375 2664 
Q 2638 3022 2638 3341 
Q 2638 3675 2398 3904 
Q 2159 4134 1775 4134 
Q 1369 4134 1125 3890 
Q 881 3647 878 3216 
L 300 3275 
Q 359 3922 746 4261 
Q 1134 4600 1788 4600 
Q 2447 4600 2831 4234 
Q 3216 3869 3216 3328 
Q 3216 3053 3103 2787 
Q 2991 2522 2730 2228 
Q 2469 1934 1863 1422 
Q 1356 997 1212 845 
Q 1069 694 975 541 
L 3222 541 
z
" transform="scale(0.015625)"/>
       </defs>
       <use xlink:href="#ArialMT-32"/>
       <use xlink:href="#ArialMT-30" x="55.615234"/>
       <use xlink:href="#ArialMT-30" x="111.230469"/>
       <use xlink:href="#ArialMT-30" x="166.845703"/>
      </g>
     </g>
    </g>
    <g id="xtick_5">
     <g id="line2d_5">
      <g>
       <use xlink:href="#m2382440887" x="109.368063" y="277.248797" style="fill: #262626; stroke: #262626; stroke-width: 1.25"/>
      </g>
     </g>
     <g id="text_5">
      <!-- 2500 -->
      <g style="fill: #262626" transform="translate(97.134 288.622391) scale(0.11 -0.11)">
       <use xlink:href="#ArialMT-32"/>
       <use xlink:href="#ArialMT-35" x="55.615234"/>
       <use xlink:href="#ArialMT-30" x="111.230469"/>
       <use xlink:href="#ArialMT-30" x="166.845703"/>
      </g>
     </g>
    </g>
    <g id="xtick_6">
     <g id="line2d_6">
      <g>
       <use xlink:href="#m2382440887" x="37.944063" y="277.248797" style="fill: #262626; stroke: #262626; stroke-width: 1.25"/>
      </g>
     </g>
     <g id="text_6">
      <!-- 3000 -->
      <g style="fill: #262626" transform="translate(25.71 288.622391) scale(0.11 -0.11)">
       <defs>
        <path id="ArialMT-33" d="M 269 1209 
L 831 1284 
Q 928 806 1161 595 
Q 1394 384 1728 384 
Q 2125 384 2398 659 
Q 2672 934 2672 1341 
Q 2672 1728 2419 1979 
Q 2166 2231 1775 2231 
Q 1616 2231 1378 2169 
L 1441 2663 
Q 1497 2656 1531 2656 
Q 1891 2656 2178 2843 
Q 2466 3031 2466 3422 
Q 2466 3731 2256 3934 
Q 2047 4138 1716 4138 
Q 1388 4138 1169 3931 
Q 950 3725 888 3313 
L 325 3413 
Q 428 3978 793 4289 
Q 1159 4600 1703 4600 
Q 2078 4600 2393 4439 
Q 2709 4278 2876 4000 
Q 3044 3722 3044 3409 
Q 3044 3113 2884 2869 
Q 2725 2625 2413 2481 
Q 2819 2388 3044 2092 
Q 3269 1797 3269 1353 
Q 3269 753 2831 336 
Q 2394 -81 1725 -81 
Q 1122 -81 723 278 
Q 325 638 269 1209 
z
" transform="scale(0.015625)"/>
       </defs>
       <use xlink:href="#ArialMT-33"/>
       <use xlink:href="#ArialMT-30" x="55.615234"/>
       <use xlink:href="#ArialMT-30" x="111.230469"/>
       <use xlink:href="#ArialMT-30" x="166.845703"/>
      </g>
     </g>
    </g>
    <g id="xtick_7">
     <g id="line2d_7">
      <defs>
       <path id="mdeb92387c3" d="M 0 0 
L 0 -4 
" style="stroke: #262626"/>
      </defs>
      <g>
       <use xlink:href="#mdeb92387c3" x="359.352062" y="277.248797" style="fill: #262626; stroke: #262626"/>
      </g>
     </g>
    </g>
    <g id="xtick_8">
     <g id="line2d_8">
      <g>
       <use xlink:href="#mdeb92387c3" x="287.928063" y="277.248797" style="fill: #262626; stroke: #262626"/>
      </g>
     </g>
    </g>
    <g id="xtick_9">
     <g id="line2d_9">
      <g>
       <use xlink:href="#mdeb92387c3" x="216.504063" y="277.248797" style="fill: #262626; stroke: #262626"/>
      </g>
     </g>
    </g>
    <g id="xtick_10">
     <g id="line2d_10">
      <g>
       <use xlink:href="#mdeb92387c3" x="145.080062" y="277.248797" style="fill: #262626; stroke: #262626"/>
      </g>
     </g>
    </g>
    <g id="xtick_11">
     <g id="line2d_11">
      <g>
       <use xlink:href="#mdeb92387c3" x="73.656063" y="277.248797" style="fill: #262626; stroke: #262626"/>
      </g>
     </g>
    </g>
    <g id="text_7">
     <!-- Wavenumber ($\mathregular{cm^{-1}}$) -->
     <g style="fill: #262626" transform="translate(161.964063 309.328641) scale(0.12 -0.12)">
      <defs>
       <path id="ArialMT-57" d="M 1294 0 
L 78 4581 
L 700 4581 
L 1397 1578 
Q 1509 1106 1591 641 
Q 1766 1375 1797 1488 
L 2669 4581 
L 3400 4581 
L 4056 2263 
Q 4303 1400 4413 641 
Q 4500 1075 4641 1638 
L 5359 4581 
L 5969 4581 
L 4713 0 
L 4128 0 
L 3163 3491 
Q 3041 3928 3019 4028 
Q 2947 3713 2884 3491 
L 1913 0 
L 1294 0 
z
" transform="scale(0.015625)"/>
       <path id="ArialMT-61" d="M 2588 409 
Q 2275 144 1986 34 
Q 1697 -75 1366 -75 
Q 819 -75 525 192 
Q 231 459 231 875 
Q 231 1119 342 1320 
Q 453 1522 633 1644 
Q 813 1766 1038 1828 
Q 1203 1872 1538 1913 
Q 2219 1994 2541 2106 
Q 2544 2222 2544 2253 
Q 2544 2597 2384 2738 
Q 2169 2928 1744 2928 
Q 1347 2928 1158 2789 
Q 969 2650 878 2297 
L 328 2372 
Q 403 2725 575 2942 
Q 747 3159 1072 3276 
Q 1397 3394 1825 3394 
Q 2250 3394 2515 3294 
Q 2781 3194 2906 3042 
Q 3031 2891 3081 2659 
Q 3109 2516 3109 2141 
L 3109 1391 
Q 3109 606 3145 398 
Q 3181 191 3288 0 
L 2700 0 
Q 2613 175 2588 409 
z
M 2541 1666 
Q 2234 1541 1622 1453 
Q 1275 1403 1131 1340 
Q 988 1278 909 1158 
Q 831 1038 831 891 
Q 831 666 1001 516 
Q 1172 366 1500 366 
Q 1825 366 2078 508 
Q 2331 650 2450 897 
Q 2541 1088 2541 1459 
L 2541 1666 
z
" transform="scale(0.015625)"/>
       <path id="ArialMT-76" d="M 1344 0 
L 81 3319 
L 675 3319 
L 1388 1331 
Q 1503 1009 1600 663 
Q 1675 925 1809 1294 
L 2547 3319 
L 3125 3319 
L 1869 0 
L 1344 0 
z
" transform="scale(0.015625)"/>
       <path id="ArialMT-65" d="M 2694 1069 
L 3275 997 
Q 3138 488 2766 206 
Q 2394 -75 1816 -75 
Q 1088 -75 661 373 
Q 234 822 234 1631 
Q 234 2469 665 2931 
Q 1097 3394 1784 3394 
Q 2450 3394 2872 2941 
Q 3294 2488 3294 1666 
Q 3294 1616 3291 1516 
L 816 1516 
Q 847 969 1125 678 
Q 1403 388 1819 388 
Q 2128 388 2347 550 
Q 2566 713 2694 1069 
z
M 847 1978 
L 2700 1978 
Q 2663 2397 2488 2606 
Q 2219 2931 1791 2931 
Q 1403 2931 1139 2672 
Q 875 2413 847 1978 
z
" transform="scale(0.015625)"/>
       <path id="ArialMT-6e" d="M 422 0 
L 422 3319 
L 928 3319 
L 928 2847 
Q 1294 3394 1984 3394 
Q 2284 3394 2536 3286 
Q 2788 3178 2913 3003 
Q 3038 2828 3088 2588 
Q 3119 2431 3119 2041 
L 3119 0 
L 2556 0 
L 2556 2019 
Q 2556 2363 2490 2533 
Q 2425 2703 2258 2804 
Q 2091 2906 1866 2906 
Q 1506 2906 1245 2678 
Q 984 2450 984 1813 
L 984 0 
L 422 0 
z
" transform="scale(0.015625)"/>
       <path id="ArialMT-75" d="M 2597 0 
L 2597 488 
Q 2209 -75 1544 -75 
Q 1250 -75 995 37 
Q 741 150 617 320 
Q 494 491 444 738 
Q 409 903 409 1263 
L 409 3319 
L 972 3319 
L 972 1478 
Q 972 1038 1006 884 
Q 1059 663 1231 536 
Q 1403 409 1656 409 
Q 1909 409 2131 539 
Q 2353 669 2445 892 
Q 2538 1116 2538 1541 
L 2538 3319 
L 3100 3319 
L 3100 0 
L 2597 0 
z
" transform="scale(0.015625)"/>
       <path id="ArialMT-6d" d="M 422 0 
L 422 3319 
L 925 3319 
L 925 2853 
Q 1081 3097 1340 3245 
Q 1600 3394 1931 3394 
Q 2300 3394 2536 3241 
Q 2772 3088 2869 2813 
Q 3263 3394 3894 3394 
Q 4388 3394 4653 3120 
Q 4919 2847 4919 2278 
L 4919 0 
L 4359 0 
L 4359 2091 
Q 4359 2428 4304 2576 
Q 4250 2725 4106 2815 
Q 3963 2906 3769 2906 
Q 3419 2906 3187 2673 
Q 2956 2441 2956 1928 
L 2956 0 
L 2394 0 
L 2394 2156 
Q 2394 2531 2256 2718 
Q 2119 2906 1806 2906 
Q 1569 2906 1367 2781 
Q 1166 2656 1075 2415 
Q 984 2175 984 1722 
L 984 0 
L 422 0 
z
" transform="scale(0.015625)"/>
       <path id="ArialMT-62" d="M 941 0 
L 419 0 
L 419 4581 
L 981 4581 
L 981 2947 
Q 1338 3394 1891 3394 
Q 2197 3394 2470 3270 
Q 2744 3147 2920 2923 
Q 3097 2700 3197 2384 
Q 3297 2069 3297 1709 
Q 3297 856 2875 390 
Q 2453 -75 1863 -75 
Q 1275 -75 941 416 
L 941 0 
z
M 934 1684 
Q 934 1088 1097 822 
Q 1363 388 1816 388 
Q 2184 388 2453 708 
Q 2722 1028 2722 1663 
Q 2722 2313 2464 2622 
Q 2206 2931 1841 2931 
Q 1472 2931 1203 2611 
Q 934 2291 934 1684 
z
" transform="scale(0.015625)"/>
       <path id="ArialMT-72" d="M 416 0 
L 416 3319 
L 922 3319 
L 922 2816 
Q 1116 3169 1280 3281 
Q 1444 3394 1641 3394 
Q 1925 3394 2219 3213 
L 2025 2691 
Q 1819 2813 1613 2813 
Q 1428 2813 1281 2702 
Q 1134 2591 1072 2394 
Q 978 2094 978 1738 
L 978 0 
L 416 0 
z
" transform="scale(0.015625)"/>
       <path id="ArialMT-20" transform="scale(0.015625)"/>
       <path id="ArialMT-28" d="M 1497 -1347 
Q 1031 -759 709 28 
Q 388 816 388 1659 
Q 388 2403 628 3084 
Q 909 3875 1497 4659 
L 1900 4659 
Q 1522 4009 1400 3731 
Q 1209 3300 1100 2831 
Q 966 2247 966 1656 
Q 966 153 1900 -1347 
L 1497 -1347 
z
" transform="scale(0.015625)"/>
       <path id="ArialMT-63" d="M 2588 1216 
L 3141 1144 
Q 3050 572 2676 248 
Q 2303 -75 1759 -75 
Q 1078 -75 664 370 
Q 250 816 250 1647 
Q 250 2184 428 2587 
Q 606 2991 970 3192 
Q 1334 3394 1763 3394 
Q 2303 3394 2647 3120 
Q 2991 2847 3088 2344 
L 2541 2259 
Q 2463 2594 2264 2762 
Q 2066 2931 1784 2931 
Q 1359 2931 1093 2626 
Q 828 2322 828 1663 
Q 828 994 1084 691 
Q 1341 388 1753 388 
Q 2084 388 2306 591 
Q 2528 794 2588 1216 
z
" transform="scale(0.015625)"/>
       <path id="ArialMT-2212" d="M 3381 1997 
L 356 1997 
L 356 2522 
L 3381 2522 
L 3381 1997 
z
" transform="scale(0.015625)"/>
       <path id="ArialMT-29" d="M 791 -1347 
L 388 -1347 
Q 1322 153 1322 1656 
Q 1322 2244 1188 2822 
Q 1081 3291 891 3722 
Q 769 4003 388 4659 
L 791 4659 
Q 1378 3875 1659 3084 
Q 1900 2403 1900 1659 
Q 1900 816 1576 28 
Q 1253 -759 791 -1347 
z
" transform="scale(0.015625)"/>
      </defs>
      <use xlink:href="#ArialMT-57" transform="translate(0 0.99375)"/>
      <use xlink:href="#ArialMT-61" transform="translate(94.384766 0.99375)"/>
      <use xlink:href="#ArialMT-76" transform="translate(150 0.99375)"/>
      <use xlink:href="#ArialMT-65" transform="translate(200 0.99375)"/>
      <use xlink:href="#ArialMT-6e" transform="translate(255.615234 0.99375)"/>
      <use xlink:href="#ArialMT-75" transform="translate(311.230469 0.99375)"/>
      <use xlink:href="#ArialMT-6d" transform="translate(366.845703 0.99375)"/>
      <use xlink:href="#ArialMT-62" transform="translate(450.146484 0.99375)"/>
      <use xlink:href="#ArialMT-65" transform="translate(505.761719 0.99375)"/>
      <use xlink:href="#ArialMT-72" transform="translate(561.376953 0.99375)"/>
      <use xlink:href="#ArialMT-20" transform="translate(594.677734 0.99375)"/>
      <use xlink:href="#ArialMT-28" transform="translate(622.460938 0.99375)"/>
      <use xlink:href="#ArialMT-63" transform="translate(655.761719 0.99375)"/>
      <use xlink:href="#ArialMT-6d" transform="translate(705.761719 0.99375)"/>
      <use xlink:href="#ArialMT-2212" transform="translate(790.804844 70.6875) scale(0.7)"/>
      <use xlink:href="#ArialMT-31" transform="translate(831.68375 70.6875) scale(0.7)"/>
      <use xlink:href="#ArialMT-29" transform="translate(875.592539 0.99375)"/>
     </g>
    </g>
   </g>
   <g id="matplotlib.axis_2">
    <g id="ytick_1">
     <g id="line2d_12">
      <defs>
       <path id="m8d1ea3a4a3" d="M 0 0 
L 6 0 
" style="stroke: #262626; stroke-width: 1.25"/>
      </defs>
      <g>
       <use xlink:href="#m8d1ea3a4a3" x="37.944063" y="277.248797" style="fill: #262626; stroke: #262626; stroke-width: 1.25"/>
      </g>
     </g>
     <g id="text_8">
      <!-- 0 -->
      <g style="fill: #262626" transform="translate(28.327031 281.185594) scale(0.11 -0.11)">
       <use xlink:href="#ArialMT-30"/>
      </g>
     </g>
    </g>
    <g id="ytick_2">
     <g id="line2d_13">
      <g>
       <use xlink:href="#m8d1ea3a4a3" x="37.944063" y="232.896797" style="fill: #262626; stroke: #262626; stroke-width: 1.25"/>
      </g>
     </g>
     <g id="text_9">
      <!-- 10 -->
      <g style="fill: #262626" transform="translate(22.21 236.833594) scale(0.11 -0.11)">
       <use xlink:href="#ArialMT-31"/>
       <use xlink:href="#ArialMT-30" x="55.615234"/>
      </g>
     </g>
    </g>
    <g id="ytick_3">
     <g id="line2d_14">
      <g>
       <use xlink:href="#m8d1ea3a4a3" x="37.944063" y="188.544797" style="fill: #262626; stroke: #262626; stroke-width: 1.25"/>
      </g>
     </g>
     <g id="text_10">
      <!-- 20 -->
      <g style="fill: #262626" transform="translate(22.21 192.481594) scale(0.11 -0.11)">
       <use xlink:href="#ArialMT-32"/>
       <use xlink:href="#ArialMT-30" x="55.615234"/>
      </g>
     </g>
    </g>
    <g id="ytick_4">
     <g id="line2d_15">
      <g>
       <use xlink:href="#m8d1ea3a4a3" x="37.944063" y="144.192797" style="fill: #262626; stroke: #262626; stroke-width: 1.25"/>
      </g>
     </g>
     <g id="text_11">
      <!-- 30 -->
      <g style="fill: #262626" transform="translate(22.21 148.129594) scale(0.11 -0.11)">
       <use xlink:href="#ArialMT-33"/>
       <use xlink:href="#ArialMT-30" x="55.615234"/>
      </g>
     </g>
    </g>
    <g id="ytick_5">
     <g id="line2d_16">
      <g>
       <use xlink:href="#m8d1ea3a4a3" x="37.944063" y="99.840797" style="fill: #262626; stroke: #262626; stroke-width: 1.25"/>
      </g>
     </g>
     <g id="text_12">
      <!-- 40 -->
      <g style="fill: #262626" transform="translate(22.21 103.777594) scale(0.11 -0.11)">
       <defs>
        <path id="ArialMT-34" d="M 2069 0 
L 2069 1097 
L 81 1097 
L 81 1613 
L 2172 4581 
L 2631 4581 
L 2631 1613 
L 3250 1613 
L 3250 1097 
L 2631 1097 
L 2631 0 
L 2069 0 
z
M 2069 1613 
L 2069 3678 
L 634 1613 
L 2069 1613 
z
" transform="scale(0.015625)"/>
       </defs>
       <use xlink:href="#ArialMT-34"/>
       <use xlink:href="#ArialMT-30" x="55.615234"/>
      </g>
     </g>
    </g>
    <g id="ytick_6">
     <g id="line2d_17">
      <g>
       <use xlink:href="#m8d1ea3a4a3" x="37.944063" y="55.488797" style="fill: #262626; stroke: #262626; stroke-width: 1.25"/>
      </g>
     </g>
     <g id="text_13">
      <!-- 50 -->
      <g style="fill: #262626" transform="translate(22.21 59.425594) scale(0.11 -0.11)">
       <use xlink:href="#ArialMT-35"/>
       <use xlink:href="#ArialMT-30" x="55.615234"/>
      </g>
     </g>
    </g>
    <g id="ytick_7">
     <g id="line2d_18">
      <g>
       <use xlink:href="#m8d1ea3a4a3" x="37.944063" y="11.136797" style="fill: #262626; stroke: #262626; stroke-width: 1.25"/>
      </g>
     </g>
     <g id="text_14">
      <!-- 60 -->
      <g style="fill: #262626" transform="translate(22.21 15.073594) scale(0.11 -0.11)">
       <defs>
        <path id="ArialMT-36" d="M 3184 3459 
L 2625 3416 
Q 2550 3747 2413 3897 
Q 2184 4138 1850 4138 
Q 1581 4138 1378 3988 
Q 1113 3794 959 3422 
Q 806 3050 800 2363 
Q 1003 2672 1297 2822 
Q 1591 2972 1913 2972 
Q 2475 2972 2870 2558 
Q 3266 2144 3266 1488 
Q 3266 1056 3080 686 
Q 2894 316 2569 119 
Q 2244 -78 1831 -78 
Q 1128 -78 684 439 
Q 241 956 241 2144 
Q 241 3472 731 4075 
Q 1159 4600 1884 4600 
Q 2425 4600 2770 4297 
Q 3116 3994 3184 3459 
z
M 888 1484 
Q 888 1194 1011 928 
Q 1134 663 1356 523 
Q 1578 384 1822 384 
Q 2178 384 2434 671 
Q 2691 959 2691 1453 
Q 2691 1928 2437 2201 
Q 2184 2475 1800 2475 
Q 1419 2475 1153 2201 
Q 888 1928 888 1484 
z
" transform="scale(0.015625)"/>
       </defs>
       <use xlink:href="#ArialMT-36"/>
       <use xlink:href="#ArialMT-30" x="55.615234"/>
      </g>
     </g>
    </g>
    <g id="ytick_8">
     <g id="line2d_19">
      <defs>
       <path id="m7e07f292d5" d="M 0 0 
L 4 0 
" style="stroke: #262626"/>
      </defs>
      <g>
       <use xlink:href="#m7e07f292d5" x="37.944063" y="255.072797" style="fill: #262626; stroke: #262626"/>
      </g>
     </g>
    </g>
    <g id="ytick_9">
     <g id="line2d_20">
      <g>
       <use xlink:href="#m7e07f292d5" x="37.944063" y="210.720797" style="fill: #262626; stroke: #262626"/>
      </g>
     </g>
    </g>
    <g id="ytick_10">
     <g id="line2d_21">
      <g>
       <use xlink:href="#m7e07f292d5" x="37.944063" y="166.368797" style="fill: #262626; stroke: #262626"/>
      </g>
     </g>
    </g>
    <g id="ytick_11">
     <g id="line2d_22">
      <g>
       <use xlink:href="#m7e07f292d5" x="37.944063" y="122.016797" style="fill: #262626; stroke: #262626"/>
      </g>
     </g>
    </g>
    <g id="ytick_12">
     <g id="line2d_23">
      <g>
       <use xlink:href="#m7e07f292d5" x="37.944063" y="77.664797" style="fill: #262626; stroke: #262626"/>
      </g>
     </g>
    </g>
    <g id="ytick_13">
     <g id="line2d_24">
      <g>
       <use xlink:href="#m7e07f292d5" x="37.944063" y="33.312797" style="fill: #262626; stroke: #262626"/>
      </g>
     </g>
    </g>
    <g id="text_15">
     <!-- au-045-d-ptsa -->
     <g style="fill: #262626" transform="translate(15.825 181.545609) rotate(-90) scale(0.12 -0.12)">
      <defs>
       <path id="ArialMT-2d" d="M 203 1375 
L 203 1941 
L 1931 1941 
L 1931 1375 
L 203 1375 
z
" transform="scale(0.015625)"/>
       <path id="ArialMT-64" d="M 2575 0 
L 2575 419 
Q 2259 -75 1647 -75 
Q 1250 -75 917 144 
Q 584 363 401 755 
Q 219 1147 219 1656 
Q 219 2153 384 2558 
Q 550 2963 881 3178 
Q 1213 3394 1622 3394 
Q 1922 3394 2156 3267 
Q 2391 3141 2538 2938 
L 2538 4581 
L 3097 4581 
L 3097 0 
L 2575 0 
z
M 797 1656 
Q 797 1019 1065 703 
Q 1334 388 1700 388 
Q 2069 388 2326 689 
Q 2584 991 2584 1609 
Q 2584 2291 2321 2609 
Q 2059 2928 1675 2928 
Q 1300 2928 1048 2622 
Q 797 2316 797 1656 
z
" transform="scale(0.015625)"/>
       <path id="ArialMT-70" d="M 422 -1272 
L 422 3319 
L 934 3319 
L 934 2888 
Q 1116 3141 1344 3267 
Q 1572 3394 1897 3394 
Q 2322 3394 2647 3175 
Q 2972 2956 3137 2557 
Q 3303 2159 3303 1684 
Q 3303 1175 3120 767 
Q 2938 359 2589 142 
Q 2241 -75 1856 -75 
Q 1575 -75 1351 44 
Q 1128 163 984 344 
L 984 -1272 
L 422 -1272 
z
M 931 1641 
Q 931 1000 1190 694 
Q 1450 388 1819 388 
Q 2194 388 2461 705 
Q 2728 1022 2728 1688 
Q 2728 2322 2467 2637 
Q 2206 2953 1844 2953 
Q 1484 2953 1207 2617 
Q 931 2281 931 1641 
z
" transform="scale(0.015625)"/>
       <path id="ArialMT-74" d="M 1650 503 
L 1731 6 
Q 1494 -44 1306 -44 
Q 1000 -44 831 53 
Q 663 150 594 308 
Q 525 466 525 972 
L 525 2881 
L 113 2881 
L 113 3319 
L 525 3319 
L 525 4141 
L 1084 4478 
L 1084 3319 
L 1650 3319 
L 1650 2881 
L 1084 2881 
L 1084 941 
Q 1084 700 1114 631 
Q 1144 563 1211 522 
Q 1278 481 1403 481 
Q 1497 481 1650 503 
z
" transform="scale(0.015625)"/>
       <path id="ArialMT-73" d="M 197 991 
L 753 1078 
Q 800 744 1014 566 
Q 1228 388 1613 388 
Q 2000 388 2187 545 
Q 2375 703 2375 916 
Q 2375 1106 2209 1216 
Q 2094 1291 1634 1406 
Q 1016 1563 777 1677 
Q 538 1791 414 1992 
Q 291 2194 291 2438 
Q 291 2659 392 2848 
Q 494 3038 669 3163 
Q 800 3259 1026 3326 
Q 1253 3394 1513 3394 
Q 1903 3394 2198 3281 
Q 2494 3169 2634 2976 
Q 2775 2784 2828 2463 
L 2278 2388 
Q 2241 2644 2061 2787 
Q 1881 2931 1553 2931 
Q 1166 2931 1000 2803 
Q 834 2675 834 2503 
Q 834 2394 903 2306 
Q 972 2216 1119 2156 
Q 1203 2125 1616 2013 
Q 2213 1853 2448 1751 
Q 2684 1650 2818 1456 
Q 2953 1263 2953 975 
Q 2953 694 2789 445 
Q 2625 197 2315 61 
Q 2006 -75 1616 -75 
Q 969 -75 630 194 
Q 291 463 197 991 
z
" transform="scale(0.015625)"/>
      </defs>
      <use xlink:href="#ArialMT-61"/>
      <use xlink:href="#ArialMT-75" x="55.615234"/>
      <use xlink:href="#ArialMT-2d" x="111.230469"/>
      <use xlink:href="#ArialMT-30" x="144.53125"/>
      <use xlink:href="#ArialMT-34" x="200.146484"/>
      <use xlink:href="#ArialMT-35" x="255.761719"/>
      <use xlink:href="#ArialMT-2d" x="311.376953"/>
      <use xlink:href="#ArialMT-64" x="344.677734"/>
      <use xlink:href="#ArialMT-2d" x="400.292969"/>
      <use xlink:href="#ArialMT-70" x="433.59375"/>
      <use xlink:href="#ArialMT-74" x="489.208984"/>
      <use xlink:href="#ArialMT-73" x="516.992188"/>
      <use xlink:href="#ArialMT-61" x="566.992188"/>
     </g>
    </g>
   </g>
   <g id="PolyCollection_1"/>
   <g id="line2d_25">
    <path d="M 395.135487 270.381111 
L 394.992638 269.433797 
L 394.706943 266.865151 
L 394.635518 266.827851 
L 394.421246 267.782262 
L 394.278398 268.201832 
L 394.135551 267.965702 
L 393.921279 267.546708 
L 393.778431 267.896379 
L 393.421311 268.991297 
L 393.207039 269.708425 
L 392.849919 271.008337 
L 392.70707 270.043238 
L 392.135679 263.011982 
L 392.064255 263.060903 
L 391.921406 263.693806 
L 391.635711 266.540184 
L 391.350015 268.96748 
L 391.278591 268.971073 
L 391.135742 268.18041 
L 390.850047 266.668672 
L 390.707199 267.633106 
L 390.350078 270.596618 
L 390.207231 269.415923 
L 389.778686 264.84545 
L 389.707263 264.864876 
L 389.564414 265.983034 
L 389.207294 269.652719 
L 389.064447 268.988414 
L 388.42163 265.401668 
L 388.278783 266.181598 
L 387.993087 269.942692 
L 387.707391 273.133463 
L 387.564543 271.345501 
L 387.207423 265.412667 
L 387.064574 265.189799 
L 386.921726 265.397233 
L 386.707455 266.472547 
L 386.493182 267.536773 
L 386.421759 267.524976 
L 386.27891 267.010404 
L 385.993215 264.909716 
L 385.564671 260.726036 
L 385.421823 260.683458 
L 385.207551 261.068123 
L 384.921854 261.71615 
L 384.779007 261.054462 
L 384.493311 259.506045 
L 384.350462 259.705408 
L 384.13619 260.629836 
L 383.921919 263.64422 
L 383.350527 275.318021 
L 383.279103 275.341528 
L 383.136255 274.214277 
L 382.493439 266.8738 
L 382.350591 267.281838 
L 382.136319 268.982693 
L 381.850622 271.127334 
L 381.707775 270.134825 
L 381.493502 266.062779 
L 380.850686 250.116461 
L 380.779263 250.238074 
L 380.636415 251.558655 
L 380.422143 256.312834 
L 380.065022 264.824915 
L 379.779327 266.976608 
L 379.636479 267.247776 
L 379.49363 266.632791 
L 379.065087 263.530546 
L 378.993663 263.572503 
L 378.77939 264.982675 
L 378.707966 265.355143 
L 378.636543 265.298328 
L 378.493695 263.723654 
L 378.279423 261.5053 
L 378.136574 262.827567 
L 377.850879 265.813964 
L 377.708031 266.202976 
L 377.493759 268.332626 
L 377.065215 273.0731 
L 376.993791 273.13302 
L 376.779518 272.30071 
L 376.708095 272.337656 
L 376.422398 274.472761 
L 376.350975 274.400511 
L 376.136703 271.911876 
L 375.279614 261.182551 
L 375.208191 261.225484 
L 375.065343 261.945095 
L 374.85107 265.755996 
L 374.565375 270.138772 
L 374.136831 271.920569 
L 374.065406 271.999516 
L 373.993983 271.883136 
L 373.851135 270.783783 
L 373.565439 264.828064 
L 373.351166 261.599859 
L 373.065471 260.683946 
L 372.922622 260.325759 
L 372.851199 260.397343 
L 372.70835 261.495499 
L 372.279807 267.52054 
L 372.208383 267.45827 
L 371.994111 265.254686 
L 371.636991 262.269973 
L 371.279871 260.703594 
L 371.137023 261.502418 
L 370.851327 263.438959 
L 370.779902 263.370169 
L 370.56563 262.219368 
L 370.20851 259.695074 
L 370.137087 259.959101 
L 369.922815 263.309495 
L 369.637119 266.896242 
L 369.208574 270.17106 
L 369.065726 269.616217 
L 368.780031 268.590887 
L 368.637182 269.19474 
L 368.280062 272.360719 
L 368.137215 270.767151 
L 367.780095 265.535256 
L 367.494398 264.21605 
L 367.351551 265.23934 
L 366.851583 271.124761 
L 366.780159 271.094558 
L 366.637311 269.818817 
L 366.137343 264.163227 
L 365.851647 262.138115 
L 365.708799 261.906464 
L 365.56595 260.75176 
L 365.351678 258.922905 
L 365.280255 259.103773 
L 364.708863 263.911352 
L 364.280319 269.317107 
L 364.208895 269.515893 
L 364.137471 269.384611 
L 363.994622 268.106519 
L 363.280383 259.596213 
L 363.137535 258.931731 
L 362.994687 259.221172 
L 362.780415 260.472742 
L 362.351871 266.128908 
L 362.137599 267.97608 
L 362.066174 267.862361 
L 361.923327 266.139153 
L 361.709054 263.261107 
L 361.637631 263.212276 
L 361.209087 264.790764 
L 361.066238 265.601341 
L 360.494846 270.603049 
L 360.351999 269.313736 
L 359.994879 264.792671 
L 359.923454 264.681791 
L 359.852031 264.762644 
L 359.637759 265.532773 
L 359.423487 267.084693 
L 358.780671 272.983864 
L 358.709247 273.108538 
L 358.566398 271.799755 
L 357.995007 261.589924 
L 357.852159 261.459574 
L 357.495039 261.730032 
L 357.352191 262.253785 
L 357.209342 262.939289 
L 357.137919 262.914541 
L 356.99507 261.385727 
L 356.63795 255.732355 
L 356.566527 255.93256 
L 356.352255 258.946634 
L 355.995135 263.471735 
L 355.495166 267.310268 
L 355.352319 266.816364 
L 355.138047 264.735279 
L 354.709502 257.805501 
L 354.209535 247.328405 
L 354.138111 247.329159 
L 353.995263 248.449934 
L 353.709566 255.013764 
L 353.495294 258.102659 
L 353.352447 258.412591 
L 353.209599 258.317678 
L 352.923902 257.436803 
L 352.781054 258.518016 
L 352.423935 265.636911 
L 351.99539 275.155205 
L 351.923967 274.834274 
L 351.709695 270.887922 
L 351.352575 264.333716 
L 351.281151 264.059887 
L 351.209726 264.099715 
L 350.638335 266.140351 
L 350.566911 265.957044 
L 350.352639 264.30298 
L 349.995519 261.429902 
L 349.924095 261.422407 
L 349.781247 262.145211 
L 349.424126 264.394345 
L 349.352703 264.258052 
L 349.209855 262.785211 
L 348.709887 253.200921 
L 348.638463 253.23862 
L 348.495614 254.778921 
L 347.781375 267.388726 
L 347.70995 267.469447 
L 347.567103 266.710496 
L 347.067135 260.661814 
L 346.995711 260.861132 
L 346.781439 262.768623 
L 346.352894 267.706242 
L 346.067199 268.479253 
L 345.852927 269.05268 
L 345.710079 268.582638 
L 345.495807 267.853092 
L 345.424382 268.012803 
L 345.210111 269.922024 
L 344.995838 271.53963 
L 344.924415 271.454607 
L 344.710143 269.866939 
L 344.424447 267.75361 
L 344.353023 267.715734 
L 344.138751 268.038173 
L 343.995902 266.878457 
L 343.710207 264.268253 
L 343.495934 265.005605 
L 343.42451 264.932513 
L 343.138815 263.896051 
L 343.06739 263.979566 
L 342.924543 264.7414 
L 342.71027 268.480362 
L 342.424575 273.460027 
L 342.281726 271.964744 
L 341.638911 261.816252 
L 341.424639 260.46467 
L 341.28179 261.16073 
L 341.067519 264.222171 
L 340.638975 270.777086 
L 340.496127 271.254801 
L 340.424703 271.13545 
L 340.067583 269.146928 
L 339.996158 269.210751 
L 339.781887 269.698933 
L 339.639039 268.807813 
L 339.139071 263.98644 
L 338.924799 262.374688 
L 338.496255 255.889849 
L 338.42483 255.9884 
L 338.210559 257.968184 
L 337.782015 261.402581 
L 337.496319 263.280977 
L 337.353471 264.04667 
L 337.282046 263.874939 
L 337.067775 261.052511 
L 336.853502 259.420357 
L 336.710655 261.074776 
L 336.282111 267.434985 
L 335.924991 269.674141 
L 335.782143 268.423148 
L 335.353598 262.071587 
L 334.782207 260.942917 
L 334.710783 261.052245 
L 334.49651 262.724093 
L 334.282239 264.046581 
L 334.13939 264.324668 
L 333.996543 265.185452 
L 333.353726 270.913646 
L 333.282303 270.981682 
L 333.139454 270.241314 
L 332.139519 261.137135 
L 332.068095 261.191067 
L 331.782398 263.513337 
L 331.639551 262.386752 
L 331.211006 257.661401 
L 331.139583 257.54134 
L 330.996735 258.123993 
L 330.639614 261.405686 
L 330.211071 267.509231 
L 329.49683 264.23419 
L 329.353983 264.496843 
L 329.068286 265.566569 
L 328.711166 267.933458 
L 328.425471 267.124788 
L 328.354046 267.295099 
L 328.068351 268.188127 
L 327.71123 267.576202 
L 327.568382 267.457206 
L 327.211262 266.155297 
L 327.139838 266.25092 
L 326.925567 267.57363 
L 326.639871 271.124761 
L 326.425598 273.509258 
L 326.354174 273.559731 
L 326.068478 272.646656 
L 325.925631 272.669409 
L 325.782782 271.817584 
L 325.068543 265.161103 
L 324.782847 262.229746 
L 324.425726 257.992046 
L 324.211455 259.47562 
L 324.068606 260.050599 
L 323.997183 259.951606 
L 323.782911 258.641536 
L 323.06867 251.17022 
L 322.854399 249.277853 
L 322.782975 249.326818 
L 322.568702 251.676409 
L 322.425855 252.669007 
L 322.354431 252.322884 
L 322.140158 248.347082 
L 321.211647 226.836185 
L 321.140223 227.007561 
L 320.997374 229.047975 
L 320.21171 248.686242 
L 319.568894 261.14015 
L 318.854655 269.132647 
L 318.354687 271.602566 
L 317.997567 275.465536 
L 317.854718 274.461895 
L 317.640446 272.901059 
L 317.426175 272.330692 
L 317.211903 271.103206 
L 317.140478 271.143256 
L 316.569087 273.726405 
L 316.426239 272.858392 
L 315.997695 268.540237 
L 315.640575 266.052445 
L 315.56915 266.103405 
L 315.283455 267.057373 
L 314.997759 266.184969 
L 314.712063 266.825057 
L 314.569215 265.950302 
L 313.997822 260.083375 
L 313.926399 260.242954 
L 313.712127 262.688213 
L 313.355007 266.231893 
L 313.140735 267.969693 
L 313.069311 267.88711 
L 312.926463 266.196278 
L 312.640767 262.434564 
L 312.355071 261.458775 
L 312.283647 261.507341 
L 312.140799 262.680495 
L 311.855103 265.302364 
L 311.64083 264.993984 
L 311.497983 266.053509 
L 311.28371 267.479426 
L 311.140863 266.606889 
L 310.426623 260.367406 
L 310.212351 260.598036 
L 310.140926 260.455356 
L 309.926655 259.956041 
L 309.712382 260.412645 
L 309.49811 259.687667 
L 309.426687 259.995425 
L 309.140991 264.772446 
L 308.783871 268.138719 
L 308.641023 268.428603 
L 308.498175 267.254562 
L 308.141054 259.758187 
L 307.926783 256.873178 
L 307.855359 256.917042 
L 307.498239 259.00744 
L 307.426814 258.963576 
L 307.35539 259.092507 
L 307.141119 261.15767 
L 306.498303 268.836908 
L 306.141183 276.118309 
L 306.069759 275.738301 
L 305.855486 271.388789 
L 305.069822 252.365773 
L 304.998399 252.565578 
L 304.784127 255.735194 
L 304.498431 259.873502 
L 304.212735 261.063555 
L 304.141311 261.085952 
L 303.998463 260.736281 
L 303.712767 258.891859 
L 303.212799 253.847351 
L 302.998527 251.903891 
L 302.927103 251.917684 
L 302.71283 252.24549 
L 302.569983 252.184506 
L 302.427135 252.711851 
L 302.141439 255.256015 
L 301.855743 257.984994 
L 301.784319 257.736578 
L 301.570046 255.995984 
L 301.498623 256.393023 
L 300.927231 265.025918 
L 300.855806 265.018555 
L 300.641535 264.251576 
L 300.57011 264.438742 
L 300.284415 266.513395 
L 300.141567 264.901289 
L 299.927295 262.313527 
L 299.427327 261.13811 
L 299.284478 260.255594 
L 298.570239 251.782233 
L 298.07027 236.036342 
L 297.284606 212.380316 
L 296.213246 179.119509 
L 295.713279 158.096794 
L 295.499007 155.899374 
L 295.427582 155.904874 
L 295.284735 158.018601 
L 294.999038 171.032809 
L 293.856254 230.432289 
L 293.499134 242.554534 
L 293.142015 251.792301 
L 292.927743 256.80146 
L 292.499199 269.925927 
L 292.356351 270.544149 
L 292.142079 270.544549 
L 291.999231 270.350996 
L 291.856382 269.745991 
L 291.642111 267.354309 
L 291.356415 264.330523 
L 291.213567 265.154894 
L 291.070718 265.865501 
L 290.927871 265.008842 
L 290.785022 264.012608 
L 290.713598 264.027998 
L 290.499326 265.536055 
L 289.999358 270.382886 
L 289.927934 270.371975 
L 289.856511 270.38905 
L 289.570814 271.189072 
L 289.427967 270.137486 
L 288.78515 261.312768 
L 288.642303 260.862285 
L 288.07091 257.53828 
L 287.928063 257.63683 
L 287.642366 258.199923 
L 287.499519 257.72101 
L 286.785279 254.284706 
L 286.642431 255.24475 
L 286.356735 257.458624 
L 286.142463 257.862981 
L 285.856767 259.775484 
L 285.785343 259.540285 
L 285.071102 253.705646 
L 284.928254 253.960005 
L 284.713983 254.263994 
L 284.571134 254.253039 
L 284.428287 255.372084 
L 283.999743 260.030951 
L 283.856895 260.225169 
L 283.714046 259.795664 
L 283.356926 257.977321 
L 283.214079 257.935186 
L 283.071231 258.174643 
L 282.928382 259.109805 
L 282.35699 266.071694 
L 282.285567 265.866477 
L 281.857022 263.201321 
L 281.714175 262.64049 
L 281.499903 261.160286 
L 281.428478 261.229608 
L 281.285631 262.742322 
L 280.714239 272.096602 
L 280.571391 271.015434 
L 279.571455 256.748149 
L 279.428607 256.607997 
L 279.285759 255.331591 
L 278.714366 244.95788 
L 278.571519 245.97323 
L 278.000127 253.237289 
L 277.571582 262.620753 
L 277.071615 266.913583 
L 277.000191 266.712624 
L 276.857343 265.164252 
L 276.357374 254.34813 
L 276.285951 254.586699 
L 275.928831 258.95271 
L 275.143167 268.140005 
L 275.071743 268.114192 
L 274.85747 266.912075 
L 274.786046 267.034975 
L 274.428926 269.17181 
L 274.286079 269.166133 
L 274.071806 269.429184 
L 273.928959 268.983979 
L 273.643262 267.490958 
L 272.786175 256.011995 
L 272.714751 256.186431 
L 272.500478 259.122445 
L 272.143358 267.433478 
L 271.929087 270.533771 
L 271.786238 270.253245 
L 271.714814 270.307665 
L 271.571967 270.838602 
L 271.500542 270.782541 
L 271.071999 267.558018 
L 270.286335 257.915937 
L 270.21491 257.967785 
L 270.072063 260.014275 
L 269.572095 268.572437 
L 269.500671 268.632002 
L 269.286399 266.612744 
L 269.000702 262.484149 
L 268.715007 257.582233 
L 268.572159 257.384068 
L 268.500735 257.385621 
L 268.357887 256.448019 
L 268.072191 254.054253 
L 267.786495 256.447487 
L 267.572223 259.650145 
L 267.357951 262.567531 
L 267.286527 262.740504 
L 267.215103 262.691096 
L 267.000831 262.229169 
L 266.857983 261.03202 
L 266.500863 257.325036 
L 266.358014 258.571416 
L 266.000895 262.074337 
L 265.715199 262.909263 
L 265.57235 263.249088 
L 265.358079 265.229494 
L 264.858111 271.043464 
L 264.643839 273.774793 
L 264.572415 273.801449 
L 264.429567 272.260572 
L 263.715327 259.5386 
L 263.643902 259.33396 
L 263.572478 259.458811 
L 263.429631 260.586771 
L 262.786814 269.036137 
L 262.715391 268.766654 
L 262.501119 265.064061 
L 262.143999 257.709789 
L 262.072574 257.648318 
L 261.858303 258.623973 
L 261.715455 257.464345 
L 261.501183 256.008535 
L 261.28691 256.141237 
L 261.072639 254.928609 
L 260.858366 254.26497 
L 260.715519 254.520881 
L 260.572671 255.770986 
L 260.072702 264.009991 
L 260.001279 264.105259 
L 259.787007 265.573931 
L 259.501311 268.17012 
L 259.144191 272.473861 
L 258.929918 272.110884 
L 258.858495 272.21174 
L 258.715647 272.424364 
L 258.572798 271.589881 
L 257.929982 264.292114 
L 257.858559 264.619387 
L 257.715711 265.412623 
L 257.644287 265.258367 
L 257.144318 260.96598 
L 257.072895 261.090121 
L 256.858623 261.925713 
L 256.64435 263.643377 
L 256.358655 268.170253 
L 256.072959 272.533337 
L 256.001535 272.28705 
L 255.430143 267.456629 
L 255.073023 265.34645 
L 255.001599 265.561956 
L 254.787327 266.401939 
L 254.644479 265.755198 
L 254.430206 264.854409 
L 254.358783 264.885455 
L 254.215935 265.587148 
L 253.501695 271.637781 
L 253.430271 271.734601 
L 253.358846 271.639023 
L 253.215999 270.855057 
L 252.930303 268.717157 
L 252.787454 269.45074 
L 252.573183 270.535723 
L 252.430335 270.496915 
L 252.287486 270.184898 
L 252.00179 269.452159 
L 251.930367 269.301096 
L 251.787519 267.669386 
L 251.216127 254.424016 
L 251.144702 254.462957 
L 250.787583 256.271764 
L 250.644734 255.690665 
L 250.359038 254.334957 
L 250.216191 254.466416 
L 250.144767 254.277566 
L 250.001919 252.132925 
L 249.501951 240.435883 
L 249.287678 238.666282 
L 249.073407 233.092744 
L 248.359167 206.149791 
L 247.930622 161.101465 
L 247.002111 52.594474 
L 246.573566 27.29698 
L 246.359295 23.663664 
L 246.28787 23.376618 
L 246.216447 23.602326 
L 246.073599 25.625708 
L 245.787903 33.492689 
L 245.502206 51.638068 
L 244.787967 118.322187 
L 244.073727 187.698649 
L 243.502335 221.61662 
L 243.145215 233.546465 
L 242.430975 252.879058 
L 242.359551 253.097004 
L 242.216702 252.529431 
L 242.002431 251.800196 
L 241.859583 252.669761 
L 241.573887 254.521457 
L 241.431038 255.28715 
L 240.716799 261.689184 
L 240.216831 264.647728 
L 240.073982 264.03505 
L 239.788286 262.435229 
L 239.645439 262.267223 
L 239.50259 261.026166 
L 239.074047 254.561241 
L 238.859775 255.287638 
L 238.788351 255.074083 
L 238.43123 251.784407 
L 238.288383 253.671185 
L 237.931263 261.381913 
L 237.788415 260.230846 
L 237.574143 258.824222 
L 237.35987 260.651214 
L 237.217023 261.339069 
L 237.002751 260.506538 
L 236.931327 260.620922 
L 236.788478 262.65659 
L 236.359935 271.00816 
L 236.002814 267.009561 
L 235.931391 267.18728 
L 235.788543 267.456541 
L 235.431422 265.820262 
L 235.359999 265.913668 
L 235.217151 266.00113 
L 235.002879 265.905729 
L 234.860031 266.467269 
L 234.645758 267.259928 
L 234.502911 266.095023 
L 234.288639 264.53982 
L 234.145791 264.672965 
L 234.002943 264.099937 
L 233.645823 261.214484 
L 233.431551 259.144089 
L 233.288702 261.337073 
L 232.931583 267.761993 
L 232.788735 267.920285 
L 232.645887 267.576912 
L 232.503039 265.876057 
L 232.217343 256.29261 
L 231.860223 245.235435 
L 231.788799 244.881772 
L 231.64595 246.63097 
L 231.360254 255.400736 
L 230.931711 271.658006 
L 230.646015 274.216939 
L 230.57459 274.41395 
L 230.503167 274.353897 
L 230.360319 273.403612 
L 229.931775 267.987789 
L 229.503231 257.593454 
L 229.217534 252.342443 
L 229.146111 251.985632 
L 229.074687 252.015658 
L 228.860415 253.440555 
L 228.574719 256.926533 
L 228.146175 263.013623 
L 227.931903 263.264478 
L 227.789055 263.216312 
L 227.574782 262.830316 
L 227.431935 262.063382 
L 227.146239 260.129457 
L 227.00339 261.728081 
L 226.717695 265.371243 
L 226.646271 265.364545 
L 226.360575 263.99021 
L 226.289151 264.11852 
L 226.217726 264.19862 
L 226.146303 263.939383 
L 225.93203 261.084932 
L 225.503487 255.67492 
L 225.360639 257.313105 
L 225.003519 262.236621 
L 224.717823 263.796214 
L 224.360703 267.509098 
L 224.289278 267.432945 
L 224.146431 266.233756 
L 223.78931 262.107423 
L 223.717887 262.227573 
L 223.646463 262.122414 
L 223.432191 259.702037 
L 223.003647 255.214679 
L 222.932222 255.354033 
L 222.360831 259.271379 
L 221.860862 267.107135 
L 221.789439 267.119554 
L 221.646591 268.19886 
L 221.360895 271.39247 
L 221.289471 271.318757 
L 221.146623 269.962473 
L 220.718079 263.856844 
L 220.646655 263.914812 
L 220.075263 266.277265 
L 219.789567 268.729975 
L 219.718142 268.620027 
L 219.432446 266.082249 
L 219.218175 264.522478 
L 219.14675 264.727252 
L 218.861054 266.711471 
L 218.575359 265.911672 
L 218.432511 265.520664 
L 217.932543 262.935608 
L 217.861119 263.027151 
L 217.646847 264.113642 
L 217.075455 267.830162 
L 216.575487 270.548895 
L 216.432638 269.402662 
L 216.146942 265.880803 
L 215.932671 265.027825 
L 215.575551 262.071454 
L 215.504127 261.993217 
L 215.432703 262.102944 
L 215.289855 263.008257 
L 214.932735 266.287111 
L 214.789886 265.220268 
L 214.647039 264.310786 
L 214.504191 265.480703 
L 214.361343 266.442698 
L 214.218495 264.552416 
L 213.932799 260.670685 
L 213.504255 259.506711 
L 213.361407 259.856293 
L 213.147135 261.21821 
L 212.790015 266.010931 
L 212.718591 265.596462 
L 212.290047 260.328553 
L 212.075774 258.26827 
L 211.932927 257.227328 
L 211.861503 257.354752 
L 211.718655 259.20454 
L 211.147263 270.182193 
L 211.075839 270.407323 
L 210.932991 269.371261 
L 210.575871 265.791034 
L 210.433022 264.836845 
L 210.075902 259.639722 
L 209.647358 262.706663 
L 209.290238 268.438494 
L 209.147391 268.726516 
L 208.933119 270.257458 
L 208.861694 270.20051 
L 208.718846 267.375731 
L 208.361727 259.041059 
L 208.076031 255.403663 
L 208.004607 255.602582 
L 206.790398 271.884511 
L 206.718975 271.698765 
L 206.361854 269.440095 
L 206.290431 269.443599 
L 206.219007 269.090291 
L 205.719039 262.735315 
L 205.647615 262.910106 
L 205.21907 264.153913 
L 205.147647 264.173472 
L 205.004798 263.83653 
L 204.790526 263.153022 
L 204.647678 263.200922 
L 204.433406 262.773413 
L 204.290559 264.654559 
L 203.933439 271.506499 
L 203.862014 271.583317 
L 203.647742 271.292368 
L 203.504895 271.302657 
L 203.362047 269.486576 
L 202.790655 254.624975 
L 202.71923 254.312648 
L 202.576383 255.151921 
L 202.362111 256.417949 
L 202.219263 256.449483 
L 202.076414 257.019007 
L 201.862143 257.95652 
L 201.790719 257.97293 
L 201.647871 257.328717 
L 201.433599 256.384019 
L 201.290751 257.978385 
L 200.93363 262.440108 
L 200.790783 262.862117 
L 200.647935 261.802148 
L 200.362238 255.917836 
L 199.933695 245.368668 
L 199.862271 244.891662 
L 199.790846 244.995712 
L 199.505151 247.73365 
L 199.362302 249.890842 
L 198.648062 266.270524 
L 198.505215 266.427131 
L 198.362367 265.463672 
L 198.076671 261.027896 
L 197.576703 252.426402 
L 197.005311 245.803761 
L 196.791039 247.736089 
L 196.576767 251.122364 
L 196.219647 257.533934 
L 196.148223 257.503863 
L 195.93395 255.876987 
L 195.576831 253.107782 
L 195.362559 250.271116 
L 195.291134 250.281761 
L 194.14835 254.879112 
L 193.862655 256.417683 
L 193.576958 256.941169 
L 193.291263 255.988843 
L 193.148415 256.863021 
L 192.791294 259.068335 
L 192.719871 259.042833 
L 192.291327 257.682069 
L 192.077055 254.431201 
L 191.791359 250.915107 
L 191.577087 250.609566 
L 191.434238 250.849378 
L 190.934271 252.507034 
L 190.291454 259.75282 
L 190.220031 259.729092 
L 190.077182 259.188352 
L 189.577215 256.388499 
L 189.220095 251.698142 
L 189.14867 251.635339 
L 189.005823 250.511061 
L 188.862975 249.016443 
L 188.791551 249.084966 
L 188.577279 252.37726 
L 188.077311 262.270683 
L 188.005887 261.886462 
L 187.791614 260.302519 
L 187.648767 260.444268 
L 187.577342 260.182236 
L 187.434495 257.637496 
L 187.077375 250.138415 
L 186.934527 249.810654 
L 186.720255 249.091397 
L 186.577406 249.111178 
L 186.363135 247.623302 
L 186.291711 247.730279 
L 186.148863 250.439654 
L 185.791742 259.205428 
L 185.720319 259.252707 
L 185.363199 256.932831 
L 185.006079 254.611314 
L 184.791807 254.125438 
L 184.720383 254.196135 
L 184.577535 255.226388 
L 184.148991 259.406076 
L 184.006143 258.772552 
L 183.791871 255.919343 
L 183.577599 253.13253 
L 183.506174 252.983419 
L 183.434751 253.081747 
L 183.291902 253.126764 
L 183.07763 252.718637 
L 182.934782 253.068086 
L 182.577663 254.563281 
L 182.36339 254.457324 
L 182.220543 254.743395 
L 182.077695 255.906437 
L 181.506303 263.331583 
L 181.292031 264.01793 
L 181.149182 264.588696 
L 181.077759 264.32356 
L 180.863487 260.820373 
L 180.649215 258.561392 
L 180.57779 258.588935 
L 180.22067 259.553147 
L 180.077823 258.956169 
L 179.506431 254.549399 
L 179.220734 249.543167 
L 179.149311 249.745989 
L 178.720767 252.478161 
L 178.577919 253.708795 
L 178.149375 261.219807 
L 177.435135 272.861719 
L 177.363711 272.954858 
L 177.220863 271.381914 
L 176.935166 267.602059 
L 176.792319 268.172204 
L 176.720894 267.880812 
L 176.29235 261.726839 
L 176.220927 261.741031 
L 176.078079 262.022534 
L 175.93523 260.879095 
L 175.720958 258.444658 
L 175.649535 258.458939 
L 175.435263 259.758763 
L 175.006719 263.333313 
L 174.721023 262.059789 
L 174.649599 262.11656 
L 174.149631 265.415683 
L 173.935359 267.715778 
L 173.79251 266.293188 
L 173.43539 261.370337 
L 173.363967 261.206856 
L 173.292543 261.247837 
L 173.221118 261.28017 
L 173.006846 260.577013 
L 172.935423 260.628639 
L 172.649726 262.593743 
L 172.435454 266.200403 
L 172.292607 267.984196 
L 172.221182 267.794547 
L 171.64979 262.594319 
L 171.221247 254.964001 
L 171.149823 255.04592 
L 171.006975 257.558993 
L 170.649855 265.194855 
L 170.578431 265.324363 
L 170.435583 264.36219 
L 169.864191 256.869541 
L 169.721342 258.515798 
L 169.221375 269.160811 
L 168.007166 261.864907 
L 167.864319 258.792777 
L 167.507199 248.70141 
L 167.435774 248.672404 
L 167.221502 250.92074 
L 166.864383 256.811706 
L 166.507263 261.966206 
L 166.435838 261.986697 
L 166.150143 260.066743 
L 166.078718 260.138461 
L 165.650174 261.884111 
L 165.435902 264.58089 
L 165.078782 271.195769 
L 164.935935 271.452434 
L 164.793087 271.376681 
L 164.578815 271.036811 
L 164.435967 269.91821 
L 164.150271 261.958046 
L 163.935998 258.199169 
L 163.650303 256.224263 
L 163.436031 253.761353 
L 163.293183 254.971763 
L 162.793215 260.612495 
L 162.650367 261.233245 
L 162.36467 259.906677 
L 162.293247 260.110607 
L 161.793278 264.321963 
L 161.650431 265.743844 
L 161.579006 265.715769 
L 161.364734 264.564391 
L 161.150463 265.050977 
L 161.007614 262.840473 
L 160.579071 253.142154 
L 160.436222 252.768577 
L 160.150527 253.830231 
L 159.936255 253.180785 
L 159.793407 254.021211 
L 159.436286 257.367081 
L 159.364863 257.262544 
L 159.150591 256.395817 
L 159.007743 257.514596 
L 158.650622 260.569296 
L 158.436351 261.938841 
L 158.293502 260.879582 
L 158.007807 258.089531 
L 157.793535 257.693024 
L 157.150718 254.524917 
L 157.007871 256.477646 
L 156.722174 262.60523 
L 156.650751 262.783436 
L 156.507903 262.544557 
L 156.436479 262.595827 
L 156.293631 263.416162 
L 155.93651 268.186841 
L 155.865087 268.093435 
L 155.57939 266.041978 
L 155.507967 266.286269 
L 155.22227 268.943264 
L 155.150847 268.695115 
L 155.007998 266.434537 
L 154.579454 257.377903 
L 154.222334 257.051029 
L 154.079487 258.193271 
L 153.508095 267.181469 
L 153.43667 267.154282 
L 153.293823 265.276108 
L 152.865278 256.848651 
L 152.793855 256.795916 
L 152.651006 257.587067 
L 152.079614 264.414126 
L 152.008191 264.457724 
L 151.936767 264.315576 
L 151.722494 262.499672 
L 151.365375 259.630275 
L 151.151102 259.622913 
L 151.079678 259.863168 
L 150.93683 261.754071 
L 150.722558 265.031994 
L 150.651135 264.851437 
L 150.294015 262.484282 
L 150.151166 262.800911 
L 149.865471 264.80846 
L 149.794046 264.523809 
L 149.365502 258.753791 
L 149.294079 258.969076 
L 149.222655 259.102797 
L 149.15123 258.778185 
L 148.865535 254.48806 
L 148.79411 254.631849 
L 148.579838 258.549107 
L 148.008446 267.925519 
L 147.651326 271.429637 
L 147.508479 270.495717 
L 147.079934 265.200798 
L 147.00851 265.342148 
L 146.937087 265.534458 
L 146.865662 265.474361 
L 146.65139 264.494625 
L 146.579967 264.561952 
L 146.508543 264.674207 
L 146.437118 264.507753 
L 146.079998 261.388965 
L 146.008575 261.636893 
L 145.937151 261.892671 
L 145.865726 261.863709 
L 145.722878 260.304692 
L 145.437183 255.931851 
L 145.365759 255.968086 
L 145.222911 256.310528 
L 145.080062 256.113827 
L 145.008639 256.315096 
L 144.580095 261.25276 
L 144.080127 268.312756 
L 143.937278 267.799869 
L 143.723006 267.104297 
L 143.508735 267.313638 
L 143.223039 266.813481 
L 143.008766 266.747618 
L 142.865919 267.256912 
L 141.937407 272.101348 
L 141.865983 271.980977 
L 141.723135 269.292846 
L 141.366015 261.784408 
L 141.008894 257.150644 
L 140.937471 257.285696 
L 140.723199 259.759029 
L 140.294654 265.705257 
L 140.22323 265.695855 
L 139.50899 261.261054 
L 139.366143 262.86908 
L 139.080446 265.757061 
L 138.866174 267.248042 
L 138.794751 267.218459 
L 138.509054 265.096792 
L 138.437631 265.246214 
L 138.223359 266.208653 
L 138.080511 265.170372 
L 137.937662 264.046714 
L 137.866239 264.21951 
L 137.651967 266.047965 
L 137.580542 266.03599 
L 137.080575 263.484065 
L 136.937726 263.150449 
L 136.866303 263.467522 
L 136.080639 272.135677 
L 135.937791 272.601683 
L 135.866367 272.440109 
L 135.723519 270.875281 
L 135.009278 258.067666 
L 134.937855 258.217487 
L 134.795006 259.669305 
L 134.223614 267.679542 
L 134.152191 267.488607 
L 133.795071 264.189927 
L 133.652222 264.597832 
L 133.580799 264.560798 
L 133.366527 263.90603 
L 133.223679 265.130367 
L 132.72371 272.168807 
L 132.652287 272.155369 
L 132.438015 271.156207 
L 132.080894 269.280073 
L 132.009471 269.177043 
L 131.866623 268.039148 
L 131.509502 263.988347 
L 131.366654 264.469389 
L 131.295231 264.332075 
L 131.080959 261.449151 
L 130.723838 257.841426 
L 130.652415 257.583564 
L 130.58099 257.728683 
L 130.152446 261.073578 
L 130.081023 260.964383 
L 130.009598 260.927083 
L 129.866751 262.0601 
L 129.652479 264.008705 
L 129.366782 261.654057 
L 129.295359 261.706259 
L 129.081087 262.624346 
L 128.723967 264.945419 
L 128.581119 264.986844 
L 128.43827 265.114444 
L 128.223998 265.058871 
L 128.152575 265.089341 
L 128.08115 264.891975 
L 127.938303 263.244209 
L 127.152639 251.22016 
L 126.938367 249.117388 
L 126.795519 250.206806 
L 126.581247 253.922483 
L 126.152703 263.27397 
L 126.081278 263.5741 
L 126.009855 263.419622 
L 125.581311 258.947388 
L 125.224191 250.784535 
L 125.152766 250.840419 
L 125.009919 252.085734 
L 124.438527 260.540024 
L 124.081407 261.095133 
L 123.938558 261.715307 
L 123.867135 261.528364 
L 123.652863 259.976487 
L 123.438591 260.818643 
L 123.367166 260.687361 
L 122.938623 258.198726 
L 122.724351 256.563379 
L 122.581502 257.115783 
L 122.438654 257.537526 
L 122.295807 256.967071 
L 122.152959 256.539473 
L 122.01011 258.206754 
L 121.65299 264.257209 
L 121.510143 263.612287 
L 121.153023 260.314893 
L 121.081598 260.337645 
L 120.795903 260.972456 
L 120.653054 261.26509 
L 120.510206 262.53919 
L 120.010239 270.153497 
L 119.795967 269.514695 
L 119.724542 269.639502 
L 119.438847 271.27201 
L 119.367423 271.258261 
L 119.224575 271.254846 
L 119.15315 271.316628 
L 119.081727 271.208587 
L 118.724606 268.879264 
L 118.438911 264.200128 
L 118.224639 262.327232 
L 118.153214 262.475456 
L 117.153278 268.21975 
L 117.081855 268.368639 
L 116.939007 267.488607 
L 116.796158 266.654435 
L 116.724735 266.74203 
L 116.439038 267.936961 
L 116.367615 267.759509 
L 115.939071 263.924702 
L 115.796222 262.124854 
L 115.439102 255.147929 
L 115.367679 255.227097 
L 115.22483 256.86719 
L 114.653438 266.287111 
L 114.367743 267.82342 
L 114.296318 267.822622 
L 114.153471 266.035281 
L 113.867774 261.369672 
L 113.653503 264.652252 
L 113.439231 266.26356 
L 113.296382 266.076306 
L 113.224959 266.212334 
L 113.08211 267.771706 
L 112.867839 270.623273 
L 112.796415 270.564374 
L 112.510718 267.431127 
L 112.296447 266.410853 
L 112.153598 267.639315 
L 111.867903 270.188535 
L 111.725054 269.291383 
L 111.439359 267.042249 
L 111.296511 266.364018 
L 111.082239 261.905489 
L 110.867967 259.095302 
L 110.725119 259.50263 
L 110.510847 260.52419 
L 110.296575 263.898313 
L 110.153727 265.246347 
L 110.010878 262.954369 
L 109.725183 258.96025 
L 109.439486 257.19127 
L 109.153791 256.562891 
L 109.010942 256.10713 
L 108.939519 256.385882 
L 108.796671 258.990675 
L 108.510975 264.35159 
L 108.296702 263.894898 
L 108.153855 264.360727 
L 108.08243 264.130806 
L 107.72531 258.891992 
L 107.439615 253.059083 
L 107.368191 253.298806 
L 107.153919 258.138274 
L 106.725374 267.510739 
L 106.582527 269.113088 
L 106.511102 269.056184 
L 106.225407 265.984542 
L 106.153982 266.128996 
L 106.011135 266.856946 
L 105.796863 266.126912 
L 105.654015 267.611728 
L 105.511167 269.148348 
L 105.439743 269.067316 
L 105.011198 265.95527 
L 104.582654 258.675111 
L 104.439807 258.410063 
L 104.368382 258.45171 
L 104.225534 259.369219 
L 103.868415 264.856316 
L 103.79699 264.682766 
L 103.511295 262.789779 
L 102.868478 252.233426 
L 102.797055 252.252231 
L 102.582783 255.81933 
L 102.368511 257.799292 
L 102.297086 257.793482 
L 102.154239 257.06296 
L 101.939967 252.875865 
L 101.725695 249.979591 
L 101.582847 249.774906 
L 101.29715 248.269156 
L 101.154303 249.334136 
L 100.654335 257.022999 
L 100.440063 259.219798 
L 100.368639 259.229511 
L 100.225791 260.135888 
L 100.011519 262.052515 
L 99.940094 261.853552 
L 99.368702 256.806783 
L 99.297279 256.85761 
L 99.011583 258.661495 
L 98.940158 258.595942 
L 98.725887 257.88152 
L 98.583038 258.521032 
L 98.083071 262.031049 
L 98.011646 261.996233 
L 97.797374 261.896884 
L 97.654527 262.634192 
L 97.368831 264.61544 
L 97.225982 264.730312 
L 97.083135 265.761141 
L 96.797438 269.110382 
L 96.726015 268.992229 
L 96.511743 266.661753 
L 95.940351 257.734627 
L 95.797503 258.218374 
L 95.583231 260.365232 
L 95.226111 266.083491 
L 95.154687 265.762072 
L 94.797567 262.833332 
L 94.654719 261.580788 
L 94.440447 259.681413 
L 94.297598 260.99166 
L 94.083326 262.633926 
L 93.940478 262.228859 
L 93.797631 263.181762 
L 93.583359 264.218756 
L 93.511934 264.233481 
L 93.297663 265.20541 
L 93.226239 265.047961 
L 93.011967 263.732614 
L 92.869119 265.153829 
L 92.654847 267.912523 
L 92.583422 267.808429 
L 92.440575 265.406148 
L 92.154878 260.08546 
L 91.726335 257.953504 
L 91.369214 252.287979 
L 91.297791 252.58802 
L 90.797822 259.267121 
L 90.654974 258.787853 
L 90.583551 258.664732 
L 90.440702 260.234527 
L 90.22643 262.003906 
L 90.083582 260.03073 
L 89.655038 247.275804 
L 89.583615 247.476275 
L 89.369343 252.259328 
L 88.512254 273.691811 
L 88.440831 273.266741 
L 87.940862 263.796525 
L 87.869439 263.845756 
L 87.72659 264.126681 
L 87.655167 264.094836 
L 87.583743 264.119807 
L 87.36947 265.146112 
L 87.298046 265.03124 
L 87.083775 262.958361 
L 86.583806 257.981534 
L 86.440959 257.01883 
L 86.298111 257.048767 
L 86.083839 256.114537 
L 86.012414 256.252294 
L 85.798142 256.813169 
L 85.655295 256.24369 
L 85.369598 254.704542 
L 85.298175 254.792359 
L 85.083903 257.047171 
L 84.226814 264.974647 
L 84.155391 264.689641 
L 83.869694 262.219767 
L 83.655422 261.476827 
L 83.512575 259.899315 
L 83.155455 254.88572 
L 83.08403 255.001523 
L 82.941183 255.995407 
L 82.655486 261.073046 
L 82.441215 263.636636 
L 82.298366 263.70649 
L 82.226943 263.721437 
L 81.941246 264.304932 
L 81.441279 261.599371 
L 81.29843 261.107907 
L 80.94131 264.1658 
L 80.798463 263.306302 
L 80.369918 257.665526 
L 80.227071 258.19092 
L 80.012799 259.871062 
L 79.798526 258.895895 
L 79.655679 260.954537 
L 79.441407 264.924219 
L 79.369982 264.617126 
L 79.084287 259.410511 
L 78.298623 242.546639 
L 78.155775 240.222062 
L 78.084351 240.280873 
L 77.941503 241.19989 
L 77.870078 241.129016 
L 77.370111 238.774856 
L 77.155839 239.074853 
L 76.941567 238.362471 
L 76.798719 239.132954 
L 76.727295 239.554209 
L 76.65587 239.505334 
L 76.441598 238.280198 
L 76.155903 239.368153 
L 76.013055 237.99466 
L 75.513086 229.815087 
L 75.441663 229.533008 
L 75.370239 229.634175 
L 75.227391 231.01707 
L 74.798847 239.58122 
L 74.441727 246.79321 
L 74.298879 245.539556 
L 74.084607 243.737978 
L 73.941758 245.189175 
L 73.298943 258.913148 
L 73.227519 258.901705 
L 72.584702 251.882158 
L 72.513279 251.672063 
L 72.441854 251.795007 
L 72.227582 252.725334 
L 71.941887 256.105578 
L 71.584767 260.015428 
L 71.370495 259.214209 
L 71.227646 259.544898 
L 71.084798 260.746615 
L 70.799103 263.576095 
L 70.656254 263.292863 
L 70.441982 262.562076 
L 70.370559 262.683245 
L 70.013439 265.682594 
L 69.942015 265.551888 
L 69.799167 264.077761 
L 69.51347 260.7165 
L 69.013503 260.632187 
L 68.799231 258.272661 
L 68.727806 258.588624 
L 68.442111 265.015007 
L 68.370686 264.932823 
L 68.156414 264.062105 
L 67.942142 265.732268 
L 67.799295 266.494723 
L 67.72787 266.335677 
L 67.085055 261.314409 
L 67.01363 261.326074 
L 66.942206 261.555862 
L 66.870783 261.417395 
L 66.585086 257.980248 
L 66.513663 258.328322 
L 66.227966 261.571075 
L 66.156543 261.547745 
L 66.013694 259.562106 
L 65.727999 255.807887 
L 65.58515 254.79196 
L 65.22803 250.404616 
L 65.156607 250.297417 
L 65.085183 250.373392 
L 64.942335 251.884775 
L 64.513791 260.281407 
L 64.299518 260.99166 
L 63.799551 265.548207 
L 63.585279 264.357977 
L 63.371007 263.244121 
L 63.299582 263.318588 
L 63.013887 265.803763 
L 62.942462 265.512859 
L 62.799615 264.525893 
L 62.72819 264.548114 
L 62.585343 265.788639 
L 62.299646 268.614837 
L 61.656831 264.456616 
L 61.442559 265.234284 
L 61.299711 263.956325 
L 61.014015 261.004833 
L 60.94259 261.098105 
L 60.514047 263.805262 
L 60.156926 269.381196 
L 60.085503 269.150299 
L 59.442686 263.402369 
L 59.014142 255.38539 
L 58.871294 256.971639 
L 58.585599 260.482189 
L 58.514175 260.312808 
L 58.08563 257.768467 
L 58.014207 257.684819 
L 57.871358 256.795872 
L 57.514238 250.492965 
L 57.442814 250.995473 
L 56.657151 265.935311 
L 56.585727 266.428727 
L 56.514302 266.23349 
L 56.371455 265.494142 
L 56.228607 266.756134 
L 56.085758 267.753832 
L 55.94291 267.449311 
L 55.871487 267.606628 
L 55.657215 269.04381 
L 55.585791 268.963444 
L 55.442943 267.547063 
L 54.942974 257.759951 
L 54.657279 251.88615 
L 54.514431 253.525799 
L 53.943039 261.744846 
L 53.728767 262.919464 
L 53.514495 263.34755 
L 53.371646 262.555955 
L 53.157375 260.636667 
L 53.085951 260.789016 
L 52.800254 262.632329 
L 52.657406 261.219363 
L 52.157439 254.188063 
L 51.943167 255.270341 
L 51.871742 255.124467 
L 51.65747 254.602843 
L 51.514623 254.738028 
L 51.371775 255.071644 
L 51.228927 254.438741 
L 51.157503 254.109471 
L 51.086078 254.311051 
L 50.871806 257.90822 
L 50.300414 266.192775 
L 50.228991 265.96037 
L 50.014719 262.763833 
L 49.51475 254.277211 
L 49.443327 254.748894 
L 49.086207 259.682744 
L 48.871935 261.499047 
L 48.586238 264.499016 
L 48.514814 264.325068 
L 48.300543 263.065471 
L 48.157694 263.390881 
L 48.086271 263.242524 
L 47.800574 261.37872 
L 47.729151 261.61312 
L 47.657727 261.499801 
L 47.300607 257.400878 
L 47.229182 257.643794 
L 46.872063 259.446126 
L 46.800638 259.206714 
L 46.514943 257.01506 
L 46.300671 254.3625 
L 46.229246 254.393369 
L 46.086399 255.061132 
L 46.014974 254.891752 
L 45.800702 253.220613 
L 45.729279 253.364979 
L 45.515007 254.681745 
L 45.22931 259.900423 
L 45.157887 259.377292 
L 44.943615 257.355062 
L 44.800767 258.621711 
L 44.443646 262.715755 
L 44.300798 261.30789 
L 43.872254 253.436252 
L 43.800831 253.933527 
L 43.586559 255.974739 
L 43.372287 253.73177 
L 43.229439 255.885858 
L 42.800895 265.007201 
L 42.586622 267.051651 
L 42.37235 264.428009 
L 42.300927 264.531704 
L 42.015231 267.659983 
L 41.943806 267.613946 
L 41.800958 266.38575 
L 41.515263 264.10313 
L 41.300991 262.583231 
L 41.229566 262.631398 
L 40.943871 265.381222 
L 40.729599 264.366226 
L 40.58675 264.661034 
L 40.372478 263.769603 
L 40.158207 264.339748 
L 39.801086 263.076071 
L 39.515391 260.387054 
L 39.372543 260.666161 
L 39.229694 260.160149 
L 39.086846 259.800543 
L 38.943999 260.037959 
L 38.729727 259.413039 
L 38.658302 259.474112 
L 38.515454 259.618788 
L 38.372607 259.381948 
L 38.229759 259.714722 
L 38.158335 259.45575 
L 37.872638 254.492229 
L 37.872638 254.492229 
" clip-path="url(#pcd1f5cbc8b)" style="fill: none; stroke: #4c72b0; stroke-linecap: round"/>
   </g>
   <g id="patch_3">
    <path d="M 37.944063 277.248797 
L 37.944063 11.136797 
" style="fill: none; stroke: #262626; stroke-width: 1.25; stroke-linejoin: miter; stroke-linecap: square"/>
   </g>
   <g id="patch_4">
    <path d="M 37.944063 277.248797 
L 395.064062 277.248797 
" style="fill: none; stroke: #262626; stroke-width: 1.25; stroke-linejoin: miter; stroke-linecap: square"/>
   </g>
   <g id="legend_1"/>
  </g>
 </g>
 <defs>
  <clipPath id="pcd1f5cbc8b">
   <rect x="37.944063" y="11.136797" width="357.12" height="266.112"/>
  </clipPath>
 </defs>
</svg>
