<?xml version="1.0" encoding="utf-8" standalone="no"?>
<!DOCTYPE svg PUBLIC "-//W3C//DTD SVG 1.1//EN"
  "http://www.w3.org/Graphics/SVG/1.1/DTD/svg11.dtd">
<svg xmlns:xlink="http://www.w3.org/1999/xlink" width="411.401406pt" height="319.168641pt" viewBox="0 0 411.401406 319.168641" xmlns="http://www.w3.org/2000/svg" version="1.1">
 <metadata>
  <rdf:RDF xmlns:dc="http://purl.org/dc/elements/1.1/" xmlns:cc="http://creativecommons.org/ns#" xmlns:rdf="http://www.w3.org/1999/02/22-rdf-syntax-ns#">
   <cc:Work>
    <dc:type rdf:resource="http://purl.org/dc/dcmitype/StillImage"/>
    <dc:date>2024-05-21T21:17:25.448604</dc:date>
    <dc:format>image/svg+xml</dc:format>
    <dc:creator>
     <cc:Agent>
      <dc:title>Matplotlib v3.7.1, https://matplotlib.org/</dc:title>
     </cc:Agent>
    </dc:creator>
   </cc:Work>
  </rdf:RDF>
 </metadata>
 <defs>
  <style type="text/css">*{stroke-linejoin: round; stroke-linecap: butt}</style>
 </defs>
 <g id="figure_1">
  <g id="patch_1">
   <path d="M 0 319.168641 
L 411.401406 319.168641 
L 411.401406 0 
L 0 0 
z
" style="fill: #ffffff"/>
  </g>
  <g id="axes_1">
   <g id="patch_2">
    <path d="M 47.081406 277.248797 
L 404.201406 277.248797 
L 404.201406 11.136797 
L 47.081406 11.136797 
z
" style="fill: #ffffff"/>
   </g>
   <g id="matplotlib.axis_1">
    <g id="xtick_1">
     <g id="line2d_1">
      <defs>
       <path id="m91ffee19ef" d="M 0 0 
L 0 -6 
" style="stroke: #262626; stroke-width: 1.25"/>
      </defs>
      <g>
       <use xlink:href="#m91ffee19ef" x="380.393406" y="277.248797" style="fill: #262626; stroke: #262626; stroke-width: 1.25"/>
      </g>
     </g>
     <g id="text_1">
      <!-- 600 -->
      <g style="fill: #262626" transform="translate(371.217859 288.622391) scale(0.11 -0.11)">
       <defs>
        <path id="ArialMT-36" d="M 3184 3459 
L 2625 3416 
Q 2550 3747 2413 3897 
Q 2184 4138 1850 4138 
Q 1581 4138 1378 3988 
Q 1113 3794 959 3422 
Q 806 3050 800 2363 
Q 1003 2672 1297 2822 
Q 1591 2972 1913 2972 
Q 2475 2972 2870 2558 
Q 3266 2144 3266 1488 
Q 3266 1056 3080 686 
Q 2894 316 2569 119 
Q 2244 -78 1831 -78 
Q 1128 -78 684 439 
Q 241 956 241 2144 
Q 241 3472 731 4075 
Q 1159 4600 1884 4600 
Q 2425 4600 2770 4297 
Q 3116 3994 3184 3459 
z
M 888 1484 
Q 888 1194 1011 928 
Q 1134 663 1356 523 
Q 1578 384 1822 384 
Q 2178 384 2434 671 
Q 2691 959 2691 1453 
Q 2691 1928 2437 2201 
Q 2184 2475 1800 2475 
Q 1419 2475 1153 2201 
Q 888 1928 888 1484 
z
" transform="scale(0.015625)"/>
        <path id="ArialMT-30" d="M 266 2259 
Q 266 3072 433 3567 
Q 600 4063 929 4331 
Q 1259 4600 1759 4600 
Q 2128 4600 2406 4451 
Q 2684 4303 2865 4023 
Q 3047 3744 3150 3342 
Q 3253 2941 3253 2259 
Q 3253 1453 3087 958 
Q 2922 463 2592 192 
Q 2263 -78 1759 -78 
Q 1097 -78 719 397 
Q 266 969 266 2259 
z
M 844 2259 
Q 844 1131 1108 757 
Q 1372 384 1759 384 
Q 2147 384 2411 759 
Q 2675 1134 2675 2259 
Q 2675 3391 2411 3762 
Q 2147 4134 1753 4134 
Q 1366 4134 1134 3806 
Q 844 3388 844 2259 
z
" transform="scale(0.015625)"/>
       </defs>
       <use xlink:href="#ArialMT-36"/>
       <use xlink:href="#ArialMT-30" x="55.615234"/>
       <use xlink:href="#ArialMT-30" x="111.230469"/>
      </g>
     </g>
    </g>
    <g id="xtick_2">
     <g id="line2d_2">
      <g>
       <use xlink:href="#m91ffee19ef" x="332.777406" y="277.248797" style="fill: #262626; stroke: #262626; stroke-width: 1.25"/>
      </g>
     </g>
     <g id="text_2">
      <!-- 800 -->
      <g style="fill: #262626" transform="translate(323.601859 288.622391) scale(0.11 -0.11)">
       <defs>
        <path id="ArialMT-38" d="M 1131 2484 
Q 781 2613 612 2850 
Q 444 3088 444 3419 
Q 444 3919 803 4259 
Q 1163 4600 1759 4600 
Q 2359 4600 2725 4251 
Q 3091 3903 3091 3403 
Q 3091 3084 2923 2848 
Q 2756 2613 2416 2484 
Q 2838 2347 3058 2040 
Q 3278 1734 3278 1309 
Q 3278 722 2862 322 
Q 2447 -78 1769 -78 
Q 1091 -78 675 323 
Q 259 725 259 1325 
Q 259 1772 486 2073 
Q 713 2375 1131 2484 
z
M 1019 3438 
Q 1019 3113 1228 2906 
Q 1438 2700 1772 2700 
Q 2097 2700 2305 2904 
Q 2513 3109 2513 3406 
Q 2513 3716 2298 3927 
Q 2084 4138 1766 4138 
Q 1444 4138 1231 3931 
Q 1019 3725 1019 3438 
z
M 838 1322 
Q 838 1081 952 856 
Q 1066 631 1291 507 
Q 1516 384 1775 384 
Q 2178 384 2440 643 
Q 2703 903 2703 1303 
Q 2703 1709 2433 1975 
Q 2163 2241 1756 2241 
Q 1359 2241 1098 1978 
Q 838 1716 838 1322 
z
" transform="scale(0.015625)"/>
       </defs>
       <use xlink:href="#ArialMT-38"/>
       <use xlink:href="#ArialMT-30" x="55.615234"/>
       <use xlink:href="#ArialMT-30" x="111.230469"/>
      </g>
     </g>
    </g>
    <g id="xtick_3">
     <g id="line2d_3">
      <g>
       <use xlink:href="#m91ffee19ef" x="285.161406" y="277.248797" style="fill: #262626; stroke: #262626; stroke-width: 1.25"/>
      </g>
     </g>
     <g id="text_3">
      <!-- 1000 -->
      <g style="fill: #262626" transform="translate(272.927344 288.622391) scale(0.11 -0.11)">
       <defs>
        <path id="ArialMT-31" d="M 2384 0 
L 1822 0 
L 1822 3584 
Q 1619 3391 1289 3197 
Q 959 3003 697 2906 
L 697 3450 
Q 1169 3672 1522 3987 
Q 1875 4303 2022 4600 
L 2384 4600 
L 2384 0 
z
" transform="scale(0.015625)"/>
       </defs>
       <use xlink:href="#ArialMT-31"/>
       <use xlink:href="#ArialMT-30" x="55.615234"/>
       <use xlink:href="#ArialMT-30" x="111.230469"/>
       <use xlink:href="#ArialMT-30" x="166.845703"/>
      </g>
     </g>
    </g>
    <g id="xtick_4">
     <g id="line2d_4">
      <g>
       <use xlink:href="#m91ffee19ef" x="237.545406" y="277.248797" style="fill: #262626; stroke: #262626; stroke-width: 1.25"/>
      </g>
     </g>
     <g id="text_4">
      <!-- 1200 -->
      <g style="fill: #262626" transform="translate(225.311344 288.622391) scale(0.11 -0.11)">
       <defs>
        <path id="ArialMT-32" d="M 3222 541 
L 3222 0 
L 194 0 
Q 188 203 259 391 
Q 375 700 629 1000 
Q 884 1300 1366 1694 
Q 2113 2306 2375 2664 
Q 2638 3022 2638 3341 
Q 2638 3675 2398 3904 
Q 2159 4134 1775 4134 
Q 1369 4134 1125 3890 
Q 881 3647 878 3216 
L 300 3275 
Q 359 3922 746 4261 
Q 1134 4600 1788 4600 
Q 2447 4600 2831 4234 
Q 3216 3869 3216 3328 
Q 3216 3053 3103 2787 
Q 2991 2522 2730 2228 
Q 2469 1934 1863 1422 
Q 1356 997 1212 845 
Q 1069 694 975 541 
L 3222 541 
z
" transform="scale(0.015625)"/>
       </defs>
       <use xlink:href="#ArialMT-31"/>
       <use xlink:href="#ArialMT-32" x="55.615234"/>
       <use xlink:href="#ArialMT-30" x="111.230469"/>
       <use xlink:href="#ArialMT-30" x="166.845703"/>
      </g>
     </g>
    </g>
    <g id="xtick_5">
     <g id="line2d_5">
      <g>
       <use xlink:href="#m91ffee19ef" x="189.929406" y="277.248797" style="fill: #262626; stroke: #262626; stroke-width: 1.25"/>
      </g>
     </g>
     <g id="text_5">
      <!-- 1400 -->
      <g style="fill: #262626" transform="translate(177.695344 288.622391) scale(0.11 -0.11)">
       <defs>
        <path id="ArialMT-34" d="M 2069 0 
L 2069 1097 
L 81 1097 
L 81 1613 
L 2172 4581 
L 2631 4581 
L 2631 1613 
L 3250 1613 
L 3250 1097 
L 2631 1097 
L 2631 0 
L 2069 0 
z
M 2069 1613 
L 2069 3678 
L 634 1613 
L 2069 1613 
z
" transform="scale(0.015625)"/>
       </defs>
       <use xlink:href="#ArialMT-31"/>
       <use xlink:href="#ArialMT-34" x="55.615234"/>
       <use xlink:href="#ArialMT-30" x="111.230469"/>
       <use xlink:href="#ArialMT-30" x="166.845703"/>
      </g>
     </g>
    </g>
    <g id="xtick_6">
     <g id="line2d_6">
      <g>
       <use xlink:href="#m91ffee19ef" x="142.313406" y="277.248797" style="fill: #262626; stroke: #262626; stroke-width: 1.25"/>
      </g>
     </g>
     <g id="text_6">
      <!-- 1600 -->
      <g style="fill: #262626" transform="translate(130.079344 288.622391) scale(0.11 -0.11)">
       <use xlink:href="#ArialMT-31"/>
       <use xlink:href="#ArialMT-36" x="55.615234"/>
       <use xlink:href="#ArialMT-30" x="111.230469"/>
       <use xlink:href="#ArialMT-30" x="166.845703"/>
      </g>
     </g>
    </g>
    <g id="xtick_7">
     <g id="line2d_7">
      <g>
       <use xlink:href="#m91ffee19ef" x="94.697406" y="277.248797" style="fill: #262626; stroke: #262626; stroke-width: 1.25"/>
      </g>
     </g>
     <g id="text_7">
      <!-- 1800 -->
      <g style="fill: #262626" transform="translate(82.463344 288.622391) scale(0.11 -0.11)">
       <use xlink:href="#ArialMT-31"/>
       <use xlink:href="#ArialMT-38" x="55.615234"/>
       <use xlink:href="#ArialMT-30" x="111.230469"/>
       <use xlink:href="#ArialMT-30" x="166.845703"/>
      </g>
     </g>
    </g>
    <g id="xtick_8">
     <g id="line2d_8">
      <g>
       <use xlink:href="#m91ffee19ef" x="47.081406" y="277.248797" style="fill: #262626; stroke: #262626; stroke-width: 1.25"/>
      </g>
     </g>
     <g id="text_8">
      <!-- 2000 -->
      <g style="fill: #262626" transform="translate(34.847344 288.622391) scale(0.11 -0.11)">
       <use xlink:href="#ArialMT-32"/>
       <use xlink:href="#ArialMT-30" x="55.615234"/>
       <use xlink:href="#ArialMT-30" x="111.230469"/>
       <use xlink:href="#ArialMT-30" x="166.845703"/>
      </g>
     </g>
    </g>
    <g id="xtick_9">
     <g id="line2d_9">
      <defs>
       <path id="m74d47d59ba" d="M 0 0 
L 0 -4 
" style="stroke: #262626"/>
      </defs>
      <g>
       <use xlink:href="#m74d47d59ba" x="356.585406" y="277.248797" style="fill: #262626; stroke: #262626"/>
      </g>
     </g>
    </g>
    <g id="xtick_10">
     <g id="line2d_10">
      <g>
       <use xlink:href="#m74d47d59ba" x="308.969406" y="277.248797" style="fill: #262626; stroke: #262626"/>
      </g>
     </g>
    </g>
    <g id="xtick_11">
     <g id="line2d_11">
      <g>
       <use xlink:href="#m74d47d59ba" x="261.353406" y="277.248797" style="fill: #262626; stroke: #262626"/>
      </g>
     </g>
    </g>
    <g id="xtick_12">
     <g id="line2d_12">
      <g>
       <use xlink:href="#m74d47d59ba" x="213.737406" y="277.248797" style="fill: #262626; stroke: #262626"/>
      </g>
     </g>
    </g>
    <g id="xtick_13">
     <g id="line2d_13">
      <g>
       <use xlink:href="#m74d47d59ba" x="166.121406" y="277.248797" style="fill: #262626; stroke: #262626"/>
      </g>
     </g>
    </g>
    <g id="xtick_14">
     <g id="line2d_14">
      <g>
       <use xlink:href="#m74d47d59ba" x="118.505406" y="277.248797" style="fill: #262626; stroke: #262626"/>
      </g>
     </g>
    </g>
    <g id="xtick_15">
     <g id="line2d_15">
      <g>
       <use xlink:href="#m74d47d59ba" x="70.889406" y="277.248797" style="fill: #262626; stroke: #262626"/>
      </g>
     </g>
    </g>
    <g id="text_9">
     <!-- Wavenumber ($\mathregular{cm^{-1}}$) -->
     <g style="fill: #262626" transform="translate(171.101406 309.328641) scale(0.12 -0.12)">
      <defs>
       <path id="ArialMT-57" d="M 1294 0 
L 78 4581 
L 700 4581 
L 1397 1578 
Q 1509 1106 1591 641 
Q 1766 1375 1797 1488 
L 2669 4581 
L 3400 4581 
L 4056 2263 
Q 4303 1400 4413 641 
Q 4500 1075 4641 1638 
L 5359 4581 
L 5969 4581 
L 4713 0 
L 4128 0 
L 3163 3491 
Q 3041 3928 3019 4028 
Q 2947 3713 2884 3491 
L 1913 0 
L 1294 0 
z
" transform="scale(0.015625)"/>
       <path id="ArialMT-61" d="M 2588 409 
Q 2275 144 1986 34 
Q 1697 -75 1366 -75 
Q 819 -75 525 192 
Q 231 459 231 875 
Q 231 1119 342 1320 
Q 453 1522 633 1644 
Q 813 1766 1038 1828 
Q 1203 1872 1538 1913 
Q 2219 1994 2541 2106 
Q 2544 2222 2544 2253 
Q 2544 2597 2384 2738 
Q 2169 2928 1744 2928 
Q 1347 2928 1158 2789 
Q 969 2650 878 2297 
L 328 2372 
Q 403 2725 575 2942 
Q 747 3159 1072 3276 
Q 1397 3394 1825 3394 
Q 2250 3394 2515 3294 
Q 2781 3194 2906 3042 
Q 3031 2891 3081 2659 
Q 3109 2516 3109 2141 
L 3109 1391 
Q 3109 606 3145 398 
Q 3181 191 3288 0 
L 2700 0 
Q 2613 175 2588 409 
z
M 2541 1666 
Q 2234 1541 1622 1453 
Q 1275 1403 1131 1340 
Q 988 1278 909 1158 
Q 831 1038 831 891 
Q 831 666 1001 516 
Q 1172 366 1500 366 
Q 1825 366 2078 508 
Q 2331 650 2450 897 
Q 2541 1088 2541 1459 
L 2541 1666 
z
" transform="scale(0.015625)"/>
       <path id="ArialMT-76" d="M 1344 0 
L 81 3319 
L 675 3319 
L 1388 1331 
Q 1503 1009 1600 663 
Q 1675 925 1809 1294 
L 2547 3319 
L 3125 3319 
L 1869 0 
L 1344 0 
z
" transform="scale(0.015625)"/>
       <path id="ArialMT-65" d="M 2694 1069 
L 3275 997 
Q 3138 488 2766 206 
Q 2394 -75 1816 -75 
Q 1088 -75 661 373 
Q 234 822 234 1631 
Q 234 2469 665 2931 
Q 1097 3394 1784 3394 
Q 2450 3394 2872 2941 
Q 3294 2488 3294 1666 
Q 3294 1616 3291 1516 
L 816 1516 
Q 847 969 1125 678 
Q 1403 388 1819 388 
Q 2128 388 2347 550 
Q 2566 713 2694 1069 
z
M 847 1978 
L 2700 1978 
Q 2663 2397 2488 2606 
Q 2219 2931 1791 2931 
Q 1403 2931 1139 2672 
Q 875 2413 847 1978 
z
" transform="scale(0.015625)"/>
       <path id="ArialMT-6e" d="M 422 0 
L 422 3319 
L 928 3319 
L 928 2847 
Q 1294 3394 1984 3394 
Q 2284 3394 2536 3286 
Q 2788 3178 2913 3003 
Q 3038 2828 3088 2588 
Q 3119 2431 3119 2041 
L 3119 0 
L 2556 0 
L 2556 2019 
Q 2556 2363 2490 2533 
Q 2425 2703 2258 2804 
Q 2091 2906 1866 2906 
Q 1506 2906 1245 2678 
Q 984 2450 984 1813 
L 984 0 
L 422 0 
z
" transform="scale(0.015625)"/>
       <path id="ArialMT-75" d="M 2597 0 
L 2597 488 
Q 2209 -75 1544 -75 
Q 1250 -75 995 37 
Q 741 150 617 320 
Q 494 491 444 738 
Q 409 903 409 1263 
L 409 3319 
L 972 3319 
L 972 1478 
Q 972 1038 1006 884 
Q 1059 663 1231 536 
Q 1403 409 1656 409 
Q 1909 409 2131 539 
Q 2353 669 2445 892 
Q 2538 1116 2538 1541 
L 2538 3319 
L 3100 3319 
L 3100 0 
L 2597 0 
z
" transform="scale(0.015625)"/>
       <path id="ArialMT-6d" d="M 422 0 
L 422 3319 
L 925 3319 
L 925 2853 
Q 1081 3097 1340 3245 
Q 1600 3394 1931 3394 
Q 2300 3394 2536 3241 
Q 2772 3088 2869 2813 
Q 3263 3394 3894 3394 
Q 4388 3394 4653 3120 
Q 4919 2847 4919 2278 
L 4919 0 
L 4359 0 
L 4359 2091 
Q 4359 2428 4304 2576 
Q 4250 2725 4106 2815 
Q 3963 2906 3769 2906 
Q 3419 2906 3187 2673 
Q 2956 2441 2956 1928 
L 2956 0 
L 2394 0 
L 2394 2156 
Q 2394 2531 2256 2718 
Q 2119 2906 1806 2906 
Q 1569 2906 1367 2781 
Q 1166 2656 1075 2415 
Q 984 2175 984 1722 
L 984 0 
L 422 0 
z
" transform="scale(0.015625)"/>
       <path id="ArialMT-62" d="M 941 0 
L 419 0 
L 419 4581 
L 981 4581 
L 981 2947 
Q 1338 3394 1891 3394 
Q 2197 3394 2470 3270 
Q 2744 3147 2920 2923 
Q 3097 2700 3197 2384 
Q 3297 2069 3297 1709 
Q 3297 856 2875 390 
Q 2453 -75 1863 -75 
Q 1275 -75 941 416 
L 941 0 
z
M 934 1684 
Q 934 1088 1097 822 
Q 1363 388 1816 388 
Q 2184 388 2453 708 
Q 2722 1028 2722 1663 
Q 2722 2313 2464 2622 
Q 2206 2931 1841 2931 
Q 1472 2931 1203 2611 
Q 934 2291 934 1684 
z
" transform="scale(0.015625)"/>
       <path id="ArialMT-72" d="M 416 0 
L 416 3319 
L 922 3319 
L 922 2816 
Q 1116 3169 1280 3281 
Q 1444 3394 1641 3394 
Q 1925 3394 2219 3213 
L 2025 2691 
Q 1819 2813 1613 2813 
Q 1428 2813 1281 2702 
Q 1134 2591 1072 2394 
Q 978 2094 978 1738 
L 978 0 
L 416 0 
z
" transform="scale(0.015625)"/>
       <path id="ArialMT-20" transform="scale(0.015625)"/>
       <path id="ArialMT-28" d="M 1497 -1347 
Q 1031 -759 709 28 
Q 388 816 388 1659 
Q 388 2403 628 3084 
Q 909 3875 1497 4659 
L 1900 4659 
Q 1522 4009 1400 3731 
Q 1209 3300 1100 2831 
Q 966 2247 966 1656 
Q 966 153 1900 -1347 
L 1497 -1347 
z
" transform="scale(0.015625)"/>
       <path id="ArialMT-63" d="M 2588 1216 
L 3141 1144 
Q 3050 572 2676 248 
Q 2303 -75 1759 -75 
Q 1078 -75 664 370 
Q 250 816 250 1647 
Q 250 2184 428 2587 
Q 606 2991 970 3192 
Q 1334 3394 1763 3394 
Q 2303 3394 2647 3120 
Q 2991 2847 3088 2344 
L 2541 2259 
Q 2463 2594 2264 2762 
Q 2066 2931 1784 2931 
Q 1359 2931 1093 2626 
Q 828 2322 828 1663 
Q 828 994 1084 691 
Q 1341 388 1753 388 
Q 2084 388 2306 591 
Q 2528 794 2588 1216 
z
" transform="scale(0.015625)"/>
       <path id="ArialMT-2212" d="M 3381 1997 
L 356 1997 
L 356 2522 
L 3381 2522 
L 3381 1997 
z
" transform="scale(0.015625)"/>
       <path id="ArialMT-29" d="M 791 -1347 
L 388 -1347 
Q 1322 153 1322 1656 
Q 1322 2244 1188 2822 
Q 1081 3291 891 3722 
Q 769 4003 388 4659 
L 791 4659 
Q 1378 3875 1659 3084 
Q 1900 2403 1900 1659 
Q 1900 816 1576 28 
Q 1253 -759 791 -1347 
z
" transform="scale(0.015625)"/>
      </defs>
      <use xlink:href="#ArialMT-57" transform="translate(0 0.99375)"/>
      <use xlink:href="#ArialMT-61" transform="translate(94.384766 0.99375)"/>
      <use xlink:href="#ArialMT-76" transform="translate(150 0.99375)"/>
      <use xlink:href="#ArialMT-65" transform="translate(200 0.99375)"/>
      <use xlink:href="#ArialMT-6e" transform="translate(255.615234 0.99375)"/>
      <use xlink:href="#ArialMT-75" transform="translate(311.230469 0.99375)"/>
      <use xlink:href="#ArialMT-6d" transform="translate(366.845703 0.99375)"/>
      <use xlink:href="#ArialMT-62" transform="translate(450.146484 0.99375)"/>
      <use xlink:href="#ArialMT-65" transform="translate(505.761719 0.99375)"/>
      <use xlink:href="#ArialMT-72" transform="translate(561.376953 0.99375)"/>
      <use xlink:href="#ArialMT-20" transform="translate(594.677734 0.99375)"/>
      <use xlink:href="#ArialMT-28" transform="translate(622.460938 0.99375)"/>
      <use xlink:href="#ArialMT-63" transform="translate(655.761719 0.99375)"/>
      <use xlink:href="#ArialMT-6d" transform="translate(705.761719 0.99375)"/>
      <use xlink:href="#ArialMT-2212" transform="translate(790.804844 70.6875) scale(0.7)"/>
      <use xlink:href="#ArialMT-31" transform="translate(831.68375 70.6875) scale(0.7)"/>
      <use xlink:href="#ArialMT-29" transform="translate(875.592539 0.99375)"/>
     </g>
    </g>
   </g>
   <g id="matplotlib.axis_2">
    <g id="ytick_1">
     <g id="line2d_16">
      <defs>
       <path id="m075fab6970" d="M 0 0 
L 6 0 
" style="stroke: #262626; stroke-width: 1.25"/>
      </defs>
      <g>
       <use xlink:href="#m075fab6970" x="47.081406" y="277.248797" style="fill: #262626; stroke: #262626; stroke-width: 1.25"/>
      </g>
     </g>
     <g id="text_10">
      <!-- 0.0 -->
      <g style="fill: #262626" transform="translate(28.291406 281.185594) scale(0.11 -0.11)">
       <defs>
        <path id="ArialMT-2e" d="M 581 0 
L 581 641 
L 1222 641 
L 1222 0 
L 581 0 
z
" transform="scale(0.015625)"/>
       </defs>
       <use xlink:href="#ArialMT-30"/>
       <use xlink:href="#ArialMT-2e" x="55.615234"/>
       <use xlink:href="#ArialMT-30" x="83.398438"/>
      </g>
     </g>
    </g>
    <g id="ytick_2">
     <g id="line2d_17">
      <g>
       <use xlink:href="#m075fab6970" x="47.081406" y="243.984797" style="fill: #262626; stroke: #262626; stroke-width: 1.25"/>
      </g>
     </g>
     <g id="text_11">
      <!-- 2.5 -->
      <g style="fill: #262626" transform="translate(28.291406 247.921594) scale(0.11 -0.11)">
       <defs>
        <path id="ArialMT-35" d="M 266 1200 
L 856 1250 
Q 922 819 1161 601 
Q 1400 384 1738 384 
Q 2144 384 2425 690 
Q 2706 997 2706 1503 
Q 2706 1984 2436 2262 
Q 2166 2541 1728 2541 
Q 1456 2541 1237 2417 
Q 1019 2294 894 2097 
L 366 2166 
L 809 4519 
L 3088 4519 
L 3088 3981 
L 1259 3981 
L 1013 2750 
Q 1425 3038 1878 3038 
Q 2478 3038 2890 2622 
Q 3303 2206 3303 1553 
Q 3303 931 2941 478 
Q 2500 -78 1738 -78 
Q 1113 -78 717 272 
Q 322 622 266 1200 
z
" transform="scale(0.015625)"/>
       </defs>
       <use xlink:href="#ArialMT-32"/>
       <use xlink:href="#ArialMT-2e" x="55.615234"/>
       <use xlink:href="#ArialMT-35" x="83.398438"/>
      </g>
     </g>
    </g>
    <g id="ytick_3">
     <g id="line2d_18">
      <g>
       <use xlink:href="#m075fab6970" x="47.081406" y="210.720797" style="fill: #262626; stroke: #262626; stroke-width: 1.25"/>
      </g>
     </g>
     <g id="text_12">
      <!-- 5.0 -->
      <g style="fill: #262626" transform="translate(28.291406 214.657594) scale(0.11 -0.11)">
       <use xlink:href="#ArialMT-35"/>
       <use xlink:href="#ArialMT-2e" x="55.615234"/>
       <use xlink:href="#ArialMT-30" x="83.398438"/>
      </g>
     </g>
    </g>
    <g id="ytick_4">
     <g id="line2d_19">
      <g>
       <use xlink:href="#m075fab6970" x="47.081406" y="177.456797" style="fill: #262626; stroke: #262626; stroke-width: 1.25"/>
      </g>
     </g>
     <g id="text_13">
      <!-- 7.5 -->
      <g style="fill: #262626" transform="translate(28.291406 181.393594) scale(0.11 -0.11)">
       <defs>
        <path id="ArialMT-37" d="M 303 3981 
L 303 4522 
L 3269 4522 
L 3269 4084 
Q 2831 3619 2401 2847 
Q 1972 2075 1738 1259 
Q 1569 684 1522 0 
L 944 0 
Q 953 541 1156 1306 
Q 1359 2072 1739 2783 
Q 2119 3494 2547 3981 
L 303 3981 
z
" transform="scale(0.015625)"/>
       </defs>
       <use xlink:href="#ArialMT-37"/>
       <use xlink:href="#ArialMT-2e" x="55.615234"/>
       <use xlink:href="#ArialMT-35" x="83.398438"/>
      </g>
     </g>
    </g>
    <g id="ytick_5">
     <g id="line2d_20">
      <g>
       <use xlink:href="#m075fab6970" x="47.081406" y="144.192797" style="fill: #262626; stroke: #262626; stroke-width: 1.25"/>
      </g>
     </g>
     <g id="text_14">
      <!-- 10.0 -->
      <g style="fill: #262626" transform="translate(22.174375 148.129594) scale(0.11 -0.11)">
       <use xlink:href="#ArialMT-31"/>
       <use xlink:href="#ArialMT-30" x="55.615234"/>
       <use xlink:href="#ArialMT-2e" x="111.230469"/>
       <use xlink:href="#ArialMT-30" x="139.013672"/>
      </g>
     </g>
    </g>
    <g id="ytick_6">
     <g id="line2d_21">
      <g>
       <use xlink:href="#m075fab6970" x="47.081406" y="110.928797" style="fill: #262626; stroke: #262626; stroke-width: 1.25"/>
      </g>
     </g>
     <g id="text_15">
      <!-- 12.5 -->
      <g style="fill: #262626" transform="translate(22.174375 114.865594) scale(0.11 -0.11)">
       <use xlink:href="#ArialMT-31"/>
       <use xlink:href="#ArialMT-32" x="55.615234"/>
       <use xlink:href="#ArialMT-2e" x="111.230469"/>
       <use xlink:href="#ArialMT-35" x="139.013672"/>
      </g>
     </g>
    </g>
    <g id="ytick_7">
     <g id="line2d_22">
      <g>
       <use xlink:href="#m075fab6970" x="47.081406" y="77.664797" style="fill: #262626; stroke: #262626; stroke-width: 1.25"/>
      </g>
     </g>
     <g id="text_16">
      <!-- 15.0 -->
      <g style="fill: #262626" transform="translate(22.174375 81.601594) scale(0.11 -0.11)">
       <use xlink:href="#ArialMT-31"/>
       <use xlink:href="#ArialMT-35" x="55.615234"/>
       <use xlink:href="#ArialMT-2e" x="111.230469"/>
       <use xlink:href="#ArialMT-30" x="139.013672"/>
      </g>
     </g>
    </g>
    <g id="ytick_8">
     <g id="line2d_23">
      <g>
       <use xlink:href="#m075fab6970" x="47.081406" y="44.400797" style="fill: #262626; stroke: #262626; stroke-width: 1.25"/>
      </g>
     </g>
     <g id="text_17">
      <!-- 17.5 -->
      <g style="fill: #262626" transform="translate(22.174375 48.337594) scale(0.11 -0.11)">
       <use xlink:href="#ArialMT-31"/>
       <use xlink:href="#ArialMT-37" x="55.615234"/>
       <use xlink:href="#ArialMT-2e" x="111.230469"/>
       <use xlink:href="#ArialMT-35" x="139.013672"/>
      </g>
     </g>
    </g>
    <g id="ytick_9">
     <g id="line2d_24">
      <g>
       <use xlink:href="#m075fab6970" x="47.081406" y="11.136797" style="fill: #262626; stroke: #262626; stroke-width: 1.25"/>
      </g>
     </g>
     <g id="text_18">
      <!-- 20.0 -->
      <g style="fill: #262626" transform="translate(22.174375 15.073594) scale(0.11 -0.11)">
       <use xlink:href="#ArialMT-32"/>
       <use xlink:href="#ArialMT-30" x="55.615234"/>
       <use xlink:href="#ArialMT-2e" x="111.230469"/>
       <use xlink:href="#ArialMT-30" x="139.013672"/>
      </g>
     </g>
    </g>
    <g id="ytick_10">
     <g id="line2d_25">
      <defs>
       <path id="mce1bcee07b" d="M 0 0 
L 4 0 
" style="stroke: #262626"/>
      </defs>
      <g>
       <use xlink:href="#mce1bcee07b" x="47.081406" y="260.616797" style="fill: #262626; stroke: #262626"/>
      </g>
     </g>
    </g>
    <g id="ytick_11">
     <g id="line2d_26">
      <g>
       <use xlink:href="#mce1bcee07b" x="47.081406" y="227.352797" style="fill: #262626; stroke: #262626"/>
      </g>
     </g>
    </g>
    <g id="ytick_12">
     <g id="line2d_27">
      <g>
       <use xlink:href="#mce1bcee07b" x="47.081406" y="194.088797" style="fill: #262626; stroke: #262626"/>
      </g>
     </g>
    </g>
    <g id="ytick_13">
     <g id="line2d_28">
      <g>
       <use xlink:href="#mce1bcee07b" x="47.081406" y="160.824797" style="fill: #262626; stroke: #262626"/>
      </g>
     </g>
    </g>
    <g id="ytick_14">
     <g id="line2d_29">
      <g>
       <use xlink:href="#mce1bcee07b" x="47.081406" y="127.560797" style="fill: #262626; stroke: #262626"/>
      </g>
     </g>
    </g>
    <g id="ytick_15">
     <g id="line2d_30">
      <g>
       <use xlink:href="#mce1bcee07b" x="47.081406" y="94.296797" style="fill: #262626; stroke: #262626"/>
      </g>
     </g>
    </g>
    <g id="ytick_16">
     <g id="line2d_31">
      <g>
       <use xlink:href="#mce1bcee07b" x="47.081406" y="61.032797" style="fill: #262626; stroke: #262626"/>
      </g>
     </g>
    </g>
    <g id="ytick_17">
     <g id="line2d_32">
      <g>
       <use xlink:href="#mce1bcee07b" x="47.081406" y="27.768797" style="fill: #262626; stroke: #262626"/>
      </g>
     </g>
    </g>
    <g id="text_19">
     <!-- au-026-b2-fecl3 -->
     <g style="fill: #262626" transform="translate(15.789375 186.215297) rotate(-90) scale(0.12 -0.12)">
      <defs>
       <path id="ArialMT-2d" d="M 203 1375 
L 203 1941 
L 1931 1941 
L 1931 1375 
L 203 1375 
z
" transform="scale(0.015625)"/>
       <path id="ArialMT-66" d="M 556 0 
L 556 2881 
L 59 2881 
L 59 3319 
L 556 3319 
L 556 3672 
Q 556 4006 616 4169 
Q 697 4388 901 4523 
Q 1106 4659 1475 4659 
Q 1713 4659 2000 4603 
L 1916 4113 
Q 1741 4144 1584 4144 
Q 1328 4144 1222 4034 
Q 1116 3925 1116 3625 
L 1116 3319 
L 1763 3319 
L 1763 2881 
L 1116 2881 
L 1116 0 
L 556 0 
z
" transform="scale(0.015625)"/>
       <path id="ArialMT-6c" d="M 409 0 
L 409 4581 
L 972 4581 
L 972 0 
L 409 0 
z
" transform="scale(0.015625)"/>
       <path id="ArialMT-33" d="M 269 1209 
L 831 1284 
Q 928 806 1161 595 
Q 1394 384 1728 384 
Q 2125 384 2398 659 
Q 2672 934 2672 1341 
Q 2672 1728 2419 1979 
Q 2166 2231 1775 2231 
Q 1616 2231 1378 2169 
L 1441 2663 
Q 1497 2656 1531 2656 
Q 1891 2656 2178 2843 
Q 2466 3031 2466 3422 
Q 2466 3731 2256 3934 
Q 2047 4138 1716 4138 
Q 1388 4138 1169 3931 
Q 950 3725 888 3313 
L 325 3413 
Q 428 3978 793 4289 
Q 1159 4600 1703 4600 
Q 2078 4600 2393 4439 
Q 2709 4278 2876 4000 
Q 3044 3722 3044 3409 
Q 3044 3113 2884 2869 
Q 2725 2625 2413 2481 
Q 2819 2388 3044 2092 
Q 3269 1797 3269 1353 
Q 3269 753 2831 336 
Q 2394 -81 1725 -81 
Q 1122 -81 723 278 
Q 325 638 269 1209 
z
" transform="scale(0.015625)"/>
      </defs>
      <use xlink:href="#ArialMT-61"/>
      <use xlink:href="#ArialMT-75" x="55.615234"/>
      <use xlink:href="#ArialMT-2d" x="111.230469"/>
      <use xlink:href="#ArialMT-30" x="144.53125"/>
      <use xlink:href="#ArialMT-32" x="200.146484"/>
      <use xlink:href="#ArialMT-36" x="255.761719"/>
      <use xlink:href="#ArialMT-2d" x="311.376953"/>
      <use xlink:href="#ArialMT-62" x="344.677734"/>
      <use xlink:href="#ArialMT-32" x="400.292969"/>
      <use xlink:href="#ArialMT-2d" x="455.908203"/>
      <use xlink:href="#ArialMT-66" x="489.208984"/>
      <use xlink:href="#ArialMT-65" x="516.992188"/>
      <use xlink:href="#ArialMT-63" x="572.607422"/>
      <use xlink:href="#ArialMT-6c" x="622.607422"/>
      <use xlink:href="#ArialMT-33" x="644.824219"/>
     </g>
    </g>
   </g>
   <g id="PolyCollection_1"/>
   <g id="line2d_33">
    <path d="M 404.320446 257.144701 
L 404.082366 258.910221 
L 403.963326 258.748957 
L 403.487166 256.460926 
L 402.772926 251.818336 
L 402.415806 251.908681 
L 401.939646 250.897189 
L 401.820606 250.850753 
L 401.701566 250.561356 
L 401.463486 248.215978 
L 400.987326 238.022691 
L 400.273086 221.91879 
L 400.154046 222.876527 
L 399.915966 229.371523 
L 399.558846 239.970497 
L 399.320766 242.806054 
L 399.082686 243.473063 
L 398.963646 243.391766 
L 398.487486 242.58731 
L 398.368446 242.521181 
L 398.249406 242.244158 
L 398.011326 240.541973 
L 397.773246 239.121733 
L 397.654206 239.847953 
L 397.416126 245.071066 
L 397.059006 253.176971 
L 396.939966 253.343424 
L 396.701886 250.188267 
L 396.344766 244.856713 
L 396.225726 244.352697 
L 396.106686 244.532721 
L 395.868606 246.249144 
L 394.797246 256.149575 
L 394.678206 255.758124 
L 394.440126 252.770351 
L 393.963966 246.008046 
L 393.844926 245.717186 
L 393.725886 246.136046 
L 393.487806 248.729973 
L 392.654526 260.121962 
L 392.416446 261.574268 
L 392.297406 261.4468 
L 392.059326 259.414902 
L 391.821246 257.053424 
L 391.702206 256.664901 
L 391.583166 256.90653 
L 391.345086 258.020741 
L 391.226046 258.044957 
L 390.987966 256.09888 
L 390.630846 252.385554 
L 390.392766 251.744091 
L 389.916606 251.407858 
L 389.678526 251.343725 
L 389.559486 250.942561 
L 389.321406 248.599179 
L 388.845246 242.884424 
L 388.488126 240.110605 
L 387.297726 225.858977 
L 387.178686 225.883193 
L 386.940606 226.893088 
L 386.821566 226.715059 
L 386.464446 224.043162 
L 386.345406 224.76672 
L 386.107326 230.997334 
L 385.512126 250.123868 
L 385.274046 252.662975 
L 385.155006 252.513021 
L 384.916926 249.857756 
L 384.559806 246.160662 
L 384.321726 245.622982 
L 384.083646 243.949537 
L 383.845566 242.054953 
L 383.726526 242.245888 
L 383.488446 245.434575 
L 383.131326 250.673256 
L 382.774206 252.173995 
L 382.417086 253.959739 
L 382.059966 256.703487 
L 381.464766 262.620753 
L 381.107646 264.283554 
L 380.988606 264.408627 
L 380.869566 263.685334 
L 380.631486 258.336749 
L 379.917246 235.421446 
L 379.441086 229.563256 
L 379.322046 229.043406 
L 379.203006 229.601975 
L 378.964926 233.976058 
L 378.369726 248.975594 
L 378.131646 250.642121 
L 378.012606 250.047627 
L 377.298366 242.951218 
L 377.060286 242.791817 
L 376.822206 242.477006 
L 376.703166 242.699476 
L 376.465086 245.349552 
L 375.869886 256.376169 
L 375.750846 256.87779 
L 375.631806 256.765358 
L 375.393726 255.546166 
L 375.155646 253.201985 
L 374.798526 245.872595 
L 374.322366 235.557695 
L 374.084286 234.426187 
L 373.846206 234.21689 
L 373.608126 233.725514 
L 373.489086 233.832358 
L 373.370046 234.526112 
L 372.774846 240.667046 
L 372.655806 239.481383 
L 372.298686 230.598299 
L 371.941566 223.647853 
L 371.822526 223.321865 
L 371.703486 224.007636 
L 370.275006 240.302871 
L 370.155966 239.605525 
L 369.560766 232.537457 
L 369.441726 233.167876 
L 369.084606 239.114548 
L 368.608446 246.113959 
L 368.370366 246.951014 
L 368.251326 246.718565 
L 368.013246 245.370575 
L 367.537086 240.799968 
L 366.941886 234.748981 
L 366.346686 231.842905 
L 366.227646 232.113141 
L 365.989566 234.633754 
L 364.799166 253.719839 
L 364.680126 253.832138 
L 364.561086 253.075183 
L 364.323006 248.891769 
L 363.608766 230.60575 
L 363.489726 229.852919 
L 363.370686 229.999414 
L 363.132606 231.906505 
L 362.775486 234.792756 
L 362.656446 235.014827 
L 362.537406 234.777588 
L 362.299326 233.208059 
L 361.704126 227.106244 
L 361.227966 220.914084 
L 361.108926 220.67924 
L 360.989886 221.370998 
L 360.632766 226.999533 
L 360.037566 235.802119 
L 359.799486 237.678874 
L 359.680446 237.72531 
L 359.442366 235.585105 
L 358.490046 221.890981 
L 358.371006 221.895239 
L 358.251966 222.946381 
L 357.894846 230.959014 
L 357.418686 240.027711 
L 356.704446 247.46461 
L 356.228286 254.983738 
L 356.109246 254.617302 
L 355.871166 250.425239 
L 355.514046 244.136082 
L 355.037886 241.383552 
L 354.680766 232.030514 
L 354.442686 226.631101 
L 354.323646 226.148773 
L 354.204606 227.458443 
L 353.609406 240.614621 
L 353.490366 239.316926 
L 352.776126 222.284827 
L 352.538046 221.859979 
L 352.299966 221.76817 
L 352.180926 221.95232 
L 352.061886 222.710207 
L 351.823806 226.890161 
L 351.228606 242.604341 
L 351.109566 243.157987 
L 350.990526 242.504416 
L 350.395326 235.494893 
L 350.276286 235.492365 
L 350.038206 236.735507 
L 348.847806 244.864164 
L 348.728766 245.176047 
L 348.609726 244.980056 
L 348.371646 242.996191 
L 348.014526 239.098581 
L 347.895486 238.59869 
L 347.776446 238.604411 
L 347.300286 239.869375 
L 347.181246 239.257982 
L 346.943166 235.86572 
L 346.347966 225.270204 
L 346.228926 225.30267 
L 345.990846 227.310751 
L 345.633726 232.919195 
L 344.800446 249.315819 
L 344.562366 251.005364 
L 344.443326 250.976091 
L 344.205246 249.055162 
L 343.848126 245.434575 
L 343.610046 245.024363 
L 343.491006 244.845137 
L 343.252926 243.277205 
L 342.895806 240.131761 
L 342.419646 238.303971 
L 341.943486 233.71141 
L 341.824446 233.561456 
L 341.705406 234.069863 
L 341.467326 236.554684 
L 340.872126 244.689062 
L 340.753086 245.192147 
L 340.634046 245.144513 
L 340.395966 244.679482 
L 340.276926 245.09475 
L 340.038846 248.050456 
L 339.681726 253.138917 
L 339.443646 253.79914 
L 339.324606 253.782375 
L 339.205566 253.943107 
L 338.729406 255.351372 
L 338.491326 253.987681 
L 338.134206 249.596833 
L 337.539006 241.150704 
L 337.300926 240.561931 
L 337.062846 241.414155 
L 336.705726 244.190102 
L 336.348606 246.876104 
L 336.229566 246.94037 
L 335.991486 246.562624 
L 335.872446 246.883821 
L 335.634366 249.487195 
L 335.277246 253.580663 
L 335.158206 253.536089 
L 334.920126 251.206012 
L 334.443966 245.509486 
L 334.324926 245.62418 
L 334.086846 248.303662 
L 333.729726 253.046975 
L 333.253566 255.135954 
L 332.896446 260.612805 
L 332.539326 265.149216 
L 332.420286 265.517649 
L 332.301246 265.126597 
L 332.063166 261.895997 
L 331.348926 247.589816 
L 330.991806 244.963158 
L 330.753726 244.277919 
L 330.634686 244.32063 
L 330.039486 245.295398 
L 329.801406 247.261833 
L 329.444286 251.922519 
L 329.325246 252.370917 
L 329.206206 251.882203 
L 328.611006 245.891223 
L 328.491966 245.832412 
L 328.372926 246.165851 
L 328.134846 247.814282 
L 327.658686 251.836431 
L 327.539646 251.509513 
L 327.182526 248.977856 
L 327.063486 249.184891 
L 326.587326 252.406976 
L 326.230206 250.465955 
L 326.111166 250.931784 
L 325.754046 256.600635 
L 325.396926 260.279899 
L 325.277886 260.662834 
L 325.158846 260.618527 
L 325.039806 259.851326 
L 324.801726 255.093775 
L 323.968446 231.279945 
L 323.611326 224.181141 
L 323.492286 223.625632 
L 323.373246 224.153598 
L 323.016126 227.157205 
L 322.897086 227.339092 
L 322.778046 227.315275 
L 322.659006 227.566352 
L 322.420926 230.053168 
L 321.230526 250.020217 
L 320.992446 251.47066 
L 320.873406 251.606777 
L 320.754366 251.401205 
L 320.516286 249.948367 
L 320.159166 247.598332 
L 320.040126 248.12031 
L 319.802046 251.744224 
L 319.325886 259.626993 
L 318.968766 264.360194 
L 318.611646 269.106169 
L 318.492606 269.279807 
L 318.254526 267.67768 
L 318.016446 266.106687 
L 317.897406 265.953274 
L 317.659326 266.456359 
L 317.421246 266.789398 
L 317.302206 266.558279 
L 317.183166 265.853748 
L 316.945086 262.103165 
L 315.754686 230.967928 
L 315.635646 230.158948 
L 315.516606 230.400711 
L 315.278526 233.872541 
L 314.921406 240.369 
L 314.683326 241.591652 
L 314.564286 241.37477 
L 314.207166 239.58703 
L 313.850046 237.824437 
L 313.731006 238.086957 
L 313.492926 241.273249 
L 312.778686 255.503056 
L 312.540606 256.728634 
L 312.421566 256.809399 
L 312.302526 256.312967 
L 312.064446 252.918443 
L 311.588286 243.039168 
L 311.469246 242.564424 
L 311.350206 243.238353 
L 311.112126 247.123987 
L 310.635966 256.514547 
L 310.397886 257.706862 
L 310.278846 257.035462 
L 309.921726 252.188631 
L 308.969406 238.720436 
L 308.850366 239.183737 
L 308.612286 242.725422 
L 308.255166 247.756934 
L 308.136126 247.663529 
L 307.421886 242.623102 
L 307.302846 242.621904 
L 307.183806 242.808981 
L 306.945726 244.187574 
L 305.993406 255.23242 
L 305.517246 261.800995 
L 304.922046 264.743928 
L 304.445886 271.449285 
L 304.207806 274.695851 
L 304.088766 275.229938 
L 303.969726 274.565723 
L 303.731646 269.92739 
L 303.136446 257.445806 
L 302.184126 240.069624 
L 301.946046 238.789492 
L 301.827006 239.261974 
L 301.588926 242.856881 
L 301.112766 251.402403 
L 300.636606 258.642379 
L 300.398526 261.18774 
L 300.279486 261.165653 
L 299.803326 259.172474 
L 299.565246 259.552615 
L 299.446206 259.492075 
L 299.208126 258.434279 
L 298.374846 253.320272 
L 297.898686 248.092502 
L 297.660606 247.203555 
L 297.184446 246.480129 
L 296.827326 246.442607 
L 296.589246 245.440829 
L 296.232126 243.541188 
L 295.994046 243.361962 
L 295.875006 243.241546 
L 295.636926 241.940791 
L 295.279806 239.620826 
L 295.160766 240.419295 
L 294.922686 245.582666 
L 294.446526 257.105715 
L 294.327486 257.705265 
L 294.208446 257.456584 
L 293.494206 253.125079 
L 293.256126 253.455191 
L 293.137086 253.378151 
L 292.899006 251.521089 
L 292.541886 247.930839 
L 292.422846 248.41809 
L 292.184766 252.574759 
L 291.946686 256.881516 
L 291.827646 257.502887 
L 291.708606 256.915844 
L 290.756286 245.921294 
L 290.637246 246.520578 
L 290.161086 250.88415 
L 290.042046 250.671925 
L 289.565886 247.480178 
L 289.327806 245.08517 
L 288.970686 238.16373 
L 288.375486 226.366719 
L 288.137406 225.358554 
L 287.899326 226.753513 
L 287.304126 232.445249 
L 287.185086 232.533598 
L 286.827966 230.674274 
L 286.708926 231.011039 
L 286.232766 237.159556 
L 286.113726 237.053111 
L 285.875646 235.175558 
L 285.756606 235.13777 
L 285.518526 239.384652 
L 285.042366 250.981946 
L 284.804286 252.791108 
L 284.685246 252.993087 
L 284.566206 252.709811 
L 284.090046 249.932267 
L 283.732926 251.488623 
L 283.613886 250.753489 
L 283.137726 243.413321 
L 283.018686 243.488232 
L 282.542526 246.322325 
L 282.304446 246.088545 
L 282.185406 246.234641 
L 281.947326 247.722739 
L 281.590206 252.806676 
L 280.875966 266.235486 
L 280.518846 268.409488 
L 280.399806 268.669878 
L 280.280766 267.959359 
L 280.042686 262.103165 
L 279.566526 247.203821 
L 279.328446 245.931007 
L 279.090366 245.320679 
L 278.852286 244.761312 
L 278.733246 245.148505 
L 278.376126 248.903345 
L 278.019006 252.223491 
L 277.780926 253.077179 
L 277.661886 252.845528 
L 277.423806 250.41393 
L 277.066686 245.380687 
L 276.947646 245.290742 
L 276.352446 249.814246 
L 275.995326 248.938073 
L 275.757246 248.998347 
L 275.638206 249.192875 
L 275.519166 249.719644 
L 275.281086 252.329936 
L 274.804926 258.03072 
L 274.328766 261.249611 
L 274.090686 262.759265 
L 273.971646 263.021385 
L 273.852606 262.992113 
L 273.495486 262.29929 
L 273.257406 261.095133 
L 272.662206 256.774938 
L 272.424126 256.830156 
L 272.305086 256.570564 
L 271.947966 255.109875 
L 271.828926 255.075014 
L 271.352766 255.689999 
L 271.233726 256.452277 
L 270.995646 260.188223 
L 270.638526 265.692351 
L 270.519486 265.647378 
L 270.281406 262.809294 
L 269.924286 254.703655 
L 269.448126 242.624166 
L 269.329086 241.636092 
L 269.210046 241.894221 
L 268.614846 248.505241 
L 268.257726 255.380112 
L 268.019646 259.511368 
L 267.900606 259.786927 
L 267.662526 256.639354 
L 266.948286 242.651842 
L 266.710206 241.039602 
L 266.591166 241.548142 
L 265.876926 247.940818 
L 265.638846 249.238513 
L 265.162686 252.822243 
L 265.043646 252.965012 
L 264.686526 252.544822 
L 264.567486 253.038326 
L 264.329406 255.880669 
L 263.853246 262.771639 
L 263.615166 263.505443 
L 263.496126 263.302399 
L 263.258046 261.714509 
L 262.781886 256.672618 
L 262.662846 256.318423 
L 262.543806 256.355146 
L 262.067646 257.262987 
L 261.829566 258.64025 
L 261.234366 265.619436 
L 261.115326 265.21774 
L 260.877246 261.819623 
L 260.401086 254.369552 
L 260.282046 253.987814 
L 260.163006 254.343473 
L 259.210686 261.258127 
L 258.972606 261.660887 
L 258.853566 261.677386 
L 258.734526 261.493104 
L 258.615486 260.764356 
L 258.377406 255.887321 
L 257.782206 238.020163 
L 257.663166 238.012445 
L 257.306046 239.403147 
L 257.067966 240.189241 
L 256.710846 241.825431 
L 256.591806 241.375036 
L 256.234686 239.095521 
L 256.115646 239.539795 
L 255.758526 242.132391 
L 255.639486 241.870803 
L 255.401406 240.957241 
L 255.282366 241.85803 
L 255.044286 247.663396 
L 254.687166 256.906929 
L 254.330046 261.114692 
L 254.211006 261.829336 
L 254.091966 261.509736 
L 253.853886 256.440568 
L 253.377726 242.00825 
L 252.782526 232.237283 
L 252.544446 228.521827 
L 252.425406 228.253852 
L 252.306366 229.238067 
L 251.949246 236.446908 
L 251.473086 245.378558 
L 250.996926 251.069896 
L 250.401726 255.738565 
L 250.282686 255.385168 
L 250.044606 252.25782 
L 249.687486 247.430681 
L 249.568446 247.035239 
L 249.330366 247.107887 
L 248.973246 247.214731 
L 248.735166 247.753608 
L 248.259006 249.339503 
L 247.901886 252.713404 
L 247.663806 254.492628 
L 247.187646 256.012261 
L 246.711486 258.98247 
L 246.473406 259.513363 
L 245.997246 261.263981 
L 245.878206 260.392198 
L 245.640126 255.90861 
L 245.163966 246.74531 
L 244.925886 245.215565 
L 244.449726 243.51644 
L 243.854526 240.26495 
L 243.497406 241.028559 
L 243.378366 240.401466 
L 243.140286 235.449388 
L 242.783166 218.567375 
L 242.307006 196.734349 
L 241.592766 180.627521 
L 241.473726 180.46333 
L 241.354686 182.176027 
L 241.116606 191.122313 
L 240.521406 217.234953 
L 240.283326 219.54547 
L 240.164286 219.547333 
L 240.045246 218.898019 
L 239.807166 215.094215 
L 239.450046 203.046925 
L 238.973886 176.607367 
L 238.616766 160.203958 
L 238.378686 156.108627 
L 237.902526 152.657287 
L 237.783486 152.460098 
L 237.664446 153.19816 
L 237.426366 158.815784 
L 236.831166 187.277793 
L 235.521726 245.790633 
L 235.402686 246.467356 
L 235.283646 246.001527 
L 234.569406 239.352053 
L 234.331326 236.616156 
L 234.212286 236.248655 
L 234.093246 236.789528 
L 233.617086 242.63215 
L 232.902846 253.807523 
L 232.783806 253.649186 
L 232.426686 252.162685 
L 231.950526 252.810934 
L 231.831486 252.781129 
L 231.712446 253.005595 
L 231.474366 254.094924 
L 231.355326 253.986749 
L 231.236286 252.681204 
L 230.522046 238.7058 
L 230.283966 236.115466 
L 229.926846 229.875139 
L 229.807806 229.232346 
L 229.688766 229.524803 
L 229.450686 231.770522 
L 229.093566 237.705352 
L 228.736446 242.75669 
L 228.617406 243.001114 
L 228.260286 241.689714 
L 227.784126 239.945882 
L 227.307966 237.047257 
L 227.188926 237.325344 
L 226.593726 241.016318 
L 226.474686 241.048384 
L 226.355646 240.85665 
L 226.236606 240.378447 
L 225.998526 237.872736 
L 225.522366 227.053421 
L 225.165246 221.671439 
L 225.046206 221.739963 
L 224.808126 224.660276 
L 224.212926 238.898465 
L 223.736766 249.322205 
L 223.617726 249.684783 
L 223.498686 248.589998 
L 223.260606 242.583318 
L 222.784446 229.973734 
L 222.546366 228.967698 
L 222.427326 229.016529 
L 222.308286 228.872163 
L 221.951166 227.141903 
L 221.832126 227.440481 
L 221.713086 229.026508 
L 221.475006 236.72127 
L 221.117886 250.015294 
L 220.998846 251.548897 
L 220.879806 251.44844 
L 220.522686 249.385141 
L 220.165566 250.837846 
L 220.046526 250.297107 
L 219.808446 246.368362 
L 219.094206 227.738925 
L 218.975166 227.724955 
L 218.737086 230.726299 
L 218.379966 234.783442 
L 218.260926 234.833604 
L 218.141886 234.649322 
L 218.022846 234.767076 
L 217.903806 235.671458 
L 217.546686 242.512931 
L 217.189566 247.166033 
L 216.951486 247.963038 
L 216.832446 247.811754 
L 216.594366 246.483589 
L 215.880126 241.592583 
L 215.523006 234.09847 
L 214.808766 214.70915 
L 214.689726 214.105475 
L 214.570686 214.204602 
L 214.332606 215.583861 
L 213.856446 220.488039 
L 213.023166 233.169872 
L 212.904126 233.015261 
L 212.427966 231.022881 
L 212.189886 232.634189 
L 211.832766 235.718427 
L 211.118526 238.42106 
L 210.999486 238.596827 
L 210.880446 238.409085 
L 210.642366 236.965694 
L 210.404286 233.944657 
L 209.928126 225.218179 
L 209.809086 225.214321 
L 209.332926 231.107238 
L 209.213886 230.736012 
L 208.975806 229.799164 
L 208.856766 230.68585 
L 208.499646 235.891133 
L 208.380606 236.093246 
L 208.023486 234.256008 
L 207.904446 235.176091 
L 207.428286 242.224333 
L 207.190206 243.251791 
L 206.714046 248.254697 
L 206.595006 247.676702 
L 206.356926 245.107923 
L 206.237886 244.864031 
L 205.880766 246.684636 
L 205.761726 244.77821 
L 205.047486 225.629988 
L 204.452286 221.211065 
L 204.333246 221.667713 
L 204.095166 225.315576 
L 203.619006 237.76709 
L 202.785726 264.676335 
L 202.547646 265.795469 
L 202.428606 265.626355 
L 201.952446 263.795106 
L 201.714366 261.725553 
L 201.476286 256.732626 
L 200.881086 242.951484 
L 200.643006 241.738679 
L 200.523966 241.971793 
L 200.047806 243.704315 
L 199.809726 244.193562 
L 199.571646 245.844521 
L 198.976446 251.814078 
L 198.857406 250.403551 
L 198.381246 240.290098 
L 198.262206 240.835228 
L 197.905086 244.216048 
L 197.786046 242.860607 
L 197.190846 229.623131 
L 197.071806 229.347306 
L 196.833726 231.074905 
L 196.238526 237.000954 
L 196.000446 237.729169 
L 195.762366 238.074582 
L 195.524286 238.459247 
L 195.405246 237.853709 
L 195.167166 234.081705 
L 194.691006 225.217647 
L 194.214846 220.015291 
L 194.095806 219.504489 
L 193.976766 219.581528 
L 193.857726 220.353785 
L 193.619646 224.344933 
L 193.024446 237.657319 
L 192.905406 238.040653 
L 192.667326 237.872736 
L 192.548286 238.187148 
L 192.191166 240.531062 
L 192.072126 240.238871 
L 191.834046 235.96498 
L 191.357886 225.411111 
L 191.238846 225.257032 
L 190.881726 226.811525 
L 190.762686 226.380024 
L 190.167486 220.738583 
L 189.929406 221.743954 
L 189.810366 221.64536 
L 189.572286 218.012798 
L 189.215166 210.424747 
L 189.096126 209.875093 
L 188.977086 210.751134 
L 188.739006 216.299835 
L 187.905726 243.688614 
L 187.548606 249.006729 
L 187.429566 249.244234 
L 187.310526 247.828519 
L 187.072446 239.915013 
L 186.477246 215.538222 
L 186.120126 209.905962 
L 185.882046 208.287602 
L 185.763006 207.952567 
L 185.643966 208.114629 
L 185.524926 208.990004 
L 185.167806 215.641208 
L 184.929726 218.622727 
L 184.810686 218.127226 
L 184.453566 214.003688 
L 184.334526 214.469916 
L 183.739326 221.571381 
L 183.620286 221.577501 
L 183.501246 221.979064 
L 183.263166 225.339527 
L 182.429886 242.356857 
L 182.191806 243.854402 
L 181.834686 242.680848 
L 181.596606 243.006968 
L 181.477566 242.528632 
L 181.239486 237.404779 
L 180.644286 218.681005 
L 180.525246 218.756315 
L 180.287166 221.609701 
L 179.811006 230.373434 
L 179.096766 246.039182 
L 178.977726 246.885684 
L 178.858686 246.865858 
L 178.739646 245.862882 
L 178.501566 241.003411 
L 178.025406 230.357601 
L 177.906366 230.919762 
L 177.668286 236.483366 
L 177.311166 245.613801 
L 177.073086 247.876286 
L 176.954046 248.101416 
L 176.715966 247.683887 
L 176.358846 246.82368 
L 176.120766 244.830368 
L 175.763646 237.446159 
L 175.168446 222.149509 
L 175.049406 221.726391 
L 174.811326 221.945268 
L 174.692286 221.26961 
L 174.216126 215.91863 
L 174.097086 215.825091 
L 173.859006 216.835385 
L 173.382846 218.821246 
L 173.263806 218.943125 
L 173.144766 218.732631 
L 172.906686 217.190246 
L 172.668606 215.622181 
L 172.549566 215.851037 
L 172.311486 218.92503 
L 171.954366 223.510539 
L 171.835326 223.404626 
L 171.597246 220.822142 
L 171.359166 218.28543 
L 171.240126 218.423409 
L 171.002046 222.112652 
L 170.644926 228.117869 
L 170.168766 233.080325 
L 169.692606 237.965476 
L 169.573566 237.712803 
L 169.335486 233.327543 
L 168.740286 214.800826 
L 168.502206 213.416778 
L 168.145086 215.387736 
L 168.026046 215.166331 
L 167.192766 208.711119 
L 167.073726 208.613057 
L 166.954686 209.330096 
L 166.597566 215.480875 
L 166.121406 222.734955 
L 165.883326 224.630072 
L 165.764286 224.214671 
L 165.526206 220.368155 
L 164.573886 198.693732 
L 164.454846 198.241075 
L 164.335806 199.647078 
L 163.740606 215.070664 
L 163.621566 215.154622 
L 163.264446 214.025376 
L 163.145406 213.809559 
L 162.907326 212.401294 
L 162.669246 211.211507 
L 162.550206 211.853769 
L 162.312126 215.878979 
L 161.240766 239.634531 
L 161.121726 240.180327 
L 161.002686 239.923262 
L 160.645566 236.931365 
L 160.169406 233.183976 
L 160.050366 233.543626 
L 159.693246 236.409786 
L 159.574206 236.120256 
L 159.336126 232.924118 
L 158.859966 222.656186 
L 158.264766 207.349291 
L 158.026686 204.862607 
L 157.907646 204.448537 
L 157.788606 204.633485 
L 157.550526 206.629325 
L 157.193406 209.563875 
L 157.074366 209.274744 
L 156.479166 204.979164 
L 156.241086 205.417717 
L 156.122046 204.547664 
L 155.883966 199.188434 
L 155.526846 190.379861 
L 155.169726 186.007242 
L 154.931646 179.046417 
L 154.455486 162.63662 
L 154.217406 159.095202 
L 154.098366 158.523859 
L 153.979326 158.521464 
L 153.860286 158.637888 
L 153.741246 158.2805 
L 153.622206 156.877291 
L 153.384126 149.645964 
L 153.027006 128.525586 
L 152.431806 73.63626 
L 151.955646 30.1183 
L 151.717566 19.805395 
L 151.479486 17.087194 
L 151.360446 17.536125 
L 151.122366 21.967954 
L 150.884286 32.377857 
L 150.408126 67.907135 
L 149.574846 129.14097 
L 148.146366 203.288156 
L 147.789246 215.419137 
L 147.551166 217.87748 
L 147.432126 217.540449 
L 147.194046 214.944127 
L 146.836926 207.007071 
L 146.479806 199.49127 
L 146.360766 200.51447 
L 146.003646 213.811688 
L 145.765566 219.857885 
L 145.646526 220.525028 
L 145.289406 220.262642 
L 145.170366 220.360837 
L 145.051326 220.29218 
L 144.575166 219.047308 
L 144.337086 219.093745 
L 143.979966 218.547018 
L 143.860926 218.947117 
L 143.622846 222.273783 
L 143.146686 231.077034 
L 143.027646 230.829151 
L 142.670526 228.513444 
L 142.551486 229.518549 
L 142.194366 237.432454 
L 141.837246 243.187392 
L 141.718206 242.621505 
L 141.242046 233.396999 
L 141.123006 233.680674 
L 140.408766 242.762678 
L 140.289726 242.74232 
L 140.051646 242.589705 
L 139.932606 242.980756 
L 139.694526 245.765884 
L 139.337406 250.578919 
L 139.218366 250.613248 
L 138.980286 248.197483 
L 138.742206 245.437103 
L 138.623166 245.438168 
L 138.385086 249.228401 
L 138.147006 252.860963 
L 138.027966 252.445429 
L 137.670846 245.210509 
L 136.599486 226.122694 
L 136.123326 218.223958 
L 135.885246 216.79294 
L 135.766206 216.626887 
L 135.647166 216.832325 
L 135.409086 218.496456 
L 134.694846 227.088548 
L 133.861566 242.394112 
L 133.742526 241.723643 
L 133.504446 238.534956 
L 133.147326 229.864362 
L 132.552126 213.555954 
L 131.956926 204.66462 
L 131.837886 204.390924 
L 131.599806 206.172411 
L 131.242686 211.368247 
L 130.766526 218.886976 
L 130.647486 219.109978 
L 130.409406 218.205729 
L 130.171326 217.605114 
L 130.052286 217.969422 
L 129.814206 220.60739 
L 129.457086 225.60178 
L 129.219006 226.679267 
L 128.980926 226.962411 
L 128.623806 226.648265 
L 128.385726 227.993595 
L 128.266686 228.620954 
L 128.147646 228.30947 
L 127.909566 224.234363 
L 127.552446 217.240142 
L 127.314366 215.692434 
L 127.195326 216.178621 
L 126.719166 221.735039 
L 126.600126 221.097967 
L 125.766846 209.627875 
L 125.647806 209.805771 
L 125.171646 212.130126 
L 125.052606 212.415265 
L 124.933566 213.15652 
L 124.695486 216.949414 
L 124.100286 231.234573 
L 123.981246 230.110116 
L 122.790846 206.217117 
L 122.433726 205.443929 
L 122.314686 205.667862 
L 122.195646 206.70703 
L 121.957566 211.673744 
L 121.481406 223.859811 
L 120.767166 233.759709 
L 120.529086 230.840328 
L 120.410046 229.606366 
L 120.291006 230.210308 
L 119.814846 239.519837 
L 119.576766 238.85123 
L 119.457726 239.173226 
L 119.219646 241.026563 
L 119.100606 241.134072 
L 118.862526 238.812644 
L 118.505406 234.999392 
L 118.267326 233.204866 
L 118.029246 229.418358 
L 117.791166 224.922396 
L 117.672126 224.793731 
L 117.434046 230.73854 
L 117.076926 239.666731 
L 116.481726 242.126404 
L 116.362686 241.058097 
L 116.005566 231.47261 
L 115.410366 215.694297 
L 115.172286 213.558216 
L 115.053246 213.770174 
L 114.815166 217.010354 
L 113.981886 238.216819 
L 113.862846 238.791621 
L 113.743806 238.577135 
L 113.505726 236.079142 
L 113.029566 228.201295 
L 112.315326 211.016048 
L 112.077246 212.73114 
L 111.839166 216.483319 
L 111.243966 229.919048 
L 111.005886 231.178689 
L 110.886846 231.377741 
L 110.767806 231.798198 
L 110.529726 234.374827 
L 110.291646 237.348363 
L 110.172606 237.409435 
L 109.815486 235.349729 
L 109.339326 240.318439 
L 108.506046 234.297522 
L 107.672766 216.723884 
L 107.553726 216.645115 
L 107.315646 218.431924 
L 106.958526 224.088268 
L 106.720446 227.187009 
L 106.601406 227.115425 
L 106.244286 224.337216 
L 106.125246 224.751552 
L 105.411006 230.315023 
L 105.291966 230.629035 
L 105.172926 230.532835 
L 105.053886 230.267655 
L 104.934846 230.441692 
L 104.815806 231.698805 
L 104.458686 242.019693 
L 104.220606 247.043754 
L 104.101566 247.038299 
L 103.863486 242.702137 
L 103.625406 237.854508 
L 103.506366 237.471307 
L 103.268286 241.104001 
L 103.030206 244.907141 
L 102.911166 245.121494 
L 102.077886 240.553416 
L 101.958846 241.096683 
L 101.363646 246.260587 
L 101.006526 245.813119 
L 100.768446 247.078881 
L 100.649406 247.692801 
L 100.530366 247.468203 
L 100.292286 242.938311 
L 99.578046 222.067546 
L 99.101886 212.512396 
L 98.982846 212.294184 
L 98.744766 215.401042 
L 98.268606 222.829425 
L 98.030526 225.821189 
L 97.792446 232.563137 
L 97.316286 248.848127 
L 97.078206 251.136823 
L 96.959166 250.182545 
L 96.721086 244.890908 
L 96.244926 227.967649 
L 95.649726 204.078508 
L 95.411646 201.688024 
L 95.292606 203.515282 
L 94.935486 217.708765 
L 94.459326 236.445312 
L 94.102206 243.071367 
L 93.864126 247.163904 
L 93.507006 255.453825 
L 93.387966 256.362863 
L 93.268926 255.969816 
L 92.911806 250.965447 
L 92.078526 236.322767 
L 91.840446 235.562485 
L 91.721406 235.470277 
L 91.602366 235.076032 
L 91.245246 233.34218 
L 91.126206 234.197198 
L 90.650046 240.320834 
L 90.292926 241.828491 
L 90.173886 241.760633 
L 89.935806 239.669126 
L 89.697726 237.970799 
L 89.578686 238.557576 
L 89.102526 243.187259 
L 88.983486 242.679651 
L 88.150206 234.227268 
L 88.031166 234.095011 
L 87.912126 234.383343 
L 87.674046 236.477777 
L 87.435966 238.464037 
L 87.316926 238.40975 
L 87.078846 237.325477 
L 86.959806 237.395864 
L 86.721726 238.592702 
L 86.602686 238.369568 
L 86.364606 234.379085 
L 86.126526 229.543697 
L 86.007486 228.930841 
L 85.888446 229.925701 
L 84.459966 256.46026 
L 84.340926 256.95137 
L 84.221886 256.350622 
L 83.626686 249.098272 
L 82.793406 246.586574 
L 82.555326 243.560747 
L 82.198206 238.688237 
L 82.079166 238.716844 
L 81.603006 243.502868 
L 81.483966 243.419974 
L 81.364926 243.111683 
L 81.245886 243.473463 
L 81.007806 248.312576 
L 80.650686 257.260991 
L 80.412606 258.018612 
L 80.293566 258.105099 
L 80.055486 259.624332 
L 79.817406 260.806934 
L 79.698366 260.322743 
L 79.341246 256.017982 
L 78.627006 247.402872 
L 78.269886 245.362592 
L 77.912766 244.384896 
L 77.793726 244.332472 
L 77.674686 244.648347 
L 77.198526 247.813616 
L 77.079486 247.222449 
L 76.841406 242.835326 
L 76.484286 235.592955 
L 76.365246 235.581512 
L 76.127166 240.138281 
L 75.651006 251.171151 
L 74.817726 257.245424 
L 74.698686 257.218014 
L 74.579646 256.282365 
L 74.341566 251.19244 
L 73.627326 228.453835 
L 73.508286 228.761328 
L 73.032126 233.507568 
L 72.675006 239.015554 
L 72.079806 249.437166 
L 71.841726 251.223575 
L 71.722686 251.389097 
L 71.603646 250.656092 
L 71.365566 246.16798 
L 71.008446 239.803512 
L 70.413246 235.476132 
L 70.294206 235.818884 
L 69.937086 240.731179 
L 69.699006 242.951617 
L 69.579966 242.952681 
L 69.222846 240.481565 
L 69.103806 240.530131 
L 68.627646 244.914858 
L 68.508606 244.883191 
L 68.151486 244.209262 
L 67.913406 244.347907 
L 67.794366 244.747474 
L 67.556286 247.081675 
L 67.318206 249.458322 
L 67.199166 249.316218 
L 66.961086 246.40615 
L 66.365886 237.914117 
L 66.246846 238.282549 
L 66.008766 242.368965 
L 65.651646 248.540767 
L 65.413566 249.938388 
L 65.056446 250.327976 
L 64.818366 252.588464 
L 64.580286 254.872503 
L 64.461246 254.764462 
L 64.223166 252.29268 
L 63.985086 246.93864 
L 63.270846 221.862108 
L 63.032766 219.408955 
L 62.437566 210.095833 
L 62.318526 211.143782 
L 62.080446 218.006278 
L 61.366206 246.737992 
L 61.128126 248.745274 
L 61.009086 248.737291 
L 60.890046 248.957366 
L 60.532926 251.18805 
L 60.413886 250.823875 
L 60.175806 247.563338 
L 59.580606 235.769919 
L 59.223486 228.603523 
L 59.104446 228.483773 
L 58.628286 231.374947 
L 58.271166 229.872345 
L 58.152126 230.272312 
L 57.556926 235.408007 
L 57.437886 235.500082 
L 57.318846 235.867982 
L 56.961726 237.94126 
L 56.842686 237.986366 
L 56.723646 237.833751 
L 56.604606 237.929684 
L 56.366526 239.855138 
L 55.652286 248.608892 
L 55.414206 250.085015 
L 55.176126 252.195949 
L 55.057086 252.21125 
L 54.580926 247.217659 
L 54.461886 247.812419 
L 53.985726 252.311974 
L 53.509566 254.936769 
L 52.914366 262.061785 
L 52.795326 261.311216 
L 52.557246 257.30796 
L 51.723966 238.786831 
L 51.128766 234.099401 
L 50.771646 227.708056 
L 50.652606 227.813038 
L 50.295486 231.692684 
L 50.176446 231.306024 
L 49.819326 225.171078 
L 49.581246 222.521267 
L 49.462206 222.621192 
L 48.867006 227.425312 
L 48.390846 232.680625 
L 48.271806 232.657074 
L 48.152766 233.060766 
L 47.914686 238.575405 
L 47.676606 246.296911 
L 47.557566 247.501334 
L 47.438526 246.286267 
L 46.962366 235.860264 
L 46.962366 235.860264 
" clip-path="url(#p2d23f41f41)" style="fill: none; stroke: #1f77b4; stroke-linecap: round"/>
   </g>
   <g id="patch_3">
    <path d="M 47.081406 277.248797 
L 47.081406 11.136797 
" style="fill: none; stroke: #262626; stroke-width: 1.25; stroke-linejoin: miter; stroke-linecap: square"/>
   </g>
   <g id="patch_4">
    <path d="M 47.081406 277.248797 
L 404.201406 277.248797 
" style="fill: none; stroke: #262626; stroke-width: 1.25; stroke-linejoin: miter; stroke-linecap: square"/>
   </g>
   <g id="legend_1"/>
  </g>
 </g>
 <defs>
  <clipPath id="p2d23f41f41">
   <rect x="47.081406" y="11.136797" width="357.12" height="266.112"/>
  </clipPath>
 </defs>
</svg>
