<?xml version="1.0" encoding="utf-8" standalone="no"?>
<!DOCTYPE svg PUBLIC "-//W3C//DTD SVG 1.1//EN"
  "http://www.w3.org/Graphics/SVG/1.1/DTD/svg11.dtd">
<svg xmlns:xlink="http://www.w3.org/1999/xlink" width="417.521016pt" height="319.168641pt" viewBox="0 0 417.521016 319.168641" xmlns="http://www.w3.org/2000/svg" version="1.1">
 <metadata>
  <rdf:RDF xmlns:dc="http://purl.org/dc/elements/1.1/" xmlns:cc="http://creativecommons.org/ns#" xmlns:rdf="http://www.w3.org/1999/02/22-rdf-syntax-ns#">
   <cc:Work>
    <dc:type rdf:resource="http://purl.org/dc/dcmitype/StillImage"/>
    <dc:date>2024-05-21T22:00:01.957992</dc:date>
    <dc:format>image/svg+xml</dc:format>
    <dc:creator>
     <cc:Agent>
      <dc:title>Matplotlib v3.7.1, https://matplotlib.org/</dc:title>
     </cc:Agent>
    </dc:creator>
   </cc:Work>
  </rdf:RDF>
 </metadata>
 <defs>
  <style type="text/css">*{stroke-linejoin: round; stroke-linecap: butt}</style>
 </defs>
 <g id="figure_1">
  <g id="patch_1">
   <path d="M 0 319.168641 
L 417.521016 319.168641 
L 417.521016 0 
L 0 0 
z
" style="fill: #ffffff"/>
  </g>
  <g id="axes_1">
   <g id="patch_2">
    <path d="M 44.025469 277.248797 
L 401.145469 277.248797 
L 401.145469 11.136797 
L 44.025469 11.136797 
z
" style="fill: #ffffff"/>
   </g>
   <g id="matplotlib.axis_1">
    <g id="xtick_1">
     <g id="line2d_1">
      <defs>
       <path id="m130e61c33c" d="M 0 0 
L 0 -6 
" style="stroke: #262626; stroke-width: 1.25"/>
      </defs>
      <g>
       <use xlink:href="#m130e61c33c" x="401.145469" y="277.248797" style="fill: #262626; stroke: #262626; stroke-width: 1.25"/>
      </g>
     </g>
     <g id="text_1">
      <!-- 500 -->
      <g style="fill: #262626" transform="translate(391.969922 288.622391) scale(0.11 -0.11)">
       <defs>
        <path id="ArialMT-35" d="M 266 1200 
L 856 1250 
Q 922 819 1161 601 
Q 1400 384 1738 384 
Q 2144 384 2425 690 
Q 2706 997 2706 1503 
Q 2706 1984 2436 2262 
Q 2166 2541 1728 2541 
Q 1456 2541 1237 2417 
Q 1019 2294 894 2097 
L 366 2166 
L 809 4519 
L 3088 4519 
L 3088 3981 
L 1259 3981 
L 1013 2750 
Q 1425 3038 1878 3038 
Q 2478 3038 2890 2622 
Q 3303 2206 3303 1553 
Q 3303 931 2941 478 
Q 2500 -78 1738 -78 
Q 1113 -78 717 272 
Q 322 622 266 1200 
z
" transform="scale(0.015625)"/>
        <path id="ArialMT-30" d="M 266 2259 
Q 266 3072 433 3567 
Q 600 4063 929 4331 
Q 1259 4600 1759 4600 
Q 2128 4600 2406 4451 
Q 2684 4303 2865 4023 
Q 3047 3744 3150 3342 
Q 3253 2941 3253 2259 
Q 3253 1453 3087 958 
Q 2922 463 2592 192 
Q 2263 -78 1759 -78 
Q 1097 -78 719 397 
Q 266 969 266 2259 
z
M 844 2259 
Q 844 1131 1108 757 
Q 1372 384 1759 384 
Q 2147 384 2411 759 
Q 2675 1134 2675 2259 
Q 2675 3391 2411 3762 
Q 2147 4134 1753 4134 
Q 1366 4134 1134 3806 
Q 844 3388 844 2259 
z
" transform="scale(0.015625)"/>
       </defs>
       <use xlink:href="#ArialMT-35"/>
       <use xlink:href="#ArialMT-30" x="55.615234"/>
       <use xlink:href="#ArialMT-30" x="111.230469"/>
      </g>
     </g>
    </g>
    <g id="xtick_2">
     <g id="line2d_2">
      <g>
       <use xlink:href="#m130e61c33c" x="329.721469" y="277.248797" style="fill: #262626; stroke: #262626; stroke-width: 1.25"/>
      </g>
     </g>
     <g id="text_2">
      <!-- 1000 -->
      <g style="fill: #262626" transform="translate(317.487406 288.622391) scale(0.11 -0.11)">
       <defs>
        <path id="ArialMT-31" d="M 2384 0 
L 1822 0 
L 1822 3584 
Q 1619 3391 1289 3197 
Q 959 3003 697 2906 
L 697 3450 
Q 1169 3672 1522 3987 
Q 1875 4303 2022 4600 
L 2384 4600 
L 2384 0 
z
" transform="scale(0.015625)"/>
       </defs>
       <use xlink:href="#ArialMT-31"/>
       <use xlink:href="#ArialMT-30" x="55.615234"/>
       <use xlink:href="#ArialMT-30" x="111.230469"/>
       <use xlink:href="#ArialMT-30" x="166.845703"/>
      </g>
     </g>
    </g>
    <g id="xtick_3">
     <g id="line2d_3">
      <g>
       <use xlink:href="#m130e61c33c" x="258.297469" y="277.248797" style="fill: #262626; stroke: #262626; stroke-width: 1.25"/>
      </g>
     </g>
     <g id="text_3">
      <!-- 1500 -->
      <g style="fill: #262626" transform="translate(246.063406 288.622391) scale(0.11 -0.11)">
       <use xlink:href="#ArialMT-31"/>
       <use xlink:href="#ArialMT-35" x="55.615234"/>
       <use xlink:href="#ArialMT-30" x="111.230469"/>
       <use xlink:href="#ArialMT-30" x="166.845703"/>
      </g>
     </g>
    </g>
    <g id="xtick_4">
     <g id="line2d_4">
      <g>
       <use xlink:href="#m130e61c33c" x="186.873469" y="277.248797" style="fill: #262626; stroke: #262626; stroke-width: 1.25"/>
      </g>
     </g>
     <g id="text_4">
      <!-- 2000 -->
      <g style="fill: #262626" transform="translate(174.639406 288.622391) scale(0.11 -0.11)">
       <defs>
        <path id="ArialMT-32" d="M 3222 541 
L 3222 0 
L 194 0 
Q 188 203 259 391 
Q 375 700 629 1000 
Q 884 1300 1366 1694 
Q 2113 2306 2375 2664 
Q 2638 3022 2638 3341 
Q 2638 3675 2398 3904 
Q 2159 4134 1775 4134 
Q 1369 4134 1125 3890 
Q 881 3647 878 3216 
L 300 3275 
Q 359 3922 746 4261 
Q 1134 4600 1788 4600 
Q 2447 4600 2831 4234 
Q 3216 3869 3216 3328 
Q 3216 3053 3103 2787 
Q 2991 2522 2730 2228 
Q 2469 1934 1863 1422 
Q 1356 997 1212 845 
Q 1069 694 975 541 
L 3222 541 
z
" transform="scale(0.015625)"/>
       </defs>
       <use xlink:href="#ArialMT-32"/>
       <use xlink:href="#ArialMT-30" x="55.615234"/>
       <use xlink:href="#ArialMT-30" x="111.230469"/>
       <use xlink:href="#ArialMT-30" x="166.845703"/>
      </g>
     </g>
    </g>
    <g id="xtick_5">
     <g id="line2d_5">
      <g>
       <use xlink:href="#m130e61c33c" x="115.449469" y="277.248797" style="fill: #262626; stroke: #262626; stroke-width: 1.25"/>
      </g>
     </g>
     <g id="text_5">
      <!-- 2500 -->
      <g style="fill: #262626" transform="translate(103.215406 288.622391) scale(0.11 -0.11)">
       <use xlink:href="#ArialMT-32"/>
       <use xlink:href="#ArialMT-35" x="55.615234"/>
       <use xlink:href="#ArialMT-30" x="111.230469"/>
       <use xlink:href="#ArialMT-30" x="166.845703"/>
      </g>
     </g>
    </g>
    <g id="xtick_6">
     <g id="line2d_6">
      <g>
       <use xlink:href="#m130e61c33c" x="44.025469" y="277.248797" style="fill: #262626; stroke: #262626; stroke-width: 1.25"/>
      </g>
     </g>
     <g id="text_6">
      <!-- 3000 -->
      <g style="fill: #262626" transform="translate(31.791406 288.622391) scale(0.11 -0.11)">
       <defs>
        <path id="ArialMT-33" d="M 269 1209 
L 831 1284 
Q 928 806 1161 595 
Q 1394 384 1728 384 
Q 2125 384 2398 659 
Q 2672 934 2672 1341 
Q 2672 1728 2419 1979 
Q 2166 2231 1775 2231 
Q 1616 2231 1378 2169 
L 1441 2663 
Q 1497 2656 1531 2656 
Q 1891 2656 2178 2843 
Q 2466 3031 2466 3422 
Q 2466 3731 2256 3934 
Q 2047 4138 1716 4138 
Q 1388 4138 1169 3931 
Q 950 3725 888 3313 
L 325 3413 
Q 428 3978 793 4289 
Q 1159 4600 1703 4600 
Q 2078 4600 2393 4439 
Q 2709 4278 2876 4000 
Q 3044 3722 3044 3409 
Q 3044 3113 2884 2869 
Q 2725 2625 2413 2481 
Q 2819 2388 3044 2092 
Q 3269 1797 3269 1353 
Q 3269 753 2831 336 
Q 2394 -81 1725 -81 
Q 1122 -81 723 278 
Q 325 638 269 1209 
z
" transform="scale(0.015625)"/>
       </defs>
       <use xlink:href="#ArialMT-33"/>
       <use xlink:href="#ArialMT-30" x="55.615234"/>
       <use xlink:href="#ArialMT-30" x="111.230469"/>
       <use xlink:href="#ArialMT-30" x="166.845703"/>
      </g>
     </g>
    </g>
    <g id="xtick_7">
     <g id="line2d_7">
      <defs>
       <path id="mcc18a16887" d="M 0 0 
L 0 -4 
" style="stroke: #262626"/>
      </defs>
      <g>
       <use xlink:href="#mcc18a16887" x="365.433469" y="277.248797" style="fill: #262626; stroke: #262626"/>
      </g>
     </g>
    </g>
    <g id="xtick_8">
     <g id="line2d_8">
      <g>
       <use xlink:href="#mcc18a16887" x="294.009469" y="277.248797" style="fill: #262626; stroke: #262626"/>
      </g>
     </g>
    </g>
    <g id="xtick_9">
     <g id="line2d_9">
      <g>
       <use xlink:href="#mcc18a16887" x="222.585469" y="277.248797" style="fill: #262626; stroke: #262626"/>
      </g>
     </g>
    </g>
    <g id="xtick_10">
     <g id="line2d_10">
      <g>
       <use xlink:href="#mcc18a16887" x="151.161469" y="277.248797" style="fill: #262626; stroke: #262626"/>
      </g>
     </g>
    </g>
    <g id="xtick_11">
     <g id="line2d_11">
      <g>
       <use xlink:href="#mcc18a16887" x="79.737469" y="277.248797" style="fill: #262626; stroke: #262626"/>
      </g>
     </g>
    </g>
    <g id="text_7">
     <!-- Wavenumber ($\mathregular{cm^{-1}}$) -->
     <g style="fill: #262626" transform="translate(168.045469 309.328641) scale(0.12 -0.12)">
      <defs>
       <path id="ArialMT-57" d="M 1294 0 
L 78 4581 
L 700 4581 
L 1397 1578 
Q 1509 1106 1591 641 
Q 1766 1375 1797 1488 
L 2669 4581 
L 3400 4581 
L 4056 2263 
Q 4303 1400 4413 641 
Q 4500 1075 4641 1638 
L 5359 4581 
L 5969 4581 
L 4713 0 
L 4128 0 
L 3163 3491 
Q 3041 3928 3019 4028 
Q 2947 3713 2884 3491 
L 1913 0 
L 1294 0 
z
" transform="scale(0.015625)"/>
       <path id="ArialMT-61" d="M 2588 409 
Q 2275 144 1986 34 
Q 1697 -75 1366 -75 
Q 819 -75 525 192 
Q 231 459 231 875 
Q 231 1119 342 1320 
Q 453 1522 633 1644 
Q 813 1766 1038 1828 
Q 1203 1872 1538 1913 
Q 2219 1994 2541 2106 
Q 2544 2222 2544 2253 
Q 2544 2597 2384 2738 
Q 2169 2928 1744 2928 
Q 1347 2928 1158 2789 
Q 969 2650 878 2297 
L 328 2372 
Q 403 2725 575 2942 
Q 747 3159 1072 3276 
Q 1397 3394 1825 3394 
Q 2250 3394 2515 3294 
Q 2781 3194 2906 3042 
Q 3031 2891 3081 2659 
Q 3109 2516 3109 2141 
L 3109 1391 
Q 3109 606 3145 398 
Q 3181 191 3288 0 
L 2700 0 
Q 2613 175 2588 409 
z
M 2541 1666 
Q 2234 1541 1622 1453 
Q 1275 1403 1131 1340 
Q 988 1278 909 1158 
Q 831 1038 831 891 
Q 831 666 1001 516 
Q 1172 366 1500 366 
Q 1825 366 2078 508 
Q 2331 650 2450 897 
Q 2541 1088 2541 1459 
L 2541 1666 
z
" transform="scale(0.015625)"/>
       <path id="ArialMT-76" d="M 1344 0 
L 81 3319 
L 675 3319 
L 1388 1331 
Q 1503 1009 1600 663 
Q 1675 925 1809 1294 
L 2547 3319 
L 3125 3319 
L 1869 0 
L 1344 0 
z
" transform="scale(0.015625)"/>
       <path id="ArialMT-65" d="M 2694 1069 
L 3275 997 
Q 3138 488 2766 206 
Q 2394 -75 1816 -75 
Q 1088 -75 661 373 
Q 234 822 234 1631 
Q 234 2469 665 2931 
Q 1097 3394 1784 3394 
Q 2450 3394 2872 2941 
Q 3294 2488 3294 1666 
Q 3294 1616 3291 1516 
L 816 1516 
Q 847 969 1125 678 
Q 1403 388 1819 388 
Q 2128 388 2347 550 
Q 2566 713 2694 1069 
z
M 847 1978 
L 2700 1978 
Q 2663 2397 2488 2606 
Q 2219 2931 1791 2931 
Q 1403 2931 1139 2672 
Q 875 2413 847 1978 
z
" transform="scale(0.015625)"/>
       <path id="ArialMT-6e" d="M 422 0 
L 422 3319 
L 928 3319 
L 928 2847 
Q 1294 3394 1984 3394 
Q 2284 3394 2536 3286 
Q 2788 3178 2913 3003 
Q 3038 2828 3088 2588 
Q 3119 2431 3119 2041 
L 3119 0 
L 2556 0 
L 2556 2019 
Q 2556 2363 2490 2533 
Q 2425 2703 2258 2804 
Q 2091 2906 1866 2906 
Q 1506 2906 1245 2678 
Q 984 2450 984 1813 
L 984 0 
L 422 0 
z
" transform="scale(0.015625)"/>
       <path id="ArialMT-75" d="M 2597 0 
L 2597 488 
Q 2209 -75 1544 -75 
Q 1250 -75 995 37 
Q 741 150 617 320 
Q 494 491 444 738 
Q 409 903 409 1263 
L 409 3319 
L 972 3319 
L 972 1478 
Q 972 1038 1006 884 
Q 1059 663 1231 536 
Q 1403 409 1656 409 
Q 1909 409 2131 539 
Q 2353 669 2445 892 
Q 2538 1116 2538 1541 
L 2538 3319 
L 3100 3319 
L 3100 0 
L 2597 0 
z
" transform="scale(0.015625)"/>
       <path id="ArialMT-6d" d="M 422 0 
L 422 3319 
L 925 3319 
L 925 2853 
Q 1081 3097 1340 3245 
Q 1600 3394 1931 3394 
Q 2300 3394 2536 3241 
Q 2772 3088 2869 2813 
Q 3263 3394 3894 3394 
Q 4388 3394 4653 3120 
Q 4919 2847 4919 2278 
L 4919 0 
L 4359 0 
L 4359 2091 
Q 4359 2428 4304 2576 
Q 4250 2725 4106 2815 
Q 3963 2906 3769 2906 
Q 3419 2906 3187 2673 
Q 2956 2441 2956 1928 
L 2956 0 
L 2394 0 
L 2394 2156 
Q 2394 2531 2256 2718 
Q 2119 2906 1806 2906 
Q 1569 2906 1367 2781 
Q 1166 2656 1075 2415 
Q 984 2175 984 1722 
L 984 0 
L 422 0 
z
" transform="scale(0.015625)"/>
       <path id="ArialMT-62" d="M 941 0 
L 419 0 
L 419 4581 
L 981 4581 
L 981 2947 
Q 1338 3394 1891 3394 
Q 2197 3394 2470 3270 
Q 2744 3147 2920 2923 
Q 3097 2700 3197 2384 
Q 3297 2069 3297 1709 
Q 3297 856 2875 390 
Q 2453 -75 1863 -75 
Q 1275 -75 941 416 
L 941 0 
z
M 934 1684 
Q 934 1088 1097 822 
Q 1363 388 1816 388 
Q 2184 388 2453 708 
Q 2722 1028 2722 1663 
Q 2722 2313 2464 2622 
Q 2206 2931 1841 2931 
Q 1472 2931 1203 2611 
Q 934 2291 934 1684 
z
" transform="scale(0.015625)"/>
       <path id="ArialMT-72" d="M 416 0 
L 416 3319 
L 922 3319 
L 922 2816 
Q 1116 3169 1280 3281 
Q 1444 3394 1641 3394 
Q 1925 3394 2219 3213 
L 2025 2691 
Q 1819 2813 1613 2813 
Q 1428 2813 1281 2702 
Q 1134 2591 1072 2394 
Q 978 2094 978 1738 
L 978 0 
L 416 0 
z
" transform="scale(0.015625)"/>
       <path id="ArialMT-20" transform="scale(0.015625)"/>
       <path id="ArialMT-28" d="M 1497 -1347 
Q 1031 -759 709 28 
Q 388 816 388 1659 
Q 388 2403 628 3084 
Q 909 3875 1497 4659 
L 1900 4659 
Q 1522 4009 1400 3731 
Q 1209 3300 1100 2831 
Q 966 2247 966 1656 
Q 966 153 1900 -1347 
L 1497 -1347 
z
" transform="scale(0.015625)"/>
       <path id="ArialMT-63" d="M 2588 1216 
L 3141 1144 
Q 3050 572 2676 248 
Q 2303 -75 1759 -75 
Q 1078 -75 664 370 
Q 250 816 250 1647 
Q 250 2184 428 2587 
Q 606 2991 970 3192 
Q 1334 3394 1763 3394 
Q 2303 3394 2647 3120 
Q 2991 2847 3088 2344 
L 2541 2259 
Q 2463 2594 2264 2762 
Q 2066 2931 1784 2931 
Q 1359 2931 1093 2626 
Q 828 2322 828 1663 
Q 828 994 1084 691 
Q 1341 388 1753 388 
Q 2084 388 2306 591 
Q 2528 794 2588 1216 
z
" transform="scale(0.015625)"/>
       <path id="ArialMT-2212" d="M 3381 1997 
L 356 1997 
L 356 2522 
L 3381 2522 
L 3381 1997 
z
" transform="scale(0.015625)"/>
       <path id="ArialMT-29" d="M 791 -1347 
L 388 -1347 
Q 1322 153 1322 1656 
Q 1322 2244 1188 2822 
Q 1081 3291 891 3722 
Q 769 4003 388 4659 
L 791 4659 
Q 1378 3875 1659 3084 
Q 1900 2403 1900 1659 
Q 1900 816 1576 28 
Q 1253 -759 791 -1347 
z
" transform="scale(0.015625)"/>
      </defs>
      <use xlink:href="#ArialMT-57" transform="translate(0 0.99375)"/>
      <use xlink:href="#ArialMT-61" transform="translate(94.384766 0.99375)"/>
      <use xlink:href="#ArialMT-76" transform="translate(150 0.99375)"/>
      <use xlink:href="#ArialMT-65" transform="translate(200 0.99375)"/>
      <use xlink:href="#ArialMT-6e" transform="translate(255.615234 0.99375)"/>
      <use xlink:href="#ArialMT-75" transform="translate(311.230469 0.99375)"/>
      <use xlink:href="#ArialMT-6d" transform="translate(366.845703 0.99375)"/>
      <use xlink:href="#ArialMT-62" transform="translate(450.146484 0.99375)"/>
      <use xlink:href="#ArialMT-65" transform="translate(505.761719 0.99375)"/>
      <use xlink:href="#ArialMT-72" transform="translate(561.376953 0.99375)"/>
      <use xlink:href="#ArialMT-20" transform="translate(594.677734 0.99375)"/>
      <use xlink:href="#ArialMT-28" transform="translate(622.460938 0.99375)"/>
      <use xlink:href="#ArialMT-63" transform="translate(655.761719 0.99375)"/>
      <use xlink:href="#ArialMT-6d" transform="translate(705.761719 0.99375)"/>
      <use xlink:href="#ArialMT-2212" transform="translate(790.804844 70.6875) scale(0.7)"/>
      <use xlink:href="#ArialMT-31" transform="translate(831.68375 70.6875) scale(0.7)"/>
      <use xlink:href="#ArialMT-29" transform="translate(875.592539 0.99375)"/>
     </g>
    </g>
   </g>
   <g id="matplotlib.axis_2">
    <g id="ytick_1">
     <g id="line2d_12">
      <defs>
       <path id="mf8fa63da22" d="M 0 0 
L 6 0 
" style="stroke: #262626; stroke-width: 1.25"/>
      </defs>
      <g>
       <use xlink:href="#mf8fa63da22" x="44.025469" y="277.248797" style="fill: #262626; stroke: #262626; stroke-width: 1.25"/>
      </g>
     </g>
     <g id="text_8">
      <!-- 0 -->
      <g style="fill: #262626" transform="translate(34.408438 281.185594) scale(0.11 -0.11)">
       <use xlink:href="#ArialMT-30"/>
      </g>
     </g>
    </g>
    <g id="ytick_2">
     <g id="line2d_13">
      <g>
       <use xlink:href="#mf8fa63da22" x="44.025469" y="243.984797" style="fill: #262626; stroke: #262626; stroke-width: 1.25"/>
      </g>
     </g>
     <g id="text_9">
      <!-- 25 -->
      <g style="fill: #262626" transform="translate(28.291406 247.921594) scale(0.11 -0.11)">
       <use xlink:href="#ArialMT-32"/>
       <use xlink:href="#ArialMT-35" x="55.615234"/>
      </g>
     </g>
    </g>
    <g id="ytick_3">
     <g id="line2d_14">
      <g>
       <use xlink:href="#mf8fa63da22" x="44.025469" y="210.720797" style="fill: #262626; stroke: #262626; stroke-width: 1.25"/>
      </g>
     </g>
     <g id="text_10">
      <!-- 50 -->
      <g style="fill: #262626" transform="translate(28.291406 214.657594) scale(0.11 -0.11)">
       <use xlink:href="#ArialMT-35"/>
       <use xlink:href="#ArialMT-30" x="55.615234"/>
      </g>
     </g>
    </g>
    <g id="ytick_4">
     <g id="line2d_15">
      <g>
       <use xlink:href="#mf8fa63da22" x="44.025469" y="177.456797" style="fill: #262626; stroke: #262626; stroke-width: 1.25"/>
      </g>
     </g>
     <g id="text_11">
      <!-- 75 -->
      <g style="fill: #262626" transform="translate(28.291406 181.393594) scale(0.11 -0.11)">
       <defs>
        <path id="ArialMT-37" d="M 303 3981 
L 303 4522 
L 3269 4522 
L 3269 4084 
Q 2831 3619 2401 2847 
Q 1972 2075 1738 1259 
Q 1569 684 1522 0 
L 944 0 
Q 953 541 1156 1306 
Q 1359 2072 1739 2783 
Q 2119 3494 2547 3981 
L 303 3981 
z
" transform="scale(0.015625)"/>
       </defs>
       <use xlink:href="#ArialMT-37"/>
       <use xlink:href="#ArialMT-35" x="55.615234"/>
      </g>
     </g>
    </g>
    <g id="ytick_5">
     <g id="line2d_16">
      <g>
       <use xlink:href="#mf8fa63da22" x="44.025469" y="144.192797" style="fill: #262626; stroke: #262626; stroke-width: 1.25"/>
      </g>
     </g>
     <g id="text_12">
      <!-- 100 -->
      <g style="fill: #262626" transform="translate(22.174375 148.129594) scale(0.11 -0.11)">
       <use xlink:href="#ArialMT-31"/>
       <use xlink:href="#ArialMT-30" x="55.615234"/>
       <use xlink:href="#ArialMT-30" x="111.230469"/>
      </g>
     </g>
    </g>
    <g id="ytick_6">
     <g id="line2d_17">
      <g>
       <use xlink:href="#mf8fa63da22" x="44.025469" y="110.928797" style="fill: #262626; stroke: #262626; stroke-width: 1.25"/>
      </g>
     </g>
     <g id="text_13">
      <!-- 125 -->
      <g style="fill: #262626" transform="translate(22.174375 114.865594) scale(0.11 -0.11)">
       <use xlink:href="#ArialMT-31"/>
       <use xlink:href="#ArialMT-32" x="55.615234"/>
       <use xlink:href="#ArialMT-35" x="111.230469"/>
      </g>
     </g>
    </g>
    <g id="ytick_7">
     <g id="line2d_18">
      <g>
       <use xlink:href="#mf8fa63da22" x="44.025469" y="77.664797" style="fill: #262626; stroke: #262626; stroke-width: 1.25"/>
      </g>
     </g>
     <g id="text_14">
      <!-- 150 -->
      <g style="fill: #262626" transform="translate(22.174375 81.601594) scale(0.11 -0.11)">
       <use xlink:href="#ArialMT-31"/>
       <use xlink:href="#ArialMT-35" x="55.615234"/>
       <use xlink:href="#ArialMT-30" x="111.230469"/>
      </g>
     </g>
    </g>
    <g id="ytick_8">
     <g id="line2d_19">
      <g>
       <use xlink:href="#mf8fa63da22" x="44.025469" y="44.400797" style="fill: #262626; stroke: #262626; stroke-width: 1.25"/>
      </g>
     </g>
     <g id="text_15">
      <!-- 175 -->
      <g style="fill: #262626" transform="translate(22.174375 48.337594) scale(0.11 -0.11)">
       <use xlink:href="#ArialMT-31"/>
       <use xlink:href="#ArialMT-37" x="55.615234"/>
       <use xlink:href="#ArialMT-35" x="111.230469"/>
      </g>
     </g>
    </g>
    <g id="ytick_9">
     <g id="line2d_20">
      <g>
       <use xlink:href="#mf8fa63da22" x="44.025469" y="11.136797" style="fill: #262626; stroke: #262626; stroke-width: 1.25"/>
      </g>
     </g>
     <g id="text_16">
      <!-- 200 -->
      <g style="fill: #262626" transform="translate(22.174375 15.073594) scale(0.11 -0.11)">
       <use xlink:href="#ArialMT-32"/>
       <use xlink:href="#ArialMT-30" x="55.615234"/>
       <use xlink:href="#ArialMT-30" x="111.230469"/>
      </g>
     </g>
    </g>
    <g id="ytick_10">
     <g id="line2d_21">
      <defs>
       <path id="m4e591371b4" d="M 0 0 
L 4 0 
" style="stroke: #262626"/>
      </defs>
      <g>
       <use xlink:href="#m4e591371b4" x="44.025469" y="260.616797" style="fill: #262626; stroke: #262626"/>
      </g>
     </g>
    </g>
    <g id="ytick_11">
     <g id="line2d_22">
      <g>
       <use xlink:href="#m4e591371b4" x="44.025469" y="227.352797" style="fill: #262626; stroke: #262626"/>
      </g>
     </g>
    </g>
    <g id="ytick_12">
     <g id="line2d_23">
      <g>
       <use xlink:href="#m4e591371b4" x="44.025469" y="194.088797" style="fill: #262626; stroke: #262626"/>
      </g>
     </g>
    </g>
    <g id="ytick_13">
     <g id="line2d_24">
      <g>
       <use xlink:href="#m4e591371b4" x="44.025469" y="160.824797" style="fill: #262626; stroke: #262626"/>
      </g>
     </g>
    </g>
    <g id="ytick_14">
     <g id="line2d_25">
      <g>
       <use xlink:href="#m4e591371b4" x="44.025469" y="127.560797" style="fill: #262626; stroke: #262626"/>
      </g>
     </g>
    </g>
    <g id="ytick_15">
     <g id="line2d_26">
      <g>
       <use xlink:href="#m4e591371b4" x="44.025469" y="94.296797" style="fill: #262626; stroke: #262626"/>
      </g>
     </g>
    </g>
    <g id="ytick_16">
     <g id="line2d_27">
      <g>
       <use xlink:href="#m4e591371b4" x="44.025469" y="61.032797" style="fill: #262626; stroke: #262626"/>
      </g>
     </g>
    </g>
    <g id="ytick_17">
     <g id="line2d_28">
      <g>
       <use xlink:href="#m4e591371b4" x="44.025469" y="27.768797" style="fill: #262626; stroke: #262626"/>
      </g>
     </g>
    </g>
    <g id="text_17">
     <!-- AU-045-D -->
     <g style="fill: #262626" transform="translate(15.789375 170.866547) rotate(-90) scale(0.12 -0.12)">
      <defs>
       <path id="ArialMT-41" d="M -9 0 
L 1750 4581 
L 2403 4581 
L 4278 0 
L 3588 0 
L 3053 1388 
L 1138 1388 
L 634 0 
L -9 0 
z
M 1313 1881 
L 2866 1881 
L 2388 3150 
Q 2169 3728 2063 4100 
Q 1975 3659 1816 3225 
L 1313 1881 
z
" transform="scale(0.015625)"/>
       <path id="ArialMT-55" d="M 3500 4581 
L 4106 4581 
L 4106 1934 
Q 4106 1244 3950 837 
Q 3794 431 3386 176 
Q 2978 -78 2316 -78 
Q 1672 -78 1262 144 
Q 853 366 678 786 
Q 503 1206 503 1934 
L 503 4581 
L 1109 4581 
L 1109 1938 
Q 1109 1341 1220 1058 
Q 1331 775 1601 622 
Q 1872 469 2263 469 
Q 2931 469 3215 772 
Q 3500 1075 3500 1938 
L 3500 4581 
z
" transform="scale(0.015625)"/>
       <path id="ArialMT-2d" d="M 203 1375 
L 203 1941 
L 1931 1941 
L 1931 1375 
L 203 1375 
z
" transform="scale(0.015625)"/>
       <path id="ArialMT-34" d="M 2069 0 
L 2069 1097 
L 81 1097 
L 81 1613 
L 2172 4581 
L 2631 4581 
L 2631 1613 
L 3250 1613 
L 3250 1097 
L 2631 1097 
L 2631 0 
L 2069 0 
z
M 2069 1613 
L 2069 3678 
L 634 1613 
L 2069 1613 
z
" transform="scale(0.015625)"/>
       <path id="ArialMT-44" d="M 494 0 
L 494 4581 
L 2072 4581 
Q 2606 4581 2888 4516 
Q 3281 4425 3559 4188 
Q 3922 3881 4101 3404 
Q 4281 2928 4281 2316 
Q 4281 1794 4159 1391 
Q 4038 988 3847 723 
Q 3656 459 3429 307 
Q 3203 156 2883 78 
Q 2563 0 2147 0 
L 494 0 
z
M 1100 541 
L 2078 541 
Q 2531 541 2789 625 
Q 3047 709 3200 863 
Q 3416 1078 3536 1442 
Q 3656 1806 3656 2325 
Q 3656 3044 3420 3430 
Q 3184 3816 2847 3947 
Q 2603 4041 2063 4041 
L 1100 4041 
L 1100 541 
z
" transform="scale(0.015625)"/>
      </defs>
      <use xlink:href="#ArialMT-41"/>
      <use xlink:href="#ArialMT-55" x="66.699219"/>
      <use xlink:href="#ArialMT-2d" x="138.916016"/>
      <use xlink:href="#ArialMT-30" x="172.216797"/>
      <use xlink:href="#ArialMT-34" x="227.832031"/>
      <use xlink:href="#ArialMT-35" x="283.447266"/>
      <use xlink:href="#ArialMT-2d" x="339.0625"/>
      <use xlink:href="#ArialMT-44" x="372.363281"/>
     </g>
    </g>
   </g>
   <g id="PolyCollection_1"/>
   <g id="line2d_29">
    <path d="M 401.216893 275.959085 
L 401.002621 275.272742 
L 400.716925 273.753802 
L 400.359805 271.479236 
L 400.288381 271.552097 
L 400.074109 272.78534 
L 399.574141 276.326466 
L 399.431293 276.368671 
L 399.288445 276.168701 
L 399.074173 275.30248 
L 398.717053 273.774199 
L 398.574205 273.995644 
L 398.074237 275.360533 
L 397.931389 274.874373 
L 397.574269 273.181887 
L 397.431421 273.852236 
L 397.074301 275.931476 
L 396.860029 276.311218 
L 396.717181 276.306361 
L 395.931517 275.193813 
L 395.788669 275.10742 
L 395.574397 275.284997 
L 395.360125 274.138014 
L 395.145853 273.501288 
L 394.860157 273.634091 
L 394.717309 274.188323 
L 394.503037 275.160669 
L 394.431613 274.960793 
L 394.217341 272.645778 
L 393.931645 270.091196 
L 393.860221 270.070333 
L 393.717373 271.059391 
L 393.217405 276.649832 
L 393.145981 276.654941 
L 392.931709 276.15686 
L 392.217469 273.019 
L 391.860349 271.566215 
L 391.717501 272.018366 
L 391.003261 276.077784 
L 390.646141 275.527239 
L 390.503293 274.708798 
L 390.074749 270.697878 
L 390.003325 270.635687 
L 389.860477 270.940572 
L 389.146237 273.661168 
L 389.003389 273.92269 
L 388.860541 273.766735 
L 388.574845 273.277488 
L 388.360573 273.363788 
L 388.146301 273.50669 
L 388.003453 273.158376 
L 387.646333 271.512699 
L 387.574909 271.553521 
L 387.432061 272.315386 
L 387.003517 275.910307 
L 386.860669 275.599927 
L 386.432125 274.257964 
L 386.003581 273.233273 
L 385.789309 272.61608 
L 385.646461 273.489872 
L 385.360765 275.868793 
L 385.289341 275.734753 
L 385.075069 273.729532 
L 384.789373 270.937166 
L 384.717949 270.767134 
L 384.646525 270.913362 
L 384.432253 272.728831 
L 384.146557 274.60399 
L 384.003709 274.613476 
L 383.646589 273.690254 
L 383.360893 273.19144 
L 383.218045 273.43158 
L 382.575229 276.391903 
L 382.503805 276.220314 
L 382.075261 273.444579 
L 382.003837 273.647596 
L 381.646717 274.876102 
L 381.575293 274.885935 
L 381.432445 274.41191 
L 380.861053 270.268905 
L 380.646781 270.258274 
L 380.503933 271.048121 
L 380.003965 275.463052 
L 379.861117 274.923257 
L 379.432573 270.871649 
L 379.289725 271.123817 
L 378.932605 272.3026 
L 378.789757 272.503142 
L 378.718333 272.460617 
L 378.575485 271.965449 
L 377.932669 268.91679 
L 377.789821 269.534889 
L 377.289853 272.182171 
L 376.789885 273.881376 
L 376.647037 273.704877 
L 376.432765 272.971353 
L 376.147069 272.001201 
L 376.004221 272.439714 
L 375.218557 276.766389 
L 375.147133 276.612244 
L 374.147197 272.15041 
L 373.861501 270.358958 
L 373.790077 270.45694 
L 373.575805 272.086623 
L 373.290109 273.840142 
L 373.147261 273.94306 
L 372.861565 273.766189 
L 372.575869 274.023892 
L 372.433021 273.707698 
L 372.147325 272.342184 
L 371.790205 270.198599 
L 371.718781 270.15803 
L 371.575933 270.446575 
L 371.361661 271.663106 
L 370.861693 276.747216 
L 370.790269 276.49715 
L 370.575997 273.934598 
L 370.218877 269.645298 
L 370.147453 269.668703 
L 370.004605 270.740788 
L 369.504637 276.554551 
L 369.433213 276.620639 
L 369.290365 276.205332 
L 368.933245 275.141576 
L 368.790397 274.607835 
L 368.504701 272.034199 
L 368.147581 269.267978 
L 368.004733 270.07169 
L 367.576189 273.739844 
L 367.076221 275.403017 
L 366.933373 275.055435 
L 366.719101 273.216974 
L 366.504829 271.39899 
L 366.433405 271.46935 
L 366.076285 274.124522 
L 366.004861 274.05045 
L 365.862013 272.985656 
L 365.433469 268.197383 
L 365.290621 269.00011 
L 364.576381 276.114508 
L 364.433533 275.447777 
L 364.147837 272.276827 
L 363.862141 269.740527 
L 363.505021 271.491397 
L 363.433597 271.270538 
L 363.005053 269.587526 
L 362.933629 269.595682 
L 362.790781 270.143021 
L 362.576509 271.051394 
L 362.433661 270.250158 
L 362.147965 267.720484 
L 362.076541 267.652386 
L 361.933693 268.112759 
L 361.505149 270.014875 
L 361.433725 269.896482 
L 361.290877 268.788192 
L 360.933757 265.115447 
L 360.862333 265.028042 
L 360.719485 265.405815 
L 360.433789 267.138763 
L 359.505277 274.878218 
L 359.362429 274.979434 
L 359.291005 274.968563 
L 359.148157 275.342464 
L 358.933885 275.962624 
L 358.791037 275.457131 
L 358.576765 274.811597 
L 358.362493 274.874413 
L 358.076797 274.465146 
L 357.933949 274.890472 
L 357.648253 275.711202 
L 357.505405 275.61926 
L 357.219709 275.317542 
L 357.076861 275.551721 
L 356.862589 275.983581 
L 356.719741 275.535807 
L 356.291197 272.986867 
L 356.148349 273.480425 
L 355.862653 274.908382 
L 355.791229 274.870594 
L 355.576957 274.127822 
L 355.148413 272.427486 
L 355.005565 272.252863 
L 354.719869 270.828073 
L 354.648445 270.971547 
L 354.219901 273.549082 
L 354.077053 273.455051 
L 353.934205 272.814799 
L 353.577085 270.559686 
L 353.434237 271.478052 
L 353.005693 275.202781 
L 352.862845 273.827834 
L 352.434301 268.380402 
L 352.362877 268.42443 
L 352.220029 269.406503 
L 351.862909 272.869285 
L 351.791485 272.828903 
L 350.934397 269.527398 
L 350.862973 269.739462 
L 350.505853 271.622205 
L 350.363005 271.245829 
L 349.934461 269.866424 
L 349.791613 270.283422 
L 349.077373 275.074343 
L 349.005949 275.048902 
L 348.863101 274.214402 
L 348.434557 270.502512 
L 348.291709 271.298173 
L 348.006013 273.138631 
L 347.863165 272.429761 
L 347.506045 270.167903 
L 347.363197 270.806212 
L 347.148925 271.654524 
L 347.006077 271.076342 
L 346.720381 269.837777 
L 346.648957 269.864309 
L 346.506109 270.287706 
L 346.148989 271.846204 
L 346.006141 271.291654 
L 345.791869 270.418673 
L 345.649021 270.475422 
L 345.506173 270.529602 
L 345.220477 270.414136 
L 345.077629 270.668579 
L 344.791933 271.931121 
L 344.220541 274.577698 
L 344.006269 274.911748 
L 343.720573 274.92198 
L 343.577725 274.831941 
L 343.292029 274.023506 
L 343.077757 272.696791 
L 342.792061 270.639373 
L 342.720637 270.644655 
L 342.292093 271.612438 
L 341.077885 276.966519 
L 341.006461 277.008325 
L 340.863613 276.494369 
L 340.292221 274.000487 
L 340.149373 273.975021 
L 340.077949 274.005317 
L 339.935101 273.654169 
L 339.649405 272.591491 
L 339.435133 272.398453 
L 339.363709 272.496196 
L 339.220861 273.436051 
L 338.935165 275.656835 
L 338.863741 275.632925 
L 338.506621 274.657345 
L 338.220925 272.467682 
L 337.935229 269.25756 
L 337.506685 263.81203 
L 337.435261 263.76264 
L 337.078141 264.656696 
L 337.006717 264.549121 
L 336.792445 263.486495 
L 336.435325 261.506183 
L 336.149629 260.997324 
L 336.006781 261.118365 
L 335.506813 262.670995 
L 334.649725 267.421148 
L 334.292605 270.115305 
L 334.078333 270.227445 
L 333.935485 270.94652 
L 333.506941 273.51965 
L 333.435517 273.65216 
L 333.364093 273.599364 
L 333.221245 272.808226 
L 333.006973 271.600995 
L 332.864125 272.17629 
L 332.649853 273.202191 
L 332.578429 273.167677 
L 332.435581 272.611383 
L 332.149885 269.864003 
L 331.935613 268.520816 
L 331.792765 268.588781 
L 331.649917 269.021771 
L 331.435645 271.127542 
L 331.221373 272.818578 
L 331.149949 272.712426 
L 330.864253 271.817145 
L 330.721405 272.134138 
L 330.435709 272.972297 
L 330.364285 272.927963 
L 330.221437 272.028265 
L 329.507197 263.9226 
L 329.292925 262.517209 
L 329.007229 258.547736 
L 328.507261 250.108553 
L 328.292989 247.423789 
L 328.007293 240.530557 
L 327.650173 232.712253 
L 327.578749 233.034009 
L 327.364477 237.046964 
L 326.364541 260.375047 
L 326.221693 261.53636 
L 326.150269 261.503881 
L 325.864573 260.52588 
L 325.721725 261.467557 
L 325.507453 265.403593 
L 325.078909 273.731315 
L 324.793213 275.082605 
L 324.721789 275.187972 
L 324.650365 275.127206 
L 324.507517 274.434303 
L 323.650429 268.51846 
L 323.507581 269.118756 
L 323.079037 271.984889 
L 322.936189 272.006843 
L 322.793341 271.928845 
L 322.721917 271.99238 
L 322.579069 272.60477 
L 322.293373 274.74632 
L 322.221949 274.717526 
L 322.079101 273.40771 
L 321.650557 267.991146 
L 321.507709 268.688586 
L 320.722045 274.221121 
L 320.579197 273.616754 
L 320.079229 269.335677 
L 320.007805 269.61077 
L 319.650685 273.387938 
L 319.579261 273.207301 
L 319.364989 270.21378 
L 319.007869 265.40173 
L 318.936445 265.069742 
L 318.865021 265.085762 
L 318.722173 266.065959 
L 318.365053 268.665008 
L 318.293629 268.629815 
L 318.079357 267.684186 
L 317.793661 266.3468 
L 317.650813 266.304848 
L 317.293693 267.212702 
L 317.222269 267.128172 
L 317.079421 267.093843 
L 316.936573 267.783778 
L 316.293757 272.909082 
L 316.222333 272.826947 
L 315.793789 271.351768 
L 315.650941 271.491331 
L 315.293821 272.746035 
L 315.222397 272.639804 
L 315.079549 271.586 
L 314.722429 267.900202 
L 314.651005 267.90607 
L 314.436733 269.2159 
L 314.079613 271.417365 
L 313.793917 271.75083 
L 313.651069 272.786538 
L 313.222525 276.743237 
L 313.079677 276.972652 
L 312.936829 276.412101 
L 312.722557 273.74659 
L 312.365437 269.328625 
L 312.222589 269.059985 
L 311.865469 269.789411 
L 311.651197 268.894104 
L 311.294077 267.320132 
L 311.222653 267.329193 
L 310.865533 267.889851 
L 310.794109 267.89661 
L 310.651261 268.505088 
L 310.008445 273.352505 
L 309.937021 272.999787 
L 309.722749 268.957519 
L 309.365629 263.03791 
L 309.222781 262.656266 
L 309.008509 264.024188 
L 308.865661 264.599669 
L 308.794237 264.49808 
L 308.365693 262.780394 
L 308.222845 263.257479 
L 307.865725 265.199844 
L 307.722877 265.494883 
L 307.222909 267.920321 
L 307.008637 268.901635 
L 306.937213 268.849903 
L 306.580093 267.547271 
L 306.508669 267.605616 
L 306.365821 267.971095 
L 306.008701 269.549631 
L 305.865853 268.613396 
L 305.508733 263.627455 
L 305.008765 255.789445 
L 304.008829 240.015337 
L 302.366077 188.280996 
L 301.866109 165.420312 
L 301.723261 163.271018 
L 301.651837 163.47494 
L 301.508989 166.143338 
L 301.151869 179.408037 
L 299.937661 232.898305 
L 299.009149 257.553116 
L 298.366333 271.831981 
L 298.223485 272.242725 
L 297.937789 271.871259 
L 297.794941 272.687584 
L 297.509245 274.634074 
L 297.366397 274.121648 
L 297.080701 272.875738 
L 297.009277 272.862207 
L 296.866429 273.409586 
L 296.509309 275.791395 
L 296.437885 275.727421 
L 296.009341 273.994912 
L 295.723645 273.233593 
L 295.580797 273.70171 
L 295.223677 276.555748 
L 295.152253 276.490431 
L 295.009405 275.050645 
L 294.652285 271.092482 
L 293.938045 266.803927 
L 293.509501 264.943618 
L 293.152381 261.733629 
L 292.938109 262.677355 
L 292.580989 264.171428 
L 292.509565 264.120268 
L 292.223869 262.696715 
L 291.866749 260.886195 
L 291.152509 256.11643 
L 291.009661 256.520828 
L 290.795389 258.216201 
L 290.223997 264.386313 
L 290.009725 264.818998 
L 289.795453 266.04165 
L 289.581181 269.758888 
L 289.295485 274.949842 
L 289.224061 274.835999 
L 288.724093 271.107504 
L 288.581245 272.322917 
L 288.224125 276.473692 
L 287.509885 273.140999 
L 287.295613 274.804345 
L 287.152765 275.272343 
L 286.938493 273.572313 
L 286.367101 268.085949 
L 286.295677 268.270245 
L 286.009981 269.494799 
L 285.867133 269.457317 
L 285.652861 269.67159 
L 285.510013 269.065467 
L 285.152893 265.775112 
L 284.295805 253.856315 
L 284.224381 253.888634 
L 284.081533 255.067098 
L 283.724413 261.738406 
L 283.224445 271.002802 
L 283.010173 271.443564 
L 282.938749 271.438561 
L 282.795901 270.993741 
L 282.581629 270.312401 
L 282.438781 270.870185 
L 282.224509 271.769764 
L 282.153085 271.735954 
L 282.010237 271.118481 
L 281.724541 269.554368 
L 281.653117 269.573728 
L 281.510269 270.180011 
L 281.010301 274.341576 
L 280.938877 274.259494 
L 280.653181 273.567497 
L 280.510333 274.11767 
L 280.153213 276.050268 
L 280.081789 275.878387 
L 279.653245 272.829462 
L 279.581821 272.868793 
L 279.367549 273.624737 
L 279.081853 274.442593 
L 278.939005 273.857585 
L 278.581885 271.828122 
L 278.153341 272.391534 
L 277.867645 273.739378 
L 277.724797 273.211279 
L 277.581949 272.527158 
L 277.510525 272.547955 
L 277.010557 274.339727 
L 276.796285 274.406588 
L 276.582013 273.83917 
L 276.082045 272.160988 
L 275.796349 270.750621 
L 275.653501 271.115381 
L 275.296381 273.619335 
L 275.010685 274.941593 
L 274.867837 274.836665 
L 274.653565 273.971481 
L 274.082173 269.694955 
L 274.010749 269.723682 
L 273.867901 270.367101 
L 273.439357 273.355658 
L 273.367933 273.262013 
L 273.010813 271.964824 
L 272.653693 272.855394 
L 272.582269 272.822423 
L 272.439421 272.433474 
L 272.153725 271.401904 
L 272.010877 271.625744 
L 271.725181 273.044108 
L 271.082365 276.41898 
L 270.939517 276.069907 
L 270.582397 274.174791 
L 270.153853 271.593025 
L 269.868157 270.818107 
L 269.725309 271.556981 
L 269.153917 275.464143 
L 269.011069 275.692494 
L 268.653949 274.982387 
L 268.511101 275.12042 
L 268.368253 274.705085 
L 267.939709 272.722791 
L 267.368317 270.333624 
L 267.225469 269.869431 
L 267.011197 269.251839 
L 266.796925 269.869711 
L 266.654077 269.275895 
L 266.368381 267.914719 
L 266.225533 268.195321 
L 265.939837 270.057772 
L 265.796989 270.539555 
L 265.654141 269.47999 
L 265.225597 264.848736 
L 265.154173 264.66597 
L 265.082749 264.711675 
L 264.939901 265.984981 
L 264.439933 273.487344 
L 264.368509 273.592671 
L 264.297085 273.512797 
L 264.154237 272.852573 
L 263.868541 271.331477 
L 263.725693 271.685406 
L 263.511421 272.354239 
L 263.439997 272.368635 
L 263.297149 272.06427 
L 263.082877 271.681162 
L 262.582909 272.999161 
L 262.368637 273.243944 
L 262.225789 272.647893 
L 261.511549 266.921349 
L 261.368701 267.701257 
L 261.083005 269.483848 
L 260.654461 269.258811 
L 260.083069 267.691837 
L 260.011645 267.700472 
L 259.868797 268.504942 
L 259.368829 274.92182 
L 259.297405 274.749539 
L 259.154557 273.471883 
L 258.726013 268.145238 
L 258.654589 268.161298 
L 258.154621 269.533824 
L 258.083197 269.500081 
L 257.940349 268.928446 
L 257.297533 263.817113 
L 256.940413 260.580473 
L 256.654717 259.912718 
L 256.297597 257.95102 
L 256.083325 255.564647 
L 255.297661 240.378101 
L 254.940541 228.365686 
L 254.369149 191.092056 
L 253.940605 151.929258 
L 253.226365 83.780915 
L 252.797821 61.862388 
L 252.583549 56.177251 
L 252.512125 55.866578 
L 252.369277 57.311087 
L 252.083581 64.732565 
L 251.726461 83.32146 
L 251.155069 124.127446 
L 250.226557 206.649217 
L 249.226621 255.710596 
L 249.012349 258.835882 
L 248.726653 260.446552 
L 248.226685 267.231969 
L 248.083837 267.305322 
L 247.869565 266.940523 
L 247.798141 267.124007 
L 247.655293 268.481937 
L 247.155325 275.784848 
L 247.083901 275.602708 
L 246.869629 272.49742 
L 246.441085 266.556842 
L 246.298237 266.204284 
L 246.226813 266.187931 
L 246.155389 266.030486 
L 245.941117 264.160743 
L 245.655421 262.511301 
L 245.369725 261.562439 
L 245.226877 262.167831 
L 244.655485 266.635412 
L 244.512637 267.220193 
L 244.369789 266.973388 
L 244.298365 267.075894 
L 244.012669 269.281989 
L 243.441277 273.201207 
L 243.369853 273.048658 
L 243.012733 271.583951 
L 242.869885 271.629922 
L 242.727037 272.200705 
L 242.369917 275.05614 
L 242.227069 273.942901 
L 241.869949 270.15638 
L 241.727101 270.637324 
L 241.512829 271.292638 
L 241.155709 271.749992 
L 241.084285 271.629257 
L 240.870013 270.897369 
L 240.798589 270.936647 
L 240.584317 272.322319 
L 240.370045 273.358346 
L 240.227197 273.362005 
L 240.084349 272.983913 
L 239.870077 271.041881 
L 239.655805 269.395419 
L 239.512957 270.403944 
L 239.012989 276.19333 
L 238.870141 276.9276 
L 238.798717 276.861072 
L 238.584445 275.156611 
L 238.298749 273.681499 
L 238.084477 273.431593 
L 237.798781 273.593735 
L 237.584509 273.785881 
L 237.513085 273.713086 
L 237.298813 272.675822 
L 237.155965 272.260621 
L 237.013117 272.618741 
L 236.513149 275.301509 
L 236.441725 275.177674 
L 236.227453 273.35776 
L 235.941757 271.268528 
L 235.584637 270.0124 
L 235.227517 268.317573 
L 235.156093 268.316708 
L 235.013245 268.693243 
L 234.798973 270.521233 
L 234.441853 274.043012 
L 234.299005 274.526924 
L 234.227581 274.466729 
L 234.084733 273.47803 
L 233.799037 270.778377 
L 233.727613 270.86493 
L 233.513341 272.973827 
L 233.299069 274.560254 
L 233.227645 274.609684 
L 233.084797 274.185449 
L 232.727677 272.476025 
L 232.584829 273.258447 
L 232.227709 276.076387 
L 232.156285 276.029392 
L 231.727741 275.245599 
L 231.584893 275.067969 
L 231.442045 274.289871 
L 231.013501 270.906629 
L 230.870653 271.175496 
L 230.513533 272.208423 
L 230.370685 272.172138 
L 230.156413 271.974018 
L 230.013565 272.797289 
L 229.656445 276.475635 
L 229.585021 276.321676 
L 228.942205 272.252664 
L 228.870781 272.305979 
L 228.370813 273.029378 
L 228.156541 273.074218 
L 227.942269 273.276423 
L 227.799421 272.80611 
L 227.585149 271.637918 
L 227.513725 271.67411 
L 227.299453 273.011575 
L 226.799485 276.590569 
L 226.728061 276.453934 
L 226.228093 273.405767 
L 225.799549 270.040728 
L 225.585277 270.220233 
L 225.442429 269.995595 
L 225.371005 270.046396 
L 225.013885 271.749113 
L 224.942461 271.454607 
L 224.728189 270.680594 
L 224.513917 270.713911 
L 224.371069 270.706779 
L 224.228221 271.404698 
L 223.871101 273.675179 
L 223.799677 273.539528 
L 223.442557 271.264151 
L 223.371133 271.390288 
L 223.156861 273.157298 
L 222.871165 275.381901 
L 222.799741 275.383711 
L 222.656893 274.449538 
L 222.085501 269.698095 
L 221.942653 269.816555 
L 221.728381 270.179026 
L 221.585533 271.4582 
L 221.299837 274.722675 
L 221.228413 274.783788 
L 220.442749 273.030097 
L 220.085629 270.633732 
L 219.942781 270.770154 
L 219.799933 271.200989 
L 219.371389 273.214166 
L 219.085693 272.674238 
L 218.799997 273.120056 
L 218.585725 272.691695 
L 218.514301 272.802145 
L 218.157181 274.823479 
L 217.871485 276.394245 
L 217.800061 276.261987 
L 217.585789 273.774745 
L 217.157245 269.269295 
L 217.014397 268.767408 
L 216.871549 270.002407 
L 216.514429 273.196683 
L 216.228733 274.840164 
L 216.085885 273.93545 
L 215.871613 272.379932 
L 215.800189 272.313231 
L 215.657341 272.795386 
L 215.371645 274.381174 
L 215.300221 274.305957 
L 215.157373 273.139309 
L 214.871677 270.681712 
L 214.800253 270.857239 
L 214.371709 274.122447 
L 214.300285 273.998585 
L 213.871741 271.911016 
L 213.800317 271.812554 
L 213.586045 270.415027 
L 213.371773 269.532813 
L 213.300349 269.592728 
L 213.157501 270.232501 
L 212.943229 273.123622 
L 212.728957 275.404454 
L 212.657533 275.279754 
L 212.157565 272.603546 
L 212.014717 272.638367 
L 211.800445 272.94542 
L 211.657597 272.591238 
L 211.086205 270.682443 
L 211.014781 270.867405 
L 210.371965 275.336423 
L 210.300541 275.212308 
L 210.086269 273.556865 
L 209.943421 272.703897 
L 209.871997 272.748484 
L 209.586301 273.623487 
L 209.229181 273.833728 
L 209.014909 273.395189 
L 208.943485 273.508539 
L 208.657789 274.862544 
L 208.586365 274.698965 
L 207.872125 270.065024 
L 207.586429 271.041695 
L 207.515005 270.994686 
L 207.229309 270.346424 
L 207.086461 270.844798 
L 206.657917 272.951447 
L 206.443645 273.532915 
L 206.157949 274.92379 
L 206.086525 274.896553 
L 205.872253 274.59397 
L 205.657981 274.90741 
L 205.515133 274.451547 
L 205.300861 273.639067 
L 205.158013 273.508007 
L 204.943741 272.575391 
L 204.800893 272.200532 
L 204.658045 272.634109 
L 204.515197 273.082348 
L 204.443773 273.004138 
L 204.086653 271.448926 
L 204.015229 271.542571 
L 203.658109 272.866358 
L 203.372413 273.739352 
L 203.158141 273.381511 
L 202.943869 272.826774 
L 202.658173 271.928366 
L 202.443901 271.990557 
L 202.301053 271.398191 
L 202.015357 269.912927 
L 201.943933 269.910439 
L 201.801085 270.551982 
L 201.301117 273.579379 
L 201.229693 273.655234 
L 201.086845 272.569204 
L 200.801149 269.69256 
L 200.658301 270.302768 
L 200.301181 273.329499 
L 200.015485 276.212623 
L 199.801213 276.586963 
L 199.729789 276.472921 
L 199.586941 275.527584 
L 199.086973 268.616443 
L 199.015549 268.703528 
L 198.872701 270.167211 
L 198.444157 276.676669 
L 198.372733 276.631444 
L 198.158461 274.604735 
L 197.729917 270.824055 
L 197.587069 271.655056 
L 197.087101 276.735081 
L 196.944253 275.751491 
L 196.658557 273.613561 
L 196.230013 273.572845 
L 196.015741 274.263845 
L 195.872893 273.742199 
L 195.515773 272.067623 
L 195.158653 270.439763 
L 195.087229 270.609143 
L 194.658685 272.620936 
L 194.587261 272.670313 
L 194.301565 273.752205 
L 194.230141 273.666224 
L 193.944445 272.263295 
L 193.801597 272.936612 
L 193.658749 273.587588 
L 193.587325 273.379209 
L 193.015933 269.164501 
L 192.944509 269.283373 
L 192.801661 271.159143 
L 192.515965 275.491446 
L 192.373117 273.981194 
L 192.087421 270.42337 
L 191.873149 270.180543 
L 191.730301 270.451059 
L 191.444605 271.501922 
L 191.230333 271.380096 
L 191.087485 271.954419 
L 190.444669 276.151284 
L 190.373245 276.265713 
L 190.301821 276.202165 
L 189.873277 275.320603 
L 189.587581 275.63037 
L 189.444733 275.181812 
L 189.087613 273.703373 
L 188.944765 274.153781 
L 188.730493 275.102417 
L 188.659069 275.001508 
L 188.444797 273.266564 
L 188.087677 270.681166 
L 188.016253 270.755478 
L 187.873405 271.945358 
L 187.587709 274.32251 
L 187.444861 273.724849 
L 187.016317 271.58294 
L 186.944893 271.568543 
L 186.802045 272.42396 
L 186.444925 275.088247 
L 186.302077 275.163796 
L 186.016381 275.055834 
L 185.516413 276.41234 
L 185.444989 276.326466 
L 185.302141 275.439701 
L 184.802173 271.171318 
L 184.659325 271.096886 
L 184.516477 271.76536 
L 184.230781 273.235242 
L 183.802237 271.918241 
L 183.730813 272.050738 
L 183.373693 273.241283 
L 183.230845 273.178574 
L 183.087997 273.217213 
L 182.945149 272.594804 
L 182.588029 269.919194 
L 182.373757 270.126043 
L 182.159485 269.642145 
L 182.016637 270.905911 
L 181.730941 273.717078 
L 181.373821 274.87066 
L 181.302397 274.624374 
L 180.659581 269.329916 
L 180.588157 269.382539 
L 180.302461 270.790392 
L 180.231037 270.697625 
L 179.945341 269.050977 
L 179.588221 267.085274 
L 179.445373 267.652945 
L 178.731133 272.290505 
L 178.445437 273.567084 
L 178.016893 276.264169 
L 177.802621 277.218181 
L 177.659773 277.204636 
L 177.445501 277.367922 
L 177.302653 275.992389 
L 176.802685 266.924356 
L 176.731261 267.143646 
L 176.516989 269.712705 
L 176.302717 271.830371 
L 176.231293 271.903245 
L 176.088445 271.70619 
L 176.017021 271.758813 
L 175.802749 272.830606 
L 175.588477 273.514088 
L 175.445629 272.952299 
L 175.231357 271.958317 
L 175.159933 271.95841 
L 175.017085 272.480975 
L 174.731389 273.884609 
L 174.659965 273.742066 
L 174.517117 272.502583 
L 174.231421 269.911371 
L 174.088573 270.913894 
L 173.660029 274.90918 
L 173.588605 275.08049 
L 173.517181 274.965622 
L 173.160061 273.003113 
L 173.088637 273.133361 
L 172.802941 274.625904 
L 172.731517 274.561478 
L 172.588669 273.962181 
L 172.160125 270.536494 
L 172.088701 270.758684 
L 171.517309 274.425495 
L 171.445885 274.4072 
L 171.303037 273.75758 
L 171.017341 272.165605 
L 170.874493 272.530019 
L 170.588797 273.520475 
L 170.445949 273.114734 
L 170.017405 271.3556 
L 169.945981 271.279825 
L 169.874557 271.438201 
L 169.517437 273.627718 
L 169.303165 272.779007 
L 169.160317 273.367607 
L 169.088893 273.696561 
L 169.017469 273.616049 
L 168.803197 270.983363 
L 168.660349 269.920245 
L 168.588925 269.936092 
L 168.303229 270.510429 
L 168.088957 272.989422 
L 167.946109 274.260825 
L 167.874685 274.105016 
L 167.374717 269.844031 
L 167.303293 269.855434 
L 167.089021 270.299521 
L 166.589053 271.608407 
L 166.231933 271.296656 
L 166.089085 271.904017 
L 165.660541 274.778439 
L 165.517693 275.05143 
L 165.446269 274.929325 
L 165.303421 273.900682 
L 164.874877 269.965019 
L 164.803453 269.907911 
L 164.660605 270.714497 
L 164.303485 274.211727 
L 164.232061 274.322283 
L 164.160637 274.2247 
L 164.017789 273.331721 
L 163.660669 269.751983 
L 163.589245 269.784941 
L 163.374973 271.064846 
L 162.589309 276.241656 
L 162.446461 276.269877 
L 162.303613 276.408721 
L 162.160765 275.798486 
L 161.732221 272.925954 
L 161.517949 272.196834 
L 161.375101 272.954042 
L 161.089405 275.292368 
L 160.803709 275.607072 
L 160.660861 275.888086 
L 160.518013 275.652564 
L 160.089469 274.001898 
L 159.732349 270.861204 
L 159.660925 270.970403 
L 159.160957 273.799387 
L 158.946685 274.96988 
L 158.875261 274.918906 
L 158.660989 274.341497 
L 158.518141 274.504716 
L 158.446717 274.433931 
L 158.303869 273.592072 
L 157.875325 270.400444 
L 157.732477 270.624338 
L 157.303933 272.066878 
L 157.232509 271.862224 
L 157.018237 269.811938 
L 156.732541 267.616248 
L 156.518269 267.394789 
L 156.446845 267.459188 
L 156.232573 268.426652 
L 155.875453 269.970674 
L 155.232637 271.218992 
L 155.161213 271.223862 
L 155.018365 270.765563 
L 154.375549 266.556324 
L 154.232701 267.328301 
L 153.875581 270.790671 
L 153.732733 270.077571 
L 153.518461 269.272901 
L 153.304189 268.827856 
L 153.232765 269.012098 
L 153.018493 271.516305 
L 152.804221 273.228696 
L 152.661373 271.87871 
L 152.375677 268.979673 
L 152.304253 269.135415 
L 152.089981 270.956951 
L 151.804285 273.766389 
L 151.732861 273.781371 
L 151.590013 272.339097 
L 151.304317 267.959173 
L 151.232893 267.889558 
L 151.018621 269.175371 
L 150.804349 271.653433 
L 150.590077 274.075318 
L 150.518653 274.06506 
L 149.590141 269.461655 
L 149.304445 268.989439 
L 149.233021 269.093435 
L 149.018749 269.551135 
L 148.875901 268.973379 
L 148.447357 266.038802 
L 148.304509 265.877632 
L 148.233085 265.973272 
L 148.090237 266.828263 
L 147.375997 272.870536 
L 147.304573 272.799524 
L 147.090301 272.156198 
L 146.733181 272.874621 
L 146.590333 273.108161 
L 146.233213 273.922956 
L 146.090365 274.386643 
L 145.876093 275.195463 
L 145.661821 275.124638 
L 145.518973 275.324528 
L 145.447549 275.108405 
L 145.090429 271.534853 
L 145.019005 271.603098 
L 144.519037 273.581747 
L 144.447613 273.580243 
L 144.304765 272.614696 
L 144.019069 270.372516 
L 143.876221 271.262448 
L 143.447677 275.358457 
L 143.304829 275.434459 
L 143.090557 275.246371 
L 142.876285 274.221148 
L 142.519165 272.596135 
L 142.304893 272.464077 
L 142.162045 272.730428 
L 141.733501 274.135326 
L 141.519229 274.671675 
L 141.162109 276.076387 
L 141.019261 275.610638 
L 140.519293 271.974124 
L 140.447869 272.049474 
L 140.090749 274.16388 
L 140.019325 274.064833 
L 139.876477 273.430476 
L 139.447933 270.007943 
L 139.305085 270.964921 
L 138.947965 273.922078 
L 138.805117 273.247164 
L 138.519421 270.818826 
L 138.447997 270.979611 
L 137.948029 273.993475 
L 137.805181 273.781025 
L 137.590909 273.02854 
L 136.948093 269.465047 
L 136.876669 269.52785 
L 136.733821 270.647782 
L 136.448125 273.768172 
L 136.233853 273.088335 
L 136.162429 273.205664 
L 136.019581 273.543041 
L 135.876733 272.533226 
L 135.591037 269.285728 
L 135.519613 269.222287 
L 135.376765 269.696671 
L 135.162493 272.153098 
L 135.019645 273.774492 
L 134.948221 273.730863 
L 134.805373 271.662042 
L 134.519677 266.451329 
L 134.448253 266.194771 
L 134.376829 266.350792 
L 134.233981 267.505026 
L 133.805437 272.410827 
L 133.734013 272.48136 
L 133.591165 272.047159 
L 132.876925 268.045406 
L 132.591229 267.100123 
L 132.305533 267.502711 
L 132.162685 267.795873 
L 131.948413 268.315231 
L 131.805565 267.585019 
L 131.448445 264.538609 
L 131.305597 264.588785 
L 131.162749 264.032265 
L 130.734205 261.742357 
L 130.662781 261.583475 
L 130.591357 261.653609 
L 130.448509 262.774167 
L 130.162813 266.325817 
L 130.091389 266.288269 
L 129.662845 263.877201 
L 129.591421 263.99465 
L 129.448573 265.404232 
L 129.020029 271.194376 
L 128.877181 271.521614 
L 128.591485 272.660015 
L 128.377213 272.642185 
L 128.162941 272.762188 
L 128.020093 272.007269 
L 127.662973 269.456252 
L 127.591549 269.515156 
L 127.448701 270.172599 
L 126.948733 273.566406 
L 126.877309 273.463034 
L 126.163069 269.181638 
L 126.020221 268.251617 
L 125.948797 268.478983 
L 125.377405 273.979611 
L 125.234557 272.802731 
L 124.948861 269.663727 
L 124.877437 269.78039 
L 124.591741 272.290106 
L 124.377469 273.446189 
L 124.306045 273.441932 
L 124.163197 272.869698 
L 123.877501 271.526803 
L 123.091837 274.795856 
L 122.948989 273.83941 
L 122.734717 272.281258 
L 122.663293 272.290292 
L 122.591869 272.056486 
L 122.306173 269.173761 
L 122.234749 269.209899 
L 121.877629 270.432418 
L 121.449085 272.857576 
L 121.234813 271.630494 
L 120.949117 270.373022 
L 120.877693 270.461783 
L 120.591997 271.356066 
L 120.449149 270.777286 
L 120.092029 267.98754 
L 120.020605 268.024463 
L 119.734909 269.148361 
L 119.449213 270.363402 
L 119.234941 269.32941 
L 119.163517 269.418904 
L 118.734973 272.205256 
L 118.592125 271.460116 
L 117.806461 265.744522 
L 117.735037 265.686204 
L 117.592189 266.47661 
L 117.306493 271.362839 
L 117.020797 274.76033 
L 116.949373 274.661456 
L 116.735101 271.672593 
L 116.520829 270.207234 
L 116.306557 270.518625 
L 115.878013 270.232887 
L 115.663741 269.922827 
L 115.378045 270.70976 
L 115.306621 270.544903 
L 115.092349 268.900903 
L 114.878077 267.319094 
L 114.806653 267.342192 
L 114.592381 267.703572 
L 114.449533 267.8246 
L 114.306685 268.140209 
L 114.163837 267.656151 
L 114.020989 267.107255 
L 113.949565 267.246086 
L 113.592445 269.386199 
L 113.521021 269.127232 
L 113.306749 268.012276 
L 113.163901 268.142484 
L 113.021053 268.545418 
L 112.806781 270.231809 
L 112.378237 273.957045 
L 112.235389 273.29259 
L 111.878269 269.685388 
L 111.663997 267.990893 
L 111.521149 268.784266 
L 111.021181 273.000798 
L 110.878333 273.094256 
L 110.664061 272.943517 
L 110.521213 272.215967 
L 110.092669 269.429681 
L 109.878397 269.797142 
L 109.521277 270.903636 
L 109.449853 270.821713 
L 109.235581 270.086619 
L 108.735613 266.900739 
L 108.664189 266.910811 
L 108.449917 267.210493 
L 108.307069 266.512295 
L 107.664253 259.396673 
L 107.592829 259.418588 
L 106.878589 263.50648 
L 106.807165 263.840305 
L 106.735741 263.810048 
L 106.592893 263.429042 
L 106.450045 264.365091 
L 106.235773 266.058508 
L 106.021501 266.544575 
L 105.807229 267.478242 
L 105.735805 267.462195 
L 105.450109 266.616571 
L 104.878717 268.566467 
L 104.735869 269.566596 
L 104.664445 269.556005 
L 104.450173 267.948249 
L 104.378749 268.211274 
L 104.021629 270.857412 
L 103.807357 270.650217 
L 103.735933 270.767134 
L 103.593085 271.043251 
L 103.450237 270.592364 
L 103.378813 270.656937 
L 103.093117 272.924397 
L 103.021693 272.634814 
L 102.593149 269.354425 
L 102.307453 270.710558 
L 102.164605 270.097037 
L 101.807485 268.433571 
L 101.664637 268.13192 
L 101.593213 268.496413 
L 101.378941 272.463544 
L 101.164669 274.512314 
L 100.807549 272.915961 
L 100.521853 269.740048 
L 100.450429 269.803063 
L 100.379005 270.005933 
L 100.307581 269.942412 
L 100.164733 268.467181 
L 99.950461 266.319683 
L 99.879037 266.489343 
L 99.593341 268.829545 
L 99.307645 273.644456 
L 99.236221 273.612935 
L 98.521981 268.466476 
L 98.450557 268.486088 
L 97.950589 270.370494 
L 97.807741 270.736065 
L 97.736317 270.786985 
L 97.522045 271.834908 
L 97.022077 274.342854 
L 96.950653 274.294701 
L 96.736381 273.641077 
L 96.593533 274.221933 
L 96.450685 274.735196 
L 96.307837 273.844107 
L 95.807869 269.552146 
L 95.665021 269.081181 
L 95.522173 269.054636 
L 95.236477 268.557872 
L 95.093629 268.762073 
L 94.950781 270.023044 
L 94.736509 272.01927 
L 94.593661 271.380495 
L 94.307965 270.409373 
L 94.093693 270.270129 
L 93.807997 270.893643 
L 93.593725 269.140072 
L 93.379453 268.092828 
L 93.165181 267.877423 
L 93.093757 267.934651 
L 92.950909 269.030912 
L 92.593789 273.111381 
L 92.308093 275.106848 
L 92.236669 274.98622 
L 92.093821 273.373341 
L 91.736701 267.821739 
L 91.665277 267.566259 
L 91.593853 267.619175 
L 91.451005 268.985208 
L 91.022461 274.700854 
L 90.951037 274.605653 
L 90.808189 273.726232 
L 90.308221 269.517831 
L 90.165373 269.077961 
L 90.093949 269.176768 
L 89.593981 272.487228 
L 89.379709 273.061777 
L 89.236861 271.719748 
L 88.951165 267.662817 
L 88.736893 265.970438 
L 88.522621 264.601305 
L 88.379773 265.67045 
L 88.022653 268.309044 
L 87.736957 269.168053 
L 87.665533 269.180401 
L 87.522685 268.287795 
L 87.236989 265.395969 
L 87.165565 265.468844 
L 86.808445 267.115638 
L 86.737021 267.122517 
L 86.594173 267.539341 
L 86.522749 267.772668 
L 86.451325 267.61988 
L 86.237053 264.128012 
L 86.022781 261.846154 
L 85.951357 261.820155 
L 85.665661 262.316694 
L 85.522813 264.168234 
L 85.308541 267.758578 
L 85.237117 267.589091 
L 84.808573 261.721295 
L 84.451453 258.045609 
L 84.308605 258.097594 
L 84.237181 258.098912 
L 84.094333 257.420379 
L 83.594365 252.680233 
L 83.522941 252.668191 
L 83.308669 253.032844 
L 83.237245 252.917205 
L 83.094397 251.973319 
L 82.594429 246.31977 
L 82.523005 246.477189 
L 82.165885 248.329301 
L 81.951613 248.166774 
L 81.808765 248.719036 
L 81.594493 250.721302 
L 81.094525 256.531286 
L 80.737405 255.458242 
L 80.665981 255.529707 
L 80.523133 256.014949 
L 79.951741 259.295391 
L 79.808893 259.145863 
L 79.666045 259.445132 
L 79.451773 259.788231 
L 79.380349 259.84277 
L 79.237501 260.432248 
L 79.023229 262.271428 
L 78.451837 268.834934 
L 78.380413 268.990304 
L 78.308989 268.80815 
L 78.023293 266.542007 
L 77.951869 266.733062 
L 77.666173 270.248814 
L 77.237629 274.572535 
L 77.094781 273.795368 
L 76.094845 266.412144 
L 76.023421 266.467549 
L 75.880573 267.259631 
L 75.166333 274.683091 
L 75.094909 274.741703 
L 74.952061 273.295277 
L 74.666365 270.113496 
L 74.452093 270.343989 
L 74.237821 269.349808 
L 73.737853 267.183736 
L 73.380733 269.228993 
L 73.309309 269.078493 
L 73.095037 267.111566 
L 72.595069 261.314356 
L 72.452221 261.601212 
L 72.309373 262.509878 
L 71.880829 267.64085 
L 71.737981 267.264527 
L 71.523709 266.77371 
L 71.452285 266.742336 
L 71.309437 266.226983 
L 71.095165 265.310361 
L 70.952317 265.419027 
L 70.809469 265.488163 
L 70.523773 264.684399 
L 70.238077 265.640752 
L 70.095229 265.466076 
L 69.952381 266.233783 
L 69.595261 268.670331 
L 69.523837 268.600889 
L 69.238141 266.660746 
L 69.166717 266.733701 
L 69.023869 268.45933 
L 68.809597 271.582288 
L 68.738173 271.573546 
L 68.523901 269.883908 
L 68.095357 265.104696 
L 68.023933 265.415102 
L 67.452541 272.102736 
L 67.238269 271.966527 
L 67.095421 270.907481 
L 66.881149 269.426142 
L 66.666877 271.110964 
L 66.381181 272.615175 
L 66.309757 272.413994 
L 66.095485 269.952684 
L 65.809789 267.081682 
L 65.595517 266.083403 
L 65.524093 266.1936 
L 65.238397 267.85986 
L 65.166973 267.785508 
L 64.952701 267.189311 
L 64.738429 267.539275 
L 64.381309 266.005658 
L 64.238461 266.504392 
L 63.667069 271.148392 
L 63.595645 271.128381 
L 63.238525 269.622879 
L 63.167101 269.815903 
L 62.881405 271.531168 
L 62.667133 270.009845 
L 62.524285 269.557561 
L 62.310013 269.500108 
L 62.167165 269.918023 
L 61.381501 274.515028 
L 61.310077 274.80863 
L 61.238653 274.737578 
L 60.524413 271.03725 
L 60.452989 271.171078 
L 59.810173 274.75562 
L 59.738749 274.473156 
L 59.310205 271.374987 
L 59.167357 271.337358 
L 59.024509 271.869436 
L 58.810237 272.747286 
L 58.667389 272.041584 
L 58.453117 270.93183 
L 58.167421 270.755983 
L 58.095997 270.877144 
L 57.881725 271.920356 
L 57.810301 271.6981 
L 57.524605 269.271158 
L 57.381757 269.900566 
L 57.167485 271.919385 
L 56.881789 275.202941 
L 56.810365 275.246158 
L 56.310397 273.265859 
L 56.167549 273.259099 
L 56.024701 273.619388 
L 55.953277 273.48093 
L 55.739005 270.818387 
L 55.524733 269.104679 
L 55.239037 268.548225 
L 55.096189 269.271863 
L 54.739069 271.223862 
L 54.667645 271.31712 
L 54.524797 270.881269 
L 54.310525 269.995688 
L 54.239101 270.043721 
L 54.096253 271.073708 
L 53.739133 274.733267 
L 53.596285 275.130053 
L 53.524861 275.04036 
L 53.382013 274.213869 
L 53.096317 272.17919 
L 53.024893 272.228967 
L 52.667773 273.348247 
L 52.310653 274.827018 
L 52.167805 274.372565 
L 51.953533 273.853594 
L 51.810685 273.667941 
L 51.667837 273.522936 
L 51.524989 273.681738 
L 51.382141 273.198892 
L 51.025021 271.410007 
L 50.953597 271.475564 
L 50.310781 275.000137 
L 50.239357 274.938319 
L 50.096509 274.695093 
L 49.882237 273.662272 
L 49.810813 273.747002 
L 49.596541 274.6884 
L 49.382269 273.746696 
L 48.882301 271.166022 
L 48.810877 271.307367 
L 48.668029 272.774935 
L 48.453757 274.945425 
L 48.310909 274.949376 
L 48.168061 274.482563 
L 47.882365 273.299216 
L 47.810941 273.240937 
L 47.525245 272.154069 
L 47.453821 272.317728 
L 47.168125 273.349817 
L 46.882429 273.641875 
L 46.811005 273.464152 
L 46.668157 271.896034 
L 46.382461 268.207642 
L 46.168189 268.711165 
L 45.953917 268.046444 
L 45.882493 268.132478 
L 45.311101 270.345093 
L 45.096829 271.257352 
L 44.882557 270.224358 
L 44.454013 268.387041 
L 44.239741 268.972048 
L 43.954045 270.130474 
L 43.954045 270.130474 
" clip-path="url(#p2b108a8941)" style="fill: none; stroke: #4c72b0; stroke-linecap: round"/>
   </g>
   <g id="patch_3">
    <path d="M 44.025469 277.248797 
L 44.025469 11.136797 
" style="fill: none; stroke: #262626; stroke-width: 1.25; stroke-linejoin: miter; stroke-linecap: square"/>
   </g>
   <g id="patch_4">
    <path d="M 44.025469 277.248797 
L 401.145469 277.248797 
" style="fill: none; stroke: #262626; stroke-width: 1.25; stroke-linejoin: miter; stroke-linecap: square"/>
   </g>
   <g id="legend_1"/>
  </g>
 </g>
 <defs>
  <clipPath id="p2b108a8941">
   <rect x="44.025469" y="11.136797" width="357.12" height="266.112"/>
  </clipPath>
 </defs>
</svg>
