<?xml version="1.0" encoding="utf-8" standalone="no"?>
<!DOCTYPE svg PUBLIC "-//W3C//DTD SVG 1.1//EN"
  "http://www.w3.org/Graphics/SVG/1.1/DTD/svg11.dtd">
<svg xmlns:xlink="http://www.w3.org/1999/xlink" width="402.228437pt" height="319.168641pt" viewBox="0 0 402.228437 319.168641" xmlns="http://www.w3.org/2000/svg" version="1.1">
 <metadata>
  <rdf:RDF xmlns:dc="http://purl.org/dc/elements/1.1/" xmlns:cc="http://creativecommons.org/ns#" xmlns:rdf="http://www.w3.org/1999/02/22-rdf-syntax-ns#">
   <cc:Work>
    <dc:type rdf:resource="http://purl.org/dc/dcmitype/StillImage"/>
    <dc:date>2024-05-21T21:53:49.605613</dc:date>
    <dc:format>image/svg+xml</dc:format>
    <dc:creator>
     <cc:Agent>
      <dc:title>Matplotlib v3.7.1, https://matplotlib.org/</dc:title>
     </cc:Agent>
    </dc:creator>
   </cc:Work>
  </rdf:RDF>
 </metadata>
 <defs>
  <style type="text/css">*{stroke-linejoin: round; stroke-linecap: butt}</style>
 </defs>
 <g id="figure_1">
  <g id="patch_1">
   <path d="M 0 319.168641 
L 402.228437 319.168641 
L 402.228437 0 
L 0 0 
z
" style="fill: #ffffff"/>
  </g>
  <g id="axes_1">
   <g id="patch_2">
    <path d="M 37.908438 277.248797 
L 395.028438 277.248797 
L 395.028438 11.136797 
L 37.908438 11.136797 
z
" style="fill: #ffffff"/>
   </g>
   <g id="matplotlib.axis_1">
    <g id="xtick_1">
     <g id="line2d_1">
      <defs>
       <path id="mbbbd903b39" d="M 0 0 
L 0 -6 
" style="stroke: #262626; stroke-width: 1.25"/>
      </defs>
      <g>
       <use xlink:href="#mbbbd903b39" x="371.220438" y="277.248797" style="fill: #262626; stroke: #262626; stroke-width: 1.25"/>
      </g>
     </g>
     <g id="text_1">
      <!-- 600 -->
      <g style="fill: #262626" transform="translate(362.044891 288.622391) scale(0.11 -0.11)">
       <defs>
        <path id="ArialMT-36" d="M 3184 3459 
L 2625 3416 
Q 2550 3747 2413 3897 
Q 2184 4138 1850 4138 
Q 1581 4138 1378 3988 
Q 1113 3794 959 3422 
Q 806 3050 800 2363 
Q 1003 2672 1297 2822 
Q 1591 2972 1913 2972 
Q 2475 2972 2870 2558 
Q 3266 2144 3266 1488 
Q 3266 1056 3080 686 
Q 2894 316 2569 119 
Q 2244 -78 1831 -78 
Q 1128 -78 684 439 
Q 241 956 241 2144 
Q 241 3472 731 4075 
Q 1159 4600 1884 4600 
Q 2425 4600 2770 4297 
Q 3116 3994 3184 3459 
z
M 888 1484 
Q 888 1194 1011 928 
Q 1134 663 1356 523 
Q 1578 384 1822 384 
Q 2178 384 2434 671 
Q 2691 959 2691 1453 
Q 2691 1928 2437 2201 
Q 2184 2475 1800 2475 
Q 1419 2475 1153 2201 
Q 888 1928 888 1484 
z
" transform="scale(0.015625)"/>
        <path id="ArialMT-30" d="M 266 2259 
Q 266 3072 433 3567 
Q 600 4063 929 4331 
Q 1259 4600 1759 4600 
Q 2128 4600 2406 4451 
Q 2684 4303 2865 4023 
Q 3047 3744 3150 3342 
Q 3253 2941 3253 2259 
Q 3253 1453 3087 958 
Q 2922 463 2592 192 
Q 2263 -78 1759 -78 
Q 1097 -78 719 397 
Q 266 969 266 2259 
z
M 844 2259 
Q 844 1131 1108 757 
Q 1372 384 1759 384 
Q 2147 384 2411 759 
Q 2675 1134 2675 2259 
Q 2675 3391 2411 3762 
Q 2147 4134 1753 4134 
Q 1366 4134 1134 3806 
Q 844 3388 844 2259 
z
" transform="scale(0.015625)"/>
       </defs>
       <use xlink:href="#ArialMT-36"/>
       <use xlink:href="#ArialMT-30" x="55.615234"/>
       <use xlink:href="#ArialMT-30" x="111.230469"/>
      </g>
     </g>
    </g>
    <g id="xtick_2">
     <g id="line2d_2">
      <g>
       <use xlink:href="#mbbbd903b39" x="323.604438" y="277.248797" style="fill: #262626; stroke: #262626; stroke-width: 1.25"/>
      </g>
     </g>
     <g id="text_2">
      <!-- 800 -->
      <g style="fill: #262626" transform="translate(314.428891 288.622391) scale(0.11 -0.11)">
       <defs>
        <path id="ArialMT-38" d="M 1131 2484 
Q 781 2613 612 2850 
Q 444 3088 444 3419 
Q 444 3919 803 4259 
Q 1163 4600 1759 4600 
Q 2359 4600 2725 4251 
Q 3091 3903 3091 3403 
Q 3091 3084 2923 2848 
Q 2756 2613 2416 2484 
Q 2838 2347 3058 2040 
Q 3278 1734 3278 1309 
Q 3278 722 2862 322 
Q 2447 -78 1769 -78 
Q 1091 -78 675 323 
Q 259 725 259 1325 
Q 259 1772 486 2073 
Q 713 2375 1131 2484 
z
M 1019 3438 
Q 1019 3113 1228 2906 
Q 1438 2700 1772 2700 
Q 2097 2700 2305 2904 
Q 2513 3109 2513 3406 
Q 2513 3716 2298 3927 
Q 2084 4138 1766 4138 
Q 1444 4138 1231 3931 
Q 1019 3725 1019 3438 
z
M 838 1322 
Q 838 1081 952 856 
Q 1066 631 1291 507 
Q 1516 384 1775 384 
Q 2178 384 2440 643 
Q 2703 903 2703 1303 
Q 2703 1709 2433 1975 
Q 2163 2241 1756 2241 
Q 1359 2241 1098 1978 
Q 838 1716 838 1322 
z
" transform="scale(0.015625)"/>
       </defs>
       <use xlink:href="#ArialMT-38"/>
       <use xlink:href="#ArialMT-30" x="55.615234"/>
       <use xlink:href="#ArialMT-30" x="111.230469"/>
      </g>
     </g>
    </g>
    <g id="xtick_3">
     <g id="line2d_3">
      <g>
       <use xlink:href="#mbbbd903b39" x="275.988438" y="277.248797" style="fill: #262626; stroke: #262626; stroke-width: 1.25"/>
      </g>
     </g>
     <g id="text_3">
      <!-- 1000 -->
      <g style="fill: #262626" transform="translate(263.754375 288.622391) scale(0.11 -0.11)">
       <defs>
        <path id="ArialMT-31" d="M 2384 0 
L 1822 0 
L 1822 3584 
Q 1619 3391 1289 3197 
Q 959 3003 697 2906 
L 697 3450 
Q 1169 3672 1522 3987 
Q 1875 4303 2022 4600 
L 2384 4600 
L 2384 0 
z
" transform="scale(0.015625)"/>
       </defs>
       <use xlink:href="#ArialMT-31"/>
       <use xlink:href="#ArialMT-30" x="55.615234"/>
       <use xlink:href="#ArialMT-30" x="111.230469"/>
       <use xlink:href="#ArialMT-30" x="166.845703"/>
      </g>
     </g>
    </g>
    <g id="xtick_4">
     <g id="line2d_4">
      <g>
       <use xlink:href="#mbbbd903b39" x="228.372438" y="277.248797" style="fill: #262626; stroke: #262626; stroke-width: 1.25"/>
      </g>
     </g>
     <g id="text_4">
      <!-- 1200 -->
      <g style="fill: #262626" transform="translate(216.138375 288.622391) scale(0.11 -0.11)">
       <defs>
        <path id="ArialMT-32" d="M 3222 541 
L 3222 0 
L 194 0 
Q 188 203 259 391 
Q 375 700 629 1000 
Q 884 1300 1366 1694 
Q 2113 2306 2375 2664 
Q 2638 3022 2638 3341 
Q 2638 3675 2398 3904 
Q 2159 4134 1775 4134 
Q 1369 4134 1125 3890 
Q 881 3647 878 3216 
L 300 3275 
Q 359 3922 746 4261 
Q 1134 4600 1788 4600 
Q 2447 4600 2831 4234 
Q 3216 3869 3216 3328 
Q 3216 3053 3103 2787 
Q 2991 2522 2730 2228 
Q 2469 1934 1863 1422 
Q 1356 997 1212 845 
Q 1069 694 975 541 
L 3222 541 
z
" transform="scale(0.015625)"/>
       </defs>
       <use xlink:href="#ArialMT-31"/>
       <use xlink:href="#ArialMT-32" x="55.615234"/>
       <use xlink:href="#ArialMT-30" x="111.230469"/>
       <use xlink:href="#ArialMT-30" x="166.845703"/>
      </g>
     </g>
    </g>
    <g id="xtick_5">
     <g id="line2d_5">
      <g>
       <use xlink:href="#mbbbd903b39" x="180.756438" y="277.248797" style="fill: #262626; stroke: #262626; stroke-width: 1.25"/>
      </g>
     </g>
     <g id="text_5">
      <!-- 1400 -->
      <g style="fill: #262626" transform="translate(168.522375 288.622391) scale(0.11 -0.11)">
       <defs>
        <path id="ArialMT-34" d="M 2069 0 
L 2069 1097 
L 81 1097 
L 81 1613 
L 2172 4581 
L 2631 4581 
L 2631 1613 
L 3250 1613 
L 3250 1097 
L 2631 1097 
L 2631 0 
L 2069 0 
z
M 2069 1613 
L 2069 3678 
L 634 1613 
L 2069 1613 
z
" transform="scale(0.015625)"/>
       </defs>
       <use xlink:href="#ArialMT-31"/>
       <use xlink:href="#ArialMT-34" x="55.615234"/>
       <use xlink:href="#ArialMT-30" x="111.230469"/>
       <use xlink:href="#ArialMT-30" x="166.845703"/>
      </g>
     </g>
    </g>
    <g id="xtick_6">
     <g id="line2d_6">
      <g>
       <use xlink:href="#mbbbd903b39" x="133.140438" y="277.248797" style="fill: #262626; stroke: #262626; stroke-width: 1.25"/>
      </g>
     </g>
     <g id="text_6">
      <!-- 1600 -->
      <g style="fill: #262626" transform="translate(120.906375 288.622391) scale(0.11 -0.11)">
       <use xlink:href="#ArialMT-31"/>
       <use xlink:href="#ArialMT-36" x="55.615234"/>
       <use xlink:href="#ArialMT-30" x="111.230469"/>
       <use xlink:href="#ArialMT-30" x="166.845703"/>
      </g>
     </g>
    </g>
    <g id="xtick_7">
     <g id="line2d_7">
      <g>
       <use xlink:href="#mbbbd903b39" x="85.524437" y="277.248797" style="fill: #262626; stroke: #262626; stroke-width: 1.25"/>
      </g>
     </g>
     <g id="text_7">
      <!-- 1800 -->
      <g style="fill: #262626" transform="translate(73.290375 288.622391) scale(0.11 -0.11)">
       <use xlink:href="#ArialMT-31"/>
       <use xlink:href="#ArialMT-38" x="55.615234"/>
       <use xlink:href="#ArialMT-30" x="111.230469"/>
       <use xlink:href="#ArialMT-30" x="166.845703"/>
      </g>
     </g>
    </g>
    <g id="xtick_8">
     <g id="line2d_8">
      <g>
       <use xlink:href="#mbbbd903b39" x="37.908437" y="277.248797" style="fill: #262626; stroke: #262626; stroke-width: 1.25"/>
      </g>
     </g>
     <g id="text_8">
      <!-- 2000 -->
      <g style="fill: #262626" transform="translate(25.674375 288.622391) scale(0.11 -0.11)">
       <use xlink:href="#ArialMT-32"/>
       <use xlink:href="#ArialMT-30" x="55.615234"/>
       <use xlink:href="#ArialMT-30" x="111.230469"/>
       <use xlink:href="#ArialMT-30" x="166.845703"/>
      </g>
     </g>
    </g>
    <g id="xtick_9">
     <g id="line2d_9">
      <defs>
       <path id="m2506dffb56" d="M 0 0 
L 0 -4 
" style="stroke: #262626"/>
      </defs>
      <g>
       <use xlink:href="#m2506dffb56" x="347.412438" y="277.248797" style="fill: #262626; stroke: #262626"/>
      </g>
     </g>
    </g>
    <g id="xtick_10">
     <g id="line2d_10">
      <g>
       <use xlink:href="#m2506dffb56" x="299.796438" y="277.248797" style="fill: #262626; stroke: #262626"/>
      </g>
     </g>
    </g>
    <g id="xtick_11">
     <g id="line2d_11">
      <g>
       <use xlink:href="#m2506dffb56" x="252.180438" y="277.248797" style="fill: #262626; stroke: #262626"/>
      </g>
     </g>
    </g>
    <g id="xtick_12">
     <g id="line2d_12">
      <g>
       <use xlink:href="#m2506dffb56" x="204.564437" y="277.248797" style="fill: #262626; stroke: #262626"/>
      </g>
     </g>
    </g>
    <g id="xtick_13">
     <g id="line2d_13">
      <g>
       <use xlink:href="#m2506dffb56" x="156.948438" y="277.248797" style="fill: #262626; stroke: #262626"/>
      </g>
     </g>
    </g>
    <g id="xtick_14">
     <g id="line2d_14">
      <g>
       <use xlink:href="#m2506dffb56" x="109.332438" y="277.248797" style="fill: #262626; stroke: #262626"/>
      </g>
     </g>
    </g>
    <g id="xtick_15">
     <g id="line2d_15">
      <g>
       <use xlink:href="#m2506dffb56" x="61.716437" y="277.248797" style="fill: #262626; stroke: #262626"/>
      </g>
     </g>
    </g>
    <g id="text_9">
     <!-- Wavenumber ($\mathregular{cm^{-1}}$) -->
     <g style="fill: #262626" transform="translate(161.928438 309.328641) scale(0.12 -0.12)">
      <defs>
       <path id="ArialMT-57" d="M 1294 0 
L 78 4581 
L 700 4581 
L 1397 1578 
Q 1509 1106 1591 641 
Q 1766 1375 1797 1488 
L 2669 4581 
L 3400 4581 
L 4056 2263 
Q 4303 1400 4413 641 
Q 4500 1075 4641 1638 
L 5359 4581 
L 5969 4581 
L 4713 0 
L 4128 0 
L 3163 3491 
Q 3041 3928 3019 4028 
Q 2947 3713 2884 3491 
L 1913 0 
L 1294 0 
z
" transform="scale(0.015625)"/>
       <path id="ArialMT-61" d="M 2588 409 
Q 2275 144 1986 34 
Q 1697 -75 1366 -75 
Q 819 -75 525 192 
Q 231 459 231 875 
Q 231 1119 342 1320 
Q 453 1522 633 1644 
Q 813 1766 1038 1828 
Q 1203 1872 1538 1913 
Q 2219 1994 2541 2106 
Q 2544 2222 2544 2253 
Q 2544 2597 2384 2738 
Q 2169 2928 1744 2928 
Q 1347 2928 1158 2789 
Q 969 2650 878 2297 
L 328 2372 
Q 403 2725 575 2942 
Q 747 3159 1072 3276 
Q 1397 3394 1825 3394 
Q 2250 3394 2515 3294 
Q 2781 3194 2906 3042 
Q 3031 2891 3081 2659 
Q 3109 2516 3109 2141 
L 3109 1391 
Q 3109 606 3145 398 
Q 3181 191 3288 0 
L 2700 0 
Q 2613 175 2588 409 
z
M 2541 1666 
Q 2234 1541 1622 1453 
Q 1275 1403 1131 1340 
Q 988 1278 909 1158 
Q 831 1038 831 891 
Q 831 666 1001 516 
Q 1172 366 1500 366 
Q 1825 366 2078 508 
Q 2331 650 2450 897 
Q 2541 1088 2541 1459 
L 2541 1666 
z
" transform="scale(0.015625)"/>
       <path id="ArialMT-76" d="M 1344 0 
L 81 3319 
L 675 3319 
L 1388 1331 
Q 1503 1009 1600 663 
Q 1675 925 1809 1294 
L 2547 3319 
L 3125 3319 
L 1869 0 
L 1344 0 
z
" transform="scale(0.015625)"/>
       <path id="ArialMT-65" d="M 2694 1069 
L 3275 997 
Q 3138 488 2766 206 
Q 2394 -75 1816 -75 
Q 1088 -75 661 373 
Q 234 822 234 1631 
Q 234 2469 665 2931 
Q 1097 3394 1784 3394 
Q 2450 3394 2872 2941 
Q 3294 2488 3294 1666 
Q 3294 1616 3291 1516 
L 816 1516 
Q 847 969 1125 678 
Q 1403 388 1819 388 
Q 2128 388 2347 550 
Q 2566 713 2694 1069 
z
M 847 1978 
L 2700 1978 
Q 2663 2397 2488 2606 
Q 2219 2931 1791 2931 
Q 1403 2931 1139 2672 
Q 875 2413 847 1978 
z
" transform="scale(0.015625)"/>
       <path id="ArialMT-6e" d="M 422 0 
L 422 3319 
L 928 3319 
L 928 2847 
Q 1294 3394 1984 3394 
Q 2284 3394 2536 3286 
Q 2788 3178 2913 3003 
Q 3038 2828 3088 2588 
Q 3119 2431 3119 2041 
L 3119 0 
L 2556 0 
L 2556 2019 
Q 2556 2363 2490 2533 
Q 2425 2703 2258 2804 
Q 2091 2906 1866 2906 
Q 1506 2906 1245 2678 
Q 984 2450 984 1813 
L 984 0 
L 422 0 
z
" transform="scale(0.015625)"/>
       <path id="ArialMT-75" d="M 2597 0 
L 2597 488 
Q 2209 -75 1544 -75 
Q 1250 -75 995 37 
Q 741 150 617 320 
Q 494 491 444 738 
Q 409 903 409 1263 
L 409 3319 
L 972 3319 
L 972 1478 
Q 972 1038 1006 884 
Q 1059 663 1231 536 
Q 1403 409 1656 409 
Q 1909 409 2131 539 
Q 2353 669 2445 892 
Q 2538 1116 2538 1541 
L 2538 3319 
L 3100 3319 
L 3100 0 
L 2597 0 
z
" transform="scale(0.015625)"/>
       <path id="ArialMT-6d" d="M 422 0 
L 422 3319 
L 925 3319 
L 925 2853 
Q 1081 3097 1340 3245 
Q 1600 3394 1931 3394 
Q 2300 3394 2536 3241 
Q 2772 3088 2869 2813 
Q 3263 3394 3894 3394 
Q 4388 3394 4653 3120 
Q 4919 2847 4919 2278 
L 4919 0 
L 4359 0 
L 4359 2091 
Q 4359 2428 4304 2576 
Q 4250 2725 4106 2815 
Q 3963 2906 3769 2906 
Q 3419 2906 3187 2673 
Q 2956 2441 2956 1928 
L 2956 0 
L 2394 0 
L 2394 2156 
Q 2394 2531 2256 2718 
Q 2119 2906 1806 2906 
Q 1569 2906 1367 2781 
Q 1166 2656 1075 2415 
Q 984 2175 984 1722 
L 984 0 
L 422 0 
z
" transform="scale(0.015625)"/>
       <path id="ArialMT-62" d="M 941 0 
L 419 0 
L 419 4581 
L 981 4581 
L 981 2947 
Q 1338 3394 1891 3394 
Q 2197 3394 2470 3270 
Q 2744 3147 2920 2923 
Q 3097 2700 3197 2384 
Q 3297 2069 3297 1709 
Q 3297 856 2875 390 
Q 2453 -75 1863 -75 
Q 1275 -75 941 416 
L 941 0 
z
M 934 1684 
Q 934 1088 1097 822 
Q 1363 388 1816 388 
Q 2184 388 2453 708 
Q 2722 1028 2722 1663 
Q 2722 2313 2464 2622 
Q 2206 2931 1841 2931 
Q 1472 2931 1203 2611 
Q 934 2291 934 1684 
z
" transform="scale(0.015625)"/>
       <path id="ArialMT-72" d="M 416 0 
L 416 3319 
L 922 3319 
L 922 2816 
Q 1116 3169 1280 3281 
Q 1444 3394 1641 3394 
Q 1925 3394 2219 3213 
L 2025 2691 
Q 1819 2813 1613 2813 
Q 1428 2813 1281 2702 
Q 1134 2591 1072 2394 
Q 978 2094 978 1738 
L 978 0 
L 416 0 
z
" transform="scale(0.015625)"/>
       <path id="ArialMT-20" transform="scale(0.015625)"/>
       <path id="ArialMT-28" d="M 1497 -1347 
Q 1031 -759 709 28 
Q 388 816 388 1659 
Q 388 2403 628 3084 
Q 909 3875 1497 4659 
L 1900 4659 
Q 1522 4009 1400 3731 
Q 1209 3300 1100 2831 
Q 966 2247 966 1656 
Q 966 153 1900 -1347 
L 1497 -1347 
z
" transform="scale(0.015625)"/>
       <path id="ArialMT-63" d="M 2588 1216 
L 3141 1144 
Q 3050 572 2676 248 
Q 2303 -75 1759 -75 
Q 1078 -75 664 370 
Q 250 816 250 1647 
Q 250 2184 428 2587 
Q 606 2991 970 3192 
Q 1334 3394 1763 3394 
Q 2303 3394 2647 3120 
Q 2991 2847 3088 2344 
L 2541 2259 
Q 2463 2594 2264 2762 
Q 2066 2931 1784 2931 
Q 1359 2931 1093 2626 
Q 828 2322 828 1663 
Q 828 994 1084 691 
Q 1341 388 1753 388 
Q 2084 388 2306 591 
Q 2528 794 2588 1216 
z
" transform="scale(0.015625)"/>
       <path id="ArialMT-2212" d="M 3381 1997 
L 356 1997 
L 356 2522 
L 3381 2522 
L 3381 1997 
z
" transform="scale(0.015625)"/>
       <path id="ArialMT-29" d="M 791 -1347 
L 388 -1347 
Q 1322 153 1322 1656 
Q 1322 2244 1188 2822 
Q 1081 3291 891 3722 
Q 769 4003 388 4659 
L 791 4659 
Q 1378 3875 1659 3084 
Q 1900 2403 1900 1659 
Q 1900 816 1576 28 
Q 1253 -759 791 -1347 
z
" transform="scale(0.015625)"/>
      </defs>
      <use xlink:href="#ArialMT-57" transform="translate(0 0.99375)"/>
      <use xlink:href="#ArialMT-61" transform="translate(94.384766 0.99375)"/>
      <use xlink:href="#ArialMT-76" transform="translate(150 0.99375)"/>
      <use xlink:href="#ArialMT-65" transform="translate(200 0.99375)"/>
      <use xlink:href="#ArialMT-6e" transform="translate(255.615234 0.99375)"/>
      <use xlink:href="#ArialMT-75" transform="translate(311.230469 0.99375)"/>
      <use xlink:href="#ArialMT-6d" transform="translate(366.845703 0.99375)"/>
      <use xlink:href="#ArialMT-62" transform="translate(450.146484 0.99375)"/>
      <use xlink:href="#ArialMT-65" transform="translate(505.761719 0.99375)"/>
      <use xlink:href="#ArialMT-72" transform="translate(561.376953 0.99375)"/>
      <use xlink:href="#ArialMT-20" transform="translate(594.677734 0.99375)"/>
      <use xlink:href="#ArialMT-28" transform="translate(622.460938 0.99375)"/>
      <use xlink:href="#ArialMT-63" transform="translate(655.761719 0.99375)"/>
      <use xlink:href="#ArialMT-6d" transform="translate(705.761719 0.99375)"/>
      <use xlink:href="#ArialMT-2212" transform="translate(790.804844 70.6875) scale(0.7)"/>
      <use xlink:href="#ArialMT-31" transform="translate(831.68375 70.6875) scale(0.7)"/>
      <use xlink:href="#ArialMT-29" transform="translate(875.592539 0.99375)"/>
     </g>
    </g>
   </g>
   <g id="matplotlib.axis_2">
    <g id="ytick_1">
     <g id="line2d_16">
      <defs>
       <path id="macecf5a97e" d="M 0 0 
L 6 0 
" style="stroke: #262626; stroke-width: 1.25"/>
      </defs>
      <g>
       <use xlink:href="#macecf5a97e" x="37.908438" y="268.664539" style="fill: #262626; stroke: #262626; stroke-width: 1.25"/>
      </g>
     </g>
     <g id="text_10">
      <!-- 0 -->
      <g style="fill: #262626" transform="translate(28.291406 272.601336) scale(0.11 -0.11)">
       <use xlink:href="#ArialMT-30"/>
      </g>
     </g>
    </g>
    <g id="ytick_2">
     <g id="line2d_17">
      <g>
       <use xlink:href="#macecf5a97e" x="37.908438" y="225.743248" style="fill: #262626; stroke: #262626; stroke-width: 1.25"/>
      </g>
     </g>
     <g id="text_11">
      <!-- 5 -->
      <g style="fill: #262626" transform="translate(28.291406 229.680045) scale(0.11 -0.11)">
       <defs>
        <path id="ArialMT-35" d="M 266 1200 
L 856 1250 
Q 922 819 1161 601 
Q 1400 384 1738 384 
Q 2144 384 2425 690 
Q 2706 997 2706 1503 
Q 2706 1984 2436 2262 
Q 2166 2541 1728 2541 
Q 1456 2541 1237 2417 
Q 1019 2294 894 2097 
L 366 2166 
L 809 4519 
L 3088 4519 
L 3088 3981 
L 1259 3981 
L 1013 2750 
Q 1425 3038 1878 3038 
Q 2478 3038 2890 2622 
Q 3303 2206 3303 1553 
Q 3303 931 2941 478 
Q 2500 -78 1738 -78 
Q 1113 -78 717 272 
Q 322 622 266 1200 
z
" transform="scale(0.015625)"/>
       </defs>
       <use xlink:href="#ArialMT-35"/>
      </g>
     </g>
    </g>
    <g id="ytick_3">
     <g id="line2d_18">
      <g>
       <use xlink:href="#macecf5a97e" x="37.908438" y="182.821958" style="fill: #262626; stroke: #262626; stroke-width: 1.25"/>
      </g>
     </g>
     <g id="text_12">
      <!-- 10 -->
      <g style="fill: #262626" transform="translate(22.174375 186.758755) scale(0.11 -0.11)">
       <use xlink:href="#ArialMT-31"/>
       <use xlink:href="#ArialMT-30" x="55.615234"/>
      </g>
     </g>
    </g>
    <g id="ytick_4">
     <g id="line2d_19">
      <g>
       <use xlink:href="#macecf5a97e" x="37.908438" y="139.900668" style="fill: #262626; stroke: #262626; stroke-width: 1.25"/>
      </g>
     </g>
     <g id="text_13">
      <!-- 15 -->
      <g style="fill: #262626" transform="translate(22.174375 143.837465) scale(0.11 -0.11)">
       <use xlink:href="#ArialMT-31"/>
       <use xlink:href="#ArialMT-35" x="55.615234"/>
      </g>
     </g>
    </g>
    <g id="ytick_5">
     <g id="line2d_20">
      <g>
       <use xlink:href="#macecf5a97e" x="37.908438" y="96.979378" style="fill: #262626; stroke: #262626; stroke-width: 1.25"/>
      </g>
     </g>
     <g id="text_14">
      <!-- 20 -->
      <g style="fill: #262626" transform="translate(22.174375 100.916174) scale(0.11 -0.11)">
       <use xlink:href="#ArialMT-32"/>
       <use xlink:href="#ArialMT-30" x="55.615234"/>
      </g>
     </g>
    </g>
    <g id="ytick_6">
     <g id="line2d_21">
      <g>
       <use xlink:href="#macecf5a97e" x="37.908438" y="54.058087" style="fill: #262626; stroke: #262626; stroke-width: 1.25"/>
      </g>
     </g>
     <g id="text_15">
      <!-- 25 -->
      <g style="fill: #262626" transform="translate(22.174375 57.994884) scale(0.11 -0.11)">
       <use xlink:href="#ArialMT-32"/>
       <use xlink:href="#ArialMT-35" x="55.615234"/>
      </g>
     </g>
    </g>
    <g id="ytick_7">
     <g id="line2d_22">
      <g>
       <use xlink:href="#macecf5a97e" x="37.908438" y="11.136797" style="fill: #262626; stroke: #262626; stroke-width: 1.25"/>
      </g>
     </g>
     <g id="text_16">
      <!-- 30 -->
      <g style="fill: #262626" transform="translate(22.174375 15.073594) scale(0.11 -0.11)">
       <defs>
        <path id="ArialMT-33" d="M 269 1209 
L 831 1284 
Q 928 806 1161 595 
Q 1394 384 1728 384 
Q 2125 384 2398 659 
Q 2672 934 2672 1341 
Q 2672 1728 2419 1979 
Q 2166 2231 1775 2231 
Q 1616 2231 1378 2169 
L 1441 2663 
Q 1497 2656 1531 2656 
Q 1891 2656 2178 2843 
Q 2466 3031 2466 3422 
Q 2466 3731 2256 3934 
Q 2047 4138 1716 4138 
Q 1388 4138 1169 3931 
Q 950 3725 888 3313 
L 325 3413 
Q 428 3978 793 4289 
Q 1159 4600 1703 4600 
Q 2078 4600 2393 4439 
Q 2709 4278 2876 4000 
Q 3044 3722 3044 3409 
Q 3044 3113 2884 2869 
Q 2725 2625 2413 2481 
Q 2819 2388 3044 2092 
Q 3269 1797 3269 1353 
Q 3269 753 2831 336 
Q 2394 -81 1725 -81 
Q 1122 -81 723 278 
Q 325 638 269 1209 
z
" transform="scale(0.015625)"/>
       </defs>
       <use xlink:href="#ArialMT-33"/>
       <use xlink:href="#ArialMT-30" x="55.615234"/>
      </g>
     </g>
    </g>
    <g id="ytick_8">
     <g id="line2d_23">
      <defs>
       <path id="m9fd628521d" d="M 0 0 
L 4 0 
" style="stroke: #262626"/>
      </defs>
      <g>
       <use xlink:href="#m9fd628521d" x="37.908438" y="247.203894" style="fill: #262626; stroke: #262626"/>
      </g>
     </g>
    </g>
    <g id="ytick_9">
     <g id="line2d_24">
      <g>
       <use xlink:href="#m9fd628521d" x="37.908438" y="204.282603" style="fill: #262626; stroke: #262626"/>
      </g>
     </g>
    </g>
    <g id="ytick_10">
     <g id="line2d_25">
      <g>
       <use xlink:href="#m9fd628521d" x="37.908438" y="161.361313" style="fill: #262626; stroke: #262626"/>
      </g>
     </g>
    </g>
    <g id="ytick_11">
     <g id="line2d_26">
      <g>
       <use xlink:href="#m9fd628521d" x="37.908438" y="118.440023" style="fill: #262626; stroke: #262626"/>
      </g>
     </g>
    </g>
    <g id="ytick_12">
     <g id="line2d_27">
      <g>
       <use xlink:href="#m9fd628521d" x="37.908438" y="75.518732" style="fill: #262626; stroke: #262626"/>
      </g>
     </g>
    </g>
    <g id="ytick_13">
     <g id="line2d_28">
      <g>
       <use xlink:href="#m9fd628521d" x="37.908438" y="32.597442" style="fill: #262626; stroke: #262626"/>
      </g>
     </g>
    </g>
    <g id="text_17">
     <!-- AU-030-A2 -->
     <g style="fill: #262626" transform="translate(15.789375 173.872172) rotate(-90) scale(0.12 -0.12)">
      <defs>
       <path id="ArialMT-41" d="M -9 0 
L 1750 4581 
L 2403 4581 
L 4278 0 
L 3588 0 
L 3053 1388 
L 1138 1388 
L 634 0 
L -9 0 
z
M 1313 1881 
L 2866 1881 
L 2388 3150 
Q 2169 3728 2063 4100 
Q 1975 3659 1816 3225 
L 1313 1881 
z
" transform="scale(0.015625)"/>
       <path id="ArialMT-55" d="M 3500 4581 
L 4106 4581 
L 4106 1934 
Q 4106 1244 3950 837 
Q 3794 431 3386 176 
Q 2978 -78 2316 -78 
Q 1672 -78 1262 144 
Q 853 366 678 786 
Q 503 1206 503 1934 
L 503 4581 
L 1109 4581 
L 1109 1938 
Q 1109 1341 1220 1058 
Q 1331 775 1601 622 
Q 1872 469 2263 469 
Q 2931 469 3215 772 
Q 3500 1075 3500 1938 
L 3500 4581 
z
" transform="scale(0.015625)"/>
       <path id="ArialMT-2d" d="M 203 1375 
L 203 1941 
L 1931 1941 
L 1931 1375 
L 203 1375 
z
" transform="scale(0.015625)"/>
      </defs>
      <use xlink:href="#ArialMT-41"/>
      <use xlink:href="#ArialMT-55" x="66.699219"/>
      <use xlink:href="#ArialMT-2d" x="138.916016"/>
      <use xlink:href="#ArialMT-30" x="172.216797"/>
      <use xlink:href="#ArialMT-33" x="227.832031"/>
      <use xlink:href="#ArialMT-30" x="283.447266"/>
      <use xlink:href="#ArialMT-2d" x="339.0625"/>
      <use xlink:href="#ArialMT-41" x="372.363281"/>
      <use xlink:href="#ArialMT-32" x="439.0625"/>
     </g>
    </g>
   </g>
   <g id="PolyCollection_1"/>
   <g id="line2d_29">
    <path d="M 395.147478 237.438528 
L 395.028438 237.377322 
L 394.909398 237.752282 
L 394.671318 240.114412 
L 393.004758 264.271287 
L 392.766678 264.997515 
L 392.528598 265.030908 
L 392.290518 264.698268 
L 392.052438 263.786448 
L 391.814358 261.891044 
L 391.457238 256.694735 
L 391.100118 247.290595 
L 390.504918 229.181501 
L 390.385878 228.274403 
L 390.266838 228.5782 
L 390.028758 231.659262 
L 389.552598 241.882169 
L 389.076438 251.702131 
L 388.957398 251.997086 
L 388.838358 251.142351 
L 388.600278 246.79906 
L 388.005078 234.799727 
L 387.886038 234.761355 
L 387.647958 237.752454 
L 387.171798 245.424034 
L 386.814678 248.223017 
L 386.695638 248.328775 
L 386.576598 247.366479 
L 386.338518 241.455789 
L 385.862358 227.880557 
L 385.743318 227.395203 
L 385.624278 227.938157 
L 385.148118 232.968876 
L 384.671958 238.371551 
L 384.552918 238.444345 
L 384.433878 237.438785 
L 384.195798 232.313983 
L 383.600598 216.227942 
L 383.362518 214.88854 
L 383.243478 215.69134 
L 383.005398 219.848009 
L 382.172118 238.664617 
L 382.053078 239.504329 
L 381.934038 239.384665 
L 381.695958 235.79035 
L 380.981718 219.13646 
L 380.624598 216.676984 
L 380.505558 216.540752 
L 380.386518 217.171438 
L 380.148438 220.847131 
L 379.791318 226.712068 
L 379.553238 227.674277 
L 379.196118 227.940046 
L 379.077078 227.831627 
L 378.958038 227.309189 
L 378.600918 223.235529 
L 378.243798 219.934968 
L 378.124758 219.828351 
L 378.005718 220.324951 
L 377.767638 223.093546 
L 376.934358 235.899799 
L 376.577238 241.019022 
L 376.101078 247.588211 
L 375.982038 247.762986 
L 375.862998 247.260121 
L 375.624918 244.715746 
L 375.267798 238.36537 
L 374.672598 226.984532 
L 374.553558 226.296676 
L 374.434518 226.287319 
L 374.196438 228.008978 
L 373.839318 234.153246 
L 373.482198 240.34387 
L 373.244118 241.236804 
L 373.006038 239.80598 
L 372.648918 235.081033 
L 372.053718 226.140528 
L 371.934678 226.12748 
L 371.696598 228.426173 
L 371.220438 238.662814 
L 370.744278 247.470778 
L 370.506198 249.448076 
L 370.387158 249.58697 
L 370.268118 248.936884 
L 370.030038 244.759526 
L 369.315798 226.875941 
L 369.196758 226.419602 
L 369.077718 226.96745 
L 368.839638 230.64898 
L 368.006358 247.805994 
L 367.887318 248.312121 
L 367.768278 248.192972 
L 367.530198 246.073347 
L 367.173078 238.61706 
L 366.696918 228.818731 
L 366.458838 227.473577 
L 366.339798 227.592298 
L 365.863638 229.045355 
L 365.744598 229.006383 
L 365.268438 227.885107 
L 365.149398 228.132848 
L 364.911318 230.132723 
L 363.839958 243.45283 
L 363.720918 243.753022 
L 363.601878 243.079329 
L 363.363798 238.09385 
L 362.649558 215.680953 
L 362.411478 214.469285 
L 362.173398 215.278094 
L 361.935318 216.944899 
L 361.578198 221.671992 
L 360.863958 232.265911 
L 360.387798 236.546623 
L 360.149718 238.669253 
L 359.554518 247.242609 
L 359.435478 246.749443 
L 359.197398 242.651404 
L 358.721238 234.249476 
L 358.483158 233.141763 
L 358.364118 233.287524 
L 358.126038 234.654309 
L 357.887958 235.945124 
L 357.768918 235.772838 
L 357.530838 233.312418 
L 356.697558 219.294153 
L 356.102358 201.951033 
L 355.983318 201.914636 
L 355.745238 205.684584 
L 354.792918 229.281594 
L 354.435798 232.755815 
L 353.959638 238.860596 
L 353.840598 239.052711 
L 353.483478 238.142694 
L 353.364438 238.31747 
L 353.126358 239.983331 
L 352.531158 247.806509 
L 352.054998 253.143342 
L 351.816918 253.822013 
L 351.578838 253.435893 
L 351.459798 253.788535 
L 351.221718 257.00085 
L 350.864598 262.670237 
L 350.745558 262.3491 
L 350.507478 257.6845 
L 349.912278 236.279481 
L 349.555158 225.864716 
L 348.721878 211.265554 
L 348.602838 211.838553 
L 348.364758 216.778536 
L 348.007638 224.761381 
L 347.055318 237.38067 
L 346.579158 245.209771 
L 346.341078 246.264089 
L 346.222038 246.16434 
L 345.983958 244.964518 
L 345.745878 242.148367 
L 344.793558 227.564656 
L 344.674518 227.063679 
L 344.555478 227.192443 
L 344.317398 229.521524 
L 343.246038 247.306218 
L 343.126998 247.669761 
L 343.007958 247.53207 
L 342.650838 246.159361 
L 342.531798 246.204343 
L 342.174678 246.98903 
L 342.055638 246.33139 
L 341.579478 241.360074 
L 341.460438 241.754435 
L 340.865238 247.49078 
L 340.627158 246.171465 
L 340.270038 244.155109 
L 340.031958 243.748816 
L 339.912918 243.831825 
L 339.436758 244.906059 
L 339.198678 243.008681 
L 338.841558 239.656871 
L 338.722518 239.999298 
L 338.365398 242.673294 
L 338.246358 242.255841 
L 338.008278 238.833212 
L 337.651158 233.492344 
L 337.413078 232.279989 
L 337.294038 232.173201 
L 337.174998 232.30454 
L 336.936918 233.181508 
L 336.222678 237.282122 
L 335.508438 244.085576 
L 335.270358 245.101866 
L 334.913238 249.025559 
L 334.675158 250.816235 
L 334.556118 250.366678 
L 334.318038 246.499469 
L 333.841878 237.309678 
L 333.603798 236.194325 
L 333.365718 235.757215 
L 332.889558 234.014954 
L 332.770518 234.08792 
L 332.175318 235.365773 
L 331.937238 236.78063 
L 331.580118 240.477784 
L 331.103958 248.684335 
L 330.865878 251.326398 
L 330.746838 251.05359 
L 330.508758 247.365106 
L 330.032598 233.734935 
L 329.556438 220.335338 
L 329.437398 219.575287 
L 329.318358 220.36873 
L 329.080278 225.817588 
L 328.366038 246.265119 
L 328.127958 247.46889 
L 327.651798 246.424786 
L 327.413718 246.503933 
L 327.175638 245.58061 
L 326.223318 238.37507 
L 325.985238 234.686758 
L 325.628118 224.858469 
L 325.270998 215.675459 
L 325.151958 215.053873 
L 325.032918 215.918136 
L 324.199638 229.645996 
L 324.080598 229.872448 
L 323.961558 229.825235 
L 323.604438 229.44315 
L 323.366358 229.84206 
L 323.009238 231.22962 
L 322.771158 232.884836 
L 322.175958 238.586071 
L 322.056918 238.710629 
L 321.937878 238.262015 
L 321.699798 235.686566 
L 320.985558 224.914009 
L 320.866518 224.730306 
L 320.747478 225.321761 
L 320.509398 229.374819 
L 319.914198 246.432341 
L 319.795158 246.409421 
L 319.438038 240.680458 
L 319.199958 238.354296 
L 318.723798 236.198016 
L 318.009558 231.765964 
L 317.890518 231.934215 
L 317.652438 235.239756 
L 317.414358 239.386296 
L 317.295318 239.658245 
L 317.057238 235.695151 
L 316.819158 231.407571 
L 316.700118 231.268077 
L 316.462038 234.989525 
L 315.985878 244.127553 
L 315.628758 247.361672 
L 315.509718 247.252738 
L 315.271637 245.129078 
L 314.200278 231.759783 
L 314.081238 231.453068 
L 313.962198 231.787425 
L 313.724118 233.989888 
L 313.366998 240.113039 
L 312.771798 252.5894 
L 312.652758 252.888132 
L 312.414678 251.346227 
L 312.176598 250.40256 
L 312.057558 251.108958 
L 311.581398 256.193071 
L 311.462358 256.037181 
L 310.152918 248.649053 
L 309.914838 248.760906 
L 309.676758 247.78728 
L 309.438678 247.118566 
L 309.200598 248.01957 
L 308.962518 248.616262 
L 308.605398 247.930294 
L 308.367318 249.342404 
L 308.248278 250.068375 
L 308.129238 249.95944 
L 307.891158 246.506509 
L 307.653077 242.285114 
L 307.534038 241.769629 
L 307.414998 242.671491 
L 307.057878 247.621604 
L 306.938838 248.032704 
L 306.819798 247.723241 
L 306.462678 245.938832 
L 306.224598 245.688257 
L 306.105558 245.889644 
L 305.629398 248.047469 
L 305.510358 247.380729 
L 305.272278 242.893652 
L 304.915158 236.152348 
L 304.796118 236.295362 
L 304.558038 239.775163 
L 304.319958 243.205861 
L 304.200918 243.649582 
L 304.081878 243.246551 
L 303.724758 240.77231 
L 303.605718 240.68724 
L 303.248598 241.890839 
L 303.129558 241.624383 
L 302.891478 238.899311 
L 302.534358 233.726523 
L 302.415318 233.711414 
L 302.177238 237.418526 
L 301.701077 248.39599 
L 301.462998 249.980386 
L 301.343958 249.826556 
L 301.105878 248.354013 
L 300.748758 243.651814 
L 299.796438 226.613263 
L 299.558358 229.165363 
L 298.725077 243.35394 
L 298.606038 243.681 
L 298.367958 243.633958 
L 298.248918 243.847706 
L 298.010838 245.304197 
L 297.772758 246.837002 
L 297.653718 246.991691 
L 297.534678 246.65536 
L 297.058517 244.286534 
L 296.701398 243.898268 
L 296.463318 242.656984 
L 296.106198 238.176774 
L 295.868118 235.400453 
L 295.749077 234.944972 
L 295.630038 235.276496 
L 295.272918 238.064148 
L 295.153878 238.097283 
L 294.915798 235.80872 
L 294.558678 231.519682 
L 294.320598 230.90565 
L 294.201558 230.987286 
L 294.082517 231.230821 
L 293.963478 231.752229 
L 293.725398 234.453781 
L 292.773077 250.242034 
L 292.534998 252.314102 
L 292.415958 252.288521 
L 291.582678 247.925744 
L 291.344598 245.873763 
L 291.225558 245.872132 
L 290.868438 247.448116 
L 290.749398 246.18271 
L 290.035158 231.996795 
L 289.439957 228.773406 
L 289.201878 229.912966 
L 288.725718 233.490456 
L 288.011478 242.650546 
L 287.773398 242.73407 
L 287.535318 242.591486 
L 287.416278 242.27756 
L 287.178198 240.381898 
L 286.344918 230.635675 
L 285.868758 229.780168 
L 285.749718 230.055551 
L 285.511638 232.463607 
L 285.154517 236.297079 
L 285.035478 236.27433 
L 284.321238 233.491314 
L 284.202198 233.214214 
L 284.083158 233.32787 
L 283.964118 234.227843 
L 283.726038 238.886864 
L 283.249878 250.432004 
L 282.654678 257.798499 
L 282.416598 258.717787 
L 282.178517 258.917801 
L 281.821398 259.966711 
L 281.702358 259.640681 
L 281.464278 256.871313 
L 280.154838 235.186276 
L 280.035798 235.272719 
L 279.797718 237.961824 
L 279.321558 244.91679 
L 279.083478 246.225717 
L 278.964438 246.265463 
L 278.845397 245.715555 
L 278.607318 242.105789 
L 278.131158 226.914313 
L 277.774038 219.151053 
L 277.654998 218.855583 
L 277.535957 219.592113 
L 277.178838 224.916584 
L 275.869397 246.145884 
L 275.750358 245.570309 
L 275.512278 241.829633 
L 274.798038 227.490231 
L 274.559957 225.992535 
L 274.321878 225.526067 
L 274.083798 225.155828 
L 272.893397 221.170843 
L 272.655318 220.24237 
L 272.536278 220.234902 
L 272.417238 220.555095 
L 272.179158 222.199924 
L 271.822038 227.535899 
L 271.464918 232.279732 
L 271.345878 232.49451 
L 271.107798 231.485945 
L 270.869718 230.820236 
L 270.750678 231.069781 
L 270.393558 232.591083 
L 270.274518 232.600268 
L 269.679318 231.041538 
L 269.441238 231.360615 
L 269.203158 232.202903 
L 268.846038 235.288085 
L 268.607957 237.033351 
L 268.488918 237.242206 
L 268.369878 237.027685 
L 268.131798 235.753695 
L 267.417558 231.335893 
L 267.298518 231.782961 
L 267.060438 234.975704 
L 266.584278 243.438495 
L 266.346198 244.317694 
L 266.108118 244.60252 
L 265.989078 244.814208 
L 265.870038 244.793949 
L 265.750998 244.291942 
L 265.512918 241.769801 
L 264.679638 231.587841 
L 264.322518 229.658185 
L 264.084438 226.485958 
L 263.489238 216.853477 
L 263.251158 216.335331 
L 263.013078 217.356943 
L 262.536918 220.839148 
L 262.417878 220.762061 
L 262.179798 218.616168 
L 261.584598 208.492753 
L 261.227478 203.935284 
L 261.108438 203.817937 
L 260.870358 205.035529 
L 260.513238 208.158396 
L 259.918038 215.894443 
L 259.679958 214.288071 
L 259.322837 211.948088 
L 258.727638 209.105154 
L 258.489558 211.285641 
L 257.418198 226.341485 
L 257.299158 225.720929 
L 257.061078 221.951152 
L 256.227798 204.546398 
L 255.989718 203.858627 
L 255.751638 204.974237 
L 255.275478 207.719311 
L 255.156438 207.653041 
L 254.918358 207.026046 
L 254.799318 207.097897 
L 254.561238 208.526489 
L 254.323158 209.770262 
L 254.204118 209.692489 
L 253.966038 209.145929 
L 253.846998 209.475221 
L 253.608918 211.839412 
L 253.132758 216.716043 
L 252.894678 217.183112 
L 252.775638 216.661361 
L 252.537558 213.890963 
L 252.180438 209.10584 
L 252.061398 208.794833 
L 251.704278 210.267806 
L 251.585238 209.950875 
L 251.347158 207.005101 
L 250.156758 186.75269 
L 249.799638 185.90199 
L 249.680598 185.857695 
L 249.561558 186.304248 
L 249.323478 189.620433 
L 248.252118 213.536605 
L 247.775958 218.998339 
L 247.180758 228.94655 
L 246.228438 237.581885 
L 245.990358 238.628907 
L 245.871318 238.620236 
L 245.752278 237.714426 
L 245.395158 230.415488 
L 245.038038 224.389168 
L 244.323798 217.100274 
L 244.204758 217.327757 
L 243.847638 220.462213 
L 243.609558 224.224522 
L 242.776278 243.249555 
L 242.181078 245.296987 
L 241.942998 244.052097 
L 241.585878 241.378273 
L 241.466837 241.067093 
L 241.347798 241.165297 
L 241.109718 242.397997 
L 240.752598 246.484705 
L 239.800278 258.441718 
L 239.681238 259.286494 
L 239.562198 259.177732 
L 239.086038 256.214103 
L 238.847958 256.758173 
L 238.728918 256.167833 
L 238.490837 251.023974 
L 237.895638 232.237497 
L 237.657558 230.089973 
L 237.538518 229.976661 
L 237.419478 230.506567 
L 236.586198 239.677817 
L 235.990998 250.155162 
L 235.871958 250.246155 
L 235.157718 247.371973 
L 235.038678 247.265014 
L 234.800598 246.415945 
L 234.443478 243.777144 
L 234.205398 240.384473 
L 233.848278 230.156244 
L 233.014998 203.831243 
L 232.776918 201.602684 
L 232.657878 201.769133 
L 232.419798 204.55936 
L 232.062678 215.03473 
L 231.586518 230.53481 
L 231.348438 233.900783 
L 231.229398 234.207928 
L 231.110358 233.566684 
L 230.872277 229.015997 
L 230.515158 212.987899 
L 229.919958 182.743584 
L 229.562838 173.669937 
L 229.443798 172.610983 
L 229.324758 172.692019 
L 229.086678 176.044 
L 228.729557 188.230384 
L 227.777238 230.796544 
L 227.539158 232.897283 
L 227.420118 233.124594 
L 226.943958 233.004415 
L 226.467798 234.093586 
L 226.229718 234.189729 
L 226.110678 234.59731 
L 225.872598 236.712814 
L 225.158358 245.407123 
L 225.039318 245.860114 
L 224.920277 245.586276 
L 224.325078 241.217661 
L 224.086997 242.622389 
L 223.729878 244.763904 
L 223.610838 244.429891 
L 223.372758 242.110767 
L 222.777558 234.853378 
L 222.539478 233.883615 
L 222.301398 233.353451 
L 221.825238 230.471458 
L 221.706198 231.059823 
L 221.468118 234.656713 
L 220.991958 243.173928 
L 220.872918 243.995871 
L 220.753878 243.88273 
L 220.515798 241.160061 
L 220.158678 236.29622 
L 220.039638 235.817133 
L 219.920598 236.02264 
L 219.563478 237.904052 
L 219.444438 237.851344 
L 219.087318 236.898921 
L 218.968277 237.635365 
L 218.611158 243.379521 
L 218.015958 254.087954 
L 217.896918 254.740701 
L 217.658838 254.715291 
L 217.539798 255.244253 
L 217.301717 258.994458 
L 217.063638 262.594352 
L 216.944598 262.174496 
L 216.706518 255.758107 
L 216.230358 240.663462 
L 215.992278 239.17229 
L 215.873238 239.140357 
L 215.635158 239.464842 
L 215.397078 240.281205 
L 215.158997 241.598545 
L 214.920918 244.423281 
L 214.206678 259.068798 
L 214.087638 258.737274 
L 213.254358 252.458232 
L 213.016278 251.960603 
L 212.778198 250.156192 
L 212.302038 245.460087 
L 212.063958 245.038171 
L 211.825878 245.247885 
L 211.349717 246.244431 
L 211.230678 246.103048 
L 210.873558 245.067014 
L 210.754518 245.444378 
L 210.516437 248.657724 
L 210.040278 257.057678 
L 209.802198 257.893269 
L 209.564118 257.966579 
L 209.445078 257.575652 
L 209.206997 255.105961 
L 208.849878 251.043031 
L 208.492758 249.040667 
L 208.016598 244.432466 
L 207.897558 244.235543 
L 207.659478 245.241275 
L 207.421398 246.463931 
L 207.302358 246.641367 
L 207.183318 246.490542 
L 206.945238 245.517173 
L 206.469078 242.692523 
L 206.350038 243.081733 
L 205.992918 246.283318 
L 205.873877 246.107598 
L 205.278678 240.622 
L 204.683478 244.236401 
L 204.326358 243.966598 
L 204.088278 245.133199 
L 203.612118 248.029013 
L 203.493078 247.846168 
L 203.254998 245.285999 
L 202.778838 237.442305 
L 202.183638 234.240033 
L 201.826518 231.185496 
L 201.707478 231.297435 
L 201.469398 233.826787 
L 201.112278 238.281931 
L 200.636118 241.130359 
L 200.278998 244.174509 
L 199.445718 247.281753 
L 199.326678 247.238832 
L 198.731478 245.091308 
L 198.612437 245.186078 
L 198.493398 245.087016 
L 198.255317 243.925909 
L 197.779157 240.542338 
L 197.422038 233.972547 
L 197.064918 228.748168 
L 196.826838 228.177487 
L 196.588758 228.217918 
L 196.469718 228.346081 
L 196.350678 228.738124 
L 196.112597 230.843843 
L 195.755478 234.649502 
L 195.398358 236.348584 
L 195.160278 239.705802 
L 194.684118 247.752342 
L 194.446037 248.661844 
L 194.326998 248.371009 
L 193.612758 244.44105 
L 192.898518 237.881046 
L 192.779478 238.133166 
L 192.303317 240.09587 
L 192.184278 239.785206 
L 191.946198 236.753075 
L 191.350998 225.38374 
L 191.112918 223.964333 
L 190.993877 224.552784 
L 190.755798 229.500321 
L 190.041558 251.520059 
L 189.803478 252.791044 
L 189.684438 252.633866 
L 189.565398 251.945752 
L 189.327317 247.982314 
L 188.494037 226.353074 
L 188.374998 226.00936 
L 188.255958 226.096233 
L 188.017877 227.363956 
L 187.660757 229.939234 
L 187.541718 230.010998 
L 186.946518 228.395613 
L 186.827478 227.648181 
L 186.589398 223.903299 
L 186.232278 216.283224 
L 186.113238 215.460423 
L 185.994198 216.053596 
L 185.756118 220.616558 
L 185.041877 236.868361 
L 184.803798 239.443639 
L 184.684757 239.2268 
L 184.446678 236.261025 
L 183.970518 229.79313 
L 183.613398 226.685972 
L 183.494358 226.42956 
L 183.375317 226.578583 
L 183.137238 227.685437 
L 182.899158 230.560477 
L 182.542037 235.859453 
L 182.422998 235.62227 
L 181.946838 230.240541 
L 181.827798 230.186117 
L 181.589718 231.106521 
L 181.351638 233.72472 
L 180.518358 249.41022 
L 180.399317 249.653927 
L 180.280278 250.238858 
L 179.804118 255.190516 
L 179.685078 254.219464 
L 179.089878 241.137313 
L 178.732757 233.679309 
L 178.613718 232.73341 
L 178.494678 233.096781 
L 177.780438 241.044603 
L 177.542358 240.751965 
L 177.423317 240.785444 
L 177.304278 240.693678 
L 177.185238 240.043764 
L 176.947158 236.28343 
L 176.590037 230.266037 
L 176.351958 229.082439 
L 176.232918 228.916419 
L 176.113878 229.11875 
L 175.875798 231.598399 
L 175.161558 244.672825 
L 175.042518 244.073987 
L 174.804438 240.147462 
L 174.090197 225.754408 
L 173.971158 225.914419 
L 173.614037 230.648894 
L 172.780757 240.195534 
L 172.661718 240.284209 
L 172.423638 239.137095 
L 171.947477 234.251021 
L 171.352278 226.181046 
L 171.233238 226.620903 
L 170.995158 230.14208 
L 170.399958 241.295005 
L 170.280917 241.764994 
L 170.161878 241.220666 
L 169.566678 234.013752 
L 168.733398 219.994628 
L 168.614358 220.370962 
L 168.376278 224.572957 
L 167.542998 244.82159 
L 167.423958 244.007631 
L 166.471637 229.000889 
L 166.233558 225.998716 
L 166.114518 225.796385 
L 165.757398 226.974403 
L 165.519317 228.198518 
L 164.924118 232.283251 
L 164.805078 232.156033 
L 164.447958 230.504336 
L 164.328917 230.825387 
L 164.090838 234.316089 
L 163.376598 249.166083 
L 162.662357 254.593309 
L 162.543318 253.85635 
L 162.186197 248.168593 
L 161.471958 236.345666 
L 161.352917 236.556753 
L 161.114838 237.767047 
L 160.995798 237.601371 
L 160.638678 234.52855 
L 160.519637 234.61817 
L 160.162518 238.272746 
L 160.043477 237.898901 
L 159.329238 227.707413 
L 158.853077 224.680861 
L 158.734037 224.887312 
L 158.376917 227.486454 
L 158.138838 231.145494 
L 157.424598 250.827395 
L 157.186518 251.185358 
L 157.067477 251.819649 
L 156.591318 256.079759 
L 156.472278 255.589941 
L 155.877077 251.14527 
L 155.638998 250.843962 
L 155.400917 250.95633 
L 155.281878 250.783186 
L 155.043797 249.309355 
L 153.853398 239.059579 
L 153.734357 238.877077 
L 153.615318 238.923604 
L 153.496278 239.265429 
L 153.258197 241.636659 
L 152.543958 252.911052 
L 152.305878 253.412372 
L 152.067797 255.158239 
L 151.829718 256.381496 
L 151.710678 255.49251 
L 151.115477 243.800149 
L 150.520278 235.291433 
L 150.282197 234.78831 
L 150.044118 234.952526 
L 149.925077 234.40073 
L 149.448917 228.719411 
L 149.329878 229.468559 
L 148.734678 239.386382 
L 148.496598 239.737907 
L 148.377558 239.862379 
L 148.258517 240.324126 
L 148.020438 242.843005 
L 147.663318 248.183272 
L 147.544278 248.584328 
L 147.425238 247.315832 
L 147.187158 239.068421 
L 146.710998 217.021986 
L 146.234838 203.692264 
L 145.758678 174.304571 
L 144.449237 84.129258 
L 144.330197 82.795694 
L 144.211158 84.16454 
L 143.973077 93.291237 
L 143.496917 123.36009 
L 142.663637 182.2766 
L 141.711318 208.865395 
L 141.354197 215.516049 
L 141.116118 217.619622 
L 140.758998 218.63059 
L 140.282838 221.910291 
L 140.163797 221.286559 
L 139.806678 216.077803 
L 139.330517 209.910357 
L 139.211478 209.340276 
L 139.092438 209.364227 
L 138.973398 210.14342 
L 138.735318 214.704579 
L 138.021077 236.505333 
L 137.306838 246.274648 
L 137.187797 246.182367 
L 136.949718 242.535259 
L 136.473558 233.451397 
L 136.354517 233.174297 
L 136.235478 233.609863 
L 135.997398 236.177672 
L 135.521237 243.799806 
L 135.402197 244.026516 
L 135.164118 243.701087 
L 135.045077 244.558225 
L 134.568917 250.448486 
L 134.330838 246.801635 
L 133.973718 239.54871 
L 133.735637 237.525744 
L 133.497558 236.877975 
L 133.140438 236.224542 
L 132.902357 235.022402 
L 132.069077 227.90528 
L 131.592917 221.3427 
L 131.473878 221.315832 
L 131.235797 224.303068 
L 130.640598 235.233918 
L 130.283478 238.070071 
L 129.926357 240.807076 
L 129.212118 246.960959 
L 129.093077 247.275057 
L 128.974038 247.218916 
L 128.616917 246.50874 
L 128.497878 246.661369 
L 128.140758 247.585378 
L 128.021718 247.376952 
L 127.545558 244.945375 
L 127.426517 245.290119 
L 127.069397 248.05116 
L 126.831318 250.803273 
L 126.236117 259.221683 
L 126.117077 258.781826 
L 125.521878 253.038442 
L 125.164758 247.018216 
L 124.688598 238.338158 
L 123.974357 229.15695 
L 123.736278 230.815601 
L 123.498198 232.343856 
L 123.379158 232.521207 
L 123.260117 232.409697 
L 123.022038 231.457532 
L 122.783957 230.584169 
L 122.664918 230.999991 
L 122.426837 234.38794 
L 121.712598 247.729594 
L 121.117397 253.450744 
L 120.998357 254.134995 
L 120.879318 253.977732 
L 120.641237 250.352256 
L 119.807957 231.638316 
L 119.450837 228.509611 
L 119.212758 228.022111 
L 119.093718 228.508152 
L 118.855638 231.517192 
L 118.260438 242.348551 
L 118.141397 242.381086 
L 117.903318 239.14422 
L 117.427158 231.561058 
L 117.070038 229.761969 
L 116.950998 229.82781 
L 116.117718 234.200717 
L 115.760598 239.020864 
L 115.641557 238.993738 
L 115.403478 235.643559 
L 114.570198 219.681389 
L 114.451158 219.920289 
L 114.213077 222.892588 
L 113.855957 227.908713 
L 113.141718 232.795045 
L 113.022677 232.349178 
L 112.665557 230.023875 
L 112.427478 232.566103 
L 111.951318 238.673201 
L 111.118038 247.488891 
L 110.760918 246.864472 
L 110.641878 246.620593 
L 110.522837 245.967589 
L 110.284758 242.549251 
L 110.046677 239.237874 
L 109.927638 239.281911 
L 109.213397 247.756548 
L 108.737237 252.985563 
L 108.618198 253.042477 
L 108.142038 251.932532 
L 108.022997 251.29764 
L 107.784918 247.926431 
L 107.189718 230.744781 
L 106.594517 217.607861 
L 106.475478 217.168261 
L 106.356438 217.796457 
L 105.999318 221.990898 
L 105.761237 227.047369 
L 105.404117 236.232096 
L 105.285077 236.371848 
L 104.808918 230.462444 
L 104.689878 230.570864 
L 104.570837 230.867621 
L 104.451797 230.850453 
L 103.975638 229.014452 
L 103.856598 229.241677 
L 103.618517 230.614643 
L 103.261397 234.205095 
L 102.666198 243.769675 
L 102.547158 243.144312 
L 102.190038 240.236395 
L 102.070997 240.690159 
L 101.713878 242.609427 
L 101.594837 241.987154 
L 101.356758 238.58547 
L 100.761557 228.11259 
L 100.523478 226.16671 
L 100.404438 226.080352 
L 100.285397 226.864181 
L 99.809237 233.138329 
L 99.690198 233.279454 
L 99.571158 233.116525 
L 99.452117 233.381951 
L 99.214038 237.057816 
L 98.856918 244.224813 
L 98.737878 244.43693 
L 98.380758 242.398769 
L 98.261717 242.657327 
L 98.023638 243.840152 
L 97.904598 243.817232 
L 97.666517 242.229574 
L 96.714198 234.282353 
L 96.595158 234.983086 
L 96.238038 240.248327 
L 95.880918 244.899192 
L 95.642837 246.169319 
L 95.523798 245.700361 
L 95.285717 242.201417 
L 94.928598 236.80149 
L 94.333397 232.513224 
L 94.214358 232.978147 
L 93.857237 237.810312 
L 93.262038 246.567714 
L 93.142997 246.397746 
L 92.904918 240.991466 
L 92.547798 230.412484 
L 92.428758 229.357221 
L 92.309717 229.485041 
L 92.071638 230.106713 
L 91.833557 229.464181 
L 91.714517 229.770296 
L 91.476437 233.92233 
L 91.000277 244.61677 
L 90.643157 247.316691 
L 90.524117 247.118051 
L 90.047957 243.931489 
L 89.809877 246.526767 
L 88.738518 262.797799 
L 88.619478 263.387452 
L 88.500437 263.304614 
L 88.143318 262.366526 
L 88.024277 262.121617 
L 87.905237 261.455136 
L 87.667157 258.230802 
L 86.952918 242.459117 
L 86.476758 233.558529 
L 86.238677 231.789227 
L 86.119638 232.135774 
L 85.881557 235.493506 
L 85.286358 247.242866 
L 84.572117 254.520944 
L 84.334038 254.850236 
L 84.214997 254.839162 
L 84.095957 254.66224 
L 83.857877 253.240344 
L 83.500758 250.902765 
L 83.381717 251.062518 
L 83.024597 252.431964 
L 82.905557 252.092543 
L 82.667478 249.26918 
L 82.310358 244.647416 
L 82.191318 244.566724 
L 81.953238 246.089399 
L 81.238997 252.985563 
L 80.881877 252.189116 
L 80.762837 252.335735 
L 80.048597 254.553392 
L 79.810518 254.455016 
L 79.215317 253.909229 
L 78.739157 252.896459 
L 78.501078 249.27064 
L 77.905877 234.916902 
L 77.667798 233.517668 
L 77.548758 233.406673 
L 77.429717 234.012893 
L 77.191638 238.569933 
L 76.834518 247.085688 
L 76.596437 248.270316 
L 76.477397 248.536771 
L 76.120277 250.213792 
L 76.001238 249.786983 
L 75.763157 246.612696 
L 75.167957 237.562484 
L 74.691798 234.649674 
L 74.572758 234.622805 
L 74.334677 235.23864 
L 74.215638 234.985404 
L 73.739478 230.380722 
L 73.620437 230.674733 
L 73.382358 233.213184 
L 73.025238 240.565086 
L 72.549078 251.793896 
L 71.834837 260.321928 
L 71.715798 259.921043 
L 71.477717 257.557281 
L 70.882518 250.375691 
L 70.763478 250.3817 
L 70.644437 249.980043 
L 70.525397 248.316328 
L 70.168277 235.605102 
L 69.811157 224.92225 
L 69.573078 221.931323 
L 69.454037 221.550525 
L 69.334997 221.895269 
L 69.096918 224.634077 
L 68.858837 230.494635 
L 68.025557 257.498994 
L 67.906518 258.497687 
L 67.787478 257.504488 
L 67.192277 245.620956 
L 66.954198 243.50116 
L 66.597078 239.183106 
L 66.478037 239.093229 
L 66.239958 241.659064 
L 65.763798 248.067899 
L 65.644757 247.656027 
L 65.406678 243.635503 
L 64.097238 212.968671 
L 63.978198 213.486473 
L 63.621078 220.225631 
L 63.263958 225.357129 
L 63.025877 226.089795 
L 62.668757 226.259334 
L 62.549717 226.746834 
L 62.311638 229.320481 
L 62.073557 231.85421 
L 61.954518 231.765706 
L 61.597397 228.663527 
L 61.478358 229.196953 
L 61.240277 234.016756 
L 60.883157 241.674687 
L 60.645078 243.160279 
L 60.406997 244.263785 
L 59.335638 253.219913 
L 59.216597 252.904442 
L 58.621398 249.710411 
L 58.502358 249.581304 
L 58.383317 249.204283 
L 58.145238 246.271128 
L 57.669078 238.583925 
L 56.597717 231.134334 
L 56.478678 231.25872 
L 56.240597 233.084163 
L 55.883477 235.836533 
L 55.764437 235.532221 
L 55.288277 231.009605 
L 55.169238 231.206528 
L 54.574037 234.531984 
L 54.454997 233.999931 
L 53.978837 229.375162 
L 53.859798 230.359176 
L 53.264597 241.199291 
L 52.907477 242.085272 
L 52.669398 246.070257 
L 52.312277 253.022647 
L 52.193238 252.684599 
L 51.955157 248.361738 
L 51.240917 233.331218 
L 51.121877 233.299799 
L 50.883798 234.020791 
L 50.764757 233.357485 
L 50.407637 229.004236 
L 50.288597 229.314815 
L 50.050518 234.232994 
L 49.693398 241.6643 
L 49.574358 241.727309 
L 49.217238 239.619187 
L 49.098197 239.927533 
L 48.741078 243.487682 
L 48.502997 245.296042 
L 48.383958 245.138006 
L 48.264917 243.874489 
L 47.669717 230.83998 
L 47.550678 231.069351 
L 47.312597 233.135496 
L 47.193557 233.133093 
L 46.955477 229.487959 
L 46.598357 223.691611 
L 46.479317 223.54276 
L 46.360277 224.319378 
L 45.646037 232.265825 
L 45.526997 232.169596 
L 45.407958 232.381369 
L 45.169877 234.407941 
L 44.931798 238.748314 
L 44.455637 250.011719 
L 44.336597 250.615364 
L 44.217557 250.184777 
L 43.622357 246.316539 
L 43.384277 245.572112 
L 43.146197 243.331792 
L 42.789077 239.792245 
L 42.550997 238.536883 
L 41.479637 226.083872 
L 41.122518 217.988916 
L 41.003477 217.747527 
L 40.765398 221.189986 
L 40.289238 231.371431 
L 39.574997 255.196267 
L 39.455958 255.031106 
L 39.217877 252.982301 
L 38.979798 248.885292 
L 38.503637 233.078755 
L 38.146518 223.81428 
L 37.908437 221.783159 
L 37.789398 222.071675 
L 37.789398 222.071675 
" clip-path="url(#p954bc47535)" style="fill: none; stroke: #4c72b0; stroke-linecap: round"/>
   </g>
   <g id="patch_3">
    <path d="M 37.908438 277.248797 
L 37.908438 11.136797 
" style="fill: none; stroke: #262626; stroke-width: 1.25; stroke-linejoin: miter; stroke-linecap: square"/>
   </g>
   <g id="patch_4">
    <path d="M 37.908437 277.248797 
L 395.028438 277.248797 
" style="fill: none; stroke: #262626; stroke-width: 1.25; stroke-linejoin: miter; stroke-linecap: square"/>
   </g>
   <g id="legend_1"/>
  </g>
 </g>
 <defs>
  <clipPath id="p954bc47535">
   <rect x="37.908438" y="11.136797" width="357.12" height="266.112"/>
  </clipPath>
 </defs>
</svg>
