<?xml version="1.0" encoding="utf-8" standalone="no"?>
<!DOCTYPE svg PUBLIC "-//W3C//DTD SVG 1.1//EN"
  "http://www.w3.org/Graphics/SVG/1.1/DTD/svg11.dtd">
<svg xmlns:xlink="http://www.w3.org/1999/xlink" width="423.924922pt" height="319.168641pt" viewBox="0 0 423.924922 319.168641" xmlns="http://www.w3.org/2000/svg" version="1.1">
 <metadata>
  <rdf:RDF xmlns:dc="http://purl.org/dc/elements/1.1/" xmlns:cc="http://creativecommons.org/ns#" xmlns:rdf="http://www.w3.org/1999/02/22-rdf-syntax-ns#">
   <cc:Work>
    <dc:type rdf:resource="http://purl.org/dc/dcmitype/StillImage"/>
    <dc:date>2023-10-04T16:45:33.827674</dc:date>
    <dc:format>image/svg+xml</dc:format>
    <dc:creator>
     <cc:Agent>
      <dc:title>Matplotlib v3.7.1, https://matplotlib.org/</dc:title>
     </cc:Agent>
    </dc:creator>
   </cc:Work>
  </rdf:RDF>
 </metadata>
 <defs>
  <style type="text/css">*{stroke-linejoin: round; stroke-linecap: butt}</style>
 </defs>
 <g id="figure_1">
  <g id="patch_1">
   <path d="M 0 319.168641 
L 423.924922 319.168641 
L 423.924922 0 
L 0 0 
z
" style="fill: #ffffff"/>
  </g>
  <g id="axes_1">
   <g id="patch_2">
    <path d="M 50.429375 277.248797 
L 407.549375 277.248797 
L 407.549375 11.136797 
L 50.429375 11.136797 
z
" style="fill: #ffffff"/>
   </g>
   <g id="matplotlib.axis_1">
    <g id="xtick_1">
     <g id="line2d_1">
      <defs>
       <path id="m629c73545a" d="M 0 0 
L 0 -6 
" style="stroke: #262626; stroke-width: 1.25"/>
      </defs>
      <g>
       <use xlink:href="#m629c73545a" x="407.549375" y="277.248797" style="fill: #262626; stroke: #262626; stroke-width: 1.25"/>
      </g>
     </g>
     <g id="text_1">
      <!-- 800 -->
      <g style="fill: #262626" transform="translate(398.373828 288.622391) scale(0.11 -0.11)">
       <defs>
        <path id="ArialMT-38" d="M 1131 2484 
Q 781 2613 612 2850 
Q 444 3088 444 3419 
Q 444 3919 803 4259 
Q 1163 4600 1759 4600 
Q 2359 4600 2725 4251 
Q 3091 3903 3091 3403 
Q 3091 3084 2923 2848 
Q 2756 2613 2416 2484 
Q 2838 2347 3058 2040 
Q 3278 1734 3278 1309 
Q 3278 722 2862 322 
Q 2447 -78 1769 -78 
Q 1091 -78 675 323 
Q 259 725 259 1325 
Q 259 1772 486 2073 
Q 713 2375 1131 2484 
z
M 1019 3438 
Q 1019 3113 1228 2906 
Q 1438 2700 1772 2700 
Q 2097 2700 2305 2904 
Q 2513 3109 2513 3406 
Q 2513 3716 2298 3927 
Q 2084 4138 1766 4138 
Q 1444 4138 1231 3931 
Q 1019 3725 1019 3438 
z
M 838 1322 
Q 838 1081 952 856 
Q 1066 631 1291 507 
Q 1516 384 1775 384 
Q 2178 384 2440 643 
Q 2703 903 2703 1303 
Q 2703 1709 2433 1975 
Q 2163 2241 1756 2241 
Q 1359 2241 1098 1978 
Q 838 1716 838 1322 
z
" transform="scale(0.015625)"/>
        <path id="ArialMT-30" d="M 266 2259 
Q 266 3072 433 3567 
Q 600 4063 929 4331 
Q 1259 4600 1759 4600 
Q 2128 4600 2406 4451 
Q 2684 4303 2865 4023 
Q 3047 3744 3150 3342 
Q 3253 2941 3253 2259 
Q 3253 1453 3087 958 
Q 2922 463 2592 192 
Q 2263 -78 1759 -78 
Q 1097 -78 719 397 
Q 266 969 266 2259 
z
M 844 2259 
Q 844 1131 1108 757 
Q 1372 384 1759 384 
Q 2147 384 2411 759 
Q 2675 1134 2675 2259 
Q 2675 3391 2411 3762 
Q 2147 4134 1753 4134 
Q 1366 4134 1134 3806 
Q 844 3388 844 2259 
z
" transform="scale(0.015625)"/>
       </defs>
       <use xlink:href="#ArialMT-38"/>
       <use xlink:href="#ArialMT-30" x="55.615234"/>
       <use xlink:href="#ArialMT-30" x="111.230469"/>
      </g>
     </g>
    </g>
    <g id="xtick_2">
     <g id="line2d_2">
      <g>
       <use xlink:href="#m629c73545a" x="367.869375" y="277.248797" style="fill: #262626; stroke: #262626; stroke-width: 1.25"/>
      </g>
     </g>
     <g id="text_2">
      <!-- 900 -->
      <g style="fill: #262626" transform="translate(358.693828 288.622391) scale(0.11 -0.11)">
       <defs>
        <path id="ArialMT-39" d="M 350 1059 
L 891 1109 
Q 959 728 1153 556 
Q 1347 384 1650 384 
Q 1909 384 2104 503 
Q 2300 622 2425 820 
Q 2550 1019 2634 1356 
Q 2719 1694 2719 2044 
Q 2719 2081 2716 2156 
Q 2547 1888 2255 1720 
Q 1963 1553 1622 1553 
Q 1053 1553 659 1965 
Q 266 2378 266 3053 
Q 266 3750 677 4175 
Q 1088 4600 1706 4600 
Q 2153 4600 2523 4359 
Q 2894 4119 3086 3673 
Q 3278 3228 3278 2384 
Q 3278 1506 3087 986 
Q 2897 466 2520 194 
Q 2144 -78 1638 -78 
Q 1100 -78 759 220 
Q 419 519 350 1059 
z
M 2653 3081 
Q 2653 3566 2395 3850 
Q 2138 4134 1775 4134 
Q 1400 4134 1122 3828 
Q 844 3522 844 3034 
Q 844 2597 1108 2323 
Q 1372 2050 1759 2050 
Q 2150 2050 2401 2323 
Q 2653 2597 2653 3081 
z
" transform="scale(0.015625)"/>
       </defs>
       <use xlink:href="#ArialMT-39"/>
       <use xlink:href="#ArialMT-30" x="55.615234"/>
       <use xlink:href="#ArialMT-30" x="111.230469"/>
      </g>
     </g>
    </g>
    <g id="xtick_3">
     <g id="line2d_3">
      <g>
       <use xlink:href="#m629c73545a" x="328.189375" y="277.248797" style="fill: #262626; stroke: #262626; stroke-width: 1.25"/>
      </g>
     </g>
     <g id="text_3">
      <!-- 1000 -->
      <g style="fill: #262626" transform="translate(315.955313 288.622391) scale(0.11 -0.11)">
       <defs>
        <path id="ArialMT-31" d="M 2384 0 
L 1822 0 
L 1822 3584 
Q 1619 3391 1289 3197 
Q 959 3003 697 2906 
L 697 3450 
Q 1169 3672 1522 3987 
Q 1875 4303 2022 4600 
L 2384 4600 
L 2384 0 
z
" transform="scale(0.015625)"/>
       </defs>
       <use xlink:href="#ArialMT-31"/>
       <use xlink:href="#ArialMT-30" x="55.615234"/>
       <use xlink:href="#ArialMT-30" x="111.230469"/>
       <use xlink:href="#ArialMT-30" x="166.845703"/>
      </g>
     </g>
    </g>
    <g id="xtick_4">
     <g id="line2d_4">
      <g>
       <use xlink:href="#m629c73545a" x="288.509375" y="277.248797" style="fill: #262626; stroke: #262626; stroke-width: 1.25"/>
      </g>
     </g>
     <g id="text_4">
      <!-- 1100 -->
      <g style="fill: #262626" transform="translate(276.680938 288.622391) scale(0.11 -0.11)">
       <use xlink:href="#ArialMT-31"/>
       <use xlink:href="#ArialMT-31" x="48.240234"/>
       <use xlink:href="#ArialMT-30" x="103.855469"/>
       <use xlink:href="#ArialMT-30" x="159.470703"/>
      </g>
     </g>
    </g>
    <g id="xtick_5">
     <g id="line2d_5">
      <g>
       <use xlink:href="#m629c73545a" x="248.829375" y="277.248797" style="fill: #262626; stroke: #262626; stroke-width: 1.25"/>
      </g>
     </g>
     <g id="text_5">
      <!-- 1200 -->
      <g style="fill: #262626" transform="translate(236.595313 288.622391) scale(0.11 -0.11)">
       <defs>
        <path id="ArialMT-32" d="M 3222 541 
L 3222 0 
L 194 0 
Q 188 203 259 391 
Q 375 700 629 1000 
Q 884 1300 1366 1694 
Q 2113 2306 2375 2664 
Q 2638 3022 2638 3341 
Q 2638 3675 2398 3904 
Q 2159 4134 1775 4134 
Q 1369 4134 1125 3890 
Q 881 3647 878 3216 
L 300 3275 
Q 359 3922 746 4261 
Q 1134 4600 1788 4600 
Q 2447 4600 2831 4234 
Q 3216 3869 3216 3328 
Q 3216 3053 3103 2787 
Q 2991 2522 2730 2228 
Q 2469 1934 1863 1422 
Q 1356 997 1212 845 
Q 1069 694 975 541 
L 3222 541 
z
" transform="scale(0.015625)"/>
       </defs>
       <use xlink:href="#ArialMT-31"/>
       <use xlink:href="#ArialMT-32" x="55.615234"/>
       <use xlink:href="#ArialMT-30" x="111.230469"/>
       <use xlink:href="#ArialMT-30" x="166.845703"/>
      </g>
     </g>
    </g>
    <g id="xtick_6">
     <g id="line2d_6">
      <g>
       <use xlink:href="#m629c73545a" x="209.149375" y="277.248797" style="fill: #262626; stroke: #262626; stroke-width: 1.25"/>
      </g>
     </g>
     <g id="text_6">
      <!-- 1300 -->
      <g style="fill: #262626" transform="translate(196.915313 288.622391) scale(0.11 -0.11)">
       <defs>
        <path id="ArialMT-33" d="M 269 1209 
L 831 1284 
Q 928 806 1161 595 
Q 1394 384 1728 384 
Q 2125 384 2398 659 
Q 2672 934 2672 1341 
Q 2672 1728 2419 1979 
Q 2166 2231 1775 2231 
Q 1616 2231 1378 2169 
L 1441 2663 
Q 1497 2656 1531 2656 
Q 1891 2656 2178 2843 
Q 2466 3031 2466 3422 
Q 2466 3731 2256 3934 
Q 2047 4138 1716 4138 
Q 1388 4138 1169 3931 
Q 950 3725 888 3313 
L 325 3413 
Q 428 3978 793 4289 
Q 1159 4600 1703 4600 
Q 2078 4600 2393 4439 
Q 2709 4278 2876 4000 
Q 3044 3722 3044 3409 
Q 3044 3113 2884 2869 
Q 2725 2625 2413 2481 
Q 2819 2388 3044 2092 
Q 3269 1797 3269 1353 
Q 3269 753 2831 336 
Q 2394 -81 1725 -81 
Q 1122 -81 723 278 
Q 325 638 269 1209 
z
" transform="scale(0.015625)"/>
       </defs>
       <use xlink:href="#ArialMT-31"/>
       <use xlink:href="#ArialMT-33" x="55.615234"/>
       <use xlink:href="#ArialMT-30" x="111.230469"/>
       <use xlink:href="#ArialMT-30" x="166.845703"/>
      </g>
     </g>
    </g>
    <g id="xtick_7">
     <g id="line2d_7">
      <g>
       <use xlink:href="#m629c73545a" x="169.469375" y="277.248797" style="fill: #262626; stroke: #262626; stroke-width: 1.25"/>
      </g>
     </g>
     <g id="text_7">
      <!-- 1400 -->
      <g style="fill: #262626" transform="translate(157.235313 288.622391) scale(0.11 -0.11)">
       <defs>
        <path id="ArialMT-34" d="M 2069 0 
L 2069 1097 
L 81 1097 
L 81 1613 
L 2172 4581 
L 2631 4581 
L 2631 1613 
L 3250 1613 
L 3250 1097 
L 2631 1097 
L 2631 0 
L 2069 0 
z
M 2069 1613 
L 2069 3678 
L 634 1613 
L 2069 1613 
z
" transform="scale(0.015625)"/>
       </defs>
       <use xlink:href="#ArialMT-31"/>
       <use xlink:href="#ArialMT-34" x="55.615234"/>
       <use xlink:href="#ArialMT-30" x="111.230469"/>
       <use xlink:href="#ArialMT-30" x="166.845703"/>
      </g>
     </g>
    </g>
    <g id="xtick_8">
     <g id="line2d_8">
      <g>
       <use xlink:href="#m629c73545a" x="129.789375" y="277.248797" style="fill: #262626; stroke: #262626; stroke-width: 1.25"/>
      </g>
     </g>
     <g id="text_8">
      <!-- 1500 -->
      <g style="fill: #262626" transform="translate(117.555313 288.622391) scale(0.11 -0.11)">
       <defs>
        <path id="ArialMT-35" d="M 266 1200 
L 856 1250 
Q 922 819 1161 601 
Q 1400 384 1738 384 
Q 2144 384 2425 690 
Q 2706 997 2706 1503 
Q 2706 1984 2436 2262 
Q 2166 2541 1728 2541 
Q 1456 2541 1237 2417 
Q 1019 2294 894 2097 
L 366 2166 
L 809 4519 
L 3088 4519 
L 3088 3981 
L 1259 3981 
L 1013 2750 
Q 1425 3038 1878 3038 
Q 2478 3038 2890 2622 
Q 3303 2206 3303 1553 
Q 3303 931 2941 478 
Q 2500 -78 1738 -78 
Q 1113 -78 717 272 
Q 322 622 266 1200 
z
" transform="scale(0.015625)"/>
       </defs>
       <use xlink:href="#ArialMT-31"/>
       <use xlink:href="#ArialMT-35" x="55.615234"/>
       <use xlink:href="#ArialMT-30" x="111.230469"/>
       <use xlink:href="#ArialMT-30" x="166.845703"/>
      </g>
     </g>
    </g>
    <g id="xtick_9">
     <g id="line2d_9">
      <g>
       <use xlink:href="#m629c73545a" x="90.109375" y="277.248797" style="fill: #262626; stroke: #262626; stroke-width: 1.25"/>
      </g>
     </g>
     <g id="text_9">
      <!-- 1600 -->
      <g style="fill: #262626" transform="translate(77.875313 288.622391) scale(0.11 -0.11)">
       <defs>
        <path id="ArialMT-36" d="M 3184 3459 
L 2625 3416 
Q 2550 3747 2413 3897 
Q 2184 4138 1850 4138 
Q 1581 4138 1378 3988 
Q 1113 3794 959 3422 
Q 806 3050 800 2363 
Q 1003 2672 1297 2822 
Q 1591 2972 1913 2972 
Q 2475 2972 2870 2558 
Q 3266 2144 3266 1488 
Q 3266 1056 3080 686 
Q 2894 316 2569 119 
Q 2244 -78 1831 -78 
Q 1128 -78 684 439 
Q 241 956 241 2144 
Q 241 3472 731 4075 
Q 1159 4600 1884 4600 
Q 2425 4600 2770 4297 
Q 3116 3994 3184 3459 
z
M 888 1484 
Q 888 1194 1011 928 
Q 1134 663 1356 523 
Q 1578 384 1822 384 
Q 2178 384 2434 671 
Q 2691 959 2691 1453 
Q 2691 1928 2437 2201 
Q 2184 2475 1800 2475 
Q 1419 2475 1153 2201 
Q 888 1928 888 1484 
z
" transform="scale(0.015625)"/>
       </defs>
       <use xlink:href="#ArialMT-31"/>
       <use xlink:href="#ArialMT-36" x="55.615234"/>
       <use xlink:href="#ArialMT-30" x="111.230469"/>
       <use xlink:href="#ArialMT-30" x="166.845703"/>
      </g>
     </g>
    </g>
    <g id="xtick_10">
     <g id="line2d_10">
      <g>
       <use xlink:href="#m629c73545a" x="50.429375" y="277.248797" style="fill: #262626; stroke: #262626; stroke-width: 1.25"/>
      </g>
     </g>
     <g id="text_10">
      <!-- 1700 -->
      <g style="fill: #262626" transform="translate(38.195313 288.622391) scale(0.11 -0.11)">
       <defs>
        <path id="ArialMT-37" d="M 303 3981 
L 303 4522 
L 3269 4522 
L 3269 4084 
Q 2831 3619 2401 2847 
Q 1972 2075 1738 1259 
Q 1569 684 1522 0 
L 944 0 
Q 953 541 1156 1306 
Q 1359 2072 1739 2783 
Q 2119 3494 2547 3981 
L 303 3981 
z
" transform="scale(0.015625)"/>
       </defs>
       <use xlink:href="#ArialMT-31"/>
       <use xlink:href="#ArialMT-37" x="55.615234"/>
       <use xlink:href="#ArialMT-30" x="111.230469"/>
       <use xlink:href="#ArialMT-30" x="166.845703"/>
      </g>
     </g>
    </g>
    <g id="xtick_11">
     <g id="line2d_11">
      <defs>
       <path id="mb06713c17f" d="M 0 0 
L 0 -4 
" style="stroke: #262626"/>
      </defs>
      <g>
       <use xlink:href="#mb06713c17f" x="387.709375" y="277.248797" style="fill: #262626; stroke: #262626"/>
      </g>
     </g>
    </g>
    <g id="xtick_12">
     <g id="line2d_12">
      <g>
       <use xlink:href="#mb06713c17f" x="348.029375" y="277.248797" style="fill: #262626; stroke: #262626"/>
      </g>
     </g>
    </g>
    <g id="xtick_13">
     <g id="line2d_13">
      <g>
       <use xlink:href="#mb06713c17f" x="308.349375" y="277.248797" style="fill: #262626; stroke: #262626"/>
      </g>
     </g>
    </g>
    <g id="xtick_14">
     <g id="line2d_14">
      <g>
       <use xlink:href="#mb06713c17f" x="268.669375" y="277.248797" style="fill: #262626; stroke: #262626"/>
      </g>
     </g>
    </g>
    <g id="xtick_15">
     <g id="line2d_15">
      <g>
       <use xlink:href="#mb06713c17f" x="228.989375" y="277.248797" style="fill: #262626; stroke: #262626"/>
      </g>
     </g>
    </g>
    <g id="xtick_16">
     <g id="line2d_16">
      <g>
       <use xlink:href="#mb06713c17f" x="189.309375" y="277.248797" style="fill: #262626; stroke: #262626"/>
      </g>
     </g>
    </g>
    <g id="xtick_17">
     <g id="line2d_17">
      <g>
       <use xlink:href="#mb06713c17f" x="149.629375" y="277.248797" style="fill: #262626; stroke: #262626"/>
      </g>
     </g>
    </g>
    <g id="xtick_18">
     <g id="line2d_18">
      <g>
       <use xlink:href="#mb06713c17f" x="109.949375" y="277.248797" style="fill: #262626; stroke: #262626"/>
      </g>
     </g>
    </g>
    <g id="xtick_19">
     <g id="line2d_19">
      <g>
       <use xlink:href="#mb06713c17f" x="70.269375" y="277.248797" style="fill: #262626; stroke: #262626"/>
      </g>
     </g>
    </g>
    <g id="text_11">
     <!-- Wavenumber ($\mathregular{cm^{-1}}$) -->
     <g style="fill: #262626" transform="translate(174.449375 309.328641) scale(0.12 -0.12)">
      <defs>
       <path id="ArialMT-57" d="M 1294 0 
L 78 4581 
L 700 4581 
L 1397 1578 
Q 1509 1106 1591 641 
Q 1766 1375 1797 1488 
L 2669 4581 
L 3400 4581 
L 4056 2263 
Q 4303 1400 4413 641 
Q 4500 1075 4641 1638 
L 5359 4581 
L 5969 4581 
L 4713 0 
L 4128 0 
L 3163 3491 
Q 3041 3928 3019 4028 
Q 2947 3713 2884 3491 
L 1913 0 
L 1294 0 
z
" transform="scale(0.015625)"/>
       <path id="ArialMT-61" d="M 2588 409 
Q 2275 144 1986 34 
Q 1697 -75 1366 -75 
Q 819 -75 525 192 
Q 231 459 231 875 
Q 231 1119 342 1320 
Q 453 1522 633 1644 
Q 813 1766 1038 1828 
Q 1203 1872 1538 1913 
Q 2219 1994 2541 2106 
Q 2544 2222 2544 2253 
Q 2544 2597 2384 2738 
Q 2169 2928 1744 2928 
Q 1347 2928 1158 2789 
Q 969 2650 878 2297 
L 328 2372 
Q 403 2725 575 2942 
Q 747 3159 1072 3276 
Q 1397 3394 1825 3394 
Q 2250 3394 2515 3294 
Q 2781 3194 2906 3042 
Q 3031 2891 3081 2659 
Q 3109 2516 3109 2141 
L 3109 1391 
Q 3109 606 3145 398 
Q 3181 191 3288 0 
L 2700 0 
Q 2613 175 2588 409 
z
M 2541 1666 
Q 2234 1541 1622 1453 
Q 1275 1403 1131 1340 
Q 988 1278 909 1158 
Q 831 1038 831 891 
Q 831 666 1001 516 
Q 1172 366 1500 366 
Q 1825 366 2078 508 
Q 2331 650 2450 897 
Q 2541 1088 2541 1459 
L 2541 1666 
z
" transform="scale(0.015625)"/>
       <path id="ArialMT-76" d="M 1344 0 
L 81 3319 
L 675 3319 
L 1388 1331 
Q 1503 1009 1600 663 
Q 1675 925 1809 1294 
L 2547 3319 
L 3125 3319 
L 1869 0 
L 1344 0 
z
" transform="scale(0.015625)"/>
       <path id="ArialMT-65" d="M 2694 1069 
L 3275 997 
Q 3138 488 2766 206 
Q 2394 -75 1816 -75 
Q 1088 -75 661 373 
Q 234 822 234 1631 
Q 234 2469 665 2931 
Q 1097 3394 1784 3394 
Q 2450 3394 2872 2941 
Q 3294 2488 3294 1666 
Q 3294 1616 3291 1516 
L 816 1516 
Q 847 969 1125 678 
Q 1403 388 1819 388 
Q 2128 388 2347 550 
Q 2566 713 2694 1069 
z
M 847 1978 
L 2700 1978 
Q 2663 2397 2488 2606 
Q 2219 2931 1791 2931 
Q 1403 2931 1139 2672 
Q 875 2413 847 1978 
z
" transform="scale(0.015625)"/>
       <path id="ArialMT-6e" d="M 422 0 
L 422 3319 
L 928 3319 
L 928 2847 
Q 1294 3394 1984 3394 
Q 2284 3394 2536 3286 
Q 2788 3178 2913 3003 
Q 3038 2828 3088 2588 
Q 3119 2431 3119 2041 
L 3119 0 
L 2556 0 
L 2556 2019 
Q 2556 2363 2490 2533 
Q 2425 2703 2258 2804 
Q 2091 2906 1866 2906 
Q 1506 2906 1245 2678 
Q 984 2450 984 1813 
L 984 0 
L 422 0 
z
" transform="scale(0.015625)"/>
       <path id="ArialMT-75" d="M 2597 0 
L 2597 488 
Q 2209 -75 1544 -75 
Q 1250 -75 995 37 
Q 741 150 617 320 
Q 494 491 444 738 
Q 409 903 409 1263 
L 409 3319 
L 972 3319 
L 972 1478 
Q 972 1038 1006 884 
Q 1059 663 1231 536 
Q 1403 409 1656 409 
Q 1909 409 2131 539 
Q 2353 669 2445 892 
Q 2538 1116 2538 1541 
L 2538 3319 
L 3100 3319 
L 3100 0 
L 2597 0 
z
" transform="scale(0.015625)"/>
       <path id="ArialMT-6d" d="M 422 0 
L 422 3319 
L 925 3319 
L 925 2853 
Q 1081 3097 1340 3245 
Q 1600 3394 1931 3394 
Q 2300 3394 2536 3241 
Q 2772 3088 2869 2813 
Q 3263 3394 3894 3394 
Q 4388 3394 4653 3120 
Q 4919 2847 4919 2278 
L 4919 0 
L 4359 0 
L 4359 2091 
Q 4359 2428 4304 2576 
Q 4250 2725 4106 2815 
Q 3963 2906 3769 2906 
Q 3419 2906 3187 2673 
Q 2956 2441 2956 1928 
L 2956 0 
L 2394 0 
L 2394 2156 
Q 2394 2531 2256 2718 
Q 2119 2906 1806 2906 
Q 1569 2906 1367 2781 
Q 1166 2656 1075 2415 
Q 984 2175 984 1722 
L 984 0 
L 422 0 
z
" transform="scale(0.015625)"/>
       <path id="ArialMT-62" d="M 941 0 
L 419 0 
L 419 4581 
L 981 4581 
L 981 2947 
Q 1338 3394 1891 3394 
Q 2197 3394 2470 3270 
Q 2744 3147 2920 2923 
Q 3097 2700 3197 2384 
Q 3297 2069 3297 1709 
Q 3297 856 2875 390 
Q 2453 -75 1863 -75 
Q 1275 -75 941 416 
L 941 0 
z
M 934 1684 
Q 934 1088 1097 822 
Q 1363 388 1816 388 
Q 2184 388 2453 708 
Q 2722 1028 2722 1663 
Q 2722 2313 2464 2622 
Q 2206 2931 1841 2931 
Q 1472 2931 1203 2611 
Q 934 2291 934 1684 
z
" transform="scale(0.015625)"/>
       <path id="ArialMT-72" d="M 416 0 
L 416 3319 
L 922 3319 
L 922 2816 
Q 1116 3169 1280 3281 
Q 1444 3394 1641 3394 
Q 1925 3394 2219 3213 
L 2025 2691 
Q 1819 2813 1613 2813 
Q 1428 2813 1281 2702 
Q 1134 2591 1072 2394 
Q 978 2094 978 1738 
L 978 0 
L 416 0 
z
" transform="scale(0.015625)"/>
       <path id="ArialMT-20" transform="scale(0.015625)"/>
       <path id="ArialMT-28" d="M 1497 -1347 
Q 1031 -759 709 28 
Q 388 816 388 1659 
Q 388 2403 628 3084 
Q 909 3875 1497 4659 
L 1900 4659 
Q 1522 4009 1400 3731 
Q 1209 3300 1100 2831 
Q 966 2247 966 1656 
Q 966 153 1900 -1347 
L 1497 -1347 
z
" transform="scale(0.015625)"/>
       <path id="ArialMT-63" d="M 2588 1216 
L 3141 1144 
Q 3050 572 2676 248 
Q 2303 -75 1759 -75 
Q 1078 -75 664 370 
Q 250 816 250 1647 
Q 250 2184 428 2587 
Q 606 2991 970 3192 
Q 1334 3394 1763 3394 
Q 2303 3394 2647 3120 
Q 2991 2847 3088 2344 
L 2541 2259 
Q 2463 2594 2264 2762 
Q 2066 2931 1784 2931 
Q 1359 2931 1093 2626 
Q 828 2322 828 1663 
Q 828 994 1084 691 
Q 1341 388 1753 388 
Q 2084 388 2306 591 
Q 2528 794 2588 1216 
z
" transform="scale(0.015625)"/>
       <path id="ArialMT-2212" d="M 3381 1997 
L 356 1997 
L 356 2522 
L 3381 2522 
L 3381 1997 
z
" transform="scale(0.015625)"/>
       <path id="ArialMT-29" d="M 791 -1347 
L 388 -1347 
Q 1322 153 1322 1656 
Q 1322 2244 1188 2822 
Q 1081 3291 891 3722 
Q 769 4003 388 4659 
L 791 4659 
Q 1378 3875 1659 3084 
Q 1900 2403 1900 1659 
Q 1900 816 1576 28 
Q 1253 -759 791 -1347 
z
" transform="scale(0.015625)"/>
      </defs>
      <use xlink:href="#ArialMT-57" transform="translate(0 0.99375)"/>
      <use xlink:href="#ArialMT-61" transform="translate(94.384766 0.99375)"/>
      <use xlink:href="#ArialMT-76" transform="translate(150 0.99375)"/>
      <use xlink:href="#ArialMT-65" transform="translate(200 0.99375)"/>
      <use xlink:href="#ArialMT-6e" transform="translate(255.615234 0.99375)"/>
      <use xlink:href="#ArialMT-75" transform="translate(311.230469 0.99375)"/>
      <use xlink:href="#ArialMT-6d" transform="translate(366.845703 0.99375)"/>
      <use xlink:href="#ArialMT-62" transform="translate(450.146484 0.99375)"/>
      <use xlink:href="#ArialMT-65" transform="translate(505.761719 0.99375)"/>
      <use xlink:href="#ArialMT-72" transform="translate(561.376953 0.99375)"/>
      <use xlink:href="#ArialMT-20" transform="translate(594.677734 0.99375)"/>
      <use xlink:href="#ArialMT-28" transform="translate(622.460938 0.99375)"/>
      <use xlink:href="#ArialMT-63" transform="translate(655.761719 0.99375)"/>
      <use xlink:href="#ArialMT-6d" transform="translate(705.761719 0.99375)"/>
      <use xlink:href="#ArialMT-2212" transform="translate(790.804844 70.6875) scale(0.7)"/>
      <use xlink:href="#ArialMT-31" transform="translate(831.68375 70.6875) scale(0.7)"/>
      <use xlink:href="#ArialMT-29" transform="translate(875.592539 0.99375)"/>
     </g>
    </g>
   </g>
   <g id="matplotlib.axis_2">
    <g id="ytick_1">
     <g id="line2d_20">
      <defs>
       <path id="m8add35a0b7" d="M 0 0 
L 6 0 
" style="stroke: #262626; stroke-width: 1.25"/>
      </defs>
      <g>
       <use xlink:href="#m8add35a0b7" x="50.429375" y="264.576797" style="fill: #262626; stroke: #262626; stroke-width: 1.25"/>
      </g>
     </g>
     <g id="text_12">
      <!-- 0 -->
      <g style="fill: #262626" transform="translate(40.812344 268.513594) scale(0.11 -0.11)">
       <use xlink:href="#ArialMT-30"/>
      </g>
     </g>
    </g>
    <g id="ytick_2">
     <g id="line2d_21">
      <g>
       <use xlink:href="#m8add35a0b7" x="50.429375" y="213.888797" style="fill: #262626; stroke: #262626; stroke-width: 1.25"/>
      </g>
     </g>
     <g id="text_13">
      <!-- 200 -->
      <g style="fill: #262626" transform="translate(28.578281 217.825594) scale(0.11 -0.11)">
       <use xlink:href="#ArialMT-32"/>
       <use xlink:href="#ArialMT-30" x="55.615234"/>
       <use xlink:href="#ArialMT-30" x="111.230469"/>
      </g>
     </g>
    </g>
    <g id="ytick_3">
     <g id="line2d_22">
      <g>
       <use xlink:href="#m8add35a0b7" x="50.429375" y="163.200797" style="fill: #262626; stroke: #262626; stroke-width: 1.25"/>
      </g>
     </g>
     <g id="text_14">
      <!-- 400 -->
      <g style="fill: #262626" transform="translate(28.578281 167.137594) scale(0.11 -0.11)">
       <use xlink:href="#ArialMT-34"/>
       <use xlink:href="#ArialMT-30" x="55.615234"/>
       <use xlink:href="#ArialMT-30" x="111.230469"/>
      </g>
     </g>
    </g>
    <g id="ytick_4">
     <g id="line2d_23">
      <g>
       <use xlink:href="#m8add35a0b7" x="50.429375" y="112.512797" style="fill: #262626; stroke: #262626; stroke-width: 1.25"/>
      </g>
     </g>
     <g id="text_15">
      <!-- 600 -->
      <g style="fill: #262626" transform="translate(28.578281 116.449594) scale(0.11 -0.11)">
       <use xlink:href="#ArialMT-36"/>
       <use xlink:href="#ArialMT-30" x="55.615234"/>
       <use xlink:href="#ArialMT-30" x="111.230469"/>
      </g>
     </g>
    </g>
    <g id="ytick_5">
     <g id="line2d_24">
      <g>
       <use xlink:href="#m8add35a0b7" x="50.429375" y="61.824797" style="fill: #262626; stroke: #262626; stroke-width: 1.25"/>
      </g>
     </g>
     <g id="text_16">
      <!-- 800 -->
      <g style="fill: #262626" transform="translate(28.578281 65.761594) scale(0.11 -0.11)">
       <use xlink:href="#ArialMT-38"/>
       <use xlink:href="#ArialMT-30" x="55.615234"/>
       <use xlink:href="#ArialMT-30" x="111.230469"/>
      </g>
     </g>
    </g>
    <g id="ytick_6">
     <g id="line2d_25">
      <g>
       <use xlink:href="#m8add35a0b7" x="50.429375" y="11.136797" style="fill: #262626; stroke: #262626; stroke-width: 1.25"/>
      </g>
     </g>
     <g id="text_17">
      <!-- 1000 -->
      <g style="fill: #262626" transform="translate(22.46125 15.073594) scale(0.11 -0.11)">
       <use xlink:href="#ArialMT-31"/>
       <use xlink:href="#ArialMT-30" x="55.615234"/>
       <use xlink:href="#ArialMT-30" x="111.230469"/>
       <use xlink:href="#ArialMT-30" x="166.845703"/>
      </g>
     </g>
    </g>
    <g id="ytick_7">
     <g id="line2d_26">
      <defs>
       <path id="m781b483d4b" d="M 0 0 
L 4 0 
" style="stroke: #262626"/>
      </defs>
      <g>
       <use xlink:href="#m781b483d4b" x="50.429375" y="239.232797" style="fill: #262626; stroke: #262626"/>
      </g>
     </g>
    </g>
    <g id="ytick_8">
     <g id="line2d_27">
      <g>
       <use xlink:href="#m781b483d4b" x="50.429375" y="188.544797" style="fill: #262626; stroke: #262626"/>
      </g>
     </g>
    </g>
    <g id="ytick_9">
     <g id="line2d_28">
      <g>
       <use xlink:href="#m781b483d4b" x="50.429375" y="137.856797" style="fill: #262626; stroke: #262626"/>
      </g>
     </g>
    </g>
    <g id="ytick_10">
     <g id="line2d_29">
      <g>
       <use xlink:href="#m781b483d4b" x="50.429375" y="87.168797" style="fill: #262626; stroke: #262626"/>
      </g>
     </g>
    </g>
    <g id="ytick_11">
     <g id="line2d_30">
      <g>
       <use xlink:href="#m781b483d4b" x="50.429375" y="36.480797" style="fill: #262626; stroke: #262626"/>
      </g>
     </g>
    </g>
    <g id="text_18">
     <!-- Intensity (a.u.) -->
     <g style="fill: #262626" transform="translate(15.935625 182.205609) rotate(-90) scale(0.12 -0.12)">
      <defs>
       <path id="ArialMT-49" d="M 597 0 
L 597 4581 
L 1203 4581 
L 1203 0 
L 597 0 
z
" transform="scale(0.015625)"/>
       <path id="ArialMT-74" d="M 1650 503 
L 1731 6 
Q 1494 -44 1306 -44 
Q 1000 -44 831 53 
Q 663 150 594 308 
Q 525 466 525 972 
L 525 2881 
L 113 2881 
L 113 3319 
L 525 3319 
L 525 4141 
L 1084 4478 
L 1084 3319 
L 1650 3319 
L 1650 2881 
L 1084 2881 
L 1084 941 
Q 1084 700 1114 631 
Q 1144 563 1211 522 
Q 1278 481 1403 481 
Q 1497 481 1650 503 
z
" transform="scale(0.015625)"/>
       <path id="ArialMT-73" d="M 197 991 
L 753 1078 
Q 800 744 1014 566 
Q 1228 388 1613 388 
Q 2000 388 2187 545 
Q 2375 703 2375 916 
Q 2375 1106 2209 1216 
Q 2094 1291 1634 1406 
Q 1016 1563 777 1677 
Q 538 1791 414 1992 
Q 291 2194 291 2438 
Q 291 2659 392 2848 
Q 494 3038 669 3163 
Q 800 3259 1026 3326 
Q 1253 3394 1513 3394 
Q 1903 3394 2198 3281 
Q 2494 3169 2634 2976 
Q 2775 2784 2828 2463 
L 2278 2388 
Q 2241 2644 2061 2787 
Q 1881 2931 1553 2931 
Q 1166 2931 1000 2803 
Q 834 2675 834 2503 
Q 834 2394 903 2306 
Q 972 2216 1119 2156 
Q 1203 2125 1616 2013 
Q 2213 1853 2448 1751 
Q 2684 1650 2818 1456 
Q 2953 1263 2953 975 
Q 2953 694 2789 445 
Q 2625 197 2315 61 
Q 2006 -75 1616 -75 
Q 969 -75 630 194 
Q 291 463 197 991 
z
" transform="scale(0.015625)"/>
       <path id="ArialMT-69" d="M 425 3934 
L 425 4581 
L 988 4581 
L 988 3934 
L 425 3934 
z
M 425 0 
L 425 3319 
L 988 3319 
L 988 0 
L 425 0 
z
" transform="scale(0.015625)"/>
       <path id="ArialMT-79" d="M 397 -1278 
L 334 -750 
Q 519 -800 656 -800 
Q 844 -800 956 -737 
Q 1069 -675 1141 -563 
Q 1194 -478 1313 -144 
Q 1328 -97 1363 -6 
L 103 3319 
L 709 3319 
L 1400 1397 
Q 1534 1031 1641 628 
Q 1738 1016 1872 1384 
L 2581 3319 
L 3144 3319 
L 1881 -56 
Q 1678 -603 1566 -809 
Q 1416 -1088 1222 -1217 
Q 1028 -1347 759 -1347 
Q 597 -1347 397 -1278 
z
" transform="scale(0.015625)"/>
       <path id="ArialMT-2e" d="M 581 0 
L 581 641 
L 1222 641 
L 1222 0 
L 581 0 
z
" transform="scale(0.015625)"/>
      </defs>
      <use xlink:href="#ArialMT-49"/>
      <use xlink:href="#ArialMT-6e" x="27.783203"/>
      <use xlink:href="#ArialMT-74" x="83.398438"/>
      <use xlink:href="#ArialMT-65" x="111.181641"/>
      <use xlink:href="#ArialMT-6e" x="166.796875"/>
      <use xlink:href="#ArialMT-73" x="222.412109"/>
      <use xlink:href="#ArialMT-69" x="272.412109"/>
      <use xlink:href="#ArialMT-74" x="294.628906"/>
      <use xlink:href="#ArialMT-79" x="322.412109"/>
      <use xlink:href="#ArialMT-20" x="372.412109"/>
      <use xlink:href="#ArialMT-28" x="400.195312"/>
      <use xlink:href="#ArialMT-61" x="433.496094"/>
      <use xlink:href="#ArialMT-2e" x="489.111328"/>
      <use xlink:href="#ArialMT-75" x="516.894531"/>
      <use xlink:href="#ArialMT-2e" x="572.509766"/>
      <use xlink:href="#ArialMT-29" x="600.292969"/>
     </g>
    </g>
   </g>
   <g id="PolyCollection_1"/>
   <g id="line2d_31">
    <path d="M 407.747775 263.002793 
L 406.954175 263.317717 
L 406.358975 263.19141 
L 405.763775 263.08325 
L 405.168575 263.39422 
L 404.573375 263.668516 
L 403.779775 263.674976 
L 402.986175 263.419453 
L 401.994175 262.902349 
L 401.597375 262.711539 
L 401.200575 262.754431 
L 400.208575 263.242572 
L 399.811775 263.166976 
L 399.414975 262.851611 
L 398.621375 262.061727 
L 398.026175 261.881108 
L 397.430975 261.904292 
L 397.034175 262.187565 
L 396.240575 263.005725 
L 395.843775 263.098152 
L 394.653375 262.992807 
L 392.867775 263.759405 
L 392.074175 264.197884 
L 391.677375 264.117901 
L 390.883775 263.745998 
L 390.288575 263.844322 
L 389.693375 263.904309 
L 389.098175 263.644764 
L 388.304575 263.316252 
L 386.518975 262.923727 
L 385.725375 262.929713 
L 384.336575 262.554042 
L 382.947775 263.280543 
L 381.955775 263.910237 
L 381.360575 263.858523 
L 380.368575 263.722973 
L 379.773375 263.912906 
L 379.178175 264.089432 
L 378.384575 264.08632 
L 377.392575 264.364472 
L 376.797375 264.194543 
L 376.202175 263.718325 
L 375.606975 263.286417 
L 375.011775 263.18879 
L 374.218175 263.214643 
L 373.622975 263.527854 
L 372.630975 264.20237 
L 372.234175 264.250397 
L 371.638975 263.979256 
L 371.043775 263.764022 
L 369.654975 263.897562 
L 368.861375 264.066399 
L 368.266175 264.185658 
L 367.869375 264.082039 
L 366.877375 263.56581 
L 365.686975 263.610734 
L 364.893375 263.351539 
L 364.099775 263.514164 
L 362.710975 263.769373 
L 361.718975 264.441825 
L 361.322175 264.430739 
L 359.734975 264.056277 
L 358.742975 264.11029 
L 356.957375 264.510667 
L 355.766975 264.599556 
L 354.378175 263.902745 
L 353.386175 263.651252 
L 352.790975 263.728794 
L 351.997375 263.914743 
L 351.600575 263.581819 
L 351.005375 262.397912 
L 350.410175 260.663359 
L 349.814975 257.926934 
L 348.822975 253.027245 
L 348.426175 251.766066 
L 348.029375 251.079459 
L 347.434175 250.65034 
L 347.037375 250.475228 
L 346.838975 250.490242 
L 346.442175 250.865442 
L 343.862975 255.357448 
L 341.680575 259.581266 
L 340.490175 262.841825 
L 339.696575 264.262402 
L 339.299775 264.60666 
L 338.902975 264.557632 
L 336.323775 262.660474 
L 335.926975 262.637522 
L 335.530175 262.802063 
L 334.339775 263.570914 
L 333.347775 263.467579 
L 332.752575 263.61448 
L 332.355775 263.421354 
L 331.760575 263.04107 
L 331.363775 262.99287 
L 330.371775 263.119935 
L 329.974975 262.81288 
L 328.982975 261.802622 
L 328.586175 261.394528 
L 328.189375 260.675134 
L 327.197375 258.031699 
L 326.205375 255.054607 
L 325.610175 251.914635 
L 324.419775 243.571175 
L 323.626175 236.195952 
L 322.832575 229.098405 
L 322.237375 225.747341 
L 321.840575 224.699739 
L 321.642175 224.581142 
L 321.443775 224.765874 
L 321.245375 225.278081 
L 320.848575 227.318352 
L 320.253375 232.506862 
L 318.467775 250.303505 
L 317.872575 254.205244 
L 317.277375 256.803166 
L 316.483775 259.254453 
L 315.690175 260.766661 
L 314.698175 262.314789 
L 314.301375 262.67363 
L 313.706175 262.843376 
L 313.110975 262.987543 
L 311.126975 264.098837 
L 310.531775 264.566517 
L 310.134975 264.494236 
L 308.547775 263.381303 
L 307.952575 263.297472 
L 307.357375 263.374315 
L 306.960575 263.602302 
L 306.166975 264.283032 
L 305.770175 264.328494 
L 304.976575 264.302767 
L 302.992575 264.322285 
L 301.405375 263.701116 
L 300.611775 263.182988 
L 299.421375 263.003256 
L 298.230975 262.936896 
L 297.040575 262.200275 
L 296.246975 261.418078 
L 295.850175 261.336523 
L 294.858175 261.467527 
L 294.461375 261.796641 
L 293.667775 262.631505 
L 293.072575 263.140841 
L 292.477375 263.724159 
L 292.080575 263.810759 
L 290.890175 263.727091 
L 289.501375 263.005558 
L 288.707775 262.390629 
L 287.120575 262.057398 
L 286.525375 262.332621 
L 285.930175 262.827169 
L 284.938175 263.861531 
L 283.946175 264.216159 
L 283.152575 264.34308 
L 280.771775 264.075449 
L 280.176575 263.575747 
L 279.184575 262.515098 
L 278.390975 261.880613 
L 277.597375 260.708289 
L 276.406975 258.957591 
L 275.613375 258.39963 
L 275.216575 258.24676 
L 274.819775 258.439631 
L 274.224575 259.279252 
L 273.034175 260.978238 
L 272.637375 261.276755 
L 272.240575 261.356958 
L 271.843775 261.256474 
L 271.446975 260.843175 
L 270.454975 259.265886 
L 270.058175 259.101114 
L 269.462975 259.098557 
L 269.066175 259.295282 
L 268.470975 259.884241 
L 267.875775 260.737551 
L 266.883775 262.282569 
L 265.098175 264.307616 
L 264.701375 264.426162 
L 264.304575 264.23337 
L 262.518975 262.390347 
L 261.923775 261.402334 
L 260.733375 258.835588 
L 260.336575 257.553394 
L 259.741375 254.647781 
L 258.154175 244.67022 
L 257.162175 237.348174 
L 256.170175 227.971989 
L 254.979775 214.809547 
L 252.598975 184.806983 
L 251.606975 172.748125 
L 251.011775 168.21234 
L 250.614975 166.480574 
L 250.416575 166.058363 
L 250.218175 165.976601 
L 250.019775 166.255682 
L 249.622975 167.853332 
L 249.027775 172.252784 
L 248.432575 178.494603 
L 247.638975 189.607539 
L 245.059775 228.933571 
L 244.067775 239.042286 
L 242.877375 249.072318 
L 241.885375 255.655253 
L 241.091775 259.633939 
L 240.496575 261.675867 
L 239.901375 262.982408 
L 239.306175 263.776915 
L 238.909375 264.091021 
L 238.512575 264.156588 
L 237.718975 264.100588 
L 237.123775 264.131546 
L 236.726975 263.8795 
L 236.131775 263.443134 
L 235.536575 263.307863 
L 234.941375 263.373385 
L 234.147775 263.633321 
L 232.560575 263.283951 
L 232.163775 262.815191 
L 230.774975 260.620642 
L 230.179775 260.059667 
L 229.782975 259.396453 
L 229.187775 257.836324 
L 228.195775 255.301762 
L 227.203775 253.532186 
L 226.806975 253.033951 
L 226.410175 252.839912 
L 226.013375 252.943523 
L 225.418175 253.129916 
L 225.021375 253.033943 
L 223.434175 252.142349 
L 222.838975 251.63963 
L 221.450175 249.8718 
L 221.053375 249.75777 
L 220.656575 249.909732 
L 220.259775 250.359837 
L 219.862975 251.138962 
L 219.267775 252.947305 
L 217.482175 258.961626 
L 216.490175 261.210229 
L 215.894975 262.073197 
L 215.101375 262.772175 
L 212.918975 264.125441 
L 212.522175 264.075911 
L 212.125375 263.84062 
L 211.331775 263.209671 
L 210.736575 263.08951 
L 209.942975 263.068783 
L 209.347775 263.278566 
L 208.752575 263.534142 
L 208.355775 263.452177 
L 207.958975 262.999543 
L 206.768575 261.097023 
L 206.173375 260.475111 
L 205.776575 259.69646 
L 205.181375 258.060606 
L 204.586175 255.869067 
L 202.998975 249.245887 
L 202.602175 248.345896 
L 202.403775 248.197753 
L 202.205375 248.251951 
L 201.808575 248.79893 
L 201.213375 250.159794 
L 198.634175 257.434336 
L 197.443775 260.491826 
L 196.848575 261.322518 
L 195.658175 262.590506 
L 195.261375 262.620625 
L 194.666175 262.607249 
L 194.269375 262.865164 
L 193.475775 263.637728 
L 193.078975 263.687717 
L 192.285375 263.557798 
L 191.888575 263.721427 
L 191.094975 264.195466 
L 190.102975 264.216496 
L 189.706175 264.224001 
L 189.309375 263.961348 
L 187.523775 262.389797 
L 186.928575 262.319518 
L 186.531775 262.457296 
L 186.134975 262.80385 
L 185.341375 263.646905 
L 184.944575 263.731473 
L 184.349375 263.541636 
L 183.952575 263.170808 
L 183.158975 262.311066 
L 182.762175 262.20615 
L 182.365375 262.283839 
L 181.968575 262.548185 
L 179.984575 264.44168 
L 179.587775 264.321631 
L 178.794175 263.766194 
L 177.603775 263.313695 
L 176.214975 262.238747 
L 174.627775 261.221046 
L 174.032575 261.010987 
L 173.437375 261.018854 
L 172.246975 261.214783 
L 171.850175 261.260854 
L 171.453375 261.602608 
L 170.659775 262.560228 
L 170.064575 262.902114 
L 169.270975 263.139273 
L 167.485375 263.370369 
L 166.493375 263.989604 
L 166.096575 263.722286 
L 165.104575 262.817974 
L 164.509375 262.4458 
L 164.112575 262.429813 
L 163.517375 262.706699 
L 162.723775 263.307022 
L 162.128575 263.818362 
L 161.731775 263.904114 
L 161.136575 263.876355 
L 159.946175 264.117992 
L 158.755775 264.141362 
L 157.366975 263.433889 
L 156.374975 262.846268 
L 155.581375 262.666027 
L 154.390975 262.567492 
L 153.200575 262.151642 
L 152.406975 262.266463 
L 151.613375 262.132908 
L 150.819775 262.431022 
L 149.827775 262.356929 
L 148.835775 262.906822 
L 147.645375 263.976894 
L 147.050175 264.17516 
L 146.653375 264.086864 
L 145.661375 263.585433 
L 145.066175 263.517141 
L 144.470975 262.992688 
L 144.074175 262.753468 
L 143.677375 262.891976 
L 143.082175 263.273028 
L 142.685375 263.102602 
L 142.090175 262.540733 
L 141.693375 262.575523 
L 140.899775 263.039164 
L 140.502975 262.926558 
L 139.709375 262.59629 
L 139.312575 262.681486 
L 138.717375 262.880751 
L 137.526975 262.947254 
L 136.336575 263.954298 
L 135.146175 264.093046 
L 134.749375 263.701631 
L 133.757375 262.492648 
L 133.162175 262.08205 
L 132.765375 262.125926 
L 131.773375 262.775135 
L 130.582975 263.612197 
L 129.789375 263.478497 
L 127.805375 263.060146 
L 126.614975 262.143525 
L 126.019775 261.141402 
L 124.829375 258.66797 
L 124.035775 256.276454 
L 122.845375 252.290768 
L 122.051775 248.454984 
L 121.456575 244.546134 
L 120.861375 239.085599 
L 120.266175 231.789951 
L 119.670975 222.140884 
L 118.877375 205.240555 
L 118.083775 183.586443 
L 114.909375 91.331856 
L 114.115775 73.89384 
L 113.520575 64.581281 
L 113.123775 60.323507 
L 112.726975 57.993017 
L 112.330175 57.187435 
L 112.131775 57.255111 
L 111.933375 57.689705 
L 111.536575 59.948575 
L 111.139775 64.286262 
L 110.544575 74.465287 
L 109.949375 88.845485 
L 109.155775 114.196726 
L 107.370175 172.906725 
L 106.378175 197.160279 
L 105.187775 220.492936 
L 104.195775 235.351569 
L 103.402175 244.399868 
L 102.608575 251.015947 
L 102.013375 253.972302 
L 101.021375 257.422203 
L 100.227775 259.365442 
L 99.434175 260.872414 
L 99.037375 261.219348 
L 98.640575 261.239337 
L 97.846975 260.921036 
L 97.053375 260.589456 
L 96.458175 260.62734 
L 96.061375 260.929765 
L 95.466175 261.483655 
L 95.069375 261.429779 
L 93.680575 260.26119 
L 93.085375 259.855711 
L 92.490175 259.714829 
L 92.093375 259.862795 
L 91.696575 260.300435 
L 90.902975 261.282698 
L 90.307775 261.872762 
L 89.315775 263.221083 
L 88.522175 263.832537 
L 88.125375 264.125633 
L 86.934975 264.318658 
L 86.141375 264.255671 
L 85.546175 264.075617 
L 84.355775 263.303616 
L 83.562175 262.966546 
L 82.768575 262.460753 
L 82.371775 262.434314 
L 81.974975 262.626234 
L 81.181375 263.30299 
L 80.784575 263.281721 
L 80.189375 263.144934 
L 79.395775 263.224327 
L 78.800575 263.419136 
L 78.403775 263.323516 
L 77.808575 263.122576 
L 77.014975 263.160544 
L 76.618175 262.921489 
L 75.824575 262.343818 
L 75.427775 262.378413 
L 75.030975 262.640832 
L 73.642175 263.899788 
L 71.856575 263.778266 
L 71.459775 263.522788 
L 70.070975 262.341089 
L 69.277375 261.980955 
L 68.880575 261.86012 
L 68.483775 262.003377 
L 67.293375 263.116458 
L 66.896575 262.949281 
L 65.904575 262.233138 
L 65.507775 262.030285 
L 65.110975 262.091998 
L 63.523775 263.234188 
L 63.126975 263.393181 
L 62.730175 263.306979 
L 61.738175 262.578651 
L 60.944575 262.060837 
L 60.349375 262.009627 
L 58.960575 262.267735 
L 58.365375 262.378076 
L 57.968575 262.468384 
L 57.571775 262.796029 
L 56.778175 263.606441 
L 56.381375 263.72353 
L 55.786175 263.566152 
L 54.595775 262.927916 
L 54.000575 262.084904 
L 53.603775 261.572332 
L 53.206975 261.453506 
L 52.810175 261.685754 
L 51.421375 263.141624 
L 50.429375 264.266571 
L 50.230975 264.413295 
L 50.230975 264.413295 
" clip-path="url(#p25b617e413)" style="fill: none; stroke: #1f77b4; stroke-linecap: round"/>
   </g>
   <g id="patch_3">
    <path d="M 50.429375 277.248797 
L 50.429375 11.136797 
" style="fill: none; stroke: #262626; stroke-width: 1.25; stroke-linejoin: miter; stroke-linecap: square"/>
   </g>
   <g id="patch_4">
    <path d="M 50.429375 277.248797 
L 407.549375 277.248797 
" style="fill: none; stroke: #262626; stroke-width: 1.25; stroke-linejoin: miter; stroke-linecap: square"/>
   </g>
   <g id="legend_1"/>
  </g>
 </g>
 <defs>
  <clipPath id="p25b617e413">
   <rect x="50.429375" y="11.136797" width="357.12" height="266.112"/>
  </clipPath>
 </defs>
</svg>
