<?xml version="1.0" encoding="utf-8" standalone="no"?>
<!DOCTYPE svg PUBLIC "-//W3C//DTD SVG 1.1//EN"
  "http://www.w3.org/Graphics/SVG/1.1/DTD/svg11.dtd">
<svg xmlns:xlink="http://www.w3.org/1999/xlink" width="402.228437pt" height="319.168641pt" viewBox="0 0 402.228437 319.168641" xmlns="http://www.w3.org/2000/svg" version="1.1">
 <metadata>
  <rdf:RDF xmlns:dc="http://purl.org/dc/elements/1.1/" xmlns:cc="http://creativecommons.org/ns#" xmlns:rdf="http://www.w3.org/1999/02/22-rdf-syntax-ns#">
   <cc:Work>
    <dc:type rdf:resource="http://purl.org/dc/dcmitype/StillImage"/>
    <dc:date>2024-05-21T21:53:50.342146</dc:date>
    <dc:format>image/svg+xml</dc:format>
    <dc:creator>
     <cc:Agent>
      <dc:title>Matplotlib v3.7.1, https://matplotlib.org/</dc:title>
     </cc:Agent>
    </dc:creator>
   </cc:Work>
  </rdf:RDF>
 </metadata>
 <defs>
  <style type="text/css">*{stroke-linejoin: round; stroke-linecap: butt}</style>
 </defs>
 <g id="figure_1">
  <g id="patch_1">
   <path d="M 0 319.168641 
L 402.228437 319.168641 
L 402.228437 0 
L 0 0 
z
" style="fill: #ffffff"/>
  </g>
  <g id="axes_1">
   <g id="patch_2">
    <path d="M 37.908438 277.248797 
L 395.028438 277.248797 
L 395.028438 11.136797 
L 37.908438 11.136797 
z
" style="fill: #ffffff"/>
   </g>
   <g id="matplotlib.axis_1">
    <g id="xtick_1">
     <g id="line2d_1">
      <defs>
       <path id="m98e5eaa78c" d="M 0 0 
L 0 -6 
" style="stroke: #262626; stroke-width: 1.25"/>
      </defs>
      <g>
       <use xlink:href="#m98e5eaa78c" x="371.220438" y="277.248797" style="fill: #262626; stroke: #262626; stroke-width: 1.25"/>
      </g>
     </g>
     <g id="text_1">
      <!-- 600 -->
      <g style="fill: #262626" transform="translate(362.044891 288.622391) scale(0.11 -0.11)">
       <defs>
        <path id="ArialMT-36" d="M 3184 3459 
L 2625 3416 
Q 2550 3747 2413 3897 
Q 2184 4138 1850 4138 
Q 1581 4138 1378 3988 
Q 1113 3794 959 3422 
Q 806 3050 800 2363 
Q 1003 2672 1297 2822 
Q 1591 2972 1913 2972 
Q 2475 2972 2870 2558 
Q 3266 2144 3266 1488 
Q 3266 1056 3080 686 
Q 2894 316 2569 119 
Q 2244 -78 1831 -78 
Q 1128 -78 684 439 
Q 241 956 241 2144 
Q 241 3472 731 4075 
Q 1159 4600 1884 4600 
Q 2425 4600 2770 4297 
Q 3116 3994 3184 3459 
z
M 888 1484 
Q 888 1194 1011 928 
Q 1134 663 1356 523 
Q 1578 384 1822 384 
Q 2178 384 2434 671 
Q 2691 959 2691 1453 
Q 2691 1928 2437 2201 
Q 2184 2475 1800 2475 
Q 1419 2475 1153 2201 
Q 888 1928 888 1484 
z
" transform="scale(0.015625)"/>
        <path id="ArialMT-30" d="M 266 2259 
Q 266 3072 433 3567 
Q 600 4063 929 4331 
Q 1259 4600 1759 4600 
Q 2128 4600 2406 4451 
Q 2684 4303 2865 4023 
Q 3047 3744 3150 3342 
Q 3253 2941 3253 2259 
Q 3253 1453 3087 958 
Q 2922 463 2592 192 
Q 2263 -78 1759 -78 
Q 1097 -78 719 397 
Q 266 969 266 2259 
z
M 844 2259 
Q 844 1131 1108 757 
Q 1372 384 1759 384 
Q 2147 384 2411 759 
Q 2675 1134 2675 2259 
Q 2675 3391 2411 3762 
Q 2147 4134 1753 4134 
Q 1366 4134 1134 3806 
Q 844 3388 844 2259 
z
" transform="scale(0.015625)"/>
       </defs>
       <use xlink:href="#ArialMT-36"/>
       <use xlink:href="#ArialMT-30" x="55.615234"/>
       <use xlink:href="#ArialMT-30" x="111.230469"/>
      </g>
     </g>
    </g>
    <g id="xtick_2">
     <g id="line2d_2">
      <g>
       <use xlink:href="#m98e5eaa78c" x="323.604438" y="277.248797" style="fill: #262626; stroke: #262626; stroke-width: 1.25"/>
      </g>
     </g>
     <g id="text_2">
      <!-- 800 -->
      <g style="fill: #262626" transform="translate(314.428891 288.622391) scale(0.11 -0.11)">
       <defs>
        <path id="ArialMT-38" d="M 1131 2484 
Q 781 2613 612 2850 
Q 444 3088 444 3419 
Q 444 3919 803 4259 
Q 1163 4600 1759 4600 
Q 2359 4600 2725 4251 
Q 3091 3903 3091 3403 
Q 3091 3084 2923 2848 
Q 2756 2613 2416 2484 
Q 2838 2347 3058 2040 
Q 3278 1734 3278 1309 
Q 3278 722 2862 322 
Q 2447 -78 1769 -78 
Q 1091 -78 675 323 
Q 259 725 259 1325 
Q 259 1772 486 2073 
Q 713 2375 1131 2484 
z
M 1019 3438 
Q 1019 3113 1228 2906 
Q 1438 2700 1772 2700 
Q 2097 2700 2305 2904 
Q 2513 3109 2513 3406 
Q 2513 3716 2298 3927 
Q 2084 4138 1766 4138 
Q 1444 4138 1231 3931 
Q 1019 3725 1019 3438 
z
M 838 1322 
Q 838 1081 952 856 
Q 1066 631 1291 507 
Q 1516 384 1775 384 
Q 2178 384 2440 643 
Q 2703 903 2703 1303 
Q 2703 1709 2433 1975 
Q 2163 2241 1756 2241 
Q 1359 2241 1098 1978 
Q 838 1716 838 1322 
z
" transform="scale(0.015625)"/>
       </defs>
       <use xlink:href="#ArialMT-38"/>
       <use xlink:href="#ArialMT-30" x="55.615234"/>
       <use xlink:href="#ArialMT-30" x="111.230469"/>
      </g>
     </g>
    </g>
    <g id="xtick_3">
     <g id="line2d_3">
      <g>
       <use xlink:href="#m98e5eaa78c" x="275.988438" y="277.248797" style="fill: #262626; stroke: #262626; stroke-width: 1.25"/>
      </g>
     </g>
     <g id="text_3">
      <!-- 1000 -->
      <g style="fill: #262626" transform="translate(263.754375 288.622391) scale(0.11 -0.11)">
       <defs>
        <path id="ArialMT-31" d="M 2384 0 
L 1822 0 
L 1822 3584 
Q 1619 3391 1289 3197 
Q 959 3003 697 2906 
L 697 3450 
Q 1169 3672 1522 3987 
Q 1875 4303 2022 4600 
L 2384 4600 
L 2384 0 
z
" transform="scale(0.015625)"/>
       </defs>
       <use xlink:href="#ArialMT-31"/>
       <use xlink:href="#ArialMT-30" x="55.615234"/>
       <use xlink:href="#ArialMT-30" x="111.230469"/>
       <use xlink:href="#ArialMT-30" x="166.845703"/>
      </g>
     </g>
    </g>
    <g id="xtick_4">
     <g id="line2d_4">
      <g>
       <use xlink:href="#m98e5eaa78c" x="228.372438" y="277.248797" style="fill: #262626; stroke: #262626; stroke-width: 1.25"/>
      </g>
     </g>
     <g id="text_4">
      <!-- 1200 -->
      <g style="fill: #262626" transform="translate(216.138375 288.622391) scale(0.11 -0.11)">
       <defs>
        <path id="ArialMT-32" d="M 3222 541 
L 3222 0 
L 194 0 
Q 188 203 259 391 
Q 375 700 629 1000 
Q 884 1300 1366 1694 
Q 2113 2306 2375 2664 
Q 2638 3022 2638 3341 
Q 2638 3675 2398 3904 
Q 2159 4134 1775 4134 
Q 1369 4134 1125 3890 
Q 881 3647 878 3216 
L 300 3275 
Q 359 3922 746 4261 
Q 1134 4600 1788 4600 
Q 2447 4600 2831 4234 
Q 3216 3869 3216 3328 
Q 3216 3053 3103 2787 
Q 2991 2522 2730 2228 
Q 2469 1934 1863 1422 
Q 1356 997 1212 845 
Q 1069 694 975 541 
L 3222 541 
z
" transform="scale(0.015625)"/>
       </defs>
       <use xlink:href="#ArialMT-31"/>
       <use xlink:href="#ArialMT-32" x="55.615234"/>
       <use xlink:href="#ArialMT-30" x="111.230469"/>
       <use xlink:href="#ArialMT-30" x="166.845703"/>
      </g>
     </g>
    </g>
    <g id="xtick_5">
     <g id="line2d_5">
      <g>
       <use xlink:href="#m98e5eaa78c" x="180.756438" y="277.248797" style="fill: #262626; stroke: #262626; stroke-width: 1.25"/>
      </g>
     </g>
     <g id="text_5">
      <!-- 1400 -->
      <g style="fill: #262626" transform="translate(168.522375 288.622391) scale(0.11 -0.11)">
       <defs>
        <path id="ArialMT-34" d="M 2069 0 
L 2069 1097 
L 81 1097 
L 81 1613 
L 2172 4581 
L 2631 4581 
L 2631 1613 
L 3250 1613 
L 3250 1097 
L 2631 1097 
L 2631 0 
L 2069 0 
z
M 2069 1613 
L 2069 3678 
L 634 1613 
L 2069 1613 
z
" transform="scale(0.015625)"/>
       </defs>
       <use xlink:href="#ArialMT-31"/>
       <use xlink:href="#ArialMT-34" x="55.615234"/>
       <use xlink:href="#ArialMT-30" x="111.230469"/>
       <use xlink:href="#ArialMT-30" x="166.845703"/>
      </g>
     </g>
    </g>
    <g id="xtick_6">
     <g id="line2d_6">
      <g>
       <use xlink:href="#m98e5eaa78c" x="133.140438" y="277.248797" style="fill: #262626; stroke: #262626; stroke-width: 1.25"/>
      </g>
     </g>
     <g id="text_6">
      <!-- 1600 -->
      <g style="fill: #262626" transform="translate(120.906375 288.622391) scale(0.11 -0.11)">
       <use xlink:href="#ArialMT-31"/>
       <use xlink:href="#ArialMT-36" x="55.615234"/>
       <use xlink:href="#ArialMT-30" x="111.230469"/>
       <use xlink:href="#ArialMT-30" x="166.845703"/>
      </g>
     </g>
    </g>
    <g id="xtick_7">
     <g id="line2d_7">
      <g>
       <use xlink:href="#m98e5eaa78c" x="85.524437" y="277.248797" style="fill: #262626; stroke: #262626; stroke-width: 1.25"/>
      </g>
     </g>
     <g id="text_7">
      <!-- 1800 -->
      <g style="fill: #262626" transform="translate(73.290375 288.622391) scale(0.11 -0.11)">
       <use xlink:href="#ArialMT-31"/>
       <use xlink:href="#ArialMT-38" x="55.615234"/>
       <use xlink:href="#ArialMT-30" x="111.230469"/>
       <use xlink:href="#ArialMT-30" x="166.845703"/>
      </g>
     </g>
    </g>
    <g id="xtick_8">
     <g id="line2d_8">
      <g>
       <use xlink:href="#m98e5eaa78c" x="37.908437" y="277.248797" style="fill: #262626; stroke: #262626; stroke-width: 1.25"/>
      </g>
     </g>
     <g id="text_8">
      <!-- 2000 -->
      <g style="fill: #262626" transform="translate(25.674375 288.622391) scale(0.11 -0.11)">
       <use xlink:href="#ArialMT-32"/>
       <use xlink:href="#ArialMT-30" x="55.615234"/>
       <use xlink:href="#ArialMT-30" x="111.230469"/>
       <use xlink:href="#ArialMT-30" x="166.845703"/>
      </g>
     </g>
    </g>
    <g id="xtick_9">
     <g id="line2d_9">
      <defs>
       <path id="m45c6b4677c" d="M 0 0 
L 0 -4 
" style="stroke: #262626"/>
      </defs>
      <g>
       <use xlink:href="#m45c6b4677c" x="347.412438" y="277.248797" style="fill: #262626; stroke: #262626"/>
      </g>
     </g>
    </g>
    <g id="xtick_10">
     <g id="line2d_10">
      <g>
       <use xlink:href="#m45c6b4677c" x="299.796438" y="277.248797" style="fill: #262626; stroke: #262626"/>
      </g>
     </g>
    </g>
    <g id="xtick_11">
     <g id="line2d_11">
      <g>
       <use xlink:href="#m45c6b4677c" x="252.180438" y="277.248797" style="fill: #262626; stroke: #262626"/>
      </g>
     </g>
    </g>
    <g id="xtick_12">
     <g id="line2d_12">
      <g>
       <use xlink:href="#m45c6b4677c" x="204.564437" y="277.248797" style="fill: #262626; stroke: #262626"/>
      </g>
     </g>
    </g>
    <g id="xtick_13">
     <g id="line2d_13">
      <g>
       <use xlink:href="#m45c6b4677c" x="156.948438" y="277.248797" style="fill: #262626; stroke: #262626"/>
      </g>
     </g>
    </g>
    <g id="xtick_14">
     <g id="line2d_14">
      <g>
       <use xlink:href="#m45c6b4677c" x="109.332438" y="277.248797" style="fill: #262626; stroke: #262626"/>
      </g>
     </g>
    </g>
    <g id="xtick_15">
     <g id="line2d_15">
      <g>
       <use xlink:href="#m45c6b4677c" x="61.716437" y="277.248797" style="fill: #262626; stroke: #262626"/>
      </g>
     </g>
    </g>
    <g id="text_9">
     <!-- Wavenumber ($\mathregular{cm^{-1}}$) -->
     <g style="fill: #262626" transform="translate(161.928438 309.328641) scale(0.12 -0.12)">
      <defs>
       <path id="ArialMT-57" d="M 1294 0 
L 78 4581 
L 700 4581 
L 1397 1578 
Q 1509 1106 1591 641 
Q 1766 1375 1797 1488 
L 2669 4581 
L 3400 4581 
L 4056 2263 
Q 4303 1400 4413 641 
Q 4500 1075 4641 1638 
L 5359 4581 
L 5969 4581 
L 4713 0 
L 4128 0 
L 3163 3491 
Q 3041 3928 3019 4028 
Q 2947 3713 2884 3491 
L 1913 0 
L 1294 0 
z
" transform="scale(0.015625)"/>
       <path id="ArialMT-61" d="M 2588 409 
Q 2275 144 1986 34 
Q 1697 -75 1366 -75 
Q 819 -75 525 192 
Q 231 459 231 875 
Q 231 1119 342 1320 
Q 453 1522 633 1644 
Q 813 1766 1038 1828 
Q 1203 1872 1538 1913 
Q 2219 1994 2541 2106 
Q 2544 2222 2544 2253 
Q 2544 2597 2384 2738 
Q 2169 2928 1744 2928 
Q 1347 2928 1158 2789 
Q 969 2650 878 2297 
L 328 2372 
Q 403 2725 575 2942 
Q 747 3159 1072 3276 
Q 1397 3394 1825 3394 
Q 2250 3394 2515 3294 
Q 2781 3194 2906 3042 
Q 3031 2891 3081 2659 
Q 3109 2516 3109 2141 
L 3109 1391 
Q 3109 606 3145 398 
Q 3181 191 3288 0 
L 2700 0 
Q 2613 175 2588 409 
z
M 2541 1666 
Q 2234 1541 1622 1453 
Q 1275 1403 1131 1340 
Q 988 1278 909 1158 
Q 831 1038 831 891 
Q 831 666 1001 516 
Q 1172 366 1500 366 
Q 1825 366 2078 508 
Q 2331 650 2450 897 
Q 2541 1088 2541 1459 
L 2541 1666 
z
" transform="scale(0.015625)"/>
       <path id="ArialMT-76" d="M 1344 0 
L 81 3319 
L 675 3319 
L 1388 1331 
Q 1503 1009 1600 663 
Q 1675 925 1809 1294 
L 2547 3319 
L 3125 3319 
L 1869 0 
L 1344 0 
z
" transform="scale(0.015625)"/>
       <path id="ArialMT-65" d="M 2694 1069 
L 3275 997 
Q 3138 488 2766 206 
Q 2394 -75 1816 -75 
Q 1088 -75 661 373 
Q 234 822 234 1631 
Q 234 2469 665 2931 
Q 1097 3394 1784 3394 
Q 2450 3394 2872 2941 
Q 3294 2488 3294 1666 
Q 3294 1616 3291 1516 
L 816 1516 
Q 847 969 1125 678 
Q 1403 388 1819 388 
Q 2128 388 2347 550 
Q 2566 713 2694 1069 
z
M 847 1978 
L 2700 1978 
Q 2663 2397 2488 2606 
Q 2219 2931 1791 2931 
Q 1403 2931 1139 2672 
Q 875 2413 847 1978 
z
" transform="scale(0.015625)"/>
       <path id="ArialMT-6e" d="M 422 0 
L 422 3319 
L 928 3319 
L 928 2847 
Q 1294 3394 1984 3394 
Q 2284 3394 2536 3286 
Q 2788 3178 2913 3003 
Q 3038 2828 3088 2588 
Q 3119 2431 3119 2041 
L 3119 0 
L 2556 0 
L 2556 2019 
Q 2556 2363 2490 2533 
Q 2425 2703 2258 2804 
Q 2091 2906 1866 2906 
Q 1506 2906 1245 2678 
Q 984 2450 984 1813 
L 984 0 
L 422 0 
z
" transform="scale(0.015625)"/>
       <path id="ArialMT-75" d="M 2597 0 
L 2597 488 
Q 2209 -75 1544 -75 
Q 1250 -75 995 37 
Q 741 150 617 320 
Q 494 491 444 738 
Q 409 903 409 1263 
L 409 3319 
L 972 3319 
L 972 1478 
Q 972 1038 1006 884 
Q 1059 663 1231 536 
Q 1403 409 1656 409 
Q 1909 409 2131 539 
Q 2353 669 2445 892 
Q 2538 1116 2538 1541 
L 2538 3319 
L 3100 3319 
L 3100 0 
L 2597 0 
z
" transform="scale(0.015625)"/>
       <path id="ArialMT-6d" d="M 422 0 
L 422 3319 
L 925 3319 
L 925 2853 
Q 1081 3097 1340 3245 
Q 1600 3394 1931 3394 
Q 2300 3394 2536 3241 
Q 2772 3088 2869 2813 
Q 3263 3394 3894 3394 
Q 4388 3394 4653 3120 
Q 4919 2847 4919 2278 
L 4919 0 
L 4359 0 
L 4359 2091 
Q 4359 2428 4304 2576 
Q 4250 2725 4106 2815 
Q 3963 2906 3769 2906 
Q 3419 2906 3187 2673 
Q 2956 2441 2956 1928 
L 2956 0 
L 2394 0 
L 2394 2156 
Q 2394 2531 2256 2718 
Q 2119 2906 1806 2906 
Q 1569 2906 1367 2781 
Q 1166 2656 1075 2415 
Q 984 2175 984 1722 
L 984 0 
L 422 0 
z
" transform="scale(0.015625)"/>
       <path id="ArialMT-62" d="M 941 0 
L 419 0 
L 419 4581 
L 981 4581 
L 981 2947 
Q 1338 3394 1891 3394 
Q 2197 3394 2470 3270 
Q 2744 3147 2920 2923 
Q 3097 2700 3197 2384 
Q 3297 2069 3297 1709 
Q 3297 856 2875 390 
Q 2453 -75 1863 -75 
Q 1275 -75 941 416 
L 941 0 
z
M 934 1684 
Q 934 1088 1097 822 
Q 1363 388 1816 388 
Q 2184 388 2453 708 
Q 2722 1028 2722 1663 
Q 2722 2313 2464 2622 
Q 2206 2931 1841 2931 
Q 1472 2931 1203 2611 
Q 934 2291 934 1684 
z
" transform="scale(0.015625)"/>
       <path id="ArialMT-72" d="M 416 0 
L 416 3319 
L 922 3319 
L 922 2816 
Q 1116 3169 1280 3281 
Q 1444 3394 1641 3394 
Q 1925 3394 2219 3213 
L 2025 2691 
Q 1819 2813 1613 2813 
Q 1428 2813 1281 2702 
Q 1134 2591 1072 2394 
Q 978 2094 978 1738 
L 978 0 
L 416 0 
z
" transform="scale(0.015625)"/>
       <path id="ArialMT-20" transform="scale(0.015625)"/>
       <path id="ArialMT-28" d="M 1497 -1347 
Q 1031 -759 709 28 
Q 388 816 388 1659 
Q 388 2403 628 3084 
Q 909 3875 1497 4659 
L 1900 4659 
Q 1522 4009 1400 3731 
Q 1209 3300 1100 2831 
Q 966 2247 966 1656 
Q 966 153 1900 -1347 
L 1497 -1347 
z
" transform="scale(0.015625)"/>
       <path id="ArialMT-63" d="M 2588 1216 
L 3141 1144 
Q 3050 572 2676 248 
Q 2303 -75 1759 -75 
Q 1078 -75 664 370 
Q 250 816 250 1647 
Q 250 2184 428 2587 
Q 606 2991 970 3192 
Q 1334 3394 1763 3394 
Q 2303 3394 2647 3120 
Q 2991 2847 3088 2344 
L 2541 2259 
Q 2463 2594 2264 2762 
Q 2066 2931 1784 2931 
Q 1359 2931 1093 2626 
Q 828 2322 828 1663 
Q 828 994 1084 691 
Q 1341 388 1753 388 
Q 2084 388 2306 591 
Q 2528 794 2588 1216 
z
" transform="scale(0.015625)"/>
       <path id="ArialMT-2212" d="M 3381 1997 
L 356 1997 
L 356 2522 
L 3381 2522 
L 3381 1997 
z
" transform="scale(0.015625)"/>
       <path id="ArialMT-29" d="M 791 -1347 
L 388 -1347 
Q 1322 153 1322 1656 
Q 1322 2244 1188 2822 
Q 1081 3291 891 3722 
Q 769 4003 388 4659 
L 791 4659 
Q 1378 3875 1659 3084 
Q 1900 2403 1900 1659 
Q 1900 816 1576 28 
Q 1253 -759 791 -1347 
z
" transform="scale(0.015625)"/>
      </defs>
      <use xlink:href="#ArialMT-57" transform="translate(0 0.99375)"/>
      <use xlink:href="#ArialMT-61" transform="translate(94.384766 0.99375)"/>
      <use xlink:href="#ArialMT-76" transform="translate(150 0.99375)"/>
      <use xlink:href="#ArialMT-65" transform="translate(200 0.99375)"/>
      <use xlink:href="#ArialMT-6e" transform="translate(255.615234 0.99375)"/>
      <use xlink:href="#ArialMT-75" transform="translate(311.230469 0.99375)"/>
      <use xlink:href="#ArialMT-6d" transform="translate(366.845703 0.99375)"/>
      <use xlink:href="#ArialMT-62" transform="translate(450.146484 0.99375)"/>
      <use xlink:href="#ArialMT-65" transform="translate(505.761719 0.99375)"/>
      <use xlink:href="#ArialMT-72" transform="translate(561.376953 0.99375)"/>
      <use xlink:href="#ArialMT-20" transform="translate(594.677734 0.99375)"/>
      <use xlink:href="#ArialMT-28" transform="translate(622.460938 0.99375)"/>
      <use xlink:href="#ArialMT-63" transform="translate(655.761719 0.99375)"/>
      <use xlink:href="#ArialMT-6d" transform="translate(705.761719 0.99375)"/>
      <use xlink:href="#ArialMT-2212" transform="translate(790.804844 70.6875) scale(0.7)"/>
      <use xlink:href="#ArialMT-31" transform="translate(831.68375 70.6875) scale(0.7)"/>
      <use xlink:href="#ArialMT-29" transform="translate(875.592539 0.99375)"/>
     </g>
    </g>
   </g>
   <g id="matplotlib.axis_2">
    <g id="ytick_1">
     <g id="line2d_16">
      <defs>
       <path id="m8177c41258" d="M 0 0 
L 6 0 
" style="stroke: #262626; stroke-width: 1.25"/>
      </defs>
      <g>
       <use xlink:href="#m8177c41258" x="37.908438" y="268.664539" style="fill: #262626; stroke: #262626; stroke-width: 1.25"/>
      </g>
     </g>
     <g id="text_10">
      <!-- 0 -->
      <g style="fill: #262626" transform="translate(28.291406 272.601336) scale(0.11 -0.11)">
       <use xlink:href="#ArialMT-30"/>
      </g>
     </g>
    </g>
    <g id="ytick_2">
     <g id="line2d_17">
      <g>
       <use xlink:href="#m8177c41258" x="37.908438" y="225.743248" style="fill: #262626; stroke: #262626; stroke-width: 1.25"/>
      </g>
     </g>
     <g id="text_11">
      <!-- 5 -->
      <g style="fill: #262626" transform="translate(28.291406 229.680045) scale(0.11 -0.11)">
       <defs>
        <path id="ArialMT-35" d="M 266 1200 
L 856 1250 
Q 922 819 1161 601 
Q 1400 384 1738 384 
Q 2144 384 2425 690 
Q 2706 997 2706 1503 
Q 2706 1984 2436 2262 
Q 2166 2541 1728 2541 
Q 1456 2541 1237 2417 
Q 1019 2294 894 2097 
L 366 2166 
L 809 4519 
L 3088 4519 
L 3088 3981 
L 1259 3981 
L 1013 2750 
Q 1425 3038 1878 3038 
Q 2478 3038 2890 2622 
Q 3303 2206 3303 1553 
Q 3303 931 2941 478 
Q 2500 -78 1738 -78 
Q 1113 -78 717 272 
Q 322 622 266 1200 
z
" transform="scale(0.015625)"/>
       </defs>
       <use xlink:href="#ArialMT-35"/>
      </g>
     </g>
    </g>
    <g id="ytick_3">
     <g id="line2d_18">
      <g>
       <use xlink:href="#m8177c41258" x="37.908438" y="182.821958" style="fill: #262626; stroke: #262626; stroke-width: 1.25"/>
      </g>
     </g>
     <g id="text_12">
      <!-- 10 -->
      <g style="fill: #262626" transform="translate(22.174375 186.758755) scale(0.11 -0.11)">
       <use xlink:href="#ArialMT-31"/>
       <use xlink:href="#ArialMT-30" x="55.615234"/>
      </g>
     </g>
    </g>
    <g id="ytick_4">
     <g id="line2d_19">
      <g>
       <use xlink:href="#m8177c41258" x="37.908438" y="139.900668" style="fill: #262626; stroke: #262626; stroke-width: 1.25"/>
      </g>
     </g>
     <g id="text_13">
      <!-- 15 -->
      <g style="fill: #262626" transform="translate(22.174375 143.837465) scale(0.11 -0.11)">
       <use xlink:href="#ArialMT-31"/>
       <use xlink:href="#ArialMT-35" x="55.615234"/>
      </g>
     </g>
    </g>
    <g id="ytick_5">
     <g id="line2d_20">
      <g>
       <use xlink:href="#m8177c41258" x="37.908438" y="96.979378" style="fill: #262626; stroke: #262626; stroke-width: 1.25"/>
      </g>
     </g>
     <g id="text_14">
      <!-- 20 -->
      <g style="fill: #262626" transform="translate(22.174375 100.916174) scale(0.11 -0.11)">
       <use xlink:href="#ArialMT-32"/>
       <use xlink:href="#ArialMT-30" x="55.615234"/>
      </g>
     </g>
    </g>
    <g id="ytick_6">
     <g id="line2d_21">
      <g>
       <use xlink:href="#m8177c41258" x="37.908438" y="54.058087" style="fill: #262626; stroke: #262626; stroke-width: 1.25"/>
      </g>
     </g>
     <g id="text_15">
      <!-- 25 -->
      <g style="fill: #262626" transform="translate(22.174375 57.994884) scale(0.11 -0.11)">
       <use xlink:href="#ArialMT-32"/>
       <use xlink:href="#ArialMT-35" x="55.615234"/>
      </g>
     </g>
    </g>
    <g id="ytick_7">
     <g id="line2d_22">
      <g>
       <use xlink:href="#m8177c41258" x="37.908438" y="11.136797" style="fill: #262626; stroke: #262626; stroke-width: 1.25"/>
      </g>
     </g>
     <g id="text_16">
      <!-- 30 -->
      <g style="fill: #262626" transform="translate(22.174375 15.073594) scale(0.11 -0.11)">
       <defs>
        <path id="ArialMT-33" d="M 269 1209 
L 831 1284 
Q 928 806 1161 595 
Q 1394 384 1728 384 
Q 2125 384 2398 659 
Q 2672 934 2672 1341 
Q 2672 1728 2419 1979 
Q 2166 2231 1775 2231 
Q 1616 2231 1378 2169 
L 1441 2663 
Q 1497 2656 1531 2656 
Q 1891 2656 2178 2843 
Q 2466 3031 2466 3422 
Q 2466 3731 2256 3934 
Q 2047 4138 1716 4138 
Q 1388 4138 1169 3931 
Q 950 3725 888 3313 
L 325 3413 
Q 428 3978 793 4289 
Q 1159 4600 1703 4600 
Q 2078 4600 2393 4439 
Q 2709 4278 2876 4000 
Q 3044 3722 3044 3409 
Q 3044 3113 2884 2869 
Q 2725 2625 2413 2481 
Q 2819 2388 3044 2092 
Q 3269 1797 3269 1353 
Q 3269 753 2831 336 
Q 2394 -81 1725 -81 
Q 1122 -81 723 278 
Q 325 638 269 1209 
z
" transform="scale(0.015625)"/>
       </defs>
       <use xlink:href="#ArialMT-33"/>
       <use xlink:href="#ArialMT-30" x="55.615234"/>
      </g>
     </g>
    </g>
    <g id="ytick_8">
     <g id="line2d_23">
      <defs>
       <path id="m979083b25c" d="M 0 0 
L 4 0 
" style="stroke: #262626"/>
      </defs>
      <g>
       <use xlink:href="#m979083b25c" x="37.908438" y="247.203894" style="fill: #262626; stroke: #262626"/>
      </g>
     </g>
    </g>
    <g id="ytick_9">
     <g id="line2d_24">
      <g>
       <use xlink:href="#m979083b25c" x="37.908438" y="204.282603" style="fill: #262626; stroke: #262626"/>
      </g>
     </g>
    </g>
    <g id="ytick_10">
     <g id="line2d_25">
      <g>
       <use xlink:href="#m979083b25c" x="37.908438" y="161.361313" style="fill: #262626; stroke: #262626"/>
      </g>
     </g>
    </g>
    <g id="ytick_11">
     <g id="line2d_26">
      <g>
       <use xlink:href="#m979083b25c" x="37.908438" y="118.440023" style="fill: #262626; stroke: #262626"/>
      </g>
     </g>
    </g>
    <g id="ytick_12">
     <g id="line2d_27">
      <g>
       <use xlink:href="#m979083b25c" x="37.908438" y="75.518732" style="fill: #262626; stroke: #262626"/>
      </g>
     </g>
    </g>
    <g id="ytick_13">
     <g id="line2d_28">
      <g>
       <use xlink:href="#m979083b25c" x="37.908438" y="32.597442" style="fill: #262626; stroke: #262626"/>
      </g>
     </g>
    </g>
    <g id="text_17">
     <!-- AU-030-A2-PTSA -->
     <g style="fill: #262626" transform="translate(15.789375 191.541234) rotate(-90) scale(0.12 -0.12)">
      <defs>
       <path id="ArialMT-41" d="M -9 0 
L 1750 4581 
L 2403 4581 
L 4278 0 
L 3588 0 
L 3053 1388 
L 1138 1388 
L 634 0 
L -9 0 
z
M 1313 1881 
L 2866 1881 
L 2388 3150 
Q 2169 3728 2063 4100 
Q 1975 3659 1816 3225 
L 1313 1881 
z
" transform="scale(0.015625)"/>
       <path id="ArialMT-55" d="M 3500 4581 
L 4106 4581 
L 4106 1934 
Q 4106 1244 3950 837 
Q 3794 431 3386 176 
Q 2978 -78 2316 -78 
Q 1672 -78 1262 144 
Q 853 366 678 786 
Q 503 1206 503 1934 
L 503 4581 
L 1109 4581 
L 1109 1938 
Q 1109 1341 1220 1058 
Q 1331 775 1601 622 
Q 1872 469 2263 469 
Q 2931 469 3215 772 
Q 3500 1075 3500 1938 
L 3500 4581 
z
" transform="scale(0.015625)"/>
       <path id="ArialMT-2d" d="M 203 1375 
L 203 1941 
L 1931 1941 
L 1931 1375 
L 203 1375 
z
" transform="scale(0.015625)"/>
       <path id="ArialMT-50" d="M 494 0 
L 494 4581 
L 2222 4581 
Q 2678 4581 2919 4538 
Q 3256 4481 3484 4323 
Q 3713 4166 3852 3881 
Q 3991 3597 3991 3256 
Q 3991 2672 3619 2267 
Q 3247 1863 2275 1863 
L 1100 1863 
L 1100 0 
L 494 0 
z
M 1100 2403 
L 2284 2403 
Q 2872 2403 3119 2622 
Q 3366 2841 3366 3238 
Q 3366 3525 3220 3729 
Q 3075 3934 2838 4000 
Q 2684 4041 2272 4041 
L 1100 4041 
L 1100 2403 
z
" transform="scale(0.015625)"/>
       <path id="ArialMT-54" d="M 1659 0 
L 1659 4041 
L 150 4041 
L 150 4581 
L 3781 4581 
L 3781 4041 
L 2266 4041 
L 2266 0 
L 1659 0 
z
" transform="scale(0.015625)"/>
       <path id="ArialMT-53" d="M 288 1472 
L 859 1522 
Q 900 1178 1048 958 
Q 1197 738 1509 602 
Q 1822 466 2213 466 
Q 2559 466 2825 569 
Q 3091 672 3220 851 
Q 3350 1031 3350 1244 
Q 3350 1459 3225 1620 
Q 3100 1781 2813 1891 
Q 2628 1963 1997 2114 
Q 1366 2266 1113 2400 
Q 784 2572 623 2826 
Q 463 3081 463 3397 
Q 463 3744 659 4045 
Q 856 4347 1234 4503 
Q 1613 4659 2075 4659 
Q 2584 4659 2973 4495 
Q 3363 4331 3572 4012 
Q 3781 3694 3797 3291 
L 3216 3247 
Q 3169 3681 2898 3903 
Q 2628 4125 2100 4125 
Q 1550 4125 1298 3923 
Q 1047 3722 1047 3438 
Q 1047 3191 1225 3031 
Q 1400 2872 2139 2705 
Q 2878 2538 3153 2413 
Q 3553 2228 3743 1945 
Q 3934 1663 3934 1294 
Q 3934 928 3725 604 
Q 3516 281 3123 101 
Q 2731 -78 2241 -78 
Q 1619 -78 1198 103 
Q 778 284 539 648 
Q 300 1013 288 1472 
z
" transform="scale(0.015625)"/>
      </defs>
      <use xlink:href="#ArialMT-41"/>
      <use xlink:href="#ArialMT-55" x="66.699219"/>
      <use xlink:href="#ArialMT-2d" x="138.916016"/>
      <use xlink:href="#ArialMT-30" x="172.216797"/>
      <use xlink:href="#ArialMT-33" x="227.832031"/>
      <use xlink:href="#ArialMT-30" x="283.447266"/>
      <use xlink:href="#ArialMT-2d" x="339.0625"/>
      <use xlink:href="#ArialMT-41" x="372.363281"/>
      <use xlink:href="#ArialMT-32" x="439.0625"/>
      <use xlink:href="#ArialMT-2d" x="494.677734"/>
      <use xlink:href="#ArialMT-50" x="527.978516"/>
      <use xlink:href="#ArialMT-54" x="594.677734"/>
      <use xlink:href="#ArialMT-53" x="655.761719"/>
      <use xlink:href="#ArialMT-41" x="722.460938"/>
     </g>
    </g>
   </g>
   <g id="PolyCollection_1"/>
   <g id="line2d_29">
    <path d="M 395.147478 242.082955 
L 395.028438 242.276358 
L 394.790358 245.508073 
L 394.195158 256.706839 
L 394.076118 257.140344 
L 393.957078 256.952435 
L 393.718998 255.077976 
L 393.361878 251.648222 
L 393.242838 251.585814 
L 393.004758 253.520362 
L 392.647638 256.408965 
L 392.528598 256.132123 
L 392.290518 254.15886 
L 391.695318 246.642912 
L 390.742998 232.002117 
L 390.623958 231.7421 
L 390.504918 232.396564 
L 390.266838 235.868724 
L 389.671638 245.999694 
L 389.195478 249.764149 
L 388.719318 253.09527 
L 388.600278 252.591975 
L 388.362198 248.570164 
L 387.886038 238.818533 
L 387.171798 232.94587 
L 386.933718 231.746993 
L 386.814678 231.816525 
L 386.576598 233.131204 
L 386.219478 235.377447 
L 386.100438 235.296755 
L 385.862358 233.354996 
L 385.505238 230.222085 
L 385.386198 230.554897 
L 385.148118 233.450796 
L 384.790998 237.755802 
L 384.671958 238.073505 
L 384.552918 237.901992 
L 384.195798 236.995923 
L 383.957718 237.406508 
L 383.838678 237.602487 
L 383.719638 237.388996 
L 383.600598 236.446616 
L 383.362518 231.76356 
L 382.886358 219.69684 
L 382.767318 218.705359 
L 382.648278 218.692568 
L 381.100758 226.859202 
L 380.862678 228.323419 
L 380.743638 228.330801 
L 380.386518 226.841175 
L 380.267478 227.037325 
L 379.791318 229.709777 
L 379.553238 228.604296 
L 379.315158 227.673934 
L 379.196118 227.85738 
L 378.838998 229.893222 
L 378.481878 233.952975 
L 378.124758 238.317126 
L 377.291478 242.716816 
L 377.172438 242.402203 
L 376.934358 239.851562 
L 376.577238 235.648023 
L 376.339158 234.481766 
L 376.220118 234.434037 
L 375.862998 235.509216 
L 375.743958 235.401655 
L 375.505878 233.360318 
L 375.148758 229.25421 
L 374.672598 226.650004 
L 374.077398 221.608812 
L 373.958358 221.802817 
L 373.720278 224.283581 
L 373.363158 233.166142 
L 372.886998 244.099998 
L 372.529878 247.629587 
L 372.410838 247.909691 
L 372.291798 247.789683 
L 372.053718 247.181575 
L 371.934678 247.187927 
L 371.458518 248.441486 
L 371.101398 247.791829 
L 370.982358 247.908318 
L 370.744278 248.980835 
L 370.387158 251.792866 
L 369.910998 256.118302 
L 369.791958 256.297713 
L 369.434838 255.84498 
L 369.077718 256.376603 
L 368.958678 255.793903 
L 368.720598 252.225255 
L 368.006358 236.615469 
L 367.887318 235.915594 
L 367.768278 236.108139 
L 367.530198 238.51465 
L 366.458838 252.327236 
L 366.339798 252.328438 
L 366.101718 251.771577 
L 365.863638 250.311052 
L 365.625558 246.449509 
L 365.149398 236.833681 
L 365.030358 236.234585 
L 364.911318 236.478464 
L 364.554198 239.518493 
L 364.078038 243.311448 
L 363.839958 243.793969 
L 363.601878 244.073215 
L 363.244758 244.880221 
L 363.125718 244.491268 
L 362.530518 240.039901 
L 362.292438 241.630392 
L 362.054358 243.219939 
L 361.935318 243.386646 
L 361.459158 242.873307 
L 360.982998 243.622198 
L 360.863958 243.559876 
L 360.625878 242.989881 
L 360.268758 241.137141 
L 359.911638 238.450612 
L 359.554518 233.752619 
L 359.078358 227.730161 
L 358.959318 227.560965 
L 358.721238 228.697693 
L 357.054678 241.436302 
L 355.626198 260.115219 
L 355.507158 259.452771 
L 355.150038 254.123492 
L 354.792918 249.471597 
L 354.673878 248.915595 
L 354.554838 248.921518 
L 354.078678 250.431489 
L 353.721558 249.413568 
L 353.602518 249.810761 
L 353.364438 252.8477 
L 353.007318 257.631965 
L 352.888278 257.436758 
L 352.650198 253.988033 
L 352.293078 247.431548 
L 352.174038 246.664116 
L 352.054998 246.808331 
L 351.578838 249.967767 
L 351.459798 250.003049 
L 351.102678 249.648605 
L 350.983638 249.621049 
L 350.864598 249.38481 
L 350.626518 247.798525 
L 349.793238 238.624958 
L 349.436118 232.548591 
L 349.198038 231.356409 
L 349.078998 231.559684 
L 348.602838 233.194041 
L 348.483798 233.240482 
L 348.364758 232.891446 
L 348.007638 230.698597 
L 347.888598 231.086777 
L 347.650518 235.597633 
L 347.293398 244.474357 
L 347.055318 245.645507 
L 346.579158 243.366215 
L 346.341078 240.948201 
L 345.983958 233.351476 
L 345.388758 217.408878 
L 345.269718 217.077783 
L 345.031638 220.803952 
L 344.674518 227.407736 
L 344.436438 229.761797 
L 344.198358 235.4317 
L 343.722198 250.1137 
L 343.603158 250.697687 
L 343.484118 249.974549 
L 343.007958 244.787339 
L 342.769878 244.249965 
L 342.412758 244.727335 
L 342.293718 244.325678 
L 341.817558 240.435292 
L 341.698518 240.971207 
L 341.222358 247.311626 
L 341.103318 246.544708 
L 340.865238 240.36988 
L 340.389078 225.028351 
L 340.150998 222.972336 
L 340.031958 223.49486 
L 339.793878 226.594292 
L 338.960598 241.663098 
L 338.841558 241.914789 
L 338.722518 241.10186 
L 338.484438 236.377513 
L 338.008278 218.334433 
L 337.651158 205.638315 
L 337.532118 204.351277 
L 337.413078 205.300696 
L 337.174998 213.465871 
L 336.579798 238.627361 
L 336.222678 243.618592 
L 336.103638 244.072871 
L 335.984598 243.904792 
L 335.746518 241.327969 
L 335.389398 232.306686 
L 334.913238 220.820434 
L 334.794198 220.604111 
L 334.556118 223.972402 
L 334.079958 232.373472 
L 333.603798 234.317291 
L 333.127638 239.838171 
L 333.008598 239.783833 
L 332.770518 237.260748 
L 332.175318 229.447699 
L 331.580118 222.862028 
L 331.103958 213.799884 
L 330.865878 210.502757 
L 330.746838 210.357597 
L 330.508758 213.035199 
L 329.318358 236.036461 
L 328.842198 245.57237 
L 328.723158 246.411996 
L 328.604118 246.422812 
L 328.366038 244.378213 
L 326.818518 224.949548 
L 326.699478 225.035047 
L 326.223318 227.404045 
L 325.628118 230.347329 
L 325.509078 230.04688 
L 325.270998 226.24826 
L 324.675798 211.790825 
L 324.556758 211.438613 
L 324.437718 212.142779 
L 324.199638 216.105359 
L 323.604438 229.234466 
L 323.366358 230.705722 
L 322.890197 231.908291 
L 322.771158 231.561744 
L 322.533078 228.80946 
L 322.175958 223.69513 
L 322.056918 223.27785 
L 321.937878 223.709294 
L 321.699798 226.723227 
L 320.985558 239.221049 
L 320.747478 239.79276 
L 320.509398 239.588112 
L 320.390358 239.752586 
L 319.914198 241.039624 
L 319.795158 240.328761 
L 319.557078 236.269952 
L 319.080918 224.959248 
L 318.842838 223.769127 
L 318.604758 225.260641 
L 317.295318 236.166856 
L 317.057238 236.848188 
L 316.819158 237.138594 
L 316.581078 238.741103 
L 315.985878 244.258463 
L 315.747798 244.955676 
L 315.628758 245.026582 
L 315.509718 244.696088 
L 315.271637 242.477659 
L 314.795478 236.596669 
L 314.438358 234.978451 
L 314.319318 235.128761 
L 314.081238 237.133615 
L 313.843158 239.67756 
L 313.724118 239.83963 
L 313.486038 237.059704 
L 313.128918 232.324456 
L 313.009878 232.260675 
L 312.295637 234.867113 
L 311.462358 241.899681 
L 311.343318 242.059949 
L 311.224278 242.032651 
L 310.867158 241.447634 
L 310.748118 241.842338 
L 310.510038 244.614109 
L 310.033878 251.948928 
L 309.676758 254.163838 
L 309.557718 254.264446 
L 309.438678 253.89601 
L 309.200598 251.696551 
L 308.843478 245.986818 
L 308.129238 231.835668 
L 308.010198 232.222818 
L 307.295958 239.451364 
L 306.938838 240.105742 
L 306.700758 240.318031 
L 306.462678 241.069325 
L 306.105558 242.885668 
L 305.986518 242.830042 
L 305.748438 240.949232 
L 305.391318 237.268731 
L 305.272278 237.315687 
L 305.034198 239.938521 
L 304.677077 245.268487 
L 304.558038 245.82097 
L 304.438998 245.627738 
L 303.843798 241.769972 
L 303.486678 237.973928 
L 303.010518 233.521788 
L 302.653398 231.401991 
L 302.534358 231.408945 
L 302.296278 232.959605 
L 301.939158 235.894477 
L 301.224918 238.689082 
L 300.986838 238.926694 
L 300.748758 238.933648 
L 300.629718 239.09735 
L 300.391638 240.372026 
L 299.796438 246.143309 
L 299.677398 245.676926 
L 298.844118 236.716248 
L 298.248918 229.539036 
L 297.772758 226.926073 
L 297.653718 226.953543 
L 297.415638 228.885516 
L 296.344278 240.793942 
L 295.391958 248.16679 
L 295.153878 246.700942 
L 294.677718 243.195818 
L 294.201558 239.954144 
L 293.844438 237.344702 
L 293.725398 237.083568 
L 293.606358 237.286586 
L 293.368278 238.994854 
L 292.296918 251.31438 
L 291.820758 259.605142 
L 291.582678 260.756205 
L 291.463638 260.48005 
L 291.106517 257.783133 
L 290.630358 252.29702 
L 290.035158 242.291638 
L 289.916118 241.865687 
L 289.797078 242.047416 
L 289.558998 242.762914 
L 289.439957 242.644623 
L 289.201878 241.013871 
L 288.249558 230.85526 
L 288.130517 230.860411 
L 287.892438 232.434763 
L 287.535318 237.011117 
L 286.940118 246.801893 
L 286.821078 247.119425 
L 286.702038 246.437834 
L 286.344918 241.123492 
L 285.987798 237.043137 
L 285.868758 237.022363 
L 285.749718 237.916757 
L 285.511638 242.130855 
L 284.916438 254.54455 
L 284.678358 256.291962 
L 284.559318 255.98868 
L 284.321238 252.983417 
L 283.845078 241.167186 
L 283.487957 233.376457 
L 283.249878 231.046861 
L 283.130838 230.747871 
L 283.011798 230.942734 
L 282.773718 232.808265 
L 282.535638 236.900295 
L 281.821398 252.261309 
L 281.464278 254.051213 
L 281.107158 256.533952 
L 280.750038 258.467213 
L 280.630998 258.24634 
L 280.392918 255.627283 
L 279.083478 231.927863 
L 278.845397 229.356878 
L 278.726358 229.297303 
L 278.607318 230.109288 
L 278.369238 233.969114 
L 277.774038 244.57445 
L 276.464598 255.25361 
L 276.107478 256.185174 
L 275.512278 258.663277 
L 275.393238 258.378452 
L 274.798038 255.506159 
L 274.440918 255.320825 
L 274.321878 255.020462 
L 274.083798 253.432803 
L 273.845718 250.124258 
L 273.488598 241.654428 
L 272.774358 223.466188 
L 272.536278 221.679032 
L 272.179158 221.080709 
L 272.060118 220.994351 
L 271.941078 221.21943 
L 271.702998 223.532974 
L 270.988758 234.421247 
L 270.631638 237.750479 
L 269.679318 250.193362 
L 269.560278 249.777283 
L 269.203158 247.284757 
L 269.084118 247.140885 
L 268.846038 247.732341 
L 268.726998 247.669675 
L 268.488918 245.728946 
L 268.250837 243.388534 
L 268.131798 243.080016 
L 267.774678 243.9678 
L 267.655638 243.477553 
L 267.060438 238.506924 
L 266.822358 238.257122 
L 266.703318 238.523492 
L 266.465238 240.645606 
L 265.989078 247.312055 
L 265.512918 249.828445 
L 265.155798 252.537379 
L 265.036758 252.336765 
L 264.679638 250.631502 
L 264.560598 250.911177 
L 264.203478 252.478491 
L 264.084438 251.932961 
L 262.894038 240.472805 
L 262.655957 239.710609 
L 262.417878 237.030089 
L 261.822678 227.541221 
L 261.465558 224.896841 
L 261.108438 218.250307 
L 260.751318 213.34406 
L 260.632277 213.625366 
L 260.394198 217.119331 
L 260.037078 223.696418 
L 259.918038 224.479131 
L 259.798998 224.294827 
L 259.203798 220.352678 
L 259.084758 220.336196 
L 258.727638 220.548485 
L 258.608598 220.070427 
L 258.370518 216.531996 
L 257.775318 202.550729 
L 257.418198 200.746147 
L 257.299158 200.515402 
L 257.180118 200.784346 
L 256.942038 203.341511 
L 256.108758 216.561526 
L 255.751638 226.981528 
L 255.632598 228.419305 
L 255.513558 228.507551 
L 255.275478 226.30174 
L 254.680278 220.727724 
L 254.323158 215.649105 
L 253.966038 205.194938 
L 253.608918 193.649025 
L 253.370838 191.431454 
L 253.013718 192.053383 
L 252.894678 191.64958 
L 252.537558 189.393122 
L 252.418518 189.586611 
L 252.180438 193.183415 
L 251.585238 206.764398 
L 251.109078 210.500611 
L 250.751958 212.961546 
L 250.275798 218.303014 
L 250.156758 218.351601 
L 249.680598 215.70516 
L 249.323478 216.155233 
L 249.085397 215.069496 
L 248.609238 212.832095 
L 248.133078 210.103417 
L 248.014038 210.941412 
L 247.775958 215.963804 
L 247.418838 224.02571 
L 246.942678 228.132333 
L 246.704598 229.936315 
L 246.585558 230.235992 
L 246.466518 229.984473 
L 245.514198 225.091446 
L 245.395158 225.428378 
L 245.157078 227.725697 
L 244.799958 231.270566 
L 244.680918 231.258463 
L 244.442838 229.274383 
L 244.085718 225.359961 
L 243.847638 224.666868 
L 243.728598 224.578794 
L 243.490518 223.965191 
L 243.252438 223.468506 
L 243.133398 223.834109 
L 242.895318 225.88961 
L 242.538198 230.668295 
L 241.823958 243.48133 
L 241.704918 243.549661 
L 241.228758 242.468388 
L 240.871638 242.70497 
L 240.752598 242.517318 
L 240.514518 241.126067 
L 238.728918 222.226793 
L 238.609878 222.11039 
L 238.490837 222.380365 
L 238.252758 224.080392 
L 237.895638 229.876225 
L 237.300438 244.766994 
L 236.824278 254.986811 
L 236.586198 255.892966 
L 236.467158 255.483668 
L 236.110038 252.297621 
L 235.871958 250.424621 
L 235.633878 250.01644 
L 235.395798 250.588495 
L 235.157718 251.957083 
L 234.562518 257.681839 
L 234.443478 257.312973 
L 234.205398 254.307711 
L 233.848278 245.88166 
L 232.895958 217.875175 
L 232.657878 216.028186 
L 232.538837 215.711169 
L 232.419798 215.853496 
L 232.181718 217.353939 
L 231.824598 219.470817 
L 231.586518 220.000723 
L 230.991318 222.615832 
L 230.753238 222.476595 
L 230.634198 222.592912 
L 230.396118 223.167714 
L 230.277078 223.10874 
L 230.158038 222.493163 
L 229.919958 219.467727 
L 229.324758 210.283429 
L 229.086678 209.542779 
L 228.967638 210.104447 
L 228.729557 212.770718 
L 228.253398 221.878701 
L 227.420118 242.798796 
L 227.062997 244.667074 
L 226.824918 245.71152 
L 226.586838 248.129363 
L 226.110678 254.0901 
L 225.991638 254.064776 
L 225.753557 251.399707 
L 225.396438 242.197211 
L 224.801238 225.150248 
L 224.563158 222.422171 
L 224.444118 222.192799 
L 224.325078 222.621755 
L 224.086997 225.402368 
L 223.729878 234.871491 
L 223.372758 243.824357 
L 223.253718 244.679607 
L 223.134678 244.408344 
L 222.539478 239.134691 
L 222.301398 242.071108 
L 221.944277 246.625229 
L 221.825238 246.36959 
L 221.468118 243.589063 
L 221.349078 243.542793 
L 221.110997 245.61675 
L 220.753878 249.569458 
L 220.634838 249.914631 
L 220.515798 249.754963 
L 220.277717 249.073803 
L 220.158678 249.025473 
L 220.039638 249.35777 
L 219.801558 251.202956 
L 219.444438 254.580003 
L 219.325398 254.628762 
L 219.087318 252.253755 
L 218.730198 248.420111 
L 218.611158 248.547158 
L 218.254038 250.182717 
L 218.134997 249.756079 
L 217.658838 246.144854 
L 217.301717 245.350724 
L 216.944598 243.610609 
L 216.825558 243.804871 
L 216.587478 246.182968 
L 215.873238 255.330353 
L 215.635158 256.209553 
L 215.516118 255.685398 
L 215.278038 252.674384 
L 214.682838 244.168328 
L 214.325717 242.151199 
L 213.968598 241.207618 
L 213.849558 241.569358 
L 213.611478 244.171075 
L 213.016278 252.058721 
L 212.659157 255.397225 
L 212.540118 255.193949 
L 212.302038 251.895448 
L 211.944918 246.564366 
L 211.468758 244.388257 
L 210.873558 238.72093 
L 210.635478 238.469239 
L 210.516437 238.843341 
L 210.278358 241.805597 
L 209.802198 251.237379 
L 209.683157 251.755868 
L 209.445078 251.654231 
L 209.326038 251.960689 
L 208.492758 256.32896 
L 208.373717 256.39214 
L 208.254678 256.082678 
L 207.778518 253.587921 
L 207.659478 253.844762 
L 207.064278 257.954733 
L 206.945238 257.337439 
L 206.707157 253.637366 
L 205.873877 236.806297 
L 205.516758 232.955055 
L 205.397717 232.437167 
L 205.278678 232.47056 
L 205.040598 233.847904 
L 204.683478 237.828253 
L 204.207318 244.070725 
L 204.088278 244.228847 
L 203.612118 241.985523 
L 203.493078 242.029646 
L 203.254998 242.654065 
L 203.016918 244.491011 
L 202.183638 257.237346 
L 201.945558 257.875586 
L 201.826518 257.799272 
L 201.707478 257.248677 
L 201.469398 254.548241 
L 200.874198 246.266235 
L 200.517078 244.044114 
L 200.398038 244.251338 
L 200.159958 246.353451 
L 199.802838 249.939783 
L 199.207638 254.23483 
L 198.850518 255.894167 
L 198.255317 257.931298 
L 198.017238 256.628808 
L 197.302998 250.459989 
L 196.945877 246.084506 
L 196.469718 243.459698 
L 196.112597 236.394682 
L 195.755478 230.944966 
L 195.517398 229.975374 
L 195.279317 229.509077 
L 195.160278 229.525902 
L 195.041238 229.948762 
L 194.803157 232.388408 
L 194.446037 239.127223 
L 193.850838 250.863191 
L 193.731798 250.750909 
L 192.779478 240.963653 
L 192.303317 233.982076 
L 192.184278 234.050149 
L 191.946198 236.582591 
L 191.470037 241.833067 
L 191.112918 243.610008 
L 190.636758 245.297244 
L 189.446358 254.402137 
L 189.327317 254.214915 
L 189.089238 251.611138 
L 188.255958 238.198664 
L 188.136918 237.492265 
L 188.017877 237.771168 
L 187.779798 241.064175 
L 186.827478 258.922951 
L 186.708438 259.692873 
L 186.589398 259.699483 
L 185.994198 256.895435 
L 185.518037 253.867939 
L 185.398998 253.926398 
L 185.041877 255.370184 
L 184.922838 254.820878 
L 184.684757 250.681548 
L 183.970518 234.46949 
L 183.732438 233.098584 
L 183.494358 234.367853 
L 183.256278 235.738072 
L 182.899158 236.202738 
L 182.661078 238.898452 
L 181.946838 253.131581 
L 181.827798 253.581997 
L 181.708757 253.120765 
L 181.351638 250.160913 
L 181.232597 250.153874 
L 180.994518 251.858622 
L 180.637398 254.158259 
L 180.280278 255.662993 
L 179.804118 258.591856 
L 179.685078 258.712894 
L 179.566037 258.415106 
L 179.327958 256.671558 
L 179.089878 252.822891 
L 178.256597 232.985701 
L 178.018518 232.322138 
L 177.899477 232.790409 
L 177.661398 236.120672 
L 176.828118 252.152804 
L 176.590037 253.949404 
L 176.470998 254.122891 
L 176.232918 253.939703 
L 175.994838 253.25777 
L 174.923477 247.525803 
L 174.328278 242.523241 
L 174.209238 242.420058 
L 174.090197 242.609942 
L 173.852118 243.833886 
L 173.256917 248.297185 
L 173.137878 247.922224 
L 172.661718 244.779098 
L 172.542678 245.063752 
L 172.185558 246.923961 
L 172.066518 246.501873 
L 171.828438 243.34175 
L 171.352278 236.475116 
L 171.233238 236.249436 
L 170.876118 237.757347 
L 170.757078 237.580168 
L 170.518998 235.21881 
L 170.161878 231.173564 
L 170.042838 231.083773 
L 169.923798 231.992245 
L 169.685718 236.656502 
L 169.209558 246.132578 
L 168.376278 251.743163 
L 168.257238 251.809777 
L 168.138197 251.009553 
L 167.423958 240.085741 
L 166.947798 233.57441 
L 166.828757 233.286579 
L 166.709718 233.795969 
L 166.114518 239.3608 
L 165.519317 247.33798 
L 165.162197 244.909665 
L 165.043158 245.231317 
L 164.566998 249.270039 
L 164.447958 248.997403 
L 164.209878 246.752705 
L 163.495637 236.672898 
L 163.019477 235.445864 
L 162.781398 234.399185 
L 162.662357 234.491552 
L 162.543318 235.516169 
L 162.305238 240.965027 
L 161.710037 257.261725 
L 161.590998 257.513073 
L 161.352917 254.92861 
L 160.995798 250.778293 
L 160.876757 250.737689 
L 160.757718 250.905082 
L 160.638678 250.679917 
L 160.400598 247.966948 
L 160.043477 243.286983 
L 159.686357 241.563349 
L 159.448278 237.916499 
L 158.853077 227.666122 
L 158.257878 221.653965 
L 157.900757 219.319734 
L 157.781718 219.063751 
L 157.662678 219.394675 
L 157.424598 222.717898 
L 156.234197 250.330023 
L 156.115158 251.363911 
L 155.996118 251.40915 
L 155.519958 248.011243 
L 153.853398 235.237781 
L 153.258197 235.756442 
L 153.020118 238.336956 
L 152.662998 243.507684 
L 152.543958 243.748215 
L 152.186838 242.28932 
L 151.948757 240.641314 
L 151.472598 235.36191 
L 151.353558 235.07717 
L 151.234517 235.176232 
L 150.758357 236.513745 
L 150.401238 237.51673 
L 150.163158 237.585662 
L 149.925077 237.315 
L 149.806038 237.3629 
L 149.448917 238.553966 
L 149.329878 238.464776 
L 149.091797 236.466704 
L 148.734678 233.035318 
L 147.901398 230.137616 
L 147.663318 230.105168 
L 147.425238 229.521438 
L 147.187158 228.159717 
L 146.949077 225.237292 
L 146.591958 215.896418 
L 145.758678 184.299652 
L 144.449237 119.467902 
L 144.330197 118.189277 
L 144.211158 118.907436 
L 143.973077 125.168536 
L 143.615958 144.153309 
L 142.425558 223.530484 
L 142.068438 231.279322 
L 141.473237 236.447132 
L 141.235158 233.76292 
L 140.997077 230.7004 
L 140.878038 230.556099 
L 140.639957 233.104765 
L 140.163797 239.382604 
L 139.925718 240.208668 
L 139.806678 240.069603 
L 139.568598 238.529329 
L 139.092438 231.733258 
L 138.497237 224.042106 
L 138.378197 224.408568 
L 138.140118 228.507294 
L 137.544917 246.608232 
L 137.068758 260.342101 
L 136.949718 261.401226 
L 136.830677 261.026352 
L 136.592598 256.71963 
L 136.116438 245.676926 
L 135.759318 242.643592 
L 135.521237 240.391169 
L 135.164118 236.012511 
L 135.045077 235.844173 
L 134.806998 237.979336 
L 134.330838 243.063878 
L 133.973718 244.906746 
L 133.735637 245.752124 
L 133.497558 247.641777 
L 132.902357 256.110662 
L 132.783318 255.769696 
L 132.426198 252.868302 
L 132.307158 253.352197 
L 131.950038 256.350764 
L 131.830998 255.747634 
L 130.997718 244.855756 
L 130.640598 239.8768 
L 130.521558 240.075612 
L 129.807318 244.920824 
L 129.212118 257.269022 
L 129.093077 256.156931 
L 128.497878 242.856139 
L 128.021718 232.061005 
L 127.902677 232.186593 
L 127.664598 236.53615 
L 127.307478 243.124998 
L 126.712278 248.151767 
L 126.593237 248.706568 
L 126.474198 248.590766 
L 126.236117 245.702335 
L 125.759957 236.832393 
L 125.640918 236.115951 
L 125.521878 236.190806 
L 125.283797 238.198406 
L 124.926677 242.343487 
L 124.807637 242.597323 
L 124.688598 241.835213 
L 124.093397 235.027124 
L 123.617237 239.170917 
L 123.498198 238.773551 
L 123.022038 234.972098 
L 122.902998 235.063435 
L 122.545878 236.649978 
L 122.069718 238.725308 
L 121.950677 238.709513 
L 121.593558 237.721551 
L 121.474517 237.983628 
L 121.236438 240.058357 
L 120.879318 242.863607 
L 120.760278 242.46049 
L 120.522198 239.240535 
L 120.046038 230.767529 
L 119.926998 229.978807 
L 119.807957 230.044219 
L 119.569878 232.365918 
L 119.212758 236.215357 
L 118.855638 237.555102 
L 118.498517 240.247898 
L 118.379478 240.344471 
L 117.903318 238.453788 
L 117.546198 238.997257 
L 117.308117 238.089987 
L 117.070038 236.997983 
L 116.950998 237.13413 
L 116.712918 239.132202 
L 116.236758 243.477811 
L 115.998677 244.302758 
L 115.879638 243.941103 
L 115.641557 240.338547 
L 115.165397 230.776457 
L 114.332117 226.206198 
L 114.213077 226.37711 
L 113.974998 229.194206 
L 113.498837 240.817892 
L 112.903638 258.069418 
L 112.784598 258.775302 
L 112.665557 258.450559 
L 112.308438 254.73658 
L 112.070358 249.902183 
L 111.237077 226.754903 
L 110.760918 225.448723 
L 110.641878 225.664531 
L 109.808598 231.433667 
L 109.332438 236.707921 
L 109.094358 237.67511 
L 108.856277 241.112676 
L 108.261077 254.400764 
L 108.142038 254.623697 
L 108.022997 254.279812 
L 107.784918 252.612491 
L 107.427797 247.409229 
L 107.070677 242.63372 
L 106.356438 239.088079 
L 106.237397 239.008846 
L 105.999318 240.05046 
L 105.642198 241.613996 
L 105.523158 241.667991 
L 105.166038 241.472785 
L 105.046997 241.560345 
L 104.808918 242.27756 
L 104.094677 245.644477 
L 103.737557 245.32231 
L 103.380438 245.790066 
L 103.261397 245.364115 
L 102.904277 241.692285 
L 102.547158 238.766941 
L 102.309078 237.859585 
L 102.070997 237.794087 
L 101.951957 237.723525 
L 101.475797 236.464386 
L 101.356758 237.163831 
L 101.118677 240.427652 
L 99.809237 263.264525 
L 99.690198 262.784236 
L 99.333078 257.373235 
L 98.975957 248.385431 
L 98.499797 234.180458 
L 98.261717 232.665079 
L 98.023638 234.083542 
L 97.666517 236.847845 
L 97.190358 238.300044 
L 96.952277 241.854356 
L 96.595158 248.732407 
L 96.476117 249.205056 
L 96.357078 248.101464 
L 95.642837 234.074786 
L 95.404758 234.222779 
L 95.285717 233.899581 
L 94.809557 230.864273 
L 94.690517 231.274687 
L 94.452437 235.61669 
L 93.738198 256.251015 
L 93.619157 255.821716 
L 92.904918 247.315317 
L 92.785878 246.983707 
L 92.666837 246.203055 
L 92.428758 242.427097 
L 92.071638 236.94313 
L 91.595478 234.46434 
L 91.238358 232.417337 
L 91.000277 231.88168 
L 90.524117 228.54 
L 90.405078 228.762504 
L 90.166997 231.455385 
L 89.690837 237.302381 
L 89.452758 239.373505 
L 88.857557 246.792794 
L 88.381397 248.521491 
L 88.262358 248.016308 
L 88.024277 244.59282 
L 87.667157 238.458252 
L 87.548117 237.668586 
L 87.429078 237.663006 
L 86.714837 240.799093 
L 86.595798 240.856693 
L 86.476758 241.219035 
L 86.238677 243.49206 
L 85.881557 247.242437 
L 85.762518 246.946881 
L 85.524437 244.043342 
L 85.167318 239.783232 
L 85.048277 239.785635 
L 84.810198 242.808496 
L 84.453078 248.926411 
L 84.334038 248.981436 
L 84.095957 245.224793 
L 83.619798 234.915614 
L 83.381717 234.001219 
L 83.262677 233.949112 
L 83.024597 232.95248 
L 82.786518 231.903226 
L 82.667478 232.235265 
L 82.429397 235.346029 
L 82.072277 246.349417 
L 81.596117 261.79533 
L 81.477078 262.872139 
L 81.358038 262.741315 
L 81.119957 260.18767 
L 80.762837 256.887881 
L 80.643798 256.806674 
L 80.405717 256.874833 
L 80.167638 256.400038 
L 80.048597 256.434461 
L 79.572437 257.560629 
L 79.453397 257.533246 
L 79.334358 257.793177 
L 78.977238 259.532691 
L 78.858198 259.144854 
L 78.620117 255.79107 
L 78.024918 243.450341 
L 77.905877 243.029026 
L 77.786837 243.434803 
L 77.310677 247.374463 
L 76.953557 249.928623 
L 76.715478 249.671782 
L 76.596437 249.932143 
L 76.358358 252.65816 
L 76.001238 256.722119 
L 75.882198 256.607777 
L 75.644117 254.432268 
L 75.406037 251.897938 
L 75.286997 251.483833 
L 75.167957 251.864545 
L 74.810837 254.313634 
L 74.691798 254.067094 
L 74.453717 251.118916 
L 73.620437 234.505458 
L 73.501397 234.203206 
L 73.263317 234.749165 
L 72.906198 235.875763 
L 72.668117 239.052282 
L 72.310997 251.420996 
L 72.072918 258.456912 
L 71.953877 259.583767 
L 71.834837 259.254218 
L 71.477717 255.089221 
L 71.120597 248.871472 
L 70.287317 232.913422 
L 70.049238 229.953741 
L 69.930198 229.593717 
L 69.811157 230.111091 
L 69.334997 233.889624 
L 69.096918 233.466505 
L 68.977877 234.160199 
L 68.739798 238.866004 
L 68.382677 247.008087 
L 68.144597 249.258965 
L 68.025557 249.556238 
L 67.906518 249.326952 
L 67.430358 246.296623 
L 67.311317 246.651411 
L 66.954198 249.09243 
L 66.835157 248.230657 
L 66.239958 236.993863 
L 65.882837 239.063699 
L 65.763798 238.936223 
L 65.525717 238.032215 
L 65.406678 238.476021 
L 64.692437 248.090733 
L 64.216277 257.52758 
L 64.097238 256.737914 
L 63.859157 249.106938 
L 63.263958 229.101239 
L 63.025877 223.648089 
L 62.906837 223.016545 
L 62.787798 224.264696 
L 62.192597 236.087194 
L 62.073557 236.407558 
L 61.954518 237.049661 
L 61.716437 240.978332 
L 61.478358 245.611857 
L 61.359317 246.379032 
L 61.240277 245.895824 
L 60.645078 240.189611 
L 60.526037 240.08617 
L 60.406997 240.864505 
L 60.168918 245.604217 
L 59.811798 253.81815 
L 59.692757 254.483001 
L 59.573717 253.987775 
L 59.097557 249.963818 
L 58.978518 250.326933 
L 58.621398 252.269808 
L 58.383317 252.425612 
L 58.264277 252.900064 
L 57.192917 260.994418 
L 57.073877 260.966348 
L 56.597717 259.097641 
L 56.478678 258.852904 
L 56.240597 257.372462 
L 55.883477 251.852269 
L 55.645398 248.432129 
L 55.169238 245.463349 
L 54.454997 230.577473 
L 54.097877 228.440508 
L 53.978837 228.542146 
L 53.502678 231.015528 
L 53.383638 230.827104 
L 53.264597 230.999476 
L 53.026518 234.147495 
L 52.788437 238.339274 
L 52.669398 238.769002 
L 52.550358 237.659658 
L 51.955157 227.928028 
L 51.598037 226.426384 
L 51.478997 226.350156 
L 51.359958 226.570513 
L 51.002837 227.743638 
L 50.764757 227.644147 
L 50.645717 228.189848 
L 50.407637 232.816849 
L 50.050518 241.558285 
L 49.931477 242.064928 
L 49.812437 241.848862 
L 49.693398 241.867318 
L 49.455317 244.276232 
L 49.098197 248.182928 
L 48.741078 249.56714 
L 48.622037 249.293216 
L 48.383958 245.621557 
L 47.907798 235.439855 
L 47.431637 232.082809 
L 46.955477 224.568149 
L 46.598357 222.825202 
L 46.003157 217.555326 
L 45.884118 218.181461 
L 45.646037 221.371114 
L 44.336597 244.792919 
L 44.217557 245.654092 
L 44.098518 245.396993 
L 43.860437 241.398875 
L 43.265238 227.690587 
L 43.146197 228.333978 
L 42.431958 236.325407 
L 42.074838 239.910021 
L 41.836757 241.355095 
L 41.241557 248.325513 
L 41.122518 248.014763 
L 40.646357 243.410682 
L 40.527317 243.467424 
L 40.289238 244.576166 
L 40.170197 244.35598 
L 39.813077 241.439307 
L 39.694037 241.430723 
L 39.455958 241.99136 
L 39.336917 241.922257 
L 39.217877 242.1609 
L 39.098838 243.554125 
L 38.503637 258.032935 
L 38.384597 257.421478 
L 37.789398 249.757968 
L 37.789398 249.757968 
" clip-path="url(#p5429d4866a)" style="fill: none; stroke: #4c72b0; stroke-linecap: round"/>
   </g>
   <g id="patch_3">
    <path d="M 37.908438 277.248797 
L 37.908438 11.136797 
" style="fill: none; stroke: #262626; stroke-width: 1.25; stroke-linejoin: miter; stroke-linecap: square"/>
   </g>
   <g id="patch_4">
    <path d="M 37.908437 277.248797 
L 395.028438 277.248797 
" style="fill: none; stroke: #262626; stroke-width: 1.25; stroke-linejoin: miter; stroke-linecap: square"/>
   </g>
   <g id="legend_1"/>
  </g>
 </g>
 <defs>
  <clipPath id="p5429d4866a">
   <rect x="37.908438" y="11.136797" width="357.12" height="266.112"/>
  </clipPath>
 </defs>
</svg>
