<?xml version="1.0" encoding="utf-8" standalone="no"?>
<!DOCTYPE svg PUBLIC "-//W3C//DTD SVG 1.1//EN"
  "http://www.w3.org/Graphics/SVG/1.1/DTD/svg11.dtd">
<svg xmlns:xlink="http://www.w3.org/1999/xlink" width="411.403984pt" height="319.168641pt" viewBox="0 0 411.403984 319.168641" xmlns="http://www.w3.org/2000/svg" version="1.1">
 <metadata>
  <rdf:RDF xmlns:dc="http://purl.org/dc/elements/1.1/" xmlns:cc="http://creativecommons.org/ns#" xmlns:rdf="http://www.w3.org/1999/02/22-rdf-syntax-ns#">
   <cc:Work>
    <dc:type rdf:resource="http://purl.org/dc/dcmitype/StillImage"/>
    <dc:date>2024-05-21T21:59:44.793778</dc:date>
    <dc:format>image/svg+xml</dc:format>
    <dc:creator>
     <cc:Agent>
      <dc:title>Matplotlib v3.7.1, https://matplotlib.org/</dc:title>
     </cc:Agent>
    </dc:creator>
   </cc:Work>
  </rdf:RDF>
 </metadata>
 <defs>
  <style type="text/css">*{stroke-linejoin: round; stroke-linecap: butt}</style>
 </defs>
 <g id="figure_1">
  <g id="patch_1">
   <path d="M 0 319.168641 
L 411.403984 319.168641 
L 411.403984 0 
L 0 0 
z
" style="fill: #ffffff"/>
  </g>
  <g id="axes_1">
   <g id="patch_2">
    <path d="M 37.908438 277.248797 
L 395.028438 277.248797 
L 395.028438 11.136797 
L 37.908438 11.136797 
z
" style="fill: #ffffff"/>
   </g>
   <g id="matplotlib.axis_1">
    <g id="xtick_1">
     <g id="line2d_1">
      <defs>
       <path id="m62fa7df35f" d="M 0 0 
L 0 -6 
" style="stroke: #262626; stroke-width: 1.25"/>
      </defs>
      <g>
       <use xlink:href="#m62fa7df35f" x="395.028437" y="277.248797" style="fill: #262626; stroke: #262626; stroke-width: 1.25"/>
      </g>
     </g>
     <g id="text_1">
      <!-- 500 -->
      <g style="fill: #262626" transform="translate(385.852891 288.622391) scale(0.11 -0.11)">
       <defs>
        <path id="ArialMT-35" d="M 266 1200 
L 856 1250 
Q 922 819 1161 601 
Q 1400 384 1738 384 
Q 2144 384 2425 690 
Q 2706 997 2706 1503 
Q 2706 1984 2436 2262 
Q 2166 2541 1728 2541 
Q 1456 2541 1237 2417 
Q 1019 2294 894 2097 
L 366 2166 
L 809 4519 
L 3088 4519 
L 3088 3981 
L 1259 3981 
L 1013 2750 
Q 1425 3038 1878 3038 
Q 2478 3038 2890 2622 
Q 3303 2206 3303 1553 
Q 3303 931 2941 478 
Q 2500 -78 1738 -78 
Q 1113 -78 717 272 
Q 322 622 266 1200 
z
" transform="scale(0.015625)"/>
        <path id="ArialMT-30" d="M 266 2259 
Q 266 3072 433 3567 
Q 600 4063 929 4331 
Q 1259 4600 1759 4600 
Q 2128 4600 2406 4451 
Q 2684 4303 2865 4023 
Q 3047 3744 3150 3342 
Q 3253 2941 3253 2259 
Q 3253 1453 3087 958 
Q 2922 463 2592 192 
Q 2263 -78 1759 -78 
Q 1097 -78 719 397 
Q 266 969 266 2259 
z
M 844 2259 
Q 844 1131 1108 757 
Q 1372 384 1759 384 
Q 2147 384 2411 759 
Q 2675 1134 2675 2259 
Q 2675 3391 2411 3762 
Q 2147 4134 1753 4134 
Q 1366 4134 1134 3806 
Q 844 3388 844 2259 
z
" transform="scale(0.015625)"/>
       </defs>
       <use xlink:href="#ArialMT-35"/>
       <use xlink:href="#ArialMT-30" x="55.615234"/>
       <use xlink:href="#ArialMT-30" x="111.230469"/>
      </g>
     </g>
    </g>
    <g id="xtick_2">
     <g id="line2d_2">
      <g>
       <use xlink:href="#m62fa7df35f" x="323.604438" y="277.248797" style="fill: #262626; stroke: #262626; stroke-width: 1.25"/>
      </g>
     </g>
     <g id="text_2">
      <!-- 1000 -->
      <g style="fill: #262626" transform="translate(311.370375 288.622391) scale(0.11 -0.11)">
       <defs>
        <path id="ArialMT-31" d="M 2384 0 
L 1822 0 
L 1822 3584 
Q 1619 3391 1289 3197 
Q 959 3003 697 2906 
L 697 3450 
Q 1169 3672 1522 3987 
Q 1875 4303 2022 4600 
L 2384 4600 
L 2384 0 
z
" transform="scale(0.015625)"/>
       </defs>
       <use xlink:href="#ArialMT-31"/>
       <use xlink:href="#ArialMT-30" x="55.615234"/>
       <use xlink:href="#ArialMT-30" x="111.230469"/>
       <use xlink:href="#ArialMT-30" x="166.845703"/>
      </g>
     </g>
    </g>
    <g id="xtick_3">
     <g id="line2d_3">
      <g>
       <use xlink:href="#m62fa7df35f" x="252.180437" y="277.248797" style="fill: #262626; stroke: #262626; stroke-width: 1.25"/>
      </g>
     </g>
     <g id="text_3">
      <!-- 1500 -->
      <g style="fill: #262626" transform="translate(239.946375 288.622391) scale(0.11 -0.11)">
       <use xlink:href="#ArialMT-31"/>
       <use xlink:href="#ArialMT-35" x="55.615234"/>
       <use xlink:href="#ArialMT-30" x="111.230469"/>
       <use xlink:href="#ArialMT-30" x="166.845703"/>
      </g>
     </g>
    </g>
    <g id="xtick_4">
     <g id="line2d_4">
      <g>
       <use xlink:href="#m62fa7df35f" x="180.756437" y="277.248797" style="fill: #262626; stroke: #262626; stroke-width: 1.25"/>
      </g>
     </g>
     <g id="text_4">
      <!-- 2000 -->
      <g style="fill: #262626" transform="translate(168.522375 288.622391) scale(0.11 -0.11)">
       <defs>
        <path id="ArialMT-32" d="M 3222 541 
L 3222 0 
L 194 0 
Q 188 203 259 391 
Q 375 700 629 1000 
Q 884 1300 1366 1694 
Q 2113 2306 2375 2664 
Q 2638 3022 2638 3341 
Q 2638 3675 2398 3904 
Q 2159 4134 1775 4134 
Q 1369 4134 1125 3890 
Q 881 3647 878 3216 
L 300 3275 
Q 359 3922 746 4261 
Q 1134 4600 1788 4600 
Q 2447 4600 2831 4234 
Q 3216 3869 3216 3328 
Q 3216 3053 3103 2787 
Q 2991 2522 2730 2228 
Q 2469 1934 1863 1422 
Q 1356 997 1212 845 
Q 1069 694 975 541 
L 3222 541 
z
" transform="scale(0.015625)"/>
       </defs>
       <use xlink:href="#ArialMT-32"/>
       <use xlink:href="#ArialMT-30" x="55.615234"/>
       <use xlink:href="#ArialMT-30" x="111.230469"/>
       <use xlink:href="#ArialMT-30" x="166.845703"/>
      </g>
     </g>
    </g>
    <g id="xtick_5">
     <g id="line2d_5">
      <g>
       <use xlink:href="#m62fa7df35f" x="109.332437" y="277.248797" style="fill: #262626; stroke: #262626; stroke-width: 1.25"/>
      </g>
     </g>
     <g id="text_5">
      <!-- 2500 -->
      <g style="fill: #262626" transform="translate(97.098375 288.622391) scale(0.11 -0.11)">
       <use xlink:href="#ArialMT-32"/>
       <use xlink:href="#ArialMT-35" x="55.615234"/>
       <use xlink:href="#ArialMT-30" x="111.230469"/>
       <use xlink:href="#ArialMT-30" x="166.845703"/>
      </g>
     </g>
    </g>
    <g id="xtick_6">
     <g id="line2d_6">
      <g>
       <use xlink:href="#m62fa7df35f" x="37.908437" y="277.248797" style="fill: #262626; stroke: #262626; stroke-width: 1.25"/>
      </g>
     </g>
     <g id="text_6">
      <!-- 3000 -->
      <g style="fill: #262626" transform="translate(25.674375 288.622391) scale(0.11 -0.11)">
       <defs>
        <path id="ArialMT-33" d="M 269 1209 
L 831 1284 
Q 928 806 1161 595 
Q 1394 384 1728 384 
Q 2125 384 2398 659 
Q 2672 934 2672 1341 
Q 2672 1728 2419 1979 
Q 2166 2231 1775 2231 
Q 1616 2231 1378 2169 
L 1441 2663 
Q 1497 2656 1531 2656 
Q 1891 2656 2178 2843 
Q 2466 3031 2466 3422 
Q 2466 3731 2256 3934 
Q 2047 4138 1716 4138 
Q 1388 4138 1169 3931 
Q 950 3725 888 3313 
L 325 3413 
Q 428 3978 793 4289 
Q 1159 4600 1703 4600 
Q 2078 4600 2393 4439 
Q 2709 4278 2876 4000 
Q 3044 3722 3044 3409 
Q 3044 3113 2884 2869 
Q 2725 2625 2413 2481 
Q 2819 2388 3044 2092 
Q 3269 1797 3269 1353 
Q 3269 753 2831 336 
Q 2394 -81 1725 -81 
Q 1122 -81 723 278 
Q 325 638 269 1209 
z
" transform="scale(0.015625)"/>
       </defs>
       <use xlink:href="#ArialMT-33"/>
       <use xlink:href="#ArialMT-30" x="55.615234"/>
       <use xlink:href="#ArialMT-30" x="111.230469"/>
       <use xlink:href="#ArialMT-30" x="166.845703"/>
      </g>
     </g>
    </g>
    <g id="xtick_7">
     <g id="line2d_7">
      <defs>
       <path id="m6ed04c9b01" d="M 0 0 
L 0 -4 
" style="stroke: #262626"/>
      </defs>
      <g>
       <use xlink:href="#m6ed04c9b01" x="359.316438" y="277.248797" style="fill: #262626; stroke: #262626"/>
      </g>
     </g>
    </g>
    <g id="xtick_8">
     <g id="line2d_8">
      <g>
       <use xlink:href="#m6ed04c9b01" x="287.892438" y="277.248797" style="fill: #262626; stroke: #262626"/>
      </g>
     </g>
    </g>
    <g id="xtick_9">
     <g id="line2d_9">
      <g>
       <use xlink:href="#m6ed04c9b01" x="216.468437" y="277.248797" style="fill: #262626; stroke: #262626"/>
      </g>
     </g>
    </g>
    <g id="xtick_10">
     <g id="line2d_10">
      <g>
       <use xlink:href="#m6ed04c9b01" x="145.044437" y="277.248797" style="fill: #262626; stroke: #262626"/>
      </g>
     </g>
    </g>
    <g id="xtick_11">
     <g id="line2d_11">
      <g>
       <use xlink:href="#m6ed04c9b01" x="73.620437" y="277.248797" style="fill: #262626; stroke: #262626"/>
      </g>
     </g>
    </g>
    <g id="text_7">
     <!-- Wavenumber ($\mathregular{cm^{-1}}$) -->
     <g style="fill: #262626" transform="translate(161.928438 309.328641) scale(0.12 -0.12)">
      <defs>
       <path id="ArialMT-57" d="M 1294 0 
L 78 4581 
L 700 4581 
L 1397 1578 
Q 1509 1106 1591 641 
Q 1766 1375 1797 1488 
L 2669 4581 
L 3400 4581 
L 4056 2263 
Q 4303 1400 4413 641 
Q 4500 1075 4641 1638 
L 5359 4581 
L 5969 4581 
L 4713 0 
L 4128 0 
L 3163 3491 
Q 3041 3928 3019 4028 
Q 2947 3713 2884 3491 
L 1913 0 
L 1294 0 
z
" transform="scale(0.015625)"/>
       <path id="ArialMT-61" d="M 2588 409 
Q 2275 144 1986 34 
Q 1697 -75 1366 -75 
Q 819 -75 525 192 
Q 231 459 231 875 
Q 231 1119 342 1320 
Q 453 1522 633 1644 
Q 813 1766 1038 1828 
Q 1203 1872 1538 1913 
Q 2219 1994 2541 2106 
Q 2544 2222 2544 2253 
Q 2544 2597 2384 2738 
Q 2169 2928 1744 2928 
Q 1347 2928 1158 2789 
Q 969 2650 878 2297 
L 328 2372 
Q 403 2725 575 2942 
Q 747 3159 1072 3276 
Q 1397 3394 1825 3394 
Q 2250 3394 2515 3294 
Q 2781 3194 2906 3042 
Q 3031 2891 3081 2659 
Q 3109 2516 3109 2141 
L 3109 1391 
Q 3109 606 3145 398 
Q 3181 191 3288 0 
L 2700 0 
Q 2613 175 2588 409 
z
M 2541 1666 
Q 2234 1541 1622 1453 
Q 1275 1403 1131 1340 
Q 988 1278 909 1158 
Q 831 1038 831 891 
Q 831 666 1001 516 
Q 1172 366 1500 366 
Q 1825 366 2078 508 
Q 2331 650 2450 897 
Q 2541 1088 2541 1459 
L 2541 1666 
z
" transform="scale(0.015625)"/>
       <path id="ArialMT-76" d="M 1344 0 
L 81 3319 
L 675 3319 
L 1388 1331 
Q 1503 1009 1600 663 
Q 1675 925 1809 1294 
L 2547 3319 
L 3125 3319 
L 1869 0 
L 1344 0 
z
" transform="scale(0.015625)"/>
       <path id="ArialMT-65" d="M 2694 1069 
L 3275 997 
Q 3138 488 2766 206 
Q 2394 -75 1816 -75 
Q 1088 -75 661 373 
Q 234 822 234 1631 
Q 234 2469 665 2931 
Q 1097 3394 1784 3394 
Q 2450 3394 2872 2941 
Q 3294 2488 3294 1666 
Q 3294 1616 3291 1516 
L 816 1516 
Q 847 969 1125 678 
Q 1403 388 1819 388 
Q 2128 388 2347 550 
Q 2566 713 2694 1069 
z
M 847 1978 
L 2700 1978 
Q 2663 2397 2488 2606 
Q 2219 2931 1791 2931 
Q 1403 2931 1139 2672 
Q 875 2413 847 1978 
z
" transform="scale(0.015625)"/>
       <path id="ArialMT-6e" d="M 422 0 
L 422 3319 
L 928 3319 
L 928 2847 
Q 1294 3394 1984 3394 
Q 2284 3394 2536 3286 
Q 2788 3178 2913 3003 
Q 3038 2828 3088 2588 
Q 3119 2431 3119 2041 
L 3119 0 
L 2556 0 
L 2556 2019 
Q 2556 2363 2490 2533 
Q 2425 2703 2258 2804 
Q 2091 2906 1866 2906 
Q 1506 2906 1245 2678 
Q 984 2450 984 1813 
L 984 0 
L 422 0 
z
" transform="scale(0.015625)"/>
       <path id="ArialMT-75" d="M 2597 0 
L 2597 488 
Q 2209 -75 1544 -75 
Q 1250 -75 995 37 
Q 741 150 617 320 
Q 494 491 444 738 
Q 409 903 409 1263 
L 409 3319 
L 972 3319 
L 972 1478 
Q 972 1038 1006 884 
Q 1059 663 1231 536 
Q 1403 409 1656 409 
Q 1909 409 2131 539 
Q 2353 669 2445 892 
Q 2538 1116 2538 1541 
L 2538 3319 
L 3100 3319 
L 3100 0 
L 2597 0 
z
" transform="scale(0.015625)"/>
       <path id="ArialMT-6d" d="M 422 0 
L 422 3319 
L 925 3319 
L 925 2853 
Q 1081 3097 1340 3245 
Q 1600 3394 1931 3394 
Q 2300 3394 2536 3241 
Q 2772 3088 2869 2813 
Q 3263 3394 3894 3394 
Q 4388 3394 4653 3120 
Q 4919 2847 4919 2278 
L 4919 0 
L 4359 0 
L 4359 2091 
Q 4359 2428 4304 2576 
Q 4250 2725 4106 2815 
Q 3963 2906 3769 2906 
Q 3419 2906 3187 2673 
Q 2956 2441 2956 1928 
L 2956 0 
L 2394 0 
L 2394 2156 
Q 2394 2531 2256 2718 
Q 2119 2906 1806 2906 
Q 1569 2906 1367 2781 
Q 1166 2656 1075 2415 
Q 984 2175 984 1722 
L 984 0 
L 422 0 
z
" transform="scale(0.015625)"/>
       <path id="ArialMT-62" d="M 941 0 
L 419 0 
L 419 4581 
L 981 4581 
L 981 2947 
Q 1338 3394 1891 3394 
Q 2197 3394 2470 3270 
Q 2744 3147 2920 2923 
Q 3097 2700 3197 2384 
Q 3297 2069 3297 1709 
Q 3297 856 2875 390 
Q 2453 -75 1863 -75 
Q 1275 -75 941 416 
L 941 0 
z
M 934 1684 
Q 934 1088 1097 822 
Q 1363 388 1816 388 
Q 2184 388 2453 708 
Q 2722 1028 2722 1663 
Q 2722 2313 2464 2622 
Q 2206 2931 1841 2931 
Q 1472 2931 1203 2611 
Q 934 2291 934 1684 
z
" transform="scale(0.015625)"/>
       <path id="ArialMT-72" d="M 416 0 
L 416 3319 
L 922 3319 
L 922 2816 
Q 1116 3169 1280 3281 
Q 1444 3394 1641 3394 
Q 1925 3394 2219 3213 
L 2025 2691 
Q 1819 2813 1613 2813 
Q 1428 2813 1281 2702 
Q 1134 2591 1072 2394 
Q 978 2094 978 1738 
L 978 0 
L 416 0 
z
" transform="scale(0.015625)"/>
       <path id="ArialMT-20" transform="scale(0.015625)"/>
       <path id="ArialMT-28" d="M 1497 -1347 
Q 1031 -759 709 28 
Q 388 816 388 1659 
Q 388 2403 628 3084 
Q 909 3875 1497 4659 
L 1900 4659 
Q 1522 4009 1400 3731 
Q 1209 3300 1100 2831 
Q 966 2247 966 1656 
Q 966 153 1900 -1347 
L 1497 -1347 
z
" transform="scale(0.015625)"/>
       <path id="ArialMT-63" d="M 2588 1216 
L 3141 1144 
Q 3050 572 2676 248 
Q 2303 -75 1759 -75 
Q 1078 -75 664 370 
Q 250 816 250 1647 
Q 250 2184 428 2587 
Q 606 2991 970 3192 
Q 1334 3394 1763 3394 
Q 2303 3394 2647 3120 
Q 2991 2847 3088 2344 
L 2541 2259 
Q 2463 2594 2264 2762 
Q 2066 2931 1784 2931 
Q 1359 2931 1093 2626 
Q 828 2322 828 1663 
Q 828 994 1084 691 
Q 1341 388 1753 388 
Q 2084 388 2306 591 
Q 2528 794 2588 1216 
z
" transform="scale(0.015625)"/>
       <path id="ArialMT-2212" d="M 3381 1997 
L 356 1997 
L 356 2522 
L 3381 2522 
L 3381 1997 
z
" transform="scale(0.015625)"/>
       <path id="ArialMT-29" d="M 791 -1347 
L 388 -1347 
Q 1322 153 1322 1656 
Q 1322 2244 1188 2822 
Q 1081 3291 891 3722 
Q 769 4003 388 4659 
L 791 4659 
Q 1378 3875 1659 3084 
Q 1900 2403 1900 1659 
Q 1900 816 1576 28 
Q 1253 -759 791 -1347 
z
" transform="scale(0.015625)"/>
      </defs>
      <use xlink:href="#ArialMT-57" transform="translate(0 0.99375)"/>
      <use xlink:href="#ArialMT-61" transform="translate(94.384766 0.99375)"/>
      <use xlink:href="#ArialMT-76" transform="translate(150 0.99375)"/>
      <use xlink:href="#ArialMT-65" transform="translate(200 0.99375)"/>
      <use xlink:href="#ArialMT-6e" transform="translate(255.615234 0.99375)"/>
      <use xlink:href="#ArialMT-75" transform="translate(311.230469 0.99375)"/>
      <use xlink:href="#ArialMT-6d" transform="translate(366.845703 0.99375)"/>
      <use xlink:href="#ArialMT-62" transform="translate(450.146484 0.99375)"/>
      <use xlink:href="#ArialMT-65" transform="translate(505.761719 0.99375)"/>
      <use xlink:href="#ArialMT-72" transform="translate(561.376953 0.99375)"/>
      <use xlink:href="#ArialMT-20" transform="translate(594.677734 0.99375)"/>
      <use xlink:href="#ArialMT-28" transform="translate(622.460938 0.99375)"/>
      <use xlink:href="#ArialMT-63" transform="translate(655.761719 0.99375)"/>
      <use xlink:href="#ArialMT-6d" transform="translate(705.761719 0.99375)"/>
      <use xlink:href="#ArialMT-2212" transform="translate(790.804844 70.6875) scale(0.7)"/>
      <use xlink:href="#ArialMT-31" transform="translate(831.68375 70.6875) scale(0.7)"/>
      <use xlink:href="#ArialMT-29" transform="translate(875.592539 0.99375)"/>
     </g>
    </g>
   </g>
   <g id="matplotlib.axis_2">
    <g id="ytick_1">
     <g id="line2d_12">
      <defs>
       <path id="md58ee631ed" d="M 0 0 
L 6 0 
" style="stroke: #262626; stroke-width: 1.25"/>
      </defs>
      <g>
       <use xlink:href="#md58ee631ed" x="37.908438" y="277.248797" style="fill: #262626; stroke: #262626; stroke-width: 1.25"/>
      </g>
     </g>
     <g id="text_8">
      <!-- 0 -->
      <g style="fill: #262626" transform="translate(28.291406 281.185594) scale(0.11 -0.11)">
       <use xlink:href="#ArialMT-30"/>
      </g>
     </g>
    </g>
    <g id="ytick_2">
     <g id="line2d_13">
      <g>
       <use xlink:href="#md58ee631ed" x="37.908438" y="243.984797" style="fill: #262626; stroke: #262626; stroke-width: 1.25"/>
      </g>
     </g>
     <g id="text_9">
      <!-- 5 -->
      <g style="fill: #262626" transform="translate(28.291406 247.921594) scale(0.11 -0.11)">
       <use xlink:href="#ArialMT-35"/>
      </g>
     </g>
    </g>
    <g id="ytick_3">
     <g id="line2d_14">
      <g>
       <use xlink:href="#md58ee631ed" x="37.908438" y="210.720797" style="fill: #262626; stroke: #262626; stroke-width: 1.25"/>
      </g>
     </g>
     <g id="text_10">
      <!-- 10 -->
      <g style="fill: #262626" transform="translate(22.174375 214.657594) scale(0.11 -0.11)">
       <use xlink:href="#ArialMT-31"/>
       <use xlink:href="#ArialMT-30" x="55.615234"/>
      </g>
     </g>
    </g>
    <g id="ytick_4">
     <g id="line2d_15">
      <g>
       <use xlink:href="#md58ee631ed" x="37.908438" y="177.456797" style="fill: #262626; stroke: #262626; stroke-width: 1.25"/>
      </g>
     </g>
     <g id="text_11">
      <!-- 15 -->
      <g style="fill: #262626" transform="translate(22.174375 181.393594) scale(0.11 -0.11)">
       <use xlink:href="#ArialMT-31"/>
       <use xlink:href="#ArialMT-35" x="55.615234"/>
      </g>
     </g>
    </g>
    <g id="ytick_5">
     <g id="line2d_16">
      <g>
       <use xlink:href="#md58ee631ed" x="37.908438" y="144.192797" style="fill: #262626; stroke: #262626; stroke-width: 1.25"/>
      </g>
     </g>
     <g id="text_12">
      <!-- 20 -->
      <g style="fill: #262626" transform="translate(22.174375 148.129594) scale(0.11 -0.11)">
       <use xlink:href="#ArialMT-32"/>
       <use xlink:href="#ArialMT-30" x="55.615234"/>
      </g>
     </g>
    </g>
    <g id="ytick_6">
     <g id="line2d_17">
      <g>
       <use xlink:href="#md58ee631ed" x="37.908438" y="110.928797" style="fill: #262626; stroke: #262626; stroke-width: 1.25"/>
      </g>
     </g>
     <g id="text_13">
      <!-- 25 -->
      <g style="fill: #262626" transform="translate(22.174375 114.865594) scale(0.11 -0.11)">
       <use xlink:href="#ArialMT-32"/>
       <use xlink:href="#ArialMT-35" x="55.615234"/>
      </g>
     </g>
    </g>
    <g id="ytick_7">
     <g id="line2d_18">
      <g>
       <use xlink:href="#md58ee631ed" x="37.908438" y="77.664797" style="fill: #262626; stroke: #262626; stroke-width: 1.25"/>
      </g>
     </g>
     <g id="text_14">
      <!-- 30 -->
      <g style="fill: #262626" transform="translate(22.174375 81.601594) scale(0.11 -0.11)">
       <use xlink:href="#ArialMT-33"/>
       <use xlink:href="#ArialMT-30" x="55.615234"/>
      </g>
     </g>
    </g>
    <g id="ytick_8">
     <g id="line2d_19">
      <g>
       <use xlink:href="#md58ee631ed" x="37.908438" y="44.400797" style="fill: #262626; stroke: #262626; stroke-width: 1.25"/>
      </g>
     </g>
     <g id="text_15">
      <!-- 35 -->
      <g style="fill: #262626" transform="translate(22.174375 48.337594) scale(0.11 -0.11)">
       <use xlink:href="#ArialMT-33"/>
       <use xlink:href="#ArialMT-35" x="55.615234"/>
      </g>
     </g>
    </g>
    <g id="ytick_9">
     <g id="line2d_20">
      <g>
       <use xlink:href="#md58ee631ed" x="37.908438" y="11.136797" style="fill: #262626; stroke: #262626; stroke-width: 1.25"/>
      </g>
     </g>
     <g id="text_16">
      <!-- 40 -->
      <g style="fill: #262626" transform="translate(22.174375 15.073594) scale(0.11 -0.11)">
       <defs>
        <path id="ArialMT-34" d="M 2069 0 
L 2069 1097 
L 81 1097 
L 81 1613 
L 2172 4581 
L 2631 4581 
L 2631 1613 
L 3250 1613 
L 3250 1097 
L 2631 1097 
L 2631 0 
L 2069 0 
z
M 2069 1613 
L 2069 3678 
L 634 1613 
L 2069 1613 
z
" transform="scale(0.015625)"/>
       </defs>
       <use xlink:href="#ArialMT-34"/>
       <use xlink:href="#ArialMT-30" x="55.615234"/>
      </g>
     </g>
    </g>
    <g id="ytick_10">
     <g id="line2d_21">
      <defs>
       <path id="m9f9ced642d" d="M 0 0 
L 4 0 
" style="stroke: #262626"/>
      </defs>
      <g>
       <use xlink:href="#m9f9ced642d" x="37.908438" y="260.616797" style="fill: #262626; stroke: #262626"/>
      </g>
     </g>
    </g>
    <g id="ytick_11">
     <g id="line2d_22">
      <g>
       <use xlink:href="#m9f9ced642d" x="37.908438" y="227.352797" style="fill: #262626; stroke: #262626"/>
      </g>
     </g>
    </g>
    <g id="ytick_12">
     <g id="line2d_23">
      <g>
       <use xlink:href="#m9f9ced642d" x="37.908438" y="194.088797" style="fill: #262626; stroke: #262626"/>
      </g>
     </g>
    </g>
    <g id="ytick_13">
     <g id="line2d_24">
      <g>
       <use xlink:href="#m9f9ced642d" x="37.908438" y="160.824797" style="fill: #262626; stroke: #262626"/>
      </g>
     </g>
    </g>
    <g id="ytick_14">
     <g id="line2d_25">
      <g>
       <use xlink:href="#m9f9ced642d" x="37.908438" y="127.560797" style="fill: #262626; stroke: #262626"/>
      </g>
     </g>
    </g>
    <g id="ytick_15">
     <g id="line2d_26">
      <g>
       <use xlink:href="#m9f9ced642d" x="37.908438" y="94.296797" style="fill: #262626; stroke: #262626"/>
      </g>
     </g>
    </g>
    <g id="ytick_16">
     <g id="line2d_27">
      <g>
       <use xlink:href="#m9f9ced642d" x="37.908438" y="61.032797" style="fill: #262626; stroke: #262626"/>
      </g>
     </g>
    </g>
    <g id="ytick_17">
     <g id="line2d_28">
      <g>
       <use xlink:href="#m9f9ced642d" x="37.908438" y="27.768797" style="fill: #262626; stroke: #262626"/>
      </g>
     </g>
    </g>
    <g id="text_17">
     <!-- AU-045-D-FECL3 -->
     <g style="fill: #262626" transform="translate(15.789375 191.537484) rotate(-90) scale(0.12 -0.12)">
      <defs>
       <path id="ArialMT-41" d="M -9 0 
L 1750 4581 
L 2403 4581 
L 4278 0 
L 3588 0 
L 3053 1388 
L 1138 1388 
L 634 0 
L -9 0 
z
M 1313 1881 
L 2866 1881 
L 2388 3150 
Q 2169 3728 2063 4100 
Q 1975 3659 1816 3225 
L 1313 1881 
z
" transform="scale(0.015625)"/>
       <path id="ArialMT-55" d="M 3500 4581 
L 4106 4581 
L 4106 1934 
Q 4106 1244 3950 837 
Q 3794 431 3386 176 
Q 2978 -78 2316 -78 
Q 1672 -78 1262 144 
Q 853 366 678 786 
Q 503 1206 503 1934 
L 503 4581 
L 1109 4581 
L 1109 1938 
Q 1109 1341 1220 1058 
Q 1331 775 1601 622 
Q 1872 469 2263 469 
Q 2931 469 3215 772 
Q 3500 1075 3500 1938 
L 3500 4581 
z
" transform="scale(0.015625)"/>
       <path id="ArialMT-2d" d="M 203 1375 
L 203 1941 
L 1931 1941 
L 1931 1375 
L 203 1375 
z
" transform="scale(0.015625)"/>
       <path id="ArialMT-44" d="M 494 0 
L 494 4581 
L 2072 4581 
Q 2606 4581 2888 4516 
Q 3281 4425 3559 4188 
Q 3922 3881 4101 3404 
Q 4281 2928 4281 2316 
Q 4281 1794 4159 1391 
Q 4038 988 3847 723 
Q 3656 459 3429 307 
Q 3203 156 2883 78 
Q 2563 0 2147 0 
L 494 0 
z
M 1100 541 
L 2078 541 
Q 2531 541 2789 625 
Q 3047 709 3200 863 
Q 3416 1078 3536 1442 
Q 3656 1806 3656 2325 
Q 3656 3044 3420 3430 
Q 3184 3816 2847 3947 
Q 2603 4041 2063 4041 
L 1100 4041 
L 1100 541 
z
" transform="scale(0.015625)"/>
       <path id="ArialMT-46" d="M 525 0 
L 525 4581 
L 3616 4581 
L 3616 4041 
L 1131 4041 
L 1131 2622 
L 3281 2622 
L 3281 2081 
L 1131 2081 
L 1131 0 
L 525 0 
z
" transform="scale(0.015625)"/>
       <path id="ArialMT-45" d="M 506 0 
L 506 4581 
L 3819 4581 
L 3819 4041 
L 1113 4041 
L 1113 2638 
L 3647 2638 
L 3647 2100 
L 1113 2100 
L 1113 541 
L 3925 541 
L 3925 0 
L 506 0 
z
" transform="scale(0.015625)"/>
       <path id="ArialMT-43" d="M 3763 1606 
L 4369 1453 
Q 4178 706 3683 314 
Q 3188 -78 2472 -78 
Q 1731 -78 1267 223 
Q 803 525 561 1097 
Q 319 1669 319 2325 
Q 319 3041 592 3573 
Q 866 4106 1370 4382 
Q 1875 4659 2481 4659 
Q 3169 4659 3637 4309 
Q 4106 3959 4291 3325 
L 3694 3184 
Q 3534 3684 3231 3912 
Q 2928 4141 2469 4141 
Q 1941 4141 1586 3887 
Q 1231 3634 1087 3207 
Q 944 2781 944 2328 
Q 944 1744 1114 1308 
Q 1284 872 1643 656 
Q 2003 441 2422 441 
Q 2931 441 3284 734 
Q 3638 1028 3763 1606 
z
" transform="scale(0.015625)"/>
       <path id="ArialMT-4c" d="M 469 0 
L 469 4581 
L 1075 4581 
L 1075 541 
L 3331 541 
L 3331 0 
L 469 0 
z
" transform="scale(0.015625)"/>
      </defs>
      <use xlink:href="#ArialMT-41"/>
      <use xlink:href="#ArialMT-55" x="66.699219"/>
      <use xlink:href="#ArialMT-2d" x="138.916016"/>
      <use xlink:href="#ArialMT-30" x="172.216797"/>
      <use xlink:href="#ArialMT-34" x="227.832031"/>
      <use xlink:href="#ArialMT-35" x="283.447266"/>
      <use xlink:href="#ArialMT-2d" x="339.0625"/>
      <use xlink:href="#ArialMT-44" x="372.363281"/>
      <use xlink:href="#ArialMT-2d" x="444.580078"/>
      <use xlink:href="#ArialMT-46" x="477.880859"/>
      <use xlink:href="#ArialMT-45" x="538.964844"/>
      <use xlink:href="#ArialMT-43" x="605.664062"/>
      <use xlink:href="#ArialMT-4c" x="677.880859"/>
      <use xlink:href="#ArialMT-33" x="733.496094"/>
     </g>
    </g>
   </g>
   <g id="PolyCollection_1"/>
   <g id="line2d_29">
    <path d="M 395.099862 266.172484 
L 394.814166 262.546442 
L 394.457046 261.34754 
L 394.17135 258.605123 
L 394.099926 258.744034 
L 393.742806 261.448796 
L 393.599958 259.854985 
L 393.171414 253.48433 
L 393.099989 253.334442 
L 393.028566 253.429378 
L 392.885717 254.377003 
L 392.457174 260.352814 
L 391.957205 267.763634 
L 391.528661 269.800455 
L 391.385814 269.136306 
L 391.028694 265.505474 
L 390.671574 261.445403 
L 390.60015 261.326385 
L 390.457302 262.190916 
L 390.171605 264.32081 
L 390.028757 263.690524 
L 389.385942 259.132956 
L 389.028822 257.246488 
L 388.957398 257.514463 
L 388.743126 260.634892 
L 388.457429 263.729642 
L 388.100309 266.973082 
L 388.028886 266.900832 
L 387.600342 263.903546 
L 387.314645 259.249713 
L 387.02895 256.049384 
L 386.814678 255.426548 
L 386.67183 256.193151 
L 386.386134 260.730493 
L 385.95759 267.363002 
L 385.671894 268.808323 
L 385.60047 268.969919 
L 385.529045 268.938119 
L 385.386197 267.943991 
L 385.100502 262.697327 
L 384.52911 252.651666 
L 384.386262 251.688939 
L 384.314838 251.752872 
L 384.171989 253.114102 
L 383.45775 264.686315 
L 383.314902 263.491272 
L 382.957782 259.887384 
L 382.814933 260.559583 
L 382.38639 263.642889 
L 382.243541 264.349084 
L 381.743574 269.533212 
L 381.67215 269.282934 
L 381.457877 265.966846 
L 381.172182 262.522026 
L 381.029334 262.144879 
L 380.815062 259.851858 
L 380.672213 258.823135 
L 380.60079 259.061771 
L 380.386518 262.266625 
L 380.100821 266.971019 
L 380.029398 267.121639 
L 379.88655 265.593757 
L 379.600854 261.726151 
L 379.458006 261.498958 
L 379.315157 261.651973 
L 379.172309 262.237219 
L 378.886614 263.512228 
L 378.743765 263.613418 
L 378.529494 263.900153 
L 378.386645 262.581834 
L 378.029525 257.773324 
L 377.958101 257.922679 
L 377.815254 259.252707 
L 376.886742 273.219928 
L 376.815317 273.058797 
L 376.67247 271.248104 
L 375.95823 258.868973 
L 375.886806 259.027243 
L 375.743958 260.49718 
L 375.386838 267.552341 
L 374.958294 276.156939 
L 374.886869 276.619375 
L 374.815446 276.574935 
L 374.672597 274.76524 
L 373.81551 255.991438 
L 373.672662 257.752434 
L 373.10127 269.461229 
L 372.958421 270.046409 
L 372.886998 269.993918 
L 372.458454 268.994601 
L 372.315606 268.617321 
L 372.172757 268.2594 
L 372.02991 269.037578 
L 371.815637 270.723864 
L 371.744214 270.448504 
L 370.95855 261.71564 
L 370.815701 262.68808 
L 370.387158 268.26459 
L 370.101462 271.016653 
L 369.958614 269.689287 
L 369.387222 260.92083 
L 369.244373 262.030118 
L 368.81583 268.352872 
L 368.744406 268.425321 
L 368.601558 267.964482 
L 368.387286 266.78055 
L 368.173014 263.428869 
L 367.815894 256.213907 
L 367.74447 256.562248 
L 367.530197 260.941454 
L 367.244502 266.216326 
L 366.958806 267.784923 
L 366.815958 268.240773 
L 366.744533 268.190677 
L 366.601686 266.568126 
L 366.101718 255.476178 
L 365.316054 261.260522 
L 365.101782 263.073011 
L 365.030358 263.193959 
L 364.958934 263.083256 
L 364.816085 262.032646 
L 364.316118 255.765309 
L 364.030421 255.147663 
L 363.958998 255.290099 
L 363.744726 257.302904 
L 363.173334 263.042075 
L 363.10191 263.16462 
L 362.816214 262.076288 
L 362.74479 262.21154 
L 362.38767 263.842407 
L 361.673429 269.593486 
L 361.602006 269.344273 
L 361.244886 265.976692 
L 361.173462 266.12006 
L 361.102037 266.321107 
L 361.030614 266.25744 
L 360.887766 264.654049 
L 360.60207 260.88577 
L 360.530645 260.946443 
L 360.316373 261.807116 
L 360.24495 261.73307 
L 360.102102 260.622585 
L 359.673558 254.717759 
L 359.53071 255.879604 
L 359.316438 257.815436 
L 359.173589 257.305366 
L 359.102166 256.993615 
L 359.030741 257.019295 
L 358.887894 258.486238 
L 358.45935 264.408893 
L 357.887958 269.214077 
L 357.530838 274.624533 
L 357.38799 273.06851 
L 356.745174 264.589649 
L 356.602326 264.171454 
L 356.459477 264.698622 
L 356.173782 266.176409 
L 356.102358 266.121057 
L 355.95951 264.442822 
L 355.316694 251.173813 
L 355.24527 251.191509 
L 355.102421 253.43643 
L 354.531029 268.295193 
L 354.459606 268.382743 
L 354.316757 267.383626 
L 353.888214 264.242307 
L 353.81679 264.0855 
L 353.745365 264.260336 
L 353.602517 265.739453 
L 352.888278 276.528299 
L 352.74543 275.389206 
L 352.316886 268.338901 
L 351.888342 259.197355 
L 351.745494 258.746761 
L 351.602645 259.780207 
L 351.245525 262.397086 
L 351.031253 262.715356 
L 350.888405 262.165502 
L 350.317014 257.746979 
L 350.245589 257.883228 
L 350.031318 260.588057 
L 349.317077 269.758675 
L 349.031382 268.956813 
L 348.959957 269.032522 
L 348.888533 269.071109 
L 348.81711 268.893013 
L 348.602838 266.792258 
L 348.031446 260.541021 
L 347.960022 260.653653 
L 347.674326 262.099307 
L 347.602902 262.067307 
L 347.460054 261.865328 
L 347.388629 261.987806 
L 347.174357 263.589601 
L 346.960085 264.640743 
L 346.817238 264.649125 
L 346.67439 265.078165 
L 346.388693 267.267202 
L 345.888726 272.282016 
L 345.531606 270.206542 
L 345.388757 268.951292 
L 344.960214 263.47637 
L 344.817365 263.268803 
L 344.460245 261.777112 
L 344.388822 261.815299 
L 344.245973 261.802858 
L 344.031701 261.418526 
L 343.888853 261.89307 
L 343.246037 267.158894 
L 342.960342 269.722484 
L 342.888917 269.550177 
L 342.746069 267.214312 
L 342.317525 257.823286 
L 342.174678 259.063235 
L 341.817558 263.768694 
L 341.603285 265.019021 
L 341.317589 267.70928 
L 341.174741 264.746123 
L 340.674774 248.967744 
L 340.60335 248.835753 
L 340.460502 249.72277 
L 340.031957 256.087038 
L 339.460566 266.776425 
L 339.246293 267.209722 
L 339.174869 267.133148 
L 339.032021 266.181332 
L 338.317782 258.079485 
L 338.032085 255.214391 
L 337.960662 255.121118 
L 337.817813 256.698165 
L 337.317845 265.450389 
L 337.03215 266.914803 
L 336.960725 266.710961 
L 336.817878 265.224792 
L 336.532181 257.522447 
L 336.31791 254.43588 
L 336.175061 256.562847 
L 335.889365 260.989553 
L 335.817941 261.10285 
L 335.675094 260.141188 
L 335.175126 254.595081 
L 334.88943 251.990577 
L 334.818006 252.152839 
L 334.675158 254.478657 
L 334.318038 261.536214 
L 333.246678 271.182109 
L 332.889558 273.091263 
L 332.603861 275.021439 
L 332.461014 273.580776 
L 331.818197 257.807186 
L 331.389654 249.451203 
L 331.31823 249.411153 
L 331.175382 250.567476 
L 330.675413 256.111255 
L 330.461141 259.165888 
L 330.24687 262.226974 
L 330.175446 262.164903 
L 329.461206 256.970331 
L 329.246934 257.064002 
L 329.104085 256.511953 
L 328.961238 255.925641 
L 328.889814 256.015787 
L 328.675542 257.944966 
L 328.318421 263.385958 
L 328.10415 266.006297 
L 328.032725 266.016409 
L 327.889878 264.851703 
L 327.675605 260.781121 
L 327.175637 248.090705 
L 327.104214 248.367462 
L 326.961365 250.86978 
L 326.175702 270.706167 
L 325.96143 271.826831 
L 325.818581 271.461859 
L 325.532886 269.593287 
L 324.890069 263.34338 
L 324.818646 263.46373 
L 324.604374 265.313541 
L 324.247253 268.604282 
L 324.175829 268.771799 
L 324.104405 268.590444 
L 323.890133 266.142147 
L 323.175894 255.21938 
L 323.104469 255.318707 
L 322.890197 255.528669 
L 322.74735 255.367804 
L 322.533077 254.238691 
L 322.39023 253.689236 
L 322.247381 254.130117 
L 322.104534 254.417385 
L 321.961685 252.896555 
L 321.31887 241.782654 
L 320.890326 236.175341 
L 320.818902 236.691266 
L 319.747542 257.315478 
L 319.533269 261.030934 
L 319.390422 261.702002 
L 319.033301 265.43216 
L 318.890454 263.416295 
L 318.319061 251.953321 
L 318.10479 250.316865 
L 317.961941 251.134029 
L 317.247702 257.174239 
L 316.890581 256.654323 
L 316.819157 256.715129 
L 316.67631 257.29033 
L 316.462038 259.547958 
L 315.890646 267.203335 
L 315.676374 268.082702 
L 315.604949 267.547285 
L 315.390678 261.375549 
L 315.176405 256.193616 
L 315.104982 256.283762 
L 314.747861 260.972456 
L 314.390741 265.276418 
L 314.247894 263.659655 
L 313.605077 253.523116 
L 313.533654 253.263391 
L 313.46223 253.389528 
L 313.176534 254.919738 
L 312.676566 259.009015 
L 311.890901 264.946838 
L 311.748053 263.697842 
L 311.462357 260.814585 
L 311.248086 259.299809 
L 310.676693 252.349429 
L 310.605269 252.771283 
L 310.105301 261.296913 
L 310.033878 260.920963 
L 309.748181 257.000135 
L 309.176789 246.700204 
L 309.105366 247.11321 
L 308.891094 250.521372 
L 308.46255 258.209747 
L 308.248277 258.852474 
L 307.891157 258.194779 
L 307.819733 258.236359 
L 307.676886 258.347128 
L 307.605461 258.206421 
L 307.462613 256.993416 
L 307.105493 252.533778 
L 307.034069 252.593587 
L 306.748373 254.578449 
L 306.248405 258.326304 
L 305.891285 262.455232 
L 305.748438 260.724705 
L 305.462741 257.201981 
L 305.319894 258.003311 
L 305.034198 261.724621 
L 304.605654 268.928805 
L 304.462806 269.251799 
L 304.391381 268.980364 
L 304.248534 266.451103 
L 303.748565 252.126693 
L 303.677142 251.838228 
L 303.605717 252.01925 
L 303.46287 253.77998 
L 302.962901 262.630799 
L 302.677206 263.764436 
L 302.534357 263.396204 
L 302.391509 263.01879 
L 302.248662 263.439048 
L 301.677269 266.485099 
L 301.605845 266.468866 
L 301.462998 265.651037 
L 301.248725 261.890941 
L 300.820181 251.004565 
L 300.748758 250.941164 
L 300.605909 252.444431 
L 300.034517 260.764356 
L 299.820245 262.265693 
L 299.748821 262.185261 
L 299.605974 260.50483 
L 299.17743 253.277827 
L 298.963157 253.768471 
L 298.891733 253.668613 
L 298.748886 252.620264 
L 298.034646 241.705681 
L 297.534677 229.643156 
L 297.463254 229.529593 
L 296.963285 230.905059 
L 296.820438 230.683122 
L 296.677589 229.745144 
L 296.463318 225.343984 
L 295.820501 202.531067 
L 295.749077 202.994168 
L 295.534806 206.687404 
L 295.106261 215.181233 
L 294.677717 218.847059 
L 294.53487 219.059549 
L 294.392021 220.191989 
L 294.106326 226.640615 
L 293.534933 240.878804 
L 293.392086 242.670536 
L 292.820694 255.497401 
L 292.534998 254.2504 
L 292.392149 254.657019 
L 292.320725 254.629676 
L 292.03503 252.453878 
L 291.963605 252.55061 
L 291.820758 254.83405 
L 291.320789 268.144174 
L 291.106517 268.667151 
L 290.892246 268.988813 
L 290.749397 267.933613 
L 290.320853 262.034708 
L 290.035157 261.104181 
L 289.89231 262.10576 
L 289.463766 267.591393 
L 289.392341 267.365331 
L 288.963797 263.386291 
L 288.892373 263.473576 
L 288.749526 263.601975 
L 288.606677 262.505194 
L 288.463829 261.331108 
L 288.392405 261.532555 
L 288.035285 266.511776 
L 287.963862 266.131702 
L 287.606741 262.869768 
L 287.463893 263.667904 
L 287.178198 266.377257 
L 287.106774 266.062047 
L 286.535381 257.494704 
L 286.106837 249.415478 
L 285.96399 249.064343 
L 285.678293 250.655826 
L 285.464022 252.346102 
L 285.178326 256.100277 
L 285.106901 256.043463 
L 284.964053 254.225851 
L 284.464086 246.610857 
L 284.321237 246.276487 
L 284.178389 247.276004 
L 284.035542 250.173298 
L 283.464149 269.589827 
L 283.392725 269.043433 
L 283.035605 265.882355 
L 282.464214 264.713857 
L 282.392789 264.792161 
L 282.178517 265.519777 
L 281.821397 267.507701 
L 281.749974 267.416823 
L 281.535701 266.941281 
L 281.392854 267.573763 
L 281.035733 269.682035 
L 280.96431 269.521969 
L 280.821461 267.686528 
L 280.464341 262.697926 
L 280.250069 261.200846 
L 279.964373 259.136482 
L 279.821526 260.191616 
L 279.607253 264.491521 
L 279.321557 270.540845 
L 279.250134 270.199956 
L 278.821589 260.537495 
L 278.250198 247.427687 
L 278.178773 247.340735 
L 278.107349 247.437933 
L 277.964501 248.708152 
L 277.535957 255.483629 
L 277.464534 255.511106 
L 277.393109 255.658265 
L 277.178837 257.907444 
L 276.964565 259.0319 
L 276.750293 258.779294 
L 276.607445 259.309655 
L 275.96463 262.937094 
L 275.821781 262.653152 
L 275.607509 262.276404 
L 275.536086 262.262966 
L 275.464661 262.12013 
L 275.321813 260.972323 
L 275.036117 258.08707 
L 274.964693 258.370412 
L 274.607574 261.87085 
L 274.536149 261.859473 
L 274.464725 261.961195 
L 274.321878 263.590133 
L 273.964758 269.33436 
L 273.821909 269.971099 
L 273.750485 269.66547 
L 273.607638 267.067152 
L 273.250518 259.366603 
L 272.821974 253.946966 
L 272.679125 255.219513 
L 272.464854 257.186214 
L 272.322005 257.719436 
L 271.464917 265.580052 
L 270.964949 272.111438 
L 270.893526 272.101592 
L 270.750677 271.096287 
L 270.036437 263.759846 
L 269.822165 263.628786 
L 269.679318 264.196203 
L 269.322198 265.769124 
L 269.250773 265.764068 
L 269.107925 265.184875 
L 268.607957 262.02586 
L 268.465109 261.834259 
L 268.393685 261.895265 
L 268.250837 262.751215 
L 267.965141 265.217674 
L 267.893717 265.121674 
L 267.75087 263.93508 
L 267.465173 260.824298 
L 267.39375 260.99115 
L 267.179477 262.643506 
L 267.108053 262.587157 
L 266.893781 260.893088 
L 266.822357 261.027075 
L 266.679509 263.756187 
L 266.393813 269.457703 
L 266.250966 268.020432 
L 265.965269 265.041508 
L 265.893845 264.983828 
L 265.750997 266.305806 
L 265.536725 269.052414 
L 265.465302 268.994069 
L 265.108182 266.839693 
L 265.036758 266.881938 
L 264.965333 266.745888 
L 264.822485 265.492701 
L 264.536789 262.86358 
L 264.108245 261.41959 
L 264.036821 261.562093 
L 263.822549 262.639115 
L 263.322581 267.268466 
L 262.822613 273.464884 
L 262.679765 272.008386 
L 262.108373 261.411008 
L 262.036949 261.849162 
L 261.394133 266.568392 
L 261.179862 268.679259 
L 261.037014 270.101162 
L 260.965589 270.039357 
L 260.822742 267.705355 
L 260.465621 260.10686 
L 260.251349 258.602063 
L 259.679958 251.180399 
L 259.608534 251.47718 
L 259.251414 254.779497 
L 259.037141 253.643997 
L 258.965717 253.95109 
L 258.537173 258.20702 
L 258.251477 258.090463 
L 258.10863 258.13324 
L 257.965781 258.800449 
L 257.251541 263.940669 
L 257.180117 264.120827 
L 257.108693 264.058889 
L 256.965846 262.953061 
L 256.608725 259.640565 
L 256.251605 257.982554 
L 256.180182 257.972309 
L 256.037333 258.471202 
L 255.608789 262.247997 
L 255.537365 262.198633 
L 255.394517 261.057478 
L 255.037397 258.114479 
L 254.894549 256.705283 
L 254.466005 250.227984 
L 254.394581 250.361306 
L 254.180309 252.216639 
L 253.894613 254.649435 
L 253.751765 255.560203 
L 253.323221 261.409545 
L 253.251797 261.137378 
L 253.037525 258.341739 
L 252.608981 250.156267 
L 252.394709 246.143897 
L 252.323285 246.181219 
L 252.180437 248.641424 
L 251.537621 266.486163 
L 251.466197 266.724666 
L 251.394773 266.442188 
L 251.251925 264.093417 
L 250.609109 249.72277 
L 250.466261 250.063992 
L 250.251989 250.873173 
L 250.180565 250.749763 
L 250.037717 249.252883 
L 249.537749 239.915811 
L 248.537813 207.541823 
L 246.466517 103.406143 
L 246.323669 100.893647 
L 246.252245 100.899169 
L 246.109397 103.667864 
L 245.823701 115.168693 
L 244.823765 165.818854 
L 244.538069 176.895966 
L 243.966677 206.278656 
L 243.680981 212.318334 
L 243.466709 216.765731 
L 242.895317 237.417219 
L 242.538197 251.046212 
L 242.323925 253.907049 
L 242.252501 254.098783 
L 242.181077 253.990209 
L 241.966805 252.452082 
L 241.681109 250.826869 
L 241.538261 250.576524 
L 241.323989 249.317282 
L 241.038293 247.505059 
L 240.966869 247.588353 
L 240.824021 248.893765 
L 240.538325 252.359807 
L 240.466901 252.161221 
L 240.252629 248.362339 
L 240.109781 246.57247 
L 240.038357 246.799131 
L 239.538389 251.592407 
L 239.395541 252.493395 
L 239.109845 255.884594 
L 239.038421 255.861708 
L 238.824149 252.856638 
L 238.681301 251.33328 
L 238.609877 251.391559 
L 238.467029 253.701677 
L 237.967061 267.334329 
L 237.895637 267.243318 
L 237.681365 264.71552 
L 237.324245 257.498763 
L 237.038549 251.938951 
L 236.895701 254.116213 
L 236.110037 270.91094 
L 235.967189 269.612247 
L 235.752917 264.239845 
L 235.395797 253.390725 
L 235.324373 253.452463 
L 235.110101 255.799172 
L 234.895829 260.457462 
L 234.538709 268.953221 
L 234.467285 268.651982 
L 234.324437 265.86406 
L 233.681621 247.257243 
L 233.610197 247.087197 
L 233.467349 247.821533 
L 233.181653 251.910411 
L 232.753109 257.532891 
L 232.610261 258.174487 
L 232.467413 256.882048 
L 231.967445 249.287478 
L 231.824597 250.025938 
L 231.324629 254.815888 
L 230.967509 259.050861 
L 230.753237 258.5682 
L 230.681813 258.733722 
L 230.324693 260.417213 
L 230.181845 260.401845 
L 230.038997 259.755459 
L 229.539029 255.265684 
L 229.181909 249.448808 
L 229.039061 251.567858 
L 228.324821 265.774846 
L 228.253397 266.111744 
L 228.181973 265.908767 
L 227.967701 263.443505 
L 227.467733 256.910855 
L 227.253461 258.848549 
L 227.039189 261.447 
L 226.610645 269.425437 
L 226.396373 268.538419 
L 226.253525 269.24009 
L 226.110677 269.855607 
L 225.967829 268.230727 
L 225.325013 254.770516 
L 225.253589 254.535073 
L 225.110741 255.385634 
L 224.825045 259.175135 
L 224.396501 266.811552 
L 224.253653 265.218871 
L 224.039381 262.463814 
L 223.967957 262.3426 
L 223.610837 263.460004 
L 223.396565 265.671661 
L 223.182293 266.864774 
L 222.682325 265.252734 
L 222.468053 264.21197 
L 222.325205 264.192411 
L 222.182357 264.695229 
L 221.968085 266.600791 
L 221.753813 268.502028 
L 221.682389 268.44987 
L 220.896725 262.919397 
L 220.539605 258.388708 
L 220.396757 260.649662 
L 220.111061 266.261165 
L 220.039637 266.335211 
L 219.825365 266.052201 
L 219.682517 266.024193 
L 219.468245 264.76229 
L 219.253973 262.604387 
L 218.754005 252.076598 
L 218.682581 252.086044 
L 218.611157 251.935425 
L 218.325461 249.876383 
L 218.182613 252.129687 
L 217.754069 262.762524 
L 217.396949 266.181332 
L 217.254101 267.005946 
L 217.182677 266.993971 
L 216.896981 265.158796 
L 216.539861 262.404471 
L 216.468437 262.518034 
L 216.397013 262.645568 
L 216.325589 262.419772 
L 215.754197 257.170913 
L 215.611349 256.363662 
L 215.397077 255.066366 
L 215.254229 256.13088 
L 215.039957 257.513465 
L 214.897109 258.182271 
L 214.682837 260.156955 
L 214.611413 260.040931 
L 214.325717 257.269906 
L 214.254293 257.277757 
L 213.825749 259.452357 
L 213.611477 263.341784 
L 213.397205 265.856409 
L 213.254357 265.171304 
L 212.897237 262.162442 
L 212.682965 260.986493 
L 212.540117 261.251674 
L 212.468693 261.040514 
L 212.111573 258.026529 
L 212.040149 258.131843 
L 211.611605 259.730511 
L 211.111637 268.716847 
L 210.897365 271.527655 
L 210.825941 271.296071 
L 210.611669 267.80049 
L 210.040278 258.177947 
L 209.611733 258.743635 
L 209.397461 259.963026 
L 209.326037 259.744482 
L 209.111765 255.823055 
L 208.897493 253.163998 
L 208.826069 253.243964 
L 208.540373 254.758009 
L 208.326101 257.799602 
L 207.968981 263.845268 
L 207.683285 265.208626 
L 207.397589 264.927678 
L 207.111893 265.481856 
L 206.969045 265.765399 
L 206.754773 267.095892 
L 206.183381 272.210365 
L 206.040533 272.245825 
L 205.96911 272.035729 
L 205.826261 270.379249 
L 205.183445 259.519418 
L 205.040597 260.323675 
L 204.397781 267.935276 
L 204.326357 267.634769 
L 204.112085 264.020436 
L 203.826389 259.542569 
L 203.754965 259.553147 
L 203.612117 261.153811 
L 203.326421 264.870797 
L 203.254998 264.804269 
L 202.826453 262.407331 
L 202.755029 262.488895 
L 202.683605 262.566999 
L 202.612181 262.4382 
L 202.469333 260.985894 
L 202.183637 257.214488 
L 202.040789 258.502138 
L 201.755093 261.868521 
L 201.683669 261.90438 
L 201.540821 261.485852 
L 201.469397 261.592097 
L 201.326549 263.482624 
L 200.898005 271.719987 
L 200.755157 272.560036 
L 200.683733 272.493242 
L 200.255189 270.324895 
L 199.969493 267.198478 
L 199.255253 258.706911 
L 199.112405 258.562545 
L 199.040981 258.503868 
L 198.898133 257.181091 
L 198.541013 251.665588 
L 198.469589 251.747683 
L 198.255317 252.988829 
L 197.969621 256.897483 
L 197.541077 262.398151 
L 197.326805 264.303912 
L 197.255381 264.263197 
L 196.969685 262.070766 
L 196.826837 263.313975 
L 196.612565 264.666955 
L 196.469717 263.167015 
L 196.112597 258.919867 
L 196.041173 258.734121 
L 195.969749 258.887934 
L 195.755477 261.183216 
L 195.469781 263.589933 
L 195.398357 263.596653 
L 195.255509 263.109668 
L 195.112661 261.844771 
L 194.898389 256.614805 
L 194.612693 250.957463 
L 194.469845 250.400025 
L 194.398421 250.44114 
L 194.255573 251.388299 
L 193.969877 255.538382 
L 193.184213 270.749011 
L 193.112789 270.841219 
L 192.969941 269.879557 
L 192.469973 264.605084 
L 192.327125 265.719628 
L 192.112853 267.837879 
L 191.827157 268.063276 
L 191.755733 267.833488 
L 191.612885 265.642389 
L 191.184341 255.645891 
L 191.041493 255.380112 
L 190.970069 255.493476 
L 190.827221 256.714531 
L 190.612949 259.202145 
L 190.541525 259.045006 
L 189.970133 254.245943 
L 189.827285 253.855091 
L 189.755861 254.087939 
L 189.470165 257.670072 
L 189.113045 260.307907 
L 188.970197 260.741204 
L 188.898773 260.708406 
L 188.684501 259.838353 
L 188.541653 259.365272 
L 188.470229 259.386827 
L 188.327381 260.146976 
L 187.970261 263.426873 
L 187.827413 262.500005 
L 187.398869 257.728949 
L 187.256021 258.05314 
L 187.184597 258.007702 
L 187.041749 257.897598 
L 186.898901 258.967834 
L 186.684629 263.206532 
L 186.398933 269.144755 
L 186.113237 270.150991 
L 186.041813 269.940164 
L 185.827541 266.918595 
L 185.398997 261.814567 
L 185.327573 262.081544 
L 184.827605 268.1638 
L 184.541909 270.674766 
L 184.399061 270.937419 
L 184.184789 270.120588 
L 183.970517 268.073189 
L 183.684821 265.65463 
L 183.541973 265.119279 
L 183.327701 261.957602 
L 182.899157 255.031039 
L 182.827733 255.038158 
L 182.684885 256.202198 
L 182.327765 260.350685 
L 182.184917 260.991216 
L 181.756373 265.809706 
L 181.470677 264.104062 
L 181.184981 266.454163 
L 181.113557 266.196301 
L 180.899285 265.343013 
L 180.613589 266.464275 
L 180.470741 267.829363 
L 180.113621 272.305101 
L 179.899349 271.879255 
L 179.827925 271.998208 
L 179.613653 272.645924 
L 179.470805 271.599306 
L 179.327957 270.481236 
L 179.256533 270.585552 
L 178.827989 273.610447 
L 178.685141 272.888552 
L 178.256597 268.395517 
L 177.542357 257.663952 
L 177.328085 257.08243 
L 177.185237 257.238638 
L 177.042389 258.134903 
L 176.828117 262.320978 
L 176.542421 267.26474 
L 176.470997 267.406578 
L 176.328149 266.944408 
L 176.042453 265.206098 
L 175.828181 261.547923 
L 175.399637 254.483447 
L 175.256789 253.797743 
L 175.042517 253.868463 
L 174.899669 254.552304 
L 174.613973 256.591387 
L 174.542549 256.647736 
L 174.399701 257.478205 
L 173.899733 263.00941 
L 173.614037 266.973547 
L 173.185493 269.811432 
L 173.114069 269.630809 
L 172.828373 265.047894 
L 172.756949 265.125266 
L 172.256981 268.130003 
L 172.185557 268.434569 
L 172.114133 268.346486 
L 171.971285 267.971201 
L 171.757013 269.294576 
L 171.685589 269.147682 
L 171.542741 266.59141 
L 171.257045 261.9268 
L 171.042773 263.735896 
L 170.971349 263.572769 
L 170.757077 261.449727 
L 170.685653 261.508405 
L 170.471381 263.744012 
L 170.114261 269.78043 
L 170.042837 269.148215 
L 169.685717 263.109734 
L 169.614293 263.096428 
L 169.471445 262.021868 
L 169.185749 258.162645 
L 169.114325 258.271419 
L 168.900053 261.075441 
L 168.542933 264.909849 
L 168.471509 265.066323 
L 168.400085 264.977441 
L 168.185813 263.833958 
L 167.971541 261.222534 
L 167.614421 257.024817 
L 167.328725 256.088369 
L 167.114453 255.225168 
L 166.971605 256.72125 
L 165.900245 275.400849 
L 165.757397 273.456967 
L 165.400277 265.851619 
L 165.186005 263.191564 
L 164.828885 258.019278 
L 164.757461 257.973506 
L 164.614613 258.271419 
L 164.471765 259.636241 
L 164.114645 264.628435 
L 163.971797 264.938655 
L 163.828949 264.793026 
L 163.686101 264.3254 
L 163.543253 262.99963 
L 163.257557 259.550686 
L 162.971861 259.905413 
L 162.829013 261.419125 
L 162.543317 265.458771 
L 162.400469 266.075951 
L 162.329045 265.914754 
L 162.114773 264.284286 
L 162.043349 264.379621 
L 161.686229 266.386571 
L 161.471957 265.790347 
L 161.114837 264.529109 
L 160.900565 259.996822 
L 160.614869 254.732794 
L 160.472021 253.958009 
L 160.400597 254.034184 
L 160.114901 255.893974 
L 160.043477 255.823787 
L 159.972053 255.674964 
L 159.900629 255.73943 
L 159.757781 256.907661 
L 159.329237 261.916821 
L 159.186389 260.9191 
L 158.829269 258.471402 
L 158.757845 258.731194 
L 158.400725 262.043822 
L 158.115029 260.450876 
L 157.972181 262.042359 
L 157.686485 266.360292 
L 157.543637 265.117616 
L 157.257941 262.274741 
L 157.115093 263.990698 
L 156.829397 268.801204 
L 156.757973 268.946169 
L 156.543701 268.379816 
L 156.472277 268.554119 
L 156.329429 270.233885 
L 156.043733 273.470006 
L 155.829461 271.550674 
L 155.615189 268.65624 
L 155.329493 263.945193 
L 155.186645 263.622133 
L 155.043797 262.392695 
L 154.686677 259.081198 
L 154.543829 259.593862 
L 154.258133 261.994592 
L 153.901013 265.975162 
L 153.686741 268.526643 
L 153.543893 269.735324 
L 153.472469 269.574393 
L 153.258197 267.221364 
L 152.972501 264.419537 
L 152.758229 264.281226 
L 152.472533 262.868237 
L 152.329685 262.401011 
L 152.115413 262.881343 
L 152.043989 262.723406 
L 151.829717 262.022866 
L 151.686869 262.235556 
L 151.615445 262.008563 
L 151.401173 259.271933 
L 151.115477 255.650881 
L 150.972629 255.303605 
L 150.901205 255.370332 
L 150.758357 256.587262 
L 149.972693 271.205793 
L 149.901269 271.051315 
L 149.758421 268.672007 
L 149.544149 264.640676 
L 149.472725 264.494381 
L 149.329877 264.602689 
L 149.187029 264.105924 
L 149.115605 264.153093 
L 149.044181 264.338972 
L 148.972757 264.22135 
L 148.615637 259.834893 
L 148.544213 260.084573 
L 148.329941 261.455382 
L 148.044245 263.510033 
L 147.972821 263.552877 
L 147.829973 264.27617 
L 147.472853 266.857922 
L 147.401429 266.660799 
L 147.187157 262.294833 
L 146.901461 258.584965 
L 146.687189 257.125607 
L 146.544341 258.090928 
L 145.758677 265.559495 
L 145.472981 267.111792 
L 145.401557 266.910878 
L 145.044437 263.853517 
L 144.901589 264.03128 
L 144.544469 264.943645 
L 144.187349 264.218024 
L 144.044501 264.470431 
L 143.973077 264.348219 
L 143.830229 262.703115 
L 143.544533 258.059327 
L 143.473109 258.03072 
L 143.330261 258.996175 
L 143.115989 261.995789 
L 142.616021 270.819664 
L 142.544597 270.761718 
L 142.187477 268.989213 
L 141.901781 265.989532 
L 141.616085 268.007792 
L 141.401813 265.617773 
L 140.758997 257.405224 
L 140.687573 257.487785 
L 140.473301 258.791934 
L 140.330453 261.148888 
L 139.973333 269.240489 
L 139.901909 269.434618 
L 139.830485 269.340281 
L 139.616213 268.5474 
L 139.473365 267.14153 
L 138.973397 259.929629 
L 138.759125 259.353962 
L 138.687701 259.408582 
L 138.402005 260.484606 
L 137.902037 263.930224 
L 137.830613 263.796503 
L 137.616341 263.141468 
L 137.402069 263.908735 
L 137.044949 262.36808 
L 136.759253 259.235676 
L 136.687829 259.299676 
L 136.544981 259.784931 
L 136.330709 259.202345 
L 136.259285 259.30553 
L 135.973589 260.54814 
L 135.902165 260.425595 
L 135.616469 257.846904 
L 135.545045 258.197174 
L 135.402197 258.938562 
L 135.259349 257.703137 
L 135.045077 256.509159 
L 134.902229 256.35355 
L 134.759381 256.119504 
L 134.616533 256.128086 
L 134.473685 255.142208 
L 134.187989 252.691183 
L 134.045141 253.104721 
L 133.759445 254.29504 
L 133.545173 257.891078 
L 133.116629 264.815845 
L 132.902357 266.286978 
L 132.688085 264.93819 
L 132.616661 265.06446 
L 132.473813 265.973033 
L 132.402389 265.804118 
L 132.116693 262.436005 
L 132.045269 262.671714 
L 131.830997 263.438183 
L 131.545301 262.975015 
L 131.402453 263.358549 
L 131.188181 265.014564 
L 130.759637 269.527624 
L 130.616789 268.29486 
L 130.116821 262.895248 
L 129.973973 261.317137 
L 129.688277 255.888452 
L 129.616853 255.93256 
L 129.402581 260.16128 
L 129.045461 264.755371 
L 128.974037 264.902996 
L 128.759765 263.518682 
L 128.616917 264.73468 
L 128.545493 265.355054 
L 128.474069 265.334098 
L 128.188373 261.853619 
L 127.616981 252.764564 
L 127.474133 252.294011 
L 127.331285 250.153406 
L 127.117013 246.412736 
L 127.045589 246.513925 
L 126.831317 248.931885 
L 126.474197 255.383305 
L 126.402773 255.219447 
L 126.188501 253.097204 
L 126.117077 253.473819 
L 125.831381 258.402213 
L 125.759957 258.120201 
L 125.474261 255.929766 
L 125.259989 256.27345 
L 125.117141 256.469641 
L 125.045717 256.389342 
L 124.902869 255.614623 
L 124.688597 252.393005 
L 124.402901 247.432145 
L 124.188629 245.849444 
L 124.045781 244.505112 
L 123.974357 244.60843 
L 123.474389 250.644516 
L 122.760149 262.202425 
L 122.474453 263.320229 
L 122.188757 265.976293 
L 122.117333 265.705723 
L 121.545941 259.684074 
L 121.474517 259.182586 
L 121.403093 259.32928 
L 121.117397 261.044771 
L 121.045973 261.168846 
L 120.903125 262.30581 
L 120.617429 266.751543 
L 120.546005 266.496874 
L 119.617493 250.915551 
L 119.474645 252.758044 
L 118.903253 262.138159 
L 118.688981 264.116303 
L 118.474709 265.878496 
L 118.403285 265.657557 
L 118.117589 262.003573 
L 118.046165 262.352446 
L 117.903317 263.310715 
L 117.760469 262.455963 
L 117.617621 261.599948 
L 117.403349 261.755091 
L 117.331925 261.935981 
L 117.189077 263.745808 
L 116.903381 268.365912 
L 116.689109 269.720688 
L 116.403413 273.134905 
L 116.331989 273.120335 
L 116.189141 271.502241 
L 115.903445 265.591694 
L 115.474901 253.772795 
L 115.332053 255.44032 
L 115.046357 258.400882 
L 114.689237 259.931958 
L 114.474965 261.787889 
L 114.403541 261.801661 
L 114.260693 261.345744 
L 113.974997 259.234811 
L 113.903573 259.507376 
L 113.546453 264.54461 
L 113.475029 264.221417 
L 113.332181 263.436719 
L 113.260757 263.477035 
L 113.117909 264.65997 
L 112.832213 267.295809 
L 112.689365 268.152024 
L 112.546517 269.320921 
L 112.475093 269.128389 
L 112.260821 267.302262 
L 112.117973 267.842935 
L 112.046549 267.609289 
L 111.760853 264.770606 
L 111.618005 264.748319 
L 111.403733 264.098274 
L 111.189461 264.846581 
L 111.046613 264.239113 
L 110.832341 262.292571 
L 110.618069 260.649329 
L 110.332373 262.530608 
L 110.046677 264.795287 
L 109.832405 263.866091 
L 109.760981 263.907072 
L 109.689557 264.027155 
L 109.618133 263.913858 
L 109.475285 262.316188 
L 108.903893 253.383141 
L 108.832469 253.184488 
L 108.761045 253.29712 
L 108.618197 254.885942 
L 108.261077 259.790785 
L 108.118229 259.523742 
L 108.046805 259.748407 
L 107.761109 261.939374 
L 107.618261 261.85322 
L 107.475413 262.173219 
L 107.403989 261.801527 
L 107.189717 256.813258 
L 106.975445 253.265453 
L 106.689749 252.465587 
L 106.618325 252.29268 
L 106.546901 252.456739 
L 106.404053 254.964312 
L 106.046933 263.021917 
L 105.832661 263.967014 
L 105.689813 261.791482 
L 105.404117 257.51586 
L 105.118421 255.862639 
L 104.975573 257.016767 
L 104.475605 262.503797 
L 103.975637 258.10756 
L 103.689941 253.221677 
L 103.618517 253.32739 
L 102.904277 258.411793 
L 102.618581 261.999182 
L 102.547157 261.762143 
L 102.190037 258.817813 
L 102.047189 259.758253 
L 101.761493 262.002043 
L 101.690069 261.997253 
L 101.618645 262.199431 
L 101.332949 264.035538 
L 101.190101 262.49282 
L 100.761557 253.311025 
L 100.690133 253.832671 
L 100.333013 256.625383 
L 100.261589 257.048435 
L 100.190165 256.903936 
L 99.904469 253.760421 
L 99.833045 253.838392 
L 99.761621 253.925344 
L 99.690197 253.601153 
L 99.404501 249.673939 
L 99.333077 249.766878 
L 99.118805 253.250085 
L 98.761685 259.484424 
L 98.690261 259.552548 
L 98.547413 257.463503 
L 98.261717 253.266517 
L 98.190293 253.380214 
L 98.047445 254.952803 
L 97.547477 262.782749 
L 97.261781 264.02476 
L 97.118933 263.27499 
L 96.976085 262.259373 
L 96.904661 262.37267 
L 96.333269 266.167561 
L 96.261845 266.33581 
L 96.118997 265.100385 
L 95.761877 260.204323 
L 95.404757 263.272595 
L 95.047637 267.962419 
L 94.904789 267.464723 
L 94.119125 260.319417 
L 93.833429 263.51948 
L 93.762005 263.152046 
L 93.547733 259.778744 
L 93.262037 255.107081 
L 93.190613 255.087721 
L 93.047765 256.758173 
L 92.547797 266.037099 
L 92.333525 268.307833 
L 92.190677 265.589166 
L 91.833557 255.904951 
L 91.762133 255.18585 
L 91.690709 255.21958 
L 91.262165 261.519781 
L 90.762197 270.572113 
L 90.690773 270.281452 
L 89.905109 264.997133 
L 89.405141 257.07917 
L 89.262293 256.56298 
L 89.190869 256.674547 
L 89.048021 258.582504 
L 88.690901 264.692435 
L 87.976661 271.774873 
L 87.905237 271.637426 
L 87.690965 269.494559 
L 87.190997 264.455662 
L 86.905301 261.859873 
L 86.548181 256.951503 
L 86.405333 257.17384 
L 86.262485 256.631304 
L 86.191061 256.779262 
L 85.476821 264.28249 
L 85.262549 265.480859 
L 85.191125 265.298372 
L 84.976853 262.594475 
L 84.762581 260.438435 
L 84.691157 260.267791 
L 84.619733 260.3592 
L 84.476885 261.528097 
L 84.048341 266.097507 
L 83.905493 266.606313 
L 83.476949 263.00921 
L 83.191253 258.228708 
L 82.976981 258.423236 
L 82.905557 258.603992 
L 82.762709 260.311566 
L 82.548437 262.898973 
L 82.405589 263.051456 
L 82.334165 262.760662 
L 82.191317 260.406103 
L 81.834197 253.675864 
L 81.619925 251.010021 
L 81.477077 252.216905 
L 81.262805 255.39395 
L 80.977109 260.132407 
L 80.834261 259.456815 
L 80.262869 252.197213 
L 80.048597 249.399378 
L 79.977173 249.491785 
L 79.762901 250.153007 
L 79.548629 250.704191 
L 79.477205 250.578121 
L 79.334357 249.030547 
L 78.905813 240.772625 
L 78.762965 241.131477 
L 78.691541 241.3125 
L 78.477269 240.870155 
L 78.405845 241.003677 
L 78.334421 241.150704 
L 78.262997 241.053906 
L 77.691605 237.192953 
L 77.477333 234.985621 
L 77.263061 232.719877 
L 77.191637 232.850937 
L 76.977365 233.565182 
L 76.834517 232.915003 
L 76.620245 230.550598 
L 76.334549 225.751534 
L 76.263125 225.792782 
L 75.906005 229.816994 
L 75.834581 229.650741 
L 75.763157 229.671497 
L 75.620309 230.337176 
L 75.548885 230.316021 
L 74.977493 225.017664 
L 74.763221 221.370133 
L 74.691797 221.546233 
L 74.334677 224.869573 
L 74.263253 224.81828 
L 74.191829 225.13309 
L 74.048981 227.893803 
L 73.477589 242.307227 
L 72.906197 248.05631 
L 72.834773 247.811022 
L 72.549077 245.453469 
L 72.477653 245.527182 
L 72.334805 246.424844 
L 72.191957 249.428317 
L 71.834837 257.938646 
L 71.549141 259.717604 
L 71.263445 258.11388 
L 70.906325 252.666435 
L 70.549205 246.180687 
L 70.263509 249.917764 
L 69.906389 244.865361 
L 69.834965 245.038933 
L 69.620693 247.385575 
L 69.192149 252.767823 
L 69.120725 252.909262 
L 68.835029 254.924329 
L 68.763605 254.740113 
L 68.620757 252.842667 
L 68.406485 249.087628 
L 68.335061 249.386471 
L 68.120789 250.994187 
L 67.977941 250.615576 
L 67.906517 250.686961 
L 67.835093 250.79141 
L 67.763669 250.664541 
L 67.477973 248.836218 
L 67.263701 250.187535 
L 67.192277 249.95309 
L 66.835157 246.371223 
L 66.692309 247.403139 
L 66.263765 253.214293 
L 66.192341 252.979249 
L 66.049493 252.016057 
L 65.978069 252.029762 
L 65.763797 253.864538 
L 65.549525 254.979946 
L 65.335253 254.123797 
L 65.120981 255.305601 
L 64.978133 255.208204 
L 64.835285 256.010997 
L 64.763861 255.96782 
L 64.621013 253.458983 
L 64.406741 250.313938 
L 64.263893 251.192374 
L 63.763925 255.804494 
L 63.478229 260.813853 
L 63.049685 257.10006 
L 62.978261 257.174971 
L 62.763989 259.810078 
L 62.621141 260.6631 
L 62.549717 260.716057 
L 62.406869 262.110484 
L 62.121173 266.54045 
L 62.049749 266.49734 
L 61.906901 265.614646 
L 61.549781 261.482792 
L 61.121237 264.025958 
L 60.978389 262.889659 
L 60.835541 261.943565 
L 60.692693 263.77375 
L 60.549845 265.476468 
L 60.478421 264.99088 
L 59.835605 253.785436 
L 59.764181 254.019016 
L 59.549909 256.015654 
L 59.121365 263.28111 
L 58.907093 265.94243 
L 58.692821 264.399845 
L 58.478549 260.139924 
L 58.192853 254.225452 
L 58.121429 254.164113 
L 57.764309 256.626381 
L 57.692885 256.743936 
L 57.550037 258.054338 
L 57.050069 264.040594 
L 56.978645 264.29054 
L 56.907221 264.194673 
L 56.692949 261.706326 
L 55.978709 253.774392 
L 55.907285 254.219664 
L 55.764437 258.073032 
L 55.478741 265.174298 
L 55.193045 268.295658 
L 55.121621 267.688856 
L 54.693077 262.765119 
L 54.550229 262.129444 
L 54.407381 262.326566 
L 54.335957 262.292171 
L 54.264533 262.52615 
L 53.978837 265.029865 
L 53.764565 264.510814 
L 53.621717 264.546872 
L 53.407445 263.983912 
L 53.264597 264.501699 
L 52.978901 266.666986 
L 52.764629 267.991226 
L 52.621781 268.65125 
L 52.478933 269.475466 
L 52.407509 269.42883 
L 52.264661 268.188947 
L 51.336149 252.565445 
L 51.264725 252.830825 
L 51.121877 255.587347 
L 50.764757 264.452801 
L 50.550485 264.85789 
L 50.479061 264.70288 
L 50.264789 262.861984 
L 49.979093 258.505331 
L 49.693397 255.103821 
L 49.550549 256.384219 
L 49.264853 259.977596 
L 49.050581 261.28354 
L 48.479189 267.913056 
L 48.336341 268.449338 
L 48.122069 267.076267 
L 47.979221 264.697691 
L 47.693525 257.968051 
L 47.407829 257.479802 
L 47.336405 257.494172 
L 47.122133 258.374271 
L 47.050709 258.277805 
L 46.907861 257.521116 
L 46.836437 257.567286 
L 46.693589 258.183469 
L 46.550741 257.54633 
L 46.193621 254.747031 
L 46.122197 254.761202 
L 45.979349 255.618482 
L 45.907925 255.50718 
L 45.693653 254.64398 
L 45.622229 254.763863 
L 45.550805 254.530749 
L 45.407957 252.032157 
L 45.122261 246.693617 
L 44.907989 245.249228 
L 44.836565 245.911182 
L 44.265173 258.159053 
L 44.122325 258.010097 
L 44.050901 257.739461 
L 43.908053 254.900112 
L 43.550933 244.540239 
L 43.479509 244.539707 
L 43.408085 244.718002 
L 43.265237 246.332237 
L 42.622421 260.980239 
L 42.550997 261.097994 
L 42.479573 260.973919 
L 42.336725 259.273463 
L 42.051029 254.792404 
L 41.908181 255.087987 
L 41.765333 252.972197 
L 41.265365 240.997157 
L 41.051093 240.621341 
L 40.908245 240.802497 
L 40.765397 241.455735 
L 40.622549 244.435724 
L 40.265429 255.644295 
L 40.194005 255.866299 
L 40.122581 255.824452 
L 40.051157 255.930431 
L 39.908309 256.645408 
L 39.836885 256.407504 
L 39.694037 253.017703 
L 39.336917 242.181489 
L 39.122645 240.016202 
L 39.051221 240.63917 
L 38.265557 258.481581 
L 38.194133 258.411527 
L 37.837013 251.427617 
L 37.837013 251.427617 
" clip-path="url(#p86a1200b67)" style="fill: none; stroke: #4c72b0; stroke-linecap: round"/>
   </g>
   <g id="patch_3">
    <path d="M 37.908438 277.248797 
L 37.908438 11.136797 
" style="fill: none; stroke: #262626; stroke-width: 1.25; stroke-linejoin: miter; stroke-linecap: square"/>
   </g>
   <g id="patch_4">
    <path d="M 37.908437 277.248797 
L 395.028437 277.248797 
" style="fill: none; stroke: #262626; stroke-width: 1.25; stroke-linejoin: miter; stroke-linecap: square"/>
   </g>
   <g id="legend_1"/>
  </g>
 </g>
 <defs>
  <clipPath id="p86a1200b67">
   <rect x="37.908438" y="11.136797" width="357.12" height="266.112"/>
  </clipPath>
 </defs>
</svg>
