<?xml version="1.0" encoding="utf-8" standalone="no"?>
<!DOCTYPE svg PUBLIC "-//W3C//DTD SVG 1.1//EN"
  "http://www.w3.org/Graphics/SVG/1.1/DTD/svg11.dtd">
<svg xmlns:xlink="http://www.w3.org/1999/xlink" width="402.374687pt" height="319.168641pt" viewBox="0 0 402.374687 319.168641" xmlns="http://www.w3.org/2000/svg" version="1.1">
 <metadata>
  <rdf:RDF xmlns:dc="http://purl.org/dc/elements/1.1/" xmlns:cc="http://creativecommons.org/ns#" xmlns:rdf="http://www.w3.org/1999/02/22-rdf-syntax-ns#">
   <cc:Work>
    <dc:type rdf:resource="http://purl.org/dc/dcmitype/StillImage"/>
    <dc:date>2024-05-21T21:53:48.880847</dc:date>
    <dc:format>image/svg+xml</dc:format>
    <dc:creator>
     <cc:Agent>
      <dc:title>Matplotlib v3.7.1, https://matplotlib.org/</dc:title>
     </cc:Agent>
    </dc:creator>
   </cc:Work>
  </rdf:RDF>
 </metadata>
 <defs>
  <style type="text/css">*{stroke-linejoin: round; stroke-linecap: butt}</style>
 </defs>
 <g id="figure_1">
  <g id="patch_1">
   <path d="M 0 319.168641 
L 402.374687 319.168641 
L 402.374687 0 
L 0 0 
z
" style="fill: #ffffff"/>
  </g>
  <g id="axes_1">
   <g id="patch_2">
    <path d="M 38.054688 277.248797 
L 395.174688 277.248797 
L 395.174688 11.136797 
L 38.054688 11.136797 
z
" style="fill: #ffffff"/>
   </g>
   <g id="matplotlib.axis_1">
    <g id="xtick_1">
     <g id="line2d_1">
      <defs>
       <path id="m25d301ad70" d="M 0 0 
L 0 -6 
" style="stroke: #262626; stroke-width: 1.25"/>
      </defs>
      <g>
       <use xlink:href="#m25d301ad70" x="371.366688" y="277.248797" style="fill: #262626; stroke: #262626; stroke-width: 1.25"/>
      </g>
     </g>
     <g id="text_1">
      <!-- 600 -->
      <g style="fill: #262626" transform="translate(362.191141 288.622391) scale(0.11 -0.11)">
       <defs>
        <path id="ArialMT-36" d="M 3184 3459 
L 2625 3416 
Q 2550 3747 2413 3897 
Q 2184 4138 1850 4138 
Q 1581 4138 1378 3988 
Q 1113 3794 959 3422 
Q 806 3050 800 2363 
Q 1003 2672 1297 2822 
Q 1591 2972 1913 2972 
Q 2475 2972 2870 2558 
Q 3266 2144 3266 1488 
Q 3266 1056 3080 686 
Q 2894 316 2569 119 
Q 2244 -78 1831 -78 
Q 1128 -78 684 439 
Q 241 956 241 2144 
Q 241 3472 731 4075 
Q 1159 4600 1884 4600 
Q 2425 4600 2770 4297 
Q 3116 3994 3184 3459 
z
M 888 1484 
Q 888 1194 1011 928 
Q 1134 663 1356 523 
Q 1578 384 1822 384 
Q 2178 384 2434 671 
Q 2691 959 2691 1453 
Q 2691 1928 2437 2201 
Q 2184 2475 1800 2475 
Q 1419 2475 1153 2201 
Q 888 1928 888 1484 
z
" transform="scale(0.015625)"/>
        <path id="ArialMT-30" d="M 266 2259 
Q 266 3072 433 3567 
Q 600 4063 929 4331 
Q 1259 4600 1759 4600 
Q 2128 4600 2406 4451 
Q 2684 4303 2865 4023 
Q 3047 3744 3150 3342 
Q 3253 2941 3253 2259 
Q 3253 1453 3087 958 
Q 2922 463 2592 192 
Q 2263 -78 1759 -78 
Q 1097 -78 719 397 
Q 266 969 266 2259 
z
M 844 2259 
Q 844 1131 1108 757 
Q 1372 384 1759 384 
Q 2147 384 2411 759 
Q 2675 1134 2675 2259 
Q 2675 3391 2411 3762 
Q 2147 4134 1753 4134 
Q 1366 4134 1134 3806 
Q 844 3388 844 2259 
z
" transform="scale(0.015625)"/>
       </defs>
       <use xlink:href="#ArialMT-36"/>
       <use xlink:href="#ArialMT-30" x="55.615234"/>
       <use xlink:href="#ArialMT-30" x="111.230469"/>
      </g>
     </g>
    </g>
    <g id="xtick_2">
     <g id="line2d_2">
      <g>
       <use xlink:href="#m25d301ad70" x="323.750687" y="277.248797" style="fill: #262626; stroke: #262626; stroke-width: 1.25"/>
      </g>
     </g>
     <g id="text_2">
      <!-- 800 -->
      <g style="fill: #262626" transform="translate(314.575141 288.622391) scale(0.11 -0.11)">
       <defs>
        <path id="ArialMT-38" d="M 1131 2484 
Q 781 2613 612 2850 
Q 444 3088 444 3419 
Q 444 3919 803 4259 
Q 1163 4600 1759 4600 
Q 2359 4600 2725 4251 
Q 3091 3903 3091 3403 
Q 3091 3084 2923 2848 
Q 2756 2613 2416 2484 
Q 2838 2347 3058 2040 
Q 3278 1734 3278 1309 
Q 3278 722 2862 322 
Q 2447 -78 1769 -78 
Q 1091 -78 675 323 
Q 259 725 259 1325 
Q 259 1772 486 2073 
Q 713 2375 1131 2484 
z
M 1019 3438 
Q 1019 3113 1228 2906 
Q 1438 2700 1772 2700 
Q 2097 2700 2305 2904 
Q 2513 3109 2513 3406 
Q 2513 3716 2298 3927 
Q 2084 4138 1766 4138 
Q 1444 4138 1231 3931 
Q 1019 3725 1019 3438 
z
M 838 1322 
Q 838 1081 952 856 
Q 1066 631 1291 507 
Q 1516 384 1775 384 
Q 2178 384 2440 643 
Q 2703 903 2703 1303 
Q 2703 1709 2433 1975 
Q 2163 2241 1756 2241 
Q 1359 2241 1098 1978 
Q 838 1716 838 1322 
z
" transform="scale(0.015625)"/>
       </defs>
       <use xlink:href="#ArialMT-38"/>
       <use xlink:href="#ArialMT-30" x="55.615234"/>
       <use xlink:href="#ArialMT-30" x="111.230469"/>
      </g>
     </g>
    </g>
    <g id="xtick_3">
     <g id="line2d_3">
      <g>
       <use xlink:href="#m25d301ad70" x="276.134687" y="277.248797" style="fill: #262626; stroke: #262626; stroke-width: 1.25"/>
      </g>
     </g>
     <g id="text_3">
      <!-- 1000 -->
      <g style="fill: #262626" transform="translate(263.900625 288.622391) scale(0.11 -0.11)">
       <defs>
        <path id="ArialMT-31" d="M 2384 0 
L 1822 0 
L 1822 3584 
Q 1619 3391 1289 3197 
Q 959 3003 697 2906 
L 697 3450 
Q 1169 3672 1522 3987 
Q 1875 4303 2022 4600 
L 2384 4600 
L 2384 0 
z
" transform="scale(0.015625)"/>
       </defs>
       <use xlink:href="#ArialMT-31"/>
       <use xlink:href="#ArialMT-30" x="55.615234"/>
       <use xlink:href="#ArialMT-30" x="111.230469"/>
       <use xlink:href="#ArialMT-30" x="166.845703"/>
      </g>
     </g>
    </g>
    <g id="xtick_4">
     <g id="line2d_4">
      <g>
       <use xlink:href="#m25d301ad70" x="228.518687" y="277.248797" style="fill: #262626; stroke: #262626; stroke-width: 1.25"/>
      </g>
     </g>
     <g id="text_4">
      <!-- 1200 -->
      <g style="fill: #262626" transform="translate(216.284625 288.622391) scale(0.11 -0.11)">
       <defs>
        <path id="ArialMT-32" d="M 3222 541 
L 3222 0 
L 194 0 
Q 188 203 259 391 
Q 375 700 629 1000 
Q 884 1300 1366 1694 
Q 2113 2306 2375 2664 
Q 2638 3022 2638 3341 
Q 2638 3675 2398 3904 
Q 2159 4134 1775 4134 
Q 1369 4134 1125 3890 
Q 881 3647 878 3216 
L 300 3275 
Q 359 3922 746 4261 
Q 1134 4600 1788 4600 
Q 2447 4600 2831 4234 
Q 3216 3869 3216 3328 
Q 3216 3053 3103 2787 
Q 2991 2522 2730 2228 
Q 2469 1934 1863 1422 
Q 1356 997 1212 845 
Q 1069 694 975 541 
L 3222 541 
z
" transform="scale(0.015625)"/>
       </defs>
       <use xlink:href="#ArialMT-31"/>
       <use xlink:href="#ArialMT-32" x="55.615234"/>
       <use xlink:href="#ArialMT-30" x="111.230469"/>
       <use xlink:href="#ArialMT-30" x="166.845703"/>
      </g>
     </g>
    </g>
    <g id="xtick_5">
     <g id="line2d_5">
      <g>
       <use xlink:href="#m25d301ad70" x="180.902688" y="277.248797" style="fill: #262626; stroke: #262626; stroke-width: 1.25"/>
      </g>
     </g>
     <g id="text_5">
      <!-- 1400 -->
      <g style="fill: #262626" transform="translate(168.668625 288.622391) scale(0.11 -0.11)">
       <defs>
        <path id="ArialMT-34" d="M 2069 0 
L 2069 1097 
L 81 1097 
L 81 1613 
L 2172 4581 
L 2631 4581 
L 2631 1613 
L 3250 1613 
L 3250 1097 
L 2631 1097 
L 2631 0 
L 2069 0 
z
M 2069 1613 
L 2069 3678 
L 634 1613 
L 2069 1613 
z
" transform="scale(0.015625)"/>
       </defs>
       <use xlink:href="#ArialMT-31"/>
       <use xlink:href="#ArialMT-34" x="55.615234"/>
       <use xlink:href="#ArialMT-30" x="111.230469"/>
       <use xlink:href="#ArialMT-30" x="166.845703"/>
      </g>
     </g>
    </g>
    <g id="xtick_6">
     <g id="line2d_6">
      <g>
       <use xlink:href="#m25d301ad70" x="133.286687" y="277.248797" style="fill: #262626; stroke: #262626; stroke-width: 1.25"/>
      </g>
     </g>
     <g id="text_6">
      <!-- 1600 -->
      <g style="fill: #262626" transform="translate(121.052625 288.622391) scale(0.11 -0.11)">
       <use xlink:href="#ArialMT-31"/>
       <use xlink:href="#ArialMT-36" x="55.615234"/>
       <use xlink:href="#ArialMT-30" x="111.230469"/>
       <use xlink:href="#ArialMT-30" x="166.845703"/>
      </g>
     </g>
    </g>
    <g id="xtick_7">
     <g id="line2d_7">
      <g>
       <use xlink:href="#m25d301ad70" x="85.670687" y="277.248797" style="fill: #262626; stroke: #262626; stroke-width: 1.25"/>
      </g>
     </g>
     <g id="text_7">
      <!-- 1800 -->
      <g style="fill: #262626" transform="translate(73.436625 288.622391) scale(0.11 -0.11)">
       <use xlink:href="#ArialMT-31"/>
       <use xlink:href="#ArialMT-38" x="55.615234"/>
       <use xlink:href="#ArialMT-30" x="111.230469"/>
       <use xlink:href="#ArialMT-30" x="166.845703"/>
      </g>
     </g>
    </g>
    <g id="xtick_8">
     <g id="line2d_8">
      <g>
       <use xlink:href="#m25d301ad70" x="38.054688" y="277.248797" style="fill: #262626; stroke: #262626; stroke-width: 1.25"/>
      </g>
     </g>
     <g id="text_8">
      <!-- 2000 -->
      <g style="fill: #262626" transform="translate(25.820625 288.622391) scale(0.11 -0.11)">
       <use xlink:href="#ArialMT-32"/>
       <use xlink:href="#ArialMT-30" x="55.615234"/>
       <use xlink:href="#ArialMT-30" x="111.230469"/>
       <use xlink:href="#ArialMT-30" x="166.845703"/>
      </g>
     </g>
    </g>
    <g id="xtick_9">
     <g id="line2d_9">
      <defs>
       <path id="m3b83cc59d0" d="M 0 0 
L 0 -4 
" style="stroke: #262626"/>
      </defs>
      <g>
       <use xlink:href="#m3b83cc59d0" x="347.558688" y="277.248797" style="fill: #262626; stroke: #262626"/>
      </g>
     </g>
    </g>
    <g id="xtick_10">
     <g id="line2d_10">
      <g>
       <use xlink:href="#m3b83cc59d0" x="299.942687" y="277.248797" style="fill: #262626; stroke: #262626"/>
      </g>
     </g>
    </g>
    <g id="xtick_11">
     <g id="line2d_11">
      <g>
       <use xlink:href="#m3b83cc59d0" x="252.326687" y="277.248797" style="fill: #262626; stroke: #262626"/>
      </g>
     </g>
    </g>
    <g id="xtick_12">
     <g id="line2d_12">
      <g>
       <use xlink:href="#m3b83cc59d0" x="204.710688" y="277.248797" style="fill: #262626; stroke: #262626"/>
      </g>
     </g>
    </g>
    <g id="xtick_13">
     <g id="line2d_13">
      <g>
       <use xlink:href="#m3b83cc59d0" x="157.094687" y="277.248797" style="fill: #262626; stroke: #262626"/>
      </g>
     </g>
    </g>
    <g id="xtick_14">
     <g id="line2d_14">
      <g>
       <use xlink:href="#m3b83cc59d0" x="109.478687" y="277.248797" style="fill: #262626; stroke: #262626"/>
      </g>
     </g>
    </g>
    <g id="xtick_15">
     <g id="line2d_15">
      <g>
       <use xlink:href="#m3b83cc59d0" x="61.862687" y="277.248797" style="fill: #262626; stroke: #262626"/>
      </g>
     </g>
    </g>
    <g id="text_9">
     <!-- Wavenumber ($\mathregular{cm^{-1}}$) -->
     <g style="fill: #262626" transform="translate(162.074688 309.328641) scale(0.12 -0.12)">
      <defs>
       <path id="ArialMT-57" d="M 1294 0 
L 78 4581 
L 700 4581 
L 1397 1578 
Q 1509 1106 1591 641 
Q 1766 1375 1797 1488 
L 2669 4581 
L 3400 4581 
L 4056 2263 
Q 4303 1400 4413 641 
Q 4500 1075 4641 1638 
L 5359 4581 
L 5969 4581 
L 4713 0 
L 4128 0 
L 3163 3491 
Q 3041 3928 3019 4028 
Q 2947 3713 2884 3491 
L 1913 0 
L 1294 0 
z
" transform="scale(0.015625)"/>
       <path id="ArialMT-61" d="M 2588 409 
Q 2275 144 1986 34 
Q 1697 -75 1366 -75 
Q 819 -75 525 192 
Q 231 459 231 875 
Q 231 1119 342 1320 
Q 453 1522 633 1644 
Q 813 1766 1038 1828 
Q 1203 1872 1538 1913 
Q 2219 1994 2541 2106 
Q 2544 2222 2544 2253 
Q 2544 2597 2384 2738 
Q 2169 2928 1744 2928 
Q 1347 2928 1158 2789 
Q 969 2650 878 2297 
L 328 2372 
Q 403 2725 575 2942 
Q 747 3159 1072 3276 
Q 1397 3394 1825 3394 
Q 2250 3394 2515 3294 
Q 2781 3194 2906 3042 
Q 3031 2891 3081 2659 
Q 3109 2516 3109 2141 
L 3109 1391 
Q 3109 606 3145 398 
Q 3181 191 3288 0 
L 2700 0 
Q 2613 175 2588 409 
z
M 2541 1666 
Q 2234 1541 1622 1453 
Q 1275 1403 1131 1340 
Q 988 1278 909 1158 
Q 831 1038 831 891 
Q 831 666 1001 516 
Q 1172 366 1500 366 
Q 1825 366 2078 508 
Q 2331 650 2450 897 
Q 2541 1088 2541 1459 
L 2541 1666 
z
" transform="scale(0.015625)"/>
       <path id="ArialMT-76" d="M 1344 0 
L 81 3319 
L 675 3319 
L 1388 1331 
Q 1503 1009 1600 663 
Q 1675 925 1809 1294 
L 2547 3319 
L 3125 3319 
L 1869 0 
L 1344 0 
z
" transform="scale(0.015625)"/>
       <path id="ArialMT-65" d="M 2694 1069 
L 3275 997 
Q 3138 488 2766 206 
Q 2394 -75 1816 -75 
Q 1088 -75 661 373 
Q 234 822 234 1631 
Q 234 2469 665 2931 
Q 1097 3394 1784 3394 
Q 2450 3394 2872 2941 
Q 3294 2488 3294 1666 
Q 3294 1616 3291 1516 
L 816 1516 
Q 847 969 1125 678 
Q 1403 388 1819 388 
Q 2128 388 2347 550 
Q 2566 713 2694 1069 
z
M 847 1978 
L 2700 1978 
Q 2663 2397 2488 2606 
Q 2219 2931 1791 2931 
Q 1403 2931 1139 2672 
Q 875 2413 847 1978 
z
" transform="scale(0.015625)"/>
       <path id="ArialMT-6e" d="M 422 0 
L 422 3319 
L 928 3319 
L 928 2847 
Q 1294 3394 1984 3394 
Q 2284 3394 2536 3286 
Q 2788 3178 2913 3003 
Q 3038 2828 3088 2588 
Q 3119 2431 3119 2041 
L 3119 0 
L 2556 0 
L 2556 2019 
Q 2556 2363 2490 2533 
Q 2425 2703 2258 2804 
Q 2091 2906 1866 2906 
Q 1506 2906 1245 2678 
Q 984 2450 984 1813 
L 984 0 
L 422 0 
z
" transform="scale(0.015625)"/>
       <path id="ArialMT-75" d="M 2597 0 
L 2597 488 
Q 2209 -75 1544 -75 
Q 1250 -75 995 37 
Q 741 150 617 320 
Q 494 491 444 738 
Q 409 903 409 1263 
L 409 3319 
L 972 3319 
L 972 1478 
Q 972 1038 1006 884 
Q 1059 663 1231 536 
Q 1403 409 1656 409 
Q 1909 409 2131 539 
Q 2353 669 2445 892 
Q 2538 1116 2538 1541 
L 2538 3319 
L 3100 3319 
L 3100 0 
L 2597 0 
z
" transform="scale(0.015625)"/>
       <path id="ArialMT-6d" d="M 422 0 
L 422 3319 
L 925 3319 
L 925 2853 
Q 1081 3097 1340 3245 
Q 1600 3394 1931 3394 
Q 2300 3394 2536 3241 
Q 2772 3088 2869 2813 
Q 3263 3394 3894 3394 
Q 4388 3394 4653 3120 
Q 4919 2847 4919 2278 
L 4919 0 
L 4359 0 
L 4359 2091 
Q 4359 2428 4304 2576 
Q 4250 2725 4106 2815 
Q 3963 2906 3769 2906 
Q 3419 2906 3187 2673 
Q 2956 2441 2956 1928 
L 2956 0 
L 2394 0 
L 2394 2156 
Q 2394 2531 2256 2718 
Q 2119 2906 1806 2906 
Q 1569 2906 1367 2781 
Q 1166 2656 1075 2415 
Q 984 2175 984 1722 
L 984 0 
L 422 0 
z
" transform="scale(0.015625)"/>
       <path id="ArialMT-62" d="M 941 0 
L 419 0 
L 419 4581 
L 981 4581 
L 981 2947 
Q 1338 3394 1891 3394 
Q 2197 3394 2470 3270 
Q 2744 3147 2920 2923 
Q 3097 2700 3197 2384 
Q 3297 2069 3297 1709 
Q 3297 856 2875 390 
Q 2453 -75 1863 -75 
Q 1275 -75 941 416 
L 941 0 
z
M 934 1684 
Q 934 1088 1097 822 
Q 1363 388 1816 388 
Q 2184 388 2453 708 
Q 2722 1028 2722 1663 
Q 2722 2313 2464 2622 
Q 2206 2931 1841 2931 
Q 1472 2931 1203 2611 
Q 934 2291 934 1684 
z
" transform="scale(0.015625)"/>
       <path id="ArialMT-72" d="M 416 0 
L 416 3319 
L 922 3319 
L 922 2816 
Q 1116 3169 1280 3281 
Q 1444 3394 1641 3394 
Q 1925 3394 2219 3213 
L 2025 2691 
Q 1819 2813 1613 2813 
Q 1428 2813 1281 2702 
Q 1134 2591 1072 2394 
Q 978 2094 978 1738 
L 978 0 
L 416 0 
z
" transform="scale(0.015625)"/>
       <path id="ArialMT-20" transform="scale(0.015625)"/>
       <path id="ArialMT-28" d="M 1497 -1347 
Q 1031 -759 709 28 
Q 388 816 388 1659 
Q 388 2403 628 3084 
Q 909 3875 1497 4659 
L 1900 4659 
Q 1522 4009 1400 3731 
Q 1209 3300 1100 2831 
Q 966 2247 966 1656 
Q 966 153 1900 -1347 
L 1497 -1347 
z
" transform="scale(0.015625)"/>
       <path id="ArialMT-63" d="M 2588 1216 
L 3141 1144 
Q 3050 572 2676 248 
Q 2303 -75 1759 -75 
Q 1078 -75 664 370 
Q 250 816 250 1647 
Q 250 2184 428 2587 
Q 606 2991 970 3192 
Q 1334 3394 1763 3394 
Q 2303 3394 2647 3120 
Q 2991 2847 3088 2344 
L 2541 2259 
Q 2463 2594 2264 2762 
Q 2066 2931 1784 2931 
Q 1359 2931 1093 2626 
Q 828 2322 828 1663 
Q 828 994 1084 691 
Q 1341 388 1753 388 
Q 2084 388 2306 591 
Q 2528 794 2588 1216 
z
" transform="scale(0.015625)"/>
       <path id="ArialMT-2212" d="M 3381 1997 
L 356 1997 
L 356 2522 
L 3381 2522 
L 3381 1997 
z
" transform="scale(0.015625)"/>
       <path id="ArialMT-29" d="M 791 -1347 
L 388 -1347 
Q 1322 153 1322 1656 
Q 1322 2244 1188 2822 
Q 1081 3291 891 3722 
Q 769 4003 388 4659 
L 791 4659 
Q 1378 3875 1659 3084 
Q 1900 2403 1900 1659 
Q 1900 816 1576 28 
Q 1253 -759 791 -1347 
z
" transform="scale(0.015625)"/>
      </defs>
      <use xlink:href="#ArialMT-57" transform="translate(0 0.99375)"/>
      <use xlink:href="#ArialMT-61" transform="translate(94.384766 0.99375)"/>
      <use xlink:href="#ArialMT-76" transform="translate(150 0.99375)"/>
      <use xlink:href="#ArialMT-65" transform="translate(200 0.99375)"/>
      <use xlink:href="#ArialMT-6e" transform="translate(255.615234 0.99375)"/>
      <use xlink:href="#ArialMT-75" transform="translate(311.230469 0.99375)"/>
      <use xlink:href="#ArialMT-6d" transform="translate(366.845703 0.99375)"/>
      <use xlink:href="#ArialMT-62" transform="translate(450.146484 0.99375)"/>
      <use xlink:href="#ArialMT-65" transform="translate(505.761719 0.99375)"/>
      <use xlink:href="#ArialMT-72" transform="translate(561.376953 0.99375)"/>
      <use xlink:href="#ArialMT-20" transform="translate(594.677734 0.99375)"/>
      <use xlink:href="#ArialMT-28" transform="translate(622.460938 0.99375)"/>
      <use xlink:href="#ArialMT-63" transform="translate(655.761719 0.99375)"/>
      <use xlink:href="#ArialMT-6d" transform="translate(705.761719 0.99375)"/>
      <use xlink:href="#ArialMT-2212" transform="translate(790.804844 70.6875) scale(0.7)"/>
      <use xlink:href="#ArialMT-31" transform="translate(831.68375 70.6875) scale(0.7)"/>
      <use xlink:href="#ArialMT-29" transform="translate(875.592539 0.99375)"/>
     </g>
    </g>
   </g>
   <g id="matplotlib.axis_2">
    <g id="ytick_1">
     <g id="line2d_16">
      <defs>
       <path id="m87fd302c20" d="M 0 0 
L 6 0 
" style="stroke: #262626; stroke-width: 1.25"/>
      </defs>
      <g>
       <use xlink:href="#m87fd302c20" x="38.054688" y="277.248797" style="fill: #262626; stroke: #262626; stroke-width: 1.25"/>
      </g>
     </g>
     <g id="text_10">
      <!-- 0 -->
      <g style="fill: #262626" transform="translate(28.437656 281.185594) scale(0.11 -0.11)">
       <use xlink:href="#ArialMT-30"/>
      </g>
     </g>
    </g>
    <g id="ytick_2">
     <g id="line2d_17">
      <g>
       <use xlink:href="#m87fd302c20" x="38.054688" y="243.984797" style="fill: #262626; stroke: #262626; stroke-width: 1.25"/>
      </g>
     </g>
     <g id="text_11">
      <!-- 5 -->
      <g style="fill: #262626" transform="translate(28.437656 247.921594) scale(0.11 -0.11)">
       <defs>
        <path id="ArialMT-35" d="M 266 1200 
L 856 1250 
Q 922 819 1161 601 
Q 1400 384 1738 384 
Q 2144 384 2425 690 
Q 2706 997 2706 1503 
Q 2706 1984 2436 2262 
Q 2166 2541 1728 2541 
Q 1456 2541 1237 2417 
Q 1019 2294 894 2097 
L 366 2166 
L 809 4519 
L 3088 4519 
L 3088 3981 
L 1259 3981 
L 1013 2750 
Q 1425 3038 1878 3038 
Q 2478 3038 2890 2622 
Q 3303 2206 3303 1553 
Q 3303 931 2941 478 
Q 2500 -78 1738 -78 
Q 1113 -78 717 272 
Q 322 622 266 1200 
z
" transform="scale(0.015625)"/>
       </defs>
       <use xlink:href="#ArialMT-35"/>
      </g>
     </g>
    </g>
    <g id="ytick_3">
     <g id="line2d_18">
      <g>
       <use xlink:href="#m87fd302c20" x="38.054688" y="210.720797" style="fill: #262626; stroke: #262626; stroke-width: 1.25"/>
      </g>
     </g>
     <g id="text_12">
      <!-- 10 -->
      <g style="fill: #262626" transform="translate(22.320625 214.657594) scale(0.11 -0.11)">
       <use xlink:href="#ArialMT-31"/>
       <use xlink:href="#ArialMT-30" x="55.615234"/>
      </g>
     </g>
    </g>
    <g id="ytick_4">
     <g id="line2d_19">
      <g>
       <use xlink:href="#m87fd302c20" x="38.054688" y="177.456797" style="fill: #262626; stroke: #262626; stroke-width: 1.25"/>
      </g>
     </g>
     <g id="text_13">
      <!-- 15 -->
      <g style="fill: #262626" transform="translate(22.320625 181.393594) scale(0.11 -0.11)">
       <use xlink:href="#ArialMT-31"/>
       <use xlink:href="#ArialMT-35" x="55.615234"/>
      </g>
     </g>
    </g>
    <g id="ytick_5">
     <g id="line2d_20">
      <g>
       <use xlink:href="#m87fd302c20" x="38.054688" y="144.192797" style="fill: #262626; stroke: #262626; stroke-width: 1.25"/>
      </g>
     </g>
     <g id="text_14">
      <!-- 20 -->
      <g style="fill: #262626" transform="translate(22.320625 148.129594) scale(0.11 -0.11)">
       <use xlink:href="#ArialMT-32"/>
       <use xlink:href="#ArialMT-30" x="55.615234"/>
      </g>
     </g>
    </g>
    <g id="ytick_6">
     <g id="line2d_21">
      <g>
       <use xlink:href="#m87fd302c20" x="38.054688" y="110.928797" style="fill: #262626; stroke: #262626; stroke-width: 1.25"/>
      </g>
     </g>
     <g id="text_15">
      <!-- 25 -->
      <g style="fill: #262626" transform="translate(22.320625 114.865594) scale(0.11 -0.11)">
       <use xlink:href="#ArialMT-32"/>
       <use xlink:href="#ArialMT-35" x="55.615234"/>
      </g>
     </g>
    </g>
    <g id="ytick_7">
     <g id="line2d_22">
      <g>
       <use xlink:href="#m87fd302c20" x="38.054688" y="77.664797" style="fill: #262626; stroke: #262626; stroke-width: 1.25"/>
      </g>
     </g>
     <g id="text_16">
      <!-- 30 -->
      <g style="fill: #262626" transform="translate(22.320625 81.601594) scale(0.11 -0.11)">
       <defs>
        <path id="ArialMT-33" d="M 269 1209 
L 831 1284 
Q 928 806 1161 595 
Q 1394 384 1728 384 
Q 2125 384 2398 659 
Q 2672 934 2672 1341 
Q 2672 1728 2419 1979 
Q 2166 2231 1775 2231 
Q 1616 2231 1378 2169 
L 1441 2663 
Q 1497 2656 1531 2656 
Q 1891 2656 2178 2843 
Q 2466 3031 2466 3422 
Q 2466 3731 2256 3934 
Q 2047 4138 1716 4138 
Q 1388 4138 1169 3931 
Q 950 3725 888 3313 
L 325 3413 
Q 428 3978 793 4289 
Q 1159 4600 1703 4600 
Q 2078 4600 2393 4439 
Q 2709 4278 2876 4000 
Q 3044 3722 3044 3409 
Q 3044 3113 2884 2869 
Q 2725 2625 2413 2481 
Q 2819 2388 3044 2092 
Q 3269 1797 3269 1353 
Q 3269 753 2831 336 
Q 2394 -81 1725 -81 
Q 1122 -81 723 278 
Q 325 638 269 1209 
z
" transform="scale(0.015625)"/>
       </defs>
       <use xlink:href="#ArialMT-33"/>
       <use xlink:href="#ArialMT-30" x="55.615234"/>
      </g>
     </g>
    </g>
    <g id="ytick_8">
     <g id="line2d_23">
      <g>
       <use xlink:href="#m87fd302c20" x="38.054688" y="44.400797" style="fill: #262626; stroke: #262626; stroke-width: 1.25"/>
      </g>
     </g>
     <g id="text_17">
      <!-- 35 -->
      <g style="fill: #262626" transform="translate(22.320625 48.337594) scale(0.11 -0.11)">
       <use xlink:href="#ArialMT-33"/>
       <use xlink:href="#ArialMT-35" x="55.615234"/>
      </g>
     </g>
    </g>
    <g id="ytick_9">
     <g id="line2d_24">
      <g>
       <use xlink:href="#m87fd302c20" x="38.054688" y="11.136797" style="fill: #262626; stroke: #262626; stroke-width: 1.25"/>
      </g>
     </g>
     <g id="text_18">
      <!-- 40 -->
      <g style="fill: #262626" transform="translate(22.320625 15.073594) scale(0.11 -0.11)">
       <use xlink:href="#ArialMT-34"/>
       <use xlink:href="#ArialMT-30" x="55.615234"/>
      </g>
     </g>
    </g>
    <g id="ytick_10">
     <g id="line2d_25">
      <defs>
       <path id="m1d99fff30d" d="M 0 0 
L 4 0 
" style="stroke: #262626"/>
      </defs>
      <g>
       <use xlink:href="#m1d99fff30d" x="38.054688" y="260.616797" style="fill: #262626; stroke: #262626"/>
      </g>
     </g>
    </g>
    <g id="ytick_11">
     <g id="line2d_26">
      <g>
       <use xlink:href="#m1d99fff30d" x="38.054688" y="227.352797" style="fill: #262626; stroke: #262626"/>
      </g>
     </g>
    </g>
    <g id="ytick_12">
     <g id="line2d_27">
      <g>
       <use xlink:href="#m1d99fff30d" x="38.054688" y="194.088797" style="fill: #262626; stroke: #262626"/>
      </g>
     </g>
    </g>
    <g id="ytick_13">
     <g id="line2d_28">
      <g>
       <use xlink:href="#m1d99fff30d" x="38.054688" y="160.824797" style="fill: #262626; stroke: #262626"/>
      </g>
     </g>
    </g>
    <g id="ytick_14">
     <g id="line2d_29">
      <g>
       <use xlink:href="#m1d99fff30d" x="38.054688" y="127.560797" style="fill: #262626; stroke: #262626"/>
      </g>
     </g>
    </g>
    <g id="ytick_15">
     <g id="line2d_30">
      <g>
       <use xlink:href="#m1d99fff30d" x="38.054688" y="94.296797" style="fill: #262626; stroke: #262626"/>
      </g>
     </g>
    </g>
    <g id="ytick_16">
     <g id="line2d_31">
      <g>
       <use xlink:href="#m1d99fff30d" x="38.054688" y="61.032797" style="fill: #262626; stroke: #262626"/>
      </g>
     </g>
    </g>
    <g id="ytick_17">
     <g id="line2d_32">
      <g>
       <use xlink:href="#m1d99fff30d" x="38.054688" y="27.768797" style="fill: #262626; stroke: #262626"/>
      </g>
     </g>
    </g>
    <g id="text_19">
     <!-- au-026-b2-f3cl3-repeat -->
     <g style="fill: #262626" transform="translate(15.935625 205.224047) rotate(-90) scale(0.12 -0.12)">
      <defs>
       <path id="ArialMT-2d" d="M 203 1375 
L 203 1941 
L 1931 1941 
L 1931 1375 
L 203 1375 
z
" transform="scale(0.015625)"/>
       <path id="ArialMT-66" d="M 556 0 
L 556 2881 
L 59 2881 
L 59 3319 
L 556 3319 
L 556 3672 
Q 556 4006 616 4169 
Q 697 4388 901 4523 
Q 1106 4659 1475 4659 
Q 1713 4659 2000 4603 
L 1916 4113 
Q 1741 4144 1584 4144 
Q 1328 4144 1222 4034 
Q 1116 3925 1116 3625 
L 1116 3319 
L 1763 3319 
L 1763 2881 
L 1116 2881 
L 1116 0 
L 556 0 
z
" transform="scale(0.015625)"/>
       <path id="ArialMT-6c" d="M 409 0 
L 409 4581 
L 972 4581 
L 972 0 
L 409 0 
z
" transform="scale(0.015625)"/>
       <path id="ArialMT-70" d="M 422 -1272 
L 422 3319 
L 934 3319 
L 934 2888 
Q 1116 3141 1344 3267 
Q 1572 3394 1897 3394 
Q 2322 3394 2647 3175 
Q 2972 2956 3137 2557 
Q 3303 2159 3303 1684 
Q 3303 1175 3120 767 
Q 2938 359 2589 142 
Q 2241 -75 1856 -75 
Q 1575 -75 1351 44 
Q 1128 163 984 344 
L 984 -1272 
L 422 -1272 
z
M 931 1641 
Q 931 1000 1190 694 
Q 1450 388 1819 388 
Q 2194 388 2461 705 
Q 2728 1022 2728 1688 
Q 2728 2322 2467 2637 
Q 2206 2953 1844 2953 
Q 1484 2953 1207 2617 
Q 931 2281 931 1641 
z
" transform="scale(0.015625)"/>
       <path id="ArialMT-74" d="M 1650 503 
L 1731 6 
Q 1494 -44 1306 -44 
Q 1000 -44 831 53 
Q 663 150 594 308 
Q 525 466 525 972 
L 525 2881 
L 113 2881 
L 113 3319 
L 525 3319 
L 525 4141 
L 1084 4478 
L 1084 3319 
L 1650 3319 
L 1650 2881 
L 1084 2881 
L 1084 941 
Q 1084 700 1114 631 
Q 1144 563 1211 522 
Q 1278 481 1403 481 
Q 1497 481 1650 503 
z
" transform="scale(0.015625)"/>
      </defs>
      <use xlink:href="#ArialMT-61"/>
      <use xlink:href="#ArialMT-75" x="55.615234"/>
      <use xlink:href="#ArialMT-2d" x="111.230469"/>
      <use xlink:href="#ArialMT-30" x="144.53125"/>
      <use xlink:href="#ArialMT-32" x="200.146484"/>
      <use xlink:href="#ArialMT-36" x="255.761719"/>
      <use xlink:href="#ArialMT-2d" x="311.376953"/>
      <use xlink:href="#ArialMT-62" x="344.677734"/>
      <use xlink:href="#ArialMT-32" x="400.292969"/>
      <use xlink:href="#ArialMT-2d" x="455.908203"/>
      <use xlink:href="#ArialMT-66" x="489.208984"/>
      <use xlink:href="#ArialMT-33" x="516.992188"/>
      <use xlink:href="#ArialMT-63" x="572.607422"/>
      <use xlink:href="#ArialMT-6c" x="622.607422"/>
      <use xlink:href="#ArialMT-33" x="644.824219"/>
      <use xlink:href="#ArialMT-2d" x="700.439453"/>
      <use xlink:href="#ArialMT-72" x="733.740234"/>
      <use xlink:href="#ArialMT-65" x="767.041016"/>
      <use xlink:href="#ArialMT-70" x="822.65625"/>
      <use xlink:href="#ArialMT-65" x="878.271484"/>
      <use xlink:href="#ArialMT-61" x="933.886719"/>
      <use xlink:href="#ArialMT-74" x="989.501953"/>
     </g>
    </g>
   </g>
   <g id="PolyCollection_1"/>
   <g id="line2d_33">
    <path d="M 395.293727 261.211225 
L 395.055647 260.9831 
L 394.936607 261.193195 
L 394.698527 262.312995 
L 393.984287 266.857323 
L 393.865248 266.879211 
L 393.627167 266.376392 
L 393.389087 265.442538 
L 393.151007 263.64921 
L 392.198688 253.586916 
L 392.079647 254.061527 
L 391.841567 257.180626 
L 391.246367 267.642619 
L 391.127327 268.083567 
L 391.008287 267.888307 
L 390.770207 266.013681 
L 390.413087 260.361662 
L 389.817887 250.169705 
L 389.579807 249.123619 
L 389.460767 249.567627 
L 389.222688 252.141928 
L 388.389407 263.208262 
L 388.032287 266.165831 
L 387.913247 266.342729 
L 387.675167 265.558231 
L 387.437087 264.794489 
L 387.318047 264.933067 
L 387.079967 266.179935 
L 386.722847 268.001937 
L 386.603807 268.065671 
L 386.365727 267.404383 
L 386.008607 266.395419 
L 385.889567 266.533598 
L 385.532447 267.49526 
L 385.413407 267.455476 
L 385.056287 266.531934 
L 384.937248 266.632857 
L 384.699167 267.96874 
L 384.342047 269.830592 
L 384.223007 269.768389 
L 383.865887 268.409222 
L 383.389727 265.616443 
L 383.032607 263.603704 
L 382.913567 263.35968 
L 382.794527 263.398399 
L 382.556447 264.394922 
L 382.080287 267.493397 
L 381.961248 267.234004 
L 381.723167 264.8211 
L 381.366047 260.600032 
L 381.127967 259.559002 
L 380.532767 258.181739 
L 380.413727 258.375469 
L 380.175647 259.750669 
L 379.461407 265.219403 
L 379.342367 265.31048 
L 378.985248 264.897807 
L 378.866207 265.219071 
L 378.271007 268.235583 
L 378.032927 267.10321 
L 377.556767 264.535828 
L 377.318688 264.056627 
L 377.199647 264.163804 
L 376.961568 265.262314 
L 376.604447 267.145655 
L 376.247327 267.693846 
L 376.009248 269.142427 
L 375.771167 270.761585 
L 375.652128 271.022042 
L 375.533087 270.815074 
L 375.056927 269.145221 
L 374.580767 269.024805 
L 374.223647 268.376423 
L 373.985568 266.971485 
L 373.152287 258.695601 
L 373.033248 258.899776 
L 372.438047 261.160065 
L 372.319007 261.114692 
L 372.080927 260.353346 
L 371.723807 259.129231 
L 371.485727 258.637589 
L 371.247647 257.422921 
L 370.890527 254.787148 
L 370.771487 254.628878 
L 370.652447 255.141276 
L 370.295327 259.564989 
L 369.938207 263.442507 
L 369.700128 264.174515 
L 369.581087 264.055363 
L 369.223967 263.123971 
L 369.104927 263.133618 
L 368.628767 264.030881 
L 368.390688 263.188104 
L 368.033568 262.004504 
L 367.795487 261.759415 
L 367.557407 260.831217 
L 367.081248 258.440932 
L 366.843167 258.066646 
L 366.724128 258.14761 
L 366.605087 258.557622 
L 366.367007 260.783716 
L 365.771807 267.985571 
L 365.652767 268.246827 
L 365.533727 268.19081 
L 365.176607 267.70143 
L 365.057568 267.740349 
L 364.819487 268.219484 
L 364.343327 269.472339 
L 364.224287 269.41426 
L 363.986207 268.527176 
L 363.152927 263.732569 
L 362.676767 262.860321 
L 362.319647 262.164238 
L 362.200607 262.242142 
L 361.962527 263.171272 
L 361.605407 264.983495 
L 361.486367 264.890622 
L 361.248287 263.024512 
L 360.891167 259.094304 
L 360.772128 258.652491 
L 360.653087 258.860724 
L 360.057887 262.662466 
L 359.938847 262.570325 
L 359.343647 260.336049 
L 359.224607 260.437837 
L 358.986527 261.29658 
L 358.510367 263.121376 
L 358.272287 263.251904 
L 358.034207 263.226358 
L 357.796128 263.455081 
L 357.200927 264.568094 
L 356.605727 266.969223 
L 356.486688 266.756733 
L 356.129568 265.455844 
L 356.010527 265.373349 
L 355.772447 265.591362 
L 355.653407 265.494098 
L 355.415327 264.402107 
L 355.177247 263.196819 
L 355.058207 263.093302 
L 354.939167 263.410441 
L 354.582047 265.912359 
L 353.986847 270.385635 
L 353.867807 270.651082 
L 353.748767 270.574508 
L 352.915487 268.435633 
L 352.439327 265.906372 
L 352.320287 266.126247 
L 351.844128 268.021962 
L 351.725087 267.894095 
L 351.367967 267.140666 
L 351.129887 267.291485 
L 350.891807 267.428266 
L 350.653727 267.00089 
L 350.058527 265.041508 
L 349.939487 265.03572 
L 349.701407 265.604335 
L 349.344287 266.453099 
L 348.987167 266.576309 
L 348.749087 267.230745 
L 348.391967 268.54414 
L 348.272927 268.695491 
L 348.153887 268.634685 
L 347.796767 267.671759 
L 347.558688 267.194154 
L 347.320607 267.263676 
L 347.201568 267.284433 
L 347.082527 267.055177 
L 346.844448 265.477931 
L 346.368287 261.414468 
L 346.249247 261.221936 
L 346.011167 261.576131 
L 345.773087 261.903116 
L 345.535008 261.739257 
L 345.058847 261.111499 
L 344.939807 261.261453 
L 344.701727 262.247797 
L 344.225568 264.740202 
L 343.749407 266.38371 
L 343.154207 269.268098 
L 343.035167 269.391108 
L 342.916128 269.263308 
L 342.678047 268.333313 
L 342.201887 266.174812 
L 342.082847 266.17082 
L 341.844767 267.054113 
L 341.011487 272.108045 
L 340.773407 272.33118 
L 340.654367 272.098066 
L 340.416287 270.743822 
L 339.821087 265.935045 
L 339.702047 265.709382 
L 339.583008 265.769723 
L 339.344927 266.438263 
L 338.987807 268.337105 
L 338.392607 272.114632 
L 338.273568 272.240236 
L 338.154527 272.039588 
L 337.916448 270.760255 
L 337.440287 265.853282 
L 337.083167 262.5344 
L 336.964128 262.096978 
L 336.845087 262.098575 
L 336.607008 263.145792 
L 336.249887 264.895479 
L 336.130847 264.978838 
L 335.654687 264.396386 
L 335.416607 264.874522 
L 334.464287 267.989164 
L 334.107167 271.050184 
L 333.750047 273.793 
L 333.631008 273.643911 
L 333.392927 271.400587 
L 332.916767 265.896259 
L 332.559647 264.543479 
L 332.321568 264.046515 
L 332.202527 264.051105 
L 332.083487 264.340369 
L 331.726367 266.53546 
L 331.369247 268.503359 
L 331.250207 268.778452 
L 331.131167 268.733412 
L 331.012128 268.224074 
L 330.774047 265.543195 
L 330.297888 258.558953 
L 330.178847 258.022138 
L 330.059807 258.02766 
L 329.702687 258.725073 
L 329.464607 258.355577 
L 329.345568 258.155128 
L 329.226527 258.182737 
L 328.988448 259.218179 
L 328.393247 263.828902 
L 328.274207 263.943796 
L 328.036128 262.766583 
L 327.798047 261.182085 
L 327.679008 261.048697 
L 327.559967 261.615183 
L 326.964767 266.883136 
L 326.845727 266.578637 
L 326.131487 262.877152 
L 325.893407 262.44472 
L 325.655327 262.44492 
L 325.417247 262.452704 
L 325.179167 262.303348 
L 325.060128 262.557086 
L 324.822047 264.728493 
L 324.226847 272.863072 
L 324.107807 272.879105 
L 323.869727 271.571697 
L 323.393568 266.859585 
L 322.917407 262.17628 
L 322.560287 260.613204 
L 322.322207 260.263866 
L 322.203167 260.428789 
L 321.607967 262.432945 
L 321.250847 262.353776 
L 321.012767 263.101751 
L 320.298527 267.699634 
L 319.941407 269.879357 
L 319.822367 270.083798 
L 319.703328 269.897453 
L 319.465247 268.608939 
L 318.870047 264.998464 
L 318.512927 263.666174 
L 318.393888 263.536312 
L 318.036767 263.686133 
L 317.917727 263.348303 
L 317.679647 261.407416 
L 317.203487 256.633699 
L 317.084448 256.301259 
L 316.965407 256.329733 
L 316.727328 257.076044 
L 316.489247 258.477323 
L 316.251167 261.002792 
L 315.536927 271.023639 
L 315.417888 271.459065 
L 315.298847 271.365194 
L 315.060767 269.638792 
L 314.465568 262.771173 
L 314.346527 262.488429 
L 313.632287 262.80131 
L 313.394207 264.561042 
L 312.799008 270.888787 
L 312.679967 270.862109 
L 312.441888 269.823806 
L 311.608607 265.351129 
L 311.489568 265.426838 
L 311.132448 266.576309 
L 310.775328 268.42765 
L 310.418207 270.783074 
L 310.299167 270.783074 
L 310.061087 268.79688 
L 309.584927 263.097892 
L 309.346847 262.314791 
L 309.227807 262.310267 
L 309.108767 262.50739 
L 308.870687 263.791846 
L 308.513568 268.271442 
L 308.037407 273.644509 
L 307.918367 273.953931 
L 307.799328 273.549707 
L 307.561247 270.32117 
L 306.966047 259.720465 
L 306.847008 259.297547 
L 306.727967 259.291825 
L 306.251807 260.228539 
L 305.894687 261.667341 
L 305.418527 263.470249 
L 305.180448 263.745276 
L 304.823328 263.593592 
L 304.704287 263.826773 
L 304.466207 265.362572 
L 303.990047 269.380131 
L 303.871008 269.501478 
L 303.751967 269.165179 
L 302.918687 264.604153 
L 302.680607 264.430248 
L 302.561567 264.452602 
L 302.442527 264.627038 
L 302.204448 265.84776 
L 301.609247 270.364746 
L 301.490207 270.149594 
L 301.133087 267.8919 
L 300.418847 262.992445 
L 300.299807 263.010674 
L 300.061727 263.768295 
L 299.585567 265.318264 
L 299.466527 265.458439 
L 299.347487 265.36663 
L 299.109407 264.387338 
L 298.633247 262.262633 
L 298.395167 260.675807 
L 297.799967 254.743772 
L 297.680927 254.871971 
L 296.847647 258.073232 
L 295.776287 266.800375 
L 295.657247 266.563336 
L 295.300127 263.457343 
L 294.943008 260.882244 
L 294.585888 259.629455 
L 294.466847 259.607833 
L 294.347807 259.927035 
L 294.109727 261.608729 
L 293.633567 267.475501 
L 293.038367 274.403328 
L 292.800287 275.176915 
L 292.681247 274.803826 
L 292.205087 271.904137 
L 292.086047 272.019829 
L 291.728927 273.194847 
L 291.609888 273.065915 
L 291.014687 270.592937 
L 290.776607 269.125928 
L 290.181407 264.616793 
L 289.467167 261.635341 
L 289.348127 261.734866 
L 288.752927 263.433725 
L 288.395807 265.27868 
L 287.086367 273.533541 
L 286.967328 273.507728 
L 286.729247 272.504286 
L 286.015007 267.187501 
L 285.776927 267.055709 
L 285.538847 267.076998 
L 285.062687 266.373398 
L 284.943647 266.557814 
L 284.705567 267.790112 
L 283.991328 272.464037 
L 283.872287 272.684178 
L 283.753247 272.643463 
L 283.515167 271.872203 
L 283.039007 268.904988 
L 282.324768 263.180387 
L 282.205727 262.969427 
L 282.086687 262.999431 
L 281.610527 263.687596 
L 281.491487 263.525068 
L 281.253407 262.302417 
L 280.301087 254.430026 
L 280.182047 254.4422 
L 279.467807 255.296154 
L 279.348768 255.527738 
L 279.110687 256.825499 
L 278.634527 260.46518 
L 278.158367 262.354708 
L 277.682208 264.917699 
L 277.563167 265.014298 
L 277.444127 264.814448 
L 277.206047 263.506507 
L 276.610847 258.952932 
L 276.491807 258.982869 
L 276.253727 260.119367 
L 275.777567 262.826258 
L 275.539487 263.392811 
L 275.420448 263.356287 
L 275.182367 262.444255 
L 274.706208 259.852789 
L 274.587167 259.716141 
L 274.468127 259.81254 
L 274.230047 260.681861 
L 273.872927 264.004669 
L 273.515807 267.495459 
L 273.396768 267.890702 
L 273.277727 267.763301 
L 273.039648 266.016076 
L 272.206367 257.05868 
L 272.087328 257.347811 
L 271.849247 259.228091 
L 271.015967 269.482385 
L 270.896927 269.455042 
L 270.658847 267.178254 
L 269.944607 257.358455 
L 269.706527 256.219296 
L 269.587487 256.171795 
L 268.992287 256.989491 
L 268.873247 256.904401 
L 268.754208 256.626447 
L 268.516127 254.936636 
L 267.920927 248.602638 
L 267.801888 249.044451 
L 267.563807 252.044598 
L 266.730527 266.784541 
L 266.492447 267.661048 
L 266.373407 267.454744 
L 266.135328 265.724484 
L 265.421087 255.987246 
L 265.302047 256.063288 
L 265.063967 258.434745 
L 264.230687 270.56912 
L 263.873567 272.977766 
L 263.754527 273.154398 
L 263.635487 272.887487 
L 263.397407 270.93376 
L 262.683167 263.142399 
L 261.849888 259.189106 
L 261.730847 259.17294 
L 261.611807 259.759051 
L 261.254687 264.459787 
L 260.897567 268.213762 
L 260.659487 268.594036 
L 260.302367 268.580332 
L 260.183328 268.38281 
L 260.064287 267.767625 
L 259.826208 264.751778 
L 259.231007 254.551572 
L 258.992927 253.702808 
L 258.873888 254.167107 
L 258.635807 256.519803 
L 258.159648 262.071299 
L 257.802527 263.720328 
L 257.683487 263.841808 
L 257.564447 263.629251 
L 257.326368 261.972704 
L 256.969247 258.719951 
L 256.850208 258.360101 
L 256.731167 258.414853 
L 256.493088 259.177397 
L 256.135967 261.251075 
L 255.778847 263.627056 
L 255.659807 263.617409 
L 255.421727 262.09312 
L 254.945567 258.706445 
L 254.826527 258.553963 
L 254.707487 258.767252 
L 254.469407 260.402843 
L 253.874208 266.010288 
L 253.636127 266.186321 
L 253.398047 266.526479 
L 253.159967 266.799776 
L 253.040928 266.367544 
L 252.326687 260.812988 
L 252.207648 260.827358 
L 251.612447 261.649045 
L 251.493407 261.461436 
L 251.255327 260.438369 
L 250.779167 257.912434 
L 250.660127 257.872251 
L 250.541088 258.254454 
L 250.183967 261.441678 
L 249.945887 263.114923 
L 249.826847 263.260952 
L 249.469727 262.467938 
L 249.350687 262.730258 
L 249.112607 264.565832 
L 248.755487 267.349963 
L 248.636447 267.366728 
L 248.398368 265.639528 
L 247.803167 259.347243 
L 247.446047 258.338945 
L 247.207967 256.296934 
L 246.850847 253.255407 
L 246.731808 253.544671 
L 246.493727 256.31676 
L 246.136607 260.490726 
L 246.017567 260.733354 
L 245.898528 260.383284 
L 245.541407 257.405557 
L 245.184287 255.096237 
L 245.065247 255.043015 
L 244.589088 255.629193 
L 244.351007 255.49148 
L 244.231967 255.610365 
L 243.755808 256.499845 
L 243.517727 255.545634 
L 243.041567 253.167989 
L 242.922528 253.121686 
L 242.803487 253.321669 
L 242.565407 254.552038 
L 242.208287 259.115459 
L 241.732127 265.061666 
L 241.494047 265.632143 
L 241.375007 265.312809 
L 241.017887 262.832911 
L 240.660767 261.076239 
L 240.422687 260.844855 
L 240.303648 260.929878 
L 240.065567 261.692821 
L 239.708447 263.335397 
L 239.589407 263.351896 
L 239.351327 262.175814 
L 238.756127 258.080949 
L 238.399007 257.218746 
L 237.922847 256.908659 
L 237.803808 256.977117 
L 237.684767 257.293989 
L 237.446687 259.047468 
L 237.089567 262.591547 
L 236.970528 262.923589 
L 236.851487 262.5662 
L 236.494368 258.796857 
L 236.137248 255.482565 
L 235.661088 252.322618 
L 235.184927 248.167678 
L 234.946847 247.73212 
L 234.827808 247.641375 
L 234.708767 247.333085 
L 234.470687 245.663964 
L 234.113567 240.697715 
L 233.399327 228.854866 
L 232.804127 224.958986 
L 232.566047 223.419129 
L 232.327967 223.176169 
L 232.208927 223.044776 
L 231.970847 221.55741 
L 231.256607 214.906606 
L 230.542368 208.737996 
L 230.304287 203.995548 
L 229.471007 182.426838 
L 229.113887 177.153562 
L 228.875808 176.19842 
L 228.637727 177.737146 
L 228.280607 182.448858 
L 227.923487 190.780492 
L 227.328287 212.169511 
L 226.495007 242.348873 
L 226.137887 249.918629 
L 225.899808 251.889321 
L 225.661727 252.234402 
L 225.185567 251.358494 
L 224.947487 252.110061 
L 224.590368 253.548064 
L 223.995167 254.357909 
L 223.876127 254.308878 
L 223.638047 253.508214 
L 223.042847 250.37561 
L 222.923808 250.286861 
L 222.804767 250.449323 
L 222.566688 251.388964 
L 222.209567 252.723449 
L 222.090528 252.685395 
L 221.852447 252.303525 
L 221.733407 252.348497 
L 221.376287 252.876464 
L 221.138207 251.583026 
L 220.781088 249.392658 
L 220.543007 249.133731 
L 220.304927 249.199794 
L 220.066847 250.066654 
L 219.709727 251.665055 
L 219.590688 251.492415 
L 219.114528 249.748384 
L 218.876447 249.708001 
L 218.638367 249.930338 
L 218.400287 251.020599 
L 217.567007 259.224166 
L 216.971808 266.010355 
L 216.733727 266.689805 
L 216.614688 266.511909 
L 216.376607 265.336559 
L 216.019487 263.814931 
L 215.662367 263.884519 
L 215.424287 262.716554 
L 215.186207 261.614185 
L 215.067167 261.694151 
L 214.710047 263.706623 
L 213.995808 268.119026 
L 213.519647 271.22462 
L 213.281567 271.545019 
L 213.043487 270.991705 
L 212.805408 270.244197 
L 212.686367 270.173278 
L 212.329248 270.815074 
L 212.210207 270.564596 
L 211.972127 268.656706 
L 211.615007 265.773116 
L 211.495968 265.802056 
L 210.900767 267.974528 
L 210.662688 267.946386 
L 210.543647 268.111043 
L 210.305567 269.202568 
L 209.948447 271.486873 
L 209.829408 271.608287 
L 209.710367 271.148312 
L 208.996128 266.121191 
L 208.281887 264.810655 
L 208.162847 264.887695 
L 207.924767 265.760675 
L 207.448607 268.293396 
L 207.329567 268.395251 
L 207.210528 268.202519 
L 206.972447 266.88919 
L 206.020128 258.58104 
L 205.901087 258.722013 
L 205.663007 260.15303 
L 205.305887 262.10729 
L 204.948767 262.590749 
L 204.472607 264.339038 
L 204.353567 264.194806 
L 204.115487 262.659206 
L 203.758367 259.906477 
L 203.639327 259.715941 
L 203.520287 260.058361 
L 203.163167 263.337193 
L 202.925087 264.955287 
L 202.806047 264.866472 
L 202.567968 263.032961 
L 201.734688 253.464239 
L 201.377567 249.504093 
L 201.258528 249.460118 
L 201.020447 251.120258 
L 200.068128 260.83441 
L 199.949087 261.085886 
L 199.830047 260.964472 
L 199.234848 259.697047 
L 198.996767 259.45748 
L 198.877727 259.723925 
L 197.925408 264.202723 
L 197.687327 264.449475 
L 197.568287 264.136527 
L 197.330207 262.207149 
L 196.735007 255.616353 
L 196.615968 255.471588 
L 196.496927 255.770964 
L 196.139807 258.25146 
L 195.663647 261.505811 
L 195.187487 263.475572 
L 194.354207 268.067866 
L 193.759007 270.614891 
L 193.401887 272.154415 
L 193.282848 272.235712 
L 193.163807 272.066199 
L 192.925727 271.042134 
L 192.330527 267.638628 
L 192.211487 267.655858 
L 191.973408 267.873072 
L 191.735327 267.716066 
L 191.259167 267.302994 
L 191.021087 267.213979 
L 190.902047 267.049589 
L 190.663968 266.046347 
L 189.949727 261.960662 
L 189.235487 256.904069 
L 188.878367 254.292712 
L 188.521248 253.298783 
L 188.283167 253.180497 
L 188.164128 253.201519 
L 188.045087 253.018634 
L 187.807007 251.611168 
L 187.568927 250.15773 
L 187.449887 250.058138 
L 186.973727 250.858337 
L 186.735647 250.798262 
L 186.616607 250.998711 
L 186.378527 252.130552 
L 186.140447 254.635863 
L 185.307167 266.444184 
L 185.188128 266.085798 
L 184.116767 255.650216 
L 183.759647 252.251566 
L 183.640607 252.068681 
L 183.521568 252.462926 
L 183.283487 254.787414 
L 182.926367 258.804774 
L 182.807327 259.230087 
L 182.688288 259.037489 
L 182.093087 255.991305 
L 181.855007 256.060095 
L 181.735968 255.491613 
L 181.497887 252.417021 
L 181.140767 247.493484 
L 181.021727 246.99153 
L 180.902688 247.026989 
L 180.545568 247.921791 
L 180.426527 247.898506 
L 179.950367 246.974233 
L 179.831327 247.201293 
L 179.593247 248.774148 
L 179.236128 253.576072 
L 178.759968 259.370062 
L 178.521887 260.397853 
L 178.402848 260.530909 
L 178.283807 260.340173 
L 178.045727 258.872499 
L 177.450527 254.564146 
L 176.498207 248.097026 
L 176.379167 248.131154 
L 176.022047 248.650073 
L 175.903008 248.204202 
L 175.664927 245.84645 
L 175.069727 238.48526 
L 174.831647 237.70136 
L 174.355487 237.293876 
L 173.998367 237.16907 
L 173.760288 236.323965 
L 173.522207 235.563949 
L 173.403167 235.744107 
L 173.165087 237.276978 
L 172.688927 240.447969 
L 172.450848 242.134653 
L 172.093727 247.535064 
L 171.260447 262.793194 
L 171.022367 264.537691 
L 170.903327 264.303845 
L 170.665247 263.181385 
L 170.546207 263.134349 
L 170.070047 264.935129 
L 169.712927 264.300918 
L 169.593887 264.603554 
L 169.236767 266.548699 
L 169.117728 266.625872 
L 168.760607 265.798197 
L 168.403487 266.204351 
L 168.284447 265.978821 
L 167.927327 264.795554 
L 167.808288 264.897009 
L 167.451167 265.736858 
L 167.094047 265.53754 
L 166.975008 265.896326 
L 166.498848 268.281288 
L 166.260767 265.907769 
L 165.903647 262.381186 
L 165.784607 262.415847 
L 165.546527 262.88946 
L 165.427487 262.783547 
L 165.189408 261.728014 
L 164.951327 259.560731 
L 163.760927 244.575765 
L 163.522848 243.681496 
L 163.403807 243.78641 
L 163.165728 245.313028 
L 162.689568 251.816673 
L 161.737247 268.600423 
L 161.380128 270.222509 
L 161.142047 271.390142 
L 160.784927 273.438406 
L 160.665887 273.130181 
L 160.427807 270.666583 
L 159.951647 261.983016 
L 159.475487 253.749444 
L 158.642207 244.45169 
L 158.523167 244.483358 
L 158.285087 245.564571 
L 157.927967 248.441707 
L 156.856607 262.962042 
L 156.499487 267.967941 
L 156.380448 267.992157 
L 156.142367 265.353657 
L 155.428128 255.089052 
L 155.190047 254.188196 
L 155.071008 254.450516 
L 154.832927 256.240519 
L 154.475807 261.188006 
L 153.761568 272.678922 
L 153.642527 272.272835 
L 153.166367 268.146103 
L 152.928288 267.86775 
L 152.690207 267.900216 
L 152.571168 268.018569 
L 152.333087 268.745055 
L 151.975967 269.868114 
L 151.737887 269.944621 
L 151.618848 269.800255 
L 151.499807 269.422177 
L 151.261728 267.313838 
L 150.547487 256.981108 
L 149.595168 253.04631 
L 149.238047 252.470709 
L 148.642848 251.052732 
L 148.047647 248.182381 
L 147.690527 244.839283 
L 147.214367 238.433168 
L 146.381087 223.030938 
L 144.357407 175.300491 
L 144.000288 158.211976 
L 143.167008 108.407718 
L 142.690848 95.51865 
L 142.452767 93.459742 
L 142.333728 94.1672 
L 142.095647 99.336626 
L 141.738527 117.091552 
L 140.429087 196.816511 
L 139.952927 214.730306 
L 139.595807 220.255457 
L 139.000608 225.586146 
L 138.643487 232.385507 
L 137.810207 249.396916 
L 137.334047 255.520486 
L 137.095967 256.330132 
L 136.976927 256.303188 
L 136.857888 256.014989 
L 136.619807 254.36882 
L 136.262687 248.461666 
L 135.905568 243.356506 
L 135.786527 243.082544 
L 135.667487 243.487034 
L 134.953247 247.568461 
L 134.715168 248.243321 
L 134.477087 250.529023 
L 133.881888 258.433281 
L 133.762847 258.61151 
L 133.643807 258.479119 
L 133.167647 256.948243 
L 133.048608 257.049166 
L 132.810527 258.553564 
L 132.572448 259.88133 
L 132.453407 259.781937 
L 132.096288 258.729797 
L 131.858207 260.655516 
L 131.501087 264.618855 
L 130.786847 268.017704 
L 130.667807 267.753588 
L 129.239328 255.993833 
L 129.001247 257.406555 
L 128.167967 263.946191 
L 128.048927 263.844802 
L 127.810847 263.232079 
L 127.691807 263.24585 
L 127.453728 264.495512 
L 127.096608 266.626138 
L 126.977567 266.492084 
L 126.501407 264.427521 
L 126.382367 264.448743 
L 126.025247 264.977907 
L 125.906207 264.669949 
L 125.668127 262.453502 
L 124.953888 252.237728 
L 123.763487 243.964639 
L 123.644448 244.291691 
L 123.168287 247.732519 
L 122.454048 252.420946 
L 122.215967 253.223806 
L 121.620767 256.671487 
L 121.263647 255.908145 
L 121.144608 256.035945 
L 120.549407 257.662288 
L 119.835168 262.611506 
L 119.597087 262.835173 
L 119.120927 264.120627 
L 118.882847 263.294416 
L 118.287647 260.598036 
L 118.168608 260.45387 
L 118.049567 260.675009 
L 117.573407 263.443505 
L 117.454367 263.288961 
L 117.097247 261.542201 
L 116.978207 261.50428 
L 116.740127 262.493419 
L 116.263967 265.700867 
L 116.144927 265.704459 
L 115.906847 263.882856 
L 115.668768 262.047149 
L 115.549728 262.124388 
L 115.073567 264.49804 
L 114.835487 263.475771 
L 114.597407 262.571323 
L 114.478367 262.704645 
L 114.240287 264.349151 
L 113.526048 272.584053 
L 113.407007 272.232785 
L 112.216608 261.504347 
L 112.097567 261.500023 
L 111.740448 262.70857 
L 111.383328 264.713059 
L 111.026207 266.519095 
L 110.669087 267.027701 
L 110.550048 266.963368 
L 110.431007 266.490088 
L 110.192927 264.014448 
L 109.835807 260.315225 
L 109.716768 260.374236 
L 109.121567 263.845866 
L 108.764448 263.951047 
L 108.645407 263.925367 
L 108.288287 263.250907 
L 108.169247 263.338125 
L 107.931168 264.794622 
L 107.574048 267.483285 
L 107.335967 267.987168 
L 107.216927 267.900016 
L 106.978847 267.09995 
L 106.145567 262.828986 
L 106.026527 262.85919 
L 105.669407 263.692919 
L 105.074207 264.974115 
L 104.955168 264.79429 
L 104.717087 263.618274 
L 104.359967 259.882328 
L 104.002847 256.30046 
L 103.883807 256.008136 
L 103.645727 256.33592 
L 103.407647 256.516277 
L 102.574367 255.47385 
L 102.217247 254.227514 
L 102.098208 254.779231 
L 101.741087 260.419342 
L 101.503007 263.033892 
L 101.264927 263.556536 
L 101.026847 263.632511 
L 100.907807 263.439846 
L 100.669727 262.1184 
L 100.312608 260.127217 
L 100.074527 259.574769 
L 99.836448 257.738862 
L 99.598367 255.507979 
L 99.479328 255.390091 
L 99.241247 257.596093 
L 99.003168 259.483625 
L 98.884127 259.195892 
L 98.288927 255.412644 
L 97.574687 252.654659 
L 97.217567 251.333679 
L 96.860448 249.799743 
L 96.741407 250.018953 
L 96.503328 252.301662 
L 94.955807 274.155112 
L 94.836768 274.321033 
L 94.717727 273.905765 
L 94.479647 271.379164 
L 93.765407 260.647932 
L 93.408287 259.478237 
L 93.289247 259.400998 
L 93.170208 259.582952 
L 92.932127 260.831483 
L 92.098847 267.589264 
L 91.979807 267.189031 
L 91.384608 262.404803 
L 91.027488 263.258491 
L 90.908447 263.229085 
L 90.432287 262.498741 
L 90.194208 261.355923 
L 89.837087 259.386894 
L 89.718048 259.484756 
L 89.241888 261.450127 
L 89.003807 261.221669 
L 88.884768 261.500422 
L 88.646687 263.74521 
L 88.408608 266.247128 
L 88.289567 266.558413 
L 88.170527 266.030446 
L 87.932447 263.097892 
L 87.218208 252.488406 
L 86.980127 251.67743 
L 86.861087 251.886061 
L 86.027807 255.74708 
L 85.670687 257.825215 
L 85.551648 257.972309 
L 85.432608 257.58006 
L 85.075488 254.211148 
L 84.718367 251.540182 
L 84.599328 251.626735 
L 84.361247 253.312022 
L 83.647007 259.52281 
L 83.289888 261.642393 
L 83.051807 262.183465 
L 82.932768 262.201893 
L 82.694687 261.615981 
L 82.337567 260.312764 
L 82.099488 260.052706 
L 81.980447 260.123159 
L 81.742368 260.677936 
L 81.385247 261.88329 
L 81.266208 261.943365 
L 81.028127 261.348073 
L 80.551967 259.51822 
L 80.194847 258.620358 
L 79.837727 257.427245 
L 79.718687 257.670205 
L 79.242527 260.166801 
L 79.004447 260.282361 
L 78.766368 261.054684 
L 78.647328 261.460571 
L 78.528287 261.447998 
L 78.290208 259.98691 
L 78.052127 258.873963 
L 77.933087 259.140274 
L 77.575967 260.438968 
L 77.456928 259.911866 
L 76.861727 254.339947 
L 76.742687 254.410067 
L 76.504608 255.548893 
L 76.028447 258.511385 
L 75.909407 258.552433 
L 75.671328 257.123012 
L 75.433247 256.07819 
L 75.314208 256.525524 
L 74.957088 259.054387 
L 74.838048 259.107343 
L 74.599967 257.783902 
L 74.242847 255.418033 
L 74.123807 255.199222 
L 74.004768 255.295555 
L 73.766687 256.128485 
L 73.290527 258.06292 
L 73.171488 257.874978 
L 72.933407 256.134672 
L 72.576287 253.547399 
L 72.457247 253.764812 
L 72.219167 255.86723 
L 71.385887 264.158282 
L 71.028768 266.152193 
L 70.552608 267.740615 
L 70.433567 266.975011 
L 70.195488 262.90363 
L 69.719328 253.371765 
L 69.481247 251.938618 
L 69.362208 251.910078 
L 69.124127 252.40498 
L 68.647967 253.700479 
L 68.409887 253.81677 
L 68.290847 254.28699 
L 67.814687 257.388127 
L 67.338527 254.449252 
L 66.743328 255.904619 
L 66.624287 256.167072 
L 66.029088 259.643825 
L 65.791007 262.333618 
L 65.314847 269.783291 
L 65.195808 269.847158 
L 64.957727 267.468516 
L 64.362527 259.056316 
L 63.886368 250.299036 
L 63.648287 249.178904 
L 63.291167 248.493865 
L 63.172127 248.528659 
L 63.053088 248.911661 
L 62.815007 250.821813 
L 62.338847 254.834715 
L 61.624607 259.439517 
L 61.386527 263.122308 
L 60.910368 271.384819 
L 60.672287 273.010365 
L 60.553247 273.246539 
L 60.196127 273.053075 
L 59.958048 273.465815 
L 59.839007 273.240019 
L 59.600928 270.64882 
L 58.767648 257.070854 
L 58.291488 251.947001 
L 57.577247 244.137013 
L 57.458208 243.697462 
L 57.339167 244.065628 
L 56.386847 251.985122 
L 55.791648 260.923291 
L 55.553567 261.72522 
L 55.434528 261.475806 
L 54.958368 258.605988 
L 54.839327 259.026645 
L 54.244127 265.887744 
L 54.006048 265.102846 
L 53.648928 263.671696 
L 53.410847 261.248148 
L 52.458528 249.426388 
L 52.339488 248.806414 
L 52.220447 249.0048 
L 51.982368 251.697122 
L 51.268127 261.742517 
L 50.791967 266.247461 
L 50.434847 269.134044 
L 50.196768 271.25509 
L 50.077727 271.570033 
L 49.958687 271.157027 
L 49.363488 266.794121 
L 49.125407 266.313656 
L 48.768287 266.169157 
L 48.530208 265.253266 
L 48.292127 264.36086 
L 48.173088 264.499504 
L 47.815967 265.681108 
L 47.696928 265.710646 
L 47.458847 265.328842 
L 47.220768 263.959363 
L 46.863648 261.724754 
L 46.744607 262.20808 
L 46.268447 265.91981 
L 45.673248 268.021895 
L 45.435167 269.165578 
L 45.316127 269.218335 
L 45.197088 268.560972 
L 44.839968 263.463996 
L 44.363808 257.787494 
L 44.244768 257.172243 
L 44.125727 257.21542 
L 43.768607 258.744832 
L 43.649567 258.460292 
L 43.411488 257.194796 
L 43.292447 257.100659 
L 43.173407 257.697083 
L 42.578208 263.899488 
L 42.459167 263.836286 
L 42.102047 261.906176 
L 41.863968 260.225945 
L 40.911648 250.865455 
L 40.673567 249.356999 
L 40.554528 249.810787 
L 40.316447 252.876796 
L 39.840287 260.055833 
L 39.602208 261.422185 
L 39.364127 261.839715 
L 39.245088 261.53648 
L 39.007007 259.019327 
L 38.411808 251.055393 
L 37.935648 245.482209 
L 37.935648 245.482209 
" clip-path="url(#paf04c4a6f3)" style="fill: none; stroke: #4c72b0; stroke-linecap: round"/>
   </g>
   <g id="patch_3">
    <path d="M 38.054688 277.248797 
L 38.054688 11.136797 
" style="fill: none; stroke: #262626; stroke-width: 1.25; stroke-linejoin: miter; stroke-linecap: square"/>
   </g>
   <g id="patch_4">
    <path d="M 38.054688 277.248797 
L 395.174688 277.248797 
" style="fill: none; stroke: #262626; stroke-width: 1.25; stroke-linejoin: miter; stroke-linecap: square"/>
   </g>
   <g id="legend_1"/>
  </g>
 </g>
 <defs>
  <clipPath id="paf04c4a6f3">
   <rect x="38.054688" y="11.136797" width="357.12" height="266.112"/>
  </clipPath>
 </defs>
</svg>
