<?xml version="1.0" encoding="utf-8" standalone="no"?>
<!DOCTYPE svg PUBLIC "-//W3C//DTD SVG 1.1//EN"
  "http://www.w3.org/Graphics/SVG/1.1/DTD/svg11.dtd">
<svg xmlns:xlink="http://www.w3.org/1999/xlink" width="402.228437pt" height="319.168641pt" viewBox="0 0 402.228437 319.168641" xmlns="http://www.w3.org/2000/svg" version="1.1">
 <metadata>
  <rdf:RDF xmlns:dc="http://purl.org/dc/elements/1.1/" xmlns:cc="http://creativecommons.org/ns#" xmlns:rdf="http://www.w3.org/1999/02/22-rdf-syntax-ns#">
   <cc:Work>
    <dc:type rdf:resource="http://purl.org/dc/dcmitype/StillImage"/>
    <dc:date>2024-05-21T21:53:49.970082</dc:date>
    <dc:format>image/svg+xml</dc:format>
    <dc:creator>
     <cc:Agent>
      <dc:title>Matplotlib v3.7.1, https://matplotlib.org/</dc:title>
     </cc:Agent>
    </dc:creator>
   </cc:Work>
  </rdf:RDF>
 </metadata>
 <defs>
  <style type="text/css">*{stroke-linejoin: round; stroke-linecap: butt}</style>
 </defs>
 <g id="figure_1">
  <g id="patch_1">
   <path d="M 0 319.168641 
L 402.228437 319.168641 
L 402.228437 0 
L 0 0 
z
" style="fill: #ffffff"/>
  </g>
  <g id="axes_1">
   <g id="patch_2">
    <path d="M 37.908438 277.248797 
L 395.028438 277.248797 
L 395.028438 11.136797 
L 37.908438 11.136797 
z
" style="fill: #ffffff"/>
   </g>
   <g id="matplotlib.axis_1">
    <g id="xtick_1">
     <g id="line2d_1">
      <defs>
       <path id="meb4047ce7b" d="M 0 0 
L 0 -6 
" style="stroke: #262626; stroke-width: 1.25"/>
      </defs>
      <g>
       <use xlink:href="#meb4047ce7b" x="371.220438" y="277.248797" style="fill: #262626; stroke: #262626; stroke-width: 1.25"/>
      </g>
     </g>
     <g id="text_1">
      <!-- 600 -->
      <g style="fill: #262626" transform="translate(362.044891 288.622391) scale(0.11 -0.11)">
       <defs>
        <path id="ArialMT-36" d="M 3184 3459 
L 2625 3416 
Q 2550 3747 2413 3897 
Q 2184 4138 1850 4138 
Q 1581 4138 1378 3988 
Q 1113 3794 959 3422 
Q 806 3050 800 2363 
Q 1003 2672 1297 2822 
Q 1591 2972 1913 2972 
Q 2475 2972 2870 2558 
Q 3266 2144 3266 1488 
Q 3266 1056 3080 686 
Q 2894 316 2569 119 
Q 2244 -78 1831 -78 
Q 1128 -78 684 439 
Q 241 956 241 2144 
Q 241 3472 731 4075 
Q 1159 4600 1884 4600 
Q 2425 4600 2770 4297 
Q 3116 3994 3184 3459 
z
M 888 1484 
Q 888 1194 1011 928 
Q 1134 663 1356 523 
Q 1578 384 1822 384 
Q 2178 384 2434 671 
Q 2691 959 2691 1453 
Q 2691 1928 2437 2201 
Q 2184 2475 1800 2475 
Q 1419 2475 1153 2201 
Q 888 1928 888 1484 
z
" transform="scale(0.015625)"/>
        <path id="ArialMT-30" d="M 266 2259 
Q 266 3072 433 3567 
Q 600 4063 929 4331 
Q 1259 4600 1759 4600 
Q 2128 4600 2406 4451 
Q 2684 4303 2865 4023 
Q 3047 3744 3150 3342 
Q 3253 2941 3253 2259 
Q 3253 1453 3087 958 
Q 2922 463 2592 192 
Q 2263 -78 1759 -78 
Q 1097 -78 719 397 
Q 266 969 266 2259 
z
M 844 2259 
Q 844 1131 1108 757 
Q 1372 384 1759 384 
Q 2147 384 2411 759 
Q 2675 1134 2675 2259 
Q 2675 3391 2411 3762 
Q 2147 4134 1753 4134 
Q 1366 4134 1134 3806 
Q 844 3388 844 2259 
z
" transform="scale(0.015625)"/>
       </defs>
       <use xlink:href="#ArialMT-36"/>
       <use xlink:href="#ArialMT-30" x="55.615234"/>
       <use xlink:href="#ArialMT-30" x="111.230469"/>
      </g>
     </g>
    </g>
    <g id="xtick_2">
     <g id="line2d_2">
      <g>
       <use xlink:href="#meb4047ce7b" x="323.604438" y="277.248797" style="fill: #262626; stroke: #262626; stroke-width: 1.25"/>
      </g>
     </g>
     <g id="text_2">
      <!-- 800 -->
      <g style="fill: #262626" transform="translate(314.428891 288.622391) scale(0.11 -0.11)">
       <defs>
        <path id="ArialMT-38" d="M 1131 2484 
Q 781 2613 612 2850 
Q 444 3088 444 3419 
Q 444 3919 803 4259 
Q 1163 4600 1759 4600 
Q 2359 4600 2725 4251 
Q 3091 3903 3091 3403 
Q 3091 3084 2923 2848 
Q 2756 2613 2416 2484 
Q 2838 2347 3058 2040 
Q 3278 1734 3278 1309 
Q 3278 722 2862 322 
Q 2447 -78 1769 -78 
Q 1091 -78 675 323 
Q 259 725 259 1325 
Q 259 1772 486 2073 
Q 713 2375 1131 2484 
z
M 1019 3438 
Q 1019 3113 1228 2906 
Q 1438 2700 1772 2700 
Q 2097 2700 2305 2904 
Q 2513 3109 2513 3406 
Q 2513 3716 2298 3927 
Q 2084 4138 1766 4138 
Q 1444 4138 1231 3931 
Q 1019 3725 1019 3438 
z
M 838 1322 
Q 838 1081 952 856 
Q 1066 631 1291 507 
Q 1516 384 1775 384 
Q 2178 384 2440 643 
Q 2703 903 2703 1303 
Q 2703 1709 2433 1975 
Q 2163 2241 1756 2241 
Q 1359 2241 1098 1978 
Q 838 1716 838 1322 
z
" transform="scale(0.015625)"/>
       </defs>
       <use xlink:href="#ArialMT-38"/>
       <use xlink:href="#ArialMT-30" x="55.615234"/>
       <use xlink:href="#ArialMT-30" x="111.230469"/>
      </g>
     </g>
    </g>
    <g id="xtick_3">
     <g id="line2d_3">
      <g>
       <use xlink:href="#meb4047ce7b" x="275.988438" y="277.248797" style="fill: #262626; stroke: #262626; stroke-width: 1.25"/>
      </g>
     </g>
     <g id="text_3">
      <!-- 1000 -->
      <g style="fill: #262626" transform="translate(263.754375 288.622391) scale(0.11 -0.11)">
       <defs>
        <path id="ArialMT-31" d="M 2384 0 
L 1822 0 
L 1822 3584 
Q 1619 3391 1289 3197 
Q 959 3003 697 2906 
L 697 3450 
Q 1169 3672 1522 3987 
Q 1875 4303 2022 4600 
L 2384 4600 
L 2384 0 
z
" transform="scale(0.015625)"/>
       </defs>
       <use xlink:href="#ArialMT-31"/>
       <use xlink:href="#ArialMT-30" x="55.615234"/>
       <use xlink:href="#ArialMT-30" x="111.230469"/>
       <use xlink:href="#ArialMT-30" x="166.845703"/>
      </g>
     </g>
    </g>
    <g id="xtick_4">
     <g id="line2d_4">
      <g>
       <use xlink:href="#meb4047ce7b" x="228.372438" y="277.248797" style="fill: #262626; stroke: #262626; stroke-width: 1.25"/>
      </g>
     </g>
     <g id="text_4">
      <!-- 1200 -->
      <g style="fill: #262626" transform="translate(216.138375 288.622391) scale(0.11 -0.11)">
       <defs>
        <path id="ArialMT-32" d="M 3222 541 
L 3222 0 
L 194 0 
Q 188 203 259 391 
Q 375 700 629 1000 
Q 884 1300 1366 1694 
Q 2113 2306 2375 2664 
Q 2638 3022 2638 3341 
Q 2638 3675 2398 3904 
Q 2159 4134 1775 4134 
Q 1369 4134 1125 3890 
Q 881 3647 878 3216 
L 300 3275 
Q 359 3922 746 4261 
Q 1134 4600 1788 4600 
Q 2447 4600 2831 4234 
Q 3216 3869 3216 3328 
Q 3216 3053 3103 2787 
Q 2991 2522 2730 2228 
Q 2469 1934 1863 1422 
Q 1356 997 1212 845 
Q 1069 694 975 541 
L 3222 541 
z
" transform="scale(0.015625)"/>
       </defs>
       <use xlink:href="#ArialMT-31"/>
       <use xlink:href="#ArialMT-32" x="55.615234"/>
       <use xlink:href="#ArialMT-30" x="111.230469"/>
       <use xlink:href="#ArialMT-30" x="166.845703"/>
      </g>
     </g>
    </g>
    <g id="xtick_5">
     <g id="line2d_5">
      <g>
       <use xlink:href="#meb4047ce7b" x="180.756438" y="277.248797" style="fill: #262626; stroke: #262626; stroke-width: 1.25"/>
      </g>
     </g>
     <g id="text_5">
      <!-- 1400 -->
      <g style="fill: #262626" transform="translate(168.522375 288.622391) scale(0.11 -0.11)">
       <defs>
        <path id="ArialMT-34" d="M 2069 0 
L 2069 1097 
L 81 1097 
L 81 1613 
L 2172 4581 
L 2631 4581 
L 2631 1613 
L 3250 1613 
L 3250 1097 
L 2631 1097 
L 2631 0 
L 2069 0 
z
M 2069 1613 
L 2069 3678 
L 634 1613 
L 2069 1613 
z
" transform="scale(0.015625)"/>
       </defs>
       <use xlink:href="#ArialMT-31"/>
       <use xlink:href="#ArialMT-34" x="55.615234"/>
       <use xlink:href="#ArialMT-30" x="111.230469"/>
       <use xlink:href="#ArialMT-30" x="166.845703"/>
      </g>
     </g>
    </g>
    <g id="xtick_6">
     <g id="line2d_6">
      <g>
       <use xlink:href="#meb4047ce7b" x="133.140438" y="277.248797" style="fill: #262626; stroke: #262626; stroke-width: 1.25"/>
      </g>
     </g>
     <g id="text_6">
      <!-- 1600 -->
      <g style="fill: #262626" transform="translate(120.906375 288.622391) scale(0.11 -0.11)">
       <use xlink:href="#ArialMT-31"/>
       <use xlink:href="#ArialMT-36" x="55.615234"/>
       <use xlink:href="#ArialMT-30" x="111.230469"/>
       <use xlink:href="#ArialMT-30" x="166.845703"/>
      </g>
     </g>
    </g>
    <g id="xtick_7">
     <g id="line2d_7">
      <g>
       <use xlink:href="#meb4047ce7b" x="85.524437" y="277.248797" style="fill: #262626; stroke: #262626; stroke-width: 1.25"/>
      </g>
     </g>
     <g id="text_7">
      <!-- 1800 -->
      <g style="fill: #262626" transform="translate(73.290375 288.622391) scale(0.11 -0.11)">
       <use xlink:href="#ArialMT-31"/>
       <use xlink:href="#ArialMT-38" x="55.615234"/>
       <use xlink:href="#ArialMT-30" x="111.230469"/>
       <use xlink:href="#ArialMT-30" x="166.845703"/>
      </g>
     </g>
    </g>
    <g id="xtick_8">
     <g id="line2d_8">
      <g>
       <use xlink:href="#meb4047ce7b" x="37.908437" y="277.248797" style="fill: #262626; stroke: #262626; stroke-width: 1.25"/>
      </g>
     </g>
     <g id="text_8">
      <!-- 2000 -->
      <g style="fill: #262626" transform="translate(25.674375 288.622391) scale(0.11 -0.11)">
       <use xlink:href="#ArialMT-32"/>
       <use xlink:href="#ArialMT-30" x="55.615234"/>
       <use xlink:href="#ArialMT-30" x="111.230469"/>
       <use xlink:href="#ArialMT-30" x="166.845703"/>
      </g>
     </g>
    </g>
    <g id="xtick_9">
     <g id="line2d_9">
      <defs>
       <path id="m7e3ef4ca68" d="M 0 0 
L 0 -4 
" style="stroke: #262626"/>
      </defs>
      <g>
       <use xlink:href="#m7e3ef4ca68" x="347.412438" y="277.248797" style="fill: #262626; stroke: #262626"/>
      </g>
     </g>
    </g>
    <g id="xtick_10">
     <g id="line2d_10">
      <g>
       <use xlink:href="#m7e3ef4ca68" x="299.796438" y="277.248797" style="fill: #262626; stroke: #262626"/>
      </g>
     </g>
    </g>
    <g id="xtick_11">
     <g id="line2d_11">
      <g>
       <use xlink:href="#m7e3ef4ca68" x="252.180438" y="277.248797" style="fill: #262626; stroke: #262626"/>
      </g>
     </g>
    </g>
    <g id="xtick_12">
     <g id="line2d_12">
      <g>
       <use xlink:href="#m7e3ef4ca68" x="204.564437" y="277.248797" style="fill: #262626; stroke: #262626"/>
      </g>
     </g>
    </g>
    <g id="xtick_13">
     <g id="line2d_13">
      <g>
       <use xlink:href="#m7e3ef4ca68" x="156.948438" y="277.248797" style="fill: #262626; stroke: #262626"/>
      </g>
     </g>
    </g>
    <g id="xtick_14">
     <g id="line2d_14">
      <g>
       <use xlink:href="#m7e3ef4ca68" x="109.332438" y="277.248797" style="fill: #262626; stroke: #262626"/>
      </g>
     </g>
    </g>
    <g id="xtick_15">
     <g id="line2d_15">
      <g>
       <use xlink:href="#m7e3ef4ca68" x="61.716437" y="277.248797" style="fill: #262626; stroke: #262626"/>
      </g>
     </g>
    </g>
    <g id="text_9">
     <!-- Wavenumber ($\mathregular{cm^{-1}}$) -->
     <g style="fill: #262626" transform="translate(161.928438 309.328641) scale(0.12 -0.12)">
      <defs>
       <path id="ArialMT-57" d="M 1294 0 
L 78 4581 
L 700 4581 
L 1397 1578 
Q 1509 1106 1591 641 
Q 1766 1375 1797 1488 
L 2669 4581 
L 3400 4581 
L 4056 2263 
Q 4303 1400 4413 641 
Q 4500 1075 4641 1638 
L 5359 4581 
L 5969 4581 
L 4713 0 
L 4128 0 
L 3163 3491 
Q 3041 3928 3019 4028 
Q 2947 3713 2884 3491 
L 1913 0 
L 1294 0 
z
" transform="scale(0.015625)"/>
       <path id="ArialMT-61" d="M 2588 409 
Q 2275 144 1986 34 
Q 1697 -75 1366 -75 
Q 819 -75 525 192 
Q 231 459 231 875 
Q 231 1119 342 1320 
Q 453 1522 633 1644 
Q 813 1766 1038 1828 
Q 1203 1872 1538 1913 
Q 2219 1994 2541 2106 
Q 2544 2222 2544 2253 
Q 2544 2597 2384 2738 
Q 2169 2928 1744 2928 
Q 1347 2928 1158 2789 
Q 969 2650 878 2297 
L 328 2372 
Q 403 2725 575 2942 
Q 747 3159 1072 3276 
Q 1397 3394 1825 3394 
Q 2250 3394 2515 3294 
Q 2781 3194 2906 3042 
Q 3031 2891 3081 2659 
Q 3109 2516 3109 2141 
L 3109 1391 
Q 3109 606 3145 398 
Q 3181 191 3288 0 
L 2700 0 
Q 2613 175 2588 409 
z
M 2541 1666 
Q 2234 1541 1622 1453 
Q 1275 1403 1131 1340 
Q 988 1278 909 1158 
Q 831 1038 831 891 
Q 831 666 1001 516 
Q 1172 366 1500 366 
Q 1825 366 2078 508 
Q 2331 650 2450 897 
Q 2541 1088 2541 1459 
L 2541 1666 
z
" transform="scale(0.015625)"/>
       <path id="ArialMT-76" d="M 1344 0 
L 81 3319 
L 675 3319 
L 1388 1331 
Q 1503 1009 1600 663 
Q 1675 925 1809 1294 
L 2547 3319 
L 3125 3319 
L 1869 0 
L 1344 0 
z
" transform="scale(0.015625)"/>
       <path id="ArialMT-65" d="M 2694 1069 
L 3275 997 
Q 3138 488 2766 206 
Q 2394 -75 1816 -75 
Q 1088 -75 661 373 
Q 234 822 234 1631 
Q 234 2469 665 2931 
Q 1097 3394 1784 3394 
Q 2450 3394 2872 2941 
Q 3294 2488 3294 1666 
Q 3294 1616 3291 1516 
L 816 1516 
Q 847 969 1125 678 
Q 1403 388 1819 388 
Q 2128 388 2347 550 
Q 2566 713 2694 1069 
z
M 847 1978 
L 2700 1978 
Q 2663 2397 2488 2606 
Q 2219 2931 1791 2931 
Q 1403 2931 1139 2672 
Q 875 2413 847 1978 
z
" transform="scale(0.015625)"/>
       <path id="ArialMT-6e" d="M 422 0 
L 422 3319 
L 928 3319 
L 928 2847 
Q 1294 3394 1984 3394 
Q 2284 3394 2536 3286 
Q 2788 3178 2913 3003 
Q 3038 2828 3088 2588 
Q 3119 2431 3119 2041 
L 3119 0 
L 2556 0 
L 2556 2019 
Q 2556 2363 2490 2533 
Q 2425 2703 2258 2804 
Q 2091 2906 1866 2906 
Q 1506 2906 1245 2678 
Q 984 2450 984 1813 
L 984 0 
L 422 0 
z
" transform="scale(0.015625)"/>
       <path id="ArialMT-75" d="M 2597 0 
L 2597 488 
Q 2209 -75 1544 -75 
Q 1250 -75 995 37 
Q 741 150 617 320 
Q 494 491 444 738 
Q 409 903 409 1263 
L 409 3319 
L 972 3319 
L 972 1478 
Q 972 1038 1006 884 
Q 1059 663 1231 536 
Q 1403 409 1656 409 
Q 1909 409 2131 539 
Q 2353 669 2445 892 
Q 2538 1116 2538 1541 
L 2538 3319 
L 3100 3319 
L 3100 0 
L 2597 0 
z
" transform="scale(0.015625)"/>
       <path id="ArialMT-6d" d="M 422 0 
L 422 3319 
L 925 3319 
L 925 2853 
Q 1081 3097 1340 3245 
Q 1600 3394 1931 3394 
Q 2300 3394 2536 3241 
Q 2772 3088 2869 2813 
Q 3263 3394 3894 3394 
Q 4388 3394 4653 3120 
Q 4919 2847 4919 2278 
L 4919 0 
L 4359 0 
L 4359 2091 
Q 4359 2428 4304 2576 
Q 4250 2725 4106 2815 
Q 3963 2906 3769 2906 
Q 3419 2906 3187 2673 
Q 2956 2441 2956 1928 
L 2956 0 
L 2394 0 
L 2394 2156 
Q 2394 2531 2256 2718 
Q 2119 2906 1806 2906 
Q 1569 2906 1367 2781 
Q 1166 2656 1075 2415 
Q 984 2175 984 1722 
L 984 0 
L 422 0 
z
" transform="scale(0.015625)"/>
       <path id="ArialMT-62" d="M 941 0 
L 419 0 
L 419 4581 
L 981 4581 
L 981 2947 
Q 1338 3394 1891 3394 
Q 2197 3394 2470 3270 
Q 2744 3147 2920 2923 
Q 3097 2700 3197 2384 
Q 3297 2069 3297 1709 
Q 3297 856 2875 390 
Q 2453 -75 1863 -75 
Q 1275 -75 941 416 
L 941 0 
z
M 934 1684 
Q 934 1088 1097 822 
Q 1363 388 1816 388 
Q 2184 388 2453 708 
Q 2722 1028 2722 1663 
Q 2722 2313 2464 2622 
Q 2206 2931 1841 2931 
Q 1472 2931 1203 2611 
Q 934 2291 934 1684 
z
" transform="scale(0.015625)"/>
       <path id="ArialMT-72" d="M 416 0 
L 416 3319 
L 922 3319 
L 922 2816 
Q 1116 3169 1280 3281 
Q 1444 3394 1641 3394 
Q 1925 3394 2219 3213 
L 2025 2691 
Q 1819 2813 1613 2813 
Q 1428 2813 1281 2702 
Q 1134 2591 1072 2394 
Q 978 2094 978 1738 
L 978 0 
L 416 0 
z
" transform="scale(0.015625)"/>
       <path id="ArialMT-20" transform="scale(0.015625)"/>
       <path id="ArialMT-28" d="M 1497 -1347 
Q 1031 -759 709 28 
Q 388 816 388 1659 
Q 388 2403 628 3084 
Q 909 3875 1497 4659 
L 1900 4659 
Q 1522 4009 1400 3731 
Q 1209 3300 1100 2831 
Q 966 2247 966 1656 
Q 966 153 1900 -1347 
L 1497 -1347 
z
" transform="scale(0.015625)"/>
       <path id="ArialMT-63" d="M 2588 1216 
L 3141 1144 
Q 3050 572 2676 248 
Q 2303 -75 1759 -75 
Q 1078 -75 664 370 
Q 250 816 250 1647 
Q 250 2184 428 2587 
Q 606 2991 970 3192 
Q 1334 3394 1763 3394 
Q 2303 3394 2647 3120 
Q 2991 2847 3088 2344 
L 2541 2259 
Q 2463 2594 2264 2762 
Q 2066 2931 1784 2931 
Q 1359 2931 1093 2626 
Q 828 2322 828 1663 
Q 828 994 1084 691 
Q 1341 388 1753 388 
Q 2084 388 2306 591 
Q 2528 794 2588 1216 
z
" transform="scale(0.015625)"/>
       <path id="ArialMT-2212" d="M 3381 1997 
L 356 1997 
L 356 2522 
L 3381 2522 
L 3381 1997 
z
" transform="scale(0.015625)"/>
       <path id="ArialMT-29" d="M 791 -1347 
L 388 -1347 
Q 1322 153 1322 1656 
Q 1322 2244 1188 2822 
Q 1081 3291 891 3722 
Q 769 4003 388 4659 
L 791 4659 
Q 1378 3875 1659 3084 
Q 1900 2403 1900 1659 
Q 1900 816 1576 28 
Q 1253 -759 791 -1347 
z
" transform="scale(0.015625)"/>
      </defs>
      <use xlink:href="#ArialMT-57" transform="translate(0 0.99375)"/>
      <use xlink:href="#ArialMT-61" transform="translate(94.384766 0.99375)"/>
      <use xlink:href="#ArialMT-76" transform="translate(150 0.99375)"/>
      <use xlink:href="#ArialMT-65" transform="translate(200 0.99375)"/>
      <use xlink:href="#ArialMT-6e" transform="translate(255.615234 0.99375)"/>
      <use xlink:href="#ArialMT-75" transform="translate(311.230469 0.99375)"/>
      <use xlink:href="#ArialMT-6d" transform="translate(366.845703 0.99375)"/>
      <use xlink:href="#ArialMT-62" transform="translate(450.146484 0.99375)"/>
      <use xlink:href="#ArialMT-65" transform="translate(505.761719 0.99375)"/>
      <use xlink:href="#ArialMT-72" transform="translate(561.376953 0.99375)"/>
      <use xlink:href="#ArialMT-20" transform="translate(594.677734 0.99375)"/>
      <use xlink:href="#ArialMT-28" transform="translate(622.460938 0.99375)"/>
      <use xlink:href="#ArialMT-63" transform="translate(655.761719 0.99375)"/>
      <use xlink:href="#ArialMT-6d" transform="translate(705.761719 0.99375)"/>
      <use xlink:href="#ArialMT-2212" transform="translate(790.804844 70.6875) scale(0.7)"/>
      <use xlink:href="#ArialMT-31" transform="translate(831.68375 70.6875) scale(0.7)"/>
      <use xlink:href="#ArialMT-29" transform="translate(875.592539 0.99375)"/>
     </g>
    </g>
   </g>
   <g id="matplotlib.axis_2">
    <g id="ytick_1">
     <g id="line2d_16">
      <defs>
       <path id="mabdc35bd9e" d="M 0 0 
L 6 0 
" style="stroke: #262626; stroke-width: 1.25"/>
      </defs>
      <g>
       <use xlink:href="#mabdc35bd9e" x="37.908438" y="268.664539" style="fill: #262626; stroke: #262626; stroke-width: 1.25"/>
      </g>
     </g>
     <g id="text_10">
      <!-- 0 -->
      <g style="fill: #262626" transform="translate(28.291406 272.601336) scale(0.11 -0.11)">
       <use xlink:href="#ArialMT-30"/>
      </g>
     </g>
    </g>
    <g id="ytick_2">
     <g id="line2d_17">
      <g>
       <use xlink:href="#mabdc35bd9e" x="37.908438" y="225.743248" style="fill: #262626; stroke: #262626; stroke-width: 1.25"/>
      </g>
     </g>
     <g id="text_11">
      <!-- 5 -->
      <g style="fill: #262626" transform="translate(28.291406 229.680045) scale(0.11 -0.11)">
       <defs>
        <path id="ArialMT-35" d="M 266 1200 
L 856 1250 
Q 922 819 1161 601 
Q 1400 384 1738 384 
Q 2144 384 2425 690 
Q 2706 997 2706 1503 
Q 2706 1984 2436 2262 
Q 2166 2541 1728 2541 
Q 1456 2541 1237 2417 
Q 1019 2294 894 2097 
L 366 2166 
L 809 4519 
L 3088 4519 
L 3088 3981 
L 1259 3981 
L 1013 2750 
Q 1425 3038 1878 3038 
Q 2478 3038 2890 2622 
Q 3303 2206 3303 1553 
Q 3303 931 2941 478 
Q 2500 -78 1738 -78 
Q 1113 -78 717 272 
Q 322 622 266 1200 
z
" transform="scale(0.015625)"/>
       </defs>
       <use xlink:href="#ArialMT-35"/>
      </g>
     </g>
    </g>
    <g id="ytick_3">
     <g id="line2d_18">
      <g>
       <use xlink:href="#mabdc35bd9e" x="37.908438" y="182.821958" style="fill: #262626; stroke: #262626; stroke-width: 1.25"/>
      </g>
     </g>
     <g id="text_12">
      <!-- 10 -->
      <g style="fill: #262626" transform="translate(22.174375 186.758755) scale(0.11 -0.11)">
       <use xlink:href="#ArialMT-31"/>
       <use xlink:href="#ArialMT-30" x="55.615234"/>
      </g>
     </g>
    </g>
    <g id="ytick_4">
     <g id="line2d_19">
      <g>
       <use xlink:href="#mabdc35bd9e" x="37.908438" y="139.900668" style="fill: #262626; stroke: #262626; stroke-width: 1.25"/>
      </g>
     </g>
     <g id="text_13">
      <!-- 15 -->
      <g style="fill: #262626" transform="translate(22.174375 143.837465) scale(0.11 -0.11)">
       <use xlink:href="#ArialMT-31"/>
       <use xlink:href="#ArialMT-35" x="55.615234"/>
      </g>
     </g>
    </g>
    <g id="ytick_5">
     <g id="line2d_20">
      <g>
       <use xlink:href="#mabdc35bd9e" x="37.908438" y="96.979378" style="fill: #262626; stroke: #262626; stroke-width: 1.25"/>
      </g>
     </g>
     <g id="text_14">
      <!-- 20 -->
      <g style="fill: #262626" transform="translate(22.174375 100.916174) scale(0.11 -0.11)">
       <use xlink:href="#ArialMT-32"/>
       <use xlink:href="#ArialMT-30" x="55.615234"/>
      </g>
     </g>
    </g>
    <g id="ytick_6">
     <g id="line2d_21">
      <g>
       <use xlink:href="#mabdc35bd9e" x="37.908438" y="54.058087" style="fill: #262626; stroke: #262626; stroke-width: 1.25"/>
      </g>
     </g>
     <g id="text_15">
      <!-- 25 -->
      <g style="fill: #262626" transform="translate(22.174375 57.994884) scale(0.11 -0.11)">
       <use xlink:href="#ArialMT-32"/>
       <use xlink:href="#ArialMT-35" x="55.615234"/>
      </g>
     </g>
    </g>
    <g id="ytick_7">
     <g id="line2d_22">
      <g>
       <use xlink:href="#mabdc35bd9e" x="37.908438" y="11.136797" style="fill: #262626; stroke: #262626; stroke-width: 1.25"/>
      </g>
     </g>
     <g id="text_16">
      <!-- 30 -->
      <g style="fill: #262626" transform="translate(22.174375 15.073594) scale(0.11 -0.11)">
       <defs>
        <path id="ArialMT-33" d="M 269 1209 
L 831 1284 
Q 928 806 1161 595 
Q 1394 384 1728 384 
Q 2125 384 2398 659 
Q 2672 934 2672 1341 
Q 2672 1728 2419 1979 
Q 2166 2231 1775 2231 
Q 1616 2231 1378 2169 
L 1441 2663 
Q 1497 2656 1531 2656 
Q 1891 2656 2178 2843 
Q 2466 3031 2466 3422 
Q 2466 3731 2256 3934 
Q 2047 4138 1716 4138 
Q 1388 4138 1169 3931 
Q 950 3725 888 3313 
L 325 3413 
Q 428 3978 793 4289 
Q 1159 4600 1703 4600 
Q 2078 4600 2393 4439 
Q 2709 4278 2876 4000 
Q 3044 3722 3044 3409 
Q 3044 3113 2884 2869 
Q 2725 2625 2413 2481 
Q 2819 2388 3044 2092 
Q 3269 1797 3269 1353 
Q 3269 753 2831 336 
Q 2394 -81 1725 -81 
Q 1122 -81 723 278 
Q 325 638 269 1209 
z
" transform="scale(0.015625)"/>
       </defs>
       <use xlink:href="#ArialMT-33"/>
       <use xlink:href="#ArialMT-30" x="55.615234"/>
      </g>
     </g>
    </g>
    <g id="ytick_8">
     <g id="line2d_23">
      <defs>
       <path id="mf1acfa6901" d="M 0 0 
L 4 0 
" style="stroke: #262626"/>
      </defs>
      <g>
       <use xlink:href="#mf1acfa6901" x="37.908438" y="247.203894" style="fill: #262626; stroke: #262626"/>
      </g>
     </g>
    </g>
    <g id="ytick_9">
     <g id="line2d_24">
      <g>
       <use xlink:href="#mf1acfa6901" x="37.908438" y="204.282603" style="fill: #262626; stroke: #262626"/>
      </g>
     </g>
    </g>
    <g id="ytick_10">
     <g id="line2d_25">
      <g>
       <use xlink:href="#mf1acfa6901" x="37.908438" y="161.361313" style="fill: #262626; stroke: #262626"/>
      </g>
     </g>
    </g>
    <g id="ytick_11">
     <g id="line2d_26">
      <g>
       <use xlink:href="#mf1acfa6901" x="37.908438" y="118.440023" style="fill: #262626; stroke: #262626"/>
      </g>
     </g>
    </g>
    <g id="ytick_12">
     <g id="line2d_27">
      <g>
       <use xlink:href="#mf1acfa6901" x="37.908438" y="75.518732" style="fill: #262626; stroke: #262626"/>
      </g>
     </g>
    </g>
    <g id="ytick_13">
     <g id="line2d_28">
      <g>
       <use xlink:href="#mf1acfa6901" x="37.908438" y="32.597442" style="fill: #262626; stroke: #262626"/>
      </g>
     </g>
    </g>
    <g id="text_17">
     <!-- au-030-a2-FECL3 -->
     <g style="fill: #262626" transform="translate(15.789375 192.215297) rotate(-90) scale(0.12 -0.12)">
      <defs>
       <path id="ArialMT-2d" d="M 203 1375 
L 203 1941 
L 1931 1941 
L 1931 1375 
L 203 1375 
z
" transform="scale(0.015625)"/>
       <path id="ArialMT-46" d="M 525 0 
L 525 4581 
L 3616 4581 
L 3616 4041 
L 1131 4041 
L 1131 2622 
L 3281 2622 
L 3281 2081 
L 1131 2081 
L 1131 0 
L 525 0 
z
" transform="scale(0.015625)"/>
       <path id="ArialMT-45" d="M 506 0 
L 506 4581 
L 3819 4581 
L 3819 4041 
L 1113 4041 
L 1113 2638 
L 3647 2638 
L 3647 2100 
L 1113 2100 
L 1113 541 
L 3925 541 
L 3925 0 
L 506 0 
z
" transform="scale(0.015625)"/>
       <path id="ArialMT-43" d="M 3763 1606 
L 4369 1453 
Q 4178 706 3683 314 
Q 3188 -78 2472 -78 
Q 1731 -78 1267 223 
Q 803 525 561 1097 
Q 319 1669 319 2325 
Q 319 3041 592 3573 
Q 866 4106 1370 4382 
Q 1875 4659 2481 4659 
Q 3169 4659 3637 4309 
Q 4106 3959 4291 3325 
L 3694 3184 
Q 3534 3684 3231 3912 
Q 2928 4141 2469 4141 
Q 1941 4141 1586 3887 
Q 1231 3634 1087 3207 
Q 944 2781 944 2328 
Q 944 1744 1114 1308 
Q 1284 872 1643 656 
Q 2003 441 2422 441 
Q 2931 441 3284 734 
Q 3638 1028 3763 1606 
z
" transform="scale(0.015625)"/>
       <path id="ArialMT-4c" d="M 469 0 
L 469 4581 
L 1075 4581 
L 1075 541 
L 3331 541 
L 3331 0 
L 469 0 
z
" transform="scale(0.015625)"/>
      </defs>
      <use xlink:href="#ArialMT-61"/>
      <use xlink:href="#ArialMT-75" x="55.615234"/>
      <use xlink:href="#ArialMT-2d" x="111.230469"/>
      <use xlink:href="#ArialMT-30" x="144.53125"/>
      <use xlink:href="#ArialMT-33" x="200.146484"/>
      <use xlink:href="#ArialMT-30" x="255.761719"/>
      <use xlink:href="#ArialMT-2d" x="311.376953"/>
      <use xlink:href="#ArialMT-61" x="344.677734"/>
      <use xlink:href="#ArialMT-32" x="400.292969"/>
      <use xlink:href="#ArialMT-2d" x="455.908203"/>
      <use xlink:href="#ArialMT-46" x="489.208984"/>
      <use xlink:href="#ArialMT-45" x="550.292969"/>
      <use xlink:href="#ArialMT-43" x="616.992188"/>
      <use xlink:href="#ArialMT-4c" x="689.208984"/>
      <use xlink:href="#ArialMT-33" x="744.824219"/>
     </g>
    </g>
   </g>
   <g id="PolyCollection_1"/>
   <g id="line2d_29">
    <path d="M 395.147478 239.978438 
L 394.909398 243.54597 
L 394.671318 244.715231 
L 394.195158 245.956429 
L 394.076118 245.753841 
L 393.838038 244.221293 
L 393.480918 239.60013 
L 393.123798 234.307505 
L 393.004758 233.784638 
L 392.885718 234.391631 
L 392.528598 240.777031 
L 392.171478 245.70637 
L 391.814358 250.119279 
L 391.457238 255.002864 
L 391.338198 255.105102 
L 391.100118 253.036468 
L 390.862038 250.80396 
L 390.742998 250.366935 
L 390.623958 250.356892 
L 390.385878 251.135999 
L 389.909718 254.105122 
L 389.790678 253.937128 
L 389.552598 250.932895 
L 389.195478 245.774529 
L 389.076438 245.876853 
L 388.719318 247.516017 
L 388.481238 244.86022 
L 388.124118 239.945646 
L 388.005078 239.58236 
L 387.886038 239.698505 
L 387.528918 240.490403 
L 387.409878 240.418639 
L 387.290838 239.938864 
L 387.052758 236.859863 
L 386.457558 225.016162 
L 386.338518 225.152909 
L 385.981398 226.82993 
L 385.743318 225.614656 
L 385.505238 224.492522 
L 385.386198 224.698888 
L 384.671958 228.32814 
L 384.552918 228.30565 
L 384.314838 227.826219 
L 383.838678 225.783337 
L 383.600598 224.053781 
L 383.005398 216.572943 
L 382.886358 216.956488 
L 382.648278 221.476271 
L 382.053078 237.061936 
L 381.814998 239.774819 
L 381.695958 240.169266 
L 381.576918 239.808641 
L 381.338838 236.618645 
L 380.862678 223.438719 
L 380.505558 215.346768 
L 380.386518 214.722005 
L 380.267478 215.445573 
L 379.672278 225.115997 
L 379.553238 224.614333 
L 378.838998 216.18193 
L 378.600918 216.660245 
L 378.481878 216.54865 
L 378.243798 215.016961 
L 378.005718 213.208343 
L 377.886678 212.953133 
L 377.767638 213.310238 
L 377.529558 215.586011 
L 376.696278 227.539075 
L 376.577238 227.538646 
L 376.220118 226.646141 
L 375.862998 228.115251 
L 375.743958 227.962108 
L 375.505878 225.45662 
L 375.267798 222.484235 
L 375.148758 222.314953 
L 375.029718 223.502242 
L 374.672598 232.383258 
L 374.315478 239.567853 
L 374.196438 240.176562 
L 374.077398 239.663481 
L 373.839318 235.499859 
L 373.363158 226.379514 
L 373.006038 224.658542 
L 372.648918 220.783693 
L 372.529878 221.236427 
L 372.291798 227.101192 
L 371.934678 236.298796 
L 371.815638 236.148571 
L 371.101398 227.53298 
L 370.744278 226.940924 
L 370.506198 226.601417 
L 370.268118 225.342621 
L 370.030038 224.325043 
L 369.910998 225.070414 
L 369.315798 233.867648 
L 369.077718 230.342436 
L 368.839638 227.364128 
L 368.720598 227.641829 
L 368.363478 231.261038 
L 368.244438 231.173822 
L 368.006358 227.715653 
L 367.649238 220.88018 
L 367.530198 219.988877 
L 367.411158 220.079527 
L 367.173078 222.474535 
L 366.815958 226.276073 
L 366.696918 226.583132 
L 366.458838 226.497376 
L 366.339798 226.8865 
L 366.101718 229.983786 
L 365.506518 241.701213 
L 364.197078 251.756383 
L 363.720918 257.842451 
L 363.601878 256.945052 
L 363.363798 250.906284 
L 362.649558 227.778834 
L 361.816278 213.365263 
L 361.697238 212.729513 
L 361.578198 213.465356 
L 361.340118 218.801417 
L 360.982998 227.595646 
L 360.744918 228.764993 
L 360.387798 227.736342 
L 360.149718 228.928523 
L 359.911638 230.313851 
L 359.792598 230.298743 
L 359.554518 228.681039 
L 359.316438 226.924872 
L 359.197398 226.771385 
L 359.078358 227.264722 
L 358.840278 230.033747 
L 358.245078 238.642985 
L 358.126038 238.035133 
L 356.697558 219.667225 
L 356.578518 220.152407 
L 356.221398 224.134473 
L 355.864278 230.693618 
L 355.388118 240.79171 
L 355.150038 241.866803 
L 355.030998 241.549185 
L 354.792918 239.468962 
L 354.078678 229.783086 
L 353.840598 231.962801 
L 353.364438 240.868969 
L 353.007318 246.596729 
L 352.888278 247.145521 
L 352.769238 246.877949 
L 352.531158 244.331601 
L 352.174038 236.285147 
L 351.816918 227.489287 
L 351.578838 225.942489 
L 351.459798 226.80143 
L 351.221718 231.4171 
L 350.864598 244.863224 
L 350.507478 256.776543 
L 350.388438 258.005637 
L 350.269398 257.987095 
L 349.793238 254.499826 
L 349.555158 250.717087 
L 348.959958 237.247184 
L 348.840918 237.090178 
L 348.602838 238.692602 
L 348.245718 242.898373 
L 347.769558 250.023651 
L 347.650518 250.362042 
L 347.531478 249.876087 
L 347.055318 244.57196 
L 346.341078 235.726226 
L 346.222038 235.699357 
L 346.102998 235.916539 
L 345.983958 235.824773 
L 345.864918 234.920335 
L 345.626838 230.132981 
L 345.269718 221.860331 
L 345.150678 220.878034 
L 345.031638 220.945249 
L 344.436438 224.137992 
L 344.317398 224.256197 
L 344.198358 224.689531 
L 343.960278 227.076641 
L 343.603158 231.910523 
L 343.484118 232.448756 
L 343.365078 232.136203 
L 343.126998 229.521524 
L 342.531798 222.222329 
L 342.293718 221.576621 
L 342.174678 221.684611 
L 341.936598 222.32328 
L 341.698518 223.576496 
L 341.103318 228.798901 
L 340.984278 228.586355 
L 340.389078 224.688415 
L 340.270038 224.455524 
L 340.150998 223.839432 
L 339.912918 220.512431 
L 339.674838 216.748491 
L 339.555798 216.526588 
L 339.436758 218.130643 
L 339.079638 230.998617 
L 338.841558 238.21815 
L 338.722518 239.645712 
L 338.603478 239.710952 
L 338.127318 236.156554 
L 338.008278 236.295448 
L 337.770198 238.344939 
L 336.936918 248.697469 
L 336.460757 258.965186 
L 336.341718 258.233807 
L 336.103638 251.376787 
L 335.508438 231.463283 
L 335.270358 228.370117 
L 335.151318 228.10495 
L 335.032278 228.924575 
L 334.794198 233.68549 
L 334.318038 244.776866 
L 333.603798 255.136091 
L 333.484758 254.608675 
L 333.246678 249.872482 
L 332.294358 226.409644 
L 332.175318 225.854844 
L 331.937238 228.14727 
L 331.580118 231.33306 
L 331.342038 234.415066 
L 330.984918 242.911507 
L 330.865878 243.410167 
L 330.746838 241.927923 
L 329.913558 219.22711 
L 329.437398 199.16278 
L 329.199318 197.249349 
L 328.842198 196.30242 
L 328.723158 196.98049 
L 328.485078 202.945777 
L 328.008918 219.09517 
L 327.770838 221.603919 
L 327.532758 222.327143 
L 327.413718 221.970553 
L 327.175638 218.791287 
L 326.342358 202.44686 
L 326.104278 199.584611 
L 325.985238 199.34262 
L 325.866197 199.9982 
L 325.509078 204.982907 
L 325.032918 214.109862 
L 324.199638 231.078794 
L 324.080598 230.377718 
L 323.842518 224.542482 
L 323.366358 211.04863 
L 322.533078 196.160093 
L 322.294998 195.118908 
L 321.818838 189.670136 
L 321.699798 190.258415 
L 321.461718 195.724956 
L 320.271318 233.329157 
L 320.033238 237.472092 
L 319.914198 237.51673 
L 319.795158 235.660814 
L 319.557078 226.198558 
L 319.080918 204.412483 
L 318.961878 202.888692 
L 318.842838 203.119866 
L 317.652438 218.724845 
L 317.057238 230.430768 
L 316.462038 240.638481 
L 315.390678 258.807836 
L 315.271637 259.75262 
L 315.152598 259.484104 
L 314.914518 254.853412 
L 313.962198 226.399601 
L 313.605078 221.788824 
L 313.009878 208.219172 
L 312.890838 208.632762 
L 312.652758 214.427565 
L 312.295637 223.942958 
L 312.057558 225.753035 
L 311.938518 225.733462 
L 311.700438 225.334809 
L 311.581398 225.626073 
L 311.462358 226.76632 
L 311.224278 232.468671 
L 310.867158 242.561184 
L 310.748118 243.502104 
L 310.629078 243.041902 
L 310.390998 241.220408 
L 310.271958 241.613567 
L 310.033878 246.425902 
L 309.557718 259.650124 
L 309.438678 260.646928 
L 309.319637 260.044399 
L 309.081558 253.88133 
L 307.534038 194.164424 
L 307.295958 191.297711 
L 307.176918 192.93842 
L 306.819798 206.575888 
L 305.867478 243.903676 
L 305.629398 247.134962 
L 305.510358 247.148353 
L 305.391318 246.289498 
L 305.153238 241.530643 
L 304.438998 217.875776 
L 304.319958 217.857835 
L 304.081878 220.358773 
L 303.724758 227.717199 
L 303.367638 235.756957 
L 303.248598 236.032254 
L 303.010518 233.026648 
L 302.772438 230.668724 
L 302.653398 230.808304 
L 302.534358 231.234341 
L 302.415318 231.103088 
L 302.177238 227.73926 
L 301.939158 223.909737 
L 301.820118 223.955148 
L 301.582038 228.341274 
L 301.224918 235.68442 
L 300.986838 236.604223 
L 300.748758 235.791723 
L 300.510678 233.940271 
L 299.796438 226.512913 
L 299.558358 225.388719 
L 299.082198 220.972976 
L 298.725077 217.187748 
L 298.248918 209.667766 
L 298.129878 210.165052 
L 297.891798 216.182102 
L 297.415638 231.40388 
L 297.177558 234.351113 
L 296.939478 235.231086 
L 296.820438 235.038884 
L 296.582358 233.267608 
L 295.749077 223.394681 
L 295.630038 224.44651 
L 295.391958 230.917238 
L 294.796758 251.400308 
L 294.320598 260.034097 
L 294.201558 260.344676 
L 294.082517 259.402639 
L 292.773077 240.455379 
L 292.296918 237.697858 
L 292.177878 237.718889 
L 292.058838 238.812696 
L 291.463638 249.407559 
L 291.225558 246.748499 
L 290.987478 244.503544 
L 290.868438 244.911983 
L 290.392278 248.644761 
L 290.273238 247.835094 
L 290.035158 243.68658 
L 289.439957 231.197257 
L 289.320918 231.11459 
L 289.082838 232.213547 
L 288.963798 232.109849 
L 288.725718 229.224766 
L 288.368598 224.413804 
L 288.249558 224.404705 
L 287.892438 226.369642 
L 287.773398 225.852955 
L 287.535318 221.83269 
L 287.178198 215.547897 
L 287.059158 215.571675 
L 286.821078 219.450386 
L 286.225878 234.333344 
L 285.987798 235.402771 
L 285.630678 234.818269 
L 285.392598 234.926602 
L 285.273558 234.564089 
L 284.916438 232.894365 
L 284.797398 233.880181 
L 284.559318 239.994834 
L 283.845078 262.675474 
L 283.606998 266.743725 
L 283.487957 267.356641 
L 283.368918 266.776946 
L 283.130838 262.798572 
L 282.654678 254.593996 
L 281.821398 246.358602 
L 281.464278 238.248796 
L 280.750038 220.105709 
L 280.392918 215.833839 
L 280.035798 213.771556 
L 279.916758 213.923498 
L 279.797718 214.941333 
L 279.559638 219.698815 
L 279.083478 230.294622 
L 278.845397 232.144616 
L 278.012118 235.949416 
L 277.893078 235.531363 
L 277.654998 231.324304 
L 277.059798 215.575624 
L 276.940758 215.194225 
L 276.702678 215.750829 
L 276.583638 215.603523 
L 276.226517 213.962384 
L 276.107478 214.918928 
L 275.869397 220.883872 
L 275.512278 231.172706 
L 275.393238 232.333298 
L 275.274198 232.073195 
L 275.036118 228.747825 
L 274.678998 223.731699 
L 274.440918 222.902803 
L 274.202838 222.758845 
L 273.964758 222.26465 
L 273.845718 222.310575 
L 273.726678 223.076978 
L 273.488598 228.157056 
L 272.655318 255.949364 
L 272.536278 255.307433 
L 272.298198 250.914268 
L 271.107798 221.482452 
L 270.988758 222.132366 
L 270.750678 226.768466 
L 270.036438 246.013 
L 269.798358 247.860246 
L 269.679318 248.154085 
L 269.560278 248.12756 
L 269.441238 247.762901 
L 268.965078 244.608787 
L 268.846038 244.719438 
L 268.607957 246.529686 
L 268.250837 248.844088 
L 268.131798 248.870184 
L 268.012758 248.569392 
L 267.774678 246.765152 
L 267.536598 242.47019 
L 267.060438 233.522475 
L 266.822358 231.503028 
L 266.584278 226.532142 
L 266.227158 218.681666 
L 266.108118 218.893869 
L 265.870038 223.083159 
L 265.274837 239.655584 
L 264.917718 249.004699 
L 264.679638 250.261263 
L 264.560598 250.638713 
L 264.084438 254.556997 
L 263.965397 253.933952 
L 263.251158 245.134401 
L 263.132118 244.758754 
L 263.013078 244.816526 
L 262.774998 246.574496 
L 262.536918 248.963924 
L 262.417878 249.082816 
L 262.298837 247.942998 
L 261.941718 238.89974 
L 261.465558 227.028569 
L 261.227478 223.957208 
L 261.108438 223.596755 
L 260.751318 224.145461 
L 260.513238 221.879474 
L 260.156118 218.307478 
L 260.037078 218.423795 
L 259.918038 218.743559 
L 259.798998 218.642436 
L 259.560918 216.023207 
L 258.846678 204.59095 
L 258.727638 203.880603 
L 258.608598 204.261658 
L 258.370518 209.452044 
L 258.013398 220.477579 
L 257.894358 221.657914 
L 257.775318 221.277546 
L 257.418198 218.08197 
L 257.299158 218.019391 
L 257.180118 218.114848 
L 257.061078 217.830022 
L 256.822998 215.133535 
L 256.108758 201.356401 
L 255.751638 195.098048 
L 255.632598 195.377809 
L 255.394518 199.5683 
L 254.799318 211.277143 
L 254.323158 219.063494 
L 254.204118 219.521893 
L 254.085078 218.826139 
L 253.846998 214.480874 
L 253.370838 198.589438 
L 253.013718 187.750782 
L 252.894678 186.932959 
L 252.775638 187.620043 
L 252.418518 191.765639 
L 252.180438 192.198372 
L 252.061398 192.458045 
L 251.823318 194.636816 
L 251.466198 198.004935 
L 251.347158 198.160139 
L 250.990038 197.888361 
L 250.870998 197.664999 
L 250.632918 196.230312 
L 250.037718 189.557596 
L 249.561558 182.44159 
L 249.442518 182.174448 
L 249.323478 182.717316 
L 248.847318 187.974058 
L 248.609238 193.035852 
L 247.894998 211.645665 
L 247.537878 214.561737 
L 247.299798 216.309063 
L 247.061718 220.35139 
L 246.823638 225.038481 
L 246.704598 225.578431 
L 246.585558 224.016096 
L 245.871318 203.662047 
L 245.633238 206.140666 
L 245.395158 208.748821 
L 245.276117 208.968149 
L 244.918998 208.006197 
L 244.561878 208.828655 
L 244.442838 208.131355 
L 244.204758 204.234016 
L 243.490518 190.608653 
L 243.371478 189.871523 
L 243.252438 190.110852 
L 242.776278 194.886961 
L 242.657238 194.826614 
L 242.419158 194.269066 
L 242.300117 195.113671 
L 241.704918 203.559637 
L 241.585878 203.796048 
L 241.466837 204.582967 
L 241.228758 209.385172 
L 240.633558 230.562537 
L 240.276438 241.958826 
L 240.157398 242.518777 
L 239.919318 239.327494 
L 239.562198 233.773049 
L 238.966998 228.71117 
L 238.609878 227.802955 
L 238.252758 226.889333 
L 238.133718 227.120249 
L 237.895638 228.3684 
L 237.776598 228.405313 
L 237.657558 227.287385 
L 237.419478 221.342786 
L 237.062358 211.650558 
L 236.824278 210.014742 
L 236.705238 210.591775 
L 236.467158 214.059387 
L 236.110038 224.410542 
L 235.514837 242.019259 
L 235.276758 243.156073 
L 235.038678 241.84002 
L 234.800598 239.045329 
L 234.443478 230.952176 
L 233.134038 197.176469 
L 232.895958 195.785819 
L 232.776918 196.138203 
L 232.419798 199.779216 
L 232.062678 202.619918 
L 231.943638 202.618631 
L 231.705557 201.203258 
L 231.348438 197.446959 
L 231.110358 192.736519 
L 230.634198 176.081084 
L 229.562838 137.721296 
L 229.443798 136.772478 
L 229.324758 137.457159 
L 229.086678 143.146376 
L 228.610518 162.086511 
L 228.015318 196.186618 
L 227.658198 212.613626 
L 227.420118 216.274812 
L 227.301078 216.158667 
L 227.062997 213.563216 
L 226.467798 201.535984 
L 226.110678 195.729249 
L 225.991638 194.932029 
L 225.872598 195.509577 
L 225.634518 202.788342 
L 224.682198 251.270428 
L 224.563158 251.737927 
L 224.444118 250.394662 
L 224.206038 242.901549 
L 223.015638 195.656282 
L 222.896598 195.763757 
L 222.658518 200.85757 
L 222.063318 217.573267 
L 221.706198 222.012873 
L 221.349078 225.340046 
L 220.872918 231.176826 
L 220.753878 230.524509 
L 220.158678 223.560272 
L 220.039638 223.520956 
L 219.563478 223.98751 
L 219.444438 223.697706 
L 219.325398 222.827519 
L 219.087318 218.671537 
L 218.730198 211.562569 
L 218.611158 211.322038 
L 218.373078 215.120916 
L 216.706518 255.059177 
L 216.587478 255.76197 
L 216.468437 255.553029 
L 215.992278 251.615859 
L 215.873238 252.193923 
L 215.516118 256.006449 
L 215.397078 255.93211 
L 215.158997 252.628801 
L 213.611478 224.989379 
L 213.492437 224.94062 
L 213.373398 225.474132 
L 213.135318 228.785252 
L 212.659157 237.453636 
L 212.540118 237.497587 
L 211.944918 232.93059 
L 211.706838 229.935457 
L 211.111638 218.386282 
L 210.992598 218.250822 
L 210.754518 220.338342 
L 210.397398 227.467397 
L 209.326038 254.608417 
L 209.087958 257.843309 
L 208.968918 258.364717 
L 208.849878 257.689307 
L 208.611798 252.879032 
L 207.659478 228.723102 
L 207.421398 225.789432 
L 207.302358 225.95837 
L 207.064278 229.46049 
L 206.588118 243.657737 
L 206.111958 256.954323 
L 205.992918 257.870349 
L 205.873877 257.814809 
L 205.635798 255.698017 
L 205.159638 249.628775 
L 204.683478 247.993044 
L 204.207318 243.274793 
L 203.850198 241.742417 
L 203.612118 239.495573 
L 203.374038 235.535569 
L 202.659798 216.407353 
L 202.540758 216.940779 
L 202.302678 222.818592 
L 201.945558 232.375961 
L 201.707478 233.766611 
L 201.469398 233.595956 
L 201.231318 233.968685 
L 201.112278 234.152989 
L 200.993238 234.025427 
L 200.874198 233.333449 
L 200.636118 229.50839 
L 200.159958 219.679844 
L 199.802838 216.570969 
L 199.326678 208.992357 
L 199.207638 208.673022 
L 199.088597 208.86282 
L 198.969558 209.419853 
L 198.731478 212.769344 
L 198.374358 226.271953 
L 198.017238 238.110932 
L 197.541078 246.185543 
L 197.422038 246.31568 
L 197.302998 244.820474 
L 197.064918 237.010774 
L 196.588758 220.348729 
L 196.350678 218.636599 
L 195.874518 217.296768 
L 195.636437 217.531376 
L 195.517398 217.270843 
L 195.279317 215.123491 
L 194.684118 209.069787 
L 194.565078 208.461163 
L 194.446037 208.551984 
L 194.207958 211.348049 
L 193.255638 228.588844 
L 193.017558 227.9282 
L 192.779478 226.857571 
L 192.541398 224.266756 
L 192.065238 214.289874 
L 191.708118 208.064913 
L 191.231958 204.080959 
L 190.874838 199.184498 
L 190.755798 200.243967 
L 190.517718 207.504361 
L 190.041558 222.181726 
L 189.684438 229.900004 
L 189.208278 241.683701 
L 188.970198 242.938633 
L 188.851157 242.254983 
L 188.613078 237.764128 
L 187.898838 216.955114 
L 187.541718 209.228338 
L 187.184597 200.558495 
L 187.065558 200.367152 
L 186.827478 204.681943 
L 186.470358 210.720282 
L 186.351317 210.716076 
L 185.756118 208.235912 
L 185.518037 207.955893 
L 185.398998 208.340554 
L 184.803798 211.521622 
L 184.684757 212.101317 
L 184.446678 215.196715 
L 183.851477 229.453451 
L 183.256278 243.758258 
L 182.780118 249.113634 
L 182.542037 250.598539 
L 182.422998 250.285556 
L 182.184918 247.256 
L 181.827798 243.298056 
L 181.589718 241.407631 
L 181.113558 234.806336 
L 180.875477 236.581218 
L 180.756438 237.362128 
L 180.637398 237.19834 
L 179.923158 230.81251 
L 179.566037 225.344767 
L 179.446998 225.17746 
L 179.208918 227.826476 
L 178.970838 229.62608 
L 178.851798 228.708165 
L 178.494678 223.636929 
L 178.375638 223.492284 
L 177.899477 227.556845 
L 177.661398 229.738791 
L 177.304278 234.429144 
L 177.185238 234.764445 
L 177.066197 234.169642 
L 176.709078 229.726945 
L 176.113878 222.267139 
L 175.280597 216.131798 
L 174.804438 216.285971 
L 174.685398 216.652948 
L 174.447317 218.53994 
L 173.971158 225.207076 
L 173.375958 234.319781 
L 173.256917 234.506832 
L 173.137878 233.569774 
L 172.661718 224.781897 
L 172.185558 213.907188 
L 171.828438 206.721305 
L 171.709398 205.968294 
L 171.590358 206.189425 
L 171.352278 209.553681 
L 170.638037 224.2004 
L 170.518998 224.439643 
L 170.161878 223.883383 
L 169.447637 225.373181 
L 169.090518 228.013956 
L 168.614358 231.506805 
L 168.257238 238.545639 
L 167.900118 245.789723 
L 167.304917 252.433853 
L 167.185878 253.873347 
L 167.066838 253.960907 
L 166.828757 249.675988 
L 166.352598 240.472977 
L 165.638357 227.878583 
L 165.400278 229.763772 
L 165.162197 233.027678 
L 164.924118 239.0831 
L 164.447958 253.313568 
L 164.328917 252.797396 
L 163.852757 246.778372 
L 163.733718 246.539644 
L 163.614678 245.883635 
L 163.019477 240.593242 
L 162.900438 240.375031 
L 162.662357 238.928326 
L 162.424278 237.452692 
L 162.305238 237.50248 
L 162.067158 237.939161 
L 161.948118 237.010516 
L 161.710037 231.519424 
L 161.471958 225.656891 
L 161.352917 224.777004 
L 161.233878 225.525809 
L 160.400598 239.125077 
L 160.281558 239.355736 
L 160.162518 239.176668 
L 159.805398 237.602573 
L 159.448278 234.246643 
L 159.091158 227.720031 
L 158.614998 217.939299 
L 158.495958 217.329817 
L 158.376917 217.543222 
L 158.019798 220.50419 
L 157.781718 223.36601 
L 157.543637 228.993592 
L 156.948438 246.720342 
L 156.829398 246.421439 
L 156.591318 242.814677 
L 156.234197 234.088263 
L 155.400917 209.738414 
L 155.281878 208.169298 
L 155.162838 208.09058 
L 154.924757 212.820592 
L 154.210518 235.445692 
L 153.972438 236.73067 
L 153.734357 237.820613 
L 153.496278 239.083615 
L 153.377238 238.884889 
L 153.139158 236.345494 
L 152.782038 228.303332 
L 152.424917 221.044741 
L 152.305878 220.898379 
L 151.591637 225.455676 
L 150.996438 232.32188 
L 150.877398 232.725856 
L 150.758357 232.480346 
L 150.520278 229.911077 
L 150.163158 225.606244 
L 150.044118 225.624271 
L 149.806038 227.851886 
L 149.567958 230.393684 
L 149.448917 230.767529 
L 149.329878 230.380722 
L 148.972758 228.3011 
L 148.734678 228.198175 
L 148.615637 227.568863 
L 148.377558 224.056528 
L 147.901398 216.825578 
L 147.544278 213.998782 
L 147.306197 212.482201 
L 147.068118 208.411374 
L 146.234838 182.692336 
L 145.877718 162.200682 
L 144.568278 60.897766 
L 144.449237 61.072456 
L 144.211158 70.053564 
L 143.854038 101.822444 
L 143.020758 187.766319 
L 142.663637 198.477756 
L 142.306517 202.986724 
L 141.949398 206.247454 
L 141.473237 211.905081 
L 141.235158 213.363117 
L 140.997077 217.279685 
L 140.639957 224.375089 
L 140.520917 224.35423 
L 140.282838 220.242113 
L 140.044758 216.640072 
L 139.925718 217.048425 
L 139.687637 221.610787 
L 139.211478 231.416413 
L 138.973398 234.094358 
L 138.854357 234.392661 
L 138.616278 233.435602 
L 138.497237 233.003127 
L 138.378197 233.033258 
L 138.140118 233.900869 
L 138.021077 233.881554 
L 137.902038 233.089742 
L 137.306838 225.711229 
L 137.187797 226.801001 
L 136.830677 235.4511 
L 136.116438 255.699648 
L 135.878357 257.159058 
L 135.759318 256.715252 
L 135.521237 253.926398 
L 134.926038 243.427249 
L 134.806998 243.340634 
L 134.211797 245.516915 
L 133.973718 245.611857 
L 133.735637 246.188633 
L 133.497558 246.937438 
L 133.378517 246.887135 
L 133.259478 246.215245 
L 133.021398 242.742655 
L 132.664278 237.001675 
L 132.545237 236.966823 
L 132.307158 240.37855 
L 131.950038 246.909625 
L 131.711957 248.555313 
L 131.235797 250.122885 
L 131.116758 250.070177 
L 130.878677 249.152177 
L 130.402517 246.544537 
L 129.807318 240.884592 
L 129.569237 236.864584 
L 128.974038 223.341888 
L 128.378838 216.49414 
L 128.259797 217.083363 
L 128.021718 221.732941 
L 127.426517 234.013666 
L 127.188438 236.434513 
L 127.069397 236.54834 
L 126.831318 234.406911 
L 126.355158 229.240046 
L 126.117077 226.816882 
L 125.521878 218.358555 
L 124.807637 214.509717 
L 124.688598 214.715052 
L 124.331478 216.771755 
L 124.212438 216.387695 
L 123.855318 212.007835 
L 123.736278 212.251027 
L 123.498198 218.155279 
L 123.141077 228.830491 
L 123.022038 229.800512 
L 122.902998 229.65561 
L 122.664918 228.724561 
L 122.545878 228.976853 
L 122.188758 230.653272 
L 122.069718 230.102077 
L 121.355478 224.249244 
L 121.117397 222.755326 
L 120.998357 223.277764 
L 120.522198 228.849291 
L 120.284117 227.096471 
L 120.046038 226.22019 
L 119.807957 226.996636 
L 119.688918 226.685542 
L 119.450837 223.377942 
L 119.212758 220.352592 
L 119.093718 220.876489 
L 118.855638 226.546649 
L 118.498517 235.573512 
L 118.260438 237.059962 
L 118.141397 237.05112 
L 118.022357 236.762861 
L 117.784278 235.193658 
L 117.427158 230.430683 
L 117.189077 224.300321 
L 116.712918 208.966518 
L 116.593878 208.568466 
L 116.355797 212.044232 
L 116.117718 215.097137 
L 115.998677 214.905451 
L 115.641557 211.602143 
L 115.522517 212.057623 
L 115.284438 216.916829 
L 114.927318 224.531752 
L 114.808278 224.332512 
L 114.570198 219.102638 
L 114.213077 209.425518 
L 114.094038 208.583488 
L 113.974998 209.195546 
L 113.260758 217.576958 
L 113.022677 217.039669 
L 112.903638 217.151007 
L 112.665557 219.769635 
L 112.427478 223.215785 
L 112.308438 223.537695 
L 112.070358 220.971088 
L 111.832277 218.479593 
L 111.713237 218.720295 
L 111.475158 221.786077 
L 111.118038 229.255498 
L 110.403797 250.27474 
L 110.284758 250.077302 
L 110.046677 245.710748 
L 109.451478 232.302995 
L 108.856277 225.705993 
L 108.142038 208.367423 
L 107.903957 207.323663 
L 107.665878 203.954341 
L 107.427797 200.042066 
L 107.308758 200.193492 
L 107.070677 206.704738 
L 106.594517 223.681567 
L 106.118358 230.45386 
L 105.523158 234.581171 
L 105.285077 237.014379 
L 105.166038 236.865271 
L 104.927957 232.993341 
L 104.689878 229.005782 
L 104.570837 228.791604 
L 104.213717 231.023082 
L 104.094677 230.349218 
L 103.737557 226.72752 
L 103.380438 225.200895 
L 103.023318 222.590251 
L 102.666198 221.973987 
L 102.428117 219.490904 
L 101.832918 209.452644 
L 101.713878 209.14756 
L 101.475797 209.961176 
L 100.999638 212.047322 
L 100.761557 216.491994 
L 99.452117 252.655928 
L 99.214038 254.473043 
L 99.094997 254.486692 
L 98.975957 253.923651 
L 98.737878 250.291222 
L 98.142677 237.170613 
L 98.023638 237.706013 
L 97.785557 239.686058 
L 97.666517 239.863666 
L 97.309397 238.834843 
L 97.071318 241.215944 
L 96.714198 245.170025 
L 96.238038 247.687531 
L 96.118997 247.719464 
L 95.999957 246.908767 
L 95.761878 242.606766 
L 95.285717 231.826998 
L 95.166677 230.898095 
L 95.047638 230.921616 
L 94.452437 234.766849 
L 94.333397 234.248789 
L 93.976277 230.71362 
L 93.857237 230.756369 
L 93.619157 233.994094 
L 93.381078 237.225638 
L 93.262038 237.383502 
L 92.785878 235.36191 
L 92.309717 236.672812 
L 92.190677 236.534777 
L 92.071638 235.784942 
L 91.833557 231.33057 
L 91.119318 212.149132 
L 91.000277 212.410265 
L 90.643157 216.719047 
L 90.166997 224.909975 
L 89.928918 228.573478 
L 89.809877 228.9511 
L 89.690837 228.091558 
L 89.333717 220.919325 
L 88.976598 214.46319 
L 88.857557 214.041188 
L 88.738518 214.81463 
L 88.500437 219.486784 
L 87.786198 236.338111 
L 87.667157 237.091723 
L 87.548117 236.926305 
L 87.310038 234.468117 
L 86.952918 230.476007 
L 86.476758 227.765614 
L 86.357717 227.49521 
L 86.238677 227.727843 
L 85.881557 230.630009 
L 85.643478 231.656515 
L 85.524437 231.335034 
L 85.286358 229.357393 
L 85.048277 225.875704 
L 84.691157 215.993592 
L 84.453078 209.936711 
L 84.334038 208.743156 
L 84.214997 208.887543 
L 83.976918 211.951093 
L 83.619798 221.644952 
L 82.786518 250.859157 
L 82.548437 253.664149 
L 82.429397 253.815575 
L 82.310358 253.177507 
L 82.072277 249.383608 
L 81.715157 238.053332 
L 81.238997 221.809684 
L 81.000918 218.444483 
L 80.881877 218.027116 
L 80.762837 218.09931 
L 80.643798 218.594879 
L 80.405717 221.47507 
L 79.810518 232.331409 
L 79.453397 234.525202 
L 79.334358 234.379012 
L 79.215317 232.68508 
L 78.858198 219.052506 
L 78.501078 209.262503 
L 78.024918 202.883884 
L 77.905877 202.958997 
L 77.786837 204.531976 
L 77.548758 212.1851 
L 76.953557 235.234691 
L 76.596437 241.824053 
L 76.477397 242.306403 
L 76.358358 241.608932 
L 75.644117 233.363838 
L 75.286997 230.108859 
L 75.048918 227.846907 
L 74.929877 227.830167 
L 74.810837 229.110338 
L 73.977557 245.192259 
L 73.739478 245.870415 
L 73.620437 245.924753 
L 73.382358 245.587993 
L 73.025238 244.472726 
L 72.668117 242.454138 
L 72.310997 240.604574 
L 72.191958 240.768018 
L 71.834837 242.65561 
L 71.715798 242.362029 
L 71.477717 238.708053 
L 71.120597 232.104785 
L 71.001557 231.538996 
L 70.763478 231.823822 
L 70.644437 231.630419 
L 70.049238 228.233885 
L 69.811157 229.728834 
L 69.215958 234.127837 
L 68.977877 234.761012 
L 68.858837 233.80979 
L 68.263638 224.406765 
L 68.025557 225.73166 
L 67.668437 227.794543 
L 67.430358 231.19245 
L 67.073238 237.308304 
L 66.954198 238.154197 
L 66.835157 238.032129 
L 66.716117 236.804494 
L 66.478037 231.013811 
L 65.644757 205.971127 
L 65.525717 205.771028 
L 65.287638 207.861123 
L 64.811477 213.174779 
L 64.097238 227.041102 
L 63.978198 226.713956 
L 63.740117 225.524007 
L 63.621078 225.980002 
L 63.382997 230.917839 
L 62.668757 256.695164 
L 62.549717 256.876721 
L 62.311638 252.738422 
L 61.240277 220.959757 
L 60.764117 210.114748 
L 60.645078 209.971219 
L 60.526037 212.207333 
L 59.930837 233.026476 
L 59.454678 236.888792 
L 59.335638 237.411058 
L 59.216597 237.422732 
L 58.978518 236.564564 
L 58.621398 234.13891 
L 58.145238 230.866849 
L 58.026197 230.816717 
L 57.788117 232.846121 
L 57.550037 235.028411 
L 57.430997 234.450605 
L 56.954837 227.887596 
L 56.835798 227.74587 
L 56.478678 228.253286 
L 56.002518 230.199852 
L 55.764437 231.360873 
L 55.288277 234.837068 
L 55.169238 233.772019 
L 54.931157 227.817377 
L 54.454997 211.383845 
L 54.335958 210.469021 
L 54.216917 211.531323 
L 53.859798 221.017443 
L 53.383638 232.067958 
L 53.026518 234.611474 
L 52.669398 236.258106 
L 52.550358 235.92023 
L 52.312277 232.449958 
L 51.717078 217.732075 
L 51.598037 217.64443 
L 51.359958 221.183806 
L 50.526678 237.413891 
L 50.288597 237.973155 
L 50.169557 238.332235 
L 49.693398 241.870065 
L 49.574358 241.486949 
L 49.217238 239.418744 
L 49.098197 239.414452 
L 48.860118 240.964082 
L 48.622037 243.081819 
L 48.502997 243.356687 
L 48.383958 242.894682 
L 47.669717 236.439577 
L 47.074518 228.907234 
L 46.717398 225.241069 
L 46.598357 225.582122 
L 46.360277 230.65353 
L 45.765078 249.066334 
L 45.526997 251.172482 
L 45.288917 251.854759 
L 44.812757 255.70497 
L 44.574678 253.392114 
L 44.336597 250.940621 
L 43.860437 249.468764 
L 43.622357 247.125176 
L 43.384277 243.107314 
L 42.908118 228.299555 
L 42.550997 219.00658 
L 42.074838 213.243367 
L 41.836757 211.961823 
L 41.717717 213.325089 
L 41.479637 221.529065 
L 40.884437 245.669372 
L 40.646357 250.051979 
L 40.527317 250.681462 
L 40.408277 250.264697 
L 39.932118 245.531766 
L 39.694037 240.662002 
L 39.098838 223.70732 
L 38.741717 220.053516 
L 38.622678 220.312933 
L 38.384597 224.354401 
L 37.789398 238.014875 
L 37.789398 238.014875 
" clip-path="url(#p0ac5016df0)" style="fill: none; stroke: #4c72b0; stroke-linecap: round"/>
   </g>
   <g id="patch_3">
    <path d="M 37.908438 277.248797 
L 37.908438 11.136797 
" style="fill: none; stroke: #262626; stroke-width: 1.25; stroke-linejoin: miter; stroke-linecap: square"/>
   </g>
   <g id="patch_4">
    <path d="M 37.908437 277.248797 
L 395.028438 277.248797 
" style="fill: none; stroke: #262626; stroke-width: 1.25; stroke-linejoin: miter; stroke-linecap: square"/>
   </g>
   <g id="legend_1"/>
  </g>
 </g>
 <defs>
  <clipPath id="p0ac5016df0">
   <rect x="37.908438" y="11.136797" width="357.12" height="266.112"/>
  </clipPath>
 </defs>
</svg>
