<?xml version="1.0" encoding="utf-8" standalone="no"?>
<!DOCTYPE svg PUBLIC "-//W3C//DTD SVG 1.1//EN"
  "http://www.w3.org/Graphics/SVG/1.1/DTD/svg11.dtd">
<svg xmlns:xlink="http://www.w3.org/1999/xlink" width="423.924922pt" height="319.168641pt" viewBox="0 0 423.924922 319.168641" xmlns="http://www.w3.org/2000/svg" version="1.1">
 <metadata>
  <rdf:RDF xmlns:dc="http://purl.org/dc/elements/1.1/" xmlns:cc="http://creativecommons.org/ns#" xmlns:rdf="http://www.w3.org/1999/02/22-rdf-syntax-ns#">
   <cc:Work>
    <dc:type rdf:resource="http://purl.org/dc/dcmitype/StillImage"/>
    <dc:date>2023-09-27T09:03:51.657075</dc:date>
    <dc:format>image/svg+xml</dc:format>
    <dc:creator>
     <cc:Agent>
      <dc:title>Matplotlib v3.7.1, https://matplotlib.org/</dc:title>
     </cc:Agent>
    </dc:creator>
   </cc:Work>
  </rdf:RDF>
 </metadata>
 <defs>
  <style type="text/css">*{stroke-linejoin: round; stroke-linecap: butt}</style>
 </defs>
 <g id="figure_1">
  <g id="patch_1">
   <path d="M 0 319.168641 
L 423.924922 319.168641 
L 423.924922 0 
L 0 0 
z
" style="fill: #ffffff"/>
  </g>
  <g id="axes_1">
   <g id="patch_2">
    <path d="M 50.429375 277.248797 
L 407.549375 277.248797 
L 407.549375 11.136797 
L 50.429375 11.136797 
z
" style="fill: #ffffff"/>
   </g>
   <g id="matplotlib.axis_1">
    <g id="xtick_1">
     <g id="line2d_1">
      <defs>
       <path id="m5257a12d39" d="M 0 0 
L 0 -6 
" style="stroke: #262626; stroke-width: 1.25"/>
      </defs>
      <g>
       <use xlink:href="#m5257a12d39" x="407.549375" y="277.248797" style="fill: #262626; stroke: #262626; stroke-width: 1.25"/>
      </g>
     </g>
     <g id="text_1">
      <!-- 900 -->
      <g style="fill: #262626" transform="translate(398.373828 288.622391) scale(0.11 -0.11)">
       <defs>
        <path id="ArialMT-39" d="M 350 1059 
L 891 1109 
Q 959 728 1153 556 
Q 1347 384 1650 384 
Q 1909 384 2104 503 
Q 2300 622 2425 820 
Q 2550 1019 2634 1356 
Q 2719 1694 2719 2044 
Q 2719 2081 2716 2156 
Q 2547 1888 2255 1720 
Q 1963 1553 1622 1553 
Q 1053 1553 659 1965 
Q 266 2378 266 3053 
Q 266 3750 677 4175 
Q 1088 4600 1706 4600 
Q 2153 4600 2523 4359 
Q 2894 4119 3086 3673 
Q 3278 3228 3278 2384 
Q 3278 1506 3087 986 
Q 2897 466 2520 194 
Q 2144 -78 1638 -78 
Q 1100 -78 759 220 
Q 419 519 350 1059 
z
M 2653 3081 
Q 2653 3566 2395 3850 
Q 2138 4134 1775 4134 
Q 1400 4134 1122 3828 
Q 844 3522 844 3034 
Q 844 2597 1108 2323 
Q 1372 2050 1759 2050 
Q 2150 2050 2401 2323 
Q 2653 2597 2653 3081 
z
" transform="scale(0.015625)"/>
        <path id="ArialMT-30" d="M 266 2259 
Q 266 3072 433 3567 
Q 600 4063 929 4331 
Q 1259 4600 1759 4600 
Q 2128 4600 2406 4451 
Q 2684 4303 2865 4023 
Q 3047 3744 3150 3342 
Q 3253 2941 3253 2259 
Q 3253 1453 3087 958 
Q 2922 463 2592 192 
Q 2263 -78 1759 -78 
Q 1097 -78 719 397 
Q 266 969 266 2259 
z
M 844 2259 
Q 844 1131 1108 757 
Q 1372 384 1759 384 
Q 2147 384 2411 759 
Q 2675 1134 2675 2259 
Q 2675 3391 2411 3762 
Q 2147 4134 1753 4134 
Q 1366 4134 1134 3806 
Q 844 3388 844 2259 
z
" transform="scale(0.015625)"/>
       </defs>
       <use xlink:href="#ArialMT-39"/>
       <use xlink:href="#ArialMT-30" x="55.615234"/>
       <use xlink:href="#ArialMT-30" x="111.230469"/>
      </g>
     </g>
    </g>
    <g id="xtick_2">
     <g id="line2d_2">
      <g>
       <use xlink:href="#m5257a12d39" x="362.909375" y="277.248797" style="fill: #262626; stroke: #262626; stroke-width: 1.25"/>
      </g>
     </g>
     <g id="text_2">
      <!-- 1000 -->
      <g style="fill: #262626" transform="translate(350.675313 288.622391) scale(0.11 -0.11)">
       <defs>
        <path id="ArialMT-31" d="M 2384 0 
L 1822 0 
L 1822 3584 
Q 1619 3391 1289 3197 
Q 959 3003 697 2906 
L 697 3450 
Q 1169 3672 1522 3987 
Q 1875 4303 2022 4600 
L 2384 4600 
L 2384 0 
z
" transform="scale(0.015625)"/>
       </defs>
       <use xlink:href="#ArialMT-31"/>
       <use xlink:href="#ArialMT-30" x="55.615234"/>
       <use xlink:href="#ArialMT-30" x="111.230469"/>
       <use xlink:href="#ArialMT-30" x="166.845703"/>
      </g>
     </g>
    </g>
    <g id="xtick_3">
     <g id="line2d_3">
      <g>
       <use xlink:href="#m5257a12d39" x="318.269375" y="277.248797" style="fill: #262626; stroke: #262626; stroke-width: 1.25"/>
      </g>
     </g>
     <g id="text_3">
      <!-- 1100 -->
      <g style="fill: #262626" transform="translate(306.440938 288.622391) scale(0.11 -0.11)">
       <use xlink:href="#ArialMT-31"/>
       <use xlink:href="#ArialMT-31" x="48.240234"/>
       <use xlink:href="#ArialMT-30" x="103.855469"/>
       <use xlink:href="#ArialMT-30" x="159.470703"/>
      </g>
     </g>
    </g>
    <g id="xtick_4">
     <g id="line2d_4">
      <g>
       <use xlink:href="#m5257a12d39" x="273.629375" y="277.248797" style="fill: #262626; stroke: #262626; stroke-width: 1.25"/>
      </g>
     </g>
     <g id="text_4">
      <!-- 1200 -->
      <g style="fill: #262626" transform="translate(261.395313 288.622391) scale(0.11 -0.11)">
       <defs>
        <path id="ArialMT-32" d="M 3222 541 
L 3222 0 
L 194 0 
Q 188 203 259 391 
Q 375 700 629 1000 
Q 884 1300 1366 1694 
Q 2113 2306 2375 2664 
Q 2638 3022 2638 3341 
Q 2638 3675 2398 3904 
Q 2159 4134 1775 4134 
Q 1369 4134 1125 3890 
Q 881 3647 878 3216 
L 300 3275 
Q 359 3922 746 4261 
Q 1134 4600 1788 4600 
Q 2447 4600 2831 4234 
Q 3216 3869 3216 3328 
Q 3216 3053 3103 2787 
Q 2991 2522 2730 2228 
Q 2469 1934 1863 1422 
Q 1356 997 1212 845 
Q 1069 694 975 541 
L 3222 541 
z
" transform="scale(0.015625)"/>
       </defs>
       <use xlink:href="#ArialMT-31"/>
       <use xlink:href="#ArialMT-32" x="55.615234"/>
       <use xlink:href="#ArialMT-30" x="111.230469"/>
       <use xlink:href="#ArialMT-30" x="166.845703"/>
      </g>
     </g>
    </g>
    <g id="xtick_5">
     <g id="line2d_5">
      <g>
       <use xlink:href="#m5257a12d39" x="228.989375" y="277.248797" style="fill: #262626; stroke: #262626; stroke-width: 1.25"/>
      </g>
     </g>
     <g id="text_5">
      <!-- 1300 -->
      <g style="fill: #262626" transform="translate(216.755313 288.622391) scale(0.11 -0.11)">
       <defs>
        <path id="ArialMT-33" d="M 269 1209 
L 831 1284 
Q 928 806 1161 595 
Q 1394 384 1728 384 
Q 2125 384 2398 659 
Q 2672 934 2672 1341 
Q 2672 1728 2419 1979 
Q 2166 2231 1775 2231 
Q 1616 2231 1378 2169 
L 1441 2663 
Q 1497 2656 1531 2656 
Q 1891 2656 2178 2843 
Q 2466 3031 2466 3422 
Q 2466 3731 2256 3934 
Q 2047 4138 1716 4138 
Q 1388 4138 1169 3931 
Q 950 3725 888 3313 
L 325 3413 
Q 428 3978 793 4289 
Q 1159 4600 1703 4600 
Q 2078 4600 2393 4439 
Q 2709 4278 2876 4000 
Q 3044 3722 3044 3409 
Q 3044 3113 2884 2869 
Q 2725 2625 2413 2481 
Q 2819 2388 3044 2092 
Q 3269 1797 3269 1353 
Q 3269 753 2831 336 
Q 2394 -81 1725 -81 
Q 1122 -81 723 278 
Q 325 638 269 1209 
z
" transform="scale(0.015625)"/>
       </defs>
       <use xlink:href="#ArialMT-31"/>
       <use xlink:href="#ArialMT-33" x="55.615234"/>
       <use xlink:href="#ArialMT-30" x="111.230469"/>
       <use xlink:href="#ArialMT-30" x="166.845703"/>
      </g>
     </g>
    </g>
    <g id="xtick_6">
     <g id="line2d_6">
      <g>
       <use xlink:href="#m5257a12d39" x="184.349375" y="277.248797" style="fill: #262626; stroke: #262626; stroke-width: 1.25"/>
      </g>
     </g>
     <g id="text_6">
      <!-- 1400 -->
      <g style="fill: #262626" transform="translate(172.115313 288.622391) scale(0.11 -0.11)">
       <defs>
        <path id="ArialMT-34" d="M 2069 0 
L 2069 1097 
L 81 1097 
L 81 1613 
L 2172 4581 
L 2631 4581 
L 2631 1613 
L 3250 1613 
L 3250 1097 
L 2631 1097 
L 2631 0 
L 2069 0 
z
M 2069 1613 
L 2069 3678 
L 634 1613 
L 2069 1613 
z
" transform="scale(0.015625)"/>
       </defs>
       <use xlink:href="#ArialMT-31"/>
       <use xlink:href="#ArialMT-34" x="55.615234"/>
       <use xlink:href="#ArialMT-30" x="111.230469"/>
       <use xlink:href="#ArialMT-30" x="166.845703"/>
      </g>
     </g>
    </g>
    <g id="xtick_7">
     <g id="line2d_7">
      <g>
       <use xlink:href="#m5257a12d39" x="139.709375" y="277.248797" style="fill: #262626; stroke: #262626; stroke-width: 1.25"/>
      </g>
     </g>
     <g id="text_7">
      <!-- 1500 -->
      <g style="fill: #262626" transform="translate(127.475313 288.622391) scale(0.11 -0.11)">
       <defs>
        <path id="ArialMT-35" d="M 266 1200 
L 856 1250 
Q 922 819 1161 601 
Q 1400 384 1738 384 
Q 2144 384 2425 690 
Q 2706 997 2706 1503 
Q 2706 1984 2436 2262 
Q 2166 2541 1728 2541 
Q 1456 2541 1237 2417 
Q 1019 2294 894 2097 
L 366 2166 
L 809 4519 
L 3088 4519 
L 3088 3981 
L 1259 3981 
L 1013 2750 
Q 1425 3038 1878 3038 
Q 2478 3038 2890 2622 
Q 3303 2206 3303 1553 
Q 3303 931 2941 478 
Q 2500 -78 1738 -78 
Q 1113 -78 717 272 
Q 322 622 266 1200 
z
" transform="scale(0.015625)"/>
       </defs>
       <use xlink:href="#ArialMT-31"/>
       <use xlink:href="#ArialMT-35" x="55.615234"/>
       <use xlink:href="#ArialMT-30" x="111.230469"/>
       <use xlink:href="#ArialMT-30" x="166.845703"/>
      </g>
     </g>
    </g>
    <g id="xtick_8">
     <g id="line2d_8">
      <g>
       <use xlink:href="#m5257a12d39" x="95.069375" y="277.248797" style="fill: #262626; stroke: #262626; stroke-width: 1.25"/>
      </g>
     </g>
     <g id="text_8">
      <!-- 1600 -->
      <g style="fill: #262626" transform="translate(82.835313 288.622391) scale(0.11 -0.11)">
       <defs>
        <path id="ArialMT-36" d="M 3184 3459 
L 2625 3416 
Q 2550 3747 2413 3897 
Q 2184 4138 1850 4138 
Q 1581 4138 1378 3988 
Q 1113 3794 959 3422 
Q 806 3050 800 2363 
Q 1003 2672 1297 2822 
Q 1591 2972 1913 2972 
Q 2475 2972 2870 2558 
Q 3266 2144 3266 1488 
Q 3266 1056 3080 686 
Q 2894 316 2569 119 
Q 2244 -78 1831 -78 
Q 1128 -78 684 439 
Q 241 956 241 2144 
Q 241 3472 731 4075 
Q 1159 4600 1884 4600 
Q 2425 4600 2770 4297 
Q 3116 3994 3184 3459 
z
M 888 1484 
Q 888 1194 1011 928 
Q 1134 663 1356 523 
Q 1578 384 1822 384 
Q 2178 384 2434 671 
Q 2691 959 2691 1453 
Q 2691 1928 2437 2201 
Q 2184 2475 1800 2475 
Q 1419 2475 1153 2201 
Q 888 1928 888 1484 
z
" transform="scale(0.015625)"/>
       </defs>
       <use xlink:href="#ArialMT-31"/>
       <use xlink:href="#ArialMT-36" x="55.615234"/>
       <use xlink:href="#ArialMT-30" x="111.230469"/>
       <use xlink:href="#ArialMT-30" x="166.845703"/>
      </g>
     </g>
    </g>
    <g id="xtick_9">
     <g id="line2d_9">
      <g>
       <use xlink:href="#m5257a12d39" x="50.429375" y="277.248797" style="fill: #262626; stroke: #262626; stroke-width: 1.25"/>
      </g>
     </g>
     <g id="text_9">
      <!-- 1700 -->
      <g style="fill: #262626" transform="translate(38.195313 288.622391) scale(0.11 -0.11)">
       <defs>
        <path id="ArialMT-37" d="M 303 3981 
L 303 4522 
L 3269 4522 
L 3269 4084 
Q 2831 3619 2401 2847 
Q 1972 2075 1738 1259 
Q 1569 684 1522 0 
L 944 0 
Q 953 541 1156 1306 
Q 1359 2072 1739 2783 
Q 2119 3494 2547 3981 
L 303 3981 
z
" transform="scale(0.015625)"/>
       </defs>
       <use xlink:href="#ArialMT-31"/>
       <use xlink:href="#ArialMT-37" x="55.615234"/>
       <use xlink:href="#ArialMT-30" x="111.230469"/>
       <use xlink:href="#ArialMT-30" x="166.845703"/>
      </g>
     </g>
    </g>
    <g id="xtick_10">
     <g id="line2d_10">
      <defs>
       <path id="me7b16229be" d="M 0 0 
L 0 -4 
" style="stroke: #262626"/>
      </defs>
      <g>
       <use xlink:href="#me7b16229be" x="385.229375" y="277.248797" style="fill: #262626; stroke: #262626"/>
      </g>
     </g>
    </g>
    <g id="xtick_11">
     <g id="line2d_11">
      <g>
       <use xlink:href="#me7b16229be" x="340.589375" y="277.248797" style="fill: #262626; stroke: #262626"/>
      </g>
     </g>
    </g>
    <g id="xtick_12">
     <g id="line2d_12">
      <g>
       <use xlink:href="#me7b16229be" x="295.949375" y="277.248797" style="fill: #262626; stroke: #262626"/>
      </g>
     </g>
    </g>
    <g id="xtick_13">
     <g id="line2d_13">
      <g>
       <use xlink:href="#me7b16229be" x="251.309375" y="277.248797" style="fill: #262626; stroke: #262626"/>
      </g>
     </g>
    </g>
    <g id="xtick_14">
     <g id="line2d_14">
      <g>
       <use xlink:href="#me7b16229be" x="206.669375" y="277.248797" style="fill: #262626; stroke: #262626"/>
      </g>
     </g>
    </g>
    <g id="xtick_15">
     <g id="line2d_15">
      <g>
       <use xlink:href="#me7b16229be" x="162.029375" y="277.248797" style="fill: #262626; stroke: #262626"/>
      </g>
     </g>
    </g>
    <g id="xtick_16">
     <g id="line2d_16">
      <g>
       <use xlink:href="#me7b16229be" x="117.389375" y="277.248797" style="fill: #262626; stroke: #262626"/>
      </g>
     </g>
    </g>
    <g id="xtick_17">
     <g id="line2d_17">
      <g>
       <use xlink:href="#me7b16229be" x="72.749375" y="277.248797" style="fill: #262626; stroke: #262626"/>
      </g>
     </g>
    </g>
    <g id="text_10">
     <!-- Wavenumber ($\mathregular{cm^{-1}}$) -->
     <g style="fill: #262626" transform="translate(174.449375 309.328641) scale(0.12 -0.12)">
      <defs>
       <path id="ArialMT-57" d="M 1294 0 
L 78 4581 
L 700 4581 
L 1397 1578 
Q 1509 1106 1591 641 
Q 1766 1375 1797 1488 
L 2669 4581 
L 3400 4581 
L 4056 2263 
Q 4303 1400 4413 641 
Q 4500 1075 4641 1638 
L 5359 4581 
L 5969 4581 
L 4713 0 
L 4128 0 
L 3163 3491 
Q 3041 3928 3019 4028 
Q 2947 3713 2884 3491 
L 1913 0 
L 1294 0 
z
" transform="scale(0.015625)"/>
       <path id="ArialMT-61" d="M 2588 409 
Q 2275 144 1986 34 
Q 1697 -75 1366 -75 
Q 819 -75 525 192 
Q 231 459 231 875 
Q 231 1119 342 1320 
Q 453 1522 633 1644 
Q 813 1766 1038 1828 
Q 1203 1872 1538 1913 
Q 2219 1994 2541 2106 
Q 2544 2222 2544 2253 
Q 2544 2597 2384 2738 
Q 2169 2928 1744 2928 
Q 1347 2928 1158 2789 
Q 969 2650 878 2297 
L 328 2372 
Q 403 2725 575 2942 
Q 747 3159 1072 3276 
Q 1397 3394 1825 3394 
Q 2250 3394 2515 3294 
Q 2781 3194 2906 3042 
Q 3031 2891 3081 2659 
Q 3109 2516 3109 2141 
L 3109 1391 
Q 3109 606 3145 398 
Q 3181 191 3288 0 
L 2700 0 
Q 2613 175 2588 409 
z
M 2541 1666 
Q 2234 1541 1622 1453 
Q 1275 1403 1131 1340 
Q 988 1278 909 1158 
Q 831 1038 831 891 
Q 831 666 1001 516 
Q 1172 366 1500 366 
Q 1825 366 2078 508 
Q 2331 650 2450 897 
Q 2541 1088 2541 1459 
L 2541 1666 
z
" transform="scale(0.015625)"/>
       <path id="ArialMT-76" d="M 1344 0 
L 81 3319 
L 675 3319 
L 1388 1331 
Q 1503 1009 1600 663 
Q 1675 925 1809 1294 
L 2547 3319 
L 3125 3319 
L 1869 0 
L 1344 0 
z
" transform="scale(0.015625)"/>
       <path id="ArialMT-65" d="M 2694 1069 
L 3275 997 
Q 3138 488 2766 206 
Q 2394 -75 1816 -75 
Q 1088 -75 661 373 
Q 234 822 234 1631 
Q 234 2469 665 2931 
Q 1097 3394 1784 3394 
Q 2450 3394 2872 2941 
Q 3294 2488 3294 1666 
Q 3294 1616 3291 1516 
L 816 1516 
Q 847 969 1125 678 
Q 1403 388 1819 388 
Q 2128 388 2347 550 
Q 2566 713 2694 1069 
z
M 847 1978 
L 2700 1978 
Q 2663 2397 2488 2606 
Q 2219 2931 1791 2931 
Q 1403 2931 1139 2672 
Q 875 2413 847 1978 
z
" transform="scale(0.015625)"/>
       <path id="ArialMT-6e" d="M 422 0 
L 422 3319 
L 928 3319 
L 928 2847 
Q 1294 3394 1984 3394 
Q 2284 3394 2536 3286 
Q 2788 3178 2913 3003 
Q 3038 2828 3088 2588 
Q 3119 2431 3119 2041 
L 3119 0 
L 2556 0 
L 2556 2019 
Q 2556 2363 2490 2533 
Q 2425 2703 2258 2804 
Q 2091 2906 1866 2906 
Q 1506 2906 1245 2678 
Q 984 2450 984 1813 
L 984 0 
L 422 0 
z
" transform="scale(0.015625)"/>
       <path id="ArialMT-75" d="M 2597 0 
L 2597 488 
Q 2209 -75 1544 -75 
Q 1250 -75 995 37 
Q 741 150 617 320 
Q 494 491 444 738 
Q 409 903 409 1263 
L 409 3319 
L 972 3319 
L 972 1478 
Q 972 1038 1006 884 
Q 1059 663 1231 536 
Q 1403 409 1656 409 
Q 1909 409 2131 539 
Q 2353 669 2445 892 
Q 2538 1116 2538 1541 
L 2538 3319 
L 3100 3319 
L 3100 0 
L 2597 0 
z
" transform="scale(0.015625)"/>
       <path id="ArialMT-6d" d="M 422 0 
L 422 3319 
L 925 3319 
L 925 2853 
Q 1081 3097 1340 3245 
Q 1600 3394 1931 3394 
Q 2300 3394 2536 3241 
Q 2772 3088 2869 2813 
Q 3263 3394 3894 3394 
Q 4388 3394 4653 3120 
Q 4919 2847 4919 2278 
L 4919 0 
L 4359 0 
L 4359 2091 
Q 4359 2428 4304 2576 
Q 4250 2725 4106 2815 
Q 3963 2906 3769 2906 
Q 3419 2906 3187 2673 
Q 2956 2441 2956 1928 
L 2956 0 
L 2394 0 
L 2394 2156 
Q 2394 2531 2256 2718 
Q 2119 2906 1806 2906 
Q 1569 2906 1367 2781 
Q 1166 2656 1075 2415 
Q 984 2175 984 1722 
L 984 0 
L 422 0 
z
" transform="scale(0.015625)"/>
       <path id="ArialMT-62" d="M 941 0 
L 419 0 
L 419 4581 
L 981 4581 
L 981 2947 
Q 1338 3394 1891 3394 
Q 2197 3394 2470 3270 
Q 2744 3147 2920 2923 
Q 3097 2700 3197 2384 
Q 3297 2069 3297 1709 
Q 3297 856 2875 390 
Q 2453 -75 1863 -75 
Q 1275 -75 941 416 
L 941 0 
z
M 934 1684 
Q 934 1088 1097 822 
Q 1363 388 1816 388 
Q 2184 388 2453 708 
Q 2722 1028 2722 1663 
Q 2722 2313 2464 2622 
Q 2206 2931 1841 2931 
Q 1472 2931 1203 2611 
Q 934 2291 934 1684 
z
" transform="scale(0.015625)"/>
       <path id="ArialMT-72" d="M 416 0 
L 416 3319 
L 922 3319 
L 922 2816 
Q 1116 3169 1280 3281 
Q 1444 3394 1641 3394 
Q 1925 3394 2219 3213 
L 2025 2691 
Q 1819 2813 1613 2813 
Q 1428 2813 1281 2702 
Q 1134 2591 1072 2394 
Q 978 2094 978 1738 
L 978 0 
L 416 0 
z
" transform="scale(0.015625)"/>
       <path id="ArialMT-20" transform="scale(0.015625)"/>
       <path id="ArialMT-28" d="M 1497 -1347 
Q 1031 -759 709 28 
Q 388 816 388 1659 
Q 388 2403 628 3084 
Q 909 3875 1497 4659 
L 1900 4659 
Q 1522 4009 1400 3731 
Q 1209 3300 1100 2831 
Q 966 2247 966 1656 
Q 966 153 1900 -1347 
L 1497 -1347 
z
" transform="scale(0.015625)"/>
       <path id="ArialMT-63" d="M 2588 1216 
L 3141 1144 
Q 3050 572 2676 248 
Q 2303 -75 1759 -75 
Q 1078 -75 664 370 
Q 250 816 250 1647 
Q 250 2184 428 2587 
Q 606 2991 970 3192 
Q 1334 3394 1763 3394 
Q 2303 3394 2647 3120 
Q 2991 2847 3088 2344 
L 2541 2259 
Q 2463 2594 2264 2762 
Q 2066 2931 1784 2931 
Q 1359 2931 1093 2626 
Q 828 2322 828 1663 
Q 828 994 1084 691 
Q 1341 388 1753 388 
Q 2084 388 2306 591 
Q 2528 794 2588 1216 
z
" transform="scale(0.015625)"/>
       <path id="ArialMT-2212" d="M 3381 1997 
L 356 1997 
L 356 2522 
L 3381 2522 
L 3381 1997 
z
" transform="scale(0.015625)"/>
       <path id="ArialMT-29" d="M 791 -1347 
L 388 -1347 
Q 1322 153 1322 1656 
Q 1322 2244 1188 2822 
Q 1081 3291 891 3722 
Q 769 4003 388 4659 
L 791 4659 
Q 1378 3875 1659 3084 
Q 1900 2403 1900 1659 
Q 1900 816 1576 28 
Q 1253 -759 791 -1347 
z
" transform="scale(0.015625)"/>
      </defs>
      <use xlink:href="#ArialMT-57" transform="translate(0 0.99375)"/>
      <use xlink:href="#ArialMT-61" transform="translate(94.384766 0.99375)"/>
      <use xlink:href="#ArialMT-76" transform="translate(150 0.99375)"/>
      <use xlink:href="#ArialMT-65" transform="translate(200 0.99375)"/>
      <use xlink:href="#ArialMT-6e" transform="translate(255.615234 0.99375)"/>
      <use xlink:href="#ArialMT-75" transform="translate(311.230469 0.99375)"/>
      <use xlink:href="#ArialMT-6d" transform="translate(366.845703 0.99375)"/>
      <use xlink:href="#ArialMT-62" transform="translate(450.146484 0.99375)"/>
      <use xlink:href="#ArialMT-65" transform="translate(505.761719 0.99375)"/>
      <use xlink:href="#ArialMT-72" transform="translate(561.376953 0.99375)"/>
      <use xlink:href="#ArialMT-20" transform="translate(594.677734 0.99375)"/>
      <use xlink:href="#ArialMT-28" transform="translate(622.460938 0.99375)"/>
      <use xlink:href="#ArialMT-63" transform="translate(655.761719 0.99375)"/>
      <use xlink:href="#ArialMT-6d" transform="translate(705.761719 0.99375)"/>
      <use xlink:href="#ArialMT-2212" transform="translate(790.804844 70.6875) scale(0.7)"/>
      <use xlink:href="#ArialMT-31" transform="translate(831.68375 70.6875) scale(0.7)"/>
      <use xlink:href="#ArialMT-29" transform="translate(875.592539 0.99375)"/>
     </g>
    </g>
   </g>
   <g id="matplotlib.axis_2">
    <g id="ytick_1">
     <g id="line2d_18">
      <defs>
       <path id="md43aa1a810" d="M 0 0 
L 6 0 
" style="stroke: #262626; stroke-width: 1.25"/>
      </defs>
      <g>
       <use xlink:href="#md43aa1a810" x="50.429375" y="261.59515" style="fill: #262626; stroke: #262626; stroke-width: 1.25"/>
      </g>
     </g>
     <g id="text_11">
      <!-- 0 -->
      <g style="fill: #262626" transform="translate(40.812344 265.531947) scale(0.11 -0.11)">
       <use xlink:href="#ArialMT-30"/>
      </g>
     </g>
    </g>
    <g id="ytick_2">
     <g id="line2d_19">
      <g>
       <use xlink:href="#md43aa1a810" x="50.429375" y="230.287856" style="fill: #262626; stroke: #262626; stroke-width: 1.25"/>
      </g>
     </g>
     <g id="text_12">
      <!-- 200 -->
      <g style="fill: #262626" transform="translate(28.578281 234.224653) scale(0.11 -0.11)">
       <use xlink:href="#ArialMT-32"/>
       <use xlink:href="#ArialMT-30" x="55.615234"/>
       <use xlink:href="#ArialMT-30" x="111.230469"/>
      </g>
     </g>
    </g>
    <g id="ytick_3">
     <g id="line2d_20">
      <g>
       <use xlink:href="#md43aa1a810" x="50.429375" y="198.980562" style="fill: #262626; stroke: #262626; stroke-width: 1.25"/>
      </g>
     </g>
     <g id="text_13">
      <!-- 400 -->
      <g style="fill: #262626" transform="translate(28.578281 202.917358) scale(0.11 -0.11)">
       <use xlink:href="#ArialMT-34"/>
       <use xlink:href="#ArialMT-30" x="55.615234"/>
       <use xlink:href="#ArialMT-30" x="111.230469"/>
      </g>
     </g>
    </g>
    <g id="ytick_4">
     <g id="line2d_21">
      <g>
       <use xlink:href="#md43aa1a810" x="50.429375" y="167.673267" style="fill: #262626; stroke: #262626; stroke-width: 1.25"/>
      </g>
     </g>
     <g id="text_14">
      <!-- 600 -->
      <g style="fill: #262626" transform="translate(28.578281 171.610064) scale(0.11 -0.11)">
       <use xlink:href="#ArialMT-36"/>
       <use xlink:href="#ArialMT-30" x="55.615234"/>
       <use xlink:href="#ArialMT-30" x="111.230469"/>
      </g>
     </g>
    </g>
    <g id="ytick_5">
     <g id="line2d_22">
      <g>
       <use xlink:href="#md43aa1a810" x="50.429375" y="136.365973" style="fill: #262626; stroke: #262626; stroke-width: 1.25"/>
      </g>
     </g>
     <g id="text_15">
      <!-- 800 -->
      <g style="fill: #262626" transform="translate(28.578281 140.30277) scale(0.11 -0.11)">
       <defs>
        <path id="ArialMT-38" d="M 1131 2484 
Q 781 2613 612 2850 
Q 444 3088 444 3419 
Q 444 3919 803 4259 
Q 1163 4600 1759 4600 
Q 2359 4600 2725 4251 
Q 3091 3903 3091 3403 
Q 3091 3084 2923 2848 
Q 2756 2613 2416 2484 
Q 2838 2347 3058 2040 
Q 3278 1734 3278 1309 
Q 3278 722 2862 322 
Q 2447 -78 1769 -78 
Q 1091 -78 675 323 
Q 259 725 259 1325 
Q 259 1772 486 2073 
Q 713 2375 1131 2484 
z
M 1019 3438 
Q 1019 3113 1228 2906 
Q 1438 2700 1772 2700 
Q 2097 2700 2305 2904 
Q 2513 3109 2513 3406 
Q 2513 3716 2298 3927 
Q 2084 4138 1766 4138 
Q 1444 4138 1231 3931 
Q 1019 3725 1019 3438 
z
M 838 1322 
Q 838 1081 952 856 
Q 1066 631 1291 507 
Q 1516 384 1775 384 
Q 2178 384 2440 643 
Q 2703 903 2703 1303 
Q 2703 1709 2433 1975 
Q 2163 2241 1756 2241 
Q 1359 2241 1098 1978 
Q 838 1716 838 1322 
z
" transform="scale(0.015625)"/>
       </defs>
       <use xlink:href="#ArialMT-38"/>
       <use xlink:href="#ArialMT-30" x="55.615234"/>
       <use xlink:href="#ArialMT-30" x="111.230469"/>
      </g>
     </g>
    </g>
    <g id="ytick_6">
     <g id="line2d_23">
      <g>
       <use xlink:href="#md43aa1a810" x="50.429375" y="105.058679" style="fill: #262626; stroke: #262626; stroke-width: 1.25"/>
      </g>
     </g>
     <g id="text_16">
      <!-- 1000 -->
      <g style="fill: #262626" transform="translate(22.46125 108.995476) scale(0.11 -0.11)">
       <use xlink:href="#ArialMT-31"/>
       <use xlink:href="#ArialMT-30" x="55.615234"/>
       <use xlink:href="#ArialMT-30" x="111.230469"/>
       <use xlink:href="#ArialMT-30" x="166.845703"/>
      </g>
     </g>
    </g>
    <g id="ytick_7">
     <g id="line2d_24">
      <g>
       <use xlink:href="#md43aa1a810" x="50.429375" y="73.751385" style="fill: #262626; stroke: #262626; stroke-width: 1.25"/>
      </g>
     </g>
     <g id="text_17">
      <!-- 1200 -->
      <g style="fill: #262626" transform="translate(22.46125 77.688182) scale(0.11 -0.11)">
       <use xlink:href="#ArialMT-31"/>
       <use xlink:href="#ArialMT-32" x="55.615234"/>
       <use xlink:href="#ArialMT-30" x="111.230469"/>
       <use xlink:href="#ArialMT-30" x="166.845703"/>
      </g>
     </g>
    </g>
    <g id="ytick_8">
     <g id="line2d_25">
      <g>
       <use xlink:href="#md43aa1a810" x="50.429375" y="42.444091" style="fill: #262626; stroke: #262626; stroke-width: 1.25"/>
      </g>
     </g>
     <g id="text_18">
      <!-- 1400 -->
      <g style="fill: #262626" transform="translate(22.46125 46.380888) scale(0.11 -0.11)">
       <use xlink:href="#ArialMT-31"/>
       <use xlink:href="#ArialMT-34" x="55.615234"/>
       <use xlink:href="#ArialMT-30" x="111.230469"/>
       <use xlink:href="#ArialMT-30" x="166.845703"/>
      </g>
     </g>
    </g>
    <g id="ytick_9">
     <g id="line2d_26">
      <g>
       <use xlink:href="#md43aa1a810" x="50.429375" y="11.136797" style="fill: #262626; stroke: #262626; stroke-width: 1.25"/>
      </g>
     </g>
     <g id="text_19">
      <!-- 1600 -->
      <g style="fill: #262626" transform="translate(22.46125 15.073594) scale(0.11 -0.11)">
       <use xlink:href="#ArialMT-31"/>
       <use xlink:href="#ArialMT-36" x="55.615234"/>
       <use xlink:href="#ArialMT-30" x="111.230469"/>
       <use xlink:href="#ArialMT-30" x="166.845703"/>
      </g>
     </g>
    </g>
    <g id="ytick_10">
     <g id="line2d_27">
      <defs>
       <path id="mf8f34bd338" d="M 0 0 
L 4 0 
" style="stroke: #262626"/>
      </defs>
      <g>
       <use xlink:href="#mf8f34bd338" x="50.429375" y="245.941503" style="fill: #262626; stroke: #262626"/>
      </g>
     </g>
    </g>
    <g id="ytick_11">
     <g id="line2d_28">
      <g>
       <use xlink:href="#mf8f34bd338" x="50.429375" y="214.634209" style="fill: #262626; stroke: #262626"/>
      </g>
     </g>
    </g>
    <g id="ytick_12">
     <g id="line2d_29">
      <g>
       <use xlink:href="#mf8f34bd338" x="50.429375" y="183.326915" style="fill: #262626; stroke: #262626"/>
      </g>
     </g>
    </g>
    <g id="ytick_13">
     <g id="line2d_30">
      <g>
       <use xlink:href="#mf8f34bd338" x="50.429375" y="152.01962" style="fill: #262626; stroke: #262626"/>
      </g>
     </g>
    </g>
    <g id="ytick_14">
     <g id="line2d_31">
      <g>
       <use xlink:href="#mf8f34bd338" x="50.429375" y="120.712326" style="fill: #262626; stroke: #262626"/>
      </g>
     </g>
    </g>
    <g id="ytick_15">
     <g id="line2d_32">
      <g>
       <use xlink:href="#mf8f34bd338" x="50.429375" y="89.405032" style="fill: #262626; stroke: #262626"/>
      </g>
     </g>
    </g>
    <g id="ytick_16">
     <g id="line2d_33">
      <g>
       <use xlink:href="#mf8f34bd338" x="50.429375" y="58.097738" style="fill: #262626; stroke: #262626"/>
      </g>
     </g>
    </g>
    <g id="ytick_17">
     <g id="line2d_34">
      <g>
       <use xlink:href="#mf8f34bd338" x="50.429375" y="26.790444" style="fill: #262626; stroke: #262626"/>
      </g>
     </g>
    </g>
    <g id="text_20">
     <!-- Intensity (a.u.) -->
     <g style="fill: #262626" transform="translate(15.935625 182.205609) rotate(-90) scale(0.12 -0.12)">
      <defs>
       <path id="ArialMT-49" d="M 597 0 
L 597 4581 
L 1203 4581 
L 1203 0 
L 597 0 
z
" transform="scale(0.015625)"/>
       <path id="ArialMT-74" d="M 1650 503 
L 1731 6 
Q 1494 -44 1306 -44 
Q 1000 -44 831 53 
Q 663 150 594 308 
Q 525 466 525 972 
L 525 2881 
L 113 2881 
L 113 3319 
L 525 3319 
L 525 4141 
L 1084 4478 
L 1084 3319 
L 1650 3319 
L 1650 2881 
L 1084 2881 
L 1084 941 
Q 1084 700 1114 631 
Q 1144 563 1211 522 
Q 1278 481 1403 481 
Q 1497 481 1650 503 
z
" transform="scale(0.015625)"/>
       <path id="ArialMT-73" d="M 197 991 
L 753 1078 
Q 800 744 1014 566 
Q 1228 388 1613 388 
Q 2000 388 2187 545 
Q 2375 703 2375 916 
Q 2375 1106 2209 1216 
Q 2094 1291 1634 1406 
Q 1016 1563 777 1677 
Q 538 1791 414 1992 
Q 291 2194 291 2438 
Q 291 2659 392 2848 
Q 494 3038 669 3163 
Q 800 3259 1026 3326 
Q 1253 3394 1513 3394 
Q 1903 3394 2198 3281 
Q 2494 3169 2634 2976 
Q 2775 2784 2828 2463 
L 2278 2388 
Q 2241 2644 2061 2787 
Q 1881 2931 1553 2931 
Q 1166 2931 1000 2803 
Q 834 2675 834 2503 
Q 834 2394 903 2306 
Q 972 2216 1119 2156 
Q 1203 2125 1616 2013 
Q 2213 1853 2448 1751 
Q 2684 1650 2818 1456 
Q 2953 1263 2953 975 
Q 2953 694 2789 445 
Q 2625 197 2315 61 
Q 2006 -75 1616 -75 
Q 969 -75 630 194 
Q 291 463 197 991 
z
" transform="scale(0.015625)"/>
       <path id="ArialMT-69" d="M 425 3934 
L 425 4581 
L 988 4581 
L 988 3934 
L 425 3934 
z
M 425 0 
L 425 3319 
L 988 3319 
L 988 0 
L 425 0 
z
" transform="scale(0.015625)"/>
       <path id="ArialMT-79" d="M 397 -1278 
L 334 -750 
Q 519 -800 656 -800 
Q 844 -800 956 -737 
Q 1069 -675 1141 -563 
Q 1194 -478 1313 -144 
Q 1328 -97 1363 -6 
L 103 3319 
L 709 3319 
L 1400 1397 
Q 1534 1031 1641 628 
Q 1738 1016 1872 1384 
L 2581 3319 
L 3144 3319 
L 1881 -56 
Q 1678 -603 1566 -809 
Q 1416 -1088 1222 -1217 
Q 1028 -1347 759 -1347 
Q 597 -1347 397 -1278 
z
" transform="scale(0.015625)"/>
       <path id="ArialMT-2e" d="M 581 0 
L 581 641 
L 1222 641 
L 1222 0 
L 581 0 
z
" transform="scale(0.015625)"/>
      </defs>
      <use xlink:href="#ArialMT-49"/>
      <use xlink:href="#ArialMT-6e" x="27.783203"/>
      <use xlink:href="#ArialMT-74" x="83.398438"/>
      <use xlink:href="#ArialMT-65" x="111.181641"/>
      <use xlink:href="#ArialMT-6e" x="166.796875"/>
      <use xlink:href="#ArialMT-73" x="222.412109"/>
      <use xlink:href="#ArialMT-69" x="272.412109"/>
      <use xlink:href="#ArialMT-74" x="294.628906"/>
      <use xlink:href="#ArialMT-79" x="322.412109"/>
      <use xlink:href="#ArialMT-20" x="372.412109"/>
      <use xlink:href="#ArialMT-28" x="400.195312"/>
      <use xlink:href="#ArialMT-61" x="433.496094"/>
      <use xlink:href="#ArialMT-2e" x="489.111328"/>
      <use xlink:href="#ArialMT-75" x="516.894531"/>
      <use xlink:href="#ArialMT-2e" x="572.509766"/>
      <use xlink:href="#ArialMT-29" x="600.292969"/>
     </g>
    </g>
   </g>
   <g id="PolyCollection_1"/>
   <g id="line2d_35">
    <path d="M 407.772575 260.634152 
L 407.102975 260.541212 
L 406.433375 260.722985 
L 404.647775 261.527731 
L 403.978175 261.507524 
L 401.969375 261.250716 
L 398.174975 261.498265 
L 396.389375 261.516172 
L 395.050175 261.228427 
L 393.934175 261.039888 
L 390.809375 261.131501 
L 388.354175 261.351881 
L 387.014975 261.323484 
L 385.229375 261.410758 
L 383.890175 261.227729 
L 382.997375 260.880589 
L 381.881375 260.337124 
L 381.434975 260.28375 
L 380.765375 260.480518 
L 379.426175 261.045722 
L 376.524575 261.474501 
L 375.631775 261.347202 
L 374.292575 261.143589 
L 373.176575 261.273899 
L 371.837375 261.468272 
L 371.167775 261.326585 
L 369.605375 260.803069 
L 367.373375 260.632123 
L 367.150175 260.380704 
L 366.926975 259.935098 
L 366.480575 258.231125 
L 366.034175 255.300213 
L 364.694975 244.779927 
L 364.471775 244.136487 
L 364.248575 244.081884 
L 364.025375 244.600098 
L 363.578975 246.976351 
L 362.686175 252.888889 
L 362.239775 254.577931 
L 362.016575 254.983846 
L 361.793375 255.142303 
L 361.570175 255.113286 
L 360.900575 254.54024 
L 359.561375 253.175646 
L 358.891775 251.820077 
L 356.659775 246.504441 
L 355.766975 245.12578 
L 355.320575 244.668839 
L 354.874175 244.499151 
L 354.650975 244.565635 
L 354.204575 245.061732 
L 353.758175 246.057523 
L 353.088575 248.307969 
L 351.526175 253.969905 
L 350.856575 255.663476 
L 350.186975 256.891331 
L 349.294175 258.064036 
L 347.954975 259.445258 
L 347.062175 260.103038 
L 346.169375 260.461303 
L 343.714175 261.1182 
L 341.258975 261.329955 
L 339.026975 261.211997 
L 337.241375 261.472882 
L 336.125375 261.329921 
L 335.009375 261.237779 
L 333.223775 261.32928 
L 331.884575 260.972089 
L 329.429375 260.291118 
L 328.759775 260.532701 
L 327.197375 261.303493 
L 325.858175 261.508786 
L 324.072575 261.593331 
L 316.260575 261.440918 
L 314.474975 261.581857 
L 312.466175 261.518052 
L 308.002175 260.987472 
L 307.109375 261.118338 
L 305.546975 261.411254 
L 304.877375 261.298327 
L 304.207775 260.981513 
L 303.314975 260.263334 
L 301.306175 258.088205 
L 300.859775 257.213566 
L 300.413375 255.620585 
L 299.966975 253.030229 
L 298.404575 241.87584 
L 298.181375 241.490845 
L 297.958175 241.68776 
L 297.734975 242.458627 
L 297.288575 245.403107 
L 296.172575 254.60435 
L 295.726175 256.721273 
L 295.279775 257.666635 
L 294.833375 257.932677 
L 294.386975 258.102696 
L 293.940575 258.490686 
L 292.154975 260.667911 
L 291.485375 260.878426 
L 290.146175 260.940212 
L 289.476575 260.815781 
L 288.806975 260.462187 
L 287.914175 259.671057 
L 287.244575 258.817683 
L 286.798175 258.002511 
L 286.351775 256.803813 
L 285.905375 255.026803 
L 285.235775 250.985181 
L 284.342975 243.374707 
L 283.673375 237.961072 
L 283.226975 235.855039 
L 283.003775 235.462076 
L 282.780575 235.534803 
L 282.557375 236.04553 
L 282.110975 238.088268 
L 281.218175 242.744289 
L 280.994975 243.191487 
L 280.771775 243.108589 
L 280.548575 242.419988 
L 280.102175 239.073066 
L 279.655775 233.07966 
L 278.986175 219.646209 
L 276.307775 156.578239 
L 275.638175 145.713323 
L 275.191775 140.883452 
L 274.968575 139.82446 
L 274.745375 139.996838 
L 274.522175 141.608732 
L 274.298975 144.804363 
L 273.852575 156.057848 
L 273.182975 182.649688 
L 272.066975 228.861841 
L 271.620575 240.879688 
L 271.174175 248.442265 
L 270.727775 252.537467 
L 270.281375 254.50363 
L 269.834975 255.459809 
L 269.165375 256.21239 
L 268.718975 256.362211 
L 268.495775 256.251438 
L 268.272575 255.958428 
L 267.826175 254.67326 
L 267.379775 252.385165 
L 266.040575 244.231606 
L 265.817375 243.727589 
L 265.594175 243.669061 
L 265.370975 244.058267 
L 264.924575 245.992839 
L 263.138975 256.589826 
L 262.692575 257.842822 
L 262.022975 258.89985 
L 260.906975 259.989735 
L 259.790975 260.767105 
L 259.121375 261.019241 
L 256.666175 261.433009 
L 255.550175 261.418899 
L 254.210975 261.405406 
L 249.970175 261.587462 
L 248.854175 261.519551 
L 246.398975 261.128565 
L 245.282975 261.159304 
L 244.613375 260.969118 
L 243.943775 260.497294 
L 242.827775 259.569018 
L 242.381375 259.393453 
L 241.934975 259.457874 
L 241.488575 259.77658 
L 239.926175 261.223103 
L 239.256575 261.385145 
L 237.247775 261.325951 
L 235.462175 261.002997 
L 233.453375 261.105239 
L 232.114175 260.802939 
L 230.998175 260.359786 
L 230.328575 259.891767 
L 229.658975 259.176835 
L 228.542975 257.868953 
L 228.096575 257.642884 
L 227.650175 257.7326 
L 227.203775 258.13568 
L 225.641375 260.045498 
L 225.194975 260.236296 
L 224.748575 260.130914 
L 224.302175 259.691954 
L 223.855775 258.912002 
L 222.293375 255.625832 
L 222.070175 255.525011 
L 221.846975 255.589238 
L 221.400575 256.184788 
L 220.507775 258.366552 
L 219.838175 259.712328 
L 219.391775 260.207061 
L 218.945375 260.431512 
L 218.052575 260.514159 
L 216.490175 260.645888 
L 215.597375 260.753459 
L 215.150975 260.657506 
L 214.704575 260.390018 
L 213.365375 259.303907 
L 212.918975 259.303148 
L 212.472575 259.571213 
L 210.463775 261.412176 
L 209.794175 261.547652 
L 208.678175 261.47474 
L 206.669375 261.347414 
L 205.999775 261.239161 
L 205.553375 260.97206 
L 205.106975 260.441634 
L 204.437375 259.184205 
L 203.544575 257.534036 
L 203.098175 257.231583 
L 202.874975 257.27626 
L 202.428575 257.731169 
L 200.642975 260.591856 
L 199.973375 261.03188 
L 199.080575 261.265966 
L 197.964575 261.31059 
L 196.848575 261.33434 
L 195.509375 261.465868 
L 194.616575 261.313187 
L 192.161375 260.464158 
L 191.268575 259.859373 
L 190.375775 258.919023 
L 189.482975 258.022537 
L 189.036575 257.811685 
L 188.590175 257.850362 
L 188.143775 258.147151 
L 187.474175 258.946562 
L 186.358175 260.370088 
L 185.688575 260.854638 
L 185.018975 261.061043 
L 183.902975 261.123455 
L 181.670975 261.155359 
L 179.438975 261.607173 
L 177.876575 261.472942 
L 175.421375 261.175191 
L 174.082175 261.405415 
L 172.742975 261.592972 
L 171.850175 261.494293 
L 170.957375 261.113071 
L 169.394975 260.379655 
L 167.386175 259.724026 
L 166.493375 259.194784 
L 165.823775 258.581727 
L 165.154175 257.672005 
L 164.261375 256.397674 
L 163.814975 256.107271 
L 163.591775 256.117169 
L 163.145375 256.50196 
L 162.698975 257.339111 
L 161.359775 260.374536 
L 160.913375 260.878883 
L 160.466975 261.07738 
L 159.574175 261.061011 
L 158.904575 261.137317 
L 157.118975 261.568766 
L 156.226175 261.418304 
L 154.886975 261.122613 
L 153.770975 261.203143 
L 151.985375 261.40838 
L 150.422975 261.380388 
L 148.190975 261.327721 
L 146.851775 261.359733 
L 145.958975 261.078952 
L 145.066175 260.611201 
L 144.396575 259.967842 
L 143.057375 258.338925 
L 142.610975 258.301536 
L 142.164575 258.728496 
L 141.494975 259.937828 
L 140.825375 261.076026 
L 140.378975 261.489312 
L 139.932575 261.617376 
L 139.262975 261.519151 
L 136.807775 260.830674 
L 135.691775 260.478286 
L 134.798975 260.427372 
L 133.682975 260.449308 
L 133.013375 260.25364 
L 132.343775 259.836744 
L 130.558175 258.268083 
L 129.665375 257.222419 
L 128.772575 255.825281 
L 127.210175 252.924219 
L 126.317375 250.860358 
L 125.424575 248.179503 
L 123.415775 241.458845 
L 122.746175 240.255486 
L 122.076575 239.30731 
L 121.630175 238.127332 
L 121.183775 235.624305 
L 120.737375 230.436229 
L 120.290975 220.210161 
L 119.844575 201.914168 
L 119.398175 173.410285 
L 118.505375 93.734549 
L 117.835775 43.9378 
L 117.612575 35.86182 
L 117.389375 33.564774 
L 117.166175 37.340376 
L 116.942975 46.972794 
L 116.496575 80.631385 
L 115.157375 203.767531 
L 114.710975 226.501035 
L 114.264575 238.680579 
L 113.818175 244.317238 
L 113.148575 248.362989 
L 112.032575 253.466707 
L 111.362975 255.400399 
L 110.693375 256.643861 
L 110.023775 257.471157 
L 109.577375 257.691719 
L 109.130975 257.500882 
L 108.684575 256.916309 
L 107.791775 255.493787 
L 107.568575 255.336789 
L 107.345375 255.337611 
L 107.122175 255.513836 
L 106.675775 256.366678 
L 105.113375 260.617237 
L 104.666975 261.15519 
L 104.220575 261.380189 
L 103.327775 261.455198 
L 99.979775 261.461231 
L 99.310175 261.138668 
L 97.524575 259.853165 
L 97.078175 259.867139 
L 96.631775 260.061966 
L 94.622975 261.396568 
L 93.953375 261.486534 
L 91.498175 261.256158 
L 90.605375 261.069848 
L 89.935775 260.72278 
L 89.266175 260.121631 
L 88.596575 259.18101 
L 87.480575 256.959003 
L 86.810975 255.856823 
L 86.364575 255.597139 
L 86.141375 255.672442 
L 85.694975 256.241934 
L 85.025375 257.812213 
L 84.132575 259.960458 
L 83.686175 260.668152 
L 83.239775 261.089186 
L 82.570175 261.405736 
L 81.677375 261.550222 
L 80.561375 261.447824 
L 79.445375 261.343873 
L 75.204575 261.523965 
L 73.195775 261.373691 
L 70.517375 261.492152 
L 67.169375 261.395356 
L 61.366175 261.343392 
L 59.580575 261.492922 
L 57.571775 261.327418 
L 56.232575 261.169773 
L 55.116575 261.33295 
L 54.223775 261.398418 
L 51.768575 261.227842 
L 50.206175 261.409368 
L 50.206175 261.409368 
" clip-path="url(#p41416747a4)" style="fill: none; stroke: #1f77b4; stroke-linecap: round"/>
   </g>
   <g id="patch_3">
    <path d="M 50.429375 277.248797 
L 50.429375 11.136797 
" style="fill: none; stroke: #262626; stroke-width: 1.25; stroke-linejoin: miter; stroke-linecap: square"/>
   </g>
   <g id="patch_4">
    <path d="M 50.429375 277.248797 
L 407.549375 277.248797 
" style="fill: none; stroke: #262626; stroke-width: 1.25; stroke-linejoin: miter; stroke-linecap: square"/>
   </g>
   <g id="legend_1"/>
  </g>
 </g>
 <defs>
  <clipPath id="p41416747a4">
   <rect x="50.429375" y="11.136797" width="357.12" height="266.112"/>
  </clipPath>
 </defs>
</svg>
