<?xml version="1.0" encoding="utf-8" standalone="no"?>
<!DOCTYPE svg PUBLIC "-//W3C//DTD SVG 1.1//EN"
  "http://www.w3.org/Graphics/SVG/1.1/DTD/svg11.dtd">
<svg xmlns:xlink="http://www.w3.org/1999/xlink" width="427.291094pt" height="319.168641pt" viewBox="0 0 427.291094 319.168641" xmlns="http://www.w3.org/2000/svg" version="1.1">
 <metadata>
  <rdf:RDF xmlns:dc="http://purl.org/dc/elements/1.1/" xmlns:cc="http://creativecommons.org/ns#" xmlns:rdf="http://www.w3.org/1999/02/22-rdf-syntax-ns#">
   <cc:Work>
    <dc:type rdf:resource="http://purl.org/dc/dcmitype/StillImage"/>
    <dc:date>2024-05-21T19:58:23.331262</dc:date>
    <dc:format>image/svg+xml</dc:format>
    <dc:creator>
     <cc:Agent>
      <dc:title>Matplotlib v3.7.1, https://matplotlib.org/</dc:title>
     </cc:Agent>
    </dc:creator>
   </cc:Work>
  </rdf:RDF>
 </metadata>
 <defs>
  <style type="text/css">*{stroke-linejoin: round; stroke-linecap: butt}</style>
 </defs>
 <g id="figure_1">
  <g id="patch_1">
   <path d="M 0 319.168641 
L 427.291094 319.168641 
L 427.291094 0 
L 0 0 
z
" style="fill: #ffffff"/>
  </g>
  <g id="axes_1">
   <g id="patch_2">
    <path d="M 50.737031 277.248797 
L 407.857031 277.248797 
L 407.857031 11.136797 
L 50.737031 11.136797 
z
" style="fill: #ffffff"/>
   </g>
   <g id="matplotlib.axis_1">
    <g id="xtick_1">
     <g id="line2d_1">
      <defs>
       <path id="m8642467f91" d="M 0 0 
L 0 -6 
" style="stroke: #262626; stroke-width: 1.25"/>
      </defs>
      <g>
       <use xlink:href="#m8642467f91" x="50.737031" y="277.248797" style="fill: #262626; stroke: #262626; stroke-width: 1.25"/>
      </g>
     </g>
     <g id="text_1">
      <!-- 1400 -->
      <g style="fill: #262626" transform="translate(38.502969 288.622391) scale(0.11 -0.11)">
       <defs>
        <path id="ArialMT-31" d="M 2384 0 
L 1822 0 
L 1822 3584 
Q 1619 3391 1289 3197 
Q 959 3003 697 2906 
L 697 3450 
Q 1169 3672 1522 3987 
Q 1875 4303 2022 4600 
L 2384 4600 
L 2384 0 
z
" transform="scale(0.015625)"/>
        <path id="ArialMT-34" d="M 2069 0 
L 2069 1097 
L 81 1097 
L 81 1613 
L 2172 4581 
L 2631 4581 
L 2631 1613 
L 3250 1613 
L 3250 1097 
L 2631 1097 
L 2631 0 
L 2069 0 
z
M 2069 1613 
L 2069 3678 
L 634 1613 
L 2069 1613 
z
" transform="scale(0.015625)"/>
        <path id="ArialMT-30" d="M 266 2259 
Q 266 3072 433 3567 
Q 600 4063 929 4331 
Q 1259 4600 1759 4600 
Q 2128 4600 2406 4451 
Q 2684 4303 2865 4023 
Q 3047 3744 3150 3342 
Q 3253 2941 3253 2259 
Q 3253 1453 3087 958 
Q 2922 463 2592 192 
Q 2263 -78 1759 -78 
Q 1097 -78 719 397 
Q 266 969 266 2259 
z
M 844 2259 
Q 844 1131 1108 757 
Q 1372 384 1759 384 
Q 2147 384 2411 759 
Q 2675 1134 2675 2259 
Q 2675 3391 2411 3762 
Q 2147 4134 1753 4134 
Q 1366 4134 1134 3806 
Q 844 3388 844 2259 
z
" transform="scale(0.015625)"/>
       </defs>
       <use xlink:href="#ArialMT-31"/>
       <use xlink:href="#ArialMT-34" x="55.615234"/>
       <use xlink:href="#ArialMT-30" x="111.230469"/>
       <use xlink:href="#ArialMT-30" x="166.845703"/>
      </g>
     </g>
    </g>
    <g id="xtick_2">
     <g id="line2d_2">
      <g>
       <use xlink:href="#m8642467f91" x="101.754174" y="277.248797" style="fill: #262626; stroke: #262626; stroke-width: 1.25"/>
      </g>
     </g>
     <g id="text_2">
      <!-- 1600 -->
      <g style="fill: #262626" transform="translate(89.520112 288.622391) scale(0.11 -0.11)">
       <defs>
        <path id="ArialMT-36" d="M 3184 3459 
L 2625 3416 
Q 2550 3747 2413 3897 
Q 2184 4138 1850 4138 
Q 1581 4138 1378 3988 
Q 1113 3794 959 3422 
Q 806 3050 800 2363 
Q 1003 2672 1297 2822 
Q 1591 2972 1913 2972 
Q 2475 2972 2870 2558 
Q 3266 2144 3266 1488 
Q 3266 1056 3080 686 
Q 2894 316 2569 119 
Q 2244 -78 1831 -78 
Q 1128 -78 684 439 
Q 241 956 241 2144 
Q 241 3472 731 4075 
Q 1159 4600 1884 4600 
Q 2425 4600 2770 4297 
Q 3116 3994 3184 3459 
z
M 888 1484 
Q 888 1194 1011 928 
Q 1134 663 1356 523 
Q 1578 384 1822 384 
Q 2178 384 2434 671 
Q 2691 959 2691 1453 
Q 2691 1928 2437 2201 
Q 2184 2475 1800 2475 
Q 1419 2475 1153 2201 
Q 888 1928 888 1484 
z
" transform="scale(0.015625)"/>
       </defs>
       <use xlink:href="#ArialMT-31"/>
       <use xlink:href="#ArialMT-36" x="55.615234"/>
       <use xlink:href="#ArialMT-30" x="111.230469"/>
       <use xlink:href="#ArialMT-30" x="166.845703"/>
      </g>
     </g>
    </g>
    <g id="xtick_3">
     <g id="line2d_3">
      <g>
       <use xlink:href="#m8642467f91" x="152.771317" y="277.248797" style="fill: #262626; stroke: #262626; stroke-width: 1.25"/>
      </g>
     </g>
     <g id="text_3">
      <!-- 1800 -->
      <g style="fill: #262626" transform="translate(140.537254 288.622391) scale(0.11 -0.11)">
       <defs>
        <path id="ArialMT-38" d="M 1131 2484 
Q 781 2613 612 2850 
Q 444 3088 444 3419 
Q 444 3919 803 4259 
Q 1163 4600 1759 4600 
Q 2359 4600 2725 4251 
Q 3091 3903 3091 3403 
Q 3091 3084 2923 2848 
Q 2756 2613 2416 2484 
Q 2838 2347 3058 2040 
Q 3278 1734 3278 1309 
Q 3278 722 2862 322 
Q 2447 -78 1769 -78 
Q 1091 -78 675 323 
Q 259 725 259 1325 
Q 259 1772 486 2073 
Q 713 2375 1131 2484 
z
M 1019 3438 
Q 1019 3113 1228 2906 
Q 1438 2700 1772 2700 
Q 2097 2700 2305 2904 
Q 2513 3109 2513 3406 
Q 2513 3716 2298 3927 
Q 2084 4138 1766 4138 
Q 1444 4138 1231 3931 
Q 1019 3725 1019 3438 
z
M 838 1322 
Q 838 1081 952 856 
Q 1066 631 1291 507 
Q 1516 384 1775 384 
Q 2178 384 2440 643 
Q 2703 903 2703 1303 
Q 2703 1709 2433 1975 
Q 2163 2241 1756 2241 
Q 1359 2241 1098 1978 
Q 838 1716 838 1322 
z
" transform="scale(0.015625)"/>
       </defs>
       <use xlink:href="#ArialMT-31"/>
       <use xlink:href="#ArialMT-38" x="55.615234"/>
       <use xlink:href="#ArialMT-30" x="111.230469"/>
       <use xlink:href="#ArialMT-30" x="166.845703"/>
      </g>
     </g>
    </g>
    <g id="xtick_4">
     <g id="line2d_4">
      <g>
       <use xlink:href="#m8642467f91" x="203.78846" y="277.248797" style="fill: #262626; stroke: #262626; stroke-width: 1.25"/>
      </g>
     </g>
     <g id="text_4">
      <!-- 2000 -->
      <g style="fill: #262626" transform="translate(191.554397 288.622391) scale(0.11 -0.11)">
       <defs>
        <path id="ArialMT-32" d="M 3222 541 
L 3222 0 
L 194 0 
Q 188 203 259 391 
Q 375 700 629 1000 
Q 884 1300 1366 1694 
Q 2113 2306 2375 2664 
Q 2638 3022 2638 3341 
Q 2638 3675 2398 3904 
Q 2159 4134 1775 4134 
Q 1369 4134 1125 3890 
Q 881 3647 878 3216 
L 300 3275 
Q 359 3922 746 4261 
Q 1134 4600 1788 4600 
Q 2447 4600 2831 4234 
Q 3216 3869 3216 3328 
Q 3216 3053 3103 2787 
Q 2991 2522 2730 2228 
Q 2469 1934 1863 1422 
Q 1356 997 1212 845 
Q 1069 694 975 541 
L 3222 541 
z
" transform="scale(0.015625)"/>
       </defs>
       <use xlink:href="#ArialMT-32"/>
       <use xlink:href="#ArialMT-30" x="55.615234"/>
       <use xlink:href="#ArialMT-30" x="111.230469"/>
       <use xlink:href="#ArialMT-30" x="166.845703"/>
      </g>
     </g>
    </g>
    <g id="xtick_5">
     <g id="line2d_5">
      <g>
       <use xlink:href="#m8642467f91" x="254.805603" y="277.248797" style="fill: #262626; stroke: #262626; stroke-width: 1.25"/>
      </g>
     </g>
     <g id="text_5">
      <!-- 2200 -->
      <g style="fill: #262626" transform="translate(242.57154 288.622391) scale(0.11 -0.11)">
       <use xlink:href="#ArialMT-32"/>
       <use xlink:href="#ArialMT-32" x="55.615234"/>
       <use xlink:href="#ArialMT-30" x="111.230469"/>
       <use xlink:href="#ArialMT-30" x="166.845703"/>
      </g>
     </g>
    </g>
    <g id="xtick_6">
     <g id="line2d_6">
      <g>
       <use xlink:href="#m8642467f91" x="305.822746" y="277.248797" style="fill: #262626; stroke: #262626; stroke-width: 1.25"/>
      </g>
     </g>
     <g id="text_6">
      <!-- 2400 -->
      <g style="fill: #262626" transform="translate(293.588683 288.622391) scale(0.11 -0.11)">
       <use xlink:href="#ArialMT-32"/>
       <use xlink:href="#ArialMT-34" x="55.615234"/>
       <use xlink:href="#ArialMT-30" x="111.230469"/>
       <use xlink:href="#ArialMT-30" x="166.845703"/>
      </g>
     </g>
    </g>
    <g id="xtick_7">
     <g id="line2d_7">
      <g>
       <use xlink:href="#m8642467f91" x="356.839888" y="277.248797" style="fill: #262626; stroke: #262626; stroke-width: 1.25"/>
      </g>
     </g>
     <g id="text_7">
      <!-- 2600 -->
      <g style="fill: #262626" transform="translate(344.605826 288.622391) scale(0.11 -0.11)">
       <use xlink:href="#ArialMT-32"/>
       <use xlink:href="#ArialMT-36" x="55.615234"/>
       <use xlink:href="#ArialMT-30" x="111.230469"/>
       <use xlink:href="#ArialMT-30" x="166.845703"/>
      </g>
     </g>
    </g>
    <g id="xtick_8">
     <g id="line2d_8">
      <g>
       <use xlink:href="#m8642467f91" x="407.857031" y="277.248797" style="fill: #262626; stroke: #262626; stroke-width: 1.25"/>
      </g>
     </g>
     <g id="text_8">
      <!-- 2800 -->
      <g style="fill: #262626" transform="translate(395.622969 288.622391) scale(0.11 -0.11)">
       <use xlink:href="#ArialMT-32"/>
       <use xlink:href="#ArialMT-38" x="55.615234"/>
       <use xlink:href="#ArialMT-30" x="111.230469"/>
       <use xlink:href="#ArialMT-30" x="166.845703"/>
      </g>
     </g>
    </g>
    <g id="xtick_9">
     <g id="line2d_9">
      <defs>
       <path id="m7755cbc20f" d="M 0 0 
L 0 -4 
" style="stroke: #262626"/>
      </defs>
      <g>
       <use xlink:href="#m7755cbc20f" x="76.245603" y="277.248797" style="fill: #262626; stroke: #262626"/>
      </g>
     </g>
    </g>
    <g id="xtick_10">
     <g id="line2d_10">
      <g>
       <use xlink:href="#m7755cbc20f" x="127.262746" y="277.248797" style="fill: #262626; stroke: #262626"/>
      </g>
     </g>
    </g>
    <g id="xtick_11">
     <g id="line2d_11">
      <g>
       <use xlink:href="#m7755cbc20f" x="178.279888" y="277.248797" style="fill: #262626; stroke: #262626"/>
      </g>
     </g>
    </g>
    <g id="xtick_12">
     <g id="line2d_12">
      <g>
       <use xlink:href="#m7755cbc20f" x="229.297031" y="277.248797" style="fill: #262626; stroke: #262626"/>
      </g>
     </g>
    </g>
    <g id="xtick_13">
     <g id="line2d_13">
      <g>
       <use xlink:href="#m7755cbc20f" x="280.314174" y="277.248797" style="fill: #262626; stroke: #262626"/>
      </g>
     </g>
    </g>
    <g id="xtick_14">
     <g id="line2d_14">
      <g>
       <use xlink:href="#m7755cbc20f" x="331.331317" y="277.248797" style="fill: #262626; stroke: #262626"/>
      </g>
     </g>
    </g>
    <g id="xtick_15">
     <g id="line2d_15">
      <g>
       <use xlink:href="#m7755cbc20f" x="382.34846" y="277.248797" style="fill: #262626; stroke: #262626"/>
      </g>
     </g>
    </g>
    <g id="text_9">
     <!-- Wavenumber ($\mathregular{cm^{-1}}$) -->
     <g style="fill: #262626" transform="translate(174.757031 309.328641) scale(0.12 -0.12)">
      <defs>
       <path id="ArialMT-57" d="M 1294 0 
L 78 4581 
L 700 4581 
L 1397 1578 
Q 1509 1106 1591 641 
Q 1766 1375 1797 1488 
L 2669 4581 
L 3400 4581 
L 4056 2263 
Q 4303 1400 4413 641 
Q 4500 1075 4641 1638 
L 5359 4581 
L 5969 4581 
L 4713 0 
L 4128 0 
L 3163 3491 
Q 3041 3928 3019 4028 
Q 2947 3713 2884 3491 
L 1913 0 
L 1294 0 
z
" transform="scale(0.015625)"/>
       <path id="ArialMT-61" d="M 2588 409 
Q 2275 144 1986 34 
Q 1697 -75 1366 -75 
Q 819 -75 525 192 
Q 231 459 231 875 
Q 231 1119 342 1320 
Q 453 1522 633 1644 
Q 813 1766 1038 1828 
Q 1203 1872 1538 1913 
Q 2219 1994 2541 2106 
Q 2544 2222 2544 2253 
Q 2544 2597 2384 2738 
Q 2169 2928 1744 2928 
Q 1347 2928 1158 2789 
Q 969 2650 878 2297 
L 328 2372 
Q 403 2725 575 2942 
Q 747 3159 1072 3276 
Q 1397 3394 1825 3394 
Q 2250 3394 2515 3294 
Q 2781 3194 2906 3042 
Q 3031 2891 3081 2659 
Q 3109 2516 3109 2141 
L 3109 1391 
Q 3109 606 3145 398 
Q 3181 191 3288 0 
L 2700 0 
Q 2613 175 2588 409 
z
M 2541 1666 
Q 2234 1541 1622 1453 
Q 1275 1403 1131 1340 
Q 988 1278 909 1158 
Q 831 1038 831 891 
Q 831 666 1001 516 
Q 1172 366 1500 366 
Q 1825 366 2078 508 
Q 2331 650 2450 897 
Q 2541 1088 2541 1459 
L 2541 1666 
z
" transform="scale(0.015625)"/>
       <path id="ArialMT-76" d="M 1344 0 
L 81 3319 
L 675 3319 
L 1388 1331 
Q 1503 1009 1600 663 
Q 1675 925 1809 1294 
L 2547 3319 
L 3125 3319 
L 1869 0 
L 1344 0 
z
" transform="scale(0.015625)"/>
       <path id="ArialMT-65" d="M 2694 1069 
L 3275 997 
Q 3138 488 2766 206 
Q 2394 -75 1816 -75 
Q 1088 -75 661 373 
Q 234 822 234 1631 
Q 234 2469 665 2931 
Q 1097 3394 1784 3394 
Q 2450 3394 2872 2941 
Q 3294 2488 3294 1666 
Q 3294 1616 3291 1516 
L 816 1516 
Q 847 969 1125 678 
Q 1403 388 1819 388 
Q 2128 388 2347 550 
Q 2566 713 2694 1069 
z
M 847 1978 
L 2700 1978 
Q 2663 2397 2488 2606 
Q 2219 2931 1791 2931 
Q 1403 2931 1139 2672 
Q 875 2413 847 1978 
z
" transform="scale(0.015625)"/>
       <path id="ArialMT-6e" d="M 422 0 
L 422 3319 
L 928 3319 
L 928 2847 
Q 1294 3394 1984 3394 
Q 2284 3394 2536 3286 
Q 2788 3178 2913 3003 
Q 3038 2828 3088 2588 
Q 3119 2431 3119 2041 
L 3119 0 
L 2556 0 
L 2556 2019 
Q 2556 2363 2490 2533 
Q 2425 2703 2258 2804 
Q 2091 2906 1866 2906 
Q 1506 2906 1245 2678 
Q 984 2450 984 1813 
L 984 0 
L 422 0 
z
" transform="scale(0.015625)"/>
       <path id="ArialMT-75" d="M 2597 0 
L 2597 488 
Q 2209 -75 1544 -75 
Q 1250 -75 995 37 
Q 741 150 617 320 
Q 494 491 444 738 
Q 409 903 409 1263 
L 409 3319 
L 972 3319 
L 972 1478 
Q 972 1038 1006 884 
Q 1059 663 1231 536 
Q 1403 409 1656 409 
Q 1909 409 2131 539 
Q 2353 669 2445 892 
Q 2538 1116 2538 1541 
L 2538 3319 
L 3100 3319 
L 3100 0 
L 2597 0 
z
" transform="scale(0.015625)"/>
       <path id="ArialMT-6d" d="M 422 0 
L 422 3319 
L 925 3319 
L 925 2853 
Q 1081 3097 1340 3245 
Q 1600 3394 1931 3394 
Q 2300 3394 2536 3241 
Q 2772 3088 2869 2813 
Q 3263 3394 3894 3394 
Q 4388 3394 4653 3120 
Q 4919 2847 4919 2278 
L 4919 0 
L 4359 0 
L 4359 2091 
Q 4359 2428 4304 2576 
Q 4250 2725 4106 2815 
Q 3963 2906 3769 2906 
Q 3419 2906 3187 2673 
Q 2956 2441 2956 1928 
L 2956 0 
L 2394 0 
L 2394 2156 
Q 2394 2531 2256 2718 
Q 2119 2906 1806 2906 
Q 1569 2906 1367 2781 
Q 1166 2656 1075 2415 
Q 984 2175 984 1722 
L 984 0 
L 422 0 
z
" transform="scale(0.015625)"/>
       <path id="ArialMT-62" d="M 941 0 
L 419 0 
L 419 4581 
L 981 4581 
L 981 2947 
Q 1338 3394 1891 3394 
Q 2197 3394 2470 3270 
Q 2744 3147 2920 2923 
Q 3097 2700 3197 2384 
Q 3297 2069 3297 1709 
Q 3297 856 2875 390 
Q 2453 -75 1863 -75 
Q 1275 -75 941 416 
L 941 0 
z
M 934 1684 
Q 934 1088 1097 822 
Q 1363 388 1816 388 
Q 2184 388 2453 708 
Q 2722 1028 2722 1663 
Q 2722 2313 2464 2622 
Q 2206 2931 1841 2931 
Q 1472 2931 1203 2611 
Q 934 2291 934 1684 
z
" transform="scale(0.015625)"/>
       <path id="ArialMT-72" d="M 416 0 
L 416 3319 
L 922 3319 
L 922 2816 
Q 1116 3169 1280 3281 
Q 1444 3394 1641 3394 
Q 1925 3394 2219 3213 
L 2025 2691 
Q 1819 2813 1613 2813 
Q 1428 2813 1281 2702 
Q 1134 2591 1072 2394 
Q 978 2094 978 1738 
L 978 0 
L 416 0 
z
" transform="scale(0.015625)"/>
       <path id="ArialMT-20" transform="scale(0.015625)"/>
       <path id="ArialMT-28" d="M 1497 -1347 
Q 1031 -759 709 28 
Q 388 816 388 1659 
Q 388 2403 628 3084 
Q 909 3875 1497 4659 
L 1900 4659 
Q 1522 4009 1400 3731 
Q 1209 3300 1100 2831 
Q 966 2247 966 1656 
Q 966 153 1900 -1347 
L 1497 -1347 
z
" transform="scale(0.015625)"/>
       <path id="ArialMT-63" d="M 2588 1216 
L 3141 1144 
Q 3050 572 2676 248 
Q 2303 -75 1759 -75 
Q 1078 -75 664 370 
Q 250 816 250 1647 
Q 250 2184 428 2587 
Q 606 2991 970 3192 
Q 1334 3394 1763 3394 
Q 2303 3394 2647 3120 
Q 2991 2847 3088 2344 
L 2541 2259 
Q 2463 2594 2264 2762 
Q 2066 2931 1784 2931 
Q 1359 2931 1093 2626 
Q 828 2322 828 1663 
Q 828 994 1084 691 
Q 1341 388 1753 388 
Q 2084 388 2306 591 
Q 2528 794 2588 1216 
z
" transform="scale(0.015625)"/>
       <path id="ArialMT-2212" d="M 3381 1997 
L 356 1997 
L 356 2522 
L 3381 2522 
L 3381 1997 
z
" transform="scale(0.015625)"/>
       <path id="ArialMT-29" d="M 791 -1347 
L 388 -1347 
Q 1322 153 1322 1656 
Q 1322 2244 1188 2822 
Q 1081 3291 891 3722 
Q 769 4003 388 4659 
L 791 4659 
Q 1378 3875 1659 3084 
Q 1900 2403 1900 1659 
Q 1900 816 1576 28 
Q 1253 -759 791 -1347 
z
" transform="scale(0.015625)"/>
      </defs>
      <use xlink:href="#ArialMT-57" transform="translate(0 0.99375)"/>
      <use xlink:href="#ArialMT-61" transform="translate(94.384766 0.99375)"/>
      <use xlink:href="#ArialMT-76" transform="translate(150 0.99375)"/>
      <use xlink:href="#ArialMT-65" transform="translate(200 0.99375)"/>
      <use xlink:href="#ArialMT-6e" transform="translate(255.615234 0.99375)"/>
      <use xlink:href="#ArialMT-75" transform="translate(311.230469 0.99375)"/>
      <use xlink:href="#ArialMT-6d" transform="translate(366.845703 0.99375)"/>
      <use xlink:href="#ArialMT-62" transform="translate(450.146484 0.99375)"/>
      <use xlink:href="#ArialMT-65" transform="translate(505.761719 0.99375)"/>
      <use xlink:href="#ArialMT-72" transform="translate(561.376953 0.99375)"/>
      <use xlink:href="#ArialMT-20" transform="translate(594.677734 0.99375)"/>
      <use xlink:href="#ArialMT-28" transform="translate(622.460938 0.99375)"/>
      <use xlink:href="#ArialMT-63" transform="translate(655.761719 0.99375)"/>
      <use xlink:href="#ArialMT-6d" transform="translate(705.761719 0.99375)"/>
      <use xlink:href="#ArialMT-2212" transform="translate(790.804844 70.6875) scale(0.7)"/>
      <use xlink:href="#ArialMT-31" transform="translate(831.68375 70.6875) scale(0.7)"/>
      <use xlink:href="#ArialMT-29" transform="translate(875.592539 0.99375)"/>
     </g>
    </g>
   </g>
   <g id="matplotlib.axis_2">
    <g id="ytick_1">
     <g id="line2d_16">
      <defs>
       <path id="m7026861ef3" d="M 0 0 
L 6 0 
" style="stroke: #262626; stroke-width: 1.25"/>
      </defs>
      <g>
       <use xlink:href="#m7026861ef3" x="50.737031" y="277.248797" style="fill: #262626; stroke: #262626; stroke-width: 1.25"/>
      </g>
     </g>
     <g id="text_10">
      <!-- −200 -->
      <g style="fill: #262626" transform="translate(22.46125 281.185594) scale(0.11 -0.11)">
       <use xlink:href="#ArialMT-2212"/>
       <use xlink:href="#ArialMT-32" x="58.398438"/>
       <use xlink:href="#ArialMT-30" x="114.013672"/>
       <use xlink:href="#ArialMT-30" x="169.628906"/>
      </g>
     </g>
    </g>
    <g id="ytick_2">
     <g id="line2d_17">
      <g>
       <use xlink:href="#m7026861ef3" x="50.737031" y="239.232797" style="fill: #262626; stroke: #262626; stroke-width: 1.25"/>
      </g>
     </g>
     <g id="text_11">
      <!-- 0 -->
      <g style="fill: #262626" transform="translate(41.12 243.169594) scale(0.11 -0.11)">
       <use xlink:href="#ArialMT-30"/>
      </g>
     </g>
    </g>
    <g id="ytick_3">
     <g id="line2d_18">
      <g>
       <use xlink:href="#m7026861ef3" x="50.737031" y="201.216797" style="fill: #262626; stroke: #262626; stroke-width: 1.25"/>
      </g>
     </g>
     <g id="text_12">
      <!-- 200 -->
      <g style="fill: #262626" transform="translate(28.885938 205.153594) scale(0.11 -0.11)">
       <use xlink:href="#ArialMT-32"/>
       <use xlink:href="#ArialMT-30" x="55.615234"/>
       <use xlink:href="#ArialMT-30" x="111.230469"/>
      </g>
     </g>
    </g>
    <g id="ytick_4">
     <g id="line2d_19">
      <g>
       <use xlink:href="#m7026861ef3" x="50.737031" y="163.200797" style="fill: #262626; stroke: #262626; stroke-width: 1.25"/>
      </g>
     </g>
     <g id="text_13">
      <!-- 400 -->
      <g style="fill: #262626" transform="translate(28.885938 167.137594) scale(0.11 -0.11)">
       <use xlink:href="#ArialMT-34"/>
       <use xlink:href="#ArialMT-30" x="55.615234"/>
       <use xlink:href="#ArialMT-30" x="111.230469"/>
      </g>
     </g>
    </g>
    <g id="ytick_5">
     <g id="line2d_20">
      <g>
       <use xlink:href="#m7026861ef3" x="50.737031" y="125.184797" style="fill: #262626; stroke: #262626; stroke-width: 1.25"/>
      </g>
     </g>
     <g id="text_14">
      <!-- 600 -->
      <g style="fill: #262626" transform="translate(28.885938 129.121594) scale(0.11 -0.11)">
       <use xlink:href="#ArialMT-36"/>
       <use xlink:href="#ArialMT-30" x="55.615234"/>
       <use xlink:href="#ArialMT-30" x="111.230469"/>
      </g>
     </g>
    </g>
    <g id="ytick_6">
     <g id="line2d_21">
      <g>
       <use xlink:href="#m7026861ef3" x="50.737031" y="87.168797" style="fill: #262626; stroke: #262626; stroke-width: 1.25"/>
      </g>
     </g>
     <g id="text_15">
      <!-- 800 -->
      <g style="fill: #262626" transform="translate(28.885938 91.105594) scale(0.11 -0.11)">
       <use xlink:href="#ArialMT-38"/>
       <use xlink:href="#ArialMT-30" x="55.615234"/>
       <use xlink:href="#ArialMT-30" x="111.230469"/>
      </g>
     </g>
    </g>
    <g id="ytick_7">
     <g id="line2d_22">
      <g>
       <use xlink:href="#m7026861ef3" x="50.737031" y="49.152797" style="fill: #262626; stroke: #262626; stroke-width: 1.25"/>
      </g>
     </g>
     <g id="text_16">
      <!-- 1000 -->
      <g style="fill: #262626" transform="translate(22.768906 53.089594) scale(0.11 -0.11)">
       <use xlink:href="#ArialMT-31"/>
       <use xlink:href="#ArialMT-30" x="55.615234"/>
       <use xlink:href="#ArialMT-30" x="111.230469"/>
       <use xlink:href="#ArialMT-30" x="166.845703"/>
      </g>
     </g>
    </g>
    <g id="ytick_8">
     <g id="line2d_23">
      <g>
       <use xlink:href="#m7026861ef3" x="50.737031" y="11.136797" style="fill: #262626; stroke: #262626; stroke-width: 1.25"/>
      </g>
     </g>
     <g id="text_17">
      <!-- 1200 -->
      <g style="fill: #262626" transform="translate(22.768906 15.073594) scale(0.11 -0.11)">
       <use xlink:href="#ArialMT-31"/>
       <use xlink:href="#ArialMT-32" x="55.615234"/>
       <use xlink:href="#ArialMT-30" x="111.230469"/>
       <use xlink:href="#ArialMT-30" x="166.845703"/>
      </g>
     </g>
    </g>
    <g id="ytick_9">
     <g id="line2d_24">
      <defs>
       <path id="mca60b08b52" d="M 0 0 
L 4 0 
" style="stroke: #262626"/>
      </defs>
      <g>
       <use xlink:href="#mca60b08b52" x="50.737031" y="258.240797" style="fill: #262626; stroke: #262626"/>
      </g>
     </g>
    </g>
    <g id="ytick_10">
     <g id="line2d_25">
      <g>
       <use xlink:href="#mca60b08b52" x="50.737031" y="220.224797" style="fill: #262626; stroke: #262626"/>
      </g>
     </g>
    </g>
    <g id="ytick_11">
     <g id="line2d_26">
      <g>
       <use xlink:href="#mca60b08b52" x="50.737031" y="182.208797" style="fill: #262626; stroke: #262626"/>
      </g>
     </g>
    </g>
    <g id="ytick_12">
     <g id="line2d_27">
      <g>
       <use xlink:href="#mca60b08b52" x="50.737031" y="144.192797" style="fill: #262626; stroke: #262626"/>
      </g>
     </g>
    </g>
    <g id="ytick_13">
     <g id="line2d_28">
      <g>
       <use xlink:href="#mca60b08b52" x="50.737031" y="106.176797" style="fill: #262626; stroke: #262626"/>
      </g>
     </g>
    </g>
    <g id="ytick_14">
     <g id="line2d_29">
      <g>
       <use xlink:href="#mca60b08b52" x="50.737031" y="68.160797" style="fill: #262626; stroke: #262626"/>
      </g>
     </g>
    </g>
    <g id="ytick_15">
     <g id="line2d_30">
      <g>
       <use xlink:href="#mca60b08b52" x="50.737031" y="30.144797" style="fill: #262626; stroke: #262626"/>
      </g>
     </g>
    </g>
    <g id="text_18">
     <!-- Intensity (a.u.) -->
     <g style="fill: #262626" transform="translate(15.935625 182.205609) rotate(-90) scale(0.12 -0.12)">
      <defs>
       <path id="ArialMT-49" d="M 597 0 
L 597 4581 
L 1203 4581 
L 1203 0 
L 597 0 
z
" transform="scale(0.015625)"/>
       <path id="ArialMT-74" d="M 1650 503 
L 1731 6 
Q 1494 -44 1306 -44 
Q 1000 -44 831 53 
Q 663 150 594 308 
Q 525 466 525 972 
L 525 2881 
L 113 2881 
L 113 3319 
L 525 3319 
L 525 4141 
L 1084 4478 
L 1084 3319 
L 1650 3319 
L 1650 2881 
L 1084 2881 
L 1084 941 
Q 1084 700 1114 631 
Q 1144 563 1211 522 
Q 1278 481 1403 481 
Q 1497 481 1650 503 
z
" transform="scale(0.015625)"/>
       <path id="ArialMT-73" d="M 197 991 
L 753 1078 
Q 800 744 1014 566 
Q 1228 388 1613 388 
Q 2000 388 2187 545 
Q 2375 703 2375 916 
Q 2375 1106 2209 1216 
Q 2094 1291 1634 1406 
Q 1016 1563 777 1677 
Q 538 1791 414 1992 
Q 291 2194 291 2438 
Q 291 2659 392 2848 
Q 494 3038 669 3163 
Q 800 3259 1026 3326 
Q 1253 3394 1513 3394 
Q 1903 3394 2198 3281 
Q 2494 3169 2634 2976 
Q 2775 2784 2828 2463 
L 2278 2388 
Q 2241 2644 2061 2787 
Q 1881 2931 1553 2931 
Q 1166 2931 1000 2803 
Q 834 2675 834 2503 
Q 834 2394 903 2306 
Q 972 2216 1119 2156 
Q 1203 2125 1616 2013 
Q 2213 1853 2448 1751 
Q 2684 1650 2818 1456 
Q 2953 1263 2953 975 
Q 2953 694 2789 445 
Q 2625 197 2315 61 
Q 2006 -75 1616 -75 
Q 969 -75 630 194 
Q 291 463 197 991 
z
" transform="scale(0.015625)"/>
       <path id="ArialMT-69" d="M 425 3934 
L 425 4581 
L 988 4581 
L 988 3934 
L 425 3934 
z
M 425 0 
L 425 3319 
L 988 3319 
L 988 0 
L 425 0 
z
" transform="scale(0.015625)"/>
       <path id="ArialMT-79" d="M 397 -1278 
L 334 -750 
Q 519 -800 656 -800 
Q 844 -800 956 -737 
Q 1069 -675 1141 -563 
Q 1194 -478 1313 -144 
Q 1328 -97 1363 -6 
L 103 3319 
L 709 3319 
L 1400 1397 
Q 1534 1031 1641 628 
Q 1738 1016 1872 1384 
L 2581 3319 
L 3144 3319 
L 1881 -56 
Q 1678 -603 1566 -809 
Q 1416 -1088 1222 -1217 
Q 1028 -1347 759 -1347 
Q 597 -1347 397 -1278 
z
" transform="scale(0.015625)"/>
       <path id="ArialMT-2e" d="M 581 0 
L 581 641 
L 1222 641 
L 1222 0 
L 581 0 
z
" transform="scale(0.015625)"/>
      </defs>
      <use xlink:href="#ArialMT-49"/>
      <use xlink:href="#ArialMT-6e" x="27.783203"/>
      <use xlink:href="#ArialMT-74" x="83.398438"/>
      <use xlink:href="#ArialMT-65" x="111.181641"/>
      <use xlink:href="#ArialMT-6e" x="166.796875"/>
      <use xlink:href="#ArialMT-73" x="222.412109"/>
      <use xlink:href="#ArialMT-69" x="272.412109"/>
      <use xlink:href="#ArialMT-74" x="294.628906"/>
      <use xlink:href="#ArialMT-79" x="322.412109"/>
      <use xlink:href="#ArialMT-20" x="372.412109"/>
      <use xlink:href="#ArialMT-28" x="400.195312"/>
      <use xlink:href="#ArialMT-61" x="433.496094"/>
      <use xlink:href="#ArialMT-2e" x="489.111328"/>
      <use xlink:href="#ArialMT-75" x="516.894531"/>
      <use xlink:href="#ArialMT-2e" x="572.509766"/>
      <use xlink:href="#ArialMT-29" x="600.292969"/>
     </g>
    </g>
   </g>
   <g id="PolyCollection_1"/>
   <g id="line2d_31">
    <path d="M 50.609488 225.608898 
L 50.992117 228.573331 
L 51.11966 228.910921 
L 51.247203 228.733968 
L 51.502288 227.184606 
L 51.884917 224.771408 
L 52.01246 224.662629 
L 52.267546 225.432852 
L 52.522631 226.241485 
L 52.650174 226.324052 
L 52.90526 226.015751 
L 53.287888 225.042049 
L 53.670517 223.308607 
L 54.180688 220.749163 
L 54.308231 220.984452 
L 55.073488 225.063606 
L 55.328574 224.948311 
L 56.348917 223.630713 
L 56.731546 221.489238 
L 56.986631 220.285278 
L 57.241717 220.041754 
L 57.496803 219.978871 
L 57.751888 219.807685 
L 57.879431 219.912762 
L 58.134517 220.840477 
L 58.772231 224.246399 
L 58.899774 224.429614 
L 59.027317 224.32774 
L 59.665031 222.776602 
L 60.175203 224.048553 
L 60.302746 223.960857 
L 61.068003 221.954772 
L 61.450631 221.215019 
L 61.578174 221.236007 
L 61.83326 221.788366 
L 62.088346 223.193474 
L 62.981146 230.473148 
L 63.108688 230.25299 
L 63.491317 228.089019 
L 63.873946 226.289026 
L 64.129031 225.786505 
L 64.256574 225.737719 
L 64.51166 225.965734 
L 64.766746 226.578738 
L 65.021831 228.187642 
L 65.532003 232.806084 
L 65.659546 233.099972 
L 65.787088 233.034138 
L 66.169717 232.63987 
L 66.552346 232.644037 
L 67.317603 231.97118 
L 67.572688 232.762631 
L 68.337946 237.267674 
L 68.720574 237.926333 
L 68.848117 237.949046 
L 68.97566 237.728399 
L 69.358288 235.945479 
L 69.996003 232.956393 
L 70.506174 231.65586 
L 70.633717 231.604871 
L 71.143888 232.371198 
L 71.398974 231.042358 
L 71.909146 227.412125 
L 72.164231 226.739145 
L 72.291774 226.758517 
L 72.54686 227.575671 
L 72.929488 230.336551 
L 73.822288 238.572577 
L 73.949831 238.602455 
L 74.204917 237.926134 
L 74.970174 235.151994 
L 75.097717 235.065095 
L 75.352803 235.366802 
L 76.245603 236.702543 
L 76.373146 236.549766 
L 76.628231 235.531673 
L 77.648574 229.621405 
L 78.541374 228.076954 
L 78.668917 228.177575 
L 78.924003 229.003212 
L 79.434174 232.318829 
L 79.816803 233.907438 
L 80.071888 234.304927 
L 80.199431 234.12445 
L 80.326974 233.374754 
L 80.58206 229.937615 
L 81.219774 219.261416 
L 81.47486 217.954605 
L 81.602403 218.304143 
L 81.985031 221.503106 
L 82.36766 223.872765 
L 82.622746 224.253383 
L 82.877831 224.314302 
L 83.005374 224.009077 
L 83.26046 222.368922 
L 84.025717 215.727054 
L 84.663431 213.519525 
L 84.918517 211.014527 
L 85.93886 195.900761 
L 87.72446 155.059551 
L 88.107088 137.318894 
L 88.489717 103.378059 
L 88.872346 45.576708 
L 89.101291 -1 
M 93.398342 -1 
L 94.101603 88.590662 
L 94.86686 155.337873 
L 95.632117 200.236073 
L 96.142288 220.123686 
L 96.65246 230.661354 
L 97.162631 237.048023 
L 97.290174 237.761139 
L 97.417717 237.740623 
L 97.672803 235.296118 
L 98.43806 221.978194 
L 99.203317 202.521975 
L 99.458403 201.381127 
L 99.713488 203.037328 
L 100.096117 207.943821 
L 100.478746 215.510737 
L 101.11646 229.401183 
L 101.499088 232.801052 
L 101.881717 233.770109 
L 102.264346 234.374656 
L 102.519431 234.319539 
L 102.646974 234.293507 
L 102.774517 234.43777 
L 103.539774 236.437591 
L 103.922403 236.465958 
L 104.305031 236.608953 
L 104.560117 236.419286 
L 105.070288 235.404871 
L 105.325374 235.666172 
L 105.452917 235.793307 
L 105.58046 235.70924 
L 105.835546 234.871714 
L 106.218174 233.746531 
L 106.345717 233.724794 
L 106.600803 234.137974 
L 107.36606 236.156683 
L 108.003774 236.812489 
L 108.513946 235.414466 
L 108.641488 235.511394 
L 109.024117 236.16106 
L 109.15166 236.020911 
L 109.406746 234.999799 
L 109.789374 233.212996 
L 109.916917 233.082643 
L 110.172003 233.512041 
L 110.299546 233.717597 
L 110.427088 233.695719 
L 110.682174 232.961054 
L 110.93726 232.247093 
L 111.447431 231.640314 
L 112.085146 228.721726 
L 112.212688 228.794208 
L 112.467774 230.063062 
L 112.977946 232.936939 
L 113.360574 233.982675 
L 113.488117 234.047464 
L 113.61566 233.828229 
L 114.125831 232.046216 
L 114.380917 232.012819 
L 114.636003 232.292604 
L 115.146174 233.47852 
L 115.273717 233.285728 
L 115.783888 231.418838 
L 116.29406 230.996889 
L 116.549146 230.770452 
L 116.676688 230.932881 
L 117.314403 232.35468 
L 117.569488 231.881166 
L 118.07966 230.369612 
L 118.334746 230.361376 
L 118.717374 230.834317 
L 119.355088 232.069254 
L 119.610174 231.456027 
L 120.120346 230.115678 
L 120.247888 230.006304 
L 120.375431 230.149548 
L 120.630517 231.425601 
L 121.013146 233.78843 
L 121.140688 233.989689 
L 121.523317 233.935872 
L 121.905946 234.609673 
L 122.033488 234.423013 
L 122.671203 231.64421 
L 122.798746 231.711122 
L 123.053831 232.585291 
L 123.691546 235.76297 
L 124.201717 236.601267 
L 124.584346 237.526888 
L 124.711888 237.435676 
L 125.22206 236.419925 
L 125.477146 236.717248 
L 125.859774 237.045442 
L 126.11486 237.282994 
L 126.497488 237.750884 
L 126.752574 237.650484 
L 127.135203 237.264825 
L 127.390288 236.558174 
L 127.90046 234.698824 
L 128.028003 234.56915 
L 128.155546 234.615864 
L 128.410631 235.101011 
L 128.920803 236.279324 
L 129.175888 236.178164 
L 129.813603 235.557967 
L 130.068688 234.172518 
L 130.57886 231.204147 
L 130.706403 231.141241 
L 130.961488 231.812568 
L 131.216574 232.668641 
L 131.344117 232.807285 
L 131.47166 232.686098 
L 131.726746 232.157057 
L 131.854288 232.140264 
L 131.981831 232.446988 
L 132.619546 235.095415 
L 132.874631 234.601682 
L 133.25726 233.599584 
L 133.512346 233.31459 
L 133.894974 233.226124 
L 134.15006 233.342581 
L 135.04286 234.382748 
L 135.170403 234.342637 
L 135.297946 234.150214 
L 135.553031 233.128969 
L 135.93566 231.089336 
L 136.063203 230.810822 
L 136.190746 230.834182 
L 136.445831 231.501485 
L 137.338631 234.341746 
L 137.593717 234.159206 
L 138.231431 233.263724 
L 138.486517 232.783424 
L 138.61406 232.767834 
L 138.869146 233.2335 
L 139.634403 235.154796 
L 140.144574 237.377721 
L 140.654746 238.498375 
L 140.782288 238.614761 
L 140.909831 238.568416 
L 141.164917 237.842998 
L 141.547546 235.024312 
L 142.312803 228.530419 
L 142.567888 227.34641 
L 142.695431 227.294429 
L 142.822974 227.679164 
L 143.07806 229.568101 
L 143.588231 234.037466 
L 143.843317 234.715759 
L 143.97086 234.568756 
L 144.225946 233.643238 
L 144.736117 230.835232 
L 145.118746 228.82597 
L 145.246288 228.764396 
L 145.501374 229.735836 
L 145.884003 231.576603 
L 146.139088 231.961361 
L 146.266631 231.892784 
L 146.521717 231.219431 
L 147.797146 226.064193 
L 147.924688 226.331965 
L 148.179774 227.940992 
L 148.945031 233.216463 
L 149.32766 235.086797 
L 149.582746 235.389332 
L 149.710288 235.167176 
L 149.965374 233.904742 
L 150.475546 230.908331 
L 150.730631 230.390853 
L 150.985717 230.189123 
L 151.11326 230.211182 
L 151.368346 230.636499 
L 152.388688 233.348768 
L 152.516231 233.350294 
L 152.643774 233.470714 
L 152.89886 234.493874 
L 153.153946 235.57117 
L 153.281488 235.460178 
L 153.79166 233.134331 
L 154.301831 233.414906 
L 154.812003 232.446766 
L 155.322174 232.160171 
L 155.57726 232.937629 
L 155.832346 233.455699 
L 155.959888 233.001948 
L 156.47006 229.657289 
L 156.597603 229.599303 
L 156.980231 230.195751 
L 157.235317 231.233877 
L 157.745488 234.55716 
L 158.383203 236.078822 
L 158.510746 235.927241 
L 158.765831 234.550957 
L 159.14846 232.213095 
L 159.403546 231.845705 
L 159.531088 232.083801 
L 159.786174 233.287418 
L 160.168803 235.343222 
L 160.93406 237.316156 
L 161.061603 237.165217 
L 161.954403 234.406774 
L 162.081946 234.417934 
L 162.592117 235.369759 
L 162.974746 234.833593 
L 163.102288 235.128428 
L 163.61246 237.322196 
L 163.740003 237.210279 
L 164.760346 234.779323 
L 165.525603 235.846982 
L 165.653146 235.976515 
L 165.908231 236.850095 
L 166.29086 238.287482 
L 166.418403 238.151082 
L 166.928574 236.717193 
L 167.18366 236.688768 
L 167.311203 236.479121 
L 167.566288 235.312323 
L 168.331546 230.70764 
L 168.586631 230.11943 
L 168.714174 230.282162 
L 169.351888 232.656542 
L 169.989603 234.997647 
L 170.244688 234.173139 
L 170.499774 233.334894 
L 170.627317 233.330906 
L 171.265031 234.398774 
L 171.64766 234.325444 
L 171.902746 234.020075 
L 173.178174 231.521941 
L 173.43326 232.306595 
L 173.815888 233.612451 
L 173.943431 233.677173 
L 174.198517 233.258465 
L 174.453603 232.678934 
L 174.581146 232.617479 
L 174.708688 232.815187 
L 175.091317 234.501537 
L 175.601488 236.511188 
L 175.984117 237.593786 
L 176.11166 237.716329 
L 176.239203 237.540581 
L 176.494288 236.047244 
L 177.259546 229.187063 
L 177.514631 228.243411 
L 177.642174 228.089458 
L 177.769717 228.215131 
L 178.279888 229.910278 
L 178.917603 232.431062 
L 179.045146 232.38959 
L 179.300231 231.933164 
L 179.427774 231.963759 
L 179.68286 232.870952 
L 180.193031 235.154241 
L 180.448117 235.637287 
L 180.703203 235.780205 
L 181.340917 235.741717 
L 181.596003 235.442337 
L 181.851088 235.077585 
L 182.233717 235.22179 
L 182.36126 234.99525 
L 182.871431 233.381751 
L 183.126517 233.28227 
L 183.25406 233.313616 
L 183.509146 233.811168 
L 183.764231 234.531508 
L 184.019317 234.600673 
L 184.14686 234.657201 
L 184.401946 235.656968 
L 184.784574 237.586603 
L 184.912117 237.63504 
L 185.167203 236.938915 
L 185.677374 235.4736 
L 186.442631 233.804293 
L 186.570174 233.742245 
L 186.697717 233.894641 
L 186.952803 235.003751 
L 187.335431 236.59484 
L 187.973146 237.197608 
L 188.61086 236.575281 
L 188.865946 235.829935 
L 189.248574 234.116058 
L 189.50366 233.870832 
L 189.758746 233.859254 
L 190.013831 233.508064 
L 190.141374 233.535217 
L 190.39646 234.600688 
L 190.779088 236.690135 
L 191.034174 237.263053 
L 191.161717 237.301445 
L 191.28926 237.082762 
L 191.544346 235.799935 
L 191.926974 233.80748 
L 192.18206 233.493227 
L 192.437146 233.736149 
L 193.840117 236.637682 
L 193.96766 236.342279 
L 194.732917 232.793782 
L 195.243088 232.967564 
L 195.498174 232.578189 
L 195.75326 232.113436 
L 195.880803 232.196047 
L 196.135888 233.229453 
L 196.518517 234.700261 
L 196.773603 234.711997 
L 196.901146 234.713822 
L 197.156231 235.075198 
L 197.793946 236.959815 
L 197.921488 236.818927 
L 198.176574 235.597802 
L 198.814288 232.251921 
L 199.32446 230.04467 
L 199.452003 230.044349 
L 200.21726 231.350567 
L 200.599888 233.058466 
L 200.727431 233.136684 
L 201.11006 232.59619 
L 201.237603 232.70092 
L 201.620231 233.773646 
L 202.00286 234.673452 
L 202.640574 235.809078 
L 203.023203 236.828861 
L 203.278288 237.659043 
L 203.405831 237.775408 
L 203.660917 237.307585 
L 203.916003 237.059485 
L 204.298631 237.535829 
L 204.553717 237.429075 
L 204.936346 236.999454 
L 205.191431 236.249875 
L 205.701603 234.523514 
L 205.956688 234.481721 
L 206.594403 234.85178 
L 207.104574 236.684767 
L 207.487203 237.867224 
L 207.614746 237.792019 
L 208.124917 236.652024 
L 208.507546 236.954983 
L 208.762631 236.583116 
L 209.400346 235.118648 
L 209.655431 235.636251 
L 209.910517 236.219234 
L 210.03806 236.252339 
L 210.93086 235.394511 
L 212.078746 231.054829 
L 212.206288 231.009564 
L 212.461374 231.765955 
L 213.226631 235.340388 
L 213.481717 234.092226 
L 213.864346 231.975639 
L 214.119431 231.761039 
L 214.246974 231.748653 
L 214.374517 231.608494 
L 214.884688 230.161461 
L 215.012231 230.340887 
L 215.267317 231.833399 
L 215.777488 235.813109 
L 215.905031 235.959123 
L 216.28766 235.514758 
L 216.542746 236.375197 
L 216.797831 237.407137 
L 216.925374 237.585107 
L 217.052917 237.435511 
L 217.308003 236.143809 
L 217.690631 233.56716 
L 217.818174 233.29623 
L 217.945717 233.369931 
L 218.200803 233.689247 
L 218.328346 233.446347 
L 218.838517 230.968786 
L 218.96606 231.038009 
L 219.221146 232.230003 
L 219.603774 234.33273 
L 219.731317 234.519009 
L 219.85886 234.305093 
L 220.369031 232.376798 
L 220.496574 232.430904 
L 220.75166 232.694524 
L 220.879203 232.467532 
L 221.134288 231.012434 
L 221.516917 228.807912 
L 221.64446 228.589501 
L 221.772003 228.672028 
L 222.027088 229.825559 
L 222.53726 233.213564 
L 223.174974 234.818485 
L 223.685146 235.841467 
L 223.812688 235.852289 
L 224.067774 235.02496 
L 224.32286 233.88456 
L 224.450403 233.702147 
L 224.577946 233.879954 
L 224.960574 234.952843 
L 225.088117 234.864416 
L 225.343203 233.865943 
L 225.725831 232.389826 
L 225.853374 232.350435 
L 226.10846 232.996293 
L 226.363546 233.715155 
L 226.491088 233.638807 
L 226.746174 232.453117 
L 227.00126 231.266835 
L 227.128803 231.156071 
L 227.511431 231.484239 
L 227.638974 231.17634 
L 228.276688 228.59496 
L 228.531774 229.940158 
L 228.914403 232.707719 
L 229.041946 233.022644 
L 229.169488 232.927965 
L 229.807203 230.877232 
L 230.57246 233.111512 
L 231.337717 235.573985 
L 231.46526 235.615766 
L 231.592803 235.501236 
L 231.847888 234.705424 
L 232.230517 231.688027 
L 232.613146 228.981533 
L 233.378403 226.703039 
L 233.633488 226.433473 
L 233.761031 226.453694 
L 233.888574 226.595461 
L 234.14366 227.454294 
L 234.781374 230.474243 
L 235.164003 231.606553 
L 235.546631 232.983039 
L 235.674174 233.059586 
L 235.801717 232.862374 
L 236.184346 231.684547 
L 236.311888 231.675098 
L 236.566974 232.476099 
L 236.82206 233.209359 
L 236.949603 233.249504 
L 237.204688 232.792822 
L 237.71486 231.347617 
L 237.842403 231.37319 
L 238.480117 232.476 
L 238.735203 232.228497 
L 238.862746 232.432609 
L 239.372917 234.190049 
L 239.628003 232.95818 
L 240.138174 229.900278 
L 240.265717 229.701914 
L 240.39326 229.852203 
L 241.030974 231.858907 
L 241.158517 231.71193 
L 241.28606 231.772885 
L 241.541146 233.168658 
L 241.796231 234.955959 
L 241.923774 235.248133 
L 242.051317 235.09229 
L 242.561488 233.641556 
L 242.689031 233.559717 
L 242.944117 233.751131 
L 243.07166 233.843818 
L 243.199203 233.73222 
L 243.454288 232.618536 
L 243.836917 230.886838 
L 243.96446 230.898671 
L 244.219546 231.278454 
L 244.347088 231.280255 
L 244.85726 230.573235 
L 245.112346 231.348866 
L 245.877603 234.574094 
L 246.132688 234.490753 
L 246.260231 234.618696 
L 246.770403 236.419012 
L 246.897946 236.249845 
L 247.280574 234.91793 
L 247.408117 234.910458 
L 247.918288 235.87832 
L 248.045831 235.784763 
L 248.300917 234.9372 
L 248.811088 232.438762 
L 248.938631 232.458222 
L 249.448803 233.407518 
L 249.576346 233.461615 
L 249.703888 233.638011 
L 249.958974 234.821234 
L 250.341603 236.958332 
L 250.469146 237.013062 
L 251.10686 235.689877 
L 251.617031 236.075802 
L 251.744574 235.945238 
L 251.99966 235.141984 
L 252.509831 232.593244 
L 252.637374 232.594253 
L 252.89246 232.786122 
L 253.275088 232.109876 
L 253.402631 232.218265 
L 253.657717 233.240664 
L 254.040346 234.811496 
L 254.167888 234.974722 
L 254.295431 234.952714 
L 254.550517 234.462184 
L 255.060688 233.008327 
L 255.315774 233.797838 
L 255.57086 234.576512 
L 255.953488 234.817216 
L 256.591203 236.587184 
L 256.718746 236.309169 
L 257.35646 233.56587 
L 257.484003 233.602553 
L 257.994174 234.436145 
L 258.121717 234.356125 
L 258.504346 233.866799 
L 258.759431 234.314382 
L 259.014517 234.805301 
L 259.14206 234.698049 
L 259.397146 233.626076 
L 259.652231 232.554768 
L 259.779774 232.469266 
L 260.03486 232.639283 
L 260.162403 232.327094 
L 260.800117 228.296554 
L 260.92766 228.373097 
L 261.692917 230.399025 
L 261.948003 230.363459 
L 262.075546 230.557342 
L 262.458174 231.758327 
L 262.585717 231.563189 
L 262.840803 229.5477 
L 263.223431 226.243399 
L 263.350974 226.000627 
L 263.478517 226.235296 
L 264.116231 229.402718 
L 264.49886 232.367008 
L 265.009031 236.268794 
L 265.136574 236.353001 
L 265.39166 235.297487 
L 265.646746 234.217508 
L 266.029374 233.258717 
L 266.412003 232.185149 
L 266.539546 232.199903 
L 266.794631 232.657673 
L 267.17726 234.373957 
L 267.559888 235.850918 
L 267.942517 236.420461 
L 268.452688 236.533188 
L 268.707774 236.006084 
L 268.96286 235.452096 
L 269.345488 235.483668 
L 269.600574 234.847195 
L 269.85566 234.145996 
L 269.983203 234.101534 
L 270.238288 234.674173 
L 270.620917 235.673676 
L 270.74846 235.685035 
L 271.131088 235.247779 
L 271.258631 235.34721 
L 271.64126 236.247284 
L 271.768803 236.214349 
L 272.023888 235.046279 
L 272.661603 230.636007 
L 272.789146 230.483338 
L 273.42686 230.914117 
L 273.554403 231.134862 
L 273.809488 232.832607 
L 274.31966 237.265762 
L 274.447203 237.371015 
L 274.702288 236.725395 
L 275.21246 234.282399 
L 275.722631 231.620264 
L 275.850174 231.396703 
L 275.977717 231.404531 
L 276.232803 231.943774 
L 276.615431 233.87083 
L 276.99806 235.560024 
L 277.380688 236.440769 
L 277.508231 236.508222 
L 277.635774 236.266553 
L 278.273488 233.852885 
L 278.401031 233.887896 
L 278.656117 234.27471 
L 279.038746 234.865452 
L 279.548917 234.731305 
L 279.804003 234.220433 
L 280.186631 233.419658 
L 280.441717 233.393053 
L 280.56926 233.545856 
L 281.206974 234.967345 
L 281.334517 235.022014 
L 281.589603 235.833551 
L 281.844688 236.305303 
L 282.099774 235.145938 
L 282.482403 233.212935 
L 282.737488 232.927243 
L 282.992574 233.098033 
L 283.24766 233.590352 
L 284.14046 236.01666 
L 284.523088 236.907866 
L 284.650631 236.757725 
L 284.905717 235.39857 
L 285.415888 232.420716 
L 285.92606 230.09402 
L 286.053603 230.179771 
L 286.436231 231.542443 
L 286.81886 233.469657 
L 287.329031 236.792998 
L 287.456574 236.961457 
L 287.584117 236.678595 
L 287.966746 235.342215 
L 288.476917 235.303476 
L 288.859546 234.433974 
L 289.242174 233.543256 
L 289.369717 233.71099 
L 289.879888 235.038805 
L 290.134974 235.288722 
L 290.39006 235.122262 
L 290.645146 235.013021 
L 291.155317 235.797207 
L 291.410403 235.363515 
L 291.793031 234.227354 
L 291.920574 234.201347 
L 292.17566 235.079197 
L 292.558288 236.657517 
L 292.685831 236.839235 
L 292.813374 236.797815 
L 293.06846 236.063584 
L 293.578631 234.246491 
L 293.706174 234.189142 
L 294.088803 234.429055 
L 294.343888 234.333709 
L 294.471431 234.547336 
L 294.85406 235.900594 
L 294.981603 235.834716 
L 295.364231 234.949551 
L 295.74686 234.57136 
L 296.257031 233.602139 
L 296.512117 233.651485 
L 297.149831 234.272777 
L 297.404917 234.884481 
L 297.787546 235.300739 
L 298.297717 237.296893 
L 298.680346 237.668805 
L 298.807888 237.442203 
L 299.062974 235.793027 
L 299.445603 233.528076 
L 299.573146 233.429497 
L 299.828231 233.478437 
L 300.083317 232.942386 
L 300.848574 230.649518 
L 301.10366 230.348792 
L 301.231203 230.306766 
L 301.358746 230.123158 
L 301.741374 228.95293 
L 301.868917 229.023843 
L 302.124003 230.277813 
L 302.506631 232.329131 
L 302.761717 232.938218 
L 302.88926 233.036037 
L 303.016803 232.92258 
L 303.399431 231.945909 
L 303.526974 231.936525 
L 303.78206 232.113723 
L 303.909603 231.855855 
L 304.419774 230.129799 
L 304.67486 229.605541 
L 304.929946 228.982389 
L 305.057488 229.001629 
L 305.312574 229.928453 
L 305.695203 231.351584 
L 305.950288 231.999865 
L 306.588003 234.690128 
L 306.843088 234.996263 
L 306.970631 234.954788 
L 307.35326 234.231594 
L 307.480803 234.447575 
L 307.863431 236.10451 
L 307.990974 236.116876 
L 308.373603 235.552329 
L 308.628688 235.844431 
L 308.756231 235.766262 
L 309.011317 234.787478 
L 309.266403 233.83274 
L 309.649031 233.346099 
L 310.03166 232.302676 
L 310.159203 232.552812 
L 310.541831 233.965176 
L 310.92446 234.023065 
L 311.179546 235.172139 
L 311.434631 236.208535 
L 311.562174 236.200548 
L 312.072346 235.247716 
L 312.454974 234.973241 
L 312.71006 234.81835 
L 312.837603 234.984665 
L 313.60286 237.074315 
L 313.857946 237.450504 
L 314.113031 237.859784 
L 314.240574 237.649219 
L 314.878288 235.152391 
L 315.133374 235.102974 
L 315.38846 234.636727 
L 315.898631 233.234045 
L 316.28126 232.541762 
L 316.918974 230.141567 
L 317.046517 230.166439 
L 317.429146 230.509378 
L 317.684231 230.598609 
L 317.939317 231.247734 
L 318.449488 233.258465 
L 318.95966 233.810778 
L 319.087203 233.669581 
L 319.342288 232.175478 
L 319.597374 230.564246 
L 319.724917 230.373486 
L 319.980003 230.661392 
L 320.107546 230.589449 
L 320.362631 230.050131 
L 320.490174 230.10855 
L 320.74526 231.465725 
L 321.255431 234.517889 
L 321.63806 235.728837 
L 321.765603 235.807202 
L 321.893146 235.585245 
L 322.275774 234.351244 
L 322.403317 234.468866 
L 322.913488 236.266268 
L 323.041031 236.087777 
L 324.571546 230.598609 
L 324.699088 230.767462 
L 324.954174 231.916907 
L 325.846974 237.417943 
L 326.10206 237.730393 
L 326.357146 237.416864 
L 326.612231 236.3019 
L 326.99486 234.501597 
L 327.249946 234.379391 
L 327.505031 234.735641 
L 327.88766 235.506031 
L 328.015203 235.609233 
L 328.142746 235.877841 
L 328.78046 238.793668 
L 328.908003 238.439452 
L 329.163088 236.644025 
L 329.67326 232.217619 
L 330.183431 230.073594 
L 330.310974 230.004246 
L 330.56606 230.363082 
L 330.821146 231.053721 
L 331.331317 233.030922 
L 331.45886 233.130343 
L 331.586403 233.069576 
L 331.841488 232.333174 
L 332.096574 231.338495 
L 332.224117 231.292136 
L 332.479203 232.176301 
L 332.989374 234.090108 
L 333.627088 235.557859 
L 333.754631 235.597559 
L 334.009717 234.969139 
L 334.519888 233.545027 
L 334.774974 233.244832 
L 334.902517 233.484544 
L 335.412688 235.560316 
L 335.540231 235.382405 
L 335.92286 234.122931 
L 336.177946 234.304055 
L 336.305488 234.133125 
L 336.560574 232.638207 
L 336.943203 230.608132 
L 337.453374 229.151201 
L 337.580917 229.097218 
L 337.70846 229.321243 
L 338.091088 231.193977 
L 338.856346 235.353205 
L 338.983888 235.466597 
L 339.238974 235.413158 
L 339.621603 235.961906 
L 339.876688 235.570489 
L 340.131774 235.26477 
L 340.38686 235.405456 
L 340.641946 236.132094 
L 341.152117 238.229127 
L 341.27966 238.157853 
L 341.917374 236.413935 
L 342.555088 233.915776 
L 342.810174 234.176657 
L 343.06526 234.296197 
L 343.192803 234.281682 
L 343.320346 234.412444 
L 343.575431 235.2906 
L 343.830517 236.20981 
L 344.085603 236.476603 
L 344.340688 236.501788 
L 344.468231 236.404289 
L 345.105946 235.289372 
L 345.233488 235.234761 
L 345.488574 234.689579 
L 345.74366 234.15522 
L 345.871203 234.164952 
L 347.019088 235.495318 
L 347.274174 236.176265 
L 347.784346 237.724658 
L 348.039431 237.639963 
L 348.42206 237.313306 
L 348.677146 236.46948 
L 349.187317 233.404813 
L 349.31486 233.260567 
L 349.697488 233.39832 
L 350.080117 233.115595 
L 350.717831 232.448731 
L 351.228003 230.81897 
L 351.610631 228.96684 
L 351.738174 228.768245 
L 351.865717 228.887073 
L 352.120803 229.738039 
L 353.396231 235.635736 
L 353.906403 237.328338 
L 354.033946 236.955177 
L 354.926746 231.304923 
L 355.054288 231.223126 
L 355.309374 231.733801 
L 355.819546 233.096969 
L 356.584803 236.684284 
L 356.712346 236.251267 
L 357.094974 233.046845 
L 357.477603 230.294253 
L 357.732688 229.810377 
L 357.860231 229.981966 
L 358.115317 230.980095 
L 358.497946 233.883047 
L 358.880574 236.053258 
L 359.390746 236.937632 
L 359.518288 236.834366 
L 359.773374 235.537784 
L 360.538631 230.93961 
L 361.558974 224.748625 
L 361.686517 224.64851 
L 361.81406 225.032439 
L 362.196688 228.373257 
L 362.451774 230.270863 
L 362.70686 230.779453 
L 363.089488 230.435108 
L 363.472117 230.831306 
L 363.854746 229.865297 
L 363.982288 229.98032 
L 364.237374 231.258821 
L 364.875088 234.842776 
L 365.002631 235.053299 
L 365.130174 234.773661 
L 365.38526 232.502686 
L 365.767888 228.849242 
L 366.27806 226.338302 
L 366.533146 225.159485 
L 366.660688 225.172245 
L 367.043317 225.691123 
L 367.17086 225.673636 
L 367.298403 225.799839 
L 367.553488 226.888196 
L 368.191203 230.155213 
L 368.701374 233.466827 
L 369.339088 237.436406 
L 369.466631 237.78755 
L 369.594174 237.729886 
L 371.379774 231.977173 
L 371.63486 232.089528 
L 372.017488 232.458317 
L 372.272574 233.126355 
L 373.292917 236.817051 
L 373.42046 236.642839 
L 373.675546 234.746498 
L 374.058174 232.021886 
L 374.31326 231.664862 
L 374.823431 229.932827 
L 374.950974 230.078877 
L 375.333603 230.882641 
L 375.588688 231.125153 
L 375.971317 231.846242 
L 376.09886 231.512059 
L 376.481488 229.715225 
L 376.609031 229.938324 
L 377.246746 232.744498 
L 377.756917 234.497606 
L 377.88446 234.385152 
L 378.267088 233.043252 
L 378.394631 233.020591 
L 378.904803 233.765176 
L 379.159888 233.711678 
L 379.542517 233.911646 
L 379.797603 233.827363 
L 380.180231 234.066048 
L 380.435317 232.893291 
L 380.817946 230.825323 
L 380.945488 230.662274 
L 381.200574 230.877287 
L 381.45566 231.071007 
L 381.965831 231.033915 
L 382.34846 231.183012 
L 382.858631 231.875397 
L 383.113717 231.579157 
L 383.24126 231.65632 
L 383.878974 233.44906 
L 384.13406 233.206905 
L 384.389146 232.752941 
L 384.644231 231.643661 
L 385.02686 229.371144 
L 385.154403 229.068991 
L 385.281946 229.072783 
L 385.537031 229.508281 
L 385.792117 230.310858 
L 386.174746 233.112261 
L 386.684917 236.713807 
L 386.940003 237.521651 
L 387.067546 237.38494 
L 387.450174 235.859449 
L 388.215431 232.838316 
L 388.470517 231.981549 
L 388.853146 230.323417 
L 388.980688 230.170925 
L 389.108231 230.251602 
L 389.363317 230.940378 
L 390.128574 234.457809 
L 390.511203 236.45036 
L 391.021374 237.077077 
L 391.148917 237.141942 
L 391.27646 237.003522 
L 391.786631 235.817008 
L 392.041717 235.458924 
L 392.424346 234.220499 
L 392.806974 233.051637 
L 393.189603 232.58921 
L 393.699774 231.347811 
L 394.082403 232.176206 
L 394.209946 232.114086 
L 394.465031 231.353449 
L 394.84766 228.768881 
L 395.102746 227.343819 
L 395.485374 226.188732 
L 395.995546 223.635111 
L 396.123088 223.619607 
L 396.250631 223.937411 
L 396.505717 225.485687 
L 397.015888 228.98214 
L 397.143431 229.120786 
L 397.653603 228.831781 
L 398.036231 229.444631 
L 398.163774 229.31309 
L 398.546403 228.364163 
L 398.673946 228.425878 
L 398.929031 229.226518 
L 399.31166 231.561377 
L 399.566746 233.113097 
L 399.694288 233.355432 
L 400.076917 232.975764 
L 400.332003 233.685479 
L 400.714631 234.715169 
L 400.969717 234.930749 
L 401.09726 234.881512 
L 401.352346 234.254598 
L 401.734974 233.245092 
L 401.862517 233.290976 
L 402.372688 234.194873 
L 402.500231 234.211798 
L 402.627774 234.374898 
L 402.88286 235.76723 
L 403.265488 238.4096 
L 403.393031 238.667624 
L 403.520574 238.602423 
L 403.903203 237.580833 
L 405.178631 234.206371 
L 405.433717 234.638774 
L 405.816346 235.303056 
L 406.836688 236.278642 
L 407.219317 236.199373 
L 407.474403 235.850257 
L 407.729488 235.553498 
L 407.984574 235.819163 
L 407.984574 235.819163 
" clip-path="url(#p6e9a7fa073)" style="fill: none; stroke: #1f77b4; stroke-linecap: round"/>
   </g>
   <g id="patch_3">
    <path d="M 50.737031 277.248797 
L 50.737031 11.136797 
" style="fill: none; stroke: #262626; stroke-width: 1.25; stroke-linejoin: miter; stroke-linecap: square"/>
   </g>
   <g id="patch_4">
    <path d="M 50.737031 277.248797 
L 407.857031 277.248797 
" style="fill: none; stroke: #262626; stroke-width: 1.25; stroke-linejoin: miter; stroke-linecap: square"/>
   </g>
   <g id="legend_1"/>
  </g>
 </g>
 <defs>
  <clipPath id="p6e9a7fa073">
   <rect x="50.737031" y="11.136797" width="357.12" height="266.112"/>
  </clipPath>
 </defs>
</svg>
