<?xml version="1.0" encoding="utf-8" standalone="no"?>
<!DOCTYPE svg PUBLIC "-//W3C//DTD SVG 1.1//EN"
  "http://www.w3.org/Graphics/SVG/1.1/DTD/svg11.dtd">
<svg xmlns:xlink="http://www.w3.org/1999/xlink" width="431.443062pt" height="309.333094pt" viewBox="0 0 431.443062 309.333094" xmlns="http://www.w3.org/2000/svg" version="1.1">
 <metadata>
  <rdf:RDF xmlns:dc="http://purl.org/dc/elements/1.1/" xmlns:cc="http://creativecommons.org/ns#" xmlns:rdf="http://www.w3.org/1999/02/22-rdf-syntax-ns#">
   <cc:Work>
    <dc:type rdf:resource="http://purl.org/dc/dcmitype/StillImage"/>
    <dc:date>2023-09-08T16:25:11.078740</dc:date>
    <dc:format>image/svg+xml</dc:format>
    <dc:creator>
     <cc:Agent>
      <dc:title>Matplotlib v3.7.1, https://matplotlib.org/</dc:title>
     </cc:Agent>
    </dc:creator>
   </cc:Work>
  </rdf:RDF>
 </metadata>
 <defs>
  <style type="text/css">*{stroke-linejoin: round; stroke-linecap: butt}</style>
 </defs>
 <g id="figure_1">
  <g id="patch_1">
   <path d="M 0 309.333094 
L 431.443062 309.333094 
L 431.443062 0 
L 0 0 
z
" style="fill: #ffffff"/>
  </g>
  <g id="axes_1">
   <g id="patch_2">
    <path d="M 41.25125 273.312 
L 398.37125 273.312 
L 398.37125 7.2 
L 41.25125 7.2 
z
" style="fill: #ffffff"/>
   </g>
   <g id="matplotlib.axis_1">
    <g id="xtick_1">
     <g id="line2d_1">
      <defs>
       <path id="m0f3d59f76c" d="M 0 0 
L 0 -6 
" style="stroke: #262626; stroke-width: 1.25"/>
      </defs>
      <g>
       <use xlink:href="#m0f3d59f76c" x="87.83212" y="273.312" style="fill: #262626; stroke: #262626; stroke-width: 1.25"/>
      </g>
     </g>
     <g id="text_1">
      <!-- 300 -->
      <g style="fill: #262626" transform="translate(78.656573 284.685594) scale(0.11 -0.11)">
       <defs>
        <path id="ArialMT-33" d="M 269 1209 
L 831 1284 
Q 928 806 1161 595 
Q 1394 384 1728 384 
Q 2125 384 2398 659 
Q 2672 934 2672 1341 
Q 2672 1728 2419 1979 
Q 2166 2231 1775 2231 
Q 1616 2231 1378 2169 
L 1441 2663 
Q 1497 2656 1531 2656 
Q 1891 2656 2178 2843 
Q 2466 3031 2466 3422 
Q 2466 3731 2256 3934 
Q 2047 4138 1716 4138 
Q 1388 4138 1169 3931 
Q 950 3725 888 3313 
L 325 3413 
Q 428 3978 793 4289 
Q 1159 4600 1703 4600 
Q 2078 4600 2393 4439 
Q 2709 4278 2876 4000 
Q 3044 3722 3044 3409 
Q 3044 3113 2884 2869 
Q 2725 2625 2413 2481 
Q 2819 2388 3044 2092 
Q 3269 1797 3269 1353 
Q 3269 753 2831 336 
Q 2394 -81 1725 -81 
Q 1122 -81 723 278 
Q 325 638 269 1209 
z
" transform="scale(0.015625)"/>
        <path id="ArialMT-30" d="M 266 2259 
Q 266 3072 433 3567 
Q 600 4063 929 4331 
Q 1259 4600 1759 4600 
Q 2128 4600 2406 4451 
Q 2684 4303 2865 4023 
Q 3047 3744 3150 3342 
Q 3253 2941 3253 2259 
Q 3253 1453 3087 958 
Q 2922 463 2592 192 
Q 2263 -78 1759 -78 
Q 1097 -78 719 397 
Q 266 969 266 2259 
z
M 844 2259 
Q 844 1131 1108 757 
Q 1372 384 1759 384 
Q 2147 384 2411 759 
Q 2675 1134 2675 2259 
Q 2675 3391 2411 3762 
Q 2147 4134 1753 4134 
Q 1366 4134 1134 3806 
Q 844 3388 844 2259 
z
" transform="scale(0.015625)"/>
       </defs>
       <use xlink:href="#ArialMT-33"/>
       <use xlink:href="#ArialMT-30" x="55.615234"/>
       <use xlink:href="#ArialMT-30" x="111.230469"/>
      </g>
     </g>
    </g>
    <g id="xtick_2">
     <g id="line2d_2">
      <g>
       <use xlink:href="#m0f3d59f76c" x="165.466902" y="273.312" style="fill: #262626; stroke: #262626; stroke-width: 1.25"/>
      </g>
     </g>
     <g id="text_2">
      <!-- 400 -->
      <g style="fill: #262626" transform="translate(156.291355 284.685594) scale(0.11 -0.11)">
       <defs>
        <path id="ArialMT-34" d="M 2069 0 
L 2069 1097 
L 81 1097 
L 81 1613 
L 2172 4581 
L 2631 4581 
L 2631 1613 
L 3250 1613 
L 3250 1097 
L 2631 1097 
L 2631 0 
L 2069 0 
z
M 2069 1613 
L 2069 3678 
L 634 1613 
L 2069 1613 
z
" transform="scale(0.015625)"/>
       </defs>
       <use xlink:href="#ArialMT-34"/>
       <use xlink:href="#ArialMT-30" x="55.615234"/>
       <use xlink:href="#ArialMT-30" x="111.230469"/>
      </g>
     </g>
    </g>
    <g id="xtick_3">
     <g id="line2d_3">
      <g>
       <use xlink:href="#m0f3d59f76c" x="243.101685" y="273.312" style="fill: #262626; stroke: #262626; stroke-width: 1.25"/>
      </g>
     </g>
     <g id="text_3">
      <!-- 500 -->
      <g style="fill: #262626" transform="translate(233.926138 284.685594) scale(0.11 -0.11)">
       <defs>
        <path id="ArialMT-35" d="M 266 1200 
L 856 1250 
Q 922 819 1161 601 
Q 1400 384 1738 384 
Q 2144 384 2425 690 
Q 2706 997 2706 1503 
Q 2706 1984 2436 2262 
Q 2166 2541 1728 2541 
Q 1456 2541 1237 2417 
Q 1019 2294 894 2097 
L 366 2166 
L 809 4519 
L 3088 4519 
L 3088 3981 
L 1259 3981 
L 1013 2750 
Q 1425 3038 1878 3038 
Q 2478 3038 2890 2622 
Q 3303 2206 3303 1553 
Q 3303 931 2941 478 
Q 2500 -78 1738 -78 
Q 1113 -78 717 272 
Q 322 622 266 1200 
z
" transform="scale(0.015625)"/>
       </defs>
       <use xlink:href="#ArialMT-35"/>
       <use xlink:href="#ArialMT-30" x="55.615234"/>
       <use xlink:href="#ArialMT-30" x="111.230469"/>
      </g>
     </g>
    </g>
    <g id="xtick_4">
     <g id="line2d_4">
      <g>
       <use xlink:href="#m0f3d59f76c" x="320.736467" y="273.312" style="fill: #262626; stroke: #262626; stroke-width: 1.25"/>
      </g>
     </g>
     <g id="text_4">
      <!-- 600 -->
      <g style="fill: #262626" transform="translate(311.560921 284.685594) scale(0.11 -0.11)">
       <defs>
        <path id="ArialMT-36" d="M 3184 3459 
L 2625 3416 
Q 2550 3747 2413 3897 
Q 2184 4138 1850 4138 
Q 1581 4138 1378 3988 
Q 1113 3794 959 3422 
Q 806 3050 800 2363 
Q 1003 2672 1297 2822 
Q 1591 2972 1913 2972 
Q 2475 2972 2870 2558 
Q 3266 2144 3266 1488 
Q 3266 1056 3080 686 
Q 2894 316 2569 119 
Q 2244 -78 1831 -78 
Q 1128 -78 684 439 
Q 241 956 241 2144 
Q 241 3472 731 4075 
Q 1159 4600 1884 4600 
Q 2425 4600 2770 4297 
Q 3116 3994 3184 3459 
z
M 888 1484 
Q 888 1194 1011 928 
Q 1134 663 1356 523 
Q 1578 384 1822 384 
Q 2178 384 2434 671 
Q 2691 959 2691 1453 
Q 2691 1928 2437 2201 
Q 2184 2475 1800 2475 
Q 1419 2475 1153 2201 
Q 888 1928 888 1484 
z
" transform="scale(0.015625)"/>
       </defs>
       <use xlink:href="#ArialMT-36"/>
       <use xlink:href="#ArialMT-30" x="55.615234"/>
       <use xlink:href="#ArialMT-30" x="111.230469"/>
      </g>
     </g>
    </g>
    <g id="xtick_5">
     <g id="line2d_5">
      <g>
       <use xlink:href="#m0f3d59f76c" x="398.37125" y="273.312" style="fill: #262626; stroke: #262626; stroke-width: 1.25"/>
      </g>
     </g>
     <g id="text_5">
      <!-- 700 -->
      <g style="fill: #262626" transform="translate(389.195703 284.685594) scale(0.11 -0.11)">
       <defs>
        <path id="ArialMT-37" d="M 303 3981 
L 303 4522 
L 3269 4522 
L 3269 4084 
Q 2831 3619 2401 2847 
Q 1972 2075 1738 1259 
Q 1569 684 1522 0 
L 944 0 
Q 953 541 1156 1306 
Q 1359 2072 1739 2783 
Q 2119 3494 2547 3981 
L 303 3981 
z
" transform="scale(0.015625)"/>
       </defs>
       <use xlink:href="#ArialMT-37"/>
       <use xlink:href="#ArialMT-30" x="55.615234"/>
       <use xlink:href="#ArialMT-30" x="111.230469"/>
      </g>
     </g>
    </g>
    <g id="xtick_6">
     <g id="line2d_6">
      <defs>
       <path id="ma985f6fefd" d="M 0 0 
L 0 -4 
" style="stroke: #262626"/>
      </defs>
      <g>
       <use xlink:href="#ma985f6fefd" x="49.014728" y="273.312" style="fill: #262626; stroke: #262626"/>
      </g>
     </g>
    </g>
    <g id="xtick_7">
     <g id="line2d_7">
      <g>
       <use xlink:href="#ma985f6fefd" x="126.649511" y="273.312" style="fill: #262626; stroke: #262626"/>
      </g>
     </g>
    </g>
    <g id="xtick_8">
     <g id="line2d_8">
      <g>
       <use xlink:href="#ma985f6fefd" x="204.284293" y="273.312" style="fill: #262626; stroke: #262626"/>
      </g>
     </g>
    </g>
    <g id="xtick_9">
     <g id="line2d_9">
      <g>
       <use xlink:href="#ma985f6fefd" x="281.919076" y="273.312" style="fill: #262626; stroke: #262626"/>
      </g>
     </g>
    </g>
    <g id="xtick_10">
     <g id="line2d_10">
      <g>
       <use xlink:href="#ma985f6fefd" x="359.553859" y="273.312" style="fill: #262626; stroke: #262626"/>
      </g>
     </g>
    </g>
    <g id="text_6">
     <!-- Wavelength (nm) -->
     <g style="fill: #262626" transform="translate(174.356562 299.607469) scale(0.12 -0.12)">
      <defs>
       <path id="ArialMT-57" d="M 1294 0 
L 78 4581 
L 700 4581 
L 1397 1578 
Q 1509 1106 1591 641 
Q 1766 1375 1797 1488 
L 2669 4581 
L 3400 4581 
L 4056 2263 
Q 4303 1400 4413 641 
Q 4500 1075 4641 1638 
L 5359 4581 
L 5969 4581 
L 4713 0 
L 4128 0 
L 3163 3491 
Q 3041 3928 3019 4028 
Q 2947 3713 2884 3491 
L 1913 0 
L 1294 0 
z
" transform="scale(0.015625)"/>
       <path id="ArialMT-61" d="M 2588 409 
Q 2275 144 1986 34 
Q 1697 -75 1366 -75 
Q 819 -75 525 192 
Q 231 459 231 875 
Q 231 1119 342 1320 
Q 453 1522 633 1644 
Q 813 1766 1038 1828 
Q 1203 1872 1538 1913 
Q 2219 1994 2541 2106 
Q 2544 2222 2544 2253 
Q 2544 2597 2384 2738 
Q 2169 2928 1744 2928 
Q 1347 2928 1158 2789 
Q 969 2650 878 2297 
L 328 2372 
Q 403 2725 575 2942 
Q 747 3159 1072 3276 
Q 1397 3394 1825 3394 
Q 2250 3394 2515 3294 
Q 2781 3194 2906 3042 
Q 3031 2891 3081 2659 
Q 3109 2516 3109 2141 
L 3109 1391 
Q 3109 606 3145 398 
Q 3181 191 3288 0 
L 2700 0 
Q 2613 175 2588 409 
z
M 2541 1666 
Q 2234 1541 1622 1453 
Q 1275 1403 1131 1340 
Q 988 1278 909 1158 
Q 831 1038 831 891 
Q 831 666 1001 516 
Q 1172 366 1500 366 
Q 1825 366 2078 508 
Q 2331 650 2450 897 
Q 2541 1088 2541 1459 
L 2541 1666 
z
" transform="scale(0.015625)"/>
       <path id="ArialMT-76" d="M 1344 0 
L 81 3319 
L 675 3319 
L 1388 1331 
Q 1503 1009 1600 663 
Q 1675 925 1809 1294 
L 2547 3319 
L 3125 3319 
L 1869 0 
L 1344 0 
z
" transform="scale(0.015625)"/>
       <path id="ArialMT-65" d="M 2694 1069 
L 3275 997 
Q 3138 488 2766 206 
Q 2394 -75 1816 -75 
Q 1088 -75 661 373 
Q 234 822 234 1631 
Q 234 2469 665 2931 
Q 1097 3394 1784 3394 
Q 2450 3394 2872 2941 
Q 3294 2488 3294 1666 
Q 3294 1616 3291 1516 
L 816 1516 
Q 847 969 1125 678 
Q 1403 388 1819 388 
Q 2128 388 2347 550 
Q 2566 713 2694 1069 
z
M 847 1978 
L 2700 1978 
Q 2663 2397 2488 2606 
Q 2219 2931 1791 2931 
Q 1403 2931 1139 2672 
Q 875 2413 847 1978 
z
" transform="scale(0.015625)"/>
       <path id="ArialMT-6c" d="M 409 0 
L 409 4581 
L 972 4581 
L 972 0 
L 409 0 
z
" transform="scale(0.015625)"/>
       <path id="ArialMT-6e" d="M 422 0 
L 422 3319 
L 928 3319 
L 928 2847 
Q 1294 3394 1984 3394 
Q 2284 3394 2536 3286 
Q 2788 3178 2913 3003 
Q 3038 2828 3088 2588 
Q 3119 2431 3119 2041 
L 3119 0 
L 2556 0 
L 2556 2019 
Q 2556 2363 2490 2533 
Q 2425 2703 2258 2804 
Q 2091 2906 1866 2906 
Q 1506 2906 1245 2678 
Q 984 2450 984 1813 
L 984 0 
L 422 0 
z
" transform="scale(0.015625)"/>
       <path id="ArialMT-67" d="M 319 -275 
L 866 -356 
Q 900 -609 1056 -725 
Q 1266 -881 1628 -881 
Q 2019 -881 2231 -725 
Q 2444 -569 2519 -288 
Q 2563 -116 2559 434 
Q 2191 0 1641 0 
Q 956 0 581 494 
Q 206 988 206 1678 
Q 206 2153 378 2554 
Q 550 2956 876 3175 
Q 1203 3394 1644 3394 
Q 2231 3394 2613 2919 
L 2613 3319 
L 3131 3319 
L 3131 450 
Q 3131 -325 2973 -648 
Q 2816 -972 2473 -1159 
Q 2131 -1347 1631 -1347 
Q 1038 -1347 672 -1080 
Q 306 -813 319 -275 
z
M 784 1719 
Q 784 1066 1043 766 
Q 1303 466 1694 466 
Q 2081 466 2343 764 
Q 2606 1063 2606 1700 
Q 2606 2309 2336 2618 
Q 2066 2928 1684 2928 
Q 1309 2928 1046 2623 
Q 784 2319 784 1719 
z
" transform="scale(0.015625)"/>
       <path id="ArialMT-74" d="M 1650 503 
L 1731 6 
Q 1494 -44 1306 -44 
Q 1000 -44 831 53 
Q 663 150 594 308 
Q 525 466 525 972 
L 525 2881 
L 113 2881 
L 113 3319 
L 525 3319 
L 525 4141 
L 1084 4478 
L 1084 3319 
L 1650 3319 
L 1650 2881 
L 1084 2881 
L 1084 941 
Q 1084 700 1114 631 
Q 1144 563 1211 522 
Q 1278 481 1403 481 
Q 1497 481 1650 503 
z
" transform="scale(0.015625)"/>
       <path id="ArialMT-68" d="M 422 0 
L 422 4581 
L 984 4581 
L 984 2938 
Q 1378 3394 1978 3394 
Q 2347 3394 2619 3248 
Q 2891 3103 3008 2847 
Q 3125 2591 3125 2103 
L 3125 0 
L 2563 0 
L 2563 2103 
Q 2563 2525 2380 2717 
Q 2197 2909 1863 2909 
Q 1613 2909 1392 2779 
Q 1172 2650 1078 2428 
Q 984 2206 984 1816 
L 984 0 
L 422 0 
z
" transform="scale(0.015625)"/>
       <path id="ArialMT-20" transform="scale(0.015625)"/>
       <path id="ArialMT-28" d="M 1497 -1347 
Q 1031 -759 709 28 
Q 388 816 388 1659 
Q 388 2403 628 3084 
Q 909 3875 1497 4659 
L 1900 4659 
Q 1522 4009 1400 3731 
Q 1209 3300 1100 2831 
Q 966 2247 966 1656 
Q 966 153 1900 -1347 
L 1497 -1347 
z
" transform="scale(0.015625)"/>
       <path id="ArialMT-6d" d="M 422 0 
L 422 3319 
L 925 3319 
L 925 2853 
Q 1081 3097 1340 3245 
Q 1600 3394 1931 3394 
Q 2300 3394 2536 3241 
Q 2772 3088 2869 2813 
Q 3263 3394 3894 3394 
Q 4388 3394 4653 3120 
Q 4919 2847 4919 2278 
L 4919 0 
L 4359 0 
L 4359 2091 
Q 4359 2428 4304 2576 
Q 4250 2725 4106 2815 
Q 3963 2906 3769 2906 
Q 3419 2906 3187 2673 
Q 2956 2441 2956 1928 
L 2956 0 
L 2394 0 
L 2394 2156 
Q 2394 2531 2256 2718 
Q 2119 2906 1806 2906 
Q 1569 2906 1367 2781 
Q 1166 2656 1075 2415 
Q 984 2175 984 1722 
L 984 0 
L 422 0 
z
" transform="scale(0.015625)"/>
       <path id="ArialMT-29" d="M 791 -1347 
L 388 -1347 
Q 1322 153 1322 1656 
Q 1322 2244 1188 2822 
Q 1081 3291 891 3722 
Q 769 4003 388 4659 
L 791 4659 
Q 1378 3875 1659 3084 
Q 1900 2403 1900 1659 
Q 1900 816 1576 28 
Q 1253 -759 791 -1347 
z
" transform="scale(0.015625)"/>
      </defs>
      <use xlink:href="#ArialMT-57"/>
      <use xlink:href="#ArialMT-61" x="90.634766"/>
      <use xlink:href="#ArialMT-76" x="146.25"/>
      <use xlink:href="#ArialMT-65" x="196.25"/>
      <use xlink:href="#ArialMT-6c" x="251.865234"/>
      <use xlink:href="#ArialMT-65" x="274.082031"/>
      <use xlink:href="#ArialMT-6e" x="329.697266"/>
      <use xlink:href="#ArialMT-67" x="385.3125"/>
      <use xlink:href="#ArialMT-74" x="440.927734"/>
      <use xlink:href="#ArialMT-68" x="468.710938"/>
      <use xlink:href="#ArialMT-20" x="524.326172"/>
      <use xlink:href="#ArialMT-28" x="552.109375"/>
      <use xlink:href="#ArialMT-6e" x="585.410156"/>
      <use xlink:href="#ArialMT-6d" x="641.025391"/>
      <use xlink:href="#ArialMT-29" x="724.326172"/>
     </g>
    </g>
   </g>
   <g id="matplotlib.axis_2">
    <g id="ytick_1">
     <g id="line2d_11">
      <defs>
       <path id="m69ca3f9897" d="M 0 0 
L 6 0 
" style="stroke: #262626; stroke-width: 1.25"/>
      </defs>
      <g>
       <use xlink:href="#m69ca3f9897" x="41.25125" y="273.312" style="fill: #262626; stroke: #262626; stroke-width: 1.25"/>
      </g>
     </g>
     <g id="text_7">
      <!-- 0.0 -->
      <g style="fill: #262626" transform="translate(22.46125 277.248797) scale(0.11 -0.11)">
       <defs>
        <path id="ArialMT-2e" d="M 581 0 
L 581 641 
L 1222 641 
L 1222 0 
L 581 0 
z
" transform="scale(0.015625)"/>
       </defs>
       <use xlink:href="#ArialMT-30"/>
       <use xlink:href="#ArialMT-2e" x="55.615234"/>
       <use xlink:href="#ArialMT-30" x="83.398438"/>
      </g>
     </g>
    </g>
    <g id="ytick_2">
     <g id="line2d_12">
      <g>
       <use xlink:href="#m69ca3f9897" x="41.25125" y="222.624" style="fill: #262626; stroke: #262626; stroke-width: 1.25"/>
      </g>
     </g>
     <g id="text_8">
      <!-- 0.2 -->
      <g style="fill: #262626" transform="translate(22.46125 226.560797) scale(0.11 -0.11)">
       <defs>
        <path id="ArialMT-32" d="M 3222 541 
L 3222 0 
L 194 0 
Q 188 203 259 391 
Q 375 700 629 1000 
Q 884 1300 1366 1694 
Q 2113 2306 2375 2664 
Q 2638 3022 2638 3341 
Q 2638 3675 2398 3904 
Q 2159 4134 1775 4134 
Q 1369 4134 1125 3890 
Q 881 3647 878 3216 
L 300 3275 
Q 359 3922 746 4261 
Q 1134 4600 1788 4600 
Q 2447 4600 2831 4234 
Q 3216 3869 3216 3328 
Q 3216 3053 3103 2787 
Q 2991 2522 2730 2228 
Q 2469 1934 1863 1422 
Q 1356 997 1212 845 
Q 1069 694 975 541 
L 3222 541 
z
" transform="scale(0.015625)"/>
       </defs>
       <use xlink:href="#ArialMT-30"/>
       <use xlink:href="#ArialMT-2e" x="55.615234"/>
       <use xlink:href="#ArialMT-32" x="83.398438"/>
      </g>
     </g>
    </g>
    <g id="ytick_3">
     <g id="line2d_13">
      <g>
       <use xlink:href="#m69ca3f9897" x="41.25125" y="171.936" style="fill: #262626; stroke: #262626; stroke-width: 1.25"/>
      </g>
     </g>
     <g id="text_9">
      <!-- 0.4 -->
      <g style="fill: #262626" transform="translate(22.46125 175.872797) scale(0.11 -0.11)">
       <use xlink:href="#ArialMT-30"/>
       <use xlink:href="#ArialMT-2e" x="55.615234"/>
       <use xlink:href="#ArialMT-34" x="83.398438"/>
      </g>
     </g>
    </g>
    <g id="ytick_4">
     <g id="line2d_14">
      <g>
       <use xlink:href="#m69ca3f9897" x="41.25125" y="121.248" style="fill: #262626; stroke: #262626; stroke-width: 1.25"/>
      </g>
     </g>
     <g id="text_10">
      <!-- 0.6 -->
      <g style="fill: #262626" transform="translate(22.46125 125.184797) scale(0.11 -0.11)">
       <use xlink:href="#ArialMT-30"/>
       <use xlink:href="#ArialMT-2e" x="55.615234"/>
       <use xlink:href="#ArialMT-36" x="83.398438"/>
      </g>
     </g>
    </g>
    <g id="ytick_5">
     <g id="line2d_15">
      <g>
       <use xlink:href="#m69ca3f9897" x="41.25125" y="70.56" style="fill: #262626; stroke: #262626; stroke-width: 1.25"/>
      </g>
     </g>
     <g id="text_11">
      <!-- 0.8 -->
      <g style="fill: #262626" transform="translate(22.46125 74.496797) scale(0.11 -0.11)">
       <defs>
        <path id="ArialMT-38" d="M 1131 2484 
Q 781 2613 612 2850 
Q 444 3088 444 3419 
Q 444 3919 803 4259 
Q 1163 4600 1759 4600 
Q 2359 4600 2725 4251 
Q 3091 3903 3091 3403 
Q 3091 3084 2923 2848 
Q 2756 2613 2416 2484 
Q 2838 2347 3058 2040 
Q 3278 1734 3278 1309 
Q 3278 722 2862 322 
Q 2447 -78 1769 -78 
Q 1091 -78 675 323 
Q 259 725 259 1325 
Q 259 1772 486 2073 
Q 713 2375 1131 2484 
z
M 1019 3438 
Q 1019 3113 1228 2906 
Q 1438 2700 1772 2700 
Q 2097 2700 2305 2904 
Q 2513 3109 2513 3406 
Q 2513 3716 2298 3927 
Q 2084 4138 1766 4138 
Q 1444 4138 1231 3931 
Q 1019 3725 1019 3438 
z
M 838 1322 
Q 838 1081 952 856 
Q 1066 631 1291 507 
Q 1516 384 1775 384 
Q 2178 384 2440 643 
Q 2703 903 2703 1303 
Q 2703 1709 2433 1975 
Q 2163 2241 1756 2241 
Q 1359 2241 1098 1978 
Q 838 1716 838 1322 
z
" transform="scale(0.015625)"/>
       </defs>
       <use xlink:href="#ArialMT-30"/>
       <use xlink:href="#ArialMT-2e" x="55.615234"/>
       <use xlink:href="#ArialMT-38" x="83.398438"/>
      </g>
     </g>
    </g>
    <g id="ytick_6">
     <g id="line2d_16">
      <g>
       <use xlink:href="#m69ca3f9897" x="41.25125" y="19.872" style="fill: #262626; stroke: #262626; stroke-width: 1.25"/>
      </g>
     </g>
     <g id="text_12">
      <!-- 1.0 -->
      <g style="fill: #262626" transform="translate(22.46125 23.808797) scale(0.11 -0.11)">
       <defs>
        <path id="ArialMT-31" d="M 2384 0 
L 1822 0 
L 1822 3584 
Q 1619 3391 1289 3197 
Q 959 3003 697 2906 
L 697 3450 
Q 1169 3672 1522 3987 
Q 1875 4303 2022 4600 
L 2384 4600 
L 2384 0 
z
" transform="scale(0.015625)"/>
       </defs>
       <use xlink:href="#ArialMT-31"/>
       <use xlink:href="#ArialMT-2e" x="55.615234"/>
       <use xlink:href="#ArialMT-30" x="83.398438"/>
      </g>
     </g>
    </g>
    <g id="ytick_7">
     <g id="line2d_17">
      <defs>
       <path id="m30c43b6555" d="M 0 0 
L 4 0 
" style="stroke: #262626"/>
      </defs>
      <g>
       <use xlink:href="#m30c43b6555" x="41.25125" y="247.968" style="fill: #262626; stroke: #262626"/>
      </g>
     </g>
    </g>
    <g id="ytick_8">
     <g id="line2d_18">
      <g>
       <use xlink:href="#m30c43b6555" x="41.25125" y="197.28" style="fill: #262626; stroke: #262626"/>
      </g>
     </g>
    </g>
    <g id="ytick_9">
     <g id="line2d_19">
      <g>
       <use xlink:href="#m30c43b6555" x="41.25125" y="146.592" style="fill: #262626; stroke: #262626"/>
      </g>
     </g>
    </g>
    <g id="ytick_10">
     <g id="line2d_20">
      <g>
       <use xlink:href="#m30c43b6555" x="41.25125" y="95.904" style="fill: #262626; stroke: #262626"/>
      </g>
     </g>
    </g>
    <g id="ytick_11">
     <g id="line2d_21">
      <g>
       <use xlink:href="#m30c43b6555" x="41.25125" y="45.216" style="fill: #262626; stroke: #262626"/>
      </g>
     </g>
    </g>
    <g id="text_13">
     <!-- Absorbance (a.u.) -->
     <g style="fill: #262626" transform="translate(15.935625 187.94475) rotate(-90) scale(0.12 -0.12)">
      <defs>
       <path id="ArialMT-41" d="M -9 0 
L 1750 4581 
L 2403 4581 
L 4278 0 
L 3588 0 
L 3053 1388 
L 1138 1388 
L 634 0 
L -9 0 
z
M 1313 1881 
L 2866 1881 
L 2388 3150 
Q 2169 3728 2063 4100 
Q 1975 3659 1816 3225 
L 1313 1881 
z
" transform="scale(0.015625)"/>
       <path id="ArialMT-62" d="M 941 0 
L 419 0 
L 419 4581 
L 981 4581 
L 981 2947 
Q 1338 3394 1891 3394 
Q 2197 3394 2470 3270 
Q 2744 3147 2920 2923 
Q 3097 2700 3197 2384 
Q 3297 2069 3297 1709 
Q 3297 856 2875 390 
Q 2453 -75 1863 -75 
Q 1275 -75 941 416 
L 941 0 
z
M 934 1684 
Q 934 1088 1097 822 
Q 1363 388 1816 388 
Q 2184 388 2453 708 
Q 2722 1028 2722 1663 
Q 2722 2313 2464 2622 
Q 2206 2931 1841 2931 
Q 1472 2931 1203 2611 
Q 934 2291 934 1684 
z
" transform="scale(0.015625)"/>
       <path id="ArialMT-73" d="M 197 991 
L 753 1078 
Q 800 744 1014 566 
Q 1228 388 1613 388 
Q 2000 388 2187 545 
Q 2375 703 2375 916 
Q 2375 1106 2209 1216 
Q 2094 1291 1634 1406 
Q 1016 1563 777 1677 
Q 538 1791 414 1992 
Q 291 2194 291 2438 
Q 291 2659 392 2848 
Q 494 3038 669 3163 
Q 800 3259 1026 3326 
Q 1253 3394 1513 3394 
Q 1903 3394 2198 3281 
Q 2494 3169 2634 2976 
Q 2775 2784 2828 2463 
L 2278 2388 
Q 2241 2644 2061 2787 
Q 1881 2931 1553 2931 
Q 1166 2931 1000 2803 
Q 834 2675 834 2503 
Q 834 2394 903 2306 
Q 972 2216 1119 2156 
Q 1203 2125 1616 2013 
Q 2213 1853 2448 1751 
Q 2684 1650 2818 1456 
Q 2953 1263 2953 975 
Q 2953 694 2789 445 
Q 2625 197 2315 61 
Q 2006 -75 1616 -75 
Q 969 -75 630 194 
Q 291 463 197 991 
z
" transform="scale(0.015625)"/>
       <path id="ArialMT-6f" d="M 213 1659 
Q 213 2581 725 3025 
Q 1153 3394 1769 3394 
Q 2453 3394 2887 2945 
Q 3322 2497 3322 1706 
Q 3322 1066 3130 698 
Q 2938 331 2570 128 
Q 2203 -75 1769 -75 
Q 1072 -75 642 372 
Q 213 819 213 1659 
z
M 791 1659 
Q 791 1022 1069 705 
Q 1347 388 1769 388 
Q 2188 388 2466 706 
Q 2744 1025 2744 1678 
Q 2744 2294 2464 2611 
Q 2184 2928 1769 2928 
Q 1347 2928 1069 2612 
Q 791 2297 791 1659 
z
" transform="scale(0.015625)"/>
       <path id="ArialMT-72" d="M 416 0 
L 416 3319 
L 922 3319 
L 922 2816 
Q 1116 3169 1280 3281 
Q 1444 3394 1641 3394 
Q 1925 3394 2219 3213 
L 2025 2691 
Q 1819 2813 1613 2813 
Q 1428 2813 1281 2702 
Q 1134 2591 1072 2394 
Q 978 2094 978 1738 
L 978 0 
L 416 0 
z
" transform="scale(0.015625)"/>
       <path id="ArialMT-63" d="M 2588 1216 
L 3141 1144 
Q 3050 572 2676 248 
Q 2303 -75 1759 -75 
Q 1078 -75 664 370 
Q 250 816 250 1647 
Q 250 2184 428 2587 
Q 606 2991 970 3192 
Q 1334 3394 1763 3394 
Q 2303 3394 2647 3120 
Q 2991 2847 3088 2344 
L 2541 2259 
Q 2463 2594 2264 2762 
Q 2066 2931 1784 2931 
Q 1359 2931 1093 2626 
Q 828 2322 828 1663 
Q 828 994 1084 691 
Q 1341 388 1753 388 
Q 2084 388 2306 591 
Q 2528 794 2588 1216 
z
" transform="scale(0.015625)"/>
       <path id="ArialMT-75" d="M 2597 0 
L 2597 488 
Q 2209 -75 1544 -75 
Q 1250 -75 995 37 
Q 741 150 617 320 
Q 494 491 444 738 
Q 409 903 409 1263 
L 409 3319 
L 972 3319 
L 972 1478 
Q 972 1038 1006 884 
Q 1059 663 1231 536 
Q 1403 409 1656 409 
Q 1909 409 2131 539 
Q 2353 669 2445 892 
Q 2538 1116 2538 1541 
L 2538 3319 
L 3100 3319 
L 3100 0 
L 2597 0 
z
" transform="scale(0.015625)"/>
      </defs>
      <use xlink:href="#ArialMT-41"/>
      <use xlink:href="#ArialMT-62" x="66.699219"/>
      <use xlink:href="#ArialMT-73" x="122.314453"/>
      <use xlink:href="#ArialMT-6f" x="172.314453"/>
      <use xlink:href="#ArialMT-72" x="227.929688"/>
      <use xlink:href="#ArialMT-62" x="261.230469"/>
      <use xlink:href="#ArialMT-61" x="316.845703"/>
      <use xlink:href="#ArialMT-6e" x="372.460938"/>
      <use xlink:href="#ArialMT-63" x="428.076172"/>
      <use xlink:href="#ArialMT-65" x="478.076172"/>
      <use xlink:href="#ArialMT-20" x="533.691406"/>
      <use xlink:href="#ArialMT-28" x="561.474609"/>
      <use xlink:href="#ArialMT-61" x="594.775391"/>
      <use xlink:href="#ArialMT-2e" x="650.390625"/>
      <use xlink:href="#ArialMT-75" x="678.173828"/>
      <use xlink:href="#ArialMT-2e" x="733.789062"/>
      <use xlink:href="#ArialMT-29" x="761.572266"/>
     </g>
    </g>
   </g>
   <g id="PolyCollection_1"/>
   <g id="PolyCollection_2"/>
   <g id="line2d_22">
    <path d="M 41.251238 263.079848 
L 41.768807 260.684038 
L 42.286365 261.853995 
L 42.803934 261.388152 
L 43.321503 262.142962 
L 43.83906 263.796753 
L 44.356629 263.609283 
L 44.874199 265.324199 
L 45.391756 264.660382 
L 45.909325 266.71664 
L 46.426894 266.162664 
L 46.944452 266.674513 
L 47.462021 267.789492 
L 47.97959 267.8062 
L 49.532286 269.16409 
L 50.049843 268.913759 
L 50.567412 269.435464 
L 51.084981 269.486165 
L 51.602539 269.96105 
L 52.120108 269.756296 
L 52.637677 270.18756 
L 53.155234 270.018139 
L 53.672803 270.062261 
L 54.70793 269.830627 
L 55.225511 270.036635 
L 55.743068 269.72141 
L 56.260626 270.013884 
L 58.330902 269.805275 
L 58.848459 269.44358 
L 59.366017 269.409127 
L 61.436293 268.891182 
L 61.953851 268.799472 
L 63.506546 267.645919 
L 64.541685 267.061065 
L 65.059242 266.538005 
L 65.576799 266.318631 
L 66.09438 265.712368 
L 66.611938 265.299516 
L 67.129495 265.080818 
L 67.647076 264.261057 
L 69.199772 262.724573 
L 70.752467 260.903772 
L 72.305163 258.455571 
L 72.82272 257.487938 
L 74.892973 252.547875 
L 78.515946 243.670795 
L 80.586199 237.920002 
L 82.138894 231.72547 
L 83.174033 226.570411 
L 84.726728 217.400671 
L 86.796981 205.309147 
L 88.349677 198.070452 
L 90.937511 186.788884 
L 91.972626 180.743261 
L 93.007764 173.069651 
L 94.042902 163.23349 
L 98.183408 119.772435 
L 99.218546 113.111839 
L 100.253685 108.725648 
L 100.771242 107.1961 
L 102.323938 103.729091 
L 102.841495 102.221613 
L 103.359076 100.283971 
L 103.876633 97.678755 
L 104.394191 94.389727 
L 104.911772 90.383306 
L 105.946886 79.673613 
L 107.499582 59.348295 
L 109.052278 38.16002 
L 110.087416 27.468108 
L 110.604973 23.531507 
L 111.122554 20.9964 
L 111.640112 19.872 
L 112.157669 20.086448 
L 112.67525 21.432727 
L 113.192807 23.89744 
L 113.710365 27.096103 
L 115.26306 39.669251 
L 116.815756 52.206386 
L 117.850894 58.026095 
L 118.368452 59.886076 
L 118.886033 64.034269 
L 119.40359 64.162173 
L 119.921147 63.691086 
L 120.438728 62.37091 
L 120.956286 60.571173 
L 121.991424 55.569268 
L 123.026539 50.289152 
L 123.54412 48.184556 
L 124.061677 46.697078 
L 124.579234 46.167395 
L 125.096815 46.631095 
L 125.614373 48.40982 
L 126.13193 51.522195 
L 126.649511 56.082561 
L 127.167068 62.020748 
L 128.202207 77.976175 
L 129.237321 97.975078 
L 133.895408 194.613118 
L 134.930546 210.686252 
L 135.965685 223.675927 
L 137.000799 234.179745 
L 138.035938 242.429806 
L 139.071076 248.765214 
L 140.106191 253.687953 
L 141.141329 257.530107 
L 142.176467 260.425569 
L 143.211582 262.762549 
L 144.764278 265.160256 
L 145.799416 266.489923 
L 146.834554 267.43278 
L 148.38725 268.575149 
L 149.939946 269.419171 
L 150.457503 269.571804 
L 152.010199 270.336744 
L 155.11559 271.14726 
L 155.633147 271.305852 
L 156.150728 271.316825 
L 157.703424 271.630364 
L 158.220981 271.665065 
L 159.25612 271.8735 
L 170.124989 272.795911 
L 175.818191 273.002888 
L 177.370886 273.036306 
L 178.923582 273.017749 
L 180.993859 273.104709 
L 181.511416 272.979054 
L 182.546554 273.172329 
L 184.616807 273.112561 
L 188.757337 273.157051 
L 189.274894 273.215272 
L 189.792452 273.138155 
L 190.82759 273.206461 
L 192.897843 273.216849 
L 248.794886 273.195148 
L 249.312467 273.119104 
L 251.38272 273.18245 
L 258.11106 273.189568 
L 261.216452 273.158283 
L 262.251614 273.158783 
L 265.357005 273.177986 
L 266.909701 273.183912 
L 269.497511 273.165556 
L 272.602902 273.199304 
L 274.155598 273.141427 
L 276.225874 273.179602 
L 280.36638 273.175715 
L 281.401495 273.196995 
L 294.340641 273.14058 
L 294.858222 273.22693 
L 296.410918 273.165556 
L 297.963614 273.241204 
L 300.033843 273.171367 
L 317.113495 273.175023 
L 320.218886 273.121491 
L 321.254048 273.14262 
L 323.841859 273.154281 
L 333.158033 273.072607 
L 334.710728 273.062021 
L 346.614712 273.20446 
L 348.684989 273.155589 
L 350.755266 273.215156 
L 352.307961 273.174061 
L 353.343076 273.211309 
L 355.930886 273.208308 
L 357.483582 273.181295 
L 361.106554 273.250553 
L 362.65925 273.231355 
L 398.37125 273.326412 
L 398.37125 273.326412 
" clip-path="url(#p231833427d)" style="fill: none; stroke: #f06043; stroke-linecap: round"/>
   </g>
   <g id="line2d_23">
    <path d="M 41.251238 241.163077 
L 41.768807 238.750292 
L 42.286365 240.75527 
L 42.803934 240.479608 
L 43.321503 239.954347 
L 43.83906 238.854714 
L 44.356629 238.731662 
L 44.874199 239.847285 
L 45.391756 238.395802 
L 45.909325 240.290879 
L 46.426894 239.178779 
L 46.944452 239.09943 
L 47.462021 238.794017 
L 48.497147 238.936918 
L 49.532286 239.781657 
L 50.049843 239.915037 
L 50.567412 239.562205 
L 52.120108 239.35897 
L 52.637677 239.903613 
L 53.155234 239.834113 
L 54.190373 240.1326 
L 55.225511 240.912103 
L 55.743068 241.170366 
L 56.260626 240.752256 
L 56.778207 241.114548 
L 57.295764 241.057802 
L 57.813321 240.823731 
L 58.330902 241.577274 
L 58.848459 241.619881 
L 59.366017 242.282749 
L 59.883598 242.28087 
L 60.401155 242.476656 
L 60.918712 242.433641 
L 61.436293 242.083953 
L 61.953851 241.962248 
L 62.988989 240.71116 
L 63.506546 240.470907 
L 64.541685 240.170109 
L 65.059242 240.437564 
L 65.576799 240.916793 
L 67.129495 241.042227 
L 68.164633 239.203614 
L 68.682191 238.955714 
L 69.199772 238.438111 
L 69.717329 238.436631 
L 70.234886 238.008279 
L 71.270025 238.195985 
L 71.787582 238.623812 
L 72.305163 238.444988 
L 72.82272 238.927227 
L 73.857859 238.982274 
L 74.892973 239.335552 
L 75.410554 239.740073 
L 75.928112 239.749337 
L 76.96325 240.233086 
L 79.033503 241.02316 
L 80.068641 241.132517 
L 80.586199 241.409078 
L 81.621337 241.57471 
L 82.138894 241.566881 
L 82.656452 241.810882 
L 83.174033 241.727305 
L 83.69159 242.318127 
L 84.209147 241.924454 
L 86.279424 242.325231 
L 86.796981 242.211948 
L 87.83212 242.320518 
L 88.349677 242.510692 
L 88.867234 242.109167 
L 89.384815 242.132395 
L 89.902373 242.536739 
L 90.41993 242.139295 
L 90.937511 242.210003 
L 92.490207 241.784495 
L 93.007764 241.933135 
L 93.525321 241.633662 
L 94.042902 241.653938 
L 95.078017 241.345926 
L 95.595598 241.032435 
L 96.113155 240.930011 
L 96.630712 240.608812 
L 97.148293 240.852799 
L 97.665851 240.428243 
L 98.700989 240.047696 
L 99.218546 240.145557 
L 100.253685 239.614888 
L 100.771242 239.32611 
L 101.288799 239.218278 
L 101.80638 239.256055 
L 107.499582 236.867315 
L 109.569859 235.599097 
L 110.604973 234.894838 
L 112.157669 233.984814 
L 115.780641 231.298652 
L 116.298199 231.077467 
L 118.368452 229.711191 
L 119.921147 228.695416 
L 120.438728 228.236516 
L 120.956286 228.061197 
L 122.508981 226.801559 
L 123.026539 226.635126 
L 125.096815 225.215362 
L 127.167068 223.786093 
L 128.202207 223.407388 
L 130.272459 221.805749 
L 131.307598 221.379717 
L 133.895408 219.367389 
L 134.412989 219.063872 
L 134.930546 218.542757 
L 135.448104 218.38893 
L 136.483242 217.665215 
L 137.51838 216.717573 
L 138.553495 216.036997 
L 140.106191 214.821914 
L 140.623772 214.293024 
L 141.658886 213.509476 
L 142.176467 213.091741 
L 145.281859 209.575047 
L 145.799416 209.134611 
L 147.352112 207.005626 
L 148.38725 205.703222 
L 155.633147 195.266121 
L 156.668286 193.425914 
L 161.326373 184.770227 
L 165.466902 176.136391 
L 173.747938 159.57933 
L 176.853329 153.549803 
L 179.95872 147.161353 
L 181.511416 143.650007 
L 183.064112 140.442024 
L 184.09925 138.187348 
L 186.68706 132.345463 
L 187.722199 129.99663 
L 189.274894 126.468863 
L 189.792452 125.086434 
L 190.310033 124.060935 
L 194.96812 112.187476 
L 200.661321 95.092256 
L 203.766712 85.139823 
L 205.836989 78.969287 
L 208.424799 72.196044 
L 209.977495 68.788901 
L 211.530191 65.709894 
L 213.082886 62.830562 
L 215.153163 59.254033 
L 218.258554 53.120975 
L 219.81125 49.276402 
L 221.881503 43.63055 
L 223.951756 36.954274 
L 227.574728 26.027037 
L 228.609843 23.562928 
L 229.644981 21.64793 
L 230.68012 20.312799 
L 231.197677 19.987668 
L 231.715234 19.872 
L 232.232815 19.918029 
L 233.26793 20.581871 
L 234.303068 22.102325 
L 235.338207 24.393936 
L 236.890902 29.293028 
L 238.443598 35.243662 
L 241.031408 46.145143 
L 242.584104 52.475729 
L 244.136799 57.81494 
L 245.171938 60.594391 
L 246.207076 62.811664 
L 246.724633 63.696721 
L 247.759772 64.84588 
L 248.277329 65.227281 
L 248.794886 65.469328 
L 249.830025 65.450309 
L 250.347582 65.321907 
L 251.38272 64.720212 
L 252.417859 63.965853 
L 253.970554 62.78985 
L 255.005669 62.692778 
L 255.52325 62.746103 
L 256.040831 62.937347 
L 256.558365 63.268309 
L 257.593527 64.726798 
L 258.11106 65.781347 
L 259.146222 68.824838 
L 260.181337 73.127764 
L 261.216452 78.853936 
L 262.251614 86.011148 
L 263.286728 94.588147 
L 264.839424 109.990868 
L 266.39212 127.751742 
L 272.085321 197.654125 
L 273.638017 213.155791 
L 275.190712 226.233018 
L 276.743408 236.701819 
L 277.77857 242.532095 
L 279.331266 249.430709 
L 280.36638 252.951141 
L 281.401495 256.018064 
L 282.436657 258.500432 
L 283.471772 260.466402 
L 284.506886 262.266901 
L 286.577163 264.847712 
L 288.129859 266.269014 
L 290.717669 267.93809 
L 292.787946 268.965079 
L 295.893337 270.050232 
L 296.410918 270.096165 
L 297.446033 270.428799 
L 298.998728 270.687001 
L 302.621701 271.269748 
L 303.139234 271.244437 
L 304.69193 271.503868 
L 305.209511 271.466532 
L 305.727092 271.564946 
L 306.762207 271.625725 
L 311.420293 271.86037 
L 312.972989 271.787265 
L 313.49057 271.790175 
L 314.008104 271.950243 
L 317.113495 272.004903 
L 321.771582 272.18675 
L 327.982365 272.281285 
L 329.017527 272.358393 
L 331.087756 272.426641 
L 332.640452 272.464912 
L 333.158033 272.312103 
L 339.368815 272.414497 
L 340.40393 272.397476 
L 340.921511 272.65687 
L 342.474207 272.649833 
L 345.062017 272.685214 
L 345.579598 272.562595 
L 346.097179 272.676369 
L 346.614712 272.608443 
L 348.167408 272.708844 
L 348.684989 272.645442 
L 349.20257 272.756907 
L 352.307961 272.728309 
L 352.825495 272.887905 
L 353.343076 272.783309 
L 356.448467 272.894294 
L 358.001163 272.928047 
L 358.518744 273.007644 
L 359.036278 272.906782 
L 364.729527 273.028517 
L 367.834918 273.057423 
L 370.940309 273.20586 
L 371.457843 273.077036 
L 374.045701 273.214535 
L 375.080815 273.19067 
L 378.186207 273.212665 
L 379.221321 273.269841 
L 379.738902 273.237174 
L 380.774017 273.345648 
L 382.844293 273.270744 
L 383.879408 273.400554 
L 384.91457 273.389786 
L 386.984799 273.341392 
L 390.607772 273.411354 
L 392.678048 273.36135 
L 395.265859 273.380791 
L 397.336135 273.335588 
L 398.37125 273.291994 
L 398.37125 273.291994 
" clip-path="url(#p231833427d)" style="fill: none; stroke: #841e5a; stroke-linecap: round"/>
   </g>
   <g id="line2d_24"/>
   <g id="line2d_25"/>
   <g id="patch_3">
    <path d="M 41.25125 273.312 
L 41.25125 7.2 
" style="fill: none; stroke: #262626; stroke-width: 1.25; stroke-linejoin: miter; stroke-linecap: square"/>
   </g>
   <g id="patch_4">
    <path d="M 41.25125 273.312 
L 398.37125 273.312 
" style="fill: none; stroke: #262626; stroke-width: 1.25; stroke-linejoin: miter; stroke-linecap: square"/>
   </g>
   <g id="legend_1">
    <g id="line2d_26">
     <path d="M 296.63525 94.701412 
L 302.63525 94.701412 
L 308.63525 94.701412 
" style="fill: none; stroke: #f06043; stroke-width: 1.5; stroke-linecap: round"/>
    </g>
    <g id="text_14">
     <!-- 2023_06_22_C10-dialdehyde-chcl3_Abs -->
     <g style="fill: #262626" transform="translate(313.43525 96.801412) scale(0.06 -0.06)">
      <defs>
       <path id="ArialMT-5f" d="M -97 -1272 
L -97 -866 
L 3631 -866 
L 3631 -1272 
L -97 -1272 
z
" transform="scale(0.015625)"/>
       <path id="ArialMT-43" d="M 3763 1606 
L 4369 1453 
Q 4178 706 3683 314 
Q 3188 -78 2472 -78 
Q 1731 -78 1267 223 
Q 803 525 561 1097 
Q 319 1669 319 2325 
Q 319 3041 592 3573 
Q 866 4106 1370 4382 
Q 1875 4659 2481 4659 
Q 3169 4659 3637 4309 
Q 4106 3959 4291 3325 
L 3694 3184 
Q 3534 3684 3231 3912 
Q 2928 4141 2469 4141 
Q 1941 4141 1586 3887 
Q 1231 3634 1087 3207 
Q 944 2781 944 2328 
Q 944 1744 1114 1308 
Q 1284 872 1643 656 
Q 2003 441 2422 441 
Q 2931 441 3284 734 
Q 3638 1028 3763 1606 
z
" transform="scale(0.015625)"/>
       <path id="ArialMT-2d" d="M 203 1375 
L 203 1941 
L 1931 1941 
L 1931 1375 
L 203 1375 
z
" transform="scale(0.015625)"/>
       <path id="ArialMT-64" d="M 2575 0 
L 2575 419 
Q 2259 -75 1647 -75 
Q 1250 -75 917 144 
Q 584 363 401 755 
Q 219 1147 219 1656 
Q 219 2153 384 2558 
Q 550 2963 881 3178 
Q 1213 3394 1622 3394 
Q 1922 3394 2156 3267 
Q 2391 3141 2538 2938 
L 2538 4581 
L 3097 4581 
L 3097 0 
L 2575 0 
z
M 797 1656 
Q 797 1019 1065 703 
Q 1334 388 1700 388 
Q 2069 388 2326 689 
Q 2584 991 2584 1609 
Q 2584 2291 2321 2609 
Q 2059 2928 1675 2928 
Q 1300 2928 1048 2622 
Q 797 2316 797 1656 
z
" transform="scale(0.015625)"/>
       <path id="ArialMT-69" d="M 425 3934 
L 425 4581 
L 988 4581 
L 988 3934 
L 425 3934 
z
M 425 0 
L 425 3319 
L 988 3319 
L 988 0 
L 425 0 
z
" transform="scale(0.015625)"/>
       <path id="ArialMT-79" d="M 397 -1278 
L 334 -750 
Q 519 -800 656 -800 
Q 844 -800 956 -737 
Q 1069 -675 1141 -563 
Q 1194 -478 1313 -144 
Q 1328 -97 1363 -6 
L 103 3319 
L 709 3319 
L 1400 1397 
Q 1534 1031 1641 628 
Q 1738 1016 1872 1384 
L 2581 3319 
L 3144 3319 
L 1881 -56 
Q 1678 -603 1566 -809 
Q 1416 -1088 1222 -1217 
Q 1028 -1347 759 -1347 
Q 597 -1347 397 -1278 
z
" transform="scale(0.015625)"/>
      </defs>
      <use xlink:href="#ArialMT-32"/>
      <use xlink:href="#ArialMT-30" x="55.615234"/>
      <use xlink:href="#ArialMT-32" x="111.230469"/>
      <use xlink:href="#ArialMT-33" x="166.845703"/>
      <use xlink:href="#ArialMT-5f" x="222.460938"/>
      <use xlink:href="#ArialMT-30" x="278.076172"/>
      <use xlink:href="#ArialMT-36" x="333.691406"/>
      <use xlink:href="#ArialMT-5f" x="389.306641"/>
      <use xlink:href="#ArialMT-32" x="444.921875"/>
      <use xlink:href="#ArialMT-32" x="500.537109"/>
      <use xlink:href="#ArialMT-5f" x="556.152344"/>
      <use xlink:href="#ArialMT-43" x="611.767578"/>
      <use xlink:href="#ArialMT-31" x="683.984375"/>
      <use xlink:href="#ArialMT-30" x="739.599609"/>
      <use xlink:href="#ArialMT-2d" x="795.214844"/>
      <use xlink:href="#ArialMT-64" x="828.515625"/>
      <use xlink:href="#ArialMT-69" x="884.130859"/>
      <use xlink:href="#ArialMT-61" x="906.347656"/>
      <use xlink:href="#ArialMT-6c" x="961.962891"/>
      <use xlink:href="#ArialMT-64" x="984.179688"/>
      <use xlink:href="#ArialMT-65" x="1039.794922"/>
      <use xlink:href="#ArialMT-68" x="1095.410156"/>
      <use xlink:href="#ArialMT-79" x="1151.025391"/>
      <use xlink:href="#ArialMT-64" x="1201.025391"/>
      <use xlink:href="#ArialMT-65" x="1256.640625"/>
      <use xlink:href="#ArialMT-2d" x="1312.255859"/>
      <use xlink:href="#ArialMT-63" x="1345.556641"/>
      <use xlink:href="#ArialMT-68" x="1395.556641"/>
      <use xlink:href="#ArialMT-63" x="1451.171875"/>
      <use xlink:href="#ArialMT-6c" x="1501.171875"/>
      <use xlink:href="#ArialMT-33" x="1523.388672"/>
      <use xlink:href="#ArialMT-5f" x="1579.003906"/>
      <use xlink:href="#ArialMT-41" x="1634.619141"/>
      <use xlink:href="#ArialMT-62" x="1701.318359"/>
      <use xlink:href="#ArialMT-73" x="1756.933594"/>
     </g>
    </g>
    <g id="line2d_27">
     <path d="M 296.63525 103.276725 
L 302.63525 103.276725 
L 308.63525 103.276725 
" style="fill: none; stroke: #841e5a; stroke-width: 1.5; stroke-linecap: round"/>
    </g>
    <g id="text_15">
     <!-- 2023_06_22_AU-038-B1-2_Abs -->
     <g style="fill: #262626" transform="translate(313.43525 105.376725) scale(0.06 -0.06)">
      <defs>
       <path id="ArialMT-55" d="M 3500 4581 
L 4106 4581 
L 4106 1934 
Q 4106 1244 3950 837 
Q 3794 431 3386 176 
Q 2978 -78 2316 -78 
Q 1672 -78 1262 144 
Q 853 366 678 786 
Q 503 1206 503 1934 
L 503 4581 
L 1109 4581 
L 1109 1938 
Q 1109 1341 1220 1058 
Q 1331 775 1601 622 
Q 1872 469 2263 469 
Q 2931 469 3215 772 
Q 3500 1075 3500 1938 
L 3500 4581 
z
" transform="scale(0.015625)"/>
       <path id="ArialMT-42" d="M 469 0 
L 469 4581 
L 2188 4581 
Q 2713 4581 3030 4442 
Q 3347 4303 3526 4014 
Q 3706 3725 3706 3409 
Q 3706 3116 3547 2856 
Q 3388 2597 3066 2438 
Q 3481 2316 3704 2022 
Q 3928 1728 3928 1328 
Q 3928 1006 3792 729 
Q 3656 453 3456 303 
Q 3256 153 2954 76 
Q 2653 0 2216 0 
L 469 0 
z
M 1075 2656 
L 2066 2656 
Q 2469 2656 2644 2709 
Q 2875 2778 2992 2937 
Q 3109 3097 3109 3338 
Q 3109 3566 3000 3739 
Q 2891 3913 2687 3977 
Q 2484 4041 1991 4041 
L 1075 4041 
L 1075 2656 
z
M 1075 541 
L 2216 541 
Q 2509 541 2628 563 
Q 2838 600 2978 687 
Q 3119 775 3209 942 
Q 3300 1109 3300 1328 
Q 3300 1584 3169 1773 
Q 3038 1963 2805 2039 
Q 2572 2116 2134 2116 
L 1075 2116 
L 1075 541 
z
" transform="scale(0.015625)"/>
      </defs>
      <use xlink:href="#ArialMT-32"/>
      <use xlink:href="#ArialMT-30" x="55.615234"/>
      <use xlink:href="#ArialMT-32" x="111.230469"/>
      <use xlink:href="#ArialMT-33" x="166.845703"/>
      <use xlink:href="#ArialMT-5f" x="222.460938"/>
      <use xlink:href="#ArialMT-30" x="278.076172"/>
      <use xlink:href="#ArialMT-36" x="333.691406"/>
      <use xlink:href="#ArialMT-5f" x="389.306641"/>
      <use xlink:href="#ArialMT-32" x="444.921875"/>
      <use xlink:href="#ArialMT-32" x="500.537109"/>
      <use xlink:href="#ArialMT-5f" x="556.152344"/>
      <use xlink:href="#ArialMT-41" x="611.767578"/>
      <use xlink:href="#ArialMT-55" x="678.466797"/>
      <use xlink:href="#ArialMT-2d" x="750.683594"/>
      <use xlink:href="#ArialMT-30" x="783.984375"/>
      <use xlink:href="#ArialMT-33" x="839.599609"/>
      <use xlink:href="#ArialMT-38" x="895.214844"/>
      <use xlink:href="#ArialMT-2d" x="950.830078"/>
      <use xlink:href="#ArialMT-42" x="984.130859"/>
      <use xlink:href="#ArialMT-31" x="1050.830078"/>
      <use xlink:href="#ArialMT-2d" x="1106.445312"/>
      <use xlink:href="#ArialMT-32" x="1139.746094"/>
      <use xlink:href="#ArialMT-5f" x="1195.361328"/>
      <use xlink:href="#ArialMT-41" x="1250.976562"/>
      <use xlink:href="#ArialMT-62" x="1317.675781"/>
      <use xlink:href="#ArialMT-73" x="1373.291016"/>
     </g>
    </g>
   </g>
  </g>
 </g>
 <defs>
  <clipPath id="p231833427d">
   <rect x="41.25125" y="7.2" width="357.12" height="266.112"/>
  </clipPath>
 </defs>
</svg>
