<?xml version="1.0" encoding="utf-8" standalone="no"?>
<!DOCTYPE svg PUBLIC "-//W3C//DTD SVG 1.1//EN"
  "http://www.w3.org/Graphics/SVG/1.1/DTD/svg11.dtd">
<svg xmlns:xlink="http://www.w3.org/1999/xlink" width="414.746797pt" height="309.333094pt" viewBox="0 0 414.746797 309.333094" xmlns="http://www.w3.org/2000/svg" version="1.1">
 <metadata>
  <rdf:RDF xmlns:dc="http://purl.org/dc/elements/1.1/" xmlns:cc="http://creativecommons.org/ns#" xmlns:rdf="http://www.w3.org/1999/02/22-rdf-syntax-ns#">
   <cc:Work>
    <dc:type rdf:resource="http://purl.org/dc/dcmitype/StillImage"/>
    <dc:date>2023-12-15T14:13:44.777690</dc:date>
    <dc:format>image/svg+xml</dc:format>
    <dc:creator>
     <cc:Agent>
      <dc:title>Matplotlib v3.7.1, https://matplotlib.org/</dc:title>
     </cc:Agent>
    </dc:creator>
   </cc:Work>
  </rdf:RDF>
 </metadata>
 <defs>
  <style type="text/css">*{stroke-linejoin: round; stroke-linecap: butt}</style>
 </defs>
 <g id="figure_1">
  <g id="patch_1">
   <path d="M 0 309.333094 
L 414.746797 309.333094 
L 414.746797 0 
L 0 0 
z
" style="fill: #ffffff"/>
  </g>
  <g id="axes_1">
   <g id="patch_2">
    <path d="M 41.25125 273.312 
L 398.37125 273.312 
L 398.37125 7.2 
L 41.25125 7.2 
z
" style="fill: #ffffff"/>
   </g>
   <g id="matplotlib.axis_1">
    <g id="xtick_1">
     <g id="line2d_1">
      <defs>
       <path id="m8b9b529c74" d="M 0 0 
L 0 -6 
" style="stroke: #262626; stroke-width: 1.25"/>
      </defs>
      <g>
       <use xlink:href="#m8b9b529c74" x="66.166599" y="273.312" style="fill: #262626; stroke: #262626; stroke-width: 1.25"/>
      </g>
     </g>
     <g id="text_1">
      <!-- 250 -->
      <g style="fill: #262626" transform="translate(56.991052 284.685594) scale(0.11 -0.11)">
       <defs>
        <path id="ArialMT-32" d="M 3222 541 
L 3222 0 
L 194 0 
Q 188 203 259 391 
Q 375 700 629 1000 
Q 884 1300 1366 1694 
Q 2113 2306 2375 2664 
Q 2638 3022 2638 3341 
Q 2638 3675 2398 3904 
Q 2159 4134 1775 4134 
Q 1369 4134 1125 3890 
Q 881 3647 878 3216 
L 300 3275 
Q 359 3922 746 4261 
Q 1134 4600 1788 4600 
Q 2447 4600 2831 4234 
Q 3216 3869 3216 3328 
Q 3216 3053 3103 2787 
Q 2991 2522 2730 2228 
Q 2469 1934 1863 1422 
Q 1356 997 1212 845 
Q 1069 694 975 541 
L 3222 541 
z
" transform="scale(0.015625)"/>
        <path id="ArialMT-35" d="M 266 1200 
L 856 1250 
Q 922 819 1161 601 
Q 1400 384 1738 384 
Q 2144 384 2425 690 
Q 2706 997 2706 1503 
Q 2706 1984 2436 2262 
Q 2166 2541 1728 2541 
Q 1456 2541 1237 2417 
Q 1019 2294 894 2097 
L 366 2166 
L 809 4519 
L 3088 4519 
L 3088 3981 
L 1259 3981 
L 1013 2750 
Q 1425 3038 1878 3038 
Q 2478 3038 2890 2622 
Q 3303 2206 3303 1553 
Q 3303 931 2941 478 
Q 2500 -78 1738 -78 
Q 1113 -78 717 272 
Q 322 622 266 1200 
z
" transform="scale(0.015625)"/>
        <path id="ArialMT-30" d="M 266 2259 
Q 266 3072 433 3567 
Q 600 4063 929 4331 
Q 1259 4600 1759 4600 
Q 2128 4600 2406 4451 
Q 2684 4303 2865 4023 
Q 3047 3744 3150 3342 
Q 3253 2941 3253 2259 
Q 3253 1453 3087 958 
Q 2922 463 2592 192 
Q 2263 -78 1759 -78 
Q 1097 -78 719 397 
Q 266 969 266 2259 
z
M 844 2259 
Q 844 1131 1108 757 
Q 1372 384 1759 384 
Q 2147 384 2411 759 
Q 2675 1134 2675 2259 
Q 2675 3391 2411 3762 
Q 2147 4134 1753 4134 
Q 1366 4134 1134 3806 
Q 844 3388 844 2259 
z
" transform="scale(0.015625)"/>
       </defs>
       <use xlink:href="#ArialMT-32"/>
       <use xlink:href="#ArialMT-35" x="55.615234"/>
       <use xlink:href="#ArialMT-30" x="111.230469"/>
      </g>
     </g>
    </g>
    <g id="xtick_2">
     <g id="line2d_2">
      <g>
       <use xlink:href="#m8b9b529c74" x="107.69218" y="273.312" style="fill: #262626; stroke: #262626; stroke-width: 1.25"/>
      </g>
     </g>
     <g id="text_2">
      <!-- 300 -->
      <g style="fill: #262626" transform="translate(98.516633 284.685594) scale(0.11 -0.11)">
       <defs>
        <path id="ArialMT-33" d="M 269 1209 
L 831 1284 
Q 928 806 1161 595 
Q 1394 384 1728 384 
Q 2125 384 2398 659 
Q 2672 934 2672 1341 
Q 2672 1728 2419 1979 
Q 2166 2231 1775 2231 
Q 1616 2231 1378 2169 
L 1441 2663 
Q 1497 2656 1531 2656 
Q 1891 2656 2178 2843 
Q 2466 3031 2466 3422 
Q 2466 3731 2256 3934 
Q 2047 4138 1716 4138 
Q 1388 4138 1169 3931 
Q 950 3725 888 3313 
L 325 3413 
Q 428 3978 793 4289 
Q 1159 4600 1703 4600 
Q 2078 4600 2393 4439 
Q 2709 4278 2876 4000 
Q 3044 3722 3044 3409 
Q 3044 3113 2884 2869 
Q 2725 2625 2413 2481 
Q 2819 2388 3044 2092 
Q 3269 1797 3269 1353 
Q 3269 753 2831 336 
Q 2394 -81 1725 -81 
Q 1122 -81 723 278 
Q 325 638 269 1209 
z
" transform="scale(0.015625)"/>
       </defs>
       <use xlink:href="#ArialMT-33"/>
       <use xlink:href="#ArialMT-30" x="55.615234"/>
       <use xlink:href="#ArialMT-30" x="111.230469"/>
      </g>
     </g>
    </g>
    <g id="xtick_3">
     <g id="line2d_3">
      <g>
       <use xlink:href="#m8b9b529c74" x="149.217762" y="273.312" style="fill: #262626; stroke: #262626; stroke-width: 1.25"/>
      </g>
     </g>
     <g id="text_3">
      <!-- 350 -->
      <g style="fill: #262626" transform="translate(140.042215 284.685594) scale(0.11 -0.11)">
       <use xlink:href="#ArialMT-33"/>
       <use xlink:href="#ArialMT-35" x="55.615234"/>
       <use xlink:href="#ArialMT-30" x="111.230469"/>
      </g>
     </g>
    </g>
    <g id="xtick_4">
     <g id="line2d_4">
      <g>
       <use xlink:href="#m8b9b529c74" x="190.743343" y="273.312" style="fill: #262626; stroke: #262626; stroke-width: 1.25"/>
      </g>
     </g>
     <g id="text_4">
      <!-- 400 -->
      <g style="fill: #262626" transform="translate(181.567796 284.685594) scale(0.11 -0.11)">
       <defs>
        <path id="ArialMT-34" d="M 2069 0 
L 2069 1097 
L 81 1097 
L 81 1613 
L 2172 4581 
L 2631 4581 
L 2631 1613 
L 3250 1613 
L 3250 1097 
L 2631 1097 
L 2631 0 
L 2069 0 
z
M 2069 1613 
L 2069 3678 
L 634 1613 
L 2069 1613 
z
" transform="scale(0.015625)"/>
       </defs>
       <use xlink:href="#ArialMT-34"/>
       <use xlink:href="#ArialMT-30" x="55.615234"/>
       <use xlink:href="#ArialMT-30" x="111.230469"/>
      </g>
     </g>
    </g>
    <g id="xtick_5">
     <g id="line2d_5">
      <g>
       <use xlink:href="#m8b9b529c74" x="232.268924" y="273.312" style="fill: #262626; stroke: #262626; stroke-width: 1.25"/>
      </g>
     </g>
     <g id="text_5">
      <!-- 450 -->
      <g style="fill: #262626" transform="translate(223.093378 284.685594) scale(0.11 -0.11)">
       <use xlink:href="#ArialMT-34"/>
       <use xlink:href="#ArialMT-35" x="55.615234"/>
       <use xlink:href="#ArialMT-30" x="111.230469"/>
      </g>
     </g>
    </g>
    <g id="xtick_6">
     <g id="line2d_6">
      <g>
       <use xlink:href="#m8b9b529c74" x="273.794506" y="273.312" style="fill: #262626; stroke: #262626; stroke-width: 1.25"/>
      </g>
     </g>
     <g id="text_6">
      <!-- 500 -->
      <g style="fill: #262626" transform="translate(264.618959 284.685594) scale(0.11 -0.11)">
       <use xlink:href="#ArialMT-35"/>
       <use xlink:href="#ArialMT-30" x="55.615234"/>
       <use xlink:href="#ArialMT-30" x="111.230469"/>
      </g>
     </g>
    </g>
    <g id="xtick_7">
     <g id="line2d_7">
      <g>
       <use xlink:href="#m8b9b529c74" x="315.320087" y="273.312" style="fill: #262626; stroke: #262626; stroke-width: 1.25"/>
      </g>
     </g>
     <g id="text_7">
      <!-- 550 -->
      <g style="fill: #262626" transform="translate(306.14454 284.685594) scale(0.11 -0.11)">
       <use xlink:href="#ArialMT-35"/>
       <use xlink:href="#ArialMT-35" x="55.615234"/>
       <use xlink:href="#ArialMT-30" x="111.230469"/>
      </g>
     </g>
    </g>
    <g id="xtick_8">
     <g id="line2d_8">
      <g>
       <use xlink:href="#m8b9b529c74" x="356.845669" y="273.312" style="fill: #262626; stroke: #262626; stroke-width: 1.25"/>
      </g>
     </g>
     <g id="text_8">
      <!-- 600 -->
      <g style="fill: #262626" transform="translate(347.670122 284.685594) scale(0.11 -0.11)">
       <defs>
        <path id="ArialMT-36" d="M 3184 3459 
L 2625 3416 
Q 2550 3747 2413 3897 
Q 2184 4138 1850 4138 
Q 1581 4138 1378 3988 
Q 1113 3794 959 3422 
Q 806 3050 800 2363 
Q 1003 2672 1297 2822 
Q 1591 2972 1913 2972 
Q 2475 2972 2870 2558 
Q 3266 2144 3266 1488 
Q 3266 1056 3080 686 
Q 2894 316 2569 119 
Q 2244 -78 1831 -78 
Q 1128 -78 684 439 
Q 241 956 241 2144 
Q 241 3472 731 4075 
Q 1159 4600 1884 4600 
Q 2425 4600 2770 4297 
Q 3116 3994 3184 3459 
z
M 888 1484 
Q 888 1194 1011 928 
Q 1134 663 1356 523 
Q 1578 384 1822 384 
Q 2178 384 2434 671 
Q 2691 959 2691 1453 
Q 2691 1928 2437 2201 
Q 2184 2475 1800 2475 
Q 1419 2475 1153 2201 
Q 888 1928 888 1484 
z
" transform="scale(0.015625)"/>
       </defs>
       <use xlink:href="#ArialMT-36"/>
       <use xlink:href="#ArialMT-30" x="55.615234"/>
       <use xlink:href="#ArialMT-30" x="111.230469"/>
      </g>
     </g>
    </g>
    <g id="xtick_9">
     <g id="line2d_9">
      <g>
       <use xlink:href="#m8b9b529c74" x="398.37125" y="273.312" style="fill: #262626; stroke: #262626; stroke-width: 1.25"/>
      </g>
     </g>
     <g id="text_9">
      <!-- 650 -->
      <g style="fill: #262626" transform="translate(389.195703 284.685594) scale(0.11 -0.11)">
       <use xlink:href="#ArialMT-36"/>
       <use xlink:href="#ArialMT-35" x="55.615234"/>
       <use xlink:href="#ArialMT-30" x="111.230469"/>
      </g>
     </g>
    </g>
    <g id="xtick_10">
     <g id="line2d_10">
      <defs>
       <path id="m873599fb1f" d="M 0 0 
L 0 -4 
" style="stroke: #262626"/>
      </defs>
      <g>
       <use xlink:href="#m873599fb1f" x="45.403808" y="273.312" style="fill: #262626; stroke: #262626"/>
      </g>
     </g>
    </g>
    <g id="xtick_11">
     <g id="line2d_11">
      <g>
       <use xlink:href="#m873599fb1f" x="86.92939" y="273.312" style="fill: #262626; stroke: #262626"/>
      </g>
     </g>
    </g>
    <g id="xtick_12">
     <g id="line2d_12">
      <g>
       <use xlink:href="#m873599fb1f" x="128.454971" y="273.312" style="fill: #262626; stroke: #262626"/>
      </g>
     </g>
    </g>
    <g id="xtick_13">
     <g id="line2d_13">
      <g>
       <use xlink:href="#m873599fb1f" x="169.980552" y="273.312" style="fill: #262626; stroke: #262626"/>
      </g>
     </g>
    </g>
    <g id="xtick_14">
     <g id="line2d_14">
      <g>
       <use xlink:href="#m873599fb1f" x="211.506134" y="273.312" style="fill: #262626; stroke: #262626"/>
      </g>
     </g>
    </g>
    <g id="xtick_15">
     <g id="line2d_15">
      <g>
       <use xlink:href="#m873599fb1f" x="253.031715" y="273.312" style="fill: #262626; stroke: #262626"/>
      </g>
     </g>
    </g>
    <g id="xtick_16">
     <g id="line2d_16">
      <g>
       <use xlink:href="#m873599fb1f" x="294.557297" y="273.312" style="fill: #262626; stroke: #262626"/>
      </g>
     </g>
    </g>
    <g id="xtick_17">
     <g id="line2d_17">
      <g>
       <use xlink:href="#m873599fb1f" x="336.082878" y="273.312" style="fill: #262626; stroke: #262626"/>
      </g>
     </g>
    </g>
    <g id="xtick_18">
     <g id="line2d_18">
      <g>
       <use xlink:href="#m873599fb1f" x="377.608459" y="273.312" style="fill: #262626; stroke: #262626"/>
      </g>
     </g>
    </g>
    <g id="text_10">
     <!-- Wavelength (nm) -->
     <g style="fill: #262626" transform="translate(174.356562 299.607469) scale(0.12 -0.12)">
      <defs>
       <path id="ArialMT-57" d="M 1294 0 
L 78 4581 
L 700 4581 
L 1397 1578 
Q 1509 1106 1591 641 
Q 1766 1375 1797 1488 
L 2669 4581 
L 3400 4581 
L 4056 2263 
Q 4303 1400 4413 641 
Q 4500 1075 4641 1638 
L 5359 4581 
L 5969 4581 
L 4713 0 
L 4128 0 
L 3163 3491 
Q 3041 3928 3019 4028 
Q 2947 3713 2884 3491 
L 1913 0 
L 1294 0 
z
" transform="scale(0.015625)"/>
       <path id="ArialMT-61" d="M 2588 409 
Q 2275 144 1986 34 
Q 1697 -75 1366 -75 
Q 819 -75 525 192 
Q 231 459 231 875 
Q 231 1119 342 1320 
Q 453 1522 633 1644 
Q 813 1766 1038 1828 
Q 1203 1872 1538 1913 
Q 2219 1994 2541 2106 
Q 2544 2222 2544 2253 
Q 2544 2597 2384 2738 
Q 2169 2928 1744 2928 
Q 1347 2928 1158 2789 
Q 969 2650 878 2297 
L 328 2372 
Q 403 2725 575 2942 
Q 747 3159 1072 3276 
Q 1397 3394 1825 3394 
Q 2250 3394 2515 3294 
Q 2781 3194 2906 3042 
Q 3031 2891 3081 2659 
Q 3109 2516 3109 2141 
L 3109 1391 
Q 3109 606 3145 398 
Q 3181 191 3288 0 
L 2700 0 
Q 2613 175 2588 409 
z
M 2541 1666 
Q 2234 1541 1622 1453 
Q 1275 1403 1131 1340 
Q 988 1278 909 1158 
Q 831 1038 831 891 
Q 831 666 1001 516 
Q 1172 366 1500 366 
Q 1825 366 2078 508 
Q 2331 650 2450 897 
Q 2541 1088 2541 1459 
L 2541 1666 
z
" transform="scale(0.015625)"/>
       <path id="ArialMT-76" d="M 1344 0 
L 81 3319 
L 675 3319 
L 1388 1331 
Q 1503 1009 1600 663 
Q 1675 925 1809 1294 
L 2547 3319 
L 3125 3319 
L 1869 0 
L 1344 0 
z
" transform="scale(0.015625)"/>
       <path id="ArialMT-65" d="M 2694 1069 
L 3275 997 
Q 3138 488 2766 206 
Q 2394 -75 1816 -75 
Q 1088 -75 661 373 
Q 234 822 234 1631 
Q 234 2469 665 2931 
Q 1097 3394 1784 3394 
Q 2450 3394 2872 2941 
Q 3294 2488 3294 1666 
Q 3294 1616 3291 1516 
L 816 1516 
Q 847 969 1125 678 
Q 1403 388 1819 388 
Q 2128 388 2347 550 
Q 2566 713 2694 1069 
z
M 847 1978 
L 2700 1978 
Q 2663 2397 2488 2606 
Q 2219 2931 1791 2931 
Q 1403 2931 1139 2672 
Q 875 2413 847 1978 
z
" transform="scale(0.015625)"/>
       <path id="ArialMT-6c" d="M 409 0 
L 409 4581 
L 972 4581 
L 972 0 
L 409 0 
z
" transform="scale(0.015625)"/>
       <path id="ArialMT-6e" d="M 422 0 
L 422 3319 
L 928 3319 
L 928 2847 
Q 1294 3394 1984 3394 
Q 2284 3394 2536 3286 
Q 2788 3178 2913 3003 
Q 3038 2828 3088 2588 
Q 3119 2431 3119 2041 
L 3119 0 
L 2556 0 
L 2556 2019 
Q 2556 2363 2490 2533 
Q 2425 2703 2258 2804 
Q 2091 2906 1866 2906 
Q 1506 2906 1245 2678 
Q 984 2450 984 1813 
L 984 0 
L 422 0 
z
" transform="scale(0.015625)"/>
       <path id="ArialMT-67" d="M 319 -275 
L 866 -356 
Q 900 -609 1056 -725 
Q 1266 -881 1628 -881 
Q 2019 -881 2231 -725 
Q 2444 -569 2519 -288 
Q 2563 -116 2559 434 
Q 2191 0 1641 0 
Q 956 0 581 494 
Q 206 988 206 1678 
Q 206 2153 378 2554 
Q 550 2956 876 3175 
Q 1203 3394 1644 3394 
Q 2231 3394 2613 2919 
L 2613 3319 
L 3131 3319 
L 3131 450 
Q 3131 -325 2973 -648 
Q 2816 -972 2473 -1159 
Q 2131 -1347 1631 -1347 
Q 1038 -1347 672 -1080 
Q 306 -813 319 -275 
z
M 784 1719 
Q 784 1066 1043 766 
Q 1303 466 1694 466 
Q 2081 466 2343 764 
Q 2606 1063 2606 1700 
Q 2606 2309 2336 2618 
Q 2066 2928 1684 2928 
Q 1309 2928 1046 2623 
Q 784 2319 784 1719 
z
" transform="scale(0.015625)"/>
       <path id="ArialMT-74" d="M 1650 503 
L 1731 6 
Q 1494 -44 1306 -44 
Q 1000 -44 831 53 
Q 663 150 594 308 
Q 525 466 525 972 
L 525 2881 
L 113 2881 
L 113 3319 
L 525 3319 
L 525 4141 
L 1084 4478 
L 1084 3319 
L 1650 3319 
L 1650 2881 
L 1084 2881 
L 1084 941 
Q 1084 700 1114 631 
Q 1144 563 1211 522 
Q 1278 481 1403 481 
Q 1497 481 1650 503 
z
" transform="scale(0.015625)"/>
       <path id="ArialMT-68" d="M 422 0 
L 422 4581 
L 984 4581 
L 984 2938 
Q 1378 3394 1978 3394 
Q 2347 3394 2619 3248 
Q 2891 3103 3008 2847 
Q 3125 2591 3125 2103 
L 3125 0 
L 2563 0 
L 2563 2103 
Q 2563 2525 2380 2717 
Q 2197 2909 1863 2909 
Q 1613 2909 1392 2779 
Q 1172 2650 1078 2428 
Q 984 2206 984 1816 
L 984 0 
L 422 0 
z
" transform="scale(0.015625)"/>
       <path id="ArialMT-20" transform="scale(0.015625)"/>
       <path id="ArialMT-28" d="M 1497 -1347 
Q 1031 -759 709 28 
Q 388 816 388 1659 
Q 388 2403 628 3084 
Q 909 3875 1497 4659 
L 1900 4659 
Q 1522 4009 1400 3731 
Q 1209 3300 1100 2831 
Q 966 2247 966 1656 
Q 966 153 1900 -1347 
L 1497 -1347 
z
" transform="scale(0.015625)"/>
       <path id="ArialMT-6d" d="M 422 0 
L 422 3319 
L 925 3319 
L 925 2853 
Q 1081 3097 1340 3245 
Q 1600 3394 1931 3394 
Q 2300 3394 2536 3241 
Q 2772 3088 2869 2813 
Q 3263 3394 3894 3394 
Q 4388 3394 4653 3120 
Q 4919 2847 4919 2278 
L 4919 0 
L 4359 0 
L 4359 2091 
Q 4359 2428 4304 2576 
Q 4250 2725 4106 2815 
Q 3963 2906 3769 2906 
Q 3419 2906 3187 2673 
Q 2956 2441 2956 1928 
L 2956 0 
L 2394 0 
L 2394 2156 
Q 2394 2531 2256 2718 
Q 2119 2906 1806 2906 
Q 1569 2906 1367 2781 
Q 1166 2656 1075 2415 
Q 984 2175 984 1722 
L 984 0 
L 422 0 
z
" transform="scale(0.015625)"/>
       <path id="ArialMT-29" d="M 791 -1347 
L 388 -1347 
Q 1322 153 1322 1656 
Q 1322 2244 1188 2822 
Q 1081 3291 891 3722 
Q 769 4003 388 4659 
L 791 4659 
Q 1378 3875 1659 3084 
Q 1900 2403 1900 1659 
Q 1900 816 1576 28 
Q 1253 -759 791 -1347 
z
" transform="scale(0.015625)"/>
      </defs>
      <use xlink:href="#ArialMT-57"/>
      <use xlink:href="#ArialMT-61" x="90.634766"/>
      <use xlink:href="#ArialMT-76" x="146.25"/>
      <use xlink:href="#ArialMT-65" x="196.25"/>
      <use xlink:href="#ArialMT-6c" x="251.865234"/>
      <use xlink:href="#ArialMT-65" x="274.082031"/>
      <use xlink:href="#ArialMT-6e" x="329.697266"/>
      <use xlink:href="#ArialMT-67" x="385.3125"/>
      <use xlink:href="#ArialMT-74" x="440.927734"/>
      <use xlink:href="#ArialMT-68" x="468.710938"/>
      <use xlink:href="#ArialMT-20" x="524.326172"/>
      <use xlink:href="#ArialMT-28" x="552.109375"/>
      <use xlink:href="#ArialMT-6e" x="585.410156"/>
      <use xlink:href="#ArialMT-6d" x="641.025391"/>
      <use xlink:href="#ArialMT-29" x="724.326172"/>
     </g>
    </g>
   </g>
   <g id="matplotlib.axis_2">
    <g id="ytick_1">
     <g id="line2d_19">
      <defs>
       <path id="m105fb66900" d="M 0 0 
L 6 0 
" style="stroke: #262626; stroke-width: 1.25"/>
      </defs>
      <g>
       <use xlink:href="#m105fb66900" x="41.25125" y="263.456" style="fill: #262626; stroke: #262626; stroke-width: 1.25"/>
      </g>
     </g>
     <g id="text_11">
      <!-- 0.0 -->
      <g style="fill: #262626" transform="translate(22.46125 267.392797) scale(0.11 -0.11)">
       <defs>
        <path id="ArialMT-2e" d="M 581 0 
L 581 641 
L 1222 641 
L 1222 0 
L 581 0 
z
" transform="scale(0.015625)"/>
       </defs>
       <use xlink:href="#ArialMT-30"/>
       <use xlink:href="#ArialMT-2e" x="55.615234"/>
       <use xlink:href="#ArialMT-30" x="83.398438"/>
      </g>
     </g>
    </g>
    <g id="ytick_2">
     <g id="line2d_20">
      <g>
       <use xlink:href="#m105fb66900" x="41.25125" y="224.032" style="fill: #262626; stroke: #262626; stroke-width: 1.25"/>
      </g>
     </g>
     <g id="text_12">
      <!-- 0.2 -->
      <g style="fill: #262626" transform="translate(22.46125 227.968797) scale(0.11 -0.11)">
       <use xlink:href="#ArialMT-30"/>
       <use xlink:href="#ArialMT-2e" x="55.615234"/>
       <use xlink:href="#ArialMT-32" x="83.398438"/>
      </g>
     </g>
    </g>
    <g id="ytick_3">
     <g id="line2d_21">
      <g>
       <use xlink:href="#m105fb66900" x="41.25125" y="184.608" style="fill: #262626; stroke: #262626; stroke-width: 1.25"/>
      </g>
     </g>
     <g id="text_13">
      <!-- 0.4 -->
      <g style="fill: #262626" transform="translate(22.46125 188.544797) scale(0.11 -0.11)">
       <use xlink:href="#ArialMT-30"/>
       <use xlink:href="#ArialMT-2e" x="55.615234"/>
       <use xlink:href="#ArialMT-34" x="83.398438"/>
      </g>
     </g>
    </g>
    <g id="ytick_4">
     <g id="line2d_22">
      <g>
       <use xlink:href="#m105fb66900" x="41.25125" y="145.184" style="fill: #262626; stroke: #262626; stroke-width: 1.25"/>
      </g>
     </g>
     <g id="text_14">
      <!-- 0.6 -->
      <g style="fill: #262626" transform="translate(22.46125 149.120797) scale(0.11 -0.11)">
       <use xlink:href="#ArialMT-30"/>
       <use xlink:href="#ArialMT-2e" x="55.615234"/>
       <use xlink:href="#ArialMT-36" x="83.398438"/>
      </g>
     </g>
    </g>
    <g id="ytick_5">
     <g id="line2d_23">
      <g>
       <use xlink:href="#m105fb66900" x="41.25125" y="105.76" style="fill: #262626; stroke: #262626; stroke-width: 1.25"/>
      </g>
     </g>
     <g id="text_15">
      <!-- 0.8 -->
      <g style="fill: #262626" transform="translate(22.46125 109.696797) scale(0.11 -0.11)">
       <defs>
        <path id="ArialMT-38" d="M 1131 2484 
Q 781 2613 612 2850 
Q 444 3088 444 3419 
Q 444 3919 803 4259 
Q 1163 4600 1759 4600 
Q 2359 4600 2725 4251 
Q 3091 3903 3091 3403 
Q 3091 3084 2923 2848 
Q 2756 2613 2416 2484 
Q 2838 2347 3058 2040 
Q 3278 1734 3278 1309 
Q 3278 722 2862 322 
Q 2447 -78 1769 -78 
Q 1091 -78 675 323 
Q 259 725 259 1325 
Q 259 1772 486 2073 
Q 713 2375 1131 2484 
z
M 1019 3438 
Q 1019 3113 1228 2906 
Q 1438 2700 1772 2700 
Q 2097 2700 2305 2904 
Q 2513 3109 2513 3406 
Q 2513 3716 2298 3927 
Q 2084 4138 1766 4138 
Q 1444 4138 1231 3931 
Q 1019 3725 1019 3438 
z
M 838 1322 
Q 838 1081 952 856 
Q 1066 631 1291 507 
Q 1516 384 1775 384 
Q 2178 384 2440 643 
Q 2703 903 2703 1303 
Q 2703 1709 2433 1975 
Q 2163 2241 1756 2241 
Q 1359 2241 1098 1978 
Q 838 1716 838 1322 
z
" transform="scale(0.015625)"/>
       </defs>
       <use xlink:href="#ArialMT-30"/>
       <use xlink:href="#ArialMT-2e" x="55.615234"/>
       <use xlink:href="#ArialMT-38" x="83.398438"/>
      </g>
     </g>
    </g>
    <g id="ytick_6">
     <g id="line2d_24">
      <g>
       <use xlink:href="#m105fb66900" x="41.25125" y="66.336" style="fill: #262626; stroke: #262626; stroke-width: 1.25"/>
      </g>
     </g>
     <g id="text_16">
      <!-- 1.0 -->
      <g style="fill: #262626" transform="translate(22.46125 70.272797) scale(0.11 -0.11)">
       <defs>
        <path id="ArialMT-31" d="M 2384 0 
L 1822 0 
L 1822 3584 
Q 1619 3391 1289 3197 
Q 959 3003 697 2906 
L 697 3450 
Q 1169 3672 1522 3987 
Q 1875 4303 2022 4600 
L 2384 4600 
L 2384 0 
z
" transform="scale(0.015625)"/>
       </defs>
       <use xlink:href="#ArialMT-31"/>
       <use xlink:href="#ArialMT-2e" x="55.615234"/>
       <use xlink:href="#ArialMT-30" x="83.398438"/>
      </g>
     </g>
    </g>
    <g id="ytick_7">
     <g id="line2d_25">
      <g>
       <use xlink:href="#m105fb66900" x="41.25125" y="26.912" style="fill: #262626; stroke: #262626; stroke-width: 1.25"/>
      </g>
     </g>
     <g id="text_17">
      <!-- 1.2 -->
      <g style="fill: #262626" transform="translate(22.46125 30.848797) scale(0.11 -0.11)">
       <use xlink:href="#ArialMT-31"/>
       <use xlink:href="#ArialMT-2e" x="55.615234"/>
       <use xlink:href="#ArialMT-32" x="83.398438"/>
      </g>
     </g>
    </g>
    <g id="ytick_8">
     <g id="line2d_26">
      <defs>
       <path id="mc93fe5e0dc" d="M 0 0 
L 4 0 
" style="stroke: #262626"/>
      </defs>
      <g>
       <use xlink:href="#mc93fe5e0dc" x="41.25125" y="243.744" style="fill: #262626; stroke: #262626"/>
      </g>
     </g>
    </g>
    <g id="ytick_9">
     <g id="line2d_27">
      <g>
       <use xlink:href="#mc93fe5e0dc" x="41.25125" y="204.32" style="fill: #262626; stroke: #262626"/>
      </g>
     </g>
    </g>
    <g id="ytick_10">
     <g id="line2d_28">
      <g>
       <use xlink:href="#mc93fe5e0dc" x="41.25125" y="164.896" style="fill: #262626; stroke: #262626"/>
      </g>
     </g>
    </g>
    <g id="ytick_11">
     <g id="line2d_29">
      <g>
       <use xlink:href="#mc93fe5e0dc" x="41.25125" y="125.472" style="fill: #262626; stroke: #262626"/>
      </g>
     </g>
    </g>
    <g id="ytick_12">
     <g id="line2d_30">
      <g>
       <use xlink:href="#mc93fe5e0dc" x="41.25125" y="86.048" style="fill: #262626; stroke: #262626"/>
      </g>
     </g>
    </g>
    <g id="ytick_13">
     <g id="line2d_31">
      <g>
       <use xlink:href="#mc93fe5e0dc" x="41.25125" y="46.624" style="fill: #262626; stroke: #262626"/>
      </g>
     </g>
    </g>
    <g id="text_18">
     <!-- Absorbance (a.u.) -->
     <g style="fill: #262626" transform="translate(15.935625 187.94475) rotate(-90) scale(0.12 -0.12)">
      <defs>
       <path id="ArialMT-41" d="M -9 0 
L 1750 4581 
L 2403 4581 
L 4278 0 
L 3588 0 
L 3053 1388 
L 1138 1388 
L 634 0 
L -9 0 
z
M 1313 1881 
L 2866 1881 
L 2388 3150 
Q 2169 3728 2063 4100 
Q 1975 3659 1816 3225 
L 1313 1881 
z
" transform="scale(0.015625)"/>
       <path id="ArialMT-62" d="M 941 0 
L 419 0 
L 419 4581 
L 981 4581 
L 981 2947 
Q 1338 3394 1891 3394 
Q 2197 3394 2470 3270 
Q 2744 3147 2920 2923 
Q 3097 2700 3197 2384 
Q 3297 2069 3297 1709 
Q 3297 856 2875 390 
Q 2453 -75 1863 -75 
Q 1275 -75 941 416 
L 941 0 
z
M 934 1684 
Q 934 1088 1097 822 
Q 1363 388 1816 388 
Q 2184 388 2453 708 
Q 2722 1028 2722 1663 
Q 2722 2313 2464 2622 
Q 2206 2931 1841 2931 
Q 1472 2931 1203 2611 
Q 934 2291 934 1684 
z
" transform="scale(0.015625)"/>
       <path id="ArialMT-73" d="M 197 991 
L 753 1078 
Q 800 744 1014 566 
Q 1228 388 1613 388 
Q 2000 388 2187 545 
Q 2375 703 2375 916 
Q 2375 1106 2209 1216 
Q 2094 1291 1634 1406 
Q 1016 1563 777 1677 
Q 538 1791 414 1992 
Q 291 2194 291 2438 
Q 291 2659 392 2848 
Q 494 3038 669 3163 
Q 800 3259 1026 3326 
Q 1253 3394 1513 3394 
Q 1903 3394 2198 3281 
Q 2494 3169 2634 2976 
Q 2775 2784 2828 2463 
L 2278 2388 
Q 2241 2644 2061 2787 
Q 1881 2931 1553 2931 
Q 1166 2931 1000 2803 
Q 834 2675 834 2503 
Q 834 2394 903 2306 
Q 972 2216 1119 2156 
Q 1203 2125 1616 2013 
Q 2213 1853 2448 1751 
Q 2684 1650 2818 1456 
Q 2953 1263 2953 975 
Q 2953 694 2789 445 
Q 2625 197 2315 61 
Q 2006 -75 1616 -75 
Q 969 -75 630 194 
Q 291 463 197 991 
z
" transform="scale(0.015625)"/>
       <path id="ArialMT-6f" d="M 213 1659 
Q 213 2581 725 3025 
Q 1153 3394 1769 3394 
Q 2453 3394 2887 2945 
Q 3322 2497 3322 1706 
Q 3322 1066 3130 698 
Q 2938 331 2570 128 
Q 2203 -75 1769 -75 
Q 1072 -75 642 372 
Q 213 819 213 1659 
z
M 791 1659 
Q 791 1022 1069 705 
Q 1347 388 1769 388 
Q 2188 388 2466 706 
Q 2744 1025 2744 1678 
Q 2744 2294 2464 2611 
Q 2184 2928 1769 2928 
Q 1347 2928 1069 2612 
Q 791 2297 791 1659 
z
" transform="scale(0.015625)"/>
       <path id="ArialMT-72" d="M 416 0 
L 416 3319 
L 922 3319 
L 922 2816 
Q 1116 3169 1280 3281 
Q 1444 3394 1641 3394 
Q 1925 3394 2219 3213 
L 2025 2691 
Q 1819 2813 1613 2813 
Q 1428 2813 1281 2702 
Q 1134 2591 1072 2394 
Q 978 2094 978 1738 
L 978 0 
L 416 0 
z
" transform="scale(0.015625)"/>
       <path id="ArialMT-63" d="M 2588 1216 
L 3141 1144 
Q 3050 572 2676 248 
Q 2303 -75 1759 -75 
Q 1078 -75 664 370 
Q 250 816 250 1647 
Q 250 2184 428 2587 
Q 606 2991 970 3192 
Q 1334 3394 1763 3394 
Q 2303 3394 2647 3120 
Q 2991 2847 3088 2344 
L 2541 2259 
Q 2463 2594 2264 2762 
Q 2066 2931 1784 2931 
Q 1359 2931 1093 2626 
Q 828 2322 828 1663 
Q 828 994 1084 691 
Q 1341 388 1753 388 
Q 2084 388 2306 591 
Q 2528 794 2588 1216 
z
" transform="scale(0.015625)"/>
       <path id="ArialMT-75" d="M 2597 0 
L 2597 488 
Q 2209 -75 1544 -75 
Q 1250 -75 995 37 
Q 741 150 617 320 
Q 494 491 444 738 
Q 409 903 409 1263 
L 409 3319 
L 972 3319 
L 972 1478 
Q 972 1038 1006 884 
Q 1059 663 1231 536 
Q 1403 409 1656 409 
Q 1909 409 2131 539 
Q 2353 669 2445 892 
Q 2538 1116 2538 1541 
L 2538 3319 
L 3100 3319 
L 3100 0 
L 2597 0 
z
" transform="scale(0.015625)"/>
      </defs>
      <use xlink:href="#ArialMT-41"/>
      <use xlink:href="#ArialMT-62" x="66.699219"/>
      <use xlink:href="#ArialMT-73" x="122.314453"/>
      <use xlink:href="#ArialMT-6f" x="172.314453"/>
      <use xlink:href="#ArialMT-72" x="227.929688"/>
      <use xlink:href="#ArialMT-62" x="261.230469"/>
      <use xlink:href="#ArialMT-61" x="316.845703"/>
      <use xlink:href="#ArialMT-6e" x="372.460938"/>
      <use xlink:href="#ArialMT-63" x="428.076172"/>
      <use xlink:href="#ArialMT-65" x="478.076172"/>
      <use xlink:href="#ArialMT-20" x="533.691406"/>
      <use xlink:href="#ArialMT-28" x="561.474609"/>
      <use xlink:href="#ArialMT-61" x="594.775391"/>
      <use xlink:href="#ArialMT-2e" x="650.390625"/>
      <use xlink:href="#ArialMT-75" x="678.173828"/>
      <use xlink:href="#ArialMT-2e" x="733.789062"/>
      <use xlink:href="#ArialMT-29" x="761.572266"/>
     </g>
    </g>
   </g>
   <g id="PolyCollection_1"/>
   <g id="PolyCollection_2"/>
   <g id="PolyCollection_3"/>
   <g id="PolyCollection_4"/>
   <g id="PolyCollection_5"/>
   <g id="PolyCollection_6"/>
   <g id="PolyCollection_7"/>
   <g id="line2d_32">
    <path d="M 24.641005 265.085752 
L 25.194683 246.079522 
L 25.748349 271.138123 
L 26.302028 263.243018 
L 26.855707 266.044722 
L 27.409373 261.195273 
L 27.963051 264.295246 
L 28.51673 260.049551 
L 29.070396 258.968532 
L 29.624075 263.702874 
L 30.177753 264.395408 
L 30.731419 261.722656 
L 31.285098 260.904263 
L 31.838776 263.351401 
L 32.392442 268.464552 
L 32.946121 264.128196 
L 33.4998 267.0388 
L 34.053466 262.333144 
L 35.160823 257.801879 
L 35.714489 270.766007 
L 36.821846 262.163244 
L 37.375512 268.816223 
L 37.929191 262.347541 
L 38.482869 263.421412 
L 39.036535 267.904191 
L 39.590214 259.243074 
L 40.143893 262.587034 
L 40.697559 262.669135 
L 41.251237 262.61888 
L 41.804916 266.310048 
L 42.358582 263.264974 
L 42.912261 262.167866 
L 43.465939 263.318766 
L 44.019605 265.122171 
L 44.573284 262.80491 
L 45.126962 264.127813 
L 45.680641 268.360647 
L 46.234307 262.235736 
L 46.787986 265.421673 
L 47.341664 263.962494 
L 47.89533 265.277737 
L 48.449009 266.228788 
L 49.002688 265.210852 
L 49.556354 263.073114 
L 50.110032 263.193359 
L 50.663711 264.000014 
L 51.217377 263.746228 
L 51.771056 263.881556 
L 52.324734 263.534452 
L 52.8784 262.944172 
L 53.432079 262.631786 
L 53.985757 262.495602 
L 54.539423 262.596853 
L 55.093102 262.450312 
L 56.200447 262.344215 
L 57.307804 262.263837 
L 60.076172 261.987706 
L 60.62985 261.915456 
L 61.183516 261.95924 
L 61.737195 261.78256 
L 63.951897 261.741786 
L 65.61292 261.636429 
L 69.488633 261.701041 
L 76.132738 262.235581 
L 80.008451 262.422027 
L 81.669474 262.463014 
L 82.776831 262.384194 
L 84.991521 262.361647 
L 87.20621 262.175176 
L 90.528256 261.932128 
L 93.850303 261.519873 
L 96.065017 261.361948 
L 96.618683 261.303834 
L 97.172349 261.368188 
L 98.833373 261.192538 
L 101.601753 261.144509 
L 102.70911 261.102902 
L 107.138489 261.210113 
L 108.799512 261.370689 
L 112.121559 261.728124 
L 113.228916 261.885111 
L 118.765652 262.632331 
L 119.319343 262.587692 
L 120.426675 262.782809 
L 127.070768 263.316687 
L 128.178125 263.372285 
L 130.946506 263.542841 
L 134.268552 263.604561 
L 140.912645 263.719751 
L 142.019977 263.728159 
L 142.573669 263.697578 
L 143.681001 263.782794 
L 148.66407 263.730016 
L 152.539808 263.752017 
L 155.308163 263.832234 
L 158.63021 263.874022 
L 160.844924 263.958214 
L 168.596349 264.05649 
L 170.811064 264.074785 
L 181.884535 264.069644 
L 187.421297 264.057731 
L 199.048459 263.977862 
L 206.799884 263.920123 
L 209.568265 263.917985 
L 346.879529 263.453748 
L 354.077313 263.461346 
L 378.992662 263.449533 
L 383.422041 263.435813 
L 398.37125 263.477656 
L 398.37125 263.477656 
" clip-path="url(#pfdf2e44bd1)" style="fill: none; stroke: #f6bb97; stroke-linecap: round"/>
   </g>
   <g id="line2d_33">
    <path d="M 24.641005 271.764585 
L 25.194683 260.879221 
L 25.748349 276.170739 
L 26.302028 275.534962 
L 26.855707 276.044885 
L 27.963051 286.588758 
L 28.51673 279.802772 
L 29.070396 279.59464 
L 29.624075 279.719087 
L 30.177753 284.22325 
L 30.731419 281.023125 
L 31.285098 284.842117 
L 31.838776 281.604462 
L 32.392442 279.072818 
L 32.946121 278.993684 
L 33.4998 283.301797 
L 34.053466 277.456772 
L 34.607144 282.247845 
L 35.160823 273.978825 
L 35.714489 282.603551 
L 36.268168 277.954241 
L 36.821846 281.42331 
L 37.375512 282.849131 
L 37.929191 278.825898 
L 38.482869 278.794563 
L 39.036535 279.615151 
L 39.590214 275.375207 
L 40.143893 280.301816 
L 41.251237 281.974248 
L 41.804916 279.501982 
L 42.358582 281.817702 
L 42.912261 280.828961 
L 43.465939 279.00991 
L 44.019605 281.667786 
L 44.573284 281.242633 
L 45.126962 282.118432 
L 45.680641 284.253161 
L 46.234307 282.695495 
L 46.787986 281.872542 
L 47.89533 284.847715 
L 48.449009 285.754622 
L 49.002688 286.006221 
L 49.556354 281.511967 
L 50.110032 279.175595 
L 50.663711 273.095865 
L 51.771056 259.218858 
L 52.324734 252.662958 
L 52.8784 249.049636 
L 53.985757 244.827865 
L 54.539423 243.691676 
L 55.093102 242.851838 
L 56.200447 241.536848 
L 58.968827 239.667781 
L 60.076172 239.050098 
L 62.290874 237.976168 
L 63.398218 237.651977 
L 65.61292 237.292249 
L 68.381288 237.619384 
L 69.488633 237.940262 
L 70.59599 238.463874 
L 72.257001 239.543979 
L 74.471715 241.316726 
L 77.793762 243.622925 
L 78.901094 244.196142 
L 80.562117 244.730893 
L 81.669474 244.770646 
L 82.776831 244.766499 
L 84.437855 244.404451 
L 86.652544 243.445364 
L 90.528256 241.111313 
L 93.296637 239.364902 
L 97.172349 237.463665 
L 98.279707 237.105812 
L 99.94073 236.842528 
L 100.494396 236.805154 
L 103.262776 237.25165 
L 107.138489 238.935749 
L 110.460535 241.288281 
L 112.121559 242.740661 
L 120.980366 252.573237 
L 123.748721 254.917366 
L 126.517102 256.895605 
L 129.839149 258.544062 
L 134.268552 259.933304 
L 135.929576 260.263253 
L 140.358954 261.260384 
L 141.466311 261.474894 
L 143.681001 261.877244 
L 144.788358 262.147642 
L 145.342024 262.159403 
L 146.449381 262.428614 
L 147.003047 262.451848 
L 147.556738 262.67828 
L 148.66407 262.700066 
L 149.217762 262.455511 
L 154.200831 263.627274 
L 156.415521 264.321069 
L 161.39859 265.901063 
L 166.935326 267.085142 
L 169.150041 267.357579 
L 171.918396 267.558641 
L 176.3478 267.606302 
L 178.562489 267.601126 
L 182.438227 267.572843 
L 187.974962 267.509588 
L 191.850675 267.359796 
L 206.799884 267.022909 
L 209.568265 267.034512 
L 214.551335 266.870683 
L 219.534404 266.635704 
L 231.161567 266.183022 
L 240.020349 266.29392 
L 242.78873 266.193423 
L 251.647512 265.640464 
L 262.167343 265.169445 
L 295.387808 264.730733 
L 398.37125 263.260277 
L 398.37125 263.260277 
" clip-path="url(#pfdf2e44bd1)" style="fill: none; stroke: #f4865e; stroke-linecap: round"/>
   </g>
   <g id="line2d_34">
    <path d="M 24.641005 284.447328 
L 25.194683 285.132166 
L 25.748349 281.356119 
L 26.302028 294.234417 
L 26.855707 283.783389 
L 27.409373 280.462764 
L 27.963051 284.794634 
L 28.51673 292.071655 
L 29.624075 284.569741 
L 30.177753 287.043821 
L 30.731419 280.997864 
L 31.285098 283.415672 
L 31.838776 281.012809 
L 32.392442 288.45756 
L 32.946121 283.268333 
L 33.4998 279.546615 
L 34.053466 284.880988 
L 34.607144 287.065325 
L 35.160823 284.069601 
L 35.714489 284.460088 
L 36.268168 280.389768 
L 36.821846 285.13095 
L 37.375512 284.381976 
L 37.929191 282.133134 
L 38.482869 278.310574 
L 39.036535 278.816098 
L 39.590214 282.336137 
L 40.143893 282.585983 
L 40.697559 283.181721 
L 41.251237 279.916437 
L 41.804916 281.850455 
L 42.358582 285.815881 
L 42.912261 282.84318 
L 44.019605 282.891035 
L 44.573284 282.088281 
L 45.126962 282.490444 
L 45.680641 281.20391 
L 46.234307 280.851908 
L 46.787986 282.578822 
L 47.341664 281.860198 
L 47.89533 281.458682 
L 48.449009 281.450516 
L 49.556354 277.535008 
L 50.110032 272.088655 
L 51.771056 240.586396 
L 52.324734 231.158488 
L 53.432079 221.762291 
L 55.093102 216.467166 
L 57.307804 213.781595 
L 61.183516 210.385586 
L 62.84454 209.336306 
L 63.951897 208.869379 
L 64.505563 208.707016 
L 66.166586 208.648845 
L 67.827609 209.132985 
L 68.934967 209.812857 
L 70.042311 210.739122 
L 71.703335 212.68147 
L 73.364358 215.045425 
L 75.025381 217.612978 
L 77.24007 220.573696 
L 78.347428 221.689381 
L 79.454785 222.470181 
L 80.562117 223.044782 
L 81.115808 223.232935 
L 82.776831 223.200492 
L 84.991521 222.224172 
L 87.20621 220.397607 
L 93.850303 214.248464 
L 96.065017 212.802417 
L 97.172349 212.265487 
L 99.387064 211.978376 
L 101.048087 212.260852 
L 103.262776 213.448914 
L 104.9238 214.725399 
L 106.031157 215.757551 
L 107.69218 217.516796 
L 110.460535 221.017184 
L 112.67525 224.519629 
L 114.336273 227.468308 
L 118.211986 234.879945 
L 120.980366 239.773493 
L 123.195056 242.991436 
L 124.856079 244.932462 
L 127.070768 247.297301 
L 128.731791 248.627501 
L 132.607529 250.989708 
L 133.714861 251.488447 
L 142.019977 254.865187 
L 142.573669 255.007053 
L 143.127335 255.341249 
L 145.895715 256.184506 
L 147.003047 256.603097 
L 147.556738 256.718986 
L 148.110404 257.014386 
L 149.771428 257.319985 
L 151.432451 257.975447 
L 154.200831 259.210271 
L 157.522878 260.988826 
L 163.059614 263.67682 
L 165.274303 264.508239 
L 169.150041 265.524677 
L 171.918396 265.854697 
L 173.579419 265.990148 
L 187.974962 266.367784 
L 191.850675 266.280443 
L 193.511698 266.254583 
L 196.833745 266.199685 
L 202.370506 266.227654 
L 213.997669 266.256695 
L 220.641762 265.958578 
L 232.268924 265.687299 
L 238.913017 266.018076 
L 244.449753 265.75929 
L 266.043056 264.438123 
L 272.133483 264.359852 
L 324.732535 264.041993 
L 331.376628 263.925255 
L 333.037652 263.997161 
L 337.467081 263.941138 
L 346.879529 263.84779 
L 351.862599 263.820346 
L 398.37125 263.29978 
L 398.37125 263.29978 
" clip-path="url(#pfdf2e44bd1)" style="fill: none; stroke: #ec4a3e; stroke-linecap: round"/>
   </g>
   <g id="line2d_35">
    <path d="M 24.641005 292.11281 
L 25.194683 293.346287 
L 25.748349 283.232169 
L 26.302028 285.214943 
L 26.855707 290.481988 
L 27.409373 287.555635 
L 27.963051 289.989027 
L 28.51673 293.606453 
L 29.070396 296.323049 
L 29.624075 283.242488 
L 30.177753 284.844315 
L 30.731419 285.335608 
L 31.285098 287.515896 
L 31.838776 290.520041 
L 32.392442 289.155816 
L 32.946121 298.432536 
L 33.4998 284.438948 
L 34.053466 284.918148 
L 34.607144 290.388176 
L 35.160823 283.431369 
L 35.714489 291.57962 
L 36.821846 285.215069 
L 37.375512 292.435195 
L 37.929191 284.400087 
L 38.482869 285.447156 
L 39.036535 289.23416 
L 39.590214 289.131857 
L 40.143893 288.177713 
L 40.697559 289.085708 
L 41.251237 286.039759 
L 41.804916 286.605953 
L 42.358582 286.096867 
L 42.912261 288.181159 
L 43.465939 285.501884 
L 44.019605 286.309728 
L 44.573284 289.264926 
L 45.126962 288.381169 
L 45.680641 285.372836 
L 46.234307 288.510655 
L 46.787986 288.321219 
L 47.341664 287.00245 
L 47.89533 286.435712 
L 48.449009 286.399055 
L 49.002688 283.909191 
L 49.556354 282.351326 
L 50.663711 261.666908 
L 51.771056 232.46189 
L 52.324734 221.593365 
L 52.8784 212.970889 
L 53.432079 207.457134 
L 53.985757 203.814321 
L 55.646781 198.576204 
L 56.200447 197.739574 
L 56.754125 196.553109 
L 60.62985 191.563336 
L 61.737195 190.294674 
L 62.84454 189.421116 
L 64.505563 188.523119 
L 65.059242 188.384866 
L 66.166586 188.394782 
L 67.273943 188.745016 
L 68.381288 189.548877 
L 69.488633 190.680884 
L 70.59599 192.263076 
L 71.703335 194.124853 
L 73.364358 197.571312 
L 75.579047 202.361489 
L 77.24007 205.40617 
L 78.347428 207.050927 
L 79.454785 208.336614 
L 80.562117 209.118058 
L 81.115808 209.389489 
L 82.22314 209.584057 
L 82.776831 209.590519 
L 83.884163 209.129596 
L 84.991521 208.409119 
L 87.20621 206.105675 
L 89.420924 203.390678 
L 92.18928 200.208142 
L 93.296637 199.093677 
L 94.95766 197.671111 
L 95.511326 197.258535 
L 97.726041 196.284063 
L 98.279707 196.144846 
L 99.94073 196.311826 
L 100.494396 196.482884 
L 101.601753 197.084246 
L 102.70911 198.00177 
L 104.370134 199.764807 
L 107.69218 204.42956 
L 110.460535 209.397632 
L 113.782582 216.562875 
L 120.980366 233.584703 
L 122.087698 235.810044 
L 123.748721 238.710286 
L 126.517102 242.817858 
L 129.285483 245.933088 
L 130.392814 246.911737 
L 130.946506 247.25726 
L 131.500172 247.798067 
L 136.483242 250.89599 
L 144.788358 255.150048 
L 148.66407 256.86567 
L 149.217762 256.840015 
L 152.539808 258.483609 
L 161.39859 263.76303 
L 164.166971 265.125663 
L 166.38166 265.993517 
L 168.042683 266.510561 
L 169.703707 266.908662 
L 174.13311 267.48469 
L 181.330869 267.906571 
L 190.189652 267.999064 
L 201.263149 267.907958 
L 211.229288 268.070139 
L 232.268924 267.439699 
L 238.913017 267.737631 
L 244.449753 267.418759 
L 252.201203 266.744331 
L 262.721009 266.041196 
L 265.48939 265.920642 
L 271.579817 265.75345 
L 294.834117 265.501047 
L 308.122303 265.366335 
L 313.105373 265.301838 
L 342.450151 264.760761 
L 346.879529 264.647175 
L 368.472831 263.923995 
L 380.653686 263.526371 
L 398.37125 263.212983 
L 398.37125 263.212983 
" clip-path="url(#pfdf2e44bd1)" style="fill: none; stroke: #ca1a50; stroke-linecap: round"/>
   </g>
   <g id="line2d_36">
    <path d="M 24.641005 282.77989 
L 25.194683 291.220066 
L 25.748349 287.463209 
L 26.302028 289.726992 
L 26.855707 293.252921 
L 27.409373 293.04547 
L 27.963051 276.622381 
L 28.51673 282.080538 
L 29.070396 289.31202 
L 29.624075 288.994167 
L 30.177753 287.690881 
L 30.731419 283.543513 
L 31.838776 288.458591 
L 32.392442 289.844746 
L 32.946121 289.687153 
L 33.4998 291.453042 
L 34.053466 287.590078 
L 34.607144 289.494133 
L 35.160823 285.056707 
L 35.714489 274.565076 
L 36.268168 281.61047 
L 37.375512 289.59362 
L 37.929191 289.302861 
L 38.482869 287.457338 
L 39.036535 283.742169 
L 39.590214 288.298261 
L 40.143893 284.670955 
L 41.251237 284.286666 
L 41.804916 289.098166 
L 42.358582 282.806728 
L 42.912261 282.074655 
L 43.465939 285.259537 
L 44.019605 286.677251 
L 44.573284 285.656748 
L 45.126962 285.519563 
L 45.680641 284.670723 
L 46.234307 283.280132 
L 46.787986 284.12002 
L 47.341664 285.239129 
L 47.89533 283.813487 
L 48.449009 283.040206 
L 49.002688 280.809317 
L 49.556354 276.771232 
L 50.110032 267.851658 
L 50.663711 252.799325 
L 51.771056 211.64586 
L 52.324734 194.53143 
L 52.8784 181.210099 
L 53.432079 172.287893 
L 53.985757 166.081965 
L 54.539423 162.478811 
L 55.646781 157.545588 
L 56.200447 156.325415 
L 56.754125 154.830637 
L 58.415149 151.546 
L 60.62985 147.937366 
L 62.290874 145.529635 
L 63.951897 143.957478 
L 64.505563 143.674637 
L 65.61292 143.51218 
L 66.166586 143.542411 
L 67.273943 144.050332 
L 67.827609 144.516026 
L 68.934967 145.927595 
L 70.59599 149.126991 
L 71.703335 151.889138 
L 73.364358 156.981517 
L 75.025381 162.445902 
L 76.132738 165.968761 
L 77.793762 170.371 
L 78.901094 172.796401 
L 80.008451 174.493148 
L 80.562117 175.219312 
L 81.115808 175.753622 
L 82.22314 176.242791 
L 82.776831 176.36355 
L 83.330497 176.267523 
L 84.437855 175.613171 
L 85.545187 174.344379 
L 86.652544 172.913636 
L 87.759901 171.075392 
L 91.081948 165.776461 
L 92.742971 163.583513 
L 93.850303 162.231901 
L 94.95766 161.19518 
L 96.618683 160.080163 
L 97.172349 159.913347 
L 98.833373 159.917013 
L 99.387064 159.946374 
L 99.94073 160.164687 
L 101.048087 160.980521 
L 101.601753 161.541843 
L 102.70911 163.050977 
L 103.816442 164.845137 
L 106.584823 170.630506 
L 109.906869 179.325951 
L 112.121559 185.727305 
L 113.782582 191.181185 
L 119.873009 212.379837 
L 122.087698 219.073136 
L 124.856079 225.949236 
L 126.517102 229.347488 
L 127.624459 231.392249 
L 129.285483 234.113068 
L 130.392814 235.649561 
L 133.161195 238.820199 
L 134.268552 239.923367 
L 135.929576 241.538022 
L 139.251622 244.371651 
L 142.019977 246.563389 
L 143.681001 247.785648 
L 148.66407 251.179342 
L 149.217762 251.250237 
L 151.432451 252.756511 
L 154.200831 254.853356 
L 160.291233 259.666378 
L 163.059614 261.519179 
L 166.935326 263.630658 
L 169.150041 264.470554 
L 172.472087 265.344976 
L 184.09925 266.86892 
L 185.760273 267.032065 
L 190.189652 267.254346 
L 194.06539 267.337995 
L 205.138861 267.720686 
L 210.121931 267.891585 
L 214.551335 267.809355 
L 216.766024 267.749296 
L 220.08807 267.533394 
L 222.302785 267.437881 
L 224.517474 267.326857 
L 227.285855 267.19765 
L 241.681373 267.506908 
L 245.003419 267.258582 
L 254.969559 266.433087 
L 261.613677 266.026016 
L 276.009195 265.643859 
L 323.625203 264.860218 
L 362.93607 263.797121 
L 366.258117 263.772095 
L 398.37125 263.168518 
L 398.37125 263.168518 
" clip-path="url(#pfdf2e44bd1)" style="fill: none; stroke: #951c5b; stroke-linecap: round"/>
   </g>
   <g id="line2d_37">
    <path d="M 24.641005 281.214577 
L 25.194683 285.051869 
L 25.748349 282.646854 
L 26.302028 278.843744 
L 26.855707 280.904517 
L 27.409373 280.868404 
L 27.963051 278.355945 
L 28.51673 280.318408 
L 29.070396 286.472661 
L 29.624075 279.491669 
L 30.177753 280.44736 
L 30.731419 281.695954 
L 31.285098 284.00273 
L 31.838776 284.928248 
L 32.392442 279.374664 
L 32.946121 281.84677 
L 33.4998 282.965234 
L 34.053466 287.16741 
L 34.607144 281.270831 
L 35.160823 280.683763 
L 35.714489 281.884612 
L 36.268168 281.384055 
L 36.821846 287.176134 
L 37.375512 275.49675 
L 37.929191 283.324088 
L 38.482869 285.903556 
L 39.036535 284.133325 
L 39.590214 281.861539 
L 40.143893 281.350396 
L 40.697559 279.681857 
L 41.251237 284.063823 
L 41.804916 281.893785 
L 42.358582 280.697886 
L 42.912261 280.967401 
L 43.465939 279.586878 
L 44.573284 281.624543 
L 45.126962 279.376285 
L 45.680641 281.047913 
L 46.234307 279.354379 
L 46.787986 279.953086 
L 47.341664 278.039937 
L 47.89533 278.87008 
L 48.449009 278.980911 
L 49.002688 274.472669 
L 49.556354 268.081796 
L 50.110032 255.425943 
L 50.663711 239.831388 
L 52.324734 186.278933 
L 52.8784 174.663419 
L 53.432079 167.006233 
L 53.985757 162.216709 
L 55.093102 155.670064 
L 56.754125 150.326191 
L 58.968827 144.939105 
L 60.62985 141.439398 
L 61.737195 139.342095 
L 62.84454 137.692369 
L 63.951897 136.475779 
L 64.505563 136.024219 
L 65.61292 135.644401 
L 66.166586 135.67865 
L 67.273943 136.220232 
L 68.381288 137.50075 
L 68.934967 138.274557 
L 70.042311 140.55516 
L 71.149656 143.567978 
L 72.810692 149.132348 
L 76.132738 161.662273 
L 77.793762 166.851953 
L 78.901094 169.79639 
L 80.008451 172.027388 
L 81.115808 173.590088 
L 82.22314 174.534294 
L 82.776831 174.734725 
L 83.884163 174.592394 
L 84.437855 174.315335 
L 85.545187 173.292291 
L 86.652544 171.865707 
L 92.18928 163.793883 
L 93.296637 162.487142 
L 93.850303 162.017112 
L 94.403994 161.352938 
L 95.511326 160.520032 
L 96.618683 159.923322 
L 98.279707 159.766834 
L 98.833373 159.834286 
L 99.94073 160.345708 
L 100.494396 160.597613 
L 101.601753 161.621902 
L 102.155419 162.294536 
L 103.816442 165.082514 
L 105.477466 168.596391 
L 108.245846 175.431186 
L 109.906869 180.122575 
L 112.121559 186.959192 
L 113.782582 192.480102 
L 119.319343 212.40693 
L 120.980366 217.82952 
L 123.195056 224.113334 
L 124.302413 226.817851 
L 125.963436 230.514511 
L 127.624459 233.715511 
L 129.285483 236.380174 
L 130.946506 238.782735 
L 132.053838 240.133973 
L 134.268552 242.619971 
L 139.251622 247.087111 
L 143.127335 250.218451 
L 145.895715 252.045462 
L 148.66407 253.810108 
L 149.217762 253.968059 
L 154.200831 257.403786 
L 156.415521 259.030019 
L 160.844924 262.072592 
L 163.61328 263.65409 
L 166.38166 264.923464 
L 169.703707 266.02148 
L 174.686776 266.871616 
L 182.438227 267.638329 
L 187.974962 267.911884 
L 201.263149 267.963769 
L 205.138861 268.025842 
L 209.014599 268.099314 
L 216.212358 267.79692 
L 221.749094 267.396592 
L 223.963808 267.232699 
L 230.05421 267.00179 
L 233.929948 267.099278 
L 237.251994 267.293381 
L 240.574041 267.254372 
L 243.896087 267.013761 
L 248.879157 266.52838 
L 253.862227 266.079258 
L 257.737939 265.815731 
L 261.059986 265.584881 
L 267.704079 265.334021 
L 277.116552 265.191811 
L 283.206979 265.102171 
L 287.082692 265.081012 
L 293.726785 265.056659 
L 311.998041 264.820573 
L 325.839918 264.595091 
L 330.269297 264.544244 
L 354.077313 263.994574 
L 360.721406 263.855134 
L 370.133855 263.717334 
L 380.099994 263.581101 
L 394.495512 263.186262 
L 398.37125 263.065629 
L 398.37125 263.065629 
" clip-path="url(#pfdf2e44bd1)" style="fill: none; stroke: #601f52; stroke-linecap: round"/>
   </g>
   <g id="line2d_38">
    <path d="M 24.641005 240.083361 
L 25.194683 243.874859 
L 25.748349 243.341446 
L 26.302028 250.326838 
L 26.855707 249.66137 
L 27.409373 245.446458 
L 27.963051 255.289832 
L 29.070396 249.272042 
L 29.624075 248.153227 
L 30.177753 243.256818 
L 30.731419 256.52528 
L 31.285098 249.341551 
L 31.838776 264.185342 
L 32.392442 254.019582 
L 32.946121 266.032162 
L 33.4998 257.722012 
L 34.053466 262.732282 
L 34.607144 260.769058 
L 35.160823 260.003398 
L 35.714489 264.542506 
L 36.268168 263.317051 
L 36.821846 265.711991 
L 37.375512 272.337315 
L 37.929191 268.932409 
L 38.482869 269.048897 
L 39.036535 265.014948 
L 39.590214 269.546366 
L 40.143893 266.160615 
L 40.697559 264.979087 
L 41.251237 267.742873 
L 41.804916 267.961376 
L 42.358582 265.679821 
L 42.912261 265.382309 
L 44.019605 266.676031 
L 44.573284 262.207717 
L 45.126962 262.619141 
L 45.680641 262.487126 
L 46.234307 261.526967 
L 46.787986 256.840508 
L 47.341664 250.001911 
L 47.89533 232.58939 
L 48.449009 205.391431 
L 50.110032 81.924129 
L 50.663711 52.956757 
L 51.217377 34.297651 
L 51.771056 26.765407 
L 52.324734 24.959897 
L 52.8784 26.888234 
L 53.985757 35.960525 
L 56.754125 61.498474 
L 58.415149 73.658496 
L 59.522493 80.437107 
L 60.62985 86.45574 
L 61.737195 91.722008 
L 63.398218 98.287898 
L 64.505563 102.154735 
L 66.166586 107.058198 
L 67.827609 111.264259 
L 68.934967 113.578019 
L 70.042311 115.369395 
L 71.149656 116.645036 
L 75.025381 119.374497 
L 76.132738 119.845231 
L 76.686404 119.921754 
L 77.793762 119.688743 
L 78.901094 119.146185 
L 80.008451 118.246497 
L 81.669474 116.592564 
L 83.330497 114.506481 
L 86.098878 110.180413 
L 87.20621 108.418998 
L 88.313567 106.990651 
L 89.97459 105.535622 
L 91.081948 104.934741 
L 92.18928 104.561972 
L 93.296637 104.37416 
L 94.403994 104.545323 
L 96.065017 105.323042 
L 97.726041 106.363276 
L 98.833373 106.861867 
L 99.94073 107.478246 
L 100.494396 107.986648 
L 101.601753 109.471909 
L 103.262776 112.608246 
L 106.584823 119.356027 
L 108.245846 122.802628 
L 111.014227 129.482227 
L 113.228916 135.836865 
L 119.873009 155.942729 
L 122.087698 161.636683 
L 123.748721 165.270972 
L 124.856079 167.378015 
L 127.624459 171.860942 
L 130.392814 175.404745 
L 138.144265 184.435937 
L 139.805288 186.361894 
L 142.019977 189.093211 
L 148.66407 198.196297 
L 149.217762 199.298425 
L 155.308163 207.474535 
L 158.63021 211.579852 
L 162.505948 215.869178 
L 166.38166 219.6687 
L 173.025753 225.452113 
L 182.991893 233.241178 
L 188.528628 237.098789 
L 197.941102 242.602812 
L 204.585195 245.757799 
L 211.229288 248.337065 
L 218.427047 250.550149 
L 223.963808 251.949905 
L 231.161567 253.473341 
L 238.913017 254.92139 
L 247.218134 256.235844 
L 253.308535 257.055406 
L 258.291631 257.670474 
L 272.687149 259.15911 
L 299.263546 261.127084 
L 325.839918 262.277285 
L 335.252366 262.522288 
L 336.91339 262.592218 
L 339.681745 262.662263 
L 344.664814 262.777502 
L 353.523622 262.971251 
L 360.167715 263.102558 
L 363.489762 263.1606 
L 371.794878 263.298716 
L 398.37125 263.604464 
L 398.37125 263.604464 
" clip-path="url(#pfdf2e44bd1)" style="fill: none; stroke: #2e1739; stroke-linecap: round"/>
   </g>
   <g id="line2d_39"/>
   <g id="line2d_40"/>
   <g id="line2d_41"/>
   <g id="line2d_42"/>
   <g id="line2d_43"/>
   <g id="line2d_44"/>
   <g id="line2d_45"/>
   <g id="patch_3">
    <path d="M 41.25125 273.312 
L 41.25125 7.2 
" style="fill: none; stroke: #262626; stroke-width: 1.25; stroke-linejoin: miter; stroke-linecap: square"/>
   </g>
   <g id="patch_4">
    <path d="M 41.25125 273.312 
L 398.37125 273.312 
" style="fill: none; stroke: #262626; stroke-width: 1.25; stroke-linejoin: miter; stroke-linecap: square"/>
   </g>
   <g id="legend_1">
    <g id="line2d_46">
     <path d="M 141.742437 94.6461 
L 147.742437 94.6461 
L 153.742437 94.6461 
" style="fill: none; stroke: #f6bb97; stroke-width: 1.5; stroke-linecap: round"/>
    </g>
    <g id="text_19">
     <!-- 0 hrs_Abs -->
     <g style="fill: #262626" transform="translate(158.542438 96.7461) scale(0.06 -0.06)">
      <defs>
       <path id="ArialMT-5f" d="M -97 -1272 
L -97 -866 
L 3631 -866 
L 3631 -1272 
L -97 -1272 
z
" transform="scale(0.015625)"/>
      </defs>
      <use xlink:href="#ArialMT-30"/>
      <use xlink:href="#ArialMT-20" x="55.615234"/>
      <use xlink:href="#ArialMT-68" x="83.398438"/>
      <use xlink:href="#ArialMT-72" x="139.013672"/>
      <use xlink:href="#ArialMT-73" x="172.314453"/>
      <use xlink:href="#ArialMT-5f" x="222.314453"/>
      <use xlink:href="#ArialMT-41" x="277.929688"/>
      <use xlink:href="#ArialMT-62" x="344.628906"/>
      <use xlink:href="#ArialMT-73" x="400.244141"/>
     </g>
    </g>
    <g id="line2d_47">
     <path d="M 141.742437 103.133287 
L 147.742437 103.133287 
L 153.742437 103.133287 
" style="fill: none; stroke: #f4865e; stroke-width: 1.5; stroke-linecap: round"/>
    </g>
    <g id="text_20">
     <!-- 4 hrs_Abs -->
     <g style="fill: #262626" transform="translate(158.542438 105.233287) scale(0.06 -0.06)">
      <use xlink:href="#ArialMT-34"/>
      <use xlink:href="#ArialMT-20" x="55.615234"/>
      <use xlink:href="#ArialMT-68" x="83.398438"/>
      <use xlink:href="#ArialMT-72" x="139.013672"/>
      <use xlink:href="#ArialMT-73" x="172.314453"/>
      <use xlink:href="#ArialMT-5f" x="222.314453"/>
      <use xlink:href="#ArialMT-41" x="277.929688"/>
      <use xlink:href="#ArialMT-62" x="344.628906"/>
      <use xlink:href="#ArialMT-73" x="400.244141"/>
     </g>
    </g>
    <g id="line2d_48">
     <path d="M 141.742437 111.638287 
L 147.742437 111.638287 
L 153.742437 111.638287 
" style="fill: none; stroke: #ec4a3e; stroke-width: 1.5; stroke-linecap: round"/>
    </g>
    <g id="text_21">
     <!-- 23 hrs_Abs -->
     <g style="fill: #262626" transform="translate(158.542438 113.738287) scale(0.06 -0.06)">
      <use xlink:href="#ArialMT-32"/>
      <use xlink:href="#ArialMT-33" x="55.615234"/>
      <use xlink:href="#ArialMT-20" x="111.230469"/>
      <use xlink:href="#ArialMT-68" x="139.013672"/>
      <use xlink:href="#ArialMT-72" x="194.628906"/>
      <use xlink:href="#ArialMT-73" x="227.929688"/>
      <use xlink:href="#ArialMT-5f" x="277.929688"/>
      <use xlink:href="#ArialMT-41" x="333.544922"/>
      <use xlink:href="#ArialMT-62" x="400.244141"/>
      <use xlink:href="#ArialMT-73" x="455.859375"/>
     </g>
    </g>
    <g id="line2d_49">
     <path d="M 141.742437 120.143287 
L 147.742437 120.143287 
L 153.742437 120.143287 
" style="fill: none; stroke: #ca1a50; stroke-width: 1.5; stroke-linecap: round"/>
    </g>
    <g id="text_22">
     <!-- 48 hrs_Abs -->
     <g style="fill: #262626" transform="translate(158.542438 122.243287) scale(0.06 -0.06)">
      <use xlink:href="#ArialMT-34"/>
      <use xlink:href="#ArialMT-38" x="55.615234"/>
      <use xlink:href="#ArialMT-20" x="111.230469"/>
      <use xlink:href="#ArialMT-68" x="139.013672"/>
      <use xlink:href="#ArialMT-72" x="194.628906"/>
      <use xlink:href="#ArialMT-73" x="227.929688"/>
      <use xlink:href="#ArialMT-5f" x="277.929688"/>
      <use xlink:href="#ArialMT-41" x="333.544922"/>
      <use xlink:href="#ArialMT-62" x="400.244141"/>
      <use xlink:href="#ArialMT-73" x="455.859375"/>
     </g>
    </g>
    <g id="line2d_50">
     <path d="M 141.742437 128.648287 
L 147.742437 128.648287 
L 153.742437 128.648287 
" style="fill: none; stroke: #951c5b; stroke-width: 1.5; stroke-linecap: round"/>
    </g>
    <g id="text_23">
     <!-- 120 hrs_Abs -->
     <g style="fill: #262626" transform="translate(158.542438 130.748287) scale(0.06 -0.06)">
      <use xlink:href="#ArialMT-31"/>
      <use xlink:href="#ArialMT-32" x="55.615234"/>
      <use xlink:href="#ArialMT-30" x="111.230469"/>
      <use xlink:href="#ArialMT-20" x="166.845703"/>
      <use xlink:href="#ArialMT-68" x="194.628906"/>
      <use xlink:href="#ArialMT-72" x="250.244141"/>
      <use xlink:href="#ArialMT-73" x="283.544922"/>
      <use xlink:href="#ArialMT-5f" x="333.544922"/>
      <use xlink:href="#ArialMT-41" x="389.160156"/>
      <use xlink:href="#ArialMT-62" x="455.859375"/>
      <use xlink:href="#ArialMT-73" x="511.474609"/>
     </g>
    </g>
    <g id="line2d_51">
     <path d="M 141.742437 137.153287 
L 147.742437 137.153287 
L 153.742437 137.153287 
" style="fill: none; stroke: #601f52; stroke-width: 1.5; stroke-linecap: round"/>
    </g>
    <g id="text_24">
     <!-- 8 days_Abs -->
     <g style="fill: #262626" transform="translate(158.542438 139.253287) scale(0.06 -0.06)">
      <defs>
       <path id="ArialMT-64" d="M 2575 0 
L 2575 419 
Q 2259 -75 1647 -75 
Q 1250 -75 917 144 
Q 584 363 401 755 
Q 219 1147 219 1656 
Q 219 2153 384 2558 
Q 550 2963 881 3178 
Q 1213 3394 1622 3394 
Q 1922 3394 2156 3267 
Q 2391 3141 2538 2938 
L 2538 4581 
L 3097 4581 
L 3097 0 
L 2575 0 
z
M 797 1656 
Q 797 1019 1065 703 
Q 1334 388 1700 388 
Q 2069 388 2326 689 
Q 2584 991 2584 1609 
Q 2584 2291 2321 2609 
Q 2059 2928 1675 2928 
Q 1300 2928 1048 2622 
Q 797 2316 797 1656 
z
" transform="scale(0.015625)"/>
       <path id="ArialMT-79" d="M 397 -1278 
L 334 -750 
Q 519 -800 656 -800 
Q 844 -800 956 -737 
Q 1069 -675 1141 -563 
Q 1194 -478 1313 -144 
Q 1328 -97 1363 -6 
L 103 3319 
L 709 3319 
L 1400 1397 
Q 1534 1031 1641 628 
Q 1738 1016 1872 1384 
L 2581 3319 
L 3144 3319 
L 1881 -56 
Q 1678 -603 1566 -809 
Q 1416 -1088 1222 -1217 
Q 1028 -1347 759 -1347 
Q 597 -1347 397 -1278 
z
" transform="scale(0.015625)"/>
      </defs>
      <use xlink:href="#ArialMT-38"/>
      <use xlink:href="#ArialMT-20" x="55.615234"/>
      <use xlink:href="#ArialMT-64" x="83.398438"/>
      <use xlink:href="#ArialMT-61" x="139.013672"/>
      <use xlink:href="#ArialMT-79" x="194.628906"/>
      <use xlink:href="#ArialMT-73" x="244.628906"/>
      <use xlink:href="#ArialMT-5f" x="294.628906"/>
      <use xlink:href="#ArialMT-41" x="350.244141"/>
      <use xlink:href="#ArialMT-62" x="416.943359"/>
      <use xlink:href="#ArialMT-73" x="472.558594"/>
     </g>
    </g>
    <g id="line2d_52">
     <path d="M 141.742437 145.783912 
L 147.742437 145.783912 
L 153.742437 145.783912 
" style="fill: none; stroke: #2e1739; stroke-width: 1.5; stroke-linecap: round"/>
    </g>
    <g id="text_25">
     <!-- 44 days organic fraction dissolved in buffer_Abs -->
     <g style="fill: #262626" transform="translate(158.542438 147.883912) scale(0.06 -0.06)">
      <defs>
       <path id="ArialMT-69" d="M 425 3934 
L 425 4581 
L 988 4581 
L 988 3934 
L 425 3934 
z
M 425 0 
L 425 3319 
L 988 3319 
L 988 0 
L 425 0 
z
" transform="scale(0.015625)"/>
       <path id="ArialMT-66" d="M 556 0 
L 556 2881 
L 59 2881 
L 59 3319 
L 556 3319 
L 556 3672 
Q 556 4006 616 4169 
Q 697 4388 901 4523 
Q 1106 4659 1475 4659 
Q 1713 4659 2000 4603 
L 1916 4113 
Q 1741 4144 1584 4144 
Q 1328 4144 1222 4034 
Q 1116 3925 1116 3625 
L 1116 3319 
L 1763 3319 
L 1763 2881 
L 1116 2881 
L 1116 0 
L 556 0 
z
" transform="scale(0.015625)"/>
      </defs>
      <use xlink:href="#ArialMT-34"/>
      <use xlink:href="#ArialMT-34" x="55.615234"/>
      <use xlink:href="#ArialMT-20" x="111.230469"/>
      <use xlink:href="#ArialMT-64" x="139.013672"/>
      <use xlink:href="#ArialMT-61" x="194.628906"/>
      <use xlink:href="#ArialMT-79" x="250.244141"/>
      <use xlink:href="#ArialMT-73" x="300.244141"/>
      <use xlink:href="#ArialMT-20" x="350.244141"/>
      <use xlink:href="#ArialMT-6f" x="378.027344"/>
      <use xlink:href="#ArialMT-72" x="433.642578"/>
      <use xlink:href="#ArialMT-67" x="466.943359"/>
      <use xlink:href="#ArialMT-61" x="522.558594"/>
      <use xlink:href="#ArialMT-6e" x="578.173828"/>
      <use xlink:href="#ArialMT-69" x="633.789062"/>
      <use xlink:href="#ArialMT-63" x="656.005859"/>
      <use xlink:href="#ArialMT-20" x="706.005859"/>
      <use xlink:href="#ArialMT-66" x="733.789062"/>
      <use xlink:href="#ArialMT-72" x="761.572266"/>
      <use xlink:href="#ArialMT-61" x="794.873047"/>
      <use xlink:href="#ArialMT-63" x="850.488281"/>
      <use xlink:href="#ArialMT-74" x="900.488281"/>
      <use xlink:href="#ArialMT-69" x="928.271484"/>
      <use xlink:href="#ArialMT-6f" x="950.488281"/>
      <use xlink:href="#ArialMT-6e" x="1006.103516"/>
      <use xlink:href="#ArialMT-20" x="1061.71875"/>
      <use xlink:href="#ArialMT-64" x="1089.501953"/>
      <use xlink:href="#ArialMT-69" x="1145.117188"/>
      <use xlink:href="#ArialMT-73" x="1167.333984"/>
      <use xlink:href="#ArialMT-73" x="1217.333984"/>
      <use xlink:href="#ArialMT-6f" x="1267.333984"/>
      <use xlink:href="#ArialMT-6c" x="1322.949219"/>
      <use xlink:href="#ArialMT-76" x="1345.166016"/>
      <use xlink:href="#ArialMT-65" x="1395.166016"/>
      <use xlink:href="#ArialMT-64" x="1450.78125"/>
      <use xlink:href="#ArialMT-20" x="1506.396484"/>
      <use xlink:href="#ArialMT-69" x="1534.179688"/>
      <use xlink:href="#ArialMT-6e" x="1556.396484"/>
      <use xlink:href="#ArialMT-20" x="1612.011719"/>
      <use xlink:href="#ArialMT-62" x="1639.794922"/>
      <use xlink:href="#ArialMT-75" x="1695.410156"/>
      <use xlink:href="#ArialMT-66" x="1751.025391"/>
      <use xlink:href="#ArialMT-66" x="1777.058594"/>
      <use xlink:href="#ArialMT-65" x="1804.841797"/>
      <use xlink:href="#ArialMT-72" x="1860.457031"/>
      <use xlink:href="#ArialMT-5f" x="1893.757812"/>
      <use xlink:href="#ArialMT-41" x="1949.373047"/>
      <use xlink:href="#ArialMT-62" x="2016.072266"/>
      <use xlink:href="#ArialMT-73" x="2071.6875"/>
     </g>
    </g>
   </g>
  </g>
 </g>
 <defs>
  <clipPath id="pfdf2e44bd1">
   <rect x="41.25125" y="7.2" width="357.12" height="266.112"/>
  </clipPath>
 </defs>
</svg>
