<?xml version="1.0" encoding="utf-8" standalone="no"?>
<!DOCTYPE svg PUBLIC "-//W3C//DTD SVG 1.1//EN"
  "http://www.w3.org/Graphics/SVG/1.1/DTD/svg11.dtd">
<svg xmlns:xlink="http://www.w3.org/1999/xlink" width="463.102437pt" height="313.269891pt" viewBox="0 0 463.102437 313.269891" xmlns="http://www.w3.org/2000/svg" version="1.1">
 <metadata>
  <rdf:RDF xmlns:dc="http://purl.org/dc/elements/1.1/" xmlns:cc="http://creativecommons.org/ns#" xmlns:rdf="http://www.w3.org/1999/02/22-rdf-syntax-ns#">
   <cc:Work>
    <dc:type rdf:resource="http://purl.org/dc/dcmitype/StillImage"/>
    <dc:date>2023-12-15T13:43:12.621987</dc:date>
    <dc:format>image/svg+xml</dc:format>
    <dc:creator>
     <cc:Agent>
      <dc:title>Matplotlib v3.7.1, https://matplotlib.org/</dc:title>
     </cc:Agent>
    </dc:creator>
   </cc:Work>
  </rdf:RDF>
 </metadata>
 <defs>
  <style type="text/css">*{stroke-linejoin: round; stroke-linecap: butt}</style>
 </defs>
 <g id="figure_1">
  <g id="patch_1">
   <path d="M 0 313.269891 
L 463.102438 313.269891 
L 463.102438 0 
L 0 0 
z
" style="fill: #ffffff"/>
  </g>
  <g id="axes_1">
   <g id="patch_2">
    <path d="M 41.25125 277.248797 
L 398.37125 277.248797 
L 398.37125 11.136797 
L 41.25125 11.136797 
z
" style="fill: #ffffff"/>
   </g>
   <g id="matplotlib.axis_1">
    <g id="xtick_1">
     <g id="line2d_1">
      <defs>
       <path id="mfd16e902c3" d="M 0 0 
L 0 -6 
" style="stroke: #262626; stroke-width: 1.25"/>
      </defs>
      <g>
       <use xlink:href="#mfd16e902c3" x="66.166599" y="277.248797" style="fill: #262626; stroke: #262626; stroke-width: 1.25"/>
      </g>
     </g>
     <g id="text_1">
      <!-- 250 -->
      <g style="fill: #262626" transform="translate(56.991052 288.622391) scale(0.11 -0.11)">
       <defs>
        <path id="ArialMT-32" d="M 3222 541 
L 3222 0 
L 194 0 
Q 188 203 259 391 
Q 375 700 629 1000 
Q 884 1300 1366 1694 
Q 2113 2306 2375 2664 
Q 2638 3022 2638 3341 
Q 2638 3675 2398 3904 
Q 2159 4134 1775 4134 
Q 1369 4134 1125 3890 
Q 881 3647 878 3216 
L 300 3275 
Q 359 3922 746 4261 
Q 1134 4600 1788 4600 
Q 2447 4600 2831 4234 
Q 3216 3869 3216 3328 
Q 3216 3053 3103 2787 
Q 2991 2522 2730 2228 
Q 2469 1934 1863 1422 
Q 1356 997 1212 845 
Q 1069 694 975 541 
L 3222 541 
z
" transform="scale(0.015625)"/>
        <path id="ArialMT-35" d="M 266 1200 
L 856 1250 
Q 922 819 1161 601 
Q 1400 384 1738 384 
Q 2144 384 2425 690 
Q 2706 997 2706 1503 
Q 2706 1984 2436 2262 
Q 2166 2541 1728 2541 
Q 1456 2541 1237 2417 
Q 1019 2294 894 2097 
L 366 2166 
L 809 4519 
L 3088 4519 
L 3088 3981 
L 1259 3981 
L 1013 2750 
Q 1425 3038 1878 3038 
Q 2478 3038 2890 2622 
Q 3303 2206 3303 1553 
Q 3303 931 2941 478 
Q 2500 -78 1738 -78 
Q 1113 -78 717 272 
Q 322 622 266 1200 
z
" transform="scale(0.015625)"/>
        <path id="ArialMT-30" d="M 266 2259 
Q 266 3072 433 3567 
Q 600 4063 929 4331 
Q 1259 4600 1759 4600 
Q 2128 4600 2406 4451 
Q 2684 4303 2865 4023 
Q 3047 3744 3150 3342 
Q 3253 2941 3253 2259 
Q 3253 1453 3087 958 
Q 2922 463 2592 192 
Q 2263 -78 1759 -78 
Q 1097 -78 719 397 
Q 266 969 266 2259 
z
M 844 2259 
Q 844 1131 1108 757 
Q 1372 384 1759 384 
Q 2147 384 2411 759 
Q 2675 1134 2675 2259 
Q 2675 3391 2411 3762 
Q 2147 4134 1753 4134 
Q 1366 4134 1134 3806 
Q 844 3388 844 2259 
z
" transform="scale(0.015625)"/>
       </defs>
       <use xlink:href="#ArialMT-32"/>
       <use xlink:href="#ArialMT-35" x="55.615234"/>
       <use xlink:href="#ArialMT-30" x="111.230469"/>
      </g>
     </g>
    </g>
    <g id="xtick_2">
     <g id="line2d_2">
      <g>
       <use xlink:href="#mfd16e902c3" x="107.69218" y="277.248797" style="fill: #262626; stroke: #262626; stroke-width: 1.25"/>
      </g>
     </g>
     <g id="text_2">
      <!-- 300 -->
      <g style="fill: #262626" transform="translate(98.516633 288.622391) scale(0.11 -0.11)">
       <defs>
        <path id="ArialMT-33" d="M 269 1209 
L 831 1284 
Q 928 806 1161 595 
Q 1394 384 1728 384 
Q 2125 384 2398 659 
Q 2672 934 2672 1341 
Q 2672 1728 2419 1979 
Q 2166 2231 1775 2231 
Q 1616 2231 1378 2169 
L 1441 2663 
Q 1497 2656 1531 2656 
Q 1891 2656 2178 2843 
Q 2466 3031 2466 3422 
Q 2466 3731 2256 3934 
Q 2047 4138 1716 4138 
Q 1388 4138 1169 3931 
Q 950 3725 888 3313 
L 325 3413 
Q 428 3978 793 4289 
Q 1159 4600 1703 4600 
Q 2078 4600 2393 4439 
Q 2709 4278 2876 4000 
Q 3044 3722 3044 3409 
Q 3044 3113 2884 2869 
Q 2725 2625 2413 2481 
Q 2819 2388 3044 2092 
Q 3269 1797 3269 1353 
Q 3269 753 2831 336 
Q 2394 -81 1725 -81 
Q 1122 -81 723 278 
Q 325 638 269 1209 
z
" transform="scale(0.015625)"/>
       </defs>
       <use xlink:href="#ArialMT-33"/>
       <use xlink:href="#ArialMT-30" x="55.615234"/>
       <use xlink:href="#ArialMT-30" x="111.230469"/>
      </g>
     </g>
    </g>
    <g id="xtick_3">
     <g id="line2d_3">
      <g>
       <use xlink:href="#mfd16e902c3" x="149.217762" y="277.248797" style="fill: #262626; stroke: #262626; stroke-width: 1.25"/>
      </g>
     </g>
     <g id="text_3">
      <!-- 350 -->
      <g style="fill: #262626" transform="translate(140.042215 288.622391) scale(0.11 -0.11)">
       <use xlink:href="#ArialMT-33"/>
       <use xlink:href="#ArialMT-35" x="55.615234"/>
       <use xlink:href="#ArialMT-30" x="111.230469"/>
      </g>
     </g>
    </g>
    <g id="xtick_4">
     <g id="line2d_4">
      <g>
       <use xlink:href="#mfd16e902c3" x="190.743343" y="277.248797" style="fill: #262626; stroke: #262626; stroke-width: 1.25"/>
      </g>
     </g>
     <g id="text_4">
      <!-- 400 -->
      <g style="fill: #262626" transform="translate(181.567796 288.622391) scale(0.11 -0.11)">
       <defs>
        <path id="ArialMT-34" d="M 2069 0 
L 2069 1097 
L 81 1097 
L 81 1613 
L 2172 4581 
L 2631 4581 
L 2631 1613 
L 3250 1613 
L 3250 1097 
L 2631 1097 
L 2631 0 
L 2069 0 
z
M 2069 1613 
L 2069 3678 
L 634 1613 
L 2069 1613 
z
" transform="scale(0.015625)"/>
       </defs>
       <use xlink:href="#ArialMT-34"/>
       <use xlink:href="#ArialMT-30" x="55.615234"/>
       <use xlink:href="#ArialMT-30" x="111.230469"/>
      </g>
     </g>
    </g>
    <g id="xtick_5">
     <g id="line2d_5">
      <g>
       <use xlink:href="#mfd16e902c3" x="232.268924" y="277.248797" style="fill: #262626; stroke: #262626; stroke-width: 1.25"/>
      </g>
     </g>
     <g id="text_5">
      <!-- 450 -->
      <g style="fill: #262626" transform="translate(223.093378 288.622391) scale(0.11 -0.11)">
       <use xlink:href="#ArialMT-34"/>
       <use xlink:href="#ArialMT-35" x="55.615234"/>
       <use xlink:href="#ArialMT-30" x="111.230469"/>
      </g>
     </g>
    </g>
    <g id="xtick_6">
     <g id="line2d_6">
      <g>
       <use xlink:href="#mfd16e902c3" x="273.794506" y="277.248797" style="fill: #262626; stroke: #262626; stroke-width: 1.25"/>
      </g>
     </g>
     <g id="text_6">
      <!-- 500 -->
      <g style="fill: #262626" transform="translate(264.618959 288.622391) scale(0.11 -0.11)">
       <use xlink:href="#ArialMT-35"/>
       <use xlink:href="#ArialMT-30" x="55.615234"/>
       <use xlink:href="#ArialMT-30" x="111.230469"/>
      </g>
     </g>
    </g>
    <g id="xtick_7">
     <g id="line2d_7">
      <g>
       <use xlink:href="#mfd16e902c3" x="315.320087" y="277.248797" style="fill: #262626; stroke: #262626; stroke-width: 1.25"/>
      </g>
     </g>
     <g id="text_7">
      <!-- 550 -->
      <g style="fill: #262626" transform="translate(306.14454 288.622391) scale(0.11 -0.11)">
       <use xlink:href="#ArialMT-35"/>
       <use xlink:href="#ArialMT-35" x="55.615234"/>
       <use xlink:href="#ArialMT-30" x="111.230469"/>
      </g>
     </g>
    </g>
    <g id="xtick_8">
     <g id="line2d_8">
      <g>
       <use xlink:href="#mfd16e902c3" x="356.845669" y="277.248797" style="fill: #262626; stroke: #262626; stroke-width: 1.25"/>
      </g>
     </g>
     <g id="text_8">
      <!-- 600 -->
      <g style="fill: #262626" transform="translate(347.670122 288.622391) scale(0.11 -0.11)">
       <defs>
        <path id="ArialMT-36" d="M 3184 3459 
L 2625 3416 
Q 2550 3747 2413 3897 
Q 2184 4138 1850 4138 
Q 1581 4138 1378 3988 
Q 1113 3794 959 3422 
Q 806 3050 800 2363 
Q 1003 2672 1297 2822 
Q 1591 2972 1913 2972 
Q 2475 2972 2870 2558 
Q 3266 2144 3266 1488 
Q 3266 1056 3080 686 
Q 2894 316 2569 119 
Q 2244 -78 1831 -78 
Q 1128 -78 684 439 
Q 241 956 241 2144 
Q 241 3472 731 4075 
Q 1159 4600 1884 4600 
Q 2425 4600 2770 4297 
Q 3116 3994 3184 3459 
z
M 888 1484 
Q 888 1194 1011 928 
Q 1134 663 1356 523 
Q 1578 384 1822 384 
Q 2178 384 2434 671 
Q 2691 959 2691 1453 
Q 2691 1928 2437 2201 
Q 2184 2475 1800 2475 
Q 1419 2475 1153 2201 
Q 888 1928 888 1484 
z
" transform="scale(0.015625)"/>
       </defs>
       <use xlink:href="#ArialMT-36"/>
       <use xlink:href="#ArialMT-30" x="55.615234"/>
       <use xlink:href="#ArialMT-30" x="111.230469"/>
      </g>
     </g>
    </g>
    <g id="xtick_9">
     <g id="line2d_9">
      <g>
       <use xlink:href="#mfd16e902c3" x="398.37125" y="277.248797" style="fill: #262626; stroke: #262626; stroke-width: 1.25"/>
      </g>
     </g>
     <g id="text_9">
      <!-- 650 -->
      <g style="fill: #262626" transform="translate(389.195703 288.622391) scale(0.11 -0.11)">
       <use xlink:href="#ArialMT-36"/>
       <use xlink:href="#ArialMT-35" x="55.615234"/>
       <use xlink:href="#ArialMT-30" x="111.230469"/>
      </g>
     </g>
    </g>
    <g id="xtick_10">
     <g id="line2d_10">
      <defs>
       <path id="mde24f1b682" d="M 0 0 
L 0 -4 
" style="stroke: #262626"/>
      </defs>
      <g>
       <use xlink:href="#mde24f1b682" x="45.403808" y="277.248797" style="fill: #262626; stroke: #262626"/>
      </g>
     </g>
    </g>
    <g id="xtick_11">
     <g id="line2d_11">
      <g>
       <use xlink:href="#mde24f1b682" x="86.92939" y="277.248797" style="fill: #262626; stroke: #262626"/>
      </g>
     </g>
    </g>
    <g id="xtick_12">
     <g id="line2d_12">
      <g>
       <use xlink:href="#mde24f1b682" x="128.454971" y="277.248797" style="fill: #262626; stroke: #262626"/>
      </g>
     </g>
    </g>
    <g id="xtick_13">
     <g id="line2d_13">
      <g>
       <use xlink:href="#mde24f1b682" x="169.980552" y="277.248797" style="fill: #262626; stroke: #262626"/>
      </g>
     </g>
    </g>
    <g id="xtick_14">
     <g id="line2d_14">
      <g>
       <use xlink:href="#mde24f1b682" x="211.506134" y="277.248797" style="fill: #262626; stroke: #262626"/>
      </g>
     </g>
    </g>
    <g id="xtick_15">
     <g id="line2d_15">
      <g>
       <use xlink:href="#mde24f1b682" x="253.031715" y="277.248797" style="fill: #262626; stroke: #262626"/>
      </g>
     </g>
    </g>
    <g id="xtick_16">
     <g id="line2d_16">
      <g>
       <use xlink:href="#mde24f1b682" x="294.557297" y="277.248797" style="fill: #262626; stroke: #262626"/>
      </g>
     </g>
    </g>
    <g id="xtick_17">
     <g id="line2d_17">
      <g>
       <use xlink:href="#mde24f1b682" x="336.082878" y="277.248797" style="fill: #262626; stroke: #262626"/>
      </g>
     </g>
    </g>
    <g id="xtick_18">
     <g id="line2d_18">
      <g>
       <use xlink:href="#mde24f1b682" x="377.608459" y="277.248797" style="fill: #262626; stroke: #262626"/>
      </g>
     </g>
    </g>
    <g id="text_10">
     <!-- Wavelength (nm) -->
     <g style="fill: #262626" transform="translate(174.356562 303.544266) scale(0.12 -0.12)">
      <defs>
       <path id="ArialMT-57" d="M 1294 0 
L 78 4581 
L 700 4581 
L 1397 1578 
Q 1509 1106 1591 641 
Q 1766 1375 1797 1488 
L 2669 4581 
L 3400 4581 
L 4056 2263 
Q 4303 1400 4413 641 
Q 4500 1075 4641 1638 
L 5359 4581 
L 5969 4581 
L 4713 0 
L 4128 0 
L 3163 3491 
Q 3041 3928 3019 4028 
Q 2947 3713 2884 3491 
L 1913 0 
L 1294 0 
z
" transform="scale(0.015625)"/>
       <path id="ArialMT-61" d="M 2588 409 
Q 2275 144 1986 34 
Q 1697 -75 1366 -75 
Q 819 -75 525 192 
Q 231 459 231 875 
Q 231 1119 342 1320 
Q 453 1522 633 1644 
Q 813 1766 1038 1828 
Q 1203 1872 1538 1913 
Q 2219 1994 2541 2106 
Q 2544 2222 2544 2253 
Q 2544 2597 2384 2738 
Q 2169 2928 1744 2928 
Q 1347 2928 1158 2789 
Q 969 2650 878 2297 
L 328 2372 
Q 403 2725 575 2942 
Q 747 3159 1072 3276 
Q 1397 3394 1825 3394 
Q 2250 3394 2515 3294 
Q 2781 3194 2906 3042 
Q 3031 2891 3081 2659 
Q 3109 2516 3109 2141 
L 3109 1391 
Q 3109 606 3145 398 
Q 3181 191 3288 0 
L 2700 0 
Q 2613 175 2588 409 
z
M 2541 1666 
Q 2234 1541 1622 1453 
Q 1275 1403 1131 1340 
Q 988 1278 909 1158 
Q 831 1038 831 891 
Q 831 666 1001 516 
Q 1172 366 1500 366 
Q 1825 366 2078 508 
Q 2331 650 2450 897 
Q 2541 1088 2541 1459 
L 2541 1666 
z
" transform="scale(0.015625)"/>
       <path id="ArialMT-76" d="M 1344 0 
L 81 3319 
L 675 3319 
L 1388 1331 
Q 1503 1009 1600 663 
Q 1675 925 1809 1294 
L 2547 3319 
L 3125 3319 
L 1869 0 
L 1344 0 
z
" transform="scale(0.015625)"/>
       <path id="ArialMT-65" d="M 2694 1069 
L 3275 997 
Q 3138 488 2766 206 
Q 2394 -75 1816 -75 
Q 1088 -75 661 373 
Q 234 822 234 1631 
Q 234 2469 665 2931 
Q 1097 3394 1784 3394 
Q 2450 3394 2872 2941 
Q 3294 2488 3294 1666 
Q 3294 1616 3291 1516 
L 816 1516 
Q 847 969 1125 678 
Q 1403 388 1819 388 
Q 2128 388 2347 550 
Q 2566 713 2694 1069 
z
M 847 1978 
L 2700 1978 
Q 2663 2397 2488 2606 
Q 2219 2931 1791 2931 
Q 1403 2931 1139 2672 
Q 875 2413 847 1978 
z
" transform="scale(0.015625)"/>
       <path id="ArialMT-6c" d="M 409 0 
L 409 4581 
L 972 4581 
L 972 0 
L 409 0 
z
" transform="scale(0.015625)"/>
       <path id="ArialMT-6e" d="M 422 0 
L 422 3319 
L 928 3319 
L 928 2847 
Q 1294 3394 1984 3394 
Q 2284 3394 2536 3286 
Q 2788 3178 2913 3003 
Q 3038 2828 3088 2588 
Q 3119 2431 3119 2041 
L 3119 0 
L 2556 0 
L 2556 2019 
Q 2556 2363 2490 2533 
Q 2425 2703 2258 2804 
Q 2091 2906 1866 2906 
Q 1506 2906 1245 2678 
Q 984 2450 984 1813 
L 984 0 
L 422 0 
z
" transform="scale(0.015625)"/>
       <path id="ArialMT-67" d="M 319 -275 
L 866 -356 
Q 900 -609 1056 -725 
Q 1266 -881 1628 -881 
Q 2019 -881 2231 -725 
Q 2444 -569 2519 -288 
Q 2563 -116 2559 434 
Q 2191 0 1641 0 
Q 956 0 581 494 
Q 206 988 206 1678 
Q 206 2153 378 2554 
Q 550 2956 876 3175 
Q 1203 3394 1644 3394 
Q 2231 3394 2613 2919 
L 2613 3319 
L 3131 3319 
L 3131 450 
Q 3131 -325 2973 -648 
Q 2816 -972 2473 -1159 
Q 2131 -1347 1631 -1347 
Q 1038 -1347 672 -1080 
Q 306 -813 319 -275 
z
M 784 1719 
Q 784 1066 1043 766 
Q 1303 466 1694 466 
Q 2081 466 2343 764 
Q 2606 1063 2606 1700 
Q 2606 2309 2336 2618 
Q 2066 2928 1684 2928 
Q 1309 2928 1046 2623 
Q 784 2319 784 1719 
z
" transform="scale(0.015625)"/>
       <path id="ArialMT-74" d="M 1650 503 
L 1731 6 
Q 1494 -44 1306 -44 
Q 1000 -44 831 53 
Q 663 150 594 308 
Q 525 466 525 972 
L 525 2881 
L 113 2881 
L 113 3319 
L 525 3319 
L 525 4141 
L 1084 4478 
L 1084 3319 
L 1650 3319 
L 1650 2881 
L 1084 2881 
L 1084 941 
Q 1084 700 1114 631 
Q 1144 563 1211 522 
Q 1278 481 1403 481 
Q 1497 481 1650 503 
z
" transform="scale(0.015625)"/>
       <path id="ArialMT-68" d="M 422 0 
L 422 4581 
L 984 4581 
L 984 2938 
Q 1378 3394 1978 3394 
Q 2347 3394 2619 3248 
Q 2891 3103 3008 2847 
Q 3125 2591 3125 2103 
L 3125 0 
L 2563 0 
L 2563 2103 
Q 2563 2525 2380 2717 
Q 2197 2909 1863 2909 
Q 1613 2909 1392 2779 
Q 1172 2650 1078 2428 
Q 984 2206 984 1816 
L 984 0 
L 422 0 
z
" transform="scale(0.015625)"/>
       <path id="ArialMT-20" transform="scale(0.015625)"/>
       <path id="ArialMT-28" d="M 1497 -1347 
Q 1031 -759 709 28 
Q 388 816 388 1659 
Q 388 2403 628 3084 
Q 909 3875 1497 4659 
L 1900 4659 
Q 1522 4009 1400 3731 
Q 1209 3300 1100 2831 
Q 966 2247 966 1656 
Q 966 153 1900 -1347 
L 1497 -1347 
z
" transform="scale(0.015625)"/>
       <path id="ArialMT-6d" d="M 422 0 
L 422 3319 
L 925 3319 
L 925 2853 
Q 1081 3097 1340 3245 
Q 1600 3394 1931 3394 
Q 2300 3394 2536 3241 
Q 2772 3088 2869 2813 
Q 3263 3394 3894 3394 
Q 4388 3394 4653 3120 
Q 4919 2847 4919 2278 
L 4919 0 
L 4359 0 
L 4359 2091 
Q 4359 2428 4304 2576 
Q 4250 2725 4106 2815 
Q 3963 2906 3769 2906 
Q 3419 2906 3187 2673 
Q 2956 2441 2956 1928 
L 2956 0 
L 2394 0 
L 2394 2156 
Q 2394 2531 2256 2718 
Q 2119 2906 1806 2906 
Q 1569 2906 1367 2781 
Q 1166 2656 1075 2415 
Q 984 2175 984 1722 
L 984 0 
L 422 0 
z
" transform="scale(0.015625)"/>
       <path id="ArialMT-29" d="M 791 -1347 
L 388 -1347 
Q 1322 153 1322 1656 
Q 1322 2244 1188 2822 
Q 1081 3291 891 3722 
Q 769 4003 388 4659 
L 791 4659 
Q 1378 3875 1659 3084 
Q 1900 2403 1900 1659 
Q 1900 816 1576 28 
Q 1253 -759 791 -1347 
z
" transform="scale(0.015625)"/>
      </defs>
      <use xlink:href="#ArialMT-57"/>
      <use xlink:href="#ArialMT-61" x="90.634766"/>
      <use xlink:href="#ArialMT-76" x="146.25"/>
      <use xlink:href="#ArialMT-65" x="196.25"/>
      <use xlink:href="#ArialMT-6c" x="251.865234"/>
      <use xlink:href="#ArialMT-65" x="274.082031"/>
      <use xlink:href="#ArialMT-6e" x="329.697266"/>
      <use xlink:href="#ArialMT-67" x="385.3125"/>
      <use xlink:href="#ArialMT-74" x="440.927734"/>
      <use xlink:href="#ArialMT-68" x="468.710938"/>
      <use xlink:href="#ArialMT-20" x="524.326172"/>
      <use xlink:href="#ArialMT-28" x="552.109375"/>
      <use xlink:href="#ArialMT-6e" x="585.410156"/>
      <use xlink:href="#ArialMT-6d" x="641.025391"/>
      <use xlink:href="#ArialMT-29" x="724.326172"/>
     </g>
    </g>
   </g>
   <g id="matplotlib.axis_2">
    <g id="ytick_1">
     <g id="line2d_19">
      <defs>
       <path id="maa3e85ecc5" d="M 0 0 
L 6 0 
" style="stroke: #262626; stroke-width: 1.25"/>
      </defs>
      <g>
       <use xlink:href="#maa3e85ecc5" x="41.25125" y="274.614025" style="fill: #262626; stroke: #262626; stroke-width: 1.25"/>
      </g>
     </g>
     <g id="text_11">
      <!-- 0.0 -->
      <g style="fill: #262626" transform="translate(22.46125 278.550821) scale(0.11 -0.11)">
       <defs>
        <path id="ArialMT-2e" d="M 581 0 
L 581 641 
L 1222 641 
L 1222 0 
L 581 0 
z
" transform="scale(0.015625)"/>
       </defs>
       <use xlink:href="#ArialMT-30"/>
       <use xlink:href="#ArialMT-2e" x="55.615234"/>
       <use xlink:href="#ArialMT-30" x="83.398438"/>
      </g>
     </g>
    </g>
    <g id="ytick_2">
     <g id="line2d_20">
      <g>
       <use xlink:href="#maa3e85ecc5" x="41.25125" y="221.918579" style="fill: #262626; stroke: #262626; stroke-width: 1.25"/>
      </g>
     </g>
     <g id="text_12">
      <!-- 0.2 -->
      <g style="fill: #262626" transform="translate(22.46125 225.855376) scale(0.11 -0.11)">
       <use xlink:href="#ArialMT-30"/>
       <use xlink:href="#ArialMT-2e" x="55.615234"/>
       <use xlink:href="#ArialMT-32" x="83.398438"/>
      </g>
     </g>
    </g>
    <g id="ytick_3">
     <g id="line2d_21">
      <g>
       <use xlink:href="#maa3e85ecc5" x="41.25125" y="169.223134" style="fill: #262626; stroke: #262626; stroke-width: 1.25"/>
      </g>
     </g>
     <g id="text_13">
      <!-- 0.4 -->
      <g style="fill: #262626" transform="translate(22.46125 173.15993) scale(0.11 -0.11)">
       <use xlink:href="#ArialMT-30"/>
       <use xlink:href="#ArialMT-2e" x="55.615234"/>
       <use xlink:href="#ArialMT-34" x="83.398438"/>
      </g>
     </g>
    </g>
    <g id="ytick_4">
     <g id="line2d_22">
      <g>
       <use xlink:href="#maa3e85ecc5" x="41.25125" y="116.527688" style="fill: #262626; stroke: #262626; stroke-width: 1.25"/>
      </g>
     </g>
     <g id="text_14">
      <!-- 0.6 -->
      <g style="fill: #262626" transform="translate(22.46125 120.464485) scale(0.11 -0.11)">
       <use xlink:href="#ArialMT-30"/>
       <use xlink:href="#ArialMT-2e" x="55.615234"/>
       <use xlink:href="#ArialMT-36" x="83.398438"/>
      </g>
     </g>
    </g>
    <g id="ytick_5">
     <g id="line2d_23">
      <g>
       <use xlink:href="#maa3e85ecc5" x="41.25125" y="63.832242" style="fill: #262626; stroke: #262626; stroke-width: 1.25"/>
      </g>
     </g>
     <g id="text_15">
      <!-- 0.8 -->
      <g style="fill: #262626" transform="translate(22.46125 67.769039) scale(0.11 -0.11)">
       <defs>
        <path id="ArialMT-38" d="M 1131 2484 
Q 781 2613 612 2850 
Q 444 3088 444 3419 
Q 444 3919 803 4259 
Q 1163 4600 1759 4600 
Q 2359 4600 2725 4251 
Q 3091 3903 3091 3403 
Q 3091 3084 2923 2848 
Q 2756 2613 2416 2484 
Q 2838 2347 3058 2040 
Q 3278 1734 3278 1309 
Q 3278 722 2862 322 
Q 2447 -78 1769 -78 
Q 1091 -78 675 323 
Q 259 725 259 1325 
Q 259 1772 486 2073 
Q 713 2375 1131 2484 
z
M 1019 3438 
Q 1019 3113 1228 2906 
Q 1438 2700 1772 2700 
Q 2097 2700 2305 2904 
Q 2513 3109 2513 3406 
Q 2513 3716 2298 3927 
Q 2084 4138 1766 4138 
Q 1444 4138 1231 3931 
Q 1019 3725 1019 3438 
z
M 838 1322 
Q 838 1081 952 856 
Q 1066 631 1291 507 
Q 1516 384 1775 384 
Q 2178 384 2440 643 
Q 2703 903 2703 1303 
Q 2703 1709 2433 1975 
Q 2163 2241 1756 2241 
Q 1359 2241 1098 1978 
Q 838 1716 838 1322 
z
" transform="scale(0.015625)"/>
       </defs>
       <use xlink:href="#ArialMT-30"/>
       <use xlink:href="#ArialMT-2e" x="55.615234"/>
       <use xlink:href="#ArialMT-38" x="83.398438"/>
      </g>
     </g>
    </g>
    <g id="ytick_6">
     <g id="line2d_24">
      <g>
       <use xlink:href="#maa3e85ecc5" x="41.25125" y="11.136797" style="fill: #262626; stroke: #262626; stroke-width: 1.25"/>
      </g>
     </g>
     <g id="text_16">
      <!-- 1.0 -->
      <g style="fill: #262626" transform="translate(22.46125 15.073594) scale(0.11 -0.11)">
       <defs>
        <path id="ArialMT-31" d="M 2384 0 
L 1822 0 
L 1822 3584 
Q 1619 3391 1289 3197 
Q 959 3003 697 2906 
L 697 3450 
Q 1169 3672 1522 3987 
Q 1875 4303 2022 4600 
L 2384 4600 
L 2384 0 
z
" transform="scale(0.015625)"/>
       </defs>
       <use xlink:href="#ArialMT-31"/>
       <use xlink:href="#ArialMT-2e" x="55.615234"/>
       <use xlink:href="#ArialMT-30" x="83.398438"/>
      </g>
     </g>
    </g>
    <g id="ytick_7">
     <g id="line2d_25">
      <defs>
       <path id="m4b8f03ee8f" d="M 0 0 
L 4 0 
" style="stroke: #262626"/>
      </defs>
      <g>
       <use xlink:href="#m4b8f03ee8f" x="41.25125" y="248.266302" style="fill: #262626; stroke: #262626"/>
      </g>
     </g>
    </g>
    <g id="ytick_8">
     <g id="line2d_26">
      <g>
       <use xlink:href="#m4b8f03ee8f" x="41.25125" y="195.570856" style="fill: #262626; stroke: #262626"/>
      </g>
     </g>
    </g>
    <g id="ytick_9">
     <g id="line2d_27">
      <g>
       <use xlink:href="#m4b8f03ee8f" x="41.25125" y="142.875411" style="fill: #262626; stroke: #262626"/>
      </g>
     </g>
    </g>
    <g id="ytick_10">
     <g id="line2d_28">
      <g>
       <use xlink:href="#m4b8f03ee8f" x="41.25125" y="90.179965" style="fill: #262626; stroke: #262626"/>
      </g>
     </g>
    </g>
    <g id="ytick_11">
     <g id="line2d_29">
      <g>
       <use xlink:href="#m4b8f03ee8f" x="41.25125" y="37.48452" style="fill: #262626; stroke: #262626"/>
      </g>
     </g>
    </g>
    <g id="text_17">
     <!-- Absorbance (a.u.) -->
     <g style="fill: #262626" transform="translate(15.935625 191.881547) rotate(-90) scale(0.12 -0.12)">
      <defs>
       <path id="ArialMT-41" d="M -9 0 
L 1750 4581 
L 2403 4581 
L 4278 0 
L 3588 0 
L 3053 1388 
L 1138 1388 
L 634 0 
L -9 0 
z
M 1313 1881 
L 2866 1881 
L 2388 3150 
Q 2169 3728 2063 4100 
Q 1975 3659 1816 3225 
L 1313 1881 
z
" transform="scale(0.015625)"/>
       <path id="ArialMT-62" d="M 941 0 
L 419 0 
L 419 4581 
L 981 4581 
L 981 2947 
Q 1338 3394 1891 3394 
Q 2197 3394 2470 3270 
Q 2744 3147 2920 2923 
Q 3097 2700 3197 2384 
Q 3297 2069 3297 1709 
Q 3297 856 2875 390 
Q 2453 -75 1863 -75 
Q 1275 -75 941 416 
L 941 0 
z
M 934 1684 
Q 934 1088 1097 822 
Q 1363 388 1816 388 
Q 2184 388 2453 708 
Q 2722 1028 2722 1663 
Q 2722 2313 2464 2622 
Q 2206 2931 1841 2931 
Q 1472 2931 1203 2611 
Q 934 2291 934 1684 
z
" transform="scale(0.015625)"/>
       <path id="ArialMT-73" d="M 197 991 
L 753 1078 
Q 800 744 1014 566 
Q 1228 388 1613 388 
Q 2000 388 2187 545 
Q 2375 703 2375 916 
Q 2375 1106 2209 1216 
Q 2094 1291 1634 1406 
Q 1016 1563 777 1677 
Q 538 1791 414 1992 
Q 291 2194 291 2438 
Q 291 2659 392 2848 
Q 494 3038 669 3163 
Q 800 3259 1026 3326 
Q 1253 3394 1513 3394 
Q 1903 3394 2198 3281 
Q 2494 3169 2634 2976 
Q 2775 2784 2828 2463 
L 2278 2388 
Q 2241 2644 2061 2787 
Q 1881 2931 1553 2931 
Q 1166 2931 1000 2803 
Q 834 2675 834 2503 
Q 834 2394 903 2306 
Q 972 2216 1119 2156 
Q 1203 2125 1616 2013 
Q 2213 1853 2448 1751 
Q 2684 1650 2818 1456 
Q 2953 1263 2953 975 
Q 2953 694 2789 445 
Q 2625 197 2315 61 
Q 2006 -75 1616 -75 
Q 969 -75 630 194 
Q 291 463 197 991 
z
" transform="scale(0.015625)"/>
       <path id="ArialMT-6f" d="M 213 1659 
Q 213 2581 725 3025 
Q 1153 3394 1769 3394 
Q 2453 3394 2887 2945 
Q 3322 2497 3322 1706 
Q 3322 1066 3130 698 
Q 2938 331 2570 128 
Q 2203 -75 1769 -75 
Q 1072 -75 642 372 
Q 213 819 213 1659 
z
M 791 1659 
Q 791 1022 1069 705 
Q 1347 388 1769 388 
Q 2188 388 2466 706 
Q 2744 1025 2744 1678 
Q 2744 2294 2464 2611 
Q 2184 2928 1769 2928 
Q 1347 2928 1069 2612 
Q 791 2297 791 1659 
z
" transform="scale(0.015625)"/>
       <path id="ArialMT-72" d="M 416 0 
L 416 3319 
L 922 3319 
L 922 2816 
Q 1116 3169 1280 3281 
Q 1444 3394 1641 3394 
Q 1925 3394 2219 3213 
L 2025 2691 
Q 1819 2813 1613 2813 
Q 1428 2813 1281 2702 
Q 1134 2591 1072 2394 
Q 978 2094 978 1738 
L 978 0 
L 416 0 
z
" transform="scale(0.015625)"/>
       <path id="ArialMT-63" d="M 2588 1216 
L 3141 1144 
Q 3050 572 2676 248 
Q 2303 -75 1759 -75 
Q 1078 -75 664 370 
Q 250 816 250 1647 
Q 250 2184 428 2587 
Q 606 2991 970 3192 
Q 1334 3394 1763 3394 
Q 2303 3394 2647 3120 
Q 2991 2847 3088 2344 
L 2541 2259 
Q 2463 2594 2264 2762 
Q 2066 2931 1784 2931 
Q 1359 2931 1093 2626 
Q 828 2322 828 1663 
Q 828 994 1084 691 
Q 1341 388 1753 388 
Q 2084 388 2306 591 
Q 2528 794 2588 1216 
z
" transform="scale(0.015625)"/>
       <path id="ArialMT-75" d="M 2597 0 
L 2597 488 
Q 2209 -75 1544 -75 
Q 1250 -75 995 37 
Q 741 150 617 320 
Q 494 491 444 738 
Q 409 903 409 1263 
L 409 3319 
L 972 3319 
L 972 1478 
Q 972 1038 1006 884 
Q 1059 663 1231 536 
Q 1403 409 1656 409 
Q 1909 409 2131 539 
Q 2353 669 2445 892 
Q 2538 1116 2538 1541 
L 2538 3319 
L 3100 3319 
L 3100 0 
L 2597 0 
z
" transform="scale(0.015625)"/>
      </defs>
      <use xlink:href="#ArialMT-41"/>
      <use xlink:href="#ArialMT-62" x="66.699219"/>
      <use xlink:href="#ArialMT-73" x="122.314453"/>
      <use xlink:href="#ArialMT-6f" x="172.314453"/>
      <use xlink:href="#ArialMT-72" x="227.929688"/>
      <use xlink:href="#ArialMT-62" x="261.230469"/>
      <use xlink:href="#ArialMT-61" x="316.845703"/>
      <use xlink:href="#ArialMT-6e" x="372.460938"/>
      <use xlink:href="#ArialMT-63" x="428.076172"/>
      <use xlink:href="#ArialMT-65" x="478.076172"/>
      <use xlink:href="#ArialMT-20" x="533.691406"/>
      <use xlink:href="#ArialMT-28" x="561.474609"/>
      <use xlink:href="#ArialMT-61" x="594.775391"/>
      <use xlink:href="#ArialMT-2e" x="650.390625"/>
      <use xlink:href="#ArialMT-75" x="678.173828"/>
      <use xlink:href="#ArialMT-2e" x="733.789062"/>
      <use xlink:href="#ArialMT-29" x="761.572266"/>
     </g>
    </g>
   </g>
   <g id="PolyCollection_1"/>
   <g id="PolyCollection_2"/>
   <g id="PolyCollection_3"/>
   <g id="PolyCollection_4"/>
   <g id="line2d_30">
    <path d="M 24.641005 218.450863 
L 25.194671 247.63116 
L 25.748349 241.712005 
L 26.302028 229.234178 
L 26.855707 239.385357 
L 27.409373 241.252885 
L 27.963051 228.848147 
L 28.51673 249.096858 
L 29.070396 273.448361 
L 29.624075 248.601617 
L 30.177753 261.041989 
L 30.731419 260.422008 
L 31.285098 282.129491 
L 31.838776 232.504916 
L 32.392442 269.3777 
L 33.4998 233.459072 
L 34.053466 230.287225 
L 34.607144 255.466181 
L 35.160823 251.062272 
L 35.714489 253.826399 
L 36.821846 246.792133 
L 37.375512 250.764468 
L 37.929191 237.00836 
L 38.482869 245.765563 
L 39.036535 242.068292 
L 39.590214 240.551021 
L 40.143893 235.976184 
L 40.697559 259.201426 
L 41.251237 227.051901 
L 41.804916 226.358203 
L 42.358582 228.866505 
L 42.912261 232.065144 
L 43.465939 232.689428 
L 44.019605 225.546864 
L 44.573284 220.472342 
L 45.126962 223.401272 
L 46.234307 215.530586 
L 46.787986 218.893148 
L 47.341652 219.167913 
L 47.89533 214.11731 
L 48.449009 213.870216 
L 49.002675 216.565699 
L 49.556354 208.639105 
L 50.110032 218.835277 
L 50.663698 211.970415 
L 51.217377 213.566915 
L 51.771056 213.782758 
L 52.324721 212.640478 
L 52.8784 213.449556 
L 53.432079 211.395851 
L 53.985745 206.939238 
L 54.539423 209.481493 
L 55.093102 208.843797 
L 55.646768 207.725466 
L 56.200447 209.755787 
L 56.754125 207.821578 
L 57.86147 206.29548 
L 58.415149 204.716271 
L 58.968814 207.446524 
L 59.522493 208.369255 
L 60.076172 208.910824 
L 60.629838 204.432428 
L 61.183516 211.097482 
L 61.737195 209.880575 
L 62.290861 210.61267 
L 62.84454 212.314092 
L 63.398218 212.072855 
L 63.951884 214.555245 
L 64.505563 212.244599 
L 65.059242 218.71718 
L 65.612908 220.976063 
L 66.166586 220.728875 
L 66.720265 225.355897 
L 67.273931 225.779196 
L 67.827609 235.103314 
L 68.381288 233.011778 
L 68.934954 235.912817 
L 69.488633 240.966985 
L 70.042311 238.18585 
L 70.595977 236.824021 
L 71.149656 240.837675 
L 71.703335 243.6761 
L 72.257001 243.303401 
L 72.810667 244.187437 
L 73.364358 249.518664 
L 73.918024 248.183784 
L 74.47169 251.046143 
L 75.025381 251.004809 
L 75.579047 255.636936 
L 76.132713 255.998138 
L 76.686404 255.983125 
L 77.24007 259.9529 
L 77.793736 261.067352 
L 78.347428 264.689932 
L 78.901094 265.610968 
L 79.45476 270.546128 
L 80.008451 272.017574 
L 80.562117 268.407682 
L 81.115783 276.84833 
L 81.669474 277.624131 
L 82.22314 274.990681 
L 82.776806 279.568972 
L 83.330497 279.376247 
L 83.884163 284.515754 
L 84.437829 280.534483 
L 84.991521 278.704975 
L 85.545187 279.047584 
L 86.098853 280.814776 
L 86.652544 279.344084 
L 87.20621 282.701951 
L 87.759876 282.06259 
L 88.313567 287.068797 
L 88.867233 282.69994 
L 89.420899 288.524915 
L 89.97459 282.924577 
L 90.528256 283.988963 
L 91.081922 287.379243 
L 91.635614 283.324852 
L 92.18928 290.142852 
L 92.742946 284.383962 
L 93.296637 283.979917 
L 93.850303 288.932352 
L 94.403969 288.197886 
L 94.95766 285.906039 
L 95.511326 288.440614 
L 96.064992 288.814255 
L 96.618683 290.863122 
L 97.172349 287.77889 
L 97.726041 291.241537 
L 98.279707 288.121122 
L 99.387064 292.650416 
L 99.94073 288.934237 
L 100.494396 292.393554 
L 101.601753 291.197753 
L 102.155419 292.358941 
L 102.70911 291.312333 
L 103.262776 293.468053 
L 103.816442 292.208869 
L 104.370134 293.938685 
L 105.477466 291.100762 
L 106.031157 291.234187 
L 106.584823 293.554114 
L 107.138489 291.817765 
L 107.69218 292.350398 
L 108.245846 292.2693 
L 108.799512 292.565109 
L 109.353203 292.592058 
L 109.906869 291.568755 
L 111.014227 291.036813 
L 112.121559 291.604875 
L 112.67525 290.573971 
L 113.228916 290.101581 
L 113.782582 291.033044 
L 114.336273 290.921605 
L 114.889939 290.362024 
L 115.443605 291.557385 
L 115.997297 290.965515 
L 116.550962 291.333377 
L 117.65832 290.422518 
L 118.765652 291.123942 
L 119.319343 291.351782 
L 119.873009 290.476478 
L 120.426675 291.189272 
L 120.980366 291.25096 
L 121.534032 290.943843 
L 122.087698 291.947673 
L 122.64139 291.897481 
L 123.748721 290.689745 
L 124.302413 290.579813 
L 124.856079 291.462719 
L 125.963436 290.256992 
L 126.517102 290.905713 
L 127.070768 290.345628 
L 127.624459 290.725928 
L 128.178125 289.932978 
L 128.731791 289.68045 
L 129.285483 288.546713 
L 129.839149 288.47152 
L 130.392814 288.270503 
L 130.946506 287.712366 
L 131.500172 286.741328 
L 132.053838 287.052527 
L 132.607529 285.957675 
L 133.161195 285.73643 
L 133.714861 285.143681 
L 134.268552 284.74774 
L 134.822218 284.808108 
L 135.929576 282.705845 
L 136.483242 282.591517 
L 137.036908 282.039159 
L 137.590599 282.079991 
L 138.144265 281.288109 
L 138.697931 280.96334 
L 139.251622 279.845434 
L 139.805288 279.014353 
L 140.912645 278.044006 
L 141.466311 276.638205 
L 143.681001 273.110542 
L 144.234692 271.556051 
L 144.788358 270.429161 
L 145.342024 268.875298 
L 145.895715 268.115391 
L 146.449381 266.121175 
L 147.003047 265.440166 
L 147.556738 264.53584 
L 148.110404 262.395447 
L 148.66407 261.962444 
L 149.217762 260.390112 
L 149.771428 259.463612 
L 150.878785 257.135267 
L 152.539808 253.828535 
L 154.754497 248.82506 
L 156.415521 243.903406 
L 157.522878 239.696902 
L 159.183901 232.518767 
L 164.166971 208.427236 
L 165.274303 204.402653 
L 166.38166 201.030464 
L 168.042683 197.109718 
L 170.257373 192.25308 
L 171.36473 189.098524 
L 172.472087 184.972772 
L 173.579419 179.233073 
L 174.686776 172.079311 
L 176.3478 158.541935 
L 179.669846 127.581333 
L 180.777203 119.062697 
L 181.884535 112.678862 
L 182.438227 110.480017 
L 182.991893 108.742506 
L 183.545559 107.754915 
L 184.09925 107.347981 
L 184.652916 107.330235 
L 185.206582 107.88966 
L 185.760273 108.819019 
L 186.867605 111.28151 
L 187.974962 114.142644 
L 188.528628 115.354794 
L 189.08232 116.266909 
L 189.635986 116.713528 
L 190.189652 116.784057 
L 190.743343 116.216576 
L 191.297009 114.964365 
L 191.850675 113.109479 
L 192.404366 110.41855 
L 192.958032 107.040488 
L 194.06539 97.571181 
L 195.172721 85.356012 
L 196.833745 62.972781 
L 199.048459 33.142492 
L 200.155791 22.185549 
L 200.709483 18.458219 
L 201.263149 15.954535 
L 201.816814 14.836424 
L 202.370506 15.055203 
L 202.924172 16.653509 
L 203.477838 19.43433 
L 204.031529 23.390207 
L 205.138861 34.327237 
L 206.246218 47.991301 
L 209.568265 92.474422 
L 210.675622 104.289285 
L 211.229288 109.08166 
L 211.782954 112.851109 
L 212.336645 115.805685 
L 212.890311 117.741873 
L 213.443977 118.703881 
L 213.997669 118.653344 
L 214.551335 117.678646 
L 215.105001 115.734747 
L 215.658692 112.860343 
L 216.212358 109.023098 
L 217.319715 99.015757 
L 218.427047 86.862792 
L 221.195428 55.213769 
L 221.749094 50.3397 
L 222.302785 46.600953 
L 222.856451 44.201939 
L 223.410117 43.235612 
L 223.963808 43.905124 
L 224.517474 46.323816 
L 225.07114 50.367936 
L 225.624831 56.051037 
L 226.178497 63.253624 
L 227.285855 81.710644 
L 228.946878 115.096345 
L 231.161567 161.394393 
L 232.82259 191.58261 
L 233.929948 208.212862 
L 235.03728 222.139206 
L 236.144637 233.404782 
L 237.251994 242.092815 
L 238.359326 249.10109 
L 239.466683 254.519916 
L 240.574041 258.733809 
L 241.681373 262.009149 
L 242.78873 264.566299 
L 243.896087 266.656414 
L 245.003419 268.294217 
L 246.110776 269.663647 
L 247.218134 270.838302 
L 248.879157 272.193739 
L 251.093846 273.531115 
L 252.201203 274.055692 
L 254.415893 274.843585 
L 256.630582 275.407689 
L 260.50632 275.931771 
L 262.721009 276.098764 
L 268.257745 276.321147 
L 271.579791 276.366109 
L 274.901838 276.442523 
L 278.223884 276.47575 
L 283.206954 276.509986 
L 287.636383 276.480328 
L 310.890709 276.045302 
L 328.054582 275.763219 
L 330.269297 275.703907 
L 336.91339 275.604986 
L 346.325838 275.470454 
L 371.794878 275.164778 
L 386.190396 275.070404 
L 391.173466 275.03261 
L 407.783698 274.954529 
L 414.981483 274.8999 
L 424.393931 274.874845 
L 426.608645 274.867509 
L 464.102437 274.731987 
L 464.102437 274.731987 
" clip-path="url(#p64dab6c0c4)" style="fill: none; stroke: #f69c73; stroke-linecap: round"/>
   </g>
   <g id="line2d_31">
    <path d="M 24.641005 227.511806 
L 25.194671 238.304513 
L 25.748349 253.6414 
L 26.302028 249.541341 
L 26.855707 241.270694 
L 27.409373 247.553674 
L 27.963051 247.80705 
L 28.51673 232.988252 
L 29.070396 246.168352 
L 29.624075 227.501654 
L 30.177753 218.93131 
L 30.731419 248.4686 
L 31.285098 246.362734 
L 31.838776 248.498486 
L 32.392442 246.530245 
L 32.946121 248.632712 
L 33.4998 254.642089 
L 34.053466 230.101756 
L 34.607144 251.448083 
L 35.160823 251.760775 
L 35.714489 256.343354 
L 36.268168 246.360197 
L 36.821846 257.331149 
L 37.375512 241.972801 
L 37.929191 250.703283 
L 38.482869 231.786547 
L 39.036535 225.187263 
L 39.590214 244.067895 
L 40.143893 247.774008 
L 40.697559 236.783598 
L 41.251237 235.965694 
L 41.804916 234.596877 
L 42.358582 237.896322 
L 42.912261 219.709545 
L 43.465939 221.495394 
L 44.019605 224.467276 
L 44.573284 223.187252 
L 45.126962 226.465669 
L 45.680628 226.379986 
L 46.234307 219.329732 
L 46.787986 218.892017 
L 47.341652 222.959035 
L 47.89533 215.302793 
L 48.449009 217.415405 
L 49.002675 220.587142 
L 49.556354 212.629453 
L 50.110032 218.435834 
L 50.663698 215.176953 
L 51.217377 215.629713 
L 51.771056 215.700634 
L 52.324721 212.704018 
L 52.8784 213.542165 
L 53.432079 213.394606 
L 53.985745 213.060101 
L 54.539423 211.383822 
L 55.093102 211.311314 
L 55.646768 208.434287 
L 56.200447 209.073161 
L 56.754125 209.199598 
L 57.307791 208.207248 
L 57.86147 211.621368 
L 58.415149 211.65218 
L 58.968814 212.517967 
L 60.076172 210.50522 
L 60.629838 212.956451 
L 61.183516 212.174557 
L 61.737195 215.094175 
L 62.290861 215.521823 
L 62.84454 210.715455 
L 63.398218 213.662666 
L 65.059242 219.768452 
L 65.612908 220.76388 
L 66.166586 220.511101 
L 66.720265 222.085411 
L 67.273931 227.509262 
L 67.827609 226.993653 
L 68.381288 230.85495 
L 68.934954 232.106926 
L 69.488633 230.524347 
L 70.042311 232.923927 
L 70.595977 231.879533 
L 71.149656 234.487668 
L 71.703335 234.30983 
L 72.257001 239.925685 
L 72.810667 243.173745 
L 73.364358 243.693375 
L 73.918024 243.413019 
L 74.47169 247.786901 
L 75.025381 247.646503 
L 75.579047 253.264116 
L 76.132713 252.438627 
L 76.686404 258.430509 
L 77.24007 260.818656 
L 77.793736 260.672981 
L 78.347428 261.361905 
L 78.901094 262.42761 
L 80.562117 273.692298 
L 81.115783 276.963476 
L 81.669474 274.021401 
L 82.22314 272.895328 
L 82.776806 279.323229 
L 83.330497 281.996506 
L 83.884163 282.90234 
L 84.437829 281.753024 
L 84.991521 283.507652 
L 85.545187 282.286976 
L 86.098853 287.746602 
L 86.652544 287.186644 
L 87.20621 290.968279 
L 87.759876 290.331306 
L 88.313567 281.657666 
L 88.867233 287.47548 
L 89.420899 285.71947 
L 89.97459 291.846724 
L 90.528256 288.707339 
L 91.081922 289.518694 
L 91.635614 284.738506 
L 92.18928 293.079713 
L 92.742946 288.793776 
L 93.296637 289.045047 
L 93.850303 299.180333 
L 94.95766 290.142476 
L 96.064992 294.402909 
L 96.618683 293.979768 
L 97.172349 294.198499 
L 97.726041 295.678803 
L 98.279707 295.227896 
L 98.833373 292.150511 
L 99.94073 296.257481 
L 100.494396 294.888993 
L 101.048087 294.559451 
L 101.601753 293.161691 
L 102.155419 292.258307 
L 102.70911 293.322316 
L 103.262776 293.720518 
L 103.816442 294.604805 
L 104.370134 295.128644 
L 104.9238 291.989698 
L 105.477466 292.183679 
L 106.031157 293.19467 
L 106.584823 293.897476 
L 107.138489 294.38777 
L 108.245846 292.208618 
L 108.799512 291.464603 
L 109.353203 291.035306 
L 109.906869 292.480808 
L 111.014227 292.785035 
L 111.567893 291.929141 
L 112.121559 291.854765 
L 112.67525 291.334947 
L 113.228916 292.137759 
L 114.336273 291.638043 
L 114.889939 290.588231 
L 115.443605 290.985931 
L 115.997297 290.352413 
L 116.550962 291.249452 
L 117.104628 290.478049 
L 117.65832 291.151268 
L 119.319343 290.967588 
L 119.873009 290.620582 
L 120.426675 291.611911 
L 120.980366 290.948554 
L 121.534032 291.141468 
L 122.087698 291.887053 
L 122.64139 290.85527 
L 123.195056 290.96451 
L 123.748721 292.04793 
L 124.302413 291.162135 
L 124.856079 291.253284 
L 125.409745 290.481315 
L 125.963436 291.194863 
L 126.517102 290.430621 
L 127.624459 289.930716 
L 128.178125 289.101458 
L 128.731791 289.993848 
L 130.392814 288.468128 
L 130.946506 288.550043 
L 131.500172 288.142166 
L 132.053838 287.987697 
L 132.607529 287.412348 
L 133.161195 286.651058 
L 133.714861 286.221887 
L 134.268552 285.357576 
L 134.822218 285.510663 
L 135.375884 284.604955 
L 135.929576 284.222269 
L 136.483242 283.104927 
L 137.036908 283.247335 
L 137.590599 282.418516 
L 138.697931 281.417891 
L 139.805288 280.010016 
L 140.358954 279.88369 
L 141.466311 277.895002 
L 142.019977 277.368023 
L 142.573669 276.457729 
L 143.127335 274.702975 
L 143.681001 274.123417 
L 144.788358 272.09239 
L 145.342024 270.521315 
L 145.895715 269.529044 
L 147.003047 266.577861 
L 148.110404 264.456941 
L 149.771428 260.578315 
L 151.432451 257.389743 
L 152.539808 254.944683 
L 153.64714 252.654846 
L 154.754497 250.193956 
L 156.415521 245.632719 
L 158.63021 237.37842 
L 163.059614 216.310627 
L 164.720637 209.646531 
L 165.827994 206.008968 
L 167.489017 201.751582 
L 170.257373 195.947996 
L 171.36473 193.089312 
L 172.472087 189.369112 
L 173.579419 184.26136 
L 174.686776 177.739986 
L 175.794134 169.659724 
L 177.455157 155.373936 
L 179.669846 135.88997 
L 180.777203 127.767651 
L 181.884535 121.507285 
L 182.438227 119.138989 
L 182.991893 117.471552 
L 183.545559 116.334737 
L 184.09925 115.768591 
L 184.652916 115.642829 
L 185.206582 116.057301 
L 185.760273 116.811383 
L 186.313939 117.772685 
L 188.528628 122.809201 
L 189.08232 123.708408 
L 189.635986 124.306983 
L 190.189652 124.512099 
L 190.743343 124.151839 
L 191.297009 123.250418 
L 191.850675 121.675951 
L 192.404366 119.37787 
L 192.958032 116.349043 
L 194.06539 108.098812 
L 195.172721 97.035989 
L 196.833745 76.418553 
L 199.048459 48.082277 
L 200.155791 37.206007 
L 200.709483 33.344577 
L 201.263149 30.649707 
L 201.816814 29.274623 
L 202.370506 29.111737 
L 202.924172 30.181525 
L 203.477838 32.47934 
L 204.031529 35.913106 
L 205.138861 45.668186 
L 206.246218 58.245689 
L 210.121931 106.217511 
L 211.229288 116.145702 
L 211.782954 120.100778 
L 212.336645 123.025185 
L 212.890311 125.177152 
L 213.443977 126.314752 
L 213.997669 126.557528 
L 214.551335 125.877147 
L 215.105001 124.240758 
L 215.658692 121.738377 
L 216.212358 118.446595 
L 217.319715 109.624014 
L 218.980738 92.39846 
L 221.195428 68.693196 
L 221.749094 63.962335 
L 222.302785 60.262221 
L 222.856451 57.653851 
L 223.410117 56.369712 
L 223.963808 56.550518 
L 224.517474 58.350517 
L 225.07114 61.702509 
L 225.624831 66.628655 
L 226.178497 73.018583 
L 227.285855 89.479392 
L 228.946878 120.538744 
L 232.268924 184.061529 
L 233.376256 201.319866 
L 234.483614 216.185211 
L 235.590971 228.522428 
L 236.698303 238.220007 
L 237.80566 245.880795 
L 238.913017 251.83413 
L 240.020349 256.513001 
L 241.127707 260.087699 
L 242.235064 262.942567 
L 243.342396 265.213229 
L 244.449753 267.02371 
L 245.55711 268.508544 
L 247.218134 270.26823 
L 248.879157 271.61828 
L 250.54018 272.653196 
L 252.201203 273.474406 
L 254.415893 274.27864 
L 257.184273 274.93968 
L 259.952628 275.343171 
L 262.167343 275.559893 
L 264.935698 275.712709 
L 269.918768 275.875769 
L 290.404738 276.101143 
L 297.048831 276.021553 
L 314.766396 275.789225 
L 326.94725 275.635296 
L 338.020721 275.508139 
L 349.647884 275.379788 
L 357.953001 275.315847 
L 365.704476 275.244937 
L 375.116924 275.216637 
L 378.438971 275.178355 
L 384.529373 275.150713 
L 399.478582 275.080689 
L 403.35432 275.061699 
L 408.891081 275.055911 
L 414.981483 275.016369 
L 425.501313 274.974268 
L 464.102437 274.77939 
L 464.102437 274.77939 
" clip-path="url(#p64dab6c0c4)" style="fill: none; stroke: #e83f3f; stroke-linecap: round"/>
   </g>
   <g id="line2d_32">
    <path d="M 24.641005 268.011521 
L 25.194671 235.889464 
L 25.748349 253.324987 
L 26.302028 247.120199 
L 26.855707 248.12479 
L 27.409373 181.165342 
L 27.963051 249.931872 
L 28.51673 254.062406 
L 29.070396 233.68166 
L 29.624075 248.944195 
L 30.177753 255.632892 
L 30.731419 245.926236 
L 31.285098 255.95565 
L 31.838776 245.538854 
L 32.392442 255.321708 
L 33.4998 237.732666 
L 34.053466 263.347106 
L 34.607144 258.912228 
L 35.160823 247.278924 
L 35.714489 241.972817 
L 36.268168 259.823495 
L 36.821846 257.431681 
L 37.375512 243.502817 
L 37.929191 236.819498 
L 38.482869 252.409432 
L 39.036535 238.658287 
L 40.143893 233.089405 
L 40.697559 233.978812 
L 41.251237 232.832778 
L 41.804916 234.877421 
L 42.358582 235.650615 
L 42.912261 234.511162 
L 43.465939 227.203245 
L 44.019605 222.641789 
L 44.573284 227.150557 
L 45.126962 224.739167 
L 45.680628 223.548093 
L 46.234307 218.390385 
L 46.787986 223.900769 
L 47.89533 213.209356 
L 48.449009 217.07567 
L 49.002675 217.080947 
L 49.556354 218.097905 
L 50.110032 212.821519 
L 50.663698 217.983435 
L 51.217377 220.403824 
L 51.771056 212.245934 
L 52.324721 220.232174 
L 52.8784 214.234811 
L 53.432079 214.078269 
L 53.985745 215.706461 
L 54.539423 213.464946 
L 55.093102 210.713822 
L 55.646768 209.717028 
L 56.200447 212.499828 
L 56.754125 214.216122 
L 57.307791 211.214402 
L 57.86147 210.41316 
L 58.415149 208.003451 
L 58.968814 216.223452 
L 59.522493 213.702366 
L 60.076172 213.057682 
L 60.629838 213.019882 
L 61.183516 213.415085 
L 61.737195 216.006966 
L 62.290861 212.999654 
L 62.84454 217.563498 
L 63.398218 216.995122 
L 63.951884 216.892635 
L 64.505563 219.561232 
L 65.059242 220.882433 
L 65.612908 221.215132 
L 66.166586 224.320769 
L 66.720265 225.194605 
L 67.273931 224.456644 
L 67.827609 229.908756 
L 68.381288 230.541512 
L 68.934954 234.450676 
L 69.488633 235.904917 
L 70.042311 239.800662 
L 70.595977 240.499338 
L 71.149656 238.816604 
L 71.703335 241.535016 
L 72.257001 241.313269 
L 72.810667 244.075684 
L 73.364358 248.354523 
L 73.918024 246.662461 
L 74.47169 247.226126 
L 75.025381 250.220151 
L 76.132713 251.571992 
L 76.686404 256.254498 
L 77.24007 253.202241 
L 77.793736 257.838513 
L 78.347428 266.184872 
L 78.901094 265.373768 
L 79.45476 267.570132 
L 80.008451 265.446197 
L 80.562117 267.286823 
L 81.115783 271.948977 
L 81.669474 271.968136 
L 82.22314 283.577003 
L 82.776806 272.707377 
L 83.330497 273.620623 
L 83.884163 272.13787 
L 84.437829 280.321907 
L 84.991521 284.716268 
L 85.545187 284.411853 
L 86.098853 278.708744 
L 86.652544 277.083521 
L 87.20621 283.830159 
L 87.759876 283.434784 
L 88.313567 290.3548 
L 88.867233 289.401853 
L 89.420899 284.667019 
L 89.97459 283.027221 
L 90.528256 290.284695 
L 91.081922 289.923618 
L 92.18928 289.654758 
L 92.742946 288.201655 
L 93.296637 291.692318 
L 93.850303 290.366735 
L 94.403969 291.451537 
L 94.95766 288.426794 
L 95.511326 289.878012 
L 96.064992 289.387782 
L 96.618683 295.370807 
L 97.172349 291.658773 
L 97.726041 295.456364 
L 98.279707 291.582826 
L 98.833373 289.898428 
L 99.94073 292.664299 
L 100.494396 295.032595 
L 101.048087 290.763242 
L 101.601753 292.6844 
L 102.155419 293.627359 
L 102.70911 292.484074 
L 103.262776 293.133862 
L 103.816442 292.821029 
L 104.370134 291.685157 
L 104.9238 291.277155 
L 105.477466 292.209372 
L 106.031157 290.772727 
L 106.584823 291.776682 
L 107.138489 290.905022 
L 107.69218 291.183556 
L 108.245846 292.13154 
L 108.799512 290.811549 
L 109.353203 290.971797 
L 109.906869 290.649039 
L 110.460535 290.12765 
L 111.014227 290.630382 
L 111.567893 290.387277 
L 112.121559 289.422583 
L 112.67525 290.379299 
L 113.228916 289.108808 
L 113.782582 290.01439 
L 114.336273 288.498218 
L 114.889939 288.604066 
L 115.443605 287.585349 
L 116.550962 288.804015 
L 117.104628 288.28715 
L 117.65832 288.207434 
L 118.211986 288.262085 
L 118.765652 288.445702 
L 119.319343 288.395197 
L 119.873009 288.514865 
L 120.426675 288.516812 
L 120.980366 289.440172 
L 121.534032 287.919854 
L 122.087698 288.730518 
L 122.64139 289.120806 
L 123.195056 288.442498 
L 123.748721 288.851945 
L 124.302413 288.231305 
L 124.856079 288.61776 
L 126.517102 287.63309 
L 127.070768 287.981729 
L 127.624459 287.686423 
L 128.178125 287.713811 
L 128.731791 287.013455 
L 129.839149 287.079916 
L 130.392814 285.889769 
L 130.946506 285.614187 
L 131.500172 285.537109 
L 132.053838 284.880286 
L 132.607529 285.116795 
L 133.161195 284.46952 
L 133.714861 284.068616 
L 134.268552 283.471407 
L 135.929576 282.261472 
L 136.483242 281.636245 
L 137.036908 281.521352 
L 137.590599 281.15795 
L 138.144265 280.147713 
L 138.697931 279.456654 
L 139.251622 279.020824 
L 139.805288 278.074849 
L 140.358954 277.397045 
L 140.912645 277.268896 
L 141.466311 275.729419 
L 142.019977 275.120337 
L 142.573669 273.873904 
L 143.127335 273.388574 
L 143.681001 272.118271 
L 144.234692 271.270481 
L 145.342024 268.446001 
L 145.895715 267.571765 
L 146.449381 266.369368 
L 147.003047 265.461587 
L 147.556738 263.726495 
L 148.110404 262.773359 
L 148.66407 262.10259 
L 149.217762 260.600427 
L 150.878785 257.427559 
L 154.754497 249.582738 
L 155.308163 247.965869 
L 155.861855 246.738659 
L 156.969187 243.281918 
L 158.63021 237.227595 
L 163.059614 217.536926 
L 164.166971 213.301589 
L 165.827994 208.141415 
L 167.489017 204.226605 
L 170.257373 198.933855 
L 171.36473 196.069015 
L 172.472087 192.424385 
L 173.579419 187.482189 
L 174.686776 181.087173 
L 175.794134 173.335323 
L 177.455157 159.703375 
L 179.669846 141.669559 
L 180.777203 134.165776 
L 181.884535 128.70213 
L 182.438227 126.782007 
L 182.991893 125.264375 
L 183.545559 124.465866 
L 184.09925 124.09023 
L 184.652916 124.05444 
L 185.206582 124.525888 
L 185.760273 125.249832 
L 186.867605 127.515108 
L 188.528628 131.017408 
L 189.08232 131.800825 
L 189.635986 132.291213 
L 190.189652 132.280157 
L 190.743343 131.800134 
L 191.297009 130.751484 
L 191.850675 129.031908 
L 192.404366 126.718797 
L 192.958032 123.723955 
L 194.06539 115.469201 
L 195.172721 104.791043 
L 196.833745 85.246442 
L 198.494768 65.181426 
L 199.602125 53.916235 
L 200.155791 49.53059 
L 200.709483 46.346431 
L 201.263149 44.166321 
L 201.816814 43.130549 
L 202.370506 43.371926 
L 202.924172 44.735922 
L 203.477838 47.201146 
L 204.031529 50.643989 
L 205.138861 60.353339 
L 206.246218 72.343291 
L 209.568265 111.351018 
L 210.675622 121.709041 
L 211.229288 125.946216 
L 211.782954 129.297313 
L 212.336645 131.887796 
L 212.890311 133.628024 
L 213.443977 134.489587 
L 213.997669 134.475421 
L 214.551335 133.593741 
L 215.105001 131.944474 
L 215.658692 129.406946 
L 216.212358 126.065161 
L 217.319715 117.423841 
L 218.427047 106.904785 
L 221.195428 79.576046 
L 221.749094 75.320009 
L 222.302785 72.084481 
L 222.856451 70.008775 
L 223.410117 69.222044 
L 223.963808 69.838554 
L 224.517474 71.954338 
L 225.07114 75.543233 
L 225.624831 80.57218 
L 226.178497 86.782888 
L 227.285855 102.936063 
L 228.946878 132.262505 
L 231.161567 173.027531 
L 232.82259 199.585881 
L 233.929948 214.323965 
L 235.03728 226.613747 
L 236.144637 236.624394 
L 237.251994 244.291581 
L 238.359326 250.520373 
L 239.466683 255.333015 
L 240.574041 259.07579 
L 241.681373 262.002568 
L 242.78873 264.302119 
L 243.896087 266.160514 
L 245.003419 267.659003 
L 246.110776 268.91624 
L 247.7718 270.410889 
L 249.986489 271.874844 
L 251.647512 272.695846 
L 253.308535 273.327464 
L 255.52325 273.964798 
L 257.737939 274.393982 
L 260.50632 274.764363 
L 265.48939 275.091688 
L 283.206954 275.516615 
L 287.636383 275.515072 
L 294.834117 275.494291 
L 299.817187 275.437106 
L 302.585592 275.436285 
L 320.303157 275.270958 
L 328.054582 275.215608 
L 336.359698 275.130421 
L 343.003791 275.080784 
L 378.438971 274.823726 
L 381.761017 274.810139 
L 464.102437 274.601881 
L 464.102437 274.601881 
" clip-path="url(#p64dab6c0c4)" style="fill: none; stroke: #a11a5b; stroke-linecap: round"/>
   </g>
   <g id="line2d_33">
    <path d="M 24.641005 190.644825 
L 25.194671 194.606944 
L 25.748349 193.06625 
L 26.302028 201.561141 
L 26.855707 191.632801 
L 27.409373 191.057986 
L 27.963051 204.35952 
L 28.51673 204.322434 
L 29.070396 198.563771 
L 29.624075 203.330548 
L 30.177753 203.520737 
L 30.731419 190.302232 
L 31.285098 190.305491 
L 31.838776 209.009687 
L 32.392442 151.821162 
L 32.946121 204.979517 
L 33.4998 202.76715 
L 34.053466 203.076489 
L 34.607144 204.661761 
L 35.160823 198.910062 
L 35.714489 198.200668 
L 36.268168 196.615491 
L 36.821846 198.616373 
L 37.375512 207.09227 
L 37.929191 191.36789 
L 38.482869 192.782721 
L 39.036535 191.71408 
L 39.590214 187.544261 
L 40.143893 188.105806 
L 40.697559 190.40991 
L 41.251237 182.706445 
L 41.804916 186.870587 
L 42.358582 182.395465 
L 42.912261 180.198222 
L 43.465939 180.476034 
L 44.019605 176.621663 
L 44.573284 175.816809 
L 45.126962 174.799443 
L 45.680628 172.811854 
L 46.234307 164.170872 
L 46.787986 170.900071 
L 47.341652 170.365836 
L 47.89533 169.137393 
L 48.449009 165.910659 
L 49.002675 166.538713 
L 49.556354 165.764898 
L 50.110032 164.646733 
L 50.663698 165.192054 
L 51.217377 163.959976 
L 51.771056 163.602448 
L 52.324721 165.924181 
L 52.8784 162.449631 
L 53.985745 162.719496 
L 54.539423 163.858023 
L 55.093102 161.888518 
L 55.646768 161.559933 
L 56.200447 160.642989 
L 56.754125 160.017252 
L 57.307791 163.204741 
L 57.86147 160.16573 
L 58.415149 160.545024 
L 58.968814 158.422204 
L 59.522493 161.140915 
L 60.076172 159.926763 
L 60.629838 161.494807 
L 61.183516 161.2127 
L 61.737195 160.696596 
L 62.290861 159.741764 
L 62.84454 160.034103 
L 63.398218 163.256565 
L 63.951884 163.206405 
L 64.505563 160.662564 
L 65.059242 164.17731 
L 65.612908 164.478828 
L 66.166586 167.284416 
L 66.720265 165.905014 
L 67.273931 164.879135 
L 67.827609 169.758207 
L 68.381288 168.948453 
L 68.934954 162.037977 
L 70.042311 137.550764 
L 70.595977 133.123769 
L 71.149656 132.617536 
L 71.703335 133.772018 
L 72.257001 136.365108 
L 73.364358 140.103572 
L 74.47169 144.567402 
L 77.793736 155.647202 
L 80.008451 161.494281 
L 81.669474 164.935436 
L 83.884163 169.084006 
L 85.545187 171.54265 
L 86.652544 172.653152 
L 87.759876 173.440158 
L 88.867233 173.798338 
L 89.420899 173.930114 
L 91.635614 174.002354 
L 92.18928 174.073865 
L 93.296637 174.549404 
L 94.95766 175.812192 
L 98.279707 178.173846 
L 99.94073 178.815028 
L 101.601753 179.443379 
L 102.70911 180.163546 
L 106.031157 183.167638 
L 109.353203 185.603629 
L 111.014227 186.578099 
L 114.889939 188.337211 
L 118.765652 190.73405 
L 119.873009 191.610407 
L 123.195056 194.878428 
L 124.856079 196.107679 
L 125.963436 196.591431 
L 127.070768 196.787337 
L 127.624459 196.785342 
L 131.500172 195.972055 
L 137.036908 195.334462 
L 138.144265 194.825794 
L 139.805288 193.474731 
L 140.912645 192.102585 
L 142.019977 190.696862 
L 144.788358 187.279727 
L 146.449381 185.718263 
L 148.66407 184.591225 
L 149.217762 183.113387 
L 150.878785 182.365328 
L 151.986117 181.619272 
L 153.093474 180.484075 
L 154.200831 178.877233 
L 155.308163 176.766042 
L 156.415521 174.226575 
L 159.183901 166.679362 
L 160.844924 162.252218 
L 161.952256 159.789121 
L 163.059614 157.780551 
L 164.166971 156.237737 
L 165.274303 155.320863 
L 166.38166 154.726135 
L 169.150041 153.429401 
L 169.703707 152.93482 
L 170.257373 152.252077 
L 170.811064 151.374142 
L 171.36473 150.270291 
L 172.472087 147.2319 
L 173.579419 143.063519 
L 174.686776 137.713227 
L 176.3478 128.164346 
L 178.562489 114.754129 
L 179.669846 109.116948 
L 180.777203 104.861462 
L 181.330869 103.41362 
L 181.884535 102.341617 
L 182.438227 101.766959 
L 182.991893 101.643538 
L 183.545559 101.925402 
L 184.09925 102.65924 
L 184.652916 103.699253 
L 185.760273 106.710239 
L 188.528628 115.663119 
L 189.08232 117.020299 
L 189.635986 117.947271 
L 190.189652 118.527912 
L 190.743343 118.630149 
L 191.297009 118.143341 
L 191.850675 117.138601 
L 192.404366 115.486947 
L 192.958032 113.232382 
L 194.06539 106.75297 
L 195.172721 97.835205 
L 196.280079 87.220917 
L 199.048459 59.258502 
L 200.155791 50.975102 
L 200.709483 48.204615 
L 201.263149 46.344091 
L 201.816814 45.602023 
L 202.370506 45.853892 
L 202.924172 47.20168 
L 203.477838 49.516173 
L 204.031529 52.72524 
L 205.138861 61.595436 
L 206.799884 78.860063 
L 209.568265 109.318578 
L 210.675622 119.184076 
L 211.782954 126.570877 
L 212.336645 129.17028 
L 212.890311 130.971268 
L 213.443977 132.037005 
L 213.997669 132.262788 
L 214.551335 131.710116 
L 215.105001 130.460653 
L 215.658692 128.421931 
L 216.212358 125.720103 
L 217.319715 118.431644 
L 218.427047 109.389012 
L 221.195428 85.692841 
L 221.749094 82.010788 
L 222.302785 79.141048 
L 222.856451 77.393407 
L 223.410117 76.71444 
L 223.963808 77.248392 
L 224.517474 79.161793 
L 225.07114 82.336043 
L 225.624831 86.836252 
L 226.732163 99.13398 
L 227.839521 115.231765 
L 232.82259 195.915888 
L 233.929948 209.810348 
L 235.03728 221.293242 
L 236.144637 230.747751 
L 237.251994 238.170357 
L 238.359326 244.117713 
L 239.466683 248.787185 
L 240.574041 252.400176 
L 241.681373 255.288314 
L 242.78873 257.565797 
L 243.896087 259.454186 
L 245.003419 261.009497 
L 246.664442 262.868884 
L 248.325466 264.346401 
L 250.54018 265.860463 
L 252.754869 267.002266 
L 254.969559 267.868267 
L 257.184273 268.523169 
L 259.398962 269.023378 
L 261.613652 269.451065 
L 266.596721 270.10768 
L 271.026125 270.58044 
L 289.851047 271.946515 
L 293.173094 272.063315 
L 299.817187 272.307531 
L 321.410489 272.848161 
L 326.393559 272.94673 
L 335.252366 273.045408 
L 340.235436 273.132007 
L 345.772197 273.214467 
L 373.455901 273.484741 
L 396.156535 273.613054 
L 398.924941 273.620835 
L 419.964552 273.723038 
L 422.179267 273.716432 
L 423.84029 273.733038 
L 425.501313 273.731293 
L 439.896831 273.79795 
L 439.896831 273.79795 
" clip-path="url(#p64dab6c0c4)" style="fill: none; stroke: #4c1d4b; stroke-linecap: round"/>
   </g>
   <g id="line2d_34"/>
   <g id="line2d_35"/>
   <g id="line2d_36"/>
   <g id="line2d_37"/>
   <g id="patch_3">
    <path d="M 41.25125 277.248797 
L 41.25125 11.136797 
" style="fill: none; stroke: #262626; stroke-width: 1.25; stroke-linejoin: miter; stroke-linecap: square"/>
   </g>
   <g id="patch_4">
    <path d="M 41.25125 277.248797 
L 398.37125 277.248797 
" style="fill: none; stroke: #262626; stroke-width: 1.25; stroke-linejoin: miter; stroke-linecap: square"/>
   </g>
   <g id="legend_1">
    <g id="line2d_38">
     <path d="M 296.63525 98.565084 
L 302.63525 98.565084 
L 308.63525 98.565084 
" style="fill: none; stroke: #f69c73; stroke-width: 1.5; stroke-linecap: round"/>
    </g>
    <g id="text_18">
     <!-- 0 hrs -->
     <g style="fill: #262626" transform="translate(313.43525 100.665084) scale(0.06 -0.06)">
      <use xlink:href="#ArialMT-30"/>
      <use xlink:href="#ArialMT-20" x="55.615234"/>
      <use xlink:href="#ArialMT-68" x="83.398438"/>
      <use xlink:href="#ArialMT-72" x="139.013672"/>
      <use xlink:href="#ArialMT-73" x="172.314453"/>
     </g>
    </g>
    <g id="line2d_39">
     <path d="M 296.63525 107.052272 
L 302.63525 107.052272 
L 308.63525 107.052272 
" style="fill: none; stroke: #e83f3f; stroke-width: 1.5; stroke-linecap: round"/>
    </g>
    <g id="text_19">
     <!-- 18 hrs -->
     <g style="fill: #262626" transform="translate(313.43525 109.152272) scale(0.06 -0.06)">
      <use xlink:href="#ArialMT-31"/>
      <use xlink:href="#ArialMT-38" x="55.615234"/>
      <use xlink:href="#ArialMT-20" x="111.230469"/>
      <use xlink:href="#ArialMT-68" x="139.013672"/>
      <use xlink:href="#ArialMT-72" x="194.628906"/>
      <use xlink:href="#ArialMT-73" x="227.929688"/>
     </g>
    </g>
    <g id="line2d_40">
     <path d="M 296.63525 115.539459 
L 302.63525 115.539459 
L 308.63525 115.539459 
" style="fill: none; stroke: #a11a5b; stroke-width: 1.5; stroke-linecap: round"/>
    </g>
    <g id="text_20">
     <!-- 57 hrs -->
     <g style="fill: #262626" transform="translate(313.43525 117.639459) scale(0.06 -0.06)">
      <defs>
       <path id="ArialMT-37" d="M 303 3981 
L 303 4522 
L 3269 4522 
L 3269 4084 
Q 2831 3619 2401 2847 
Q 1972 2075 1738 1259 
Q 1569 684 1522 0 
L 944 0 
Q 953 541 1156 1306 
Q 1359 2072 1739 2783 
Q 2119 3494 2547 3981 
L 303 3981 
z
" transform="scale(0.015625)"/>
      </defs>
      <use xlink:href="#ArialMT-35"/>
      <use xlink:href="#ArialMT-37" x="55.615234"/>
      <use xlink:href="#ArialMT-20" x="111.230469"/>
      <use xlink:href="#ArialMT-68" x="139.013672"/>
      <use xlink:href="#ArialMT-72" x="194.628906"/>
      <use xlink:href="#ArialMT-73" x="227.929688"/>
     </g>
    </g>
    <g id="line2d_41">
     <path d="M 296.63525 124.099772 
L 302.63525 124.099772 
L 308.63525 124.099772 
" style="fill: none; stroke: #4c1d4b; stroke-width: 1.5; stroke-linecap: round"/>
    </g>
    <g id="text_21">
     <!-- 38 days organic fraction after adding excess enzyme -->
     <g style="fill: #262626" transform="translate(313.43525 126.199772) scale(0.06 -0.06)">
      <defs>
       <path id="ArialMT-64" d="M 2575 0 
L 2575 419 
Q 2259 -75 1647 -75 
Q 1250 -75 917 144 
Q 584 363 401 755 
Q 219 1147 219 1656 
Q 219 2153 384 2558 
Q 550 2963 881 3178 
Q 1213 3394 1622 3394 
Q 1922 3394 2156 3267 
Q 2391 3141 2538 2938 
L 2538 4581 
L 3097 4581 
L 3097 0 
L 2575 0 
z
M 797 1656 
Q 797 1019 1065 703 
Q 1334 388 1700 388 
Q 2069 388 2326 689 
Q 2584 991 2584 1609 
Q 2584 2291 2321 2609 
Q 2059 2928 1675 2928 
Q 1300 2928 1048 2622 
Q 797 2316 797 1656 
z
" transform="scale(0.015625)"/>
       <path id="ArialMT-79" d="M 397 -1278 
L 334 -750 
Q 519 -800 656 -800 
Q 844 -800 956 -737 
Q 1069 -675 1141 -563 
Q 1194 -478 1313 -144 
Q 1328 -97 1363 -6 
L 103 3319 
L 709 3319 
L 1400 1397 
Q 1534 1031 1641 628 
Q 1738 1016 1872 1384 
L 2581 3319 
L 3144 3319 
L 1881 -56 
Q 1678 -603 1566 -809 
Q 1416 -1088 1222 -1217 
Q 1028 -1347 759 -1347 
Q 597 -1347 397 -1278 
z
" transform="scale(0.015625)"/>
       <path id="ArialMT-69" d="M 425 3934 
L 425 4581 
L 988 4581 
L 988 3934 
L 425 3934 
z
M 425 0 
L 425 3319 
L 988 3319 
L 988 0 
L 425 0 
z
" transform="scale(0.015625)"/>
       <path id="ArialMT-66" d="M 556 0 
L 556 2881 
L 59 2881 
L 59 3319 
L 556 3319 
L 556 3672 
Q 556 4006 616 4169 
Q 697 4388 901 4523 
Q 1106 4659 1475 4659 
Q 1713 4659 2000 4603 
L 1916 4113 
Q 1741 4144 1584 4144 
Q 1328 4144 1222 4034 
Q 1116 3925 1116 3625 
L 1116 3319 
L 1763 3319 
L 1763 2881 
L 1116 2881 
L 1116 0 
L 556 0 
z
" transform="scale(0.015625)"/>
       <path id="ArialMT-78" d="M 47 0 
L 1259 1725 
L 138 3319 
L 841 3319 
L 1350 2541 
Q 1494 2319 1581 2169 
Q 1719 2375 1834 2534 
L 2394 3319 
L 3066 3319 
L 1919 1756 
L 3153 0 
L 2463 0 
L 1781 1031 
L 1600 1309 
L 728 0 
L 47 0 
z
" transform="scale(0.015625)"/>
       <path id="ArialMT-7a" d="M 125 0 
L 125 456 
L 2238 2881 
Q 1878 2863 1603 2863 
L 250 2863 
L 250 3319 
L 2963 3319 
L 2963 2947 
L 1166 841 
L 819 456 
Q 1197 484 1528 484 
L 3063 484 
L 3063 0 
L 125 0 
z
" transform="scale(0.015625)"/>
      </defs>
      <use xlink:href="#ArialMT-33"/>
      <use xlink:href="#ArialMT-38" x="55.615234"/>
      <use xlink:href="#ArialMT-20" x="111.230469"/>
      <use xlink:href="#ArialMT-64" x="139.013672"/>
      <use xlink:href="#ArialMT-61" x="194.628906"/>
      <use xlink:href="#ArialMT-79" x="250.244141"/>
      <use xlink:href="#ArialMT-73" x="300.244141"/>
      <use xlink:href="#ArialMT-20" x="350.244141"/>
      <use xlink:href="#ArialMT-6f" x="378.027344"/>
      <use xlink:href="#ArialMT-72" x="433.642578"/>
      <use xlink:href="#ArialMT-67" x="466.943359"/>
      <use xlink:href="#ArialMT-61" x="522.558594"/>
      <use xlink:href="#ArialMT-6e" x="578.173828"/>
      <use xlink:href="#ArialMT-69" x="633.789062"/>
      <use xlink:href="#ArialMT-63" x="656.005859"/>
      <use xlink:href="#ArialMT-20" x="706.005859"/>
      <use xlink:href="#ArialMT-66" x="733.789062"/>
      <use xlink:href="#ArialMT-72" x="761.572266"/>
      <use xlink:href="#ArialMT-61" x="794.873047"/>
      <use xlink:href="#ArialMT-63" x="850.488281"/>
      <use xlink:href="#ArialMT-74" x="900.488281"/>
      <use xlink:href="#ArialMT-69" x="928.271484"/>
      <use xlink:href="#ArialMT-6f" x="950.488281"/>
      <use xlink:href="#ArialMT-6e" x="1006.103516"/>
      <use xlink:href="#ArialMT-20" x="1061.71875"/>
      <use xlink:href="#ArialMT-61" x="1089.501953"/>
      <use xlink:href="#ArialMT-66" x="1145.117188"/>
      <use xlink:href="#ArialMT-74" x="1172.900391"/>
      <use xlink:href="#ArialMT-65" x="1200.683594"/>
      <use xlink:href="#ArialMT-72" x="1256.298828"/>
      <use xlink:href="#ArialMT-20" x="1289.599609"/>
      <use xlink:href="#ArialMT-61" x="1317.382812"/>
      <use xlink:href="#ArialMT-64" x="1372.998047"/>
      <use xlink:href="#ArialMT-64" x="1428.613281"/>
      <use xlink:href="#ArialMT-69" x="1484.228516"/>
      <use xlink:href="#ArialMT-6e" x="1506.445312"/>
      <use xlink:href="#ArialMT-67" x="1562.060547"/>
      <use xlink:href="#ArialMT-20" x="1617.675781"/>
      <use xlink:href="#ArialMT-65" x="1645.458984"/>
      <use xlink:href="#ArialMT-78" x="1701.074219"/>
      <use xlink:href="#ArialMT-63" x="1751.074219"/>
      <use xlink:href="#ArialMT-65" x="1801.074219"/>
      <use xlink:href="#ArialMT-73" x="1856.689453"/>
      <use xlink:href="#ArialMT-73" x="1906.689453"/>
      <use xlink:href="#ArialMT-20" x="1956.689453"/>
      <use xlink:href="#ArialMT-65" x="1984.472656"/>
      <use xlink:href="#ArialMT-6e" x="2040.087891"/>
      <use xlink:href="#ArialMT-7a" x="2095.703125"/>
      <use xlink:href="#ArialMT-79" x="2145.703125"/>
      <use xlink:href="#ArialMT-6d" x="2195.703125"/>
      <use xlink:href="#ArialMT-65" x="2279.003906"/>
     </g>
    </g>
   </g>
  </g>
 </g>
 <defs>
  <clipPath id="p64dab6c0c4">
   <rect x="41.25125" y="11.136797" width="357.12" height="266.112"/>
  </clipPath>
 </defs>
</svg>
