<?xml version="1.0" encoding="utf-8" standalone="no"?>
<!DOCTYPE svg PUBLIC "-//W3C//DTD SVG 1.1//EN"
  "http://www.w3.org/Graphics/SVG/1.1/DTD/svg11.dtd">
<svg xmlns:xlink="http://www.w3.org/1999/xlink" width="431.443062pt" height="309.333094pt" viewBox="0 0 431.443062 309.333094" xmlns="http://www.w3.org/2000/svg" version="1.1">
 <metadata>
  <rdf:RDF xmlns:dc="http://purl.org/dc/elements/1.1/" xmlns:cc="http://creativecommons.org/ns#" xmlns:rdf="http://www.w3.org/1999/02/22-rdf-syntax-ns#">
   <cc:Work>
    <dc:type rdf:resource="http://purl.org/dc/dcmitype/StillImage"/>
    <dc:date>2024-09-04T11:27:16.175374</dc:date>
    <dc:format>image/svg+xml</dc:format>
    <dc:creator>
     <cc:Agent>
      <dc:title>Matplotlib v3.7.1, https://matplotlib.org/</dc:title>
     </cc:Agent>
    </dc:creator>
   </cc:Work>
  </rdf:RDF>
 </metadata>
 <defs>
  <style type="text/css">*{stroke-linejoin: round; stroke-linecap: butt}</style>
 </defs>
 <g id="figure_1">
  <g id="patch_1">
   <path d="M 0 309.333094 
L 431.443062 309.333094 
L 431.443062 0 
L 0 0 
z
" style="fill: #ffffff"/>
  </g>
  <g id="axes_1">
   <g id="patch_2">
    <path d="M 41.25125 273.312 
L 398.37125 273.312 
L 398.37125 7.2 
L 41.25125 7.2 
z
" style="fill: #ffffff"/>
   </g>
   <g id="matplotlib.axis_1">
    <g id="xtick_1">
     <g id="line2d_1">
      <defs>
       <path id="m0f5b433db9" d="M 0 0 
L 0 -6 
" style="stroke: #262626; stroke-width: 1.25"/>
      </defs>
      <g>
       <use xlink:href="#m0f5b433db9" x="41.25125" y="273.312" style="fill: #262626; stroke: #262626; stroke-width: 1.25"/>
      </g>
     </g>
     <g id="text_1">
      <!-- 250 -->
      <g style="fill: #262626" transform="translate(32.075703 284.685594) scale(0.11 -0.11)">
       <defs>
        <path id="ArialMT-32" d="M 3222 541 
L 3222 0 
L 194 0 
Q 188 203 259 391 
Q 375 700 629 1000 
Q 884 1300 1366 1694 
Q 2113 2306 2375 2664 
Q 2638 3022 2638 3341 
Q 2638 3675 2398 3904 
Q 2159 4134 1775 4134 
Q 1369 4134 1125 3890 
Q 881 3647 878 3216 
L 300 3275 
Q 359 3922 746 4261 
Q 1134 4600 1788 4600 
Q 2447 4600 2831 4234 
Q 3216 3869 3216 3328 
Q 3216 3053 3103 2787 
Q 2991 2522 2730 2228 
Q 2469 1934 1863 1422 
Q 1356 997 1212 845 
Q 1069 694 975 541 
L 3222 541 
z
" transform="scale(0.015625)"/>
        <path id="ArialMT-35" d="M 266 1200 
L 856 1250 
Q 922 819 1161 601 
Q 1400 384 1738 384 
Q 2144 384 2425 690 
Q 2706 997 2706 1503 
Q 2706 1984 2436 2262 
Q 2166 2541 1728 2541 
Q 1456 2541 1237 2417 
Q 1019 2294 894 2097 
L 366 2166 
L 809 4519 
L 3088 4519 
L 3088 3981 
L 1259 3981 
L 1013 2750 
Q 1425 3038 1878 3038 
Q 2478 3038 2890 2622 
Q 3303 2206 3303 1553 
Q 3303 931 2941 478 
Q 2500 -78 1738 -78 
Q 1113 -78 717 272 
Q 322 622 266 1200 
z
" transform="scale(0.015625)"/>
        <path id="ArialMT-30" d="M 266 2259 
Q 266 3072 433 3567 
Q 600 4063 929 4331 
Q 1259 4600 1759 4600 
Q 2128 4600 2406 4451 
Q 2684 4303 2865 4023 
Q 3047 3744 3150 3342 
Q 3253 2941 3253 2259 
Q 3253 1453 3087 958 
Q 2922 463 2592 192 
Q 2263 -78 1759 -78 
Q 1097 -78 719 397 
Q 266 969 266 2259 
z
M 844 2259 
Q 844 1131 1108 757 
Q 1372 384 1759 384 
Q 2147 384 2411 759 
Q 2675 1134 2675 2259 
Q 2675 3391 2411 3762 
Q 2147 4134 1753 4134 
Q 1366 4134 1134 3806 
Q 844 3388 844 2259 
z
" transform="scale(0.015625)"/>
       </defs>
       <use xlink:href="#ArialMT-32"/>
       <use xlink:href="#ArialMT-35" x="55.615234"/>
       <use xlink:href="#ArialMT-30" x="111.230469"/>
      </g>
     </g>
    </g>
    <g id="xtick_2">
     <g id="line2d_2">
      <g>
       <use xlink:href="#m0f5b433db9" x="80.93125" y="273.312" style="fill: #262626; stroke: #262626; stroke-width: 1.25"/>
      </g>
     </g>
     <g id="text_2">
      <!-- 300 -->
      <g style="fill: #262626" transform="translate(71.755703 284.685594) scale(0.11 -0.11)">
       <defs>
        <path id="ArialMT-33" d="M 269 1209 
L 831 1284 
Q 928 806 1161 595 
Q 1394 384 1728 384 
Q 2125 384 2398 659 
Q 2672 934 2672 1341 
Q 2672 1728 2419 1979 
Q 2166 2231 1775 2231 
Q 1616 2231 1378 2169 
L 1441 2663 
Q 1497 2656 1531 2656 
Q 1891 2656 2178 2843 
Q 2466 3031 2466 3422 
Q 2466 3731 2256 3934 
Q 2047 4138 1716 4138 
Q 1388 4138 1169 3931 
Q 950 3725 888 3313 
L 325 3413 
Q 428 3978 793 4289 
Q 1159 4600 1703 4600 
Q 2078 4600 2393 4439 
Q 2709 4278 2876 4000 
Q 3044 3722 3044 3409 
Q 3044 3113 2884 2869 
Q 2725 2625 2413 2481 
Q 2819 2388 3044 2092 
Q 3269 1797 3269 1353 
Q 3269 753 2831 336 
Q 2394 -81 1725 -81 
Q 1122 -81 723 278 
Q 325 638 269 1209 
z
" transform="scale(0.015625)"/>
       </defs>
       <use xlink:href="#ArialMT-33"/>
       <use xlink:href="#ArialMT-30" x="55.615234"/>
       <use xlink:href="#ArialMT-30" x="111.230469"/>
      </g>
     </g>
    </g>
    <g id="xtick_3">
     <g id="line2d_3">
      <g>
       <use xlink:href="#m0f5b433db9" x="120.61125" y="273.312" style="fill: #262626; stroke: #262626; stroke-width: 1.25"/>
      </g>
     </g>
     <g id="text_3">
      <!-- 350 -->
      <g style="fill: #262626" transform="translate(111.435703 284.685594) scale(0.11 -0.11)">
       <use xlink:href="#ArialMT-33"/>
       <use xlink:href="#ArialMT-35" x="55.615234"/>
       <use xlink:href="#ArialMT-30" x="111.230469"/>
      </g>
     </g>
    </g>
    <g id="xtick_4">
     <g id="line2d_4">
      <g>
       <use xlink:href="#m0f5b433db9" x="160.29125" y="273.312" style="fill: #262626; stroke: #262626; stroke-width: 1.25"/>
      </g>
     </g>
     <g id="text_4">
      <!-- 400 -->
      <g style="fill: #262626" transform="translate(151.115703 284.685594) scale(0.11 -0.11)">
       <defs>
        <path id="ArialMT-34" d="M 2069 0 
L 2069 1097 
L 81 1097 
L 81 1613 
L 2172 4581 
L 2631 4581 
L 2631 1613 
L 3250 1613 
L 3250 1097 
L 2631 1097 
L 2631 0 
L 2069 0 
z
M 2069 1613 
L 2069 3678 
L 634 1613 
L 2069 1613 
z
" transform="scale(0.015625)"/>
       </defs>
       <use xlink:href="#ArialMT-34"/>
       <use xlink:href="#ArialMT-30" x="55.615234"/>
       <use xlink:href="#ArialMT-30" x="111.230469"/>
      </g>
     </g>
    </g>
    <g id="xtick_5">
     <g id="line2d_5">
      <g>
       <use xlink:href="#m0f5b433db9" x="199.97125" y="273.312" style="fill: #262626; stroke: #262626; stroke-width: 1.25"/>
      </g>
     </g>
     <g id="text_5">
      <!-- 450 -->
      <g style="fill: #262626" transform="translate(190.795703 284.685594) scale(0.11 -0.11)">
       <use xlink:href="#ArialMT-34"/>
       <use xlink:href="#ArialMT-35" x="55.615234"/>
       <use xlink:href="#ArialMT-30" x="111.230469"/>
      </g>
     </g>
    </g>
    <g id="xtick_6">
     <g id="line2d_6">
      <g>
       <use xlink:href="#m0f5b433db9" x="239.65125" y="273.312" style="fill: #262626; stroke: #262626; stroke-width: 1.25"/>
      </g>
     </g>
     <g id="text_6">
      <!-- 500 -->
      <g style="fill: #262626" transform="translate(230.475703 284.685594) scale(0.11 -0.11)">
       <use xlink:href="#ArialMT-35"/>
       <use xlink:href="#ArialMT-30" x="55.615234"/>
       <use xlink:href="#ArialMT-30" x="111.230469"/>
      </g>
     </g>
    </g>
    <g id="xtick_7">
     <g id="line2d_7">
      <g>
       <use xlink:href="#m0f5b433db9" x="279.33125" y="273.312" style="fill: #262626; stroke: #262626; stroke-width: 1.25"/>
      </g>
     </g>
     <g id="text_7">
      <!-- 550 -->
      <g style="fill: #262626" transform="translate(270.155703 284.685594) scale(0.11 -0.11)">
       <use xlink:href="#ArialMT-35"/>
       <use xlink:href="#ArialMT-35" x="55.615234"/>
       <use xlink:href="#ArialMT-30" x="111.230469"/>
      </g>
     </g>
    </g>
    <g id="xtick_8">
     <g id="line2d_8">
      <g>
       <use xlink:href="#m0f5b433db9" x="319.01125" y="273.312" style="fill: #262626; stroke: #262626; stroke-width: 1.25"/>
      </g>
     </g>
     <g id="text_8">
      <!-- 600 -->
      <g style="fill: #262626" transform="translate(309.835703 284.685594) scale(0.11 -0.11)">
       <defs>
        <path id="ArialMT-36" d="M 3184 3459 
L 2625 3416 
Q 2550 3747 2413 3897 
Q 2184 4138 1850 4138 
Q 1581 4138 1378 3988 
Q 1113 3794 959 3422 
Q 806 3050 800 2363 
Q 1003 2672 1297 2822 
Q 1591 2972 1913 2972 
Q 2475 2972 2870 2558 
Q 3266 2144 3266 1488 
Q 3266 1056 3080 686 
Q 2894 316 2569 119 
Q 2244 -78 1831 -78 
Q 1128 -78 684 439 
Q 241 956 241 2144 
Q 241 3472 731 4075 
Q 1159 4600 1884 4600 
Q 2425 4600 2770 4297 
Q 3116 3994 3184 3459 
z
M 888 1484 
Q 888 1194 1011 928 
Q 1134 663 1356 523 
Q 1578 384 1822 384 
Q 2178 384 2434 671 
Q 2691 959 2691 1453 
Q 2691 1928 2437 2201 
Q 2184 2475 1800 2475 
Q 1419 2475 1153 2201 
Q 888 1928 888 1484 
z
" transform="scale(0.015625)"/>
       </defs>
       <use xlink:href="#ArialMT-36"/>
       <use xlink:href="#ArialMT-30" x="55.615234"/>
       <use xlink:href="#ArialMT-30" x="111.230469"/>
      </g>
     </g>
    </g>
    <g id="xtick_9">
     <g id="line2d_9">
      <g>
       <use xlink:href="#m0f5b433db9" x="358.69125" y="273.312" style="fill: #262626; stroke: #262626; stroke-width: 1.25"/>
      </g>
     </g>
     <g id="text_9">
      <!-- 650 -->
      <g style="fill: #262626" transform="translate(349.515703 284.685594) scale(0.11 -0.11)">
       <use xlink:href="#ArialMT-36"/>
       <use xlink:href="#ArialMT-35" x="55.615234"/>
       <use xlink:href="#ArialMT-30" x="111.230469"/>
      </g>
     </g>
    </g>
    <g id="xtick_10">
     <g id="line2d_10">
      <g>
       <use xlink:href="#m0f5b433db9" x="398.37125" y="273.312" style="fill: #262626; stroke: #262626; stroke-width: 1.25"/>
      </g>
     </g>
     <g id="text_10">
      <!-- 700 -->
      <g style="fill: #262626" transform="translate(389.195703 284.685594) scale(0.11 -0.11)">
       <defs>
        <path id="ArialMT-37" d="M 303 3981 
L 303 4522 
L 3269 4522 
L 3269 4084 
Q 2831 3619 2401 2847 
Q 1972 2075 1738 1259 
Q 1569 684 1522 0 
L 944 0 
Q 953 541 1156 1306 
Q 1359 2072 1739 2783 
Q 2119 3494 2547 3981 
L 303 3981 
z
" transform="scale(0.015625)"/>
       </defs>
       <use xlink:href="#ArialMT-37"/>
       <use xlink:href="#ArialMT-30" x="55.615234"/>
       <use xlink:href="#ArialMT-30" x="111.230469"/>
      </g>
     </g>
    </g>
    <g id="xtick_11">
     <g id="line2d_11">
      <defs>
       <path id="m63a72623e0" d="M 0 0 
L 0 -4 
" style="stroke: #262626"/>
      </defs>
      <g>
       <use xlink:href="#m63a72623e0" x="61.09125" y="273.312" style="fill: #262626; stroke: #262626"/>
      </g>
     </g>
    </g>
    <g id="xtick_12">
     <g id="line2d_12">
      <g>
       <use xlink:href="#m63a72623e0" x="100.77125" y="273.312" style="fill: #262626; stroke: #262626"/>
      </g>
     </g>
    </g>
    <g id="xtick_13">
     <g id="line2d_13">
      <g>
       <use xlink:href="#m63a72623e0" x="140.45125" y="273.312" style="fill: #262626; stroke: #262626"/>
      </g>
     </g>
    </g>
    <g id="xtick_14">
     <g id="line2d_14">
      <g>
       <use xlink:href="#m63a72623e0" x="180.13125" y="273.312" style="fill: #262626; stroke: #262626"/>
      </g>
     </g>
    </g>
    <g id="xtick_15">
     <g id="line2d_15">
      <g>
       <use xlink:href="#m63a72623e0" x="219.81125" y="273.312" style="fill: #262626; stroke: #262626"/>
      </g>
     </g>
    </g>
    <g id="xtick_16">
     <g id="line2d_16">
      <g>
       <use xlink:href="#m63a72623e0" x="259.49125" y="273.312" style="fill: #262626; stroke: #262626"/>
      </g>
     </g>
    </g>
    <g id="xtick_17">
     <g id="line2d_17">
      <g>
       <use xlink:href="#m63a72623e0" x="299.17125" y="273.312" style="fill: #262626; stroke: #262626"/>
      </g>
     </g>
    </g>
    <g id="xtick_18">
     <g id="line2d_18">
      <g>
       <use xlink:href="#m63a72623e0" x="338.85125" y="273.312" style="fill: #262626; stroke: #262626"/>
      </g>
     </g>
    </g>
    <g id="xtick_19">
     <g id="line2d_19">
      <g>
       <use xlink:href="#m63a72623e0" x="378.53125" y="273.312" style="fill: #262626; stroke: #262626"/>
      </g>
     </g>
    </g>
    <g id="text_11">
     <!-- Wavelength (nm) -->
     <g style="fill: #262626" transform="translate(174.356562 299.607469) scale(0.12 -0.12)">
      <defs>
       <path id="ArialMT-57" d="M 1294 0 
L 78 4581 
L 700 4581 
L 1397 1578 
Q 1509 1106 1591 641 
Q 1766 1375 1797 1488 
L 2669 4581 
L 3400 4581 
L 4056 2263 
Q 4303 1400 4413 641 
Q 4500 1075 4641 1638 
L 5359 4581 
L 5969 4581 
L 4713 0 
L 4128 0 
L 3163 3491 
Q 3041 3928 3019 4028 
Q 2947 3713 2884 3491 
L 1913 0 
L 1294 0 
z
" transform="scale(0.015625)"/>
       <path id="ArialMT-61" d="M 2588 409 
Q 2275 144 1986 34 
Q 1697 -75 1366 -75 
Q 819 -75 525 192 
Q 231 459 231 875 
Q 231 1119 342 1320 
Q 453 1522 633 1644 
Q 813 1766 1038 1828 
Q 1203 1872 1538 1913 
Q 2219 1994 2541 2106 
Q 2544 2222 2544 2253 
Q 2544 2597 2384 2738 
Q 2169 2928 1744 2928 
Q 1347 2928 1158 2789 
Q 969 2650 878 2297 
L 328 2372 
Q 403 2725 575 2942 
Q 747 3159 1072 3276 
Q 1397 3394 1825 3394 
Q 2250 3394 2515 3294 
Q 2781 3194 2906 3042 
Q 3031 2891 3081 2659 
Q 3109 2516 3109 2141 
L 3109 1391 
Q 3109 606 3145 398 
Q 3181 191 3288 0 
L 2700 0 
Q 2613 175 2588 409 
z
M 2541 1666 
Q 2234 1541 1622 1453 
Q 1275 1403 1131 1340 
Q 988 1278 909 1158 
Q 831 1038 831 891 
Q 831 666 1001 516 
Q 1172 366 1500 366 
Q 1825 366 2078 508 
Q 2331 650 2450 897 
Q 2541 1088 2541 1459 
L 2541 1666 
z
" transform="scale(0.015625)"/>
       <path id="ArialMT-76" d="M 1344 0 
L 81 3319 
L 675 3319 
L 1388 1331 
Q 1503 1009 1600 663 
Q 1675 925 1809 1294 
L 2547 3319 
L 3125 3319 
L 1869 0 
L 1344 0 
z
" transform="scale(0.015625)"/>
       <path id="ArialMT-65" d="M 2694 1069 
L 3275 997 
Q 3138 488 2766 206 
Q 2394 -75 1816 -75 
Q 1088 -75 661 373 
Q 234 822 234 1631 
Q 234 2469 665 2931 
Q 1097 3394 1784 3394 
Q 2450 3394 2872 2941 
Q 3294 2488 3294 1666 
Q 3294 1616 3291 1516 
L 816 1516 
Q 847 969 1125 678 
Q 1403 388 1819 388 
Q 2128 388 2347 550 
Q 2566 713 2694 1069 
z
M 847 1978 
L 2700 1978 
Q 2663 2397 2488 2606 
Q 2219 2931 1791 2931 
Q 1403 2931 1139 2672 
Q 875 2413 847 1978 
z
" transform="scale(0.015625)"/>
       <path id="ArialMT-6c" d="M 409 0 
L 409 4581 
L 972 4581 
L 972 0 
L 409 0 
z
" transform="scale(0.015625)"/>
       <path id="ArialMT-6e" d="M 422 0 
L 422 3319 
L 928 3319 
L 928 2847 
Q 1294 3394 1984 3394 
Q 2284 3394 2536 3286 
Q 2788 3178 2913 3003 
Q 3038 2828 3088 2588 
Q 3119 2431 3119 2041 
L 3119 0 
L 2556 0 
L 2556 2019 
Q 2556 2363 2490 2533 
Q 2425 2703 2258 2804 
Q 2091 2906 1866 2906 
Q 1506 2906 1245 2678 
Q 984 2450 984 1813 
L 984 0 
L 422 0 
z
" transform="scale(0.015625)"/>
       <path id="ArialMT-67" d="M 319 -275 
L 866 -356 
Q 900 -609 1056 -725 
Q 1266 -881 1628 -881 
Q 2019 -881 2231 -725 
Q 2444 -569 2519 -288 
Q 2563 -116 2559 434 
Q 2191 0 1641 0 
Q 956 0 581 494 
Q 206 988 206 1678 
Q 206 2153 378 2554 
Q 550 2956 876 3175 
Q 1203 3394 1644 3394 
Q 2231 3394 2613 2919 
L 2613 3319 
L 3131 3319 
L 3131 450 
Q 3131 -325 2973 -648 
Q 2816 -972 2473 -1159 
Q 2131 -1347 1631 -1347 
Q 1038 -1347 672 -1080 
Q 306 -813 319 -275 
z
M 784 1719 
Q 784 1066 1043 766 
Q 1303 466 1694 466 
Q 2081 466 2343 764 
Q 2606 1063 2606 1700 
Q 2606 2309 2336 2618 
Q 2066 2928 1684 2928 
Q 1309 2928 1046 2623 
Q 784 2319 784 1719 
z
" transform="scale(0.015625)"/>
       <path id="ArialMT-74" d="M 1650 503 
L 1731 6 
Q 1494 -44 1306 -44 
Q 1000 -44 831 53 
Q 663 150 594 308 
Q 525 466 525 972 
L 525 2881 
L 113 2881 
L 113 3319 
L 525 3319 
L 525 4141 
L 1084 4478 
L 1084 3319 
L 1650 3319 
L 1650 2881 
L 1084 2881 
L 1084 941 
Q 1084 700 1114 631 
Q 1144 563 1211 522 
Q 1278 481 1403 481 
Q 1497 481 1650 503 
z
" transform="scale(0.015625)"/>
       <path id="ArialMT-68" d="M 422 0 
L 422 4581 
L 984 4581 
L 984 2938 
Q 1378 3394 1978 3394 
Q 2347 3394 2619 3248 
Q 2891 3103 3008 2847 
Q 3125 2591 3125 2103 
L 3125 0 
L 2563 0 
L 2563 2103 
Q 2563 2525 2380 2717 
Q 2197 2909 1863 2909 
Q 1613 2909 1392 2779 
Q 1172 2650 1078 2428 
Q 984 2206 984 1816 
L 984 0 
L 422 0 
z
" transform="scale(0.015625)"/>
       <path id="ArialMT-20" transform="scale(0.015625)"/>
       <path id="ArialMT-28" d="M 1497 -1347 
Q 1031 -759 709 28 
Q 388 816 388 1659 
Q 388 2403 628 3084 
Q 909 3875 1497 4659 
L 1900 4659 
Q 1522 4009 1400 3731 
Q 1209 3300 1100 2831 
Q 966 2247 966 1656 
Q 966 153 1900 -1347 
L 1497 -1347 
z
" transform="scale(0.015625)"/>
       <path id="ArialMT-6d" d="M 422 0 
L 422 3319 
L 925 3319 
L 925 2853 
Q 1081 3097 1340 3245 
Q 1600 3394 1931 3394 
Q 2300 3394 2536 3241 
Q 2772 3088 2869 2813 
Q 3263 3394 3894 3394 
Q 4388 3394 4653 3120 
Q 4919 2847 4919 2278 
L 4919 0 
L 4359 0 
L 4359 2091 
Q 4359 2428 4304 2576 
Q 4250 2725 4106 2815 
Q 3963 2906 3769 2906 
Q 3419 2906 3187 2673 
Q 2956 2441 2956 1928 
L 2956 0 
L 2394 0 
L 2394 2156 
Q 2394 2531 2256 2718 
Q 2119 2906 1806 2906 
Q 1569 2906 1367 2781 
Q 1166 2656 1075 2415 
Q 984 2175 984 1722 
L 984 0 
L 422 0 
z
" transform="scale(0.015625)"/>
       <path id="ArialMT-29" d="M 791 -1347 
L 388 -1347 
Q 1322 153 1322 1656 
Q 1322 2244 1188 2822 
Q 1081 3291 891 3722 
Q 769 4003 388 4659 
L 791 4659 
Q 1378 3875 1659 3084 
Q 1900 2403 1900 1659 
Q 1900 816 1576 28 
Q 1253 -759 791 -1347 
z
" transform="scale(0.015625)"/>
      </defs>
      <use xlink:href="#ArialMT-57"/>
      <use xlink:href="#ArialMT-61" x="90.634766"/>
      <use xlink:href="#ArialMT-76" x="146.25"/>
      <use xlink:href="#ArialMT-65" x="196.25"/>
      <use xlink:href="#ArialMT-6c" x="251.865234"/>
      <use xlink:href="#ArialMT-65" x="274.082031"/>
      <use xlink:href="#ArialMT-6e" x="329.697266"/>
      <use xlink:href="#ArialMT-67" x="385.3125"/>
      <use xlink:href="#ArialMT-74" x="440.927734"/>
      <use xlink:href="#ArialMT-68" x="468.710938"/>
      <use xlink:href="#ArialMT-20" x="524.326172"/>
      <use xlink:href="#ArialMT-28" x="552.109375"/>
      <use xlink:href="#ArialMT-6e" x="585.410156"/>
      <use xlink:href="#ArialMT-6d" x="641.025391"/>
      <use xlink:href="#ArialMT-29" x="724.326172"/>
     </g>
    </g>
   </g>
   <g id="matplotlib.axis_2">
    <g id="ytick_1">
     <g id="line2d_20">
      <defs>
       <path id="mef7349c560" d="M 0 0 
L 6 0 
" style="stroke: #262626; stroke-width: 1.25"/>
      </defs>
      <g>
       <use xlink:href="#mef7349c560" x="41.25125" y="273.312" style="fill: #262626; stroke: #262626; stroke-width: 1.25"/>
      </g>
     </g>
     <g id="text_12">
      <!-- 0.0 -->
      <g style="fill: #262626" transform="translate(22.46125 277.248797) scale(0.11 -0.11)">
       <defs>
        <path id="ArialMT-2e" d="M 581 0 
L 581 641 
L 1222 641 
L 1222 0 
L 581 0 
z
" transform="scale(0.015625)"/>
       </defs>
       <use xlink:href="#ArialMT-30"/>
       <use xlink:href="#ArialMT-2e" x="55.615234"/>
       <use xlink:href="#ArialMT-30" x="83.398438"/>
      </g>
     </g>
    </g>
    <g id="ytick_2">
     <g id="line2d_21">
      <g>
       <use xlink:href="#mef7349c560" x="41.25125" y="222.624" style="fill: #262626; stroke: #262626; stroke-width: 1.25"/>
      </g>
     </g>
     <g id="text_13">
      <!-- 0.2 -->
      <g style="fill: #262626" transform="translate(22.46125 226.560797) scale(0.11 -0.11)">
       <use xlink:href="#ArialMT-30"/>
       <use xlink:href="#ArialMT-2e" x="55.615234"/>
       <use xlink:href="#ArialMT-32" x="83.398438"/>
      </g>
     </g>
    </g>
    <g id="ytick_3">
     <g id="line2d_22">
      <g>
       <use xlink:href="#mef7349c560" x="41.25125" y="171.936" style="fill: #262626; stroke: #262626; stroke-width: 1.25"/>
      </g>
     </g>
     <g id="text_14">
      <!-- 0.4 -->
      <g style="fill: #262626" transform="translate(22.46125 175.872797) scale(0.11 -0.11)">
       <use xlink:href="#ArialMT-30"/>
       <use xlink:href="#ArialMT-2e" x="55.615234"/>
       <use xlink:href="#ArialMT-34" x="83.398438"/>
      </g>
     </g>
    </g>
    <g id="ytick_4">
     <g id="line2d_23">
      <g>
       <use xlink:href="#mef7349c560" x="41.25125" y="121.248" style="fill: #262626; stroke: #262626; stroke-width: 1.25"/>
      </g>
     </g>
     <g id="text_15">
      <!-- 0.6 -->
      <g style="fill: #262626" transform="translate(22.46125 125.184797) scale(0.11 -0.11)">
       <use xlink:href="#ArialMT-30"/>
       <use xlink:href="#ArialMT-2e" x="55.615234"/>
       <use xlink:href="#ArialMT-36" x="83.398438"/>
      </g>
     </g>
    </g>
    <g id="ytick_5">
     <g id="line2d_24">
      <g>
       <use xlink:href="#mef7349c560" x="41.25125" y="70.56" style="fill: #262626; stroke: #262626; stroke-width: 1.25"/>
      </g>
     </g>
     <g id="text_16">
      <!-- 0.8 -->
      <g style="fill: #262626" transform="translate(22.46125 74.496797) scale(0.11 -0.11)">
       <defs>
        <path id="ArialMT-38" d="M 1131 2484 
Q 781 2613 612 2850 
Q 444 3088 444 3419 
Q 444 3919 803 4259 
Q 1163 4600 1759 4600 
Q 2359 4600 2725 4251 
Q 3091 3903 3091 3403 
Q 3091 3084 2923 2848 
Q 2756 2613 2416 2484 
Q 2838 2347 3058 2040 
Q 3278 1734 3278 1309 
Q 3278 722 2862 322 
Q 2447 -78 1769 -78 
Q 1091 -78 675 323 
Q 259 725 259 1325 
Q 259 1772 486 2073 
Q 713 2375 1131 2484 
z
M 1019 3438 
Q 1019 3113 1228 2906 
Q 1438 2700 1772 2700 
Q 2097 2700 2305 2904 
Q 2513 3109 2513 3406 
Q 2513 3716 2298 3927 
Q 2084 4138 1766 4138 
Q 1444 4138 1231 3931 
Q 1019 3725 1019 3438 
z
M 838 1322 
Q 838 1081 952 856 
Q 1066 631 1291 507 
Q 1516 384 1775 384 
Q 2178 384 2440 643 
Q 2703 903 2703 1303 
Q 2703 1709 2433 1975 
Q 2163 2241 1756 2241 
Q 1359 2241 1098 1978 
Q 838 1716 838 1322 
z
" transform="scale(0.015625)"/>
       </defs>
       <use xlink:href="#ArialMT-30"/>
       <use xlink:href="#ArialMT-2e" x="55.615234"/>
       <use xlink:href="#ArialMT-38" x="83.398438"/>
      </g>
     </g>
    </g>
    <g id="ytick_6">
     <g id="line2d_25">
      <g>
       <use xlink:href="#mef7349c560" x="41.25125" y="19.872" style="fill: #262626; stroke: #262626; stroke-width: 1.25"/>
      </g>
     </g>
     <g id="text_17">
      <!-- 1.0 -->
      <g style="fill: #262626" transform="translate(22.46125 23.808797) scale(0.11 -0.11)">
       <defs>
        <path id="ArialMT-31" d="M 2384 0 
L 1822 0 
L 1822 3584 
Q 1619 3391 1289 3197 
Q 959 3003 697 2906 
L 697 3450 
Q 1169 3672 1522 3987 
Q 1875 4303 2022 4600 
L 2384 4600 
L 2384 0 
z
" transform="scale(0.015625)"/>
       </defs>
       <use xlink:href="#ArialMT-31"/>
       <use xlink:href="#ArialMT-2e" x="55.615234"/>
       <use xlink:href="#ArialMT-30" x="83.398438"/>
      </g>
     </g>
    </g>
    <g id="ytick_7">
     <g id="line2d_26">
      <defs>
       <path id="mc861fcbac6" d="M 0 0 
L 4 0 
" style="stroke: #262626"/>
      </defs>
      <g>
       <use xlink:href="#mc861fcbac6" x="41.25125" y="247.968" style="fill: #262626; stroke: #262626"/>
      </g>
     </g>
    </g>
    <g id="ytick_8">
     <g id="line2d_27">
      <g>
       <use xlink:href="#mc861fcbac6" x="41.25125" y="197.28" style="fill: #262626; stroke: #262626"/>
      </g>
     </g>
    </g>
    <g id="ytick_9">
     <g id="line2d_28">
      <g>
       <use xlink:href="#mc861fcbac6" x="41.25125" y="146.592" style="fill: #262626; stroke: #262626"/>
      </g>
     </g>
    </g>
    <g id="ytick_10">
     <g id="line2d_29">
      <g>
       <use xlink:href="#mc861fcbac6" x="41.25125" y="95.904" style="fill: #262626; stroke: #262626"/>
      </g>
     </g>
    </g>
    <g id="ytick_11">
     <g id="line2d_30">
      <g>
       <use xlink:href="#mc861fcbac6" x="41.25125" y="45.216" style="fill: #262626; stroke: #262626"/>
      </g>
     </g>
    </g>
    <g id="text_18">
     <!-- Absorbance (a.u.) -->
     <g style="fill: #262626" transform="translate(15.935625 187.94475) rotate(-90) scale(0.12 -0.12)">
      <defs>
       <path id="ArialMT-41" d="M -9 0 
L 1750 4581 
L 2403 4581 
L 4278 0 
L 3588 0 
L 3053 1388 
L 1138 1388 
L 634 0 
L -9 0 
z
M 1313 1881 
L 2866 1881 
L 2388 3150 
Q 2169 3728 2063 4100 
Q 1975 3659 1816 3225 
L 1313 1881 
z
" transform="scale(0.015625)"/>
       <path id="ArialMT-62" d="M 941 0 
L 419 0 
L 419 4581 
L 981 4581 
L 981 2947 
Q 1338 3394 1891 3394 
Q 2197 3394 2470 3270 
Q 2744 3147 2920 2923 
Q 3097 2700 3197 2384 
Q 3297 2069 3297 1709 
Q 3297 856 2875 390 
Q 2453 -75 1863 -75 
Q 1275 -75 941 416 
L 941 0 
z
M 934 1684 
Q 934 1088 1097 822 
Q 1363 388 1816 388 
Q 2184 388 2453 708 
Q 2722 1028 2722 1663 
Q 2722 2313 2464 2622 
Q 2206 2931 1841 2931 
Q 1472 2931 1203 2611 
Q 934 2291 934 1684 
z
" transform="scale(0.015625)"/>
       <path id="ArialMT-73" d="M 197 991 
L 753 1078 
Q 800 744 1014 566 
Q 1228 388 1613 388 
Q 2000 388 2187 545 
Q 2375 703 2375 916 
Q 2375 1106 2209 1216 
Q 2094 1291 1634 1406 
Q 1016 1563 777 1677 
Q 538 1791 414 1992 
Q 291 2194 291 2438 
Q 291 2659 392 2848 
Q 494 3038 669 3163 
Q 800 3259 1026 3326 
Q 1253 3394 1513 3394 
Q 1903 3394 2198 3281 
Q 2494 3169 2634 2976 
Q 2775 2784 2828 2463 
L 2278 2388 
Q 2241 2644 2061 2787 
Q 1881 2931 1553 2931 
Q 1166 2931 1000 2803 
Q 834 2675 834 2503 
Q 834 2394 903 2306 
Q 972 2216 1119 2156 
Q 1203 2125 1616 2013 
Q 2213 1853 2448 1751 
Q 2684 1650 2818 1456 
Q 2953 1263 2953 975 
Q 2953 694 2789 445 
Q 2625 197 2315 61 
Q 2006 -75 1616 -75 
Q 969 -75 630 194 
Q 291 463 197 991 
z
" transform="scale(0.015625)"/>
       <path id="ArialMT-6f" d="M 213 1659 
Q 213 2581 725 3025 
Q 1153 3394 1769 3394 
Q 2453 3394 2887 2945 
Q 3322 2497 3322 1706 
Q 3322 1066 3130 698 
Q 2938 331 2570 128 
Q 2203 -75 1769 -75 
Q 1072 -75 642 372 
Q 213 819 213 1659 
z
M 791 1659 
Q 791 1022 1069 705 
Q 1347 388 1769 388 
Q 2188 388 2466 706 
Q 2744 1025 2744 1678 
Q 2744 2294 2464 2611 
Q 2184 2928 1769 2928 
Q 1347 2928 1069 2612 
Q 791 2297 791 1659 
z
" transform="scale(0.015625)"/>
       <path id="ArialMT-72" d="M 416 0 
L 416 3319 
L 922 3319 
L 922 2816 
Q 1116 3169 1280 3281 
Q 1444 3394 1641 3394 
Q 1925 3394 2219 3213 
L 2025 2691 
Q 1819 2813 1613 2813 
Q 1428 2813 1281 2702 
Q 1134 2591 1072 2394 
Q 978 2094 978 1738 
L 978 0 
L 416 0 
z
" transform="scale(0.015625)"/>
       <path id="ArialMT-63" d="M 2588 1216 
L 3141 1144 
Q 3050 572 2676 248 
Q 2303 -75 1759 -75 
Q 1078 -75 664 370 
Q 250 816 250 1647 
Q 250 2184 428 2587 
Q 606 2991 970 3192 
Q 1334 3394 1763 3394 
Q 2303 3394 2647 3120 
Q 2991 2847 3088 2344 
L 2541 2259 
Q 2463 2594 2264 2762 
Q 2066 2931 1784 2931 
Q 1359 2931 1093 2626 
Q 828 2322 828 1663 
Q 828 994 1084 691 
Q 1341 388 1753 388 
Q 2084 388 2306 591 
Q 2528 794 2588 1216 
z
" transform="scale(0.015625)"/>
       <path id="ArialMT-75" d="M 2597 0 
L 2597 488 
Q 2209 -75 1544 -75 
Q 1250 -75 995 37 
Q 741 150 617 320 
Q 494 491 444 738 
Q 409 903 409 1263 
L 409 3319 
L 972 3319 
L 972 1478 
Q 972 1038 1006 884 
Q 1059 663 1231 536 
Q 1403 409 1656 409 
Q 1909 409 2131 539 
Q 2353 669 2445 892 
Q 2538 1116 2538 1541 
L 2538 3319 
L 3100 3319 
L 3100 0 
L 2597 0 
z
" transform="scale(0.015625)"/>
      </defs>
      <use xlink:href="#ArialMT-41"/>
      <use xlink:href="#ArialMT-62" x="66.699219"/>
      <use xlink:href="#ArialMT-73" x="122.314453"/>
      <use xlink:href="#ArialMT-6f" x="172.314453"/>
      <use xlink:href="#ArialMT-72" x="227.929688"/>
      <use xlink:href="#ArialMT-62" x="261.230469"/>
      <use xlink:href="#ArialMT-61" x="316.845703"/>
      <use xlink:href="#ArialMT-6e" x="372.460938"/>
      <use xlink:href="#ArialMT-63" x="428.076172"/>
      <use xlink:href="#ArialMT-65" x="478.076172"/>
      <use xlink:href="#ArialMT-20" x="533.691406"/>
      <use xlink:href="#ArialMT-28" x="561.474609"/>
      <use xlink:href="#ArialMT-61" x="594.775391"/>
      <use xlink:href="#ArialMT-2e" x="650.390625"/>
      <use xlink:href="#ArialMT-75" x="678.173828"/>
      <use xlink:href="#ArialMT-2e" x="733.789062"/>
      <use xlink:href="#ArialMT-29" x="761.572266"/>
     </g>
    </g>
   </g>
   <g id="PolyCollection_1"/>
   <g id="PolyCollection_2"/>
   <g id="PolyCollection_3"/>
   <g id="line2d_31">
    <path d="M 33.315238 263.079848 
L 33.844309 260.684038 
L 34.373367 261.853995 
L 34.902438 261.388152 
L 35.431509 262.142962 
L 35.960567 263.796753 
L 36.489638 263.609283 
L 37.018709 265.324199 
L 37.547767 264.660382 
L 38.076838 266.71664 
L 38.605909 266.162664 
L 39.134967 266.674513 
L 39.664038 267.789492 
L 40.193109 267.8062 
L 41.780309 269.16409 
L 42.309367 268.913759 
L 42.838438 269.435464 
L 43.367509 269.486165 
L 43.896567 269.96105 
L 44.425638 269.756296 
L 44.954709 270.18756 
L 45.483767 270.018139 
L 46.012838 270.062261 
L 47.070967 269.830627 
L 47.60005 270.036635 
L 48.129109 269.72141 
L 48.658167 270.013884 
L 50.77445 269.805275 
L 51.303509 269.44358 
L 51.832567 269.409127 
L 53.94885 268.891182 
L 54.477909 268.799472 
L 56.065109 267.645919 
L 57.12325 267.061065 
L 57.652309 266.538005 
L 58.181367 266.318631 
L 58.71045 265.712368 
L 59.239509 265.299516 
L 59.768567 265.080818 
L 60.29765 264.261057 
L 61.88485 262.724573 
L 63.47205 260.903772 
L 65.05925 258.455571 
L 65.588309 257.487938 
L 67.704567 252.547875 
L 71.40805 243.670795 
L 73.524309 237.920002 
L 75.111509 231.72547 
L 76.16965 226.570411 
L 77.75685 217.400671 
L 79.873109 205.309147 
L 81.460309 198.070452 
L 84.10565 186.788884 
L 85.163767 180.743261 
L 86.221909 173.069651 
L 87.28005 163.23349 
L 91.512567 119.772435 
L 92.570709 113.111839 
L 93.62885 108.725648 
L 94.157909 107.1961 
L 95.745109 103.729091 
L 96.274167 102.221613 
L 96.80325 100.283971 
L 97.332309 97.678755 
L 97.861367 94.389727 
L 98.39045 90.383306 
L 99.448567 79.673613 
L 101.035767 59.348295 
L 102.622967 38.16002 
L 103.681109 27.468108 
L 104.210167 23.531507 
L 104.73925 20.9964 
L 105.268309 19.872 
L 105.797367 20.086448 
L 106.32645 21.432727 
L 106.855509 23.89744 
L 107.384567 27.096103 
L 108.971767 39.669251 
L 110.558967 52.206386 
L 111.617109 58.026095 
L 112.146167 59.886076 
L 112.67525 64.034269 
L 113.204309 64.162173 
L 113.733367 63.691086 
L 114.26245 62.37091 
L 114.791509 60.571173 
L 115.84965 55.569268 
L 116.907767 50.289152 
L 117.43685 48.184556 
L 117.965909 46.697078 
L 118.494967 46.167395 
L 119.02405 46.631095 
L 119.553109 48.40982 
L 120.082167 51.522195 
L 120.61125 56.082561 
L 121.140309 62.020748 
L 122.19845 77.976175 
L 123.256567 97.975078 
L 128.018167 194.613118 
L 129.076309 210.686252 
L 130.13445 223.675927 
L 131.192567 234.179745 
L 132.250709 242.429806 
L 133.30885 248.765214 
L 134.366967 253.687953 
L 135.425109 257.530107 
L 136.48325 260.425569 
L 137.541367 262.762549 
L 139.128567 265.160256 
L 140.186709 266.489923 
L 141.24485 267.43278 
L 142.83205 268.575149 
L 144.41925 269.419171 
L 144.948309 269.571804 
L 146.535509 270.336744 
L 149.709909 271.14726 
L 150.238967 271.305852 
L 150.76805 271.316825 
L 152.35525 271.630364 
L 152.884309 271.665065 
L 153.94245 271.8735 
L 165.05285 272.795911 
L 170.872567 273.002888 
L 172.459767 273.036306 
L 174.046967 273.017749 
L 176.16325 273.104709 
L 176.692309 272.979054 
L 177.75045 273.172329 
L 179.866709 273.112561 
L 184.09925 273.157051 
L 184.628309 273.215272 
L 185.157367 273.138155 
L 186.215509 273.206461 
L 188.331767 273.216849 
L 245.470967 273.195148 
L 246.00005 273.119104 
L 248.116309 273.18245 
L 254.994167 273.189568 
L 258.168567 273.158283 
L 259.226733 273.158783 
L 262.401133 273.177986 
L 263.988333 273.183912 
L 266.63365 273.165556 
L 269.80805 273.199304 
L 271.39525 273.141427 
L 273.511533 273.179602 
L 277.74405 273.175715 
L 278.802167 273.196995 
L 292.02885 273.14058 
L 292.557933 273.22693 
L 294.145133 273.165556 
L 295.732333 273.241204 
L 297.848567 273.171367 
L 315.307767 273.175023 
L 318.482167 273.121491 
L 319.540333 273.14262 
L 322.18565 273.154281 
L 331.70885 273.072607 
L 333.29605 273.062021 
L 345.464567 273.20446 
L 347.58085 273.155589 
L 349.697133 273.215156 
L 351.284333 273.174061 
L 352.34245 273.211309 
L 354.987767 273.208308 
L 356.574967 273.181295 
L 360.27845 273.250553 
L 361.86565 273.231355 
L 398.37125 273.326412 
L 398.37125 273.326412 
" clip-path="url(#pb54f6051cb)" style="fill: none; stroke: #f4865e; stroke-linecap: round"/>
   </g>
   <g id="line2d_32">
    <path d="M 33.315238 220.921368 
L 33.844309 220.772353 
L 34.373367 222.067434 
L 34.902438 222.390846 
L 35.960567 221.173623 
L 36.489638 219.878655 
L 37.018709 221.181587 
L 37.547767 219.551723 
L 38.076838 221.188672 
L 38.605909 219.929525 
L 39.134967 219.994954 
L 39.664038 219.933018 
L 40.193109 219.309714 
L 40.722167 219.125758 
L 41.780309 219.300469 
L 42.309367 218.186522 
L 42.838438 218.893145 
L 43.367509 218.943585 
L 43.896567 220.260309 
L 44.954709 221.120116 
L 45.483767 220.976694 
L 46.012838 221.329175 
L 46.541909 222.173208 
L 47.070967 222.545655 
L 47.60005 223.423801 
L 48.129109 224.720917 
L 48.658167 225.708867 
L 49.18725 227.190619 
L 50.245367 229.165392 
L 51.303509 231.833431 
L 51.832567 232.210364 
L 52.36165 232.328744 
L 52.890709 232.6782 
L 53.419767 233.750102 
L 53.94885 235.498856 
L 54.477909 238.166611 
L 55.006967 239.526943 
L 56.065109 242.983907 
L 56.594167 244.406624 
L 57.12325 244.904983 
L 57.652309 244.925142 
L 58.71045 244.377996 
L 59.239509 245.334917 
L 59.768567 247.246724 
L 60.29765 248.593274 
L 61.355767 252.178849 
L 61.88485 252.731955 
L 62.413909 253.480419 
L 64.530167 254.745652 
L 65.05925 254.416197 
L 66.117367 254.243112 
L 66.64645 254.088315 
L 67.175509 254.206466 
L 68.23365 253.884764 
L 68.762709 253.493863 
L 69.82085 253.498159 
L 71.40805 253.276957 
L 71.937109 252.853998 
L 72.466167 252.827359 
L 74.053367 252.188782 
L 74.58245 251.903903 
L 76.16965 251.700878 
L 76.698709 251.949243 
L 77.227767 251.594645 
L 77.75685 251.484844 
L 79.873109 251.87753 
L 80.402167 252.207225 
L 80.93125 252.126372 
L 81.460309 252.434505 
L 81.989367 252.295354 
L 82.51845 252.294523 
L 83.576567 252.552379 
L 84.10565 252.299418 
L 85.163767 252.392189 
L 85.69285 252.397011 
L 86.750967 252.623973 
L 87.28005 252.68161 
L 88.86725 253.26129 
L 89.925367 254.110708 
L 90.45445 254.679928 
L 90.983509 254.873792 
L 91.512567 255.402046 
L 92.04165 255.719535 
L 93.62885 257.249705 
L 94.157909 257.44874 
L 95.745109 258.593396 
L 96.274167 258.815946 
L 98.919509 259.022797 
L 99.448567 258.717161 
L 99.97765 258.633121 
L 100.506709 258.360076 
L 101.035767 258.388448 
L 101.56485 257.936872 
L 102.622967 257.355769 
L 106.32645 254.998792 
L 108.442709 253.118602 
L 108.971767 252.621197 
L 111.08805 249.931723 
L 113.733367 245.239253 
L 116.378709 239.716549 
L 122.727509 227.745685 
L 124.314709 223.753667 
L 125.37285 220.551991 
L 126.96005 214.213928 
L 127.489109 212.140639 
L 130.13445 199.703749 
L 132.250709 190.694992 
L 133.30885 186.969697 
L 134.89605 182.643901 
L 137.541367 176.666445 
L 138.599509 173.668453 
L 139.65765 169.771718 
L 140.715767 164.774043 
L 141.773909 158.504894 
L 142.83205 150.742059 
L 144.41925 137.254011 
L 146.00645 123.186981 
L 147.064567 114.703761 
L 148.122709 107.784668 
L 148.651767 105.063104 
L 149.18085 102.995639 
L 149.709909 101.432495 
L 150.238967 100.388959 
L 150.76805 99.664586 
L 151.297109 99.635356 
L 151.826167 99.911165 
L 152.35525 100.405696 
L 152.884309 101.35213 
L 153.94245 103.502906 
L 154.471509 104.508556 
L 155.52965 105.900955 
L 156.058709 106.086383 
L 156.587767 105.945699 
L 157.11685 105.185102 
L 157.645909 103.973705 
L 158.174967 102.001455 
L 158.70405 99.4589 
L 159.233109 96.217245 
L 160.29125 87.778 
L 161.349367 76.941325 
L 163.46565 51.223002 
L 164.523767 38.512101 
L 165.581909 28.320747 
L 166.110967 24.487292 
L 166.64005 21.767798 
L 167.169109 20.186995 
L 167.698167 19.872 
L 168.22725 20.541477 
L 168.756309 22.613715 
L 169.285367 25.819523 
L 170.343509 35.041557 
L 171.40165 47.161005 
L 175.105109 94.225523 
L 176.16325 103.978056 
L 177.221367 110.969689 
L 177.75045 113.185482 
L 178.279509 114.383404 
L 178.808567 114.750016 
L 179.33765 114.183866 
L 179.866709 112.765998 
L 180.395767 110.54371 
L 180.92485 107.632503 
L 181.982967 99.80737 
L 183.570167 85.040514 
L 185.157367 69.850444 
L 186.215509 62.114709 
L 186.744567 59.477 
L 187.27365 57.961712 
L 187.802709 57.647186 
L 188.331767 58.697792 
L 188.86085 61.230362 
L 189.389909 65.095404 
L 189.918967 70.494391 
L 190.977109 85.240445 
L 192.03525 104.157714 
L 196.79685 198.656738 
L 197.854967 214.449607 
L 198.913109 227.35275 
L 199.97125 237.473214 
L 201.029367 245.402833 
L 202.087509 251.458939 
L 203.14565 255.840966 
L 204.203767 259.286192 
L 205.261909 261.788058 
L 206.32005 263.798733 
L 207.378167 265.302777 
L 208.965367 266.986171 
L 210.023509 267.875459 
L 210.552567 268.180206 
L 211.08165 268.623323 
L 214.25605 270.256929 
L 214.785109 270.389783 
L 215.84325 270.791854 
L 217.43045 271.202668 
L 217.959509 271.56836 
L 218.488567 271.481624 
L 221.133909 271.983737 
L 222.721109 272.182211 
L 224.308309 272.377433 
L 225.36645 272.469223 
L 226.95365 272.609961 
L 228.54085 272.665583 
L 230.657109 272.77179 
L 231.186167 272.83292 
L 232.244309 272.761344 
L 234.88965 272.940902 
L 235.418709 272.858227 
L 238.593109 273.017943 
L 241.23845 273.031328 
L 241.767509 273.098921 
L 242.82565 273.057497 
L 245.470967 273.137466 
L 246.00005 273.049198 
L 247.58725 273.218896 
L 253.93605 273.256696 
L 254.994167 273.24365 
L 257.11045 273.165569 
L 257.639533 273.270945 
L 258.168567 273.202838 
L 258.69765 273.270276 
L 260.813933 273.185576 
L 261.87205 273.261981 
L 262.401133 273.230202 
L 262.930167 273.338576 
L 263.45925 273.206518 
L 263.988333 273.290881 
L 265.04645 273.192467 
L 266.104567 273.257164 
L 266.63365 273.170655 
L 267.691767 273.217758 
L 272.98245 273.253618 
L 274.040567 273.256094 
L 276.15685 273.231407 
L 276.685933 273.277368 
L 277.74405 273.185509 
L 280.91845 273.235688 
L 282.50565 273.183769 
L 283.563767 273.297437 
L 287.26725 273.236759 
L 288.325367 273.196147 
L 290.970733 273.22378 
L 293.086967 273.240037 
L 293.61605 273.283991 
L 294.145133 273.196147 
L 295.732333 273.28573 
L 296.79045 273.177011 
L 300.493933 273.237963 
L 301.55205 273.120001 
L 302.610167 273.137533 
L 305.255533 273.125889 
L 307.371767 273.049332 
L 307.90085 273.109562 
L 308.958967 273.0844 
L 310.546167 273.052678 
L 311.604333 272.989229 
L 312.133367 273.111703 
L 312.66245 273.031797 
L 314.24965 273.095776 
L 315.307767 273.058768 
L 316.365933 273.042572 
L 320.59845 273.073625 
L 322.18565 273.08179 
L 325.36005 273.068004 
L 326.94725 273.106349 
L 329.063533 273.02584 
L 330.650733 273.071283 
L 332.766967 272.826091 
L 335.941367 272.93876 
L 337.528567 272.866328 
L 340.702967 273.179487 
L 341.761133 273.13325 
L 344.40645 273.158343 
L 347.58085 273.049533 
L 348.638967 273.140209 
L 351.813367 273.144157 
L 352.34245 273.077774 
L 353.400567 273.099122 
L 357.633133 273.178952 
L 358.162167 273.103673 
L 359.749367 273.136997 
L 362.394733 273.13412 
L 366.098167 273.203641 
L 366.62725 273.141347 
L 368.21445 273.26178 
L 370.859767 273.215015 
L 371.917933 273.278171 
L 374.56325 273.285931 
L 375.621367 273.231607 
L 376.15045 273.405196 
L 377.208567 273.294226 
L 377.73765 273.284927 
L 378.266733 273.388475 
L 380.382967 273.313157 
L 381.970167 273.342189 
L 388.318967 273.310013 
L 390.964333 273.385265 
L 391.493367 273.291349 
L 393.60965 273.29155 
L 395.19685 273.309813 
L 396.254967 273.345868 
L 396.78405 273.231005 
L 398.37125 273.297035 
L 398.37125 273.297035 
" clip-path="url(#pb54f6051cb)" style="fill: none; stroke: #ca1a50; stroke-linecap: round"/>
   </g>
   <g id="line2d_33">
    <path d="M 33.315238 224.36338 
L 33.844309 222.622285 
L 34.373367 223.265967 
L 34.902438 221.511288 
L 35.431509 217.245187 
L 35.960567 217.102411 
L 36.489638 219.501162 
L 37.018709 222.58992 
L 37.547767 220.619221 
L 38.076838 222.009415 
L 38.605909 220.427123 
L 39.134967 222.20149 
L 39.664038 222.358772 
L 41.251238 223.696898 
L 41.780309 224.605823 
L 42.309367 224.208338 
L 42.838438 225.439425 
L 43.367509 225.422514 
L 43.896567 225.966088 
L 44.425638 225.651796 
L 44.954709 226.502018 
L 46.012838 227.136086 
L 47.60005 229.824906 
L 48.129109 230.2902 
L 48.658167 231.519048 
L 49.716309 232.784978 
L 50.245367 233.061561 
L 50.77445 233.650197 
L 52.36165 233.018663 
L 52.890709 233.239773 
L 53.419767 233.942177 
L 53.94885 233.617975 
L 54.477909 233.996892 
L 55.006967 233.521126 
L 55.53605 232.75239 
L 56.065109 233.36827 
L 56.594167 232.662799 
L 57.652309 232.221414 
L 58.181367 232.549219 
L 58.71045 232.025143 
L 59.239509 232.047146 
L 59.768567 232.451803 
L 60.29765 231.980236 
L 61.355767 231.830542 
L 61.88485 231.11527 
L 62.413909 231.081417 
L 62.942967 230.555876 
L 63.47205 230.422882 
L 64.530167 231.090428 
L 65.05925 231.009795 
L 65.588309 231.051469 
L 66.117367 230.662466 
L 66.64645 231.082943 
L 67.175509 230.474092 
L 67.704567 230.681262 
L 68.23365 231.09453 
L 68.762709 230.493461 
L 69.291767 230.979511 
L 69.82085 230.855614 
L 70.349909 231.088948 
L 70.878967 231.18545 
L 71.40805 231.635362 
L 72.466167 231.608537 
L 73.524309 232.219934 
L 74.053367 232.061953 
L 74.58245 232.25983 
L 75.111509 232.736593 
L 75.640567 232.692634 
L 76.16965 232.795443 
L 76.698709 233.271054 
L 77.227767 232.921115 
L 78.285909 233.347975 
L 78.814967 233.193797 
L 79.34405 233.372073 
L 79.873109 233.224274 
L 80.402167 233.339606 
L 80.93125 233.157708 
L 81.460309 233.523029 
L 82.51845 233.364799 
L 83.047509 233.716052 
L 83.576567 233.6281 
L 84.10565 233.664971 
L 84.634709 233.369697 
L 85.69285 233.807177 
L 86.221909 233.850452 
L 86.750967 233.600917 
L 87.28005 233.556391 
L 87.809109 233.348447 
L 88.338167 233.42854 
L 88.86725 233.136597 
L 89.396309 233.032833 
L 89.925367 233.151243 
L 90.45445 233.069737 
L 90.983509 232.739924 
L 92.04165 232.309053 
L 92.570709 232.568302 
L 93.62885 232.202226 
L 94.686967 231.81925 
L 95.745109 231.619402 
L 96.274167 231.713351 
L 96.80325 231.412202 
L 97.332309 231.414683 
L 97.861367 230.909078 
L 98.39045 231.14807 
L 99.448567 230.575866 
L 100.506709 230.599205 
L 101.035767 230.591995 
L 103.15205 229.740844 
L 103.681109 229.756894 
L 104.210167 229.470768 
L 107.384567 228.580631 
L 108.442709 228.061125 
L 109.50085 227.614457 
L 110.029909 227.633521 
L 111.617109 226.935211 
L 112.146167 226.823625 
L 112.67525 226.429433 
L 113.204309 226.338554 
L 116.907767 224.77016 
L 117.43685 224.655606 
L 117.965909 224.374778 
L 118.494967 224.245967 
L 119.553109 223.682929 
L 120.082167 223.592537 
L 121.140309 222.92064 
L 121.669367 222.65729 
L 122.19845 222.534457 
L 122.727509 222.142568 
L 123.256567 222.014868 
L 124.314709 221.275945 
L 125.37285 220.964742 
L 126.430967 220.186599 
L 126.96005 220.131975 
L 127.489109 219.905578 
L 128.018167 219.486105 
L 128.54725 219.247744 
L 129.076309 218.878836 
L 129.605367 218.995928 
L 130.13445 218.677323 
L 131.192567 218.312504 
L 134.366967 216.958052 
L 134.89605 216.567251 
L 135.954167 216.095488 
L 137.012309 215.17995 
L 137.541367 214.873158 
L 139.128567 213.297446 
L 140.715767 211.702975 
L 143.361109 208.494169 
L 144.41925 206.964726 
L 147.59365 202.201091 
L 149.709909 198.672192 
L 150.76805 196.92377 
L 152.35525 193.998938 
L 158.70405 182.471161 
L 161.87845 176.955532 
L 167.169109 167.457214 
L 172.98885 155.21471 
L 175.105109 150.392395 
L 176.692309 146.451195 
L 177.221367 145.485214 
L 178.808567 141.676503 
L 181.453909 135.226336 
L 187.802709 119.271287 
L 190.977109 110.727869 
L 199.442167 86.825977 
L 201.55845 80.78256 
L 202.616567 77.929512 
L 204.203767 73.508471 
L 208.965367 60.792554 
L 210.552567 56.882329 
L 212.66885 51.702564 
L 217.43045 40.903684 
L 217.959509 40.189267 
L 218.488567 38.789466 
L 219.546709 36.801308 
L 222.721109 31.242649 
L 226.424567 26.062446 
L 228.54085 23.699262 
L 231.71525 21.145468 
L 233.831509 20.149939 
L 234.88965 20.007639 
L 236.47685 20.015403 
L 237.005909 20.08542 
L 239.122167 20.960387 
L 240.180309 21.645559 
L 240.709367 22.377711 
L 241.23845 22.789506 
L 243.354709 25.535949 
L 244.41285 27.359676 
L 246.00005 30.249356 
L 249.17445 38.049941 
L 250.232567 40.898805 
L 252.877933 49.047528 
L 254.994167 56.156763 
L 257.639533 65.57279 
L 261.87205 81.633462 
L 263.988333 90.143933 
L 267.691767 106.410744 
L 270.337133 119.422968 
L 272.98245 133.770717 
L 275.098733 146.287459 
L 277.74405 162.794375 
L 285.68005 211.867833 
L 287.796333 223.087518 
L 289.912567 232.931485 
L 290.970733 237.132406 
L 292.557933 243.05237 
L 294.145133 247.874819 
L 294.674167 249.357749 
L 295.20325 250.1846 
L 296.261367 252.670451 
L 297.848567 255.812691 
L 300.493933 259.904076 
L 301.55205 260.910442 
L 302.610167 262.006757 
L 303.668333 262.927787 
L 305.255533 263.928983 
L 306.842733 264.783433 
L 307.371767 264.952392 
L 307.90085 265.268427 
L 308.958967 265.67004 
L 309.48805 265.956468 
L 310.017133 266.061791 
L 310.546167 266.317237 
L 311.604333 266.549363 
L 312.133367 266.832954 
L 316.365933 267.9367 
L 317.42405 268.089111 
L 320.069367 268.767074 
L 321.656567 268.999615 
L 324.301933 269.714779 
L 324.830967 269.703868 
L 325.889133 270.149021 
L 326.418167 270.142279 
L 328.005367 270.590019 
L 328.53445 270.647896 
L 329.063533 270.86959 
L 332.766967 271.348017 
L 334.354167 271.695618 
L 334.88325 271.722256 
L 335.412333 271.913661 
L 335.941367 271.891409 
L 338.05765 272.226033 
L 338.586733 272.276068 
L 340.173933 272.777937 
L 342.290167 273.150603 
L 342.81925 273.039247 
L 343.348333 273.186832 
L 344.40645 273.108513 
L 344.935533 273.301365 
L 347.051767 273.400519 
L 347.58085 273.385384 
L 348.638967 273.573165 
L 349.16805 273.521911 
L 349.697133 273.635042 
L 350.75525 273.648912 
L 353.92965 273.763734 
L 354.987767 273.826721 
L 356.574967 273.92198 
L 357.10405 273.851527 
L 357.633133 273.920134 
L 358.69125 273.915542 
L 359.220333 273.95412 
L 359.749367 273.842343 
L 360.807533 273.944442 
L 361.336567 273.822039 
L 362.923767 273.829603 
L 363.981933 273.79516 
L 365.04005 273.754369 
L 366.098167 273.541548 
L 368.21445 273.2359 
L 368.743533 273.17079 
L 369.272567 272.942297 
L 370.330733 272.827619 
L 370.859767 272.596495 
L 371.38885 272.513695 
L 371.917933 272.303497 
L 373.505133 272.142515 
L 374.034167 271.970577 
L 376.679533 271.903325 
L 378.795767 272.264563 
L 379.32485 272.176267 
L 380.91205 272.611061 
L 381.441133 272.644069 
L 381.970167 272.914351 
L 383.028333 272.973533 
L 383.557367 273.225717 
L 384.08645 273.250634 
L 385.67365 273.648642 
L 386.202733 273.57465 
L 386.731767 273.75662 
L 387.26085 273.684261 
L 389.377133 274.107465 
L 391.493367 274.255918 
L 392.02245 274.205252 
L 393.080567 274.331956 
L 393.60965 274.294433 
L 395.19685 274.519948 
L 397.313133 274.439836 
L 397.842167 274.487157 
L 398.37125 274.386977 
L 398.37125 274.386977 
" clip-path="url(#pb54f6051cb)" style="fill: none; stroke: #601f52; stroke-linecap: round"/>
   </g>
   <g id="line2d_34"/>
   <g id="line2d_35"/>
   <g id="line2d_36"/>
   <g id="patch_3">
    <path d="M 41.25125 273.312 
L 41.25125 7.2 
" style="fill: none; stroke: #262626; stroke-width: 1.25; stroke-linejoin: miter; stroke-linecap: square"/>
   </g>
   <g id="patch_4">
    <path d="M 41.25125 273.312 
L 398.37125 273.312 
" style="fill: none; stroke: #262626; stroke-width: 1.25; stroke-linejoin: miter; stroke-linecap: square"/>
   </g>
   <g id="legend_1">
    <g id="line2d_37">
     <path d="M 296.63525 94.701412 
L 302.63525 94.701412 
L 308.63525 94.701412 
" style="fill: none; stroke: #f4865e; stroke-width: 1.5; stroke-linecap: round"/>
    </g>
    <g id="text_19">
     <!-- 2023_06_22_C10-dialdehyde-chcl3_Abs -->
     <g style="fill: #262626" transform="translate(313.43525 96.801412) scale(0.06 -0.06)">
      <defs>
       <path id="ArialMT-5f" d="M -97 -1272 
L -97 -866 
L 3631 -866 
L 3631 -1272 
L -97 -1272 
z
" transform="scale(0.015625)"/>
       <path id="ArialMT-43" d="M 3763 1606 
L 4369 1453 
Q 4178 706 3683 314 
Q 3188 -78 2472 -78 
Q 1731 -78 1267 223 
Q 803 525 561 1097 
Q 319 1669 319 2325 
Q 319 3041 592 3573 
Q 866 4106 1370 4382 
Q 1875 4659 2481 4659 
Q 3169 4659 3637 4309 
Q 4106 3959 4291 3325 
L 3694 3184 
Q 3534 3684 3231 3912 
Q 2928 4141 2469 4141 
Q 1941 4141 1586 3887 
Q 1231 3634 1087 3207 
Q 944 2781 944 2328 
Q 944 1744 1114 1308 
Q 1284 872 1643 656 
Q 2003 441 2422 441 
Q 2931 441 3284 734 
Q 3638 1028 3763 1606 
z
" transform="scale(0.015625)"/>
       <path id="ArialMT-2d" d="M 203 1375 
L 203 1941 
L 1931 1941 
L 1931 1375 
L 203 1375 
z
" transform="scale(0.015625)"/>
       <path id="ArialMT-64" d="M 2575 0 
L 2575 419 
Q 2259 -75 1647 -75 
Q 1250 -75 917 144 
Q 584 363 401 755 
Q 219 1147 219 1656 
Q 219 2153 384 2558 
Q 550 2963 881 3178 
Q 1213 3394 1622 3394 
Q 1922 3394 2156 3267 
Q 2391 3141 2538 2938 
L 2538 4581 
L 3097 4581 
L 3097 0 
L 2575 0 
z
M 797 1656 
Q 797 1019 1065 703 
Q 1334 388 1700 388 
Q 2069 388 2326 689 
Q 2584 991 2584 1609 
Q 2584 2291 2321 2609 
Q 2059 2928 1675 2928 
Q 1300 2928 1048 2622 
Q 797 2316 797 1656 
z
" transform="scale(0.015625)"/>
       <path id="ArialMT-69" d="M 425 3934 
L 425 4581 
L 988 4581 
L 988 3934 
L 425 3934 
z
M 425 0 
L 425 3319 
L 988 3319 
L 988 0 
L 425 0 
z
" transform="scale(0.015625)"/>
       <path id="ArialMT-79" d="M 397 -1278 
L 334 -750 
Q 519 -800 656 -800 
Q 844 -800 956 -737 
Q 1069 -675 1141 -563 
Q 1194 -478 1313 -144 
Q 1328 -97 1363 -6 
L 103 3319 
L 709 3319 
L 1400 1397 
Q 1534 1031 1641 628 
Q 1738 1016 1872 1384 
L 2581 3319 
L 3144 3319 
L 1881 -56 
Q 1678 -603 1566 -809 
Q 1416 -1088 1222 -1217 
Q 1028 -1347 759 -1347 
Q 597 -1347 397 -1278 
z
" transform="scale(0.015625)"/>
      </defs>
      <use xlink:href="#ArialMT-32"/>
      <use xlink:href="#ArialMT-30" x="55.615234"/>
      <use xlink:href="#ArialMT-32" x="111.230469"/>
      <use xlink:href="#ArialMT-33" x="166.845703"/>
      <use xlink:href="#ArialMT-5f" x="222.460938"/>
      <use xlink:href="#ArialMT-30" x="278.076172"/>
      <use xlink:href="#ArialMT-36" x="333.691406"/>
      <use xlink:href="#ArialMT-5f" x="389.306641"/>
      <use xlink:href="#ArialMT-32" x="444.921875"/>
      <use xlink:href="#ArialMT-32" x="500.537109"/>
      <use xlink:href="#ArialMT-5f" x="556.152344"/>
      <use xlink:href="#ArialMT-43" x="611.767578"/>
      <use xlink:href="#ArialMT-31" x="683.984375"/>
      <use xlink:href="#ArialMT-30" x="739.599609"/>
      <use xlink:href="#ArialMT-2d" x="795.214844"/>
      <use xlink:href="#ArialMT-64" x="828.515625"/>
      <use xlink:href="#ArialMT-69" x="884.130859"/>
      <use xlink:href="#ArialMT-61" x="906.347656"/>
      <use xlink:href="#ArialMT-6c" x="961.962891"/>
      <use xlink:href="#ArialMT-64" x="984.179688"/>
      <use xlink:href="#ArialMT-65" x="1039.794922"/>
      <use xlink:href="#ArialMT-68" x="1095.410156"/>
      <use xlink:href="#ArialMT-79" x="1151.025391"/>
      <use xlink:href="#ArialMT-64" x="1201.025391"/>
      <use xlink:href="#ArialMT-65" x="1256.640625"/>
      <use xlink:href="#ArialMT-2d" x="1312.255859"/>
      <use xlink:href="#ArialMT-63" x="1345.556641"/>
      <use xlink:href="#ArialMT-68" x="1395.556641"/>
      <use xlink:href="#ArialMT-63" x="1451.171875"/>
      <use xlink:href="#ArialMT-6c" x="1501.171875"/>
      <use xlink:href="#ArialMT-33" x="1523.388672"/>
      <use xlink:href="#ArialMT-5f" x="1579.003906"/>
      <use xlink:href="#ArialMT-41" x="1634.619141"/>
      <use xlink:href="#ArialMT-62" x="1701.318359"/>
      <use xlink:href="#ArialMT-73" x="1756.933594"/>
     </g>
    </g>
    <g id="line2d_38">
     <path d="M 296.63525 103.276725 
L 302.63525 103.276725 
L 308.63525 103.276725 
" style="fill: none; stroke: #ca1a50; stroke-width: 1.5; stroke-linecap: round"/>
    </g>
    <g id="text_20">
     <!-- 2023_06_22_model-compound_Abs -->
     <g style="fill: #262626" transform="translate(313.43525 105.376725) scale(0.06 -0.06)">
      <defs>
       <path id="ArialMT-70" d="M 422 -1272 
L 422 3319 
L 934 3319 
L 934 2888 
Q 1116 3141 1344 3267 
Q 1572 3394 1897 3394 
Q 2322 3394 2647 3175 
Q 2972 2956 3137 2557 
Q 3303 2159 3303 1684 
Q 3303 1175 3120 767 
Q 2938 359 2589 142 
Q 2241 -75 1856 -75 
Q 1575 -75 1351 44 
Q 1128 163 984 344 
L 984 -1272 
L 422 -1272 
z
M 931 1641 
Q 931 1000 1190 694 
Q 1450 388 1819 388 
Q 2194 388 2461 705 
Q 2728 1022 2728 1688 
Q 2728 2322 2467 2637 
Q 2206 2953 1844 2953 
Q 1484 2953 1207 2617 
Q 931 2281 931 1641 
z
" transform="scale(0.015625)"/>
      </defs>
      <use xlink:href="#ArialMT-32"/>
      <use xlink:href="#ArialMT-30" x="55.615234"/>
      <use xlink:href="#ArialMT-32" x="111.230469"/>
      <use xlink:href="#ArialMT-33" x="166.845703"/>
      <use xlink:href="#ArialMT-5f" x="222.460938"/>
      <use xlink:href="#ArialMT-30" x="278.076172"/>
      <use xlink:href="#ArialMT-36" x="333.691406"/>
      <use xlink:href="#ArialMT-5f" x="389.306641"/>
      <use xlink:href="#ArialMT-32" x="444.921875"/>
      <use xlink:href="#ArialMT-32" x="500.537109"/>
      <use xlink:href="#ArialMT-5f" x="556.152344"/>
      <use xlink:href="#ArialMT-6d" x="611.767578"/>
      <use xlink:href="#ArialMT-6f" x="695.068359"/>
      <use xlink:href="#ArialMT-64" x="750.683594"/>
      <use xlink:href="#ArialMT-65" x="806.298828"/>
      <use xlink:href="#ArialMT-6c" x="861.914062"/>
      <use xlink:href="#ArialMT-2d" x="884.130859"/>
      <use xlink:href="#ArialMT-63" x="917.431641"/>
      <use xlink:href="#ArialMT-6f" x="967.431641"/>
      <use xlink:href="#ArialMT-6d" x="1023.046875"/>
      <use xlink:href="#ArialMT-70" x="1106.347656"/>
      <use xlink:href="#ArialMT-6f" x="1161.962891"/>
      <use xlink:href="#ArialMT-75" x="1217.578125"/>
      <use xlink:href="#ArialMT-6e" x="1273.193359"/>
      <use xlink:href="#ArialMT-64" x="1328.808594"/>
      <use xlink:href="#ArialMT-5f" x="1384.423828"/>
      <use xlink:href="#ArialMT-41" x="1440.039062"/>
      <use xlink:href="#ArialMT-62" x="1506.738281"/>
      <use xlink:href="#ArialMT-73" x="1562.353516"/>
     </g>
    </g>
    <g id="line2d_39">
     <path d="M 296.63525 111.781725 
L 302.63525 111.781725 
L 308.63525 111.781725 
" style="fill: none; stroke: #601f52; stroke-width: 1.5; stroke-linecap: round"/>
    </g>
    <g id="text_21">
     <!-- 2023_06_22_AU-038-A2-3_Abs -->
     <g style="fill: #262626" transform="translate(313.43525 113.881725) scale(0.06 -0.06)">
      <defs>
       <path id="ArialMT-55" d="M 3500 4581 
L 4106 4581 
L 4106 1934 
Q 4106 1244 3950 837 
Q 3794 431 3386 176 
Q 2978 -78 2316 -78 
Q 1672 -78 1262 144 
Q 853 366 678 786 
Q 503 1206 503 1934 
L 503 4581 
L 1109 4581 
L 1109 1938 
Q 1109 1341 1220 1058 
Q 1331 775 1601 622 
Q 1872 469 2263 469 
Q 2931 469 3215 772 
Q 3500 1075 3500 1938 
L 3500 4581 
z
" transform="scale(0.015625)"/>
      </defs>
      <use xlink:href="#ArialMT-32"/>
      <use xlink:href="#ArialMT-30" x="55.615234"/>
      <use xlink:href="#ArialMT-32" x="111.230469"/>
      <use xlink:href="#ArialMT-33" x="166.845703"/>
      <use xlink:href="#ArialMT-5f" x="222.460938"/>
      <use xlink:href="#ArialMT-30" x="278.076172"/>
      <use xlink:href="#ArialMT-36" x="333.691406"/>
      <use xlink:href="#ArialMT-5f" x="389.306641"/>
      <use xlink:href="#ArialMT-32" x="444.921875"/>
      <use xlink:href="#ArialMT-32" x="500.537109"/>
      <use xlink:href="#ArialMT-5f" x="556.152344"/>
      <use xlink:href="#ArialMT-41" x="611.767578"/>
      <use xlink:href="#ArialMT-55" x="678.466797"/>
      <use xlink:href="#ArialMT-2d" x="750.683594"/>
      <use xlink:href="#ArialMT-30" x="783.984375"/>
      <use xlink:href="#ArialMT-33" x="839.599609"/>
      <use xlink:href="#ArialMT-38" x="895.214844"/>
      <use xlink:href="#ArialMT-2d" x="950.830078"/>
      <use xlink:href="#ArialMT-41" x="984.130859"/>
      <use xlink:href="#ArialMT-32" x="1050.830078"/>
      <use xlink:href="#ArialMT-2d" x="1106.445312"/>
      <use xlink:href="#ArialMT-33" x="1139.746094"/>
      <use xlink:href="#ArialMT-5f" x="1195.361328"/>
      <use xlink:href="#ArialMT-41" x="1250.976562"/>
      <use xlink:href="#ArialMT-62" x="1317.675781"/>
      <use xlink:href="#ArialMT-73" x="1373.291016"/>
     </g>
    </g>
   </g>
  </g>
 </g>
 <defs>
  <clipPath id="pb54f6051cb">
   <rect x="41.25125" y="7.2" width="357.12" height="266.112"/>
  </clipPath>
 </defs>
</svg>
