<?xml version="1.0" encoding="utf-8" standalone="no"?>
<!DOCTYPE svg PUBLIC "-//W3C//DTD SVG 1.1//EN"
  "http://www.w3.org/Graphics/SVG/1.1/DTD/svg11.dtd">
<svg xmlns:xlink="http://www.w3.org/1999/xlink" width="262.3pt" height="273.614688pt" viewBox="0 0 262.3 273.614688" xmlns="http://www.w3.org/2000/svg" version="1.1">
 <metadata>
  <rdf:RDF xmlns:dc="http://purl.org/dc/elements/1.1/" xmlns:cc="http://creativecommons.org/ns#" xmlns:rdf="http://www.w3.org/1999/02/22-rdf-syntax-ns#">
   <cc:Work>
    <dc:type rdf:resource="http://purl.org/dc/dcmitype/StillImage"/>
    <dc:date>2024-05-28T10:35:00.097605</dc:date>
    <dc:format>image/svg+xml</dc:format>
    <dc:creator>
     <cc:Agent>
      <dc:title>Matplotlib v3.7.1, https://matplotlib.org/</dc:title>
     </cc:Agent>
    </dc:creator>
   </cc:Work>
  </rdf:RDF>
 </metadata>
 <defs>
  <style type="text/css">*{stroke-linejoin: round; stroke-linecap: butt}</style>
 </defs>
 <g id="figure_1">
  <g id="patch_1">
   <path d="M -0 273.614688 
L 262.3 273.614688 
L 262.3 0 
L -0 0 
z
" style="fill: #ffffff"/>
  </g>
  <g id="axes_1">
   <g id="patch_2">
    <path d="M 42.2 239.558437 
L 209.6 239.558437 
L 209.6 17.798438 
L 42.2 17.798438 
z
" style="fill: #ffffff"/>
   </g>
   <g id="matplotlib.axis_1">
    <g id="xtick_1">
     <g id="line2d_1">
      <defs>
       <path id="mf01736a502" d="M 0 0 
L 0 -4 
" style="stroke: #000000; stroke-width: 0.8"/>
      </defs>
      <g>
       <use xlink:href="#mf01736a502" x="49.809091" y="239.558437" style="stroke: #000000; stroke-width: 0.8"/>
      </g>
     </g>
     <g id="text_1">
      <!-- −80 -->
      <g transform="translate(39.256747 250.656875) scale(0.1 -0.1)">
       <defs>
        <path id="DejaVuSans-2212" d="M 678 2272 
L 4684 2272 
L 4684 1741 
L 678 1741 
L 678 2272 
z
" transform="scale(0.015625)"/>
        <path id="DejaVuSans-38" d="M 2034 2216 
Q 1584 2216 1326 1975 
Q 1069 1734 1069 1313 
Q 1069 891 1326 650 
Q 1584 409 2034 409 
Q 2484 409 2743 651 
Q 3003 894 3003 1313 
Q 3003 1734 2745 1975 
Q 2488 2216 2034 2216 
z
M 1403 2484 
Q 997 2584 770 2862 
Q 544 3141 544 3541 
Q 544 4100 942 4425 
Q 1341 4750 2034 4750 
Q 2731 4750 3128 4425 
Q 3525 4100 3525 3541 
Q 3525 3141 3298 2862 
Q 3072 2584 2669 2484 
Q 3125 2378 3379 2068 
Q 3634 1759 3634 1313 
Q 3634 634 3220 271 
Q 2806 -91 2034 -91 
Q 1263 -91 848 271 
Q 434 634 434 1313 
Q 434 1759 690 2068 
Q 947 2378 1403 2484 
z
M 1172 3481 
Q 1172 3119 1398 2916 
Q 1625 2713 2034 2713 
Q 2441 2713 2670 2916 
Q 2900 3119 2900 3481 
Q 2900 3844 2670 4047 
Q 2441 4250 2034 4250 
Q 1625 4250 1398 4047 
Q 1172 3844 1172 3481 
z
" transform="scale(0.015625)"/>
        <path id="DejaVuSans-30" d="M 2034 4250 
Q 1547 4250 1301 3770 
Q 1056 3291 1056 2328 
Q 1056 1369 1301 889 
Q 1547 409 2034 409 
Q 2525 409 2770 889 
Q 3016 1369 3016 2328 
Q 3016 3291 2770 3770 
Q 2525 4250 2034 4250 
z
M 2034 4750 
Q 2819 4750 3233 4129 
Q 3647 3509 3647 2328 
Q 3647 1150 3233 529 
Q 2819 -91 2034 -91 
Q 1250 -91 836 529 
Q 422 1150 422 2328 
Q 422 3509 836 4129 
Q 1250 4750 2034 4750 
z
" transform="scale(0.015625)"/>
       </defs>
       <use xlink:href="#DejaVuSans-2212"/>
       <use xlink:href="#DejaVuSans-38" x="83.789062"/>
       <use xlink:href="#DejaVuSans-30" x="147.412109"/>
      </g>
     </g>
    </g>
    <g id="xtick_2">
     <g id="line2d_2">
      <g>
       <use xlink:href="#mf01736a502" x="87.854545" y="239.558437" style="stroke: #000000; stroke-width: 0.8"/>
      </g>
     </g>
     <g id="text_2">
      <!-- −60 -->
      <g transform="translate(77.302202 250.656875) scale(0.1 -0.1)">
       <defs>
        <path id="DejaVuSans-36" d="M 2113 2584 
Q 1688 2584 1439 2293 
Q 1191 2003 1191 1497 
Q 1191 994 1439 701 
Q 1688 409 2113 409 
Q 2538 409 2786 701 
Q 3034 994 3034 1497 
Q 3034 2003 2786 2293 
Q 2538 2584 2113 2584 
z
M 3366 4563 
L 3366 3988 
Q 3128 4100 2886 4159 
Q 2644 4219 2406 4219 
Q 1781 4219 1451 3797 
Q 1122 3375 1075 2522 
Q 1259 2794 1537 2939 
Q 1816 3084 2150 3084 
Q 2853 3084 3261 2657 
Q 3669 2231 3669 1497 
Q 3669 778 3244 343 
Q 2819 -91 2113 -91 
Q 1303 -91 875 529 
Q 447 1150 447 2328 
Q 447 3434 972 4092 
Q 1497 4750 2381 4750 
Q 2619 4750 2861 4703 
Q 3103 4656 3366 4563 
z
" transform="scale(0.015625)"/>
       </defs>
       <use xlink:href="#DejaVuSans-2212"/>
       <use xlink:href="#DejaVuSans-36" x="83.789062"/>
       <use xlink:href="#DejaVuSans-30" x="147.412109"/>
      </g>
     </g>
    </g>
    <g id="xtick_3">
     <g id="line2d_3">
      <g>
       <use xlink:href="#mf01736a502" x="125.9" y="239.558437" style="stroke: #000000; stroke-width: 0.8"/>
      </g>
     </g>
     <g id="text_3">
      <!-- −40 -->
      <g transform="translate(115.347656 250.656875) scale(0.1 -0.1)">
       <defs>
        <path id="DejaVuSans-34" d="M 2419 4116 
L 825 1625 
L 2419 1625 
L 2419 4116 
z
M 2253 4666 
L 3047 4666 
L 3047 1625 
L 3713 1625 
L 3713 1100 
L 3047 1100 
L 3047 0 
L 2419 0 
L 2419 1100 
L 313 1100 
L 313 1709 
L 2253 4666 
z
" transform="scale(0.015625)"/>
       </defs>
       <use xlink:href="#DejaVuSans-2212"/>
       <use xlink:href="#DejaVuSans-34" x="83.789062"/>
       <use xlink:href="#DejaVuSans-30" x="147.412109"/>
      </g>
     </g>
    </g>
    <g id="xtick_4">
     <g id="line2d_4">
      <g>
       <use xlink:href="#mf01736a502" x="163.945455" y="239.558437" style="stroke: #000000; stroke-width: 0.8"/>
      </g>
     </g>
     <g id="text_4">
      <!-- −20 -->
      <g transform="translate(153.393111 250.656875) scale(0.1 -0.1)">
       <defs>
        <path id="DejaVuSans-32" d="M 1228 531 
L 3431 531 
L 3431 0 
L 469 0 
L 469 531 
Q 828 903 1448 1529 
Q 2069 2156 2228 2338 
Q 2531 2678 2651 2914 
Q 2772 3150 2772 3378 
Q 2772 3750 2511 3984 
Q 2250 4219 1831 4219 
Q 1534 4219 1204 4116 
Q 875 4013 500 3803 
L 500 4441 
Q 881 4594 1212 4672 
Q 1544 4750 1819 4750 
Q 2544 4750 2975 4387 
Q 3406 4025 3406 3419 
Q 3406 3131 3298 2873 
Q 3191 2616 2906 2266 
Q 2828 2175 2409 1742 
Q 1991 1309 1228 531 
z
" transform="scale(0.015625)"/>
       </defs>
       <use xlink:href="#DejaVuSans-2212"/>
       <use xlink:href="#DejaVuSans-32" x="83.789062"/>
       <use xlink:href="#DejaVuSans-30" x="147.412109"/>
      </g>
     </g>
    </g>
    <g id="xtick_5">
     <g id="line2d_5">
      <g>
       <use xlink:href="#mf01736a502" x="201.990909" y="239.558437" style="stroke: #000000; stroke-width: 0.8"/>
      </g>
     </g>
     <g id="text_5">
      <!-- 0 -->
      <g transform="translate(198.809659 250.656875) scale(0.1 -0.1)">
       <use xlink:href="#DejaVuSans-30"/>
      </g>
     </g>
    </g>
    <g id="xtick_6">
     <g id="line2d_6">
      <defs>
       <path id="ma5ff19f2b5" d="M 0 0 
L 0 -3 
" style="stroke: #000000; stroke-width: 0.6"/>
      </defs>
      <g>
       <use xlink:href="#ma5ff19f2b5" x="68.831818" y="239.558437" style="stroke: #000000; stroke-width: 0.6"/>
      </g>
     </g>
    </g>
    <g id="xtick_7">
     <g id="line2d_7">
      <g>
       <use xlink:href="#ma5ff19f2b5" x="106.877273" y="239.558437" style="stroke: #000000; stroke-width: 0.6"/>
      </g>
     </g>
    </g>
    <g id="xtick_8">
     <g id="line2d_8">
      <g>
       <use xlink:href="#ma5ff19f2b5" x="144.922727" y="239.558437" style="stroke: #000000; stroke-width: 0.6"/>
      </g>
     </g>
    </g>
    <g id="xtick_9">
     <g id="line2d_9">
      <g>
       <use xlink:href="#ma5ff19f2b5" x="182.968182" y="239.558437" style="stroke: #000000; stroke-width: 0.6"/>
      </g>
     </g>
    </g>
    <g id="text_6">
     <!-- V$_G$ (V) -->
     <g transform="translate(110.65 264.335) scale(0.1 -0.1)">
      <defs>
       <path id="DejaVuSans-56" d="M 1831 0 
L 50 4666 
L 709 4666 
L 2188 738 
L 3669 4666 
L 4325 4666 
L 2547 0 
L 1831 0 
z
" transform="scale(0.015625)"/>
       <path id="DejaVuSans-Oblique-47" d="M 3494 697 
L 3738 1919 
L 2700 1919 
L 2797 2438 
L 4453 2438 
L 4050 384 
Q 3634 156 3143 32 
Q 2653 -91 2156 -91 
Q 1278 -91 783 396 
Q 288 884 288 1753 
Q 288 2475 589 3126 
Q 891 3778 1422 4213 
Q 1756 4484 2153 4617 
Q 2550 4750 3034 4750 
Q 3472 4750 3873 4639 
Q 4275 4528 4641 4306 
L 4513 3634 
Q 4231 3928 3853 4083 
Q 3475 4238 3047 4238 
Q 2550 4238 2172 4048 
Q 1794 3859 1497 3463 
Q 1244 3125 1098 2667 
Q 953 2209 953 1734 
Q 953 1081 1287 751 
Q 1622 422 2284 422 
Q 2616 422 2925 492 
Q 3234 563 3494 697 
z
" transform="scale(0.015625)"/>
       <path id="DejaVuSans-20" transform="scale(0.015625)"/>
       <path id="DejaVuSans-28" d="M 1984 4856 
Q 1566 4138 1362 3434 
Q 1159 2731 1159 2009 
Q 1159 1288 1364 580 
Q 1569 -128 1984 -844 
L 1484 -844 
Q 1016 -109 783 600 
Q 550 1309 550 2009 
Q 550 2706 781 3412 
Q 1013 4119 1484 4856 
L 1984 4856 
z
" transform="scale(0.015625)"/>
       <path id="DejaVuSans-29" d="M 513 4856 
L 1013 4856 
Q 1481 4119 1714 3412 
Q 1947 2706 1947 2009 
Q 1947 1309 1714 600 
Q 1481 -109 1013 -844 
L 513 -844 
Q 928 -128 1133 580 
Q 1338 1288 1338 2009 
Q 1338 2731 1133 3434 
Q 928 4138 513 4856 
z
" transform="scale(0.015625)"/>
      </defs>
      <use xlink:href="#DejaVuSans-56" transform="translate(0 0.125)"/>
      <use xlink:href="#DejaVuSans-Oblique-47" transform="translate(69.365234 -16.28125) scale(0.7)"/>
      <use xlink:href="#DejaVuSans-20" transform="translate(126.342773 0.125)"/>
      <use xlink:href="#DejaVuSans-28" transform="translate(158.129883 0.125)"/>
      <use xlink:href="#DejaVuSans-56" transform="translate(197.143555 0.125)"/>
      <use xlink:href="#DejaVuSans-29" transform="translate(265.551758 0.125)"/>
     </g>
    </g>
   </g>
   <g id="matplotlib.axis_2">
    <g id="ytick_1">
     <g id="line2d_10">
      <defs>
       <path id="md313396668" d="M 0 0 
L 4 0 
" style="stroke: #000000; stroke-width: 0.8"/>
      </defs>
      <g>
       <use xlink:href="#md313396668" x="42.2" y="235.535787" style="stroke: #000000; stroke-width: 0.8"/>
      </g>
     </g>
     <g id="text_7">
      <!-- $\mathdefault{0.0}$ -->
      <g transform="translate(22.7 239.335006) scale(0.1 -0.1)">
       <defs>
        <path id="DejaVuSans-2e" d="M 684 794 
L 1344 794 
L 1344 0 
L 684 0 
L 684 794 
z
" transform="scale(0.015625)"/>
       </defs>
       <use xlink:href="#DejaVuSans-30" transform="translate(0 0.78125)"/>
       <use xlink:href="#DejaVuSans-2e" transform="translate(63.623047 0.78125)"/>
       <use xlink:href="#DejaVuSans-30" transform="translate(95.410156 0.78125)"/>
      </g>
     </g>
    </g>
    <g id="ytick_2">
     <g id="line2d_11">
      <g>
       <use xlink:href="#md313396668" x="42.2" y="209.449428" style="stroke: #000000; stroke-width: 0.8"/>
      </g>
     </g>
     <g id="text_8">
      <!-- $\mathdefault{0.2}$ -->
      <g transform="translate(23.3 213.248646) scale(0.1 -0.1)">
       <use xlink:href="#DejaVuSans-30" transform="translate(0 0.78125)"/>
       <use xlink:href="#DejaVuSans-2e" transform="translate(63.623047 0.78125)"/>
       <use xlink:href="#DejaVuSans-32" transform="translate(89.910156 0.78125)"/>
      </g>
     </g>
    </g>
    <g id="ytick_3">
     <g id="line2d_12">
      <g>
       <use xlink:href="#md313396668" x="42.2" y="183.363068" style="stroke: #000000; stroke-width: 0.8"/>
      </g>
     </g>
     <g id="text_9">
      <!-- $\mathdefault{0.4}$ -->
      <g transform="translate(22.7 187.162287) scale(0.1 -0.1)">
       <use xlink:href="#DejaVuSans-30" transform="translate(0 0.78125)"/>
       <use xlink:href="#DejaVuSans-2e" transform="translate(63.623047 0.78125)"/>
       <use xlink:href="#DejaVuSans-34" transform="translate(95.410156 0.78125)"/>
      </g>
     </g>
    </g>
    <g id="ytick_4">
     <g id="line2d_13">
      <g>
       <use xlink:href="#md313396668" x="42.2" y="157.276708" style="stroke: #000000; stroke-width: 0.8"/>
      </g>
     </g>
     <g id="text_10">
      <!-- $\mathdefault{0.6}$ -->
      <g transform="translate(22.7 161.075927) scale(0.1 -0.1)">
       <use xlink:href="#DejaVuSans-30" transform="translate(0 0.78125)"/>
       <use xlink:href="#DejaVuSans-2e" transform="translate(63.623047 0.78125)"/>
       <use xlink:href="#DejaVuSans-36" transform="translate(95.410156 0.78125)"/>
      </g>
     </g>
    </g>
    <g id="ytick_5">
     <g id="line2d_14">
      <g>
       <use xlink:href="#md313396668" x="42.2" y="131.190348" style="stroke: #000000; stroke-width: 0.8"/>
      </g>
     </g>
     <g id="text_11">
      <!-- $\mathdefault{0.8}$ -->
      <g transform="translate(23 134.989567) scale(0.1 -0.1)">
       <use xlink:href="#DejaVuSans-30" transform="translate(0 0.78125)"/>
       <use xlink:href="#DejaVuSans-2e" transform="translate(63.623047 0.78125)"/>
       <use xlink:href="#DejaVuSans-38" transform="translate(92.785156 0.78125)"/>
      </g>
     </g>
    </g>
    <g id="ytick_6">
     <g id="line2d_15">
      <g>
       <use xlink:href="#md313396668" x="42.2" y="105.103988" style="stroke: #000000; stroke-width: 0.8"/>
      </g>
     </g>
     <g id="text_12">
      <!-- $\mathdefault{1.0}$ -->
      <g transform="translate(22.7 108.903207) scale(0.1 -0.1)">
       <defs>
        <path id="DejaVuSans-31" d="M 794 531 
L 1825 531 
L 1825 4091 
L 703 3866 
L 703 4441 
L 1819 4666 
L 2450 4666 
L 2450 531 
L 3481 531 
L 3481 0 
L 794 0 
L 794 531 
z
" transform="scale(0.015625)"/>
       </defs>
       <use xlink:href="#DejaVuSans-31" transform="translate(0 0.78125)"/>
       <use xlink:href="#DejaVuSans-2e" transform="translate(63.623047 0.78125)"/>
       <use xlink:href="#DejaVuSans-30" transform="translate(95.410156 0.78125)"/>
      </g>
     </g>
    </g>
    <g id="ytick_7">
     <g id="line2d_16">
      <g>
       <use xlink:href="#md313396668" x="42.2" y="79.017629" style="stroke: #000000; stroke-width: 0.8"/>
      </g>
     </g>
     <g id="text_13">
      <!-- $\mathdefault{1.2}$ -->
      <g transform="translate(23.3 82.816847) scale(0.1 -0.1)">
       <use xlink:href="#DejaVuSans-31" transform="translate(0 0.78125)"/>
       <use xlink:href="#DejaVuSans-2e" transform="translate(63.623047 0.78125)"/>
       <use xlink:href="#DejaVuSans-32" transform="translate(89.910156 0.78125)"/>
      </g>
     </g>
    </g>
    <g id="ytick_8">
     <g id="line2d_17">
      <g>
       <use xlink:href="#md313396668" x="42.2" y="52.931269" style="stroke: #000000; stroke-width: 0.8"/>
      </g>
     </g>
     <g id="text_14">
      <!-- $\mathdefault{1.4}$ -->
      <g transform="translate(22.7 56.730488) scale(0.1 -0.1)">
       <use xlink:href="#DejaVuSans-31" transform="translate(0 0.09375)"/>
       <use xlink:href="#DejaVuSans-2e" transform="translate(63.623047 0.09375)"/>
       <use xlink:href="#DejaVuSans-34" transform="translate(95.410156 0.09375)"/>
      </g>
     </g>
    </g>
    <g id="ytick_9">
     <g id="line2d_18">
      <g>
       <use xlink:href="#md313396668" x="42.2" y="26.844909" style="stroke: #000000; stroke-width: 0.8"/>
      </g>
     </g>
     <g id="text_15">
      <!-- $\mathdefault{1.6}$ -->
      <g transform="translate(22.7 30.644128) scale(0.1 -0.1)">
       <use xlink:href="#DejaVuSans-31" transform="translate(0 0.78125)"/>
       <use xlink:href="#DejaVuSans-2e" transform="translate(63.623047 0.78125)"/>
       <use xlink:href="#DejaVuSans-36" transform="translate(95.410156 0.78125)"/>
      </g>
     </g>
    </g>
    <g id="text_16">
     <!-- $|\mathregular{I_{D}}|^{1/2}$ ($A^{1/2}$) -->
     <g transform="translate(16.3 157.028437) rotate(-90) scale(0.1 -0.1)">
      <defs>
       <path id="DejaVuSans-7c" d="M 1344 4891 
L 1344 -1509 
L 813 -1509 
L 813 4891 
L 1344 4891 
z
" transform="scale(0.015625)"/>
       <path id="DejaVuSans-49" d="M 628 4666 
L 1259 4666 
L 1259 0 
L 628 0 
L 628 4666 
z
" transform="scale(0.015625)"/>
       <path id="DejaVuSans-44" d="M 1259 4147 
L 1259 519 
L 2022 519 
Q 2988 519 3436 956 
Q 3884 1394 3884 2338 
Q 3884 3275 3436 3711 
Q 2988 4147 2022 4147 
L 1259 4147 
z
M 628 4666 
L 1925 4666 
Q 3281 4666 3915 4102 
Q 4550 3538 4550 2338 
Q 4550 1131 3912 565 
Q 3275 0 1925 0 
L 628 0 
L 628 4666 
z
" transform="scale(0.015625)"/>
       <path id="DejaVuSans-2f" d="M 1625 4666 
L 2156 4666 
L 531 -594 
L 0 -594 
L 1625 4666 
z
" transform="scale(0.015625)"/>
       <path id="DejaVuSans-Oblique-41" d="M 2356 4666 
L 3072 4666 
L 3938 0 
L 3278 0 
L 3084 1197 
L 984 1197 
L 325 0 
L -341 0 
L 2356 4666 
z
M 2584 4044 
L 1275 1722 
L 2988 1722 
L 2584 4044 
z
" transform="scale(0.015625)"/>
      </defs>
      <use xlink:href="#DejaVuSans-7c" transform="translate(0 0.765625)"/>
      <use xlink:href="#DejaVuSans-49" transform="translate(33.691406 0.765625)"/>
      <use xlink:href="#DejaVuSans-44" transform="translate(64.140625 -15.640625) scale(0.7)"/>
      <use xlink:href="#DejaVuSans-7c" transform="translate(120.776367 0.765625)"/>
      <use xlink:href="#DejaVuSans-31" transform="translate(155.424805 39.046875) scale(0.7)"/>
      <use xlink:href="#DejaVuSans-2f" transform="translate(199.960938 39.046875) scale(0.7)"/>
      <use xlink:href="#DejaVuSans-32" transform="translate(221.007422 39.046875) scale(0.7)"/>
      <use xlink:href="#DejaVuSans-20" transform="translate(268.27793 0.765625)"/>
      <use xlink:href="#DejaVuSans-28" transform="translate(300.065039 0.765625)"/>
      <use xlink:href="#DejaVuSans-Oblique-41" transform="translate(339.078711 0.765625)"/>
      <use xlink:href="#DejaVuSans-31" transform="translate(414.503685 39.046875) scale(0.7)"/>
      <use xlink:href="#DejaVuSans-2f" transform="translate(459.039818 39.046875) scale(0.7)"/>
      <use xlink:href="#DejaVuSans-32" transform="translate(480.086302 39.046875) scale(0.7)"/>
      <use xlink:href="#DejaVuSans-29" transform="translate(527.35681 0.765625)"/>
     </g>
    </g>
    <g id="text_17">
     <!-- $\times\mathdefault{10^{−4}}\mathdefault{}$ -->
     <g transform="translate(42.2 14.798438) scale(0.1 -0.1)">
      <defs>
       <path id="DejaVuSans-d7" d="M 4488 3438 
L 3059 2003 
L 4488 575 
L 4116 197 
L 2681 1631 
L 1247 197 
L 878 575 
L 2303 2003 
L 878 3438 
L 1247 3816 
L 2681 2381 
L 4116 3816 
L 4488 3438 
z
" transform="scale(0.015625)"/>
      </defs>
      <use xlink:href="#DejaVuSans-d7" transform="translate(0 0.684375)"/>
      <use xlink:href="#DejaVuSans-31" transform="translate(83.789062 0.684375)"/>
      <use xlink:href="#DejaVuSans-30" transform="translate(147.412109 0.684375)"/>
      <use xlink:href="#DejaVuSans-2212" transform="translate(211.992188 38.965625) scale(0.7)"/>
      <use xlink:href="#DejaVuSans-34" transform="translate(270.644531 38.965625) scale(0.7)"/>
     </g>
    </g>
   </g>
   <g id="line2d_19">
    <path d="M 201.990909 228.580328 
L 198.186364 227.100695 
L 194.381818 229.478437 
L 190.577273 227.62103 
L 186.772727 227.659123 
L 182.968182 225.764915 
L 179.163636 227.02968 
L 175.359091 225.150974 
L 171.554545 226.668602 
L 167.75 228.403432 
L 163.945455 228.289876 
L 160.140909 225.368398 
L 156.336364 222.537978 
L 152.531818 221.031892 
L 148.727273 219.782258 
L 144.922727 219.222181 
L 141.118182 218.591716 
L 137.313636 218.188257 
L 133.509091 218.71643 
L 129.704545 221.686551 
L 125.9 186.531583 
L 122.095455 169.05344 
L 118.290909 159.93529 
L 114.486364 154.187371 
L 110.681818 144.119466 
L 106.877273 131.282769 
L 103.072727 127.244533 
L 99.268182 119.678952 
L 95.463636 112.738502 
L 91.659091 104.092445 
L 87.854545 96.916752 
L 84.05 89.2055 
L 80.245455 82.726155 
L 76.440909 76.176189 
L 72.636364 69.038985 
L 68.831818 62.494856 
L 65.027273 53.204657 
L 61.222727 45.84009 
L 57.418182 38.979028 
L 53.613636 36.568041 
L 49.809091 30.938238 
" clip-path="url(#pbde35376cd)" style="fill: none; stroke-dasharray: 1.5,2.475; stroke-dashoffset: 0; stroke: #8286ff; stroke-width: 1.5"/>
   </g>
   <g id="line2d_20">
    <path d="M 49.809091 27.878438 
L 53.613636 30.55407 
L 57.418182 35.574355 
L 61.222727 43.072251 
L 65.027273 51.424503 
L 68.831818 58.796416 
L 72.636364 65.957075 
L 76.440909 72.961304 
L 80.245455 79.988941 
L 84.05 87.087035 
L 87.854545 94.385159 
L 91.659091 102.484856 
L 95.463636 109.668714 
L 99.268182 116.229025 
L 103.072727 122.871925 
L 106.877273 131.554721 
L 110.681818 136.356424 
L 114.486364 141.923161 
L 118.290909 148.025521 
L 122.095455 154.181032 
L 125.9 159.8745 
L 129.704545 165.447977 
L 133.509091 170.556241 
L 137.313636 182.843988 
L 141.118182 191.449976 
L 144.922727 196.342057 
L 148.727273 200.987016 
L 152.531818 208.574462 
L 156.336364 210.045694 
L 160.140909 214.160329 
L 163.945455 216.205999 
L 167.75 220.157526 
L 171.554545 220.697878 
L 175.359091 223.154053 
L 179.163636 222.208127 
L 182.968182 224.311684 
L 186.772727 223.570536 
L 190.577273 225.238022 
L 194.381818 223.04694 
L 198.186364 225.568783 
L 201.990909 224.96623 
" clip-path="url(#pbde35376cd)" style="fill: none; stroke-dasharray: 1.5,2.475; stroke-dashoffset: 0; stroke: #f5c92a; stroke-width: 1.5"/>
   </g>
   <g id="line2d_21">
    <path d="M 87.854545 96.916752 
L 125.9 186.531583 
" clip-path="url(#pbde35376cd)" style="fill: none; stroke-dasharray: 5.55,2.4; stroke-dashoffset: 0; stroke: #ff0000; stroke-width: 1.5"/>
   </g>
   <g id="patch_3">
    <path d="M 42.2 239.558437 
L 42.2 17.798438 
" style="fill: none; stroke: #000000; stroke-width: 0.8; stroke-linejoin: miter; stroke-linecap: square"/>
   </g>
   <g id="patch_4">
    <path d="M 209.6 239.558437 
L 209.6 17.798438 
" style="fill: none; stroke: #000000; stroke-width: 0.8; stroke-linejoin: miter; stroke-linecap: square"/>
   </g>
   <g id="patch_5">
    <path d="M 42.2 239.558437 
L 209.6 239.558437 
" style="fill: none; stroke: #000000; stroke-width: 0.8; stroke-linejoin: miter; stroke-linecap: square"/>
   </g>
  </g>
  <g id="axes_2">
   <g id="matplotlib.axis_3">
    <g id="ytick_10">
     <g id="line2d_22">
      <defs>
       <path id="m557359d212" d="M 0 0 
L -4 0 
" style="stroke: #000000; stroke-width: 0.8"/>
      </defs>
      <g>
       <use xlink:href="#m557359d212" x="209.6" y="185.732316" style="stroke: #000000; stroke-width: 0.8"/>
      </g>
     </g>
     <g id="text_18">
      <!-- $\mathdefault{10^{-10}}$ -->
      <g transform="translate(213.1 189.531534) scale(0.1 -0.1)">
       <use xlink:href="#DejaVuSans-31" transform="translate(0 0.765625)"/>
       <use xlink:href="#DejaVuSans-30" transform="translate(63.623047 0.765625)"/>
       <use xlink:href="#DejaVuSans-2212" transform="translate(128.203125 39.046875) scale(0.7)"/>
       <use xlink:href="#DejaVuSans-31" transform="translate(186.855469 39.046875) scale(0.7)"/>
       <use xlink:href="#DejaVuSans-30" transform="translate(231.391602 39.046875) scale(0.7)"/>
      </g>
     </g>
    </g>
    <g id="ytick_11">
     <g id="line2d_23">
      <g>
       <use xlink:href="#m557359d212" x="209.6" y="120.067328" style="stroke: #000000; stroke-width: 0.8"/>
      </g>
     </g>
     <g id="text_19">
      <!-- $\mathdefault{10^{-9}}$ -->
      <g transform="translate(213.1 123.866547) scale(0.1 -0.1)">
       <defs>
        <path id="DejaVuSans-39" d="M 703 97 
L 703 672 
Q 941 559 1184 500 
Q 1428 441 1663 441 
Q 2288 441 2617 861 
Q 2947 1281 2994 2138 
Q 2813 1869 2534 1725 
Q 2256 1581 1919 1581 
Q 1219 1581 811 2004 
Q 403 2428 403 3163 
Q 403 3881 828 4315 
Q 1253 4750 1959 4750 
Q 2769 4750 3195 4129 
Q 3622 3509 3622 2328 
Q 3622 1225 3098 567 
Q 2575 -91 1691 -91 
Q 1453 -91 1209 -44 
Q 966 3 703 97 
z
M 1959 2075 
Q 2384 2075 2632 2365 
Q 2881 2656 2881 3163 
Q 2881 3666 2632 3958 
Q 2384 4250 1959 4250 
Q 1534 4250 1286 3958 
Q 1038 3666 1038 3163 
Q 1038 2656 1286 2365 
Q 1534 2075 1959 2075 
z
" transform="scale(0.015625)"/>
       </defs>
       <use xlink:href="#DejaVuSans-31" transform="translate(0 0.765625)"/>
       <use xlink:href="#DejaVuSans-30" transform="translate(63.623047 0.765625)"/>
       <use xlink:href="#DejaVuSans-2212" transform="translate(128.203125 39.046875) scale(0.7)"/>
       <use xlink:href="#DejaVuSans-39" transform="translate(186.855469 39.046875) scale(0.7)"/>
      </g>
     </g>
    </g>
    <g id="ytick_12">
     <g id="line2d_24">
      <g>
       <use xlink:href="#m557359d212" x="209.6" y="54.402341" style="stroke: #000000; stroke-width: 0.8"/>
      </g>
     </g>
     <g id="text_20">
      <!-- $\mathdefault{10^{-8}}$ -->
      <g transform="translate(213.1 58.20156) scale(0.1 -0.1)">
       <use xlink:href="#DejaVuSans-31" transform="translate(0 0.765625)"/>
       <use xlink:href="#DejaVuSans-30" transform="translate(63.623047 0.765625)"/>
       <use xlink:href="#DejaVuSans-2212" transform="translate(128.203125 39.046875) scale(0.7)"/>
       <use xlink:href="#DejaVuSans-38" transform="translate(186.855469 39.046875) scale(0.7)"/>
      </g>
     </g>
    </g>
    <g id="ytick_13">
     <g id="line2d_25">
      <defs>
       <path id="m44e0b4e3c9" d="M 0 0 
L -2 0 
" style="stroke: #000000; stroke-width: 0.6"/>
      </defs>
      <g>
       <use xlink:href="#m44e0b4e3c9" x="209.6" y="231.630172" style="stroke: #000000; stroke-width: 0.6"/>
      </g>
     </g>
    </g>
    <g id="ytick_14">
     <g id="line2d_26">
      <g>
       <use xlink:href="#m44e0b4e3c9" x="209.6" y="220.067142" style="stroke: #000000; stroke-width: 0.6"/>
      </g>
     </g>
    </g>
    <g id="ytick_15">
     <g id="line2d_27">
      <g>
       <use xlink:href="#m44e0b4e3c9" x="209.6" y="211.863041" style="stroke: #000000; stroke-width: 0.6"/>
      </g>
     </g>
    </g>
    <g id="ytick_16">
     <g id="line2d_28">
      <g>
       <use xlink:href="#m44e0b4e3c9" x="209.6" y="205.499446" style="stroke: #000000; stroke-width: 0.6"/>
      </g>
     </g>
    </g>
    <g id="ytick_17">
     <g id="line2d_29">
      <g>
       <use xlink:href="#m44e0b4e3c9" x="209.6" y="200.300011" style="stroke: #000000; stroke-width: 0.6"/>
      </g>
     </g>
    </g>
    <g id="ytick_18">
     <g id="line2d_30">
      <g>
       <use xlink:href="#m44e0b4e3c9" x="209.6" y="195.903951" style="stroke: #000000; stroke-width: 0.6"/>
      </g>
     </g>
    </g>
    <g id="ytick_19">
     <g id="line2d_31">
      <g>
       <use xlink:href="#m44e0b4e3c9" x="209.6" y="192.09591" style="stroke: #000000; stroke-width: 0.6"/>
      </g>
     </g>
    </g>
    <g id="ytick_20">
     <g id="line2d_32">
      <g>
       <use xlink:href="#m44e0b4e3c9" x="209.6" y="188.736981" style="stroke: #000000; stroke-width: 0.6"/>
      </g>
     </g>
    </g>
    <g id="ytick_21">
     <g id="line2d_33">
      <g>
       <use xlink:href="#m44e0b4e3c9" x="209.6" y="165.965185" style="stroke: #000000; stroke-width: 0.6"/>
      </g>
     </g>
    </g>
    <g id="ytick_22">
     <g id="line2d_34">
      <g>
       <use xlink:href="#m44e0b4e3c9" x="209.6" y="154.402155" style="stroke: #000000; stroke-width: 0.6"/>
      </g>
     </g>
    </g>
    <g id="ytick_23">
     <g id="line2d_35">
      <g>
       <use xlink:href="#m44e0b4e3c9" x="209.6" y="146.198054" style="stroke: #000000; stroke-width: 0.6"/>
      </g>
     </g>
    </g>
    <g id="ytick_24">
     <g id="line2d_36">
      <g>
       <use xlink:href="#m44e0b4e3c9" x="209.6" y="139.834459" style="stroke: #000000; stroke-width: 0.6"/>
      </g>
     </g>
    </g>
    <g id="ytick_25">
     <g id="line2d_37">
      <g>
       <use xlink:href="#m44e0b4e3c9" x="209.6" y="134.635024" style="stroke: #000000; stroke-width: 0.6"/>
      </g>
     </g>
    </g>
    <g id="ytick_26">
     <g id="line2d_38">
      <g>
       <use xlink:href="#m44e0b4e3c9" x="209.6" y="130.238964" style="stroke: #000000; stroke-width: 0.6"/>
      </g>
     </g>
    </g>
    <g id="ytick_27">
     <g id="line2d_39">
      <g>
       <use xlink:href="#m44e0b4e3c9" x="209.6" y="126.430923" style="stroke: #000000; stroke-width: 0.6"/>
      </g>
     </g>
    </g>
    <g id="ytick_28">
     <g id="line2d_40">
      <g>
       <use xlink:href="#m44e0b4e3c9" x="209.6" y="123.071993" style="stroke: #000000; stroke-width: 0.6"/>
      </g>
     </g>
    </g>
    <g id="ytick_29">
     <g id="line2d_41">
      <g>
       <use xlink:href="#m44e0b4e3c9" x="209.6" y="100.300198" style="stroke: #000000; stroke-width: 0.6"/>
      </g>
     </g>
    </g>
    <g id="ytick_30">
     <g id="line2d_42">
      <g>
       <use xlink:href="#m44e0b4e3c9" x="209.6" y="88.737167" style="stroke: #000000; stroke-width: 0.6"/>
      </g>
     </g>
    </g>
    <g id="ytick_31">
     <g id="line2d_43">
      <g>
       <use xlink:href="#m44e0b4e3c9" x="209.6" y="80.533067" style="stroke: #000000; stroke-width: 0.6"/>
      </g>
     </g>
    </g>
    <g id="ytick_32">
     <g id="line2d_44">
      <g>
       <use xlink:href="#m44e0b4e3c9" x="209.6" y="74.169472" style="stroke: #000000; stroke-width: 0.6"/>
      </g>
     </g>
    </g>
    <g id="ytick_33">
     <g id="line2d_45">
      <g>
       <use xlink:href="#m44e0b4e3c9" x="209.6" y="68.970037" style="stroke: #000000; stroke-width: 0.6"/>
      </g>
     </g>
    </g>
    <g id="ytick_34">
     <g id="line2d_46">
      <g>
       <use xlink:href="#m44e0b4e3c9" x="209.6" y="64.573976" style="stroke: #000000; stroke-width: 0.6"/>
      </g>
     </g>
    </g>
    <g id="ytick_35">
     <g id="line2d_47">
      <g>
       <use xlink:href="#m44e0b4e3c9" x="209.6" y="60.765936" style="stroke: #000000; stroke-width: 0.6"/>
      </g>
     </g>
    </g>
    <g id="ytick_36">
     <g id="line2d_48">
      <g>
       <use xlink:href="#m44e0b4e3c9" x="209.6" y="57.407006" style="stroke: #000000; stroke-width: 0.6"/>
      </g>
     </g>
    </g>
    <g id="ytick_37">
     <g id="line2d_49">
      <g>
       <use xlink:href="#m44e0b4e3c9" x="209.6" y="34.63521" style="stroke: #000000; stroke-width: 0.6"/>
      </g>
     </g>
    </g>
    <g id="ytick_38">
     <g id="line2d_50">
      <g>
       <use xlink:href="#m44e0b4e3c9" x="209.6" y="23.07218" style="stroke: #000000; stroke-width: 0.6"/>
      </g>
     </g>
    </g>
    <g id="text_21">
     <!-- $|\mathregular{I_{D}}|$ (A) -->
     <g transform="translate(252.7 145.328438) rotate(-90) scale(0.1 -0.1)">
      <defs>
       <path id="DejaVuSans-41" d="M 2188 4044 
L 1331 1722 
L 3047 1722 
L 2188 4044 
z
M 1831 4666 
L 2547 4666 
L 4325 0 
L 3669 0 
L 3244 1197 
L 1141 1197 
L 716 0 
L 50 0 
L 1831 4666 
z
" transform="scale(0.015625)"/>
      </defs>
      <use xlink:href="#DejaVuSans-7c" transform="translate(0 0.578125)"/>
      <use xlink:href="#DejaVuSans-49" transform="translate(33.691406 0.578125)"/>
      <use xlink:href="#DejaVuSans-44" transform="translate(64.140625 -15.828125) scale(0.7)"/>
      <use xlink:href="#DejaVuSans-7c" transform="translate(120.776367 0.578125)"/>
      <use xlink:href="#DejaVuSans-20" transform="translate(154.467773 0.578125)"/>
      <use xlink:href="#DejaVuSans-28" transform="translate(186.254883 0.578125)"/>
      <use xlink:href="#DejaVuSans-41" transform="translate(225.268555 0.578125)"/>
      <use xlink:href="#DejaVuSans-29" transform="translate(293.676758 0.578125)"/>
     </g>
    </g>
   </g>
   <g id="line2d_51">
    <path d="M 201.990909 221.592972 
L 198.186364 210.592241 
L 194.381818 229.478437 
L 190.577273 214.223813 
L 186.772727 214.498986 
L 182.968182 202.20768 
L 179.163636 210.11407 
L 175.359091 198.731983 
L 171.554545 207.742914 
L 167.75 220.160535 
L 163.945455 219.259604 
L 160.140909 199.938808 
L 156.336364 185.931061 
L 152.531818 179.677851 
L 148.727273 174.963995 
L 144.922727 172.971441 
L 141.118182 170.808728 
L 137.313636 169.466549 
L 133.509091 171.230082 
L 129.704545 182.312174 
L 125.9 110.237299 
L 122.095455 92.839622 
L 118.290909 85.509005 
L 114.486364 81.329501 
L 110.681818 74.674402 
L 106.877273 67.180071 
L 103.072727 65.012503 
L 99.268182 61.160821 
L 95.463636 57.842493 
L 91.659091 53.961715 
L 87.854545 50.930057 
L 84.05 47.842312 
L 80.245455 45.371141 
L 76.440909 42.977324 
L 72.636364 40.47842 
L 68.831818 38.27957 
L 65.027273 35.296806 
L 61.222727 33.038369 
L 57.418182 31.011882 
L 53.613636 30.31653 
L 49.809091 28.725106 
" clip-path="url(#pbde35376cd)" style="fill: none; stroke: #8286ff; stroke-width: 1.5; stroke-linecap: square"/>
   </g>
   <g id="line2d_52">
    <path d="M 49.809091 27.878438 
L 53.613636 28.618111 
L 57.418182 30.03239 
L 61.222727 32.212175 
L 65.027273 34.742648 
L 68.831818 37.073374 
L 72.636364 39.43232 
L 76.440909 41.838147 
L 80.245455 44.358523 
L 84.05 47.022507 
L 87.854545 49.897811 
L 91.659091 53.268381 
L 95.463636 56.434193 
L 99.268182 59.487231 
L 103.072727 62.754776 
L 106.877273 67.329048 
L 110.681818 70.025639 
L 114.486364 73.3203 
L 118.290909 77.16504 
L 122.095455 81.325057 
L 125.9 85.463161 
L 129.704545 89.827418 
L 133.509091 94.143686 
L 137.313636 106.099132 
L 141.118182 116.269876 
L 144.922727 122.978505 
L 148.727273 130.173286 
L 152.531818 144.316389 
L 156.336364 147.516876 
L 160.140909 157.557839 
L 163.945455 163.295428 
L 167.75 176.339103 
L 171.554545 178.379249 
L 175.359091 188.700635 
L 179.163636 184.501697 
L 182.968182 194.299207 
L 186.772727 190.652152 
L 190.577273 199.21209 
L 194.381818 188.209347 
L 198.186364 201.07413 
L 201.990909 197.726247 
" clip-path="url(#pbde35376cd)" style="fill: none; stroke: #f5c92a; stroke-width: 1.5; stroke-linecap: square"/>
   </g>
   <g id="patch_6">
    <path d="M 42.2 239.558438 
L 42.2 17.798438 
" style="fill: none; stroke: #000000; stroke-width: 0.8; stroke-linejoin: miter; stroke-linecap: square"/>
   </g>
   <g id="patch_7">
    <path d="M 209.6 239.558438 
L 209.6 17.798438 
" style="fill: none; stroke: #000000; stroke-width: 0.8; stroke-linejoin: miter; stroke-linecap: square"/>
   </g>
   <g id="patch_8">
    <path d="M 42.2 239.558437 
L 209.6 239.558437 
" style="fill: none; stroke: #000000; stroke-width: 0.8; stroke-linejoin: miter; stroke-linecap: square"/>
   </g>
   <g id="legend_1">
    <g id="line2d_53">
     <path d="M 130.5 30.896875 
L 140.5 30.896875 
L 150.5 30.896875 
" style="fill: none; stroke: #8286ff; stroke-width: 1.5; stroke-linecap: square"/>
    </g>
    <g id="text_22">
     <!-- $\mathregular{I_{D}}$, up -->
     <g transform="translate(158.5 34.396875) scale(0.1 -0.1)">
      <defs>
       <path id="DejaVuSans-2c" d="M 750 794 
L 1409 794 
L 1409 256 
L 897 -744 
L 494 -744 
L 750 256 
L 750 794 
z
" transform="scale(0.015625)"/>
       <path id="DejaVuSans-75" d="M 544 1381 
L 544 3500 
L 1119 3500 
L 1119 1403 
Q 1119 906 1312 657 
Q 1506 409 1894 409 
Q 2359 409 2629 706 
Q 2900 1003 2900 1516 
L 2900 3500 
L 3475 3500 
L 3475 0 
L 2900 0 
L 2900 538 
Q 2691 219 2414 64 
Q 2138 -91 1772 -91 
Q 1169 -91 856 284 
Q 544 659 544 1381 
z
M 1991 3584 
L 1991 3584 
z
" transform="scale(0.015625)"/>
       <path id="DejaVuSans-70" d="M 1159 525 
L 1159 -1331 
L 581 -1331 
L 581 3500 
L 1159 3500 
L 1159 2969 
Q 1341 3281 1617 3432 
Q 1894 3584 2278 3584 
Q 2916 3584 3314 3078 
Q 3713 2572 3713 1747 
Q 3713 922 3314 415 
Q 2916 -91 2278 -91 
Q 1894 -91 1617 61 
Q 1341 213 1159 525 
z
M 3116 1747 
Q 3116 2381 2855 2742 
Q 2594 3103 2138 3103 
Q 1681 3103 1420 2742 
Q 1159 2381 1159 1747 
Q 1159 1113 1420 752 
Q 1681 391 2138 391 
Q 2594 391 2855 752 
Q 3116 1113 3116 1747 
z
" transform="scale(0.015625)"/>
      </defs>
      <use xlink:href="#DejaVuSans-49" transform="translate(0 0.09375)"/>
      <use xlink:href="#DejaVuSans-44" transform="translate(30.449219 -16.3125) scale(0.7)"/>
      <use xlink:href="#DejaVuSans-2c" transform="translate(87.084961 0.09375)"/>
      <use xlink:href="#DejaVuSans-20" transform="translate(118.87207 0.09375)"/>
      <use xlink:href="#DejaVuSans-75" transform="translate(150.65918 0.09375)"/>
      <use xlink:href="#DejaVuSans-70" transform="translate(214.038086 0.09375)"/>
     </g>
    </g>
    <g id="line2d_54">
     <path d="M 130.5 45.595313 
L 140.5 45.595313 
L 150.5 45.595313 
" style="fill: none; stroke: #f5c92a; stroke-width: 1.5; stroke-linecap: square"/>
    </g>
    <g id="text_23">
     <!-- $\mathregular{I_{D}}$, down -->
     <g transform="translate(158.5 49.095313) scale(0.1 -0.1)">
      <defs>
       <path id="DejaVuSans-64" d="M 2906 2969 
L 2906 4863 
L 3481 4863 
L 3481 0 
L 2906 0 
L 2906 525 
Q 2725 213 2448 61 
Q 2172 -91 1784 -91 
Q 1150 -91 751 415 
Q 353 922 353 1747 
Q 353 2572 751 3078 
Q 1150 3584 1784 3584 
Q 2172 3584 2448 3432 
Q 2725 3281 2906 2969 
z
M 947 1747 
Q 947 1113 1208 752 
Q 1469 391 1925 391 
Q 2381 391 2643 752 
Q 2906 1113 2906 1747 
Q 2906 2381 2643 2742 
Q 2381 3103 1925 3103 
Q 1469 3103 1208 2742 
Q 947 2381 947 1747 
z
" transform="scale(0.015625)"/>
       <path id="DejaVuSans-6f" d="M 1959 3097 
Q 1497 3097 1228 2736 
Q 959 2375 959 1747 
Q 959 1119 1226 758 
Q 1494 397 1959 397 
Q 2419 397 2687 759 
Q 2956 1122 2956 1747 
Q 2956 2369 2687 2733 
Q 2419 3097 1959 3097 
z
M 1959 3584 
Q 2709 3584 3137 3096 
Q 3566 2609 3566 1747 
Q 3566 888 3137 398 
Q 2709 -91 1959 -91 
Q 1206 -91 779 398 
Q 353 888 353 1747 
Q 353 2609 779 3096 
Q 1206 3584 1959 3584 
z
" transform="scale(0.015625)"/>
       <path id="DejaVuSans-77" d="M 269 3500 
L 844 3500 
L 1563 769 
L 2278 3500 
L 2956 3500 
L 3675 769 
L 4391 3500 
L 4966 3500 
L 4050 0 
L 3372 0 
L 2619 2869 
L 1863 0 
L 1184 0 
L 269 3500 
z
" transform="scale(0.015625)"/>
       <path id="DejaVuSans-6e" d="M 3513 2113 
L 3513 0 
L 2938 0 
L 2938 2094 
Q 2938 2591 2744 2837 
Q 2550 3084 2163 3084 
Q 1697 3084 1428 2787 
Q 1159 2491 1159 1978 
L 1159 0 
L 581 0 
L 581 3500 
L 1159 3500 
L 1159 2956 
Q 1366 3272 1645 3428 
Q 1925 3584 2291 3584 
Q 2894 3584 3203 3211 
Q 3513 2838 3513 2113 
z
" transform="scale(0.015625)"/>
      </defs>
      <use xlink:href="#DejaVuSans-49" transform="translate(0 0.015625)"/>
      <use xlink:href="#DejaVuSans-44" transform="translate(30.449219 -16.390625) scale(0.7)"/>
      <use xlink:href="#DejaVuSans-2c" transform="translate(87.084961 0.015625)"/>
      <use xlink:href="#DejaVuSans-20" transform="translate(118.87207 0.015625)"/>
      <use xlink:href="#DejaVuSans-64" transform="translate(150.65918 0.015625)"/>
      <use xlink:href="#DejaVuSans-6f" transform="translate(214.135742 0.015625)"/>
      <use xlink:href="#DejaVuSans-77" transform="translate(275.317383 0.015625)"/>
      <use xlink:href="#DejaVuSans-6e" transform="translate(357.104492 0.015625)"/>
     </g>
    </g>
   </g>
  </g>
 </g>
 <defs>
  <clipPath id="pbde35376cd">
   <rect x="42.2" y="17.798438" width="167.4" height="221.76"/>
  </clipPath>
 </defs>
</svg>
