<?xml version="1.0" encoding="utf-8" standalone="no"?>
<!DOCTYPE svg PUBLIC "-//W3C//DTD SVG 1.1//EN"
  "http://www.w3.org/Graphics/SVG/1.1/DTD/svg11.dtd">
<svg xmlns:xlink="http://www.w3.org/1999/xlink" width="375.959375pt" height="273.614688pt" viewBox="0 0 375.959375 273.614688" xmlns="http://www.w3.org/2000/svg" version="1.1">
 <metadata>
  <rdf:RDF xmlns:dc="http://purl.org/dc/elements/1.1/" xmlns:cc="http://creativecommons.org/ns#" xmlns:rdf="http://www.w3.org/1999/02/22-rdf-syntax-ns#">
   <cc:Work>
    <dc:type rdf:resource="http://purl.org/dc/dcmitype/StillImage"/>
    <dc:date>2024-05-28T10:35:01.912708</dc:date>
    <dc:format>image/svg+xml</dc:format>
    <dc:creator>
     <cc:Agent>
      <dc:title>Matplotlib v3.7.1, https://matplotlib.org/</dc:title>
     </cc:Agent>
    </dc:creator>
   </cc:Work>
  </rdf:RDF>
 </metadata>
 <defs>
  <style type="text/css">*{stroke-linejoin: round; stroke-linecap: butt}</style>
 </defs>
 <g id="figure_1">
  <g id="patch_1">
   <path d="M 0 273.614688 
L 375.959375 273.614688 
L 375.959375 0 
L 0 0 
z
" style="fill: #ffffff"/>
  </g>
  <g id="axes_1">
   <g id="patch_2">
    <path d="M 30.778125 239.558437 
L 365.578125 239.558437 
L 365.578125 17.798438 
L 30.778125 17.798438 
z
" style="fill: #ffffff"/>
   </g>
   <g id="matplotlib.axis_1">
    <g id="xtick_1">
     <g id="line2d_1">
      <defs>
       <path id="m44337feac4" d="M 0 0 
L 0 -6 
" style="stroke: #000000; stroke-width: 0.8"/>
      </defs>
      <g>
       <use xlink:href="#m44337feac4" x="30.778125" y="239.558437" style="stroke: #000000; stroke-width: 0.8"/>
      </g>
     </g>
     <g id="text_1">
      <!-- −80 -->
      <g transform="translate(20.225781 250.656875) scale(0.1 -0.1)">
       <defs>
        <path id="DejaVuSans-2212" d="M 678 2272 
L 4684 2272 
L 4684 1741 
L 678 1741 
L 678 2272 
z
" transform="scale(0.015625)"/>
        <path id="DejaVuSans-38" d="M 2034 2216 
Q 1584 2216 1326 1975 
Q 1069 1734 1069 1313 
Q 1069 891 1326 650 
Q 1584 409 2034 409 
Q 2484 409 2743 651 
Q 3003 894 3003 1313 
Q 3003 1734 2745 1975 
Q 2488 2216 2034 2216 
z
M 1403 2484 
Q 997 2584 770 2862 
Q 544 3141 544 3541 
Q 544 4100 942 4425 
Q 1341 4750 2034 4750 
Q 2731 4750 3128 4425 
Q 3525 4100 3525 3541 
Q 3525 3141 3298 2862 
Q 3072 2584 2669 2484 
Q 3125 2378 3379 2068 
Q 3634 1759 3634 1313 
Q 3634 634 3220 271 
Q 2806 -91 2034 -91 
Q 1263 -91 848 271 
Q 434 634 434 1313 
Q 434 1759 690 2068 
Q 947 2378 1403 2484 
z
M 1172 3481 
Q 1172 3119 1398 2916 
Q 1625 2713 2034 2713 
Q 2441 2713 2670 2916 
Q 2900 3119 2900 3481 
Q 2900 3844 2670 4047 
Q 2441 4250 2034 4250 
Q 1625 4250 1398 4047 
Q 1172 3844 1172 3481 
z
" transform="scale(0.015625)"/>
        <path id="DejaVuSans-30" d="M 2034 4250 
Q 1547 4250 1301 3770 
Q 1056 3291 1056 2328 
Q 1056 1369 1301 889 
Q 1547 409 2034 409 
Q 2525 409 2770 889 
Q 3016 1369 3016 2328 
Q 3016 3291 2770 3770 
Q 2525 4250 2034 4250 
z
M 2034 4750 
Q 2819 4750 3233 4129 
Q 3647 3509 3647 2328 
Q 3647 1150 3233 529 
Q 2819 -91 2034 -91 
Q 1250 -91 836 529 
Q 422 1150 422 2328 
Q 422 3509 836 4129 
Q 1250 4750 2034 4750 
z
" transform="scale(0.015625)"/>
       </defs>
       <use xlink:href="#DejaVuSans-2212"/>
       <use xlink:href="#DejaVuSans-38" x="83.789062"/>
       <use xlink:href="#DejaVuSans-30" x="147.412109"/>
      </g>
     </g>
    </g>
    <g id="xtick_2">
     <g id="line2d_2">
      <g>
       <use xlink:href="#m44337feac4" x="72.628125" y="239.558437" style="stroke: #000000; stroke-width: 0.8"/>
      </g>
     </g>
     <g id="text_2">
      <!-- −70 -->
      <g transform="translate(62.075781 250.656875) scale(0.1 -0.1)">
       <defs>
        <path id="DejaVuSans-37" d="M 525 4666 
L 3525 4666 
L 3525 4397 
L 1831 0 
L 1172 0 
L 2766 4134 
L 525 4134 
L 525 4666 
z
" transform="scale(0.015625)"/>
       </defs>
       <use xlink:href="#DejaVuSans-2212"/>
       <use xlink:href="#DejaVuSans-37" x="83.789062"/>
       <use xlink:href="#DejaVuSans-30" x="147.412109"/>
      </g>
     </g>
    </g>
    <g id="xtick_3">
     <g id="line2d_3">
      <g>
       <use xlink:href="#m44337feac4" x="114.478125" y="239.558437" style="stroke: #000000; stroke-width: 0.8"/>
      </g>
     </g>
     <g id="text_3">
      <!-- −60 -->
      <g transform="translate(103.925781 250.656875) scale(0.1 -0.1)">
       <defs>
        <path id="DejaVuSans-36" d="M 2113 2584 
Q 1688 2584 1439 2293 
Q 1191 2003 1191 1497 
Q 1191 994 1439 701 
Q 1688 409 2113 409 
Q 2538 409 2786 701 
Q 3034 994 3034 1497 
Q 3034 2003 2786 2293 
Q 2538 2584 2113 2584 
z
M 3366 4563 
L 3366 3988 
Q 3128 4100 2886 4159 
Q 2644 4219 2406 4219 
Q 1781 4219 1451 3797 
Q 1122 3375 1075 2522 
Q 1259 2794 1537 2939 
Q 1816 3084 2150 3084 
Q 2853 3084 3261 2657 
Q 3669 2231 3669 1497 
Q 3669 778 3244 343 
Q 2819 -91 2113 -91 
Q 1303 -91 875 529 
Q 447 1150 447 2328 
Q 447 3434 972 4092 
Q 1497 4750 2381 4750 
Q 2619 4750 2861 4703 
Q 3103 4656 3366 4563 
z
" transform="scale(0.015625)"/>
       </defs>
       <use xlink:href="#DejaVuSans-2212"/>
       <use xlink:href="#DejaVuSans-36" x="83.789062"/>
       <use xlink:href="#DejaVuSans-30" x="147.412109"/>
      </g>
     </g>
    </g>
    <g id="xtick_4">
     <g id="line2d_4">
      <g>
       <use xlink:href="#m44337feac4" x="156.328125" y="239.558437" style="stroke: #000000; stroke-width: 0.8"/>
      </g>
     </g>
     <g id="text_4">
      <!-- −50 -->
      <g transform="translate(145.775781 250.656875) scale(0.1 -0.1)">
       <defs>
        <path id="DejaVuSans-35" d="M 691 4666 
L 3169 4666 
L 3169 4134 
L 1269 4134 
L 1269 2991 
Q 1406 3038 1543 3061 
Q 1681 3084 1819 3084 
Q 2600 3084 3056 2656 
Q 3513 2228 3513 1497 
Q 3513 744 3044 326 
Q 2575 -91 1722 -91 
Q 1428 -91 1123 -41 
Q 819 9 494 109 
L 494 744 
Q 775 591 1075 516 
Q 1375 441 1709 441 
Q 2250 441 2565 725 
Q 2881 1009 2881 1497 
Q 2881 1984 2565 2268 
Q 2250 2553 1709 2553 
Q 1456 2553 1204 2497 
Q 953 2441 691 2322 
L 691 4666 
z
" transform="scale(0.015625)"/>
       </defs>
       <use xlink:href="#DejaVuSans-2212"/>
       <use xlink:href="#DejaVuSans-35" x="83.789062"/>
       <use xlink:href="#DejaVuSans-30" x="147.412109"/>
      </g>
     </g>
    </g>
    <g id="xtick_5">
     <g id="line2d_5">
      <g>
       <use xlink:href="#m44337feac4" x="198.178125" y="239.558437" style="stroke: #000000; stroke-width: 0.8"/>
      </g>
     </g>
     <g id="text_5">
      <!-- −40 -->
      <g transform="translate(187.625781 250.656875) scale(0.1 -0.1)">
       <defs>
        <path id="DejaVuSans-34" d="M 2419 4116 
L 825 1625 
L 2419 1625 
L 2419 4116 
z
M 2253 4666 
L 3047 4666 
L 3047 1625 
L 3713 1625 
L 3713 1100 
L 3047 1100 
L 3047 0 
L 2419 0 
L 2419 1100 
L 313 1100 
L 313 1709 
L 2253 4666 
z
" transform="scale(0.015625)"/>
       </defs>
       <use xlink:href="#DejaVuSans-2212"/>
       <use xlink:href="#DejaVuSans-34" x="83.789062"/>
       <use xlink:href="#DejaVuSans-30" x="147.412109"/>
      </g>
     </g>
    </g>
    <g id="xtick_6">
     <g id="line2d_6">
      <g>
       <use xlink:href="#m44337feac4" x="240.028125" y="239.558437" style="stroke: #000000; stroke-width: 0.8"/>
      </g>
     </g>
     <g id="text_6">
      <!-- −30 -->
      <g transform="translate(229.475781 250.656875) scale(0.1 -0.1)">
       <defs>
        <path id="DejaVuSans-33" d="M 2597 2516 
Q 3050 2419 3304 2112 
Q 3559 1806 3559 1356 
Q 3559 666 3084 287 
Q 2609 -91 1734 -91 
Q 1441 -91 1130 -33 
Q 819 25 488 141 
L 488 750 
Q 750 597 1062 519 
Q 1375 441 1716 441 
Q 2309 441 2620 675 
Q 2931 909 2931 1356 
Q 2931 1769 2642 2001 
Q 2353 2234 1838 2234 
L 1294 2234 
L 1294 2753 
L 1863 2753 
Q 2328 2753 2575 2939 
Q 2822 3125 2822 3475 
Q 2822 3834 2567 4026 
Q 2313 4219 1838 4219 
Q 1578 4219 1281 4162 
Q 984 4106 628 3988 
L 628 4550 
Q 988 4650 1302 4700 
Q 1616 4750 1894 4750 
Q 2613 4750 3031 4423 
Q 3450 4097 3450 3541 
Q 3450 3153 3228 2886 
Q 3006 2619 2597 2516 
z
" transform="scale(0.015625)"/>
       </defs>
       <use xlink:href="#DejaVuSans-2212"/>
       <use xlink:href="#DejaVuSans-33" x="83.789062"/>
       <use xlink:href="#DejaVuSans-30" x="147.412109"/>
      </g>
     </g>
    </g>
    <g id="xtick_7">
     <g id="line2d_7">
      <g>
       <use xlink:href="#m44337feac4" x="281.878125" y="239.558437" style="stroke: #000000; stroke-width: 0.8"/>
      </g>
     </g>
     <g id="text_7">
      <!-- −20 -->
      <g transform="translate(271.325781 250.656875) scale(0.1 -0.1)">
       <defs>
        <path id="DejaVuSans-32" d="M 1228 531 
L 3431 531 
L 3431 0 
L 469 0 
L 469 531 
Q 828 903 1448 1529 
Q 2069 2156 2228 2338 
Q 2531 2678 2651 2914 
Q 2772 3150 2772 3378 
Q 2772 3750 2511 3984 
Q 2250 4219 1831 4219 
Q 1534 4219 1204 4116 
Q 875 4013 500 3803 
L 500 4441 
Q 881 4594 1212 4672 
Q 1544 4750 1819 4750 
Q 2544 4750 2975 4387 
Q 3406 4025 3406 3419 
Q 3406 3131 3298 2873 
Q 3191 2616 2906 2266 
Q 2828 2175 2409 1742 
Q 1991 1309 1228 531 
z
" transform="scale(0.015625)"/>
       </defs>
       <use xlink:href="#DejaVuSans-2212"/>
       <use xlink:href="#DejaVuSans-32" x="83.789062"/>
       <use xlink:href="#DejaVuSans-30" x="147.412109"/>
      </g>
     </g>
    </g>
    <g id="xtick_8">
     <g id="line2d_8">
      <g>
       <use xlink:href="#m44337feac4" x="323.728125" y="239.558437" style="stroke: #000000; stroke-width: 0.8"/>
      </g>
     </g>
     <g id="text_8">
      <!-- −10 -->
      <g transform="translate(313.175781 250.656875) scale(0.1 -0.1)">
       <defs>
        <path id="DejaVuSans-31" d="M 794 531 
L 1825 531 
L 1825 4091 
L 703 3866 
L 703 4441 
L 1819 4666 
L 2450 4666 
L 2450 531 
L 3481 531 
L 3481 0 
L 794 0 
L 794 531 
z
" transform="scale(0.015625)"/>
       </defs>
       <use xlink:href="#DejaVuSans-2212"/>
       <use xlink:href="#DejaVuSans-31" x="83.789062"/>
       <use xlink:href="#DejaVuSans-30" x="147.412109"/>
      </g>
     </g>
    </g>
    <g id="xtick_9">
     <g id="line2d_9">
      <g>
       <use xlink:href="#m44337feac4" x="365.578125" y="239.558437" style="stroke: #000000; stroke-width: 0.8"/>
      </g>
     </g>
     <g id="text_9">
      <!-- 0 -->
      <g transform="translate(362.396875 250.656875) scale(0.1 -0.1)">
       <use xlink:href="#DejaVuSans-30"/>
      </g>
     </g>
    </g>
    <g id="xtick_10">
     <g id="line2d_10">
      <defs>
       <path id="m8935950705" d="M 0 0 
L 0 -4 
" style="stroke: #000000; stroke-width: 0.6"/>
      </defs>
      <g>
       <use xlink:href="#m8935950705" x="51.703125" y="239.558437" style="stroke: #000000; stroke-width: 0.6"/>
      </g>
     </g>
    </g>
    <g id="xtick_11">
     <g id="line2d_11">
      <g>
       <use xlink:href="#m8935950705" x="93.553125" y="239.558437" style="stroke: #000000; stroke-width: 0.6"/>
      </g>
     </g>
    </g>
    <g id="xtick_12">
     <g id="line2d_12">
      <g>
       <use xlink:href="#m8935950705" x="135.403125" y="239.558437" style="stroke: #000000; stroke-width: 0.6"/>
      </g>
     </g>
    </g>
    <g id="xtick_13">
     <g id="line2d_13">
      <g>
       <use xlink:href="#m8935950705" x="177.253125" y="239.558437" style="stroke: #000000; stroke-width: 0.6"/>
      </g>
     </g>
    </g>
    <g id="xtick_14">
     <g id="line2d_14">
      <g>
       <use xlink:href="#m8935950705" x="219.103125" y="239.558437" style="stroke: #000000; stroke-width: 0.6"/>
      </g>
     </g>
    </g>
    <g id="xtick_15">
     <g id="line2d_15">
      <g>
       <use xlink:href="#m8935950705" x="260.953125" y="239.558437" style="stroke: #000000; stroke-width: 0.6"/>
      </g>
     </g>
    </g>
    <g id="xtick_16">
     <g id="line2d_16">
      <g>
       <use xlink:href="#m8935950705" x="302.803125" y="239.558437" style="stroke: #000000; stroke-width: 0.6"/>
      </g>
     </g>
    </g>
    <g id="xtick_17">
     <g id="line2d_17">
      <g>
       <use xlink:href="#m8935950705" x="344.653125" y="239.558437" style="stroke: #000000; stroke-width: 0.6"/>
      </g>
     </g>
    </g>
    <g id="text_10">
     <!-- V$_D$ (V) -->
     <g transform="translate(182.928125 264.335) scale(0.1 -0.1)">
      <defs>
       <path id="DejaVuSans-56" d="M 1831 0 
L 50 4666 
L 709 4666 
L 2188 738 
L 3669 4666 
L 4325 4666 
L 2547 0 
L 1831 0 
z
" transform="scale(0.015625)"/>
       <path id="DejaVuSans-Oblique-44" d="M 1081 4666 
L 2438 4666 
Q 3519 4666 4070 4208 
Q 4622 3750 4622 2847 
Q 4622 2250 4412 1698 
Q 4203 1147 3834 769 
Q 3463 381 2891 190 
Q 2319 0 1538 0 
L 172 0 
L 1081 4666 
z
M 1613 4147 
L 909 519 
L 1734 519 
Q 2794 519 3375 1128 
Q 3956 1738 3956 2847 
Q 3956 3519 3581 3833 
Q 3206 4147 2406 4147 
L 1613 4147 
z
" transform="scale(0.015625)"/>
       <path id="DejaVuSans-20" transform="scale(0.015625)"/>
       <path id="DejaVuSans-28" d="M 1984 4856 
Q 1566 4138 1362 3434 
Q 1159 2731 1159 2009 
Q 1159 1288 1364 580 
Q 1569 -128 1984 -844 
L 1484 -844 
Q 1016 -109 783 600 
Q 550 1309 550 2009 
Q 550 2706 781 3412 
Q 1013 4119 1484 4856 
L 1984 4856 
z
" transform="scale(0.015625)"/>
       <path id="DejaVuSans-29" d="M 513 4856 
L 1013 4856 
Q 1481 4119 1714 3412 
Q 1947 2706 1947 2009 
Q 1947 1309 1714 600 
Q 1481 -109 1013 -844 
L 513 -844 
Q 928 -128 1133 580 
Q 1338 1288 1338 2009 
Q 1338 2731 1133 3434 
Q 928 4138 513 4856 
z
" transform="scale(0.015625)"/>
      </defs>
      <use xlink:href="#DejaVuSans-56" transform="translate(0 0.125)"/>
      <use xlink:href="#DejaVuSans-Oblique-44" transform="translate(69.365234 -16.28125) scale(0.7)"/>
      <use xlink:href="#DejaVuSans-20" transform="translate(126.000977 0.125)"/>
      <use xlink:href="#DejaVuSans-28" transform="translate(157.788086 0.125)"/>
      <use xlink:href="#DejaVuSans-56" transform="translate(196.801758 0.125)"/>
      <use xlink:href="#DejaVuSans-29" transform="translate(265.209961 0.125)"/>
     </g>
    </g>
   </g>
   <g id="matplotlib.axis_2">
    <g id="ytick_1">
     <g id="line2d_18">
      <defs>
       <path id="m168067d3f3" d="M 0 0 
L 6 0 
" style="stroke: #000000; stroke-width: 0.8"/>
      </defs>
      <g>
       <use xlink:href="#m168067d3f3" x="30.778125" y="239.558437" style="stroke: #000000; stroke-width: 0.8"/>
      </g>
     </g>
     <g id="text_11">
      <!-- $\mathdefault{0}$ -->
      <g transform="translate(20.878125 243.357656) scale(0.1 -0.1)">
       <use xlink:href="#DejaVuSans-30" transform="translate(0 0.78125)"/>
      </g>
     </g>
    </g>
    <g id="ytick_2">
     <g id="line2d_19">
      <g>
       <use xlink:href="#m168067d3f3" x="30.778125" y="202.530019" style="stroke: #000000; stroke-width: 0.8"/>
      </g>
     </g>
     <g id="text_12">
      <!-- $\mathdefault{1}$ -->
      <g transform="translate(20.878125 206.329237) scale(0.1 -0.1)">
       <use xlink:href="#DejaVuSans-31" transform="translate(0 0.09375)"/>
      </g>
     </g>
    </g>
    <g id="ytick_3">
     <g id="line2d_20">
      <g>
       <use xlink:href="#m168067d3f3" x="30.778125" y="165.5016" style="stroke: #000000; stroke-width: 0.8"/>
      </g>
     </g>
     <g id="text_13">
      <!-- $\mathdefault{2}$ -->
      <g transform="translate(20.878125 169.300818) scale(0.1 -0.1)">
       <use xlink:href="#DejaVuSans-32" transform="translate(0 0.78125)"/>
      </g>
     </g>
    </g>
    <g id="ytick_4">
     <g id="line2d_21">
      <g>
       <use xlink:href="#m168067d3f3" x="30.778125" y="128.473181" style="stroke: #000000; stroke-width: 0.8"/>
      </g>
     </g>
     <g id="text_14">
      <!-- $\mathdefault{3}$ -->
      <g transform="translate(20.878125 132.2724) scale(0.1 -0.1)">
       <use xlink:href="#DejaVuSans-33" transform="translate(0 0.78125)"/>
      </g>
     </g>
    </g>
    <g id="ytick_5">
     <g id="line2d_22">
      <g>
       <use xlink:href="#m168067d3f3" x="30.778125" y="91.444762" style="stroke: #000000; stroke-width: 0.8"/>
      </g>
     </g>
     <g id="text_15">
      <!-- $\mathdefault{4}$ -->
      <g transform="translate(20.878125 95.243981) scale(0.1 -0.1)">
       <use xlink:href="#DejaVuSans-34" transform="translate(0 0.09375)"/>
      </g>
     </g>
    </g>
    <g id="ytick_6">
     <g id="line2d_23">
      <g>
       <use xlink:href="#m168067d3f3" x="30.778125" y="54.416343" style="stroke: #000000; stroke-width: 0.8"/>
      </g>
     </g>
     <g id="text_16">
      <!-- $\mathdefault{5}$ -->
      <g transform="translate(20.878125 58.215562) scale(0.1 -0.1)">
       <use xlink:href="#DejaVuSans-35" transform="translate(0 0.09375)"/>
      </g>
     </g>
    </g>
    <g id="text_17">
     <!-- -I$_D$ (A) -->
     <g transform="translate(14.798438 143.778437) rotate(-90) scale(0.1 -0.1)">
      <defs>
       <path id="DejaVuSans-2d" d="M 313 2009 
L 1997 2009 
L 1997 1497 
L 313 1497 
L 313 2009 
z
" transform="scale(0.015625)"/>
       <path id="DejaVuSans-49" d="M 628 4666 
L 1259 4666 
L 1259 0 
L 628 0 
L 628 4666 
z
" transform="scale(0.015625)"/>
       <path id="DejaVuSans-41" d="M 2188 4044 
L 1331 1722 
L 3047 1722 
L 2188 4044 
z
M 1831 4666 
L 2547 4666 
L 4325 0 
L 3669 0 
L 3244 1197 
L 1141 1197 
L 716 0 
L 50 0 
L 1831 4666 
z
" transform="scale(0.015625)"/>
      </defs>
      <use xlink:href="#DejaVuSans-2d" transform="translate(0 0.125)"/>
      <use xlink:href="#DejaVuSans-49" transform="translate(36.083984 0.125)"/>
      <use xlink:href="#DejaVuSans-Oblique-44" transform="translate(66.533203 -16.28125) scale(0.7)"/>
      <use xlink:href="#DejaVuSans-20" transform="translate(123.168945 0.125)"/>
      <use xlink:href="#DejaVuSans-28" transform="translate(154.956055 0.125)"/>
      <use xlink:href="#DejaVuSans-41" transform="translate(193.969727 0.125)"/>
      <use xlink:href="#DejaVuSans-29" transform="translate(262.37793 0.125)"/>
     </g>
    </g>
    <g id="text_18">
     <!-- $\times\mathdefault{10^{−8}}\mathdefault{}$ -->
     <g transform="translate(30.778125 14.798438) scale(0.1 -0.1)">
      <defs>
       <path id="DejaVuSans-d7" d="M 4488 3438 
L 3059 2003 
L 4488 575 
L 4116 197 
L 2681 1631 
L 1247 197 
L 878 575 
L 2303 2003 
L 878 3438 
L 1247 3816 
L 2681 2381 
L 4116 3816 
L 4488 3438 
z
" transform="scale(0.015625)"/>
      </defs>
      <use xlink:href="#DejaVuSans-d7" transform="translate(0 0.765625)"/>
      <use xlink:href="#DejaVuSans-31" transform="translate(83.789062 0.765625)"/>
      <use xlink:href="#DejaVuSans-30" transform="translate(147.412109 0.765625)"/>
      <use xlink:href="#DejaVuSans-2212" transform="translate(211.992188 39.046875) scale(0.7)"/>
      <use xlink:href="#DejaVuSans-38" transform="translate(270.644531 39.046875) scale(0.7)"/>
     </g>
    </g>
   </g>
   <g id="line2d_24">
    <path d="M 365.569294 239.547935 
L 361.38457 239.360888 
L 357.196582 239.172235 
L 353.006918 228.623434 
L 348.818259 228.987829 
L 344.629059 229.2962 
L 340.440983 229.788675 
L 336.256762 230.154634 
L 332.067936 230.407648 
L 327.879783 230.829267 
L 323.690413 231.125244 
L 319.50238 231.346096 
L 315.313177 231.68222 
L 311.124896 231.96242 
L 306.942973 232.081109 
L 302.761055 232.318578 
L 298.578006 232.472269 
L 294.395624 232.471456 
L 290.213785 232.556079 
L 286.030525 232.685936 
L 281.853883 232.577939 
L 277.672419 232.560609 
L 273.488664 232.67451 
L 269.307536 232.545594 
L 265.125034 232.54608 
L 260.942237 232.642173 
L 256.761149 232.644266 
L 252.575127 232.652978 
L 248.387221 232.833902 
L 244.197687 232.945677 
L 240.009279 233.033255 
L 235.820743 233.272984 
L 231.633013 233.408755 
L 227.444756 233.484353 
L 223.261289 233.687964 
L 219.072936 233.740733 
L 214.883977 233.768153 
L 210.695736 233.907938 
L 206.507543 233.941386 
L 202.319255 233.925291 
L 198.131445 234.028347 
L 193.947514 234.042345 
L 189.765436 234.009817 
L 185.582958 234.077746 
L 181.401247 234.092563 
L 177.219073 233.993429 
L 173.037154 234.032473 
L 168.856193 234.005321 
L 164.67809 233.892688 
L 160.496171 233.905727 
L 156.314076 233.8629 
L 152.131742 233.723885 
L 147.95158 233.737231 
L 143.769198 233.667285 
L 139.58573 233.562151 
L 135.397617 233.571942 
L 131.204619 233.539403 
L 127.017129 233.428618 
L 122.82959 233.409872 
L 118.641685 233.443671 
L 114.456333 233.343591 
L 110.272451 233.323069 
L 106.080985 233.38589 
L 101.894628 233.285506 
L 97.707409 233.270017 
L 93.519216 233.343103 
L 89.330928 233.256094 
L 85.142384 233.22634 
L 80.956841 233.304148 
L 76.775225 233.247219 
L 72.593003 233.21749 
L 68.425692 233.300695 
L 64.243438 233.243009 
L 60.061503 233.185796 
L 55.8796 233.232043 
L 51.702518 233.228091 
L 47.521733 233.157205 
L 43.339702 233.200391 
L 39.157576 233.206501 
L 34.97628 233.116036 
L 30.793355 233.118678 
" clip-path="url(#pd0495db5e0)" style="fill: none; stroke: #e0f3db; stroke-width: 1.5; stroke-linecap: square"/>
   </g>
   <g id="line2d_25">
    <path d="M 365.565986 89.570287 
L 361.384148 224.548683 
L 357.191846 204.539509 
L 353.002891 198.374725 
L 348.81331 195.71205 
L 344.624564 195.085372 
L 340.437493 195.400629 
L 336.252934 196.603564 
L 332.063562 198.503034 
L 327.875864 200.47713 
L 323.685444 202.736647 
L 319.498584 205.109603 
L 315.309836 207.111848 
L 311.122561 209.151687 
L 306.937789 210.789863 
L 302.756369 212.250818 
L 298.574526 213.668195 
L 294.392064 214.946977 
L 290.211478 215.898442 
L 286.028386 216.735064 
L 281.851145 217.428789 
L 277.668683 218.026376 
L 273.485591 218.5412 
L 269.303537 219.001406 
L 265.122121 219.390914 
L 260.940282 219.727769 
L 256.758227 220.093337 
L 252.573251 220.474239 
L 248.382001 220.87123 
L 244.191788 221.345466 
L 240.005344 221.825032 
L 235.818492 222.303943 
L 231.630586 222.773971 
L 227.442665 223.210236 
L 223.260634 223.655107 
L 219.070829 224.004121 
L 214.882492 224.297584 
L 210.694587 224.54064 
L 206.508086 235.782418 
L 202.318057 231.429767 
L 198.130231 231.535336 
L 193.946924 231.798021 
L 189.765212 231.905093 
L 185.583166 232.009634 
L 181.397559 232.223281 
L 177.21861 232.232536 
L 173.036611 232.31031 
L 168.855906 232.436724 
L 164.678137 232.414263 
L 160.496123 232.504672 
L 156.314539 232.492677 
L 152.131407 232.477776 
L 147.951164 232.568389 
L 143.768942 232.480391 
L 139.585571 232.488585 
L 135.398112 232.577152 
L 131.208626 232.479666 
L 127.020337 232.531048 
L 122.832176 232.520366 
L 118.644207 232.488433 
L 114.456206 232.581847 
L 110.272579 232.52017 
L 106.083651 232.524949 
L 101.894533 232.60338 
L 97.707186 232.526163 
L 93.518674 232.585699 
L 89.330417 232.594452 
L 85.142767 232.55888 
L 80.956681 232.661745 
L 76.774874 232.592727 
L 72.592205 232.614082 
L 68.425117 232.732309 
L 64.243374 232.624279 
L 60.061599 232.679321 
L 55.879568 232.691417 
L 51.702454 232.647201 
L 47.521222 232.739975 
L 43.33916 232.668175 
L 39.15764 232.686331 
L 34.976407 232.749646 
L 30.793387 232.67751 
" clip-path="url(#pd0495db5e0)" style="fill: none; stroke: #ccebc5; stroke-width: 1.5; stroke-linecap: square"/>
   </g>
   <g id="line2d_26">
    <path d="M 365.570172 199.531522 
L 362.112418 274.614688 
M 359.296509 274.614688 
L 357.19394 258.706116 
L 354.516181 274.614688 
M 347.56487 274.614688 
L 344.631052 269.894746 
L 340.443354 263.682925 
L 336.260487 257.368168 
L 332.065677 236.450148 
L 327.875429 230.391529 
L 323.685931 226.237707 
L 319.503605 240.183821 
L 315.309417 221.717485 
L 311.123184 216.477324 
L 306.937581 214.212571 
L 302.756369 213.376135 
L 298.574111 213.234171 
L 294.392064 213.952305 
L 290.211686 214.707754 
L 286.027764 215.749932 
L 281.851145 216.864213 
L 277.668683 217.840179 
L 273.484338 218.629012 
L 269.30542 219.278036 
L 265.121706 219.847195 
L 260.939443 220.297021 
L 256.758658 220.736562 
L 252.571583 221.093897 
L 248.383677 221.433374 
L 244.195349 221.765366 
L 240.007651 222.080246 
L 235.818492 222.362299 
L 231.631001 222.671287 
L 227.442457 223.01815 
L 223.25875 223.421965 
L 219.070398 223.81222 
L 214.880608 224.263637 
L 210.694172 224.667452 
L 206.507926 236.441501 
L 202.318712 231.532049 
L 198.130615 231.650205 
L 193.946844 231.910292 
L 189.764302 232.157581 
L 185.582543 232.231342 
L 181.401039 232.430418 
L 177.218993 232.562544 
L 173.037122 232.611682 
L 168.855315 232.789926 
L 164.677419 232.77067 
L 160.495548 232.844356 
L 156.314204 232.943591 
L 152.13195 232.886173 
L 147.951548 232.993259 
L 143.769485 232.95027 
L 139.584884 232.933944 
L 135.39733 232.991265 
L 131.208754 232.870485 
L 127.020848 232.901034 
L 122.832639 232.882727 
L 118.644031 232.805304 
L 114.455344 232.876501 
L 110.272068 232.762168 
L 106.083987 232.772157 
L 101.894628 232.809729 
L 97.706962 232.721238 
L 93.518546 232.783028 
L 89.329842 232.753309 
L 85.142703 232.709776 
L 80.956234 232.794613 
L 76.775704 232.703927 
L 72.592588 232.741962 
L 68.424734 232.817357 
L 64.242895 232.714158 
L 60.061343 232.804436 
L 55.879823 232.720294 
L 51.702454 232.745274 
L 47.521031 232.793341 
L 43.338489 232.72603 
L 39.156905 232.782871 
L 34.976216 232.772081 
L 30.793323 232.756227 
" clip-path="url(#pd0495db5e0)" style="fill: none; stroke: #a8ddb5; stroke-width: 1.5; stroke-linecap: square"/>
   </g>
   <g id="line2d_27">
    <path d="M 335.847733 274.614688 
L 332.063769 264.426083 
L 327.875652 254.795135 
L 326.275976 274.614688 
M 319.687141 274.614688 
L 319.501306 273.129255 
L 315.308795 254.772594 
L 311.264559 274.614688 
M 310.690028 274.614688 
L 306.943859 268.80311 
L 302.760552 262.94734 
L 298.579132 264.481545 
L 294.396878 256.365437 
L 290.216843 249.807888 
L 286.029312 234.318885 
L 281.851496 230.170564 
L 277.669785 228.048872 
L 273.4869 227.002348 
L 269.307935 237.111396 
L 265.121706 223.873007 
L 260.940074 222.322179 
L 256.758019 222.124385 
L 252.571583 222.210237 
L 248.38493 222.414762 
L 244.194925 222.650339 
L 240.007227 222.918084 
L 235.818907 223.085764 
L 231.630586 223.25447 
L 227.440988 223.410836 
L 223.258942 223.603299 
L 219.070621 223.779207 
L 214.879363 223.999819 
L 210.694172 224.248954 
L 206.504797 224.509219 
L 202.315998 236.828183 
L 198.130726 231.183745 
L 193.946716 231.427676 
L 189.764622 231.631413 
L 185.582863 231.818094 
L 181.401423 232.045485 
L 177.218961 232.130308 
L 173.036851 232.339532 
L 168.85565 232.45788 
L 164.677419 232.504877 
L 160.496203 232.663937 
L 156.314954 232.630592 
L 152.128358 232.740151 
L 147.950957 232.820799 
L 143.76907 232.779107 
L 139.58573 232.852939 
L 135.398447 232.807816 
L 131.208929 232.818889 
L 127.020162 232.850581 
L 122.832304 232.769372 
L 118.644079 232.776405 
L 114.456206 232.69957 
L 110.272866 232.640041 
L 106.083987 232.609629 
L 101.894628 232.517551 
L 97.706675 232.535059 
L 93.519057 232.477624 
L 89.326873 232.446879 
L 85.142894 232.485321 
L 80.956841 232.422043 
L 76.77481 232.483344 
L 72.592269 232.432167 
L 68.425277 232.461457 
L 64.243821 232.480922 
L 60.06195 232.411731 
L 55.879951 232.479097 
L 51.702454 232.493455 
L 47.520999 232.443057 
L 43.338776 232.49172 
L 39.157991 232.448465 
L 34.976631 232.505058 
L 30.793834 232.523097 
" clip-path="url(#pd0495db5e0)" style="fill: none; stroke: #7bccc4; stroke-width: 1.5; stroke-linecap: square"/>
   </g>
   <g id="line2d_28">
    <path d="M 298.052507 274.614688 
L 294.392272 265.17448 
L 290.209802 255.497326 
L 288.515977 274.614688 
M 282.230442 274.614688 
L 281.852199 271.827091 
L 277.669729 254.830205 
L 273.488728 272.672381 
L 269.309611 266.599351 
L 265.12588 260.83206 
L 260.944464 261.547629 
L 256.76158 254.088355 
L 252.577011 248.269404 
L 248.386008 234.921808 
L 244.196769 231.764828 
L 240.009486 230.127139 
L 235.821086 229.315939 
L 231.631831 229.195384 
L 227.444054 229.198867 
L 223.260283 229.498392 
L 219.072761 229.757834 
L 214.884903 229.916974 
L 210.696407 230.181798 
L 206.507384 230.322906 
L 202.318376 230.480836 
L 198.130982 230.665089 
L 193.94785 230.733568 
L 189.765803 230.864111 
L 185.583421 230.976078 
L 181.401151 231.085523 
L 177.218993 231.224053 
L 173.036851 231.305731 
L 168.856448 231.496242 
L 164.678632 231.670686 
L 160.496426 231.772853 
L 156.314204 231.959491 
L 152.132205 232.02366 
L 147.95142 232.180413 
L 143.769661 232.298137 
L 139.585858 232.339271 
L 135.397841 232.472522 
L 131.208834 232.480162 
L 127.020433 232.56357 
L 122.833533 232.625917 
L 118.645037 232.586092 
L 114.456764 232.654041 
L 110.272818 232.589922 
L 106.083987 232.62808 
L 101.895427 232.619996 
L 97.707824 232.543966 
L 93.519983 232.565005 
L 89.330928 232.469116 
L 85.142607 232.462484 
L 80.956937 232.450287 
L 76.775066 232.379174 
L 72.593163 232.385042 
L 68.425692 232.337159 
L 64.244044 232.319625 
L 60.061822 232.30472 
L 55.879919 232.219558 
L 51.70255 232.242061 
L 47.521509 232.16612 
L 43.339319 232.164627 
L 39.157193 232.177441 
L 34.976216 232.100956 
L 30.793195 232.116466 
" clip-path="url(#pd0495db5e0)" style="fill: none; stroke: #4eb3d3; stroke-width: 1.5; stroke-linecap: square"/>
   </g>
   <g id="line2d_29">
    <path d="M 259.862184 274.614688 
L 256.758227 266.569329 
L 252.57179 256.849622 
L 250.814941 274.614688 
M 244.843718 274.614688 
L 244.196602 270.137448 
L 241.838488 274.614688 
M 238.034706 274.614688 
L 235.822044 270.736763 
L 231.634753 264.133347 
L 227.448109 257.342568 
L 223.260586 241.35838 
L 219.07201 236.516536 
L 214.883434 233.380952 
L 210.695832 231.33504 
L 206.505867 230.283165 
L 202.318089 229.647268 
L 198.130758 229.466415 
L 193.947211 229.517237 
L 189.765037 229.513304 
L 185.582623 229.731894 
L 181.401119 229.812361 
L 177.219121 229.968314 
L 173.036851 230.128072 
L 168.855906 230.145563 
L 164.67809 230.30483 
L 160.496123 230.323984 
L 156.313661 230.447688 
L 152.131615 230.586621 
L 147.951117 230.604885 
L 143.769325 230.763251 
L 139.585938 230.835954 
L 135.397202 230.984468 
L 131.208163 231.133192 
L 127.02013 231.186269 
L 122.832943 231.370975 
L 118.644957 231.454926 
L 114.456333 231.583965 
L 110.272275 231.700499 
L 106.08346 231.691972 
L 101.894916 231.79142 
L 97.707792 231.826181 
L 93.519504 231.833489 
L 89.330513 231.86421 
L 85.142894 231.805623 
L 80.957064 231.823265 
L 76.775672 231.81055 
L 72.593322 231.753618 
L 68.425724 231.80142 
L 64.243725 231.703118 
L 60.06195 231.67557 
L 55.880334 231.6465 
L 51.703157 231.53601 
L 47.521988 231.529531 
L 43.339032 231.401685 
L 39.157097 231.342424 
L 34.976088 231.323156 
L 30.793802 231.198229 
" clip-path="url(#pd0495db5e0)" style="fill: none; stroke: #2b8cbe; stroke-width: 1.5; stroke-linecap: square"/>
   </g>
   <g id="line2d_30">
    <path d="M 223.054191 274.614688 
L 219.070621 264.376889 
L 214.880832 254.876314 
L 212.554241 274.614688 
M 208.224264 274.614688 
L 206.506266 263.679277 
L 202.319414 271.399957 
L 198.132131 264.400363 
L 193.950867 257.283434 
L 189.765037 241.35595 
L 185.582751 236.331648 
L 181.400912 232.832208 
L 177.218482 230.695878 
L 173.036611 229.332178 
L 168.854868 228.501738 
L 164.677547 228.216557 
L 160.495963 227.961107 
L 156.314204 227.944315 
L 152.132588 228.044635 
L 147.951069 228.012487 
L 143.768831 228.125383 
L 139.585012 228.218108 
L 135.397665 228.227734 
L 131.208578 228.313607 
L 127.020433 228.290562 
L 122.831426 228.404839 
L 118.644207 228.492804 
L 114.456174 228.608413 
L 110.272355 228.795234 
L 106.083619 228.879831 
L 101.89466 229.140991 
L 97.706707 229.338835 
L 93.518578 229.386638 
L 89.330417 229.555839 
L 85.142703 229.61818 
L 80.956426 229.605634 
L 76.775098 229.61737 
L 72.588916 229.522847 
L 68.421828 229.639977 
L 64.242033 229.621886 
L 60.062269 229.592504 
L 55.879696 229.586945 
L 51.702454 229.458947 
L 47.52135 229.487955 
L 43.338936 229.431981 
L 39.15764 229.401887 
L 34.975833 229.455431 
L 30.792685 229.391086 
" clip-path="url(#pd0495db5e0)" style="fill: none; stroke: #0868ac; stroke-width: 1.5; stroke-linecap: square"/>
   </g>
   <g id="line2d_31">
    <path d="M 186.649428 274.614688 
L 185.580532 271.503491 
L 181.398278 260.825608 
L 179.611223 274.614688 
M 174.363251 274.614688 
L 173.037313 266.061855 
L 168.855698 271.249192 
L 164.679925 263.149357 
L 160.499938 255.691189 
L 156.318099 253.644348 
L 152.135143 247.034469 
L 147.951372 233.974344 
L 143.769022 230.526765 
L 139.584852 228.557567 
L 135.397857 227.401622 
L 131.20952 233.810075 
L 127.018262 221.973727 
L 122.830564 220.68335 
L 118.640775 220.29356 
L 114.455168 219.87656 
L 110.27103 219.777709 
L 106.08164 219.649121 
L 101.893734 219.573464 
L 97.70626 219.646316 
L 93.516662 219.592261 
L 89.328341 219.828585 
L 85.141681 219.993271 
L 80.955468 220.154497 
L 76.774044 220.379974 
L 72.592173 220.456471 
L 68.423329 220.721878 
L 64.241458 220.824282 
L 60.060481 220.931268 
L 55.878642 221.095487 
L 51.699932 221.093432 
L 47.520615 221.187136 
L 43.33817 221.229969 
L 39.157129 221.205278 
L 34.97446 221.294311 
L 30.792206 221.241192 
" clip-path="url(#pd0495db5e0)" style="fill: none; stroke: #084081; stroke-width: 1.5; stroke-linecap: square"/>
   </g>
   <g id="line2d_32">
    <path d="M 156.133473 274.614688 
L 152.129811 264.026259 
L 150.291007 274.614688 
M 145.696922 274.614688 
L 143.768639 263.111947 
L 139.5868 267.884029 
L 135.399309 260.202163 
L 131.213272 256.66236 
L 127.023275 249.045649 
L 122.833597 235.852869 
L 118.644814 231.991872 
L 114.456126 229.724279 
L 110.272116 228.397684 
L 106.083747 227.591546 
L 101.896049 234.09587 
L 97.705206 222.563646 
L 93.517492 221.464328 
L 89.327703 221.202287 
L 85.140627 220.943333 
L 80.954797 220.899005 
L 76.773373 220.80801 
L 72.591981 220.778646 
L 68.423744 220.835972 
L 64.240851 220.750589 
L 60.059012 220.949317 
L 55.878419 221.105682 
L 51.699325 221.206868 
L 47.519785 221.362859 
L 43.338553 221.325358 
L 39.156299 221.495283 
L 34.973853 221.598155 
L 30.792206 221.613492 
" clip-path="url(#pd0495db5e0)" style="fill: none; stroke: #081d58; stroke-width: 1.5; stroke-linecap: square"/>
   </g>
   <g id="patch_3">
    <path d="M 30.778125 239.558437 
L 30.778125 17.798437 
" style="fill: none; stroke: #000000; stroke-width: 0.8; stroke-linejoin: miter; stroke-linecap: square"/>
   </g>
   <g id="patch_4">
    <path d="M 30.778125 239.558437 
L 365.578125 239.558437 
" style="fill: none; stroke: #000000; stroke-width: 0.8; stroke-linejoin: miter; stroke-linecap: square"/>
   </g>
   <g id="text_19">
    <!-- $V_G$=-40 -->
    <g transform="translate(226.359486 226.127139) scale(0.1 -0.1)">
     <defs>
      <path id="DejaVuSans-Oblique-56" d="M 1319 0 
L 500 4666 
L 1119 4666 
L 1797 653 
L 4063 4666 
L 4750 4666 
L 2053 0 
L 1319 0 
z
" transform="scale(0.015625)"/>
      <path id="DejaVuSans-Oblique-47" d="M 3494 697 
L 3738 1919 
L 2700 1919 
L 2797 2438 
L 4453 2438 
L 4050 384 
Q 3634 156 3143 32 
Q 2653 -91 2156 -91 
Q 1278 -91 783 396 
Q 288 884 288 1753 
Q 288 2475 589 3126 
Q 891 3778 1422 4213 
Q 1756 4484 2153 4617 
Q 2550 4750 3034 4750 
Q 3472 4750 3873 4639 
Q 4275 4528 4641 4306 
L 4513 3634 
Q 4231 3928 3853 4083 
Q 3475 4238 3047 4238 
Q 2550 4238 2172 4048 
Q 1794 3859 1497 3463 
Q 1244 3125 1098 2667 
Q 953 2209 953 1734 
Q 953 1081 1287 751 
Q 1622 422 2284 422 
Q 2616 422 2925 492 
Q 3234 563 3494 697 
z
" transform="scale(0.015625)"/>
      <path id="DejaVuSans-3d" d="M 678 2906 
L 4684 2906 
L 4684 2381 
L 678 2381 
L 678 2906 
z
M 678 1631 
L 4684 1631 
L 4684 1100 
L 678 1100 
L 678 1631 
z
" transform="scale(0.015625)"/>
     </defs>
     <use xlink:href="#DejaVuSans-Oblique-56" transform="translate(0 0.78125)"/>
     <use xlink:href="#DejaVuSans-Oblique-47" transform="translate(68.408203 -15.625) scale(0.7)"/>
     <use xlink:href="#DejaVuSans-3d" transform="translate(125.385742 0.78125)"/>
     <use xlink:href="#DejaVuSans-2d" transform="translate(209.174805 0.78125)"/>
     <use xlink:href="#DejaVuSans-34" transform="translate(245.258789 0.78125)"/>
     <use xlink:href="#DejaVuSans-30" transform="translate(308.881836 0.78125)"/>
    </g>
   </g>
  </g>
 </g>
 <defs>
  <clipPath id="pd0495db5e0">
   <rect x="30.778125" y="17.798438" width="334.8" height="221.76"/>
  </clipPath>
 </defs>
</svg>
